<svg xmlns="http://www.w3.org/2000/svg" viewBox="0 0 1920 1920"><defs><style>.a{fill:none;}.b{fill-rule:evenodd;}</style></defs><path class="a" d="M1746.09,1592.21a660.74,660.74,0,0,0,29.43-87.84,704.42,704.42,0,0,0,17-89.14c7.43-59.3,7.44-117.52,2.68-173.45s-14.27-109.83-26.68-161.61a1514.56,1514.56,0,0,0-44.66-150c-2.15-6-4.24-12.08-6.45-18l-3.29-9-3.3-8.87-6.59-17.42-6.67-17.25q-13.39-34.32-27-67.33c-18.07-44.09-36-86.68-52.76-128.22s-32.26-82-45.51-121.66S1548,464.06,1540,426.11l-1.51-7.12-1.34-7.08-1.36-7.07c-.43-2.36-.8-4.7-1.21-7l-1.2-7c-.42-2.35-.7-4.67-1.07-7l-1.44-9.75c0-.7-.11-1.72-.15-2.9s0-2.5.12-3.74.19-2.43.37-3.27l0-.35.07-.26c0-.16.06-.36.08-.5s.09-.49.13-.45v0c.28.07-.77-.22-1.3-.38-1.24-.37-2.57-.71-3.9-1.08q-4-1.1-7.92-2.45c-2.68-.83-5.39-1.69-8.08-2.68-1.35-.47-2.68-1-4-1.49s-2.69-1-4-1.49-2.68-1.07-4-1.64l-2-.86-2-.79c-2.61-1.09-5.21-2.27-7.79-3.57-2.51-1.12-5-2.33-7.44-3.66l-1.83-1c-.61-.35-1.17-.6-1.76-.92q-1.73-.92-3.45-1.92c-1.14-.66-2.27-1.36-3.4-2.09s-2.11-1.24-3.16-1.91-2.07-1.34-3.09-2.06l-1.52-1.1-1.4-.94c-1.83-1.25-3.66-2.67-5.38-4.12a50.16,50.16,0,0,1-4.6-3.89A58.18,58.18,0,0,1,1438.54,310c-.2-.32-.4-.66-.59-1l-.25-.49-.14-.24a5,5,0,0,1-.28-.57c-.09-.19-.21-.53-.18-.42l0-.05,0-.06s0-.11,0,0a6.17,6.17,0,0,1,.24,1,30.86,30.86,0,0,1,.59,5c0,.56,0,1.09,0,1.62,0,.71,0,1.55,0,2.29s-.06,1.52-.12,2.26l-.13,1.09c.76-9,.23-2.8.41-4.95.35-3.51,1-4.25.26-2.65a47.53,47.53,0,0,1-7.07,10.58,124.66,124.66,0,0,1-19.63,18.4,251.15,251.15,0,0,1-32.21,20.82l-2.36,1.27c-.79.41-1.58.81-2.42,1.28-1.65.91-3.31,1.78-5,2.63l-2.51,1.25c-.83.4-1.68.82-2.56,1.28-1.75.88-3.5,1.74-5.27,2.57l-2.64,1.23c-.74.33-2.08.94-2.39,1.11a.07.07,0,0,0,0,.06,2.92,2.92,0,0,1,.12.28c.23.55.69,1.77,1.22,3.43s1.13,3.79,1.72,6.19c.15.58.29,1.21.44,1.85s.29,1.28.43,1.95l.24,1.14.35,1.73.7,3.45q2.76,13.85,5,27.79a620.82,620.82,0,0,1,7.7,110c-.85,35.37-5.43,68.87-13.52,96.93a221.69,221.69,0,0,1-14.27,37.46,139.13,139.13,0,0,1-17.43,27.27,103,103,0,0,1-19.81,18.47l-1.35,1-1.41.91-1.4.94-1.46.88-1.44.9-1.51.85-1.46.85-.49.27-.25.13-.16.08-.32.17a1.73,1.73,0,0,1-.18.08s-.12.08-.11.06-.21-.48.73,1.51l1.94,4.19,1.89,4.21,1.67,3.64c1.09,2.44,2.16,4.9,3.18,7.38.53,1.32,1,2.27,1.44,3.38l1.35,3.25,1.3,3.28c.43,1.1.85,2.24,1.22,3.14,6.24,16,9.65,28.12,11.52,37.53a81.71,81.71,0,0,1,2,19c0,.91.2-5,.1-2.27l0,.56c0,.38,0,.77-.09,1.18-.14,1-.14,1.22-.23,1.76,0,.25-.09.51-.15.77l-.06.32c0,.1-.05.21-.08.34l0,.15,0-.06.08-.21a6.82,6.82,0,0,1,.36-.83,14.39,14.39,0,0,1,.74-1.47c.1-.15.33-.61.52-.94s.41-.68.62-1a59.85,59.85,0,0,1,8.92-10.72,108.48,108.48,0,0,1,15.32-12.25,139.57,139.57,0,0,1,18.26-10.14,129.54,129.54,0,0,1,16.5-6.35,85.43,85.43,0,0,1,10.12-2.58c1.89-.35,2-.26.64-.18-.45,0-.93.07-1.43.08l-1,0-1.12,0h-2.72l-3.25-.11c-1.24-.05-2.45-.15-3.76-.26s-2.86-.22-4.32-.41c-.7-.1-1.5-.17-2.3-.27s-1.6-.2-2.4-.32l-1.22-.19c15,2.38-35.19-5.62,33.23,5.27l.15-.72c.22-1,.36-1.92.53-3,.32-1.27.61-2.54.89-3.82,1.36-5.6,3.46-13,6.34-22.08l10.78-33.27,3.13-10,3.23-10.93.8-2.77.82-3,1.61-6c.53-2,1.06-3.94,1.59-6l1.55-6.5c2.08-8.4,4-18,5.66-27.52q1.18-7.59,2.24-15.19c.38-2.46.62-5.26.9-7.94l.75-8.1a324,324,0,0,0-17.76-136.54q-3-8.11-6.2-16.15-3.37-7.79-7-15.45c-.6-1.27-1.18-2.58-1.81-3.82l-1.9-3.69-3.87-7.36c-1.32-2.42-2.61-4.92-4-7.27l-4.16-7A358.8,358.8,0,0,0,1362.55,356a416.53,416.53,0,0,0-41-41.07,482.77,482.77,0,0,0-43.11-33.07c-14.58-9.82-29.34-18.63-44.21-26.68s-29.88-15-45-21.52l-12.68-5.18c-1.25-.51-2.64-1-4-1.55l-4.08-1.54-8.19-3-8.23-2.89c-2.75-.93-5.52-1.78-8.28-2.67l-8.28-2.65-4.15-1.32c-1.38-.45-2.76-.9-4.16-1.25a616.77,616.77,0,0,0-67.07-15.25l-16.78-2.61c-2.8-.47-5.58-.77-8.37-1.14l-8.37-1.07c-2.79-.34-5.58-.74-8.36-1l-8.32-.8L993.21,188c-1.39-.12-2.78-.29-4.16-.38l-4.11-.23-8.22-.46-16.43-.92-16.22-.38-8.1-.19-4.05-.1-4,.05-15.91.23-8,.12c-2.62.09-5.21.23-7.81.35-10.4.51-20.92.83-31,1.81L850,189.19c-5,.5-10,1.12-15,1.67l-7.46.85c-2.47.3-5,.53-7.41.92l-14.57,2.12c-19.42,2.82-38,6.56-56.35,10.51-2.33.46-4.54,1-6.79,1.56l-6.73,1.62c-4.47,1.09-9,2.14-13.43,3.26l-13.07,3.58-6.54,1.79c-1.08.31-2.19.59-3.25.91l-3.18,1a841,841,0,0,0-96.38,35,787.31,787.31,0,0,0-84.75,43.11c-13.25,7.77-26,15.8-38.55,24L438.38,346l-80.51,52.43-21.41,13.94-10.9,7.1-1.37.88c-.82.54.2-.12.28-.18l1.78-1.15,3.54-2.31,24-15.66L379,384.62l.17-.11-10.27,6.69-308.75,201-138,89.84-8.62,5.62c1,1.14-14.44,5.37.09,4l85.14-7.91,170.29-15.83,340.59-31.65L680,620.45c13-1.16,5,.53,8.57.66L691,622.6l4.89,3,19.58,11.89,9.79,5.95,4.9,3a7.06,7.06,0,0,1,2,1.57l1.66,1.64,13.27,13.06,13.27,13.06a14.47,14.47,0,0,1,1.58,1.67l1.33,1.75,2.67,3.49,5.33,7,10.67,14,2.66,3.5,1.34,1.75c.24.35.36.54.54.82l2,3.1,4.05,6.2c1.33,2,2.82,4.22,3.84,6l6.77,11.24c17.81,30.83,34.25,66.34,50,105.25l5.9,14.79,1.47,3.71,1.47,3.8,2.93,7.58c2,5,3.9,10.2,5.84,15.37l5.84,15.48c3.78,10.37,7.64,20.7,11.34,31.1s7.45,20.77,11,31.21q21.63,62.57,40.56,126c3.12,10.59,6.28,21.16,9.25,31.78l4.53,15.92,4.38,16c1.47,5.32,2.93,10.64,4.33,16l3.86,14.59.06.2,0,0a.45.45,0,0,1,.25,0,.31.31,0,0,1,.13,0l.06,0s0,0,0,0h-.81l-4.31.14c-5.75.16-11.49.18-17.24.29l-8.62.13-8.62,0c-23,.11-46-.59-68.95-1.62l-17.22-.89-17.2-1.18c-2.87-.21-5.74-.37-8.6-.61l-8.59-.74-8.59-.73c-2.86-.24-5.72-.48-8.58-.79L772,1177.19c-5.72-.57-11.41-1.34-17.12-2l-8.56-1c-2.85-.35-5.69-.77-8.53-1.15l-17.08-2.34-17-2.62c-2.81-.43-5.76-.86-8.31-1.3l-4-.66-3.68-.65c-9.72-1.71-17.8-3.42-23.63-5-1.39-.41-2.93-.77-4-1.16l-.2-.06h0l0,0,0,0c0,.07,0,0,0,0l0,0s.1-.08,0,0l0,0h0s0,0,0,0h0c0-.35,0-.87-.05-1.61-.14-1.28,0-3-.09-4.6-.05-.76,0-1.73.06-2.63s.06-1.82.07-2.73l.22-3c.08-1,.07-2,.23-3.09l.33-3.26c.06-.55.08-1.07.16-1.65l.24-1.74.44-3.49c.14-1.16.4-2.43.58-3.65a326.9,326.9,0,0,1,6.93-32.21c3.09-11.53,6.85-23.63,11.17-36.06l1.63-4.67,1.71-4.71c1.11-3.13,2.36-6.33,3.54-9.5s2.49-6.4,3.73-9.61l4.45-11.18c5.87-14.7,11.48-28.41,17-41l2.07-4.68c.68-1.56,1.37-3.13,2.05-4.57l4.09-8.81,4.06-8.31.5-1,.51-1,1-1.93,2-3.87a266.33,266.33,0,0,1,15.71-26.24l1.89-2.68c.63-.88,1.23-1.87,1.87-2.6,1.25-1.56,2.47-3.16,3.66-4.76q1.85-2,3.57-4.18l.43-.54.45-.44.88-.9c.58-.6,1.16-1.21,1.72-1.83l.83-.94c.29-.28.58-.52.86-.78l.85-.78.64-.61c.15-.13.37-.49.33-.37h0s0,.07,0,0h0c.05,0,0,0,0,0h0s0-.15,0,.32l0,1.63-.1,1.73,0,.43,0,.58-.09,1.17c-.15,1.55-.2,3.12-.39,4.67s-.34,3.12-.49,4.68l-.64,4.68a220.91,220.91,0,0,1-9.27,38.43c-8.79,26.45-23.48,55.36-43.37,86.2s-44.49,63.33-71.69,97.65-57.07,70.68-87.3,110.6c-15.12,20-30.33,40.9-45.27,63.13s-29.57,45.72-43.39,70.76l-5.14,9.47-5.49,10.55-5.31,10.73-5.09,10.88c-6.65,14.61-12.75,29.61-18.23,45.16a478,478,0,0,0-24.07,101,398.93,398.93,0,0,0-2.9,57.63c.16,5.06.26,10,.66,15.23s.71,10.26,1.34,15.54l1,8.55c.39,2.85.84,5.66,1.28,8.49l1.41,8.46c.54,2.8,1.11,5.6,1.69,8.4a326.53,326.53,0,0,0,20.87,65.15A311.82,311.82,0,0,0,456.44,1818a323.3,323.3,0,0,0,54.05,56.72c5.1,4.12,10.22,8.21,15.56,12,2.66,1.92,5.29,3.87,8,5.7s5.46,3.64,8.2,5.43l4.14,2.67,4.37,2.64,4.16,2.47,3.93,2.31,7.88,4.31,4,2.12,4,2a376.18,376.18,0,0,0,64.21,25.24c2.7.77,5.41,1.56,8.11,2.3l8.06,2c2.69.66,5.39,1.33,8.08,1.94l8.11,1.69c2.7.54,5.41,1.11,8.12,1.6l8.12,1.35c2.71.43,5.43.89,8.14,1.26l8.13,1a414.31,414.31,0,0,0,64.5,2.6,436.63,436.63,0,0,0,62.27-6.82A470,470,0,0,0,944.84,1914a498.28,498.28,0,0,0,142.78-100.53l2.58-2.6,2.42-2.57,4.81-5.15,9.56-10.35c.78-.87,1.6-1.72,2.36-2.61l2.25-2.66,4.5-5.34,8.94-10.73a588,588,0,0,0,59.72-90.68,677.23,677.23,0,0,0,41.59-94.74,784.56,784.56,0,0,0,26.87-95.44l4.79-23.8,4.11-23.74q3.87-24.67,6.2-49.72c1.57-16.68,2.48-33.54,2.86-50.55s.19-34.17-.78-51.56-2.54-34.93-5-52.69-5.77-35.73-10-53.84a511.06,511.06,0,0,0-16.07-54.72,472.72,472.72,0,0,0-23.31-54.87,448,448,0,0,0-31.81-53.58l-4.61-6.5c-1.56-2.15-3-4.33-4.72-6.44q-4.89-6.37-9.89-12.68c-3.44-4.15-7-8.25-10.49-12.34-.89-1-1.76-2-2.67-3l-2.77-3-5.57-5.94c-1.88-2-3.71-4-5.66-5.88L1132,960l-5.9-5.66c-2-1.9-4-3.66-6.08-5.48l-6.16-5.4c-2.06-1.79-4.12-3.61-6.23-5.26q-6.28-5.05-12.64-10a442.3,442.3,0,0,0-53.76-34.76,462.08,462.08,0,0,0-56.3-25.64q-7-2.58-14.13-5.09l-14-4.5-3.52-1.1-3.48-1-7-1.94-7-1.92-6.88-1.69-6.89-1.66c-2.3-.55-4.6-1.1-6.85-1.55l-13.59-2.8c-4.5-.86-8.93-1.6-13.4-2.39S879.34,840.66,875,840c-8.85-1.36-17.41-2.29-26.06-3.29-8.48-.8-17-1.64-25.3-2.15l-6.26-.43c-2.09-.15-4.11-.22-6.17-.34l-12.27-.57-12.08-.36-3-.09-3,0-5.93-.07-5.94-.07c-2,0-3.89,0-5.84,0l-11.65.06c-7.63.13-15.32.24-22.77.51s-14.87.55-22.27.85c-7.25.38-14.57.73-21.66,1.17s-14.15.9-21.18,1.36L643,838.05l-39.67,3.07-9.18.69-8.33.59c-5.51.32-11,.68-16.46.89s-10.83.4-16.23.58-10.68.22-15.9.17-10.41-.09-15.58-.15-10.22-.29-15.16-.61l-3.73-.2-1.87-.09-1.83-.14-7.3-.54c-2.42-.19-4.76-.45-7.15-.67l-3.55-.34-3.47-.42c-2.29-.29-4.66-.5-6.88-.84l-6.71-1c-2.23-.32-4.33-.74-6.5-1.09l-3.24-.54-3.1-.63-3.1-.62c-1-.2-2.09-.39-3.05-.64l-5.93-1.35c-1.95-.46-3.76-1-5.65-1.48-.93-.25-1.9-.47-2.79-.73l-2.64-.81-2.65-.78L424,830l-1.23-.43c-1.64-.57-3.29-1.13-4.95-1.66-3-1.22-6.22-2.29-8.9-3.55a103,103,0,0,1-14.33-7.3,83.9,83.9,0,0,1-9.82-7.06,68.44,68.44,0,0,1-6.57-6.89,16.2,16.2,0,0,0-1.4-1.81c-.45-.62-.81-1.35-1.29-2l-.35-.47a1.44,1.44,0,0,1-.3-.46c-.15-.3-.3-.6-.47-.88s-.35-.56-.54-.83-.29-.66-.46-1c-2.77-4.9-5.3-12.74-6.9-22.86-.14-1.31-.33-2.6-.53-3.9s-.21-2.75-.36-4.13c-.1-.67-.09-1.41-.13-2.13l-.1-2.16c-.14-1.42-.08-2.95-.1-4.45a149,149,0,0,1,1-18.9,175.7,175.7,0,0,1,9.57-39.58A186.82,186.82,0,0,1,384.29,678c3.24-6.46,6.84-12.84,10.77-19.06a201.93,201.93,0,0,1,12.9-18,197.14,197.14,0,0,1,14.73-16.62q7.8-7.86,16.24-14.84a201.08,201.08,0,0,1,17.44-12.71l2.23-1.45,1.11-.74,1.14-.66,4.53-2.71c1.53-.82,3.06-1.66,4.57-2.52s3.09-1.55,4.61-2.37a189,189,0,0,1,18.61-8l-110.46-306a512.86,512.86,0,0,0-53.63,23.06c-4.3,2.2-8.66,4.34-12.88,6.65l-12.65,7c-4.15,2.41-8.26,4.89-12.37,7.36l-3.09,1.86-3,1.93L279,324a527.22,527.22,0,0,0-46.1,33.67,551.29,551.29,0,0,0-41.86,38.18,522.58,522.58,0,0,0-37.46,42.24l-4.39,5.53c-1.45,1.85-2.84,3.74-4.26,5.62l-4.23,5.66c-1.41,1.88-2.81,3.78-4.15,5.72l-8.08,11.59-7.75,11.84a546.21,546.21,0,0,0-27.91,49.43A512.24,512.24,0,0,0,70.3,586.11,501.14,501.14,0,0,0,43.24,699.24,475.28,475.28,0,0,0,40,758.86c.05,5.06.08,10.1.37,15.23l.38,7.66c.14,2.55.25,5.09.5,7.68q.66,7.74,1.41,15.47c.64,5.2,1.34,10.41,2.06,15.61a419.38,419.38,0,0,0,14.46,63.25c1.74,5.32,3.42,10.6,5.34,15.9s4,10.59,6.12,15.86,4.6,10.54,7,15.77l1.8,3.92,2,3.91,4,7.78c1.36,2.58,2.66,5.17,4.11,7.73l4.44,7.65,4.53,7.61c.75,1.28,1.54,2.49,2.33,3.69l2.38,3.61c3.21,4.8,6.38,9.62,9.76,14.31s7,9.28,10.5,13.86a391.28,391.28,0,0,0,47.71,49.94,406.15,406.15,0,0,0,53.71,39.24,426.62,426.62,0,0,0,55.58,28.66c9.3,4.1,18.46,7.5,27.68,10.94l13.69,4.65,3.42,1.15,3.39,1,6.78,2,6.78,2c2.26.65,4.47,1.21,6.71,1.81,4.46,1.17,9,2.4,13.39,3.46l13.25,3c2.23.52,4.4,1,6.58,1.39l6.54,1.3,6.55,1.29,6.46,1.12c4.3.72,8.65,1.51,12.91,2.14l12.77,1.84c4.26.61,8.42,1,12.64,1.56l6.3.74,6.24.62c4.15.38,8.32.81,12.45,1.15l12.31.91,3.08.22,3,.17,6.09.33c8.16.48,16.13.68,24.17,1s15.92.31,23.76.26,15.65-.14,23.45-.27,15.47-.43,23.1-.82,15.24-.78,22.83-1.23l11.29-.8,10.45-.78,38.79-3,18.65-1.35c6-.4,12.18-.83,18.08-1.16s11.79-.64,17.64-1,11.51-.52,17.06-.66,11.08-.26,16.56-.37l8,0c1.33,0,2.69,0,4,0l3.91,0,3.9,0,2,0,1.9.06,7.59.23,7.38.35c1.22.07,2.48.1,3.66.19l3.55.25c4.82.28,9.32.77,13.9,1.17,4.38.55,8.87,1,13,1.65,2.1.31,4.23.57,6.19,1l6,1.05c1.89.41,3.79.8,5.68,1.18,1,.17,1.86.4,2.74.63l2.68.65,2.68.62,2.5.73,2.52.69,1.26.33,1.17.39q2.34.78,4.71,1.48c1.45.56,2.9,1.1,4.37,1.61a135.34,135.34,0,0,1,15.29,6.89,119.91,119.91,0,0,1,12.27,7.92c.9.77,1.82,1.5,2.77,2.21a10,10,0,0,1,1.28,1.1q.6.56,1.23,1.08a16.26,16.26,0,0,1,1.25,1.09q.57.6,1.17,1.17c.4.38.8.76,1.21,1.13s.76.84,1.15,1.24.76.82,1.16,1.22l.6.6c.19.2.36.45.55.67.72.9,1.5,1.75,2.27,2.63s1.43,1.92,2.2,2.84a17,17,0,0,1,1.07,1.51c.36.51.72,1,1.09,1.52a123.86,123.86,0,0,1,8.31,14,150.6,150.6,0,0,1,7.39,17.53,188.92,188.92,0,0,1,6.07,20.76c1.73,7.44,3.19,15.3,4.36,23.51s1.9,16.83,2.39,25.64.6,17.9.4,27.11-.68,18.57-1.59,28-2.06,18.9-3.53,28.37l-2.6,15-3,14.78a461.6,461.6,0,0,1-15.7,56,352.65,352.65,0,0,1-21.53,49.28,263.25,263.25,0,0,1-26.65,40.65q-1.86,2.18-3.69,4.36l-1.81,2.21-.9,1.11c-.3.37-.64.68-1,1-1.29,1.35-2.56,2.7-3.82,4.07l-1.88,2.07-.93,1c-.3.32-.59.58-.89.88a170.41,170.41,0,0,1-15,13.4,173.6,173.6,0,0,1-34.31,21.29,145,145,0,0,1-35.1,11.42,100.28,100.28,0,0,1-29.93,1.23c-.55-.07-1.09-.12-1.64-.17s-1.05-.2-1.58-.28l-1.58-.23c-.52-.09-1-.23-1.53-.33s-1-.2-1.53-.28l-1.48-.4c-.49-.12-1-.23-1.48-.33l-1.35-.41a50.65,50.65,0,0,1-8.95-3.45l-.44-.19-.36-.23a7.69,7.69,0,0,0-.76-.38l-.3-.21-.15-.09.09.05.14.12,0,0h0s0,0,0,0,0,0,0,0l0,0h0s0,0,0,0a.3.3,0,0,1,0,.08s0,.12,0-.05a11,11,0,0,1-.13-1.55c-.11-.51,0-1.26-.09-1.91a76.35,76.35,0,0,1,.61-10.85,154.4,154.4,0,0,1,8-32.17c2.12-6,4.63-12.24,7.46-18.45l2.18-4.66,2.3-4.64,2.43-4.67,3-5.61c16.52-30,38.15-61.56,63.13-94.54s53.22-67.5,82.83-104.82c14.8-18.69,29.93-38.09,45.11-58.6q11.38-15.39,22.75-31.61t22.5-33.56a818.65,818.65,0,0,0,42.65-74.12,634,634,0,0,0,35.64-85,546.37,546.37,0,0,0,22.67-94.86l1.65-12.32,1.33-12.38c.43-4.13.7-8.28,1-12.42l.23-3.11.11-1.56.1-1.71.36-6.84.24-6.94c.09-2.39.12-5.44.14-8.26.06-5.72,0-11.43-.19-17.15-.38-11.42-1.17-22.82-2.46-34.14s-3.08-22.55-5.31-33.66-5-22.07-8.18-32.85-7-21.35-11.15-31.69-8.92-20.4-14.07-30.19A299.22,299.22,0,0,0,962,618.82l-4.81-3.46-.3-.22c-.12,0-.16-.2-.34-.16l-.6-.42-1.22-.85L952.27,612c-3.27-2.23-6.48-4.53-9.87-6.57l-5-3.1c-1.69-1-3.36-2.08-5.1-3-3.46-1.91-6.92-3.82-10.41-5.66a294.6,294.6,0,0,0-90-29.11C827.91,564,824,563.41,820,563s-7.93-.8-11.9-1.14-8-.48-12-.67-8-.17-12-.21a341.64,341.64,0,0,0-95.71,13.91A370.7,370.7,0,0,0,558,643.69c-6.33,5.31-12.82,10.86-18.28,16.18l-7.53,7.2c-1.21,1.18-2.44,2.35-3.63,3.54l-3.43,3.59-6.82,7.24L515,685.08l-1.69,1.82-1.59,1.83q-6.33,7.35-12.56,14.8-5.87,7.44-11.59,14.94c-2,2.51-3.65,5-5.44,7.49l-5.29,7.49a591.81,591.81,0,0,0-35.66,59.08l-3.73,7.18-1.87,3.59-.92,1.79-.87,1.76-6.88,14.08-6.4,13.79c-1.09,2.32-2.07,4.54-3.06,6.78l-3,6.72c-7.8,17.82-14.74,34.88-21.2,51l-4.75,12c-1.77,4.55-3.55,9-5.29,13.63S379.71,934,378,938.67l-2.53,7L373,952.75c-6.58,19-12.75,38.57-18.25,59.14a653.28,653.28,0,0,0-13.91,65.18c-.44,2.89-.92,5.7-1.32,8.66l-1.16,8.86-.57,4.44c-.18,1.48-.32,3-.48,4.54l-.91,9.13c-.32,3-.49,6.22-.72,9.34l-.61,9.42-.34,9.72c-.09,3.26-.22,6.43-.18,9.83,0,6.72,0,13.29.37,20.3.16,3.41.31,7,.55,10.83q.51,6.21,1.12,12.4c.75,8.28,2.05,16.47,3.34,24.67.31,2,.69,4.08,1.1,6.11l1.23,6.1,1.29,6.08c.44,2,.87,4,1.41,6,2.09,8,4.13,16,6.81,23.85,1.3,3.93,2.6,7.85,4,11.73s3,7.69,4.56,11.51l2.35,5.72,2.59,5.62q2.63,5.6,5.34,11.15c1.9,3.65,3.89,7.25,5.89,10.86l3,5.38c1,1.8,2.15,3.51,3.22,5.26q3.28,5.24,6.66,10.4c1.1,1.74,2.33,3.39,3.53,5.07l3.62,5,3.67,5c.62.82,1.23,1.65,1.86,2.46l2,2.39c2.61,3.17,5.26,6.33,7.93,9.45s5.51,6.11,8.34,9.1,5.69,5.94,8.63,8.82c6,5.63,12.18,11.08,18.34,16.54,5,3.94,10,7.82,15.16,11.55,2.58,1.86,5.12,3.76,7.76,5.54s5.32,3.49,8,5.21l4,2.56c1.35.84,2.74,1.63,4.11,2.44,2.74,1.61,5.51,3.2,8.28,4.77s5.62,3,8.44,4.48,5.67,2.92,8.55,4.31A375.11,375.11,0,0,0,547,1464.37q4.53,1.61,9.07,3.16c1.5.52,3.06,1,4.6,1.48l4.43,1.36c5,1.58,9.67,2.84,14.44,4.15,18.89,5.11,35.94,8.47,51.42,11.23l5.78,1,5.52.91c3.76.65,7.15,1.15,10.66,1.69l20.94,3.21,21,2.89c3.5.46,7,1,10.49,1.4l10.52,1.26c7,.81,14,1.73,21,2.44l21.06,2.16c3.51.38,7,.67,10.54,1l10.55.9,10.55.9c3.51.3,7,.51,10.55.76l21.12,1.43,21.14,1.11c28.19,1.28,56.41,2.1,84.64,2h10.58l10.59-.15c7-.12,14.11-.16,21.16-.36l5.29-.16,9-.21q4.92-.14,9.84-.35l9.64-.46,9.57-.46,9.54-.61,19.07-1.23,19.07-1.23,4.77-.31,4.71-.44,9.42-.88,37.68-3.55c11.88-2.23,23.66-4.6,35.49-6.89l8.87-1.73,4.43-.87a8.46,8.46,0,0,0,2-.66l1.89-.75,15.12-6,15.13-6,7.57-3a12.45,12.45,0,0,0,1.76-.84l1.67-.9c1.11-.61,2.26-1.18,3.34-1.81a209.14,209.14,0,0,0,24.88-16.39c2-1.54,4-3,5.86-4.67l2.89-2.43,2.85-2.52c1.91-1.65,3.78-3.47,5.68-5.2l2.77-2.76c.93-.91,1.84-1.85,2.75-2.83a152.58,152.58,0,0,0,10.63-12.14l10-13.11c5.2-8.59,10.71-16.69,14.66-25.21a195.37,195.37,0,0,0,10.34-25.23c1.42-4.23,2.63-8.5,3.81-12.8.57-2.16,1.06-4.35,1.59-6.53s1-4.4,1.39-6.65l.64-3.37a9.38,9.38,0,0,0,.23-1.75l.11-1.85.44-7.4.88-14.81.87-14.81.44-7.4.11-1.85c-.07-.67-.19-1.37-.28-2.06l-.6-4.12-4.79-33-1.19-8.25-.6-4.12-.3-2.06a16,16,0,0,0-.4-2.09l-3.9-16.91-7.8-33.8-1-4.23-1-4.23-2.11-8.46-4.22-16.91-4.22-16.92-2.11-8.45c-.7-2.8-1.45-5.73-2.12-8.26l-5.08-19.15c-1.55-5.92-3.17-11.82-4.8-17.72l-4.87-17.7-5-17.66c-3.31-11.79-6.81-23.52-10.27-35.26q-20.85-70.41-45-139.8c-3.95-11.58-8.11-23.09-12.21-34.63s-8.38-23-12.58-34.5l-6.47-17.18c-2.16-5.72-4.3-11.44-6.57-17.26l-3.37-8.7-1.68-4.34-1.74-4.4-7-17.64c-9.57-23.66-20-47.85-31.54-72.34s-24.29-49.32-38.71-74.21l-11.22-18.68c-1.91-3.23-3.69-5.87-5.51-8.72l-5.46-8.44-3.38-5.22,3.54,1.45c6.25,2.71,12.31,5.55,18,8.57s10.82,6.19,15.56,9.35,8.74,6.38,12.28,9.38a89.58,89.58,0,0,1,8.29,8.24,34.09,34.09,0,0,1,4.23,5.69,3.21,3.21,0,0,0,.34.48c.12.15.1.28.17.41a2.12,2.12,0,0,0,.21.36,1,1,0,0,0,.13.16c0,.06,0,.1,0,.15a.69.69,0,0,0,.25.44c-.06.09-.06.14,0,.17s-.06,0,0,0h0l0,0a.27.27,0,0,0-.06.16.25.25,0,0,0,.05.16s0,0,0,.06l0,.14-.06.29a3.92,3.92,0,0,0,0,.59,2.06,2.06,0,0,1-.06.73,18.28,18.28,0,0,0-.3,2.08c-.43,1.92-.66,3.76-1.42,6.65l-.45,2-.65,2.4-.66,2.46-.32,1.23-.42,1.41-1.71,5.81-2.09,6.65L1103,642.6c-4.14,13.11-8.62,28-12.72,45.07l-3,13.2c-.92,4.68-1.8,9.47-2.65,14.21l-.64,3.56c-.1.57-.24,1.55-.35,2.3l-.35,2.42c-.45,3.21-.94,6.5-1.26,9.65s-.64,6.34-.92,9.51-.41,6.23-.59,9.35a315,315,0,0,0,4.86,72.23,325,325,0,0,0,8.76,35.63A305,305,0,0,0,1108,896q2.16,4.62,4.42,9.18c1.6,3.11,3.26,6.21,4.94,9.28l1.26,2.31,1.37,2.34,2.79,4.68,2.84,4.64,3.11,4.72a250.76,250.76,0,0,0,30.22,37.4,239.75,239.75,0,0,0,42.74,34.6c2.08,1.3,4.18,2.57,6.28,3.83s4.19,2.49,6.44,3.66c4.43,2.37,8.91,4.65,13.45,6.8s9.36,4.08,14.11,5.95,9.67,3.46,14.56,5,9.85,2.8,14.83,4c2.49.59,5,1.17,7.49,1.67s5,.91,7.46,1.32a232.32,232.32,0,0,0,29.64,3,238.86,238.86,0,0,0,55.1-4.62,268.83,268.83,0,0,0,43.2-12.71,319.14,319.14,0,0,0,32.48-14.79l1.77-.92,1.68-.9,3.35-1.82,6.13-3.46,6.06-3.49c2-1.19,4-2.43,6-3.65l6-3.7,5.89-3.86,5.87-3.9,5.78-4.06a429,429,0,0,0,82.17-76.31,464.35,464.35,0,0,0,58.13-89.79,545.84,545.84,0,0,0,35.75-92.7,656.35,656.35,0,0,0,19-90.85,778.78,778.78,0,0,0,7-87.92c.7-28.82-.08-57.2-2.06-85.21s-5.18-55.67-9.47-83.08q-3.22-20.57-7.29-41l-1-5.1L1677,324l-.66-3.12c-.46-2.18-.94-4.36-1.45-6.58s-1-4.4-1.58-6.63c-2.18-8.9-4.7-18-7.69-27.43s-6.48-19.16-10.71-29.36a317.73,317.73,0,0,0-15.42-32.12,276.6,276.6,0,0,0-23.28-35.52,244.07,244.07,0,0,0-36.31-37.85,223.86,223.86,0,0,0-54.06-33.48q-3.9-1.69-7.84-3.27c-2.66-1-5.36-2-8.06-2.93s-5.4-1.86-8.14-2.66-5.49-1.57-8.25-2.3a219.42,219.42,0,0,0-33.07-5.94c-1.35-.14-2.76-.3-4.08-.39l-4-.26q-4-.22-8-.36c-2.67-.08-5.3-.15-8-.15s-5.66.15-8.49.28-5.65.31-8.47.52c-1.43.12-2.79.2-4.26.38l-4.41.54q-4.41.57-8.79,1.29l-4.38.75c-1.45.25-2.91.53-4.4.87-5.94,1.31-11.85,2.81-17.69,4.5s-11.62,3.86-17.33,6.07A215.21,215.21,0,0,0,1326,124.9l-3.75,2.31c-1.23.78-2.52,1.57-3.65,2.36q-3.5,2.37-6.92,4.84t-6.78,5c-2.17,1.69-4.16,3.37-6.21,5.1s-4,3.47-6,5.24c-1,.88-2,1.8-2.92,2.66l-2.7,2.61c-1.79,1.75-3.56,3.53-5.31,5.32l-2.6,2.71c-.9.92-1.68,1.79-2.45,2.66q-4.68,5.25-9.15,10.69c-2.76,3.48-5.36,7-8,10.51l-1.91,2.66-1.72,2.55-3.39,5.13c-1.11,1.72-2.24,3.48-3.28,5.17l-2.93,5-2.86,5c-.46.83-1,1.7-1.38,2.5l-1.25,2.41q-2.51,4.83-4.88,9.71-2.16,4.67-4.22,9.37l-1,2.36-.94,2.27-1.8,4.54-1.76,4.56c-.6,1.54-1.07,3-1.6,4.43-1,2.94-2,5.9-3,8.83-1.76,5.69-3.53,11.51-4.91,17s-2.69,11.05-3.89,16.54c-.55,2.71-1,5.37-1.55,8.06l-.73,4-.63,4c-1.74,10.64-2.83,21-3.6,31.4s-1,20.71-.89,31.14.76,21.06,1.86,32c.3,2.76.63,5.54,1,8.3l.27,2.07c.09.8.16,1.23.22,1.62l.37,2.57,1.53,10.27c.52,3.41,1,6.86,1.57,10.24l1.72,10.18c.59,3.38,1.14,6.79,1.76,10.16l1.92,10.07,1.92,10.06,2.1,10c11.18,53.16,25.84,104,42.11,152.67S1298,740.81,1316,785.63s36.27,88,53.5,130.06c8.62,21,17,41.76,25,62.24l5.92,15.32,5.76,15.23c3.75,10,7.34,19.84,10.82,29.74a1194.91,1194.91,0,0,1,35.11,117.55c9.3,38.73,15.81,76.86,18.94,113.65s2.84,72.18-1.32,105.28-12.09,63.9-23.92,92.41Z"/><path class="b" d="M1628.42,1542.58c-3.41,1.3-1.65-5.11-2.6-7.44,2.1-3.8,4.26-8,6.23-10.93s3.57-4.81,4.94-3.8c-.68,1.87-1.28,3.76-2,5.6l-2.18,5.53Q1630.61,1537.06,1628.42,1542.58Z"/><path class="b" d="M1648.86,800.73c-5.33-12.27-6.83-19.11-8-25.5a105.24,105.24,0,0,0-6.41-23c-3.34-9.85-5.65-13.66-7.76-16.16s-4-3.61-6.38-7.88c-10.52-28.52-21-56.21-31.25-83s-20-52.67-29.19-77.62q-27.72-74.83-46.81-138c1.58.82,1.83-1,1.51-3.88s-1.09-6.93-1.75-10.61c5.87-.2,11.08,6.18,16.36,15.92,6.59,25.11,14.14,50,22.39,74.89,4.07,12.43,8.48,24.9,12.93,37.34,2.31,6.25,4.57,12.47,6.93,18.72s4.71,12.49,7.21,18.77c19.59,50.14,42.25,101,68.25,154.4-8.71-1.73-4.78,14.13-.34,30.84,1.11,4.18,2.25,8.38,3.22,12.38s1.79,7.79,2.25,11.06C1652.88,795.87,1652.36,800.42,1648.86,800.73Z"/><path class="b" d="M1325.21,706.17a10.33,10.33,0,0,0-3.29,1.29c-1.16.57-2.34,1.24-3.47,1.78a9.59,9.59,0,0,1-3.22.88,2.93,2.93,0,0,1-2.49-1.32c.66-.4,1.26-.8,1.85-1.17a15.78,15.78,0,0,1,1.76-.93,11.9,11.9,0,0,1,3.24-1.2A7.4,7.4,0,0,1,1325.21,706.17Z"/><path class="b" d="M1383.49,1024.62a213.25,213.25,0,0,1-25.37,6,217.94,217.94,0,0,1-33.94,3.08c-3.15,0-6.34,0-9.55-.09s-6.41-.34-9.64-.59l-4.85-.41c-1.63-.15-3.23-.3-4.9-.54q-5-.66-10-1.5l-5-.88c-1.65-.31-3.32-.7-5-1.07q-5-1.14-9.9-2.44c-3.28-.83-6.51-1.89-9.72-2.92s-6.38-2.15-9.51-3.3-6.12-2.46-9.11-3.75l-4.45-2-2.19-1-2.12-1.05q-4.21-2.1-8.25-4.29l-4-2.2c-1.29-.74-2.52-1.5-3.77-2.25a200.25,200.25,0,0,1-25.49-18.24c-3.42-2.94-6.6-5.79-9.4-8.49s-5.08-5.18-7.17-7.5c-1-1.15-2-2.27-2.88-3.3s-1.6-2-2.28-2.92a51.57,51.57,0,0,1-3.21-4.69,256.39,256.39,0,0,1-37.68-46.54,270.82,270.82,0,0,1-24.79-49.84,279,279,0,0,1-16-128.15c.82-2.3,1.76-4.73,2.69-7.07s1.87-4.61,2.82-6.68c1.81-3.13,3.61-5.51,5.36-6.74q-.33,4.51-.67,9.4c-.14,2.05-.27,4.13-.41,6.25l-.18,3.21c0,1-.06,2.12-.1,3.19-.11,4.27-.24,8.72-.14,13.12,0,2.21.09,4.45.13,6.72s.21,4.5.32,6.78c.46,9.14,1.44,18.43,2.77,27.94.75,4.72,1.46,9.52,2.43,14.33.47,2.41.94,4.83,1.46,7.25s1.11,4.86,1.67,7.31,1.2,4.89,1.86,7.35,1.31,4.92,2,7.4c1.48,5,3,9.92,4.75,14.94s3.64,10.07,5.62,15.1c1,2.53,2.12,5.1,3.21,7.63l1.66,3.8,1.79,3.85a281,281,0,0,0,16.79,30.83,257.49,257.49,0,0,0,22.44,30.63,235.64,235.64,0,0,0,29.13,28.8c2.76,2.26,5.46,4.45,8.29,6.6s5.82,4.23,8.75,6.26,6,4,9.07,5.85,6.07,3.72,9.3,5.41,6.36,3.37,9.52,4.95,6.48,3,9.69,4.39c6.41,2.85,13,5.12,19.35,7.27,3.19,1.09,6.38,1.93,9.53,2.82s6.27,1.71,9.33,2.4,6.07,1.3,9,1.87,5.93,1.15,8.73,1.53c5.66.8,11.12,1.56,16.39,2q4,.34,7.75.61c2.49.15,4.88.25,7.23.36,4.77.23,9,.26,13.09.34l11.15.07c3.38,0,6.41,0,9.24.12,1.43,0,2.72.08,3.94.14s2.39.15,3.49.25C1378.26,1022.73,1381.39,1023.44,1383.49,1024.62Z"/><path class="b" d="M572.62,327.65c13.33-6.28,9.17-3,4.38.36s-10.22,7,.41,1.65c-.17.93-2.3,2.5-5.4,4.28a120.17,120.17,0,0,1-11,5.73c-7.95,3.62-15.72,6.6-15.75,4.68,3.68-2.61,11.62-6.57,18-10,3.19-1.74,6.1-3.27,7.91-4.44S573.73,327.88,572.62,327.65Z"/><path class="b" d="M842.46,732.35c2.35-2.77,5.66-1.12,11.12,10C851.19,745.05,847.82,743.39,842.46,732.35Z"/><path class="b" d="M921.84,1265.47c-3.9-.58-7.25-1-10.17-1.18s-5.42-.37-7.59-.37a72.53,72.53,0,0,0-10.18.71,36.8,36.8,0,0,1-8,.35,43.67,43.67,0,0,1-11.21-3c-28.39,1.54-61.3-.55-94.07-4.25s-65.42-8.92-93.88-12.69c-6.93-.91-13.57-1.61-19.75-2.26l-9.14-.94c-1.51-.14-2.9-.32-4.37-.48s-2.93-.3-4.29-.49l-4.18-.52c-1.42-.16-2.69-.39-4.05-.58s-2.73-.38-4-.63l-1-.17c-.32-.06-.67-.12-.87-.14l-1.4-.19a72.34,72.34,0,0,1-11.54-2.76,74.48,74.48,0,0,1-19.3-9.68,72.51,72.51,0,0,1-16.12-15.71A74.74,74.74,0,0,1,576.22,1190l-.91-2.77c-.31-.93-.52-1.88-.78-2.82l-.75-2.83-.59-2.88c-.18-1-.43-1.91-.55-2.88s-.26-1.94-.42-2.91c-.38-1.93-.45-3.9-.69-5.86l-.17-1.46c0-.23,0-.53-.05-.82l0-.89-.19-3.7c0-.63-.08-1.25-.11-1.89v-1.95l0-3.91c0-1.28,0-2.64.06-4l.12-4c0-1.32.14-2.73.22-4.1l.27-4.14c1.72-22.29,6.71-46.37,13.52-70.42,3.4-12,7.27-24.13,11.45-36.15,1-3,2.1-6,3.19-9s2.18-6,3.31-9q.83-2.25,1.67-4.48c.58-1.5,1.15-3,1.73-4.48l3.57-9.2c12.82-32.78,25.28-64,39.5-90.4a285.24,285.24,0,0,1,22.32-35.56l2.93-3.83,1.45-1.9c.48-.64,1-1.19,1.51-1.79l6-6.93,6.1-6.25c1-1.06,2-2,3.07-2.88s2.06-1.83,3.08-2.73c-2.81,9.78-8.24,21.09-15.24,34.58-.92,1.6-1.75,3.45-2.68,5.21s-1.86,3.56-2.84,5.35L672.29,892c-1,1.93-2,3.8-3.06,5.81-4.06,8.08-8.47,16.51-12.9,25.72-4.5,9-9,18.84-13.68,28.74-4.6,10.09-9.26,20.33-13.88,30.85q-3.48,8-6.9,15.73-1.64,3.78-3.26,7.5c-1,2.39-2.07,4.76-3,7.1-4,9.36-7.44,18.34-10.51,26.78-3.56,13.72-5,24.75-4.92,33.67a315.7,315.7,0,0,0-11.43,53.51,215.78,215.78,0,0,0-1.38,23.33c0,1.81.1,3.55.13,5.31s.17,3.44.29,5.11a40.36,40.36,0,0,0,.41,4.24c.18,1.15.3,2.3.45,3.45a68.15,68.15,0,0,0,9.06,25.08,53.45,53.45,0,0,0,7.83,10.07l1.1,1.12a10.58,10.58,0,0,0,1.12,1.1c.81.66,1.6,1.34,2.36,2l.56.52.64.45,1.25.92c.83.61,1.58,1.29,2.47,1.82a67.53,67.53,0,0,0,13.45,6.88c1.15.46,2.34.83,3.49,1.25s2.37.68,3.51,1.09,2.36.62,3.52,1l.86.2c.31.07.49.11,1,.26.93.24,1.78.51,2.79.73,7.65,1.91,16.35,3.66,25.93,5.35l3.6.64,3.75.62,7.69,1.26,16.17,2.51c43.41,6.92,86.87,13.33,132.28,21.12,7-.42,13.84-.6,20.54-.5s13.33.24,20.06.43l10.19.25c3.44.07,6.93,0,10.48,0s7.18-.16,10.9-.33c1.86-.08,3.73-.18,5.64-.31s3.83-.34,5.79-.54c4.6.59,9.28,1.15,10.4,2.6C934.52,1258.29,926,1262.71,921.84,1265.47Z"/><path class="b" d="M593.83,957.74c1.29-4.29,3.08-9.76,5.21-15.31,1.06-2.78,2.17-5.66,3.35-8.42s2.4-5.44,3.62-8c.61-1.27,1.21-2.49,1.82-3.65s1.23-2.24,1.84-3.26a48.23,48.23,0,0,1,3.46-5.2c2.17-2.79,4.09-4,5.39-2.87,2.59-9.47,7.39-18.53,13.14-27.56C637.3,874.32,644,865.3,650.18,855l4.6-5.36,2.3-2.7,2.4-2.58,4.78-5.21c.78-.9,1.63-1.7,2.46-2.53l2.5-2.48c.82-.84,1.65-1.67,2.48-2.51s1.64-1.71,2.52-2.46l5.19-4.75c.87-.79,1.72-1.62,2.59-2.39l2.71-2.23,5-4.2a146.75,146.75,0,0,1,42.53-23c2-.61,3.9-1.31,5.89-1.85l3-.85,3-.76c2-.53,4.05-.89,6.07-1.35s4.09-.77,6.16-1a118.64,118.64,0,0,1,12.51-1.13,113.6,113.6,0,0,1,12.64.29,90.36,90.36,0,0,1,24.85,5.62,76.44,76.44,0,0,1,11.6,5.6l1.41.81c.46.28.9.59,1.35.89.9.6,1.81,1.17,2.7,1.78,1.72,1.32,3.51,2.54,5.14,4a87.59,87.59,0,0,1,23.79,32.45A124,124,0,0,1,862,876.42c.28,3.37.47,6.73.5,10.09s0,6.71-.16,10a249.31,249.31,0,0,1-2.57,25.09c-1.34,8.83-3,17.59-5.21,26.25s-4.76,17.23-7.71,25.7c-1.88,1-3,.84-3.56-.17s-.64-2.81-.54-5,.51-4.76.76-7.31A68.42,68.42,0,0,0,844,954a193,193,0,0,0,5-22.21,190.08,190.08,0,0,0,2.2-21.33c.21-3.6.27-6.66.22-9.82l0-1.11c0-.35,0-.73,0-1l-.11-1.76c0-1.17-.17-2.33-.25-3.48a123.6,123.6,0,0,0-2-13.54,165.64,165.64,0,0,0-20.17-51.58,110.69,110.69,0,0,0-11.14-8.48c-2.47-1.66-5.07-3.14-7.67-4.61-.65-.38-1.35-.67-2-1s-1.31-.73-2-1c-1.4-.58-2.71-1.32-4.14-1.83a89.26,89.26,0,0,0-17.43-5.33,100,100,0,0,0-18.44-2,110.33,110.33,0,0,0-18.88,1.3,117.68,117.68,0,0,0-18.78,4.52,111.5,111.5,0,0,0-17.94,7.77l-1.09.57-1.06.63L706.21,820c-1.4.84-2.75,1.76-4.14,2.62s-2.68,1.84-4,2.85L693.75,829l-2.36,1.92c-.79.63-1.5,1.39-2.25,2.07l-4.46,4.18c-1.51,1.34-2.89,2.88-4.29,4.37L676.23,846a23.49,23.49,0,0,0-2.09,1.74L672,849.63c-1.46,1.32-3,2.73-4.52,4.2s-3.05,3.22-4.65,4.93l-2.4,2.65c-.82.89-1.64,1.8-2.43,2.81-3.17,4-6.58,8.07-9.82,12.82l-2.49,3.54-1.26,1.79-1.22,1.89L638.27,892a391.41,391.41,0,0,0-18.9,35.37c-6,12.76-11.62,26.21-16.84,39.74C598.87,971.67,594.45,964,593.83,957.74Z"/><path class="b" d="M881.94,861.4l3.78-1.13a120.67,120.67,0,0,1,3.93,27.18c0,1.15.09,2.29.1,3.43v3.42c0,1.14,0,2.28-.07,3.42l0,1.7-.09,1.8c-.1,2.52-.3,5-.49,7.54s-.51,5.17-.76,7.74c-2.3,20.66-6.38,40.69-10.38,60.9a15.44,15.44,0,0,1-.85-3.87c-.14-1.5-.22-3.19-.25-5s0-3.81.16-5.86.16-4.22.29-6.41c.06-1.09.12-2.19.19-3.29l.1-3.32c.06-2.21.18-4.39.15-6.5a68.51,68.51,0,0,0-.82-11.38l1.06-5.53c.27-1.83.54-3.63.81-5.42.57-3.56.86-7.06,1.24-10.47.2-1.74.29-3.31.42-4.92s.2-3.2.3-4.73l.06-1.11c0-.35,0-.68,0-1l.09-2c.08-1.34.08-2.67.12-4C881.3,882,881.25,872.09,881.94,861.4Z"/><path class="b" d="M839,985.65c.87-.15,1.39.37,1.62,1.4a13.51,13.51,0,0,1-.24,4.54,51.12,51.12,0,0,1-1.71,6.8c-.81,2.54-1.74,5.31-2.91,8.15l-1.76,4.29c-.61,1.44-1.29,2.87-1.94,4.29s-1.33,2.81-2,4.18-1.38,2.68-2,4-1.32,2.47-1.92,3.62L824.3,1030c-1.14,2-2.1,3.54-2.84,4.61,1.8-8.35,5.28-16,8.77-23.83S837.2,994.77,839,985.65Z"/><path class="b" d="M894.2,1841.88a37.83,37.83,0,0,1,3.65-3.71c1.64-1.47,3.61-3.26,5.9-5.14s4.9-3.92,7.67-6.12c1.39-1.09,2.84-2.2,4.33-3.31l2.29-1.67,2.31-1.73c6.28-4.58,13.12-9.27,20.07-13.46a117.63,117.63,0,0,1,21.05-10.29c12-11,24.39-22.32,36.82-34.6,1.54-1.54,3.13-3,4.67-4.62l4.65-4.76c3.14-3.14,6.16-6.48,9.29-9.76,1.59-1.64,3-3.33,4.5-5l4.47-5.06,4.51-5.1c1.5-1.71,3.07-3.38,4.47-5.19l8.72-10.74c1.45-1.81,3-3.61,4.39-5.45s2.77-3.76,4.17-5.65l8.41-11.45c2.69-3.92,5.3-7.92,8-11.93l4-6.05c1.34-2,2.5-4.14,3.76-6.22q3.67-6.28,7.41-12.64c2.4-4.28,4.59-8.68,6.88-13.08l3.37-6.63c1.14-2.22,2.1-4.51,3.14-6.77,1,3.84,5.83-3.18,10.75-12.45,2.28-4.68,4.56-9.92,6.41-14.58.92-2.34,1.78-4.52,2.38-6.45s1-3.58,1.29-4.81c-1.24.17-2.24,1.71-3.09,3.83s-1.71,4.76-2.44,7.18c-1.5,4.84-2.78,8.7-4.38,5,2.37-6,4.94-11.83,7.09-17.76q1.7-4.41,3.39-8.8c1.12-2.92,2.3-5.81,3.28-8.73,2.08-5.8,4.13-11.54,6.15-17.18q2.76-8.52,5.41-16.71c.44-1.37.87-2.73,1.31-4.08s.77-2.71,1.15-4.05c.76-2.68,1.5-5.33,2.24-7.94s1.42-5.2,2.12-7.74,1.21-5.06,1.78-7.53c1.13-4.94,2.15-9.72,3-14.3s1.42-9,1.92-13.18c2.43-1.2.9,6,2.43,6.68.85-.28,1.73-2.88,2.63-6.28s1.83-7.58,2.59-11c1.15,1.26-1.39,14.27-3.91,24.09-2.75,9.81-5.51,16.37-4.18,5a81.06,81.06,0,0,0-2.35,11.68c-.24,1.63-.46,3.28-.88,5.21s-1,4.13-1.92,6.88c2-5.33,3.4-7.44,4.34-8.17s1.66-.09,2.39.09c1.43.36,3.11-1.2,7.44-19.71,1.53,1.78-4.17,17.77-2.13,18.44a25.27,25.27,0,0,1-5.71,9.39c-1.84,1.92-3.65,3.38-5.58,6.51-.37,2.31-1,5.43-1.94,9.06s-2.21,7.79-3.56,12.21l-2.09,6.8c-.74,2.31-1.58,4.63-2.38,7L1127.3,1573c-3.24,8.73-6.06,16.41-7.21,21s-.88,6,2.49,2.35a76,76,0,0,1-3.86,10.35c-.83,1.87-1.75,3.79-2.73,5.77s-2,4-3.23,6c-4.79,8.14-10.2,17-16.23,25.48-1.45,2.15-2.91,4.29-4.35,6.41l-2.14,3.19c-.71,1-1.48,2.08-2.2,3.11-2.92,4.13-5.69,8.18-8.17,12.1s-4.85,7.63-6.76,11.19a54.75,54.75,0,0,0-4.37,10.08c-.75,1-1.45,2-2.21,3L1064,1696l-4.45,5.74-4.32,5.62-2.1,2.76c-.7.93-1.46,1.79-2.18,2.68l-8.53,10.45-4.12,5.12-4.27,4.9c-5.68,6.51-11,13-17,19.28-1.44,1.61-2.93,3.16-4.43,4.71l-4.48,4.67c-3,3.11-6.14,6.11-9.26,9.21a376.39,376.39,0,0,1-43.34,36.12l-3.17,2.26-3.28,2.21-6.73,4.48-7.09,4.4-3.65,2.23-3.78,2.16A324.85,324.85,0,0,1,894.2,1841.88Z"/><path class="b" d="M1151.8,1452c1.73-5.85,3.6-11.68,5.3-14.47s3-2.53,3.22,3.85a39.89,39.89,0,0,1-1.93,7.33,8.78,8.78,0,0,1-2.17,3.38C1154.77,1453.28,1153.28,1452.7,1151.8,1452Z"/><path class="b" d="M1154.83,1410.06a74.77,74.77,0,0,1,1.64-10.58,35.78,35.78,0,0,1,1.91-6,38.05,38.05,0,0,0,3.59-13.09,25.72,25.72,0,0,1,.5,9,69.13,69.13,0,0,1-1.85,10.57C1158.79,1406.68,1156.29,1411.73,1154.83,1410.06Z"/><path class="b" d="M1169.46,1325.65c-1.22-.68-1.76-3.2-2-6.93s-.29-8.66-.33-14.16-.1-11.58-.6-17.57c-.24-3-.49-6-.9-8.8s-1-5.59-1.59-8.12c1.12.43,2,2.87,2.79,6.62a127.56,127.56,0,0,1,1.67,14.37c.21,2.81.29,5.74.42,8.73s.26,6,.27,9C1169.26,1314.8,1169.37,1320.65,1169.46,1325.65Z"/><path class="b" d="M1158.74,1232.85c-1-2.54-2-4.71-3-6.87s-2.13-4.3-3.19-6.8a150.41,150.41,0,0,1-7.07-22.23,28.87,28.87,0,0,1,1.76,2.45c.56.91,1.13,1.92,1.7,3a82.48,82.48,0,0,1,3.47,7.76c1.18,3,2.2,6.35,3.31,10.13.53,1.88,1.12,3.87,1.59,6S1158.26,1230.55,1158.74,1232.85Z"/><path class="b" d="M626.32,892.38q-6.75.15-12.22-.09a91.21,91.21,0,0,1-9.57-.9c-1.38-.22-2.69-.47-3.83-.75a26.56,26.56,0,0,1-2.94-1,13.26,13.26,0,0,1-4.18-2.54,37.08,37.08,0,0,0,3.75.71l2.15.26,1.13.11,1.26.09,10.52.59C619.31,889.31,625.3,890.06,626.32,892.38Z"/><path class="b" d="M901.81,1585.73l-2.07,2.27c-.67.79-1.45,1.43-2.17,2.15l-4.37,4.27-2.16,2.15-1.08,1.08-1.14,1c-1.52,1.33-3,2.66-4.51,4l-2.21,2-1.1,1c-.37.35-.73.68-1.09,1-1.44,1.18-2.83,2.38-4.24,3.58s-2.89,2.33-4.3,3.53-2.93,2.29-4.35,3.47c-11.66,9.21-23.48,17.81-34.2,26.85a176.11,176.11,0,0,1-45.26,14.11,144.64,144.64,0,0,1-43,1,129.08,129.08,0,0,1-18.32-3.85,112.07,112.07,0,0,1-15.1-5.45c-.53-.24-1-.51-1.55-.73l-.78-.34c-.25-.12-.47-.25-.71-.37-.47-.24-1-.47-1.44-.68l-.64-.36a1.77,1.77,0,0,0-.29-.14l-.12,0a2.18,2.18,0,0,1-.27-.07L705,1647a5,5,0,0,0-.79-.33,4.33,4.33,0,0,0-.74-.39l-.4-.16-.36-.22a6.29,6.29,0,0,0-.79-.35,4.88,4.88,0,0,0-.74-.42c-.14-.06-.27-.12-.42-.17l-.36-.23a5,5,0,0,0-.8-.39c-1-.63-2.11-1.13-3.11-1.81a6.12,6.12,0,0,0-.06-.63,16.56,16.56,0,0,0-.91-4.89c-.47-1.47-1.14-2.87-1.65-4.36a9,9,0,0,0-.37-1.11,1.94,1.94,0,0,1-.16-.57c-.05-.19-.1-.38-.17-.57a6.59,6.59,0,0,1-.26-1.15c0-.19-.12-.39-.14-.57a3.88,3.88,0,0,0,0-.48,35.71,35.71,0,0,1,.34-9.86,241.19,241.19,0,0,1,8.48-33,327.16,327.16,0,0,1,16.12-39.52l2.49-5,2.62-5.09,3.12-5.88,3.22-5.92q6.52-11.88,13.74-24.09,14.5-24.42,31.43-50.08c22.46-34.22,47.74-70,73.68-107.67s52.59-77.38,77.46-120.1c8.23-11.91,16.32-24.1,24.26-36.75a629,629,0,0,0,39.36-87.69,676.18,676.18,0,0,0,28.34-103.3c2.14-11.56,4.05-23.36,5.54-35.39.41-3,.69-6,1-9.07s.67-6.07.9-9.14.51-6.12.77-9.2.36-6.17.55-9.26c.08-1.56.17-3.12.26-4.69l.18-5c.07-1.66.11-3.33.14-5l.09-5.28c0-7.92-.09-15.88-.53-23.84a357.09,357.09,0,0,0-5.66-47.66,321,321,0,0,0-12.38-46.53,281.68,281.68,0,0,0-19.7-43.83,240.81,240.81,0,0,0-61.65-72.65l-3.23-2.45-.81-.61-.21-.16s0-.08-.12,0l-.11-.07L922,664l-1.64-1.18-6.63-4.71c-2.25-1.49-4.54-2.93-6.83-4.39-1.15-.71-2.27-1.46-3.45-2.13l-3.52-2-3.54-2c-1.17-.67-2.36-1.31-3.57-1.91L885.61,642c-2.43-1.17-4.92-2.24-7.38-3.35-1.24-.54-2.47-1.1-3.71-1.62l-3.77-1.49a227.21,227.21,0,0,0-30.82-9.83,243.82,243.82,0,0,0-31.82-5.59c-2.68-.28-5.36-.55-8-.79l-8.06-.48c-2.68-.18-5.37-.21-8.06-.25s-5.38-.13-8.07,0a292.29,292.29,0,0,0-32.14,2.27,301.35,301.35,0,0,0-62.27,15.08c-.73-.81-.78-2-2.93-2a17.18,17.18,0,0,0-5.12,1,99,99,0,0,0-10.22,4.25,343.25,343.25,0,0,0-35.35,17,322.14,322.14,0,0,0-33.2,21.14c-2.65,1.95-5.33,3.86-7.91,5.91s-5.16,4.08-7.73,6.15c-1.31,1.06-2.44,2.07-3.64,3.1l-3.55,3.09-6.38,5.57-3.15,2.77-3,2.84-6,5.72c-2,1.91-4,3.83-5.9,5.76l-5.58,5.88c-7.59,7.84-14.4,15.87-21.21,24L511,760.29c-1.65,2.05-3.08,4.08-4.6,6.13l-4.5,6.15c-11.78,16.41-22.33,32.92-31.78,49.21s-17.86,32.33-25.69,48.08q-2.87,5.85-5.73,11.74t-5.48,11.56l-2.67,5.73-2.61,5.67-5.11,11.25c-1.68,3.76-3.27,7.24-5.13,11.59-1.81,4.15-3.59,8.33-5.34,12.59-.87,2.13-1.74,4.25-2.62,6.38s-1.7,4.32-2.56,6.49c-1.71,4.3-3.35,8.74-5,13.16-6.55,17.75-12.6,36.32-17.8,56.06-5.07,19.27-8.29,38.95-11,59.32s-4.92,41.42-7.54,64.42c.05.77.09,1.54.14,2.31s.12,1.59.19,2.39c.13,1.6.26,3.2.39,4.82s.26,3.25.4,4.89.24,3.26.45,5q.57,5.16,1.15,10.44c.34,3.46,1,7.83,1.56,11.9.31,2.07.61,4.15.92,6.23s.64,4.17,1.05,6.26q1.17,6.26,2.46,12.58c.4,2.11.91,4.21,1.43,6.31s1,4.21,1.56,6.32,1.08,4.21,1.62,6.33,1.23,4.2,1.86,6.3c1.3,4.19,2.54,8.42,4,12.58s3,8.31,4.62,12.46c.76,2.08,1.69,4.1,2.56,6.15s1.78,4.07,2.68,6.11,1.79,4.07,2.77,6.07l3,6c3.95,8,8.58,15.62,13.25,23.17q3.7,5.53,7.51,11l1.91,2.7,2,2.62,4.08,5.19c1.41,2,2.81,4.07,4.31,6.08l4.73,6,4.93,6c1.66,2,3.51,3.92,5.31,5.9,7.12,8,15.4,15.46,24,23.11,3.15,2.52,6.32,5.08,9.62,7.53s6.64,4.92,10.06,7.31,7,4.6,10.61,6.86,7.34,4.31,11.08,6.42a302.66,302.66,0,0,0,48.14,21l6.33,2.12c2.11.7,4.3,1.32,6.46,2l5.49,1.6c1.78.5,3.48.92,5.23,1.38,3.47.9,7,1.82,10.31,2.55l5.06,1.15,2.52.56,2.44.49c13.16,2.72,25.53,4.64,36.89,6.1l8.34,1c2.76.33,5.33.57,8,.84l15.58,1.5c5.11.49,10.17.84,15.14,1.16s9.83.61,14.6.87c19.06.88,36.39,1,50.89.24a342.62,342.62,0,0,0,34.19,4.29c5.61.5,11.21.72,16.79,1s11.14.38,16.71.5l16.75,0c5.61,0,11.23,0,16.91-.07,11.36-.16,22.9-.09,34.81-.07l16,.13,16.2-.1c5.44-.06,10.9,0,16.41-.17l16.61-.38,8.38-.19,8.43-.32,6.49-.19,6.77-.25,13.39-.65c4.45-.18,8.89-.51,13.35-.8l13.41-.87,13.49-.89,6.78-.44c2.27-.13,4.49-.39,6.74-.58l27.12-2.49,6.83-.63,3.42-.31.86-.08.81-.15,1.64-.28,13.11-2.3,13.19-2.3,6.62-1.16,3.32-.58,1.66-.28a9,9,0,0,0,1.59-.37l23.66-7.81,12-3.93c3.72-1.5,7.31-3.12,10.86-4.82a182.73,182.73,0,0,0,20.62-11.56,137.65,137.65,0,0,0,19.36-15.29c6.32-5.76,11.73-12.94,17-20.14,4.44-7.34,8.64-14.62,11.5-22.22a142.08,142.08,0,0,0,6.81-22.7c.84-3.81,1.48-7.65,2.09-11.5.29-1.94.52-3.89.77-5.84s.45-3.92.61-5.92l.27-3a13.2,13.2,0,0,0,0-1.56v-1.61l0-6.43q-.06-6.42-.1-12.88c0-4.29-.07-8.6-.1-12.9l0-6.47a5.84,5.84,0,0,0,0-.82l-.14-.88-.29-1.76-.59-3.51q-2.32-14.09-4.67-28.21l-1.17-7.07-.59-3.53c-.21-1.18-.55-2.4-.81-3.6q-1.7-7.2-3.4-14.42l-6.8-28.89q-3.64-14.45-7.3-28.94L1230,1128l-1.85-7.23-1.63-6.09q-2.4-9-4.82-18c-1.6-6-3.31-12-5-18-6.6-24-13.64-47.9-20.74-71.65-14.41-47.44-29.77-94.14-45.73-139.23q-6-16.9-12.11-33.51-3.08-8.28-6.14-16.49-1.53-4.11-3-8.2l-3.12-8.13q-12.3-32.34-25.4-64c-3.36-5.27-6.18-10.31-8.8-15.31s-5.1-10-7.52-15.11c-.6-1.28-1.21-2.56-1.82-3.85l-1.91-3.93-4-8.11c-1.39-2.77-2.8-5.6-4.39-8.54s-3.32-6-5.15-9.1c-3.38-9.2-7.85-19.34-12.75-30.14-2.58-5.4-5.33-11-8.19-16.67l-2.18-4.3-2.34-4.34-4.82-8.82c-.82-1.48-1.65-3-2.47-4.47-.42-.75-.84-1.5-1.25-2.25l-1.34-2.25q-2.68-4.5-5.43-9.07c-1.83-3-3.69-6.14-5.56-9.14l-5.65-8.6-5.74-8.66-.34-.52-.14-.17-.26-.35-.53-.7-1.08-1.4-2.2-2.81c-.74-.93-1.55-1.83-2.34-2.75a153,153,0,0,0-22-20.74,173.06,173.06,0,0,0-25.61-16.22c-1.08-2.06-3.67-4.35-7.38-6.65a84.16,84.16,0,0,0-14-6.7,120.52,120.52,0,0,0-17.13-5.11A60.5,60.5,0,0,0,901.34,499a12.14,12.14,0,0,0-6.27,1.8,37,37,0,0,0-4,3.47c-.38.31-.78.63-1.23,1a6.43,6.43,0,0,1-.72.48l-.39.24,0,0,.1,0,.19-.08.39-.16a23.67,23.67,0,0,0,4.93-2.74,5.56,5.56,0,0,0,2.29-3,4.23,4.23,0,0,0-.79-3.49c10.51-4.31,19.44-8.44,28.37-12.24,4.45-1.92,8.9-3.69,13.43-5.41s9.19-3.27,14-4.61a148.67,148.67,0,0,1,15.06-3.44,135.29,135.29,0,0,1,16.23-1.85,127.92,127.92,0,0,1,34.69,2.8,142.07,142.07,0,0,1,26.25,8.88,220.45,220.45,0,0,1,20.32,10.48,58.29,58.29,0,0,1,6.22,1.43c1,.33,2,.62,3.07,1l3,1.16c1.37.54,2.75,1.07,4.07,1.67a235.31,235.31,0,0,1,30.07,15.4,206.28,206.28,0,0,1,24.83,17.59,186.69,186.69,0,0,1,18.2,17.41c1.43-.59,2.8-2.48,4.43-.35.23.48.49,1,.77,1.44.15.23.29.47.44.71s.23.47.35.71a24,24,0,0,0,1.68,2.79,24.47,24.47,0,0,0,1.65,2.73,9.84,9.84,0,0,1,.83,1.35c.25.45.53.89.83,1.33l.47.67a4.38,4.38,0,0,1,.37.66c.24.43.5.87.78,1.3l.43.65.23.32.16.34c.22.44.46.89.72,1.33l.4.67a3.67,3.67,0,0,1,.39.69c.19.48.41.95.65,1.43s.55,1,.74,1.45.35,1,.56,1.52.48,1,.65,1.54.27,1.07.44,1.6.37,1.08.52,1.63.18,1.1.29,1.66.25,1.11.38,1.68.06,1.22.11,1.84l.19,1.86-.11,2.2c-.18,5.87-1.88,13.8-5.45,22.72-.12,1-.23,1.93-.35,2.89l-.16,1.45-.24,1.57q-.5,3.18-1,6.35l-.11.79-.16.86-.3,1.72-.61,3.44-.59,3.45-.72,3.7c-1.8,9.66-4.13,20.68-6.49,32.61-.6,3-1.2,6.1-1.8,9.16-.61,3.24-1.21,6.49-1.82,9.76l-.45,2.45-.44,2.59q-.43,2.6-.88,5.22t-.86,5.24c-.3,1.74-.54,3.68-.81,5.51s-.53,3.73-.79,5.6l-.39,2.82c-.13.92-.26,1.87-.36,2.88q-.63,6-1.28,12l-.16,1.51-.16,1.8c-.11,1.26-.21,2.53-.32,3.8s-.19,2.53-.29,3.81-.13,2.5-.18,3.76c-.1,2.51-.24,5-.25,7.54s0,5,0,7.5a263.36,263.36,0,0,0,8,60.07,260,260,0,0,0,9.94,31.14,232.52,232.52,0,0,0,15.79,32.63,200.72,200.72,0,0,0,24.88,33.93,173,173,0,0,0,39.23,32c3.89,2.4,8.18,4.54,12.44,6.66,2.11,1.08,4.38,2,6.61,3s4.49,1.88,6.79,2.74,4.66,1.61,7,2.38l3.55,1.12c1.19.36,2.4.65,3.6,1q3.62.95,7.29,1.78c2.45.59,4.89.94,7.36,1.38s5,.82,7.42,1.1,4.92.49,7.4.68l3.73.27c1.24.08,2.5.1,3.75.13,2.5.06,5.06.12,7.5,0a172.47,172.47,0,0,0,28.58-3c6.85-2.24,13.75-4.83,20.46-7.73s13.14-6.11,19.37-9.47,12.17-6.91,17.85-10.5l2.12-1.35c.72-.45,1.35-.89,2-1.33l4.06-2.7,4.12-2.73,4.12-2.87c11.09-7.69,22.51-16.32,33.76-25.89a383.2,383.2,0,0,0,32.72-31.35,370.6,370.6,0,0,0,53-73.41,355.37,355.37,0,0,0,30.2-72.82,505.32,505.32,0,0,0,18-56.26c2.69-10.22,5.09-20.7,7.29-31.25s4.17-21.14,5.89-31.58c7-41.8,10.21-81,14.59-105.36.17-21.43-.23-42-1.79-63.85a586.75,586.75,0,0,0-9.52-71.43c-.72-8-.66-13.82-.85-20.18,0-1.59-.11-3.21-.21-4.91,0-.86-.1-1.68-.18-2.63s-.24-2.12-.37-3.23a139.47,139.47,0,0,0-2.84-15.48c-2.31-4.87-4.88-11-7.9-18.33s-6.54-15.92-11.1-25.85a211,211,0,0,0-10-23.9,191.59,191.59,0,0,0-16.23-27,170.65,170.65,0,0,0-26.67-29.26c-1.44-1.22-2.91-2.43-4.39-3.63s-2.94-2.38-4.57-3.56c-3.21-2.34-6.4-4.64-10-6.84q-2.62-1.65-5.31-3.24c-1.85-1.05-3.73-2.07-5.62-3.07-3.73-2-7.77-3.83-11.8-5.58a155,155,0,0,0-51.67-11.85c-2.16-.12-4.33-.21-6.49-.28l-1.63,0-1.72,0-3.44.08q-3.45.12-6.9.33c-1.16.08-2.28.12-3.48.26l-3.58.42q-3.57.45-7.16,1l-3.57.59-3.63.79q-3.63.83-7.25,1.76l-3.6,1-3.58,1.15c-2.38.79-4.76,1.63-7.12,2.5-1.18.44-2.36.89-3.53,1.35L1375,168q-3.42,1.53-6.8,3.18c-1.12.55-2.27,1.09-3.35,1.68l-3.2,1.79a156.57,156.57,0,0,0-23.52,16.17,172.31,172.31,0,0,0-33,36.83,205.14,205.14,0,0,0-19.09,36,234.7,234.7,0,0,0-10.89,33.56,275.67,275.67,0,0,0-5.87,31.78,295.27,295.27,0,0,0-2.15,30.71,284.9,284.9,0,0,0,1,30.34c.18,2.51.5,5.09.77,7.62l.45,3.81.54,3.86.57,3.84.14.95.13.72.25,1.36q.5,2.71,1,5.41,1,5.38,2,10.69c.66,3.53,1.45,7,2.18,10.44s1.49,6.86,2.23,10.24,1.59,6.67,2.38,9.95c-.63,3.26-.39,7.41.3,12s2,9.63,3.18,14.72,2.55,10.18,3.41,14.93a46.7,46.7,0,0,1,.92,12.81c12.16,43.29,27.42,85.81,44,127.45s34.59,82.36,52.28,122.53,35.08,79.8,50.59,119.18c7.75,19.69,15,39.31,21.64,58.87,3.32,9.79,6.43,19.54,9.4,29.29q2.18,7.29,4.27,14.59c1.38,4.85,2.62,9.62,3.89,14.43a177.54,177.54,0,0,0-2.71,24.12c-.28,4.21-.5,8.46-.7,12.67-.11,2.1-.21,4.2-.31,6.27l-.43,6.13c-.31,4-.67,7.93-1.14,11.61a94.25,94.25,0,0,1-2,10.32c-1.61,6.33-3.93,11.46-7.48,14.73,1.07,12.83,6.41,33.51,3.39,40.1-4.55-1.22-3,8-5,11.35,1,10.68,2.28,23.86,3.66,38.37.68,7.08,1.39,14.5,2.11,22.08.34,3.74.68,7.53,1,11.34q.27,2.85.56,5.71t.49,5.68c.32,3.78.78,7.59,1.09,11.33s.69,7.48,1.1,11.17.68,7.3,1.11,10.88c.21,1.79.43,3.57.64,5.34s.38,3.48.57,5.2c.39,3.43.86,6.81,1.36,10.1s.87,6.44,1.41,9.53c.26,1.55.55,3.07.85,4.57s.51,2.93.8,4.36q.86,4.3,1.92,8.26c3.29,5.14,6.44,10.61,9.72,15.49,3.11,4.82,6.24,9,9.43,11.52s6.43,3.34,9.73,1.33a16.68,16.68,0,0,0,5-5.29,42.33,42.33,0,0,0,2.56-4.53q.65-1.3,1.29-2.79c.41-1,.8-2.06,1.21-3.18,6.72,1.22,13.66-1.4,20.43-4.46s13.35-6.5,19.35-6.45,11.43,3.69,15.79,15.07a82.93,82.93,0,0,1,2.85,10c.42,1.94.88,4,1.22,6.23s.63,4.56.91,7.06.53,5.17.76,8,.25,5.77.34,8.9.17,6.43.08,9.88-.24,7.07-.42,10.88c.62,1.25,1.23,2.52,1.82,3.79s1.09,2.53,1.63,3.79c1,2.54,2.09,5,3.09,7.45s2,4.76,3.06,7a61.76,61.76,0,0,0,3.07,6c4.33,7.29,9.81,11.35,18.88,7.59,1.57-3.79,3.23-7.33,4.79-10.76s3.06-6.74,4.62-10c.8-1.63,1.58-3.25,2.37-4.87s1.5-3.25,2.27-4.89c1.5-3.28,3-6.62,4.53-10.1a202.7,202.7,0,0,0,15-55.45c2.33,10.49,3.23.67,6.44,0,.26-6,.17-12.67.16-19.43s-.41-13.54-.43-19.68a127.69,127.69,0,0,1,.23-15.71c.44-4.12,1.12-6.88,2.56-7.61.27,3.74.42,7.29.63,10.65s.45,6.54.71,9.56.47,5.88.72,8.6.52,5.32.81,7.79c.63,4.94,1.14,9.43,1.76,13.64s1.33,8.14,1.94,12l1.83,11.35c.3,1.9.59,3.82.9,5.77s.47,4,.68,6c.42,4.13.78,8.5,1,13.29s.1,10-.09,15.83c.58,3.28,1,6.29,1.58,9.07s1.14,5.31,1.78,7.65,1.33,4.47,2,6.42,1.36,3.74,2.09,5.37a51.78,51.78,0,0,0,9.85,14.48c3.43,3.78,6.74,7.14,9.5,12.17a41.21,41.21,0,0,1,3.57,9.08,42.91,42.91,0,0,1,1.18,6c.3,2.18.52,4.57.66,7.2-1.2,3.93-2.2,7-3.07,9.71s-1.75,5-2.47,7.43-1.37,4.92-2,8c-.33,1.53-.62,3.21-1,5.07s-.79,3.92-1.22,6.23c2.77,6.28,6.34,3.86,8.85,3.88,1.25,0,2.23.65,2.69,3.36a32,32,0,0,1,.27,5.82c0,1.29-.1,2.75-.22,4.41s-.39,3.51-.67,5.59c8.41-9.66,12.23-26.22,17.81-49.1a41.33,41.33,0,0,0,6.48-8.27,84.31,84.31,0,0,0,6.34-12.29c2-4.69,4-10,6-15.65s3.59-11.84,5.33-18.31c.45-1.62.85-3.25,1.23-4.9s.77-3.33,1.15-5c.75-3.38,1.5-6.83,2.27-10.32s1.37-7,2-10.6,1.26-7.2,1.9-10.83,1.11-7.27,1.65-10.93l1.56-11c1-7.3,1.74-14.53,2.63-21.65,0-5.27-.09-10.43-.11-15.56l-.06-7.65q-.11-3.78-.2-7.53-.21-7.48-.4-14.83t-.62-14.45c-.11-2.38-.17-4.77-.31-7.12s-.28-4.69-.42-7q-.4-7-.81-13.85t-1-13.54c-.16-2.24-.32-4.48-.48-6.7s-.39-4.4-.59-6.59c-3-35.09-7-67.63-12-99s-11.22-61.41-19-91.44a791.62,791.62,0,0,0-29.19-90.59c3.15-3.08.36-16.06-4.76-30.53-2.56-7.3-5.74-15-9-22.27s-6.69-14.05-9.75-19.45c-.93-11,8.06-7.57,2.24-25.61-9.23-13.3-3.08,6.78-6.24,8.68-2.62-4.6-5.85-10.84-9.25-17.81s-7-14.67-10.34-22.22c-1.67-3.78-3.27-7.56-4.77-11.19s-2.86-7.12-4.08-10.39a100,100,0,0,1-4.82-16.05c-10.14-16-21.34-40.4-32.6-65.54s-22.57-51.1-33.44-70.8c-.49-8.85-2.17-19.4-5-31.94-1.49-6.28-3.14-13-5.26-20.35-1-3.65-2.09-7.44-3.28-11.37l-3.75-12.21c-2.27.42-4.66-1-7.11-3.19-1.22-1.11-2.46-2.42-3.7-3.8l-3.65-4.24a431.92,431.92,0,0,1-19.71-61.61c-1.08-4.73-2.17-9.38-3.09-14s-1.74-9.1-2.59-13.57-1.43-8.88-2.13-13.28l-.52-3.28-.44-3.28-.87-6.52-.87-6.51c-.25-2.16-.49-4.32-.74-6.49-.5-4.33-1.08-8.67-1.48-13q-.35-3.26-.7-6.55c-.12-1.09-.25-2.19-.37-3.29l-.1-.83c0-.26-.07-.61-.06-.63v-.57c-.09-1.44-.08-3.34-.15-5.27,0-4,0-8.58.22-12.87,0-1.11.12-2.09.11-3.15s.07-2,.13-2.84.07-1.66,0-2.48a6.37,6.37,0,0,0,0-1l0-.42c0-.11,0-.23-.07-.35.15-.06.28-.18.41-.19h.38a1,1,0,0,1,.3,0h0l-.07,0-.33-.13-.65-.26-1.31-.55c-.88-.37-1.76-.75-2.64-1.15s-1.77-.82-2.66-1.25-1.8-.9-2.65-1.27c-1.74-.79-3.49-1.64-5.25-2.57-3.59-2-6.87-3.57-10.28-5.72-1.74-1.13-3.26-2-4.86-3s-3.18-2.14-4.7-3.23q-2.16-1.41-4.29-3.09c-.7-.54-1.43-1.17-2.1-1.71s-1.25-1-1.88-1.47-1.23-1.05-1.85-1.61l-.91-.85c-.3-.28-.62-.62-.87-.81a39,39,0,0,1-3.08-3c-1.08-1.23-1.79-1.86-2.61-2.83s-1.63-2.09-2.14-2.66a23,23,0,0,1-1.66-2.4A13.44,13.44,0,0,1,1438,309l-.25-.49-.13-.23a5.27,5.27,0,0,1-.25-.48c-.08-.17-.16-.36-.24-.56s0,0,0-.05l0-.08,0-.07s0,0,0,.06l0,.13a5,5,0,0,1,.19.85v0l0,.13.06.26.1.51c.06.33.1.66.13,1l0,.47c0,.09,0,.12,0,.26l0,.4c.06.54.11,1.07.13,1.58a51.6,51.6,0,0,1-.23,7.7v.1c.18-2.11-.42,4.76.4-4.73v-.46l.06-.55c0-.36.1-.75.17-1.14a10.71,10.71,0,0,1,.26-1.38c.29-1.23.17.06-1.66,3.2-.3.53-.62,1-1,1.51-.39.65-.84,1.33-1.28,1.94l-.7.93c-.27.4-.56.79-.85,1.17-.59.79-1.15,1.44-1.82,2.24-1.46,1.84-2.86,3.24-4.75,5.29l-1.38,1.38-.7.66c-.24.22-.52.52-.78.77-1.05,1-2.14,2-3.24,3a178.43,178.43,0,0,1-16.64,13.09l-5.06,3.42q-2.65,1.78-5.38,3.41c-1.91,1.24-3.85,2.44-5.81,3.58l-6.11,3.52-.74.42s-.07,0-.1.08l-.14.33a1.73,1.73,0,0,0-.08.43c0,.18,0,.29,0,.52,0,.44,0,.83.07,1.41s.11,1.16.2,1.78c.47,3.42,1,6.9,1.45,10.44.29,2.08.57,4.32.84,6.68l.1.89.16,1.23.38,2.69.75,5.41c1,7.24,1.92,14.58,2.83,22,1.79,14.82,3.36,29.92,4.62,45.1,2.53,30.36,3.78,61,3.31,90.2a620.14,620.14,0,0,1-6.27,81.3c-9.9,11.5-16.22,26.69-22.85,41a218.8,218.8,0,0,1-10.38,20.2,69.6,69.6,0,0,1-12.15,15.63A95.8,95.8,0,0,1,1321,724.46a118.44,118.44,0,0,1-12,5.26l-1.52.6-1.57.55a29.22,29.22,0,0,1-2.82,1,7,7,0,0,1-1,.2,2.55,2.55,0,0,1-.69.05.53.53,0,0,1-.4-.09l-.07,0s0,0,0,0v0s0-.12.12.24q1.38,3,2.7,6.1a340.07,340.07,0,0,1,14.27,38.39,149,149,0,0,1,5.23,23.94l.12,1.16.12,1c.07.64.12,1.3.16,2l0,1,.06.78c0,.53,0,1.06,0,1.61l0,1.37c0,.4,0,.82,0,1.24v.44c.24-5.81.06-1.59.12-2.88v.58q0,.47-.06,1c0,.33-.06.66-.11,1l0,.25,0,.16,0,.29c0,.39-.12.81-.22,1.26a.6.6,0,0,0,0,.17l0,.12-.06.26-.08.3,0-.1A22.22,22.22,0,0,1,1325,810c.34-.6.67-1.08,1.06-1.65a23.57,23.57,0,0,1,1.44-2.07c.45-.54,1.12-1.52,1.74-2.25s1.24-1.38,2-2.35,1.55-1.7,2.36-2.46,1.78-1.83,2.71-2.65l1.41-1.25c.51-.47,1-.93,1.55-1.38s1-.88,1.57-1.3,1-.78,1.62-1.27q1.71-1.39,3.45-2.61l.87-.59.92-.67c.61-.44,1.22-.86,1.84-1.27,2.44-1.56,5-3.29,7.62-4.69,4.82-2.78,5.66-3,6.32-3.39s1.17-.72,5.38-2.58a130.24,130.24,0,0,1,20-7.24l.16-.05h0v0s0,0,0,0,0-.11-.06-.18-.06-.16-.08-.25-.1-.19-.09-.29a3.06,3.06,0,0,0-.2-.49.23.23,0,0,0-.07-.08h0l-1.86-.08c-.88,0-1.77-.06-2.67-.13-1.7-.15-3.94-.26-6-.53l-3.39-.41c-1.17-.15-2.35-.33-3.54-.55l-.12,0h-.05L1388,768l0-.08,0-.16,0-.33.1-.65.18-1.31.15-1.32c0-.23,0-.42.08-.68l.15-.81c1.33-8.19,4.41-20.3,9.08-35.63l7.89-25.68q1.08-3.57,2.16-7.11l.54-1.78.55-1.92c.38-1.27.75-2.55,1.11-3.82l2.21-7.61q1.11-4.1,2.2-8.16l1.56-5.78,1.53-6.21q.76-3.12,1.52-6.22l.76-3.11.72-3.33q1.41-6.69,2.81-13.35,1.26-7.12,2.42-14.26l.57-3.58.47-3.79.9-7.57c.28-2.54.56-5,.81-7.6l.5-8,.41-8,.17-4v-4.08c0-5.42-.09-10.86-.25-16.29A295.27,295.27,0,0,0,1419,491.32c-1.54-5.25-3.16-10.5-4.87-15.71q-2.81-7.67-5.86-15.27c-.51-1.25-1-2.55-1.56-3.77l-1.67-3.65q-1.68-3.66-3.43-7.29c-1.17-2.4-2.31-4.87-3.58-7.19s-2.54-4.63-3.84-6.94a304.59,304.59,0,0,0-38.82-54q-5-5.44-10-10.58c-3.34-3.38-6.69-6.45-10-9.55-1.66-1.51-3.3-3.09-5-4.48l-5-4.17-4.91-4c-.81-.66-1.63-1.31-2.43-2l-2.44-1.83q-4.87-3.64-9.64-7c-1.58-1.16-3.17-2.18-4.75-3.22l-4.72-3c-6.24-4.09-12.38-7.44-18.37-10.67-3-1.65-6-3-8.9-4.39s-5.83-2.69-8.69-3.93c-5.75-2.29-11.34-4.44-16.81-6.19a210.41,210.41,0,0,0-19.17-10.75c-6.59-3.38-13.4-6.25-20.28-9.1-3.45-1.38-6.93-2.65-10.43-3.94l-5.25-1.9-5.28-1.75c-3.53-1.15-7.06-2.34-10.6-3.41s-6.69-1.94-11.6-3.54c-4.59-1.43-9.38-2.83-14.06-4.19l-7-2c-2.34-.67-4.71-1.23-7.06-1.86-4.69-1.23-9.35-2.5-14-3.77-4.68-1.1-9.33-2.22-13.94-3.4s-9.23-2.23-13.82-3.34l-6.85-1.69-3.42-.88-3.41-.77q-6.82-1.54-13.59-3.31c-2.25-.62-4.5-1.1-6.75-1.67s-4.49-1.13-6.73-1.72a42.38,42.38,0,0,0-7.84.2c-2,.3-3.71.7-5.77,1-4.1.63-9.69.54-22.43-.84-4.43-.38-7.78-.81-10.47-1.26s-4.73-.95-6.48-1.35c-3.52-.84-6-1.77-10.7-2.52,2,5,10.83,4.49,1.92,7.94,12.11.1,22.91,1.09,32.76,1.76l3.65.27,3.59.36,7,.72,6.78.69c2.23.23,4.44.56,6.64.82l13.1,1.58c4.38.63,8.8,1.25,13.35,1.84s9.21,1.32,14.12,2.06,10,1.41,15.47,2.42c3.06,1,5.64,1.85,8.1,2.73s4.79,1.67,7.29,2.71,5.23,2,8.49,3.14,7.09,2.27,11.75,3.82q4.64,1.23,9.31,2.57l4.69,1.35c1.55.46,3.18.93,4.65,1.4l4.48,1.41,3.62,1.07c2.42.71,4.85,1.42,7.28,2.23,9.75,3.11,19.68,6.59,29.77,10.57A417.75,417.75,0,0,1,1267,318.73l4,2.4c1.33.82,2.66,1.7,4,2.55l8,5.24,2,1.33,2,1.42,4,2.86c2.69,1.93,5.38,3.83,8.07,5.86l8,6.31,4,3.22,4,3.42,8,7c2.66,2.41,5.3,5,8,7.51,5.32,5,10.49,10.64,15.68,16.22,1.31,1.38,2.57,2.91,3.84,4.39l3.81,4.51c2.53,3,5.07,6,7.5,9.33s4.89,6.52,7.31,9.83,4.71,6.93,7,10.45l3.45,5.34c1.13,1.83,2.21,3.72,3.31,5.59,2.17,3.77,4.35,7.54,6.45,11.42s3.86,7.69,5.73,11.57c.92,2,1.89,3.86,2.74,5.89l2.55,6.1,2.47,6.13c.8,2.05,1.66,4.07,2.35,6.19q2.17,6.31,4.19,12.68c1.42,4.22,2.46,8.55,3.58,12.86l1.6,6.48.78,3.24c.24,1.08.43,2.18.65,3.27q1.24,6.54,2.35,13.11l.54,3.28c.16,1.09.28,2.19.42,3.29l.75,6.6c.22,2.2.45,4.39.67,6.59l.31,3.29c.09,1.1.13,2.2.19,3.3q.31,6.6.5,13.18c.19,4.42,0,8.67-.08,13q-.11,3.22-.22,6.42c-.09,2.11-.13,4.33-.33,6.31q-.49,6.08-1.09,12.1l-.31,3c-.1,1-.2,2-.34,2.93q-.4,2.84-.8,5.65c-.55,3.74-1.1,7.54-1.71,11.17s-1.34,7-2,10.4l-1,5.15c-.37,1.6-.73,3.19-1.1,4.78-.74,3.17-1.47,6.33-2.21,9.46l-.27,1.17-.29,1.09-.56,2.17c-.38,1.45-.76,2.89-1.13,4.32s-.76,2.87-1.13,4.3l-.56,2.13-.56,2-2.2,7.82-1.08,3.84c-.34,1.19-.69,2.37-1,3.55q-2,6.85-3.88,13.48c-4.83,16.87-7.87,29.63-8.52,39.27-1.55,4.37-2.92,4.85-4.53,5.42s-3.19.78-4.52,3.36a37.68,37.68,0,0,1-.06,5.84,22.94,22.94,0,0,1-.09,2.36c0,.39-.08.78-.13,1.16l-.09.57,0,.29,0,.14,0,.07v0l-9.11-1.47h.07c1.94.35,3.87.62,5.77.81.9.11,1.76.23,2.63.31l.64.07h-.07c-.05,0-.1.1-.21.15s-.14.21-.27.32a5.86,5.86,0,0,0-1,2.35c-.16.91,0,1.88.47,2.12l.3,0s0,0,.07,0l0,0h0l-.12,0-.52.18c-.69.24-1.39.5-2.08.77l-4.3,1.73c-1.48.6-2.89,1.32-4.43,2a142.33,142.33,0,0,0-18,10,108.25,108.25,0,0,0-15.59,12.52,58.25,58.25,0,0,0-9.34,11.52c-1.77,3-1.82,4.14-1.54,2.9,0,0,.19-.86.24-1.32l0-.38c0-.14,0-.19.06-.46.06-.44.11-.87.14-1.29s0-.81,0-1.2v-.17c-.24,5.82-.07,1.6-.12,2.9v-.16l0-.4,0-.79c0-.87,0-2.41-.1-3.68l0-.49,0-.61-.09-1.23-.12-1.21c0-.41-.1-.74-.14-1.27-.1-1-.22-1.94-.37-2.88s-.32-2.08-.49-3.12-.4-2.2-.63-3.27c-.24-1.24-.49-2.53-.78-3.77-.58-2.29-1.26-5.42-2.07-8.13l-.31-1-.32-1.2-.69-2.38-.73-2.35-.38-1.17-.2-.58-.2-.67c-.56-1.78-1.14-3.55-1.76-5.3l-1-2.61-1-3q-1.08-3-2.25-5.89l-.29-.72-.32-.83-.64-1.67-1.33-3.33c-1-2.27-1.91-4.54-2.87-6.82l-.32-.77h0l0,0,0,.05s.12,0,.21,0l.3,0,.45-.09a2.21,2.21,0,0,0,.52-.11l.62-.18c.2,0,.5-.17.75-.25s.47-.15.83-.31l1-.45c1.36-.6,2.79-1.17,4.13-1.87l2.09-1c.69-.35,1.35-.74,2-1.11a85.29,85.29,0,0,0,8.34-5.15,81.86,81.86,0,0,0,8.4-6.85c7.64-1.06,16.07-9.07,22.9-17.46s12.29-17,16.66-16c.14,4.36-4,9-8.25,13.31-1.09,1.05-2.15,2.15-3.17,3.23a30.44,30.44,0,0,0-2.84,3.25,16.34,16.34,0,0,0-2.18,3.36,11.6,11.6,0,0,0-1.15,3.62c4.81-3.86,9.72-9.31,13.48-9.77-2.84,8.24-5,15.39-7,22.22a202,202,0,0,1-6.76,19.87,82.59,82.59,0,0,1-11.54,19.9c-.64.87-1.36,1.69-2.09,2.52l-2.27,2.54c-.79.85-1.64,1.65-2.5,2.5s-1.73,1.73-2.7,2.53a124.3,124.3,0,0,1-10.49,8.28c-1.22.44-2.17.74-2.74.89-.15,0-.23,0-.35.08l-.14,0H1321s-.12,0-.1,0c-.07-.34.2.8.35,1.46s.31,1.48.45,2.23.28,1.35.41,2,.25,1.27.36,1.91c.19,1.2.37,2.39.56,3.58s.28,2.23.39,3.24.2,1.8.26,2.72.09,1.58.14,2.36l0,1.11v1c0,.55,0,1.11,0,1.68v.33c.05-1.3-.12,2.93.12-2.89v.36l0,.64a30.07,30.07,0,0,1-.59,4.21,30.1,30.1,0,0,1,3.72-6.48c.28-.39.56-.76.85-1.12s.7-.94,1-1.37.72-.88,1.09-1.29l.55-.61.64-.75c.86-1,1.72-1.87,2.63-2.74,1-1,2-2,3-2.88l.76-.66c.26-.24.67-.6.52-.49l-.13,0-.17.08c-.06,0-.13,0-.2,0s-.31,0-.49-.08a3,3,0,0,0-.57-.29,2.79,2.79,0,0,1-.65-.41,3.77,3.77,0,0,1-.71-.49,15.36,15.36,0,0,1-1.54-1.37,38.76,38.76,0,0,1-3.33-3.67,75.14,75.14,0,0,1-2-15.74,63.15,63.15,0,0,1,.29-8.21c.16-1.28.29-2.56.52-3.72a15.82,15.82,0,0,1,.33-1.69l.15-.83L1330,757a279.26,279.26,0,0,1,7.77-28.45c3.48-10.9,7.79-23.17,12.42-37.07s9.58-29.45,13.79-47.13a297.09,297.09,0,0,0,8.31-59.28c.06-2.72.13-5.43.2-8.15s-.13-5.51-.22-8.26l-.34-8.28c-.16-2.75-.49-5.5-.75-8.25l-.91-8.24c-.32-2.75-.86-5.47-1.3-8.2l-1.46-8.18c-.52-2.72-1.23-5.4-1.86-8.1l-2-8.07c-.73-2.67-1.6-5.31-2.41-8l-2.54-7.92c-.93-2.6-1.94-5.16-2.93-7.74l-3-7.69-3.39-7.42c-1.14-2.46-2.28-4.94-3.47-7.37l-3.78-7.1a280.83,280.83,0,0,0-35.54-50.91,326.88,326.88,0,0,0-41.92-40,380.34,380.34,0,0,0-44.83-30.8,420.9,420.9,0,0,0-46-23.42c-3.85-1.69-7.73-3.24-11.58-4.84l-2.89-1.19-2.9-1.1-6-2.28-3.49-1.33-3.61-1.3-7.26-2.51-7.25-2.42-7.27-2.21c-9.64-3-19.33-5.47-28.9-7.81l-14.34-3.17L1064,280.32c-2.36-.46-4.71-.77-7-1.13l-7-1c-4.66-.75-9.29-1.24-13.9-1.8l-6.88-.83-6.82-.61-13.49-1.19c-2.24-.24-4.44-.29-6.65-.43l-6.58-.34-6.54-.34c-2.17-.11-4.34-.24-6.47-.26l-12.72-.27-6.28-.12-6.17.07a535.43,535.43,0,0,0-94.73.15l-5.77.51c-1.92.2-3.81.45-5.72.68l-11.54,1.45c-3.9.45-7.69,1.14-11.58,1.75l-11.75,2c-15.61,3-31.82,6.46-48.43,11.2-24.28,1.2-53.26,7.32-82.61,17.17-1.83.61-3.71,1.2-5.53,1.86l-5.48,2-11.05,4.14-10.95,4.51-5.5,2.3-5.42,2.44-10.86,4.95-10.67,5.24L614.56,337l-5.22,2.75-10.42,5.52L588.77,351l-5.06,2.85-5,2.93-9.9,5.81L559,368.44l-4.86,2.89-4.84,2.93L539.75,380,521,391.41c-24.57,14.9-47.46,28.69-67.54,38.63a25,25,0,0,1-3.06,4.65c-.68.84-1.44,1.71-2.27,2.61l-1.3,1.37-.35.35-.08.09.14,0,.3-.09,1.17-.35q4.71-1.44,9.6-3.11c3.19-1,6.41-2,9.67-3.15s6.38-2,9.59-3.08l9.34-2.87,4.48-1.27c1.47-.41,3-.92,4.39-1.25l4.22-1.11,2.08-.57,2-.45a157.7,157.7,0,0,1,24.47-4.29c5.44-.4,7.8.07,7.7.29,2.88.61,5.46,1.38,8,2.07l3.7,1.07c.59.18,1.21.34,1.76.55l1.63.63c1.07.42,2.11.84,3.11,1.26l1.47.64,1.29.75a17.26,17.26,0,0,1,4.33,3.22c.57.59,1.1,1.18,1.58,1.78a22.27,22.27,0,0,1,1,2.06q.21.51.39,1a4.13,4.13,0,0,1,.17,1.14,22.42,22.42,0,0,1,.06,2.31l0,.56-.15.65c-.1.44-.21.86-.33,1.29a21.61,21.61,0,0,1-.82,2.51c-.45.93-.93,1.84-1.41,2.73-.26.44-.5.87-.75,1.3l-.37.63-.49.71c-2.39-.54-5-4-6.85-5.95-.92-.95-1.69-1.48-2.27-1a3,3,0,0,0-.74,1.56c-.1.41-.19.91-.27,1.49,0,.3-.06.61-.1.95,0,.18,0,.34,0,.54s-.09.42-.14.64a6.85,6.85,0,0,0-.64,3.92,4.53,4.53,0,0,0,.52,1.43c.27.42.43.92.74,1.32,1.12,1.69,2.88,3,3.44,5.08-2.49,1.29-5.65,3.23-8.67,5L540,464.42l-2.57,1.49-2.73,1.53a99.39,99.39,0,0,1-11.37,5.41,67,67,0,0,1-13.1,4.09q-1.95,2-3.58,3.79l-1.57,1.77-1.83,1.94c-2.33,2.53-4.27,4.83-5.94,7-.84,1.07-1.61,2.1-2.33,3.11l-.27.38-.35.43-.69.85-1.31,1.67c-1.71,2.21-3.26,4.32-4.79,6.42l-2.3,3.16-1.18,1.6-.15.2-.21.24-.4.47-.83,1c-2.21,2.56-4.6,5.22-7.32,8.09-1.37,1.44-2.82,2.93-4.39,4.49l-2.44,2.39-3.32,3c-4.58,4-9.81,8.48-15.92,13.46.39-5.29-.18-9.95,2.47-16.49a30.15,30.15,0,0,1,4.2-9.76,67.33,67.33,0,0,1,4.5-6.26l.69-.86c.24-.29.51-.6.67-.84l1.15-1.55q1.22-1.57,2.67-3.3c19.57-21.87,28.13-29.55,36.87-35.84,2.05-1.47,4.07-2.84,6.08-4.16l5.55-3.63c1.69-1.14,3.37-2.3,5-3.56.82-.63,1.62-1.28,2.42-2s1.34-1.23,2-1.91c-4.81-.44-8.74.95-11.39,1.17-1.28.08-2-.3-2.14-1.44s0-2.88,1-5.86c6.67-.56,9.79-2,11.71-4.28a9,9,0,0,0,1.17-1.83,6.79,6.79,0,0,0,.46-1.81,29.8,29.8,0,0,0,.2-4,30.91,30.91,0,0,1-.5-3.66c0-.3,0-.6,0-.89l0-.44,0-.38a4.9,4.9,0,0,1,.09-1.44,3.5,3.5,0,0,1,.55-1.29,4,4,0,0,1,1-1,8.74,8.74,0,0,1,3.91-1.14,21.34,21.34,0,0,0,1.38,2.64,13.3,13.3,0,0,0,1.41,2.76,16,16,0,0,0,4.69,4.65A24.62,24.62,0,0,0,529,420.5a38.54,38.54,0,0,0-13.8-7.17,6.1,6.1,0,0,1,1.46.59,2.45,2.45,0,0,1,.67.41c.1.14-.63,0-2.76-.8,2.28,1.35,3.35,3.65,2.89,7.09s-2.69,8.17-7,14.4-11,14.06-21,24.26l-8.43,8.24c-.63.64-1.6,1.51-2.44,2.29l-2.59,2.38L470.71,477l-2.62,2.42-3.18,2.78-6.35,5.56-3.17,2.79-1.59,1.39-.91.77-1,.82L444.14,500l-7.78,6.53-1,.82-1.2,1-2.39,1.93L427,514.12l-9.56,7.71-4.91,3.94-5.91,4.61L394.8,539.6l-5.91,4.6-2.95,2.31-3.63,2.75-29.52,22.3L268.5,632.77l-10.6,7.71-2.65,1.92-1.33,1-.66.48c-.74.26.37.17,1.68,0l27.16-2.21,108.72-8.83,217.66-17.72,108.91-8.87,27.24-2.21,6.81-.56,3.4-.28c1-.07,2.64-.23,3-.22l.89.62,3.56,2.48L776.59,616,790.87,626c3.46,3.57,6.82,7.16,10.23,10.73,6.68,7.2,14.14,14.1,19.28,21.87l8.49,11.36c2.68,3.61,6.28,8.27,7.06,9.71l8.49,12.92,7.51,12.28c1.28,2,2.47,4.16,3.69,6.27l3.66,6.34c2.49,4.16,4.81,8.6,7.21,12.95q14.26,26.24,27.53,55c8.85,19.24,17.46,39.28,26,60.11,4.29,10.36,8.5,21.09,12.77,31.77,2.15,5.35,4.18,10.76,6.29,16.16s4.2,10.83,6.26,16.29c.21,5.31,1.77,12.67,3.91,20.92S954,948.09,956.45,957c2.62,6.23,5,12.29,7.3,18.1s4.56,11.37,6.61,16.7c4.15,10.67,8.12,20.24,11.81,28.63a144.67,144.67,0,0,0,11.19,21.16c3.76,5.67,7.69,9.89,12,12.44-9.57-31.1-19.16-58.59-30.69-90.57-5.76-16-12-33.1-19.1-52.31q-2.62-7.22-5.49-14.82l-5.83-15.7c-4-10.75-8.33-22.15-12.91-34.32-1.13-5.29-2.08-10.37-2.81-15a122.77,122.77,0,0,1-1.44-12.83c-.09-1.94-.11-3.77-.05-5.49a35.17,35.17,0,0,1,.43-4.71,16.31,16.31,0,0,1,2.6-7.06c8.92,18.44,16.95,38,24.41,58.25,1.87,5,3.75,10.09,5.54,15.17s3.53,10.19,5.3,15.28c3.55,10.19,6.83,20.47,10.19,30.69,13.29,40.94,25.33,81.7,39,119.37,3.89,10.83,7.1,14.75,10.31,25.15,10,32,16.11,56.41,21.15,78.3,1.2,5.49,2.37,10.81,3.52,16.06l.42,2,.21,1,.12.64c.14.77.28,1.53.41,2.3.24,1.43.47,2.85.71,4.28.91,5.68,1.85,11.27,2.86,17.18q.73,4,1.48,8t1.51,8q1.59,8,3.21,16.15c1.09,5.4,2.38,10.82,2.82,16.4a37.21,37.21,0,0,1-.22,8.37,21,21,0,0,1-2.77,7.9l-.64,1-.72.95a17.9,17.9,0,0,1-1.58,1.79,21.8,21.8,0,0,1-3.75,2.94,32.17,32.17,0,0,1-8.77,3.67c-6.15,1.69-12.54,2.13-18.85,2.72-12.63,1.2-25.28,1.85-37.57,1.94-5.12,0-10.41-1.32-15.37-2.14a22.63,22.63,0,0,0-3.54-.42h-1l-1.82,0c-1.22,0-2.43.08-3.66.16a73.28,73.28,0,0,0-14.92,2.32c5.8.32,11.69.73,17.61.86l2.23.07,1,0,.56,0,2.28.16c1.49.16,3.12.27,4.75.36,3.24.19,6.5.25,9.74.32s6.48.07,9.65,0,6.28-.19,9.3-.36,5.93-.46,8.71-.75a110.62,110.62,0,0,0,14.69-2.43,88.34,88.34,0,0,0,18.35-.45,36,36,0,0,0,9.84-2.83,24.32,24.32,0,0,0,4.52-2.74,20.35,20.35,0,0,0,7.22-11.68,34.37,34.37,0,0,0,.75-8.73c-.2-5.91-1.44-11.81-2.54-17.72-.57-3-1.14-5.91-1.71-8.82s-1.21-5.81-1.8-8.65c-1.19-5.7-2.44-11.21-3.64-16.37-.3-4.08-.7-8.19-1.21-12.29q-.4-3.11-.8-6.16c-.29-2.08-.56-4.06-.94-6.22l-.14-.85c0-.29-.08-.5-.19-1l-.53-2.58-1.08-5.13q-1.1-5.12-2.2-10.2c-1.47-6.76-3.1-13.43-4.69-20.07s-3.25-13.24-5-19.8-3.49-13.1-5.3-19.64c-3.72-13-7.46-26.12-11.55-39.3s-8.3-26.53-12.64-40.22-9-27.68-13.84-42.15c-9.64-29-20-60-31.36-94.28,3.81-9.24-3.48-25.26-11.36-47.85,7.77-1.19,4.13-19.16-5.47-44.08-7.61-12.87-1.21,10.57-8-2.38-1.88-7.51-3.83-14.66-4.71-20.59s-.84-10.52,1.13-12.72q1.14,2.39,2.29,4.85l2.26,5c1.5,3.31,3,6.57,4.29,9.65,2.64,6.17,4.58,11.71,5.15,15.23,3.81-7-10-36.73-3.46-39.59,12,23.87,23.38,47.52,34.35,71.09q8.2,17.67,16.13,35.34c5.33,11.75,10.46,23.53,15.56,35.31,10.09,23.61,19.78,47.34,28.58,71.72,4.48,12.16,8.63,24.52,12.68,37,2,6.27,3.92,12.6,5.82,19s3.75,12.8,5.46,19.31a158.35,158.35,0,0,1-.48,19.16,108.83,108.83,0,0,0,.44,21c4.21,4.76,4.25-2.57,3.76-11.9s-1.69-20.6.36-23.75c3.33,7.42,6.74,16,10,25,1.65,4.55,3.34,9.21,5,13.92s3.3,9.49,5,14.23,3.3,9.44,4.92,14,3.18,9.11,4.77,13.41c3.16,8.62,6.31,16.47,9.3,23-.09,3.4-1.18,4.92-1.62,7.67s-.13,7,2.14,14.47c6.65,29.58,12.91,55.6,19.27,80.52q2.34,9.33,4.74,18.47c1.6,6.09,3.13,12.16,4.23,18.27a83.73,83.73,0,0,1,1.53,18.36c0,.76-.12,1.52-.17,2.28a21.39,21.39,0,0,1-.25,2.26l-.33,2.24-.49,2.21-.25,1.1-.33,1.07c-.23.72-.44,1.44-.68,2.15l-.85,2.06c-.14.34-.27.7-.43,1l-.51,1a37,37,0,0,1-13.4,14.47,65.89,65.89,0,0,1-18,7.61,163.23,163.23,0,0,1-19.48,3.82q-10,1.44-20.3,2.81c-28.81,3.57-57.85,5.67-86.71,6.67l-10.86.33c-3.71.12-7.43.23-11.14.24l-22.31.2-22.35-.22c-7.47-.08-15-.37-22.45-.55-30-.93-60.45-2.64-91.85-5s-63.78-5.24-97.77-8.8c-8.57-2.21,2.15-6-15.57-7.57-10.39-1.82-21.35-3.68-32.48-5.88s-22.48-4.73-33.64-8c-1.4-.37-2.77-.84-4.16-1.26l-4.06-1.27c-2.68-.93-5.37-1.85-8-2.82s-5.31-2-7.9-3.17l-3.88-1.72c-.65-.29-1.3-.57-1.94-.87l-1.89-1a131.57,131.57,0,0,1-27.83-18c-2-1.56-3.71-3.4-5.52-5.1l-2.66-2.58c-.89-.85-1.65-1.82-2.47-2.72l-2.39-2.74-1.18-1.35a15.36,15.36,0,0,1-1.13-1.4q-2.12-2.86-4.17-5.69a27.26,27.26,0,0,1-1.9-2.9l-1.78-2.92L535,1246.4c-.52-1-1-2-1.49-3-1-2-1.94-3.89-2.77-5.84s-1.5-3.94-2.21-5.85a51.59,51.59,0,0,1-1.76-5.73c-.49-1.9-1-3.72-1.38-5.57s-.63-3.65-.88-5.41c-.12-.88-.24-1.75-.36-2.6s-.11-1.73-.16-2.57a59.12,59.12,0,0,1,.06-9.53,46,46,0,0,1,1.35-8.25c-.42-1.79-.8-3.52-1.14-5.17s-.51-3.25-.73-4.77-.38-3-.53-4.38-.14-2.76-.19-4a67.45,67.45,0,0,1,.06-7.28q.23-3.5.54-6.65c.3-2.13.63-4.17,1-6.19.17-1,.33-2,.49-3s.4-2,.59-3.06c.4-2,.78-4.16,1.13-6.38s.84-4.6,1.21-7.16a177.24,177.24,0,0,1,1.17-30.7,43.84,43.84,0,0,0,4.54-11.76c.74-2.55,1.45-5.35,2.14-8.34s1.49-6.16,2.22-9.46c3-13.18,6.75-28.36,11.36-41.07,5.11-14.16,11.4-26.34,18-38.43l5.06-9.09c1.71-3.08,3.49-6.3,5.22-9.53s3.49-6.53,5.21-9.9,3.43-6.86,5.14-10.4c11.8-24.79,19.31-41.92,25.11-55.83,1.42-3.48,2.76-6.75,4-9.87s2.39-6.18,3.6-9l3.43-8.46c1.13-2.77,2.36-5.42,3.57-8.15.76-1.68,1.54-3.41,2.37-5.17l2.71-5.23q1.41-2.67,2.85-5.43c1-1.82,2.07-3.58,3.12-5.4l3.2-5.49c1.07-1.85,2.27-3.57,3.39-5.38s2.27-3.59,3.4-5.38c.55-.91,1.16-1.75,1.75-2.61l1.76-2.57,3.44-5.11.84-1.28.88-1.2,1.72-2.4q1.71-2.39,3.3-4.73c.52-.79,1-1.56,1.56-2.33l1.59-2.18c1-1.43,2-2.88,2.92-4.24s1.7-2.68,2.44-4,1.51-2.44,2.16-3.63,1.23-2.36,1.78-3.44c-1.93.86-3.79,1.9-5.74,2.87-1,.48-1.9,1-2.85,1.58l-2.84,1.64c-1.94,1.12-3.88,2.24-5.78,3.28l-1.42.78-1.35.81c-.89.53-1.78,1-2.65,1.53-10.06,14-18.47,30.58-26.69,48.74l-3.13,6.85q-1.5,3.54-3.07,7.09c-2.16,4.69-4.16,9.65-6.38,14.56-1.14,2.44-2.19,5-3.31,7.52s-2.27,5.08-3.46,7.63-2.33,5.22-3.56,7.85l-3.76,8c-6.51,13.47-13.2,24.09-19.62,35s-12.28,22.5-16.75,38l-3.59-1.42c-11.63,32.33-21.67,60.94-30,87.67s-14.89,51.58-18.77,76.29a255.82,255.82,0,0,0-3.24,36.88,168.41,168.41,0,0,0,3.63,37.31,132.27,132.27,0,0,0,13.84,37,127.17,127.17,0,0,0,26.71,32.81,141.32,141.32,0,0,0,32.54,21.15,204.85,204.85,0,0,0,40,13.61c10.11,4.16,20.25,7.84,30.2,11.26l14.78,5,14.39,4.77,27.59,9.37,13.14,4.62q6.47,2.23,12.66,4.49c-14.55-2-26.67-3.55-37.62-4.53l-4.05-.36-3.95-.38-7.65-.67c-5-.4-9.86-.75-14.71-1.09-9.72-.78-19.54-1.64-30.63-3.36l-4.22-.68-4.36-.81-4.5-.89L620,1347.5c-3.16-.69-6.46-1.58-9.87-2.53l-2.58-.72-2.65-.83-5.69-1.83a199.07,199.07,0,0,1-35.3-10.66c-3-1.13-5.83-2.55-8.76-3.88s-5.76-2.9-8.65-4.42-5.64-3.28-8.47-5-5.51-3.65-8.27-5.54a163.7,163.7,0,0,1-42.38-45l-1.1-1.67-1-1.73-2-3.48-2-3.5c-.33-.58-.67-1.16-1-1.76l-.89-1.81c-1.17-2.42-2.34-4.86-3.52-7.29-.61-1.21-1.11-2.47-1.62-3.73l-1.53-3.78c-2.15-5-3.75-10.25-5.48-15.47-.81-2.62-1.47-5.3-2.19-8l-1.05-4c-.35-1.34-.59-2.71-.89-4.06l-1.65-8.18c-.47-2.74-.86-5.51-1.27-8.27l-.6-4.16c-.17-1.39-.29-2.79-.43-4.18l-.78-8.4c-.18-2.73-.28-5.39-.41-8l-.17-4c0-1.32,0-2.62,0-3.93l0-7.85c0-2.6.16-5.19.25-7.78a382,382,0,0,1,7.57-60.68c.46-2.47,1-4.91,1.54-7.35l1.62-7.32c1.2-4.82,2.3-9.69,3.59-14.46s2.53-9.57,3.92-14.28,2.77-9.42,4.2-14.09c5.76-18.69,12.28-36.83,19-54.59,1.68-4.43,3.43-8.85,5.12-13.2l5-12.72q5.09-12.83,10.09-25.49c6.79-17,13.77-33.92,21.17-50.6,3.75-6.93,7.79-13.78,11.66-20.59q3-5.09,6.07-10.14l1.5-2.52,1.58-2.5,3.16-5q1.56-2.5,3.13-5c1-1.66,2.18-3.28,3.26-4.92,2.21-3.26,4.34-6.54,6.58-9.76l6.88-9.59,1.71-2.39,1.82-2.34,3.62-4.68c1.2-1.55,2.4-3.11,3.61-4.66s2.52-3,3.78-4.56c2.55-3,5.06-6.06,7.64-9,5.4-5.82,10.61-11.74,16.4-17.21,2.91-2.84,5.88-5.87,9.12-8.67s6.43-5.59,9.72-8.31c1.64-1.35,3.35-2.62,5-3.93l2.53-2,2.59-1.88,5.2-3.71,5.32-3.54a248.19,248.19,0,0,1,22.11-12.87c3.76-2,7.66-3.78,11.52-5.62l5.89-2.55c2-.87,4-1.66,6-2.43a232.75,232.75,0,0,1,49.8-13.5,216.29,216.29,0,0,1,26-2.3,199.86,199.86,0,0,1,26.3,1.16,168.78,168.78,0,0,1,51.52,14.27,61.49,61.49,0,0,0,5,4.32c1.91,1.63,4.14,3.31,6.56,5.15,1.19,1,2.44,2,3.74,3s2.69,2,4,3.17c2.71,2.28,5.67,4.58,8.62,7.19a213.22,213.22,0,0,1,16.77,16.39,183.67,183.67,0,0,1,15.81,20,181.12,181.12,0,0,1,22.31,44.85c1.39,3.1,2.48,4.59,3.43,5.47a16.63,16.63,0,0,0,2.76,1.73,8.71,8.71,0,0,1,3,4,56.54,56.54,0,0,1,3.73,12.58,188.41,188.41,0,0,1,5.22,34.4,173.9,173.9,0,0,1-.6,27.67,143.51,143.51,0,0,1-3.84,21.52c-1.6,6.17-3.52,11.43-5.37,16.57-3.93,10.22-8.12,19.38-12.49,29.7s-8.94,21.78-14.11,36.5c-.9,2.66-1.86,5.85-2.83,9.39s-2,7.4-3.08,11.38-2.32,8-3.51,12-2.61,7.78-4,11.26c-4,10-10.94,24.13-18.27,37.36s-14.86,25.65-18.91,33.17c-14.68,27.16-29.07,53.35-44.91,79.41A733.56,733.56,0,0,1,777,1262.57c-29.61,37.07-61.69,75.52-92.07,116-15.17,20.23-29.89,41-43.51,62.31-6.8,10.66-13.34,21.46-19.51,32.39-1.52,2.74-3.08,5.49-4.56,8.21s-2.93,5.4-4.29,8.15-2.79,5.46-4.1,8.23l-2,4.14-1.91,4.17c-1.89,3.23-3.62,6.62-5.42,10.09s-3.47,7.09-5,10.82-3.16,7.56-4.7,11.48-2.9,8-4.18,12.11a247,247,0,0,0-6.7,25.77,230.42,230.42,0,0,0-3.79,27.38A199.31,199.31,0,0,0,575,1632l.27,3.54c.09,1.18.17,2.36.33,3.53.31,2.37.5,4.62.88,6.93s.7,4.6,1.17,6.89.91,4.58,1.48,6.85a146.2,146.2,0,0,0,9.1,26.67,141,141,0,0,0,14.2,24.45,161.05,161.05,0,0,0,12.49,15c1.11,1.19,2.29,2.29,3.42,3.45l1.72,1.71,1.78,1.64,3.58,3.26,3.69,3.12c1.21,1.07,2.5,2,3.76,3s2.5,2,3.81,2.93l3.89,2.82c1.28,1,2.62,1.78,3.92,2.68,2.65,1.86,5.45,3.51,8.17,5.25,1.38.84,2.79,1.62,4.18,2.45s2.78,1.64,4.21,2.38c9.3,3.11,19.37,6.09,30.11,8.59a282.52,282.52,0,0,0,34.05,5.77,257.1,257.1,0,0,0,74.4-2.93,245,245,0,0,0,70.08-24.48c20.86-11.17,38.23-24.91,50.43-38.78,5.18-4.26,6.73-3.91,8.55-3.86A5.93,5.93,0,0,0,932,1704a29.56,29.56,0,0,0,6.47-5.21c1.81-2.15,3.7-4.23,5.54-6.38s3.69-4.3,5.54-6.45,3.64-4.36,5.48-6.52l5.36-6.73,5.4-6.64c.92-1.07,1.71-2.26,2.57-3.39l2.52-3.41,5-6.73,1.23-1.67c.41-.56.77-1.15,1.16-1.72l2.26-3.43,4.4-6.75c.72-1.12,1.42-2.23,2.13-3.32s1.29-2.28,1.92-3.4c2.51-4.52,4.88-8.89,7-13.16,3.82-8.79,6.9-16.85,7.94-24.47,2.7-5.26,5.2-9.43,7.21-13.09a86.6,86.6,0,0,1,5.87-8.88c.39-1,.8-2,1.16-3l1.06-3.05,2.12-6.09q1.05-3,2.11-6.1l.52-1.52.47-1.55.94-3.11q1.86-6.2,3.74-12.42,1.65-6.29,3.31-12.62c.54-2.11,1.13-4.19,1.62-6.32s1-4.28,1.43-6.42,1-4.27,1.43-6.41,1-4.26,1.37-6.44q1.23-6.48,2.46-13c.44-2.16.79-4.36,1.12-6.56s.7-4.39,1-6.58l1.05-6.6c.35-2.19.59-4.43.89-6.65q.86-6.66,1.72-13.36c.89-9,2-18,2.55-27.11.36-4.56.77-9.14,1-13.63.12-2.25.28-4.51.38-6.77s.17-4.53.26-6.8l.14-3.4.07-3.41.15-6.83q0-3.42,0-6.85c0-2.28.06-4.57,0-6.85-.08-4.58-.08-9.16-.27-13.75-.08-2.29-.15-4.59-.23-6.89s-.23-4.59-.34-6.89l-.17-3.46-.24-3.44q-.24-3.45-.47-6.91t-.61-6.9c-.2-2.31-.37-4.62-.65-6.91a482,482,0,0,0-8.71-54.93c-8-36.22-20.48-71.41-40.07-102.16a214.31,214.31,0,0,0-14.68-33.09q-2.29-4-4.6-7.9l-5-7.72c-1.78-2.53-3.67-5-5.54-7.59-.47-.63-.92-1.3-1.42-1.9l-1.51-1.83-3-3.7c-16.49-19.57-38.11-37.3-65.69-51.5l-8.26-5.39-8.48-5.13c-2.83-1.77-5.77-3.29-8.7-4.94l-4.45-2.45c-1.5-.79-3-1.54-4.54-2.31l-4.63-2.31c-1.55-.77-3.12-1.54-4.71-2.24-3.19-1.45-6.43-2.89-9.75-4.34s-6.73-2.7-10.22-4.05-7.07-2.53-10.74-3.79C794,989,758.23,982.21,711.54,981a669.5,669.5,0,0,0-68.78,12.73c-21,4.95-40.25,10.52-58.32,15.52-36.09,10.06-67.43,18.6-95.18,24.27-19.24-.17-33,.79-43.34,2.56a120.24,120.24,0,0,0-13.23,2.76c-3.72,1-6.85,1.86-9.6,2.64-11.66-1.11-23.12-2.79-34.42-4.68l-8.45-1.62c-2.81-.56-5.61-1-8.4-1.72-5.57-1.31-11.13-2.46-16.63-4l-8.25-2.24c-2.74-.8-5.47-1.69-8.2-2.53l-4.08-1.29c-1.37-.43-2.73-.86-4.08-1.37l-8.1-2.92-4.05-1.49-4-1.64-8-3.33c-2.67-1.12-5.3-2.43-7.95-3.65s-5.32-2.44-7.93-3.81a279.78,279.78,0,0,1-60.43-41.27c-2.34-2.16-4.63-4.41-6.95-6.64s-4.68-4.46-6.84-6.9l-6.64-7.25L208,941.27l-1.58-1.92-3.15-3.86-3.14-3.9c-1-1.31-2.14-2.59-3.09-4l-5.9-8.26c-1-1.4-2-2.77-2.93-4.21l-2.77-4.4c-1.83-3-3.76-5.92-5.49-9s-3.38-6.15-5-9.22l-1.23-2.3c-.39-.77-.74-1.55-1.12-2.33q-1.09-2.32-2.18-4.65c-3-6.17-5.38-12.43-7.78-18.62a256.13,256.13,0,0,1-10.43-36.93c-1.36-6.07-2.19-12.1-3.08-18.06l-.33-2.24-.23-2.22c-.16-1.48-.31-3-.46-4.44-.27-3-.63-5.89-.79-8.8s-.3-5.81-.44-8.7c-.06-1.44-.15-2.88-.18-4.31s0-2.86,0-4.28q0-4.27,0-8.5c0-2.81.21-5.6.33-8.38a314.75,314.75,0,0,1,9.59-63.36,363.18,363.18,0,0,1,20-57.36c16.16-36.45,37.36-69.41,62.73-100.8l2.37-2.95c.8-1,1.64-1.94,2.45-2.91l4.93-5.83c1.62-2,3.38-3.84,5.07-5.78l5.13-5.78c7-7.58,14.2-15.22,21.87-22.66,1.92-1.86,3.8-3.77,5.76-5.62l5.93-5.55,3-2.79,3.07-2.74,6.17-5.53,6.37-5.45,3.21-2.75c1.07-.92,2.19-1.79,3.28-2.69l6.65-5.43c2.25-1.79,4.55-3.54,6.85-5.34,1.81-.94,3.43-1.69,5-2.35s3.16-1.22,4.8-1.89A94.25,94.25,0,0,0,353.34,436c2.44-6.53,19.15-15,36-22.27,1.06-.46,2.09-1,3.15-1.39l3.16-1.31c2.1-.88,4.16-1.76,6.16-2.65s4-1.72,5.84-2.56,3.67-1.69,5.35-2.55,3.24-1.73,4.69-2.55a34.37,34.37,0,0,0,3.88-2.58,13,13,0,0,0,4.57-5.54c-4.08.43-8.75,1.11-13.87,2.08-2.53.55-5.18,1.17-7.94,1.84l-4.21,1.07c-1.42.39-2.85.83-4.31,1.27-2.91.89-5.92,1.84-9,2.86s-6.15,2.26-9.34,3.48-6.37,2.6-9.63,4l-4.91,2.17c-1.65.73-3.26,1.57-4.91,2.37-26.45,12.67-53.29,31.81-74.26,52.33-9.67,4.1-20.06,13.32-30.38,24.81s-20.47,25.31-30.79,38.46c-13,16.49-25.47,32.09-36.7,48s-21.09,32-28.36,48.94a85.56,85.56,0,0,0-4.37,15.06c-.89,4.72-1.48,8.65-2.16,10.55l-3.5,10.31-1.77,5.05-1.65,5.06c-1.09,3.38-2.3,6.73-3.33,10.18s-2.06,6.95-3.12,10.52a223.24,223.24,0,0,0-8.23,50.53A324.58,324.58,0,0,0,132,801.9c.59,4.22,1.12,8.29,1.93,12.27s1.45,7.84,2.3,11.63,1.81,7.5,2.73,11.15c.43,1.82,1,3.63,1.52,5.43l1.62,5.38c.55,1.78,1.1,3.55,1.64,5.33s1.25,3.53,1.88,5.3c1.29,3.52,2.51,7.06,3.94,10.6s3,7.08,4.55,10.71c.75,1.81,1.63,3.61,2.52,5.43l2.7,5.51c.93,1.85,1.82,3.74,2.82,5.61l3.16,5.69,3.29,5.83c.54,1,1.14,2,1.77,3l1.87,3a289.36,289.36,0,0,0,17.29,24.76,280.65,280.65,0,0,0,45.73,46.41,296.63,296.63,0,0,0,52.09,33.43,323.65,323.65,0,0,0,52.63,21,366.18,366.18,0,0,0,49.44,11.2,353.17,353.17,0,0,0,44.23,4.06q5.14.12,10.09.17t9.66-.2l4.68-.16c1.54-.07,3.05-.18,4.55-.28,3-.21,5.93-.44,8.79-.7,22.8-2.19,40.59-7,52.27-13.36a140,140,0,0,0,32.88-3c4.65-1,9-2.25,13.05-3.56s8-2.83,11.75-4.34,7.48-3.15,11.2-4.75,7.48-3.22,11.38-4.81,8-3.1,12.26-4.54,8.9-2.76,13.89-3.92c27.84-2.89,38.79-5,49.71-6.7,5.45-.86,10.89-1.6,18.41-2.22s17.11-1.11,30.86-1.26c13.84,3.13,27,6.69,39.61,10.56s24.64,8.22,36.26,12.79,22.74,9.63,33.49,15c2.7,1.31,5.34,2.75,8,4.11l4,2.06,3.89,2.17c2.57,1.46,5.17,2.85,7.7,4.34l7.55,4.53c9.93,6.17,19.5,12.66,28.62,19.59a286.76,286.76,0,0,1,25.69,22.34,240.36,240.36,0,0,1,22.46,25.36c1.66,2.34,3.43,4.6,5.1,6.91.78,1.18,1.58,2.36,2.38,3.55s1.66,2.29,2.38,3.56,1.52,2.46,2.3,3.67l1.17,1.82c.36.64.73,1.27,1.09,1.92q1.09,1.9,2.22,3.8l.57.94.52,1c.35.66.7,1.33,1.06,2a119.54,119.54,0,0,1,19.06,26.36c4.78,9.16,7.57,18.33,7.9,25.81-3.85-5.79-7.65-11.9-11.94-17.71l-1.55-2.24c-.53-.73-1.1-1.44-1.64-2.16l-3.27-4.39q-1.74-2.1-3.43-4.28l-.84-1.09-.9-1-1.79-2.09A179.13,179.13,0,0,0,951.4,1154a192.64,192.64,0,0,0-17.72-14.59,187.79,187.79,0,0,0-46-23.77,259.65,259.65,0,0,0-29.24-8.49,325.44,325.44,0,0,0-33.26-5.75c-11.66-1.44-23.83-2.44-36.34-3s-25.42-.68-38.48-.49-26.3.73-39.66,1.55-26.74,1.86-40.15,3.11-26.8,2.65-40.08,4.16L610.08,1109c-7.07.83-14.12,1.52-21,2.29-27.82,2.82-54.4,5.18-79.34,7a84.2,84.2,0,0,0,17.29,3.38,169.57,169.57,0,0,0,18.89.61c6.43-.19,13.06-.48,19.62-1l9.87-.64c3.27-.23,6.53-.43,9.77-.58,4.47-.18,8.89-.46,13.35-.71s8.91-.54,13.36-.85l6.68-.47,6.14-.46,12.26-.92c16.3-1.22,32.41-2.41,48.34-3.42,31.82-2,63-3.3,92.72-2.58s57.88,3.49,82.51,9.27a224.61,224.61,0,0,1,34.17,10.75,154.88,154.88,0,0,1,28.5,15.25c1.27.9,2.61,1.71,3.88,2.61s2.48,1.86,3.75,2.75c.62.46,1.32.87,1.89,1.35l1.76,1.4,1.8,1.37c.6.45,1.22.88,1.78,1.39q1.71,1.49,3.49,2.89c.29.24.6.46.88.72l.84.77,1.7,1.53,1.74,1.51c.6.48,1.11,1.07,1.67,1.6q1.67,1.62,3.39,3.21c4.36,4.52,8.76,9.26,12.94,14.55,1.07,1.3,2,2.73,3.07,4.09l1.57,2.06,1.47,2.18c1,1.47,2,2.89,3,4.4l2.86,4.64a188.78,188.78,0,0,1,19.08,43.78,211.49,211.49,0,0,1,6,26.17,231.46,231.46,0,0,1,3,28.64c.95,23.21-.9,44.5-4,66.51-1.58,11-3.46,22.24-5.69,34.07-.6,3-1.22,6.15-1.84,9.3q-.45,2.37-.9,4.77c-.15.8-.3,1.61-.44,2.41s-.35,1.6-.52,2.41c-.68,3.22-1.36,6.5-2,9.85-.35,1.67-.63,3.38-1,5.06s-.75,3.39-1.13,5.1c-2.43,1.48-4.34,13.92-7.09,7.83-.83,4-1.84,7.82-2.86,11.65-.53,1.9-1,3.82-1.62,5.67s-1.25,3.68-1.89,5.49-1.3,3.62-1.95,5.41-1.31,3.59-2.08,5.29c-1.5,3.45-3,6.84-4.57,10.2a301.26,301.26,0,0,1-21.17,36.59c-3.58,5.76-7.56,11-11.08,16.46l-.66,1-.71,1-1.4,2c-.92,1.31-1.83,2.62-2.71,3.94s-1.76,2.65-2.61,4c-.41.68-.87,1.32-1.32,2l-1.33,1.93q-2.64,3.87-5,7.9c-1.65,2.63-3.33,5.18-4.84,7.9q-1.15,2-2.23,4.12c-.74,1.36-1.54,2.66-2.27,4-1.47,2.73-2.85,5.57-4.12,8.55C902.81,1588.57,908.48,1581.24,901.81,1585.73Zm705.69-278.2c.21-6.67,2.49-5.41,2.57,0,1.5-.88,1-9.73.86-16,.68.33,1.14,1.73,1.5,3.68.18,1,.34,2.08.48,3.26s.21,2.43.3,3.67c.38,5,.76,10,2.1,10.73a144.85,144.85,0,0,0,2.66-14.9c.61-5.53,1.11-11.5,1.54-17.65a78.69,78.69,0,0,1,1.57,10.79,55.66,55.66,0,0,1,0,9.49c-.54,5.8-1.83,10.43-3.46,13.36s-3.62,4.18-5.43,3.27S1608.66,1313.21,1607.5,1307.53Zm-34.1-349.68c2.44-2.28,6,.5,10.17,6.25a100.3,100.3,0,0,1,6.38,10.62c1.09,2.06,2.2,4.23,3.3,6.49s2.16,4.62,3.23,7c4.32,9.61,8.26,20.12,11.44,29.26s5.44,17,6.34,21.26,1.83,9.43,2.47,14.41a104.73,104.73,0,0,1,.85,13.64c-.14,7.55-1.91,10.74-6.58,2.19-5.11-9.51-10.07-30-16.14-51.82-1.54-5.44-3.08-11-4.74-16.43s-3.39-10.81-5.16-16C1581.33,974.49,1577.53,965.08,1573.4,957.85Zm-73-138.14c-2.09,2.78-4.92,1.07-8.1-2.68-3.08-15.28-12-38.61-20-61.2s-14.85-44.45-14.13-56.53c9.07,25,14.22,41.13,19.74,58.05S1489.44,791.92,1500.43,819.71Zm-46.8-171.89c-1.89,5-6.27-9.34-8.68-8.57,0-3.86-1.36-9.73-2.43-15.19s-1.79-10.56-.76-12.82c1.83,4.4,3.06,7.88,4,10.88s1.6,5.5,2.22,8A104.62,104.62,0,0,0,1453.63,647.82Zm-34.78-4.89c-4.5-15.13-8.83-30.86-13.21-46.95-2.1-8.08-4.34-16.2-6.41-24.48q-1.57-6.19-3.18-12.44t-3.11-12.59c-4.1-16.87-8.23-34-12.07-51.46-.5-2.18-1-4.35-1.49-6.53l-1.41-6.57c-.93-4.39-2-8.77-2.87-13.18s-1.87-8.84-2.8-13.26-1.79-8.89-2.73-13.33L1360,396.59a219,219,0,0,1-4.15-46.77c.31-15.42,2.29-30.63,6.8-45.07a112.81,112.81,0,0,1,8.76-20.84A82.68,82.68,0,0,1,1385,265.69c-9.63,13.91-15.91,30.58-19.71,48a207.18,207.18,0,0,0-4.3,53.63,190,190,0,0,0,3.09,26.14c.79,4.27,1.79,8.22,2.72,12.2s1.85,7.85,2.88,11.62c4.07,15.09,8.51,28.57,13.31,39.25,4.19,26.83,9.35,56.43,16,84s14.81,52.95,23.9,71.48c-2,3.06-1.07,10.78-.61,17.75S1422.81,642.86,1418.85,642.93Zm17.54-47.27-3.68,1.25-3.43-8.69c-1.17-3.11-2.39-6.39-3.64-9.73-2.49-6.68-4.78-13.67-6.69-20.1a107.57,107.57,0,0,1-3.76-16.85c-.54-4.51-.18-7.64,1.43-8.55a321.12,321.12,0,0,1,11.07,30.52c1.34,4.57,2.62,9.18,4,14.37.68,2.61,1.39,5.34,2.15,8.29S1435.47,592.25,1436.39,595.66Zm-17.53-69c-2.27-3.77-4.4-4.86-6.46-3.88a48.91,48.91,0,0,1-2.63-12.49c-.08-2.58.52-3.6,1.47-3.16C1413.17,508.06,1416.37,514.81,1418.86,526.7Zm23.36-12.19c2.35-7.63-6.25-25.23-8.14-36.29a136.74,136.74,0,0,1-1.69-14.79c-.34-4.58-.35-8.86-.38-13s-.11-8.22-.22-12.34a108.87,108.87,0,0,0-1.09-12.74c-.61-4.1-1.14-7.86-1.83-11.39s-1.46-6.82-2.15-10-1.48-6.22-2.29-9.25l-1.23-4.52-.54-1.91c-.17-.57-.34-1.14-.5-1.71A83.7,83.7,0,0,1,1420,348.9c.71-5.22-.07-7-1.27-8.3s-2.58-2.05-2.77-5.07a123.55,123.55,0,0,1,3.15-13.7,75.5,75.5,0,0,1,4.41-11.48,45.94,45.94,0,0,1,4.87-8.09,22.58,22.58,0,0,1,4-4.15,10.32,10.32,0,0,1,3.84-1.9,7,7,0,0,0,1.4-.24c.51-.06,1.11,0,1.67-.1l.43-.06.39,0c.26,0,.53,0,.79,0,.51,0,1,.09,1.49.1a18.09,18.09,0,0,1,5.84,1.82,31.41,31.41,0,0,1,7,5.39c5,5,10.18,12.88,14.47,22a180.67,180.67,0,0,1,10.8,30.35c.73,2.71,1.4,5.47,2,8.23q1,4.51,2,9c1.28,6,2.51,12.1,3.64,18.19q3.42,18.27,5.88,36.85a651.86,651.86,0,0,1,5.69,75.36,561.11,561.11,0,0,1-3.85,76.94,437.58,437.58,0,0,1-16.14,76.67,316.67,316.67,0,0,1-32.15,72,13,13,0,0,1-1.13-6.73,56.63,56.63,0,0,1,1.36-9.26c1.39-6.83,3.56-14.77,5.07-22.42s2.34-15,1.51-20.28-3.36-8.49-8.49-8.13a573.55,573.55,0,0,0,14.37-78.22,604.65,604.65,0,0,0,4-75.27,494.72,494.72,0,0,0-6-72.82q-2.91-18-7.39-35.74c-.74-3-1.53-5.92-2.37-8.87s-1.69-5.91-2.58-8.85-1.86-5.88-2.82-8.82l-.36-1.1-.34-.91-.68-1.8c-.47-1.17-1-2.34-1.42-3.52-1.64-6.7-3.38-12.92-5.2-18.32-.89-2.73-1.81-5.24-2.71-7.49-.44-1.17-.9-2.17-1.32-3.23s-.85-1.94-1.25-2.76c-.8-1.67-1.52-3.16-2.06-4.12a7.28,7.28,0,0,1-.88-1.9s0,0,0-.05h0l0,0,.2-.22.81-.88c.28-.32.5-.54.74-.79l.69-.75c.47-.5.92-1,1.36-1.57l.67-.82.56-.66c.38-.44.74-.9,1.1-1.38l1-1.4c.29-.38.57-.76.85-1.16a33,33,0,0,0,3.58-6.35c.28-.72-.11,0-.41,2.37,0,.31-.07.62-.09.92l0,.22v.16c.09-1-.77,9-.4,4.73v-.05l.11-.86a32.35,32.35,0,0,0,.17-3.59c-.05-1.42,0-2,0-3q0-.66-.09-1.35l-.08-.69,0-.35v-.2a21.37,21.37,0,0,0-.44-2.77,4.1,4.1,0,0,0-.11-.4l-.07-.23s0,0,0,.05,0,.11,0,.11.08.22.15.36.15.34.22.49l.23.41c.13.26.31.6.47.88s.33.56.5.82l.26.38.13.19.19.31a22.74,22.74,0,0,0,1.64,2.29c.15.19.28.32.45.55l.57.75c.38.49.78,1,1.18,1.41s.81.89,1.23,1.31l1.48,1.62c.52.54,1,1.06,1.58,1.57l.82.74c.28.26.52.43.85.77l1,.91.47.42h0l-.06,0a6,6,0,0,0-1.75,2l-.33.45-.32.59c-.22.41-.47.75-.7,1.2-.44,1-1,1.86-1.43,3.06s-1,2.39-1.45,3.67c-.25.64-.44,1.39-.68,2.08s-.47,1.41-.66,2.2l-.65,2.36-.59,2.49c-.21.81-.38,1.67-.55,2.54s-.36,1.72-.52,2.61c-.61,3.54-1.13,7.19-1.5,10.88s-.63,7.43-.68,11.1c-.09,1.84,0,3.63-.06,5.44,0,.89,0,1.77.07,2.65s0,1.76.09,2.6l.12,2.55c.06.82.13,1.64.19,2.46,0,.63.2,2.1.33,3.27s.27,2.45.41,3.66c.26,2.44.52,4.85.77,7.25.12,1.2.24,2.39.37,3.58l.42,3.56c.56,4.72,1,9.36,1.53,13.92s1,9,1.46,13.4C1448,469.89,1449.66,498.5,1442.22,514.51Zm-17.81-175a14,14,0,0,1,1.1,2.4,12.6,12.6,0,0,1,.51,2.17,10.09,10.09,0,0,1-.2,3.5c-.24,1.05-.55,2-.74,3.11a10.39,10.39,0,0,0-.16,1.83,13.19,13.19,0,0,0,.19,2.31c3.92,10.64,4.85,19.57,6,31.07.89,10.57,1,19.85,1.57,30.63.62,6.42,1.46,13.64,2.39,21.44s1.9,16.17,2.83,24.88c1.81,17.43,3.37,36.24,3.76,54.4s-.23,35.67-2.15,50.46-4.94,26.88-8.83,34.48a77.56,77.56,0,0,0,2.37-19.84c0-3.15-.2-6.27-.41-9.34s-.59-6.13-.95-9.2-.71-6.15-1.08-9.3c-.16-1.57-.31-3.15-.44-4.75s-.27-3.24-.36-4.89c-.15-3.3-.3-6.73-.18-10.29s.34-7.31.76-11.27c-4.12-10.82-7.89-21.63-11.31-33.27s-6.54-24.1-9.49-38.2-5.82-29.84-8.93-48c-1.45-8.4-3-17.35-4.65-26.92-.61-3.48-1.27-6.85-1.92-9.93l-1.77-8c-.4-1.81-.42-3.23.07-3.94l.21-.21.12-.12,0,0,.5-.32,1.07-.65q2.1-1.29,4.19-2.68c1.39-.92,2.79-1.92,4-2.73s2.55-1.75,3.81-2.68l1.87-1.39,1.74-1.26c1.15-.86,2.29-1.74,3.41-2.66l.84-.7.78-.61,1.54-1.23a104.6,104.6,0,0,0,17.41-17.86,33.32,33.32,0,0,0,4.71-8l0-.09v0l-.07.26,0,.11v.05l0,.16c-.06.24-.1.47-.14.69l0,.32,0,.15,0,.29c-.07.39-.12.76-.16,1.13l-.4,5.06c.08-.68.14-1.37.18-2.08s.05-1.43,0-2.16l0-1.09,0-.74a21.28,21.28,0,0,0-.2-3.14l-.09-1a9.15,9.15,0,0,0-.15-1l-.25-1.23c-.28-1.08-.25-.29,1.49,2.59.29.38.91,1.44,1.48,2.2.28.4.58.77.88,1.13l.22.26.28.38.59.75a34.46,34.46,0,0,0,2.47,2.75,40.44,40.44,0,0,0,3.09,3.17c1,.83,2.28,2.15,3.52,3.21q.94.82,1.89,1.56l1,.73c.33.25.71.59,1,.87q2.15,1.76,4.32,3.24l1.08.73c.36.23.78.57,1.17.84.79.56,1.58,1.11,2.38,1.64s1.58,1,2.38,1.51l1.19.71c.39.23.78.46,1.22.75q2.54,1.62,5.06,3c.84.47,1.68.91,2.51,1.34s1.74,1,2.6,1.42,1.73.93,2.6,1.36l1.29.65s0,0,0,0c-.61-.19-2.21,1-4.43,2a11.36,11.36,0,0,1-1.38-1,13.23,13.23,0,0,1-1.17-1A16,16,0,0,1,1474,342c-.26-.38-.5-.8-.73-1.21s-.42-.67-.62-1a4.68,4.68,0,0,0-.57-.87l-.29-.42-.31-.2c.45.26-1.63-1-2.85-1.77s-2.59-1.52-3.89-2.38-2.6-1.74-3.9-2.7-2.4-1.61-3.59-2.52c-.6-.44-1.19-.91-1.79-1.39l-.89-.73-.44-.37-.39-.29c-1.06-.81-2.12-1.67-3.16-2.61-.52-.46-1-.95-1.55-1.45-.27-.27-.48-.44-.71-.64l-.66-.59c-.89-.82-1.76-1.69-2.61-2.64l-.63-.7-.53-.53c-.35-.37-.69-.74-1-1.14s-.67-.81-1-1.23l-.49-.65c-.17-.24-.27-.32-.4-.49a40.73,40.73,0,0,1-2.55-3.65q-.23-.37-.45-.78c-.14-.27-.3-.62-.34-.67a6.71,6.71,0,0,1-.43-.85l-.1-.26c0-.08,0,0,0,0a.08.08,0,0,0,0,0l0-.08,0-.06.06.21a4.61,4.61,0,0,1,.18.74l0,.17.1.45c.06.29.11.57.15.85s.06.55.08.81l0,.39.08.69a21.53,21.53,0,0,1,.14,2.62l0,.63a2.76,2.76,0,0,0,0,.39v.47c0,.61,0,1.22,0,1.82s-.06,1.19-.11,1.77l-.09.86,0,.43v.16c-.37,4.26.49-5.74.4-4.72v-.11a15.49,15.49,0,0,1,.21-1.84l0-.24,0-.14,0-.26c0-.18.07-.37.11-.56.26-1.23.33-.86-.45.72a13.78,13.78,0,0,1-.74,1.39,20.62,20.62,0,0,1-1.12,1.92c-.11.17-.18.25-.32.47l-.38.61c-.26.4-.52.79-.79,1.16l-.4.54c-.14.18-.27.34-.44.6-.33.46-.67.92-1,1.35-.69.89-1.34,1.61-2.22,2.7s-1.65,1.87-2.57,2.84-2,2.11-3,3.07l-.76.72-.84.84c-.57.55-1.13,1.09-1.7,1.61l-3.57,3.15-.74.65.07-.05.15-.11.4,0,.23,0c.08,0,.17.05.26.07C1420,337.12,1422.16,338.36,1424.41,339.52ZM1399.73,251a55.86,55.86,0,0,1,4.64-4,49,49,0,0,1,5.13-3.16,49.85,49.85,0,0,1,11.9-4.21,78,78,0,0,1,14.95-1.8l1.07,0,1.06,0,2.2,0c1.49,0,3,0,4.65.14l5.06.43c1.76.26,3.59.5,5.49.8a4.37,4.37,0,0,1-2.84,1.31,43,43,0,0,1-5.19.29c-1,0-2.12,0-3.29-.05s-2.37,0-3.64,0-2.58,0-4,0l-4.27.23c-.73,0-1.46,0-2.21.12l-2.26.28c-1.51.21-3,.36-4.58.62a75.39,75.39,0,0,0-9.06,2.24l-2.17.7-1.07.35-1,.42-3.94,1.69-.95.41-.88.47-1.7.93C1401.73,249.8,1400.69,250.39,1399.73,251Zm-128.52,635.9A103.29,103.29,0,0,1,1257,875c-2.11-2.16-4.24-4.32-6.12-6.6s-3.75-4.57-5.54-6.9a146.91,146.91,0,0,1-16.78-29.57,176.8,176.8,0,0,1-13.73-64.11c-.06-2.78,0-5.57,0-8.37s.17-5.61.44-8.44l.36-4.25.52-4.27.27-2.13.33-2,.65-3.9a305.53,305.53,0,0,1,6.82-30.52c5.46-19.78,12.27-38.67,18.63-57.08,1.52-4.31,2.85-8.37,4.22-12.36.71-2,1.29-3.93,1.91-5.85l1.86-5.69c.55-1.85,1.09-3.69,1.63-5.5s1.15-3.63,1.57-5.38.94-3.52,1.41-5.26c.23-.87.47-1.73.7-2.6l.57-2.55c3.21-13.66,4.94-26.39,4.62-40l-.06-2.55a22,22,0,0,0-.12-2.57c-.16-1.71-.33-3.43-.49-5.17-.09-.87-.17-1.74-.25-2.62s-.28-1.74-.41-2.62c-.3-1.76-.61-3.53-.91-5.32a54.71,54.71,0,0,0-1.21-5.38c-.45-1.81-.91-3.63-1.38-5.48s-1.2-3.66-1.81-5.52q-.47-1.39-.93-2.82c-.34-.94-.75-1.86-1.13-2.8-.78-1.88-1.56-3.79-2.36-5.72s-1.86-3.8-2.81-5.75c-.49-1-1-1.95-1.46-2.94s-1.11-1.92-1.68-2.9c-1.14-1.93-2.25-3.93-3.49-5.91a173.36,173.36,0,0,0-18.54-23.88c-8.7-9.36-17.45-15.67-27.83-22.36-2.54-1.73-5.34-3.34-8.2-5.1-1.45-.86-2.87-1.81-4.43-2.68L1177,438.9c-6.47-3.83-13.9-7.88-22.55-12.63-9.76-5.22-19.54-10.23-29.24-14.89L1118,408c-2.41-1.13-4.88-2.11-7.27-3.16l-3.31-1.41c-1.08-.45-2.18-.86-3.26-1.28l-6.47-2.47c-17.17-6.09-33.94-9.59-47.12-7.56l-8-2-8.06-1.81c-5.37-1.27-10.79-2.24-16.18-3.32-2.7-.52-5.41-.93-8.11-1.39s-5.38-.92-8.07-1.24c-5.38-.69-10.7-1.41-16-1.79-21-1.77-40.83-.86-55,4.21a7.56,7.56,0,0,1,2.48-4.42,22,22,0,0,1,2.69-2.22c.53-.37,1.09-.74,1.69-1.11s1.23-.7,1.9-1a73.28,73.28,0,0,1,9.55-4.09c1.84-.62,3.79-1.24,5.83-1.85s4.19-1.23,6.42-1.74c4.45-1.06,9.24-2.18,14.23-3l7.63-1.28,7.82-1c10.52-1.36,21.27-2.12,31-2.76,3.57.53,7.12,1.22,10.68,1.81l5.33.92c1.78.31,3.54.69,5.31,1l5.29,1c1.76.35,3.51.79,5.26,1.18,3.51.79,7,1.57,10.47,2.5a410.16,410.16,0,0,1,41,12.66c3.32,1.28,6.68,2.45,10,3.81s6.71,2.71,10,4.15,6.64,2.92,9.93,4.43l9.78,4.7a341.53,341.53,0,0,1,37.36,21.65c23.81,15.94,45.41,35.09,62.18,57.67A178.06,178.06,0,0,1,1265.89,514a154.13,154.13,0,0,1,11,39.74,157.38,157.38,0,0,1,.12,40.91,245.13,245.13,0,0,1-8.86,40.18c-8,26.44-18.82,52.13-27.3,79.22-1,3.41-2.15,6.76-3.05,10.23l-1.42,5.17-.72,2.59-.61,2.62-1.24,5.26-.62,2.63c-.21.87-.36,1.82-.54,2.73-.35,1.84-.73,3.68-1,5.52s-.59,3.69-.77,5.54a171.55,171.55,0,0,0,.53,44.53,155.72,155.72,0,0,0,12.57,43.7,122.22,122.22,0,0,0,12.08,20.67,100.83,100.83,0,0,0,17.29,18.48ZM705,452.25c4.28,1.52-10,6.72-3.94,8-3.16,1.19-6.11,2.51-9,3.8s-5.59,2.56-8.15,3.94-5,2.73-7.35,4.1l-1.73,1-.43.26-.21.13s-.21.11-.07.06l.87-.28,3.53-1.1a151,151,0,0,1,30.75-5.41,241,241,0,0,1,31.37-.4c10,.5,19.47,1.48,27.81,2.67a168.05,168.05,0,0,1,19.4,3.81,200.06,200.06,0,0,1,21.43,7.32c1.52.56,3.1,1.22,4.76,1.89l5.14,2.07c3.5,1.52,7.22,3,10.88,4.7,7.39,3.26,14.7,6.89,21,10.3,12.55,6.88,20.8,13.26,18.56,15.9a141.22,141.22,0,0,1,20.74,14.19,201.08,201.08,0,0,1,19.22,18.24c1.56,1.64,3.15,3.25,4.69,4.92l4.52,5.08,4.55,5c.77.82,1.5,1.66,2.22,2.51l2.18,2.49c1.46,1.65,2.92,3.27,4.37,4.83s3,3.06,4.31,4.59a111.28,111.28,0,0,0,8.32,8.17c-1.66.44-4.8-1.21-8.52-3.7-1.85-1.24-3.86-2.69-5.87-4.16s-4.19-2.88-6.16-4.18c-4-2.59-7.43-4.58-9.18-4.4s-1.76,2.54,1.35,8.86a44.33,44.33,0,0,0,3.79,2.9,34.31,34.31,0,0,0,3.32,2.13,40.86,40.86,0,0,0,6,2.69c1.91.72,3.79,1.37,5.76,2.29a27,27,0,0,1,6.22,3.94q3,4.25,5.69,8.19l1.3,1.95.64,1,.32.5.38.62,2.91,4.82c1.85,3.14,3.55,6.11,5.06,8.92.76,1.41,1.49,2.74,2.14,4.1s1.24,2.68,1.8,3.95c4.45,10.14,6,17.18,3.75,20.48-1.94-2.34-4.16-4.94-6.51-7.83s-4.84-6.08-7.44-9.5c-1.28-1.74-2.68-3.44-4.08-5.21l-4.3-5.49-4.44-5.8-1.14-1.5-1.06-1.28-2.15-2.63c-11.34-14.31-25.21-30.88-40.26-46.83l-2.8-3-1.39-1.51-1.46-1.45L882.62,548l-5.75-5.81L871,536.6c-7.85-7.3-15.76-14.08-23.33-20.15a449.41,449.41,0,0,0-38.09-27.22C789.79,480,773.74,473.05,759.06,468c-3.65-1.34-7.3-2.36-10.85-3.5-3.6-1-7.13-2-10.74-2.81-1.81-.4-3.6-.89-5.43-1.21l-5.55-1.05c-1.87-.33-3.77-.58-5.7-.87s-3.9-.53-5.92-.74c-4.46-.85-4.19-.95-1.85-.74,1.17.13,2.84.41,4.68.69s3.87.57,5.71,1c-14.87-2.85-26.53-4.16-35.82-4s-16.23,1.61-22.25,4.15-11.19,6.06-17.67,10.19l-.62.37c-.12.06.09,0,.18-.06l.32-.13.64-.26,2.53-1.05q2.5-1.05,4.88-2.12c3.18-1.41,6.17-2.87,9-4.26s5.49-2.85,7.92-4.33a71.27,71.27,0,0,0,6.69-4.46c4.52-1.75,8.71-.78,12.93.06S700.59,454.31,705,452.25Zm274.5,205.44A140.31,140.31,0,0,1,985,671.84c.7,2.12,1.38,4.18,2.08,6.33s1.4,4.36,2.26,6.74c-2.24-.29-4.85-2.32-8-6a110,110,0,0,1-10.88-16.23C965,647.48,972.13,652.14,979.51,657.69ZM1145,910.48c13.35,38.77,26.63,78.07,39.19,117.24l4.71,14.68q2.3,7.33,4.58,14.66c3.08,9.75,6,19.51,9,29.22s5.78,19.4,8.59,29c.8,2.79,1.61,5.58,2.41,8.37,1,3.57,2,7.31,3,11q2.94,11,5.85,21.95,1.76,6.6,3.53,13.3c1.18,4.47,2.24,9,3.37,13.52q3.31,13.63,6.73,27.66.42,1.74.84,3.51c.14.58.3,1.17.41,1.75l.31,1.73c.41,2.32.81,4.63,1.22,7q1.21,7,2.45,14t2.45,14.18l.61,3.57.31,1.78.15.9,0,.82.18,6.65q.35,13.3.7,26.84l.09,3.39c0,1.11.11,2.3,0,3.33-.13,2.12-.25,4.24-.44,6.34s-.38,4.19-.59,6.29-.51,4.16-.82,6.23a140.46,140.46,0,0,1-5.87,24.87,96.39,96.39,0,0,1-5.1,12.42c-2,4.07-4.35,8.15-6.83,12.17l-1.38,2-.34.5,0,.06c-.14-.06-.07,0-.11,0l-.09.12-.19.25-.74,1c-1,1.28-2,2.6-3,3.85-2,2.54-4.14,5-6.37,7.29a112.84,112.84,0,0,1-14.26,12.22,139.27,139.27,0,0,1-15.29,9.6c-5.21,2.87-10.59,5.41-16.09,7.78-2.77,1.18-5.54,2.32-8.43,3.37l-9.15,2.81-18.23,5.63-4.54,1.41-2.27.71a6.14,6.14,0,0,1-1.21.27l-1.27.22-10.12,1.73-20.14,3.48-5,.88c-.84.13-1.64.33-2.52.4l-2.62.25-10.42,1-20.72,2.09c-6.84.79-13.78,1.22-20.65,1.8l-20.49,1.67c-6.79.62-13.58,1-20.31,1.53-3.43.25-6.87.47-10.29.67l-5.12.28-.64,0-.46,0-.83.07L971,1444l-6.62.53-6.57.46-12.95,1-41.36-2.19c-8-.47-16.33-.85-24.84-1.28s-17.16-.93-25.73-1.27-17.07-.86-25.26-1.1-16.06-.58-23.41-.62-14.15,0-20.2.25a117.33,117.33,0,0,0-15.65,1.55q-8-1-16-2c-5.34-.65-10.69-1.16-16-1.83s-10.65-1.26-16-1.85l-8-.86-8-.94c-10.58-1.25-21.14-2.32-31.63-3.62l-15.72-1.8c-5.32-.63-10.72-1.29-16.34-2-11.18-1.49-22.92-3.27-35.2-5.65-3.1-.63-6.16-1.22-9.3-1.91l-9.52-2.18-4.86-1.25-5.66-1.52c-3.81-1.09-7.57-2.28-11.34-3.46-30.06-9.63-58.48-23.63-82.79-42.41l-3-2.37c-.91-.87-1.92-1.63-2.87-2.45l-5.73-4.86a258.83,258.83,0,0,1-40.8-50.5,268.94,268.94,0,0,1-27.61-60.33,309.31,309.31,0,0,1-13.1-66.72c-.32-3-.43-5.43-.59-8.06s-.29-5-.43-7.49-.16-4.91-.23-7.36-.08-4.88-.13-7.33,0-4.81.05-7.21l.15-7.18c0-2.42.18-4.72.29-7.07l.39-7a470,470,0,0,1,6.74-53.82c3.16-17.3,7.13-34,11.71-50.27s9.8-32,15.54-47.33c1.44-3.84,2.89-7.65,4.41-11.41s3-7.55,4.6-11.26,3.15-7.44,4.78-11.1l2.46-5.5,2.33-5c1.41-3,2.83-5.9,4.28-8.71s3-5.63,4.51-8.33c3-5.36,6.24-10.73,9.41-16l4.89-8.06c1.65-2.73,3.28-5.48,4.94-8.32s3.41-5.82,5.11-8.87c.83-1.52,1.68-3.07,2.53-4.64s1.77-3.24,2.66-4.9q2.29-4.35,4.59-9t4.87-9.56c.81-1.63,1.63-3.28,2.46-4.93s1.73-3.36,2.6-5.06l5.35-10.31c1.87-3.49,3.85-7,5.81-10.54l3-5.28,3.21-5.31c2.17-3.52,4.3-7,6.58-10.49s4.73-6.9,7.14-10.25A333.76,333.76,0,0,1,574.46,724c2.31-2.06,4.57-4.13,7-6.08l7.4-6,4-3.25c1.32-1.09,2.8-2.19,4.21-3.26,2.86-2.13,5.65-4.33,8.58-6.35a370.58,370.58,0,0,1,35.8-22.48c11.25-6.22,24.41-13.28,38-19.13a213.48,213.48,0,0,1,39.8-13.12,84.64,84.64,0,0,1,11.24-1.61c3.48-.32,6.78-.33,10-.34h4.82l4.85.1c1.64,0,3.3,0,5,0s3.47,0,5.29-.05a336.18,336.18,0,0,1,35.2.52,240.28,240.28,0,0,1,35.77,5.17,180.53,180.53,0,0,1,32.87,10.68A139,139,0,0,1,890.76,674c1.91,1,3.78,2.16,5.66,3.24s3.76,2.17,5.54,3.38c3.59,2.37,7.19,4.67,10.57,7.14,24.34,17.84,44.09,41,58.75,67.33s24.52,55.9,29.76,87.28c1.28,7.86,2.33,15.82,3.06,23.89s1.19,16.23,1.31,24.49c.06,2.07.06,4.13.06,6.21V900c0,1,0,2.1,0,3,0,1.85-.09,3.69-.13,5.54s-.15,3.63-.22,5.46l-.13,2.72-.16,2.59c-.12,1.73-.23,3.47-.35,5.2s-.22,3.49-.37,5.23-.33,3.49-.49,5.24q-2,21-6,42.74t-10.31,43.81c2.64-14.59,4.76-29.64,5.92-44.29a304.82,304.82,0,0,0,.62-41.71c-.22-3.21-.38-6.33-.73-9.36s-.7-6-1.1-8.75c-.19-1.38-.43-2.83-.67-4.25s-.49-2.79-.75-4.14c-.55-2.7-1.15-5.19-1.78-7.84-2.59-10.86-6.21-18.84-10.19-23.25-1.94-33.74-9.5-66-22.76-95.07a225.16,225.16,0,0,0-11.05-21.19,202.24,202.24,0,0,0-13.26-19.81,208.73,208.73,0,0,0-15.48-18.18,199.8,199.8,0,0,0-17.72-16.27L895.21,705l-3.24-2.4c-2.19-1.58-4.32-3.28-6.62-4.74-5.24-3.59-10.24-6.58-15.06-9.24-2.43-1.28-4.78-2.57-7.12-3.73l-7-3.26a174.21,174.21,0,0,0-65-14.76,213.18,213.18,0,0,0-52.37,4.75,223.22,223.22,0,0,0-53,19.07l-3.09,1.55-3,1.63c-2,1.1-4,2.16-6,3.29-3.94,2.3-7.87,4.55-11.67,7s-7.55,4.89-11.27,7.38c-1.86,1.24-3.65,2.57-5.48,3.84s-3.64,2.57-5.41,3.91c-4.79,3.52-9.45,7.22-14,11-2.26,2-4.53,3.88-6.75,5.87l-6.28,5.91-5.92,5.61-5.62,5.82-5.62,5.85c-1.84,2-3.55,4-5.34,6a421.35,421.35,0,0,0-37.92,50.28,550.49,550.49,0,0,0-29.63,52.08c-8.71,17.35-16.34,34.55-23.23,51.37-1.51,3.61-2.9,7.17-4.31,10.75s-2.79,7.16-4.12,10.68-2.65,7.1-4,10.64c-1.34,3.71-2.7,7.38-4,11.09-5.23,14.8-10,29.63-14.4,44.22-8.89,29.16-16.17,57.34-23.77,82.75a508.92,508.92,0,0,0-4.81,57.18c-.1,2.5-.07,5.07-.06,7.64s0,5.14,0,7.72.22,5.24.32,7.87l.18,4.06c.06,1.36.22,2.85.33,4.28.25,2.88.51,5.76.76,8.65s.72,5.76,1.09,8.64l.61,4.33.31,2.16.4,2.14c.54,2.86,1.09,5.73,1.63,8.6l.42,2.14.51,2.13,1,4.25,1.07,4.25.54,2.13c.19.7.42,1.4.62,2.09l2.6,8.37.66,2.09c.23.69.5,1.37.75,2.06l1.54,4.1,1.56,4.09.79,2c.28.68.59,1.34.88,2q1.8,4,3.61,8l.91,2,1,1.94,2,3.85,2.07,3.84,1,1.91,1.13,1.86A188.86,188.86,0,0,0,515.34,1329c2.34,1.78,4.64,3.58,7,5.27s4.79,3.31,7.18,4.93,4.91,3,7.36,4.51,5,2.84,7.48,4.16c5,2.73,10.13,5,15.2,7.29,5.15,2.1,10.24,4.17,15.4,5.85s10.29,3.24,15.35,4.67c1.27.34,2.56.65,3.84,1l3.61.85c2.3.55,4.53,1,6.75,1.4a237.08,237.08,0,0,0,25.36,3.47c9.21,2.63,18.33,4.73,27.32,6.56l6.7,1.31,6.62,1.15q6.63,1.13,13.27,2.16c17.72,2.67,35.53,4.59,53.05,6,35,2.82,68.89,3.6,99,5.07,6.94,1.88,14.2,3.89,21.82,5.73s15.58,3.64,23.91,5.42,17,3.24,26.07,4.76,18.5,2.65,28.31,3.8c9.8,1,20,1.87,30.56,2.47l4,.18,2,.08,2.57.08c3.74.09,7.51.14,11.33.15l11.39,0c3.82,0,7.67-.17,11.56-.27q11.69-.35,23.76-.87c4-.14,8.06-.45,12.11-.76l12.26-1,12.41-1.08c2.07-.21,4.2-.33,6.24-.63l6.07-1q12.16-2,24.57-4.28l4.47-.83,4-1.24,7.84-2.5q7.71-2.49,14.93-5a101.35,101.35,0,0,0,13.33-5.5q6.18-3,11.76-6.4a116.44,116.44,0,0,0,10.6-7.34,95.2,95.2,0,0,0,9.47-8.58c.74-.78,1.44-1.59,2.16-2.39.35-.4.71-.78,1-1.19l1-1.27c.66-.85,1.36-1.64,2-2.53l1.84-2.67a74.25,74.25,0,0,0,12.12-41.48,146.35,146.35,0,0,0-3.15-29.39c-.49-2.43-1-4.84-1.53-7.26l-.41-1.82-.49-1.87c-.32-1.24-.64-2.49-1-3.73q-1.89-7.38-3.82-14.85t-3.65-14.81q-2.4-7.71-4.65-15.49a166.24,166.24,0,0,0-4.17-28.54c-2.16-9.27-4.68-18.27-7.41-27.24s-5.76-17.94-8.64-27.32c-1.36-4.55-2.76-9.21-4.21-14-1.2-4-2.35-8.25-3.43-12.67-6.57-26.56-12-55.42-19.51-86.94s-17.13-65.74-32.07-102.69c8.1,3.1,14.54,3.86,20.83,5.48s12.38,4.16,19.86,10.86c.76-4.42-.79-12.86-2-20.4S1142.15,911.49,1145,910.48ZM971.72,1065.05c2.07,3.12.44,11.45,5.82,9.54-9,15-16.39,32.06-23.2,48.65s-13,32.64-18.79,45.62c-6,10.05-11.89,19.56-17.66,28.77s-11.48,18-17.08,26.57c-11.21,17.08-22.1,33.19-33,48.84-21.74,31.32-43.51,61.06-67.78,92.85-11.64,12.09-20.77,19-31.47,29.66-16.59,21.25-32.55,42-47,62.39-7.21,10.2-14,20.31-20.39,30.34q-4.77,7.52-9.15,15c-1.44,2.48-2.93,5-4.29,7.43-.69,1.23-1.38,2.46-2.06,3.7l-1,1.83-.89,1.68a231,231,0,0,0-13.49,30c-1.92,5.09-3.52,10.2-5.06,15.26s-2.8,10.09-3.81,15c-4.4,19.74-5.19,37.68-4.15,51,0,1,.15,1.88.23,2.8.08.73,0,1.37.15,2.12s.15,1.46.18,2.2.2,1.46.25,2.21l.09,1.11c0,.37.12.73.17,1.1.11.74.18,1.48.27,2.23.33,1.45.43,3,.82,4.43a57.5,57.5,0,0,0,6.17,17.09c.82,1.19,1.49,2.51,2.4,3.63.45.57.82,1.21,1.3,1.74s.93,1.1,1.4,1.64a15.48,15.48,0,0,0,1.49,1.54,19.41,19.41,0,0,0,1.53,1.48,34.07,34.07,0,0,0,3.32,2.59,32.09,32.09,0,0,0,7.26,3.8l.87.24.44.12.57.2,1.14.38,1.21.31,2.4.57c.81.15,1.67.26,2.49.38,1.62,1,3.47,1.87,5.27,2.9s3.8,1.93,5.88,2.83l1.53.73,1.59.66c1.08.43,2.12,1,3.24,1.36s2.23.86,3.35,1.32l3.55,1.2,1.78.64,1.83.54,3.68,1.13,3.78,1,1.91.5c.64.15,1.29.27,1.94.41l3.9.83,4,.66,2,.34,2,.24,4.06.5a135.13,135.13,0,0,0,32.69-.85A107.29,107.29,0,0,0,810,1691.7a120.85,120.85,0,0,0,29.72-7.81,204,204,0,0,0,33.18-17l4.16-2.65c1.39-.89,2.73-1.86,4.1-2.78,2.78-1.82,5.41-3.84,8.14-5.76l4-3,2-1.51,1.94-1.57,3.89-3.11,3.78-3.21,1.89-1.59,1.84-1.64c1.22-1.1,2.46-2.13,3.69-3.25q3.66-3.55,7.37-7c1.22-1.15,2.49-2.25,3.69-3.41l3.51-3.55q3.52-3.53,7.06-6.85A286.46,286.46,0,0,0,967,1553.43c8.17-21.1,14.14-42.27,19.37-64.18s9.66-44.66,14.22-69.52c.59-3.11,1.07-6.28,1.65-9.46s1.16-6.37,1.74-9.6,1.09-6.33,1.64-9.54,1.06-6.48,1.6-9.77c2.12-13.17,4.15-27,6-41.55a176.63,176.63,0,0,1,1.51,34.31c-.17,3.07-.33,6.18-.55,9.3s-.57,6.27-.85,9.41-.74,6.3-1.1,9.44-.93,6.42-1.37,9.61-.87,6.38-1.37,9.5-1,6.19-1.49,9.21c-.86,6.11-1.94,11.89-2.73,17.46s-1.56,10.79-2,15.68c-.23,2.45-.4,4.81-.48,7.08s-.23,4.37-.2,6.41c-7.39,21.66-13.14,42.44-18.88,61.49-1.52,4.7-2.86,9.4-4.3,13.92L975,1565.71l-.54,1.59-.6,1.53c-.39,1-.79,2-1.18,3l-2.34,5.93c-.8,1.93-1.5,3.89-2.36,5.69l-2.54,5.3c-1.47,3-2.95,6-4.65,9.1l-5.46,9.16c-.95,1.53-1.84,3.16-2.88,4.66l-3.13,4.54-3.16,4.59c-1.07,1.53-2.07,3.13-3.25,4.56l-6.8,8.88-1.69,2.23c-.58.73-1.19,1.41-1.78,2.12l-3.53,4.22-3.47,4.22c-.57.7-1.13,1.42-1.7,2.09s-1.14,1.31-1.71,1.95l-3.34,3.9c-1.14,1.25-2.26,2.51-3.35,3.76-5.4,6.07-10.31,11.51-15.37,16.63-2.48,2.63-5.09,5.06-7.7,7.61-1.31,1.26-2.69,2.45-4.07,3.71s-2.78,2.52-4.28,3.72l-4.55,3.76-4.95,3.72c-1.68,1.31-3.51,2.49-5.37,3.77l-2.85,1.93-3,1.86a183.59,183.59,0,0,1-30,14.94,225.27,225.27,0,0,1-29,9.06,245.28,245.28,0,0,1-31,5.37,144.08,144.08,0,0,1-34.6-.4,162.79,162.79,0,0,1-32.78-7.85,166.35,166.35,0,0,1-27.65-12.78c-1-.6-2.05-1.13-3-1.75l-2.87-1.77c-1-.56-1.85-1.19-2.75-1.78s-1.54-1-2.35-1.55c-3.13-2.23-6.2-4.3-9-6.48-3.12-2.23-6.43-4.39-9.76-6.64l-2.37-1.82-1.19-.92c-.38-.32-.73-.66-1.1-1-.72-.68-1.43-1.36-2.12-2.06a28.23,28.23,0,0,1-1.84-2.28l-1.13-1.54c-.61-.94-1.17-1.93-1.76-2.91l-.89-1.48c-.27-.51-.51-1-.77-1.57-.5-1.06-1-2.11-1.53-3.19l-1.31-3.34c-.48-1.1-.78-2.29-1.16-3.45s-.78-2.3-1-3.51l-.9-3.57c-.21-1.22-.45-2.43-.69-3.64a143.26,143.26,0,0,1-1.73-14.56c-.25-5-.51-10.08-.76-15a28.45,28.45,0,0,0-.53-3.82c-.35-1.6-.64-3.54-1-5.5s-.57-4-.74-5.72c-.08-.89-.15-1.7-.17-2.42a16.15,16.15,0,0,1,.09-1.86c.63-5.93,2.53-12.15,4.65-18.23s4.64-12.11,6.53-17.91c3.31-9.86,7.19-20.23,11.83-30.89s9.92-21.62,16-32.57l2.3-4.16c.84-1.47,1.68-2.94,2.52-4.43,1.66-3,3.45-5.93,5.19-8.93s3.61-6,5.41-9,3.74-6,5.63-9.09q11.5-18.27,24.63-37.06c17.46-25,36.89-50.54,57.32-76.29s41.8-51.76,63-77.87c17.28-21.28,34.87-39.83,51-62.93,5.43-7.72,10.57-16.37,15.75-25.06s10.35-17.57,15.84-25.89c11.08-16.69,22.52-31.85,33.16-48.14a277.87,277.87,0,0,0,15-25.74c2.34-4.51,4.47-9.27,6.53-14.13,1-2.43,2-5,2.92-7.5S970.9,1067.73,971.72,1065.05Zm-54.58,512.78c6.25-8.84,2.66-7.76,8.71-13.38,3-.06,1.45,4.71-1.09,8.89C922,1577.28,918.3,1580.53,917.14,1577.83Z"/><path class="b" d="M784.48,256.64c3.74-.94,6.95-1.91,10-2.77s5.76-1.68,8.42-2.52l8-2.53,2.07-.64,2.19-.58c1.48-.39,3-.78,4.66-1.17,5-.17,10.37-.67,16.17-1.28s12.12-1.19,18.6-2c3.2-.45,6.6-.73,10-1.11l10.32-1.15,5.22-.61,5.36-.46,10.73-.92c28.66-2.25,58.05-2.19,75.09,2.52l-11.35-.33c-3.75-.09-7.51-.3-11.14-.22-7.29,0-14.51,0-21.59.12l-20.76.68c-6.77.33-13.38.83-20,1.22-26.17,1.94-50.64,4.9-74.11,8.77l-17.45,3.06-17.1,3.43-4.28.87c-1.42.3-2.8.63-4.2,1l-8.4,1.94-8.42,1.93L744.17,266C722,271.64,700,278.12,678,285.86a31.21,31.21,0,0,1,6.81-4c1.65-.8,3.53-1.64,5.6-2.53s4.42-1.72,6.88-2.64,5.08-1.83,7.81-2.77l4.18-1.43c1.42-.46,2.91-.9,4.39-1.35l9.11-2.68c3.09-.88,6.14-1.82,9.34-2.57,6.32-1.58,12.57-3.1,18.47-4.41s11.58-2.27,16.42-3.12,9-1.36,12.06-1.66S784,256.37,784.48,256.64Z"/><path class="b" d="M609.06,309.59c22.76-9.93,18.44-12.73,40.31-21.64-1,1.53-3.5,3.55-6.8,5.65-1.65,1.06-3.48,2.16-5.4,3.28l-2.93,1.69-2.93,1.75c-3.88,2.35-7.72,4.67-10.69,6.77s-5,4.08-5.4,5.55c-8.13,3.55-6.69,2.27-4.7.35S615.05,308.49,609.06,309.59Z"/><path class="b" d="M1158.07,1484.19a128.77,128.77,0,0,1,1-13.33c.52-5,1.16-10.58,2-16.51s1.65-12.24,2.59-18.77c.45-3.29,1-6.56,1.4-10s.88-6.89,1.32-10.37c1.66-14,3-28.26,3.57-41.59.21-6.68.43-13.09.28-19.1-.06-3-.1-5.89-.26-8.66s-.36-5.41-.59-7.9c.39,2.5.74,5.1,1.06,7.76s.49,5.4.68,8.21.35,5.68.39,8.6.07,5.9.06,8.92a376.76,376.76,0,0,1-2.42,37.85c-.17,1.62-.35,3.25-.52,4.87l-.63,4.87c-.42,3.23-.82,6.52-1.29,9.72-1,6.38-1.9,12.74-2.84,19s-2.09,12.49-3,18.58c-.43,3.05-.95,6.06-1.44,9S1158.49,1481.3,1158.07,1484.19Z"/></svg>