<svg xmlns="http://www.w3.org/2000/svg" viewBox="0 0 1920 1920"><defs><style>.a{fill:none;}.b{fill-rule:evenodd;}</style></defs><path class="a" d="M1318.36,134.86l-81.58,32.47-70.34,28-40.79,16.23c-6.78,2.72-13.64,5.36-20.33,8.17s-13.17,5.84-19.4,9.06a213.59,213.59,0,0,0-33.52,21.54,197.91,197.91,0,0,0-25.92,24.37c-3.79,4.16-7.12,8.36-10.38,12.73-1.65,2.16-3.16,4.44-4.67,6.75l-4.62,7.07-1.18,1.8-1.1,1.9c-.74,1.24-1.45,2.57-2.18,3.85-1.44,2.65-2.87,5.33-4.26,8.14-2.74,5.58-5.28,11.52-7.53,17.44a196.6,196.6,0,0,0-9.44,35.2c-1,5.78-1.73,11.57-2.19,17.45l-.29,18.18-.12,9.09,1.09,9.51,2.19,19,4.62,19.52,2.31,9.75,3.09,9.83L998,501.6l7.25,19.66,3.63,9.83,4.21,9.77,8.41,19.55,9.51,19.34,4.76,9.67,5.3,9.5,10.6,19,11.65,18.53,5.83,9.25c2,3.07,4,6.06,6.22,9.24l3.31,4.69,2.91,4.06,4.3,6,9,11.8,4.51,5.88,4.69,5.76,9.45,11.45,9.82,11.16,4.93,5.56,5.11,5.41,10.27,10.78L1154.31,748l5.34,5.21,5.51,5.05,11.07,10,5.31,4.61,5.14,4.39c13.47,11.39,25.13,20.72,34.73,28.75q7.21,6,12.69,10.9l.71.62.64.58.64.59c.16.14,0,0,.07.07s0,0,0,0h0l0,0h0s0,0,0,0l.13-.2s.24-.33,0,0c-.58.85-1.32,1.83-2,2.74-1.36,1.89-2.83,3.86-4.41,5.94-3.14,4.15-6.69,8.65-10.57,13.45-7.75,9.61-16.81,20.39-26.76,32.43s-20.82,25.4-32.16,40.54a546.48,546.48,0,0,0-34.75,52,385.3,385.3,0,0,0-31.8,68.82q-.86,2.41-1.65,4.94l-1.6,5-.78,2.51-.94,3.2-.93,3.34L1087,1057l-.94,3.77c-.31,1.31-.61,2.49-.92,3.91l-.9,4.18c-.29,1.35-.58,2.88-.86,4.42l-.82,4.57-.76,5c-.47,3.19-.9,7-1.25,10.62a202.78,202.78,0,0,0,2.41,55.72c.52,2.79,1.14,5.69,1.8,8.51s1.34,5.62,2.22,8.64,1.75,5.9,2.71,8.82,2.13,6,3.28,9a186.4,186.4,0,0,0,8.07,17.82c1.57,3.09,2.87,5.34,4.37,8s3,5,4.56,7.5,3.38,5.12,5.2,7.67,3.73,5.11,5.68,7.6,4.18,5.11,6.35,7.58,4.47,5,6.79,7.37a205,205,0,0,0,15.13,13.86q4,3.23,8.11,6.26c2.74,2,5.58,4,8.32,5.78s5.6,3.53,8.45,5.2,5.7,3.23,8.45,4.62,5.59,2.79,8.43,4.09,5.38,2.34,8.13,3.46,5.39,2.08,8.11,3c2.55.88,5,1.66,7.54,2.43,2.2.68,5.74,1.69,6.88,2l2,.48,1.5.34v-.07a.72.72,0,0,1,.09-.2l-.8,2.08-1.76,4.42-3.54,8.84c-2.39,5.89-4.85,11.74-7.33,17.59q-7.49,17.51-15.6,34.75l-1.45,3.07h0l-2-.68c-30.36-10.28-61.29-19.89-92.92-28.56s-63.9-16.44-96.93-23-66.78-11.9-101.4-15.47a948.14,948.14,0,0,0-106.07-5.19l-6.76,0-6.8.19-13.62.44-3.4.11-3.43.2-6.86.4-13.71.85-13.8,1.24-6.9.63-3.45.33-3.46.42-13.87,1.69c-2.31.29-4.61.56-6.93.88l-7,1.06A712.13,712.13,0,0,0,574.26,1331c-4.6,1.47-9.17,3.1-13.75,4.66l-6.86,2.38c-2.28.8-4.58,1.55-6.84,2.46l-13.6,5.26-6.79,2.66c-2.26.88-4.48,1.9-6.73,2.85l-13.41,5.82-3.35,1.47c-.7.32-.79.33-2,.9l-3.29,1.55-3.26,1.58-3.16,1.6-3.14,1.62-3.05,1.65c-8.11,4.43-15.76,9.13-23.25,14.24a265.33,265.33,0,0,0-22.19,16.93,250.83,250.83,0,0,0-22.3,21.38,230.35,230.35,0,0,0-22.93,29.23,209,209,0,0,0-22,43.52c-.82,2.28-1.61,4.56-2.37,6.86s-1.5,4.77-2.2,7.27-1.37,5-2,7.56-1.21,5.37-1.74,8-1,5.48-1.46,8.23c-.42,2.9-.79,5.86-1.1,8.8s-.58,5.82-.75,8.91-.26,6.21-.3,9.31a186.55,186.55,0,0,0,.78,19c.26,3.18.65,6.4,1.13,9.63s1,6.44,1.62,9.64c1.25,6.38,2.88,12.66,4.72,18.87,1.88,6.06,4.05,12,6.44,17.83,2.36,5.53,5,11.08,7.76,16.31,2.71,5,5.56,9.83,8.68,14.67a194.87,194.87,0,0,0,21.63,27.32,204.42,204.42,0,0,0,41,33.17c1.42.88,3,1.84,4.32,2.61l4.09,2.34,3.81,2.09c1.31.71,2.45,1.3,3.62,1.9,2.42,1.25,4.46,2.24,6.61,3.29,1.93.91,4,1.86,5.61,2.61.88.4,1.77.8,2.49,1.1l2.31,1,4.62,2c3.09,1.27,6.18,2.61,9.29,3.78l9.38,3.44,4.71,1.68,4.73,1.52,9.49,3c3.16,1,6.34,1.77,9.52,2.63s6.37,1.7,9.56,2.43l9.57,2.1a375,375,0,0,0,76.2,7.9,397,397,0,0,0,73.46-6.58,423.39,423.39,0,0,0,69.18-18.91,432,432,0,0,0,64.27-30,416.4,416.4,0,0,0,58.78-40.53c2.31-1.92,4.64-3.81,6.92-5.78l6.79-6c4.54-4,8.89-8.25,13.27-12.45,2.2-2.09,4.31-4.33,6.45-6.51l6.34-6.62,5.88-6.5c1.94-2.18,3.91-4.34,5.77-6.58A454,454,0,0,0,992,1569.38a481.76,481.76,0,0,0,53.06-121.19,529.66,529.66,0,0,0,19.65-125,551,551,0,0,0-9.59-124.38,501.83,501.83,0,0,0-16.36-62.74,449.26,449.26,0,0,0-26.55-63.49,402.84,402.84,0,0,0-39.36-62.17c-3.9-5-8-10-12.09-14.87s-8.61-9.65-13-14.41c-2.2-2.37-4.41-4.54-6.64-6.8L937.79,971l-3.42-3.27c-2.3-2.16-4.58-4.35-6.92-6.47L920.36,955c-9.55-8.21-19.43-16-29.59-23.19S870.28,918,859.85,911.92s-20.92-11.53-31.36-16.49-20.83-9.36-31.09-13.35-20.36-7.47-30.31-10.64-19.68-5.92-29.25-8.42-18.9-4.68-28.05-6.66-18.12-3.73-26.85-5.3c-35-6.3-66.83-10.13-95.92-13.75s-55.32-6.91-78.39-11-42.77-9-58.22-14.59c-3.83-1.43-7.55-2.82-10.87-4.31-1-.38-1.51-.66-2.17-.94l-.76-.36c-.28-.12-.44-.21-.6-.29l-.26-.12a1,1,0,0,1-.19-.1,1.66,1.66,0,0,0-.27-.13c-.06,0,0,0,0,0-.12.2.24-.47-.27.46L429.4,816q-1.32,2.32-2.67,4.64c-.92,1.55-1.86,3.11-2.56,4.36q-2.31,4-4.78,7.88c-.9,1.38-1.47,2.38-2.21,3.55s-1.42,2.26-2.16,3.38L410.87,846c-.65,1-1.32,1.92-2,2.87s-1.42,1.94-1.95,2.72q-1.74,2.49-3.63,4.9c-.68.85-1.13,1.49-1.68,2.21s-1.09,1.39-1.65,2.08l-3.15,3.8c-.49.59-1,1.17-1.51,1.74s-1.07,1.16-1.46,1.62c-.85,1-1.75,1.92-2.68,2.86-.52.5-.81.84-1.21,1.24s-.77.78-1.17,1.16l-2.19,2c-.33.3-.67.6-1,.89s-.73.61-.95.81c-.52.46-1.08.9-1.66,1.34-1.56,1.17,10.09-7.72,4.91-3.75l-.59.45c-.4.29-.83.58-1.28.86l-.81.54c-.26.16-.53.32-.83.48l-.31.18-.34.17.24-.11.24-.09c.27-.11.54-.21.79-.29l.37-.12a4.08,4.08,0,0,0,.49-.15c3-.92,9.2-2.25,18.47-2.51a184.21,184.21,0,0,1,36.14,3q2.75.46,5.45,1c2,.35,4,.73,6,1.15s3.94.88,5.89,1.37c2.1.46,4.27,1,6.38,1.49s4.22,1.1,6.31,1.7c1.61.45.59.13.9.2a.08.08,0,0,0,0,0,.36.36,0,0,0,0-.1c0-.06.07-.19.1-.28a50.93,50.93,0,0,1,1.9-4.85c1-2.34,2.42-5.25,4.18-8.54s3.86-6.94,6.24-10.83c1.19-1.94,2.44-3.94,3.77-6l2-3.12,1.81-2.72c1-1.46,1.68-2.41,2-2.82l.15-.2-1.1-.86-6.22-4.95c-1.9-1.51-3.8-3-5.68-4.59l-5.34-4.4q-2.53-2.08-5-4.23l-4.64-4A371.3,371.3,0,0,1,437,794.17a171,171,0,0,1-16.62-20.36L419,771.68c-.43-.66-.86-1.34-1.27-2l-1.14-1.87c-.35-.6-.71-1.3-1-1.85s-.6-1.1-.88-1.66-.55-1.13-.78-1.58-.47-1-.68-1.5-.38-.85-.56-1.29a33.89,33.89,0,0,1-1.38-4.11,11.77,11.77,0,0,1-.35-1.71l0-.12v.37c0,.13,0,.25,0,.37,0,.39.06-1.73,0-.9v-.15l0-.19c0-.14,0-.05,0,.09a3.74,3.74,0,0,1-.13.53s0,.14-.11.44-.13.47-.2.69-.15.43-.24.63-.15.34-.3.77a15.88,15.88,0,0,1-.88,2c-.28.47-.75,1.56-1.22,2.38-.24.43-.48.85-.74,1.25s-.49.68-.82,1.28a36.16,36.16,0,0,1-2,3L403.2,768c-.42.59-.85,1.17-1.28,1.73-.88,1.12-1.79,2.19-2.74,3.2-1,1.24-2.11,2.46-3.22,3.6-.55.57-1.11,1.13-1.68,1.67s-1.22,1.25-1.83,1.84q-1.87,1.88-3.86,3.58c-.65.53-1.33,1.14-2,1.8s-1.41,1.25-2.13,1.85-1.44,1.19-2.18,1.77-1.45,1.07-2.22,1.73q-2.28,1.86-4.64,3.57c-.79.56-1.58,1.11-2.38,1.65l-2.4,1.74q-2.42,1.71-4.89,3.26c-1.65,1-3.23,2.13-4.87,3.13s-3.33,2-4.88,2.89-3.1,1.83-4.67,2.68l-2.35,1.25-2.09,1.14q-2.09,1.11-4.19,2.12c-.77.36-1.19.61-1.79.9l-1.68.81-1.69.78c19.32-8.84-28.38,12.9-23.23,10.8.46,1.2,1,2.34,1.51,3.53.51,1.47,1.05,2.92,1.64,4.36.56,1.74,1.14,3.51,1.75,5.25,2.41,7.58,5,17.55,7.82,29.77,1.42,6.15,2.89,12.76,4.49,20L334,901.6l1.61,7.18q1.13,5,2.32,9.94l1.22,5,.62,2.48.7,2.65,2.78,10.59,1.4,5.29c.46,1.77.9,3.54,1.46,5.27l3.18,10.43c1.07,3.47,2.08,7,3.21,10.41l3.6,10.21,3.6,10.2,4.11,9.91,4.1,9.9c1.46,3.23,3,6.39,4.56,9.57s3.13,6.32,4.72,9.46,3.33,6.17,5,9.23a353.81,353.81,0,0,0,22.51,35c32.47,44.42,74.21,79.9,122.3,101.4a259.78,259.78,0,0,0,75.9,21c3.27.41,6.55.67,9.83,1s6.57.37,9.85.54,6.57.1,9.85.16c1.64.05,3.28,0,4.91-.07l4.91-.14c6.54-.26,13-.85,19.5-1.56,3.24-.37,6.44-.92,9.66-1.37s6.38-1.17,9.58-1.76a265.5,265.5,0,0,0,74-26.94,303.56,303.56,0,0,0,35.22-22.17l17.17-12.8c.73-.51,1.42-1.1,2.12-1.68l2.08-1.75,4.18-3.48,8.36-7c5.61-4.57,11-9.48,16.53-14.27l8.22-7.22c2.76-2.38,5.41-4.91,8.12-7.36L873.12,1074l10-9.52q18-17.22,35.33-35t34-36.3q16.69-18.45,32.71-37.51l8-9.55,7.87-9.64,2-2.41,2.07-2.57,4.18-5.26,2.61-3.33,3.42-4.43q3.33-4.35,6.6-8.76c8.67-11.77,16.88-23.86,24.3-36.34a358.12,358.12,0,0,0,19.91-38.45c11.43-26.32,19.42-53.9,22.62-82.09l.59-5.28.28-2.65a19.52,19.52,0,0,1,.13-2.65q.39-5.3.72-10.61l.15-2.65c0-.88,0-1.77,0-2.65l.06-5.32c0-3.54.09-7.08-.12-10.62s-.32-7.08-.52-10.61-.67-7.05-1-10.57l-.6-5.28c-.24-1.76-.53-3.51-.79-5.26-.56-3.49-1.11-7-1.76-10.48a300.44,300.44,0,0,0-11-41.06c-1.18-3.35-2.49-6.66-3.76-10l-2-5-2.14-4.89c-1.46-3.26-2.88-6.52-4.43-9.74s-3.19-6.39-4.82-9.56a322.09,322.09,0,0,0-22.48-36.71c-4.09-5.93-8.55-11.64-13-17.34-2.25-2.84-4.6-5.6-6.94-8.38s-4.7-5.54-7.17-8.21-4.92-5.36-7.42-8-5.09-5.22-7.66-7.8c-5.14-5.18-10.5-10.16-15.89-15.09l-4.07-3.68-2.23-2-2.31-2c-3.55-3-5.11-4.39-7.26-6.13-4.12-3.36-8.29-6.78-12.37-9.91-8.24-6.47-16.34-12.31-24.45-18-8-5.57-16.09-11-24-16-15.87-10.13-31.43-19.18-46.67-27.59L815,379.82,507,211.1,350.71,496.38l308,168.72L696.82,686c10.38,5.73,20.11,11.42,28.9,17,4.47,2.81,8.55,5.6,12.55,8.33,3.82,2.74,7.62,5.43,10.87,8,1.74,1.31,3.2,2.57,4.76,3.81.72.54,1.87,1.6,1.12,1l-.23-.21-.15-.15,0,0,0,0,0,0,0,0,.06-.09-.77,1L751.28,728l-1.37,1.71-1.5,1.84-6,7.36-6.09,7.29q-12.25,14.53-25,28.66t-26,27.74q-13.29,13.61-27,26.77L652.42,835h0s0,0,0,0l-.07-.56a4.46,4.46,0,0,0-.19-.74l-.07-.18a6.38,6.38,0,0,1-.21-.85l-.55-2.49L649.05,820l-2.45-11-1.31-5.82-1.37-6c-3.77-16.29-8.31-34.73-14.75-55-1.71-5.2-3.44-10.37-5.22-15.56q-3-8.12-6.1-16.18c-2.28-5.55-4.68-11.13-7.09-16.66-.26-.62-.63-1.44-1.09-2.42l-1.29-2.74c-.87-1.82-1.71-3.62-2.64-5.46l-2.85-5.54-1.44-2.75-1.57-2.83-3.19-5.63c-1.08-1.87-2.31-3.85-3.48-5.76l-1.79-2.88c-.6-1-1.19-1.9-1.87-2.91-1.32-2-2.66-4-4-6l-2-2.95-2.26-3.08c-1.52-2-3.05-4.08-4.61-6.09-.74-1-1.68-2.11-2.52-3.15l-2.62-3.16-2.65-3.13c-.87-1-1.79-2.08-2.82-3.19q-3-3.28-6.06-6.49c-1.06-1.08-2-2.08-3.17-3.22L553.3,611c-2.34-2.21-4.69-4.37-7.11-6.52q-4-3.42-8.1-6.7-2.05-1.63-4.13-3.23c-1.43-1.09-3.05-2.24-4.58-3.33q-4.68-3.3-9.47-6.41c-1.53-1-3.46-2.13-5.19-3.16s-3.57-2.08-5.37-3.09c-3.64-2-7.13-3.92-11.26-5.83s-8.06-3.68-12.15-5.36c-2-.84-4.2-1.65-6.4-2.43s-4.41-1.54-6.63-2.26-4.45-1.41-6.69-2.07-4.51-1.27-6.87-1.83c-4.67-1.12-9.39-2.12-14.12-3s-9.53-1.43-14.33-1.93-9.67-.84-14.41-1A200.37,200.37,0,0,0,388,554.16c-4.77.52-9.43,1.26-14.08,2.11s-9.14,1.91-13.67,3a207.29,207.29,0,0,0-25.2,8.35c-1.95.79-4,1.62-5.84,2.45s-3.7,1.68-5.54,2.54-3.66,1.76-5.36,2.64-3.45,1.79-5.16,2.71-3.25,1.82-4.87,2.75-3.25,1.89-4.72,2.81-3,1.87-4.47,2.82-2.91,1.9-4.27,2.84a235.9,235.9,0,0,0-27.92,22.34,267.28,267.28,0,0,0-19.47,20.23,344.41,344.41,0,0,0-25,32.74l-2.25,3.35-2,3.06c-1.32,2-2.64,4-4,6.07q-4,6.12-7.9,12.58c-5.26,8.6-10.48,17.62-15.62,27.23s-10.19,19.84-15,30.9a373.89,373.89,0,0,0-13.77,36.14A315.7,315.7,0,0,0,151,827.62a273.15,273.15,0,0,0-3.87,54.09c.08,4.85.48,10.1.91,15.23l.35,3.86c.13,1.29.32,2.65.48,4q.51,4,1.11,8c.2,1.34.39,2.64.63,4l.77,4.09c.53,2.73,1.09,5.44,1.69,8.15s1.3,5.49,2,8.23,1.5,5.5,2.3,8.24c1.66,5.49,3.61,11,5.62,16.44s4.46,10.84,6.9,16.16,5.23,10.49,8.07,15.57,5.92,10,9.09,14.77,6.44,9.27,9.94,13.83c1.81,2.32,3.65,4.6,5.53,6.87s3.73,4.35,5.64,6.5l2.88,3.16,2.86,3c1.91,2,3.88,4,5.8,5.83s3.85,3.65,5.81,5.45c1,.92,1.93,1.74,2.89,2.58l2.89,2.5,2.91,2.47,2.84,2.31c1.88,1.5,3.84,3.08,5.71,4.48s3.73,2.78,5.61,4.15,3.65,2.58,5.5,3.86l2.75,1.87,2.65,1.74c1.76,1.13,3.59,2.32,5.32,3.38l5.16,3.12c.87.54,1.7,1,2.52,1.48l2.5,1.43,2.49,1.41,2.41,1.32,4.79,2.56,4.61,2.36,2.26,1.13,2.21,1.08c1.48.73,3,1.44,4.34,2.08l4.22,2c2.68,1.21,5.44,2.45,7.87,3.48,10.06,4.41,20,8.25,29.93,11.87s19.65,6.74,29.31,9.67,19.11,5.47,28.45,7.81c18.63,4.64,36.65,8.35,53.92,11.41,34.56,6.12,66.43,10,95.44,13.59s55.27,6.9,77.9,11,41.39,9,54.92,14.27c3.36,1.32,6.42,2.65,9.24,4s5.22,2.64,7.48,3.92,4.17,2.59,6,3.85,3.38,2.58,5,3.87c.36.34.74.67,1.13,1l1.09,1,.56.51.52.55c.32.36.77.72,1,1.05.51.68,1.11,1.23,1.7,1.89s1.15,1.41,1.76,2.16a77.65,77.65,0,0,1,7.46,12c5.07,9.79,9.88,23.57,13,39.63a225.61,225.61,0,0,1,3.86,50.32,205.09,205.09,0,0,1-7.45,48.06,156.63,156.63,0,0,1-16.92,39.24,128.69,128.69,0,0,1-11,15.08c-.46.6-1,1.11-1.47,1.66s-1,1.1-1.46,1.66-.86.84-1.28,1.28a17.24,17.24,0,0,1-1.27,1.3c-.93.82-1.72,1.75-2.73,2.55-.48.42-1,.85-1.42,1.29s-1,.81-1.51,1.23a100.58,100.58,0,0,1-28.62,16.35c-10.41,3.76-20.91,5.63-29.26,5.49a50.18,50.18,0,0,1-11-1.07c-.38-.09-.76-.17-1.15-.23s-.71-.22-1.07-.3-.74-.13-1.06-.26a8.84,8.84,0,0,0-1-.33l-.5-.13-.45-.2a8.45,8.45,0,0,0-.93-.31c-.32-.09-.57-.29-.87-.39l-.43-.17-.23-.07s1.07-2.5-4.16,9.12c-3.42,7.64-8.24,17.88-10.09,22q-3.71,8.08-7.62,16.1c-1.81,3.88-3.66,7.71-5.58,11.53l-4.79,9.54-4.16,7.94c-1.17,2.22-2.52,4.61-3.66,6.66q-1.5,2.74-3.11,5.45c-1.16,1.9-1.82,3.12-2.81,4.68a151.63,151.63,0,0,1-9.08,13.27l-1.81,2.25c-.56.67-1.25,1.41-1.68,1.93s-1,1.13-1.55,1.64-.85.89-1.32,1.32a25.42,25.42,0,0,1-3.73,3c7.17-4.63,1.38-.86,2.67-1.72a13.48,13.48,0,0,1-1.19.65,11.62,11.62,0,0,1-1.78.85c-2,.83-2.06.43-.15.45a33.34,33.34,0,0,1,10.59,2.34,82.55,82.55,0,0,1,16.69,8.72,139.51,139.51,0,0,1,17.29,13.65,160,160,0,0,1,13.44,14l1.24,1.49,1.13,1.39,1,1.25.92,1.2c.49.64,1,1.27,1.41,1.91.31.43.59.81.86,1.22.8,1.17.16.38-1.67-3l-1.58-3-1.94-3.92c-.36-.75-.71-1.5-1-2.27,55.19,120.7,15.78,33.26,28.32,60.1l1.69-.71,6.72-2.92c1.12-.48,2.21-1,3.36-1.45l3.45-1.31,6.86-2.69c1.12-.48,2.32-.83,3.49-1.24l3.51-1.2c2.35-.79,4.65-1.66,7-2.41A385.35,385.35,0,0,1,733.46,1627l3.89-.62c1.3-.19,2.64-.32,3.95-.49l7.93-1,2-.25,2-.18,4-.36,8.06-.75,8.2-.48,4.1-.25,2-.14,2.08,0,8.32-.26,4.16-.14h4.22a623.49,623.49,0,0,1,69.21,3.44c23.61,2.41,47.73,6.23,72.11,11s49,10.73,73.87,17.54,49.82,14.54,74.9,23l8.46,2.9c3.37,1.11,6.85,2.36,10.29,3.57,6.9,2.49,13.83,4.74,20.74,7.11l20.75,7c3.46,1.09,6.93,2,10.39,3s6.93,1.81,10.39,2.64a268,268,0,0,0,82.14,7.07q5.07-.47,10.12-1l5-.71c1.68-.24,3.36-.45,5-.78,3.35-.61,6.71-1.14,10-1.86l5-1c1.67-.34,3.32-.81,5-1.22a232.32,232.32,0,0,0,38.77-13.56,251,251,0,0,0,67.85-45.51c20.12-18.75,37.72-40.9,52.92-65.33,7.66-12.16,14.54-25,21.23-38,3.27-6.54,6.6-13,9.82-19.6q2.42-4.93,4.74-9.9l3.24-6.87q10.58-22.49,20.35-45.33c3.24-7.62,6.45-15.26,9.56-22.94,1.55-3.84,3.11-7.67,4.63-11.53l2.28-5.78,3.24-8.35,2-5.19,1.91-5.14,3.79-10.29,1.9-5.14,1.82-5.17,3.63-10.32c1.25-3.44,2.31-6.9,3.45-10.35l3.37-10.36c1.06-3.46,2-6.93,3.08-10.39s2-6.92,2.86-10.38c1.94-6.93,3.42-13.84,5-20.76,1.32-6.89,2.81-13.8,3.76-20.66,1.17-6.88,1.93-13.69,2.67-20.52.57-6.78,1.14-13.57,1.3-20.28a292.48,292.48,0,0,0-7.62-78.24,262,262,0,0,0-29-71.68,258.26,258.26,0,0,0-49-60.38,244,244,0,0,0-30.49-23.53c-5.3-3.45-10.68-6.63-16.05-9.6s-10.75-5.58-16.11-8a224.15,224.15,0,0,0-33.09-11.89c-5.82-1.61-11.86-3-18.19-4.22s-13-2.14-20-2.8-14.29-1-21.9-1c-3.81,0-7.69.11-11.61.29-2,.11-3.92.18-5.9.34l-3,.21c-1.18-.61-1.42,2.2-2.13,3.29l-1.82,4.43c-65.34,244.95-18.41,69.16-33.18,124.4-.21.73-.49,1.49-.74,2.18-.16.54-.36,1.09-.58,1.64s-.56,1.22-.66,1.52-.33.75-.53,1.13-.42.75-.5.91a7,7,0,0,1-.4.67c-.22.29-.17.25-.25.36l-.19.25.1-.12.14-.13a5.16,5.16,0,0,1,.49-.46c.2-.19.22-.16.58-.47a10.81,10.81,0,0,1,.9-.69c.34-.24.53-.32,1.06-.7s.91-.59,1.38-.85l-4.1,2.22a9.24,9.24,0,0,1,.87-.39,24.23,24.23,0,0,1,4.34-1.15c.59-.13,1.18-.23,1.75-.3l1.94-.24c.72-.08,1.42-.13,2.12-.15s1.67-.12,2.5-.14l2.65,0c1,0,1.94,0,2.9.07s2.18.07,3.24.15,2.09.2,3.41.29,2.52.23,3.77.4l4.08.53c1.43.19,2.84.43,4.26.69,1.64.24,3.27.52,4.89.83l5.17,1c1.88.38,3.74.79,5.6,1.23l6.39,1.48c2.31.54,4.1,1.06,6.81,1.73s5.3,1.36,7.93,2.1l9.09,2.55q5,1.42,9.91,3c78,23.4,21.65,6.42,39.06,11.62a.81.81,0,0,0,.07-.22.8.8,0,0,1,.09-.26,63.41,63.41,0,0,1,5.2-10.63,224.55,224.55,0,0,1,14.15-20.87c6.19-8.28,13.77-17.7,22.45-28.19s18.47-22.14,29.1-35.29c5.31-6.59,10.84-13.57,16.54-21.08q4.27-5.62,8.67-11.68c1.48-2.07,2.92-4,4.42-6.18l3.26-4.66,3.1-4.56c16.39-24.23,30.53-50,41-76.88A300.74,300.74,0,0,0,1569,836.52a282.71,282.71,0,0,0-5.89-85c-1.6-7-3.36-13.86-5.39-20.7-1.07-3.41-2.1-6.82-3.28-10.19s-2.39-6.74-3.68-10.07a296.19,296.19,0,0,0-18.42-38.78c-14.14-25-32-48.12-52.21-69.22q-3.77-4-7.67-7.82c-2.59-2.58-5.2-5.13-7.86-7.65s-5.3-5-8-7.5l-3.36-3-2.74-2.46c-7.26-6.47-14.17-12.35-20.6-17.71-12.86-10.73-24-19.7-32.91-27.23l-3.21-2.74-3-2.58-5.16-4.73-2.6-2.34-2.49-2.47-5-4.91-4.85-5.13-2.44-2.55L1365.9,499l-4.71-5.29-4.49-5.51-2.27-2.73-2.14-2.84L1348,477l-2-2.92c-.11-.16-.49-.68-.36-.51l.09.09a1.1,1.1,0,0,1,.14.21c.09.22.08.14.06.16l92.79-36.93Z"/><path class="b" d="M1365.29,253.62c2.29,2-.84,4-1.14,6-4.88.74-10.36,2.05-11.06-1.15Z"/><path class="b" d="M1059.42,584.16a146.14,146.14,0,0,1,7.87,15.11c.9,2.05,1.65,3.93,2.31,5.71s1.18,3.48,1.85,5.09a123,123,0,0,0,11.44,23.52c1.38,2.54,2.67,4.65,3.85,6.44a55,55,0,0,0,3.32,4.61,33.41,33.41,0,0,0,5.13,5.31c.37.3.72.57,1.07.83l.52.38.4.21c.53.27,1,.53,1.58.83a15.26,15.26,0,0,1,3.53,2.74,477,477,0,0,0,43.07,55.83q5.91,6.43,11.89,12.75c4.07,4.12,8.21,8.15,12.33,12.15s8.42,7.8,12.66,11.61l6.4,5.64c1.09,1,2.07,1.75,3.11,2.63l3.08,2.56c16.16,13.25,30,23.16,41.57,31.27q8.65,6.06,15.53,10.66c.26.17.61.42.8.53l.26,0a3.09,3.09,0,0,1,.53.09c.34.08.76.08,1.11.16s.76.11,1.15.18l1.19.2c-2.28,1.62-1.39,2.1-1,2.75-4.76,3.41-8.4,5.42-11.08,7.11l-.35,0a2.08,2.08,0,0,1-.35,0c-.19,0-.43,0-.63,0a.87.87,0,0,0-.28,0h-.12l-.1-.07-.88-.67-3.73-2.82-17.61-13.17c-6.53-4.89-13.67-10.25-21.41-16.24-3.86-3-7.91-6.18-12-9.5l-6.36-5.18-6.65-5.66-6.63-5.69-3.31-2.85c-1.1-1-2.16-2-3.23-2.93l-12.86-11.79c-8.33-8.07-16.74-16.13-24.73-24.6l-6.08-6.3c-2-2.1-4-4.29-5.94-6.43l-5.91-6.49c-2-2.18-4-4.31-5.89-6.55l-11.57-13.37c-2-2.22-3.78-4.56-5.69-6.83l-1.45-1.78-2.14-2.7-4.25-5.46c2.42.24,3.62-.72,4-2.53a9.93,9.93,0,0,0-.13-3.34,30.26,30.26,0,0,0-1.06-4.29c-2-6.34-5.94-15-10.09-23.68l-3.09-6.49c-.25-.54-.51-1.07-.74-1.61l-.66-1.62-1.27-3.2c-1.63-4.2-3.05-8.13-4-11.52C1055.73,588.93,1055.71,584.39,1059.42,584.16Z"/><path class="b" d="M1227,1293a20.15,20.15,0,0,1-1.85,6.21C1225.34,1298.62,1226,1296.56,1227,1293Z"/><path class="b" d="M1428.32,1006.45a137.12,137.12,0,0,1,18.12,8.69,159.8,159.8,0,0,1,19.84,13.39c3.13,2.44,6,5,8.7,7.48,1.32,1.26,2.59,2.48,3.77,3.68s2.26,2.4,3.27,3.54c4,4.59,6.58,8.52,7.15,10.9a232.59,232.59,0,0,1,18.35,15.87,191.25,191.25,0,0,1,17.39,19.17,181.29,181.29,0,0,1,16.41,24.61,184.65,184.65,0,0,1,14.22,32.37c-.38,2.68-.7,5.43-1.24,7.9a17,17,0,0,1-2.55,6.19c-.78-1.59-1.53-3.27-2.39-5l-2.77-5.25c-.94-1.8-1.9-3.66-2.9-5.57s-2.09-3.82-3.22-5.78c-4.5-7.86-9.7-16.24-15.56-24.67s-12.37-16.9-19.26-25.06-14.23-15.94-21.61-23.13-14.74-13.84-21.67-19.75-13.33-11.19-18.68-15.92-9.63-9-12.34-12.8a19.74,19.74,0,0,1-2.85-5.62A9.88,9.88,0,0,1,1428.32,1006.45Z"/><path class="b" d="M1157.41,1411.6c13.67,5.83-12.79-.52-1.2,3.68-3.25,1.91-19.15-5.47-15.87-7.77,2.55.42,6.75,2.14,10.35,3.4S1157.25,1413,1157.41,1411.6Z"/><path class="b" d="M739.09,1335.41c1.36,3.26-1,5.65-11.31,6.21C726.36,1338.37,728.69,1335.94,739.09,1335.41Z"/><path class="b" d="M821.36,1634.36c12-5.26,15.95-9.66,19-13a27.3,27.3,0,0,1,4.92-4.45,32.51,32.51,0,0,1,8.9-4c8.21-8.65,17.18-17.74,26.14-27.65,8.74-9.68,17.42-19.8,25.65-30.34a352.13,352.13,0,0,0,22.57-32.38,247.29,247.29,0,0,0,17-32.31c.56-1.29,1.11-2.59,1.64-3.88s1-2.61,1.45-3.91c.93-2.61,1.85-5.21,2.66-7.82,1.57-5.24,3.06-10.45,4.28-15.72,2.58-10.51,4.58-21.11,7-32A549.79,549.79,0,0,0,976,1292c-.12-5.71-.46-11.41-.75-17.11s-.79-11.38-1.39-17.05c-.26-2.83-.55-5.67-.91-8.49s-.65-5.66-1-8.47c-.84-5.61-1.56-11.21-2.61-16.8q-.74-4.2-1.49-8.37c-.57-2.79-1.15-5.57-1.72-8.35l-.88-4.16-1-4.15-2-8.27c-.7-2.75-1.5-5.49-2.25-8.22s-1.48-5.46-2.37-8.17c-1.73-5.42-3.37-10.81-5.37-16.14a363.91,363.91,0,0,0-35.17-72l-5.52-8.44-1.38-2.09-1.46-2.06-2.9-4.09c-3.77-5.48-7.92-10.69-11.9-15.88-1-1.31-2-2.56-3.08-3.82l-3.11-3.75q-1.56-1.86-3.09-3.72l-1.54-1.84-1.55-1.77c-2.08-2.33-4.07-4.7-6.15-7l-6.13-6.71a69,69,0,0,1,16.93,7.94,89.1,89.1,0,0,1,9,6.42,111,111,0,0,1,9.11,7.88c3,2.89,6,5.92,9,9.18s5.74,6.73,8.6,10.32,5.41,7.39,8.08,11.26c1.38,1.93,2.55,3.93,3.81,5.93l3.7,6.08a285.78,285.78,0,0,1,23.15,51.48,471.46,471.46,0,0,1,13.34,48.46c1.87,5.59,3.82,10.56,5.58,15s3.73,8.35,5.5,11.82a648.91,648.91,0,0,1,8,108c-.45,34.18-3.81,67-10.92,98.71S964,1486,947.94,1514.78s-37.18,55.36-64.32,77.51c-1.78,2.47-3.6,4.85-5.5,7.12s-3.88,4.37-5.88,6.47-4.06,4.09-6.17,6-4.22,3.91-6.41,5.8c-8.76,7.56-18,14.88-28.15,23.85-3.61,1.71-7.26,3.44-8.84,2.75C816.41,1646.21,820.11,1638.5,821.36,1634.36Z"/><path class="b" d="M918.77,1150c-1.59-2.74-3.65-6.26-5.57-10-.94-1.91-2-3.85-3-5.78s-1.89-3.87-2.71-5.73c-.41-.93-.78-1.85-1.15-2.74s-.73-1.73-1-2.55a28,28,0,0,1-1.34-4.48c-.51-2.63-.18-4.49,1.42-5-5.27-5.53-9-12.34-13.34-19.7-2.05-3.73-4.45-7.5-7-11.36a86.34,86.34,0,0,0-9-11.36c-1.86-3-4-5.87-6.19-8.81L866.6,1058c-1.11-1.48-2.29-2.85-3.45-4.29-4.64-5.72-9.78-11.24-15.18-16.7a250.35,250.35,0,0,0-36.67-29.93c-6.7-4.53-13.67-8.69-20.81-12.69s-14.46-7.62-21.92-11a388,388,0,0,0-45.73-17.24c-31-9.6-62.21-15.81-92.47-21.2S570.7,935,543.08,929.26c-1.7-3.25.24-4.44,3.33-5s7.38-.43,10.35-1.07c22.25,4.68,42.67,5.35,63.4,6.69S662.08,933.19,686,941a198.67,198.67,0,0,1,24.63,3.61A234.71,234.71,0,0,1,736,951.4a261.26,261.26,0,0,1,25.67,9.91c8.54,3.8,17,8.06,25.38,12.82s16.52,9.87,24.42,15.43S827,1001,834.28,1007.1s14.22,12.48,20.78,18.92c1.65,1.6,3.23,3.26,4.83,4.86s3.19,3.21,4.71,4.86l4.59,4.84,4.42,4.87c1.85,2.84,3.85,6.16,6.11,9.57,1.13,1.69,2.31,3.45,3.52,5.28l3.58,5.67,3.83,5.92,3.8,6.25c1.29,2.11,2.61,4.27,4,6.46l3.85,6.72c5.3,9,10.27,18.7,15.21,28.44q1.75,3.67,3.52,7.37c1.16,2.46,2.41,4.9,3.46,7.38,2.19,4.93,4.51,9.82,6.51,14.7C930.85,1153.58,923,1152.48,918.77,1150Z"/><path class="b" d="M624.73,965.79c-.18,1.28-.36,2.55-.55,3.83-28.95-1-55.38-9-81.91-9.24,5.33-4.78,21.5-3.63,30.34-6.59C592.79,958.16,609.2,958.39,624.73,965.79Z"/><path class="b" d="M534.19,924.17c.72,3.26-6.37,3.35-14.29,2.23s-16.66-3.43-19.72-4.71C511.09,919.42,521.42,924.93,534.19,924.17Z"/><path class="b" d="M423.38,904.23a36.9,36.9,0,0,1,6.21,7c1.25,1.68,2.49,3.61,3.83,5.66s2.68,4.27,4,6.61,2.46,4.81,3.59,7.33a66.13,66.13,0,0,1,3.09,7.77c.44,1.33.83,2.68,1.16,4s.62,2.74.92,4.08A43.26,43.26,0,0,1,447,955l8.85,14.06c1.47,2.39,2.9,4.82,4.44,7.21l2.26,3.64,2.33,3.64c6.22,9.74,12.84,19.73,20.34,29.54a248.14,248.14,0,0,0,25.1,28.48c2.37,2.2,4.71,4.47,7.22,6.58l3.74,3.19,3.88,3.07,2,1.52,2,1.46,4.05,2.89c2.8,1.82,5.55,3.71,8.48,5.36-2.8,1.22,1.41,5.63,7.48,9.55s13.89,7.25,17.31,7.67c0-1.22-1.06-2.05-2.49-2.7a32.86,32.86,0,0,0-4.85-1.69,11.25,11.25,0,0,1-3.82-1.61c-.7-.61-.65-1.32.72-2.26,15.67,7.45,32,13.5,47.68,16.33a121.35,121.35,0,0,0,22.48,2c1.77-.07,3.5-.15,5.2-.25s3.37-.34,5-.53a69.7,69.7,0,0,0,9.22-1.8c1.14,2-4,2.62-4.26,4.28.29.73,2.19.83,4.64.72s5.41-.67,7.86-.95c-.34.73-2.82,1.49-6.09,2.21a48.48,48.48,0,0,1-5.37.77c-.94.1-1.89.19-2.83.26s-1.86.06-2.75.06c-1.79,0-3.43,0-4.76-.13a11.86,11.86,0,0,1-2.91-.61c-1.1-.49-.27-1.08,3.75-1.91a48.82,48.82,0,0,0-8.38.61c-1.17.11-2.35.22-3.74.25a26,26,0,0,1-5-.33,36.69,36.69,0,0,1,4.28,1.22,4.14,4.14,0,0,1,1.81,1.18c.59.8.18,1.6.11,2.34-.15,1.39,1.12,3.14,14.67,2.33-.27.47-1.22.76-2.5,1a32.48,32.48,0,0,1-4.46.36c-3.15.1-6.21.24-6.37,1.25-7.58-1.66-7.46-5.12-12.14-7.59a47.05,47.05,0,0,1-6.55-.26c-1.32-.09-2.72-.34-4.2-.58s-3-.48-4.62-.81a169.89,169.89,0,0,1-19.49-5.41c-12.25-4.14-21.12-8.15-16.38-2.22a31.7,31.7,0,0,1-7.11-2.8,64.39,64.39,0,0,1-7.83-5,146.86,146.86,0,0,1-16.07-14c-2.58-2.6-5.18-5.15-7.62-7.69s-4.84-4.93-7.17-7.1a67.14,67.14,0,0,0-6.73-5.72,24.31,24.31,0,0,0-6.37-3.57c-9.15-10.43-16.78-20-23.9-29.26s-13.6-18.41-19.89-28.39c-1.54-2.51-3.09-5.06-4.63-7.69s-3-5.37-4.49-8.17l-2.28-4.25c-.79-1.42-1.43-3-2.16-4.47q-2.13-4.57-4.36-9.4c-.77-1.6-1.43-3.29-2.11-5l-2.06-5.23c-1.39-3.55-2.85-7.2-4.1-11.1s-2.66-7.89-4-12.09S424.64,908.8,423.38,904.23Z"/><path class="b" d="M661.94,1087.48c4.11-.44,8.2-.72,10.32-.09,1.06.29,1.61.75,1.39,1.51s-1.2,1.76-3.27,3c-4.44,1.22-6.72.83-7.76-.12S661.71,1089.17,661.94,1087.48Z"/><path class="b" d="M688.66,1074.36c5.77-2.94,8.32-3.3,10.57-3.36a24.07,24.07,0,0,0,3.5-.18,18.29,18.29,0,0,0,5.06-1.81,15.65,15.65,0,0,1-5.08,4.26,28,28,0,0,1-6.7,2.59,15.82,15.82,0,0,1-5.57.43C689.06,1076,688.33,1075.4,688.66,1074.36Z"/><path class="b" d="M741.51,1052.93c-.09-1.47,1.13-3,3.12-4.91a84.45,84.45,0,0,1,7.92-6.27c6.31-4.44,13.8-10.35,18.59-16.42.57,2.33-4.07,7-10.19,12.28-3.07,2.63-6.59,5.21-10,7.86S744.32,1050.71,741.51,1052.93Z"/><path class="b" d="M791,1007.58c2.12-3.38,3.26-6.28,5.3-9.59.5-.82,1.07-1.68,1.72-2.57s1.37-1.85,2.14-2.78,1.47-1.78,2.35-2.71,1.81-1.85,2.93-2.87a15.27,15.27,0,0,1-1.06,3.73c-.27.66-.6,1.34-1,2-.19.36-.37.7-.61,1.09s-.55.84-.85,1.28c-.59.84-1.32,1.81-2.11,2.78s-1.64,2-2.56,3Q794.54,1004.08,791,1007.58Z"/><path class="b" d="M1024.54,643.48c-2.51-8.27-4.38-15.05-5.49-20.41a42.55,42.55,0,0,1-.85-7.08,14.07,14.07,0,0,1,.59-5c.45,2.44,1.4,5.45,2.34,8.74s2.12,6.72,2.95,10C1025.71,636.31,1026.64,642,1024.54,643.48Z"/><path class="b" d="M627.33,865.92c-.65-3.93-.71-7.74-1.28-10.66a7.9,7.9,0,0,0-5-6.52c0-.87.07-1.74.15-2.6l.12-1.29c.05-.44.1-.77.13-1.52s.05-1.28,0-1.91l0-.95a1.6,1.6,0,0,0,0-.17l0-.35-.1-.72-.21-1.42q-.83-5.82-1.66-11.73c-2.37-16.28-5.27-35.27-10.28-56.54l-.92-3.95-1.08-4.13-2.2-8.25c-.7-2.7-1.65-5.65-2.51-8.48s-1.8-5.7-2.69-8.54-2.07-5.87-3.12-8.79-2.11-5.81-3.29-8.77-2.49-6-3.76-8.94l-1.92-4.43-.49-1.11-.24-.55-.29-.63-1.34-2.83A242.15,242.15,0,0,0,573,677.46c-2.44-3.88-4.83-7.63-7.67-11.6L563.21,663l-1-1.45L561,660q-2.31-3-4.65-5.94l-1.18-1.47-1.29-1.52-2.61-3-2.65-3-1.34-1.48L545.86,642q-3-3.09-6-6.07l-1.52-1.48-1.68-1.56-3.4-3.06-3.44-3-1.73-1.47-1.92-1.54q-3.85-3.06-7.8-6l-2-1.44L514.2,615c-1.46-1-2.92-2-4.4-2.89s-3-1.88-4.45-2.79c-.76-.46-1.44-.89-2.28-1.36l-2.46-1.38c-2.19-1.46-4.43-2.89-6.7-4.29s-4.52-2.74-7.15-4.08-5.15-2.62-7.78-3.86-5.22-2.43-8.16-3.53-5.79-2.17-8.73-3.17-5.87-1.94-9-2.72-6.27-1.55-9.44-2.22S437.25,581.4,434,581s-6.51-.81-9.79-1.1-6.59-.53-9.81-.57a169.47,169.47,0,0,0-19.59.65,171.8,171.8,0,0,0-37.9,7.89,180.72,180.72,0,0,0-31.72,14A200.47,200.47,0,0,0,301,617.76c-13.83,10.63-23.75,20.55-32.18,29.08a309.88,309.88,0,0,0-23.66,27.35c-1.56,2-3,4-4.43,5.82l-3.88,5.26c-1.26,1.69-2.51,3.45-3.75,5.22s-2.48,3.52-3.72,5.35a373,373,0,0,0-28.16,48.64c-1.09,2.31-2.18,4.56-3.25,6.95l-3.16,7.18-3.07,7.47c-1,2.51-2,5.16-3,7.75a300.6,300.6,0,0,0-10.34,34.24,266.24,266.24,0,0,0-6.41,40.71,233.9,233.9,0,0,0,1.21,48.35,213.67,213.67,0,0,0,14,53.17,204.82,204.82,0,0,0,28.33,48.81c1.42,1.82,2.79,3.59,4.31,5.4s3.08,3.59,4.65,5.36,3.14,3.42,4.74,5.09,3.21,3.36,4.81,4.86,3.21,3.06,4.84,4.56,3.23,2.86,4.86,4.27c3.28,2.86,6.45,5.32,9.71,7.84,1.61,1.22,3.18,2.34,4.78,3.5l2.41,1.7,2.35,1.59,4.71,3.11,4.59,2.83,2.31,1.38,2.23,1.28,4.48,2.51c2.87,1.51,5.86,3.11,8.62,4.43,5.7,2.81,11,5.09,16.18,7.21,2.51,1,5.09,2,7.47,2.89,1.2.44,2.45.91,3.61,1.32l3.49,1.21c8.91,3,17.6,5.58,26.25,7.81a460.87,460.87,0,0,0,50.29,10.18c9.22,2.47,18.32,4.74,27.29,6.72,38,4.65,73.26,2.1,109.85,3.65,18.85.79,37.76,2.17,56.2,4.29a511.17,511.17,0,0,1,53.11,8.77,300.81,300.81,0,0,1,45.48,13.74A176.61,176.61,0,0,1,723,1144.19a8.36,8.36,0,0,0-1,2.77c0,.87.5,1.72,2.3,2.45A84.88,84.88,0,0,1,742.77,1171l1.7,2.91c.45,1,.92,1.91,1.38,2.83l.72,1.37c.23.47.42,1,.64,1.48.42,1,.85,2,1.3,2.91s.78,2.06,1.2,3l.61,1.52.31.74.27.81c.7,2.2,1.56,4.16,2.2,6.47.34,1.12.71,2.2,1.08,3.3s.63,2.34,1,3.49l.53,1.71c.17.57.3,1.2.46,1.8.31,1.21.63,2.41,1,3.59s.59,2.5.9,3.73l.48,1.86.24.93.2,1c.54,2.63,1.23,5.11,1.73,7.86.29,1.34.58,2.68.88,4s.52,2.79.81,4.17l.44,2.07.38,2.16q.39,2.15.84,4.29c1,5.89,2.2,11.83,3.19,18.16.6,3,1.21,6.11,2,9.11.41,1.5.71,3,1.09,4.49l.53,2.25c.17.75.3,1.5.44,2.26,1.19,6,1.54,12.15-.39,18.36,4.66,13,6.06,30,6.18,46.16-3.93,14.53-8.33,32.87-13.42,49.73-2.5,8.46-5,16.63-7.33,24.14s-4.32,14.39-5.58,20.44c-.76.66-1.48,1.33-2.16,2s-1.4,1.32-2.05,2-1.28,1.38-1.88,2.1-1.23,1.37-1.82,2.08-1.14,1.43-1.68,2.16-1.13,1.41-1.67,2.14-1.07,1.47-1.58,2.22-1,1.32-1.48,2c-3.82,5.43-8,11.23-13.83,16l-1.52,1.26c-.5.42-1.05.79-1.58,1.2-1.07.79-2.12,1.63-3.21,2.42l-3.35,2.33c-1.09.83-2.31,1.49-3.45,2.27a139.18,139.18,0,0,1-14.8,8.31,153.26,153.26,0,0,1-16.07,6.74,157.85,157.85,0,0,1-16.87,4.78,129.71,129.71,0,0,1-33.68,2.92,102.86,102.86,0,0,1-29.94-6.09c-1.14-.44-2.23-.94-3.36-1.37l-.83-.32-.47-.2-.1-.05-.05,0h0c-.05.1.11-.21-.1.22l-.5,1q-2,4.2-4.11,8.35l-3.46,6.91c-1.07,2.1-2.16,4.2-3.28,6.28l-1.35,2.59L579.2,1521l-2.66,4.79c-.73,1.34-1.48,2.66-2.24,4-1.69,2.82-2.79,4.77-4.18,7l-1,1.58-.84,1.35q-.85,1.35-1.77,2.67l-.46.66-.38.56-.76,1.12c-.52.74-1.06,1.47-1.61,2.19s-.9,1.25-1.37,1.86l-1.4,1.75a63.24,63.24,0,0,1-4.57,5.12c-.32.32-.65.64-1,1s-.53.5-.81.74l-.81.68c-.2.18-.42.36-.64.53l-.6.44c-.15.12-.32.23-.49.34l-.13.08,3.67-2.38-.1.07-.39.27c-.26.17-.53.34-.81.5l-1.52.81c-.2.1-.41.21-.63.3l-.63.26a5.89,5.89,0,0,1-.82.31l-.44.13-.2,0,.09,0h.08l.17,0a4.42,4.42,0,0,1,.62,0,6.81,6.81,0,0,1,1.11,0,29.1,29.1,0,0,1,7.5,1.51,58.8,58.8,0,0,1,11.27,4.84c2.21,1.09,4.13,2.34,6.37,3.7,2.06,1.37,4.33,2.83,6.39,4.41a144.36,144.36,0,0,1,12.3,10.14c1.9,1.83,3.75,3.48,5.47,5.3.85.87,1.68,1.68,2.48,2.55l2.3,2.49c.73.79,1.44,1.59,2.12,2.39l1.86,2.17c1.25,1.53,2.15,2.61,3.07,3.83l1,1.35s0,0,0,0,0-.06.08-.07.14-.11.16-.16h0l-.07-.12-.24-.44-1.1-2.08c-.42-.81-.84-1.64-1.24-2.49s-1-2.07-1.53-3.12l-.72-1.61c-1.06-2.27,8.7,18.92,4.62,9.94l.09,0,.17-.08.35-.15,1.38-.61,2.77-1.22,5.51-2.44c3.62-1.72,7.41-3.07,11.09-4.58l5.54-2.23c1.84-.73,3.74-1.33,5.6-2l5.58-2c1.86-.65,3.68-1.38,5.58-1.92l11.19-3.54,1.38-.45,1.42-.39,2.81-.77,5.59-1.56c1.86-.5,3.69-1.07,5.56-1.53l5.6-1.35,5.55-1.35,2.75-.68,2.79-.58a43.79,43.79,0,0,1,7.3-3.72,47.09,47.09,0,0,1,7.27-2.28c2.48-.59,5-1.14,7.72-1.82,1.34-.34,2.73-.72,4.16-1.16s3-.82,4.51-1.35c2.22.12,4.56.18,7,.18s4.93-.1,7.58-.07,5.36-.09,8.14-.21,5.64-.31,8.6-.38c5.9-.17,12-.72,18.3-.94q4.73-.24,9.53-.58l9.7-.48,4.87-.29c1.62-.11,3.24-.22,4.88-.26,3.26-.13,6.51-.29,9.73-.47l4.81-.28,4.8-.17c3.17-.13,6.31-.27,9.38-.44s6.12-.22,9.08-.36,5.85-.24,8.65-.39c5.61-.25,10.89-.39,15.66-.68,1.3.53,2.65,1,4.07,1.47s2.89.95,4.42,1.37q4.57,1.29,9.73,2.27c3.42.65,7,1.4,10.76,2l5.68.92,2.91.44,2.95.5c15.8,2.5,33.1,5.48,48.94,10.41,6.21,2,12.18,4.31,17.95,6.61s11.36,4.71,16.79,6.76a111.85,111.85,0,0,0,16,5.11,54.76,54.76,0,0,0,15.54,1.65l10.59,3.45,10.72,3.34q5.38,1.71,10.84,3.36l5.46,1.64,5.49,1.71,11,3.37,11.14,3.5c3.73,1.18,7.47,2.33,11.22,3.58l7.79,2.61c3.22,1,6.52,2.19,9.8,3.34l19.8,6.75,9.94,3.42c1.66.56,3.32,1.17,5,1.7l5,1.54a329,329,0,0,0,40.3,9.73c6.76,1.1,13.56,2.11,20.39,2.65s13.71.93,20.63.94a209.31,209.31,0,0,0,41.85-4.38,200.41,200.41,0,0,0,64.62-26.39,224.38,224.38,0,0,0,54.57-48.62q7.35-10.86,14-22.14,3.32-5.64,6.48-11.36,1.61-2.85,3.1-5.76l3-5.8,3-5.77c1-1.94,2-3.91,2.92-5.85q2.92-5.87,5.84-11.7t5.69-11.78l4.14-8.79c9.29-19.88,18.05-40.17,25.41-62-1.19-1.1-3.61-.81-2.22-4.79a92.82,92.82,0,0,0,4.29-9.81q1-2.65,2-5.49c.32-.94.64-1.89.94-2.86.16-.49.31-1,.46-1.47l.78-2.3c.53-1.58,1-3.18,1.58-4.79s1-3.14,1.5-4.74c1-3.19,1.94-6.43,2.94-9.71,2-6.53,3.81-13.26,5.74-20,1-3.38,1.79-6.8,2.72-10.21s1.88-6.83,2.68-10.26,1.77-6.84,2.58-10.26,1.63-6.82,2.48-10.21c3.2-13.57,6.08-26.87,9.15-39.63a242.82,242.82,0,0,0-4.71-57.35,251,251,0,0,0-17.81-54.89c-2.12-4.61-4.43-9.23-7-13.86s-5.24-9.29-8.22-13.94a231.64,231.64,0,0,0-20.75-27.79,203.51,203.51,0,0,0-27.67-26.46,167.8,167.8,0,0,0-35.56-21.68c-25.18-3.32-56.18-4.79-101.12-3.15l-4.14.1-2.08,0h-.52c-.17,0-.37-.07-.47.18l-.77,1-1.52,2-.38.51-.1.12,0,.07c10.24-38.55-14,52.58-11.52,43.22l-.06.26c-.08.35-.17.7-.27,1.06-.19.7-.42,1.4-.67,2.1l-.2.53-.12.4-.28.79a21.26,21.26,0,0,1-2.6,5.23,15.74,15.74,0,0,1,2.26-1.84l.44-.27.65-.45c.44-.29.88-.55,1.32-.79l.67-.35.17-.08c-10.39,5.57-2.87,1.54-5.19,2.79h0l.08,0,.3-.13.53-.23.65-.23c.33-.12.65-.22,1-.31l.47-.11.64-.18c.44-.11.87-.2,1.3-.27l.76-.15.83-.14.82-.11c.27,0,.51,0,.88-.11.67-.09,1.34-.16,2-.2a110.33,110.33,0,0,1,23.34,1.23c1.3.18,2.59.38,3.87.61l1.05.18,1.11.17,2.21.39,2.19.42,1.08.22.55.12.62.12q2.55.48,5,1l1.14.26h0s0,0,0,0l0-.12,0-.06v-.13l0-.25c0-.17,0-.47,0-.7.08-.43.15-.85.23-1.26.16-.87.24-1.73.44-2.6s.31-1.74.46-2.61.34-1.75.49-2.61a178.92,178.92,0,0,1,10-16.75c2.14-3.14,4.49-6.41,7-9.73s5.33-6.7,8.28-10a204.59,204.59,0,0,1,18.85-18.86,106.87,106.87,0,0,1,18.75-13.48c7.36-7.8,15-15.5,23.12-24.46a346.52,346.52,0,0,0,26.7-32.94c1.77-1.75,3.44-3.23,5.07-4.58l2.41-1.94,2.42-2c.8-.67,1.62-1.37,2.45-2.11.42-.37.84-.77,1.27-1.19l.65-.63.38-.41.43-.48a98.21,98.21,0,0,0,7.07-8.9c2.34-7.29,7.06-16.86,12.9-28.72a213.79,213.79,0,0,0,29.19-58.36,205.57,205.57,0,0,0,8-36c.46-3.13.69-6.29,1-9.47s.39-6.37.53-9.58c.15-6.43.1-12.91-.35-19.4a203.42,203.42,0,0,0-6.38-38.65,197.34,197.34,0,0,0-13.49-36.57c-11.18-23.24-26.37-43.6-42.38-60.27-1.43-5.49-7.55-12-14.09-18.3s-13.36-12.43-16.11-18.38l-2.77-2.32-2.18-1.76-4.32-3.39c-1.44-1.15-2.86-2.22-4.27-3.29s-2.86-2.18-4.24-3.2c-5.64-4.22-11.09-8.09-16.43-11.86s-10.47-7.27-15.44-10.68L1352.5,579c-2.27-1.58-4.4-3.08-6.51-4.6l-6-4.46c-4.09-2.89-7.93-6.15-11.88-9.31-1-.81-2-1.57-2.93-2.42l-2.85-2.52-5.71-5.07c-1.89-1.7-3.67-3.53-5.52-5.3s-3.69-3.55-5.45-5.41a254.29,254.29,0,0,1-20-23.43c-.83-1.14-1.57-2-2.48-3.22s-1.63-2.39-2.42-3.59a81.7,81.7,0,0,1-4.37-7.41l-1-1.89-.89-1.92c-.58-1.29-1.14-2.57-1.66-3.85a77.84,77.84,0,0,1-2.58-7.73,62.31,62.31,0,0,1-1.44-7.64c-.13-1.26-.22-2.5-.26-3.71a26.81,26.81,0,0,1,.06-3.59c3.93-1.45,7.29-2.88,10.55-4.14a64.15,64.15,0,0,1,9.67-3c6.66-1.47,14-1.34,24.64,1a27.13,27.13,0,0,0,3.62-1c1.23-.3,2.87-.32,5.77.56,5.07,2.07,6.42,2,9.85,3.3a35.65,35.65,0,0,1,7.13,2.13,30.25,30.25,0,0,1,4.88,2.49c2,1.29,1.17,1.53-1.36-2.6a68.24,68.24,0,0,1-4.8-8.26c-1.43-2.84-2.68-5.77-4-8.7a58.2,58.2,0,0,0-4.61-8.65,26.87,26.87,0,0,0-7.64-7.67,129,129,0,0,0-12.35-17.15c-4.58-5.51-9.48-10.7-13-15.76s-5.46-10-3.54-15.37a21.29,21.29,0,0,1,6.07-8.32,51,51,0,0,1,5.73-4.43l.85-.57.44-.29.66-.37,2.92-1.57c2-1.06,4.11-2.14,6.35-3.24,7.08-15.61,17-27.67,4.89-40.82-10.49.1-19.14-1.63-28.89-2.8a120.79,120.79,0,0,0-15.84-1,125.48,125.48,0,0,0-20.67,2.05c4.68-4.5-1.3-3-3.42-5.57-7.22,2.32-15.84,5.95-23.28,8.46s-13.82,3.92-16.73,1.91a142.55,142.55,0,0,0,21.46-9.3,109.67,109.67,0,0,0,13.58-8.88c4-2.95,7.66-5.92,12.16-9,2.24-1.53,4.69-3.07,7.45-4.64q2.07-1.19,4.39-2.38l2.4-1.2,2.36-1.14c22.61-22.08,4.8-36.65,20.81-54.09,8.54-1.63,10.23-1,18.74-6.07,2-10.08-10.5-7.92,2.94-19.23-7.4-2.69-15,1.14-26.27,4.92-7.08-4.61-18.85-4.82-32.47-3.28-3.41.38-6.93.88-10.52,1.44l-2.71.43-1.36.22-.34.06a3.27,3.27,0,0,0-.42.09l-1.12.28-9,2.35-36.9,9.78c-16.92,6.71-33.26,12.91-49.24,18.76-8,2.89-15.84,5.84-23.2,9-1.86.79-3.69,1.58-5.47,2.41s-3.6,1.62-5.31,2.47-3.48,1.67-5.18,2.53l-5,2.6c-1.69.84-3.25,1.75-4.84,2.63l-4.73,2.67c-3,1.84-6,3.64-8.92,5.48l-8.37,5.59-7.76,5.66c-10,7.66-18.61,14.95-26.41,24l-3,3.4c-1,1.19-1.91,2.36-2.84,3.62-1.87,2.46-3.67,5.08-5.41,7.8a119.07,119.07,0,0,0-9,17.37,134,134,0,0,0-6.07,18,147.31,147.31,0,0,0-3.57,18c-.43,3-.72,6.06-1,9.13a22.41,22.41,0,0,0-.1,2.34l0,2.38c0,1.58,0,3.17,0,4.77,0,3.19,0,6.4,0,9.62s-.18,6.4.44,9.86q1.3,10.19,2.84,20.62a24.77,24.77,0,0,0,.45,2.62l.7,2.68,1.44,5.38,3,10.86c-1,.38-1.62,1.39-2,2.91a14.66,14.66,0,0,0-.4,2.66c0,.51-.06,1-.07,1.6s.09,1.15.16,1.76a114.82,114.82,0,0,0,4.22,18.6c.53,1.79,1.1,3.62,1.7,5.46l.45,1.39.54,1.4c.36.93.73,1.87,1.1,2.8,1.49,3.76,3.08,7.53,4.69,11.21s3.27,7.25,4.89,10.6,3.56,6.45,5.21,9.23c.53,5.21-1.62,6.73-3.1,9.2a9,9,0,0,0-1.28,5.07,21.61,21.61,0,0,0,.56,4.24c.18.83.42,1.75.71,2.74s.75,2,1.23,3.2c5.5,7.07,6.18,5.4,5.94,1.87-.11-1.76-.46-4-.58-5.88s.16-3.44,1-3.81c1.36,2.4,3.22,5.13,5.06,8.18s3.86,6.37,5.91,9.88l6.29,11c2.31,3.7,4.61,7.48,6.84,11.24s4.4,7.5,6.43,11.12l1.51,2.68,1.58,2.58c1,1.69,2,3.35,3,5a112.54,112.54,0,0,1,8.1,16c1.68,1.92,3.44,4,5.3,6.07s3.86,4.49,5.9,6.87l3.1,3.63,2.24,2.53c1.52,1.71,3,3.52,4.63,5.3,3.21,3.59,6.51,7.4,9.87,11.32l2.53,3,2.64,2.94,5.35,6,5.41,6c1.81,2,3.74,3.91,5.61,5.85,3.79,3.86,7.53,7.7,11.36,11.3,7.78,7.12,15.39,13.72,23,18.71a89.54,89.54,0,0,0,5.7,10.55,140.45,140.45,0,0,0,8.65,11.62c.84,1,1.72,2.06,2.62,3.11s1.86,2.15,2.77,3.13c1.85,2,3.88,4.15,5.89,6.15l3.16,3.09,3.24,3,1.69,1.54,1.68,1.51,3.49,3c3.22-3.27,9.14-2,14.46-1.47,6.72,4.32,12.44,8.27,17.4,12a152.67,152.67,0,0,1,12.69,10.64c.91.84,1.77,1.69,2.51,2.45a8.34,8.34,0,0,1,.72.94c.22.32.47.63.68.95s.4.67.61,1a31.53,31.53,0,0,1,2,4c1.1,2.7,1.89,5.3,3.12,7.83a35.49,35.49,0,0,0,5.74,8.18,22.81,22.81,0,0,0-3,7.23c-.64,2.55-1.23,5.26-2.09,8-5.05,2.49-9.43,4.24-13,5.77-.23.09-.44.19-.64.29s-.25.15-.29.1l-.16-.09h0l-.1.12-.22.23-.42.45-.9,1-1.8,1.95c-2.5,2.7-5.08,5.56-7.89,8.67l-8.82,9.9-4.71,5.38-4.93,5.71a692.17,692.17,0,0,0-44.09,56.46c-7.68,11.08-15.39,23.18-22.7,36.19-3.66,6.53-7.22,13.33-10.62,20.32q-1.27,2.67-2.52,5.33c-.83,1.77-1.65,3.56-2.46,5.4s-1.59,3.65-2.38,5.47-1.53,3.74-2.3,5.6c-7,6.48-13.34,15.4-18.87,26.31-1.36,2.77-2.71,5.56-4,8.53s-2.49,6-3.63,9.19c-.56,1.6-1.11,3.22-1.67,4.84s-1,3-1.71,5.31c-1.22,4-2.49,8.83-3.65,14-.6,2.75-1.15,5.32-1.69,8.39-.27,1.5-.52,2.93-.76,4.51l-.69,4.86c-.22,1.57-.42,3.38-.6,5.14l-.26,2.66c-.08.89-.16,1.73-.23,2.72-.27,3.88-.48,7.57-.51,11.89v4.7l0,1.69q.09,3.39.29,6.77l.1,1.71.15,1.82.33,3.64c.25,2.44.51,4.77.91,7.43s.81,5.16,1.28,7.72,1.12,5.41,1.75,8.09c.32,1.35.66,2.7,1,4s.78,2.8,1.19,4.2c.83,2.8,1.7,5.56,2.66,8.34s2.11,5.68,3.25,8.48c.58,1.41,1.14,2.78,1.78,4.19s1.29,2.82,1.95,4.21,1.35,2.78,2.05,4.16l1.06,2.06.54,1,.5.91q2,3.59,4.12,7.1l2.16,3.48,1.1,1.72c.36.57.81,1.21,1.21,1.8,1.66,2.43,3.38,4.81,5.13,7.15a167.1,167.1,0,0,0,11.66,13.87c1,1.12,2.07,2.21,3.17,3.31s2.23,2.19,3.36,3.27c2.25,2.15,4.56,4.24,6.9,6.26,4.69,4,9.62,7.74,14.58,11.18q3.67,2.47,7.43,4.78c2.49,1.51,5.09,3.06,7.46,4.32s4.87,2.56,7.32,3.77c1.23.59,2.47,1.19,3.69,1.75l3.45,1.53q2.74,1.19,5.54,2.29c1.84.73,3.78,1.48,5.43,2,3.42,1.21,6.94,2.35,10.37,3.37l3,1,.37.12.19,0s0,0,0,0l0,.08.1.15c.27.39.53.77.75,1.14a11.68,11.68,0,0,1,1.07,2.2,15.09,15.09,0,0,1,.75,4.17c.1,1.25.14,2.33.69,2.78s1.68.28,4.09-.51c.29.32,3.67-2.75,4.24-2.59.37,1.9,1.76,3.28,2.8,5.15a8.37,8.37,0,0,1,1.13,6.35c-.42,1.62-2.25,3.12-3.66,4.29a7.69,7.69,0,0,0-1.7,1.75,2.22,2.22,0,0,0-.34,1,.18.18,0,0,0,0,.11l0,.06c0-.06,0,.19-.1.36l-.17.54c-.46,1.45-.92,2.91-1.34,4.38-7.85,27.34-11.72,48.93-8.74,69.24-.62,1.25-1.2,2.54-1.73,3.86l-.39,1c-.12.33-.27.72-.3.85a2.53,2.53,0,0,0-.13.77,10,10,0,0,0,.38,2.73c.42,2,1.09,4.37,1.47,6.8a15.78,15.78,0,0,1-.11,6.81,4.07,4.07,0,0,1-4.09,3.24c.28,2.32,3.09,5.33,1.22,7.37-1,1.84-2.37-.08-3.51-.15,3,4.41,3,2.52,4.68,7.15,1.34-3.35,2.3-5.52,3-7.8a18.11,18.11,0,0,0,.4-8.3c1-.83,2.35-.35,2.89-2.54a91.83,91.83,0,0,0-1.62-10.51c-.22-.85-.42-1.66-.58-2.44l-.12-.58a1.5,1.5,0,0,0-.06-.29,2.82,2.82,0,0,1,0-.49,3.34,3.34,0,0,1,.13-.72l.18-.84.37-1.69q1.51-6.75,3.07-13.74c4.17-18.59,8.76-38.2,14.28-58.65l.49-1.84.13-.46.07-.24s0,0,0,0l-.06-.13a1.85,1.85,0,0,1-.11-.61c0-.5,0-1,0-1.44a15,15,0,0,1,.4-2.65c.42-1.69,1.07-3.31,1.52-4.91a7.69,7.69,0,0,0,.26-4.46c-.44-1.29-1.57-2.3-3.82-2.58.56-1.14,5.84-2.52,7.28-4-2.58-.44-2.27-1.72-1.73-3.49s1.22-3.94-.45-4.87c-1.18-.63-3.67-.1-6,.64-1.17.36-2.3.75-3.26,1a4.19,4.19,0,0,1-2.2.21c-1.94-.7-2.5-2.36-3.53-3.65a5,5,0,0,0-2-1.6,8,8,0,0,0-3.4-.53,7,7,0,0,0-.28-2.55,5.44,5.44,0,0,0-.41-1,2.87,2.87,0,0,0-.28-.43l-2.9-1-.37-.13-.85-.27-2.55-.8c-1.7-.55-3.41-1.11-5.11-1.71-3.27-1.1-7.16-2.64-10.79-4.18l-2.76-1.18c-.93-.42-1.78-.79-2.79-1.27q-2.93-1.39-5.82-2.88c-1.93-1-3.84-2-5.74-3.07s-4-2.32-5.9-3.54-3.87-2.46-5.78-3.74-3.84-2.72-5.72-4.13c-3.78-2.85-7.46-5.78-10.94-9-1.74-1.58-3.46-3.19-5.14-4.82l-2.49-2.48c-.81-.83-1.57-1.65-2.35-2.49-3.06-3.33-6.06-6.8-8.77-10.24s-5.05-6.77-7.36-10.22c-1.21-1.77-2.15-3.33-3.15-5s-1.93-3.25-2.85-4.88-1.8-3.25-2.68-4.91c-.94-1.84-1.84-3.69-2.7-5.53s-1.69-3.68-2.48-5.51-1.45-3.6-2.13-5.39a145.71,145.71,0,0,1-8.81-37.13c-.12-1.25-.26-2.58-.33-3.69s-.12-2.26-.18-3.35c-.08-2.18-.14-4.31-.12-6.21s.11-3.55.21-5.16c.06-.81.12-1.58.17-2.33s.14-1.47.23-2.09c.69-5.08,1.69-8.41,2.81-9.32.8,6.87.8,16,2.06,28.44.35,3.17.78,6.48,1.28,9.83s1.26,7.18,2.05,10.83c.86,3.81,1.91,7.75,3.06,11.66s2.67,8.1,4.28,12.16q1.26,3.07,2.64,6.14l1.41,3,.73,1.52.68,1.34c1.81,3.56,3.76,7.07,5.82,10.49a136.26,136.26,0,0,0,15.57,20.73c1.49,1.64,2.94,3.21,4.53,4.76s3.19,3.06,4.82,4.51,3.26,2.86,4.91,4.21,3.34,2.59,5,3.8,3.37,2.37,5,3.47c.85.55,1.69,1.09,2.53,1.61s1.65,1,2.48,1.45c3.29,1.86,6.56,3.5,9.75,4.92-4.07-2.5-8.09-5.13-12.06-8s-7.93-6.13-11.61-9.45-7.2-6.84-10.38-10.33-6-7-8.6-10.47c-2.45-3.35-4.62-6.64-6.55-9.79l-1.4-2.33c-.45-.76-.8-1.45-1.19-2.16-.74-1.4-1.44-2.76-2.07-4.07-1.27-2.64-2.3-5-3.13-7.19a52.43,52.43,0,0,1-2-6.14c.7,1.3,1.41,2.59,2.14,3.85l1.1,1.89,1,1.65c1.38,2.18,2.8,4.31,4.24,6.38.73,1,1.45,2.06,2.19,3.06s1.6,2.13,2.41,3.16c1.65,2.09,3.34,4.13,5,6.1s3.54,4,5.43,5.87,3.8,3.78,5.73,5.57a154.73,154.73,0,0,0,12.28,10,151.74,151.74,0,0,0,12.78,8.2q3.18,1.76,6.37,3.35c2.13,1.07,4.29,2.1,6.29,2.93a128.84,128.84,0,0,0,23.23,7.5q2.61.56,5.2,1l2.58.45.33.06h.13l.21,0,.44,0,1.73-.17.87-.08.21,0c.08,0,.14,0,.15,0l.12-.12,2.11-2c1.44-1.37,3-2.83,4.61-4.31a95.35,95.35,0,0,1,11.16-8.91,50.22,50.22,0,0,1,14.61-7,42.55,42.55,0,0,1,10.75,1.76,77,77,0,0,1,9.41,3.53c2.95,1.3,5.71,2.65,8.37,4s5.26,2.65,7.76,4a60.69,60.69,0,0,1,4.11,21.48,96,96,0,0,1-2.53,22.62,227.2,227.2,0,0,1-6.48,22.2q-1.87,5.5-3.77,11.07-1,2.77-1.91,5.57l-.93,2.7-2.06,5.58c-5.51,14.89-11.21,29.71-17,44.31q-4.35,10.95-8.81,21.72l-2.15,5.21-.58,1.48-.52,1.41c-.66,1.89-1.35,3.78-2,5.67-2.77,7.55-5.62,15.19-9.14,22.48a87.59,87.59,0,0,1-12.84,20.11,77.89,77.89,0,0,1-20,5.2,103.5,103.5,0,0,1-22.28-.16,46.34,46.34,0,0,0-17.34-12.78c-1.65-.71-3.36-1.35-5.12-1.94-.88-.29-1.78-.56-2.69-.82s-1.9-.56-2.88-.8l-6-1.78c-2-.61-4.15-1.16-6.24-1.74l-12.62-3.36c-4.21-1.1-8.47-2.11-12.67-3.15s-8.35-2.09-12.49-3.06c-8.27-1.93-16.2-4-23.73-5.89s-14.45-4-20.71-6.08a100.94,100.94,0,0,1-16.11-6.86c-5.18,2.08-12.4,2.31-20.65,1.48s-17.5-2.83-26.75-5.19c-18.38-5-36.69-11.67-45.35-16.66-2.15,1.9-5.44,2.73-9.48,3a62.16,62.16,0,0,1-13.82-1.08c-5-.91-10.34-2-15.48-3.38s-10.06-2.82-14.39-4c.17-1.92,15.5-2.14.48-3.85-7-1.21-7.27.89-11,1.3-6.1-3.65-14.43-6.47-17-10.86a54.31,54.31,0,0,0-14.53-.65,61.57,61.57,0,0,1-14.58-.41c3.81-2.3,6.65-5.05,15-5.38a69.9,69.9,0,0,1,11.94.7,47.24,47.24,0,0,1,7.78,1.83c2.16.72,4,1.51,6,2.27a51.32,51.32,0,0,0,6.55,2.24c-.08-3.26-6.45-4.83,4.18-4.7,1,2.14,2.93,3.25,5.43,3.86a50.22,50.22,0,0,0,8.75.83c6.37.28,13.34.54,17.41,4.73-6.66-.75-12-.84-14.62.55,7,.43,14.81.81,22.27,1.41s14.78,1,20.89,1.48c-3.76-.63-8.85-2.22-3.29-1.91a567.57,567.57,0,0,0-91.87-19.41,588,588,0,0,0-92.93-4.29,618.65,618.65,0,0,0-94.42,10.41l-6,1.09c-2,.39-4,.84-6,1.26l-12,2.61c-2,.45-4,.83-6,1.35l-6,1.52-12,3.06c-2,.49-4,1.07-6,1.66l-6,1.75-12.06,3.53-12.07,4-6.05,2c-2,.67-4,1.32-6,2.08-4-.29-9.53.55-15.71,1.89-1.54.34-3.12.71-4.74,1.1s-3.22.9-4.86,1.37l-9.91,2.93-6.65,3.23c-2.17,1.07-4.26,2.21-6.33,3.28l-11.81,6.23-6.92,3.72c-1.52.82-2.93,1.64-4.33,2.46s-2.77,1.64-4.07,2.47a146,146,0,0,0-14.1,10,102.8,102.8,0,0,0-19.64,20.2c-4.72,6.66-7.64,13.23-8.38,19A192.89,192.89,0,0,1,493,1449.64a203.64,203.64,0,0,1,21.22-14.9c1.84-1.13,3.71-2.25,5.63-3.33s3.86-2.15,5.85-3.2,4.12-2.09,6.12-3.08l3.9-1.84,16.16-7.57c5.62-2.43,11.49-4.86,17.65-7.4,1.55-.63,3.1-1.3,4.7-1.9l4.85-1.79,10.13-3.67,5.29-1.88,5.48-1.74,11.5-3.56c3.94-1.26,8-2.33,12.28-3.44l13.13-3.39a91.79,91.79,0,0,1,20.66,1.67,26.63,26.63,0,0,1,7.39,2.74,14.29,14.29,0,0,1,4.86,4.25c-27.91,7.94-57.22,14.71-85.93,23.73a435.45,435.45,0,0,0-42,15.39l-2.55,1.07-1.27.54-.63.28-.32.14-.49.22-3.83,1.81-3.71,1.89c-4.86,2.55-9.48,5.26-13.91,8.17s-8.68,6-12.81,9.37a158.13,158.13,0,0,0-12,10.88,80.75,80.75,0,0,0-5.66,6.38c-1.6,2-3,3.94-4.36,5.86l-9.54,13.82A124.72,124.72,0,0,0,454.52,1528a107.86,107.86,0,0,0-4.39,20.84,103.19,103.19,0,0,0,0,22.5,109.68,109.68,0,0,0,1.87,11.07,98.16,98.16,0,0,0,2.95,10.43q.85,2.51,1.8,5c.63,1.59,1.3,3.09,2,4.61s1.4,3,2.12,4.47,1.48,2.73,2.24,4.07,1.53,2.66,2.33,4,1.76,2.7,2.66,4,1.83,2.56,2.76,3.79,1.89,2.46,2.82,3.56a112.43,112.43,0,0,0,11.35,11.8l2.76,2.42c.9.76,1.77,1.47,2.67,2.19l1.33,1.06,1.28,1,2.55,1.89c1.62,1.16,3.3,2.34,4.81,3.33.77.5,1.58,1,2.31,1.49l2.2,1.38c2.86,1.75,5.59,3.31,8,4.63s4.7,2.52,6.75,3.56c4,2,8,4,12.15,5.84l6.35,2.69c2.14.89,4.32,1.83,6.56,2.61A249.27,249.27,0,0,0,599,1685.63a282.37,282.37,0,0,0,55.76,1.85,339.12,339.12,0,0,0,54.07-8,402.75,402.75,0,0,0,50.78-15.29,112.88,112.88,0,0,1,11-3.47c3.71-1.1,7.48-2.18,11.21-3.44a67.91,67.91,0,0,0,10.85-4.9,43.14,43.14,0,0,0,9.72-7.76,569,569,0,0,1-53.15,21.29c-17.46,6-34,10.76-47.31,14.73-9.9.88-21.48,2.1-34.21,2.56a394.39,394.39,0,0,1-40.55-.3,322.58,322.58,0,0,1-42.22-5.43l-5.13-1-5.07-1.17c-3.35-.8-6.66-1.51-9.88-2.46s-6.41-1.76-9.5-2.68l-9-2.92-2.1-.93-2.07-1-4.11-2c-2.72-1.32-5.42-2.58-8.05-4l-7.85-4.11c-2.65-1.42-5.64-3-8.92-5s-6.86-4.08-10.72-6.73a126.21,126.21,0,0,1-12.26-9.54,107.24,107.24,0,0,1-12.76-13.41q-1.56-2-3-4c-1-1.4-2-2.86-2.91-4.31-1.81-2.85-3.35-5.63-4.88-8.54q-1.14-2.31-2.19-4.65c-.69-1.58-1.37-3.09-2-4.79a92.14,92.14,0,0,1-3.24-10.18q-.67-2.62-1.23-5.27t-.87-5.35a92.43,92.43,0,0,1-.89-10.7c-.08-1.79,0-3.48,0-5.22s.11-3.5.27-5.15.34-3.31.56-5c.11-.82.21-1.67.35-2.45l.42-2.34c.3-1.55.62-3.1,1-4.65s.74-2.9,1.15-4.35c.8-3,1.72-5.55,2.7-8.21a115,115,0,0,1,13.71-25.75,141.86,141.86,0,0,1,15.29-18.26,166.51,166.51,0,0,1,16-14.18,177.74,177.74,0,0,1,17.06-11.74c3-1.79,6.05-3.54,9.25-5.21,1.61-.82,3.21-1.66,4.9-2.45l2.52-1.2,1.79-.79,14.2-6.12A414.57,414.57,0,0,1,622,1419c3.33,2.55,7.74,2.89,13.28,2.07,2.78-.4,5.84-1.07,9.2-1.83s7.06-1.42,11-2.11c.3,3.89,3.55,5.91,8.87,6.58,1.34.18,2.79.23,4.38.29s3.29,0,5.1,0c3.63-.15,7.68-.56,12.07-1.16,2.34-.94,3.09-1.65,3-2.24s-.94-1.11-1.81-1.56c-1.75-.9-3.52-1.76,1.22-3.2,10.53.73,20.36,1.71,22.62,7-4.63.61-9.58,1.57-14,2.13s-8.23.82-10.63.42c2.13,2.65,8.47,3.11,14.36,3.75s11.37,1.51,11.81,5.2c-4.22.78-8.4,1.74-12.54,2.63s-8.25,1.79-12.29,3c-8.1,2.2-16.08,4.34-23.87,7-3.9,1.29-7.79,2.52-11.63,3.87l-11.42,4.25-5.67,2.12c-1.88.72-3.73,1.53-5.6,2.28l-11.13,4.57c-.92.39-1.86.74-2.77,1.15l-2.75,1.22-5.48,2.44c-3.65,1.63-7.33,3.16-11,4.83s-7.23,3.4-10.86,5.06l-5.47,2.47c-1.81.85-3.6,1.76-5.41,2.62q-5.41,2.61-10.91,5.14l-1.38.63c-.47.22-.88.39-1.43.67-1,.51-2.09,1-3.12,1.54q-3.07,1.58-6.08,3.27a158,158,0,0,0-23.06,15.91c-5,2.19-9.34,3.64-13.9,5.81a39,39,0,0,0-3.47,1.84c-.58.34-1.18.7-1.77,1.08s-1.2.84-1.81,1.29a39.52,39.52,0,0,0-7.59,7.45c-.11,3.17,1.16,3.37,3.08,2.05a28.44,28.44,0,0,0,3.46-2.73c1.32-1.08,2.75-2.41,4.28-3.63a59.59,59.59,0,0,1,9.39-6.53c3-1.61,5.64-2.43,7.24-2a138.88,138.88,0,0,0-10.44,16.65,66.51,66.51,0,0,0-4.39,10.53,48.93,48.93,0,0,0-2.23,12.16,39.28,39.28,0,0,0,1.39,12.65,37,37,0,0,0,5.13,10.69c.54.74,1.08,1.47,1.62,2.17s1.18,1.38,1.78,2a35.76,35.76,0,0,0,3.74,3.36,31.77,31.77,0,0,0,7.39,4.25c1.27,2.09,1.18,3.75,2.12,5.66s3,4.11,8.34,6.29c.94.51,1.87,1,2.79,1.44l2.74,1.28,5.43,2.5c1.8.8,3.63,1.47,5.43,2.18s3.58,1.43,5.38,2a168.21,168.21,0,0,0,21.18,5.8,178.49,178.49,0,0,0,39.78,3.47,223.58,223.58,0,0,0,36.63-4,322.2,322.2,0,0,0,35.24-8.88c8.94-2.74,17.6-5.86,26.12-9.13s16.75-7,24.86-10.94A287.91,287.91,0,0,0,794,1559.52l2.74-2,2.68-2.15c1.78-1.44,3.59-2.86,5.35-4.34,3.47-3,7-6,10.34-9.28s6.63-6.59,9.92-10c3.13-3.51,6.34-7,9.33-10.74s5.94-7.53,8.85-11.42l4.18-6c1.41-2,2.68-4.12,4-6.19a228.52,228.52,0,0,0,14.42-26.56c3.35-4.22,5.23,3.69,9.21-6.5a258.17,258.17,0,0,0,16.3-37c4.78-13.31,8.84-27.16,12.47-40.42,7.33-26.54,12.77-50.7,22.8-64.34a133,133,0,0,1,.52-13.77,85.33,85.33,0,0,1,1.48-10c1.14-6,2.65-11,3-18.32-1.38-6.52-3-12.74-4.23-20.84,2.07-4.06,1.55-12,0-21-.33-2.27-.82-4.6-1.3-7s-1-4.76-1.46-7.16-1.08-4.77-1.56-7.12-.87-4.66-1.32-6.88c-.93-5-1.4-9.77-2-14.49-.26-2.37-.47-4.72-.66-7.08s-.49-4.7-.73-7-.46-4.74-.79-7.13-.72-4.8-1.14-7.24c-.22-1.22-.44-2.46-.66-3.7s-.57-2.48-.87-3.73c-.63-2.51-1.33-5.06-2.12-7.65-5.81-18-12.75-30-19.15-38.94-1.64-2.24-3.23-4.3-4.78-6.24s-3.24-3.68-4.81-5.39-3.11-3.34-4.67-4.94l-4.8-4.67c-3.83-3.93-8.36-8.15-12.9-12.55-2.35-2.14-4.8-4.25-7.22-6.35s-4.93-4.09-7.42-6c-10-7.51-20.23-12.94-28-13.74,1.81,2.66,3.56,5.53,5.24,8.25a70.85,70.85,0,0,1,4.2,8.11c2.51,1.48,5.09,3,7.78,4.55s5.36,3.2,8.09,5,5.48,3.63,8.32,5.56,5.49,4.13,8.3,6.34a114.89,114.89,0,0,1,29.3,34.94,73.17,73.17,0,0,1,3.15,6.72c.83,2.22,1.55,4.41,2.19,6.55s1.26,4.23,1.69,6.35.91,4.17,1.37,6.24c1,4.11,1.78,8.25,3.11,12.45.33,1,.69,2.11,1.08,3.17s.75,2.16,1.18,3.25a65.15,65.15,0,0,0,3.1,6.73l-3.66,1.24a206.14,206.14,0,0,1,10.36,36.21,217.18,217.18,0,0,1,3.42,33.28,242.48,242.48,0,0,1-1.35,30.63c-1.08,9.84-2.7,19.36-4.59,28.72s-4.24,18.55-6.68,27.79-5.2,18.5-8,28-5.85,19.3-9,29.57-6.49,21-10.16,32.54c-14.17,21.5-30.69,38.68-47.44,49.61,1.13-1.61,2.2-3.15,3.18-4.67s1.83-3,2.65-4.5a89.3,89.3,0,0,0,4.22-8.41,126.33,126.33,0,0,0,5.48-15.39c2.91-10,5.34-19.87,10.63-34,1.51-19.55,3.68-40,5.13-61.37a553.74,553.74,0,0,0,1-66.56c-1.18-22.68-4.25-45.85-10.06-67.44a214.35,214.35,0,0,0-10.73-31,166.12,166.12,0,0,0-15-27.06,129.62,129.62,0,0,0-23.41-35.34A140.74,140.74,0,0,0,788,1105.79a157.67,157.67,0,0,0-16.8-11.54,214.75,214.75,0,0,0-37.6-17.41C720.29,1072,706.1,1068,691,1064.13c-3.31-4.7-12.43-8.54-23.49-11.7s-24.06-5.64-34.8-8.45c-6.5-.21-1.88,6.26-13.28,3.17a125.86,125.86,0,0,1-28.11-7.76,106,106,0,0,1-18.46-10.22c-10.68-7.18-19.68-14.51-37.1-18.91-6.25-1.58-17.85-.93-26.42-2.31-6.14-1-15.05-3.1-23.65-5.23s-16.91-4.3-21.9-5.05c-18.06-2.71-35.94-4.29-54.37-7.32a254.09,254.09,0,0,1-28-6.15c-2.36-.65-4.72-1.39-7.08-2.17l-3.56-1.18-3.55-1.3a142.59,142.59,0,0,1-14.48-6.23,166.73,166.73,0,0,1-21.37-12.58c-1.79-1.22-3.57-2.6-5.34-3.94s-3.53-2.81-5.26-4.36-3.43-3.15-5.12-4.77-3.32-3.41-4.9-5.26-3.12-3.76-4.61-5.69-2.81-4-4.16-6-2.55-4.2-3.73-6.36-2.29-4.4-3.27-6.68a100,100,0,0,1-7.79-28.46,119,119,0,0,1,0-28.36,156.43,156.43,0,0,1,5.48-26.34,247.87,247.87,0,0,1,19.66-46.64c8-10.92,16.3-23.16,25.26-36.07,4.45-6.42,9.23-13.35,14.81-20.36a119.73,119.73,0,0,1,20.44-20.66,72.53,72.53,0,0,1,14.32-8.65,58.66,58.66,0,0,1,17.62-4.83c1.56-.21,3.13-.25,4.69-.33h2.34l1.18,0,1.17.09c1.57.13,3.14.28,4.71.46s3.09.58,4.63.9a57,57,0,0,1,16.88,6.92,67.1,67.1,0,0,1,13.16,10.42l1.42,1.42c.45.48.87,1,1.31,1.47.86,1,1.73,1.95,2.56,2.94,1.54,2,3.16,4,4.5,6.07a103.08,103.08,0,0,1,12.43,25.14c7.45,11.28,13.6,25.42,18.41,40.68s8.46,31.53,12,47.36c1.76,7.91,3.53,15.71,5.42,23.27.24,1,.46,1.81.69,2.66l.69,2.55c.47,1.68.93,3.36,1.4,5,1,3.27,2,6.42,3,9.5,4.26,12.27,9.69,22.84,16.31,29.79,2.84,6.5-3.72,5.08.71,12.71,3.74,4.53,7.32,9.3,11,14a164.35,164.35,0,0,0,11.28,13.16,54.31,54.31,0,0,0,12,9.65c4.17,2.25,8.33,3.48,12.5,3,1.13.9,2.19,1.7,3.12,2.51s1.75,1.6,2.51,2.34a24,24,0,0,1,2,2.28,22.13,22.13,0,0,1,1.6,2.19c1.91.81,3.91,1.46,5.86,2.14s4,1.22,6,1.67,4.09.86,6.13,1.22,4.13.58,6.24.68,4.2.16,6.29.19,4.22-.15,6.34-.43A66,66,0,0,0,640,978.42a78.85,78.85,0,0,0,23.24-11.68,140.3,140.3,0,0,0,19.38-17.34c5.88-6.21,11.32-12.58,16.7-18.75s10.73-12.13,16.15-18l4.08-4.38,1.14-1.21,1.56-1.6,3.3-3.33,6.65-6.7,6.76-6.74c9.08-9,18.41-18.19,28.15-27.46,16.49-8.1,32.61-15.89,48.74-24.43,8.06-4.28,16.14-8.73,24.25-13.53,4.08-2.37,8.1-4.89,12.2-7.46,2.06-1.29,4.08-2.58,6.1-3.91l3-2,1.5-1c.51-.35.93-.59,1.4-.89,14.56-5.91,30.21-13,45.6-26a101.69,101.69,0,0,0,21.2-25,94.54,94.54,0,0,0,12.67-37.82,95,95,0,0,0-5.73-22.46,101.06,101.06,0,0,0-4.5-10c-.82-1.59-1.77-3.12-2.65-4.65s-1.74-3-2.78-4.44a106.31,106.31,0,0,0-26.8-27.37A133.7,133.7,0,0,0,873.12,635c-4.43-1.81-8.79-3.21-12.84-4.47s-8-2.22-11.65-3c-.93-.67-1.84-1.28-2.72-1.85s-1.82-1.07-2.64-1.49-1.62-.78-2.49-1.18-1.79-.84-2.69-1.18a40.14,40.14,0,0,0-9.69-2.55,49.46,49.46,0,0,0-13.91.48c-20.32-10.83-39.92-19.46-60-28l-7.63-3.23L738.77,585q-8.09-3.53-16.3-7.21c-11-4.93-22.21-10.14-34-15.77-94.23-45.19-132.44-106.89-223.34-151.77-3.23-3.24-4-6.15-9.65-9.7-9.24,4.1-32.36-24.7-43.34-16.39,10.92,15.59,41.06,38.41,68.54,52.25,5.51,11.43,23.57,16.5,37.78,26.58,17.84,12.65,30.23,29.66,44.93,40.81,4.25,3.2,10.49,4,12.12,5.16,12,8.58,19.84,19.07,36.54,28.84,37.28,21.78,50,26.11,85.22,42.26L724,592.33c8.76,4,17.93,8.17,25.59,11.55,15.84,7.1,30.63,14,44,20,6.72,3,13,5.86,19,8.35,2.94,1.28,6,2.41,8.72,3.53,1.41.55,2.81,1.08,4.2,1.57a26.1,26.1,0,0,0,3.79,1.22l1.63.34c.54.1,1.15.27,1.72.39,1.14.28,2.28.56,3.42.8s2.3.45,3.45.64,2.26.4,3.4.56a71.37,71.37,0,0,0,13.39.76,46.09,46.09,0,0,0,6,5.49,47.88,47.88,0,0,0,6.28,4.1,66.64,66.64,0,0,0,6.58,3.21c2.22,1,4.51,1.91,6.86,2.82s4.61,1.89,7,2.91a75.47,75.47,0,0,1,7,3.47,47.19,47.19,0,0,1,6.75,4.54,39.1,39.1,0,0,1,6.17,6.11c1,1.74,1.64,3.42,2.37,4.95s1.45,2.94,2,4.3,1.1,2.59,1.61,3.75,1,2.22,1.4,3.24c.81,2,1.55,3.8,2.26,5.42s1.17,3.14,1.72,4.65c.26.76.52,1.52.79,2.29s.42,1.59.63,2.44c.38,1.69.79,3.53,1.08,5.68s.38,4.63.43,7.55c0,1.45-.12,3-.21,4.73-.05.84-.09,1.73-.17,2.64s-.25,1.86-.39,2.85c-.57,1-1.15,1.91-1.72,2.86s-1.12,1.87-1.78,2.78c-1.28,1.81-2.55,3.57-3.83,5.29s-2.75,3.33-4.13,4.93-2.9,3.11-4.33,4.6a123.18,123.18,0,0,1-18.71,15.25,164,164,0,0,1-39,18.53c-1.59.52-3.14,1-4.7,1.5l-4.62,1.36c-.75.21-1.53.44-2.27.62l-1.11.28-.27.06-.34.15-.68.3-5.55,2.52-2.8,1.3-2.88,1.38-5.78,2.82c-3.84,1.94-7.76,3.89-11.69,5.94-15.72,8.19-32,17.58-49.4,29-12.17,14.71-24.84,28.15-36.37,32.18,11.74-18.55,28.4-39.07,46.91-61.47,9.26-11.18,19-22.84,28.82-34.87l3.48-4.29,1.64-2,.68-.82c.94-1.24,2-2.43,2.94-3.69,2-2.49,3.84-5.08,5.58-7.79a50.94,50.94,0,0,0,7.58-17.67,36.16,36.16,0,0,0,.53-9.44l-.09-1.16,0-.59-.1-.57c-.15-.77-.26-1.53-.38-2.29s-.41-1.49-.58-2.23a21.08,21.08,0,0,0-.7-2.17,34.25,34.25,0,0,0-9.85-14.25A31.43,31.43,0,0,0,793,690.38c-1.13,3.27-.43,4.92.95,6.33s3.42,2.54,4.6,4.21a37.68,37.68,0,0,1,6.41,15.63,35.2,35.2,0,0,1,.24,8.77,35.84,35.84,0,0,1-2.07,8.72c-2.09,5.71-5.45,10.93-9.11,16-.48.63-1,1.25-1.4,1.91l-.66.89-2.06,2.66c-2.77,3.57-6,7.57-9.1,11.47s-6.33,7.81-9.5,11.77l-9.72,11.78c-7.77,9.37-15.09,18.91-22.29,28.62s-14.4,19.48-21.94,29.21-15.4,19.45-24.09,28.85c-.16.17-.2.23-.28.32l-.21.26-.4.5-.6.76c-.4.51-.81,1-1.23,1.51-.85,1-1.72,2-2.66,2.94a49.13,49.13,0,0,1-6,5.28,61,61,0,0,1-14.73,7.75,161.5,161.5,0,0,1-16.42,5.16c-.2-1.22-1-1.41-1.6-2s-.92-1.52-.2-4.06a7.4,7.4,0,0,1-5.13-.21,10.31,10.31,0,0,1-2.31-1.28,14.2,14.2,0,0,1-2-1.92,21.66,21.66,0,0,1-3.31-5,47.28,47.28,0,0,1-2.34-5.61c-1.32-3.72-2.19-7.08-3.57-9.21s-3.28-3.07-7-2.62C625.36,867.92,626.32,869.42,627.33,865.92ZM1269.39,359.8c-3.33,1-4.05-1.15-1.47-2.19-1.27-1.12-5.31.95-8.47,2-1-2.47,9-4.87,8.22-7.43-5.5-.22-12.26.8-19.4,2.15a21.45,21.45,0,0,1,9.86-4.78,17.07,17.07,0,0,1,8.83.43C1271.72,351.67,1273.54,355.82,1269.39,359.8ZM1148,471.8c-3,.73-6.37-1.55-9.84-5.75a69.87,69.87,0,0,1-9.86-16.86c-1.43-3.29-2.77-6.7-4-10l-.46-1.25-.37-1.24c-.24-.82-.47-1.63-.7-2.44-.46-1.61-.88-3.18-1.27-4.68-.77-3-1.41-5.78-1.9-8.11a39.56,39.56,0,0,1-.75-5.54,38.79,38.79,0,0,1,.5-8.51,24.47,24.47,0,0,1,2.42-7.43c1.08-1.91,2.3-3.05,3.47-2.88s2.15,1.63,3.19,4.89c1.18,3.61,2,8.51,3,14.11s2.29,11.91,3.54,18.53c.32,1.66.65,3.33,1,5s.83,3.34,1.26,5c.86,3.34,1.78,6.68,2.79,9.91a49.34,49.34,0,0,0,1.71,4.74c.63,1.55,1.27,3.05,1.95,4.51A62.52,62.52,0,0,0,1148,471.8Zm59.38,78.84c2.08-2.3,4.64-2,7.35-.58a35.18,35.18,0,0,0,2.48,7c.57,1.24,1.19,2.51,1.87,3.83.34.65.69,1.31,1,2s.77,1.39,1.16,2.1c.81,1.42,1.61,2.89,2.5,4.33l2.77,4.33c1.88,2.92,3.79,5.89,5.67,8.83s3.91,5.75,5.7,8.58,3.41,5.61,4.94,8.19c3,5.21,5,10.12,5.33,14.23-2.54-3-4.7-5.9-6.72-8.54s-3.87-5.08-5.44-7.54-3.09-4.73-4.52-7l-2.13-3.35-1-1.67-1-1.7c-1.33-2.27-2.69-4.56-4.11-7l-2.22-3.65-1.17-1.9c-.38-.65-.77-1.31-1.16-2-1.59-2.71-3.29-5.52-5.17-8.54S1209.6,554.27,1207.35,550.64Zm51.77,94.18c.34-2.14,2-1.43,3.78-.43s3.81,2.2,4.71,1.29c1.51,4.87,8.76,12.06,8.2,16.05a38.59,38.59,0,0,1-5.45-4.62,46.21,46.21,0,0,1-3.35-3.92c-1-1.25-1.92-2.48-3.14-3.83A60.68,60.68,0,0,0,1259.12,644.82Zm28.33-16c5.85,6.81,12.29,13.65,19.11,20.6s14,14,21.38,21.13l22.66,21.83c7.89,7.63,15.72,15.45,23.37,23.6,6.6,7,13.17,14.07,19.35,21.45a162.15,162.15,0,0,1,16.54,23.25c9.35,16.2,14.42,34.06,12.8,50.3a235.4,235.4,0,0,0-8.34-28.61c-.47-1.24-1-2.48-1.43-3.73s-1-2.47-1.56-3.71c-1-2.49-2.23-4.92-3.4-7.37a136.32,136.32,0,0,0-8.13-14.09,127.68,127.68,0,0,0-19.92-23.62A87.44,87.44,0,0,0,1359,715.14a438.52,438.52,0,0,0-34-37.25c-12.1-11.67-24.1-21.73-34.89-27.68a9,9,0,0,0-.58-5.28c-.66-1.92-1.67-3.95-2.47-6C1285.44,634.92,1284.38,631.13,1287.45,628.86Zm-4,39.4,2.5-3c5.67,4,13.63,9.49,19.66,14.74s10.12,10.28,8.24,13.35C1299.71,685.33,1295.46,680.64,1283.48,668.26Zm30.37,30.14c2.67.72,4.53,0,5.8-1.87,5.67,4.3,6.57,7.43,4.93,8.13S1318.75,703.67,1313.85,698.4Zm-14.17,21.78c.06,2.93,2.86,5.47,6.07,7.84l4.92,3.51c.8.57,1.53,1.15,2.2,1.73l.5.43.37.35a8.37,8.37,0,0,1,.64.71,34,34,0,0,1,5.61,11.11c1.19,3.57,2.14,6.87,4.27,9.88,3.89,5.56,8,8.5,12.45,12.26,1.11.93,2.19,1.94,3.31,3a42.21,42.21,0,0,1,3.25,3.65,34.39,34.39,0,0,1,5.51,10.46c1,2.71,2.57,3.24,4.14,3.45s3.26,0,4.6,1.43a89.34,89.34,0,0,1,5,16.36,85.26,85.26,0,0,1,1.62,17A98.83,98.83,0,0,1,1357.8,857a167.28,167.28,0,0,1-15.67,31.32c-.38.63-.8,1.28-1.17,1.87l-1.23,1.9-2.91,4.35q-3,4.35-6.14,8.72c-4.22,5.81-8.68,11.64-13.32,17.5-9.28,11.73-19.29,23.58-29.68,35.9s-21.18,25.14-32,39a412.25,412.25,0,0,0-31.47,46.16,260.08,260.08,0,0,0-13.84,27.48c-1,2.44-2.09,4.91-3.05,7.44l-.73,1.89c-.25.65-.49,1.23-.75,2l-.76,2.12-.74,2.23a102,102,0,0,0-4.63,21.45,9.69,9.69,0,0,1-2-3,22,22,0,0,1-1.43-4.29,48.26,48.26,0,0,1-1-10.92,106.69,106.69,0,0,1,.8-11.69c.4-3.46.84-7.06,1.36-10.49.95-6.92,1.93-13.32,1.36-18.19s-2.61-8.16-7.71-8.59a253.18,253.18,0,0,1,15.75-32.53c5.62-9.83,11.46-18.76,17.3-27,11.71-16.46,23.36-30.38,34.17-43.36s20.85-25,29.45-37.09A205.55,205.55,0,0,0,1299.35,883q2.58-4.57,4.76-9.18c.71-1.53,1.38-3.07,2.05-4.61l.46-1.15a1.75,1.75,0,0,0,.13-.44l.07-.35c0-.25.09-.46.15-.73s.14-.54.2-.82c1.64-2.43,3.25-4.79,4.89-7.12s3.21-4.68,4.78-7a123,123,0,0,0,8.66-15,64.23,64.23,0,0,0,5.58-17.64,52.78,52.78,0,0,0-.78-20.6,87.26,87.26,0,0,0-8.21-21c-3.41-6.48-7.14-12.39-10.33-18.17-1.62-2.88-3.06-5.77-4.37-8.62-.62-1.47-1.25-2.88-1.77-4.36a47.28,47.28,0,0,0-1.79-4.75C1300.73,734.25,1298.94,727.05,1299.68,720.18Zm9.62,129.9a4.87,4.87,0,0,1-4.13,3.13c-1.53.23-3.08.16-4.44,1.19a25.8,25.8,0,0,1-1.77,2.93c-.65.86-1.28,1.64-1.93,2.35-.33.35-.57.53-.85.79-.5.54-1,1.12-1.55,1.66-1.07,1.09-2.08,2.08-3.16,3.06-4.24,3.88-8.53,7-13.23,11.32-5.16,5.45-11.37,13.16-18.41,22.17s-14.95,19.36-23.09,29.94-16.47,21.37-24.28,30.93-15.09,17.86-21.38,22.82c8.35-10.42,12.28-20.17,16.46-29.83s8.62-19.07,17.58-27.48a172.36,172.36,0,0,1,7.57-25.95,163.72,163.72,0,0,1,11.89-24.55,240.82,240.82,0,0,1,16.37-24c1.53-2,3-3.92,4.59-5.87l2.33-2.89.57-.71c.06-.08.06-.08.07-.08l0,0,.07-.05.15-.08.25-.22c1.34-1.23,2.91-2.51,4.71-4,1.53-1.24,4.15-2.16,6.82-3.4s5.36-2.77,6.78-4.69a13.6,13.6,0,0,0,2.37-5.75,32.32,32.32,0,0,0,.36-5.72c0-3.64.14-6.67,3.4-9.6a14.49,14.49,0,0,1,6.22,1,13.1,13.1,0,0,1,2.47,1.45,14,14,0,0,1,2.08,2,17.14,17.14,0,0,1,2.89,5.34,27.76,27.76,0,0,1,.88,3.17c.17,1.09.4,2.22.48,3.37.46,4.6,0,9.43-.26,13.9S1307.88,846.42,1309.3,850.08Zm114.38-28.34c1.58,4.12,1.39,7.67.72,12s-1.85,9.39-2.92,16.83c-2.85-1.13-2.23-6-1-11.8S1423.26,826.17,1423.68,821.74ZM1388.11,1133a126.56,126.56,0,0,1,42.24,59.39,138.24,138.24,0,0,1,6.46,37.17,164.54,164.54,0,0,1-3.51,39.81,206.3,206.3,0,0,1-10.28,33.93c-4,10.29-8.46,19.83-13,29.57s-9.27,19.66-14.26,30.83c-1.14,2.56-2.31,5.19-3.51,7.91s-2.35,5.45-3.58,8.31c-2.42,5.74-4.92,11.88-7.55,18.53-3.07,7.8-4.65,14.64-6.63,22.56a191.27,191.27,0,0,1-9.32,28.82c-.35.87-.75,1.8-1.17,2.75l-1.24,2.79q-1.28,2.78-2.59,5.51c-1.76,3.64-3.59,7.2-5.4,10.71s-3.7,6.9-5.52,10.27l-5.46,9.85c-7.18,12.91-13.75,24.73-18.06,37.4a157.43,157.43,0,0,1-63.53,43.74c-7.63,2.87-15.2,5.1-22.46,7.31a14,14,0,0,1,1.77-1.95,27.88,27.88,0,0,1,2.49-2.07c1.88-1.33,4.16-2.92,6.73-4.47,1.28-.84,2.63-1.73,4-2.61s2.85-1.91,4.35-2.86c3-2.09,6.09-4.27,9.17-6.82a114.09,114.09,0,0,0,17.47-17.6c2.58-3.28,5-6.63,7.1-10s4-6.67,5.62-9.89c12.3-13.19,21.94-28.61,30.47-44.44,2.13-4,4.18-8,6.19-12s4-8.05,6-12.08,3.91-8.09,5.81-12.11,3.7-7.87,5.5-11.82q10.86-23.64,20.66-47.45l4.87-11.89,4.78-11.94c3.25-8.17,6.39-16.34,9.52-24.52,6.18-16.37,12.29-32.77,17-49.61s8.37-34.06,9.2-51.59a161.63,161.63,0,0,0-.75-26.3,124,124,0,0,0-5.87-25.61,125.69,125.69,0,0,0-26.46-44.78ZM1051,1531.63c-1.15,1.61-9.29-2.05-9.88,0-15.1-6.43-29.46-9.44-42.92-11.46-6.73-1-13.27-1.64-19.58-2.41s-12.44-1.35-18.39-2.37a105.54,105.54,0,0,1-17.07-4.82c-1.47-.51-3-1-4.52-1.55s-3.12-1-4.74-1.44c-3.24-.94-6.65-1.82-10.3-2.52a122.43,122.43,0,0,0-15.54-1.6c-5.34-.35-10.7-.39-15.65-.7-9.9-.69-18.17-1.84-21.67-6.82a77.2,77.2,0,0,1-16.29,1c-3-.06-6.15-.31-9.35-.46s-6.47-.37-9.75-.57a193.68,193.68,0,0,0-19.46-.44,63.75,63.75,0,0,0-17.11,2.5c.22-1.61,2.31-3.13,5-4.63s6.08-3,8.84-4.35c5.48-2.77,8.54-5.61-1.28-9.1-8.46,2.57-8.34,8.68-15.76,11.64l-3.59,0-3.42.07q-3.35,0-6.34-.09a78.26,78.26,0,0,1-10.51-1.11c-6-1.07-9.84-3.18-11-6.58,12.85-5.67,39.36-9.37,67-9.31s56.26,3.86,73.13,9.11a81.53,81.53,0,0,1,8.82-.1c2.87.09,5.67.28,8.44.56a129.73,129.73,0,0,1,16.2,2.7c2.66.59,5.32,1.23,8,1.89s5.35,1.48,8.07,2.24l16.93,4.83c1-1.2,0-2-1.88-2.7a56.88,56.88,0,0,0-7.12-1.68,53,53,0,0,1,11.32,1,81.46,81.46,0,0,1,11.08,3c3.64,1.31,7.26,2.85,10.86,4.5s7.19,3.4,10.75,5.31c7.14,3.75,14.3,7.54,21.58,10.94a115,115,0,0,0,11.12,4.45,74.61,74.61,0,0,0,11.53,3.12C1051.66,1526,1044.67,1529.59,1051,1531.63ZM751.78,1491c-6.54-.14-10.33-1.83-16-2.4,1-3.91,6-6.46,15.13-7.88,4.52.92,5.78,2.56,5.39,4.35S753.88,1488.9,751.78,1491ZM618,1581.39l-6.62,3-3.31,1.52-1.65.77-.42.19-.1,0,0,0,0,0-.09.08c-.25.19-.69.49-1.14.86a16.5,16.5,0,0,0-1.34,1.17,6.41,6.41,0,0,0-.95,1.1,1.44,1.44,0,0,0-.19.37s0,.07,0,.1c.22.23-.53-.53-.95-.94l-1.48-1.52a160.93,160.93,0,0,0-13.27-11.73c-.59-.47-1.19-.92-1.8-1.37s-1.22-.89-1.79-1.33c-1.17-.88-2.39-1.73-3.64-2.54-2.3-1.63-4.84-3.11-7.09-4.42a67.39,67.39,0,0,0-12.82-5.69,29.44,29.44,0,0,0-8.07-1.57c-1.63,0-2,.21-1.16-.06a5,5,0,0,0,.93-.33c.07,0,.44-.17.65-.27a7.5,7.5,0,0,0,.7-.33l.32-.18.17-.09.25-.13c.33-.16.65-.34.95-.52s.6-.37.88-.56l.21-.15-3.71,2.41h0l0,0,.07,0,.28-.18.55-.4c.25-.19.5-.38.73-.57l.82-.68c.3-.26.6-.53.87-.8s.74-.67,1.07-1l1.1-1.13c.86-.88,1.54-1.71,2.56-2.86.47-.55.87-1.07,1.36-1.68s1.06-1.31,1.56-2l1.61-2.19c.58-.79,1.15-1.6,1.69-2.41.24-.38.61-.89.93-1.36l1-1.45,1.93-3c.75-1.15,1.47-2.32,2.17-3.5l2.33-3.93c.83-1.42,1.64-2.86,2.43-4.3l.3-.55.37-.66.75-1.32,1.46-2.66,3-5.67q1.8-3.37,3.51-6.8l.79-1.58h.16l.51.15,2,.62,2.14.72c1,.39,2.07.65,3.13,1s2.09.69,3.19,1c2.21.54,4.38,1.24,6.71,1.71,2.25.63,4.67,1,7,1.54l3.69.6c1.22.25,2.5.38,3.78.54,2.52.4,5.16.54,7.8.82,2.68.1,5.36.35,8.13.3,2.75.11,5.57-.08,8.38-.13,2.84-.24,5.68-.36,8.56-.76l2.16-.24c.72-.08,1.44-.23,2.16-.33,1.44-.25,2.88-.43,4.32-.71l4.33-.88c1.44-.27,2.86-.71,4.3-1a117.8,117.8,0,0,0,16.74-5.58l2-.82,2-.93c1.31-.63,2.63-1.2,3.91-1.86,2.54-1.37,5.07-2.66,7.44-4.18s4.68-3,6.91-4.59c1.11-.79,2.15-1.67,3.2-2.48s2.09-1.65,3-2.55c1.81-.71,4-1.46,6.18-2.54,1.12-.53,2.3-1.06,3.5-1.65l3.61-2c1.26-.66,2.45-1.44,3.69-2.22s2.52-1.55,3.69-2.45l3.63-2.66,3.41-2.89c1.17-.94,2.15-2,3.19-3a35.39,35.39,0,0,0,2.91-3.13c.9-1.07,1.76-2.11,2.58-3.19s1.61-2.32,2.33-3.45c.36-.57.71-1.12,1-1.7s.6-1.15.87-1.71c.55-1.14,1-2.24,1.43-3.31a20.13,20.13,0,0,0,1.17-6.14c10.78-12,18-27.28,22.44-43.15s6.4-32.39,7.74-48.13a127.48,127.48,0,0,0,3.57-15.92,163.78,163.78,0,0,0,1.69-16.78,233.27,233.27,0,0,0-1-34.84c-.6-5.87-1.29-11.77-2.19-17.64s-1.87-11.82-2.85-17.63c-2-11.67-4.31-22.9-6.35-33.88a31.16,31.16,0,0,1-.48-3.68c-.1-1.22-.22-2.35-.25-3.54-.08-2.34,0-4.75,0-7,0-4.67-.13-9.34-1.68-14a50.45,50.45,0,0,0-6.23-11.78c-1.3-1.85-2.51-3.84-3.83-5.6-.63-.92-1.24-1.86-1.8-2.82s-1.2-1.81-1.72-2.77c-.38-.68-.75-1.38-1.1-2.08L763,1164l-.56-1c-.74-1.35-1.42-2.76-2.08-4.21s-1.54-2.91-2.28-4.41-1.58-2.94-2.42-4.4a62.74,62.74,0,0,0-12.42-16c-2.33-2.12-5.63-3.85-9-5.55-1.67-.84-3.39-1.64-5-2.51a38.35,38.35,0,0,1-4.53-2.67c-3.63-2.52-4.69-7-8.26-9.51-5.49-3.94-12.61-6.82-19.75-9.55s-14.29-5.35-19.85-9.12c-22.26-3.89-44.86-7.34-70.07-10.48s-52.93-5.84-86.4-8.69c15.4-1.54,31-3,43.83-5.72s23.15-6.79,28.25-13.77c15.74,1.93,30.75,3.52,45.28,5.77s28.59,5.13,42.1,9.7c9.72,3.3,15.88,6.09,23.47,9.16l6,2.41,6.86,2.7c4.94,2,10.76,4.17,17.73,7.13,6.28,2.68,12.46,5,18.39,7.45a87.1,87.1,0,0,1,16.61,8.77,117.15,117.15,0,0,1,18.48,16.11l2.06,2.28c.69.76,1.4,1.51,2,2.3l3.8,4.67c.65.76,1.22,1.6,1.81,2.42l1.77,2.47,1.78,2.45c.57.84,1.1,1.72,1.65,2.57,9,13.59,15.89,28.79,22.31,44.16,5.41,13.18,11,26.83,14.7,40.5.51,1.68.88,3.41,1.28,5.11s.76,3.39,1.1,5.07c.64,3.38,1.1,6.74,1.49,10s.41,6.56.4,9.71a68.62,68.62,0,0,1-.87,9.22,197.22,197.22,0,0,1,2.51,38,339.51,339.51,0,0,1-3.62,39.33c-1.93,12.92-4.35,25.44-6.55,37.34s-4.27,23.18-5.31,33.92c-4.32,7.44-8.37,14.95-12.29,22.46s-7.73,15-11.76,22.23-8.18,14.2-12.57,20.68a137,137,0,0,1-13.89,17.31q-10.2,3.48-21.61,6.92l-23.84,7.07c-8.26,2.5-16.81,5.16-25.72,8.16s-18.22,6.31-28.11,10.1a203.73,203.73,0,0,0-21.88,9.94c-6.77,3.44-13.2,7-19.72,10.46l-4.89,2.41c-.82.4-1.65.84-2.47,1.21l-2.48,1.09c-1.65.71-3.34,1.49-5,2.13s-3.39,1.24-5.12,1.83a67.57,67.57,0,0,1-21.67,3.69c-.91-.54-1.82-1-2.7-1.45s-1.75-.9-2.61-1.28c-1.73-.79-3.48-1.31-5.15-1.92a46.41,46.41,0,0,0-5.1-1.39c-1.7-.41-3.38-.82-5.12-1.16l-2.62-.51-2.6-.63-2.66-.64c-.88-.22-1.85-.45-2.64-.69-3.29-.94-5.75-2-6.37-2.69-.08-.12-.16-.21-.12-.25h0l-.08.08c-.15.18-.36.39-.48.54-.26.31-.54.63-.82.93s-.57.62-.87.92l-.75.77a31.16,31.16,0,0,1-4.46,3.78l-.1.06,0,0,3.72-2.41h0l-.07.06-.31.2c-.2.14-.41.27-.63.4-.42.26-.93.52-1.34.73a9.75,9.75,0,0,1-1,.49l-.53.23-.14,0-.07,0-.15.07a4.73,4.73,0,0,1-.67.24l-.18,0-.06,0-.13,0-.15,0-.09,0,.12,0a3,3,0,0,0,.37,0h.53c.32,0,.63,0,.92,0l1.14.08.63.08c.24,0,.35.08.67.11a14,14,0,0,1,1.64.3l1.83.43c.68.17,1.23.37,2,.59s1.5.47,2.23.75l2.36.92.61.26.29.12h0s0,0,.08,0l.23,0,.09,0,.16-.07.28-.15.37-.24.38-.28c1.14-.84,2.69-2.16,4.71-3.66s4.32-3.19,6.88-4.88,5.27-3.43,7.94-5c.69-.44,1.25-.74,2-1.2l3.39-1.76c2.28-1.21,4.56-2.47,6.87-3.81-.06,7.32,1,13.26,1.57,19a58.67,58.67,0,0,1,.32,8.48c0,.72-.08,1.43-.15,2.16,0,.35-.08.71-.13,1.09,0,.18-.05.36-.07.55a1,1,0,0,0,0,.52c.3,1.28.63,2.49.92,3.76.37.39.7.76,1,1.06a1.65,1.65,0,0,0,.53.4c.44,0,.9,0,1.37,0,1.86,0,3.88-.27,5.8-.39C613.36,1578.47,616.81,1578.62,618,1581.39ZM496.5,1072.55c-1.54,2.85-6.23,4-4.81,8.41-8.79-3.78-19.05-4.76-29.37-4.83s-20.71.75-29.47.74c-27.91-5.4-53.83-10.82-80.29-18.86q-9.92-3-20-6.64c-6.79-2.46-14.2-5.41-22.28-9.21a213.44,213.44,0,0,1-26.13-14.57c-2.29-1.46-4.73-3.2-7.09-4.87-1.17-.81-2.42-1.78-3.63-2.69s-2.42-1.84-3.65-2.81a185.67,185.67,0,0,1-14.89-13.28q-1.44-1.68-2.77-3.33c-.9-1.15-1.77-2.28-2.61-3.41s-1.66-2.23-2.45-3.33-1.55-2.28-2.3-3.4a142.18,142.18,0,0,1-7.65-13.12c-1.15-2.12-2.2-4.35-3.24-6.58s-2-4.49-3-6.77-1.9-4.7-2.86-7.13-1.95-4.9-2.81-7.53a175.31,175.31,0,0,1-14.47-55.21,198.9,198.9,0,0,1,1.75-49c.15-.92.28-1.88.44-2.77l.49-2.66c.34-1.77.69-3.54,1-5.31.72-3.47,1.53-6.79,2.34-10.16.86-3.21,1.72-6.47,2.65-9.6s1.88-6.19,2.88-9.12A337.8,337.8,0,0,1,235.21,773a643.67,643.67,0,0,1,30.65-58.85c1.32-2.2,2.63-4.46,3.95-6.61l2-3.26c.71-1.13,1.41-2.26,2.11-3.39,3-4.69,6.24-9.65,10.06-14.92s8.07-10.73,13.15-16.47A177.22,177.22,0,0,1,315,651.94a149.33,149.33,0,0,1,28.95-19.38c1.49-.76,3-1.49,4.49-2.21s3.16-1.42,4.74-2.1,3.25-1.34,4.93-2,3.32-1.26,5.1-1.84a137.11,137.11,0,0,1,45.53-7.26A148.06,148.06,0,0,1,432,619.46a141.09,141.09,0,0,1,41.65,15c2.88,1.64,5.73,3.34,8.51,5.1,1.45.88,2.63,1.74,3.91,2.62l3.73,2.68c1.23.9,2.46,1.81,3.66,2.73l3.28,2.68L500,653c1,.9,2.18,1.85,3.09,2.73q2.85,2.67,5.63,5.38l1.38,1.36,1.25,1.3,2.47,2.62c3.39,3.57,6.15,6.88,9,10.28,5.4,6.6,10.26,13,14.51,18.9s8.27,11.59,12.2,17q1.14,2.64,2.33,5.34l.28.68c.11.24.2.45.26.62l.42,1.12c.29.75.57,1.51.86,2.26q1.69,4.54,3.38,9.28c.27.78.57,1.59.82,2.36s.49,1.56.74,2.35l1.46,4.73,1.44,4.79.72,2.42c.21.78.42,1.57.62,2.36q1.23,4.74,2.47,9.55l.6,2.4.53,2.34c.34,1.56.69,3.12,1,4.68l1,4.69.51,2.33.45,2.27c.6,3,1.19,6,1.79,9,1.08,5.76,2.16,11.46,3.21,17,.49,2.69,1,5.34,1.52,8l1.5,7.47c.51,2.4,1,4.81,1.58,7.05s1.07,4.37,1.64,6.46a111,111,0,0,0,3.66,11.31c0,.91,0,1.84,0,2.79a4.7,4.7,0,0,1-.06,1l-.09.8c-.11,1.07-.19,2.18-.25,3.33,0,.56,0,1.14-.08,1.72s0,1,0,1.54c0,1,0,2.1.07,3.19a87.5,87.5,0,0,0,2,13.83c.48,2.42,1.17,4.82,1.77,7.29s1.39,4.91,2.2,7.37c1.58,4.93,3.39,9.85,5,15a45.23,45.23,0,0,0,20.24,12.24,51.74,51.74,0,0,0,20.93,1.31,72,72,0,0,0,10.1-2.06c3.31-.93,6.55-2.07,9.75-3.3s6.37-2.58,9.67-3.87,6.73-2.63,10.58-3.92a31.4,31.4,0,0,1-7.13,10.1,47.33,47.33,0,0,1-9.92,7.15c-3.55,1.94-7.21,3.49-10.7,5.12a37.7,37.7,0,0,0-9.81,6.15c-7.36-2-14.61-2.33-21.74-3.06a95.56,95.56,0,0,1-10.28-1.48,36.13,36.13,0,0,1-8.85-3c-4.4-2.34-8.72-6.31-12.62-10.78-2-2.21-3.83-4.58-5.68-6.87s-3.62-4.59-5.37-6.73c-2.16-2.6-4.21-4.9-6.1-7.28l-2.89-3.6c-.93-1.24-1.85-2.55-2.79-3.94a50.67,50.67,0,0,1-2.73-4.55,56.45,56.45,0,0,1-2.64-5.44c-.84-2-1.73-4.16-2.5-6.59s-1.58-5-2.34-8.22l-.93-3.73c-.13-.5-.36-1.53-.55-2.38l-.59-2.64-2.35-10.75c-.81-3.72-1.63-7.49-2.48-11.37q-.68-3-1.36-6c-.46-2-1-4.18-1.51-6.31-4.4-17.87-7.76-38.32-13.38-59-.75-2.59-1.48-5.16-2.21-7.71-.38-1.28-.75-2.55-1.12-3.81s-.85-2.56-1.27-3.82c-1.78-5.15-3.22-9.73-5.78-15.63a136.66,136.66,0,0,0-18.62-31.35,98,98,0,0,0-15.67-14.91c-2.91-2.35-6.36-4.73-9.62-7-.79-.57-1.71-1.15-2.6-1.73l-2.66-1.73c-1.8-1.15-3.46-2.3-5.43-3.44-2.24-1.35-4.53-2.7-6.88-4q-3.78-1.93-7.73-3.78c-.67-.3-1.31-.62-2-.9l-2.12-.84c-1.43-.56-2.87-1.1-4.33-1.63s-2.89-1.07-4.44-1.51-3.09-.87-4.65-1.28-3.16-.79-4.75-1.16-3.22-.6-4.86-.87-3.28-.49-4.94-.7l-2.49-.3-2.48-.19a103.23,103.23,0,0,0-20.23.54,108.55,108.55,0,0,0-19.53,4.3,111.76,111.76,0,0,0-17,7.05,114.33,114.33,0,0,0-25.1,17.43c-.49.46-1.09,1.08-1.77,1.83s-1.45,1.63-2.2,2.58c-1.56,1.91-3.21,4.13-4.75,6.31-3.09,4.38-5.72,8.6-7.23,10.34-4.6,5.29-9.39,10.09-13.82,14.57-2.2,2.23-4.35,4.41-6.24,6.42a76.09,76.09,0,0,0-5.39,6.26,304.41,304.41,0,0,0-32.46,52.7c-.63,1.33-1.26,2.65-1.9,4l-1.85,4.13c-1.24,2.72-2.41,5.63-3.59,8.51s-2.29,6-3.42,9c-.53,1.56-1.07,3.13-1.6,4.7s-1.07,3.14-1.56,4.79A205.55,205.55,0,0,0,234,859.4a165.55,165.55,0,0,0,4,53.87c.62,2.39,1.27,4.78,1.94,7.15s1.55,4.76,2.36,7.13l1.27,3.54c.45,1.18.94,2.34,1.43,3.51,1,2.33,2,4.66,3,6.95,2.25,4.53,4.52,9.09,7.18,13.33,1.31,2.13,2.59,4.34,4,6.35s2.84,4.06,4.29,6.06l1.09,1.5,1.17,1.49,2.39,3c1.59,2,3.24,3.79,4.9,5.67,3.32,3.66,6.73,7.05,10.17,10.22a179.1,179.1,0,0,0,20.59,16.28,263.55,263.55,0,0,0,37.4,20.82c8.94,4.14,17.24,8.27,25.62,12a188.77,188.77,0,0,0,25.73,9.58c12,3.34,25.62,4.13,37.41,7.19s22.39,7.43,33.05,11S484.46,1072.61,496.5,1072.55Zm127.42-197.1c1.5,1.91,2.5-.82,2.33,2.56-1.26,2.75-2.79,3.21-3.56,2.38S622,877.52,623.92,875.45Z"/><path class="b" d="M1203.3,1430.32c2.19-.54,3-2.65,4.58-4a4.93,4.93,0,0,0,4.77.69,14.93,14.93,0,0,0,4.66-2.9c2.94-2.45,5.17-5,8.73-2.84a27.35,27.35,0,0,1-8.66,7,22.66,22.66,0,0,1-10,2.37c-6.83,0-13.33-2.32-20.19-5,1.51-2.11,5.16-1.47,8.67-.16S1203,1428.79,1203.3,1430.32Z"/><path class="b" d="M1177.34,1418.23l.73.26.34.1a5.44,5.44,0,0,0,.63.13,3.32,3.32,0,0,0,1.1,0,5.45,5.45,0,0,0,1.76-.82c1.11-.69,2.12-1.44,3.63-.91-1,1.93-2.66,2.54-4.39,3.16a28.13,28.13,0,0,0-2.64,1.07,7.44,7.44,0,0,0-1.29.83,6.32,6.32,0,0,0-.6.56l-.14.16c-.06,0-.18.07-.26.12a4.2,4.2,0,0,0-.52.26c-4.2-1.6-2.9-1.74-1-2,.48-.08,1-.15,1.47-.27a4.5,4.5,0,0,0,.68-.2c.21-.07.42-.15.47-.3a2.53,2.53,0,0,0,.38-.87,2.84,2.84,0,0,0,.07-.52C1177.78,1418.76,1177.54,1418.49,1177.34,1418.23Z"/><path class="b" d="M641,1103.69c1.34-.53,2.8-1,4.38-1.5s3.24-1,5-1.54l2.72-.77,2.83-.85c1.92-.59,3.94-1.08,6-1.77a244,244,0,0,0,26.32-9.62,190,190,0,0,0,25.86-13.76,131.62,131.62,0,0,0,20.36-15.79,108.33,108.33,0,0,1-18.59,16.48A150.23,150.23,0,0,1,692.53,1088a186.81,186.81,0,0,1-25.74,9.63l-6.54,1.83-6.52,1.58-6.43,1.41C645.17,1102.91,643.05,1103.25,641,1103.69Z"/></svg>