<svg xmlns="http://www.w3.org/2000/svg" viewBox="0 0 960 700"><path d="M216.45,532.73l36.74-121.8L289.8,289.56,326.41,168.2c6.07-20.14,11.93-40.35,18.23-60.42a34,34,0,0,1,1.89-5,27.88,27.88,0,0,1,1.55-2.9,8.45,8.45,0,0,1,1.4-1.87c2.68-2.85,5.64-4.28,9.71-5.64-.77.25.36-.11.42-.13.46-.13.92-.27,1.38-.39,1-.29,2.08-.55,3.12-.8,2.47-.6,4.94-1.16,7.41-1.7q7.46-1.65,15-3a435.94,435.94,0,0,1,120.58-5.22c4.92.47,9.83,1,14.73,1.65a5.74,5.74,0,0,0,6.46-6.08c-.42-4-4.22-6.46-7.89-6.93a452.22,452.22,0,0,0-124.28,1.34q-15.09,2.25-30,5.55c-9.1,2-19.18,3.84-26.38,10.24s-9.35,16.89-12.05,25.86l-9.32,30.88L281.2,266.7,243.94,390.24,206.8,513.34l-4.59,15.23c-1.08,3.57,2.79,7.47,6,8.26,3.67.92,7.14-.33,8.28-4.1Z"/><path d="M258.1,274.89a618,618,0,0,1,74.79-1.25q18.24.81,36.42,2.71c5.48.58,11.32.79,16.67,2.15.6.15,1.19.33,1.77.53-.28-.1-1-.47.15.07,1,.45,1.88.89,2.8,1.41-1.42-.8.23.19.44.35l.91.73c-1.83-1.45.19-.06.09.2l-.56-.79a9,9,0,0,1,.5.85c-.2.47-.81-2.45-.56-1.4l0,.22c0-.83,0-.91-.05-.24-.27-.55.39-.55-.15.17l-.12.22c.53-.58.32-.29-.63.88-.4.7-.65,1.47-1.08,2.17,0,0-.87,1.22-.38.59s-.67.71-.79.83a14.33,14.33,0,0,1-1.75,1.45,9,9,0,0,1-.76.5c1.08-.64-.26.08-.42.16a17.82,17.82,0,0,1-2.18.83l-.9.25-.93.21c.64-.12.64-.12,0,0a29.46,29.46,0,0,1-4.88.07c1.39.12-1-.19-1.37-.28s-.65-.15-1-.24-2-.64-1.09-.31-.51-.22-.58-.25c-.38-.16-.75-.34-1.12-.53s-.72-.4-1.09-.59c1.54.8.54.37.13.06s-.66-.48-1-.74-1.45-.9-.38-.29,0-.07-.3-.36c-1.23-1.37.11-.2,0,.08a20.85,20.85,0,0,0-1.35-2.26c.7,1.41-.15-.49-.22-.66-.15-.4-.26-.81-.41-1.2-.65-1.81.12,1.11-.2-.78-.07-.41-.15-.83-.21-1.24-.09-.62-.15-1.25-.19-1.88,0,0,0-1.86,0-.95A27.11,27.11,0,0,1,369.38,264c4.29-8.48,11.93-14.36,20.62-18.31,9.3-4.23,19.42-6.75,29.34-9.08a87.78,87.78,0,0,1,14-2.29,51.41,51.41,0,0,1,6.91-.07,31.36,31.36,0,0,1,6.34,1.15c-.16,0,1.88.63,1.06.33s1.17.51,1,.44c.5.23,1,.47,1.48.73.29.15,1.54.89.43.19a27.66,27.66,0,0,1,2.69,2c1.12.93.12.14-.08-.07.57.62,1.13,1.24,1.68,1.87.26.31.71,1.18-.07-.1.32.53.69,1,1,1.57.21.36.41.73.61,1.1,1,1.74-.43-1.3.27.58.37,1,.77,2,1.08,3,.12.41.24.81.34,1.22-.3-1.18.17.9.21,1.14,1.53,8.76-.86,17.63-5.45,25.89-5.19,9.34-12.47,17.34-19.48,25.32q-10.8,12.31-22.14,24.17-22.77,23.83-47.51,45.71A784.42,784.42,0,0,1,258.35,449q-6.62,4.13-13.31,8.1c-4.79,2.83-1.73,8.24,1.39,11.11,18.9,17.46,43.65,25.92,67.46,34.31,11.45,4,22.27,7.92,33.56,13.41q7.83,3.79,15.35,8.22c1.27.75,2.53,1.5,3.79,2.27l.72.45,2,1.27q3.71,2.39,7.33,4.9a300.57,300.57,0,0,1,27.23,21.42q3.35,2.94,6.61,5.94l1,.95,1,1q1.75,1.65,3.48,3.31,6.33,6.1,12.45,12.42c16.62,17.12,32.21,35.19,48,53.09s31.71,35.68,49,52.14q3.74,3.56,7.53,7c2.17,2,6.67,2.74,8.24-.32,1.74-3.4-1.11-7.15-3.45-9.29l-1.52-1.41c-1.08-1,.51.49-.56-.52l-3.52-3.34q-3.14-3-6.21-6-6.42-6.39-12.64-13c-8.18-8.64-16.15-17.48-24-26.39-15.92-18-31.52-36.21-48-53.62s-33.73-33.85-52.89-48A257.8,257.8,0,0,0,358.2,509,253.07,253.07,0,0,0,324,493.9c-11.82-4.35-23.36-8.07-34.51-12.59-5.68-2.3-11.29-4.8-16.71-7.65-2.44-1.28-5.88-3.24-7.58-4.31.59.37-.4-.26-.41-.27l-.9-.59c-.6-.39-1.19-.79-1.78-1.19-1.27-.88-2.53-1.79-3.76-2.72q-3.73-2.83-7.17-6l1.39,11.12a791.52,791.52,0,0,0,116.33-83.82q26.81-23.33,51.45-49,12.28-12.82,24-26.21c7.73-8.85,15.82-17.85,21.2-28.39,4.91-9.6,7.22-20.67,4.9-31.34-2.49-11.5-9.77-21.88-20.83-26.55-10.61-4.49-22-3.59-33-1.4-10.83,2.16-21.94,5-32.13,9.24S364.8,243,359,252.74c-5.38,9-7.25,20.58-3.26,30.5A29.62,29.62,0,0,0,378,301.47c8.45,1.43,17.57-.48,22.7-7.85a13.56,13.56,0,0,0,1.2-2.05l.21-.44c-.68.51-.5.21.53-.9a7.08,7.08,0,0,0,.53-.88,11.22,11.22,0,0,0,.21-8.61c-2-5.77-7.34-10.11-12.69-12.71s-10.8-3.08-16.55-3.75q-10.51-1.25-21.06-2.16a613.91,613.91,0,0,0-80.12-1.58q-9.78.45-19.56,1.21c-8.29.64-1.75,13.64,4.72,13.14Z"/><path d="M508.28,288.2q35.85,15.3,72.53,28.48,37.32,13.4,75.38,24.55,21.1,6.21,42.39,11.72c2.22.58,6.11-.18,4.86-3.29-1.32-3.3-5.13-5.27-8.36-6.11q-18.75-4.85-37.35-10.24L653.14,332c-1.54-.46,1.16.34.16,0l-1.15-.34-2.75-.82c-3-.91-6.11-1.83-9.15-2.77q-9.25-2.83-18.47-5.81-37-11.92-73.2-26-20.28-7.87-40.29-16.42a8.57,8.57,0,0,0-4.77-.61,2.41,2.41,0,0,0-2.07,2.22c.13,3.35,4.21,5.63,6.83,6.75Z"/></svg>