<svg xmlns="http://www.w3.org/2000/svg" viewBox="0 0 1920 1920"><defs><style>.a{fill:none;}.b{fill-rule:evenodd;}</style></defs><path class="a" d="M1103.55,485.47c25.34-.75,49.57-1.43,72.68-1.59s45.1.17,65.85,1.34a528.58,528.58,0,0,1,58.28,6.25l6.76,1.14c2.24.39,4.37.89,6.56,1.32s4.37.85,6.51,1.32l6.3,1.51,3.16.73,1.56.37,1.44.39c1.92.51,3.85,1,5.75,1.57l2.86.82,2.83.88c1.89.55,3.76,1.18,5.62,1.8,29.85,9.85,55.91,25,72.5,40.56a122.7,122.7,0,0,1,11,11.56,90.15,90.15,0,0,1,8,11.29c.28.47.56.93.85,1.38l.74,1.4c.25.48.52.88.78,1.41s.52,1.07.79,1.6c.6,1.05,1,2.13,1.52,3.17s.88,2.13,1.38,3.17a94.5,94.5,0,0,1,6.47,27.27c.28,2.53.35,5.22.47,8s0,5.61-.11,8.6a190.44,190.44,0,0,1-6.55,40.46,326.11,326.11,0,0,1-17,47.6A499.22,499.22,0,0,1,1404,761.56c-10.11,17.15-21.51,34.38-33.81,51.45s-25.53,34-39.5,50.59c-1.74,2.08-3.49,4.15-5.27,6.22l-1.32,1.55-1.39,1.61-3,3.36L1308,889.8l-11.81,13.47c-2,2.26-4,4.46-6,6.67l-6,6.62-12.05,13.26c-4,4.4-8,8.88-12.12,13.18l-24.57,26.08a2510.79,2510.79,0,0,1-440.16,365.39l-17,11.2c-7,4.66-13.9,9.39-20.89,14.47-3.48,2.48-7,5.13-10.48,7.72l-5.26,4-2.63,2-2.64,2.1-5.28,4.21-5.3,4.38-2.65,2.2-2.67,2.29-5.32,4.61-5.35,4.81-2.67,2.42-2.7,2.53-5.37,5.1-5.42,5.35-2.69,2.7c-.9.91-1.82,1.89-2.73,2.83l-5.42,5.72c-1.82,2-3.65,4-5.47,6.06l-2.71,3.06-2.75,3.22L666.4,1444l-5.48,7c-.91,1.18-1.81,2.31-2.72,3.53l-2.74,3.75-2.71,3.77c-.9,1.28-1.78,2.47-2.7,3.86q-2.71,4-5.38,8.12l-1.33,2-1.34,2.19-2.65,4.39c-3.49,5.69-7,12.28-10.27,18.64a278.45,278.45,0,0,0-17.77,44.89,250.88,250.88,0,0,0-9.61,55.1c-.25,5-.39,9.94-.43,14.9s.28,10.09.58,15.13.9,10.07,1.54,15.1q.5,3.77,1.07,7.52c.37,2.51.9,4.94,1.39,7.4,1,4.9,2.08,9.84,3.34,14.63s2.71,9.4,4.21,14.06l1.14,3.48c.4,1.14.81,2.22,1.22,3.33q1.25,3.32,2.55,6.6c1.77,4.42,3.44,8.62,5.72,13.29s4.41,9.1,6.8,13.49,4.95,8.59,7.56,12.8c1.3,2.15,2.65,4.11,4,6.11s2.75,4,4.15,5.94,2.82,4,4.26,5.8,2.9,3.68,4.38,5.49c2.95,3.63,6,7.27,9,10.51q2.29,2.49,4.62,4.95l2.34,2.44,1.18,1.21,1.17,1.14q4.66,4.53,9.48,8.91l1.2,1.09,1.19,1,2.38,2,4.81,4,2.42,2,1.22,1,1.2.91,4.81,3.6c3.22,2.37,6.5,4.75,9.67,6.82s6.47,4.28,9.68,6.25,6.39,3.79,9.62,5.64a308.28,308.28,0,0,0,38,17.92,325.35,325.35,0,0,0,37.58,11.88q4.65,1.11,9.31,2.14c3.11.68,6.23,1.41,9.34,1.93s6.23,1.09,9.35,1.6l4.68.75c1.57.24,3.12.4,4.67.6a337,337,0,0,0,73.72,1.27,353,353,0,0,0,69.48-13.55,364.43,364.43,0,0,0,121.16-63.3,359.7,359.7,0,0,0,50.23-48.31,344.81,344.81,0,0,0,41-59.52l2.21-4L1204,1675q2.09-4.17,4.11-8.37c1.38-2.77,2.61-5.66,3.86-8.54s2.47-5.76,3.68-8.65c2.36-5.83,4.48-11.82,6.61-17.78s3.81-12.13,5.59-18.23a372.81,372.81,0,0,0,10.4-53.57,434.29,434.29,0,0,0,3-48.85c.11-15.29-.49-29.54-1.38-42.78s-2.1-25.38-3.29-36.67l-3.47-31.14c-1.05-9.48-2-18.14-2.57-25.77-1.27-15.32-1.35-26.91-.71-34.39.11-.87.15-1.83.25-2.64s.22-1.53.29-2.29.25-1.27.33-1.92.29-1.21.38-1.83a64.15,64.15,0,0,1,2.31-7.71,91.26,91.26,0,0,1,10.43-19.56,182.15,182.15,0,0,1,20.6-24.74,327.18,327.18,0,0,1,30.26-27c11.53-9.07,24.18-18.14,37.85-27.06,6.7-4.35,13.06-8.36,18.66-11.59.74-.46,1.39-.8,2.06-1.18l2-1.13,2-1.13,1.85-1,1.83-1c.61-.33,1.24-.68,1.77-.91,1.1-.52,2.2-1.06,3.29-1.61,4.1-1.89,7.42-3.19,9.62-4,.88-.15,1.88-.61,2.17-.57a1.51,1.51,0,0,0,.33-.13c.07,0,0,0,.06,0l0,0h0l-.12-.65-.22-1.37-.41-2.75-.18-1.35-.19-1a87,87,0,0,1-1.06-8.74l-.07-1.13-.1-.82-.16-1.63c-.09-1.09-.15-2.21-.19-3.34l0-1.72V1176c0-.16,0-.25,0-.34l0-.27c0-.74,0-1.5,0-2.28s0-1.56.09-2.37l0-.62,0-.27v-.15l0-.61c0-.42,0-.86.1-1.31l2-14.83a8.79,8.79,0,0,1,.18-1.07v0h0v-.09l0,.13-.07.26-.15.42a44.15,44.15,0,0,1-5.14,9.61,81,81,0,0,1-12.13,13.84,91.32,91.32,0,0,1-14.65,11l-.81.5-.4.24h0l0,0a.13.13,0,0,0,.07.17c0,.08,0,.22.12.29s0,.11.06.18a.46.46,0,0,0,.08.19.29.29,0,0,1,.08.21c0,.07,0,.2,0,.11s0-.12,0-.09h0s-.09,0,0,0l-.07,0s.07,0,0,0-.06,0,0,0l0,0,0,0,0,0,0,0s.09.06,0,0,0,0-.07.06a1.85,1.85,0,0,0-.19.27c0,.11-.14.17-.23.24l-.26.23-.22.27a.58.58,0,0,1-.24.25,2.43,2.43,0,0,0-.53.48c-.12.21-.36.3-.54.45a4.85,4.85,0,0,0-.52.49,2.76,2.76,0,0,0-.58.38l-.25.25c-.09.06-.2.09-.29.14a12.2,12.2,0,0,1-3.43,1.79.25.25,0,0,0-.2.12,6.81,6.81,0,0,0-.86.16l-.43.14a.8.8,0,0,1-.42.11,4.08,4.08,0,0,0-.85.14,2.8,2.8,0,0,0-.41.13c-.15,0-.31,0-.45,0a4.45,4.45,0,0,0-.89.13l-.21.07h-.25a4.17,4.17,0,0,0-.5,0,6.89,6.89,0,0,0-1,.13,61.08,61.08,0,0,1-12.52-1.08c-.36-.06-.69-.09-1.06-.16l-1.17-.27c-.78-.18-1.57-.34-2.36-.49l-5.21-1.32-2.85-.86c-1-.27-1.89-.51-3-.9-2.08-.73-4.07-1.26-6.33-2.16a305.3,305.3,0,0,1-29.72-12.77c-10.9-5.29-22.69-11.61-35.18-18.7s-25.68-14.91-39.63-23.28-28.67-17.26-44.45-26.49l-12-7-13-7.24-6.51-3.61-3.26-1.8-3.3-1.73-13.19-6.9-6.6-3.43-6.67-3.28-13.34-6.54c-2.22-1.11-4.47-2.15-6.72-3.18l-6.74-3.1c-4.5-2.06-9-4.15-13.5-6.17A1054.67,1054.67,0,0,0,932,1011.13l-7-2.23c-2.35-.75-4.72-1.4-7.08-2.1l-14.18-4.12c-4.72-1.41-9.49-2.62-14.24-3.89L875.2,995l-14.35-3.45-7.17-1.71c-2.4-.58-4.79-1.14-7.2-1.64l-14.42-3.08-7.21-1.54-7.24-1.38a1082.88,1082.88,0,0,0-116.77-16,1054.27,1054.27,0,0,0-117.93-2.92c-4.92.17-9.84.25-14.76.51l-14.76.8L546,965c-2.45.15-4.91.37-7.37.56l-14.74,1.16c-4.92.35-9.83.94-14.73,1.42l-14.73,1.55-14.7,1.87-7.34,1-3.68.48-3.66.55a1033.3,1033.3,0,0,0-116.42,23.92c-2.42.64-4.76,1.22-7.25,1.92l-7.45,2.09c-2.49.7-5.12,1.49-7.67,2.24l-3.85,1.14-4,1.23c-10.48,3.22-21.64,7-33.11,11.35l-8.69,3.37-8.92,3.71c-2.94,1.2-6,2.61-9.07,4s-6,2.7-9.2,4.28l-9.33,4.62c-3.16,1.64-6.36,3.38-9.52,5.09-1.59.88-3.14,1.69-4.76,2.64L221,1048l-4.82,2.87-2.4,1.45-2.45,1.56q-4.89,3.14-9.73,6.35c-3.25,2.2-6.54,4.59-9.77,6.92-1.63,1.19-3.23,2.33-4.86,3.58l-4.87,3.82-4.83,3.87-2.41,2c-.8.66-1.6,1.37-2.4,2.06q-4.82,4.17-9.53,8.45c-3.14,2.88-6.24,6-9.31,9-1.56,1.55-3,3-4.62,4.66q-2.55,2.71-5.07,5.48c-1.7,1.84-3.28,3.7-4.89,5.56s-3.21,3.75-4.72,5.65a287.68,287.68,0,0,0-31.65,48.11q-6.63,12.72-12.06,26.18a290.52,290.52,0,0,0-9.5,27.86,280,280,0,0,0-6.7,29.76A269.73,269.73,0,0,0,71,1285a260.72,260.72,0,0,0,.66,33.86,253.88,253.88,0,0,0,5.63,35.43,249.29,249.29,0,0,0,11.38,35.89A245.92,245.92,0,0,0,106,1424.7a253.7,253.7,0,0,0,21.3,29.78,266.63,266.63,0,0,0,22.85,24.07,293.86,293.86,0,0,0,44.45,33.83c1.74,1.07,3.54,2.2,5.23,3.2l5.14,3c3.35,1.91,6.75,3.82,10,5.53s6.43,3.32,9.63,4.92,6.38,3.16,9.59,4.67a407.44,407.44,0,0,0,79.39,27.14,428.77,428.77,0,0,0,80,10.42c6.55.18,13.14.38,19.62.26,3.24,0,6.51,0,9.74-.15l9.66-.41,4.82-.23,4.79-.35,9.56-.75c3.17-.3,6.31-.66,9.46-1s6.32-.68,9.43-1.14a495.31,495.31,0,0,0,72.87-15.39,521.15,521.15,0,0,0,68.42-25.31,528.09,528.09,0,0,0,64-34.5l7.66-5,3.82-2.51,3.56-2.49,14.17-10c4.79-3.3,9.23-6.85,13.76-10.36s9-7,13.47-10.61a692.31,692.31,0,0,0,92.6-93.09A927.63,927.63,0,0,0,895.52,1259c10.16-16.63,20-33.3,29.11-49.83l3.45-6.21c1.15-2.07,2.29-4.14,3.38-6.19l6.6-12.36c2.17-4.05,4.45-8.38,6.79-13l3.51-6.91,3.55-7.19c1.19-2.45,2.38-4.89,3.57-7.45s2.39-5.11,3.58-7.71l1.8-4,1.26-2.84,1.25-2.87c1.64-3.83,3.26-7.66,4.81-11.52a422.56,422.56,0,0,0,16-47.1c8.72-31.88,13-64.65,11.75-97.07A281.44,281.44,0,0,0,990,928.69c-.83-4-1.8-7.88-2.79-11.79-1.17-3.87-2.19-7.78-3.34-11.65l-1.72-5.8c-.56-1.94-1.3-3.82-2-5.73-1.35-3.8-2.74-7.6-4.16-11.37s-3.17-7.43-4.8-11.12c-.82-1.85-1.62-3.7-2.5-5.52L966,860.3l-2.76-5.4c-.93-1.79-1.84-3.59-2.87-5.33q-3-5.25-6.12-10.46c-1-1.75-2.13-3.44-3.23-5.13l-3.35-5.06-3.39-5c-1.16-1.66-2.38-3.27-3.58-4.9-2.43-3.24-4.84-6.5-7.37-9.66s-5.19-6.23-7.83-9.32-5.45-6-8.23-9-5.59-5.91-8.58-8.69-5.92-5.62-8.92-8.39-6.18-5.36-9.3-8c-1.57-1.31-3.13-2.63-4.73-3.92l-4.86-3.78c-3.27-2.5-6.52-5-9.87-7.4-6.75-4.74-13.52-9.45-20.61-13.74a453.39,453.39,0,0,0-43.77-23.74c-.91-.44-1.95-.92-2.95-1.38l-3-1.38-5.06-2.29c-2.78-1.28-5.38-2.34-8.06-3.49l-4-1.7c-1.33-.56-2.68-1.14-4-1.64l-7.77-3.1c-2.62-1.06-5.11-2-7.62-3l-7.54-2.83L749.32,690l-3.67-1.31-3.56-1.23L735,685l-6.93-2.3c-4.68-1.57-9.07-2.95-13.57-4.4l-13-4.1L689,670.31l-23.36-7.17c-7.25-2.27-14.38-4.5-20.68-6.61l-2.41-.8-.61-.2-.49-.18-1-.36-3.89-1.41-3.89-1.4c-1.29-.47-2.61-.86-3.88-1.43l-7.69-3.13c-1.28-.54-2.59-1-3.84-1.58l-3.79-1.74-7.61-3.43-7.47-3.77-3.76-1.85-3.66-2-7.38-4-7.2-4.35-3.62-2.15c-1.19-.73-2.34-1.55-3.52-2.31l-7.06-4.6c-2.33-1.58-4.58-3.28-6.88-4.88l-3.45-2.43-1-.7-.07,0-.29-.22,0,0L575.72,592,409.87,312.12c-8.14,4.86-16.26,9.75-24.3,14.77l-6,3.76-8.2,5.2c-7,4.5-13.93,9.11-20.9,13.66-27.68,18.44-54.5,37.87-80.26,57.85-3.25,2.48-6.36,5-9.55,7.56l-4.75,3.78c-1.58,1.27-3.22,2.51-4.68,3.83l-9,7.84c-1.48,1.32-3,2.6-4.46,3.94l-4.11,4.08-8.21,8.16c-.71.67-1.29,1.38-1.91,2.07l-1.85,2.1L218,454.93l-3.63,4.22c-.58.71-1.24,1.41-1.76,2.12L211,463.42,204.65,472a97.65,97.65,0,0,0-5.73,8.63c-1.8,2.89-3.65,5.77-5.39,8.66-3.28,5.77-6.27,11.55-8.91,17.47A197.33,197.33,0,0,0,172,544.42c-.73,3.38-1.31,6.84-2,10.33L169,560l-.23,1.32-.17,1.34-.33,2.68-.16,1.34c.22.47,0,.9,0,1.35l-.27,2.7-.54,5.37c-.3,3.58-.37,7.16-.43,10.7a200.93,200.93,0,0,0,3.66,40.72q1,4.92,2.11,9.79c.8,3.25,1.69,6.49,2.62,9.74a23.58,23.58,0,0,0,.85,2.44L177,652l1.86,4.9,3.72,9.81,3.73,9.8a31.09,31.09,0,0,0,2.4,4.89l2.68,4.88,10.71,19.52,1.35,2.44,1.68,2.38,3.36,4.75,6.73,9.51c4.52,6.32,8.76,12.73,13.92,18.87L244,762.32l1.86,2.33c.61.77,1.22,1.55,1.92,2.29l4.07,4.5,8.12,9,8.13,9,4.08,4.49,4.35,4.34L294,815.63l4.36,4.33c1.48,1.43,3.09,2.75,4.63,4.13l9.32,8.2,9.33,8.19c3.12,2.73,6.2,5.52,9.37,8.08q9.48,7.82,19.25,15.3l4.9,3.72,2.38,1.77,1.68,1.2,6.73,4.81c4.5,3.18,9,6.42,13.52,9.51L393.27,894c2.32,1.5,4.61,3,7,4.49l7.08,4.28,14.21,8.5,14.52,8,7.27,4,7.41,3.75,14.86,7.4c5,2.37,10.07,4.62,15.12,6.92l7.59,3.4c2.52,1.15,5.12,2.14,7.69,3.21l15.45,6.25c2.56,1.07,5.21,2,7.82,2.93l7.86,2.83,7.86,2.82,2,.7,1,.34.88.29,3.51,1.17c9.49,3.17,18.26,5.9,26.89,8.6l24.39,7.49L605,984.81l10.79,3.39c3.43,1.11,7,2.22,10.19,3.31l4.92,1.63,4.68,1.61,2.35.81,2.2.79,4.42,1.59,4.15,1.56c1.38.52,2.8,1,4,1.55l3.82,1.53c.67.25,1.23.5,1.81.75l1.75.75c1.14.49,2.41,1,3.4,1.46l.78.36-.16-.06-.18-.09-.12-.07h0s0,0,0,0,0,0,0,0v0l0,0-.77,1.72-1.67,3.61-1.83,3.81-2,4-2.14,4.23c-1.45,2.84-3,5.87-4.81,9.15l-5.17,9.67c-.85,1.63-1.72,3.21-2.6,4.77l-2.62,4.71c-6.93,12.67-14.09,24.63-21.26,36.43a604.71,604.71,0,0,1-45,63.55,368.51,368.51,0,0,1-47.91,48.51l-6.18,4.8c-2,1.6-4.06,3.31-6.17,4.68s-4.16,2.91-6.22,4.4l-1.54,1.12-1.41.9-2.79,1.84a204.28,204.28,0,0,1-23.89,12.87,195.74,195.74,0,0,1-25.19,9.33,171.39,171.39,0,0,1-24.77,5.27c-1,.18-2,.23-3,.35l-2.95.33c-1,.06-1.93.13-2.89.21l-1.44.13-1.41,0c-.94,0-1.88.08-2.82.14s-1.83,0-2.74,0c-1.85.09-3.59,0-5.36-.06-.9,0-1.72-.1-2.58-.14s-1.72-.06-2.54-.15-1.64-.18-2.46-.25c-.4,0-.82-.05-1.22-.1l-1.18-.18c-.78-.11-1.57-.21-2.36-.29s-1.5-.3-2.25-.42c-1.55-.18-2.9-.63-4.37-.86a82.38,82.38,0,0,1-15-5c-.55-.27-1.07-.58-1.62-.83s-1.17-.52-1.5-.73-.67-.38-1-.52a1.38,1.38,0,0,0-.24-.14c-.1,0,0,0-.08-.06-.11.16.21-.35-.24.35l-1.29,2c-.76,1.22-1.53,2.43-2.31,3.64s-1.58,2.42-2.39,3.61l-1.23,1.8-1.11,1.66q-2.17,3.27-4.53,6.47l-2.12,3c-.7,1-1.41,1.93-2.14,2.89l-4.13,5.4c-1.34,1.7-2.85,3.47-4,4.93s-2.58,3.06-3.87,4.5-2.34,2.68-3.58,4a128.43,128.43,0,0,1-12.51,12c-1.59,1.39-3.48,2.77-4.76,3.72l-2,1.4-.89.59-2.95,1.8a9.21,9.21,0,0,1,1.26-.58,29.37,29.37,0,0,1,4.59-1.41,48.83,48.83,0,0,1,7.28-1.13,64.31,64.31,0,0,1,8.83-.15,75.33,75.33,0,0,1,16.89,2.72,54.07,54.07,0,0,1,5.59,1.89c1.35.53,2.25,1,2.61,1.17a5.22,5.22,0,1,0-.51-.33,39.08,39.08,0,0,1-3.25-2.41l-1.15-1-1.24-1.1c-.45-.4-.89-.81-1.33-1.24l24.27,23.19c.51.51,1,1,1.48,1.52l.7.77.34.38.51.52c1.35,1.4,2.61,2.83,3.8,4.27l.91,1.12,1.17,1.36.05,0s0,0,0-.06.14-.06.19-.1.21-.19.4-.32a4.35,4.35,0,0,0,.74-.46l.17-.14.28-.14.56-.31.53-.35c.17-.12.48-.24.71-.37.51-.25,1-.53,1.49-.82s1.24-.58,1.86-.9,1.41-.64,2.12-1,1.43-.69,2.36-1,1.74-.72,2.6-1.1l3-1.13c4.12-1.54,8.7-3.16,14.14-4.82l2-.62,2.13-.63,4.32-1.26,4.57-1.28c1.51-.43,3.22-.84,4.82-1.27a709,709,0,0,1,79.18-16.25l2.51-.4,2.51-.31,5-.65,10.08-1.3,10.11-1c3.38-.33,6.74-.77,10.13-1l10.15-.8c1.69-.13,3.38-.29,5.08-.39l5.09-.27,10.18-.56c3.39-.2,6.79-.22,10.19-.35a730.74,730.74,0,0,1,81.7,2,757.38,757.38,0,0,1,81.06,11.14l5,.94,5,1.08,10,2.13c1.67.34,3.33.73,5,1.14l5,1.19,9.94,2.38,9.87,2.62c3.29.88,6.6,1.69,9.85,2.68l9.8,2.85c1.63.49,3.28.92,4.9,1.44l4.85,1.55a730.39,730.39,0,0,1,76.1,28.6l9.21,4.23,4.6,2.11c1.54.7,3.07,1.4,4.57,2.16l9.08,4.46,4.54,2.21,4.47,2.34,9,4.67,2.24,1.17,2.2,1.23,4.4,2.45,8.82,4.89,9.55,5.53c13,7.58,26.75,15.91,41.36,24.67s30,18,46.52,27.29,34,18.84,53,28.11a631.35,631.35,0,0,0,62.11,26.43c5.51,2.07,11.5,4,17.31,5.9,2.87,1,5.94,1.87,9,2.76l9.12,2.67c3.09.85,6.3,1.65,9.45,2.46l4.74,1.2c1.59.39,3.15.8,4.81,1.15l9.86,2.12,4.93,1c1.68.32,3.4.61,5.1.91a384,384,0,0,0,86.91,5.81c3.81-.23,7.64-.53,11.46-.84l5.73-.48,2.86-.27,2.87-.36q5.76-.73,11.49-1.55c1.92-.28,3.83-.54,5.74-.86l5.71-1.06q5.71-1.08,11.41-2.26c1.9-.36,3.78-.83,5.65-1.29l5.63-1.41c3.75-1,7.46-1.92,11.23-3s7.8-2.41,11.69-3.67a337.13,337.13,0,0,0,85.72-42.51c1.63-1.11,3.27-2.21,4.88-3.34l4.74-3.51q4.72-3.51,9.4-7.12c3.07-2.45,6.07-5,9.08-7.5s6-5.06,8.86-7.76,5.75-5.35,8.59-8.06c1.43-1.33,2.81-2.73,4.18-4.15l4.1-4.23,4.07-4.28c1.35-1.42,2.7-2.85,4-4.35l3.88-4.46,4-4.68c2.72-3.12,5.25-6.43,7.8-9.73s5.05-6.61,7.51-10,4.72-6.85,7-10.3l3.45-5.21c1.12-1.75,2.18-3.53,3.26-5.31q3.23-5.34,6.35-10.74c2-3.61,3.92-7.33,5.84-11,3.86-7.36,7.31-14.92,10.69-22.51,3.68-9.49,7.5-18.93,10.36-28.7.75-2.44,1.53-4.86,2.21-7.31l1.92-7.38,1.83-7.41c.56-2.48,1-5,1.55-7.47a320.78,320.78,0,0,0,6.21-60.67,331.1,331.1,0,0,0-5.33-60.83c-.84-5-1.94-10-3.07-15l-1.74-7.45-2-7.39c-1.37-4.92-2.74-9.81-4.43-14.74l-2.41-7.14c-.78-2.34-1.66-4.66-2.55-7a326.89,326.89,0,0,0-26.24-54.22,316.34,316.34,0,0,0-37.94-50.6,296.25,296.25,0,0,0-51.35-44.38,281.27,281.27,0,0,0-64.8-32.73c-2.94-1-5.9-2-8.86-2.92s-5.92-1.91-8.94-2.66c-6-1.58-12.1-3.1-18.18-4.38s-12.24-2.2-18.39-3.11c-5.81-.72-11.49-1.25-17.26-1.74s-11.38-.62-17-.75c-2.82,0-5.65-.07-8.48-.08-1.43,0-2.79,0-4.16.09l-4.12.18c-2.75.13-5.49.27-8.23.44l-4.12.26-2.05.15-2,.21q-7.92.84-15.8,1.89a354.51,354.51,0,0,0-57,13.49,430.49,430.49,0,0,0-47.13,18.89L1216.76,917c-1.78.86-3.41,1.72-5,2.58l-4.94,2.59-4.93,2.61-4.68,2.61L1192.5,930c-1.55.87-3.14,1.76-4.58,2.62-12.06,7-23,13.9-33.37,20.67-20.51,13.39-41.14,28-61.67,44.22q-15.41,12.21-30.7,25.76c-10.17,9.07-20.29,18.6-30.27,28.84a504.89,504.89,0,0,0-57.24,69.58,416.14,416.14,0,0,0-46.1,88.71,388.54,388.54,0,0,0-15.06,51c-.93,4.38-1.87,8.78-2.68,13.17s-1.5,8.78-2.2,13.17-1.15,8.59-1.68,12.89-.84,8.4-1.23,12.6a467.88,467.88,0,0,0-1.45,46.92c.26,14.66,1.08,28.3,2.11,41s2.28,24.35,3.47,35.16l3.31,29.71c1,9,1.73,17.16,2.22,24.3s.68,13.29.64,18.4a113.39,113.39,0,0,1-.68,12.23,51.53,51.53,0,0,1-1.16,6.51c-.1,0-.06,0,0,0s0,0,0,.1a.17.17,0,0,0-.08.11s0,.11,0,.16a.4.4,0,0,0-.11.2.41.41,0,0,0,0,.12l-.11.11a19.58,19.58,0,0,1-2.28,3.18,39.16,39.16,0,0,1-18,11.5,27.93,27.93,0,0,1-5.29,1.07,14.38,14.38,0,0,1-2.43,0s-.06,0-.07,0a.08.08,0,0,0,0,0s0,0,0,0,0,0,0,0v0s0,0,0,.06l0,.14c-.07.36-.16.73-.27,1.13l-1.24,4.85-.25.94-.74,2.48-.49,1.48-.27.77-.31.94c-.43,1.26-.9,2.52-1.43,3.8-4.16,11.24-12.54,26.79-21.48,37.66-.53.68-1.08,1.35-1.66,2l-.88,1-.46.5-.37.44c-1,1.18-2.09,2.35-3.26,3.48l-.44.42-.35.37-.72.73c-.5.49-1,1-1.54,1.44l-.82.7-.4.35-.32.29c-.42.38-.86.76-1.32,1.13a40.7,40.7,0,0,1-7.61,5.06l-.28.13c-9.37,4.14,12.61-5.59,10.17-4.5l-.42.2c-.55.27-1.13.52-1.73.76s-1.2.46-1.83.68l-.92.3-.58.22a21.62,21.62,0,0,1-2.57.76,2.6,2.6,0,0,0-.43.12l-.33.09-.72.16-.64.1-.11,0-.19,0h0l.24,0a7.72,7.72,0,0,1,.83,0,18.21,18.21,0,0,1,2,0l.47,0,.8,0c.52,0,1,.09,1.53.16s1,.14,1.46.23c.7.08,1.41.19,2.1.3s1.35.26,2,.41l1,.24,1.26.27a50.06,50.06,0,0,1,5,1.35,147.82,147.82,0,0,1,26.62,10.83c2.77,1.32,5.51,2.73,8.14,4.22l2,1.14,1,.58,1.12.61c1.48.81,2.94,1.65,4.38,2.5s2.86,1.74,4.26,2.64l2.1,1.36,2.34,1.44q4.67,2.91,9.08,6.05c.54.38.24.19.31.25l0,0,.05,0a.39.39,0,0,0,.08-.1.67.67,0,0,0,.06-.12c0-.05.14-.15.2-.23a4.19,4.19,0,0,0,.4-.54c.24-.25.46-.51.68-.78s.2-.27.33-.42l.47-.5.91-1c.39-.39.77-.78,1.15-1.19.2-.2.35-.39.58-.61l.68-.67,1.36-1.36,1.55-1.46.78-.75.87-.77,1.74-1.57c4.93-4.29,10.81-9,17.53-13.85,3.3-2.42,6.88-4.83,10.47-7.26l14.87-9.77c45.31-29.39,89.55-60.39,133-92.42,21.82-15.9,43.14-32.46,64.51-48.94l31.68-25.21c5.31-4.17,10.48-8.51,15.69-12.79l15.61-12.89c5.19-4.31,10.45-8.55,15.57-12.93l15.39-13.16c10.23-8.79,20.56-17.48,30.6-26.51s20.22-17.86,30.23-26.91l29.81-27.41q59.14-55.29,115.27-113.72l27.78-29.47c4.66-4.88,9.15-9.93,13.71-14.91l13.62-15,6.81-7.49c2.27-2.5,4.55-5,6.75-7.54l13.36-15.23,13.35-15.23,3.34-3.81,1.72-2,1.78-2.07c2.37-2.76,4.73-5.55,7.07-8.34,18.78-22.34,37-45.5,54.39-69.71s34.19-49.44,49.94-76.11a822.18,822.18,0,0,0,43.8-84.62,650.06,650.06,0,0,0,34.09-96.06c4.52-17.15,8.37-34.89,11.32-53.23a486.63,486.63,0,0,0,5.77-56.8c.45-9.72.49-19.62.32-29.55s-.76-20-1.72-30.15a419.36,419.36,0,0,0-29.19-120.56c-2-4.8-4-9.63-6.18-14.35s-4.32-9.47-6.68-14.06l-3.5-6.92c-1.17-2.31-2.49-4.66-3.75-7l-3.84-7-4-6.83A415.57,415.57,0,0,0,1684.53,349a445.6,445.6,0,0,0-41.42-43.83,472.48,472.48,0,0,0-44.95-36.72A515.65,515.65,0,0,0,1551,238.28a558.56,558.56,0,0,0-98.18-43.47c-4.17-1.39-8.34-2.76-12.54-4l-6.29-1.93-6.31-1.82c-4.2-1.23-8.43-2.35-12.65-3.46l-3.17-.84-3.08-.75-6.13-1.46-12.26-2.89c-4.07-.89-8.12-1.69-12.18-2.52s-8.13-1.68-12.16-2.4l-12-2.07a854.41,854.41,0,0,0-93.4-10.18c-30-1.69-59-2.05-86.73-1.86s-54.41,1-79.93,1.74Z"/><path class="b" d="M1100.14,357.83c-1.72-2.65,2.55-3.5,3.69-5.27,5.68.95,12.25,1.58,11.72,4.82Z"/><path class="b" d="M1448.26,537.34a13.3,13.3,0,0,1,1.87,2.27,10,10,0,0,1,1.11,2.07,15.14,15.14,0,0,1,.76,3.75,23.26,23.26,0,0,0,.31,3.61,10.8,10.8,0,0,0,1.55,4,7.12,7.12,0,0,0,1.73,3,3.68,3.68,0,0,0,1.89,1c1.29.28,2.76,0,3.94,1,.39,1.1.83,2.06,1.25,3.2s.88,2.29,1.29,3.43.79,2.26,1.19,3.38.72,2.25,1.09,3.35c1.41,4.46,2.59,8.85,3.6,13.31A190.49,190.49,0,0,1,1474,612.8a257.12,257.12,0,0,1,.2,32.5c-.59,11.54-2,23.71-3.73,36-2.26-2-3.47,2.91-5,6.94-5.31-2.32-7.78-7.56-9.11-13.92a265.91,265.91,0,0,0,5.15-37.55,140.67,140.67,0,0,0-1.15-29.88,82.85,82.85,0,0,0-7-23.11,74.62,74.62,0,0,0-5.82-9.95l-.83-1.21-.91-1.18a23.09,23.09,0,0,0-1.79-2.24c-1.14-1.35-2.42-2.64-3.71-3.94,3.47-1.45,5.17-3.29,5.91-5.53a9.33,9.33,0,0,0,.39-1.74,13.89,13.89,0,0,0,0-1.83c0-.63-.09-1.27-.16-1.93s-.25-1.3-.38-2-.27-1.35-.41-2-.33-1.33-.46-2-.23-1.34-.3-2a14.26,14.26,0,0,1-.17-1.95,8.74,8.74,0,0,1,.75-3.73A8,8,0,0,1,1448.26,537.34Z"/><path class="b" d="M1134.3,1077.66c-5.58,1.89-15.14,11.29-17.75,7.56Q1128.72,1075.19,1134.3,1077.66Z"/><path class="b" d="M1285.13,1360.21c-1.38,1.55-3,3.28-4.75,5.11s-3.76,3.69-5.82,5.63c-4.13,3.86-8.67,7.88-13.11,11.51-8.88,7.26-17.36,13-21.34,13-7.41,9-14.6,17.84-23.51,27.41q-3.33,3.6-7,7.33-1.86,1.88-3.82,3.78t-4.11,3.81c-5.64,5.13-12,10.53-19.22,16.28-4,.14-8.28.55-11.21-1,6.56-8.35,15.64-19.16,25.89-30.44,10.1-11.48,21.37-23.42,32.54-33.81s22-19.61,31.64-25a42.9,42.9,0,0,1,13.38-5.25C1278.66,1357.9,1282.2,1358.34,1285.13,1360.21Z"/><path class="b" d="M881.13,1817.71c-1.67-.1-3-.21-4.16-.32s-2-.28-2.6-.4c-1.27-.26-1.62-.47-1.37-.65.5-.39,3.47-.55,6.51-.93,6.11-.68,12.69-1.29,1.7-1.57,1.14-.71,3.91-1.07,7.37-1.21.86,0,1.77-.05,2.7-.06l2.85-.06c1.93,0,3.92,0,5.85.07s3.78.18,5.46.33,3.15.26,4.34.47c2.37.41,3.54,1,2.53,1.93-1.11.19-2.45.36-3.93.5l-2.32.19-2.51.1c-3.43.1-7.14.13-10.53.19C886.21,1816.29,880.63,1816.28,881.13,1817.71Z"/><path class="b" d="M1193.78,1365.69c-1.66.49-3.06.31-4.06-1a6.49,6.49,0,0,1-1.12-2.67,19,19,0,0,1-.33-4.43C1191.63,1356.83,1193.81,1358.32,1193.78,1365.69Z"/><path class="b" d="M1415.35,1150.64a25.94,25.94,0,0,0,.65,3.88,10.58,10.58,0,0,0,.92,2.68,19.19,19.19,0,0,0,1.11,1.85,16.9,16.9,0,0,0,1.15,1.37,9.88,9.88,0,0,1,1,1.23,4.12,4.12,0,0,1,.51,1.48c.14,1.12-.06,2.39-1.27,4.57a37.78,37.78,0,0,1,4.33,11.63c.1.54.21,1.07.32,1.61a12.43,12.43,0,0,1,.26,1.62c.12,1.1.24,2.2.37,3.31s.07,2.24.1,3.37l0,.85,0,.85-.08,1.7a65.62,65.62,0,0,1-2.14,13.49,88.92,88.92,0,0,1-4.68,12.53c-.6,1.14-1.15,2.28-1.66,3.43s-1.22,2.18-1.75,3.28-1.21,2.11-1.75,3.17-1,2.13-1.69,3.1-1.19,2.23-1.76,3.37-1.21,2.22-1.74,3.39c-.14.29-.25.6-.4.88l-.47.84-.93,1.77-1,1.92-1.11,1.85-1.11,1.89a18.82,18.82,0,0,1-1.16,1.87l-2.53,3.69c-.89,1.2-1.89,2.32-2.87,3.51a31.33,31.33,0,0,1-3.2,3.32,82.52,82.52,0,0,1-14.91,11.3l-1,.63-1,.54-2.06,1.1c-.7.37-1.38.78-2.08,1.12l-2.13.94a39.19,39.19,0,0,1-4.29,1.83l-2.17.83a18.08,18.08,0,0,1-2.26.79,108.69,108.69,0,0,1-41.37,4.78l-2.8-.19-1.4-.09-1.43-.18-5.72-.69-5.84-1-1.47-.24-1.49-.33-3-.65a215.17,215.17,0,0,1-24.49-6.91c-8.34-2.89-16.77-6.08-25.31-9.85s-17.08-7.66-25.67-12c-19.78-9.76-40.49-21.26-60.65-33.43-10.1-6.11-20.1-12.4-29.78-18.74s-19.17-12.8-28.13-19.22c10.39.43,22.72,4.13,35.71,9.75s26.66,13.1,40.19,21,26.92,16.27,39.55,23.75,24.51,14.1,34.93,18.94a71.77,71.77,0,0,0,11.89,2.64,40.51,40.51,0,0,0,5.1.38c1.61,0,3.14,0,4.6-.08a162.67,162.67,0,0,0,28.2,8.48,110.11,110.11,0,0,0,24.07,2.24,89.72,89.72,0,0,0,20.23-2.73q2.31-.69,4.62-1.29c1.5-.58,3-1.11,4.49-1.61a14.27,14.27,0,0,0,2-.83l1.89-.84,1-.39c.32-.15.62-.33.93-.49.62-.34,1.24-.66,1.86-1a89.91,89.91,0,0,0,14-9.24,95.62,95.62,0,0,0,12.13-11.46,14.14,14.14,0,0,0,1.35-1.55c.44-.53.88-1,1.33-1.56.94-1,1.71-2.14,2.5-3.12L1396,1230c.32-.49.64-1,1-1.44a32.22,32.22,0,0,0,2-2.84,116.5,116.5,0,0,0,7.15-11.88,16.68,16.68,0,0,0,.86-1.75q.42-.87.9-1.74c.31-.58.5-1.2.79-1.8s.58-1.18.85-1.79.46-1.24.73-1.85a18.61,18.61,0,0,0,.76-1.86c.4-1.27,1-2.51,1.39-3.82a152,152,0,0,0,4.72-16.68c-2.23-4.4-3.2-8.39-4.48-12.51-.15-.52-.3-1-.46-1.56s-.39-1-.57-1.47a23.52,23.52,0,0,0-1.42-3.26,20.85,20.85,0,0,0-1.88-3.21l-1.14-1.54c-.21-.25-.39-.52-.62-.76l-.7-.7c-.17-1.58-.32-3.22.72-4.2.18-1.48,1.57-2.21,3.33-2.53A25.49,25.49,0,0,1,1415.35,1150.64Z"/><path class="b" d="M1192,1268.65a117.54,117.54,0,0,1-21.16-10.35c-6.7-4.22-11.41-8.66-9.18-11.17-14.07-4-25.35-16.33-42.57-25.35-10.81-8.37-22.44-16.89-35-25.44-3.09-2.15-6.46-4.27-9.76-6.42l-10.08-6.43c-1.69-1.09-3.41-2.13-5.15-3.15s-3.48-2.07-5.24-3.1q-5.27-3.09-10.62-6.22a753.23,753.23,0,0,0-93.44-44.45l-12.51-4.94L924.56,1117c-8.47-3.2-17.1-6-25.74-9-4.31-1.5-8.68-2.84-13.05-4.22l-13.14-4.12-13.25-3.86c-4.42-1.25-8.83-2.64-13.3-3.78-35.6-9.75-71.85-17.86-107.89-24.68-4.7-6.72,9.91-4.41,17.55-5.37,28.8,6.11,54.08,9.31,79.09,13.5,6.24,1.1,12.47,2.21,18.71,3.43s12.45,2.78,18.75,4.37c3.16.77,6.3,1.69,9.46,2.65s6.34,2,9.54,3c6.42,2.07,12.85,4.62,19.4,7.44,18,3.56,36.1,9.52,54,16.69,4.45,1.84,8.89,3.8,13.32,5.78s8.87,4,13.21,6.21c8.73,4.37,17.42,8.81,25.87,13.68,4.24,2.41,8.48,4.77,12.65,7.25l12.37,7.55,6.12,3.76,6,3.9,11.88,7.7,22.91,15.36c7.27,5,14.32,9.73,21.14,14.19,9.33,8.94,23.35,20,39.29,31.06a423.69,423.69,0,0,0,51.21,30.65C1203.14,1263.35,1196.78,1267.87,1192,1268.65Z"/><path class="b" d="M837.94,1112.07c-.31,1.25-.61,2.5-.92,3.77q-6.4-.94-12.68-2.2c-2.09-.43-4.18-.83-6.26-1.23s-4.16-.83-6.23-1.26c-4.14-.88-8.25-1.82-12.34-2.77l-12.28-2.65c-4.08-.86-8.14-1.83-12.22-2.56s-8.16-1.47-12.24-2.12a196.91,196.91,0,0,0-24.53-2.46c3.23-2.3,9.87-3,17.07-3.37s14.92-.23,20.37-1.37l9,2.17c2.94.69,5.8,1.33,8.6,2l8.21,1.79,7.83,1.93c5.12,1.32,10,2.66,14.8,4.31A107.05,107.05,0,0,1,837.94,1112.07Z"/><path class="b" d="M726.29,1062c.58,1.64-1.45,2.46-4.94,2.71a52.77,52.77,0,0,1-6.19,0c-2.34-.12-4.91-.24-7.57-.48-5.31-.46-11-1.2-15.85-2s-9-1.36-11.18-1.89a50.92,50.92,0,0,1,10.93-1c3.67.09,7.37.46,11.14.89s7.6.91,11.53,1.23A89.37,89.37,0,0,0,726.29,1062Z"/><path class="b" d="M401.63,1485.05c1.58-1.16,4.75-2.55,8.83-4.17A147.13,147.13,0,0,1,425,1476.3c2.7-.72,5.53-1.25,8.36-1.83a77.62,77.62,0,0,1,8.58-1.19,67.43,67.43,0,0,1,8.5-.25,49,49,0,0,1,8.14,1.09q4.11-1.42,8.29-2.75c2.78-.91,5.57-1.86,8.4-2.74l17.21-5.38c11.64-3.62,23.59-7.48,35.81-11.79s24.64-9.2,37.07-15a297.79,297.79,0,0,0,37-20.35c-.28,1.67,1,2,3.27,1.44a25.2,25.2,0,0,0,4-1.42,45.31,45.31,0,0,0,4.75-2.41,94.41,94.41,0,0,0,9.75-6.35,51.89,51.89,0,0,0,6.61-5.66c-2-1.29-5.18,1.82-7.91,4.37s-5,4.4-4.93.84c1.92-1.33,3.8-2.73,5.69-4.1l5.65-4.06c3.62-2.74,7.19-5.43,10.76-8.07l5.31-3.93,2.63-1.94,2.52-2,9.86-7.88c12.75-10.41,23.68-20.6,31.15-30.18,2.34.68-1.45,4.41-.48,5.74,1.5.65,6.54-4.55,10.36-7.93.4,1.44-6.28,8.27-11.78,13.07-2.75,2.41-5.22,4.29-6.45,4.67-.6.2-.85.06-.64-.55a18.91,18.91,0,0,1,2.13-3.33c-1.43,1.31-2.6,2.35-3.53,3.34s-1.7,1.89-2.47,2.8a41.38,41.38,0,0,1-6.39,6.26c6.79-4.62,7-2.39,8-1.28.5.55,1.2.82,3-.2s4.94-3.3,9.74-8.15c.25,1-2,3.36-4.32,5.58s-4.55,4.33-3.88,5.16c-6.71,4.19-9.13,1.86-14.25,3.7a40.9,40.9,0,0,1-4.7,4.78c-2,1.82-4.38,3.86-6.93,6s-5.25,4.43-8.05,6.61l-8.32,6.33c-5.31,4.08-9.84,7.77-12.44,10.2s-2.69,3.77,1.05,3.15a38,38,0,0,1-6.38,5c-2.53,1.6-5.39,3.17-8.47,4.71s-6.42,2.93-9.83,4.37-7,2.73-10.47,4.1c-14.08,5.38-27.95,10.08-34.62,17.24-13.43,5-25.35,9.38-36.8,13.53l-8.53,3.06-8.5,2.91c-2.81,1-5.66,1.92-8.53,2.84s-5.73,1.92-8.69,2.76l-9,2.64c-3,.84-6.17,1.63-9.35,2.45s-6.47,1.55-9.84,2.3l-5.13,1.1c-1.74.34-3.51.64-5.31,1A272.25,272.25,0,0,1,401.63,1485.05Z"/><path class="b" d="M703.7,1332.75c6.77-5.47,15.12-9.75,10.66-1.6C707.56,1337.77,705.52,1335.45,703.7,1332.75Z"/><path class="b" d="M721.36,1308.53c1.07-1.28,2-2.33,2.9-3.2a28,28,0,0,1,2.31-2.2,18.43,18.43,0,0,1,3.74-2.42,21.33,21.33,0,0,0,7.82-5.58c-.69,3.46-4.59,7.81-8.43,10.78a18.8,18.8,0,0,1-5.42,3.12C722.74,1309.55,721.63,1309.46,721.36,1308.53Z"/><path class="b" d="M765.76,1268.65c-.69-1.1-.11-2.82,1.22-5s3.49-4.76,5.74-7.7,4.83-6.13,7.15-9.42c1.16-1.65,2.26-3.31,3.24-5a37.34,37.34,0,0,0,2.42-5c.68.9.29,2.66-.78,5a65.7,65.7,0,0,1-5.14,8.23c-2.16,3.09-4.63,6.42-7,9.68S767.68,1265.85,765.76,1268.65Z"/><path class="b" d="M799.16,1215.88c1.93-7,1-11.45,8.6-23.6a27.15,27.15,0,0,1-1.86,9.82A85.43,85.43,0,0,1,799.16,1215.88Z"/><path class="b" d="M752,747.4c-1.75-.84-3.36-1.61-4.88-2.36s-3-1.52-4.28-2.26-2.6-1.49-3.73-2.2-2.18-1.39-3.13-2.07c-3.81-2.74-6.22-5.41-7.13-7.91a49.15,49.15,0,0,0,6.37,4.13c2.5,1.42,5.15,2.8,7.71,4.31C748,742,752.17,744.88,752,747.4Z"/><path class="b" d="M479,1267.92c-10.57,2.21-21.39,3.73-31.55,5.28s-19.66,3.36-28.38,6.61c-2.55-.18-5.14-.24-7.66-.57l-1.91-.18c-.64,0-1.27-.13-1.9-.23l-3.76-.54c-1.26-.16-2.47-.46-3.71-.66l-1.85-.33c-.61-.11-1.2-.28-1.81-.41l-3.6-.81c-1.17-.33-2.34-.65-3.52-.95s-2.29-.7-3.43-1-2.29-.65-3.36-1.08-2.2-.77-3.29-1.14-2.11-.86-3.16-1.26-2.06-.89-3.08-1.31-2.05-.83-3-1.35-2-.91-2.92-1.37-1.87-1-2.81-1.47l-.71-.34-.67-.39-1.35-.77-1.36-.72c-.46-.24-.87-.54-1.31-.8-.85-.53-1.78-1-2.59-1.51l-1.08-.68c-.3-.21-.6-.41-.91-.6a15.46,15.46,0,0,1-1.79-1.36s-.07,0,0,0h0l-.07.11-.31.43-.62.86-1.27,1.71-2.56,3.36q-1.14,1.55-2.34,3.06c-.8,1-1.62,2-2.45,3l-2.21,2.73c-.75.89-1.51,1.78-2.29,2.65l-.59.66-.51.59-1,1.18a141.07,141.07,0,0,1-14.88,14.55c-.93.8-1.87,1.56-2.88,2.3l-.37.28-.3.23-.6.46c-.4.3-.82.59-1.25.89l-.64.42-.49.35-1,.67-.53.32-2.43,1.49h0a14.39,14.39,0,0,1,2.22-.93,36.68,36.68,0,0,1,6.18-1.57,61.75,61.75,0,0,1,13.22-.76,73.48,73.48,0,0,1,14.33,2,57.67,57.67,0,0,1,9.43,3c1.9.83,2.2,1.13,1.33.57-.47-.3-1.47-1-2.7-1.94-.33-.25-.66-.52-1-.8s-.75-.61-1.13-.94l-1.19-1.06-.62-.58-.32-.3-.16-.15-.07-.08,0,0,16.43,15.71a2.37,2.37,0,0,0,.61,0c.1,0,.13,0,.26-.07l.39-.07.34-.11a1.68,1.68,0,0,1,.36-.14,4.23,4.23,0,0,0,.9-.36l.2-.11.29-.11c.2-.08.39-.16.57-.25.39-.18.66-.39,1.2-.6a13.41,13.41,0,0,0,1.36-.7c.51-.25,1.12-.51,1.65-.8l.82-.44,1-.46c.67-.31,1.27-.64,2-1,1.56-.66,2.92-1.42,4.75-2.18,6.75-3.11,16-6.76,27-10.66,2.85-1,5.59-2,8.66-3s6.15-2,9.31-3l9.49-3.12c3.15-1.07,6.36-2,9.54-3,25.47-8,51.34-15.46,77.53-22,3.27-.89,6.56-1.56,9.85-2.35l9.86-2.34,19.8-4.29c6.62-1.24,13.24-2.61,19.88-3.83l10-1.72c3.32-.57,6.64-1.22,10-1.67,7.83,0,15.61-.19,23.45,0l24.42-2.59,6.16-.69,6.2-.58,12.55-1.19,12.77-.84c2.15-.13,4.32-.27,6.49-.37l6.56-.15c4.4-.08,8.86-.17,13.37-.11s9.07.31,13.71.56a428.88,428.88,0,0,1,59,8,547.43,547.43,0,0,1,60.31,16.32l14.92,5.17,14.74,5.62,3.67,1.41,3.63,1.51,7.24,3,7.21,3,7.11,3.21c9.49,4.17,18.7,8.76,27.8,13.21l13.4,6.95c2.23,1.12,4.4,2.34,6.56,3.54l6.48,3.56c-.6,2-2.39,3.83,4.32,6.43,8,5.15,16,10.18,23.65,15.7,7.54,5.24,15.64,11.21,23.79,17.3,16.41,12.28,33.45,25.45,52.05,38.94,4.59,3.36,9.43,6.76,14.21,10.14l7.39,5.09,3.71,2.55,3.83,2.54c10.11,6.78,20.93,13.54,32.27,20.15l8.66,4.93c3,1.63,6,3.24,9,4.85,1.52.8,3,1.61,4.56,2.4l4.71,2.36,4.73,2.35c1.57.78,3.17,1.56,4.83,2.31l9.92,4.53c3.37,1.49,6.86,2.92,10.32,4.36,1.75.71,3.44,1.45,5.26,2.13l5.43,2c3.64,1.36,7.21,2.73,11.06,4s7.39,2.4,11.11,3.48,7.62,2,11.41,2.92l2.84.7,2.92.63,5.85,1.22,5.82,1.21c1.93.4,4,.73,6,1.1,15.77,3,32.2,5.54,49.46,9.14,18.84-.52,40.62-1.88,63.3-5.8,5.67-1.07,11.37-2.18,17.08-3.38q8.55-2.07,17.08-4.32c5.64-1.68,11.24-3.46,16.81-5.27,5.7-2,11.49-4.23,17.11-6.45a263.4,263.4,0,0,0,52.44-23.16,275.08,275.08,0,0,0,72.92-61.33l5.18-6.39,2.62-3.29c.86-1.09,1.67-2.25,2.5-3.38,1.64-2.27,3.27-4.54,4.86-6.82s3.21-4.53,4.66-6.89c2.93-4.67,5.85-9.3,8.5-14s5.1-9.46,7.45-14.16,4.33-9.49,6.33-14.16,3.66-9.38,5.34-13.95q2.65-8.25,4.83-16.09c1.33-5.26,2.41-10.4,3.39-15.34.81-5,1.52-9.79,2-14.39s.71-9.06.9-13.25c.74-3.14,1.35-6.29,1.94-9.42l.84-4.7c.24-1.57.42-3.14.61-4.7.38-3.14.7-6.26,1-9.38s.31-6.23.4-9.34c0-1.55.07-3.1.1-4.64s-.05-3.1-.08-4.64c-.1-3.09-.23-6.16-.4-9.23s-.53-6.12-.84-9.17-.64-6.1-1.16-9.12c-1-6.06-2-12.1-3.39-18.09-.69-3-1.31-6-2.11-9s-1.63-6-2.45-9-1.78-6-2.73-9-1.88-6-2.93-9c-2.23-6.13-4.22-11.85-6.67-17.77a278.35,278.35,0,0,0-25-48.39,260.41,260.41,0,0,0-37.32-45.49,238.41,238.41,0,0,0-52-38.27l-1.84-1-1.9-1-3.83-1.9q-3.86-1.87-7.74-3.69c-5.29-2.28-10.67-4.45-16.12-6.46q-4.14-1.41-8.33-2.73c-2.81-.86-5.58-1.81-8.44-2.49s-5.71-1.43-8.58-2.1l-4.31-1c-1.44-.29-2.9-.53-4.35-.79-2.9-.51-5.81-1-8.73-1.45l-2.18-.33c-.74-.12-1.47-.23-2.14-.29l-4.15-.42c-2.77-.27-5.55-.51-8.32-.74l-4.17-.32c-1.39-.09-2.75-.1-4.13-.14q-4.12-.09-8.25-.14c-2.74,0-5.54-.08-8.21.09l-8.08.42-4,.26c-1.35.09-2.71.17-4,.33-5.21.6-10.47,1.22-15.65,2q-7.53,1.32-15.07,2.82c-4.83,1.12-9.62,2.31-14.43,3.54s-9.2,2.71-13.79,4.12A360.69,360.69,0,0,0,1244.32,965c-15,7.45-28.67,15.33-41.43,23.21-6.41,4-12.48,7.87-18.47,11.8s-11.85,7.9-17.75,12q-17.7,12.32-35.12,25.9a581.45,581.45,0,0,0-67,61,422.83,422.83,0,0,0-57.15,76.46,351.77,351.77,0,0,0-21.66,44.34,326.39,326.39,0,0,0-15,47.12c-.2,3-.4,5.92-.6,8.77s-.47,5.59-.77,8.29-.49,5.36-.78,8-.6,5.29-.81,7.89-.48,5.26-.73,8-.33,5.34-.47,8.13c-.06,1.39-.11,2.8-.17,4.23s0,2.84,0,4.3c0,2.89.06,6,.27,9-.26,2.06-.52,4.18-.76,6.37-.11,1.09-.22,2.19-.34,3.31s-.17,2.19-.26,3.31c-.16,2.23-.32,4.52-.45,6.85s-.18,4.6-.25,7c-.16,4.78-.1,9.45-.06,14.36,0,2.4.14,4.79.23,7.24,0,1.21.1,2.44.15,3.67l.21,3.61c.54,9.78,1.48,19.42,2.58,28.85.55,4.77,1.16,9.33,1.78,14s1.29,9,1.94,13.35c2.67,17.48,5.33,33.06,7.27,46.09,1,6.48,1.83,12.45,2.45,17.63.38,2.68.58,5,.9,7.39s.48,4.4.7,6.44c-3,6.79-5,14.33-7.14,21.5a76.53,76.53,0,0,1-6.17,14.46,50.45,50.45,0,0,1-11.51,14,54.56,54.56,0,0,1-10.11,6.44c-1.7,1-3.55,1.7-5.25,2.53-.83.44-1.77.74-2.61,1.13s-1.67.79-2.53,1.13c-6.75,2.9-12.5,5.65-16.79,11-.54.18-1.07.42-1.62.57l-1.64.49c-1.09.33-2.14.77-3.24,1s-2.16.63-3.24,1-2.16.51-3.22.81c-4.29,1-8.51,1.81-12.63,2.37a83.72,83.72,0,0,1-11.89.58l-1.42,0a8.18,8.18,0,0,1-1.41-.07c-.91-.11-1.83-.19-2.76-.23s-1.78-.31-2.68-.41a7.22,7.22,0,0,1-1.31-.25q-.64-.15-1.29-.27c-.42-.1-.89-.14-1.29-.26l-1.19-.32a8.09,8.09,0,0,1-1.15-.34c-.37-.13-.75-.24-1.13-.35a31.78,31.78,0,0,1-3.76-1.59c-.24-.14-.54-.25-.76-.38a6.17,6.17,0,0,0-.6-.39l-.31-.17-.2-.18a3.19,3.19,0,0,0-.42-.3c-.1-.1-.14-.2-.22-.27s-.19-.14-.14-.2a.2.2,0,0,0,0-.07v0h0l-.33.41c-.22.29-.49.6-.7.87l-.62.82c-.42.55-.85,1.09-1.3,1.63s-.91,1.08-1.39,1.61l-.72.8-.61.72c-.82,1-1.7,1.89-2.63,2.81l-.71.69c-.25.24-.39.41-.6.62-.38.39-.78.79-1.19,1.18s-.83.77-1.27,1.15-1,.79-1.23,1.07c-.69.63-1.42,1.24-2.21,1.84l-2,1.5c-.3.22-.62.44-.95.65l-.51.32-.26.16-.15.11a15.48,15.48,0,0,1-1.37.84l-.38.21-.31.16-.37.2-.42.21-.24.11-.12,0h-.05l10.39-4.6-.16.08a29.64,29.64,0,0,1-2.86,1.23q-.75.29-1.53.54l-.4.12-.24.1-.48.18c-.66.23-1.36.45-2.1.63l-.57.14-.28.08-.56.15-.61.12-.33.06-.16,0h0a1,1,0,0,1-.22,0h-.15l.29,0a5.45,5.45,0,0,1,.56,0h1c.46,0,.89,0,1.3.06s1.19.07,1.84.14,1.36.16,2,.27c.18,0,.28.06.53.09l.71.09c.48.07,1,.14,1.41.23.92.16,1.82.36,2.69.58.18.06.51.11.8.17l.88.19c.58.13,1.16.27,1.72.42,1.14.29,2.24.62,3.34,1q2.08.55,4.08,1.23c.67.22,1.33.46,2,.7l1,.37c.31.13.62.26,1,.4q2.37.81,4.63,1.74c.76.31,1.5.63,2.24,1s1.4.67,2.34,1,1.73.73,2.58,1.12l.5.22,0,0,.1,0,.19.08a.31.31,0,0,0,.23,0c1.28.08,3.25-1,5.9-2.73s6-4.14,9.77-6.94c.45-.59,1.07-1.23,1.59-1.84s1.06-1.23,1.67-1.86c1.25-1.26,2.35-2.52,3.73-3.8l2-1.91,2.12-1.92c1.37-1.28,2.92-2.56,4.41-3.84,6.07-5.14,13-10.22,20.24-15.27,1.79-1.28,3.69-2.52,5.53-3.79l6.1-4.06q7.71-5.14,15.44-10.43t15.46-10.78l7.75-5.57c2.56-1.9,5.1-3.86,7.66-5.83-.32-1.61-2.62-2.63,1.16-5.47a180.88,180.88,0,0,0,20.82-14.57c3.65-2.89,7.44-5.89,11.21-9.12l11.55-9.9c7.83-6.7,15.93-13.51,24.24-19.83a209.65,209.65,0,0,1,25.16-17.34q4.24-4.17,8.39-8.33c2.76-2.79,5.52-5.54,8.19-8.41l16.08-17.18,16.47-17.54c5.55-6,11.29-12.13,17.31-18.36,3-3.11,6.1-6.25,9.28-9.43s6.48-6.34,9.77-9.67c6.63-6.62,13.67-13.38,21.23-20.34q5.68-5.22,11.76-10.58t12.45-11.1c8.59-7.53,17.89-15.22,27.82-23.33,5.33-9.18,13.6-19.46,23.59-30.37,5-5.41,10.35-11.15,16-17s11.51-11.71,17.53-17.66,12.07-12,18.09-18.08l17.85-18c5.87-5.89,11.35-11.9,16.6-17.65s10.14-11.35,14.58-16.71c8-7,16.93-15.51,26.5-24.33l29.46-27.13c4.93-4.5,9.84-8.89,14.66-13.08s9.6-8.12,14-11.88c9-7.47,17.31-13.66,24.4-17.72,9.86-9.61,19.18-19,29-29.31,4.89-5.13,9.88-10.5,15-16.26,5.31-6.06,10.83-12.62,16.47-19.86,8-7.53,13.53-9.15,22.5-19.74,2-6,6.37-13.54,12.37-22.57,22.2-22.35,47.46-55.18,69.39-93.22a530.81,530.81,0,0,0,29.74-59.85c4.34-10.27,8.26-20.67,11.77-31s6.61-20.49,9.21-30.48c1.93-1.82,3.43-4.66,4.7-8a102.92,102.92,0,0,0,3.34-11.17c1-3.92,2-8,3.2-11.56a29.46,29.46,0,0,1,4.49-9.2c1.74-8.8,3.31-17.72,4.54-26.85s2.24-18.39,2.94-27.78,1-19,1.13-28.61-.23-19.4-1-29.25-1.69-19.73-3.18-29.65c-.67-4.95-1.6-9.92-2.45-14.87-1-4.95-1.92-9.91-3.11-14.84a375.92,375.92,0,0,0-18.41-58.17c-2-4.68-3.91-9.4-6.08-14-1.07-2.3-2.1-4.62-3.21-6.9l-3.36-6.8c-1.1-2.28-2.32-4.49-3.49-6.72s-2.32-4.44-3.6-6.68c-2.53-4.45-5-8.94-7.72-13.26-5.25-8.77-11-17.16-16.77-25.39-3-4-5.92-8.15-9-12-1.54-2-3.06-4-4.62-5.9l-4.73-5.77c-1.56-1.94-3.18-3.8-4.79-5.67s-3.22-3.76-4.85-5.6c-3.31-3.61-6.55-7.33-9.94-10.83-6.66-7.17-13.56-13.91-20.49-20.6q-20.92-19.77-42.89-37.18c-5.93-13.26-17.29-26.87-27.51-39.1s-19.25-23.26-19.79-33c-2.7-2-6-3.95-9.55-6s-7.26-4-10.78-5.95c-7-3.83-13.27-7.44-15.33-10.55,3.73-3-5.31-7.26-7.34-10.72A371.81,371.81,0,0,0,1410.82,188c-7.28-2.64-14.88-5.27-22.73-7.78-3.9-1.16-7.85-2.31-11.85-3.42l-6-1.66-3-.8-3-.71a332.89,332.89,0,0,0-47.28-8.11q-5.61-.51-11-.81c-3.61-.22-7-.21-10.42-.22a138.45,138.45,0,0,0-18.81,1.18c-5.81,2.76-11.94,5.43-17.14,8.34s-9.61,5.88-12.24,9c-5.26,6.19-3.34,12.81,13.32,20.39-1.6,6.6.47,13.75,2.71,20.73s4.68,13.8,4.08,19.77a14.19,14.19,0,0,1-3.53,8.23c-2.18,2.5-5.52,4.6-10.3,6.51-9.58,3.79-25.21,6-49.59,7.35-7.64,5.87-15.56,10.71-20.58,16.16s-7.13,11.57-3.27,19.89A130.67,130.67,0,0,1,1196,308.3c4.92,2.25,9.65,4.72,14.71,7.15,2.53,1.21,5.14,2.42,7.91,3.6s5.67,2.43,8.8,3.6,6.48,2.27,10.1,3.4,7.52,2.24,11.77,3.27c-7.29,2.09-.61,3.21-.36,6.43,16,1.86,40.19,2.3,41.08,8.53-19.73-2.91-31.25-1.42-41.43.55-5.11,1.05-9.89,2.16-15.29,3.12-2.7.5-5.56.95-8.67,1.28s-6.5.56-10.29.73c-16.88,5.74-22.07,13.93-26.07,21.72s-6.89,15.45-18.89,20.66c-4.86-.76-7.7-1.41-10.7-1.67a45.25,45.25,0,0,0-11.77.76c-6.2,8.77,8,11.06-10.93,17,6.85,5.09,16.54,4.09,29.94,4.58,2.83,3.39,7.2,6.25,12.75,8.65A134.13,134.13,0,0,0,1198,428c14.28,3.77,30.82,6.77,45.27,10.8a311,311,0,0,1,57.56,8.46c2.16.46,4.17,1.08,6.23,1.63l6.07,1.7c1,.28,2,.55,3,.85l2.89.95,5.73,1.88c3.83,1.18,7.4,2.64,11,4,1.78.68,3.6,1.33,5.32,2l5,2.08c13.07,5.67,25.28,11.85,37,18.26s23.25,12.88,34.82,19.46c-1.53,3.79,1.77,8.09,6.36,11.87a62.7,62.7,0,0,0,14.92,9c.44,2.48-1.11,4.65-2.14,6.84a8.87,8.87,0,0,0-1,3.4,6.31,6.31,0,0,0,1.09,3.75c3.14.57,3.83-.65,4-2.41s-.23-4.06,1-5.45a44.13,44.13,0,0,1,12.8,9.3c4,4.09,6.65,8.62,6.58,11.63a28.71,28.71,0,0,1,8.42,7.34c.32.41.66.78,1,1.22l1,1.39c.64.94,1.34,1.9,1.92,2.9s1.27,2,1.82,3l1.73,3.14c4.52,8.51,7.9,17.84,12.47,25.75a45.25,45.25,0,0,0-4.85,12.91,127.23,127.23,0,0,0-2.48,18.65,10,10,0,0,1,5.66,2.57,42.69,42.69,0,0,1,4.24,4.84,99,99,0,0,1-3.09,32.4,183.13,183.13,0,0,1-10.61,29.12c-4.22,9.49-8.9,19-13.72,29.54s-9.76,22.13-14.85,36c-10.78,12.27-23.47,33.55-38.46,55.94-12.58,11.75-26,25.39-40.3,40.23-7.12,7.41-14.43,15.13-21.88,23.06l-11.49,12.27q-6.16,6.56-12.29,13.33c-32.63,36.06-65.25,75.09-93.89,111.86a55.29,55.29,0,0,0-10.06,4.54,94.36,94.36,0,0,0-9.8,6.41,177.2,177.2,0,0,0-18.89,16.8c-3.1,3.08-6.12,6.31-9.25,9.44l-9.35,9.37a227.59,227.59,0,0,1-18.79,17c-20.32,15.54-41.68,29.72-62.52,44.53-5.19,3.73-10.29,7.57-15.36,11.47s-10.13,7.8-15,11.92-9.69,8.4-14.34,12.89c-1.16,1.12-2.31,2.26-3.46,3.4l-3.45,3.43q-3.43,3.45-6.75,7.09c-4.61,3.84.72,4-3.15,7.61q-5.67,4.38-11.59,9.25l-6,5-6.16,5.05c-8.28,6.82-16.81,14.07-25.44,21.46-4.28,3.73-8.74,7.3-13.14,11l-13.24,10.87c-4.41,3.59-8.79,7.17-13.18,10.62s-8.83,6.71-13.18,9.92c-6.2,4.58-12.52,8.87-18.88,13-3.16,2.11-6.4,4.09-9.63,6.08l-9.67,6c-6.43,4-12.82,8.06-19.07,12.35-3.11,2.18-6.27,4.3-9.36,6.53s-6.16,4.54-9.17,7c-7,5.62-13.42,11.06-19.34,16.4S823,1342.18,818,1347.3a175.92,175.92,0,0,0-13.32,15.34c-1,1.32-2,2.63-2.91,3.91q-2,2.31-3.82,4.62c-2.46,3.07-4.75,6.24-6.86,9.36-15.39,10.24-29.41,25.23-43.62,41.26L736.75,1434c-1.83,2.08-3.66,4.15-5.51,6.18s-3.73,4.17-5.62,6.2c-7.6,8.27-15.6,16.4-24.49,24.52-2.32,4.07-2.4,6.42-3.26,9.34a23.76,23.76,0,0,1-.84,2.37,29.3,29.3,0,0,1-1.41,3c-.59,1.12-1.32,2.37-2.24,3.8s-2,3-3.35,5a60.46,60.46,0,0,1-7.52,10.09,54.69,54.69,0,0,0-5.61,6c4.51,1.81,7.11-4.81,6.7,3.84,1.08-2.14,2.15-4.19,3.19-6.18.53-1,1.05-2,1.57-2.93s1-1.82,1.53-2.71l3-5.11,1.46-2.45,1.44-2.25,2.81-4.34c.92-1.41,1.83-2.82,2.72-4.08,1.79-2.59,3.53-5.09,5.24-7.55,6.85-9.54,13.2-18.12,20.8-29a94.68,94.68,0,0,1,7.43-5.87,88.69,88.69,0,0,0,9.06-8q13.85-16.53,29.38-32.12c5.18-5.15,10.51-10.33,16-15.35,2.74-2.55,5.52-5,8.34-7.53,1.41-1.26,2.83-2.48,4.27-3.72l2.15-1.85,1.08-.93.54-.46.4-.37q13-12.09,27.19-24.44l7.18-6.18,7.25-6.32q7.33-6.33,15-12.65,3.71-3,7.49-6l7.58-5.9q7.57-5.9,15.26-11.52t15.29-11c2.54-1.78,5-3.63,7.47-5.45l7.31-5.4c4.82-3.58,9.53-7.11,14.06-10.6q3.4-2.61,6.66-5.21l3.22-2.59,3.09-2.64a182,182,0,0,0,21.06-20.92c6.94-4.71,7,1.11,12.69-1.6,6.07-7.69,13.31-13,21.17-18.25,3.93-2.63,8-5.27,12.16-8.22,2.08-1.45,4.14-3,6.2-4.74s4.14-3.51,6.21-5.47c5.81-5.52,10.32-11.63,15.09-17.83,2.37-3.11,4.86-6.18,7.51-9.33a93.21,93.21,0,0,1,8.95-9.27c6.84-6.12,13.31-11.37,19.68-16.23l9.42-7.17,9.4-7c6.32-4.69,12.81-9.49,19.71-14.87s14-11.6,21.86-18.78c4.68-1.39,9.91-4.46,15.24-8.23S1167,1079.23,1172,1075c10-8.46,18.63-15.65,22.53-13.51-2.86,8.87-22.54,14.13-26.61,25.36,6.19-4.09,12.89-9.21,16.88-8.95a174.52,174.52,0,0,0-12.62,22.76c-3.42,7.16-6.36,14-9.58,21.07a198.77,198.77,0,0,1-11.52,22,176.3,176.3,0,0,1-19,24.74q-5.77,4.86-11,9.53c-3.5,3.13-7,6-10.22,9-6.54,5.84-12.48,11.46-17.92,16.88q-4.08,4.07-7.8,8t-7.24,7.58c-4.61,5-8.8,9.79-12.68,14.5-26.25,19.21-55.11,40.3-85.11,62.49L934,1329.94c-15.69,11.18-31.32,22.78-47.27,33.93l-23.75,16.94-23.77,16.62-11.78,8.33-7,4.93c-2.34,1.68-4.67,3.34-7,5q-13.89,10.21-27.23,21.47c-17.75,15.1-34.76,31.69-50.32,51.2A258.49,258.49,0,0,0,714,1520.33a202.47,202.47,0,0,0-17.16,38.29,149.91,149.91,0,0,0-12,43.61,143.62,143.62,0,0,0,2.66,48.44c.81,4.09,2,7.93,3.24,11.89a121.25,121.25,0,0,0,4.2,11.52c.79,1.91,1.52,3.77,2.44,5.72s1.91,3.92,2.91,5.88c.5,1,1,2,1.52,2.94l.78,1.47.84,1.42q1.68,2.84,3.45,5.67l1.8,2.83c.61.94,1.26,1.81,1.9,2.72q1.94,2.71,4,5.4c1.34,1.84,2.77,3.49,4.21,5.2s2.92,3.4,4.42,5.09,3.08,3.19,4.66,4.78,3.19,3.23,4.84,4.66c3.31,2.92,6.72,6,10.25,8.61.82,1,1.67,2.07,2.56,3.12s1.82,2.12,2.77,3.1c1.91,2,4,4,6.14,6.09s4.46,3.87,6.87,5.83c1.21,1,2.44,1.89,3.69,2.8s2.54,1.83,3.85,2.74a163.92,163.92,0,0,0,35.48,18.13c3.24,1.25,6.54,2.27,9.89,3.37s6.77,1.95,10.22,2.86,6.91,1.56,10.42,2.28l2.64.54,2.66.44,5.35.82,5.39.76c1.8.2,3.6.36,5.41.52l5.44.47,2.73.21,2.72.1q5.45.19,10.91.29c3.61-.07,7.23-.16,10.84-.28a276,276,0,0,0,41.82-5.32,341.35,341.35,0,0,0,37.39-10.22c23.06-7.82,42.13-16.6,56.66-22,8.94-12.55,31.85-29.44,53.08-49.65,10.69-10,21.07-20.62,30-30.41,4.34-5,8.52-9.56,12-13.82,1.81-2.1,3.51-4,5.06-5.84s2.93-3.5,4.23-4.94c-.76-5.21,1.87-13.51,5.62-23.49.93-2.51,1.94-5.11,3-7.78l3.17-8.33c.56-1.41,1.12-2.84,1.68-4.28s1.05-2.91,1.58-4.37l3.2-8.8c1.39-4.24,2.86-8.42,4.15-12.42s2.48-7.82,3.49-11.33c1,.1.87,5.9,1,8.9.07,1.49.23,2.27.65,1.26a59.65,59.65,0,0,0,2.14-9.47c1.08-5.21,1.07-7.92.8-10a39.07,39.07,0,0,1-.95-6.21c2.06-4.58,3.75-9.81,5.56-14.49s3.5-8.59,5.69-10.63a99,99,0,0,0,.45-11.61c-.09-3.17-.38-5.79-.64-8.43s-.58-5.22-.79-8.26c-.11-1.51-.19-3.15-.22-5s-.09-3.71-.07-5.88c2.76,4.59,5.88,7.87,6.89,19.07.91,13.33-.25,21.5-1.65,27.79-.33,1.56-.73,3.06-1.16,4.53s-.84,2.88-1.26,4.34-.83,3-1.25,4.55-.89,3.37-1.31,5.28c3.27-.25,5.33-10,4.42,6.08a11.14,11.14,0,0,0-3.75,5.59,33.41,33.41,0,0,0-1.13,4.09c-.16.74-.31,1.51-.44,2.29s-.32,1.62-.46,2.46c-.6,3.37-1,7-1.69,10.75s-1.48,7.54-2.52,11.09c-1.71,5.25-3.88,10-6.89,13.27a146,146,0,0,0,3.61-14.17c.61-4,.78-7.19.38-9.25-.57,2.89-1.16,5.86-1.76,8.87l-1.94,7.86c-.7,2.63-1.3,5.34-2.13,7.94l-2.42,7.87c-.42,1.31-.81,2.63-1.26,3.91s-.91,2.54-1.37,3.81q-1.38,3.78-2.75,7.49c-.91,2.46-2,4.78-2.91,7.11l-2.88,6.77-2.92,6.21c3.11-5.49,7.59-13.21,4-4.6a243.81,243.81,0,0,0,24.48-52.2,299.41,299.41,0,0,0,13.51-64.26c1.1-10.28,1.55-20.06,1.8-29.64.06-4.69.15-9.47.06-14,0-2.27-.06-4.58-.12-6.82s-.15-4.43-.22-6.64-.18-4.38-.3-6.52l-.35-6.42-.42-6.24-.22-3.11-.25-3-.5-6-.54-5.86-1.14-11.44q-2.25-20.6-4.48-41.13l-.45-4.62-.23-2.31-.19-2.23-.4-4.45-.33-4.28c-.25-2.91-.36-5.56-.55-8.31-.09-1.37-.12-2.63-.18-4s-.15-2.65-.16-3.87a184.53,184.53,0,0,1,.88-26.74c.13-1,.19-2,.35-2.89s.31-1.9.45-2.85c.07-.48.12-1,.21-1.43l.3-1.43.55-2.88c.94-3.83,1.85-7.74,3.23-11.69a128.29,128.29,0,0,1,4.64-12.08c1-2,1.83-4.12,3-6.19.54-1,1-2.09,1.59-3.14l1.75-3.15a20.13,20.13,0,0,0,3.92-2.53c.67-.54,1.34-1.14,2-1.78s1.43-1.31,2.14-2l4.44-4.57c1.48-1.6,3.12-3.22,4.72-4.81.8-1.43,1.72-2.82,2.6-4.19s1.72-2.72,2.66-4l2.67-3.88q1.38-1.89,2.69-3.71c.86-1.23,1.76-2.42,2.63-3.59s1.69-2.33,2.5-3.46c1.71-2.24,3.19-4.45,4.65-6.57,5.71-8.5,9.24-16.07,8.11-24a268.46,268.46,0,0,0-19.53,19c-6,6.43-11.55,13.05-17,20.18-10.78,14.27-21.56,30.59-29.84,51.45-1.71,1.87-3.17,3.64-4.84,5.24a42.37,42.37,0,0,1-4.85,4.29,24.65,24.65,0,0,1-5.08,3,17.13,17.13,0,0,1-5.58,1.34c.09-1.22.32-2.42.47-3.64s.31-2.45.6-3.66c.53-2.43,1-4.89,1.78-7.32a102.53,102.53,0,0,1,5.43-14.53,153.76,153.76,0,0,1,17.32-28.09c3.38-4.57,7.18-9,10.93-13.47,3.92-4.41,7.8-8.82,11.94-13.16s8.26-8.67,12.39-13,8.35-8.7,12.52-13.08c1.19-1.26,2.13-2.42,3-3.5s1.59-2.08,2.33-3.08,1.46-2,2.33-3a34.75,34.75,0,0,1,3.16-3.13,285.46,285.46,0,0,1,41.4-29.81c3.14-1.83,6.13-3.62,9.19-5.31l4.52-2.52,4.46-2.41c1.48-.78,3-1.62,4.44-2.37l4.41-2.29c3-1.6,5.88-3,8.9-4.57a330.36,330.36,0,0,1,33-14.82c2.6-1.07,5-1.73,7.46-2.62l.92-.32.88-.25,1.76-.49c1.16-.32,2.35-.73,3.47-1s2.21-.5,3.31-.77l1.64-.42,1.56-.25c1-.18,2.06-.38,3.09-.59s1.93-.2,2.9-.34c2-.36,3.69-.26,5.48-.44l.67-.06c.21,0,.42,0,.62,0l1.25,0h1.24a6.27,6.27,0,0,1,1.23,0c.78.11,1.56.19,2.34.25l1.17.07c.3.08.59.15.89.21.59.14,1.22.15,1.8.31a14.89,14.89,0,0,0,1.74.47c.14,0,.29,0,.44.1l.41.18.85.32c.29.1.57.19.86.27a7.07,7.07,0,0,1,.84.39c.55.29,1.13.49,1.7.75a18.48,18.48,0,0,0,1.67,1l.43.21a3.81,3.81,0,0,1,.41.29q.42.3.84.57a12.74,12.74,0,0,1,1.67,1.18c.55.46,1.11.88,1.68,1.29s1.08,1,1.63,1.53a4.23,4.23,0,0,1,.69.71c.21.29.4.59.59.89.38.61.73,1.23,1.07,1.86s.6,1.45.91,2.13q.22.53.48,1c.15.35.29.74.45,1.09a12,12,0,0,0,1.13,2,9.75,9.75,0,0,0,1.42,1.86,11.83,11.83,0,0,0,4.7,2.8,55.72,55.72,0,0,0-5.86-10.52,36.82,36.82,0,0,0-7.13-7.62l-.91-.73-.45-.37-.47-.28c-.62-.37-1.22-.76-1.81-1.17s-1.22-.56-1.8-.87c-.3-.14-.58-.32-.87-.43l-.88-.27c-.59-.17-1.13-.44-1.69-.56s-1.12-.18-1.65-.28a5.42,5.42,0,0,0-.79-.13H1385c-.59-.41-1.27-.71-2-1.13l-.53-.32a5.58,5.58,0,0,0-.69-.23l-1.48-.47-1.53-.54c-.53-.17-1.12-.21-1.69-.34l-1.76-.35-.9-.2-1-.07-2-.17-1-.1a4.63,4.63,0,0,0-1.06,0c-1.48,0-3,0-4.53,0-1.63.18-3.29.33-5,.46l-5.37.89a127.35,127.35,0,0,0-24.12,7.69,241.83,241.83,0,0,0-24.67,12.23,239.87,239.87,0,0,0-24.69,11.57c-8.14,4.33-15.83,8.89-23.21,13.65a347.94,347.94,0,0,0-41,31.06,376.81,376.81,0,0,0-36.31,36.77,305.48,305.48,0,0,0-31.93,44.41,8.89,8.89,0,0,0-5.06,1.88,14.84,14.84,0,0,0-2.09,2,19.71,19.71,0,0,0-1.8,2.59c-.58,1-1.15,2-1.72,3.1s-1,2.31-1.59,3.56c-1.14,2.49-2.09,5.27-3.35,8.2a6.62,6.62,0,0,0-5.08-.34,10.89,10.89,0,0,0-4.61,3.55,17.74,17.74,0,0,0-2.09,3.09c-.66,1.17-1.3,2.47-1.93,3.88s-1.11,3-1.65,4.6c-.27.82-.54,1.66-.79,2.53s-.42,1.78-.63,2.71c.25,4.32,1.77,3.19,3.2,2.1s2.75-2.17,2.66,1.87c-3.59,8-6.59,16.37-12.13,17.53.48-8.67,1.19-18.35,3.73-21.94-1.62.45-3.05,2-4.27,4-.6,1-1.17,2.22-1.73,3.46s-1.12,2.52-1.61,3.82c-2.1,5.15-4,10.21-7.71,10a240.23,240.23,0,0,1,4.81-48.81,231.8,231.8,0,0,1,6.35-23.46,228,228,0,0,1,9.17-22.83c14.07-29.94,35.51-57.59,63.71-80.36,9.53-3.76,16.52-2.9,27.12-7.8,1.31-4.48-3.7-3.27-9.76-1s-13.17,5.47-16.29,4.41c6.83-8.75,17-18.46,27.29-27.63s20.54-17.93,27.2-25.46c4.81-.92,5.92,2.9,15.55-4.12,15.35-9,29.25-17.08,42.53-24a321.68,321.68,0,0,1,38.36-17.35,158.2,158.2,0,0,1,37.67-9.11l1.19-.16,1.19-.06,2.39-.14,4.81-.26c3.21,0,6.42.12,9.67.17,1.61.12,3.2.32,4.82.48s3.24.29,4.84.64l4.83.92,1.22.23,1.2.32,2.4.66a101.14,101.14,0,0,1,26.47,11.57,116.21,116.21,0,0,1,22.39,18.11c13.34,13.89,23.5,30.64,30.64,48.71.84,2.29,1.75,4.55,2.54,6.86s1.49,4.64,2.24,7l1.92,7.09c.6,2.38,1.07,4.79,1.63,7.2a176.45,176.45,0,0,1,3.49,29.69,158.63,158.63,0,0,1-10,61.88c-.62,1.55-1.27,3.19-1.93,4.88-.34.85-.67,1.72-1,2.58s-.79,1.7-1.18,2.56c-1.84,2.44-3.15,1.51-4.57,1.39s-2.82.57-5.41,5.83c-.94,1.41-1.84,2.85-2.8,4.29s-2,2.81-3.07,4.25c-2,2.92-4.29,5.68-6.53,8.56-.57.72-1.11,1.46-1.71,2.15l-1.83,2.08-3.68,4.24c-1.28,1.39-2.63,2.72-3.94,4.09s-2.6,2.79-4,4.06a154.34,154.34,0,0,1-37.1,26.51,121.84,121.84,0,0,1-19.93,7.76l-4.88,1.32c-1.61.41-3.24.65-4.82,1s-3.15.55-4.68.78-3.11.29-4.62.4a70.12,70.12,0,0,1-16.68-.59,63.12,63.12,0,0,1-7-1.8,28.13,28.13,0,0,1-3.11-1.18c-1-.46-1.94-1-2.84-1.47-1.32.18-2.57.33-3.77.46a28.18,28.18,0,0,1-3.46.25c-2.21,0-4.23,0-6.09-.1a33.47,33.47,0,0,1-5.17-.65c-1.6-.29-3.08-.62-4.5-1a42.8,42.8,0,0,1-4.13-1.22l-4-1.32c-2.71-.78-5.56-1.87-8.93-2.65a99,99,0,0,1-20.65-1.14,21,21,0,0,0-7.5-4.31c-.82-.31-1.7-.6-2.61-.92s-1.85-.66-2.83-1c-2-.64-4-1.26-6.23-1.87-8.69-2.69-18.8-5.66-27.08-9.6-9.23-4.41-16.91-9.79-24.47-15.59s-15.06-11.82-24.1-17.66c-15.71-10.22-27.45-16.79-37.41-21.46s-18.11-7.56-26.52-11c-10.37-4.21-22.85-10.39-34.93-15.5s-23.74-9.11-32.21-9c2.44,2.56,5,5.12,7.42,7.7s4.62,5.14,6.48,7.61c12.21,4.32,25.8,8.19,40,13.21s28.88,11.14,43.44,19.84a104.78,104.78,0,0,1,12.13,8.52c3.63,2.85,7,5.82,10.39,8.61a97.87,97.87,0,0,0,10.89,7.94,69.46,69.46,0,0,0,6.3,3.45,71.16,71.16,0,0,0,7.23,2.88l-1.72,3.45c26.24,11.61,48.32,21.67,69.12,30,10.41,4.11,20.48,7.79,30.56,11a250.84,250.84,0,0,0,30.5,7.4l7.8,1.17c2.62.34,5.24.51,7.89.77,1.33.1,2.66.26,4,.32l4,.11,4,.1,2,0,2-.08,8.24-.35c2.75-.24,5.52-.58,8.32-.9s5.6-.82,8.43-1.36l4.27-.83c1.41-.34,2.81-.72,4.24-1.09a136.39,136.39,0,0,0,34.19-14.11,139.41,139.41,0,0,0,32.22-25.9c2.48-1.78,5-3.49,7.49-5.32l7.24-5.62L1484,1290c1.18-1,2.26-2,3.35-3l3.29-3.09c1.08-1,2.24-2,3.25-3.1l3.11-3.19c2.07-2.12,4.18-4.21,6.06-6.42s3.9-4.32,5.77-6.5l5.42-6.57c4-5.51,7.58-10.38,10.8-15.29-1.13,3.17-2.08,6.22-3.25,9l-1.6,4.15c-.25.67-.5,1.34-.74,2s-.55,1.28-.81,1.91c-.81,1.91-1.58,3.76-2.34,5.56-.37.91-.74,1.8-1.09,2.68s-.79,1.72-1.16,2.57l-2.22,5c-.72,1.63-1.39,3.26-2.17,4.79l-4.42,9.11-4.75,8.78c-1.67,2.91-3.53,5.75-5.43,8.72-.48.74-1,1.49-1.47,2.23l-1.61,2.18q-1.65,2.2-3.37,4.44l-1.77,2.26c-.63.75-1.28,1.47-1.94,2.22-1.33,1.49-2.71,3-4.15,4.55-.73.77-1.44,1.58-2.24,2.33l-2.42,2.28q-2.47,2.31-5.17,4.72a160.67,160.67,0,0,1-33.5,30.82,175.39,175.39,0,0,1-44.54,22.14A203,203,0,0,1,1342,1397a231.76,231.76,0,0,1-52.35-2.84,310,310,0,0,1-49.57-12.65,480.09,480.09,0,0,1-45.54-18.39c-29.07-13.38-55.78-28.08-81.16-41.08-17.44-12.08-34.28-23-50.91-33q-12.46-7.46-24.81-14.13c-4.12-2.24-8.19-4.26-12.28-6.37s-8.16-4.18-12.33-6.06l-12.45-5.78c-4.15-1.91-8.4-3.64-12.6-5.46-8.38-3.7-17-7-25.55-10.43-4.3-1.72-8.68-3.27-13-5s-8.71-3.35-13.17-4.89-8.88-3.22-13.35-4.87l-13.59-4.77c-2-2.67-5.62-5.44-10.46-8-2.41-1.3-5.1-2.61-8-3.92s-6-2.65-9.22-3.84-6.61-2.45-10-3.67l-5.15-1.84c-1.72-.62-3.47-1.15-5.2-1.73-3.46-1.14-6.89-2.28-10.21-3.43l-4.91-1.72-4.72-1.63c-7.52-1.15-2.72,6-15.62,1.21-6.69-1.78-12.56-3.58-17.76-5.51-2.59-1-5.05-1.91-7.36-2.85s-4.48-1.9-6.53-2.89a155.37,155.37,0,0,1-20.5-12c-3-2-5.8-4.12-8.74-6s-6-3.83-9.22-5.65a85.92,85.92,0,0,0-10.74-5.16,110.88,110.88,0,0,0-13.38-4.18,41.14,41.14,0,0,0-6.4-1c-2.42-.18-5.06-.28-7.79-.38s-5.53-.17-8.26-.31c-1.37-.07-2.72-.16-4-.25s-2.61-.17-3.84-.3c-14.06-1.65-41.29-6.32-52.8-6.15-2.59,0-5.17,0-7.75.09s-5.14.24-7.7.4l-7.66.51c-2.54.19-5.08.38-7.62.68-5.07.56-10.13,1.17-15.18,1.79-2.53.29-5.06.67-7.59,1.06l-7.59,1.13-7.63,1.11c-2.55.37-5.1.83-7.66,1.23-5.12.83-10.29,1.57-15.52,2.32s-10.5,1.59-15.87,2.24l-4,.47-4.07.54c-2.72.34-5.48.65-8.26.93-15.92,1.54-32.29,3.77-49,6.25-4.17.65-8.34,1.4-12.55,2.1L456.5,1164l-3.17.54-3.17.61c-8.43,1.67-17,3.17-25.47,5.13l-12.81,2.8-12.79,3.13c-8.59,2-17,4.32-25.36,6.72s-16.48,5-24.42,8a243.17,243.17,0,0,0-23,9.65l-2.44.78-2.41.9c-1.62.62-3.27,1.25-4.92,1.94-3.2,1.48-6.57,2.95-9.76,4.8s-6.44,3.79-9.68,5.87c-3.09,2.24-6.3,4.49-9.25,7.1l-2.28,1.91c-.75.65-1.44,1.36-2.17,2L281.2,1228c-.74.7-1.47,1.4-2.11,2.11a87.4,87.4,0,0,0-7.63,9.13,103.33,103.33,0,0,0-6.63,10.29,108.54,108.54,0,0,0-5.42,11.23c-6.39,15.42-9.05,32.63-6.69,48.13a69.52,69.52,0,0,0,6.93,21.83A91.28,91.28,0,0,0,273.33,1350c5.48,3.38,11.49,6.86,18.13,10.3q5,2.58,10.38,5.15l5.52,2.5,2.79,1.29,2.86,1.19,5.76,2.44,5.92,2.26c1,.37,2,.79,3,1.13l3,1c2,.67,4,1.44,6.13,2.06a246.47,246.47,0,0,0,25.39,6.5,218,218,0,0,0,26,3.3,176.77,176.77,0,0,0,25.26-.26c16.32-1.29,31.22-5.16,43-11,9.09-2,3.66,4.5,14.73,1.09,14.43-6.41,29.8-12,43.34-18.69s25-14.34,31.18-23.51c1.72-1,3.31-1.94,4.8-2.72s2.88-1.44,4.15-2a39.94,39.94,0,0,1,6.81-2.52l6.74-5.56,6.56-5.76,12.88-12.28c4.18-4.26,8.25-8.66,12.38-13,4-4.47,7.91-9.1,11.89-13.61a611.25,611.25,0,0,0,44-60.33c14-21.61,27.66-44.64,41.77-69.15l44.58-78.08c7.39-7.29,14.45-14.19,21.15-21.07a10.46,10.46,0,0,1,1.15-1.06c.36-.31.74-.63,1.1-1l2.2-2c1.44-1.34,2.93-2.71,4.37-4.14,2.91-2.84,5.82-5.87,8.63-9.1a134.62,134.62,0,0,0,15.78-22,107,107,0,0,0,11.18-27.65c.94-2.16,1.74-4.33,2.58-6.54s1.55-4.45,2.18-6.71,1.25-4.56,1.83-6.91.88-4.67,1.3-7.09a92,92,0,0,0-.26-30.62c-.56-2.65-1.19-5.37-2-8.1s-1.84-5.43-3-8.21-2.46-5.51-3.92-8.3l-2.38-4.15c-.83-1.39-1.63-2.86-2.6-4.2-7.38-11.13-17.76-22.3-31.77-32.82a195,195,0,0,0-49.68-15.29,272.64,272.64,0,0,0-42.8-3.61c-13.29-.13-25.62.51-37.12,1.34s-22.17,1.84-32.09,2.6c-12.73-2.87-22.35-3.26-29.83-2.59a86.35,86.35,0,0,0-17.27,3.13c-2-.51-4-1-5.93-1.52l-5.8-1.7-11.46-3.38c-1.91-.54-3.76-1.18-5.61-1.81l-5.54-1.89-11-3.78c-7.15-2.78-14.27-5.51-21.28-8.42l-10.37-4.6-5.18-2.33-2.59-1.17-2.54-1.26-10.17-5.1-5.1-2.59c-1.72-.85-3.35-1.83-5-2.75l-10.07-5.66c-1.68-1-3.39-1.91-5.07-2.9l-5-3.1-10.08-6.32-2.54-1.61-2.95-2-6-4.21q-6-4.27-12.06-8.77l-12-9.58-6.06-4.88c-1-.83-2-1.6-3-2.47l-2.82-2.56q-5.61-5.11-11-10.2c-1.78-1.71-3.62-3.36-5.31-5.1l-5-5.23q-4.92-5.24-9.65-10.38c-.78-.86-1.58-1.71-2.34-2.58l-2.18-2.65-4.28-5.27q-4.25-5.25-8.3-10.42c-.7-.85-1.32-1.73-1.93-2.62s-1.24-1.75-1.85-2.63L320.4,687l-7-10.32c-4.06-7-7.82-13.89-11.51-20.63-3-6.85-5.89-13.58-8.71-20.18A145.23,145.23,0,0,1,287,616a96.7,96.7,0,0,1-1.8-10.25,75.55,75.55,0,0,1-.61-10.58,59.41,59.41,0,0,1,1-10.82c.27-1.8.81-3.59,1.18-5.39l.79-2.66c.24-.89.64-1.74.95-2.61a71.49,71.49,0,0,1,11-19.11C308.56,543,320,533.8,331.76,524.23s24.61-19,38-28.5,27.14-19.26,41.44-29.74c6-2.54,9.84-2.53,17.79-7.31.48-2.75,4-5.77,8.84-8.93,2.44-1.59,5.22-3.19,8.19-4.81l2.08-1.12,2-1,4-2.07c5.37-2.8,10.69-5.63,14.6-8.68s6.5-6.27,6.36-9.85a113.62,113.62,0,0,0-19.8,5.29c-3.76,1.32-7.7,2.85-11.77,4.55l-3.07,1.33c-.23.09-.55.24-.87.4l-.94.44-1.89.91c-2.53,1.22-5.07,2.51-7.65,3.85-10.35,5.29-21.06,11.52-31.52,18.13S377.06,470.84,368,477.9a57,57,0,0,0-14.21,6.17c-2.36,1.42-4.7,3-7.07,4.72-1.19.85-2.38,1.72-3.57,2.63s-2.31,1.86-3.48,2.83c-2.31,1.93-4.64,3.95-7,6l-6.86,6.37c-2.36,2.13-4.54,4.33-6.86,6.49s-4.74,4.29-7,6.42c-1.45,1.33-2.93,2.64-4.42,3.94s-3,2.59-4.43,3.88c-2.91,2.57-5.79,5.12-8.58,7.72a155.74,155.74,0,0,0-15.58,16.36,86.67,86.67,0,0,0-6.4,9.09,79.26,79.26,0,0,0-5,9.79,55.22,55.22,0,0,0-3.28,10.27A52.34,52.34,0,0,0,262.78,591a33.23,33.23,0,0,0,1.87,11.56c1.1,3.45,2.34,6.22,2.59,7.62.93,5.15,1.85,9.94,2.89,14.68.25,1.19.52,2.38.8,3.56s.55,2.37.86,3.56.6,2.4.93,3.6c.16.61.33,1.21.49,1.82s.42,1.22.62,1.84c1.69,4.92,3.51,10.09,5.73,15.68l1.74,4.27a20.59,20.59,0,0,0,1.13,2.18l1.24,2.21c1.69,3,3.52,6.08,5.54,9.33l3.31,5.3a53.82,53.82,0,0,0,3.36,5l7,9.29,6.56,8.56c.54.69,1,1.37,1.59,2s1.13,1.3,1.68,1.95l3.28,3.79c4.32,5,8.4,9.62,12.36,14,4.18,4.31,8.31,8.36,12.37,12.38l6.11,6,1.53,1.49,1.62,1.43,3.26,2.87,13.52,11.82c2.29,2.08,4.88,4,7.46,6l8,6.28,8.56,6.72q4.49,3.33,9.4,6.85t10,7.08l2.5,1.74c.45.32.75.5,1.11.72l1,.67,4.14,2.64,8.28,5.25,4.13,2.61,4.21,2.46,8.4,4.88,4.18,2.41c1.39.81,2.78,1.6,4.21,2.33q8.5,4.49,16.88,8.8a408.87,408.87,0,0,0,66,25.93c5.26,1.46,10.41,2.82,15.41,4.06s10,2.06,14.77,2.91q3.59.64,7,1.18c2.24.29,4.42.54,6.56.76,4.32.47,8.37.71,12.3.88,15.62.57,28.23-1.08,37.53-5.09,16.42,5.14,28.23,4,39.67,2.13s22.45-4.7,36.56-2.6c4.54,1.56,8.39,2.89,11.74,4s6.18,2.06,8.69,2.87,4.58,1.48,6.55,2.07,3.73,1.19,5.52,1.78,3.56,1.19,5.45,2,3.92,1.69,6.23,2.8,4.84,2.58,7.81,4.29c1.5.83,3,1.9,4.7,3s3.49,2.25,5.33,3.67A108.25,108.25,0,0,1,779.5,907l1,3,.51,1.49.43,1.53q.84,3.06,1.56,6a95.89,95.89,0,0,1,1.82,12,99.53,99.53,0,0,1,.35,11.8,100.65,100.65,0,0,1-1.2,11.59,113.09,113.09,0,0,1-2.38,11.15c-.55,1.84-1.15,3.66-1.71,5.43-.3.89-.55,1.76-.87,2.65l-1,2.62c-5.46,13.94-13.82,26.31-23,36.75a192.7,192.7,0,0,1-14.26,14.42q-3.64,3.3-7.23,6.36c-.61.5-1.18,1-1.78,1.51l-.44.36-.6.72-1.21,1.46-5,6.07c-1.94,4.6-4,9.28-6.34,13.9l-1.75,3.46c-.58,1.13-1.23,2.33-1.85,3.47-1.25,2.29-2.51,4.52-3.77,6.65s-2.54,4.18-3.82,6.12-2.61,3.7-3.93,5.37a53,53,0,0,1-8,8.37c2-6.13,4.32-12.39,6.86-19q1.9-5,4-10.12l4.18-10.17c2.73-6.67,5.38-13.19,7.82-19.48l.9-2.34c.13-.43.25-.76.37-1.18q.38-1.18.75-2.4c.28-.79.48-1.61.76-2.4s.5-1.62.73-2.44a89.29,89.29,0,0,0,4-20.72,52.91,52.91,0,0,0,0-5.49,51.28,51.28,0,0,0-.65-5.52l-.26-1.38c-.13-.45-.25-.9-.37-1.35a20.78,20.78,0,0,0-.72-2.71c-.15-.44-.3-.89-.44-1.34a7.71,7.71,0,0,0-.45-1.33c-.38-.86-.72-1.74-1-2.63a47.34,47.34,0,0,0-14.09-17.47,62,62,0,0,0-9.39-6.05,73.43,73.43,0,0,0-10-4.39c-1.56-.67-3.32-1.3-5-1.93s-3.33-1.27-5.13-1.87l-5.26-1.79-5.43-1.7c-1.78-.56-3.65-1.1-5.51-1.63s-3.67-1.05-5.57-1.54c-3.81-1-7.51-2-11.39-2.84-7.59-1.79-15.44-3.36-23.11-4.71s-15.45-2.48-23.14-3.43c10.89,9.82,27.68,11.1,41.25,15.6,9.41,3.09,18.36,6.25,26.7,9.51,2.16.8,4.12,1.63,6.14,2.45l3,1.23,2.86,1.25,2.88,1.25c.5.2.92.42,1.37.63l1.21.56c.28.16.48.23.84.4s.76.38,1.14.58a60.88,60.88,0,0,1,16.93,12.07,38.54,38.54,0,0,1,6.22,8.73,39.38,39.38,0,0,1,3.52,10.38c1.35,7.33.32,15-1.76,22.52-.62,2.25-1.16,4.5-1.69,6.82-.13.57-.24,1.2-.35,1.73l-1.4,4-1.49,4.19-1.59,4.34c-1.1,3-2.22,6-3.44,9.09L699,1052l-2,5c-2.72,6.67-5.4,13.45-8.26,20l-4.29,10-4.51,9.85c-3,6.67-6.33,13.06-9.72,19.6-1.68,3.29-3.51,6.41-5.34,9.62s-3.7,6.41-5.67,9.56-4,6.21-6.14,9.32c-1,1.56-2.1,3.13-3.19,4.66l-3.38,4.52c-10.56,14.23-21.2,25.35-32.11,36.56-2.77,2.74-5.53,5.52-8.31,8.38s-5.73,5.49-8.62,8.4l-2.18,2.2c-.72.75-1.46,1.49-2.23,2.19q-2.26,2.13-4.56,4.38t-4.62,4.62c-.77.82-1.58,1.57-2.39,2.33s-1.62,1.54-2.44,2.32c-2.33-.61-7.6,5.58-7.85.28a90.86,90.86,0,0,1-23.95,17.37l-3.14,1.65c-1.05.53-2.14,1-3.21,1.42l-6.39,2.66-3.16,1.29c-.52.21-1.06.46-1.56.62l-1.5.49c-2,.65-3.93,1.38-5.94,2-7.89,2.55-15.62,4.86-23,7.88a77.07,77.07,0,0,0-20.88,12.44c.2-1.5,1.75-2.7,2.53-3.69S481.82,1268.27,479,1267.92ZM1259.18,295c5,.65,3.83,2.84-.16,2.57.54,1.56,7.13,1.58,11.78,2.1-1.25,2.58-14.82.2-16.08,2.77a88.19,88.19,0,0,0,10.67,3.65c2,.56,4,1.09,6.13,1.61s4.26,1.13,6.44,1.67a47.71,47.71,0,0,1-7.93.44,35.55,35.55,0,0,1-6.83-.8,21.41,21.41,0,0,1-9.43-4.32c-2-1.77-2.85-3.78-2.07-5.56S1254.84,295.79,1259.18,295Zm226,107.24c-1,3.06-4.43,3.61-9.21,2.87a61.4,61.4,0,0,1-8-2.06c-1.46-.46-3-1-4.48-1.57s-3.12-1.14-4.7-1.77c-3.14-1.29-6.41-2.57-9.53-4s-6.22-2.7-9-4-5.41-2.5-7.61-3.54-4-2-5.18-2.71a84.21,84.21,0,0,1-7.91-5.31,53.12,53.12,0,0,1-7-5.92c-3.62-3.71-4.41-6.76,2.3-6.54,7.42.33,20.29,6.61,33.35,14.24,6.56,3.77,13.16,7.91,19.45,11.51A112.25,112.25,0,0,0,1485.16,402.27Zm88.64,61.14c1.71-2.77,4.4-2.37,7.56-.41.48,1.36,1.06,2.79,1.7,4.27s1.28,3.08,2,4.7c1.52,3.21,3.1,6.73,4.84,10.36,3.36,7.34,7.07,15.28,10,23.34,6,16,9.23,32.2,6.26,40.87-2-9-4.06-16.28-5.86-22.87-1-3.28-1.78-6.41-2.76-9.42-.47-1.51-.93-3-1.38-4.49s-1-2.95-1.51-4.43A169.55,169.55,0,0,0,1573.8,463.41ZM1599,582.27c3.15-3.11,3.49,6.88,6,6.72-2,5.12-1.73,16.21-5.2,18.7-.19-1.56-.3-3-.37-4.22s-.14-2.38-.15-3.42c0-2.07.17-3.8.25-5.48s.23-3.35.23-5.3A44.15,44.15,0,0,0,1599,582.27Zm32,8.07c.1,23.14-2.74,47.3-7.74,71.49s-11.89,48.54-19.58,72.89c-6.6,20.95-12.22,41.95-19,61.54S1570,834,1559.44,848.4c6.57-18.91,16.71-42.09,24.58-65.23a315,315,0,0,0,9.74-33.77c2.38-10.71,3.69-20.64,3.66-28.95,6.84-17.6,13.87-37.41,18-56.85a179.27,179.27,0,0,0,3.91-28.23,103.78,103.78,0,0,0-1.39-24.4c1.45-.81,2.52-2.56,3.46-4.73.47-1.08.91-2.27,1.33-3.49s.78-2.48,1.18-3.71C1625.52,594.15,1627.15,589.75,1631,590.34Zm-31,28.27,3.88,0c.56,7.66.84,18.56-.32,27.59a56.8,56.8,0,0,1-1.08,6.32,29.6,29.6,0,0,1-1.54,5.11c-1.21,2.89-2.68,4.65-4.49,4.67,0-9.21.07-15.44.81-21.73C1597.76,634.31,1599,628,1599.92,618.61Zm-8,46.71c.68,3,2.23,4.37,4.49,4.49-1.08,8.11-3.47,10.88-4.87,9.65-.68-.6-1.15-2.19-1.16-4.6a25.15,25.15,0,0,1,.37-4.2A43.61,43.61,0,0,1,1592,665.32Zm-26-.84a7.86,7.86,0,0,0-2.72,4,35,35,0,0,0-1.27,6.09c-.59,4.44-1,9.36-2.18,12.76a56.83,56.83,0,0,1-4.1,8.78c-.75,1.31-1.5,2.56-2.27,3.77l-2.35,3.53c-3.1,4.6-6.16,8.88-8.41,14.31-4.21,10-5.57,17.57-7.33,26a107.85,107.85,0,0,1-10.74,30.55c-3.9,8.23,1.73,7.26,1,12.48a619.39,619.39,0,0,1-47.83,90.34q-13.79,21.66-29.24,42.49-7.73,10.44-15.88,20.65c-2.71,3.42-5.48,6.8-8.26,10.19l-4.2,5.06-4.38,5.1a1330.29,1330.29,0,0,1-162.87,161.05c-4.22-14.07,33.92-44.45,15.93-53.82,7.34-8.38,14.59-16.33,21.76-24l21-22.27c6.84-7.22,13.62-14.19,20.24-21.07L1351,980l9.32-10.16,2.3-2.54,2.24-2.58,4.44-5.17c5.88-6.91,11.62-13.86,17.19-20.94s10.66-14.08,15.48-21.39,9.27-14.87,13.41-22.76c15-19.22,29.24-36.22,43.33-54.52,7-9.15,14-18.63,20.92-28.88a377,377,0,0,0,20.21-33.48c6.72-12.57,12.85-25.23,18.52-37.24s10.85-23.4,15.78-33.56,9.75-19.11,14.85-26.33a64.91,64.91,0,0,1,8-9.47A36.33,36.33,0,0,1,1566,664.48ZM1429.63,865.09c-6.59,9.48-9.3,5.8-14.69,11a127.61,127.61,0,0,1-18.27,20.75c-5.62,5.15-11,9.24-16.74,14.45q-2.46,2.48-5.08,5.36c-1.87,2-3.79,4.12-5.77,6.35-3.95,4.46-8.1,9.34-12.38,14.46s-8.65,10.53-13.18,15.92l-13.78,16.09c-4.6,5.31-9.18,10.52-13.66,15.44s-9,9.39-13.31,13.48c-8.58,8.17-16.43,14.49-22.9,17.54,9.05-7.62,13.82-16.28,18.75-25a135.23,135.23,0,0,1,8.09-13,64.52,64.52,0,0,1,11.52-12.59,180.43,180.43,0,0,1,9.86-26.58,185.32,185.32,0,0,1,15.18-27.14q2.36-3.52,5-7.13l2.69-3.64,2.79-3.66c3.55-4.71,7.47-9.57,11.71-14.69s8.88-10.47,13.88-16.14,10.38-11.64,16.15-18c4.91-5.41,10.76-10.27,16.53-15.19s11.5-9.88,16.08-15.39a156.34,156.34,0,0,0,11.52-16c3.42-5.43,6.55-10.79,9.45-15.75,5.85-9.92,11-18.2,17.25-22.25,2.94,3.94,2.71,10.59.5,18.8s-6.5,17.92-11.49,27.93C1445.36,830.55,1432.29,851.52,1429.63,865.09Zm124.88-5.86c-1.54,9.59-7.25,13.45-14.67,28.1-2.15-2.21.23-7.17,3.79-12.6S1551.9,863.33,1554.51,859.23Zm-386.87,431.92c-9.79,8.67-19.67,17.07-29.38,25.72l-14.61,13c-4.92,4.3-9.92,8.53-14.92,12.81s-10.07,8.55-15.2,12.82l-7.74,6.41-8,6.28c-10.73,8.32-21.76,16.7-33.48,24.82-10.95,7.43-20.88,13.64-30.46,19.4l-7.12,4.25-7.12,4.05-14.27,8.1c-19.14,11.12-39.71,23.14-67,42.4-8.06,5.55-14.09,11.06-21.15,17.4l-5.54,4.91-3,2.6-3.13,2.65c-4.2,3.47-8.91,7.31-14.49,11.61-12.41,9.68-25,18.42-35.22,27.79a94.5,94.5,0,0,0-13.26,14.44A44.68,44.68,0,0,0,815,1568a133.9,133.9,0,0,0-13.75,17.57,63.89,63.89,0,0,0-8.18,17.73c-3.15,11.6-.62,22.35,6.76,29.72a13.75,13.75,0,0,1-4.7-1.68,9.77,9.77,0,0,1-1.25-.78c-.4-.29-.81-.59-1.23-.93s-.84-.68-1.28-1.06a12.21,12.21,0,0,1-1.28-1.21,36.67,36.67,0,0,1-8.43-14.82,59.83,59.83,0,0,1-2.15-22,110.43,110.43,0,0,1,4.49-23.06,175.5,175.5,0,0,1,18.25-23.93,275.11,275.11,0,0,1,21.46-21.33,423.43,423.43,0,0,1,48-36.76l25.4-16.76,12.68-8.36,6.33-4.16,6.25-4.25c16.63-11.4,33.35-22.44,49.63-33.88,65.58-45.19,128.87-89.76,193.07-129.79C1166,1289.19,1166.81,1290.17,1167.64,1291.15ZM945.45,1660.08c0-.94,2.09-2,4.13-3.08a21.61,21.61,0,0,0,2.69-1.57c.67-.55,1-1.08.81-1.57q2.88-1,5.67-2c1.81-.78,3.6-1.59,5.35-2.41s3.41-1.78,5.07-2.69l2.45-1.4c.81-.47,1.56-1,2.33-1.52a98.72,98.72,0,0,0,16.33-13.47c9.45-9.71,16.39-19.94,22.65-29.57.75-1.15,1.55-2.26,2.4-3.34s1.62-2.23,2.5-3.32l1.35-1.65.69-.82.65-.85c.87-1.14,1.78-2.29,2.71-3.46s1.81-2.4,2.7-3.67,1.83-2.55,2.66-3.94a59.65,59.65,0,0,0,4.56-9,62,62,0,0,0,2.91-9.85c1.75-8.51,2.19-17.7,3-25.56s2.16-14.43,6-17.85c-2.41-10-2.39-24.25-3.44-39.58s-2.74-31.38-7.15-43.43c1.63.11,3.43,2.52,5.28,5.69s3.74,7,5.53,10.16c3.57,6.2,6.84,9.43,8.84-2.64-3.69-9.8-9.71-9-13.68-17.78-1.52-12-2.11-22.34-1.38-30s2.68-12.64,6.07-14.14c2.92,8.2,5.92,20.31,8.88,34.35s5.81,30,7.72,46.21a279.42,279.42,0,0,1,2,47.18c-.82,14.61-3.24,27.41-6.45,36.54,0,2.83-.29,5.58-.53,8.29s-.82,5.3-1.31,7.88A89.18,89.18,0,0,1,1045,1592a163.05,163.05,0,0,1-17.21,23.56c1.25,3,5-2.57,8-7.11a38.14,38.14,0,0,1-2.74,5.55,39.36,39.36,0,0,1-3.4,5.2c-1.27,1.64-2.57,3.28-4,4.82s-3,3-4.52,4.41a102.56,102.56,0,0,1-21.32,14.17c-7.69,3.89-15.62,7.13-23.33,10.39A212.17,212.17,0,0,0,954,1663.41c-2.78.8-3.32-.63-4-2S948.57,1659,945.45,1660.08ZM1037.93,1374a66.08,66.08,0,0,1,1.32-10.84c.64-3.2,1.38-6.24,1.9-9.89,3.78,1.81,5.9,8.61,7.08,20.18C1046.18,1384.81,1042,1379.78,1037.93,1374Zm23.92-243.29a598.75,598.75,0,0,1,70.78-71.59q18.4-15.84,37.06-29.87,4.65-3.48,9.29-6.92c3.11-2.24,6.2-4.51,9.29-6.7s6.14-4.36,9.34-6.52,6.25-4.32,9.56-6.47c9.2-6.14,19.55-12.41,30.78-18.58a351,351,0,0,1,37.37-17.77c6.75-2.82,14.09-5.38,21.48-7.86q5.76-1.77,11.57-3.45c1.9-.59,4-1,6-1.56l6.1-1.47a252.6,252.6,0,0,1,53.11-6.37q7.07,0,14.14.27c4.77.34,9.54.78,14.29,1.25,1.21.14,2.34.21,3.61.42l3.74.58c2.5.4,5,.81,7.48,1.25,1.24.23,2.49.41,3.72.7l3.69.84c2.46.58,4.92,1.17,7.37,1.79a217.52,217.52,0,0,1,54.51,22.71,241.9,241.9,0,0,1,43.69,32.88,285,285,0,0,1,32.84,37,298.51,298.51,0,0,1,18.62,38.94c1.58,3.8,3,7.75,4.37,11.75.69,2,1.45,4,2.08,6.06s1.29,4.14,1.93,6.22,1.37,4.3,1.93,6.46,1.15,4.32,1.73,6.48,1.16,4.33,1.65,6.52,1,4.37,1.46,6.55a391.09,391.09,0,0,1,7.36,50.12q.24,2.86.47,5.63.12,1.38.24,2.73c.06.9.11,1.79.17,2.67.21,3.52.44,6.88.7,10.06s.37,6.14.63,8.9.59,5.3.83,7.58a291.45,291.45,0,0,1-17.84,66.71c-1.73,4.07-3.47,8.14-5.27,12.18s-3.81,8-5.76,11.94c-.94,2-2,3.93-3.07,5.86l-3.18,5.8c-1.09,1.91-2.11,3.88-3.27,5.74l-3.46,5.62c-1.17,1.87-2.34,3.73-3.5,5.6s-2.45,3.64-3.68,5.46l-3.77,5.4c-1.27,1.78-2.49,3.62-3.85,5.32l-7.87,10.12c-2.65,3.23-5.4,6.37-8.13,9.53a296.77,296.77,0,0,1-35.89,34.27,281.67,281.67,0,0,1-41,27.1l-10.17,4.28c-1.71.69-3.38,1.44-5.13,2.08l-5.24,1.92c-3.51,1.26-7,2.6-10.57,3.74L1415.4,1454l-2.72.82c-.91.27-1.77.47-2.66.7l-5.29,1.36c-3.54.87-7.06,1.83-10.65,2.59l-10.83,2.17c-1.81.34-3.62.73-5.45,1l-5.48.82c-3.66.53-7.34,1.09-11,1.54l-11.06,1c-1.84.16-3.7.35-5.55.46l-5.52.25c-3.68.14-7.4.32-11.08.38l-11-.09c-1.83,0-3.7,0-5.5-.13l-5.43-.3c-3.6-.23-7.29-.38-10.85-.73l-10.69-1.13c-3.6-.35-7-.94-10.53-1.45l-5.23-.82-2.62-.41-2.56-.49-10.21-2c-1.72-.33-3.38-.72-5-1.12l-5-1.2c-6.71-1.56-13-3.44-19.49-5.32-3.2-1-6.25-2-9.39-3s-6.25-2.07-9.23-3.21l-9-3.39c-3-1.16-5.85-2.38-8.77-3.59l-4.36-1.84c-1.46-.62-2.84-1.27-4.25-1.91l-8.44-3.9c-11-5.34-21.67-11-31.62-17-9.08-5.43-16.11-11.29-23-17.17-3.49-2.94-6.8-5.9-10.41-8.82s-7.25-5.81-11.4-8.64c-14.25-9.83-32.54-18.94-47.37-29.59-10.68-7.67-20.32-15.92-29.7-23.81l-7-5.81c-2.29-1.87-4.51-3.63-6.8-5.41a153.51,153.51,0,0,0-14-10c-2.23-1.4-4.72-2.75-7.34-4.07s-5.36-2.65-8.15-3.86a150.94,150.94,0,0,1-15.47-7.61c-5.92-3.44-8.33-8.48-13.64-12-8.34-5.15-18.18-9.7-27.77-13.81-2.39-1-4.75-2.11-7-3.19s-4.59-2-6.77-3.13a82,82,0,0,1-11.82-6.84c-27.86-8-54.37-15.4-82.62-21.79l-10.66-2.37c-3.58-.8-7.23-1.44-10.89-2.18s-7.34-1.46-11.08-2.15L764.54,1220c-7.65-1.37-15.55-2.3-23.64-3.4l-3-.4-3.07-.32-6.23-.64-6.31-.63c-2.12-.2-4.25-.43-6.41-.56,31.65-3.38,66.2-2.69,78.59-15.36L801,1200c2.19.45,4.36,1,6.53,1.44l13,2.82c4.29,1,8.53,2,12.77,3.06s8.49,2,12.66,3.23l12.55,3.53c2.09.58,4.16,1.25,6.23,1.92l6.2,2,6.2,2.1,3.1,1.07,3.07,1.18q6.13,2.37,12.27,4.91c3,1.2,5.63,2.43,8.14,3.6l7.16,3.33,6.8,3.16c2.24,1.09,4.51,2.19,6.91,3.31s4.92,2.26,7.66,3.46l4.29,1.87,4.63,2.07c3.24,1.43,6.79,2.94,10.74,4.58,2,.8,4,1.71,6.2,2.66l6.83,2.94c8.71,3.59,17.24,7,25.73,10.12,4.22,1.63,8.35,3.37,12.44,5.11s8.13,3.55,12,5.66l7.75,4.21c2.58,1.44,5.12,2.8,7.74,4.37l7.81,4.67,7.82,4.84c10.44,6.55,20.93,13.46,31.53,20.45s21.37,14.06,32.34,20.93,22.15,13.56,33.69,19.75c2.44,1.33,4.93,2.62,7.45,3.89s5,2.53,7.54,3.76c5.13,2.42,10.19,4.82,15.41,7.07,10.3,4.58,20.86,8.72,31.19,12.72,20.82,7.9,41,14.88,59.37,22.4,20.06,3.7,42.16,6.78,65.49,6.9l8.79-.13c1.47,0,2.93,0,4.41-.12l4.44-.29c3-.2,5.92-.39,8.89-.63l8.9-1.09,4.45-.57c1.48-.23,3-.51,4.42-.77l8.84-1.63c2.93-.6,5.82-1.37,8.72-2.07l4.34-1.08c.73-.19,1.44-.36,2.17-.57l2.2-.67q4.38-1.34,8.73-2.75c1.47-.44,2.87-1,4.29-1.53l4.23-1.61c5.68-2.07,11-4.69,16.41-7.18,2.65-1.3,5.21-2.73,7.79-4.11l3.82-2.1c1.28-.69,2.48-1.49,3.71-2.24q3.68-2.28,7.25-4.59c2.37-1.57,4.63-3.26,6.9-4.9,4.57-3.22,8.74-6.83,12.85-10.33l1.53-1.33,1.46-1.38,2.88-2.78c1.88-1.86,3.78-3.67,5.55-5.57a154,154,0,0,0,18.14-23.55c2-2,4.15-4.08,6.13-6.23s3.87-4.44,5.77-6.7c.94-1.14,1.93-2.25,2.8-3.44l2.65-3.58c1.73-2.4,3.52-4.78,5.13-7.28a174.17,174.17,0,0,0,9-15.4l2-4c.67-1.32,1.35-2.64,1.93-4q1.82-4.07,3.54-8.14c1-2.3,1.75-4.69,2.6-7l1.22-3.53c.4-1.18.83-2.34,1.14-3.54,1.34-4.78,2.74-9.51,3.65-14.33a196.25,196.25,0,0,0,3.85-28.58,261,261,0,0,0-2.9-53.3,182.24,182.24,0,0,0-.71-42.27,175,175,0,0,0-13.73-48.64c-.93-2.14-2-4.24-3.07-6.38s-2.11-4.31-3.35-6.44-2.47-4.28-3.77-6.43c-.65-1.07-1.27-2.17-2-3.23s-1.43-2.13-2.16-3.2c-1.46-2.13-2.94-4.29-4.5-6.42s-3.3-4.22-5-6.33c-.86-1.06-1.71-2.13-2.61-3.17l-2.81-3.1c-1.92-2.06-3.82-4.14-5.86-6.17a171.56,171.56,0,0,0-28.48-22.62,167.47,167.47,0,0,0-36.35-16.86q-4.07-1.22-8.06-2.26l-4-1c-1.33-.29-2.67-.53-4-.78q-4-.74-7.84-1.33c-1.28-.22-2.57-.35-3.86-.46l-3.82-.33c-2.53-.19-5-.36-7.5-.47s-4.71,0-7,.1-4.58.16-6.82.27-4.42.46-6.58.71a148.65,148.65,0,0,0-44.9,12.78c-3.28,1.38-6.3,3-9.29,4.55s-6,3.09-8.74,4.81l-8.27,5-7.86,5.16c-10.26,6.94-20,13.89-30,20.8-12.92,3.65-22.46,9.7-31.49,16.35s-17.4,14-28.47,21.07c-16.69,10.65-35.44,21.13-55.12,35.08a286.22,286.22,0,0,0-29.78,24.08,227.9,227.9,0,0,0-28.76,32.31c-2.3-7.6-5.26-13.13-7.44-18.82a38,38,0,0,1-2.38-20.29,23.5,23.5,0,0,0-6.7,3.41c-2.49,1.7-5.15,3.75-7.72,5.63C1068.92,1129.42,1064.19,1132.63,1061.85,1130.73ZM691.41,1211.4c-1.41,2.92-6,4.32-4.29,8.68-8.85-3.37-18.93-3.2-28.65-2.11-9.74,1.39-19.11,3.68-26.87,5.51-25.67.2-48.19,2.73-70.34,6.08l-16.61,2.71-16.76,3c-11.28,2.13-22.86,4.32-35.11,6.71-5.3,0-9.78-.3-14.19-.71l-6.65-.58c-1.13-.09-2.27-.17-3.45-.23s-2.36-.06-3.59,0q-6.4,1.26-12.82,2.45l-3.21.6-3.18.67-6.36,1.33c-8.52,1.64-16.89,3.67-25.25,5.53s-16,3.92-23.14,6-13.59,4.24-19.41,6.51a103.89,103.89,0,0,0-16.56,8.16,67,67,0,0,0-11.21,8.68c-.35.35-.78.67-1.09,1s-.61.7-.93,1-.63.66-1,1l-.79,1a11.9,11.9,0,0,0-1.26,1.59,5.54,5.54,0,0,0-.29.5,5.47,5.47,0,0,0-.31.54c-.89,1.47-1.8,3.33-2.65,5a15.22,15.22,0,0,1-3,4.19,2.54,2.54,0,0,1-1.4.7h-.66c-.47,0-1,0-1.41,0-.88,0-1.82,0-2.72.08s-1.71.08-2.59.18-1.59.14-2.42.27a42.56,42.56,0,0,0-7.38,1.6,17.17,17.17,0,0,0-3,1.2h0l3.15-1.93c.34-.22.68-.44,1-.67s.74-.5,1.16-.79.82-.58,1.21-.88c.68-.54,1.8-1.33,2.68-2s2-1.64,3-2.46c.52-.44,1-.9,1.51-1.35l.37-.34.44-.39.87-.78.84-.79.36-.34.05-.06a.82.82,0,0,1,.26-.22l.63-.45a7.86,7.86,0,0,0,1.75,2.58,41.71,41.71,0,0,0,5.19,4.73c2.27,1.83,5.41,3.86,8.35,5.79,1.55.9,3.06,1.87,4.63,2.78l4.8,2.56c13,6.49,27.83,10.18,39.62,9,10.92,4.62,27.23,5.82,45,4.48,8.87-.67,18.1-1.94,27.24-3.55s18.21-3.47,26.88-5.11a169.71,169.71,0,0,0,21.48-11.55,191.66,191.66,0,0,0,18.41-13.14l2.13-1.69,2.07-1.75,4.07-3.48c2.64-2.44,5.19-4.61,7.87-7.29s5.29-5.09,7.93-7.57c.68-.6,1.32-1.26,2-1.93l1.92-2,3.87-3.93,3.91-3.88,3.84-4.09c2.57-2.75,5.23-5.38,7.89-8.12s5.28-5.68,8.05-8.49l2.09-2.1c.7-.72,1.37-1.48,2.07-2.22q2.08-2.24,4.24-4.45c1.44-1.48,2.9-3,4.41-4.44s2.94-3.11,4.46-4.67,3.07-3.13,4.66-4.71,3.22-3.12,4.81-4.82c3.22-3.34,6.61-6.68,10.16-10.08s7.09-7.14,10.93-10.78c-6,13.93-17.57,28.31-28.77,41.16-2.86,3.12-5.66,6.23-8.31,9.3l-2,2.3c-.67.72-1.32,1.44-2,2.15q-1.93,2.16-3.72,4.29c-1.18,1.43-2.3,2.84-3.36,4.25l-3,4.08a45.27,45.27,0,0,0-4.64,7.85c-1.53,1.11-3,2.33-4.45,3.42s-2.94,2.21-4.35,3.35-2.8,2.31-4.16,3.5l-2,1.8c-.66.6-1.31,1.22-2,1.77-2.69,2.26-5.27,4.6-7.76,7l-3.67,3.57c-1.19,1.11-2.35,2.22-3.5,3.33q-.86.86-1.71,1.68l-1.73,1.62-3.4,3.24c-2.26,2.12-4.53,4.13-6.72,6.15s-4.43,3.8-6.6,5.55-4.34,3.33-6.47,4.8c-7.31,5-16.31,9.51-25.63,13.54s-18.95,7.57-27.63,11c-10.61,4.21-18.94,7.9-29.12,11-2.54.7-5.2,1.5-8,2.11l-4.4.9c-.75.15-1.53.31-2.31.44l-2.39.34-5.06.65c-1.74.16-3.55.27-5.44.39-.94.06-1.9.13-2.88.17l-3,0h-4.71l-1.62-.08-5.17-.27c-1.71-.08-3.39-.31-5.09-.46-3.4-.26-6.73-.82-10.13-1.27-1.7-.22-3.36-.6-5.07-.88s-3.44-.57-5.15-1l-5.24-1.1-5.34-1.32a105.61,105.61,0,0,1-22-8.32c-1.76-.86-3.45-1.88-5.16-2.81-.85-.49-1.72-.92-2.54-1.45l-2.46-1.56a93.58,93.58,0,0,1-9.05-6.27,64.26,64.26,0,0,1-11.39-11.1,37.76,37.76,0,0,1-2.5-3.72c-.08-.12-.15-.24-.24-.35s-.11-.23-.17-.33-.3-.41-.36-.59a3,3,0,0,0-.34-.51,1.58,1.58,0,0,0-.24-.39,10.13,10.13,0,0,0-2.26-1.47,3.9,3.9,0,0,1-1.84-2.69c-.24-2.78,1.23-6.84,3.57-11.14s5.45-8.86,7.9-13.39a24.19,24.19,0,0,0,.95-4.42c.39-1.84.87-3.74,1.48-4.37a13,13,0,0,1,3.11-2.48,13.7,13.7,0,0,1,1.78-.93l2-.9c3-1.45,6.06-2.7,8.72-4.28,1.17-.65,2.25-1.36,3.46-2s2.49-1.35,3.72-2.06,2.67-1.35,4-2.07c.64-.36,1.38-.69,2.1-1l2.16-1c5.86-2.8,12.49-5.63,19.91-8.42a485.29,485.29,0,0,1,53.37-16c40.36-10.4,83.64-18,125.35-21,4.25-.28,8.42-.33,12.54-.38s8.17,0,12.24.1c8.12.23,16.17.23,24.55-.14,5.63-.31,11.52-1.27,17.47-1.89,3-.34,5.95-.67,8.92-.89,1.48-.11,3-.21,4.43-.24s2.92,0,4.37.08a134,134,0,0,1,16.86,2c5.47,1,10.81,2.23,16.16,3.28C668.66,1210.28,679.38,1212,691.41,1211.4Zm-200.16,59.91a20.13,20.13,0,0,0,3.43-1.75,19.81,19.81,0,0,0,1.6-1.32c.84-.7,1.55-1.07,4.34-1.16,2,1.81-.28,4.21-3.12,5.55S491.28,1274,491.25,1271.31Z"/><path class="b" d="M690.05,1720.53,686,1715.2l-3.6-5.08c-2.28-3.28-4.47-6.21-6.4-9.34s-3.87-6.12-5.76-9.34-3.4-6.33-5.12-10c-1.45-5-2.94-11-4.62-17.41l-.63-2.44c-.18-.84-.37-1.7-.56-2.56-.36-1.72-.74-3.47-1.12-5.25-.73-3.57-1.53-7.22-2.06-11.07a195.22,195.22,0,0,1-2-48.35q.26-3,.57-6c.2-2,.53-3.84.81-5.75s.61-3.77,1-5.63.66-3.75,1.08-5.45q1.21-5.24,2.59-10.21c.44-1.69,1-3.17,1.46-4.7s1-3,1.55-4.47,1.06-2.88,1.59-4.27,1.12-2.6,1.68-3.86q1.71-3.73,3.45-7c.57-1.11,1.16-2.07,1.75-3s1.18-1.84,1.76-2.7a52.32,52.32,0,0,1,3.49-4.55q-2.07,4.47-4,8.91c-1.29,3-2.5,6.23-3.69,9.32l-.88,2.34-.43,1.17-.41,1.23c-.54,1.64-1.07,3.28-1.61,4.92-1,3.28-2.06,6.48-2.92,10a190.32,190.32,0,0,0-6.37,42.87c-.06,1.85-.1,3.71-.12,5.55s-.05,3.68,0,5.56c.14,3.72.34,7.43.61,11.11s.83,7.35,1.32,11c.27,1.82.54,3.64.83,5.44s.73,3.56,1.1,5.33c.77,3.52,1.54,7.09,2.48,10.51s2,6.75,3.07,10.09,2.29,6.5,3.53,9.66l1.9,4.7c.67,1.57,1.25,3.08,2.06,4.72A190.44,190.44,0,0,0,695,1727.11a203.84,203.84,0,0,0,26.64,28.36,224.53,224.53,0,0,0,29,21.34,247,247,0,0,0,30.21,15.75c-3.86-.33-11.74-2.93-21.41-7.66a178.49,178.49,0,0,1-31.92-20.58,175.15,175.15,0,0,1-27.35-27.66c-1.68-2.21-3.18-4.26-4.47-6.11s-2.39-3.44-3.24-4.93C690.74,1722.72,689.89,1720.9,690.05,1720.53Z"/><path class="b" d="M842.87,1814.33a180.62,180.62,0,0,0-23.26-2.84,80.29,80.29,0,0,1-9.42-1,84.91,84.91,0,0,1-13.07-3.36,44.19,44.19,0,0,1,10.36.58c2.1.24,4.35.54,6.66.86l3.51.49,3.52.39c4.68.48,9.32,1,13.28,1s7.24-.36,9.22-1.18c2,.37,3.39.65,4.27.88s1.25.36,1.27.5-1.3.49-2.92.66C843.06,1811.65,838.74,1812.15,842.87,1814.33Z"/><path class="b" d="M697,1357.1a70.34,70.34,0,0,1,5.57-8l1.77-2.19,1.82-2.31c1.25-1.57,2.58-3.18,4-4.82,2.78-3.29,5.85-6.71,9-10.25s6.25-7.31,9.5-11l4.87-5.61,4.65-5.73c3.08-3.8,6.1-7.57,8.95-11.23s5.29-7.36,7.59-10.8c1.15-1.72,2.24-3.4,3.25-5l1.45-2.4c.45-.79.86-1.57,1.26-2.33-.34.81-.68,1.64-1.06,2.47s-.8,1.64-1.22,2.47c-.85,1.65-1.77,3.33-2.73,5-1.94,3.38-4.09,6.82-6.41,10.31s-5,6.93-7.71,10.44l-4.13,5.27c-1.4,1.76-2.81,3.53-4.34,5.25L724,1327c-1.54,1.72-3,3.49-4.58,5.18s-3.14,3.39-4.69,5.08c-3.1,3.37-6.14,6.74-9,10.09S699.77,1353.87,697,1357.1Z"/></svg>