<svg xmlns="http://www.w3.org/2000/svg" viewBox="0 0 1920 1920"><defs><style>.a{fill:none;}.b{fill-rule:evenodd;}</style></defs><path class="a" d="M3565.51-578.56a3882.52,3882.52,0,0,0-26.4-561.49c-1.26-11.66-2.91-23.26-4.41-34.89l-4.6-34.85c-.72-5.82-1.68-11.6-2.51-17.4l-2.58-17.39-5.21-34.78-5.74-34.69-2.88-17.34-1.44-8.67-1.57-8.65-6.32-34.59-3.16-17.3c-1.07-5.76-2.27-11.5-3.4-17.25l-6.9-34.48-1.72-8.62c-.57-2.88-1.15-5.75-1.79-8.61l-3.73-17.18-7.47-34.37c-1.21-5.74-2.56-11.44-3.9-17.15l-4-17.12-5.91-25.15c-2.49-10.82-5.21-21.78-8.14-32.52a429.34,429.34,0,0,0-21.89-62.06,293.31,293.31,0,0,0-31.8-54.48,273.88,273.88,0,0,0-19.8-23.76l-5.4-5.51c-1.81-1.83-3.57-3.71-5.52-5.38l-11.49-10.35-5.39-4.32-5.52-4.22c-1.85-1.38-3.66-2.82-5.57-4.13l-5.76-3.88c-3.81-2.63-7.79-5-11.76-7.4s-8.07-4.57-12.13-6.79c-2-1.14-4.12-2.13-6.22-3.12l-6.29-3c-4.23-1.89-8.52-3.64-12.81-5.39l-6.52-2.42c-2.18-.77-4.34-1.63-6.56-2.28l-6.63-2-3.33-1-3.35-.88a269.9,269.9,0,0,0-54.77-8.72,291.8,291.8,0,0,0-56.15,2.3c-37.65,5.06-75.38,17.26-111.61,34.06l-13.5,6.53q-6.72,3.36-13.37,6.9-13.28,7.11-26.24,14.88l-3.13,1.89-2.67,1.63-4.22,2.6-8.28,5.24-8.1,5.28-7.94,5.32L2812.9-1657l91.62,135a462.2,462.2,0,0,0,54.06,65.34,606.82,606.82,0,0,0,55.65,49.4c18,14.14,35.15,26.47,51.12,37.72l23.05,16.09,10.74,7.49,10.16,7.18,2.52,1.78,2.37,1.72,4.7,3.41,4.67,3.39,4.34,3.27,4.34,3.26,1.05.8.87.68,1.74,1.36c1.17.89,2.29,1.82,3.42,2.73s2.27,1.83,3.35,2.77a241.24,241.24,0,0,1,23.49,22.34c3.34,3.65,6.27,7.22,8.88,10.59a112.79,112.79,0,0,1,6.57,9.38,77.12,77.12,0,0,1,4,7.33c.11.24.22.49.34.73a3.94,3.94,0,0,1,.31.68c.14.41.36.84.52,1.21l.08.26,0,.13,0,.06v0a.59.59,0,0,1,0-.22h0s0,0,0,0h0s0,0,0,0h0s0,0,0,0,0,0,0,0,0,0,0,0c-.11.17-.19.36-.31.56a73.15,73.15,0,0,1-4.55,6.53c-2.06,2.66-4.66,5.76-7.85,9.16s-6.89,7.08-11.07,11-8.82,7.93-13.87,12.13-10.43,8.46-16.64,13.19c-12,9.24-24,18-36.08,26.1s-24.05,15.7-36,22.55-23.9,13-35.72,18.48l-8.84,4c-2.94,1.26-5.87,2.4-8.79,3.63s-5.84,2.27-8.75,3.37l-4.36,1.65c-1.45.54-2.89,1-4.34,1.46l-4.32,1.46c-1.44.49-2.88,1-4.31,1.39q-4.31,1.24-8.59,2.56c-5.7,1.44-11.3,3-17.13,4.23-23.3,5.12-50.9,8-82.24,9.69-15.65.82-32.32,1.31-49.89,1.72s-36,.74-55.38,1.29c-38.66,1.12-81.26,3.11-127.1,9.6-2.84.37-5.75.84-8.64,1.29l-8.69,1.38c-5.84,1-11.73,2.08-17.61,3.18l-8.91,1.83c-3,.63-5.93,1.2-8.94,1.92l-9,2.1-4.54,1.07-5.35,1.38a447.67,447.67,0,0,0-80.1,29.49,479.66,479.66,0,0,0-71.09,41.91,471.7,471.7,0,0,0-63.46,54.23,423.39,423.39,0,0,0-55,69.3c-2.07,3.24-4.08,6.63-6.1,9.95s-4,6.82-5.87,10.3-3.81,7-5.62,10.64l-3.11,6.2c-1,2.1-1.94,4.13-2.91,6.2a346.82,346.82,0,0,0-19,51,325.25,325.25,0,0,0-10.49,53.27A315.89,315.89,0,0,0,2245-684.7a306.67,306.67,0,0,0,8.32,53.46c1.06,4.39,2.32,8.73,3.54,13.08s2.66,8.63,4.14,12.9l2.28,6.39,1.17,3.18,1.25,3.15,2.56,6.28.65,1.56c.16.55.43,1.05.64,1.58l1.33,3.11c1.91,4.06,3.84,8.12,5.84,12.14s4.11,8,6.22,11.94c.53,1,1.05,2,1.6,3l1.7,2.91,3.45,5.8,3.51,5.76,3.7,5.63,3.78,5.6c1.26,1.86,2.53,3.72,3.88,5.52q4,5.44,8.1,10.81c2.77,3.55,5.65,7,8.53,10.49l4.36,5.16c1.54,1.76,3.17,3.54,4.77,5.3l4.2,4.58c1.33,1.46,2.63,2.78,3.94,4.12l7.9,8c5.21,5,10.52,10.07,15.68,14.58l3.91,3.47c1.32,1.18,2.58,2.2,3.87,3.31,2.56,2.15,5.16,4.36,7.71,6.45l7.6,6.08,1.91,1.51,1.86,1.43,3.74,2.85,3.74,2.85,3.66,2.7c2.43,1.77,4.91,3.6,7.31,5.31l7.15,5.05c2.4,1.68,4.67,3.21,7,4.82l3.49,2.38,3.4,2.21,6.81,4.41,13.64,8.8,6.83,4.38c2.28,1.47,4.63,2.79,6.94,4.19l13.94,8.26c4.66,2.74,9.29,5.53,14,8.2l14.22,7.72,14.25,7.69,3.56,1.91c1.2.62,2.41,1.21,3.61,1.81l7.25,3.58,14.5,7.15,7.26,3.55c2.4,1.22,4.89,2.24,7.34,3.37,9.82,4.4,19.65,8.81,29.51,13.13l31.6,12.72,2.67,1.05,3.14,1.15c2.12.77,4.25,1.46,6.38,2.19l12.76,4.33,25.52,8.65,12.76,4.33,3.18,1.08c1.07.36,2.14.6,3.21.9l6.41,1.74,25.64,6.94,25.64,6.93,25.39,5.31c16.89,3.41,34,7.6,50.4,9.46l24.81,3.56c8.23,1.12,16.65,2.6,24.55,3.09l48.08,4.26,46.13,1.36c7.71.24,15.32.39,23,.56l22.88.52,11.45.26c1.89,0,3.83.11,5.7.09l5.62,0,22.49-.21,22.49-.22a14.72,14.72,0,0,0,2.64-.21l2.54-.33,5.07-.66,10.15-1.32,20.31-2.64,5.07-.66,2.54-.33c.1,0,.24,0,.29-.06l-.08-.37-.15-.73-.32-1.45-2.5-11.64-5-23.27L3122-295.43l-.63-2.91-.31-1.46-.16-.73c0-.06-.15-.37,0-.22l.95,1L3137.08-284l7.53,7.82,5.22,6,10.42,11.93,7.58,9.52,3.76,4.73c.34.42.57.73.81,1.06l.74,1,1.46,2,5.87,7.93,5.07,7.07,9.59,13.29c1.58,2.13,3.18,4.19,4.76,6.29l2.39,3.14c.78,1,1.69,2.09,2.53,3.14l5.13,6.28.64.78.72.81,1.44,1.63,2.88,3.24,2.88,3.25.72.81.82.86,1.66,1.73,6.64,6.9c1,1.11,2.45,2.43,3.72,3.67l3.9,3.77,3.91,3.77,1,.94.49.47.58.53,2.32,2.1,9.31,8.42,1.16,1.05c.41.37.72.67,1.23,1.1l2.8,2.4,5.6,4.81,5.6,4.8,2.8,2.4,3.4,2.8,13.63,11.2,3.41,2.8,2,1.58,2.09,1.66,8.38,6.66,8.38,6.67,4.19,3.33,2.23,1.76,2.61,2,20.87,16.17,5.21,4,2.61,2,3.18,2.42,13.18,10,26.68,20.27,33.84,25.38L3445.51.92l21.89,16.24L3511.63,50l57.44,42.18c20.3,14.88,36.28,26.74,65.32,47.7l78.4,56.82L3732.53,211l25.15,17.82,50.3,35.65,50.3,35.65,25.15,17.82,6.29,4.46c2.06,1.48,4.43,3,6.63,4.49l13.45,9L4017.38,408l26.89,18,13.45,9a28,28,0,0,0,5.16,3.14l3.44,1.62,27.52,13,27.52,13,13.76,6.49,6.88,3.25,3.44,1.62c.73.22,3.21,1.81,2.51.9l-56.58-61.72-28.3-30.85-3.53-3.86c-.78-1-4.65-4.19-6.81-6.18l-15.42-13.65-30.82-27.29L3883.18,225.27l-15.41-13.64c-2.59-2.31-5.14-4.55-7.6-6.61l-7.46-6.36-29.86-25.41-59.7-50.81-59.71-50.82L3673.81,46.4l-23.35-19.71-93.41-78.84-77.34-65.47-68-57.71-52.37-45-25.81-22.21-20.06-17.58-40.11-35.16-31.73-28.48L3226-337.88l-2-1.76c-.68-.61-1.33-1.2-1.73-1.58l-2.83-2.66-5.65-5.32-22.61-21.26-22.61-21.26-11.31-10.63-2.83-2.66-1.41-1.32c-.54-.5-.73-.72-1.08-1.07l-3.8-3.86-30.4-30.87-7.6-7.71-3.8-3.86c-.29-.3-.7-.7-.89-.91l-.67-.75-1.34-1.49-10.73-11.94L3082-480.73l-5.37-6-2.68-3-1.34-1.49-1-1.23-15.66-19.35-3.91-4.84-2-2.42-1-1.21-.48-.6c-.24-.23-.27-.39-.15-.49l2.79-6.18,5.59-12.35a43.84,43.84,0,0,1,.2-8c.06-.65.17-1.3.25-2l.13-1,.06-.49c0-.17,0-.23.06-.35l.47-2.54c.11-1,.42-2.07.65-3.17.37-2.09,1.13-4.64,1.68-7.07,1.47-5.19,3.27-11,5.54-17.32s5.1-13.4,8.27-20.87,6.78-15.5,10.79-24c15.59-33.6,32.7-66.54,51.37-98.56s38.73-63.24,60.23-93.41c5.36-7.43,11-15.34,15.93-21.82s9.26-11.92,13-16.23a114.69,114.69,0,0,1,9-9.44l.77-.68.37-.36.32-.25c.31-.25.16-.12.16-.15s0,0,0,0l0,0s0,0,0,0v0c0,.06,0,0,0,0h0s0,0,0,0h0a27.28,27.28,0,0,1,2.74.34,41.78,41.78,0,0,1,8.23,2.34,62.73,62.73,0,0,1,9.79,4.87,62,62,0,0,1,9,6.74,48.56,48.56,0,0,1,6.57,7.08,33.64,33.64,0,0,1,3.46,5.56,15.76,15.76,0,0,1,.7,1.76c.08.12.05.23.1.33l0,.07,0,0,0,.14.13.62c.09.41.2.82.32,1.22l.19.6a6.37,6.37,0,0,1,.11.63,54.26,54.26,0,0,1,1.39,10.77,88.61,88.61,0,0,1-4,27.9,125.7,125.7,0,0,1-6.17,16.36,146.61,146.61,0,0,1-9.18,16.7A156.19,156.19,0,0,1,3234.08-733a149.64,149.64,0,0,1-14.92,12.14l-1.9,1.37-1.92,1.24-1.9,1.26-.48.33-.61.36-1.24.73q-2.49,1.47-5,3c-1.71,1-3.6,2-5.37,3l-2.7,1.51c-.91.5-1.94,1-2.91,1.47l-5.86,3-6.3,2.93-3.15,1.49-3.37,1.46-6.75,2.94-7.17,2.9-3.58,1.47-3.79,1.44-7.58,2.89-8,2.88-4,1.45-4.16,1.44-8.34,2.88-8.68,2.9-4.35,1.45-4.51,1.46-9,2.93-18.86,6-19.67,6.25-20.43,6.59-10.6,3.51-5.3,1.76-5.44,1.87L3005.4-639l-11.2,4-5.6,2-5.75,2.17-11.5,4.38-11.79,4.74c-2,.81-3.9,1.57-5.9,2.42l-6,2.59c-15.94,6.72-32.62,14.73-49.41,23.62l-12.7,7c-2.1,1.14-4.26,2.46-6.39,3.73l-6.42,3.87-6.39,3.89c-2.13,1.3-4.3,2.78-6.44,4.18-4.3,2.84-8.57,5.68-12.84,8.58q-6.43,4.65-12.81,9.37l-3.18,2.37c-1.06.78-2.12,1.58-3.18,2.45l-6.33,5.11-6.29,5.16-3.13,2.6c-1,.87-2.07,1.82-3.1,2.74q-6.2,5.54-12.29,11.18c-2,1.84-4,3.85-6,5.85l-5.92,6-5.87,6.06c-1,1-1.94,2.05-2.87,3.12l-2.83,3.2q-5.62,6.39-11.15,12.89c-3.56,4.44-7,9-10.5,13.51l-5.17,6.86c-2.13,3-4.3,6.07-6.3,9.13-4.1,6.13-7.87,12.35-11.48,18.7a299.57,299.57,0,0,0-19,40.33c-2.75,7.14-5.26,14.67-7.54,22.44-1.12,4-2.21,7.87-3.19,12-.49,2.07-1,4.07-1.43,6.21l-1.3,6.4a254.68,254.68,0,0,0-3.73,27.4l-.29,3.6c-.08,1.21-.14,2.49-.21,3.73q-.18,3.74-.29,7.5t0,7.79c0,1.32,0,2.57.06,3.93l.16,4.05A226.54,226.54,0,0,0,2706.08-220q1.76,4.61,3.67,9.15t4.18,9.11c1.42,3,3,6,4.62,9s3.25,5.92,5,8.81a220.67,220.67,0,0,0,24,32.44L2824.36-65l107.19-45a589.89,589.89,0,0,0,127.68-73.77,593.38,593.38,0,0,0,55.39-47.56,610.69,610.69,0,0,0,49.15-53.7,605.77,605.77,0,0,0,42.49-59.26,601,601,0,0,0,35.14-64.39,587.86,587.86,0,0,0,27.14-68.88c1.92-5.9,3.64-11.89,5.43-17.84s3.28-12,4.83-18,2.94-12.06,4.22-18.11l1.89-9.09.92-4.54.83-4.56A598.73,598.73,0,0,0,3295.11-696a612.65,612.65,0,0,0-26.7-142.95,594,594,0,0,0-60.87-133.55l-2.42-4-2.51-3.91-5.07-7.8c-1.67-2.61-3.46-5.16-5.22-7.72l-5.32-7.67c-3.57-5-7.2-9.77-10.83-14.65l-5.47-7.27-5.63-7c-3.77-4.63-7.53-9.33-11.37-13.86L3142-1059.59c-3.88-4.5-7.88-8.61-11.86-12.85l-6-6.31-3-3.14-3-3-12.15-12c-2-2-4.08-3.87-6.12-5.79l-6.14-5.71-6.15-5.7c-2.05-1.86-4.11-3.64-6.16-5.46l-12.37-10.82c-8.23-6.85-16.52-13.92-24.73-20.35l-6.18-4.91c-2.07-1.65-4.13-3.28-6.17-4.83l-12.3-9.4c-2.06-1.58-4.09-3.08-6.12-4.58l-6.1-4.5c-4.07-3-8.15-6-12.16-8.86l-12.09-8.64-11.94-8.35-6-4.15-5.89-4-11.75-8-23-15.47c-30.43-20.31-59-39.14-85.51-57.67l-9.72-6.91c-1.61-1.15-3.27-2.3-4.84-3.45l-4.68-3.43c-3.11-2.29-6.32-4.58-9.34-6.86l-9-6.83c-11.76-9.1-23.17-18.14-33.41-27.2l-3.93-3.39-3.71-3.4-7.41-6.78c-4.58-4.56-9.48-9-13.69-13.59l-3.28-3.39-1.65-1.69c-.53-.57-1-1.14-1.53-1.71l-6.12-6.81c-1.06-1.12-2-2.27-2.92-3.41l-2.84-3.43-2.86-3.4-.69-.82-.45-.61-.91-1.19c-2.47-3.09-4.83-6.63-7.19-10.19l-1.71-2.77c-.28-.46-.59-.9-.86-1.38l-.81-1.43-1.66-2.84-1.54-2.93a149.4,149.4,0,0,1-10.15-23.74,112.46,112.46,0,0,1-4.9-21.09l-.09-.57,0-.53-.09-1-.11-1-.07-.52v-.46c0-.62,0-1.24-.1-1.85l0-.47,0-.4v-.71c-.1.28.11.17,0,.19h0s-.12,0,0,0h0l.06,0s-.05,0,0,0h0c.06,0-.07,0,0,0-.11-.08.06.06,0,0s.06,0,0,0l0,0h0s0,0,0,0l0,0h0l0,0,0,0s0,0,0,0h0v0s0,0,.07,0l.2-.06.3-.1,1-.38c.69-.26,1.56-.49,2.33-.76.4-.13.76-.27,1.21-.4l1.36-.38,1.36-.41.69-.2.77-.2,3.06-.8,3.38-.79c4.68-1,9.81-2.09,15.65-3l.53-.1.42-.06.59-.08,1.19-.16c.4-.06.77-.14,1.19-.19l1.27-.12c1.65-.24,3.45-.32,5.22-.5,3.61-.22,7.35-.28,11-.22s7.31.4,10.69.77,6.42,1,9.06,1.54a46.53,46.53,0,0,1,6,1.71,3.86,3.86,0,0,0,.48.16l.25.07.13.08a2.3,2.3,0,0,0,.58.22.15.15,0,0,0,.16.09c-.07.15.15-.28.37-.69s.38-.76.55-1.12l1.06-2.19q1.1-2.19,2.29-4.36a175.13,175.13,0,0,1,19.06-28.86,62.26,62.26,0,0,1,4.56-5.21,52.67,52.67,0,0,1,4.11-4.23,68.62,68.62,0,0,1,6.76-5.82c3.7-2.75,5.43-3.22,4.12-2.73-.26.1-.51.19-.75.26l-.76.22a20.89,20.89,0,0,1-2.85.72l-.34.06-.56.14-1.1.23c-.73.14-1.44.26-2.14.35l-1,.12c-6.21.8,7.84-1,6.38-.84l-.12,0-.44,0c-1.95.18-7.2.31-16.18-1.23-2.09-.39-4.72-.87-7.18-1.48-1.39-.3-2.75-.64-4.09-1l-2.17-.57-2.23-.63-4.66-1.4c-1.63-.51-3.09-1-4.91-1.63s-3.4-1.19-5.15-1.85-3.69-1.35-5.5-2.08l-1.37-.56-1.47-.58-2.92-1.2-6-2.58-.26-.11h0s0,0,0,0a.33.33,0,0,0-.07.16l-.94,1.73c-1,1.68-2.61,4.24-4.9,7.38-1.11,1.55-2.45,3.29-3.88,5.1-.71.91-1.49,1.86-2.27,2.82l-1.22,1.47-.65.77-.77.89c-8.08,9.55-16.9,19-26.2,28.39l-7.14,7c-2.4,2.35-5,4.66-7.42,7-1.25,1.17-2.47,2.35-3.74,3.51l-3.89,3.48-3.88,3.5-1.94,1.75-2,1.73-8.06,7-8.34,6.95c-2.74,2.33-5.64,4.64-8.53,7s-5.7,4.64-8.71,7l-8.91,7-9.17,7c-3,2.32-6.19,4.65-9.33,7s-6.24,4.66-9.49,7c-25.59,18.71-53.06,37.67-81.82,57.6s-58.8,40.84-89.47,63.73-62,47.8-92.78,75.84c-3.85,3.54-7.7,7-11.53,10.62l-11.45,11-2.86,2.75-2.84,2.84-5.67,5.71-5.66,5.71-5.54,5.82-5.52,5.83c-1.85,1.94-3.69,3.89-5.47,5.88l-10.75,11.91c-7,8.07-14,16.13-20.75,24.42-13.54,16.5-26.51,33.44-38.72,50.86s-23.93,35.18-34.85,53.4-21.23,36.77-30.89,55.65-18.52,38.17-26.8,57.69-15.76,39.4-22.65,59.47c-1.68,5-3.41,10-5,15.11l-2.86,9.09c-1.35,4.29-2.67,8.65-3.84,12.75-2.35,8.34-4.53,16.71-6.8,25.07l-1.69,6.26c-.56,2.09-1.16,4.18-1.6,6.28L2069.88-765c-4.07,16.79-7,33.54-10.14,50.28l-3.81,25c-.3,2.08-.67,4.17-.91,6.24l-.7,6.18L2052.91-665l-1.39,12.36-1,12.19-1,12.2-.48,6.1-.14,6-.6,23.8,1.08,22.85.28,5.71c0,1,.19,1.83.28,2.75l.34,2.7,1.35,10.82,1.35,10.82a24.89,24.89,0,0,0,.44,2.61l.52,2.53,1,5.07,2.07,10.14c.7,3.37,1.33,6.81,2.24,10,1.67,6.48,3.57,12.81,5.61,19A263,263,0,0,0,2098.9-419c3.64,5.15,7.46,10.21,11.52,15.12s8.35,9.69,12.89,14.34,9.32,9.15,14.37,13.51c1.23,1.1,2.56,2.13,3.84,3.2s2.59,2.13,3.92,3.16,2.62,2.11,4,3.1l4.11,3c5.53,3.95,11.28,7.68,17.18,11.14s12,6.58,18.05,9.5a217.43,217.43,0,0,0,36.77,13.31c3.07.78,6,1.59,9.06,2.31l4.51,1c1.51.34,3,.57,4.52.86,3,.59,6,1,9,1.51s6,.78,9,1.05c6,.68,12.08.95,18.2,1.14l4.6.06c1.54,0,3.09,0,4.64,0l2.32,0,2.4-.19,4.79-.39,19.18-1.54c6.65-1.18,13.34-2.49,20-3.74l5-.94,2.5-.47c.83-.14,1.71-.48,2.57-.7l10.31-3,10.31-3,5.16-1.52c1.73-.57,3.49-1.33,5.23-2l21-8.19,2.62-1c.88-.33,1.76-.79,2.63-1.17l5.28-2.43,10.54-4.86,10.54-4.86,10.56-5.45,10.56-5.48,5.27-2.74,2.64-1.37c.88-.49,1.76-1,2.63-1.52l21-12.3,5.26-3.07,5.21-3.4,10.42-6.79,10.42-6.8,2.6-1.71,2.57-1.85,5.13-3.71,20.51-14.82,20.07-16,5-4c.83-.67,1.68-1.32,2.5-2l2.44-2.13,9.75-8.51,9.76-8.51,4.87-4.27,4.72-4.47,18.87-17.89,2.36-2.24,1.62-1.62,2.84-2.87,5.54-5.62,5.53-5.62,5.36-5.68c3.56-3.8,7.18-7.58,10.67-11.39l10.36-11.49c13.6-15.36,26.78-30.88,39.17-46.52l4.69-5.86,4.57-5.87c3-3.92,6.1-7.84,9.08-11.77,5.9-7.85,11.87-15.71,17.54-23.59s11.32-15.75,16.91-23.63l8.19-11.81,4.07-5.91,4-5.9c10.72-15.75,20.9-31.45,30.95-47.1s19.68-31.2,29.2-46.68,18.75-30.81,27.84-46c4.59-7.64,9.88-16.54,15.25-26l4.07-7.31,2.08-3.8,2.08-3.87c2.2-4.12,4.13-7.9,6.09-11.78s3.84-7.77,5.7-11.69c14.77-31.35,25.92-64.27,31.08-97.87,1.3-8.39,2.26-16.82,2.8-25.26s.75-16.9.58-25.34-.82-16.86-1.74-25.24-2.36-16.7-4.09-25-4-16.38-6.47-24.45c-1.22-4-2.67-8-4.05-12s-3-7.87-4.59-11.79a291.84,291.84,0,0,0-23.7-44.86c-18.38-28.61-41.77-54.33-68-77-6.57-5.63-13.32-11.11-20.14-16.46l-2.56-2-2-1.52-3.91-2.89-7.62-5.59c-2.53-1.89-5.13-3.62-7.71-5.4l-7.78-5.27c-2.59-1.79-5.22-3.45-7.86-5.1l-7.91-5a558.89,558.89,0,0,0-65-34.15,612.35,612.35,0,0,0-66.25-25c-44.2-13.84-88-22.44-130.5-27.71a988.73,988.73,0,0,0-124.42-7c-20.2.08-40.13.69-59.82,1.71-4.91.28-9.85.5-14.72.83l-14.27,1c-8.36.6-16.23,1.12-23.7,1.54l-15,.72,7-3.9c10-5.44,21.8-11.06,35.11-16.85s28.14-11.76,44.32-18.2l-120.33-302.21c-16.66,6.64-34.66,13.83-53.76,22.14s-39.33,17.75-60.4,29.17l-8,4.43-4,2.22-2,1.12-2,1.2-5.09,3-6.25,3.77-1.56,1-1.49.93-2.79,1.79-5.54,3.61a493.6,493.6,0,0,0-42.45,31.22l-9.92,8.54-5,4.27c-1.62,1.46-3.13,3-4.69,4.5l-9.32,9-4.65,4.52-4.34,4.76-8.69,9.51c-1.43,1.59-2.93,3.15-4.3,4.78l-4,5q-4,5-7.85,10c-1.28,1.69-2.61,3.35-3.82,5.08l-3.65,5.17a351.54,351.54,0,0,0-44.58,88.69,330.22,330.22,0,0,0-17.2,94.86,294.38,294.38,0,0,0,12.07,93.9,278.24,278.24,0,0,0,17.46,44c1.81,3.51,3.56,7.06,5.53,10.49s3.85,6.9,6,10.24c4,6.8,8.63,13.25,13.18,19.68,2.38,3.06,4.77,6.13,7.22,9.15l7.42,9c2.55,2.92,5.22,5.74,7.82,8.61,1.28,1.46,2.68,2.8,4.06,4.17l4.13,4.09a297.58,297.58,0,0,0,36,29.6c25.59,17.87,54.51,31.58,85.7,41.29,3.92,1.18,7.82,2.39,11.8,3.45s8,2.07,12,3.06l12.21,2.64,3.06.65,3.1.55,6.21,1.1a471.17,471.17,0,0,0,50.71,5.77c4.28.28,8.6.4,12.9.61s8.63.27,12.95.35c8.64.21,17.31.17,26,0q6.51-.1,13-.35l8.92-.36,7.61-.36,7.47-.39c9.85-.56,19.3-1.2,28.25-1.83l11.71-.78c3.78-.26,7.51-.42,11.27-.64q22.47-1.15,44.26-1.27a666.15,666.15,0,0,1,83.38,4.52c26.32,3.26,50.92,8.35,73,15.27s41.53,15.62,58.28,25.9l3.12,2c1,.64,2.09,1.28,3.06,2l3,2c1,.68,2,1.31,2.95,2.06l2.87,2.12,1.92,1.38h0s0,0,0,0h0a1.34,1.34,0,0,1,.12-.22c-.31.59-.65,1.22-1,1.86l-1,1.91-2.27,4.07c-3.18,5.62-6.74,11.64-11.09,18.88-8.74,14.6-17.41,28.92-26.08,43.09s-17.32,28-26,41.6-17.41,27-26.23,39.92l-3.29,4.89-3.32,4.8-6.64,9.59c-4.46,6.27-8.89,12.61-13.39,18.71s-9,12.16-13.52,18.19c-2.27,3-4.56,5.89-6.83,8.84L2457-801l-3.45,4.29c-9.15,11.59-18.49,22.5-27.87,33.14l-27.38,29h0c0-.07,0,.16-.07.3a.6.6,0,0,1-.06.11c0,.12.09-.3.13-.43l.19-.61.75-2.41c1-3.21,2.14-6.39,3.19-9.59,4.4-12.74,9.1-25.4,14.4-37.82s11-24.68,17.05-36.73,12.72-23.81,19.65-35.37,14.35-22.78,22-33.78,15.87-21.64,24.34-32c4.18-5.22,8.61-10.21,12.95-15.27l6.7-7.4c1.1-1.26,2.24-2.46,3.39-3.66l3.43-3.61,3.43-3.62,3.51-3.52,3.5-3.53,1.75-1.77,1.84-1.75,7.34-7,7.62-7c20.53-18.7,43.53-37.17,68.49-55.8s51.88-37.43,80.18-57,58-40.07,88.45-62.32c3.78-2.73,7.64-5.62,11.46-8.45s7.65-5.65,11.51-8.61l11.56-8.8,11.61-9.06c3.86-3,7.76-6.18,11.64-9.28s7.75-6.22,11.64-9.49l11.65-9.73,11.64-10,2.91-2.52,2.9-2.6,5.8-5.21,5.79-5.21c1.93-1.76,3.85-3.59,5.77-5.38,3.84-3.63,7.69-7.17,11.5-10.88l11.42-11.22c15.12-15.25,30-31.2,44.36-48.16l1.35-1.57,1.45-1.72,2.93-3.54c2-2.4,3.92-4.81,5.89-7.31,3.95-5,7.9-10.15,11.87-15.63a408.05,408.05,0,0,0,23.6-36.17c3.86-6.71,7.66-13.76,11.32-21.22s7.21-15.46,10.53-23.86,6.41-17.39,9.14-26.82c.68-2.4,1.36-4.72,2-7.18s1.24-4.92,1.83-7.38c1.14-5,2.21-10.09,3.1-15.38a265,265,0,0,0,3.09-67.28c-.53-5.82-1.15-11.73-2.1-17.31q-.66-4.24-1.43-8.47l-.77-4.22-.41-2.11-.49-2.15q-2-8.6-4.37-17.11c-1.7-5.69-3.66-11.4-5.68-17a256.81,256.81,0,0,0-34-62.78,266.43,266.43,0,0,0-45.36-47.73,301.34,301.34,0,0,0-47.73-32l-5.89-3.11c-2-1-4-2.07-5.87-2.95q-5.79-2.76-11.64-5.42c-3.81-1.65-7.61-3.21-11.44-4.77l-2.87-1.16-2.82-1-5.63-2.06a370.46,370.46,0,0,0-44-12.77,414.12,414.12,0,0,0-42.23-7.28c-13.85-1.62-27.57-2.65-41.22-3s-27.28-.05-41,.84c-6.89.53-13.74,1.06-20.7,1.91l-5.2.6c-1.74.21-3.5.48-5.25.73l-5.26.76-2.62.39-1.19.19-1.07.18c-11.3,1.84-23.2,4.13-35.46,6.91l-9.29,2.19-9.53,2.48-2.38.64-2.44.69-4.89,1.42-4.88,1.43c-1.63.49-3.33,1.06-5,1.59-3.35,1.1-6.63,2.12-10,3.32L2571-1780.2c-.93.34-2,.75-3,1.15l-3,1.21-6,2.47c-2,.84-4,1.66-6,2.54l-5.92,2.7c-7.91,3.56-15.59,7.58-23.22,11.67q-5.64,3.21-11.22,6.52l-2.79,1.66-2.73,1.75-5.44,3.52-5.41,3.58c-1.77,1.23-3.52,2.5-5.27,3.76l-5.23,3.83c-1.74,1.27-3.47,2.56-5.14,3.93q-5,4-10,8.2c-3.29,2.78-6.53,5.64-9.75,8.5-6.26,6.23-12.62,12.38-18.59,18.88-5.82,6.64-11.67,13.27-16.9,20.39a296.45,296.45,0,0,0-28.19,44.78q-3,5.92-5.83,11.91c-1.85,4-3.53,8.1-5.24,12.18l-2.51,6.14c-.79,2.07-1.52,4.15-2.26,6.24-1.48,4.17-2.94,8.35-4.31,12.56s-2.49,8.5-3.68,12.77c-.57,2.14-1.21,4.26-1.7,6.42l-1.5,6.48c-.94,4.34-1.95,8.66-2.73,13s-1.48,8.75-2.15,13.14-1.16,8.81-1.65,13.23l-.67,6.63-.31,3.32-.22,3.33c-.51,8.91-1,17.67-.85,26.85l.05,6,0,2.93.12,2.87q.25,5.75.58,11.49l.17,2.86.25,2.81.51,5.6.55,5.59.28,2.8.35,2.74c1,7.28,1.94,14.63,3.27,21.66.64,3.54,1.24,7.14,2,10.62l2.26,10.41c.74,3.49,1.61,6.87,2.48,10.26s1.74,6.79,2.66,10.15l2.93,10,1.5,5,1.6,4.88a475.71,475.71,0,0,0,31.65,74.4l4.75,8.84,5,8.73,2.53,4.34c.85,1.45,1.75,2.88,2.63,4.31l5.34,8.57c7.36,11.35,15.05,22.52,23.56,33.44l3.17,4.09,1.59,2,1.43,1.75,5.69,6.86,5.7,6.83c1.9,2.28,3.81,4.57,5.77,6.72l11.72,13c1,1.08,2,2.19,2.95,3.24l3,3.11,6,6.22c8,8.44,16.1,16.1,24.23,24,4.07,3.8,8.17,7.52,12.26,11.27l6.16,5.59,6.16,5.35c16.47,14.48,33,27.58,49.37,40.24l12.26,9.28c4.09,3.08,8.12,6,12.19,9l6.08,4.45,6,4.31,12.05,8.55c31.86,22.28,62.76,42.57,91.54,61.8l21.3,14.31,10.3,7,5.13,3.51,5,3.47,9.94,7,9.63,6.89c3.27,2.29,6.32,4.58,9.42,6.86l4.64,3.42c1.56,1.14,3.11,2.28,4.57,3.42l8.91,6.81c1.52,1.13,2.94,2.27,4.35,3.4l4.26,3.4c5.83,4.52,11,9.06,16.52,13.56l7.72,6.78c1.27,1.12,2.59,2.24,3.84,3.37l3.62,3.39,3.65,3.38c1.19,1.13,2.49,2.24,3.58,3.38l6.83,6.76,1.72,1.68,1.6,1.7,3.19,3.39c2.11,2.26,4.36,4.48,6.25,6.76l6,6.77c1.91,2.26,3.67,4.55,5.54,6.8l2.78,3.38,2.52,3.43c1.66,2.27,3.46,4.55,5.07,6.79l2.28,3.31c.77,1.1,1.56,2.18,2.26,3.33l2.21,3.4,1.1,1.69,1,1.75a269.15,269.15,0,0,1,27.43,60.33,288,288,0,0,1,12.42,66.52,273.14,273.14,0,0,1-3.78,66.43,241.94,241.94,0,0,1-7.86,31.35,262.1,262.1,0,0,1-12,30.41,277.32,277.32,0,0,1-16,29.3,283,283,0,0,1-19.72,27.47,281.47,281.47,0,0,1-48.49,47A264.75,264.75,0,0,1,2806-410l104.6,112.58c-.19.18-.39.36-.62.54l-.48.37-.17.13-.13.09h0s0,0,0,0l.1-.07.18-.1.49-.25.72-.32q.57-.26,1.11-.45l1.33-.47,1.57-.47q.91-.27,1.8-.45c.68-.17,1.45-.35,2.15-.47l2.33-.41,1.23-.17c.4-.05.79-.08,1.28-.15.93-.12,1.84-.21,2.75-.27.43,0,.94-.06,1.45-.1l1.5-.09,3.08-.08c1.08,0,2.14,0,3.19,0s2.27,0,3.38.11l3.45.23a134.81,134.81,0,0,1,14.18,2,152.64,152.64,0,0,1,25.36,7.19,94.79,94.79,0,0,1,11.69,5.25l0,0,0,0-.28-.16-.59-.38-1.05-.68-1.31-.89c-.54-.37-1.07-.74-1.6-1.14,43.65,31.44,12.14,8.67,21.9,15.67l.06-.08.14-.15.26-.31.52-.64c.69-.84,1.3-1.73,1.95-2.62s1.51-1.61,2.22-2.47l.52-.65a3.35,3.35,0,0,1,.57-.63c.42-.39.84-.8,1.25-1.21s.82-.83,1.21-1.26a9.05,9.05,0,0,1,1.28-1.27c.95-.81,1.88-1.65,2.78-2.52a8.72,8.72,0,0,1,.69-.66l.82-.62,1.6-1.28,1.56-1.33a6,6,0,0,1,.86-.65l.92-.65q1.83-1.31,3.6-2.69c1.38-.89,2.77-1.78,4.13-2.71.7-.45,1.3-.94,2.08-1.39l2.33-1.37,2.3-1.4c.78-.48,1.49-1,2.4-1.42,1.72-.92,3.44-1.87,5.14-2.82,7.23-3.77,15-7.66,24.11-11.46l3.32-1.44c1.13-.49,2.36-.95,3.53-1.43l7.11-2.88,7.54-2.85,3.77-1.44,4-1.43,8-2.87,8.36-2.87,4.19-1.44,4.36-1.44,8.74-2.9,18.34-5.91,19.17-6.1,20-6.36,10.34-3.36,5.18-1.68,5.32-1.77,10.64-3.55,10.91-3.78,5.46-1.89,5.6-2,11.19-4.06,11.45-4.36,5.73-2.2,5.85-2.36,11.71-4.76L3307.5-400l6-2.61,6.08-2.82c4-1.9,8.08-3.77,12.14-5.71l12.32-6.21c2.06-1.06,4.09-2.06,6.16-3.17l6.23-3.41c4.16-2.29,8.28-4.51,12.44-6.92l12.52-7.5,3.12-1.89,1.57-1,1.66-1.07,6.61-4.32c2.2-1.45,4.41-2.89,6.58-4.36l6.42-4.53a475.06,475.06,0,0,0,48.24-39.23,472.85,472.85,0,0,0,42.26-44.69,485.79,485.79,0,0,0,36.27-49.76,470.78,470.78,0,0,0,29.9-54.74,449,449,0,0,0,22.56-59.81,425.39,425.39,0,0,0,13.91-64.56,401.86,401.86,0,0,0,3.36-68.37,379.49,379.49,0,0,0-9.08-69.93c-.32-1.45-.61-2.9-1-4.34l-1.1-4.33-2.27-8.63-1.16-4.31-.3-1.09-.36-1.18-.72-2.35c-1-3.14-1.91-6.3-3-9.38a340.3,340.3,0,0,0-14.4-36.06,358.72,358.72,0,0,0-38.65-64,375,375,0,0,0-48.52-52.79,387.33,387.33,0,0,0-56.16-42,386.88,386.88,0,0,0-63.1-31.29,367.36,367.36,0,0,0-70.16-19.44,351.86,351.86,0,0,0-37.69-4.42l-5.12-.29c-1.76-.11-3.41-.13-5.12-.19-3.4-.09-6.79-.21-10.18-.18q-10.19,0-20.36.57a321.52,321.52,0,0,0-79.82,14.82,314.74,314.74,0,0,0-73.37,34.64c-4.38,2.9-8.76,5.82-13,8.89l-6.39,4.62c-2.11,1.57-4.18,3.19-6.25,4.8s-4.14,3.24-6.18,4.91l-5.87,4.93-2.69,2.3-2.57,2.28-5.09,4.59a435.22,435.22,0,0,0-34.74,36c-10,11.61-18.8,22.73-26.53,33s-14.35,19.49-21.29,29.12q-41,57.52-76.51,118.65t-65.26,125.19c-4.91,10.51-10,21.78-15,33.55s-10.08,24.52-14.92,37.81c-4.83,13.45-9.42,27.71-13.57,42.8-2,7.77-4,15.38-5.7,23.61-.86,4-1.75,8.06-2.47,12.28l-.21,1.35,0,.13h0l-.5-.22-18.6-7.46-19.91-8.88c-1.65-.76-3.35-1.42-5-2.26l-4.87-2.42-9.77-4.81-4.89-2.39c-.81-.41-1.64-.79-2.44-1.21l-2.38-1.3-9.55-5.18-9.58-5.15c-3.14-1.8-6.21-3.69-9.33-5.52l-9.34-5.52c-1.55-.93-3.15-1.79-4.65-2.78l-4.54-3-9.09-5.87-4.55-2.92-2.28-1.46-2.1-1.43c-1.37-1-2.85-1.92-4.13-2.84l-3.9-2.74L2593-690l-1.78-1.31-1.64-1.25-1.64-1.25-.83-.62-.74-.6-3-2.37-2.65-2.23c-.42-.36-.92-.74-1.28-1.08l-1.14-1c-1.65-1.4-2.8-2.61-4.14-3.81-.52-.57-1-1.11-1.59-1.64a8.54,8.54,0,0,1-.74-.76l-.3-.35-.12-.14.07.07a2.22,2.22,0,0,1,.22.29l0,0,0,0s0,0,0,0h0s-.05,0-.05,0h0s0,0,0,0h0s0,0,0,0l-.07.18,0,.09.08-.16c.17-.44.52-.94.74-1.42s.6-1,.88-1.55.65-1.1,1-1.67a98.61,98.61,0,0,1,12.82-15.9A145.48,145.48,0,0,1,2606.53-745a154.1,154.1,0,0,1,22.78-13.45,123.94,123.94,0,0,1,22.1-8.24l1.25-.34,2.1-.48,4.27-1c1.4-.36,2.93-.62,4.4-.93l4.44-.93,9.24-1.66,4.78-.75c1.6-.26,3.17-.53,4.85-.73,13.09-1.86,27.2-3.26,42.28-4.29s31.11-1.69,48.12-2.17,34.9-.81,53.7-1.24,38.49-1,59.15-2.08,42.21-2.67,64.61-5.26a703,703,0,0,0,69.55-11.36c12-2.54,23.93-5.68,35.82-8.85l17.56-5.21c2.95-.85,5.81-1.82,8.68-2.78l8.6-2.88c2.85-1,5.75-1.91,8.57-2.94l8.42-3.13c5.6-2.11,11.26-4.15,16.7-6.45s11-4.47,16.4-6.8l16.06-7.18c21.17-9.82,41.55-20.43,61.17-31.61s38.33-23.07,56.47-35.28,35.51-24.89,52.33-37.82c8.25-6.29,17.17-13.34,26.07-20.74s18-15.31,27.18-23.8a489.69,489.69,0,0,0,55.2-59.78,394.2,394.2,0,0,0,26.31-38.43c1-1.75,2.07-3.54,3.11-5.34,1.13-2,2.27-3.91,3.35-5.91,2.15-4,4.33-8,6.33-12.08s4-8.15,5.86-12.31l2.76-6.23c.89-2.09,1.74-4.2,2.6-6.3a319.78,319.78,0,0,0,16.09-52c1.86-8.88,3.51-17.81,4.59-26.81l.8-6.76c.25-2.25.51-4.51.65-6.77.33-4.52.64-9,.85-13.58a324.72,324.72,0,0,0-14.31-107.48q-2.05-6.51-4.24-13l-2.43-6.61-2.26-6c-1.52-3.85-3.12-7.59-4.72-11.37-.8-1.91-1.63-3.74-2.47-5.55l-2.53-5.46a401.72,401.72,0,0,0-22.15-40.49c-7.85-12.65-16.11-24.29-24.6-35.36s-17.22-21.45-26.13-31.23a565.88,565.88,0,0,0-55.37-52.94c-2.38-2-4.77-4-7.17-5.92s-4.8-3.9-7.23-5.78l-3.64-2.84-1.82-1.42-1.67-1.26-6.55-4.94-6.56-4.92-6.36-4.64-6.34-4.6-3.16-2.28-3-2.15-12.12-8.57-11.63-8.11-21.69-15.14c-13.77-9.68-26.1-18.64-36.72-27a282.33,282.33,0,0,1-26-22.88,139.71,139.71,0,0,1-15.6-18.44l-43.47,225.5,16.49-10.63,1.8,7.7,3.68,15.67c1.23,5.22,2.48,10.43,3.58,15.69l6.83,31.45,3.42,15.72q.87,3.93,1.63,7.88l1.58,7.89,6.31,31.56c1,5.27,2.14,10.52,3.12,15.79l2.89,15.84,5.79,31.66,1.44,7.92,1.31,7.94,2.63,15.88,5.27,31.75,4.75,31.84,2.37,15.92c.77,5.31,1.65,10.61,2.3,15.93l4.21,31.92c1.37,10.64,2.9,21.27,4,31.94a3557.27,3557.27,0,0,1,24.18,514Z"/><path class="a" d="M1375.67,1532c14.53-37.91,30.42-79.06,44.5-124.68,7-22.81,13.58-46.76,19.06-71.94a673.37,673.37,0,0,0,12.49-79l1-10.29.73-10.79.52-10.82c.14-3.62.22-7.24.31-10.85q.39-21.72-1-43.68a500.63,500.63,0,0,0-13.66-88.83,444.75,444.75,0,0,0-32.74-89.77A396.86,396.86,0,0,0,1350,905.9q-4.43-4.95-8.91-9.84t-9.3-9.55c-3.11-3-6.25-6-9.41-9l-2.37-2.23-2.43-2.15-4.86-4.28a409.36,409.36,0,0,0-40.61-31,453.36,453.36,0,0,0-84.07-43.57c-13.77-5.44-27.31-10.13-40.54-14.23s-26.08-7.54-38.65-10.62c-3.12-.74-6.3-1.54-9.36-2.23l-9.24-2.08c-6.07-1.3-12.16-2.6-18.06-3.75-11.88-2.34-23.5-4.44-34.71-6.29s-22.18-3.56-32.8-5.13l-30.92-4.47c-19.95-2.85-38.75-5.55-56-8.46l-6.42-1.1-6.28-1.12c-4.07-.76-8.18-1.52-12.06-2.32-7.82-1.58-15.33-3.21-22.21-5a249.86,249.86,0,0,1-35-11.14c-4.66-1.93-8.72-3.85-12.19-5.7a89.39,89.39,0,0,1-8.67-5.4,55.15,55.15,0,0,1-6.2-5c-.84-.88-1.74-1.68-2.52-2.6l-.63-.64q-.28-.37-.57-.72A14.18,14.18,0,0,1,804,695c-.28-.43-.65-.76-.93-1.19a11.27,11.27,0,0,0-.92-1.26,13.17,13.17,0,0,0-.87-1.37c-.32-.44-.54-1-.87-1.47a63.08,63.08,0,0,1-3.46-7.14,73.09,73.09,0,0,1-3.21-9.68,123.28,123.28,0,0,1-2.59-12.39,183.73,183.73,0,0,1-1.84-31.76,278.46,278.46,0,0,1,3.68-38l.92-5.38,0,0,0,0h0l0,0c.07.07-.07,0,.19.16l1.55,1.3,3.05,2.7c2,1.83,4,3.68,5.9,5.57,1,.93,1.9,1.89,2.82,2.84l1.44,1.47,2.06,2.22,8.24,8.89c1.4,1.46,2.71,3,4.05,4.52l4,4.57c5.43,6,10.47,12.35,15.7,18.53,2.54,3.16,5,6.37,7.53,9.55l3.77,4.77,3.63,4.88,7.27,9.76,7,10c1.16,1.67,2.37,3.29,3.49,5l3.36,5.08c2.23,3.39,4.56,6.72,6.72,10.16,4.28,6.9,8.72,13.71,12.75,20.76a664.71,664.71,0,0,1,43.31,87.08l4.43,11.31c.73,1.88,1.52,3.75,2.2,5.65l2,5.71,2.06,5.7,1,2.84.51,1.42.46,1.37c1.2,3.64,2.49,7.26,3.59,10.92,4.6,14.58,8.63,29.24,11.72,43.77a432.61,432.61,0,0,1,7.05,43,348.69,348.69,0,0,1,2,40.73c-.38,26.11-4.22,49.54-10.91,68.91a145.91,145.91,0,0,1-12,26.56l-.84,1.52c-.27.52-.62,1-.92,1.47q-.94,1.45-1.83,2.94l-.44.72-.28.4c-.19.27-.37.54-.54.82l-1.2,1.66a78.38,78.38,0,0,1-6,7,94,94,0,0,1-7.85,7.13,100.38,100.38,0,0,1-9.47,6.76,102.46,102.46,0,0,1-10.65,5.93,107,107,0,0,1-11.28,4.74,105.61,105.61,0,0,1-11.28,3.31,95.18,95.18,0,0,1-10.55,1.8,79.91,79.91,0,0,1-9.06.41,54.13,54.13,0,0,1-6.89-.64,30.07,30.07,0,0,1-4.36-1.07,12.31,12.31,0,0,1-2.11-.9,4.08,4.08,0,0,1-.91-.6.2.2,0,0,0-.11-.06.48.48,0,0,0-.09-.11c-.1,0-.13-.16-.24-.21s-.14-.16-.23-.25a3,3,0,0,0-.32-.3,5.88,5.88,0,0,0-.64-.69,35.21,35.21,0,0,1-3-4.11,58.42,58.42,0,0,1-3.74-7,118.92,118.92,0,0,1-7.49-24,219.33,219.33,0,0,1-4.23-34.62c-.08-1.6-.17-3.2-.2-4.84l-.08-2.44,0-2.48c-.06-3.3-.09-6.67.07-10.07s.2-6.78.26-10.18c0-.84.06-1.7.13-2.55l.2-2.56.37-5.13.33-5.12c.17-1.72.41-3.43.6-5.15l1.16-10.3c.57-3.43,1.11-6.87,1.64-10.31.29-1.72.46-3.45.83-5.17l1-5.15a366.84,366.84,0,0,1,10.44-41.08l3.34-10.16c.5-1.7,1.2-3.36,1.82-5l1.88-5,1.85-5c.6-1.69,1.38-3.31,2-5l4.14-9.93,4.54-9.77,2.26-4.89L880.6,863c1.67-3.18,3.24-6.41,4.94-9.58l5.29-9.37c1.68-3.18,3.65-6.17,5.52-9.23l2.81-4.58,1.4-2.3c.46-.76,1-1.48,1.49-2.22l6-8.9c.5-.74,1-1.5,1.49-2.23l1.59-2.14,3.15-4.31c4.06-5.87,8.66-11.24,13-16.86,2.25-2.72,4.61-5.32,6.88-8l3.42-4,3.6-3.82c2.4-2.53,4.74-5.13,7.15-7.65s5-4.84,7.42-7.28,5-4.74,7.56-7.05l3.81-3.47,1.89-1.74c.65-.57,1.32-1.09,2-1.63q3.95-3.24,7.85-6.52c1.27-1.14,2.64-2.12,4-3.13l4-3,4-3.07c.66-.54,1.35-1,2-1.46l2.06-1.41q4.13-2.82,8.19-5.7c2.8-1.73,5.6-3.45,8.37-5.21,1.4-.86,2.76-1.82,4.18-2.61l4.26-2.36,4.24-2.4c1.41-.8,2.8-1.67,4.26-2.33q4.32-2.12,8.61-4.32l2.14-1.09,2.19-.94,4.35-1.91c2.91-1.28,5.77-2.7,8.73-3.7s5.86-2.25,8.78-3.42c3-1,5.92-1.89,8.87-2.9,1.47-.48,2.94-1,4.42-1.48l4.47-1.17,4.47-1.23,2.22-.63a19.3,19.3,0,0,1,2.24-.56c6-1.17,12.21-2.78,17.41-3.56a210.73,210.73,0,0,1,34-2.54,247.67,247.67,0,0,1,72.17,11.45A291.15,291.15,0,0,1,1283.58,722a281.67,281.67,0,0,1,58.24,49.38,221.74,221.74,0,0,1,38.06,58.5,169.66,169.66,0,0,1,14.38,59.89c0,2.54.22,4.83.13,7.83v4.27c0,1.46-.13,3-.17,4.43s-.06,2.94-.18,4.48l-.34,4.63-.15,2.31c0,.78-.16,1.6-.24,2.39l-.49,4.82a381.47,381.47,0,0,1-7.28,42.27c-3.38,15.16-7.68,31.32-12.68,48.43l-3.88,13-4.13,13.41c-2.87,9.29-5.63,17.85-8.45,26.57q-8.51,26-17.82,51c-1.58,4.13-3.08,8.34-4.71,12.4l-4.81,12.25-5,12-1.23,3-1.28,3-2.55,5.91-2.55,5.91-2.62,5.8c-1.77,3.84-3.45,7.78-5.28,11.51l-5.4,11.33-5.54,11c-7.48,14.57-15.26,28.53-23.32,41.72l-6.11,9.72-6.23,9.33-1.55,2.34-1.6,2.22-3.18,4.45c-1.06,1.47-2.09,3-3.17,4.43l-3.24,4.22-3.21,4.24-.8,1.06-.82,1-1.65,2-3.26,4c-1.08,1.34-2.16,2.7-3.28,3.9l-6.59,7.49c-2.25,2.31-4.46,4.64-6.66,7a238.56,238.56,0,0,1-26.75,23.51c-4.42,3.43-8.9,6.28-13.3,9.14-2.24,1.27-4.44,2.61-6.63,4-2.25,1.11-4.47,2.26-6.66,3.47a156.57,156.57,0,0,1-27.2,10.31c-1.17.3-2.35.62-3.51,1l-1.76.5c-.58.15-1.16.25-1.74.38-1.17.23-2.3.54-3.5.75s-2.39.42-3.58.66c-4.86.79-9.91,1.44-15.23,1.88s-11,.58-16.86.58-12.11-.34-18.55-.81a378,378,0,0,1-41.89-5.86c-29.91-5.74-63.19-15.15-99.3-26.52l-13.7-4.34-14-4.49c-9.31-3-18.65-6-27.84-9.09-18.5-6.07-36.65-12.29-54.72-18.56-36-12.62-71-25.78-104.92-39.77s-66.37-29-97.27-45l-11.44-6.11-5.73-3-5.58-3.14-11.18-6.27c-3.67-2.12-7.25-4.3-10.89-6.44-7.36-4.22-14.24-8.75-21.33-13.13-1.79-1.08-3.48-2.24-5.18-3.37l-5.12-3.41-5.12-3.39-2.56-1.7-2.47-1.76c-26.55-18.54-51-38.11-72.15-59.13l-4-3.92-2-2c-.67-.64-1.33-1.3-1.93-2l-7.51-8-1.89-2c-.64-.67-1.27-1.33-1.84-2l-3.53-4.12c-2.34-2.75-4.78-5.44-7.07-8.2l-6.64-8.39c-1.1-1.4-2.28-2.76-3.32-4.18l-3.09-4.3-6.23-8.54q-2.87-4.4-5.78-8.75l-2.91-4.35-2.66-4.48q-2.67-4.47-5.4-8.91l-4.91-9.14-2.5-4.55c-.82-1.51-1.52-3.06-2.29-4.58A327.82,327.82,0,0,1,374,973.46a364.11,364.11,0,0,1-11.43-39.81,388.45,388.45,0,0,1-6.89-41.87c-6.24-57.1-.32-119.35,16.07-181.94a715.21,715.21,0,0,1,31.64-93.64A838.41,838.41,0,0,1,448,524.86a911.81,911.81,0,0,1,55.57-86.68c2.5-3.49,5.08-6.92,7.62-10.39l7.77-10.28,3.95-5.09,2-2.55,1.94-2.45c2.58-3.29,5.16-6.46,7.74-9.64q7.74-9.42,15.46-18.16t15.36-16.51c5.09-5.21,10.13-10.05,15.1-14.62s9.85-8.65,14.6-12.46,9.34-7.09,13.72-10c2.2-1.53,4.31-2.76,6.4-4.11,1-.57,2-1.16,3-1.76l.76-.45.73-.38,1.46-.78,1.44-.8L624,317l1.38-.7.68-.35.66-.28c.87-.38,1.74-.79,2.6-1.2s1.64-.63,2.45-1a87,87,0,0,1,8.6-2.83,56.17,56.17,0,0,1,6.94-1.21,36.42,36.42,0,0,1,6.38-.2,73.07,73.07,0,0,1,18.38,3.59,183.68,183.68,0,0,1,29.37,12.51,436.56,436.56,0,0,1,37.89,22.56c13.75,9,28.47,19.36,44.37,30.75L973,114.2c-17-12.16-35.31-25.14-55.39-38.31A758.54,758.54,0,0,0,851.17,36.6,506.76,506.76,0,0,0,768.75,2.29a414.07,414.07,0,0,0-48.32-12,383.28,383.28,0,0,0-52.37-6,362.49,362.49,0,0,0-54.21,1.61,378.81,378.81,0,0,0-52.77,9.31A406.32,406.32,0,0,0,512,11.09q-5.81,2.36-11.58,4.77c-3.76,1.66-7.49,3.36-11.22,5.07l-2.79,1.28-2.72,1.33-5.41,2.68-5.4,2.72-5.24,2.79-5.22,2.83L459.82,36l-2.53,1.46-10.06,5.87c-6.49,4-13,8-19.17,12.22-12.41,8.31-24.22,16.92-35.25,25.74s-21.64,17.8-31.57,26.91-19.45,18.3-28.5,27.56-17.67,18.57-26,27.91-16.2,18.68-23.88,28c-3.8,4.67-7.59,9.35-11.26,14l-2.77,3.5-2.67,3.45-5.34,6.91c-3.54,4.62-7,9.27-10.53,13.92s-6.93,9.34-10.32,14.07a1237.5,1237.5,0,0,0-75.36,117.55,1166,1166,0,0,0-61.79,126.65,1039.74,1039.74,0,0,0-45.9,136.15c-6.1,23.51-11.43,47.39-15.75,71.7s-7.67,49-9.95,74S27.85,824,28,849.6A737.69,737.69,0,0,0,32.29,927a712.31,712.31,0,0,0,12.86,77.8,688.85,688.85,0,0,0,22,76.78,653.32,653.32,0,0,0,31.27,74c1.5,3,3,6,4.51,9l4.72,8.79c3.17,5.86,6.33,11.71,9.55,17.53L127.48,1208l5.17,8.52c1.79,2.79,3.63,5.54,5.44,8.3l11,16.53c3.8,5.39,7.71,10.69,11.58,16l5.84,8c2,2.64,4,5.16,6,7.74l12.25,15.36c4.15,5,8.44,9.89,12.68,14.82l6.4,7.36c1,1.24,2.15,2.42,3.25,3.6l3.3,3.53,13.22,14.11c1.1,1.19,2.23,2.33,3.36,3.45l3.4,3.38,6.81,6.74c36.35,36,75.38,67,115.16,94.73l3.73,2.62,3.75,2.51,7.51,5,7.52,5c2.51,1.66,5,3.34,7.54,4.9,10.08,6.3,20.16,12.8,30.32,18.69,5.08,3,10.15,6,15.24,9l15.28,8.59,7.65,4.28,7.66,4.09,15.33,8.16c40.92,21.24,82,39.93,122.91,57,40.9,16.89,81.63,32.12,122,46.29,20.15,7,40.28,13.88,60.21,20.42,10,3.33,19.91,6.53,29.85,9.75l14.92,4.81L839,1656c41.05,12.86,85.63,26,135.2,35.59a702.71,702.71,0,0,0,78.26,10.77c13.73,1,27.73,1.69,42,1.78s29-.45,43.78-1.56,29.87-3,45-5.57l11.34-2.09c3.78-.72,7.57-1.58,11.34-2.39,1.89-.42,3.79-.82,5.66-1.27l5.58-1.43,11.15-2.93a483.3,483.3,0,0,0,86.05-32.75q10.14-5.23,20.22-10.61,9.8-5.65,19.47-11.5c12.67-8,25.09-16.27,36.76-25.11a564.41,564.41,0,0,0,64.4-56.42q7.15-7.47,14.24-15c4.55-5.06,9-10.15,13.48-15.26,2.28-2.54,4.38-5.12,6.5-7.7l6.34-7.74L1499,1501l1.57-2,1.5-2,6-7.82,6-7.85c2-2.62,3.79-5.25,5.69-7.88l5.63-7.9,2.8-4,2.67-4c3.54-5.29,7.12-10.59,10.6-15.9l10-16c13-21.32,24.94-42.74,35.93-64.17l8.05-16.07,7.66-16.06c2.6-5.36,4.93-10.7,7.37-16.06l3.63-8,3.46-8,3.45-8,1.73-4,1.65-4,6.57-16,6.28-16c2.12-5.34,4-10.64,6.06-16q11.91-31.9,22.26-63.59c3.41-10.52,6.84-21.22,10-31.25l4.79-15.59,4.78-16c6.34-21.72,12.54-44.65,18-69a704.58,704.58,0,0,0,13.11-77.3l1-10.28c.17-1.72.36-3.41.49-5.16l.39-5.25.73-10.51c.24-3.5.32-7.12.48-10.67s.28-7.13.35-10.73l.06-10.9c.09-7.11-.22-14.92-.48-22.5a488.28,488.28,0,0,0-12.76-90.12l-1.31-5.51-1.43-5.46c-1-3.64-1.93-7.28-3-10.89-2.15-7.19-4.26-14.4-6.71-21.45s-5-14.06-7.56-21c-1.33-3.47-2.75-6.88-4.14-10.32l-2.11-5.14-2.22-5.07a533.43,533.43,0,0,0-41.42-76.85c-7.84-12-16.11-23.69-24.71-35s-17.61-22.18-27-32.65a606.53,606.53,0,0,0-126.14-107.31,616.56,616.56,0,0,0-149.3-69.33,573,573,0,0,0-166.74-25.94,535.26,535.26,0,0,0-86.92,6.64c-14.8,2.34-28.23,5.45-42,8.49-1.72.36-3.42.81-5.12,1.27l-5.09,1.37-10.17,2.76-10.16,2.82c-3.35,1-6.68,2.13-10,3.21-6.65,2.19-13.33,4.33-19.93,6.65s-13,5-19.53,7.49-12.86,5.31-19.21,8.1L905,405.63l-4.75,2.13-4.64,2.29q-9.29,4.62-18.51,9.31c-3.11,1.52-6.07,3.24-9.07,4.9l-9,5.05-8.95,5.08c-3,1.71-5.83,3.57-8.74,5.36q-8.68,5.42-17.33,10.9l-16.76,11.56-4.18,2.91c-1.39,1-2.79,1.94-4.12,3l-8.08,6.11-8,6.13c-2.69,2.05-5.38,4.08-7.94,6.25l-15.49,12.86c-1.28,1.09-2.59,2.15-3.85,3.25L751.85,506l-7.43,6.71c-4.94,4.5-9.94,9-14.62,13.66l-14.19,14c-4.6,4.77-9.09,9.63-13.61,14.46l-6.75,7.28-6.47,7.48c-4.29,5-8.65,10-12.83,15-8.17,10.3-16.51,20.49-24.09,31.17l-5.79,7.95-2.89,4c-.94,1.34-1.84,2.71-2.76,4.06l-10.93,16.29c-.9,1.37-1.84,2.71-2.7,4.1l-2.58,4.16-5.15,8.33c-3.41,5.57-6.89,11.1-10,16.82l-9.59,17.06c-3.1,5.74-6,11.57-9,17.37L586,724.68l-4.16,8.86c-2.75,5.91-5.52,11.82-8.2,17.76L566,769.36c-1.23,3-2.56,6-3.7,9.07l-3.45,9.18-3.42,9.19c-1.12,3.07-2.31,6.11-3.3,9.23L546,824.7a692.5,692.5,0,0,0-19.46,76.46l-1.91,9.73c-.65,3.23-1.09,6.53-1.64,9.8l-3,19.66c-.82,6.6-1.56,13.22-2.31,19.84-.36,3.31-.76,6.61-1.07,9.93l-.74,10-.7,10-.34,5c-.12,1.67-.23,3.33-.26,5l-.57,20.15c-.2,6.71-.18,13.45-.06,20.26l.09,5.11.16,5.14c.09,3.41.25,6.86.42,10.31a542.93,542.93,0,0,0,10.84,85.68A442,442,0,0,0,555,1238.1a385,385,0,0,0,25,46.39A358.85,358.85,0,0,0,613.14,1329c3.16,3.54,6.34,7.06,9.6,10.52l5,5.12c1.69,1.7,3.31,3.37,5.14,5.09,3.58,3.42,7.15,6.83,10.9,10.09,1.87,1.63,3.73,3.28,5.62,4.88l5.76,4.74a329.79,329.79,0,0,0,49.46,33.08A337.27,337.27,0,0,0,758,1426a355.87,355.87,0,0,0,54.42,13.73,379.18,379.18,0,0,0,53.46,5.13,401.86,401.86,0,0,0,51.52-2.14,422.36,422.36,0,0,0,96.17-22,436.33,436.33,0,0,0,87-42.3,420.79,420.79,0,0,0,76.83-62.24,404,404,0,0,0,33.37-39.16c2.6-3.5,5.14-7.07,7.66-10.65l3.71-5.47,1.83-2.75,1.59-2.48,6.22-9.93c1-1.66,2.08-3.3,3-5l2.92-5.06a471.35,471.35,0,0,0,38-83.83A514.49,514.49,0,0,0,1297,1066l1.61-10.64c.54-3.55.91-7.05,1.35-10.58s.89-7.07,1.21-10.57l1-10.5c.14-1.75.32-3.51.44-5.25l.33-5.21.62-10.42c.16-3.46.26-6.9.38-10.35s.25-6.91.25-10.31a674.88,674.88,0,0,0-3.86-80.41A755.06,755.06,0,0,0,1287.72,825c-5.37-25-12-49.44-19.62-73.43-1.85-6-3.9-11.94-5.9-17.89-1-3-2-5.78-3.06-8.67l-3.09-8.57-3.11-8.56c-1-2.85-2.19-5.66-3.28-8.49L1243,682.49a992.07,992.07,0,0,0-64.64-130.06c-6.06-10.47-12.59-20.67-19-30.92-3.24-5.11-6.66-10.11-10-15.16l-5-7.56c-1.67-2.52-3.46-5-5.18-7.45l-10.47-14.84-10.83-14.59-5.45-7.27-5.61-7.15c-3.76-4.76-7.48-9.54-11.28-14.26-7.77-9.31-15.39-18.74-23.5-27.78l-6-6.84c-2-2.27-4-4.56-6.08-6.77l-12.39-13.36-3.1-3.34-3.85-4c-2.6-2.68-5.21-5.35-7.87-7.92C1027.41,358,1022,353,1016.53,348c-2.77-2.46-5.52-4.92-8.32-7.35l-4.24-3.59-2.7-2.29c-1-.79-1.87-1.58-2.87-2.38-7.85-6.37-15.84-12.57-24-18.48a453.24,453.24,0,0,0-50.94-32.06,379.32,379.32,0,0,0-53.93-24.3c-36.73-13.22-74.68-20.16-112.19-19.65a281.42,281.42,0,0,0-55.62,6.47L694.88,246c-2.27.52-4.51,1.22-6.76,1.83l-6.73,1.94c-2.24.66-4.44,1.45-6.66,2.18l-6.63,2.27c-2.2.77-4.36,1.67-6.54,2.51l-6.5,2.61c-2.17.88-4.26,1.92-6.39,2.89l-6.34,3c-2.11,1-4.15,2.14-6.22,3.22-4.13,2.19-8.27,4.36-12.23,6.83a240.55,240.55,0,0,0-23.31,15.51c-3.68,2.86-7.41,5.69-11,8.71l-5.38,4.47c-.88.76-1.82,1.46-2.66,2.27L579,308.59a242.89,242.89,0,0,0-19.66,20A298.9,298.9,0,0,0,526,374.53a345.16,345.16,0,0,0-25.2,52.64A487.22,487.22,0,0,0,483,484.39c-2.31,9.83-4.71,19.62-6.67,29.55l-1.46,7.44-.69,3.68-.6,3.4c-.6,3.3-1.19,6.61-1.71,10a603.4,603.4,0,0,0-7.84,82.73q-.49,21.47.79,43.77c.89,14.87,2.38,30,4.81,45.44a447.7,447.7,0,0,0,9.9,47,398.42,398.42,0,0,0,16,47.82,389.24,389.24,0,0,0,23.15,47.34c2.28,3.86,4.5,7.73,6.93,11.54s4.89,7.59,7.39,11.35,5.22,7.42,7.87,11.11,5.52,7.24,8.31,10.83,5.67,7,8.55,10.37l4.35,5.05,4.5,4.94c6,6.6,12.31,12.89,18.73,19a381.22,381.22,0,0,0,40.69,33.41,415.4,415.4,0,0,0,42.79,26.69,463.55,463.55,0,0,0,42.66,20.2c14,5.78,27.84,10.8,41.22,15s26.46,7.89,39.18,11.08,25,5.87,37,8.29c6,1.23,11.87,2.32,17.74,3.41l8.65,1.54,8.53,1.46c22.63,3.81,43.89,6.82,64,9.7l29.13,4.21c9.39,1.39,18.42,2.8,27.15,4.25s17,3,25,4.52c4,.77,7.82,1.6,11.65,2.41l5.56,1.25c1.87.42,3.59.87,5.39,1.29,7.07,1.74,13.76,3.54,19.86,5.43s11.67,3.86,16.71,5.84a137.51,137.51,0,0,1,13.38,6,110.62,110.62,0,0,1,10.23,5.91,80.45,80.45,0,0,1,7.6,5.81l.84.72.43.35.37.38c.5.51,1.05,1,1.57,1.47a14.49,14.49,0,0,0,1.29,1.31,17.15,17.15,0,0,0,1.27,1.42,71.46,71.46,0,0,1,10.09,15.49,120.12,120.12,0,0,1,8.61,24.08,175.54,175.54,0,0,1,4.67,31c.36,5.54.49,11.23.39,17l-.12,4.31-.21,4.33-.29,4.35-.48,4.81c-2.41,25.6-8.79,54.34-18.59,86s-22.8,66.18-37.28,103.79Z"/><path class="b" d="M1256.63,1485.74c-3.21.83-2.07-4.16-3.2-6.09,3.44-5.81,7-12.75,9.71-10.92Q1259.87,1477.27,1256.63,1485.74Z"/><path class="b" d="M1226.09,837.4c-14.31-7.25-21.08-11.62-27.39-15.92-3.13-2.08-6.18-4.2-10-6.34-1.88-1.06-3.94-2.15-6.3-3.29-1.18-.56-2.43-1.15-3.78-1.74s-2.73-1.14-4.25-1.73c-2.69-1.19-5-2.16-7.09-2.94s-3.76-1.29-5.28-1.71a32.46,32.46,0,0,0-7-1.23c-3.58-.14-5.8.53-11.06-.56-31.36-11.08-61.09-18.31-88.76-23.77s-53.41-9-77.16-12-45.51-5.14-65.19-7.26l-28-3.07q-13.15-1.53-24.69-3.06c1.11-1.13.11-2-1.79-2.82s-4.56-1.54-7-2.26c2.24-5.4,7.92-7.91,15.83-9.08,17.94,3.22,38.06,6.05,59.77,8.71s45,5.2,69.82,8.12,51.17,6.22,79.61,10.95,59,10.88,92.16,20.63c-7.78,5.17,8.89,13.19,26.64,23.31,4.46,2.56,8.9,5,13.08,7.75a115.36,115.36,0,0,1,11.06,7.72,31.2,31.2,0,0,1,6.67,6.73C1227.32,834.57,1227.44,836.22,1226.09,837.4Z"/><path class="b" d="M794.65,578.44c0,2.65.39,2.35-.79,6.94A62.35,62.35,0,0,0,794.65,578.44Z"/><path class="b" d="M985,331.94c1.83,1.28,3.76,2.67,5.79,4.15s4.16,3.07,6.24,4.72l5.44,4.24c1.72,1.33,3.41,2.76,5.15,4.21l5.26,4.46c1.75,1.52,3.48,3.11,5.22,4.7s3.48,3.17,5.16,4.81,3.34,3.28,5,4.92c3.26,3.23,6.29,6.59,9.11,9.73l1,1.17c.34.38.72.8.95,1.1l1.54,1.91c1,1.26,1.94,2.48,2.81,3.64,3.46,4.66,5.75,8.5,6.18,10.85l4.45,3.6c1.47,1.2,2.9,2.44,4.36,3.67l8.76,7.52c2.93,2.57,6,5.15,8.91,7.92s6,5.66,9,8.68,6.23,6.16,9.4,9.55,6.35,7,9.66,10.79c6.72,7.55,13.42,16.27,20.74,26.1.33,2.42.69,4.95.78,7.28a14,14,0,0,1-.75,6l-37.14-36.53-5.33-5.31-5.49-5.31c-3.67-3.57-7.35-7.19-11-10.84-1.81-1.84-3.67-3.64-5.53-5.43l-5.5-5.4c-3.65-3.6-7.18-7.24-10.7-10.78s-7-7-10.28-10.44q-2.48-2.58-4.82-5.13l-1.17-1.27-.59-.64-.7-.74-2.78-2.95c-7.3-7.86-14-15-19.53-21.54-2.78-3.25-5.31-6.33-7.46-9.28-1.07-1.48-2.1-2.88-3-4.26-.46-.68-.89-1.36-1.3-2s-1.09-1.6-1.6-2.36a55,55,0,0,1-4.87-8.62A14.83,14.83,0,0,1,985,331.94Z"/><path class="b" d="M970.57,1135.15c4.51-3,3.39-.94,2,1.3s-3.23,4.47.49,1.67c.1.85-.57,1.9-1.62,3a17.23,17.23,0,0,1-4.08,2.82c-3,1.55-6.22,2-6.34.2a21.37,21.37,0,0,1,3-2.28c.6-.41,1.24-.82,1.87-1.23s1.23-.85,1.81-1.26a13.51,13.51,0,0,0,2.72-2.37C971,1136.24,971.1,1135.62,970.57,1135.15Z"/><path class="b" d="M803.24,1043.18c-1.67.52-3.07.28-4-1.2a8.83,8.83,0,0,1-1.11-3.21,31,31,0,0,1-.26-5.45,3.22,3.22,0,0,1,4,1.33C802.8,1036.16,803.28,1038.87,803.24,1043.18Z"/><path class="b" d="M1113.52,599.1a69,69,0,0,0,6.88.59,37,37,0,0,0,5.09,0,45,45,0,0,0,6.79-1.16,15.89,15.89,0,0,1,5.39-.63,21.9,21.9,0,0,1,7.61,2.61,151.6,151.6,0,0,1,30.87,0,233.49,233.49,0,0,1,33.17,5.78c11.11,2.71,22.11,6.11,32.65,9.75s20.64,7.52,30.09,11.1,18.59,6.61,27.88,10c4.66,1.66,9.28,3.49,14,5.42,2.31,1,4.62,2.06,6.95,3.14s4.61,2.31,6.93,3.53a302.79,302.79,0,0,1,52.6,36.26,313.3,313.3,0,0,1,44.71,47.25,293.12,293.12,0,0,1,33.1,54.48,283.8,283.8,0,0,1,19.61,57.3A250.05,250.05,0,0,1,1483,878c.18,2.81.47,5.61.57,8.42l.15,4.2c0,1.4.13,2.76.1,4.24,0,2.91,0,5.8,0,8.69s-.25,5.82-.36,8.71a277.41,277.41,0,0,1-12.12,67.24c-2.87-9.93-3.65-22.37-3.65-36s.65-28.34.76-43.11l0-5.55c0-1,0-1.84,0-2.72l0-2.66c0-3.56-.19-7.12-.26-10.71-.05-1.79-.22-3.58-.31-5.37s-.17-3.58-.36-5.36-.3-3.58-.44-5.36-.41-3.55-.61-5.31c-.1-.88-.19-1.77-.29-2.65l-.39-2.62-.75-5.22q-.46-2.58-.92-5.13l-.45-2.54-.54-2.51q-.54-2.5-1.06-4.95t-1.22-4.81c-.75-3.18-1.75-6.23-2.62-9.21-1-2.24-2.17-4.3-3.23-6.25a67.18,67.18,0,0,0-10.36-13.86A222.9,222.9,0,0,0,1434.24,776c-.91-1.76-2-3.44-2.93-5.15s-2-3.4-3-5-2.09-3.31-3.12-5l-3.28-4.84c-4.43-6.38-9-12.54-14-18.37-2.39-3-5-5.76-7.45-8.59-1.26-1.4-2.58-2.76-3.85-4.13s-2.56-2.74-3.9-4.05l-4-3.95c-1.32-1.31-2.7-2.57-4-3.84-2.65-2.58-5.47-5-8.18-7.44-5.56-4.79-11.15-9.43-16.91-13.76s-11.58-8.47-17.42-12.46-11.83-7.69-17.85-11.21c-24-14.26-48.67-25.54-73.69-35.42a777.18,777.18,0,0,0-77.62-25.39c-9.56.74-18.19.29-27.1.24s-18,.28-28,2.71c-3-.34-6.1-.65-7-2-2.5-.63-2.5-2.21-1.56-4A33.37,33.37,0,0,1,1113.52,599.1Z"/><path class="b" d="M1509,857.7a100.62,100.62,0,0,1,3.65,24.63,41.38,41.38,0,0,1-1.07,10.47c-.82,2.63-2,4.12-3.66,3.78a44,44,0,0,1,1.2,11.55,93.19,93.19,0,0,1-1,12.39q-.45,3.21-.93,6.53t-1.1,6.81c-.37,2.31-.62,4.66-1,7.09s-.61,4.91-.8,7.46c-7.06,27.83-16.27,58.2-27.34,91.15l-2.07,6.2c-.71,2.09-1.43,4.18-2.14,6.28-1.45,4.21-2.9,8.46-4.36,12.72-2.92,8.51-6,17.41-9,26s-6.19,17.37-9.33,26.15l-4.87,13.13c-1.61,4.4-3.34,8.75-5,13.15q-1.26,3.3-2.53,6.6l-2.61,6.57c-1.76,4.37-3.45,8.81-5.29,13.15l-5.45,13.14-5.66,13c-7.66,17.36-15.8,34.55-24.49,51.34s-18.1,33-28,48.63l-3.76,5.81c-1.26,1.93-2.49,3.89-3.81,5.75l-7.81,11.26c-2.67,3.66-5.4,7.26-8.09,10.88l-2,2.7-2.1,2.61q-2.09,2.61-4.19,5.2c-4,.41-3.84-2.25-2.42-5.85.72-1.8,1.75-3.83,2.76-5.84a54.41,54.41,0,0,0,2.47-5.88c2.14-2.8,4.23-5.56,6.22-8.34s3.81-5.68,5.62-8.49l2.68-4.21c.88-1.4,1.69-2.85,2.52-4.27q2.46-4.27,4.79-8.5c1.6-2.79,3-5.71,4.44-8.54s2.82-5.69,4.22-8.51c2.64-5.76,5.25-11.43,7.78-17.15,10-23,19.25-46.14,32.72-71.64,5.13-17.84,11.51-36,18.43-54.43,3.43-9.24,7.09-18.49,10.75-27.84s7.5-18.79,11.25-28.16c7.62-19,15.22-37.49,21.7-55.24s11.94-34.84,15.58-51c5.18-12,10.09-29.74,12.61-49.49.31-2.47.51-5,.76-7.48s.49-5.08.56-7.63.21-5.13.32-7.72,0-5.07,0-7.62a191.25,191.25,0,0,0-3.11-30.38c.53-2,2.65-2.44,5.09-1.87A15.22,15.22,0,0,1,1509,857.7Z"/><path class="b" d="M1411.82,1259.39l3.48,1.72c-1.74,4.33-3.59,8.59-5.51,12.8s-4.09,8.23-6.22,12.28-4.43,8-6.69,11.88l-3.43,5.84c-1.14,1.94-2.37,3.81-3.55,5.72-9.39,15.3-19.33,29.73-28,44.84-.7-8,10.19-26.22,12.44-37.55,1-1.33,1.92-2.69,2.81-4l2.65-4q2.58-4,5-7.78c3.12-5.16,6-10.15,8.91-14.9s5.6-9.47,8.6-13.9A136.37,136.37,0,0,1,1411.82,1259.39Z"/><path class="b" d="M1324.07,1347.2c1.69.37,1.41,2.45-.08,5.48a44.53,44.53,0,0,1-3,5.13c-1.29,1.81-2.79,3.75-4.39,5.73s-3.3,4-5,5.92-3.52,3.64-5.17,5.28a72.58,72.58,0,0,1-7.89,7.14q.59-1.16,1.23-2.25c.41-.75.84-1.5,1.29-2.23a51.06,51.06,0,0,1,2.92-4.22c1-1.36,2.14-2.68,3.28-4,.58-.65,1.15-1.3,1.74-2l1.72-2c2.32-2.71,4.72-5.44,7-8.34a52,52,0,0,0,3.32-4.63C1322.11,1350.62,1323.12,1349,1324.07,1347.2Z"/><path class="b" d="M577.72,1297.63a31.75,31.75,0,0,1-8.76.17c-2-.17-4.11-.44-6.39-.83s-4.61-1-7-1.68a67.75,67.75,0,0,1-14.35-5.85,37.79,37.79,0,0,1-11.35-9.85c-2.48-.82-5-1.68-7.46-2.62s-4.9-2-7.36-3.1-4.93-2.23-7.4-3.41-5-2.39-7.4-3.74c-4.88-2.66-9.8-5.49-14.77-8.44l-1.87-1.12-1.82-1.17-3.66-2.38-7.4-4.87c-19.72-13.35-39.55-28.94-60.32-45.2,3.18-.63-.15-5.22-5-10-1.22-1.2-2.55-2.39-3.86-3.58s-2.59-2.37-3.84-3.43a43.42,43.42,0,0,0-6.28-4.63c-.94,2.13,2.49,4.31,5.28,6.17s5,3.39,1.63,4.31a335.21,335.21,0,0,1-34.88-34.5q-3.82-4.31-7.51-8.36c-2.38-2.75-4.63-5.46-6.89-8s-4.48-5-6.67-7.27-4.14-4.55-6.18-6.57c1-2.17,4.05,1.77,5.46.94.85-1.42-3.41-6.56-6-10.5,1.44-.17,7,6.61,10.73,12.19,4,5.39,6.19,9.68.21,4.75,4.4,5.77,6.54,5.69,11.07,11.85-4-6.48-1.8-6.66-.66-7.63s1.27-2.68-6.77-12.06c2-.44,7.75,9,9.45,7.71,3.42,6.17.95,8.61,2.58,13.36a101.67,101.67,0,0,1,10.34,10.07l1.57,1.68,1.67,1.66,3.4,3.4,6.71,6.66c1.08,1,2.11,2.09,3.15,3s2.07,1.8,3,2.59A47.42,47.42,0,0,0,397,1181c2.63,1.64,3.86,1.45,2.78-1.75,3.66,2.15,7.32,6,11.42,10.41,2,2.23,4.07,4.66,6.14,7.18l3.12,3.83c1.1,1.25,2.21,2.5,3.31,3.76,2.22,2.5,4.46,5,6.7,7.34a69.33,69.33,0,0,0,6.81,6.46c4.64,3.79,9.2,6.6,13.54,7.51a253.29,253.29,0,0,0,28.33,20.72q3.45,2.19,6.87,4.29c2.27,1.41,4.66,2.67,7,4,4.68,2.59,9.35,5.16,14.18,7.71l15.05,7.59,3.92,2,4.07,2,8.4,4.12c2.88,1.41,5.76,2.95,8.84,4.41s6.22,3,9.45,4.64Z"/><path class="b" d="M326.74,1114.43c-3.77-7.42-5.85-15.83.89-10.31C332.32,1111.5,329.7,1113.12,326.74,1114.43Z"/><path class="b" d="M308.18,1092.54c-7.21-10.66-2.45-11-6.69-19.56a12.67,12.67,0,0,1,4,4.58,42,42,0,0,1,2.86,6.56C309.83,1088.5,310.12,1092.53,308.18,1092.54Z"/><path class="b" d="M290.17,1038.37c-1.28.08-2.45-1.19-3.63-3.32-.58-1.07-1.17-2.34-1.77-3.77s-1.12-3-1.7-4.73l-1.84-5.24c-.63-1.8-1.22-3.66-1.91-5.46s-1.4-3.57-2.2-5.25a43,43,0,0,0-2.47-4.74c1.12,0,2.27,1.29,3.43,3.45a63.46,63.46,0,0,1,3.74,8.47c.62,1.69,1.31,3.44,2,5.23s1.38,3.61,2.07,5.41,1.41,3.56,2.14,5.24S289.47,1036.92,290.17,1038.37Z"/><path class="b" d="M267.39,982.93c-1-1.49-2-2.75-3-4a47,47,0,0,1-2.87-4.08,35.53,35.53,0,0,1-2.79-5.57,53.76,53.76,0,0,1-2.46-8.55C260.15,964.32,263.62,971.61,267.39,982.93Z"/><path class="b" d="M364.82,572.06C371.1,560.61,377,554.5,382,553.54,376.34,558.58,369.65,572.9,364.82,572.06Z"/><path class="b" d="M342.68,1389.84a597.19,597.19,0,0,0,54.58,42.87c4.75,3.17,9.53,6.27,14.32,9.26q3.59,2.25,7.19,4.42c2.41,1.4,4.83,2.74,7.25,4.07,4.84,2.64,9.68,5.16,14.52,7.52,2.41,1.21,4.84,2.27,7.26,3.32s4.85,2,7.27,3a1284.15,1284.15,0,0,0,131.32,71.88c23,10.8,46.19,20.6,69.05,29.29,11.42,4.21,22.78,8.33,34,11.88,5.59,1.8,11.15,3.58,16.66,5.19s11,3.14,16.38,4.59c14,7.4,29.86,12.9,45.84,18s32.12,9.88,46.86,15.9q6.58,2.7,13.2,5.29t13.45,5.17q13.61,5.1,27.87,10c19.06,6.43,38.91,12.45,59.81,17.69a657.09,657.09,0,0,0,65.46,13.12q17.13,2.49,34.91,4c3,.26,6,.46,9,.67l4.49.31,4.54.24,9.09.41,9.2.22c12.32.18,24.77,0,37.44-.78,3.15-.18,6.3-.37,9.5-.66l9.53-.83c6.42-.73,12.77-1.38,19.21-2.37,12.81-1.78,25.71-4.28,38.5-7.29l9.59-2.36,9.55-2.65c1.59-.45,3.18-.89,4.75-1.37l4.68-1.51,9.32-3.08a408.53,408.53,0,0,0,70.8-31.57c5.65-3,11-6.39,16.35-9.71l8-5,2-1.27,1.93-1.33,3.84-2.66,7.62-5.35,3.79-2.69,1.89-1.34,1.82-1.4q7.27-5.64,14.41-11.3l2.22-1.49,2.14-1.55,4.25-3.12,8.48-6.27c1.41-1,2.84-2.08,4.21-3.16l4.06-3.28,8.1-6.58c20.92-19.8,38.67-41.29,54.9-63.75s30.92-46,45.68-70.63c30.41-50.73,58.36-105.89,82.76-161.66,12.19-27.88,23.56-55.9,34-83.51,2.66-6.91,5.18-13.78,7.7-20.62s4.93-13.65,7.37-20.42,4.65-13.19,7-19.87l3.41-9.93,3.35-10c1,0,2.08.52,3.14-.28s2.17-2.89,3.33-8c9.26-26.25,18.44-53.64,26.3-82.81,3.92-14.6,7.41-29.73,10.45-45.28l2.08-11.84c.33-2,.7-3.95,1-6l.87-6.06.84-6.07c.28-2,.57-4.05.77-6.13q.66-6.21,1.3-12.42c.23-2.07.38-4.17.52-6.29l.43-6.34.4-6.35c.07-1,.11-2.14.14-3.26l.1-3.31c.31-8.86.25-17.75,0-26.68a399.85,399.85,0,0,0-5.35-53.66,405.26,405.26,0,0,0-32.5-104.62c-7.65-16.37-16.82-31.23-26.13-45.57s-18.73-28.25-27.25-43.22c-12.63-13.41-26.84-28.1-42.25-42.51a570.78,570.78,0,0,0-48.92-41.17,418.12,418.12,0,0,0-52.25-41l-7.57-4.95c-2.54-1.65-5.16-3.22-7.77-4.82-5.19-3.24-10.57-6.27-16-9.33-10.87-6-22-11.69-33.31-16.75a429.45,429.45,0,0,0-67.2-24.11,322.83,322.83,0,0,0-58-10.22c-21.71-6.84-43.25-9.9-65-11.16-5.43-.32-10.9-.44-16.38-.61l-8.26-.06c-2.77,0-5.53,0-8.33,0-5.58.09-11.19.13-16.89.35l-8.61.26-8.74.37a494.48,494.48,0,0,0-49.81,4.59c-4.21.66-8.45,1.23-12.69,2s-8.54,1.51-12.72,2.36q-12.33,2.72-24.81,5.59a544,544,0,0,0-98.07,35.06,571.15,571.15,0,0,0-91.62,54,610,610,0,0,0-80.64,69.79A655.11,655.11,0,0,0,635.72,750.23,642.59,642.59,0,0,0,578.16,937c.1,2.88.13,5.64.1,8.34,0,1.34,0,2.67-.08,4s0,2.63,0,3.93c-.11,5.19-.41,10.22-.77,15.34-.16,2.57-.43,5.14-.52,7.8s-.17,5.36-.26,8.15c-.12,5.59-.23,11.49.08,18q-.78,6.56-1.42,13.81c-.2,2.42-.4,4.9-.61,7.42l-.26,3.82c-.06,1.29-.11,2.6-.17,3.91-.4,10.53-.36,21.9.26,33.88a393.47,393.47,0,0,0,11.76,77.35A340.84,340.84,0,0,0,617,1221.36c13.39,24.51,29.81,46,45.46,61.72a157.52,157.52,0,0,0,12.66,16.43l1.85,2.12,2,2.14c1.35,1.44,2.74,2.88,4.15,4.33s2.93,2.86,4.44,4.3,3.05,2.89,4.68,4.29a232.38,232.38,0,0,0,21.09,16.57,263.9,263.9,0,0,0,24.38,14.87,283.5,283.5,0,0,0,26.75,12.43,291.88,291.88,0,0,0,28.09,9.66A370.75,370.75,0,0,0,849,1381.69c28.72,3.64,55.85,4.5,80.64,2s47.12-8.37,65.25-18.26a340.25,340.25,0,0,0,83.38-41.18,354.79,354.79,0,0,0,72.84-65.38c2.75-3.21,5.4-6.57,8.07-9.91,1.32-1.68,2.61-3.41,3.92-5.12s2.59-3.44,3.85-5.2l3.78-5.3,3.68-5.41c1.29-1.87,2.27-3.48,3.36-5.18l3.22-5.07,3.21-5.09c1-1.71,2-3.45,3.06-5.18,2-3.47,4.06-6.93,6-10.43,3.79-7.08,7.7-14.15,11.16-21.41,3.67-7.2,6.87-14.56,10.23-21.93,3.08-7.42,6.31-14.86,9.09-22.4,3-7.53,5.54-15.13,8.24-22.77,2.44-7.64,5-15.33,7.23-23.06,3.79-12.54,7-25.14,10-37.85.73-3.17,1.38-6.33,2.06-9.52s1.41-6.38,2-9.56c1.17-6.37,2.42-12.8,3.35-19.19a470.47,470.47,0,0,0,5.94-77.51c-.46-4.35-.8-8.72-1.33-13s-1-8.56-1.48-12.83L1258,893.3c-.55-4.22-1.23-8.36-1.84-12.53-2.57-16.62-5.54-32.95-9.09-49.1s-7.71-32.1-12.52-48c-1.24-4-2.45-7.94-3.75-11.9s-2.69-7.9-4-11.87-2.88-7.88-4.36-11.84l-1.12-3-1.16-2.87q-1.17-2.88-2.35-5.76c-1.7-.26-3.14,2.07-5.39-3.57-2.63-9.31-7-19.51-11.9-30.39-1.21-2.73-2.59-5.45-4-8.22l-4.23-8.41c-1.45-2.82-2.91-5.69-4.39-8.58s-3.11-5.73-4.68-8.63-3.14-5.81-4.72-8.75q-1.18-2.19-2.36-4.41t-2.45-4.38c-3.26-5.85-6.47-11.75-9.56-17.66s-6.32-11.7-9.22-17.55l-2.13-4.39-2.14-4.33q-2.11-4.34-4-8.65c-11.63-16.53-24-31.75-36.83-47.07q-4.9-5.67-9.89-11.41c-3.34-3.81-6.61-7.72-10.12-11.53-7-7.67-13.9-15.6-21.39-23.59l-5.58-6.11-2.81-3.11-2.9-3.08q-5.83-6.2-11.82-12.71c-2-2.19-4-4.34-6.13-6.53l-6.29-6.66-6.38-6.86-6.66-6.93-6.78-7.15-3.44-3.66-3.55-3.65L998.8,431l-3.66-3.83-1.84-1.94-.93-1-1.08-1.09c-2.89-2.91-5.78-5.93-8.8-8.84L978,409.92l-4.68-4.43c-3.11-3-6.37-5.92-9.66-8.91-1.63-1.52-3.33-3-5-4.47l-2.92-2.55c-1-.9-2.1-1.82-3.19-2.73-15.89-8.66-35.35-20.23-57.84-31.37s-48-21.68-75.07-28.12a250.25,250.25,0,0,0-41.11-6.44,200.65,200.65,0,0,0-40.8,1.27A168.17,168.17,0,0,0,700,331.74,158,158,0,0,0,668.49,348c-1.85,1-3.71,2.15-5.61,3.26s-3.86,2.23-5.74,3.49c-3.77,2.55-7.73,5.12-11.47,8.16l-2.87,2.24-1.44,1.13-1.41,1.2-5.68,4.85c-1,.79-1.86,1.69-2.78,2.57l-2.76,2.65L626,380.21c-.91.91-1.77,1.88-2.67,2.82-14.33,15.1-27,33.29-37.36,52.57l-3.83,7.25c-1.19,2.46-2.39,4.91-3.58,7.34s-2.3,4.91-3.4,7.36-2.24,4.89-3.24,7.37-2,4.91-3,7.33-1.92,4.88-2.88,7.28c-1.94,4.8-3.64,9.6-5.38,14.24s-3.24,9.25-4.85,13.65-3,8.72-4.43,12.81L547.18,532q-1,2.81-1.93,5.42c-.31.87-.61,1.72-.92,2.56l-.22.62-.21.48-.4.93a498.56,498.56,0,0,0-9.21,55.3c-1,9.75-1.74,19.93-1.92,30.85-.16,5.44-.06,11.11.06,16.93q.2,4.39.39,8.93c.14,3,.43,6.14.66,9.28-.14,3.75-.3,7-.54,10.11s-.55,6-.71,9-.35,6.21-.25,9.87c.06,1.83.17,3.77.33,5.87s.37,4.35.75,6.81c1.75,4,3.42,9,5.34,14.91s3.92,12.69,6.23,20.21a255.27,255.27,0,0,0,8.91,36.32,265.91,265.91,0,0,0,16.39,39.82A277.16,277.16,0,0,0,595,856.6c1.23,1.63,2.47,3.28,3.72,4.92s2.55,3.16,3.84,4.75c2.6,3.13,5.17,6.31,8,9.34,5.46,6.16,11.27,12.09,17.29,17.82a299.09,299.09,0,0,0,38.74,30.92,319.17,319.17,0,0,0,41.18,23.35,359.73,359.73,0,0,0,40.33,16.17c13,4.35,25.56,7.75,37.39,10.49,2.3,1.93,5.7,3.46,9.66,4.77s8.42,2.31,12.88,3.24,9,1.92,13,3a50.09,50.09,0,0,1,5.63,1.91,23.31,23.31,0,0,1,4.56,2.42c37.92,6.4,74.2,9.23,108.76,12.07,17.28,1.41,34.12,2.79,50.42,4.49,4.11.41,8.08.88,12.13,1.33s8,.95,11.89,1.49c7.88,1,15.54,2.21,23.07,3.52,30.06,5.19,57.1,13.16,78.25,24.82a130.45,130.45,0,0,1,14.76,9.35l1.71,1.23,1.62,1.3c1.07.88,2.18,1.71,3.21,2.6,2,1.81,4.09,3.55,5.93,5.46s3.64,3.83,5.42,5.73l2.46,3,1.21,1.49,1.09,1.52a87.35,87.35,0,0,1,7.73,12.71c-2.25,9.86-2.92,20-5,29.21a65.43,65.43,0,0,1-1.89,6.66,42.17,42.17,0,0,1-2.66,6.07,29.82,29.82,0,0,1-3.63,5.25,24.92,24.92,0,0,1-4.84,4.3c-.18,3.13.36,7.16.52,10.92s-.21,7.35-2.06,9.25a4.05,4.05,0,0,0-3.89,2.49c-.39.69-.72,1.44-1.09,2.13a6.22,6.22,0,0,1-1.41,1.85c-.49,5.47-1.11,12.32-1.87,20-.44,3.84-.8,7.84-1.31,12-.19,2-.52,4.18-.71,6.28s-.48,4.25-.77,6.41c-.49,4.29-1,8.61-1.47,12.86l-.33,3.2c-.15,1.17-.28,2.34-.4,3.5-.25,2.32-.36,4.6-.53,6.9s-.38,4.63-.46,6.9-.14,4.57-.21,6.77,0,4.42.14,6.55.15,4.31.37,6.37c1.15,2.24,2.36,4.52,3.46,6.85s2.19,4.67,3.32,6.87,2.32,4.3,3.51,6.19a28,28,0,0,0,3.72,4.94c2.65,2.7,5.65,4.07,9.24,3.2a15.62,15.62,0,0,0,5.87-3.1,40.33,40.33,0,0,0,6.71-7.07c6.33,2.41,13.59,1.91,20.77,1s14.14-2.12,20-.79a14.69,14.69,0,0,1,7.76,4.39c2.16,2.4,3.84,5.86,4.93,10.81,2.09,9.89,1.71,25.76-4.37,50.82,1.64,4.7,3,9.47,4.35,13.94a76.68,76.68,0,0,0,4.36,12.14c3.45,7,8.36,11.32,17.66,9.86,7.78-11.41,15.46-19.54,23.28-29.57,2-2.5,3.94-5.12,5.95-7.94s3.93-5.87,5.94-9.18q1.5-2.49,3-5.2t2.94-5.71c2-4,4-8.32,5.9-13.17.53,8.93,3,1.25,6.28,1.42.65-2.35,1.29-4.87,1.93-7.47.31-1.31.65-2.63.94-4s.56-2.7.84-4.06c1.1-5.45,2.3-10.9,3.25-15.87a106.22,106.22,0,0,1,3.26-12.58c1.11-3.25,2.38-5.34,3.91-5.65-.51,3.08-.91,6-1.33,8.75s-.85,5.36-1.18,7.84-.62,4.84-.85,7.09-.54,4.37-.73,6.41c-.42,4.08-.6,7.84-.78,11.34s-.31,6.79-.36,10c-.27,12.81-.07,24.35-4.43,42.69a94,94,0,0,0,1,14,50.13,50.13,0,0,0,2.5,10.19,45.61,45.61,0,0,0,7.94,13.4c5.83,7.27,12,13.26,11.71,29.62-2.8,5.64-4.7,8.69-6.26,12.18a53.11,53.11,0,0,0-2.21,5.8c-.73,2.23-1.48,4.87-2.32,8.28,5.33,10.45,14-5.28,10.82,19a24.68,24.68,0,0,0,5.2-5.55,52.86,52.86,0,0,0,4.25-7.6c2.69-5.65,5.17-12.71,8.42-20.79,4.44-2.24,9-6.85,13.78-13.07,2.36-3.14,4.72-6.77,7.11-10.69,1.2-2,2.41-4,3.6-6.14s2.37-4.39,3.56-6.69c9.54-18.33,18.84-41.42,27.11-63.77q1.44-6.4,2.86-12.68l2.61-12.65,1.29-6.24c.39-2.1.78-4.2,1.16-6.28q1.17-6.25,2.32-12.39t2-12.38c.33-2,.67-4.09,1-6.11s.57-4.11.86-6.15q.84-6.15,1.67-12.18c.29-2,.5-4.12.75-6.19s.46-4.15.69-6.21c1.7-16.54,2.7-32.74,3-48.76a476.72,476.72,0,0,0-1.45-47.72c-2.62-31.66-8.43-63.35-19.43-95.49a332.16,332.16,0,0,0-21-48.24A304.92,304.92,0,0,0,1339.64,944c.46-1,.29-2.68-.42-4.78a37.76,37.76,0,0,0-3.71-7.56,106,106,0,0,0-6.56-9.49c-1.32-1.68-2.73-3.42-4.21-5.19s-3-3.57-4.72-5.35c-3.33-3.57-6.91-7.29-10.6-10.65s-7.49-6.84-11.38-9.91q-2.89-2.34-5.75-4.54c-1.89-1.48-3.82-2.8-5.68-4.12-3.73-2.6-7.27-5-10.57-6.93-4.22-5.18-3.72-8-4.43-11.42a14.14,14.14,0,0,0-2.8-5.83,33.69,33.69,0,0,0-3.58-3.9c-.76-.72-1.62-1.49-2.59-2.3s-2-1.6-3.24-2.47c-9.27-3.83-8.6-1.78-5.86,1.57,1.37,1.68,3.26,3.71,4.71,5.53s2.44,3.51,2.08,4.35c-2.87-1.59-6.2-3.26-9.84-5.23l-5.68-3-6.07-3.13c-2.07-1.06-4.2-2.21-6.35-3.27l-6.54-3.23c-4.41-2.25-8.85-4.28-13.25-6.4l-3.29-1.57-3.23-1.48-6.32-2.93c-4.14-1.92-8-3.64-11.66-5.37s-6.88-3.18-9.75-4.65-5.27-2.76-7.13-3.92c-2.58-.54-5.29-1.16-8.1-1.83s-5.68-1.3-8.66-2l-18.74-4.56c-13-3.15-26.83-6.35-40.56-9.07-27.5-5.47-54.51-9.16-75.5-9.23a148,148,0,0,0-27.89-10.63,346.65,346.65,0,0,0-39.67-8.43c-.61,2.23-2.63,3.79-5.29,5.05a89.83,89.83,0,0,1-9,3.28c-10.3-.6-19.67-1.5-28.31-2.66s-16.61-2.57-24-4.2A268.18,268.18,0,0,1,846.92,761c-11.19-4.34-21.21-8.87-30.41-13.28-4.58-2.22-9.13-4.31-13.42-6.44s-8.61-4.13-13-6.18c-3-4.63-6.71-9.3-10.74-14.49-.49-.68-1-1.37-1.48-2l-.8-1-.66-1c-.44-.67-.95-1.28-1.41-1.95s-.89-1.38-1.38-2.05c-1.81-2.82-3.69-5.81-5.49-9.15-.46-5.09-.94-10.54-1.36-16.64s-.81-12.82-1-20.3-.21-15.73.09-24.65c.1-4.44.41-9.12.66-13.86s.71-9.7,1.24-14.77,1.12-10.22,1.75-15.46,1.43-10.61,2.33-16c.09-.57,0-.72.11-1a3.55,3.55,0,0,0,.06-.8c-.05-.56,0-1.09,0-1.65,0-1.12,0-2.27.06-3.47,0-2.41,0-5,.23-7.9a48.86,48.86,0,0,1,1.46-9.18c3.25,2.06,5.49,3.12,7.29,3.52a8.17,8.17,0,0,0,4.58-.31,21.61,21.61,0,0,1,4.28-1.14,5.34,5.34,0,0,1,4.3,1.33,19.58,19.58,0,0,1,4.64,6.8,28.76,28.76,0,0,1,1.84,6.6c.07.47.16.87.2,1.3a2.09,2.09,0,0,0,.1.57,1.39,1.39,0,0,1,.09.27l.08.18,0,.08.26.27,9.54,9.61L822.44,598c2.35,2.26,4.78,4.46,7.23,6.66s4.85,4.46,7.37,6.63c4.05,4.56,4.06-.8,7.83,3,12.11,15.21,26.53,32.47,40.49,51s27.48,38.36,38.26,57.71c1.9,3.47,3.81,6.9,5.52,10.43s3.33,7.08,5,10.62c.79,1.78,1.63,3.53,2.38,5.33l2.21,5.39q2.22,5.37,4.43,10.73t4.22,10.8l2.21,5.36,2.13,5.4q2.16,5.37,4.57,10.69c1.55,3.57,3.09,7.15,4.82,10.69,1,2.05,2,4.07,3,6.06l2.8,5.92c1.85,3.88,3.74,7.64,5.59,11.22s3.51,6.84,5.21,10.09,3.48,6.38,5.14,9.41a192.94,192.94,0,0,0,21.57,31.53c2.74,13.42,9,27,13.68,41s7.85,28.37,4.61,41.68c.82,2.53,2.18,3.52,3.35,5.09s2,3.69,1.89,8.52c.2,6.69-2,6.68-2.88,10,4.81-.07,3.77-3.65,7.72.36-.24-2.41-.42-4.66-.58-6.78-.08-1.07-.13-2.09-.22-3.1s-.19-2-.28-3c-.17-1.91-.33-3.74-.48-5.52s-.42-3.51-.63-5.21-.46-3.37-.72-5.05-.67-3.4-1.07-5.15-.8-3.51-1.37-5.37-1.19-3.8-1.9-5.83c0-1.2.12-2.22.22-3.21s.19-1.94.26-3a29.68,29.68,0,0,0-.51-8.1c-6.18-18.9-14.07-39.13-23.52-60.5q-7-16-15.15-32.9-2.07-4.2-4.11-8.47l-4.39-8.88-4.38-9.05q-2.31-4.51-4.58-9.11c-11.71-23.58-22.63-48-34.37-69.79s-24.15-41-37.52-53.85c-4.37-7.42,1.55-7.08-1-13a68.61,68.61,0,0,1-9.69-10.84c-1.37-1.94-2.79-3.85-4.13-5.83s-2.64-4-3.94-6.07-2.56-4.19-4-6.28-2.83-4.21-4.34-6.36-3.1-4.3-4.79-6.48-3.63-4.26-5.64-6.4A94.36,94.36,0,0,0,851,608.2c-3.15-2.44-6.37-4.74-9.6-7.1-1.62-1.18-3.23-2.39-4.86-3.61s-3.32-2.43-5-3.72-3.3-2.66-4.93-4.12c-.82-.72-1.63-1.47-2.44-2.25L823,586.22l-.29-.29-.22-.21-.45-.41c-4.71-4.6-9-9-13.19-13.17l-1.56-1.54-.38-.38a.82.82,0,0,1-.13-.17l-.16-.28a6.42,6.42,0,0,1-.48-.9,8,8,0,0,0-.43-1c-.15-.33-.31-.67-.48-1a19.44,19.44,0,0,0-2.66-4.1,12.16,12.16,0,0,0-4.46-3.29c-.76-5.18-4.1-7.2-7.13-8.41s-5.92-1.81-7.54-6.56c.49-2.63,2.8-1.31,4.81.22s3.81,3,5.18.36c-2-1.93-4.46-3.18-5.74-6.59,5.21-4.5,10.12-10.2,17-14.17a27.44,27.44,0,0,1,12-3.67A33,33,0,0,1,832.59,524l3.11,2.53c1,.85,2,1.71,3,2.47.5.36,1,.82,1.5,1.24l2.25,1.87L847,536c3,2.59,5.89,5.08,8.64,7.54,1.41,1.2,2.72,2.43,4.05,3.61l2,1.75,2.27,2.15c6,5.7,11.94,10.74,17.34,15.69q4.11,3.66,8.11,7c1.34,1.1,2.63,2.24,3.9,3.35l3.81,3.25a997.42,997.42,0,0,1,63.46,95.39L968.2,689q3.67,6.74,7.39,13.51l1.86,3.39,1.78,3.45c1.19,2.29,2.38,4.6,3.58,6.9l3.61,6.91q1.71,3.51,3.44,7c1.15,2.35,2.31,4.69,3.46,7l1.75,3.52,1.64,3.56q3.31,7.14,6.65,14.29,3.15,7.23,6.32,14.47l1.58,3.62,1.49,3.66,3,7.31,3,7.31,2.81,7.38,2.84,7.37c.47,1.23,1,2.46,1.41,3.67l1.3,3.62c3.56,9.63,6.75,19.34,9.81,29s5.74,19.35,8.3,29l1.8,7.21.9,3.59.82,3.58q.84,3.59,1.65,7.15t1.49,7.11c.25,1.18.51,2.36.76,3.54l.66,3.53c.45,2.35.9,4.7,1.34,7s.79,4.67,1.18,7c.2,1.16.4,2.32.59,3.47l.51,3.46c.35,2.3.69,4.6,1,6.88s.58,4.55.86,6.82c.65,4.53,1,9,1.51,13.44a438.94,438.94,0,0,1,1.93,50.62c-3.35,15.4-6.84,29-10.57,43q-.72,2.63-1.39,5.29c-.51,1.75-1,3.52-1.53,5.31-.24.89-.49,1.79-.74,2.7s-.49,1.82-.78,2.71q-.84,2.72-1.65,5.5c-.5,1.88-1.14,3.72-1.74,5.61s-1.21,3.82-1.82,5.78c-1.4,3.82-2.61,7.91-4.23,12-2,1.84-4,4-6,6.12s-3.93,4.68-6,7.16q-1.53,1.89-3,3.92c-1,1.35-2.11,2.66-3.14,4l-1.56,2.11-.78,1.08-.38.55-.36.45c-1,1.2-1.84,2.47-2.85,3.71a249.74,249.74,0,0,1-28.61,32c-11.39,10.47-24.56,19.89-37.39,26.1s-25,9.49-34,9c-3,4.13-8.77,7.51-15.89,9.68-1.78.58-3.64,1-5.56,1.4s-3.89.71-5.89.89a72.23,72.23,0,0,1-12.22.3c-2-.09-4-.34-6-.57s-3.9-.6-5.75-1-3.65-.91-5.39-1.4c-.85-.26-1.68-.56-2.5-.84A23.9,23.9,0,0,1,852,1201c-6.17-2.46-10.75-5.49-13.3-8.12a8,8,0,0,1-3.29,1.84,11.2,11.2,0,0,1-2,.38,16.65,16.65,0,0,1-2.12,0,20.37,20.37,0,0,1-4.59-.91,29.59,29.59,0,0,1-4.72-2,41.82,41.82,0,0,1-8.77-6.41,58.32,58.32,0,0,1-6.56-7.6c.6-.7,3.15,0,4.53.19s1.68-.21-2-3.13a7.33,7.33,0,0,0-2-1.62,4.73,4.73,0,0,0-1.63-.58c-1-.19-2,0-3.15-.62-1.2-5.16-3.35-10.91-1.25-15-.3-.47-.59-.9-.88-1.3s-.53-.82-.8-1.19c-.53-.74-1.07-1.35-1.57-1.95-1-1.24-2-2.11-2.93-3.13a28.47,28.47,0,0,1-2.88-3.34c-.47-.68-1-1.41-1.46-2.27s-1-1.89-1.45-3c3.56,1.12,7,1.42,10.67,5.48,4.18,4.9,5.84,7.73,6.81,10.5.25.67.44,1.34.62,2s.41,1.29.61,1.93a19.86,19.86,0,0,0,.72,2,21.56,21.56,0,0,0,1.09,2c1-1.25,1-2.7,1.42-3.36.19-.34.48-.48,1-.32a16.06,16.06,0,0,1,2.61,1.41,5.15,5.15,0,0,0-.59,2.54,3.7,3.7,0,0,0,.76,1.94,6.3,6.3,0,0,0,.74.82,11.55,11.55,0,0,0,.94.71c.33.23.69.45,1,.67s.76.4,1.15.6c3.13,1.65,6.52,3,7,7.36-3.41-1.72-6.19-2.91-8.36-2.3a77.73,77.73,0,0,0,12,5.09,72.34,72.34,0,0,0,12.37,2.83c-2.26-.7-5-2.36-1.65-1.92-2.11-1.18-4-2.51-5.9-3.75s-3.6-2.59-5.21-4a76.72,76.72,0,0,1-8.85-8.45c-.33-.37-.66-.74-1-1.1l-1-1.14c-.66-.73-1.25-1.54-1.87-2.3l-.48-.58-.49-.66-1-1.29c-.68-.83-1.27-1.79-1.94-2.64a115.85,115.85,0,0,1-7.19-11.52,162.45,162.45,0,0,1-12.12-28.82,247.81,247.81,0,0,1-8.4-36.32,351.42,351.42,0,0,1-3.93-41.71c-.07-1.81-.14-3.64-.17-5.48l-.06-2.75c0-.92,0-1.85,0-2.78q0-5.55.05-11.12c-.1-3.71.21-7.45.36-11.19l.24-5.62c.11-1.87.08-3.75.3-5.63l1-11.32.23-2.84c.07-.94.15-1.89.29-2.84.25-1.89.49-3.79.74-5.69.51-3.79.92-7.61,1.48-11.43s1.3-7.63,2-11.46c.34-1.92.6-3.85,1-5.76s.82-3.83,1.24-5.75c.84-3.84,1.59-7.7,2.48-11.56s2-7.69,3-11.56c.52-1.92,1-3.88,1.53-5.8s1.17-3.85,1.76-5.77a32.9,32.9,0,0,0,3.86-5.42c.63-1.08,1.27-2.23,1.9-3.45l2-3.76c1.38-2.6,2.76-5.39,4.13-8.24.68-1.42,1.36-2.86,2-4.3l2.25-4.23c1.42-4.42,2.8-8.69,4.12-12.78q2.25-6.07,4.32-11.62c.68-1.85,1.29-3.69,2-5.45s1.37-3.45,2-5.12c1.28-3.34,2.42-6.54,3.39-9.6.45-1.54,1-3,1.44-4.41s.87-2.82,1.23-4.19a53.18,53.18,0,0,0,1.5-7.79,35,35,0,0,0,.23-3.63,29.16,29.16,0,0,0,0-3.38,22,22,0,0,0-1.36-6.29c-1.48,2.47-3,4.86-4.38,7.32l-4,7.36q-2,3.66-3.93,7.29c-1.25,2.46-2.39,5-3.6,7.44-2.36,5-4.87,9.93-7,15.19-1.11,2.61-2.24,5.24-3.39,7.91-.57,1.33-1.18,2.66-1.72,4s-1.06,2.77-1.59,4.17c-1.09,2.8-2.19,5.64-3.31,8.55-.56,1.45-1.17,2.9-1.7,4.4l-1.57,4.57-3.31,9.43L793,887c-.27.82-.51,1.66-.77,2.49q-.78,2.5-1.58,5.09-1.62,5.13-3.34,10.58c-1,3.66-2.06,7.42-3.14,11.31-.55,1.94-1.1,3.9-1.67,5.9s-1,4.06-1.47,6.14-1,4.19-1.56,6.33l-.81,3.23c-.13.55-.27,1.09-.41,1.64l-.33,1.66c-1.56,3.51-3.17,6.82-4.82,9.85q-1.25,2.26-2.53,4.31c-.88,1.36-1.61,2.66-2.45,3.85-3.27,4.78-6.85,8.1-10.81,9.23.28-3.75.61-7.53,1-11.31l.29-2.84.44-2.83.93-5.67q.49-2.84,1-5.68l.51-2.84.26-1.42.33-1.41q1.32-5.64,2.72-11.3l1.41-5.65,1.71-5.59q1.73-5.58,3.46-11.16c1.23-3.7,2.65-7.35,4-11l2-5.49c.34-.91.65-1.83,1-2.73l1.13-2.7c3-7.18,5.82-14.41,9.17-21.37l4.75-10.51q2.55-5.15,5-10.28l2.44-5.14c.77-1.72,1.71-3.36,2.55-5q2.57-5,5-10.05l1.2-2.51c.41-.84.86-1.64,1.29-2.47l2.53-4.91q2.51-4.92,4.82-9.86c3.88-7.36,4.07-11.25,8.12-18,3.31-5.1,6.44-9.87,9.44-14.35s6.2-8.41,9.1-12.26,5.9-7.29,8.72-10.62l4.2-4.86,2.05-2.35,2.13-2.21c5.65-5.82,10.86-11.37,16.53-16.45,2.79-2.59,5.52-5.23,8.37-7.84s5.87-5.11,8.88-7.81l4.38-3.94,4.54-3.77q4.53-3.79,9-7.67,4.65-3.66,9.31-7.36l4.65-3.73c1.56-1.22,3.19-2.35,4.78-3.54l9.56-7.12c3.25-2.27,6.56-4.46,9.83-6.73l4.9-3.39c1.66-1.1,3.36-2.09,5-3.15l10.07-6.33,10.3-5.82,5.15-2.92c1.73-.92,3.5-1.76,5.25-2.65l10.49-5.27,10.68-4.67,5.32-2.32c1.79-.71,3.6-1.35,5.4-2l10.77-4c3.62-1.17,7.26-2.21,10.86-3.31l5.4-1.62c.9-.29,1.81-.48,2.72-.69l2.73-.63c6.41-1.44,13-1.8,19.71-2.11a51.38,51.38,0,0,0,9.87-1.58,37.47,37.47,0,0,0,4.74-1.46A38.39,38.39,0,0,0,1096,600c-2,0-3.89.24-5.86.36s-3.93.25-6,.57l-12.29,1.66c-1,.15-2.06.27-3.08.46l-3,.63-6,1.3c-4,.89-8,1.67-11.84,2.92s-7.62,2.29-11.29,3.44l-1.37.44-1.33.51-2.64,1-5.14,2.06-4.93,2c-.8.35-1.6.67-2.38,1l-2.27,1.15c-3,1.52-5.79,3-8.4,4.48l-3.16.94c-1.07.33-2.17.65-3.25,1.09l-6.78,2.6-7.19,2.84c-1.24.46-2.44,1.07-3.67,1.64l-3.73,1.77c-5,2.41-10.3,4.8-15.45,7.82l-7.89,4.41-2,1.12c-.67.37-1.3.81-2,1.21L949.07,652l-7.87,5c-.65.42-1.32.83-2,1.26l-1.91,1.37-3.82,2.72-7.62,5.44c-1.28.87-2.48,1.87-3.69,2.83l-3.62,2.88-7.15,5.67c-1.2.91-2.3,1.92-3.42,2.9l-3.33,2.92c-4.39,3.88-8.71,7.52-12.5,11.36-2.13,1.65-4.25,3.28-6.34,4.91l-3.13,2.45c-1,.81-2,1.71-3,2.56q-5.91,5.19-11.62,10.37-5.46,5.43-10.74,10.87l-2.64,2.72L852.22,733l-4.93,5.68a349.14,349.14,0,0,0-34.87,48.79A548.76,548.76,0,0,0,783.14,844a691.23,691.23,0,0,0-26,68.32c-4.14,1.68-6.45,5.83-8.55,11.66-.52,1.46-1,3-1.51,4.69s-1,3.41-1.43,5.27c-.85,3.72-1.74,7.79-2.85,12.14a5.4,5.4,0,0,0-5.19.74,14.62,14.62,0,0,0-4.54,5.81,63.25,63.25,0,0,0-3.75,10.17c-.58,2-1.16,4.16-1.68,6.45s-.86,4.73-1.26,7.26c.31,5.8,1.82,4.16,3.24,2.52s2.75-3.29,2.7,2.3c-.89,2.83-1.86,5.62-2.76,8.25a70.12,70.12,0,0,1-2.67,7.26c-1.91,4.31-4.14,7.42-6.93,8.18.4-5.5.7-11.42,1.15-16.61.69-5.18,1.53-9.64,2.71-12.2-1.63.77-3,2.93-4.25,5.75a72.82,72.82,0,0,0-3.38,9.64c-2,6.72-4.16,13-7.83,12.77q.25-7.92.39-15.77c0-1.31.1-2.61.17-3.92s.16-2.6.23-3.9l.42-7.78c.16-2.59.2-5.18.44-7.75s.45-5.14.68-7.7.43-5.12.65-7.68l.31-3.83.47-3.81q.92-7.63,1.83-15.21c.13-1.27.33-2.52.54-3.78l.61-3.76,1.2-7.53c.41-2.51.79-5,1.22-7.52s1-5,1.52-7.46l1.53-7.45c.53-2.48,1-5,1.63-7.44l3.74-14.76c.32-1.23.62-2.47,1-3.69L728,860l2.24-7.3c.76-2.44,1.53-4.87,2.29-7.31.36-1.23.8-2.43,1.24-3.63l1.31-3.6c1.77-4.81,3.54-9.63,5.41-14.43A352.69,352.69,0,0,1,769.33,768a105.16,105.16,0,0,1,12.72-9.1c2.07-1.35,4.12-2.78,6.31-4.44a66.41,66.41,0,0,0,7-5.87c.26-5.23-4.54-1.88-10.35,2.9-5.65,4.86-12.09,11.28-15.57,11.44,1.25-3,2.67-6.15,4.22-9.43l2.42-5c.83-1.69,1.8-3.33,2.73-5,1.88-3.39,3.85-6.84,5.84-10.33,1-1.72,2-3.52,3.06-5.21s2.15-3.41,3.22-5.11l6.32-10.16c1-1.69,2.11-3.28,3.15-4.88l3.06-4.74c2-3.12,3.85-6.15,5.53-9.07s3.38-5.56,4.74-8.14c2.45-1.37,4.17-1.15,6.35-2a12.53,12.53,0,0,0,3.76-2.31,26.88,26.88,0,0,0,2.42-2.34c.93-.91,1.94-2,3.07-3.33q5.52-5.48,10.72-10.79c3.55-3.48,7.13-6.78,10.55-10.11l5.09-5c1.72-1.6,3.46-3.14,5.16-4.69q5.11-4.67,10-9.22l9.93-8.65c3.28-2.84,6.41-5.76,9.72-8.36,6.55-5.3,12.75-10.76,19.26-15.57l9.54-7.4c3.22-2.37,6.48-4.63,9.69-6.94,1.61-1.16,3.21-2.31,4.82-3.45s3.19-2.33,4.86-3.37l9.89-6.41,5-3.21c1.65-1.08,3.39-2,5.09-3l10.29-5.92,2.6-1.48,1.3-.74,1.34-.67,5.37-2.7,10.9-5.4a348.24,348.24,0,0,1,69.22-23.26,333.08,333.08,0,0,1,71.67-8.42q18.21-.24,36.71,1.16t37.34,4.49a542.52,542.52,0,0,1,77.33,18.49c3.18,1.72,2.37,3.12,2.51,4.58s1.24,2.94,8.08,5.07c15,6.62,31.52,14.28,47.73,23.35l6.08,3.44c2,1.14,4,2.38,6,3.57,4,2.36,8,4.92,11.88,7.43,7.79,5.13,15.37,10.44,22.44,16a256.61,256.61,0,0,1,19.8,17.07c3,2.92,5.87,5.83,8.58,8.72s5.23,5.8,7.53,8.71c9.31,11.55,15.62,22.65,17.91,32.21,2.41,2.34,4.44,4.61,6.26,6.72.92,1,1.77,2.07,2.58,3.06s1.52,2,2.21,2.93c1.38,1.89,2.59,3.68,3.68,5.38s2,3.39,2.86,5,1.69,3.16,2.46,4.73l2.27,4.73c1.59,3.16,3.19,6.5,5.34,10.25,1.35,1.43,2.64,2.9,3.93,4.39s2.61,3,3.94,4.58,2.58,3.28,3.91,5.05,2.69,3.66,4,5.73a17.28,17.28,0,0,0,.88,4.44c.26.83.58,1.68.93,2.59s.72,1.85,1.14,2.83c.85,2,1.88,4,3,6.23s2.24,4.53,3.5,6.92c4.91,9.58,10.4,20.61,13.65,30.65a132,132,0,0,1,5.82,32.34c.76,10.58,1,21.12,1.77,32.73.14,2.53.3,5,.48,7.3s.23,4.6.35,6.77c.07,1.09.13,2.15.2,3.2s.08,2.07.12,3.08q.13,3,.33,5.83c.13,3.75.33,7.22.55,10.5s.32,6.44.56,9.38c.15,1.47.23,2.91.31,4.31s.21,2.77.31,4.11c.2,2.68.53,5.23.68,7.74.35,5,.9,9.77,1,14.69q.07,2.28.15,4.68c0,1.6.08,3.25,0,4.93-.08,3.36-.16,6.84-.25,10.39s-.38,7.19-.57,10.8-.51,7.28-.69,10.86-.46,7.13-.6,10.55-.23,6.74-.28,9.88.06,6.12.29,8.86a47.13,47.13,0,0,0,1.06,7.46c1.91-3.4,3.83-7,5.65-10.42s3.76-6.75,5.56-9.67c.66-14.63-.27-30.42-1.24-47s-2.08-34-2.13-52.62c-.08-11.59,1.16-21.15,1.7-31,.08-2.44.14-4.9.14-7.4s-.24-5-.49-7.61a58.22,58.22,0,0,0-1.35-7.95c-.31-1.37-.66-2.75-1-4.15s-.92-2.82-1.45-4.26l3.76-.87a625.88,625.88,0,0,0-28.91-82.39,520.81,520.81,0,0,0-34.69-68c-13.13-21.31-28.23-41.84-47.69-61.27a284.22,284.22,0,0,0-73.67-53.15c-28.28-22-57.1-40.34-82.85-56.13,11.88,3.85,21.77,7,30.72,9.72,4.46,1.37,8.67,2.69,12.79,3.89l12,3.73c7.87,2.56,15.69,5.2,24.17,8.8q3.16,1.35,6.5,2.85c2.22,1,4.47,2.14,6.8,3.31s4.73,2.4,7.17,3.79,5,2.81,7.6,4.37c29,11.29,58.54,28.86,86.16,51.8,3.49,2.81,6.84,5.85,10.26,8.84s6.7,6.18,10.06,9.32,6.58,6.46,9.79,9.82,6.44,6.73,9.52,10.27a389.62,389.62,0,0,1,34.91,45.17,403.4,403.4,0,0,1,49.6,105.24,414,414,0,0,1,12.94,56.3c.35,2.36.7,4.72,1,7.06.17,1.18.37,2.35.51,3.52l.42,3.53.84,7c.27,2.34.44,4.68.67,7s.46,4.67.62,7,.3,4.65.44,7c.37,4.66.43,9.16.64,13.7-3.76,53.75-13.16,101-23.62,146.6-5.34,22.77-11,45.06-17.13,67.35-6.16,22.52-13,45.31-21.24,68.56-2.92,2.68-6.08,7.44-9.33,13.54-1.61,3.06-3.31,6.43-5,10s-3.5,7.47-5.27,11.47c-7.3,16-15.14,34.23-23,48.74-1.6,4.53-.28,5.52.38,7.29s.65,4.33-3.74,12c-1.93,4-3.95,7.69-5.91,11.15s-3.88,6.68-5.76,9.68c-3.87,6-7.62,11.09-11.19,15.59a157.85,157.85,0,0,1-10.67,11.73c-3.41,3.46-6.86,6.45-10.22,9.28s-6.64,5.51-9.95,8.21-6.73,5.4-10.12,8.4c-1.71,1.49-3.37,3.09-5.15,4.72s-3.58,3.37-5.4,5.22-3.68,3.83-5.57,6l-1.42,1.62L1406,1380q-1.5,1.68-3,3.48a69.44,69.44,0,0,0-4.68,6.39l-2.55,3.88-2.73,4.09c-1.86,2.78-3.75,5.66-5.66,8.45-.48.69-.95,1.38-1.43,2.06l-1.49,2q-1.48,1.94-3,3.71a316.58,316.58,0,0,1-23.44,24.68l-6.67,6.31-3.17,3-3.13,2.81c-4,3.64-7.53,6.89-10,9.43-18.14,18-36.27,35.37-57.12,51l-8,5.74-4,2.87-4.19,2.66c-5.62,3.52-11.25,7.24-17.34,10.31q-4.5,2.4-9.13,4.78c-1.52.82-3.13,1.47-4.72,2.19l-4.81,2.09c-3.24,1.37-6.49,2.78-9.82,4.07s-6.8,2.32-10.26,3.44l-7.46,2.39-7.64,2-7.7,2c-1.29.32-2.57.69-3.88,1l-3.93.83c-5.24,1.18-10.56,2.08-15.9,3-5.36.79-10.75,1.65-16.18,2.2s-10.9,1.06-16.39,1.5l-8.25.44c-2.75.15-5.51.17-8.27.26-11,.22-22.16.06-33.23-.63s-22.15-1.74-33.16-3.15-21.94-3.23-32.8-5.27-21.6-4.4-32.24-6.94-21.19-5.27-31.59-8.18c-16.53-6.5-35.26-13-55.35-19.63s-41.48-13.42-63.5-20.44-44.56-14.48-66.67-22.56-43.72-17-63.83-26.66c-33.92-8.56-75.87-26.66-116.59-46.09l-15.22-7.3c-2.54-1.19-5-2.44-7.54-3.67l-7.48-3.66c-10-4.74-19.67-9.67-29.19-14.07-4.76-2.21-9.37-4.51-14-6.59q-3.44-1.58-6.83-3.06c-2.26-1-4.5-2-6.69-2.94q-6.6-2.92-12.95-5.42c-2.12-.82-4.21-1.61-6.28-2.35s-4.08-1.54-6.09-2.23c-10.59-6.19-.46-6.19-13.7-13.16-4.61-2.11-9.22-4.39-13.82-6.78-2.29-1.2-4.59-2.42-6.87-3.66s-4.5-2.61-6.74-3.93c-4.47-2.67-8.9-5.37-13.28-8.06s-8.56-5.57-12.75-8.24l-6.23-4-3.07-1.92-3-2c-4-2.57-7.86-5-11.67-7.21-1.91-1.1-3.79-2.15-5.66-3.14s-3.64-2-5.43-2.91a85,85,0,0,0-10.48-4.52c-2.17-1.73-4.12-3.35-5.87-4.88s-3.22-3.07-4.58-4.48a74.94,74.94,0,0,1-6.47-7.59,649.9,649.9,0,0,1-74.2-65.16,509.56,509.56,0,0,1-65.67-83.17,454.87,454.87,0,0,1-48.71-104.39,460.79,460.79,0,0,1-14.77-59.59A469.86,469.86,0,0,1,129.12,892c1-7.06,2.39-14,3.7-20.82.68-3.41,1.45-6.79,2.17-10.15l1.11-5c.4-1.67.81-3.33,1.21-5,3.14-13.28,6.86-26.23,10.76-39.07s8.29-25.56,12.8-38.39,9.47-25.71,14.59-38.9c2.93-5.3,5.76-10.5,8.8-15.6l4.49-7.65,4.61-7.62,9.36-15.46,4.8-8,4.86-8.19c6.48-11.11,13.29-23,20.32-36.28s14.48-28,22.56-44.78c10.18-38.73,17.78-72.9,23.89-103.33,3.09-15.19,5.82-29.42,8.36-42.71,1.32-6.61,2.5-13,3.78-19.18q.93-4.62,1.83-9c.64-3,1.26-5.84,1.88-8.67,1.74-3.47,3.29-6.71,4.65-9.76s2.49-5.95,3.49-8.64a102.27,102.27,0,0,0,4.18-14.3c1.78-8.32,1.74-14.46,2-19.15,8.69-16.13,17.42-31.33,26.35-46,2.25-3.64,4.47-7.29,6.74-10.88l6.84-10.71,7-10.55c2.37-3.51,4.75-7,7.19-10.52,9.75-14,20.07-27.83,31.54-41.73,2.9-3.46,5.78-7,8.84-10.43l4.57-5.23,4.74-5.23c3.16-3.51,6.52-7,9.86-10.51s6.86-7,10.53-10.51c7.21-7.07,14.75-13.63,22.32-19.85,3.88-3.05,7.65-6.1,11.61-8.94,2-1.43,3.9-2.86,5.87-4.24l6-4.06A280.83,280.83,0,0,1,529,120.48a253.13,253.13,0,0,1,52.53-15.25,246.73,246.73,0,0,1,53.26-3.6l6.59.4c2.19.15,4.37.25,6.55.51l6.53.69c2.17.24,4.32.6,6.47.89,4.32.57,8.56,1.42,12.81,2.19,2.12.41,4.22.9,6.33,1.35s4.2.92,6.27,1.46l6.24,1.58,6.16,1.77,3.07.89,3.05,1c2,.65,4.06,1.27,6.07,2,8.06,2.73,16,5.74,23.84,9,31.37,13.06,61.17,29.77,93,48.08,4.71,4.45,6.06,7.86,13.87,13.39,5.88-1,17.08,8.25,28.08,17.1s22,17.23,28.89,14.4c-7.22-10.33-20.7-24.32-37.82-38.57a336.4,336.4,0,0,0-28-20.95,287.13,287.13,0,0,0-31-18.14c-5.23-6.94-14.8-12.71-26.36-17.95s-25.08-9.93-38.35-15.14c-16.6-6.59-32.87-13.12-49.45-18.29-2.06-.68-4.16-1.22-6.23-1.83s-4.15-1.2-6.25-1.7c-4.2-1-8.36-2.07-12.58-2.79-2.11-.39-4.21-.77-6.31-1.12s-4.22-.56-6.33-.81c-4.21-.55-8.42-.75-12.62-.89-4.85-.23-9.89.73-14.15,1.57l-3,.64-2.65.66a25.13,25.13,0,0,1-3.85.74c-13.25,1-25.47,1.72-38.51,3.76a174,174,0,0,0-42.83,12,308.1,308.1,0,0,0-42.51,22.25c-2.83,1.81-5.64,3.52-8.21,5.31l-7.57,5.23c-4.79,3.52-9.41,6.9-13.72,10.42-8.76,7-16.83,14.13-25.4,22.24s-17.59,17.22-27.8,28.28a691.23,691.23,0,0,0-55.39,68.47l-6,8.52q-2.88,4.25-5.72,8.43c-1.9,2.78-3.7,5.6-5.52,8.38s-3.62,5.54-5.34,8.32c-7,11.05-13.37,21.95-19.17,32.49-23.08,42.26-35.68,79.29-33.35,102a108.23,108.23,0,0,0-6.34,13,89.32,89.32,0,0,0-3.93,11.82,98.11,98.11,0,0,0-2.17,11c-.48,3.55-.79,7-1,10.42-.83,13.7-.4,26.75-4.55,43.26-2.26,5.32-4,9.91-5.52,13.88s-2.64,7.41-3.64,10.41c-2,6-3.13,10.48-4.43,14.85-2.45,8.8-5.34,17.3-13.67,38.42-14.39,18.94-28.05,36.79-41.21,55a651.5,651.5,0,0,0-37.49,57.06,418.78,418.78,0,0,0-32.08,68.66c-2.38,6.47-4.52,13.2-6.66,20.16-1,3.48-2,7-3,10.65s-1.92,7.29-2.8,11a399.6,399.6,0,0,0-8.53,48.56c1,16.42,2.5,32.54,3.51,47,.28,3.62.54,7.14.7,10.54.08,1.7.15,3.37.22,5s.14,3.24.18,4.8c.08,3.14.08,6.14,0,9s-.2,5.51-.47,8A375.91,375.91,0,0,1,91.2,890.38,511.89,511.89,0,0,1,88,817.68a655,655,0,0,1,6.72-78.59c2-13.3,4.21-26.72,6.94-40.05l1-5,1.07-5q1.08-5,2.17-10c1.56-6.63,3-13.31,4.75-19.91,6.58-26.49,14.43-52.56,22.89-77.86s17.67-49.78,27-73.16,18.72-45.68,27.64-66.68,17.42-40.67,24.78-58.9a55.2,55.2,0,0,0-9.35,10.41,109.14,109.14,0,0,0-7.75,12.87C191,415,186.74,425,182,434.39c-26.21,51.74-50.5,108.36-69.57,170.77q-7.14,23.4-13.17,47.89c-4,16.32-7.62,33-10.68,50.05A755,755,0,0,0,76.8,809.53,472.78,472.78,0,0,0,79,874.84,627.94,627.94,0,0,0,89.2,939.91c4.52,21.75,10.08,43.62,16.51,65.87s13.88,44.88,22.16,68.26l1.78,5.1c.62,1.68,1.24,3.34,1.86,5q1.83,5,3.62,9.85t3.73,9.6q.91,2.39,1.84,4.75l1.92,4.68,3.82,9.32,4,9.18c2.61,6.17,5.56,12.09,8.46,18.15,1.47,3,3,6.06,4.43,9.12.76,1.52,1.5,3.06,2.28,4.59l2.47,4.52c3.31,6.06,6.75,12.21,10.35,18.5a446,446,0,0,0,25.8,38.31c-.14,1.53,2.16,5.15,3.64,8.06a8.64,8.64,0,0,1,1.23,3.46c-.07.75-.77,1-2.54.38,6.24,7.39,12,14.88,17.6,22.36,5.75,7.26,11.19,14.61,16.5,21.93,5.48,7.11,10.8,14.24,16.07,21.36,5.42,6.9,10.81,13.74,16.24,20.52s11.19,13,17,19.37c2.86,3.21,5.9,6.12,8.92,9.1s6.12,5.86,9.26,8.71c1.58,1.41,3.15,2.85,4.77,4.2s3.27,2.65,4.94,4q5,3.9,10.17,7.59c1.74,1.22,3.49,2.43,5.26,3.61s3.61,2.25,5.44,3.34q5.52,3.25,11.3,6.2C346.06,1389.23,335.78,1381.36,342.68,1389.84Zm910.89-99c.76-2.61,1.52-3.55,2.11-3.3s.9,1.7.41,3.83c1.7-.37,2.58-7.5,3.75-12.46,1.2.8.74,4.82.27,8.86-.21,2-.5,4-.58,5.66s.07,2.85.65,3.29c.93-1.59,1.85-3.35,2.75-5.23s1.71-3.89,2.55-6c1.65-4.23,3.36-8.84,4.77-13.62.08,1.57.09,3.1,0,4.58s-.25,2.91-.45,4.29a43.8,43.8,0,0,1-1.78,7.51,26.62,26.62,0,0,1-2.67,5.87,18.8,18.8,0,0,1-3.15,4C1258,1302,1253.69,1300.3,1253.57,1290.83Zm-10.87-278.12c1.69-2.79,5.67-1.75,10.81,1.88s11.18,9.95,16.82,17.38a162,162,0,0,1,14.61,23.58c1,1.91,1.85,3.75,2.68,5.5s1.49,3.42,2.14,5a72.91,72.91,0,0,1,2.75,7.49,92.72,92.72,0,0,1,2.83,12.47,66.77,66.77,0,0,1,.83,11.87c-.14,3.3-.65,5.64-1.72,6.28s-2.6-.45-4.81-4a33,33,0,0,1-1.82-3.35c-.63-1.25-1.25-2.62-1.88-4.11-1.2-3-2.56-6.38-3.9-10.13-2.79-7.44-6-16.15-9.8-25a175.26,175.26,0,0,0-13.46-25.6C1253.69,1024.14,1248.15,1017.35,1242.7,1012.71Zm-113-61.15c.18,3.31-2.55,4.32-6.53,4.33-10.14-7.3-29-14.36-47.41-20.24s-36.25-11.22-44.16-17.88c10.63,2.35,19.24,4.67,26.9,7l5.59,1.73,5.33,1.78c3.49,1.15,6.87,2.39,10.28,3.61s6.84,2.55,10.45,3.85l5.5,2.11c1.89.72,3.84,1.44,5.84,2.24C1109.54,943.17,1118.65,946.81,1129.72,951.56ZM993.5,897c2.74,4-9.35,1.21-9.82,3.73-5.55-3.45-19.07-5.81-21.51-9.65C977.9,892.29,979.17,895.46,993.5,897Zm-18,28.59c-24.89-5.69-51.63-11.44-79.37-17.52s-56.45-12.56-85.37-20.39c-12.45-3.39-24.86-6.71-37.05-10.45a331.21,331.21,0,0,1-35.59-12.91A189.36,189.36,0,0,1,706,846.71a124.58,124.58,0,0,1-25.5-23A380.6,380.6,0,0,0,714,846.16a272.82,272.82,0,0,0,39.18,19.18,254,254,0,0,0,39.63,12.06,162.08,162.08,0,0,0,33.84,4c21.07,6.91,44.72,13.78,67.36,18.79s44.15,8.28,61.07,8.17C957.91,914.58,978.64,918.47,975.46,925.58Zm-26.77-36.43c-.18,1.27-.36,2.54-.55,3.83-9.4-.75-22.58-1.82-33.42-3.71s-19.32-4.57-19.43-8.21a193,193,0,0,1,26.54,2.4C929.54,884.75,937.3,886.6,948.69,889.15ZM891.57,876.5c-3.63.57-5.23,2.06-5.3,4.33-9.78-1.33-13.2-3.8-11.83-5.17S882,874,891.57,876.5Zm0-26.16c-4.65-5.23-20.63-4.29-29.18-6.93-16.58-5.06-24.95-12.95-37.8-17.56-11.78-4.32-20.18-5.77-29.37-7.78-2.27-.52-4.65-1-7-1.71s-4.94-1.38-7.52-2.36c-1.3-.48-2.64-1-4-1.53s-2.73-1.23-4.17-1.91l-2.2-1.06c-.73-.38-1.46-.79-2.21-1.21-1.48-.85-3.05-1.71-4.61-2.71-8-4.71-7.5,1-12.71-.4a170.17,170.17,0,0,1-40.33-31.71A165.56,165.56,0,0,1,681.88,731a211.37,211.37,0,0,1-16-51.41,282.27,282.27,0,0,1-4.19-56.73A362.73,362.73,0,0,1,668,563.64l.64-3.3c.19-1.06.45-2.1.66-3.15.47-2.1.86-4.22,1.38-6.31,1-4.21,2-8.39,3.14-12.58a241.49,241.49,0,0,1,8-24.77A148.27,148.27,0,0,1,693.35,490,94.85,94.85,0,0,1,710,469.57a74.55,74.55,0,0,1,22.54-14.36,77,77,0,0,1,26.76-5.56c-.54,3.94-3.53,6.75-7.27,9.71-.95.67-1.9,1.52-2.92,2.25s-2.06,1.46-3.06,2.33L743,466.39c-1,.87-1.94,1.8-2.88,2.69-.46.45-.93.88-1.36,1.34s-.84,1-1.24,1.46c-.8,1-1.55,1.95-2.21,2.93a21.11,21.11,0,0,0-2.67,6.19c-.84,4.26.2,8.31,4,12.42-.34.33-.7.66-1,1l-1,1.07-2,2.1c-.6.74-1.21,1.47-1.81,2.2l-.9,1.08L729.1,502l-1.66,2.23-1.54,2.3c-1,1.49-1.93,3.08-2.88,4.6a130.58,130.58,0,0,0-8.88,18.81c-2.43,6.29-4.42,12.56-6.15,18.79q-1.29,4.68-2.42,9.33c-.77,3.1-1.37,6.22-2.06,9.3-.38,2.07-.76,4.12-1.14,6.17q-.57,3.51-1.14,7l-1,7c-.3,2.31-.52,4.61-.78,6.91a234,234,0,0,0-1.23,27.21,180.56,180.56,0,0,0,2.23,26.29,139.37,139.37,0,0,0,6.36,24.78c3.56,22.69,8.26,41.55,16.16,59.18.47,1.13,1,2.16,1.57,3.26s1,2.22,1.61,3.26c1.18,2.1,2.27,4.31,3.59,6.37.64,1,1.23,2.14,1.92,3.16l2.08,3.1c.65,1.06,1.47,2.09,2.25,3.14s1.54,2.12,2.37,3.16c1.71,2,3.32,4.18,5.22,6.14.93,1,1.81,2.06,2.81,3l3,3a127.3,127.3,0,0,0,13.8,11.45c5.32,3.77,11,7.33,16.84,10.7s12.13,6.45,18.41,9.44,12.78,5.73,19.15,8.46l19,7.79C861.34,827.44,882.86,837.15,891.6,850.34ZM719.43,699.27a16.42,16.42,0,0,1-1.09-5.58,9.36,9.36,0,0,1,.62-3.55c.37-1,.82-1.92,1.14-3a11.93,11.93,0,0,0,.48-3.91,78,78,0,0,1-2.26-24.79c.43-7,1.65-13.31,2.56-20.67.57-8.83.79-20.17,1.65-32.9.44-6.36,1-13.06,1.79-19.88.21-1.71.43-3.43.64-5.15s.44-3.44.71-5.17l.19-1.29.1-.78c.06-.49.1-.94.18-1.39.16-.9.29-1.8.41-2.71,1.07-7.23,2.77-14.27,5.23-19.76s5.7-9.31,9.28-10.28a12.5,12.5,0,0,0-2.87,7.41,35.74,35.74,0,0,0,.52,8.31,61.5,61.5,0,0,1,.94,7.82,13.24,13.24,0,0,1-1.76,7.22l1.2,1.75c.4.56.81,1.12,1.21,1.69.78,1.11,1.45,2.08,2.19,3.18l.26.4a5.58,5.58,0,0,1,.19.78c.12.55.23,1.1.35,1.65.22,1.1.45,2.21.69,3.31.48,2.21.84,4.43,1.26,6.66,1.58,8.93,2.73,18.12,3.58,28,.23,2.45.38,5,.59,7.5s.33,5.09.5,7.76c.3,5.1.61,10.52.94,16.32.11,2.85.36,5.64.49,8.58s.42,5.76.65,8.79c.47,5.93,1,12,1.86,18.14.2,1.27.24,2.65.36,3.94s.13,2.62.13,4,.07,2.61,0,4,.05,2.6,0,3.95c.08,5.23.44,10.37,2,14.73a45.29,45.29,0,0,0,5.92,10.8l1.8,2.33c.59.77,1.35,1.53,2,2.3,1.27,1.59,2.73,2.9,4,4.35,5.26,5.46,10,10,11.81,15.82a10.28,10.28,0,0,1-3.2,1.45,13.42,13.42,0,0,1-3.65.37c-.65,0-1.33-.07-2-.15s-1.34-.26-2-.44-1.42-.39-2.16-.62c-.37-.13-.75-.25-1.12-.39l-1.09-.47a46.22,46.22,0,0,1-9.15-5.36l-2.33-1.76c-.78-.61-1.5-1.31-2.27-2s-1.58-1.34-2.29-2l-2.14-2.11c-.35-.35-.73-.69-1.08-1.06l-1-1.14-2.09-2.27-2-2.4-1-1.2c-.35-.39-.64-.83-1-1.25-.63-.83-1.28-1.66-1.94-2.48s-1.22-1.72-1.85-2.56c-1.29-1.66-2.43-3.43-3.63-5.1C728.07,710.15,723.82,703.54,719.43,699.27ZM669.66,813.85a32.54,32.54,0,0,1-6.44-5,73.51,73.51,0,0,1-5.32-6.36c-1.72-2.41-3.53-5.12-5.75-8.18-1-1.58-2.2-3.25-3.48-5l-2-2.77-2.13-3c1.53-.43,3.24.77,5.22,2.83a37.32,37.32,0,0,1,3.08,3.74c.53.72,1.06,1.48,1.6,2.27l1.7,2.41c1.15,1.65,2.31,3.4,3.45,5.17s2.41,3.47,3.56,5.17C665.41,808.48,667.77,811.51,669.66,813.85ZM947.08,471.6c21.69,22.63,42.57,45.44,62.31,70.16s38.32,51.35,54.69,81.43q1.43,2.61,2.8,5.16c.92,1.69,1.81,3.37,2.63,5.07q2.51,5,4.83,9.88c1.53,3.24,3.08,6.38,4.47,9.54l4,9.35q2,4.62,3.86,9.14c1.24,3,2.38,6.1,3.56,9.13s2.33,6.06,3.5,9.11c.58,1.52,1.19,3,1.75,4.57l1.67,4.65c1.13,3.1,2.27,6.23,3.42,9.42s2.41,6.37,3.53,9.69l3.59,10.1,1.9,5.21c.33.87.66,1.76,1,2.65s.62,1.79.93,2.7l17.59,49.35c1,2.76,1.92,5.41,2.92,8s2,5,3,7.48,2,4.91,3.1,7.39q.79,1.86,1.62,3.75l1.6,3.88c1.07,2.64,2.18,5.36,3.35,8.23s2.21,6,3.37,9.23,2.25,6.78,3.4,10.56c.56,1.9,1.15,3.85,1.7,5.9s1.07,4.17,1.63,6.38c4.87,19.79,7.07,39.74,9.05,58.17s3.83,35.41,8.43,50.06c0,2.9-.28,5.8-.43,8.69s-.29,5.78-.55,8.65c-.52,5.76-.93,11.47-1.63,17.13-.33,2.84-.61,5.66-1,8.46s-.74,5.61-1.11,8.39l-.54,4.16-.63,4.14q-.59,4.13-1.18,8.21c-3.33,21.8-7,42.54-9.14,62.7-3-7.41-2.83-25.5-3.75-46-.13-5.12-.55-10.43-.83-15.75-.11-2.65-.4-5.33-.6-8s-.42-5.32-.67-8c-1.1-10.54-2.39-20.7-4-29.58a466,466,0,0,0-2.44-73.36c-1.31-12.11-3.14-24.13-5.19-36.07s-4.61-23.75-7.43-35.46-5.91-23.32-9.4-34.77-7.09-22.84-11.16-34l-3-8.39c-1-2.78-1.95-5.6-3.06-8.35q-3.21-8.28-6.4-16.54c-2.17-5.5-4.5-10.91-6.73-16.36s-4.62-10.82-7-16.19l-3.55-8c-1.15-2.69-2.46-5.31-3.68-8-2.51-5.28-4.91-10.61-7.47-15.85L1062,663.12c-1.25-2.63-2.66-5.17-4-7.75l-4-7.72c-1.35-2.57-2.63-5.17-4-7.7s-2.78-5.07-4.16-7.61c-2.8-5.05-5.46-10.18-8.38-15.14l-8.55-15-8.81-14.78-2.18-3.7-2.26-3.65-4.52-7.28-4.49-7.3c-1.51-2.43-3.09-4.8-4.62-7.2-3.11-4.77-6.11-9.62-9.24-14.36l-9.43-14.2c-1.54-2.39-3.17-4.7-4.78-7l-4.82-7c-1.59-2.35-3.19-4.69-4.78-7l-4.92-6.9-4.89-6.93c-1.63-2.3-3.21-4.65-4.91-6.9l-10-13.68Zm29,826.51c-.18,1.06-3.71,2.52-7.16,3.85s-6.79,2.58-6.48,3.63c-12.85,3-25.07,5.48-36.85,7.69s-23.18,3.9-34.31,5.14c-22.23,2.44-43.65,2.74-64.16-.85-9.75-1.72-19.28-5.06-29.13-9.42s-20-9.72-31.3-16c-7.52-4.17-15.6-8.78-23.45-13.88a187.92,187.92,0,0,1-22-16.52c-13.08-11.49-21.69-23.57-22-31.57-5.78-5.35-11.55-12.84-16.9-21.51A207.94,207.94,0,0,1,668,1180.08c-4.23-10.1-7.84-20.42-11.14-30.1s-6.31-18.74-9.54-26.43c3.22.1,8.92,12,14.15,19.44,2.56,3.77,5,6.47,6.49,6.31s2.11-3.19,1.64-10.86a31.38,31.38,0,0,0-8.66-10.85,28,28,0,0,1-8.36-10.27c-3.21-15.2-4.36-28-3.91-37.3s2.43-15.21,5.8-16.91c.73,2.45,1.53,5.2,2.29,8.22s1.58,6.29,2.47,9.79c1.69,7,3.6,14.89,5.78,23.37A460.6,460.6,0,0,0,682.61,1160c3.79,9.57,8.06,19.09,12.76,28.22a273.13,273.13,0,0,0,15.17,26,297.26,297.26,0,0,0,31.66,39.55,416.62,416.62,0,0,0,44.64,26.42c14.95,7.47,30.76,13.92,49.17,18.1,2.76-2.33-6.51-3.55-14-5.56,11.45,1.27,22.66,3.11,34.13,5.1,5.74.93,11.53,2,17.41,2.82,2.94.49,5.89.84,8.88,1.27s6,.77,9,1c6,.65,12.13,1,18.29,1.19a179,179,0,0,0,18.51-.51,126,126,0,0,0,36.26-8.14c4.19-1,4.62.42,5.22,1.78S971.12,1299.83,976.13,1298.11Zm-328.85-249c.11-2.52.3-4.76.55-6.83s.59-4,.92-5.82.72-3.65,1.07-5.51.68-3.78,1-5.88a6.9,6.9,0,0,1,2.43,2.68,20.13,20.13,0,0,1,1.92,4.84,90.71,90.71,0,0,1,2.37,16.13C655.5,1062,651.31,1056,647.28,1049.1Zm-5.86-265.45c.87-2.2,1.85-4.35,2.83-6.49l2.91-6.46q2.93-6.47,5.84-13,3.15-6.37,6.28-12.76l3.15-6.39,1.57-3.19,1.68-3.15c8.86-16.8,18.15-33.44,28.35-49.48a629.11,629.11,0,0,1,68.07-89.84,529.67,529.67,0,0,1,62.64-57.64l9-6.84,4.53-3.42c1.52-1.14,3-2.31,4.61-3.37l19-13.07c6.54-4.16,13.17-8.26,19.8-12.38l2.49-1.54,2.56-1.45,5.12-2.89,10.27-5.78A605.6,605.6,0,0,1,988,446.34c7.3-2.54,14.47-5.24,21.79-7.34l10.86-3.34c3.6-1.1,7.16-2.27,10.78-3.16l21.35-5.68c7.23-1.71,14.43-3.44,21.5-4.87,5.38-.46,11.59-.75,18.39-1.13,3.39-.19,6.94-.26,10.6-.4,1.83-.05,3.69-.15,5.58-.18l5.73-.07c15.47-.24,32.33.11,48.77,1,32.9,1.61,63.92,5.64,80.55,4.51q31.22,7.58,61.17,16.93t58.44,21c19,7.76,37.42,16.26,55.11,25.66A497.05,497.05,0,0,1,1469.19,520c5.11,4.15,10.13,8.49,15.22,12.77s10.11,8.76,15.08,13.33,10,9.18,15,13.84,9.88,9.53,14.7,14.51,9.66,10,14.45,15.13l7.08,7.85c2.37,2.62,4.65,5.35,7,8,9.21,10.84,18.22,22.11,26.69,34s16.57,24.28,24.09,37.21A415.18,415.18,0,0,1,1629,717.13a364.37,364.37,0,0,1,26.58,89,177.91,177.91,0,0,1,2,20.07c.12,3.23.27,6.38.23,9.54s-.09,6.27-.14,9.39-.22,6.25-.35,9.4-.22,6.32-.41,9.55c-.36,6.46-.55,13.13-.8,20.26-.14,6-.28,12.42-.43,19,0,1.63,0,3.28-.08,4.93s-.13,3.28-.19,4.94c-.12,3.31-.25,6.67-.37,10s-.42,6.7-.66,10.08-.45,6.77-.86,10.07c-.76,6.63-1.55,13.3-2.81,19.61a362.8,362.8,0,0,1-14.25,51.84c-5.62,16.34-11.6,31.92-16.71,47.38-4.66,14.22-8.43,33.22-13.47,46.26a50.64,50.64,0,0,1-5.93,10.75,64.48,64.48,0,0,0-6,10.09c-5.37,12.11-10.09,26-15.1,39.33-1.25,3.33-2.5,6.62-3.76,9.84s-2.61,6.34-3.94,9.37-2.7,5.92-4.09,8.67-2.89,5.35-4.38,7.75c-1.55,4.69-3,9.36-4.66,14l-4.88,13.81c-1.64,4.59-3.41,9.14-5.13,13.68l-2.61,6.82-2.74,6.78c-7.22,18.11-15.28,36.08-24,54.4s-18.56,37-29.52,56.33-23.22,39.51-37.74,60.58c10.76-20.56,20.51-42,26.64-60.6,1.5-4.65,2.82-9.11,3.88-13.31a115.74,115.74,0,0,0,2.16-11.91,56.34,56.34,0,0,0,.41-10.09,25.78,25.78,0,0,0-1.75-8c11.18-21.25,20.75-42.26,29.75-63.22s17.61-41.82,26.81-63c1.67-3.81,3.21-7.3,4.65-10.6l4.08-9.43,3.85-9c1.24-3,2.46-6,3.73-9.24s2.57-6.57,3.91-10.23,2.7-7.6,4.18-12,3-9.13,4.66-14.43c.81-2.65,1.67-5.43,2.56-8.36s1.74-6,2.67-9.15c1.68-5.77,3.14-11.63,4.53-17.39s2.64-11.56,3.84-17.36l3.63-17.23c1.25-5.68,2.46-11.42,3.86-17.06,3.66-15.13,7.36-30.57,10.72-46.35s6.3-32,8.53-48.43c.55-4.12,1.13-8.23,1.51-12.41l.64-6.24c.22-2.08.44-4.16.57-6.27q.42-6.3.85-12.59.2-6.34.39-12.67a318.92,318.92,0,0,0-3.13-51.07c-4.16-28.61-12.78-56.21-22.79-81-5-12.43-10.12-24.3-15.18-35.52-1.21-2.84-2.53-5.56-3.73-8.32s-2.39-5.47-3.6-8.13-2.33-5.31-3.42-7.94-2.23-5.17-3.27-7.73c-.76-1.2-1.53-2.4-2.31-3.61l-2.39-3.58c-1.6-2.39-3.17-4.83-4.82-7.23-3.31-4.79-6.62-9.66-10.12-14.44s-7.06-9.58-10.65-14.41-7.39-9.53-11.28-14.19-7.82-9.3-11.8-13.94-8.13-9.12-12.37-13.52-8.53-8.76-12.84-13.07-8.78-8.44-13.32-12.44-9.1-7.94-13.66-11.81-9.28-7.51-14-11-9.48-6.91-14.22-10.19c-2.38-1.63-4.8-3.17-7.18-4.72s-4.78-3.08-7.2-4.51l-7.2-4.28q-3.62-2-7.22-4l-3.58-1.93-3.61-1.81q-3.6-1.78-7.15-3.48a236.78,236.78,0,0,0-28.1-11c-26.69-16.31-57.31-27.65-87.63-34.87a452.92,452.92,0,0,0-44.9-8.27c-14.64-1.95-28.8-3.23-42.17-4.29A296.15,296.15,0,0,0,1137,457.11a275.09,275.09,0,0,0-50.4-4.73c-4.59,0-9.25.18-14,.35s-9.61.67-14.52,1.14-9.68,1.28-14.64,2-10,1.48-15.06,2.72-10.19,2.35-15.39,3.67l-3.92,1c-1.29.38-2.58.79-3.88,1.2L997.31,467l-7.92,2.67-4,1.4c-1.32.49-2.63,1.05-3.95,1.58q-7.92,3.24-16,6.81l-3.24,1.45c-1.05.51-2.08,1.05-3.11,1.58q-3.09,1.59-6.07,3.2c-4,2.14-7.81,4.29-11.52,6.45-.94.53-1.84,1.1-2.73,1.69l-2.64,1.74L931,499.07q-5.07,3.48-9.82,7c-1.6,1.13-3.08,2.42-4.59,3.62l-4.41,3.67q-4.35,3.66-8.45,7.29c-2.77,2.37-5.31,4.95-7.84,7.45s-5,5-7.4,7.48c-4.9,4.85-9.31,10.05-13.75,15q-3.3,3.75-6.6,7.46c-2.16,2.5-4.23,5.1-6.36,7.61s-4.25,5-6.4,7.52l-3.26,3.72c-1.05,1.27-2.12,2.54-3.18,3.83-4.26,5.11-8.74,10.1-13.38,15.15a127.79,127.79,0,0,0-16.89,12.78,197.09,197.09,0,0,0-13.52,14.46c-1.07,1.25-2.16,2.48-3.2,3.76l-3.08,3.93c-2.06,2.64-4.16,5.3-6.34,8l-3.35,4.07-1.72,2.06-1.7,2.13c-2.3,2.85-4.74,5.73-7.37,8.66-2,2.2-4,4.4-6.06,6.62l-6,6.88-6.22,6.95-3.19,3.52-3.09,3.65c-4.13,4.91-8.44,9.87-12.72,15.06s-8.38,10.71-12.66,16.31c-16.71,22.66-32.92,49.39-44.84,82-4.09-7.08-8.4-11.73-12-16.86a43.38,43.38,0,0,1-4.77-8.5A39.71,39.71,0,0,1,664,759.72a17,17,0,0,0-2.81,2.41c-.94,1-1.92,2.25-2.92,3.56-2,2.64-4.08,5.7-6.12,8.55a56.45,56.45,0,0,1-5.87,7.24C644.41,783.26,642.82,784.23,641.42,783.65Zm787.79,675.92c1.28,3.23-1.62,9.6,3.57,9.89l-4.06,3.56c-1.35,1.22-2.68,2.49-4,3.78q-3.92,3.9-7.6,8.17c-5.06,5.62-10,11.59-14.59,17.69-4.89,6-9.45,12.1-14,17.9s-9,11.23-13.23,16.12c-8.17,6.85-15.84,13.7-24,19.9l-6,4.7c-2,1.56-3.95,3.12-6,4.57l-12.18,8.77-3,2.17c-1,.71-2.07,1.38-3.1,2.06l-6.21,4.07-6.19,4c-2,1.34-4.1,2.69-6.24,3.91-8.51,5-16.82,10.08-25.65,14.43-4.38,2.24-8.73,4.55-13.18,6.68s-9,4.06-13.58,6.07c-2.28,1-4.56,2-6.86,3l-7,2.68q-7.07,2.67-14.27,5.29c-4.85,1.59-9.77,3.07-14.75,4.58l-7.51,2.23c-2.52.74-5.12,1.33-7.7,2-10.37,2.65-21,4.7-32,6.49-4.66.2-8.93.22-13,.17s-7.85-.36-11.61-.61c-7.49-.6-14.73-1.35-22.94-2.09a484.46,484.46,0,0,1-84.75-5.7c-13.4-2-26.4-4.43-39-7s-24.76-5.5-36.57-8.41c-25.58-6.31-50.86-12.78-75-19.36-12.06-3.29-23.84-6.61-35.21-10s-22.39-6.78-33.11-10.3c-23.85-7.93-47.18-18.48-69.93-27.9s-44.93-17.89-66.77-21.54c-23.63-10-51.29-23.74-78.16-37.22l-19.94-10c-6.55-3.31-13-6.49-19.25-9.45s-12.32-5.94-18.15-8.52-11.4-5-16.67-7c-4.51-3.28-9.51-6.54-14.86-10.06s-11.06-7.14-17.06-10.82c-12-7.56-25.06-15.45-38.37-24.06l-5-3.19L442,1409.6l-2.5-1.67-10-6.74c-3.34-2.27-6.7-4.49-10-6.82l-9.84-7.11-9.67-7.12c-3.15-2.45-6.26-4.94-9.32-7.4s-6.06-4.93-9-7.38l-2.2-1.84-2.13-1.9-4.19-3.8-8.87-6c-2.93-2-5.85-3.91-8.68-6q-8.52-6.06-16.81-11.81l-16.13-11.8-4-2.89c-1.33-1-2.64-1.92-3.91-2.94l-7.7-5.95-7.62-5.9-3.79-2.93-3.7-3-14.66-12.18-1.83-1.52-1.77-1.59-3.55-3.18-7.06-6.38-7-6.44c-2.3-2.21-4.55-4.49-6.83-6.75-4.53-4.55-9.11-9.1-13.57-13.85s-8.75-9.79-13.13-14.83l-3.28-3.81c-1.09-1.27-2.11-2.63-3.17-4L209.7,1216l-6.3-8.29c-.52-.7-1.05-1.4-1.56-2.12l-1.5-2.18-3-4.41q-3-4.44-6-9l-3-4.6-1.49-2.32c-.48-.8-1-1.6-1.42-2.4q-5.64-9.64-11.24-19.86A423.4,423.4,0,0,1,154.06,1116c1.67,2.53,3.46,5.11,5.21,7.79s3.49,5.45,5.26,8.27c3.66,5.55,7.32,11.39,11,17.38s7.58,12,11.42,18l5.79,9c.95,1.52,2,3,3,4.44l3.05,4.36,6.05,8.58,3,4.21c1,1.39,2,2.77,3,4.07,4.16,5.29,8.26,10.34,12.27,15l3,3.44c1,1.13,2,2.16,3,3.2q3,3.11,6,5.86a111.42,111.42,0,0,0,11.27,9.39c3.83,4.9,7.8,9.59,11.82,14.15,2,2.26,4,4.53,6.09,6.68s4.23,4.19,6.35,6.23c4.25,4.07,8.49,8,12.76,11.76s8.7,7.12,13,10.49c2.15,1.66,4.27,3.32,6.37,4.95s4.27,3.08,6.38,4.58l12.32,8.67,3,2.08,3,1.95,5.78,3.83c3.77,2.52,7.38,5,10.79,7.39,1.45,1.06,3,2.08,4.49,3.11l4.61,3.18q4.67,3.26,9.46,6.72c1.6,1.14,3.2,2.33,4.83,3.47l5,3.4,10,6.91,5,3.48,5.1,3.32,10.16,6.5c6.7,4.35,13.49,8.12,20,11.67,2,1.07,3.92,2.1,5.81,3.11l2.82,1.47,2.8,1.37c3.7,1.78,7.28,3.47,10.83,5.12s7.05,3.3,10.62,4.91,7.2,3.17,10.95,4.86,7.6,3.51,11.68,5.43,8.4,3.86,13,6.08c9.14,4.54,19.56,9.48,31.74,15.86l14.44,7.27,7.19,3.66,7.27,3.56,14.92,7.26c5.1,2.4,10.37,4.79,15.84,7.27,22.81,10.23,46.33,22.33,69,33.25s44.31,21.08,63.13,27.59a152,152,0,0,0,15.85,4.24,117.49,117.49,0,0,1,15.63,4.33c23.45,8.82,50.38,24,76.67,32.75,4,1.34,18.4,3.09,22.65,4.64,12.78,4.69,25.75,12.69,38.29,17.45a714.78,714.78,0,0,0,71.5,23,613.05,613.05,0,0,0,86,16.51,472.56,472.56,0,0,0,97.44,1.56,410.51,410.51,0,0,0,50.46-7.79c2.11-.42,4.17-.94,6.23-1.47l6.18-1.57c4.11-1.06,8.23-2.08,12.31-3.19l12.11-3.78c4-1.3,8.07-2.44,12-4q4.8-1.77,9.54-3.45l4.72-1.67c1.58-.54,3.15-1.08,4.66-1.72l18.26-7.27c5.9-2.69,11.79-5.43,17.67-8.33,1.49-.7,2.92-1.49,4.34-2.3l4.28-2.44q4.29-2.48,8.57-5.12l2.87-1.81c.94-.63,1.86-1.31,2.79-2q2.78-2,5.56-4.12c1.84-1.42,3.7-2.84,5.56-4.26l2.78-2.16c.93-.72,1.8-1.51,2.7-2.25,7.13-6.07,14.41-12,21.34-17.6,1.77-1.38,3.55-2.74,5.33-4.06s3.59-2.59,5.27-3.94c3.42-2.66,6.85-5.22,10.28-7.75l5.13-3.76,4.94-3.85c3.29-2.57,6.58-5.14,9.85-7.75,1.66-1.29,3.19-2.66,4.76-4s3.11-2.76,4.66-4.16,3.09-2.83,4.62-4.28,3.07-2.91,4.49-4.46q4.34-4.6,8.5-9.62c1.38-1.68,2.79-3.38,4.09-5.16S1428,1461.45,1429.21,1459.57ZM330.69,1370.82a68.73,68.73,0,0,0-9.9-7,15.37,15.37,0,0,1-2.73-2,33.84,33.84,0,0,1-3.85-4.34C314.1,1351.2,337,1369.48,330.69,1370.82Z"/><path class="b" d="M1019,1068.59c1.4-6.24.67-10.17,1-15.7a25.24,25.24,0,0,0,1.43-2.54c.42-.93.79-1.94,1.15-3s.7-2.17,1-3.33l.47-1.76c.12-.61.24-1.23.37-1.86.23-1.26.46-2.55.68-3.86s.46-2.62.58-4c.28-2.76.63-5.52.88-8.31s.48-5.57.77-8.25.52-5.31,1-7.73a43.91,43.91,0,0,1,1.49-6.76,23.66,23.66,0,0,1,1.13-2.84,15.48,15.48,0,0,1,1.35-2.45,267.08,267.08,0,0,1-3.16,33c-.43,2.54-.77,5.1-1.32,7.53-.25,1.23-.5,2.46-.74,3.68s-.47,2.45-.78,3.62q-.87,3.56-1.72,7.08l-1.95,6.86a207.94,207.94,0,0,1-9.75,25.93c-1,2-1.91,4.18-3,6.22s-2.15,4.06-3.21,6.13l-3.5,6c-.56,1-1.23,2-1.87,3l-1.91,3c-.37-4,4.54-13.31,9.09-22.32.56-1.13,1.14-2.25,1.72-3.33l.88-1.59.8-1.6c1.05-2.09,2.1-4,3.08-5.59C1016.76,1070.59,1018.27,1068.49,1019,1068.59Z"/><path class="b" d="M981.56,1124.87a14,14,0,0,0,4.37-7.58,24.83,24.83,0,0,1,.94-3.4,14.9,14.9,0,0,1,.84-1.87c.35-.65.81-1.33,1.32-2.08.93,2.45-.22,5.78-1.52,9.15s-2.86,6.72-2.22,9.35c-2.4,2.26-2.21,1.22-1.94-.28S983.77,1124.66,981.56,1124.87Z"/><path class="b" d="M348.88,1123.18a54.52,54.52,0,0,1-6.7-5.73q-1.79-1.76-3.66-3.77c-.62-.67-1.27-1.35-1.88-2.08l-1.81-2.25a225.06,225.06,0,0,1-15-21.06c-1.23-1.91-2.47-3.84-3.7-5.77s-2.54-3.82-3.63-5.81c-2.27-3.93-4.54-7.79-6.79-11.49-1.1-1.85-2.28-3.64-3.31-5.42s-2.06-3.5-3.08-5.15c-2.08-3.28-4-6.36-5.83-9,2.18,2.56,4.25,5.37,6.43,8.3s4.15,6.12,6.4,9.33,4.34,6.62,6.47,10.1l1.59,2.63c.52.89,1.05,1.77,1.65,2.63l3.42,5.23,6.81,10.64c2.43,3.45,4.88,6.88,7.32,10.24l3.66,5,.91,1.23,1,1.18,2,2.32C343.66,1117.49,346.27,1120.43,348.88,1123.18Z"/></svg>