<svg xmlns="http://www.w3.org/2000/svg" viewBox="0 0 1920 631"><defs><style>.a{fill:#1d1d1d;}</style></defs><path class="a" d="M104.29,313l2.58-.7a2.24,2.24,0,0,0-.14-.36C105.84,312.35,105,312.7,104.29,313Z"/><path class="a" d="M103.16,318.23c.25-.09.52-.15.78-.22a1.25,1.25,0,0,1-.25-.27C103.53,317.91,103.36,318.05,103.16,318.23Z"/><path class="a" d="M106.73,312c-.54-1.33-2-2.41-1-4.17,1.47-.46,4.51-1,6-1.36,1.37-1.07-.29-1.53-.45-2.3,1.55-.31,3.09-.62,3-1,.32-.57.19-1-.54-1.19a10.73,10.73,0,0,0-3.53,0,55.69,55.69,0,0,1-5.59,4.2,46,46,0,0,0-5,3.69c-1.13,1.09-1.52,1.87-.55,2.22a7.55,7.55,0,0,0,2.55.19C102.88,312.25,104.56,312.16,106.73,312Z"/><path class="a" d="M96.56,318.43l3.57-1.23c1.2-.39,2.38-.87,3.61-1.17.5-1.07,1.31-2.22.31-2.87a22.5,22.5,0,0,0-4.46,2.55A19.16,19.16,0,0,0,96.56,318.43Z"/><path class="a" d="M177.48,564.27c.1.22.05.39-1.15.59l1.15-.59a.58.58,0,0,1,.18-.85c-1,.59-2,1.23-3,1.82L171.35,567c-1.12.6-2.26,1.2-3.42,1.78s-2.35,1.08-3.53,1.59c-.46.64-.91,1.27-1.3,1.88,11.8-4.91,23.32-10.75,31.2-17.85-1.58.92-3,1.81-4.39,2.68l-4,2.44c-1.31.79-2.6,1.63-4,2.4S179.07,563.48,177.48,564.27Z"/><path class="a" d="M163,574.84l-1.22.51C163.05,575.24,163.12,575.07,163,574.84Z"/><path class="a" d="M251.42,425.79c-6.56-2.23-13.09-2.3-19.48-1.92A81.35,81.35,0,0,1,251,427.31a62.31,62.31,0,0,1,14.38,6.54A49.42,49.42,0,0,0,251.42,425.79Z"/><path class="a" d="M199.42,428.27c2.37.09,4.63.07,6.8,0s4.23-.17,6.24-.37c1-.09,2-.2,3-.32l2.66-.33,5.21-.66c-1.73,0-3.47,0-5.2,0-.86,0-1.72.07-2.59.09l-2.78.16-5.6.33-5.61.45C200.82,427.82,200.09,428,199.42,428.27Z"/><path class="a" d="M209.83,425.48c2.13,0,4.29-.15,6.19-.29s3.69-.29,5.47-.44c3.57-.32,7-.68,10.45-.88a84.5,84.5,0,0,0-11.26.06c-1.83.14-3.63.35-5.37.6S211.6,425.14,209.83,425.48Z"/><path class="a" d="M259.43,536.79c-1.92,2.66-3.53,4.76-4.84,6.41a41,41,0,0,1-3.17,3.58c-.37,1.07-.9,2.45-1.69,4.28l.87-.78c2.29-2.53,4.63-5,6.84-7.67,1.13-1.3,2.25-2.61,3.38-3.92l3.29-4c.81-1.19,1.58-2.35,2.29-3.48s1.28-2.27,1.8-3.32C265.37,530.93,262.31,533.8,259.43,536.79Z"/><path class="a" d="M251.42,546.78c3.15-9.12-6.17,6.21,0,0Z"/><path class="a" d="M261.08,500.74l.56-.72,1.41-2.23Z"/><path class="a" d="M287,431.54a49.52,49.52,0,0,1,6.74,17.66A44.18,44.18,0,0,0,287,431.35a40.52,40.52,0,0,0-12.1-11.91c1.18.94,2,2.26,3.15,3.29.68.4,1.41.88,2.2,1.43s1.56,1.24,2.38,2A29.21,29.21,0,0,1,285,428.6,23.3,23.3,0,0,1,287,431.54Z"/><path class="a" d="M235.3,533.14A197.37,197.37,0,0,0,261.64,500l3.15-4.08c1-1.38,2-2.74,2.93-4.15,1.91-2.78,3.63-5.64,5.23-8.52a64.08,64.08,0,0,0,6.78-17.8,35.59,35.59,0,0,0-.42-17.1l-.69-1.9-.33-.94-.42-.9a17.15,17.15,0,0,0-.88-1.77c-.33-.56-.61-1.14-1-1.66a26.9,26.9,0,0,0-4.89-5.69,52.25,52.25,0,0,0-12.86-8,70.85,70.85,0,0,0-18-5.12,81,81,0,0,0-19.43-.62c-1.55.14-3.07.33-4.55.57-.72.11-1.48.25-2.26.4l-2.25.45a61.76,61.76,0,0,0-8.23,2.24c1.09,0,2.17.06,3.22.06s2.07,0,3.07,0a70.12,70.12,0,0,0-8.32,2.12c-8.35.71-16.72,1.66-25.19,2.77s-17,2.31-25.7,3.52-17.52,2.38-26.56,3.37-18.28,1.82-27.77,2.26c-5.61.29-9.87,1.51-15.59,1.59H72c-3.21-.05-6.63-.23-10-.6,0,.09,0,.19.22.29-1.82-.21-3.62-.41-5.51-.74-.93-.15-1.86-.31-2.83-.53l-1.45-.31-.77-.17c-.25-.05-.61-.15-.91-.23a59,59,0,0,1-14.44-5.72,45.58,45.58,0,0,1-12-9.6c-.83-1-1.61-2-2.39-3s-1.42-2.13-2.11-3.21a27.55,27.55,0,0,1-1.79-3.4,38.26,38.26,0,0,1-1.52-3.55c-3.67-9.67-3.39-20.71-.33-31.18l.59-2,.53-1.64c.31-.94.63-1.85,1-2.74l.49-1.32.5-1.23,1-2.46,1-2.46c.34-.82.69-1.64,1.1-2.43q1.17-2.4,2.36-4.8c.73-1.52,1.66-2.91,2.51-4.35s1.73-2.88,2.69-4.24l2.93-4.06c.5-.67,1-1.36,1.5-2l1.6-1.92,3.22-3.81,3.42-3.61,1.72-1.79c.58-.59,1.19-1.14,1.79-1.72l3.61-3.39c3.74-3.27,4.79-2,7.52-3.81,1.44-.81,2.85-1.54,4.22-2.27s2.67-1.47,4-2.07l4-1.86c.67-.3,1.31-.62,2-.91l2-.84,4.07-1.71c1.37-.58,2.82-1.06,4.27-1.63s2.92-1.18,4.5-1.69l4.87-1.67.43,1.1a20.59,20.59,0,0,1,2.84-1.17c.91-.31,1.75-.56,2.53-.76a21.58,21.58,0,0,1-2.26,2.38l-1.31,1.19-1.31,1.22a55.88,55.88,0,0,0-4.42,4.22c-1,1.2-1.24,2-.25,2.25a8.4,8.4,0,0,0,2.51-.07c1.22-.14,2.84-.43,4.92-.88h0l-2.22,1.34-.26.11,0,0c-.84.53-1.59,1-2.26,1.51s-1.23,1-1.75,1.51a18.66,18.66,0,0,0-2.6,3l3.32-1.63,1.66-.81c.55-.26,1.13-.48,1.7-.73-.21.69-.26,1.3.19,1.71-.16.17-.29.35-.47.53-.5.19-.93.43-1.26.58l-.52.26a3.7,3.7,0,0,0-.32,1.16c-1.21,1.1-2.69,2.14-4,3.32s-2.72,2.31-3.84,3.31c-2.18,2.11-3.42,3.71-2.21,3.88.82,0,2-.83,3.57-1.92.79-.53,1.66-1.15,2.58-1.83s1.9-1.43,3-2.06a6.89,6.89,0,0,0,1.08-.1c-1.44.81-2.07,1.37-2.24,1.82s0,.68.35.91c.61.44,1.48.73-.09,1.84-1.1.63-2.2,1.28-3.28,1.94s-2.09,1.46-3.14,2.18c-2.11,1.41-4,3.06-6.09,4.56-1.06.74-2,1.63-3,2.43s-2,1.6-2.85,2.45l-2.68,2.58-1.32,1.27-1.23,1.35-2.43,2.67c-.79.9-1.51,1.86-2.26,2.79s-1.51,1.83-2.17,2.81l-2,2.91-1,1.46-.9,1.51-1.79,3c-.6,1-1.07,2.1-1.61,3.14s-1.09,2.1-1.55,3.2l-1.35,3.3L47,383.29c-.19.55-.41,1.11-.58,1.66s-.37,1.12-.52,1.65-.24.95-.37,1.42a27.86,27.86,0,0,0-.53,2.87c-.09.68-.16,1.35-.2,2a18,18,0,0,0,.49,5.45,11.8,11.8,0,0,0,1,2.52,14.24,14.24,0,0,0,1.34,2.3,19.6,19.6,0,0,0,8.56,6.17,8.71,8.71,0,0,1-1.71.15,27.45,27.45,0,0,0,4.28,1.6A42.08,42.08,0,0,0,64,412.19a49.17,49.17,0,0,0,5.6.46c.94,0,1.89,0,2.84,0l3-.16c2.45-.19,4.88-.29,7.33-.55l7.33-.71,7.36-.88c2.46-.28,4.93-.66,7.41-1,9.91-1.34,20-2.87,30.52-4.25,22.07-2.8,43.53-6.51,67-8.74-9.57,1.21-19,2.75-28.54,3.95-4.33.36-8.59.83-12.74,1.35,4.32-.34,8.53-.84,12.74-1.35,8.3-.75,16.81-1.22,24.86-1.95,4-.33,7.94-.79,11.7-1.27,1.88-.26,3.68-.58,5.5-.92s3.68-.68,5.44-1.07c1.5.4,1.48.78,2.93.86,10.28.63,20.34,2.76,29.64,4,.11-.39,4.58,1.1,3.34-.14a80.24,80.24,0,0,1,28.19,15.27,104.68,104.68,0,0,1,10.79,10.48,55.78,55.78,0,0,1,6.9,14.49A57.73,57.73,0,0,1,305.72,456a68.12,68.12,0,0,1-1.3,15.28,87,87,0,0,1-3.93,13.83,130.32,130.32,0,0,1-12.08,23.85c-.59.91-1.18,1.81-1.76,2.72s-1.17,1.72-1.76,2.59l-3.54,5.13c-1.21,1.7-2.48,3.36-3.74,5.06l-1.9,2.54-2,2.5a184.53,184.53,0,0,1-18.53,19.32,327.42,327.42,0,0,0,24-30.31q3-3.66,5.89-7.3c1.92-2.57,3.75-5.18,5.4-7.86a63.65,63.65,0,0,0,7.42-16.56c.37-1.29.75-2.57,1.12-3.85s.67-2.64,1-4a114.65,114.65,0,0,1-9.39,21.47c-1.82,3.26-3.72,6.41-5.67,9.43-1,1.55-1.93,2.89-2.9,4.35l-2.88,4.28c-4.91,5.64-10.1,11.26-15.36,16.57l.25-.38,2.79-3.43,2.7-3.52,2.7-3.53,2.61-3.62,2.74-3.13c.89-1.06,1.74-2.14,2.59-3.21,1.69-2.14,3.32-4.2,4.89-6.51a70.61,70.61,0,0,0,7.62-13.93c.45-1.19.91-2.35,1.26-3.53l1.24-3.65,1.13-3.74a129.78,129.78,0,0,1-12.54,24.62l-1.11,1.73-1.1,1.64-2.2,3.27c-.75,1.08-1.46,2.19-2.22,3.26l-2.3,3.18c-1.09,1.23-2.17,2.48-3.29,3.69l-3.42,3.61c.16-.33.34-.67.47-1a14.91,14.91,0,0,0,1.88-6.33c.16-2.27-.36-3.89-2.17-2.66-3.5,4.13-7.41,8.63-11.43,13s-8.08,8.53-11.82,12.11c-.93.89-1.81,1.79-2.69,2.6l-2.53,2.32c-1.61,1.45-3,2.78-4.24,3.81s-2.21,1.86-2.89,2.41a5,5,0,0,1-1.1.79c-.52-.09.86-1.7,3.16-4l3.95-4.08c1.46-1.49,3.05-3.06,4.56-4.71l4.48-4.75,3.72-4.22c2.16-2.42,3.39-4.06,3.09-3.87-1.53,1.37-3.15,2.67-4.71,4,1.18-1.59,2.36-3.11,3.29-4.65,1.3-1.63,3-3.36,4.52-5a24.91,24.91,0,0,0,3.43-4.59c.59-1.1,1.24-2.16,1.9-3.24s1.33-2.16,2.05-3.22,1.46-2.13,2.22-3.19l2.26-3.26A85,85,0,0,0,278.17,492a82.87,82.87,0,0,0,6.19-22.92c-.72-.22.66-4-.44-2.91a35.13,35.13,0,0,0,1.21-11.14,15.82,15.82,0,0,0-.34-2.47,11,11,0,0,0-.57-2.14,7.57,7.57,0,0,0-1.78-2.93l-.18-.48a9.86,9.86,0,0,0-.76-1.81,24.24,24.24,0,0,0-7.9-12.89,32.52,32.52,0,0,0-5.78-4,56.66,56.66,0,0,0-6.65-3.11,91.59,91.59,0,0,0-10-4.23c2.33.82,5.48,2.62,7.76,3.39l2.21.84a62.41,62.41,0,0,1,5.77,3.33,45.35,45.35,0,0,1,5.13,3.95,36.47,36.47,0,0,1,4.34,4.7,34.36,34.36,0,0,1,3.39,5.48,19.82,19.82,0,0,1,1.7,2.54l.37,1.89a4.21,4.21,0,0,1,.57.4A35,35,0,0,1,284,461a77.78,77.78,0,0,1-2.16,12.93,55.71,55.71,0,0,1-1.85,5.31c-.76,1.73-1.51,3.49-2.42,5.17a80.33,80.33,0,0,1-6,9.85c-1.09,1.6-2.28,3.13-3.45,4.67l-3.64,4.49c-1.19,1.51-2.46,2.94-3.72,4.38s-2.49,2.89-3.78,4.28a199.13,199.13,0,0,0,12.13-18.62c-2.31,3.88-4.83,7.51-7.23,11.13s-4.94,7-7.51,10.32l-2.6,2.83-5.58,5.77c1.86-1.67,3.68-3.36,5.48-5.06L247,524.29l-4.8,5.65a199.79,199.79,0,0,1-31,27.08,187.24,187.24,0,0,1-36.35,20.1,18.24,18.24,0,0,1,1.11-2c11.95-5.6,23.56-12.14,31.4-19.76-6.38,4-10.5,7.35-16.92,10.88-.1-.2-.31-.45.16-.87a113.47,113.47,0,0,1-13.37,7.8l3.66-5.09a26,26,0,0,1,4-2.78c1.54-1,3.24-2,4.9-3.12,14.69-8.8,28.13-17.9,40.3-29.53,5.69-4.85,11.25-9.86,16.4-15.22,2.65-2.62,5.09-5.42,7.58-8.14,1.23-1.39,2.39-2.82,3.59-4.22s2.37-2.82,3.47-4.28c-1,1.53-2.05,3-3.1,4.45l-3.12,4.34-3.19,4.17-1.58,2.08-1.63,2-3.22,4c-1.08,1.31-2.21,2.57-3.3,3.85C239.79,528.22,237.53,530.67,235.3,533.14ZM67.19,332c-.55.52-1.12,1-1.67,1.58l-1.58,1.71.7-.23A12.92,12.92,0,0,0,67.19,332ZM43.07,356.27c.81-1,1.63-2,2.46-3.07s1.78-2.1,2.69-3.21c1.77-2.26,3.8-4.46,5.84-6.8A122.25,122.25,0,0,1,67.94,330a.64.64,0,0,0-.08-.31c-1.12.77-2.26,1.58-3.41,2.43s-2.22,1.86-3.34,2.84a89.7,89.7,0,0,0-6.58,6.4c-1.06,1.15-2.05,2.37-3.08,3.57l-1.53,1.81c-.51.6-1,1.26-1.44,1.89l-2.82,3.79C44.77,353.66,43.93,355,43.07,356.27ZM18.92,397.69l.12-.39-.18.06Zm169,18.32c-10.35,2.72-23.45,4.15-36.6,6.48-4,.46-7.76,2.47-13.1,3.08-6.63,1.13-10.56,2.36-15.93,3.27l4.13.38a81.71,81.71,0,0,0-12.12,1.88c-1.85.38-3.7.75-5.71,1a49.31,49.31,0,0,1-6.56.35c0,.38-1.3,1.27-2.69,1.34-3.46.33-6.92.45-10.24.47a72.76,72.76,0,0,0-9.28.47c-1.76.08-3.52.13-5.26.18L72,435H69.16c-3.76-.06-7.43-.28-10.85-.49a34.9,34.9,0,0,0-3.76-.11l-1.25,0-.7,0-.82-.1c-1.11-.15-2.27-.34-3.4-.6a47.54,47.54,0,0,1-15-7.48c.13.22.24.44.34.64a39.58,39.58,0,0,0,12.31,6.41c1.67.54,3.39,1,5.15,1.39l1.33.3,1.11.19,2.11.33c2.79.37,5.57.63,8.25.72s5.29.1,7.82.05l6.59-.28a273.44,273.44,0,0,0,30.4-2.82c9.71-1.44,19.08-3.2,28.35-5,3.94-.85,7.87-2.08,11.78-2.93,11.77-3,26.21-4.15,33.82-7.51C184.05,417.12,186.67,416.9,187.93,416Zm14-17.78c-14.42,2.21-30,4.51-43.33,5.7a200.87,200.87,0,0,0-23.67,4.49c-8.11,2.1-14.2,4.47-11.32,6.53,3.07-2.44,10-4.28,18.64-5.84s18.89-2.8,28.53-3.84,18.64-1.77,24.63-2.73S204.4,400.38,201.94,398.23Zm101.43,62.82c.11-1.92-.05-3.93-.11-5.88s-.4-4-.62-6c-.19-1-.38-2-.57-3.07s-.37-2.06-.67-3.1c-.56-2.09-1.09-4.24-1.87-6.38a57.07,57.07,0,0,1,3.29,12.11c.18,1,.25,2.06.36,3.1s.24,2.08.24,3.1C303.44,457,303.55,459.07,303.37,461.05Zm-46.66-47.16a51.16,51.16,0,0,1,13,5c1.07.55,2.07,1.23,3.11,1.86s2,1.36,3,2.15a42.47,42.47,0,0,1,5.49,5.09,44.59,44.59,0,0,1,4.6,6.11,43.8,43.8,0,0,1,3.41,6.9,48.69,48.69,0,0,1,3.14,14.94,40.52,40.52,0,0,1-1.14,11.6,71.49,71.49,0,0,1-3.64,10.87c-3,6.87-6.38,13.08-8.86,19.12l1,.67c.16-.46.32-.93.47-1.41,3-4.05,5.6-7.32,7.9-11.09l-.26.74.54-1.22a35.92,35.92,0,0,0,3.83-8.84c.4-1.62.73-3.32,1.09-5a59.82,59.82,0,0,0,1.92-14.9,46.69,46.69,0,0,0-2.53-15.19,42.91,42.91,0,0,0-7.36-13,41.31,41.31,0,0,0-10.45-8.87,49.91,49.91,0,0,0-13.51-5.86,119.72,119.72,0,0,0-13.74-2.76C250.29,411.54,254,413.21,256.71,413.89Z"/><path class="a" d="M253.56,516.53c-.87,1.17-1.79,2.3-2.73,3.42l-2.8,3.38c-1.87,2.26-3.89,4.4-5.87,6.61-1.48,1.76-3,3.43-4.55,5.16s-3.07,3.39-4.64,5.07a159.75,159.75,0,0,1-27.2,21.69,288.62,288.62,0,0,1-31.66,17.46,3,3,0,0,0,1.47,3.22,173.36,173.36,0,0,0,34.49-18.15,348.09,348.09,0,0,0,31-23.61l.37-.5c1.66-2.31,3.84-4.67,6.09-7.3,1.14-1.3,2.35-2.63,3.59-4l3.71-4.21c2.55-2.79,5-5.84,7.32-8.78,1.15-1.51,2.23-3,3.28-4.54s2-3,2.89-4.49c1.64-3.06,3.38-6,5-9.07s3.26-6.1,4.69-9.25a73.08,73.08,0,0,0,6.36-19.56,95.1,95.1,0,0,1-12.76,25.6A160.79,160.79,0,0,1,253.56,516.53Z"/><path class="a" d="M223.29,426.56a105.9,105.9,0,0,1,13.48,1.06c12.31,1.59,22.46,4.87,29.44,10.6-4.47-4.8-11.35-8.58-19.25-11.2a42.67,42.67,0,0,0-12-1.41A99.91,99.91,0,0,0,223.29,426.56Z"/><path class="a" d="M271.16,443.58a27.49,27.49,0,0,0-5-5.36,26.67,26.67,0,0,1,4.12,5.78c.3.51.49,1.07.76,1.6s.42,1.12.65,1.67.32,1.14.5,1.71c.08.29.19.57.25.86l.16.89a14.86,14.86,0,0,1,.31,1.79c.05.61.11,1.23.19,1.84s0,1.27,0,1.91a14.3,14.3,0,0,1-.07,2c0,1.31-.29,2.67-.47,4s-.53,2.75-1,4.16a66.66,66.66,0,0,1-5.34,14.27c-1.21,2.38-2.48,4.76-3.91,7.11s-2.89,4.68-4.51,7a261.8,261.8,0,0,1-21,27.19c-1.7,2-3.55,3.83-5.37,5.67A221,221,0,0,0,254.12,505c3.46-4,6.74-8.21,9.81-12.38a101,101,0,0,0,8-12.87,60.74,60.74,0,0,0,5.1-13.32,36.68,36.68,0,0,0,1-12.88,27.81,27.81,0,0,0-3.7-11,28.2,28.2,0,0,0-3.35-4.33,29.23,29.23,0,0,0-4.1-3.46l-1.4-.92a37.36,37.36,0,0,1,3.52,3.48,29.87,29.87,0,0,1,2.8,3.89,27.65,27.65,0,0,1,3.42,8.9,32.35,32.35,0,0,1,.36,10,49.33,49.33,0,0,1-2.59,10.69A41.1,41.1,0,0,0,275,456a27.86,27.86,0,0,0-1.17-6.59l-.57-1.52-.27-.75-.34-.73A23.32,23.32,0,0,0,271.16,443.58Z"/><path class="a" d="M257,512.07l-2.61,2.83c-.92,1.19-1.77,2.4-2.7,3.54.66-.61,1.28-1.27,1.91-1.91C254.7,515,255.84,513.55,257,512.07Z"/><path class="a" d="M288.13,485.66l.28-.48a90.84,90.84,0,0,0,4.92-13.82,72,72,0,0,0,1.18-10.79,56.22,56.22,0,0,0-.08-5.65c0-.94-.19-1.91-.28-2.86s-.19-1.91-.41-2.86a23,23,0,0,1,.3,2.6l.21,2.6c0,1.71.06,3.45-.07,5.13s-.21,3.36-.48,5l-.35,2.41c-.14.79-.32,1.56-.47,2.34A132.78,132.78,0,0,1,288.13,485.66Z"/><path class="a" d="M304,440.25a39.53,39.53,0,0,0-1.12-3.91c-.25-.72-.48-1.44-.72-2.1s-.5-1.25-.7-1.73l-1-1.57-1.12-1.51a55,55,0,0,1,2.19,5.26A53.59,53.59,0,0,1,304,440.25Z"/><path class="a" d="M221.3,395.13a139.31,139.31,0,0,1,19.48,1,109,109,0,0,1,19.45,4.11,77,77,0,0,1,19.22,9,58.7,58.7,0,0,1,16.74,16.43c1.05,1.22,2.11,2.48,3.07,3.81A54,54,0,0,0,290,415.76,59,59,0,0,0,278.06,406a66.59,66.59,0,0,0-24.89-9.09c-3.16-.54-7.95-.48-10.92-1.05a106,106,0,0,0-20.76-1.3c-1.68.06-3.36.14-5,.27-.85.05-1.64.13-2.42.21l-2.36.24c-3.14.32-6.26.64-9.34,1.08,2.95-.31,5.95-.52,9-.74,1.53-.1,3-.23,4.59-.32s3.23-.15,4.86-.19Z"/><path class="a" d="M167.23,223.31l-.9-.9c-.1.09-.18.19-.27.28C166.48,222.93,166.87,223.13,167.23,223.31Z"/><path class="a" d="M171.52,221l-.28-.31a2.68,2.68,0,0,1-.18.28Z"/><path class="a" d="M166.06,222.7c-.95,1.08-1.62,2.44-3.09,3l-1.92-1.93c-1,.09-1.09,1.13-1.63,1.69-.47-.47-.94-.94-1.21-.66a1.08,1.08,0,0,0-.78,1,2.56,2.56,0,0,0,.52,1.49,12.33,12.33,0,0,1,3.88-.13l1.82.2c.56.07,1.07.14,1.52.15.91,0,1.56-.18,1.78-.89S167,224.66,166.06,222.7Z"/><path class="a" d="M172.26,224.75l-2.57-2.85c-.93.33-1.95.59-2.33,1.47A9.84,9.84,0,0,0,172.26,224.75Z"/><path class="a" d="M413.29,347.17c-.16-.19-.18-.31.61-.58-.21.21-.4.4-.61.58.14.17.4.38.2.74,1-1.14,1.95-2.45,3-3.71.5-.66,1-1.33,1.54-2s1.06-1.31,1.56-2c0-.6-.1-1.19-.18-1.75-1.22,1.64-2.59,3.14-3.91,4.66s-2.74,2.91-4.13,4.26-2.73,2.68-4,4.06-2.49,2.68-3.61,4a25.32,25.32,0,0,0,2.67-2,29.81,29.81,0,0,0,2.29-2l2.2-2.06C411.67,348.68,412.44,347.93,413.29,347.17Z"/><path class="a" d="M418,336.51l.49-.63C417.74,336.22,417.79,336.35,418,336.51Z"/><path class="a" d="M288.09,378.58c-1.3-.34-2.51-.77-3.74-1.1s-2.45-.64-3.68-.9-2.41-.58-3.61-.87l-3.62-.88,3.54,1.5,1.76.75c.58.26,1.21.44,1.81.66l3.58,1.26a32.09,32.09,0,0,0,3.54,1.09l3.49.88a32.07,32.07,0,0,0,3.37.7c2.23.31,4.34.55,6.27.67q-3.21-.76-6.43-1.59C292.26,380.11,290.18,379.33,288.09,378.58Z"/><path class="a" d="M251.07,364.87a35.78,35.78,0,0,0,15,9.59c-2.45-1.31-4.66-2.85-6.94-4.33l-1.7-1.12c-.55-.38-1.07-.79-1.61-1.19l-3.21-2.41C252.1,365.24,251.58,365,251.07,364.87Z"/><path class="a" d="M258.34,367.8a38.7,38.7,0,0,0,3.69,2.5,26.15,26.15,0,0,0,3.75,1.94c1.28.53,2.56,1,3.83,1.44a35.25,35.25,0,0,0,3.83,1.15c-1.37-.54-2.62-1.2-3.92-1.8s-2.57-1.21-3.85-1.79C263.17,370,260.76,368.82,258.34,367.8Z"/><path class="a" d="M361.82,346.37a39.48,39.48,0,0,1,5.26-3.74c.26-.68.61-1.53,1.08-2.62l-.5.2C365,342,362,343.72,359,345.35a25,25,0,0,0-3.1,2.75C357.85,347.6,359.86,347,361.82,346.37Z"/><path class="a" d="M367.08,342.63c-1.11,2.9-.16,2.42.6,1.45S369,341.66,367.08,342.63Z"/><path class="a" d="M353.91,372.62l-.52.14-1.47.64C352.6,373.14,353.25,372.9,353.91,372.62Z"/><path class="a" d="M311.29,365.58a45.23,45.23,0,0,0,8.31-.19c-5.66.29-11.28,0-16.14-.09.68.17,1.28.78,2,.89a13.67,13.67,0,0,1,2.73-.57A13,13,0,0,1,311.29,365.58Z"/><path class="a" d="M375.94,361.65c-7.52,3.92-15,7.67-22.55,11.11a208,208,0,0,1-47.77,7.51,51.78,51.78,0,0,1-12-1.14c-2.17-.54-4.44-1.09-6.73-1.74L280.05,375c-9.08-3.43-17.55-8-24.93-10.26a34.61,34.61,0,0,0,3.22,3c-1.95-.91-3.84-1.72-5.73-2.39A144.5,144.5,0,0,1,228.11,341a200.55,200.55,0,0,1-18.63-28c-1.61-2.89-3.76-4.44-5.29-7.3l-4.6-8.36a.32.32,0,0,0-.18.22c-6.38-11.32-12.53-22-19.69-32-3.16-4.81-5.75-9.72-8.74-14.28-1.15-1.66.14-2.54-.31-3.88-1.51-5.58-2.76-9.76-6.13-14.83l.88-.78a7.44,7.44,0,0,1-1.64-1.81c2.57-.4,5.51.53,7.31.72.91.08,1.58-.08,1.83-.79s.12-2-.75-4h0c.41.26.79.49,1.16.7l.09.11,0,0a9.9,9.9,0,0,0,4.89,1.7l-2.49-3a2.49,2.49,0,0,0,1.43-.85l.45.06.69.84a4.44,4.44,0,0,0,1-.24c3.57,1.56,7.6,5.57,8.26,3.73.08-.58-.42-1.29-1.21-2.11-.4-.41-.86-.85-1.38-1.31L183.41,224a3.43,3.43,0,0,0-.08-.71c2.8,2.79,2.13-1.72,3.94-.13,1,1.25,2,2.48,3.06,3.68l1.54,1.83c.5.63,1,1.27,1.42,1.92,7.44,10.61,13.1,19.84,20,30.35l.9,1.39a119.8,119.8,0,0,1,8.31,15.56c-.41-.22-.81-.45-1.21-.7a74.19,74.19,0,0,0,6.7,12.45c3.35,4.75,6.78,9.38,10.16,14l10.41,13.93a114.52,114.52,0,0,0,11.73,13.77c2.06,2.17,4.32,4.06,6.53,6,1.14.93,2.31,1.83,3.48,2.73.59.45,1.15.93,1.76,1.34l1.83,1.23a59.82,59.82,0,0,1-12-8.91c-1.47-1.78-3-3.5-4.48-5.17a55.94,55.94,0,0,0,4.48,5.17c1.49,1.61,3,3.28,4.49,4.84a60.47,60.47,0,0,0,4.8,4.24,30.41,30.41,0,0,0,5.14,3.1,19.9,19.9,0,0,0,5.38,1.47c.39.63.17,1,.73,1.32l2.92,1.93a25.58,25.58,0,0,0,3,1.65,18.44,18.44,0,0,0,3,1.25,15.33,15.33,0,0,0,3.11.48c.16-.36,1.9.44,1.62-.55l.68.24.7.18,1.42.39,2.89.84a39.25,39.25,0,0,0,5.8.75,10.24,10.24,0,0,0,2.44-.26,15.38,15.38,0,0,0,2.49-.87c13-.45,26-4.71,40.64-11.21,3.65-1.52,8.13-3,11.85-4.42-2.5,1.64-5.24,3.19-8,4.69s-5.56,2.87-8.39,4.12c-5.83,1.29-11.1,2.39-15.19,5-1,.5-1.94,1-2.94,1.43a110.06,110.06,0,0,0,18.13-6.41,107.59,107.59,0,0,0,10.51-2.71l-.19.15c-2.57,1.39-5.16,2.67-7.8,3.9-5.26,1.23-10.1,2.31-14,4.44a15.81,15.81,0,0,0-1.44.83c-1,.53-2,1.06-3,1.5a114.65,114.65,0,0,0,11.46-3.79l3.52-1.43,3.48-1.55c1.55-.39,3.12-.72,4.7-1.15-.14.15-.28.3-.4.45-1.21.78-3.78,6.32-1.39,6.84a123.73,123.73,0,0,0,16.48-6.54c4.78-2.27,8-4.17,8.08-4,.32.29-.43,1.08-1.76,2.13a57.6,57.6,0,0,1-5.31,3.45c-4,2.36-8.34,4.43-7.92,4.5,1.1-.18,2.19-.4,3.26-.65-.88.65-1.73,1.3-2.51,1.95-2,1.1-5,1.62-6.16,2.82-4.33,3.78-10.3,4.59-15.81,7.26-3.44,1.92-7.64,4.13-12.09,6.12.07.78-2.28.59-1.45,1.31-4.38.33-9.39.35-11.42,2.49l-.33.05a4.2,4.2,0,0,0-1.26.26c-7.44-.88-12.93.2-20.27-.32a71.19,71.19,0,0,1-7.19-2.22c1.57.59,3.82,1.8,5.53,2,.56.08,1.1.19,1.66.22,1.57.28,3.13.53,4.67.75.77.1,1.53.22,2.3.29l2.3.12c.76,0,1.52.09,2.28.09l2.26,0c1.49,0,3-.1,4.45-.19.49-.2,1.28-.49,2-.71.41,0,.83.07,1.25.13a3.68,3.68,0,0,1,.34-.44c5.54-.87,11.62-1.65,16-3.34,4.18-1.15,8.47-2.1,12.81-3s8.71-1.86,12.92-3q-6,2.83-12,5.34a144,144,0,0,0,14.1-5.95l2.12-.65c1.47-.46,2.93-1,4.4-1.46-1.42.29-2.82.64-4.21,1,2.6-1.32,5.14-2.68,7.58-4.11,13.82-6.95,27.43-14.49,38-24.6a10.35,10.35,0,0,1,.32,1.71c-5,5.3-10.94,9.42-15.23,14.27,3.76-2.19,5.89-4.4,9.16-6.93.13.18.36.41.17.74l6-6.43a29.58,29.58,0,0,1-.27,4.36,8.46,8.46,0,0,1-1.71,2.43L405.22,349a80.86,80.86,0,0,1-12.57,8.52c-4.35,2.44-8.8,4.63-13.32,6.93-8.43,3.16-16.91,5.78-25.42,8.14A154.37,154.37,0,0,0,375.94,361.65ZM180.5,239c.57.53,1.17,1,1.78,1.57a3.25,3.25,0,0,1,0-.44A3.17,3.17,0,0,0,180.5,239Zm9.05,14.69c-2.05-4.72-6.36-10-10.55-14.73a.8.8,0,0,0-.28.13C181.5,243.59,185.89,248.58,189.55,253.68Zm2.79,21.87.06-.17-.15.1Zm62.47,75.05c-6-3.22-11.46-9.38-17-15.36a13.5,13.5,0,0,0-2.86-2.56,13.52,13.52,0,0,1-3.18-3.11c-1.3-1.57-2.46-2.75-3.57-3.86s-2.08-2.16-3.13-3.43l.66,2.49a29.72,29.72,0,0,0-4.53-5.85,19.16,19.16,0,0,1-4.09-6.1,1.82,1.82,0,0,1-1.83-.84c-.58-.84-1.11-1.72-1.6-2.6s-.89-1.75-1.32-2.6a21.57,21.57,0,0,0-2.8-4.5c-1.09-1.66-2.1-3.37-3.1-5a33,33,0,0,0-3-4.29c-.37-.7-2.12-1.55-3.17-2.75-1-1.61-2-3.28-2.91-4.88a2.69,2.69,0,0,1-.17.34,27,27,0,0,0,2.37,4c2.81,3.78,6,8.33,8.59,12.37,1.54,2.54,3.2,5,4.82,7.46s3.39,4.88,5.2,7.21,3.57,4.64,5.48,6.86l2.81,3.32,2.92,3.24c1.68,1.83,3.82,3.36,5.58,5.11,5.64,5,11.22,12.19,16.71,13.76C252.56,349.4,253.65,350.61,254.81,350.6Zm17.74-6.74a54,54,0,0,1-17.5-15.21,99.66,99.66,0,0,0-9.38-9.65c-3.63-3.15-7-5.32-8.17-2.75,2.8.47,5.95,3.26,9.27,6.95,1.69,1.82,3.36,3.91,5.16,6,.89,1,1.75,2.12,2.65,3.16l2.7,3.05,1.32,1.49,1.35,1.38c.89.9,1.76,1.76,2.59,2.56a36,36,0,0,0,4.71,3.73,8.1,8.1,0,0,0,1.94,1,4.23,4.23,0,0,0,1.58.26C271.68,345.71,272.29,345.11,272.55,343.86Zm51.51,11.85c-1.31.36-2.6.62-4,.86a20,20,0,0,1-4.2.15c1.35-.05,2.73-.28,4.07-.39S322.7,356,324.06,355.71Zm-31,10.85c2.56.17,5,.61,7.54.71,1.25.11,2.49.23,3.72.37l3.71.2a67.22,67.22,0,0,0,14.53-.86c3.58-.64,7.35-.7,11.06-1.2a32.89,32.89,0,0,0,5.4-1.08,17.39,17.39,0,0,0,4.83-2.27l-.25-1.15-.62.54a53,53,0,0,1-6.77,0l.35-.16-.61.16a15.1,15.1,0,0,0-4.44.65c-.73.29-1.47.51-2.23.76-4.35.73-8.76,1.15-13.09,1.44s-8.58.4-12.76.6c-1.27,0-2.53,0-3.79,0l-.94,0-.93,0-1.86-.06c-1.25,0-2.52-.07-3.82-.14s-2.55-.39-3.88-.67c.68.31,1.5.79,2.35,1.23a9.59,9.59,0,0,0,1.27.58A5.25,5.25,0,0,0,293.09,366.56Z"/><path class="a" d="M362.17,365.47c3-1.45,6.06-3,9.09-4.48,2.28-1.34,4.5-2.73,6.64-4.22,5.22-3.26,10.94-6.3,16.35-9.85a74.73,74.73,0,0,0,7.76-5.69c1.24-1,2.35-2.11,3.49-3.17s2.14-2.23,3-3.44a5.55,5.55,0,0,0-2.6-2.39c-2.33,2-4.67,4-7.17,5.92s-5,3.84-7.81,5.59a79.16,79.16,0,0,1-18,8.88l-.26.23c-2.33,2.15-5.9,3.87-9.73,5.48a114.49,114.49,0,0,0-11.21,5,61.92,61.92,0,0,1-10.4,5.12c-1.79.74-3.61,1.34-5.43,2l-5.54,1.93a108.93,108.93,0,0,0,16.09-2.9C351.67,368.25,356.83,366.78,362.17,365.47Z"/><path class="a" d="M266.07,374.46c1.58.87,3.13,1.77,4.75,2.61l5,2.33a79.8,79.8,0,0,0,27.88,6.08,93.89,93.89,0,0,1-9.84-2.14c-1.63-.43-3.2-1-4.8-1.58a45.55,45.55,0,0,1-4.72-1.82c-1.58-.6-3.14-1.09-4.69-1.51-.79-.19-1.55-.42-2.3-.66l-2.25-.64c-1.51-.42-3.05-.78-4.55-1.21S267.57,375,266.07,374.46Z"/><path class="a" d="M311.08,385.36c-1.23.11-2.47.1-3.7.14l-1.85,0-1.85-.06a93.92,93.92,0,0,0,28.68-.26,155.39,155.39,0,0,0,41.15-15.12c1.45-.73,2.88-1.46,4.32-2.15-6.22,2.23-12.41,4.19-18.69,6s-12.59,3.36-18.92,4.63a181.84,181.84,0,0,1-38,3.79,14.53,14.53,0,0,1-1.47,0,91.13,91.13,0,0,0,34.07-.1A119.42,119.42,0,0,1,311.08,385.36Z"/><path class="a" d="M359.22,366.86c.73-.19,1.44-.39,2.15-.61l2.31-1.15-1.51.37C361.19,365.94,360.2,366.41,359.22,366.86Z"/><path class="a" d="M336.24,361.85H336c-1.1.31-2.2.53-3.31.77s-2.23.46-3.36.64a51.53,51.53,0,0,1-9.71,2.13C325.69,365.09,331.76,364,336.24,361.85Z"/><path class="a" d="M317.56,353.6c-.61,0-1.76-.15-2.35-.18l-1.15.61,1.67.22C316.35,354,317,353.86,317.56,353.6Z"/><path class="a" d="M281.77,347.38a73.19,73.19,0,0,0,15.69,5.88l3.84.74c.31.06.62.14.94.18l1,.09,1.89.19,1.87.2c.61.08,1.25,0,1.87.08l1.85,0,1.87,0c.51-.22,1-.43,1.51-.7-3.23-.5-6.33-1-9.44-1.54-.78-.13-1.59-.14-2.36-.32s-1.57-.27-2.36-.37-1.61-.16-2.42-.24-1.6-.23-2.42-.31c-.64-.08-1.51,0-2.38-.05a5.14,5.14,0,0,1-2.25-.47c-.68-.33-1.37-.64-2.06-.94s-1.4-.56-2.07-.92c-1.36-.67-2.75-1.29-4.15-1.9-2.72-1.41-5.55-2.68-8.24-4.33l1.86,1.24.93.62,1,.55,3.89,2.21Z"/><path class="a" d="M224.79,302l-.28.2.23.31A4.4,4.4,0,0,0,224.79,302Z"/><path class="a" d="M222.31,298l-.09.07.2.24Z"/><path class="a" d="M224.75,302.55a30.84,30.84,0,0,1,2.51,3.49l-.61.44a10.24,10.24,0,0,0,1.38,1.9c-.15.11-.31.22-.08.54.5.9,1.07,1.33,1.51,1.31C227.54,306.21,228.31,303.73,224.75,302.55Z"/><path class="a" d="M224.14,299.12l-.81.59a11.72,11.72,0,0,0,1.46,2.27A6.76,6.76,0,0,0,224.14,299.12Z"/><path class="a" d="M287.55,254.51c-.13-.21-.18-.32.15-.11l-.15.11a1.64,1.64,0,0,1,.3.63,5.82,5.82,0,0,1,1.34-2l-.43-1.22c-1.46,1.19-3,2.17-3.23,4.75C286.45,256.1,286.71,255.13,287.55,254.51Z"/><path class="a" d="M287.64,249.84c.06,0,.1-.08.16-.11C287.46,249.52,287.52,249.64,287.64,249.84Z"/><path class="a" d="M264.47,275.18c-.77.91-.86,2.59-1,4.24,1.17-2.11,2.71-3.79,3.26-5.94C266,274.07,265.27,274.65,264.47,275.18Z"/><path class="a" d="M262.19,286.51c1.57-.18,2-1.63,2.18-3.36-.75.93-1.49,1.82-2.25,2.69C262.14,286.06,262.15,286.27,262.19,286.51Z"/><path class="a" d="M262.12,283.61c1.09-.7,1.25-2.42,1.38-4.19A10.79,10.79,0,0,0,262.12,283.61Z"/><path class="a" d="M264.19,239.33a6.11,6.11,0,0,1,.5-2.4c-.18-.53-.39-1.19-.64-2l-.13.08c-.39,1.08-.82,2.11-1.29,3.11a9.41,9.41,0,0,0,0,2A11.5,11.5,0,0,0,264.19,239.33Z"/><path class="a" d="M264.69,236.93c1.54,4.56.73-1.05,0,0Z"/><path class="a" d="M273.18,260.66l-.11.07-.17.43Z"/><path class="a" d="M258.2,257.17a9.43,9.43,0,0,0,1.46-1.92,9.88,9.88,0,0,0-2.59,4.06c.16-.1.54.12.7,0C257.66,258.46,257.71,257.49,258.2,257.17Z"/><path class="a" d="M276.24,254.38a40,40,0,0,0-3.17,6.35c-3.29,2.28-6,5.17-7.15,9.74-.82,4.28-5.69,6.57-4.71,13.45a2.09,2.09,0,0,0,.91-.31,11.85,11.85,0,0,0,0,2.23A58.58,58.58,0,0,1,251,296.06c-.62.42-.42,1.71-1,2.14s-1.16,1-1.73,1.47a1.63,1.63,0,0,0,.17.2,40.72,40.72,0,0,0-6.16,7.44c-1,1.18-2.44,1.73-3.66,2.61-.46.32-1.37-.95-1.9-1.05-2.36-.72-4.19-1.33-6-1l-.68-1a.64.64,0,0,1-.56.4c-1.92-4-1.14-6.52-4.7-7.69h0c0-.17,0-.34.05-.51l0,0,0,0a6.6,6.6,0,0,0-.65-2.85l-.81.59a8.67,8.67,0,0,0-.91-1.38l-.11-.3.23-.16c-.14-.28-.29-.54-.44-.8-.28-1.88.34-3.4-.83-4.56-.65-.56-.75.4-1.05,1.23a3,3,0,0,0-.35-.23c.55-.87-1.6-2.22-1.36-2.87.63-.45,1-1.22,1.65-1.67a23.66,23.66,0,0,0,6.3-6.39l.26-.35a8.18,8.18,0,0,1,3.42-2.72c.07.27.14.53.19.79a5.11,5.11,0,0,0,2.75-2.23c1.48-2.94,3-5.86,5.31-7.93a35.85,35.85,0,0,0,6.62-7.43,12.25,12.25,0,0,1-2.29,3.87,9,9,0,0,0-1.51,1.05,4.82,4.82,0,0,0,1.51-1.05c2.06-1.2,4.34-2.17,3.83-6.24.35.16.57.49.73.38,1.12-.76,2.47-1.18,2.57-3.12-.21-.33.27-.65-.32-1.19.75-1,1.88-1.73,2.43-3a4.88,4.88,0,0,0,.21-2.44c2.34-4.05,4.66-8.06,7.4-12.17a11.09,11.09,0,0,1,2.79-2.24,42,42,0,0,1-2.52,5.6c-1.58.67-3,1.55-3,4-.05.48-.12.95-.2,1.39,1.1-1.75,2.18-3.51,3.18-5.35a21.24,21.24,0,0,0,2.79-1.26v.1c-.39.85-.8,1.68-1.24,2.49-1.4.59-2.63,1.35-2.91,3.21a5.78,5.78,0,0,0-.05.75q-.09.72-.21,1.38c.68-1.07,1.35-2.16,2-3.26.4-.68.79-1.37,1.17-2.08l1.26-.51c0,.1,0,.21.05.32-.12.54,1.44,5,2.57,5.68,2.45-1.69,5-5.5,5.2-5.17,1,1.22-2.21,5.69-1.83,5.92.33,0,.65,0,1-.08a10.34,10.34,0,0,0-.11,1.27c-.28.64-1.14.73-1,1.59.13,2.71-1.59,2.88-2,5-.17,1.51-.28,3.45-.39,5.39.42.65-.27.64.31,1.19-.9.59-1.95,1.27-1.09,3.43l0,.1c-.06,0-.08.21-.08.42-1.72.65-1.58,3.15-2.1,5.29a5.13,5.13,0,0,1-1.24,1.22c.32-.21,1-.2,1.11-.73l.13-.49a25.25,25.25,0,0,0,2.19-4.31,7.27,7.27,0,0,1-.09-1,1.32,1.32,0,0,1,.3-.09l-.19-.43c.49-1.66,1.53-2.8,1.84-4.39,1.06-2.27,3.32-2.95,5.27-3.93-.56,1.14-1.07,2.31-1.54,3.5.74-1.26,1.41-2.5,2-3.76l.48-.28,1-.61a7.81,7.81,0,0,0-1.13.21c.36-.76.71-1.54,1-2.35a19.8,19.8,0,0,1,8.75-8.08c.19.45.37.9.53,1.35-1.47,1.19-3.06,2.18-3.25,4.77.92-.58,1.19-1.56,2-2.18a1.64,1.64,0,0,1,.3.63,5.84,5.84,0,0,1,1.35-2c.33,1,.63,2,.93,3,.09.87-.4,1.17-.68,1.81-1.74,1.89-3.82,3-5.37,5.07a59.23,59.23,0,0,0-5.58,3.29A44.93,44.93,0,0,0,276.24,254.38ZM229,298.6c.06-.25.12-.52.16-.81l-.23-.17C228.76,297.73,228.82,298.14,229,298.6Zm3.83-2.27c-1.45.2-2.33,1.93-3.32,3.39a2.71,2.71,0,0,0,.17.25C231,299.46,231.82,297.68,232.81,296.33Zm8.92,3.64-.1-.08.11.14Zm11.93-23.34c-.17,2.47-1.75,3.53-2.87,5.25-.48.32-.06,1.93-.69,2.36a23.19,23.19,0,0,0-1,2.57l.92.33c-1.32.43-.61,2.79-2.14,2.89.22.33.51,1.08.35,1.19-.55.85-1.78.75-1.95,1.82-.55.86-1.33,1.4-1.5,2.47-.15.11.21,1.29.12,1.82a10.81,10.81,0,0,1-.92,1.09l.23.23a1.74,1.74,0,0,0,.76-.89,16.37,16.37,0,0,1,1.82-3.65,35.42,35.42,0,0,0,4.47-7.82c.25-.65.28-1.61.53-2.26.53-2.25,2.48-3.1,1.89-6C253.62,277.6,253.94,277.38,253.66,276.63ZM246,261.35a8,8,0,0,1-4,5.21c-1.28.87-3.62,5.31-.32,8.74C238.43,267.18,252.08,268,246,261.35Zm9.52-14.91A4.4,4.4,0,0,1,254,248.8Zm1.87,17.84c.57-3.66,2.61-5.46,3.85-8.14,1-2,3.81-1.54,3.78-4.78l-.63-1,.05.43a11,11,0,0,1-2.15,0l0-.14-.11.15a1.08,1.08,0,0,0-1,.71c-.07.27-.15.54-.23.8-1.65,1.89-3.4,3.77-3.87,7-.48,1.72-.36,4-.83,5.71C256.56,264.81,257.25,264.82,257.36,264.28Z"/><path class="a" d="M272.77,255.5c.44-.85.9-1.68,1.4-2.47.28-.75.55-1.54.8-2.36,1.48-3.42,4.91-4.74,7.23-7.29a18.46,18.46,0,0,0-1.88-3c-3.74.83-5.69,4.53-9.08,5.91v.15c0,2.81-2.58,3.49-3.14,6.18-.35,3-1.54,4.71-2.07,7.4C268.33,258.51,270.09,256.38,272.77,255.5Z"/><path class="a" d="M264.37,283.15l1.45-1.83a31.26,31.26,0,0,0,2.93-6.14,30.44,30.44,0,0,1-3.32,2.58C264.48,278.89,264.57,281.19,264.37,283.15Z"/><path class="a" d="M269.39,273.34c-.21.64-.42,1.24-.64,1.84,1.56-1.38,3-2.9,4.45-4.44,1.95-3.17,4-6.15,5.78-9.7a8.39,8.39,0,0,1,.68-1.06c-5.54,3-11.07,6-12.8,13.09,0,.14-.07.27-.1.41a57.78,57.78,0,0,0,5.51-5.34A51.67,51.67,0,0,0,269.39,273.34Z"/><path class="a" d="M272.35,256.32l.48-.26.32-.68-.38.12Z"/><path class="a" d="M262.26,250.78h-.08c-.39.52-.81,1-1.24,1.51a14.84,14.84,0,0,1-1.28,2.95A8.82,8.82,0,0,0,262.26,250.78Z"/><path class="a" d="M252.64,245.85l-.65.42.09.79.5-.24Z"/><path class="a" d="M246.56,257.44c2-3.17,3.82-6.29,5.62-9.38l-.1-1a6.86,6.86,0,0,0-3.89,5.46c-.11.54.05,1.84-.27,2.06-1.32,1.32-2.08,3.33-2.9,5.23.51-.74,1-1.5,1.5-2.3Z"/><path class="a" d="M411,221.43l-.52,1.1a4.76,4.76,0,0,0-.22.5l.37.13C410.78,222.52,410.94,222,411,221.43Z"/><path class="a" d="M407.62,217.71l-.27.55a1.66,1.66,0,0,1,.33,0A5.35,5.35,0,0,1,407.62,217.71Z"/><path class="a" d="M410.68,223.16c1.37.43,2.93.4,3.94,1.72-.3.82-1,2.42-1.22,3.26.48,1.06,1.48.49,2.22.74-.24.78-.51,1.56-.13,1.66a.84.84,0,0,0,.62.4,1.46,1.46,0,0,0,.65-.21,3,3,0,0,0,1.17-1.38,6.56,6.56,0,0,1-.92-1.9,18.13,18.13,0,0,1-.56-2.14c-.18-1.41-.36-2.87-.51-3.88s-.53-1.67-1.33-1.54a3.66,3.66,0,0,0-1.59.83A18.82,18.82,0,0,0,410.68,223.16Z"/><path class="a" d="M411.66,214.65l-.74,1.15-.66,1.19c-.43.8-.92,1.57-1.28,2.4.56.91,1.06,2,2.1,1.86.24-1.35.48-2.46.57-3.51.05-.53.06-1,.06-1.56S411.7,215.18,411.66,214.65Z"/><path class="a" d="M406.72,218.05c-.24,0-.35-.15.14-1-.05.36-.09.69-.14,1,.22,0,.55,0,.63.5A28.66,28.66,0,0,1,409.49,207l-.43-1.89a36.59,36.59,0,0,0-2.66,7.22,38.46,38.46,0,0,0-1,7.58A35.16,35.16,0,0,0,407.92,234c-.12-.77-.23-1.5-.36-2.21s-.19-1.39-.28-2.06c-.24-1.34-.34-2.6-.5-3.87s-.17-2.5-.26-3.81c0-.64,0-1.29.05-2A16.4,16.4,0,0,1,406.72,218.05Z"/><path class="a" d="M407.36,203.28l.51-1C407.09,203,407.15,203.16,407.36,203.28Z"/><path class="a" d="M497,319.35c4.71-4.89,7.82-10.14,10.69-15.45a157.22,157.22,0,0,1-11.89,14.44c-2.06,2.2-4.1,4.4-5.89,6.22s-3.55,3.51-5.11,5a68.79,68.79,0,0,0,6-4.62C492.86,323.22,495,321.25,497,319.35Z"/><path class="a" d="M520.57,277.48a112.79,112.79,0,0,0-10.66,18.13,183.76,183.76,0,0,0,10.22-16.3C520.28,278.71,520.46,278.08,520.57,277.48Z"/><path class="a" d="M517.79,286.32c-4.18,6.12-7,11.88-10.06,17.58A89.28,89.28,0,0,0,517.79,286.32Z"/><path class="a" d="M402.46,294.7c-1.82-2.3-3.16-4.22-4.23-5.75s-1.75-2.74-2.23-3.61c-.87-.57-1.95-1.37-3.37-2.48.14.31.29.64.42.95q4.65,7.79,9.69,15.53a49.2,49.2,0,0,0,4.74,5.24C405.76,301.31,404.11,298,402.46,294.7Z"/><path class="a" d="M396,285.34c3.71,2.42,2.77.71,1.39-.74S394.17,281.89,396,285.34Z"/><path class="a" d="M434.54,305.18l.44.68,1.47,1.85Z"/><path class="a" d="M482.93,350.63a36.81,36.81,0,0,1-7.46,1.8,35.59,35.59,0,0,1-7.79.16c-.95-.14-1.89-.25-2.82-.42.93.2,1.88.33,2.81.49a34.1,34.1,0,0,0,8.69-.16,36.69,36.69,0,0,0,4.18-.95,18.55,18.55,0,0,0,1.91-.62c.62-.24,1.25-.45,1.84-.71a41.36,41.36,0,0,0,11.6-7.46c-1.06.75-2.41,1.13-3.52,1.82A22.14,22.14,0,0,1,482.93,350.63Z"/><path class="a" d="M414,274.35a210.2,210.2,0,0,0,21,31.51c2.45,3.87,5,7.63,7.7,11.26,1.33,1.82,2.7,3.6,4.08,5.35s2.76,3.44,4.2,5a44.27,44.27,0,0,0,9.13,8c.8.52,1.62.94,2.43,1.37l1.21.53c.39.17.81.29,1.2.44a18.33,18.33,0,0,0,4.91.92c4.62.14,8.5-1.59,12.28-4.29a101.38,101.38,0,0,0,10.74-9.56A181.11,181.11,0,0,0,505,311.42c7.76-9.62,14-20.42,16-29.47-1.12,1.5-2.2,2.93-3.16,4.37.49-1.21.94-2.39,1.34-3.56s.71-2.33,1-3.45a176.83,176.83,0,0,0,9.16-19c1.39-3.29,2.52-6.34,3.48-9.38a67,67,0,0,0,2.16-8.71,37.67,37.67,0,0,0,.59-7.56,20.62,20.62,0,0,0-1-5.79,16.33,16.33,0,0,0-2.34-4.49,24,24,0,0,0-4.35-4.44,12.8,12.8,0,0,0-1.77-1.09c-.66-.29-1.28-.54-1.93-.79s-1.36-.46-2-.74a14.23,14.23,0,0,1-2.19-.95,74.42,74.42,0,0,0-10.34-3.91.28.28,0,0,0,.06.29c-1-.27-1.92-.57-2.93-.81s-2-.51-3.05-.77c-2.13-.5-4.26-1-6.4-1.39q-6.42-1.28-12.94-2c-8.58-1-17.93-1.43-25.52-.67a90.67,90.67,0,0,0-9.75,1.1,32.28,32.28,0,0,0-4.06,1c-.32.1-.64.17-.95.28l-.94.36-.94.35-.92.44a2.72,2.72,0,0,1-1.21.28,2.61,2.61,0,0,1-.94-.13,3.33,3.33,0,0,0-1.9-.24,30.6,30.6,0,0,0-8.34,3.12,26.21,26.21,0,0,0-7.52,6.26l-1-.65a19,19,0,0,1-1.6,2.6,11.12,11.12,0,0,1-.58-4.46c.06-1.54.31-3,.3-4.11s-.17-1.79-1-1.79-2.3.73-4.6,2.76h0c.23-.63.48-1.18.72-1.71l.12-.17h-.05c.29-.66.53-1.28.73-1.87s.42-1.1.57-1.63a20.3,20.3,0,0,0,.63-3.14c-.67.67-1.24,1.43-1.86,2.16l-.92,1.09-.85,1.15a1.87,1.87,0,0,0-1.08-1.31c0-.2,0-.39.06-.6a10.75,10.75,0,0,1,.7-.89l.31-.37a3.55,3.55,0,0,0-.29-1.07c.27-.63.56-1.32.9-2s.75-1.33,1.15-2c.76-1.37,1.7-2.57,2.42-3.72,1.53-2.19,2.56-3.78,1.39-3.88-1.52.18-4.34,3.34-7,7.14a4.49,4.49,0,0,0-.92.43c1.93-2.37,1.47-2.84.75-3.09s-1.65-.25-.47-1.79A67,67,0,0,1,421.64,187a69.08,69.08,0,0,1,27.95-9.87c9.45-1.27,18.77-1.13,28.56-.65.87,0,1.72.11,2.58.17a131.51,131.51,0,0,1,27.44,4.92c-.65.11-1.31.2-2,.28,7.17,2,14.48,4.23,21.87,6.8a76.8,76.8,0,0,1,13.51,6,53.28,53.28,0,0,1,12.53,9.73,43.71,43.71,0,0,1,9.07,14.52A48.7,48.7,0,0,1,566.08,236a77.9,77.9,0,0,1-2.26,17.12,123.75,123.75,0,0,1-4.9,15.52,230.42,230.42,0,0,1-13.39,28.79c4-7.94,7.52-16,11-24.27a103.91,103.91,0,0,0,4.66-11.25c-1.55,3.9-3.13,7.65-4.66,11.25-3.31,7-7.16,13.87-10.74,20.36s-6.92,12.67-9.13,18.6c-1,.85-1.34.62-2.13,1.61-5.5,7-11.72,13.36-16.06,19.87.29.29-2.49,3-1,2.64-1.34,1.39-2.71,2.87-4.21,4.28s-3,2.87-4.65,4.38a132.83,132.83,0,0,1-10.79,8.73,126.85,126.85,0,0,1-11.19,7.29,43.43,43.43,0,0,1-34.39-1.07c-1.12-.55-2.16-1-3.11-1.57s-1.93-1.07-2.81-1.63c-1.81-1.13-3.49-2.31-5.06-3.52a102.89,102.89,0,0,1-14.95-14.66A277.16,277.16,0,0,1,404,309.06a187.86,187.86,0,0,1-11.15-20.89c5.85,9.58,12.21,19.13,19.06,28.45a138.84,138.84,0,0,0,8.89,13.6c1.59,2,3.17,4,4.84,5.78.84.9,1.64,1.72,2.53,2.58s1.81,1.68,2.76,2.48c1.71,1.53,3.44,3.08,5.34,4.65-2.64-2.56-5-5.12-7.1-7.57s-4-4.68-6-7.07Q417.37,324,412,316.62c-3.32-5.71-6.42-11.72-9.47-17.6l.26.32c2.85,4.37,5.84,8.68,8.89,13,4.84,8.61,10.16,16.56,16.13,22.26.74.71,1.49,1.4,2.24,2,1.58,1.47,3.19,3,4.88,4.5q-2.16-2.31-4.1-4.55l-3.7-4.32c-2.41-2.89-4.79-5.81-7.1-8.76q-4.29-5.5-8.35-11.17c-1.41-2.54-2.81-5.12-4.15-7.73.23.23.48.47.71.66a13.18,13.18,0,0,0,5.05,3.23c2,.72,3.62.67,3.18-1.24-4.93-8.25-10.65-18.31-14.78-26.52-2.07-4.11-3.8-7.71-5-10.31a24.83,24.83,0,0,1-1.72-4.21c.49-.85,4.17,6.26,8.1,13.15s8.07,13.61,8,13l-2.06-5.1c1,1.42,2.1,2.78,3.14,4,2,3.12,4,7.62,5.93,9.38a91.32,91.32,0,0,1,8.57,10.74,93.32,93.32,0,0,0,9.08,11.31c2.23,2.15,4.73,4.41,7.45,6.75A77.82,77.82,0,0,0,452,336c.27-.29,1,.28,1.6.71s1.14.75.95.06a26.69,26.69,0,0,0,7.82,5.07c2.73,1.07,5.34,1.2,6.93.53A3,3,0,0,0,470,342l.44,0a4.43,4.43,0,0,0,1.67-.2c4.95.3,9-1.64,12.46-4.13a38.57,38.57,0,0,0,4.84-4.24c1.54-1.55,3.05-3.22,4.63-5l1.79-1.71,1.83-1.79,1.88-1.79,1.88-1.82c-1.64,1.61-4.48,3.62-5.92,5.43L494,328.4a81.3,81.3,0,0,1-9.35,7.78,28.94,28.94,0,0,1-10.11,4.67,11.72,11.72,0,0,1-2.47.95c-.27,0-.54,0-.82-.05l-.81-.14a4.72,4.72,0,0,1-.48.41l-.64,0a20.55,20.55,0,0,1-5.56-.93,26.84,26.84,0,0,1-5.37-2.42,69.84,69.84,0,0,1-9.15-6.7,65.38,65.38,0,0,1-6.77-7.49c-1.07-1.33-2.1-2.69-3.11-4.08s-2-2.79-2.95-4.22c-3.86-5.7-7.34-11.69-10.6-17.6,3.91,5.51,8,10.73,12.26,15.65-5.09-6.31-9.64-12.51-13.91-18.67l-1.63-3c-1.13-2.1-2.25-4.21-3.32-6.35.84,2.07,1.76,4.09,2.7,6.08-2.53-3.7-4.9-7.45-7.27-11.15-3-5.24-5.8-10.67-8.36-16.24a141.42,141.42,0,0,1-6.81-17.35,84.47,84.47,0,0,1-3.72-18.78,53,53,0,0,1,2-19.57c.28.62.6,1.32.92,2.06a52.57,52.57,0,0,0-.85,18,48,48,0,0,0,4.54,15.36c-.45-1.64-.8-3.16-1.21-4.6s-.72-2.84-1-4.23-.64-2.78-.83-4.25c-.11-.74-.21-1.49-.32-2.26s-.13-1.57-.18-2.4c.22,0,.54-.08.71.47a42.4,42.4,0,0,1,0-14c.29.87.69,1.77,1.06,2.66s.72,1.78,1.16,2.66c.58,2.39.37,5.81,1,9.25,1.67,14.86,6.79,28.46,13.47,41.93a237.53,237.53,0,0,0,18.3,35.34A357,357,0,0,1,414,274.35Zm15.21-74c.39-.34.78-.7,1.17-1.06s.82-.68,1.22-1a5.09,5.09,0,0,1-.55,0A4.54,4.54,0,0,0,429.21,200.32ZM451,193.1a31.89,31.89,0,0,0-11.28,2.44A45,45,0,0,0,428.85,202a.83.83,0,0,0,.1.29,92.11,92.11,0,0,1,10-5.46A51.71,51.71,0,0,1,451,193.1Zm28.83,9.15-.16-.15a1.09,1.09,0,0,1,0,.18Zm56.57,73.67c1.3-4.52,3.12-9.36,5-14.44A87.53,87.53,0,0,0,545.61,246c.7-3.09-.32-6.35-.16-10.09a23.91,23.91,0,0,0-.4-3.14c-.1-.46-.2-.91-.29-1.34l-.39-1.21a37,37,0,0,0-1.77-4.35c-.05.86,0,1.65-.14,2.5a11.59,11.59,0,0,0-3.07-6.08c-.37-.38-.73-.76-1.06-1.16s-.78-.75-1.13-1.17-.76-.85-1.16-1.32q-.28-.34-.57-.75c-.22-.25-.44-.52-.66-.8a1.86,1.86,0,0,1-2-.26c-.42-.29-.83-.6-1.22-.92s-.85-.62-1.26-.94c-.79-.66-1.72-1.26-2.56-1.87a29.51,29.51,0,0,0-2.73-1.61,14.58,14.58,0,0,0-2.82-1.08c-4.47-1.75-9.28-3.49-13.53-3.92a7.8,7.8,0,0,0-2.31,0,21.81,21.81,0,0,1-3.26.08c-2.61-.52-5.21-1-7.82-1.51.09.13.18.25.25.37,2.1.48,4.23,1,6.42,1.24,1.6.22,3.37.48,5,.76s3.28.61,4.91,1a63.63,63.63,0,0,1,9,2.68c6.63,2.69,12,5.86,15.58,9.56a22.67,22.67,0,0,1,4.39,6.2A26.18,26.18,0,0,1,543.1,235a41.72,41.72,0,0,1,.64,8.55,40.05,40.05,0,0,1-.93,7.2c-.56,2.48-1.23,5-2,7.42-.38,1.22-.74,2.42-1.1,3.59s-.74,2.33-1,3.45a34,34,0,0,0-1.23,6.14C537.27,272.5,536.21,274.53,536.37,275.92Zm7.86,20.17c2.84-6.06,5.72-12.41,8.43-18.7,1.37-3.15,2.66-6.27,4-9.35s2.48-6.22,3.6-9.24a59.35,59.35,0,0,0,2.43-10.42,50,50,0,0,0,.21-13.27c-.54-4.26-1.77-7.94-3.14-10s-2.63-2.57-3.39-1.08a10.74,10.74,0,0,1,2,2.64,17.53,17.53,0,0,1,.85,1.88,16.06,16.06,0,0,1,.72,2.22,34.68,34.68,0,0,1,1,11.38,62.61,62.61,0,0,1-2.44,13.25,105.05,105.05,0,0,1-4.76,12.93C546.63,284.64,538.05,297.26,544.23,296.09ZM450,356.15c.57.31,1.18.6,1.8.88s1.32.62,2,.9c1.35.51,2.66,1.08,4,1.47a48.46,48.46,0,0,0,8.53,1.88,50,50,0,0,0,8.71.23,39.43,39.43,0,0,1-17.2-1.88c-1.39-.43-2.72-1-4.07-1.58-.66-.29-1.36-.65-2-.95S450.55,356.48,450,356.15Zm55.6-27a65.09,65.09,0,0,1-15,14.79,39.64,39.64,0,0,1-10.33,5.16A31.56,31.56,0,0,1,468,350.54a33,33,0,0,1-8.7-2.09,31.9,31.9,0,0,1-9.34-5.76,63.76,63.76,0,0,1-7.16-7.41c-2.14-2.52-4.08-5-6-7.31-1-1.14-2-2.25-3-3.31s-2.06-2.06-3.12-3l-1,.67,1,.79c2.3,3.7,3.82,6.85,5.81,10l-.49-.46.74.87a32.45,32.45,0,0,0,5.44,6.47c.56.48,1.14,1,1.74,1.45s1.2,1,1.83,1.45a48.52,48.52,0,0,0,9.56,6.79,34.46,34.46,0,0,0,12.16,3.87,33.9,33.9,0,0,0,8.73-.29,35,35,0,0,0,4.18-1,35.45,35.45,0,0,0,3.75-1.41,41.49,41.49,0,0,0,11.7-8.05,62.63,62.63,0,0,0,8.47-9.56c1.21-1.6,2.4-3.22,3.59-4.89l3.67-5c-.85.84-2,1.86-3.08,2.87A23.63,23.63,0,0,0,505.59,329.17Z"/><path class="a" d="M423,294.47q-4.35-6.45-8.32-13.32c-2.16-3.48-4.32-6.95-6.4-10.48A123.26,123.26,0,0,1,401.73,257a106.84,106.84,0,0,1-5-15.48,81.24,81.24,0,0,1-2.25-16.85,59.7,59.7,0,0,1,2.06-17.37,2.89,2.89,0,0,0-3.38-1A52,52,0,0,0,390.12,226,83.54,83.54,0,0,0,393,244.53a152.46,152.46,0,0,0,5.62,17c2.08,5.39,4.28,10.72,6.46,16.07l.34.44c3.08,4,6.18,9.67,9.63,15.47a114.57,114.57,0,0,0,11.28,16.4c4.22,4.54,8.23,9.13,12.35,13.59s8.31,9,13.35,12.51a95.32,95.32,0,0,1-8.48-9.72c-2.57-3.37-5.12-6.72-7.5-10.17A166.13,166.13,0,0,1,423,294.47Z"/><path class="a" d="M509.91,295.61c-2.41,3.49-5,6.85-7.73,10.22-3.69,4.73-7.4,9.06-11.15,13.19-1.87,2.09-3.56,3.89-5.32,5.6a55.05,55.05,0,0,1-5.15,4.48,39.47,39.47,0,0,0,4.14-2.68c1.41-1,2.83-2.14,4.27-3.37.72-.6,1.44-1.26,2.17-1.89l2.26-2.08c1.53-1.36,3-2.83,4.47-4.23C503.47,308.76,506.62,302.2,509.91,295.61Z"/><path class="a" d="M475.32,332.35c.34-.22.77-.36,1.22-.63s.87-.46,1.32-.77l.66-.4.68-.47c.45-.29.9-.63,1.36-1a24.48,24.48,0,0,1-5.25,2.28,12.38,12.38,0,0,1-4.39.46,13.65,13.65,0,0,1-2.45-.5c-.41-.09-.78-.3-1.19-.42-.2-.08-.36-.17-.57-.26a6.77,6.77,0,0,1-.66-.33,28,28,0,0,1-5.71-4.22,85.16,85.16,0,0,1-9.78-10.24Q445.63,310,441,303.93q-9.22-12.26-17.31-25.51c-1.21-2-2.34-4.06-3.43-6.1a231.88,231.88,0,0,0,22,39.72c2.12,3.07,4.34,6,6.59,8.93a78.17,78.17,0,0,0,6.86,7.87,33.27,33.27,0,0,0,7.3,5.56,16.93,16.93,0,0,0,3.58,1.47,14.53,14.53,0,0,0,10.52-.91,28.67,28.67,0,0,0,6.53-4.37c.37-.32.79-.72,1.19-1.07-1.31.9-2.61,1.63-3.89,2.34a27.28,27.28,0,0,1-3.73,1.61c-.62.26-1.21.35-1.69.53l-.82.16a4.77,4.77,0,0,1-.83.13,14.44,14.44,0,0,1-3.35.08,16.39,16.39,0,0,1-3.52-.83l-.85-.34c-.29-.12-.51-.24-.83-.39a8.09,8.09,0,0,1-.91-.49c-.31-.18-.61-.33-.92-.54a40.25,40.25,0,0,1-7.39-6.29,36.44,36.44,0,0,0,7.69,5.91c.32.2.63.32.94.48s.62.3.92.41.54.22.83.3l.83.25a14.07,14.07,0,0,0,3.37.45A12.31,12.31,0,0,0,475.32,332.35Z"/><path class="a" d="M425.82,298.6c-.57-1-1.1-2-1.65-3-.76-1.1-1.52-2.18-2.25-3.28.34.73.69,1.46,1.05,2.17C423.93,295.86,424.84,297.26,425.82,298.6Z"/><path class="a" d="M436.55,333.11l.25.41a99,99,0,0,0,9,9.37,58,58,0,0,0,8.49,5.51c.78.43,1.59.8,2.45,1.19s1.76.73,2.64,1.07a37.26,37.26,0,0,0,5.47,1.51,35.65,35.65,0,0,1-9.52-3.63,51.91,51.91,0,0,1-7.59-5.16C443.28,339.75,439.72,336.09,436.55,333.11Z"/><path class="a" d="M470.09,364.76c1.07,0,2.68.11,4.28,0s3.2-.2,4.26-.38c1.27-.44,2.47-.83,3.71-1.38-1,.24-2,.38-2.95.52s-2,.28-3,.32c-1,.21-2.08.42-3.14.57S471.17,364.66,470.09,364.76Z"/><path class="a" d="M536.67,312.12a209.54,209.54,0,0,1-20.45,26.27c-.91,1-1.84,2-2.79,3s-1.85,2-2.87,3c-2,2-4.18,4-6.54,6a74.16,74.16,0,0,1-7.76,5.7,55.66,55.66,0,0,1-9.64,4.87l-2,1.09c-.73.34-1.4.65-2.24,1a51.36,51.36,0,0,0,14.19-5.39,65,65,0,0,0,10.5-7.31q2.28-1.94,4.26-3.9l1-1,.9-.95,1.76-1.92c1.17-1.27,2.26-2.6,3.33-3.92s2.09-2.65,3.05-4c1.58-2.1,3.37-5.74,5.11-7.63a145.77,145.77,0,0,0,19.1-29.56c-2.64,4.79-5.48,9.55-8.6,14.29Z"/><path class="a" d="M672.86,430.2c.25,1.35.48,2.63.48,2.63a2.26,2.26,0,0,0,.37-.11C673.42,431.8,673.14,431,672.86,430.2Z"/><path class="a" d="M667.77,428.46c.05.28.11.56.16.83a.94.94,0,0,1,.28-.21A6.65,6.65,0,0,1,667.77,428.46Z"/><path class="a" d="M673.73,432.72c1.37-.46,2.58-1.81,4.23-.73.27,1.46.8,4.37,1.06,5.83,1,1.32,1.54-.28,2.31-.42.27,1.46.53,2.91.92,2.84,1.18.77,1.56-.93,1.29-3.79C678.08,431,673.63,415.26,673.73,432.72Z"/><path class="a" d="M668.52,421.66c.47,2.55.93,5.11,1.4,7.67,1,.63,2.11,1.55,2.85.62A27,27,0,0,0,668.52,421.66Z"/><path class="a" d="M702.58,297.46c.09.21.06.42-1.27.63.46-.2.86-.41,1.27-.63-.08-.21-.3-.46.21-.88-1,.68-2.17,1.28-3.33,1.92l-3.58,1.92-3.82,1.74-1.94.85c-.65.27-1.32.5-2,.74-.56.63-1.1,1.25-1.58,1.86,1.64-.62,3.33-1.12,4.93-1.81l4.83-2c3.13-1.48,6.25-2.9,9.13-4.6a83.56,83.56,0,0,0,8.17-5.26q1.85-1.45,3.56-2.91c.57-.49,1.14-1,1.67-1.47l1.52-1.55c-.81.57-1.55,1.17-2.33,1.68l-2.22,1.53c-1.44,1-2.79,2-4.21,2.88s-2.78,1.84-4.26,2.73S704.29,296.57,702.58,297.46Z"/><path class="a" d="M686.26,308.2l-1.37.48C686.23,308.6,686.32,308.44,686.26,308.2Z"/><path class="a" d="M693.68,141.6a98.87,98.87,0,0,0-12.44-.9c-4.12-.09-7.82,0-11.53.31,1.92.05,3.9.2,5.89.33l3,.26,3.11.29c4.13.4,8.12.83,11.93,1.29,7.61.92,14.44,2.06,20.15,3.2A161.62,161.62,0,0,0,693.68,141.6Z"/><path class="a" d="M642.08,148.55a94.76,94.76,0,0,1,18.15-4.62c-7.36.1-13.71,1.48-17.38,3.6C642.6,147.87,642.33,148.23,642.08,148.55Z"/><path class="a" d="M647.66,144c3.32-.7,6.91-1.3,10.6-1.81s7.51-.92,11.45-1.2a78.37,78.37,0,0,0-12.35.42A32.9,32.9,0,0,0,647.66,144Z"/><path class="a" d="M783.35,245.14a72.27,72.27,0,0,1-4.52,15.27c0,.67-.09,1.46-.16,2.37a31,31,0,0,1-.4,3.14l.73-1.27c1.6-4,3.27-7.9,4.52-12l1-3.08c.33-1,.6-2.14.89-3.2s.56-2.15.8-3.24.52-2.16.71-3.25c.21-1.81.41-3.57.46-5.25,0-.84.07-1.66.08-2.44s0-1.55-.07-2.27A117.18,117.18,0,0,1,783.35,245.14Z"/><path class="a" d="M778.83,260.41c.23-5.73-.87-3.23-1.46-.59S776.6,265.41,778.83,260.41Z"/><path class="a" d="M765.89,209.51l0-1c-.12-.94-.28-1.9-.42-2.83C765.61,207,765.8,208.22,765.89,209.51Z"/><path class="a" d="M733.49,134.81A89,89,0,0,1,750,145.15a73,73,0,0,0-16.57-10.51,74.66,74.66,0,0,0-16.57-5.3c1.49.44,2.86,1.34,4.33,1.85A35.65,35.65,0,0,1,733.49,134.81Z"/><path class="a" d="M758.73,253.82l2.34-5.56c.74-1.85,1.3-3.78,1.94-5.65a73.08,73.08,0,0,0,2.67-11.43,82.32,82.32,0,0,0,.19-22.65c-.61-14.9-5.27-29.43-13.41-40.69a57.6,57.6,0,0,0-14.23-14.08,55.66,55.66,0,0,0-8.33-4.66,64.48,64.48,0,0,0-8.82-3.15c-1.3-.37-2.72-.66-4.14-1s-2.94-.71-4.52-1c-3.12-.69-6.49-1.3-10-1.88-7.08-1.16-14.92-2-23-2.74-4-.35-7.8-.59-11.51-.63a75.7,75.7,0,0,0-10.48.61,39.27,39.27,0,0,0-8.58,2.21c-.6.25-1.15.55-1.7.82l-.81.4c-.25.15-.48.32-.71.47l-1.33.93c-.38.33-.72.69-1,1,.36-.09.71-.2,1-.31s.76-.15,1.13-.25.74-.18,1.1-.28.79-.14,1.17-.23a19.06,19.06,0,0,0-2.86,1.63c-.39.31-.73.64-1.07.94l-.49.45a4.41,4.41,0,0,0-.39.49,13.11,13.11,0,0,0-4.46,4.06,16.36,16.36,0,0,0-2.3,5.91,39.75,39.75,0,0,0-.47,9.42,101.33,101.33,0,0,0,1.43,11.9c.36,2.13.78,4.33,1.23,6.59s1,4.77,1.42,7.16q1.41,7.2,2.82,14.44,2.79,14.49,5.47,29.22c1.06,5.84,3,10,4.08,15.83s2.28,11.69,3.4,17.46c.09,0,.16-.08.22-.25,4.85,23.92,9.92,47.41,15.71,72.05,2.5,11.59,4.25,23.33,6.37,35,.79,4.38-.75,4.66-.6,7.65.2,12,.25,21,1.87,34.28l-1.16.21a36.07,36.07,0,0,1,1,5.3c-5.46-5.48-9.91-21.18-9.81-3.72h0c-.3-.92-.58-1.74-.86-2.52l0-.28,0,0a27.16,27.16,0,0,0-4.24-8.29c.46,2.55.93,5.11,1.39,7.67-.62-.39-1.22-.6-1.71-.24a7.5,7.5,0,0,1-.43-.62c-.21-1.13-.38-2.09-.38-2.09a3.87,3.87,0,0,0-1-.66c-2.88-6.39-5.66-16.78-6.88-14.46-.54,1.71,1.06,6.47,2.56,11.93a10.09,10.09,0,0,0-.18,1.18c-1.71-7.22-2.69.49-3.87-3.81-1.06-5.83-2.51-11.58-3.57-17.41-4.32-23.73-8.35-43.67-13.74-66.77-.24-1-.47-2-.7-3.05-2.54-11.22-4.56-21.87-6.28-33,.4.66.78,1.35,1.15,2.07-1.37-8.95-2.91-17.89-5.12-26.7-5.52-21.58-11-43.16-15.67-66.41-1.17-6-2.49-12.34-3.37-18.89-.42-3.3-.81-6.64-.93-10.13-.12-1.71-.07-3.51-.09-5.27,0-.9.08-1.81.12-2.71l.07-1.36.14-1.39a54,54,0,0,1,2.27-11.31,46,46,0,0,1,5.32-11.19,42.34,42.34,0,0,1,3.94-5c.73-.78,1.42-1.62,2.21-2.34l2.43-2.14a24.13,24.13,0,0,1,2.57-2c.88-.61,1.76-1.25,2.67-1.81l2.78-1.54c.47-.25.93-.52,1.41-.74l1.42-.63a46.39,46.39,0,0,0-16.47,12.9A47.69,47.69,0,0,0,607,149.68a58.36,58.36,0,0,0-1.89,16.68A76.48,76.48,0,0,1,607,149.68a45.11,45.11,0,0,1,7.84-16,45.77,45.77,0,0,1,13.42-11.6A65.25,65.25,0,0,1,643,116c4.71-1.34,9.17-2.4,13.21-3.36,1.79.26,1.76.7,3.44.71,5.89.08,11.51.71,16.79,1.28l3.9.42c1.28.13,2.55.24,3.73.33,2.4.18,4.78.28,7.1.26,0-.39,4.61.37,3.22-.65a220.5,220.5,0,0,1,30.3,6.23c4.29,1.28,8.78,2.35,13.44,3.68a90.41,90.41,0,0,1,13.23,7.31,86.62,86.62,0,0,1,12,9.72,96.22,96.22,0,0,1,18.13,24.64,108.24,108.24,0,0,1,10,29.08A111.57,111.57,0,0,1,793,227.51a95.19,95.19,0,0,1-3.44,17,81.54,81.54,0,0,1-3,8.37c-1.09,2.65-2.1,5.29-3.37,7.69.37-.93.75-1.85,1.09-2.8s.63-1.91.95-2.88c.61-1.93,1.27-3.8,1.83-5.8a117.38,117.38,0,0,0,2.72-12.21,122.32,122.32,0,0,0,1.34-12.35c.18-4.13.22-8.26,0-12.37a91.23,91.23,0,0,0-2.3-23,64.33,64.33,0,0,0-7.73-19.24c-1.49-2.56-3-5.05-4.71-7.48a109.34,109.34,0,0,1,14.74,49.76,117.15,117.15,0,0,1-4.3,28.26l.07-.58a111.61,111.61,0,0,0,2.1-22.27c1.09-13.92-1-27.55-5.84-38.1-.59-1.31-1.26-2.59-1.9-3.8s-1.36-2.54-2-3.8l-2.16-3.73a106,106,0,0,1,10.15,30A111.41,111.41,0,0,1,789,217.56a101.75,101.75,0,0,1-1.63,12.31c0-.45,0-.93-.08-1.34a19,19,0,0,0-1.86-7.73,4.89,4.89,0,0,0-1.8-2.32c-.59-.27-1.09.06-1.5,1.31a109.59,109.59,0,0,1-3.51,20.63c-.45,1.75-1,3.46-1.55,5.17s-1.21,3.28-1.8,4.89c-1.13,3.24-2.63,6.18-3.89,9s-2.8,5.29-4,7.59l-3.62,5.76c-1,1.62-2,2.8-2.6,3.64a6.86,6.86,0,0,1-1,1.25c-.58.07.65-2.09,2.6-5.45.92-1.72,2-3.73,3.24-5.88s2.25-4.61,3.41-7,2-4.88,3-7.17l2.11-6.33c.57-1.85,1-3.42,1.2-4.43s.29-1.53.18-1.35c-.42,1.16-.91,2.3-1.39,3.44s-1,2.26-1.5,3.35a52.6,52.6,0,0,0,1.3-6.6c.55-2.41,1.31-5.17,1.82-7.78a26,26,0,0,0,.7-6.71c-.34-5.78-.37-11.74-.88-17.88a69.79,69.79,0,0,0-3.78-18.36,81.2,81.2,0,0,0-13.68-22.49c-.35.21-1-.73-1.58-1.44s-1.08-1.29-1-.46a51.36,51.36,0,0,0-8-9.64c-2.84-2.66-5.77-4.3-7.79-4.52-.16-.12-.34-.21-.5-.31a11.9,11.9,0,0,0-2-1.1,44.68,44.68,0,0,0-16-7.75,116,116,0,0,0-16.79-2.8c-4.1-.78-8.32-1.48-12.7-2.24,2.88.48,7,1.69,9.89,1.93l2.81.31c10.59,2,20.51,4.48,29.46,9.31a31.59,31.59,0,0,1,3.28,1.24l1.72,1.4a4.6,4.6,0,0,1,.74,0,58.34,58.34,0,0,1,11.65,10.05,101.84,101.84,0,0,1,8.86,11.6,66.52,66.52,0,0,1,8.54,23.82,88.2,88.2,0,0,1,.29,25.59,85.61,85.61,0,0,0-2.59-24.37,92.42,92.42,0,0,1,1.93,28.62c-.13.71-.25,1.41-.38,2.11l-.45,2.09c-.29,1.46-.71,2.89-1.06,4.34s-.83,2.87-1.32,4.27c.55-1.28,1-2.6,1.46-3.91s.84-2.63,1.19-4c-.19,1.39-.46,2.76-.69,4.14s-.55,2.75-.9,4.1c-.62,2.73-1.53,5.34-2.33,8A98.51,98.51,0,0,1,753.7,268l-3.39,4.76-3.71,4.54c-.6.77-1.27,1.48-1.94,2.19l-2,2.15c-1.31,1.47-2.74,2.8-4.17,4.14a115.78,115.78,0,0,1-18.59,14.35A129.77,129.77,0,0,1,699,310.61c.38-.65.85-1.35,1.36-2.1A122.14,122.14,0,0,0,719.49,298a70.91,70.91,0,0,0,14.75-13.13c-3.23,2.69-5.88,5.08-8.68,7.24-1.38,1.11-2.74,2.23-4.26,3.25s-3,2.17-4.79,3.21c-.11-.2-.34-.44.17-.9a94,94,0,0,1-14.81,8.81c1.32-1.7,2.83-3.45,4.22-5.33a39.15,39.15,0,0,1,4.38-3.1c1.66-1.14,3.53-2.28,5.3-3.58A134.83,134.83,0,0,0,737.18,277a91.89,91.89,0,0,0,16.18-21.71c1-1.75,2.13-3.46,3-5.29s1.91-3.58,2.63-5.47l1.18-2.79c.4-.93.79-1.86,1.11-2.81.69-1.89,1.27-3.81,1.81-5.74a80.44,80.44,0,0,0,2.8-23.72,87.47,87.47,0,0,1-.82,23,72.32,72.32,0,0,1-2.61,10.87c-.27.89-.55,1.77-.83,2.66l-.41,1.33c-.15.43-.33.86-.49,1.29ZM665,388.68c-.43-1.47-.9-3-1.39-4.48,0,.25-.08.5-.14.74A10.44,10.44,0,0,0,665,388.68Zm-5.83-34.17c1.15,10.13,4.44,23.15,7.35,35.77a.57.57,0,0,0,.32.06C665.21,379.6,661.88,366.63,659.13,354.51Zm.71-41.43-.08.26.17,0ZM628.28,143.65a35.39,35.39,0,0,0-2.7,7,40.22,40.22,0,0,0-1.39,8.25,74.41,74.41,0,0,0,1.43,19.5c.56,4.19,2.86,8,3.94,13.93,1.71,7.22,3.28,11.45,4.72,17.22l0-4.52c1.48,10.28,4.85,15.69,5.94,26,.38-.07,1.42,1.24,1.68,2.7,1.71,7.22,2.27,14.65,4.1,20.34,1.71,7.22,3,14.5,4.87,20.2.27,1.46,1.95,4.16,2.87,7,.8,3.53,1.55,7.07,2.3,10.61.08-.18.15-.35.23-.5-.51-2.9-1.09-5.83-1.88-8.72-2.36-8.61-5-18.67-7-27.34-4.75-21.74-10-41.87-15.26-62-.58-2.14-1.28-4.3-2-6.4s-1.32-4.11-1.83-6.14a72.51,72.51,0,0,1-2.73-18.51,63.63,63.63,0,0,1,.37-7.88c.07-.58.13-1.15.17-1.72s.17-1.06.23-1.59c.07-1.07.28-2,.34-2.93C626.9,147,628.12,145,628.28,143.65Zm4.11-23.57a48.24,48.24,0,0,0-12.52,9.27,43,43,0,0,0-8.56,13.17,53.73,53.73,0,0,0-3.61,14.14,92.51,92.51,0,0,0-.56,13,84.76,84.76,0,0,0,1.73,12.84c.5,2.46,1.11,5,1.77,7.41s1.35,4.78,2.06,7c2.81,8.9,5.8,15.5,7.58,12.17-2.75-3.24-5.24-10.84-7.52-20.35a115.78,115.78,0,0,1-2.66-15.92,72.66,72.66,0,0,1,.44-17.7,42.49,42.49,0,0,1,15.75-27.16c1.58-1.21,3-2.34,4.16-3.14a31.32,31.32,0,0,0,2.72-2.2C634.39,121.41,634.35,120.52,632.39,120.08Zm132.82,27.09a104.93,104.93,0,0,0-8.63-7.92,122.85,122.85,0,0,0-10-7.48A83.76,83.76,0,0,1,765.21,147.17ZM696.6,128.91a101.47,101.47,0,0,1,30,5.62,77,77,0,0,1,27.19,16.61c6,5.61,10.62,12.94,14.09,20.41,1.75,3.75,3.25,7.53,4.65,11.23s2.65,7.32,4,10.79l1.16-.22c-.22-.51-.45-1-.7-1.53a121,121,0,0,0-3.1-15.07l.4.77-.59-1.37a40.73,40.73,0,0,0-4.42-9.67l-1.55-2.28L766.07,162A75.24,75.24,0,0,0,744,139.59a72.07,72.07,0,0,0-27.13-10.25c-10.81-2.09-20.06-1.69-30.51-2.17C689.24,127.62,693.59,128.74,696.6,128.91Z"/><path class="a" d="M768.92,228.37A82.89,82.89,0,0,1,767.2,238c-.17.81-.4,1.6-.62,2.4s-.41,1.61-.7,2.39q-.79,2.35-1.61,4.72c-.34,1.25-.85,2.43-1.3,3.64l-1.38,3.63c-1,2.37-2.1,4.72-3.2,7.09L756.06,266c-.41.68-.78,1.39-1.23,2l-1.35,2c-.93,1.32-1.82,2.69-2.83,4s-2.06,2.56-3.11,3.84A108.33,108.33,0,0,1,733,291.93l-2,1.63L729,295.09c-1.39,1-2.74,2.07-4.17,3L720.53,301c-1.42,1-2.93,1.78-4.39,2.68-2.91,1.81-6,3.31-8.95,4.94l-4.57,2.19c-.76.36-1.51.75-2.28,1.09l-2.3,1a2.69,2.69,0,0,0,1.39,3.26,111.94,111.94,0,0,0,20.21-9.38,122.93,122.93,0,0,0,18.22-13,134.79,134.79,0,0,0,28.78-34.58c.08-.23.17-.46.25-.68.49-1.58,1-3.26,1.68-5,.3-.88.67-1.75,1-2.67l.91-2.84A105.72,105.72,0,0,0,774,235.61a86.09,86.09,0,0,0,1.89-13.22,63.71,63.71,0,0,0-.48-12.63,120.43,120.43,0,0,0-5.94-22.69,74.87,74.87,0,0,0-11.07-19.95,87,87,0,0,1,11.08,29.73A80.82,80.82,0,0,1,768.92,228.37Z"/><path class="a" d="M660.23,143.93a127.67,127.67,0,0,1,15.49.73l5.85.51,5.73.52c3.73.36,7.33.71,10.78,1.14a135.36,135.36,0,0,1,19.55,3.63c-8.75-3.27-18.59-5.3-29.1-7a99,99,0,0,0-28.3.51Z"/><path class="a" d="M727.28,153.83a79.86,79.86,0,0,0-9.65-3.37,75.88,75.88,0,0,1,9.22,4.19,53,53,0,0,1,8.08,5.38,59.17,59.17,0,0,1,13,14.8,74.47,74.47,0,0,1,11.67,32.11,76.13,76.13,0,0,1,.65,8.82,80.3,80.3,0,0,1-.31,8.9,75.23,75.23,0,0,1-3.62,17.57,69.24,69.24,0,0,1-3,7.71,85,85,0,0,0,3.68-7.71,64,64,0,0,0,2.94-7.95A78.83,78.83,0,0,0,758.6,185a62.71,62.71,0,0,0-17.18-25.74,51,51,0,0,0-12.08-7.9,61.59,61.59,0,0,0-13.4-4.49l-2.15-.44c8.47,2.7,16.18,6.39,22.58,11.54a62.31,62.31,0,0,1,16,19.41,62.2,62.2,0,0,0-11-14,52.15,52.15,0,0,0-14.1-9.55Z"/><path class="a" d="M769.41,222.12c-.22,1.43-.38,2.85-.66,4.25-.13,1.67-.34,3.3-.56,4.93.24-1,.49-2,.73-2.93s.2-2.09.31-3.13Z"/><path class="a" d="M773.87,176.75l-.19-.6A94.87,94.87,0,0,0,766.07,162,92.16,92.16,0,0,0,750,145.15a86.5,86.5,0,0,1,7.7,7.48,96.44,96.44,0,0,1,6.5,8.1A137.1,137.1,0,0,1,773.87,176.75Z"/><path class="a" d="M752.13,131.79l-1.4-1.06-1.74-1.2c-1.2-.83-2.41-1.64-3.22-2.11-1.11-.4-2.2-.8-3.3-1.17,1.5.92,3,1.85,4.49,2.84C748.69,130,750.46,130.8,752.13,131.79Z"/><path class="a" d="M656.23,112.66a149.17,149.17,0,0,1,21.57.28c1.72.12,3.36.28,5,.42l4.8.44c3.2.29,6.46.63,9.73,1a190.49,190.49,0,0,1,20.08,3.33,114.44,114.44,0,0,1,20.7,6.78l4.32,1.33a95.46,95.46,0,0,0-27.21-10.56,119.71,119.71,0,0,0-13-2.19c-4.2-.46-8.25-.71-12.16-.79-3.1-.09-7.63.4-10.8,0a119.23,119.23,0,0,0-22.9-.55l-3,.28c-1,.09-2,.27-3,.41-2,.25-4,.72-6,1.14a60.55,60.55,0,0,0-12.13,4.22c1-.42,1.94-.85,2.91-1.23l2.93-1c.48-.16,1-.34,1.47-.48l1.46-.38,2.93-.74a88.68,88.68,0,0,1,11.57-1.63Z"/><path class="a" d="M1004.47,136.08l-.1-.49-.38.08A4.37,4.37,0,0,0,1004.47,136.08Z"/><path class="a" d="M1009.17,135.66l0-.16a2.8,2.8,0,0,1-.31.09Z"/><path class="a" d="M1004,135.68a20.84,20.84,0,0,1-4.22.81c0-.27-.15-.81-.21-1.08a6.72,6.72,0,0,0-2.3.45c0-.27-.11-.54-.49-.46-1,0-1.65.44-1.79,1C999.5,136.73,1001.61,139.39,1004,135.68Z"/><path class="a" d="M1007.48,137.23c-.09-.47-.18-.95-.28-1.42a8,8,0,0,0-2.68.31A5.84,5.84,0,0,0,1007.48,137.23Z"/><path class="a" d="M1030.66,247c.24,0,.37,0,.07.27a2.13,2.13,0,0,0-.07-.27c-.22,0-.53.12-.7,0a10.85,10.85,0,0,1,1.58,2.92l1.31.16c-.74-2.6-1.26-5.24-3.73-7C1029.42,244.63,1030.3,245.55,1030.66,247Z"/><path class="a" d="M1035.21,249.86c0,.09,0,.17.07.26C1035.57,249.82,1035.45,249.81,1035.21,249.86Z"/><path class="a" d="M1017.33,204.45c-.65-1.56-2.26-2.73-3.83-3.93,1.69,2.86,2.85,5.9,4.78,8C1017.92,207.15,1017.59,205.81,1017.33,204.45Z"/><path class="a" d="M1007,194.31c-.32,2.16,1,3.64,2.58,5-.67-1.54-1.31-3.09-1.92-4.63Z"/><path class="a" d="M1009.87,196.09c.34,1.85,2,3.15,3.63,4.43A16.25,16.25,0,0,0,1009.87,196.09Z"/><path class="a" d="M1052.29,225.77a8.05,8.05,0,0,1,2.19,2c.57.08,1.28.19,2.17.36l-.05-.21q-1.39-1.68-2.64-3.44a9.4,9.4,0,0,0-1.93-1.13A20.87,20.87,0,0,0,1052.29,225.77Z"/><path class="a" d="M1054.48,227.81c-4.9-.69.8,1.54,0,0Z"/><path class="a" d="M1028.83,224.66c0-.06,0-.12,0-.18s-.24-.33-.37-.49C1028.56,224.22,1028.7,224.43,1028.83,224.66Z"/><path class="a" d="M1036.76,207.5a17.7,17.7,0,0,0,1.42,3,17.69,17.69,0,0,0-3.15-5.78c0,.27-.28.62-.23.89C1035.68,206,1036.6,206.68,1036.76,207.5Z"/><path class="a" d="M1034.05,232.39a69.16,69.16,0,0,0-5.26-7.91c-1.25-5.64-3.23-10.93-7.33-15.23-3.92-3.72-4.63-11.43-11.62-14.55a4,4,0,0,0,0,1.39,12.11,12.11,0,0,0-2.18-1.44,116.87,116.87,0,0,1-6.34-21c-.21-1.08-1.53-1.67-1.74-2.75s-.56-2.14-.85-3.2a.75.75,0,0,0-.25.09,85.26,85.26,0,0,0-5.13-12.94c-.8-2.09-.84-4.33-1.26-6.49-.16-.81,1.37-1.11,1.65-1.72,1.5-2.54,2.72-4.46,3-7l1.15-.22a1.36,1.36,0,0,1-.18-1c4.53.32,6.65,3,9-.73h0c.16.14.32.28.48.4v.05h0a5.84,5.84,0,0,0,3,1.11c-.09-.47-.19-1-.28-1.42a6.42,6.42,0,0,0,1.64-.22l.33.07.07.38a7,7,0,0,0,.92,0c1.89.92,3.13,2.71,4.65,2,.77-.45-.12-1.22-.81-2.15a2.54,2.54,0,0,0,.34-.28c.65,1.28,2.69-.53,3.23.21.21,1.08.81,2.08,1,3.16a46.34,46.34,0,0,0,4,12.13c.09.18.16.36.25.54a16.7,16.7,0,0,1,1.45,6.07c-.29-.08-.56-.17-.82-.26a10.15,10.15,0,0,0,1.22,4.91c2.33,3.75,4.66,7.5,5.88,11.74a67.39,67.39,0,0,0,5,13,21.08,21.08,0,0,1-3-5.31,19,19,0,0,0-.52-2.56,9.18,9.18,0,0,0,.52,2.56c.5,3.36.7,6.87,4.81,8.73-.27.34-.65.41-.6.68.37,1.89.35,3.86,2.21,5.18.38-.08.54.73,1.26.31.7,1.55,1.07,3.44,2.15,4.91a5.6,5.6,0,0,0,2.3,1.73c3.19,5.4,6.38,10.72,9.55,16.59a22.76,22.76,0,0,1,1.35,4.84,59.38,59.38,0,0,1-4.69-6.47c-.18-2.4-.62-4.65-3-6.11-.45-.36-.88-.72-1.29-1.09,1.36,2.44,2.74,4.86,4.24,7.2a40.49,40.49,0,0,0,.37,4.28l-.09-.06q-1.07-1.5-2-3c-.16-2.14-.53-4.15-2.25-5.6a6.87,6.87,0,0,0-.71-.52c-.45-.35-.87-.72-1.28-1.08.84,1.5,1.69,3,2.56,4.47.55.92,1.1,1.83,1.68,2.73,0,.63.07,1.26.11,1.9a3.27,3.27,0,0,0-.33-.14c-.49-.46-5.3-1.1-6.29-.06.91,4.14,3.87,9.62,3.49,9.69-1.49.57-4.89-6.16-5.23-5.82a12.26,12.26,0,0,0-.2,1.29,11.86,11.86,0,0,0-1.21-.9c-.55-.73-.37-1.89-1.25-2.28-2.67-1.44-2.33-3.75-4.28-5.61-1.42-1.13-3.27-2.45-5.12-3.77-.77.15-.55-.73-1.26-.31-.3-1.53-.65-3.29-3-3.51l-.09-.09c0-.11-.18-.24-.38-.37-.1-2.61-2.58-4-4.51-6a10.16,10.16,0,0,1-.79-2.35c.1.54-.12,1.42.36,1.89.14.16.29.31.43.46a40.67,40.67,0,0,0,3.53,5.49,9.92,9.92,0,0,1,1,.49,3.23,3.23,0,0,1,0,.44l.47,0c1.46,1.65,2.27,3.69,3.71,5.05,1.9,2.74,1.88,6.07,2.25,9.17-.94-1.4-1.93-2.76-3-4.09,1,1.71,2,3.32,3.06,4.87,0,.27.08.52.13.78l.32,1.62c.07-.53.1-1.06.12-1.58.64.92,1.3,1.83,2,2.71a39.82,39.82,0,0,1,5.35,16.07c-.49,0-1,0-1.46-.1-.75-2.59-1.26-5.24-3.74-7,.3,1.53,1.18,2.45,1.55,3.91-.22,0-.54.12-.7,0a10.85,10.85,0,0,1,1.58,2.92c-1.07-.15-2.12-.34-3.19-.53-.87-.39-1-1.2-1.57-1.94-1.35-3.37-1.8-6.71-3.4-10-.46-3.11-.91-6.21-1.57-9.21A71.5,71.5,0,0,0,1034.05,232.39Zm-27.75-88.67a10,10,0,0,0,.72.74l.24-.18C1007.21,144,1006.8,143.83,1006.3,143.72Zm.87,6.39c.3-2-1.06-4.25-2.12-6.49a1.39,1.39,0,0,0-.3,0C1004.78,145.7,1006.2,148,1007.17,150.11Zm-6.53,9,.12-.07-.18,0Zm18.67,30.52c-2.34-1.79-2.87-4.49-4.17-7-.15-.81-1.85-1.32-2.06-2.4-.64-1.28-1.57-1.94-2.17-2.94l-.61,1c0-2-2.5-2.6-2.1-4.64-.38.08-1.2,0-1.26-.31-.64-1.28-.14-2.78-1.12-3.71-.65-1.28-.91-2.63-1.89-3.56,0-.27-1.31-.58-1.8-1.05-.29-.63-.51-1.27-.75-1.9l-.29.14a3.58,3.58,0,0,0,.6,1.57,28.22,28.22,0,0,1,2.93,4.75,61.35,61.35,0,0,0,6.11,10.87c.54.73,1.46,1.39,2,2.13,2,2.13,2.21,5.18,5.22,6.27C1018.38,188.94,1018.49,189.48,1019.31,189.6Zm17.24-.24a14.9,14.9,0,0,1-3.76-8.29c-.42-2.16-3.94-7.92-8.33-5.94C1033.35,176.17,1028.11,193,1036.55,189.36ZM1048,210.51a7.61,7.61,0,0,1-1.84-3.28C1046.8,208.32,1047.4,209.42,1048,210.51Zm-17.89-8.45c3.37,3,4.5,6.69,6.72,9.91,1.68,2.47.34,5.82,3.5,7.72l1.15-.22-.43-.2a16.77,16.77,0,0,1,.67-2.73l.13.12a2.4,2.4,0,0,1-.11-.23,2.09,2.09,0,0,0-.39-1.7l-.7-.78c-1.34-3.25-2.62-6.61-5.63-9.2-1.52-1.67-3.76-2.91-5.28-4.58C1029.85,200.71,1029.63,201.6,1030.12,202.06Z"/><path class="a" d="M1034,227.23c.7,1.07,1.37,2.16,2,3.27.65.82,1.33,1.63,2.07,2.43,2.9,3.94,3.2,9.14,5,13.61a13.35,13.35,0,0,0,3.47-.69c.26-5.3-2.78-10-3.13-15.14l-.15-.09c-2.72-1.71-2.64-5.37-5.09-7.7-2.83-2.25-4.13-4.8-6.57-7.13C1032.37,219.7,1033.92,223.25,1034,227.23Z"/><path class="a" d="M1009.61,199.28c.43,1,.87,2,1.33,3.06A50.83,50.83,0,0,0,1016,210c-.58-1.95-1.1-3.92-1.49-5.93C1013.72,202.13,1011.45,200.8,1009.61,199.28Z"/><path class="a" d="M1017.61,212c-.56-.66-1.08-1.31-1.6-2,.88,2.89,1.91,5.72,3,8.54,2.5,4.49,4.8,9,7.76,13.42a15.11,15.11,0,0,1,.83,1.52c-1.31-9-2.61-18-8.93-24.61-.13-.12-.25-.26-.37-.39,1,3.55,2.22,7,3.52,10.45C1020.5,216.59,1019.14,214.26,1017.61,212Z"/><path class="a" d="M1033.3,226.19c0,.26.07.52.11.78l.57.82v-.56C1033.75,226.88,1033.54,226.53,1033.3,226.19Z"/><path class="a" d="M1041.73,216.54s0-.07,0-.11c-.39-.81-.75-1.64-1.09-2.48a22,22,0,0,1-2.48-3.42C1039.08,212.78,1040,215,1041.73,216.54Z"/><path class="a" d="M1049.47,207.25c0-.27-.16-.8-.21-1.08l-.79-.35c0,.25,0,.52.07.78Z"/><path class="a" d="M1040.15,192.53c2.43,4.49,4.87,8.67,7.32,12.81l1,.48a12.23,12.23,0,0,0-4.08-8.23c-.49-.46-1.8-1.05-1.9-1.59a28.94,28.94,0,0,0-4.14-6.89c.55,1.09,1.12,2.2,1.75,3.32A.93.93,0,0,0,1040.15,192.53Z"/><path class="a" d="M1012.8,54.93l-.38.14.14.36C1012.65,55.25,1012.73,55.09,1012.8,54.93Z"/><path class="a" d="M1011.64,50.37l-.13,0c0,.1.09.19.13.29C1011.64,50.59,1011.63,50.48,1011.64,50.37Z"/><path class="a" d="M1012.56,55.44a27.42,27.42,0,0,1,1.46,4l-.76.29a9.5,9.5,0,0,0,.83,2.19c-.18.07-.36.13-.21.5.23,1,.71,1.55,1.11,1.66a30.36,30.36,0,0,1-.28-5.21A3.77,3.77,0,0,0,1012.56,55.44Z"/><path class="a" d="M1013.26,51.88l-1.17.4a10,10,0,0,0,.73,2.6A6.65,6.65,0,0,0,1013.26,51.88Z"/><path class="a" d="M980.38,46.9c-.18.16-.28.23-.16-.16l.16.16c.17-.15.4-.38.57-.4a10.55,10.55,0,0,1-1.29-.52,5.44,5.44,0,0,1-1.13-.82l-1.2.51c1.54,1.69,3.25,3.4,6,3.07a6.24,6.24,0,0,0-1.46-.92A4.44,4.44,0,0,1,980.38,46.9Z"/><path class="a" d="M975.33,47l-.17-.19C975,47.15,975.14,47.09,975.33,47Z"/><path class="a" d="M1012.64,53.09a3.33,3.33,0,0,0,1.35-1.48,12.6,12.6,0,0,0,.9-2.21c-1.61,1.69-3.62,2.65-5.13,4.32Z"/><path class="a" d="M1016.92,43c-1.29-.14-1.66,1.06-2.07,2.64.75-.66,1.46-1.33,2.12-2C1017,43.41,1017,43.2,1016.92,43Z"/><path class="a" d="M1016.83,45.74a2.53,2.53,0,0,0-1.14,1.37c-.28.68-.53,1.46-.8,2.29a7.23,7.23,0,0,0,1.19-1.61A6.65,6.65,0,0,0,1016.83,45.74Z"/><path class="a" d="M980.46,77.9a10.08,10.08,0,0,1-3.86,0c-.5.35-1.15.76-2,1.25l.28.16,3,.46,3,.4a8.77,8.77,0,0,0,2.6-.7C982.43,79,981.46,78.38,980.46,77.9Z"/><path class="a" d="M976.6,77.88c2.13-1.5,1.54-1.68.73-1.39S975.42,77.52,976.6,77.88Z"/><path class="a" d="M994.94,59.2l.16,0,.55-.1Z"/><path class="a" d="M1008.77,72.17c-1.25.19-2.51.51-3.78.82a15.24,15.24,0,0,0,7.11-2.27c-.3,0-.66-.33-1-.3A3.41,3.41,0,0,1,1008.77,72.17Z"/><path class="a" d="M986.19,59.28a23.61,23.61,0,0,0,8.91,0,17.28,17.28,0,0,0,7.42.64,11.82,11.82,0,0,0,6.5-3.13c1.58-1.65,3.68-2.6,5.53-4.13a8,8,0,0,0,3.13-7,1.54,1.54,0,0,0-.85.11,8,8,0,0,0,.14-2.12,48.08,48.08,0,0,0,3.84-4.5c.56-.72,1.06-1.46,1.56-2.15.27-.34.46-.72.73-1l0-.06,0,0h0l.15.11.3.24.62.47,2.48,1.85,1.67,1.23c2.16,1.55,3.21,2.27,4.32,3,.44.3,1,.6,1.33.81l.58.33.5.27c.37.18.59.3.91.43s.54.22.72.29a3.8,3.8,0,0,0,1.62.33h0l-.17,0h.07l.11,0s0,0-.16.11a5.31,5.31,0,0,0-1.37,1.77,17.35,17.35,0,0,0-1.38,3.63l0-.1a28,28,0,0,0-.79,4.05l-.07.69-.73,8.91h-.06l-.14,0-.53.08a17.36,17.36,0,0,0-2.11.48,18.58,18.58,0,0,0-4.09,1.73c-1.26.51-2.59.31-3.88.56-.48.09-.79-1.43-1.21-1.74-1.76-1.62-3.25-2.86-5.1-3.09l-.36-1.12a.73.73,0,0,1-.67.22,29.26,29.26,0,0,1,0-5.25,3.66,3.66,0,0,0-2.06-3.54h0c.1-.16.19-.33.27-.49h0l0,0a6.7,6.7,0,0,0,.61-3l-1.23.36a7.21,7.21,0,0,0-.4-1.6l0-.33.35-.11c0-.31-.07-.61-.12-.91.65-1.94,2.32-3.27,1.58-4.75-.49-.74-1.22.18-2.07,1a3.17,3.17,0,0,0-.31-.32c1.22-.74-.75-2.63,0-3.24,1.1-.3,2.12-1,3.25-1.2,4.59-1,8.42-1.86,13.09-3.18l.62-.15a15.25,15.25,0,0,1,6.72-.07c-.17.26-.33.5-.5.73l.66.13.87.15,1.85.37a19.49,19.49,0,0,1,4.65,1.54,9.37,9.37,0,0,1,3.55,3.16,10.34,10.34,0,0,1,1.2,2.51,10.52,10.52,0,0,1,.48,2.76,13,13,0,0,1-.67,4.55,23.91,23.91,0,0,1-1.15,2.87l-.46,1-.42.87c-.3.57-.59,1.17-.94,1.72a21.74,21.74,0,0,1-2.35,3.18,115.24,115.24,0,0,1-12.35,11.69,66.07,66.07,0,0,1,5.2-5.24,16.7,16.7,0,0,0,2.57-1.86,20.05,20.05,0,0,0-2.57,1.86c-1.75,1.08-3.61,2-5.21,3.16a12.17,12.17,0,0,0-2.19,2.06,11.41,11.41,0,0,0-1.65,2.91c-.45-.17-.59-.54-.91-.41-1.13.46-2.34.7-3.42,1.17a6.81,6.81,0,0,0-3,2c.09.39-1,.61-.45,1.3-2.06.86-4.59,1.29-6.75,2.27a9,9,0,0,0-2.84,2.14,58.19,58.19,0,0,1-27.21,1.44c-.6-.14-1.21-.32-1.82-.51s-1.21-.46-1.82-.71-1.2-.53-1.78-.81L975,81.6c3.79.59,7.54,1,11.27,1.3,3.19,1.44,6.61,2.22,9.64.76.69-.26,1.36-.51,2-.74a77.06,77.06,0,0,1-11.67,0c-.95-.4-1.89-.87-2.82-1.35l-2.78-1.38.14,0c1.67.23,3.35.36,5,.52,2.75,1.24,5.61,2.12,8.33,1.23a6.09,6.09,0,0,0,1-.39l2-.7q-3.45.22-6.95.1c-1.46,0-2.88-.16-4.36-.24-.8-.38-1.59-.81-2.39-1.22a2.59,2.59,0,0,0,.38-.17,6.36,6.36,0,0,0,2.49-2c.91-1.08,1.61-2.36,1.33-3.1-2.51-.91-5.64-1.81-8.1-2.73s-4.29-1.69-4.17-1.86c.29-.73,2.66-.25,4.91.17,1.14.18,2.24.41,3.06.5s1.35.11,1.31,0c-.37-.37-.74-.71-1.12-1a10.7,10.7,0,0,0,1.63-.34,5.67,5.67,0,0,1,1.53.44,1.82,1.82,0,0,0,1.43,0,7.38,7.38,0,0,1,3.9-.54,9.06,9.06,0,0,0,3.81-.22c.87-.41,1.82-.91,2.76-1.45s1.91-1.23,2.81-1.88c.1-.76.86-.3.68-1.1a5.53,5.53,0,0,0,2.26-.09,2.65,2.65,0,0,0,1.64-1.94l.1-.06c.1,0,.24-.12.39-.29a3.62,3.62,0,0,0,3-1.05,15,15,0,0,0,1.26-1.26c.4-.48.8-1,1.22-1.4a9.18,9.18,0,0,1,1.92-.7c-.45.09-1.17-.15-1.54.31L1012,58c-.81.39-1.6.9-2.41,1.38s-1.64,1-2.5,1.45a7.51,7.51,0,0,1-.59.88,1.86,1.86,0,0,1-.39-.1c0,.16-.07.31-.1.45a11.25,11.25,0,0,1-2.78,1.17c-.47.15-1,.3-1.41.47a8.21,8.21,0,0,0-1.34.55c-3.17.86-6.25-.66-9-2a19.9,19.9,0,0,0,2.45-.2,18.64,18.64,0,0,0,2.37-.42c-.94.1-1.86.16-2.77.2s-1.83.06-2.76.09l-.71-.31L988.6,61a14.25,14.25,0,0,0,1.19,1c-1.1,0-2.24,0-3.38,0a22.76,22.76,0,0,1-15-9.27l1.34-.62c2,2,4.12,3.94,7.12,3.72-1.16-1-2.44-1.16-3.56-2.19.16-.15.38-.39.57-.41a8.2,8.2,0,0,1-2.9-1.63l3-1.19c.91-.14,1.45.39,2.26.64,2.78,1.77,5.12,3.78,8.3,4.57a28.77,28.77,0,0,0,7.41,3.62C992,59.38,989.18,59.36,986.19,59.28Zm32.64-6.43c.19-.21.38-.45.57-.7l-.16-.25C1019,52,1018.89,52.36,1018.83,52.85Zm5.22-.52c-1.61-.5-3.5.74-5.22,1.76a2.34,2.34,0,0,0,0,.3C1020.5,54.37,1022.25,53.09,1024.05,52.33Zm6.18,7.71,0-.12v.18Zm-5.7-6.46c.59-2.57,2.3-3.81,3.41-5.77.49-.42-.09-2,.46-2.53.46-1,.24-1.94.46-2.74l-1-.11c.59-.33.54-1,.49-1.69a2.57,2.57,0,0,1,0-.89.26.26,0,0,0,0-.09h0l.19.13c.42.31.85.61,1.29.92l1.08.75.9.61.83.54.73.45.62.36.59.33c.18.11.38.21.58.31a6.87,6.87,0,0,0,3.1,1h.07l-.17,0h.06c.07,0,.15-.05.12,0h0l-.08,0s-.13.09-.2.15a7.8,7.8,0,0,0-1.77,2.73,22.31,22.31,0,0,0-1.3,4.41,28.54,28.54,0,0,0-.41,2.84v.1l-.37,4.47h0l-.09,0-.17,0-.35.07-.7.12,0,.31a1.71,1.71,0,0,0,1.14-.21l.11-.07.42-4.91,0-.49c0-.44.11-.85.19-1.4a32.17,32.17,0,0,1,.76-3.33,18.23,18.23,0,0,1,1.15-2.9A6.89,6.89,0,0,1,1038,45.5c.39-.39.59-.4.36-.33.22-.05-.16.06-.85-.13a13.22,13.22,0,0,1-3.53-1.6l-.7-.42-.77-.48c-.66-.42-1.14-.75-2-1.36l-1.28-.91-1.57-1.14a.16.16,0,0,1,.06.13,36.72,36.72,0,0,1-.75,4.21,22.24,22.24,0,0,1-.17,2.3,8.05,8.05,0,0,1-1.25,2.95,5.17,5.17,0,0,0-.77,3.39C1024.71,52.56,1024.33,52.78,1024.53,53.58ZM1029.82,70a32.87,32.87,0,0,1,7.8-7.37,7.85,7.85,0,0,0,1.74-2,9.92,9.92,0,0,0,1.39-3.08,5.77,5.77,0,0,0,0-3.19,4,4,0,0,0-2-2.37,5,5,0,0,1,.71,2.88,6.51,6.51,0,0,1-1,2.74,17.75,17.75,0,0,1-4.7,4.55L1031.27,64q-.57.44-1,.87a6.77,6.77,0,0,0-.84.86C1028.47,66.88,1028.32,68.24,1029.82,70ZM1002,82.48c.83-.22,1.64-.49,2.46-.67a13.39,13.39,0,0,1,2.57-.31c-.82.23-1.65.37-2.49.55S1002.86,82.38,1002,82.48Zm13.16-16.63a10.85,10.85,0,0,1-2.5,2.13,16.42,16.42,0,0,1-2.84,1.43c-1,.42-2,.67-3,1s-2.05.56-3.09.92a10.57,10.57,0,0,1-4.81-.17,11.94,11.94,0,0,0-2.38-.19,6.38,6.38,0,0,0-2.49.73l-.3,1.14.41-.29c1.05.52,1.84,1.3,2.74,1.84l-.19.06h.3a3,3,0,0,0,2.12.31l1.15-.38c4.19-.12,8.62-.8,11.81-3.67,2-1.45,3.39-3.68,5-5.3C1016.55,65.58,1015.65,65.36,1015.18,65.85Z"/><path class="a" d="M990.25,62.3a26.33,26.33,0,0,1-3.84-.34c-1.06,0-2.17,0-3.28-.06a15.37,15.37,0,0,1-7.07-3.14c-2.19-1.56-4.11-3.51-6.18-5.24a11.65,11.65,0,0,0-2.72,2.27,19.92,19.92,0,0,0,6.44,6.69c2.58,1.75,5.27,3.18,7.74,5l.19,0a6.75,6.75,0,0,1,2.53-.07,23.54,23.54,0,0,1,2.53.5,11,11,0,0,0,5.26.33c3.59-1.28,6.56-1.39,9.55-3C997.55,64.7,993.6,64.47,990.25,62.3Z"/><path class="a" d="M1014.85,45.62c-.5.44-1,.85-1.55,1.28-1.45,1.39-2.83,2.82-4.49,4.37,1.29-.27,2.56-.66,3.86-.92a3.94,3.94,0,0,0,1.39-2C1014.38,47.49,1014.62,46.53,1014.85,45.62Z"/><path class="a" d="M1007.41,52.54c.49-.42,1-.83,1.4-1.27a46.51,46.51,0,0,1-5.91,1.12A41.12,41.12,0,0,1,991,53.82a13,13,0,0,1-1.43-.18,30.48,30.48,0,0,0,5,2.59,18.91,18.91,0,0,0,5.32,1.26,11.39,11.39,0,0,0,9.63-3.46l.29-.31a56,56,0,0,1-7.9,1.22,21.42,21.42,0,0,0,2.9-1A18.3,18.3,0,0,0,1007.41,52.54Z"/><path class="a" d="M991.48,62.3l-.71-.33-1,0,.46.31Z"/><path class="a" d="M996.91,74.4l.11.06,3.27-.07c1.58-.55,3.14-1,4.7-1.4-1.41.2-2.81.26-4.17.48A16.41,16.41,0,0,0,996.91,74.4Z"/><path class="a" d="M1006.11,84.73c.4,0,1.2,0,1.61,0l.71-.73-1.13,0C1006.91,84.21,1006.51,84.49,1006.11,84.73Z"/><path class="a" d="M1026.67,74.57a58.26,58.26,0,0,1-8.25,4.91,57.19,57.19,0,0,1-9.08,3.59l-.91.92c4.39.12,8.77-1,11.94-4.06.64-.57,1.4-2,2.09-2.18a25.31,25.31,0,0,0,8.06-6.07c-1.21.91-2.42,1.9-3.74,2.82Z"/><path class="a" d="M1111.46,51.88l.43-.94-.35-.15C1111.5,51.18,1111.47,51.54,1111.46,51.88Z"/><path class="a" d="M1115.3,54.76l.13-.29a2.82,2.82,0,0,1-.31-.07A3,3,0,0,1,1115.3,54.76Z"/><path class="a" d="M1111.53,50.79c-1.33-.54-2.81-.75-3.89-1.84l1-2.08c-.46-.86-1.41-.67-2.12-1,.24-.52.48-1,.13-1.21-.77-.77-1.64-.51-2.34.4C1107.19,49.2,1106,55.51,1111.53,50.79Z"/><path class="a" d="M1112.47,56.21l1.25-2.7a4.17,4.17,0,0,0-2.26-1.52A7.22,7.22,0,0,0,1112.47,56.21Z"/><path class="a" d="M1116.14,260c0-.24.08-.36.58,0l-.58,0c0,.22,0,.55-.3.67,1-.12,2.15-.25,3.28-.35s2.3-.14,3.43-.15c.32-.4.63-.8.91-1.21-5.6-.05-11.15-.57-16.2.68a25.08,25.08,0,0,0,4.51.3C1113.18,260,1114.56,259.93,1116.14,260Z"/><path class="a" d="M1124,256.66h.56C1124.08,256.3,1124,256.42,1124,256.66Z"/><path class="a" d="M1068.31,188.69a34.62,34.62,0,0,0-1.28-9.91c-.14,6.6-.64,13.27.06,18.38C1067.42,194.34,1067.85,191.52,1068.31,188.69Z"/><path class="a" d="M1065,162.73c-1.62,4.07-1.36,7.78-.75,11.35q.52-5.18,1.11-10.29C1065.25,163.44,1065.15,163.07,1065,162.73Z"/><path class="a" d="M1066.42,167.92c-.82,3.85-.19,7.38.61,10.86A62.07,62.07,0,0,0,1066.42,167.92Z"/><path class="a" d="M1097.57,228.84l.87-.2.74-.15a2.3,2.3,0,0,1,.81,0c.43-.39,1-.87,1.6-1.48l-.15-.08c-.67.09-1.06.1-1.64.16-.31,0-.44,0-.69,0s-.52,0-.7,0c-.46.15-1.08.36-1.72.6.09.2.25.36.36.57A1.7,1.7,0,0,0,1097.57,228.84Z"/><path class="a" d="M1100,228.46c-1.75,1.61-1.45,1.69-.8,1.35S1100.76,228.58,1100,228.46Z"/><path class="a" d="M1075,236.08l-.18-.4-.76-1.07C1074.34,235.12,1074.66,235.59,1075,236.08Z"/><path class="a" d="M1084.47,205a48.19,48.19,0,0,0-.08,6.46c0-2.12.18-4.37.18-6.5a37.7,37.7,0,0,0-.39-6.13c-.08.54-.55,1-.63,1.58A8,8,0,0,1,1084.47,205Z"/><path class="a" d="M1090.08,246.87l-1.09-.39c-.36-.13-.7-.31-1-.46-.7-.33-1.42-.64-2.12-1a34.36,34.36,0,0,1-4-2.48l-1-.71-.5-.36-.45-.4-1.82-1.65a22.12,22.12,0,0,1-1.66-1.82,19.76,19.76,0,0,1-1.59-1.94,37.5,37.5,0,0,1-2.84-9.33,76.25,76.25,0,0,1-1-9.16q-.24-4.41-.47-8.66c-.18-2.79-.43-5.46-.86-8.13a35.11,35.11,0,0,1-.47-3.81c-.08-1.35-.09-2.77-.08-4.24,0-2.95.1-6.11.22-9.27a83.68,83.68,0,0,0-.19-9.4,28.42,28.42,0,0,0-1.87-8.51,17,17,0,0,0-.81,2.75,27.44,27.44,0,0,0-1.05-4.13,265.14,265.14,0,0,1,9.44-45c.68-2.21.08-4.23.76-6.45s1.32-4.48,2-6.7a.45.45,0,0,0-.28,0c1.23-4.64,2.57-9.2,3.76-13.88q.93-3.49,1.87-7t1.83-7.21a70.17,70.17,0,0,1,2.44-6.58c.95-2.14,1.94-4.26,2.84-6.41.68-1.62,2.12-1,2.93-1.93,3.66-3.5,6.46-6.05,9.33-10.45l1.07.48a5.54,5.54,0,0,1,.89-1.89c2.91,4.09,1.79,10.38,7.28,5.64h0c0,.38-.06.73-.07,1.07l0,.1h0a7.21,7.21,0,0,0,1.07,4.21l1.2-2.71a3.27,3.27,0,0,0,1.41.87c.06.12.13.24.18.36-.18.4-.32.74-.32.74a4.73,4.73,0,0,0,.69.66c.5,3.05-.32,7.09,1.48,7,1-.21,1.09-2.2,1.49-4.34a2.73,2.73,0,0,0,.52-.23c-.76,2.7,2.5,1.12,2.19,2.79-.89,2-1.43,4.2-2.31,6.23a136.17,136.17,0,0,0-8,24.14l-.28,1.13a74.43,74.43,0,0,1-4,11.84c-.16-.34-.31-.68-.44-1a38.12,38.12,0,0,0-3,9.67c-.53,4.17-1,8.34-1.58,12.52s-1.31,8.39-2.21,12.68a171.92,171.92,0,0,0-4,27.06,69.5,69.5,0,0,1,.64-11.62c.46-1.69.89-3.38,1.22-5a36.23,36.23,0,0,0-1.22,5,79.57,79.57,0,0,0-2.13,9.77,17.59,17.59,0,0,0,1.11,9.23c-.43.49-.82.41-.93.94-.71,3.74-1.78,7.42-.83,10.9.39.07.12,1.67,1,1.27-.13,3.27-.8,7-.48,10.33a11.64,11.64,0,0,0,1.3,4.44l.16,4.36c.07,1.42.18,2.73.31,4a30.4,30.4,0,0,0,1.24,6.33,6.07,6.07,0,0,0,2,3.15,1.24,1.24,0,0,0,.9.21l.41,0a1.82,1.82,0,0,0,.4-.11c.42-.13.51.11,1.3.58l-1.19.3-.54.13-.46.11c-.15,0-.35.08-.51.1l-.43,0a2.73,2.73,0,0,1-.94-.09,3.38,3.38,0,0,0-.49-1.37,11.45,11.45,0,0,0-2-2.49,10.35,10.35,0,0,1-1.09-1.59,12.22,12.22,0,0,0,1.64,4.07,2.79,2.79,0,0,0,2,1.38,1,1,0,0,1,0,.39c0,.16.1.23.12.38s.27.49.41.77l-.08,0-.51,0a1.7,1.7,0,0,1-.53-.05l-.5-.09a1.28,1.28,0,0,1-.27-.05l-.22-.1a7.34,7.34,0,0,0-.6-1.44,11.58,11.58,0,0,0-1.61-2l-.66-.62a10.12,10.12,0,0,1-1.15-1.54,16.6,16.6,0,0,0,1,2.78,7.37,7.37,0,0,0,1.27,1.79,3.52,3.52,0,0,0,.83.62,1.5,1.5,0,0,0,.44.21l.44.19,0,.25c0,.06.07.13.11.2a4.29,4.29,0,0,1,.16.47l-.29.1a26.47,26.47,0,0,0-2.7,1.05c-1.26.52-2.57,1.06-2.89,1.76,1.16,1.78,3.55,3.22,6,4.1s4.59,1.24,4.51,1.42c-.08.81-2.87.81-5.26.27-.3-.07-.63-.12-.92-.19l-.81-.26a13.75,13.75,0,0,1-1.44-.46c-.76-.31-1.31-.49-1.31-.36.29.46.6.93.93,1.39a16.89,16.89,0,0,0-1.79-.2,4.5,4.5,0,0,1-1.48-1.12,4.3,4.3,0,0,0-.71-.52,1.42,1.42,0,0,0-.71-.31,6.26,6.26,0,0,1-3.88-2.84c-.93-1.37-1.63-3-2.74-4.66a37,37,0,0,1-2.48-3.75,51.89,51.89,0,0,1-2.35-4.72c-.79,0-.31-1.68-1.12-1.16.14-3.16.61-6.77-1.48-8.42l0-.24a2.42,2.42,0,0,0-.19-.91,18.36,18.36,0,0,0,.09-7.11c-.37-2.26-1-4.5-1.29-7a40.12,40.12,0,0,1,.5-5.06c-.19,1.12-.85,2.73-.65,3.91l.15,1.15a113.92,113.92,0,0,0,.53,12.62c.18.36.47.94.67,1.47-.06.29-.13.57-.2.86a4.43,4.43,0,0,1,.42.29c.6,4,.59,8.5,1.79,11.79.68,3.08,1.16,6.16,1.91,9.19a36.54,36.54,0,0,0,1.45,4.44c.29.72.68,1.4,1,2.1l.52,1.05.66,1-.9-.79-.78-.89c-.52-.59-1.09-1.18-1.6-1.81a31.83,31.83,0,0,1-2.67-4.11,23.21,23.21,0,0,0,3.06,5c.61.72,1.18,1.44,1.8,2.1l2,1.79a11.6,11.6,0,0,0,1,1.18l1.13,1.2c.39.39.83.72,1.25,1.08l-1-1.16-.89-1.23,1.26.85c.45.25.91.47,1.36.69l1.33.65c.46.19.93.35,1.39.51a45.3,45.3,0,0,0,7.44,2.62c1.31.28,2.55.66,3.88.88l1.95.4,2,.32c5.29.89,10.73,1.42,16.2,2.13a13.27,13.27,0,0,1-.85,1.36c-5.38-.16-10.55-.85-15.28.2,3.06.65,5.3.35,8.27.65,0,.23,0,.55-.31.66a55.13,55.13,0,0,1,6.42-.31c-.77,1-1.65,1.87-2.54,2.8-1.2.68-2.89.48-4.64.65a63.87,63.87,0,0,1-10.89-1.51,91.81,91.81,0,0,1-10.83-3.23,38,38,0,0,1-8.5-6.28,33.17,33.17,0,0,1-6.16-8.69c.49.74,1.08,1.41,1.6,2.09l.8,1c.28.32.6.6.9.9.6.58,1.2,1.15,1.79,1.69l1.94,1.42c.32.22.62.47,1,.66l1,.56c.68.36,1.32.74,2,1A28.73,28.73,0,0,0,1090.08,246.87Zm15-180.06c-.08.6-.14,1.24-.18,1.87a3.84,3.84,0,0,1,.36-.14A2.27,2.27,0,0,0,1105.12,66.81ZM1099.69,79a29.67,29.67,0,0,0,2.55-6.09c.73-2.29,1.34-4.78,2-7.19a1.22,1.22,0,0,0-.26-.16,34.31,34.31,0,0,0-2.43,6.38C1100.91,74.22,1100.29,76.64,1099.69,79Zm-13.23,11.77.16,0-.17-.06Zm-7.76,70.2c-1-4.85.43-10.35,1-16.05.44-1.64-.64-3.68,0-5.88.35-2.86,0-4.71.31-7l-1.23,1.44c1.49-3.74-.16-6.6,1.74-10.22a1.43,1.43,0,0,1-.78-1.44c.47-2.85,2.06-5.36,2-7.79.52-2.85,1.43-5.58,1.41-8,.18-.55-.58-2-.58-3.24.32-1.38.69-2.74,1.06-4.11a2.46,2.46,0,0,1-.36.06,15.13,15.13,0,0,0-.88,3.38c-.37,3.54-.87,7.62-1.59,11-.9,4.25-1.6,8.39-2.09,12.51s-.88,8.18-1.12,12.25c-.06,1.76.25,3.62.19,5.36a76.87,76.87,0,0,1-.49,8.17c-.2,2.66-.21,5.13.77,7.1C1078.31,159.1,1078.06,160.2,1078.7,160.93Zm15.21,9.71a53.26,53.26,0,0,1,.2-9.1,45,45,0,0,1,1.75-8.53c1-4.26,2.1-17.06-3-16.22,3.34,3.8,1,12.58-.75,20.35S1089.12,171.58,1093.91,170.64Zm-.29,45.22a17.15,17.15,0,0,1-.39-6.52C1093.3,211.7,1093.42,213.88,1093.62,215.86Zm-12.52-24.77a68.38,68.38,0,0,1,1,11.38c.1,3.77,0,7.58.43,11,.32,2.67,0,5.27,0,7.72s.55,4.75,2.31,6.19l1.14-.28-.47-.28a15.42,15.42,0,0,1,.64-3.85l.12.2-.1-.36a5.65,5.65,0,0,0-.13-2.74c-.18-.49-.35-1-.51-1.51-.24-2.95-.2-6.22-.28-9.62a48.47,48.47,0,0,0-1.1-10.11c-.53-4-1.94-7.58-2.43-11.62C1081.54,188.34,1080.9,189.92,1081.1,191.09Z"/><path class="a" d="M1082.81,239.87a30.87,30.87,0,0,0,6,3.56,16.79,16.79,0,0,0,2.6.75,21.52,21.52,0,0,0,2.64.49c4.1.8,8.38,1.73,13,2.43a76.8,76.8,0,0,0,14,1,7,7,0,0,0,.21-3.53c-4.87-1-9.61-1.31-14.14-2s-8.84-1.7-12.08-3.89l-.22,0c-2.07.24-4.09-.75-5.93-2s-3.3-3.06-5.2-4.52a15.08,15.08,0,0,1-4.54-5.94,70.81,70.81,0,0,1-2.78-7.83,35.52,35.52,0,0,0,1.43,11.45,27.84,27.84,0,0,0,2.13,5.17l.66,1.24a9.18,9.18,0,0,0,.7,1.22C1081.78,238.26,1082.24,239.1,1082.81,239.87Z"/><path class="a" d="M1064.26,174.08c-.17,2.26-.35,4.53-.53,6.83-.15,3.2-.12,6.25,0,9.23s.26,5.87.57,8.82c.37-4.2,1-8.39,1.68-12.6C1066.3,182.08,1065.05,178.17,1064.26,174.08Z"/><path class="a" d="M1064.79,203.72c-.18-1.61-.35-3.18-.5-4.76l-.42,4.65c-.13,1.55-.25,3.1-.34,4.73a99.84,99.84,0,0,0-.13,10.31,62.09,62.09,0,0,0,1.66,9.24,39.72,39.72,0,0,0,3.71,9.34,35.22,35.22,0,0,0,6.2,8,18.9,18.9,0,0,0,1.86,1.6c.64.51,1.27,1,1.92,1.48l2,1.25a15.56,15.56,0,0,0,2,1.11c1.26.58,2.44,1.28,3.67,1.75a35.46,35.46,0,0,1-12-11.59c-.68-1.24-1.42-2.44-2-3.72a36.54,36.54,0,0,1-1.54-3.89,45.56,45.56,0,0,1-1.77-7.81,129.38,129.38,0,0,1-.91-14.45,100.67,100.67,0,0,0-1-12.8c-.06-.3-.1-.64-.15-1q-.31,2.84-.57,5.66c-.17,1.89-.33,3.74-.45,5.7a88,88,0,0,0,0,12.37C1065.2,214.8,1065.11,209,1064.79,203.72Z"/><path class="a" d="M1081.07,238.36l.9,1.3a14.68,14.68,0,0,0,1.51,1.07l-.67-.86C1082.18,239.42,1081.66,238.86,1081.07,238.36Z"/><path class="a" d="M1086.18,223l0-.16a29.22,29.22,0,0,1-.64-4.25,31.25,31.25,0,0,1-1.17-7.1C1084.25,216.08,1084.53,220.33,1086.18,223Z"/><path class="a" d="M1096.25,211c.08-.53.23-1.57.3-2.1l-.56-1.06c-.1.49-.19,1-.29,1.49C1095.88,209.92,1096.06,210.5,1096.25,211Z"/><path class="a" d="M1095.26,178.59c-.35,9.75-.34,18.87,0,27.88.21.46.45.93.69,1.4a59.78,59.78,0,0,0,1-8.78,35.52,35.52,0,0,0-.7-8.72c-.19-1.13-1-2.93-.85-4a118.2,118.2,0,0,0,.2-15.16c-.14,2.36-.27,4.74-.37,7.18Z"/><path class="a" d="M1088.93,130.58h-.27c0,.12,0,.25,0,.38C1088.74,130.83,1088.84,130.71,1088.93,130.58Z"/><path class="a" d="M1089.52,125.92h-.09v.32A1.58,1.58,0,0,1,1089.52,125.92Z"/><path class="a" d="M1088.64,131a41,41,0,0,1-.3,4.29l-.59,0a12.23,12.23,0,0,0-.16,2.34c-.15,0-.3,0-.32.37-.17,1-.06,1.71.21,2C1088.41,135.56,1090.13,134.11,1088.64,131Z"/><path class="a" d="M1090,127.92l-.77-.06a14.29,14.29,0,0,0-.3,2.68A7.85,7.85,0,0,0,1090,127.92Z"/><path class="a" d="M1150,130.4c0-.24,0-.36.14,0H1150a2.21,2.21,0,0,1-.11.69,4.09,4.09,0,0,1,1.76-.87l.3-1.24c-1.45.14-2.89,0-4.21,2C1148.56,131.07,1149.18,130.43,1150,130.4Z"/><path class="a" d="M1152.22,126.64h.14C1152.26,126.27,1152.23,126.4,1152.22,126.64Z"/><path class="a" d="M1126,133.67c-.91.27-1.78,1.57-2.66,2.82,1.75-1,3.5-1.43,4.88-2.83A16.45,16.45,0,0,1,1126,133.67Z"/><path class="a" d="M1119.07,141.36c1,.81,2-.1,3-1.37-.91.3-1.8.56-2.69.81C1119.26,141,1119.16,141.16,1119.07,141.36Z"/><path class="a" d="M1120.46,139c1,.09,2-1.19,2.88-2.52A9.17,9.17,0,0,0,1120.46,139Z"/><path class="a" d="M1142.85,104.54a5.45,5.45,0,0,1,1.41-1.66c.13-.53.31-1.2.55-2h-.11c-.73.66-1.47,1.24-2.21,1.79a9.32,9.32,0,0,0-.9,1.61A5.49,5.49,0,0,0,1142.85,104.54Z"/><path class="a" d="M1144.26,102.88c-1.19,4.61.92-.43,0,0Z"/><path class="a" d="M1138.27,127.09h-.1l-.31.24Z"/><path class="a" d="M1130.87,115.47a5.85,5.85,0,0,0,1.79-.69,7.06,7.06,0,0,0-3.49,1.75c.15,0,.27.41.42.42C1129.94,116.19,1130.43,115.44,1130.87,115.47Z"/><path class="a" d="M1143.11,123.78a32,32,0,0,0-4.94,3.31,11.26,11.26,0,0,0-9,3.66c-2.57,3-6.63,1.89-9.41,8a1.38,1.38,0,0,0,.71.29,12.27,12.27,0,0,0-1.1,1.79,35.37,35.37,0,0,1-11.8,1.38c-.59,0-1.11,1.1-1.7,1.06s-1.19,0-1.77.1a1.13,1.13,0,0,0,0,.26,27.7,27.7,0,0,0-7.48,2c-1.2.31-2.35-.16-3.52-.24-.44,0-.34-1.6-.6-2-1-2-1.81-3.65-3.08-4.53l.08-1.17a.4.4,0,0,1-.53,0c.94-4.33,2.66-5.78,1.16-8.93h0c.1-.12.19-.24.28-.37h0v-.05a7.64,7.64,0,0,0,1.07-2.62l-.77-.06a11.26,11.26,0,0,0,.17-1.64l.09-.3h.21c.06-.3.11-.59.15-.89.79-1.63,1.91-2.43,1.82-4.07-.1-.84-.64-.15-1.24.31a3.13,3.13,0,0,0-.08-.4c.76-.34.19-2.73.66-3.09.58,0,1.2-.31,1.78-.27a14.12,14.12,0,0,0,6.87-1.09l.31-.11a4.89,4.89,0,0,1,3.35,0c-.09.27-.18.51-.27.75a3.08,3.08,0,0,0,2.71-.07c2.31-1.41,4.62-2.82,7-3a21.56,21.56,0,0,0,7.5-1.93,8.37,8.37,0,0,1-3.22,1.71,5.49,5.49,0,0,0-1.4-.07,2.67,2.67,0,0,0,1.4.07c1.8.29,3.62.89,5.27-2.68.13.34.1.73.25.74,1,.07,2,.53,3-1,0-.39.47-.36.37-1.15.91-.33,1.94-.26,2.87-1a4.71,4.71,0,0,0,1.28-1.84c3.3-1.87,6.56-3.76,10.09-5.5a6.72,6.72,0,0,1,2.7-.2,31.13,31.13,0,0,1-4.1,3.08c-1.25-.38-2.48-.46-3.62,1.48-.26.35-.52.69-.77,1,1.47-.77,2.94-1.56,4.39-2.48a12.32,12.32,0,0,0,2.25.61l0,.08q-.95.69-1.89,1.29a2.61,2.61,0,0,0-3.24.91,5.63,5.63,0,0,0-.39.57c-.26.35-.51.69-.77,1,.91-.47,1.82-1,2.72-1.47.56-.32,1.12-.65,1.68-1l1,.32a2.71,2.71,0,0,0-.13.3c-.32.36-1.47,4.89-1.11,6.09,2.27.06,5.57-1.57,5.54-1.18,0,1.57-4,3.35-3.86,3.75a5.44,5.44,0,0,0,.62.5,9.13,9.13,0,0,0-.66,1c-.47.36-1-.07-1.38.69-1.19,2.27-2.31,1.41-3.59,2.88-.82,1.12-1.81,2.62-2.8,4.12,0,.78-.46.36-.37,1.16-.83-.06-1.79-.13-2.3,2.12,0,0,0,0-.07.06s-.15.12-.25.29c-1.35-.49-2.46,1.61-3.82,3a3.15,3.15,0,0,1-1.34.24c.3,0,.71.44,1,.07.11-.1.21-.2.31-.31a18.2,18.2,0,0,0,3.4-2.18c.11-.22.27-.58.42-.84l.23.1c0-.16.06-.31.09-.45,1.09-1,2.26-1.37,3.21-2.45,1.72-1.22,3.41-.45,5-.11q-1.3.9-2.58,2c1-.6,2-1.21,3-1.87l.43,0,.88.06a7.59,7.59,0,0,0-.79-.48c.58-.41,1.15-.84,1.72-1.32,3.07-1.62,6.18-2.36,9.11-1.55-.09.48-.19.94-.3,1.41-1.45.13-2.88,0-4.2,2,.83.06,1.45-.59,2.25-.61a2,2,0,0,1-.11.69,4.15,4.15,0,0,1,1.76-.87c-.25,1-.53,2-.81,3-.35.76-.79.73-1.26,1.09-2,.54-3.73.21-5.67,1a38.44,38.44,0,0,0-5-.58A32.16,32.16,0,0,0,1143.11,123.78Zm-50,6.76a6.54,6.54,0,0,0,.5-.53c0-.09,0-.18-.05-.28S1093.28,130.08,1093.14,130.54Zm3.41.62c-1-.75-2.35.06-3.68.57q0,.17,0,.3C1093.89,132.47,1095.28,131.61,1096.55,131.16Zm3.46,8.38s0-.08,0-.13,0,.12,0,.18Zm18.75-11.19c-1.31,1.87-2.78,1.77-4.3,2.45-.44,0-1,1.5-1.58,1.46-.76.33-1.25,1.09-1.87,1.43l.39.82c-1-.46-1.75,1.83-2.72,1,0,.39-.23,1.16-.38,1.15-.76.34-1.44-.49-2.08.25-.76.34-1.5.29-2.14,1-.15,0-.52,1.14-.84,1.51-.37.13-.74.2-1.1.29,0,.1,0,.21,0,.31a1.12,1.12,0,0,0,.9-.22,12.24,12.24,0,0,1,2.93-1.76,25.12,25.12,0,0,0,6.58-3.46c.47-.36,1-1.11,1.43-1.47,1.43-1.47,3-1,4.09-3.64C1118.27,129.1,1118.56,129.12,1118.76,128.35Zm2.82-16.8c-1.66,1.55-3.43,2.18-4.87,1.76-1.17-.08-4.71,2-4.45,6.75C1114.31,111.65,1122,120.56,1121.58,111.55Zm12.75-6.32a3,3,0,0,1-2,1ZM1127,120.69c2.1-2.6,4.18-2.85,6.19-4.27,1.55-1.07,3,1,4.54-1.65l.09-1.17-.18.38c-.5-.26-.87-.92-1.28-1.27l.09-.1-.14,0a.68.68,0,0,0-.94,0l-.51.51c-1.89.56-3.82,1-5.66,3.37-1.1,1.1-2.12,3-3.23,4.09C1126.23,120.64,1126.65,121.06,1127,120.69Z"/><path class="a" d="M1140.46,122.67c.67-.43,1.34-.84,2-1.19s1.06-.93,1.6-1.46c2.5-1.92,5.2-1,7.8-1.79a26.93,26.93,0,0,0,.24-3.53c-2.66-1.46-5.56.44-8.26-.41l-.07.12c-1.34,2.26-3.19,1.35-4.8,3.2-1.63,2.24-3.15,2.91-4.76,4.76C1136.34,122.52,1138.42,121.82,1140.46,122.67Z"/><path class="a" d="M1122.05,140c.59-.19,1.18-.38,1.78-.59a23.71,23.71,0,0,0,4.78-3.19,18,18,0,0,1-3.28.1C1124.2,136.65,1123.14,138.55,1122.05,140Z"/><path class="a" d="M1129.88,135.11c-.43.39-.85.75-1.27,1.1a39.7,39.7,0,0,0,4.86-1,72.82,72.82,0,0,0,8.17-4.48,6.07,6.07,0,0,1,.92-.46c-4.82-.78-9.62-1.56-14.08,3.07-.08.1-.18.18-.26.27a35.11,35.11,0,0,0,5.93-1A40.28,40.28,0,0,0,1129.88,135.11Z"/><path class="a" d="M1139.81,123.09l.42.08.52-.37-.29-.13Z"/><path class="a" d="M1136.33,112.71l0,0c-.48.2-1,.35-1.45.5a11.54,11.54,0,0,1-2.17,1.62A6.21,6.21,0,0,0,1136.33,112.71Z"/><path class="a" d="M1132.92,103.07l-.59,0-.32.69.41.11Z"/><path class="a" d="M1123.81,108.77c2.71-1.34,5.26-2.76,7.79-4.2.14-.27.28-.56.41-.86-1.6-.35-3.25,0-4.89,2.09-.32.37-.84,1.51-1.14,1.49-1.41.27-2.82,1.42-4.22,2.45.66-.28,1.32-.59,2-.94Z"/></svg>