<svg xmlns="http://www.w3.org/2000/svg" viewBox="0 0 1920 700"><path d="M1310.49,324.83c-8.46-32.77-9.34-66.89-6.65-100.49,2.74-34.21,9-68,14.85-101.8q4.53-26.12,9.07-52.24c1.47-8.5,2.85-17,4.44-25.5,1.34-7.13,3.32-14.4,8.36-19.87,4.2-4.56,10-7.22,15.91-8.67,1.29-.31,2.61-.54,3.92-.74,1.88-.28,2.7-.35,4.11-.45.75-.05,1.49-.09,2.24-.12,1.52-.08-1.26,0,.27,0l1.12,0h1.13c1.59,0-1.59,0,0,0,.89,0,1.79.07,2.68.08-2.49,0,.09,0,.67.05l2.2.14c-2.57-.12.31,0,1,.08l3.63.3q6.64.55,13.27,1.2,3,.29,6,.6l3.31.34c.34,0,1.69.18.33,0l2.1.22c4.32.48,8.64,1,13,1.5q12.93,1.58,25.83,3.46l.89.13,1.49.22,3.3.5,6.59,1q6.42,1,12.85,2.13,25.54,4.38,50.86,10,6.21,1.38,12.4,2.84a41.38,41.38,0,0,0,10.23.9c.82,0,2.87.24,3.47-.32s-.12-.57-.72-.71Q1491.65,27.23,1437.66,20q-27-3.61-54.2-5.9a225,225,0,0,0-26.34-1c-6.78.23-13.75,1-20.13,3.45a28.78,28.78,0,0,0-14.45,11.58c-4.12,6.75-5.16,14.86-6.49,22.5q-4.63,26.73-9.28,53.45c-6,34.8-12.73,69.59-16.52,104.72-3.68,34.1-4.4,68.86,2.38,102.63q1.27,6.31,2.89,12.56c.12.49,2,.72,2.15.74a40.94,40.94,0,0,0,5.28.56c.54,0,7.69.15,7.54-.44Z"/><path d="M1292.73,133.82c18.06,5.42,36.74-.19,55-.34,1.07,0,2.14,0,3.21,0s-.83,0,.31,0l1.81.13a54.86,54.86,0,0,1,6.5.88c1,.19,1.9.4,2.84.65.51.13,1,.27,1.52.42.29.09.57.19.86.27.83.24-1.07-.4-.26-.09a39.5,39.5,0,0,1,5.59,2.52l.95.56c1,.58-1.3-.88-.08,0,.76.53,1.5,1.1,2.21,1.7a13.45,13.45,0,0,1,1.93,1.76c.08.1-1.19-1.25-.66-.67.16.18.34.36.5.55.34.36.66.74,1,1.12q.77.93,1.47,1.92a3.67,3.67,0,0,0,.42.61c.09.09-1-1.58-.6-.9.25.42.51.83.75,1.26.42.75.8,1.51,1.15,2.29.26.59.64,2-.12-.36.14.46.32.9.46,1.36.28.88.35,1.92.69,2.76,0,.1-.25-1.7-.18-1,0,.23.06.46.09.7.05.46.09.93.11,1.4s0,.93,0,1.4c0,.83.11-1.52,0-.69,0,.23,0,.46-.07.69a23.46,23.46,0,0,1-.51,2.78c-.18.78.42-1.27.15-.52-.09.22-.16.45-.24.68-.15.41-.32.82-.5,1.21s-.32.65-.49,1c-.09.16-.19.3-.27.46-.3.55.82-1.07.38-.61a28.57,28.57,0,0,1-3,3.13l1.18-.91a18.88,18.88,0,0,1-5.92,3l1.43-.44a21.5,21.5,0,0,1-4.5.83l-1.07,0h-.53c-.88,0,.72,0,.73,0-.79-.09-1.57-.12-2.35-.26s-1.32-.32-2-.49c-.89-.23.89.29.81.29a2.19,2.19,0,0,1-.46-.18c-.38-.17-.77-.33-1.14-.52s-.57-.33-.86-.48c-.84-.43,1,.55.85.55a2.69,2.69,0,0,1-.4-.28l-.75-.62c-1.17-1,1.26,1.48.29.3-.2-.26-.4-.52-.61-.77-.68-.83,1.12,2,.43.63l-.45-.91c-.45-.88.46,1.21.45,1.13a5.08,5.08,0,0,0-.25-.75,4,4,0,0,0-.17-.7c.07.14.19,1.74.09.54,0-.59-.09-1.17-.11-1.76,0-1,0,.44,0,.43s.09-.95.08-.88c.1-.74.26-1.47.41-2.19.07-.33.16-1.16-.1.25a6.17,6.17,0,0,1,.28-.86c.2-.57.41-1.14.64-1.7a36.78,36.78,0,0,1,1.68-3.46c.53-1,1.17-1.9,1.69-2.87-.07.12-.77,1.14-.19.3.15-.21.29-.43.43-.64.34-.48.67-1,1-1.42a54.65,54.65,0,0,1,10.46-10.59l-1.18.92a57.36,57.36,0,0,1,17.87-9.2l-1.43.44a54.59,54.59,0,0,1,9.47-2c1.54-.18,3.09-.29,4.64-.33.65,0,1.3,0,1.94,0a5.06,5.06,0,0,1,1.17,0c-.88,0-1,0-.36,0l.82.06a45.4,45.4,0,0,1,4.92.66c.81.16,1.62.34,2.42.54l1.2.34.79.24c.64.21.52.17-.37-.13.2-.15,2,.8,2.28.92.62.28,1.23.59,1.83.91.35.19.7.41,1.06.6,1.28.72-1.29-.93-.1-.07.77.56,1.53,1.12,2.24,1.75.3.26.58.6.9.83-1.5-1.08-.75-.78-.28-.25a19.55,19.55,0,0,1,1.35,1.66c.21.29.4.59.61.87-1.46-2-.66-1-.35-.48.41.71.78,1.44,1.12,2.19.8,1.79-.62-1.77,0,.09.23.67.43,1.34.61,2s.41,3.09.18.58c.07.83.23,1.65.29,2.48s.09,1.44.09,2.16c0,.36,0,.73,0,1.09-.14-1.94,0-.85,0-.29a33.8,33.8,0,0,1-.58,4.36c-.14.73-.3,1.45-.49,2.17-.12.48-.63,1.45.06-.13-.14.33-.22.71-.34,1.06a38.14,38.14,0,0,1-1.8,4.46c-.37.78-.77,1.54-1.2,2.29-.18.32-.37.64-.56,1s-.25.42-.39.62l.43-.66c-.2.1-.49.71-.62.9l-1,1.35c-.6.77-1.22,1.53-1.86,2.26a60.7,60.7,0,0,1-8.52,8l1.18-.92a126.21,126.21,0,0,1-17.57,11c-7.1,3.83-14.26,7.53-21.4,11.29l-45,23.72-25.27,13.31c-2.52,1.32-3,4.86-2.2,7.34a9.16,9.16,0,0,0,6.15,6.35c4.27,1.18,8.53,2.37,12.78,3.62,2.08.62,4.17,1.25,6.24,1.9l3.11,1,1.32.44.89.3c.84.28-1.06-.37-.22-.07a145.38,145.38,0,0,1,23.92,10.56c.94.54,1.88,1.09,2.8,1.66l1.28.8c1.3.82-1.15-.76.16.1,1.51,1,3,2,4.43,3.1,2.93,2.15,5.75,4.46,8.45,6.89,1.33,1.18,2.63,2.4,3.91,3.64l.95.94c.38.38,1.49,1.54-.11-.12.62.65,1.25,1.28,1.86,1.93,2.51,2.64,4.91,5.38,7.24,8.18,9.4,11.33,17.46,23.68,25.51,36s16.31,24.93,25.79,36.4c5.28,6.41,10.94,12.7,17.75,17.52,7.28,5.15,15.9,9.18,25,8.31a28.31,28.31,0,0,0,6.59-1.6c1.38-.49,2.24-2.47,2.46-3.75a9.08,9.08,0,0,0-1-5.46c-1.75-3.11-4.76-5.38-8.36-4.11-.4.14-.79.27-1.19.39l1.43-.44a21.84,21.84,0,0,1-5.56.86,3.56,3.56,0,0,0-.8,0s1.18.08.53,0c-.46-.05-.92-.07-1.38-.13a25.71,25.71,0,0,1-2.76-.49c-.46-.11-.92-.23-1.37-.36s-1.71-.75-.22,0c-.86-.41-1.8-.69-2.68-1.09-1.82-.83-3.47-1.89-5.21-2.86.12.08,1.33.9.38.24l-.54-.37-1.24-.88c-.82-.61-1.62-1.24-2.41-1.88-1.57-1.29-3.08-2.66-4.54-4.08-.2-.21-.4-.42-.61-.61,0-.05,1.11,1.14.56.56-.34-.36-.69-.71-1-1.08-.64-.68-1.27-1.39-1.9-2.09q-1.8-2-3.56-4.13c-9.42-11.27-17.51-23.55-25.55-35.82s-15.94-24.48-25.15-35.82c-9.65-11.89-20.68-22.52-33.63-30.76-15-9.53-32.14-14.85-49.08-19.62l-6.28-1.75,4,13.7,49.61-26.14,24.8-13.06c7.57-4,15.24-7.85,22.66-12.11,13-7.49,26.24-17.54,30.82-32.52,2.33-7.62,2.93-15.66.77-23.41a33.27,33.27,0,0,0-15.76-20.06c-7-4-15.47-5.25-23.47-5a58.34,58.34,0,0,0-21.54,5,60.57,60.57,0,0,0-18.12,12.41,53,53,0,0,0-6.65,8.06,42.89,42.89,0,0,0-5.75,11.15c-1.52,4.88-2.08,10.16-.42,15.11a21.78,21.78,0,0,0,6.47,9.78,22.33,22.33,0,0,0,16.82,4.74c5.48-.61,11.17-3.18,14.68-7.53,5-6.19,5.62-14.63,3.87-22.12-1.86-8-6.94-15.34-13.2-20.54-6.48-5.39-14.76-8.34-23-9.41-8.55-1.1-17.21-.54-25.74.36-4.35.46-8.7,1-13.06,1.32-2.18.17-4.36.3-6.55.36-1,0-2.09,0-3.14,0-.56,0-1.13,0-1.69,0-.1,0-.91,0-.2,0s-.31,0-.44,0a54.62,54.62,0,0,1-12.5-2.14,4.42,4.42,0,0,0-4.13,1.29,6.2,6.2,0,0,0-1.35,4.58,9.26,9.26,0,0,0,6.48,8.2Z"/><path d="M1457.11,166.25l60.71,24.07,17.14,6.8c2.5,1,6.41.18,6-3.21-.47-3.66-3.81-6.38-7-7.65l-60.71-24.07-17.14-6.8c-2.5-1-6.41-.19-6,3.2.47,3.66,3.81,6.38,7,7.66Z"/></svg>