<svg xmlns="http://www.w3.org/2000/svg" viewBox="0 0 1920 1046"><path d="M74.14,370.51a186,186,0,0,0-41.52,34.91,180.34,180.34,0,0,0-16.6,22c-4.5,7-12.08,16.84-7.65,25.46,3.8,7.4,13.26,11.28,20.72,13.61,10.61,3.3,21.82,4.37,32.87,4.92,24.59,1.22,49.33-.37,73.92-1.19l33.91-1.12,16.23-.54,3-.08c2.91-.1-3.66,0-.73,0l3.07,0c3,0,2-.77.08,0a13.46,13.46,0,0,1,3.09.06c-3.86-.07-.35,0,.62,0,.35,0,3.52.25,1.81.11s1.45.14,1.8.18a83.39,83.39,0,0,1,10.5,1.72,69.11,69.11,0,0,1,22.86,9.59c15,10,23.26,27.19,25.25,44.77,2.23,19.8-3.47,39.48-11.84,57.26-8.55,18.18-19.69,35.47-34.07,49.6A101.64,101.64,0,0,1,188.63,649a80.15,80.15,0,0,1-12.57,5.49,58.08,58.08,0,0,1-6.35,1.79c-2.43.52-8,.8.3.42a79.69,79.69,0,0,0-11.94,1c-1,.21-3.56.45-2,1.55,2,1.4,7.11,1,9.2,1.14,5.12.26,10.28.36,15.41.12,20.35-1,38.94-4.54,55.86-16.43,14.29-10,26-23.33,35.55-37.88,20.24-30.83,37.1-73.91,16.47-108.75-8.88-15-24.05-24.09-40.68-28.15-22.3-5.45-45.91-5.14-68.71-4.6-22.64.54-45.27,1.48-67.91,2.23l-16,.52-7.71.26c-1.44,0-2.89.07-4.33.12-2.45.09,3.15,0-.78,0s-.68,0,.09,0c-3.61.06-1.24,0-.44,0-5.5-.14,1.16.18-2-.13-.68-.06-1.32-.12-2-.21a62.93,62.93,0,0,1-14.49-3.69c-9.4-3.63-19.56-10.36-15.69-21.89,3.28-9.79,10.7-19.23,16.93-27.33a180.56,180.56,0,0,1,47.84-43.24c1.72-1.07-1.26-1.38-2-1.53a73.59,73.59,0,0,0-12-.85c-5.13-.09-10.29-.08-15.41.29-2.64.19-6.92-.16-9.19,1.25Z"/><path d="M199.65,96.57c29.13,87.28,58.38,176,105.42,255.6,20.92,35.4,44.71,71.24,78.61,95.52,15.18,10.87,32.49,19.26,51.22,21.37C456,471.42,476,464.81,494,454.29c40.23-23.46,73.56-59.07,96.21-99.57.82-1.45-.2-4.8-.45-6A128.53,128.53,0,0,0,586,335.08c-1.47-4.48-3-9-4.9-13.28-.23-.52-2.92-5.54-3.14-5.15a271.12,271.12,0,0,1-79.07,88.4c-16.94,12.06-35.75,23.09-56.72,25.79-18.3,2.36-36.61-1.94-52.93-10.25-35.52-18.08-60.79-51.48-81.92-84.23-22.95-35.57-41.46-73.72-57.73-112.74-.77-1.86-1.34-3.25-2.47-6.06s-2.2-5.47-3.28-8.22q-3.25-8.24-6.39-16.51c-1.05-2.76-2.08-5.53-3.11-8.29-2-5.32.67,1.85-.5-1.33l-1.83-5q-3.2-8.75-6.29-17.52-5.91-16.71-11.59-33.51c-.37-1.11-.75-2.23-1.13-3.35-.45-1.31-1.73-5.11-.57-1.67l-2.82-8.39q-3.09-9.23-6.16-18.44c-.58-1.72-5.83-19.13-8-18.42s4,19.07,4.23,19.65Z"/><path d="M178.88,321.13Q278.27,269.52,379.71,222q28.8-13.49,57.76-26.63c7.35-3.34,13.95-9.14,20-14.38a78.11,78.11,0,0,0,8.72-8.24c.24-.29,2.71-3.42.59-2.46Q363.38,217.23,262,268.4,233.12,283,204.46,297.84c-7.92,4.12-15.21,10.62-21.72,16.65-1.87,1.73-5.66,4.26-6.4,6.71-.56,1.87,1.68.38,2.54-.07Z"/><path d="M595.15,167.19c9.52-17.42,21.57-33.72,37.28-46a96.26,96.26,0,0,1,26.35-14.71,75.11,75.11,0,0,1,14-3.77,25.17,25.17,0,0,1,2.62-.39c-8.51,1.45-17.26-1.25-9.41.4,17.2,3.63,32.76,15.7,40.85,31.23,10,19.16,5.71,40.83-2.34,59.86a175.53,175.53,0,0,1-73.53,82.92,148.89,148.89,0,0,1-26,12.06c-2.46.83-5,1.6-7.48,2.19-11.35,2.65,0-3.7,13.56,1.13-4.13-1.47-8-2.62-11.72-5.1-14.27-9.57-20-28.32-22.18-44.46-6.25-45.64,6.15-93.82,31.07-132.21.46-.71-6.89-1.6-5.84-1.47a125.93,125.93,0,0,0-14.13-.73,139.07,139.07,0,0,0-14.15.44c-1.44.14-5,0-5.87,1.35-24.94,38.41-37.31,86.56-31.07,132.21,2.5,18.34,9.61,38.57,27.09,47.6,5.22,2.7,11,4,16.81,4.69a192.46,192.46,0,0,0,34.45.94,108,108,0,0,0,38.32-9.2,178.1,178.1,0,0,0,87.87-85.65c9.74-20.57,16.31-44.78,5.18-66.16-9.36-18-27.52-29.67-47.1-33.46-19-3.69-39.87-3.59-59-.93a97.69,97.69,0,0,0-36.14,12.49C583,125.13,567,145.09,555.15,166.79c-.41.76,18.48,2.19,20,2.2a139.16,139.16,0,0,0,14.15-.44c1.34-.13,5.14,0,5.87-1.36Z"/><path d="M872.57,363.85a1080.56,1080.56,0,0,0-19.83-159.2c-5-25-11.74-49.63-17.41-74.52-4.58-20.07-8.24-41.53-4-62a60.86,60.86,0,0,1,13.16-27.62,58.15,58.15,0,0,1,10.92-9.8c1.28-.87,3.59-2.22,4.27-2.64.53-.33,2.66-.93.3-.2-1.28.53-2.57,1-3.88,1.5q-8.37,2.67-4.61,1.54l.72-.21c-1.49.4-1.34.38.46-.09,5-1.1-.79.13,2.11-.47,2.23-.46,4.49-.83,6.75-1.17,5.33-.81,10.69-1.27,16.06-1.57,12.49-.7,25.11-.72,37.51,1.06,21.33,3.07,42.6,12.51,55.22,30.69s11.65,40.78,3,60.38c-10.16,23-28.85,41.25-48.93,55.84a184.38,184.38,0,0,1-31.23,18.39c2.43-1.12-2.53,1.09-2.37,1-5,2.17,3.39-1.23-1.73.7s3.77-1.89-1.25.44c3.17-1.47.52-.18-1.27.37,3.19-1,.41-.14-.2,0-1.84.51-2.13.6-.89.26l-3.22.82c-2.75.67-5.5,1.26-8.28,1.79a125.17,125.17,0,0,0-26,8.54c-1.75.76-13.25,6.41-5.83,5A331.91,331.91,0,0,0,934,180.33c22.15-11.72,43.46-27.24,59.53-46.61,14.7-17.71,26.91-40.9,23.66-64.61-3.14-22.82-20.92-40-41.6-48.24-24.26-9.72-52.11-9.18-77.65-6-15.28,1.88-30.1,6.1-44.56,11.29-14.11,5.07-29,11-40.35,21.12-37.74,33.8-16.14,91.91-6.29,133.08a1079.41,1079.41,0,0,1,28.15,197c.08,1.49,18.11-4.35,19.51-4.85a139.35,139.35,0,0,0,13.11-5.32c1-.48,5.11-2,5-3.3Z"/><path d="M555.63,593.75l-23.36,9.11c-7.1,2.77-14.58,5.14-21.4,8.57-5.48,2.76-10.5,7.24-9.74,13.94.82,7.12,7.43,12.79,12.57,17,16.43,13.52,34.58,25.09,52.58,36.36q11.21,7,22.64,13.71l11.74,6.88q2.6,1.5,5.17,3c-3.15-1.85,1.24.74,2.25,1.34l4.4,2.63c.15.09,2.18,1.34,2.19,1.33s-4.86-2.95-.73-.44-4-2.51.15.08c.6.38,3.13,2,.07,0-4.48-2.9,2.7,1.79-1-.66-2.55-1.69-.13,0,.33.25-.25-.15-2.47-1.8-.67-.46s1.48,1,3,2.21c2.66,2.05,5.3,4.13,7.83,6.34,10.65,9.3,20.56,20.5,24.46,34.4,8.19,29.26-14.6,55.86-32.69,76a429.11,429.11,0,0,1-77.68,67.84s18.65,13.58,20.31,14.65c5,3.17,10,6.33,15.07,9.23,1,.57,5.68,3.85,6.67,3.17a429.86,429.86,0,0,0,70-59.46C668.36,841.2,693.1,816,691.8,786.73c-1.39-31-32.95-52.2-55.85-68.07-17.19-11.92-35-23-53-33.58q-5.87-3.45-11.74-6.88L569,676.9l-1.51-.88-.76-.45-2.94-1.74-4.4-2.63c-3.83-2.29,3.05,1.92-.73-.44-1-.6-1.92-1.24-2.9-1.8,0,0,4.43,2.82,2,1.26s2,1.34,2,1.32c-2.35-1.56-.62-.42.71.49-.22-.15-2.56-1.74-.73-.48s-1.09-.78-1.4-1c-2.08-1.5-1.66-1.2-3.67-2.76a43.66,43.66,0,0,1-7.76-7.24c-4.87-6.17-5.17-13.93,1.2-19.08s15.25-7.28,22.61-10.15l26.95-10.51c.36-.14-6.7-5.52-5.65-4.75-4.76-3.46-9.7-6.73-14.65-9.9s-10-6.33-15.08-9.23c-1.27-.72-5.26-3.73-6.67-3.17Z"/><path d="M718.47,541.61c3.52,57.08,7.08,114.45,18.83,170.55,2.94,14,6.32,28,10.49,41.72,3.41,11.24,7.67,22.56,14.68,32.09,5.67,7.72,12.88,14.35,19.84,20.87,9.69,9.08,19.66,18.59,30.86,25.83,9.69,6.26,20.92,10,32.12,12.4,25.52,5.51,54.65,5.16,76.09-11.58.74-.57-16.2-16.57-17.57-17.82-4.36-4-8.75-7.91-13.31-11.64-.72-.59-5.31-4.82-6-4.25-17.14,13.38-39.4,16.25-60.5,14.08a124.27,124.27,0,0,1-33.18-7.69A70.52,70.52,0,0,1,778,799.65c-13.84-9.16,31.81,32.65,21.47,19.62a64.66,64.66,0,0,1-5.37-8.14c-5.76-10.18-9-21.65-12.11-32.86q-5.17-18.82-8.95-38c-5.1-25.55-8.56-51.4-11.16-77.32-2.91-29.15-4.73-58.4-6.53-87.64-.09-1.48-4.34-5.17-4.78-5.62-4.12-4.21-8.45-8.25-12.8-12.21s-8.75-7.91-13.31-11.64c-.7-.56-6-4-6-4.25Z"/><path d="M772.08,645.35l58.66-7c-.55.06-7.1-3-6.8-2.84-5.56-1.93-11.22-3.66-16.86-5.32s-11.33-3.28-17.05-4.68c-2.24-.54-4.95-1.58-7.25-1.3l-58.66,7c.54-.07,7.1,2.94,6.8,2.84,5.56,1.93,11.21,3.66,16.86,5.31s11.32,3.29,17.05,4.68c2.23.55,4.95,1.58,7.25,1.3Z"/><path d="M997.76,705.82c.85-10.69-3.24-21.06-2.44-31.71.37-4.92,2.23-9.68,6.17-12.83,4.9-3.92,11.86-4.89,17.84-6.11a210.06,210.06,0,0,1,39.61-4.44c2.82,0,5,0,7.22.06,6.13.22-3.37-.32,2.74.14s-2.37-.19,1.26.11-4.7-.67,1.26.14a17.7,17.7,0,0,1,2.71.39c2.49.4,5.45.91,8.6,1.63,9.92,2.26,20.9,6.44,27.94,14.5,7.43,8.51,9.84,19.83,9.74,30.88-.12,11.81-2.78,23.53-5.74,34.9a280.15,280.15,0,0,1-12.46,37.1c-9.32,22.4-21.17,46-40,62a77.41,77.41,0,0,1-32.7,16.21,87.42,87.42,0,0,1-16.19,2.17c-.41,0-2.72-.37-.93,0s3.68.28,5.43.49l1.88.27c-1.61-.26-1.89-.29-.83-.11,2.5.41-3.46-.7-2-.37-40.66-8.92-75.76-42.26-88.14-81.72-14.36-45.75,1.79-98.87,39.09-128.91.59-.48-6.88-2.19-5.7-1.95a127.42,127.42,0,0,0-14-1.89,139,139,0,0,0-14.13-.72c-1.77,0-4.52-.3-6,.86-36.74,29.58-53,81.54-39.73,126.83,13.52,46.26,54.95,78.9,101.31,87.91a243.66,243.66,0,0,0,58.1,4.5c13.86-.68,27.81-3.64,40.12-10.22,23.64-12.64,37.92-36.51,49-60a280,280,0,0,0,15.46-40.86c3.88-13.34,7.48-27.3,7.87-41.25.35-12.06-2.14-24.56-10.73-33.55s-20.51-13.11-32.24-15.92c-20.35-4.89-41.45-7.32-62.32-8.47-19-1-38.12-.81-57,1.8a198.13,198.13,0,0,0-25.49,4.82c-6,1.67-12.11,4.57-15,10.43-5.85,11.79,1.53,26.71.55,39.19-.25,3.09,39.6,6.54,39.82,3.69Z"/><path d="M1189.29,985.81c7.18-102.74,63.2-192.53,91.85-289.57,8-27.2,13.83-55,15.83-83.37l-36.79,13.8c50.58,12.41,90.91,54.08,101.46,105.08,5.55,26.84,3.45,56.17-7.68,81.38a61.72,61.72,0,0,1-10.49,16.79,40.09,40.09,0,0,1-7.1,6.29c-.84.56-1.79,1-2.62,1.56a95.4,95.4,0,0,1,15-5.62c-1.12.29-2.24.57-3.36.82-15.13,3.31-30.56,5.65-45.87,7.9a969.44,969.44,0,0,1-108.93,9.73c-7.88.27-16.4,4.14-23.62,7a76.13,76.13,0,0,0-10.94,4.91c-.39.23-3.66,2.21-1.37,2.13a1009,1009,0,0,0,105.3-9.08c17.55-2.45,35.1-5.24,52.47-8.78a221.8,221.8,0,0,0,32.35-9.23c10.38-3.83,21.36-7.89,30.12-14.85,11.18-8.88,17.38-22.81,21.42-36.15A138.46,138.46,0,0,0,1372.2,660.7a141.18,141.18,0,0,0-76.09-48.09c-2.09-.51-7.38,1.49-9,2-4.07,1.21-8.1,2.6-12.08,4.09-3.58,1.34-7.17,2.74-10.62,4.41-1.13.54-4.93,1.86-5,3.31-7.25,102.73-63.28,192.51-91.9,289.57-8,27.2-13.8,55-15.78,83.38-.07,1.11,18.12-4.39,19.5-4.89,4.43-1.62,8.86-3.29,13.11-5.34,1.13-.55,4.93-1.87,5-3.32Z"/><path d="M1596.75,681.12a715.09,715.09,0,0,1-23.86,192.24c-.52,1.95,2.1-1.09,1.75-.73,2-2,3.63-5.07,5.08-7.42,3.13-5.09,6.77-10.66,8.32-16.5a715.12,715.12,0,0,0,23.87-192.25c0-1.55-1.4.36-1.76.74-2,2-3.63,5.07-5.08,7.42-2,3.27-3.93,6.64-5.65,10.08-.89,1.79-2.69,4.41-2.67,6.42Z"/><path d="M1695.4,615.43a681.1,681.1,0,0,1-22.52,144.13q-4.86,18-10.75,35.77c-3.81,11.48-8.29,22.78-11.33,34.5-4.76,18.36-4.53,40.55,11.08,53.91,9.58,8.2,21.28,7.44,33,5.1a165.42,165.42,0,0,0,36.69-12.14c1.42-.66,3.54-4.49,4.22-5.52,2.13-3.21,4.09-6.56,5.91-9.94,1.39-2.57,3.09-5.29,3.89-8.1.2-.69,1.13-2.53-.25-1.89a159.92,159.92,0,0,1-33.69,11.24c-10.14,2.16-21,3.9-30.38-1.62-18-10.57-20.3-33.63-16.16-52.08,2.56-11.39,7-22.29,10.72-33.34q5.68-16.92,10.49-34.14a676.33,676.33,0,0,0,24.27-150.53c.08-1.64-1.53.5-1.76.73-2,2-3.63,5.07-5.08,7.42-2,3.28-3.92,6.64-5.64,10.08-.94,1.87-2.57,4.32-2.67,6.42Z"/><path d="M1665.09,700.29q58.42,8.76,117.3,14c2.68.24,7.68-10.3,8.8-12.24.56-1,6.75-13.69,6.2-13.74q-58.85-5.25-117.3-14c-2.52-.38-7.76,10.44-8.8,12.24-.55.94-6.93,13.63-6.2,13.74Z"/><path d="M1612,611.33a59.16,59.16,0,0,1-10.23-22.73,57.59,57.59,0,0,1-1.23-11.64c0-1.37-.28-9.29,1.53-10l-33.92,6.47c1.51,0,4.7,4.44,5.52,5.32l6.71,7.08L1593.83,600c1,1,5.29.35,6,.29a127,127,0,0,0,14-2.07,141.27,141.27,0,0,0,13.78-3.23c.53-.16,5.93-2,5.49-2.49-7.38-7.79-14.69-15.64-22.14-23.37-3.38-3.5-6-4.35-10.83-4-11,.67-23.15,2.65-33.38,6.77-7.62,3.06-5.83,14.4-4.85,20.93a59.05,59.05,0,0,0,10.81,26c.77,1.06,5.6.33,6,.29a130,130,0,0,0,14-2.07c4.62-.91,9.26-1.86,13.78-3.23.55-.17,5.93-1.88,5.49-2.49Z"/><path d="M1900.31,652.75c.54,69.51-36.42,130.5-66.88,190.47-8.81,17.35-17.17,34.93-24.23,53.08-.67,1.72.18,4.41.53,6a128.79,128.79,0,0,0,4,13.59c1.53,4.46,3.11,8.92,5.08,13.21.25.56,3.11,5.36,3.21,5.1,24.91-64,66.39-120.77,84-187.66a219.29,219.29,0,0,0,7.62-57.59c-.06-7.86-3.83-16.5-6.55-23.76a77.06,77.06,0,0,0-4.69-11c-.23-.4-2.13-3.7-2.11-1.41Z"/><path d="M1777.34,1005.05c.72-7.7,3.36-15.85,9.85-20.62a16.31,16.31,0,0,1,9.2-3.14,14.37,14.37,0,0,1,5,.69c.73.25,1.41.7,2.13.93L1783.09,960a8.55,8.55,0,0,1,.7,2.62c1.33,8.24-4.48,18-8.57,24.73a91.32,91.32,0,0,1-17.51,20.93c-2.14,1.91,24.48,31.77,26.79,29.71a90.47,90.47,0,0,0,21.09-27.49c2.59-5.24,5.3-11.08,5.16-17-.16-7.1-5.37-12.75-9.66-17.93-6.28-7.6-13.67-17.24-22.6-22a18.15,18.15,0,0,0-11.88-1.61c-10.61,2.22-15.15,13.74-16,23.4-.15,1.65,2.15,4.31,2.87,5.3a130.68,130.68,0,0,0,9,10.89,141.27,141.27,0,0,0,9.91,10.12c.42.37,4.93,3.86,5,3.4Z"/></svg>