<svg xmlns="http://www.w3.org/2000/svg" viewBox="0 0 1920 1920"><defs><style>.a{fill:none;}.b{fill-rule:evenodd;}</style></defs><path class="a" d="M845.9,531l75.66,58.15h0l-.42.29-.92.63c-.4.27-.32.2-1.55,1.09l-2.82,2c-1,.71-1.84,1.35-2.84,2.12l-2.93,2.27A214.23,214.23,0,0,0,885,620.74a198.88,198.88,0,0,0-27,36.89c-1.06,1.85-2.13,3.81-3.22,5.92s-2.1,4.14-3.1,6.23-2,4.33-3,6.58-1.9,4.53-2.79,6.82-1.77,4.79-2.59,7.19-1.6,4.89-2.33,7.35c-1.47,5.13-2.77,10.26-3.84,15.53s-1.93,10.68-2.52,16.1-1,10.92-1.11,16.28-.06,10.88.29,16,.85,10.55,1.59,15.4,1.57,9.79,2.81,15,2.54,10.23,4.13,15.16,3.37,9.78,5.31,14.57,4,9.08,6.23,13.52c1.13,2.27,2.26,4.38,3.38,6.35s2.3,4,3.5,6,2.46,4,3.66,5.83,2.38,3.54,3.61,5.29,2.49,3.47,3.77,5.19,2.42,3.12,3.67,4.69,2.45,3,3.71,4.49,2.56,3,3.69,4.22q3.54,3.89,7.24,7.61c2.26,2.24,4.52,4.39,6.84,6.52,1.19,1.1,2.3,2.08,3.32,3l3.21,2.74,3.23,2.68,3,2.33,3,2.3c1,.79,2,1.48,2.86,2.11,1.81,1.32,3.66,2.63,5.48,3.9l5,3.34c.87.57,1.66,1.08,2.39,1.54l2.27,1.42,2.28,1.41,2,1.22,2,1.21,1.94,1.13,3.63,2.06,3.17,1.75,16.68,8.92q32.9,17.33,66.59,33.06,67.34,31.5,137.57,56.19c5.84,2,11.67,4.14,17.56,6.08l14.88,5,3.9,1.25h0l-.72.54-4.65,3.58c-1.56,1.19-3.21,2.34-4.81,3.52s-3.16,2.38-4.85,3.52c-3.37,2.29-6.59,4.66-10.1,6.92l-5.16,3.43-5.32,3.38c-7.07,4.53-14.55,8.92-22.12,13.31-3.88,2.15-7.69,4.34-11.65,6.47s-7.89,4.29-12,6.38q-24.36,12.66-51.19,24.63c-35.78,16-74.33,31.26-114.94,46.9l-30.79,11.83-43.16,16.69c-41.22,16-82.16,32.85-121.39,50.88l-14.68,6.77-14.35,7-7.17,3.48-3.58,1.75-3.48,1.79L702.86,1266l-7,3.58-6.76,3.67-13.5,7.34c-1.12.62-2.27,1.22-3.36,1.84l-3.24,1.88-6.49,3.77-12.95,7.52-12.47,7.66c-4.13,2.56-8.42,5.08-12.28,7.7L613,1318.77c-2,1.31-4,2.6-5.89,3.91l-5.67,3.94-11.34,7.89c-1.93,1.31-3.64,2.65-5.46,4l-5.38,4-5.38,4-2.69,2-1.34,1-1.27,1-10.18,8-5.09,4c-1.7,1.34-3.24,2.7-4.87,4l-9.65,8.1c-3.29,2.69-6.2,5.41-9.27,8.12l-9.1,8.13-8.33,8.21-4.15,4.1c-.69.69-1.4,1.37-2.06,2.06l-1.88,2.06-7.46,8.26c-1.22,1.38-2.52,2.75-3.66,4.13l-3.31,4.14-6.61,8.28-.83,1c-.27.35-.49.69-.74,1l-1.44,2.07-2.88,4.13-2.88,4.14c-.94,1.38-2,2.76-2.77,4.13l-5,8.23-2.5,4.12c-.78,1.37-1.44,2.73-2.17,4.09l-4.26,8.18-1.07,2-.89,2-1.8,4c-1.18,2.7-2.42,5.4-3.55,8.09l-2.95,8c-1,2.67-2,5.35-2.74,8-1.54,5.28-3.29,10.57-4.47,15.81s-2.37,10.63-3.22,16.11a162.59,162.59,0,0,0-2,17.07l-.5,9.06-.26,4.73-.07,4.85c.05,6.53.32,13.41,1,20.54l.59,5.4.72,5.49c.22,1.82.62,3.68.92,5.52s.68,3.69,1.05,5.55.75,3.7,1.18,5.55.81,3.71,1.33,5.53c1,3.68,2,7.31,3.12,10.9.58,1.77,1.11,3.58,1.72,5.33l1.88,5.19,2,5.08,2,4.93q4.23,9.69,8.9,18.24c3.14,5.69,6.35,11.06,9.69,16.1s6.8,9.77,10.34,14.29a228,228,0,0,0,22.39,24.59c2,1.88,4,3.67,5.93,5.48s4,3.53,6.09,5.21,4.1,3.36,6.18,5,4.2,3.2,6.32,4.74l.79.58.86.57,1.74,1.13,3.47,2.27,6.94,4.53,6.93,4.54,8.2,4.34,8.21,4.34,4.1,2.17,2.06,1.08,1,.54c.33.19.79.34,1.17.51l19.32,7.93,4.83,2,2.41,1c.83.32,1.84.57,2.75.86l11.22,3.4,11.21,3.39c3.81,1.1,7.23,2.39,11.76,3.12l25.69,5.12,6.43,1.29a13.55,13.55,0,0,0,1.71.24l1.81.18,3.61.36,14.46,1.44,14.45,1.44,3.61.36,1.81.18c.59.07,1.21.11,1.86.13l7.69.32,30.76,1.3c5.08.25,10.37.33,15.59.47l15.68.38,15.69.39c2.59.08,5.25.1,7.92.11l8,.06,31.91.22,32.34-.33,16.19-.19,16.36-.48c10.91-.34,21.79-.6,32.73-1l33-1.6,8.24-.4,4.12-.2,4.13-.28,16.54-1.11c11-.77,22.05-1.45,33.08-2.27l21.09-1.78c5.89-.47,11.77-1.08,17.66-1.62s11.77-1.08,17.65-1.71l17.63-1.85,4.59-.5,4.82-.56,9.66-1.14c25.8-3.25,51.82-7.42,78.18-12.81s53.11-12.18,80.26-20.68c3.38-1,6.8-2.16,10.21-3.31l10.23-3.43,10.31-3.72c3.43-1.27,6.85-2.47,10.32-3.87,6.92-2.73,13.79-5.38,20.78-8.45,3.48-1.51,6.94-3,10.42-4.53l10.49-4.89a500.74,500.74,0,0,0,84.23-50.09c3.48-2.48,7-5.26,10.41-8s6.91-5.44,10.33-8.34,6.82-5.91,10.21-8.9c1.69-1.52,3.38-3,5-4.55l5-4.79c3.32-3.22,6.64-6.39,9.9-9.72s6.45-6.87,9.64-10.34c1.59-1.75,3.2-3.43,4.76-5.26l4.64-5.5c3.07-3.71,6.14-7.36,9.12-11.17s5.85-7.8,8.73-11.74c1.42-2,2.89-3.91,4.26-6l4.08-6.18c2.69-4.14,5.4-8.25,8-12.47s5-8.61,7.4-12.95c1.2-2.18,2.44-4.33,3.58-6.54l3.34-6.7c2.19-4.47,4.38-9,6.47-13.48s3.87-9.17,5.74-13.78l2.78-6.93c.86-2.32,1.66-4.65,2.47-7q2.42-7,4.72-14c.2-.64.35-1.06.6-1.88l.7-2.38,1.37-4.79c.84-3.16,1.67-6.34,2.42-9.5a288.24,288.24,0,0,0,6.33-38.11,276.73,276.73,0,0,0,1-40.06L1613,1385l-.43-5.35c-.28-3.53-.72-7.23-1.17-10.88-.22-1.8-.5-3.7-.79-5.58l-.91-5.62c-.34-1.91-.72-3.86-1.1-5.78s-.75-3.81-1.22-5.83a237.4,237.4,0,0,0-17.29-50.24,218.73,218.73,0,0,0-36.14-53.63c-4-4.33-8.12-8.53-12.6-12.61-2.23-2-4.43-4-6.77-6s-4.7-3.85-7.09-5.72c-4.78-3.74-9.82-7.19-14.9-10.53q-3.82-2.41-7.74-4.71c-2.61-1.53-5.24-3-7.87-4.37-5.27-2.76-10.62-5.36-16.07-7.63l-4.1-1.7c-1.38-.57-2.73-1.1-4-1.58q-4-1.48-8-2.85c-1.36-.47-2.7-.89-4-1.28l-3.9-1.16-3.91-1.1c-1.33-.37-2.61-.71-3.83-1q-3.73-.91-7.48-1.74c-1.27-.29-2.5-.54-3.65-.76l-3.53-.66-3.54-.62c-1.2-.2-2.37-.39-3.44-.54q-3.32-.48-6.64-.89c-1.12-.15-2.22-.28-3.21-.37l-3.09-.31-3.09-.27c-1-.09-2.07-.18-3-.23-3.77-.24-7.74-.46-11.1-.52l-2.62-.06-2.55,0h-4.8l-2.35,0-2.18,0-4.33.13-4,.18-2,.1-1.77.11-3.54.22-3.15.24-5.72.46-32.39,2.7-15.87,1.32-15.89,1.15-31.77,2.25-31.8,1.88c-5.3.3-10.6.65-15.9.91l-15.91.75c-10.61.48-21.21,1.05-31.82,1.45l-31.84,1.12c-42.45,1.28-84.93,2.1-127.41,1.94-21.24.11-42.47-.32-63.71-.54l-31.85-.74-15.92-.38-15.92-.57-31.83-1.16-31.82-1.53c-5.31-.27-10.61-.47-15.91-.8l-15.9-1-15.9-1c-5.3-.32-10.6-.59-15.9-1l-31-2.22-.12.13,0,0,.47-.44,1-.9c.64-.6,1.28-1.21,2-1.8l4-3.59c2.64-2.4,5.47-4.78,8.19-7.18,11.19-9.55,23.2-19,35.91-28.54,25.51-19,53.84-37.79,84.2-57l23.09-14.52,30.32-18.84q24.2-15,48.27-30.13c8-5,15.93-10.17,23.91-15.25s15.79-10.28,23.58-15.47c31.18-20.76,61.22-42.15,88.89-64,3.49-2.72,6.79-5.48,10.2-8.21l5.08-4.12c1.68-1.37,3.4-2.73,5-4.12l9.73-8.28,4.86-4.13,4.67-4.16,9.33-8.3c1.59-1.38,3-2.77,4.52-4.16l4.44-4.16,4.45-4.16c1.47-1.39,3-2.78,4.37-4.16l8.46-8.33,4.23-4.16,4-4.15,8-8.31c1.37-1.39,2.59-2.77,3.87-4.15l3.81-4.14,3.8-4.15c1.27-1.38,2.58-2.76,3.7-4.14l7-8.27,3.49-4.13,3.14-4.12,6.28-8.24.79-1,.7-1,1.39-2,2.77-4.09,2.75-4.08,1.38-2c.44-.68.81-1.35,1.22-2l4.82-8.07c.79-1.35,1.65-2.7,2.37-4l2.07-4,4.14-8c1.27-2.63,2.36-5.23,3.55-7.84l1.75-3.92c.29-.65.59-1.31.86-2l.73-1.92,2.9-7.69.73-1.92.36-1,.29-.95L1259,726l2.36-7.54,1.87-7.38c1.38-5,2.1-9.72,3-14.54.52-2.43.73-4.75,1.07-7.11l.93-7.06c.46-4.65.78-9.36,1-14.15s.11-9.73,0-14.81-.57-10.4-1.22-15.92a157.71,157.71,0,0,0-2.91-17.39l-4.6-18.8-1-3-.48-1.49-.13-.37c0-.13-.23-.2-.2-.35l-.25-.74-2-6c-1.46-3.92-3.06-7.75-4.69-11.47a204.5,204.5,0,0,0-32.83-51.3c-3.81-4.38-7.73-8.45-11.71-12.34-1.91-2-4.27-3.79-6.45-5.67l-6.65-5.63-6.65-5.63c-2.57-1.8-5.3-3.56-7.94-5.34l-8-5.34-4-2.66-2-1.33-2.38-1.21L1144,471.76c-1.61-.8-3.14-1.63-4.81-2.4l-5.66-2-11.33-4.07-11.33-4.07-1.42-.51a8.17,8.17,0,0,0-1.49-.46l-3.31-.75-6.62-1.49-13.23-3-6.62-1.5-3.31-.75-1.65-.37-.83-.18-.94-.11c-20.18-2.13-39.56-4.87-61.32-5.8l-15.92-1-4-.25c-1.33-.08-2.64-.18-4-.19l-8.3-.21-33.18-.84c-2.72-.11-5.64,0-8.48,0l-8.55.05-17.1.11-8.55.05-4.28,0c-1.42,0-2.85,0-4.32.07l-17.47.58-17.47.58c-5.83.2-11.63.35-17.56.73l-35.41,1.95c-5.89.29-11.83.74-17.77,1.16L770,448.35l-17.82,1.27L734.31,451l-52.89,4.29c-23.62,1.93-47,3.87-69.71,5.48s-45.21,3.08-67.05,4l-8.22.38-8.12.27c-5.39.17-10.84.39-16.18.51l-16,.29-4,.07h-11.8l-7.86,0c-2.62,0-5.17-.09-7.75-.12l-15.45-.3-19.62-.78h-.05l.79-.84.33-.35,3.15-3.61,6.22-7.29,1.54-1.83,1.57-2,3.12-4q3.11-4,6.15-8L190.18,244.92a.75.75,0,0,0-.26.24l-.09.15,0,.09-.16.15a7.32,7.32,0,0,0-.59.66l-.26.36-3.47,3.28-7,6.59-1.75,1.65-2.05,1.71-4.09,3.43-8.19,6.85L154,276.91c-11.05,9.09-21.87,18.32-32.1,27.73L120,306.39l-1.85,1.78-3.67,3.56-7.36,7.13L93.41,333.27l-5.3,6.24-2.65,3.12c-.88,1-1.81,2.07-2.57,3.12-3.19,4.19-6.47,8.38-9.59,12.56-2.91,4.19-5.81,8.4-8.61,12.61l-7.75,12.62L50,396.18c-2.12,4.22-4.14,8.44-6.22,12.66-1.92,4.23-3.67,8.48-5.51,12.72s-3.4,8.54-4.93,12.88A283.34,283.34,0,0,0,20,488.21,253.65,253.65,0,0,0,17.88,544a237.88,237.88,0,0,0,11,56.23A229.5,229.5,0,0,0,53.26,652c1.26,1.93,2.51,3.86,3.79,5.72L59,660.49l2,2.73c2.63,3.65,5.37,7.12,8.11,10.55a228.39,228.39,0,0,0,17.57,19.11A231.53,231.53,0,0,0,106.32,710c1.72,1.37,3.56,2.69,5.34,4a13,13,0,0,0,1.45,1l1.51.92,3,1.85,12.09,7.41,12.09,7.4,3,1.86c1.14.53,2.37,1,3.54,1.52l7.14,3,14.27,6,7.14,3,3.57,1.51,1.78.75a12.68,12.68,0,0,0,1.85.71c21.35,6,42,12.64,64.73,17.14l16.68,3.74,4.17.93c.7.15,1.38.33,2.1.45l2.16.36,8.63,1.44,34.53,5.73c11.72,1.45,23.49,2.79,35.24,4.19l8.81,1c1.47.17,2.94.36,4.41.51l4.45.32,17.8,1.31,17.8,1.3,4.45.33,2.22.16,1,.07.65,0,5.14.21,20.58.81c6.8.18,13.56.27,20.35.4,3.38,0,6.8.15,10.14.15h10l10,0h5l5-.09,19.83-.35c6.58-.15,13.06-.41,19.6-.61l9.78-.34,9.66-.44c25.86-1.1,51.07-2.76,75.92-4.52s49.11-3.78,73.07-5.73L726.6,778l-43.14,27c-33.76,21.41-68.81,44.48-104.23,70.8C561.51,889,543.72,903,526,918.12c-4.42,3.85-8.84,7.61-13.23,11.57l-6.59,5.93c-1.1,1-2.19,2-3.28,3l-3.81,3.54-5.32,5q-2.58,2.46-5.09,5l-10.1,10c-1.67,1.68-3.4,3.31-5,5l-4.87,5.15L459,982.62a651.64,651.64,0,0,0-67.62,87.78c-9.48,15.22-18.55,30.57-26.33,46l-3,5.79-1.49,2.9c-.49,1-.89,1.94-1.34,2.91L354,1139.69l-1.31,2.91c-.44,1-.89,1.94-1.23,2.91l-2.23,5.82L344.75,1163c-1.28,3.85-2.48,7.71-3.69,11.57s-2.44,7.73-3.26,11.52L335,1197.49l-.69,2.86c-.22,1-.36,1.89-.55,2.84l-1,5.65c-.36,1.89-.6,3.76-.91,5.65s-.62,3.76-.83,5.63l-.64,5.61-.31,2.81-.22,2.8-.44,5.59c-.13,1.87-.17,3.73-.26,5.59s-.21,3.72-.19,5.58v5.57c0,1.86,0,3.72.1,5.58l.18,5.57.41,5.57c.15,1.86.25,3.71.48,5.58.41,3.72.75,7.44,1.4,11.16.3,1.86.55,3.72.89,5.59l1.06,5.59.54,2.8.66,2.8,1.31,5.59,1.53,5.59c.51,1.86,1,3.73,1.66,5.57l1.84,5.54c.61,1.85,1.36,3.67,2,5.51l4.13,11c1.93,4.16,3.86,8.33,5.83,12.47s4.25,8.11,6.48,12.07,4.69,7.77,7.18,11.5c1.26,1.85,2.49,3.73,3.79,5.52s2.58,3.63,3.92,5.37a229.92,229.92,0,0,0,35.41,37.46,249.17,249.17,0,0,0,42.76,29c3.91,2.09,7.89,4.13,12,6.08s8.27,3.79,12.55,5.58,8.63,3.5,13.11,5.11l3.37,1.2a9,9,0,0,0,1.79.5l1.9.4,7.6,1.62,60.8,13,15.2,3.24a26.43,26.43,0,0,0,4,.52l4.12.38,8.24.75,33,3,33,3,16.48,1.5,8.23.67,7.91.58,35.62,2.55c5.74.44,11.49.74,17.24,1.09l17.23,1,17.24,1c5.75.35,11.5.57,17.25.86l34.5,1.66,34.51,1.26,17.26.61,17.26.42,34.53.8c23,.25,46,.7,69.07.59,46.05.17,92.1-.71,138.13-2.1l34.51-1.22c11.51-.43,23-1,34.51-1.57l17.25-.81c5.74-.28,11.49-.66,17.24-1l34.48-2L1318,1504l17.23-1.24,17.21-1.43,33.77-2.82,2.55-.21,1-.07.6,0,.3,0h.12l.2,0-.33-8c-.11-3-.2-5.93-.27-8.89l-.28-16c-.07-4.37-.07-8.76,0-13.14.06-2.44,0-3.72,0-5.51s0-3.36.09-5,.11-3.37.18-5.06.12-3,.17-4.37q.14-4,.47-8c.13-1.44.18-2.48.25-3.52s.16-2.14.26-3.21.22-2.14.34-3.21.24-2,.32-2.87c.19-1.72.42-3.45.7-5.18.17-.93.27-1.66.36-2.32s.22-1.39.34-2.09.27-1.39.42-2.09.28-1.34.38-1.85c.21-1.11.47-2.21.76-3.32.17-.6.29-1.07.38-1.46s.22-.85.35-1.28.25-.85.39-1.28.28-.82.35-1.1c.2-.62.42-1.25.67-1.88.14-.36.24-.62.3-.79l.25-.63.29-.64c.61-1.32-.49,1.06-.33.72a7,7,0,0,1,.36-.73l.29-.53c.07-.13.15-.26.25-.41l0-.07,0-.05s0,.06-.06.07a1.81,1.81,0,0,1-.15.19l-.35.4-.46.47c-.22.23-.44.43-.65.62l-.85.75c-.32.28-.58.46-1,.77s-.8.63-1.21.91l-1.36.94c-.5.34-1,.63-1.49.93s-1.16.72-1.74,1l-.87.46-1,.54c-.67.35-1.33.68-2,1a93.92,93.92,0,0,1-20.16,6.76,129.18,129.18,0,0,1-21.59,2.9,103.79,103.79,0,0,1-14.16-.24c-2.56-.25-2.51-.44.51.28l1.33.32,1.48.4c.62.16,1.25.34,1.88.52l.94.3c-91.45-27.88-25.4-7.61-45.84-13.78a11,11,0,0,0-.61,1.66l-.23.86c-.14.25-.27.5-.38.75a9.87,9.87,0,0,0-.58,1.57,11.85,11.85,0,0,0-.77,1.45,7.12,7.12,0,0,0-.31.76,7.68,7.68,0,0,1-.45.71,10.09,10.09,0,0,0-.79,1.49c-.32.49-.72,1-1,1.47-.16.26-.3.52-.44.79s-.42.5-.61.76a16.68,16.68,0,0,0-1.14,1.61c-.43.54-1,1.08-1.42,1.65-.23.29-.45.58-.67.88a11.29,11.29,0,0,1-.84.87c-.57.58-1.12,1.19-1.65,1.82s-1.34,1.23-2,1.88c-.33.32-.65.65-1,1s-.77.64-1.14,1c-.78.65-1.54,1.33-2.28,2s-1.77,1.36-2.62,2.06a32.24,32.24,0,0,1-2.74,2.13,177.32,177.32,0,0,1-29.84,17.44,314.73,314.73,0,0,1-40.94,15.8c-15.09,4.71-31.31,8.88-48.28,12.38s-34.71,6.34-52.83,8.62l-6.83.81-3.42.4-1.74.2-1.92.2-15.38,1.61c-5.13.56-10.26,1-15.39,1.49s-10.26,1-15.4,1.42l-12,1h0l50-19.21c42-16.19,85.83-33.4,130.88-53.53,22.53-10.09,45.4-21,68.43-33,5.75-2.93,11.54-6.11,17.31-9.2s11.58-6.42,17.36-9.65c11.59-6.7,23.19-13.54,34.77-20.92l8.68-5.53,8.67-5.75c5.78-3.77,11.53-7.88,17.28-11.86,2.88-2,5.74-4.13,8.6-6.2s5.72-4.15,8.57-6.31l8.52-6.53,2.8-2.16,1.42-1.1,1.6-1.28,6.47-5.19q6.43-5.24,12.74-10.62c4.18-3.61,8.24-7.33,12.36-11l6.16-5.5,3.08-2.76c1-.93,2-1.9,3-2.85l11.77-11.48c1.94-1.92,4-3.79,5.83-5.77l5.6-5.92,11.21-11.84c3.57-4,7-8.14,10.55-12.2s7.13-8.1,10.33-12.31c6.54-8.34,13.39-16.58,19.3-25.14l9.17-12.74,8.49-12.91,4.25-6.46,1.06-1.61c.34-.54.63-1.09.95-1.64l1.87-3.28,7.49-13.11,1.88-3.28a12.89,12.89,0,0,0,.85-1.65l.78-1.65,3.1-6.62,6.2-13.25,4.81-13.24c1.55-4.41,3.37-8.83,4.52-13.22a232.77,232.77,0,0,0,6.07-26.31l.56-3.3.47-3.31c.34-2.2.56-4.42.83-6.63s.4-4.45.6-6.67.42-4.47.52-6.72c.17-4.49.3-9,.28-13.57s-.24-9.15-.51-13.76c-.18-2.31-.31-4.63-.55-7l-.82-7c-.26-2.32-.66-4.65-1-7-.18-1.17-.35-2.33-.55-3.49l-.68-3.47c-.88-4.63-2-9.24-3.09-13.82l-1.9-6.83c-.66-2.26-1.39-4.5-2.1-6.75a227.49,227.49,0,0,0-23.43-50.09c-1.23-1.91-2.42-3.84-3.67-5.74L1548.3,865c-1.26-1.88-2.69-3.65-4-5.48l-2-2.72-2.12-2.66A242.68,242.68,0,0,0,1522,833.66l-4.88-4.89L1512,824c-1.67-1.6-3.47-3.12-5.24-4.65s-3.51-3.1-5.37-4.58c-7.27-6-15-11.74-23-17.24a364.89,364.89,0,0,0-53-29.4l-3.56-1.64-3.63-1.56c-2.43-1-4.82-2.11-7.28-3.11l-7.4-3c-1.21-.52-2.51-1-3.79-1.41l-3.86-1.35-15.4-5.42-7.71-2.7-3.85-1.36-1.93-.67-2-.59L1333,735.94l-2-.59-1.75-.54-3.44-1.08-6.87-2.15-13.76-4.3-3.43-1.08-1.72-.53c-.71-.22-.73-.24-1.1-.36l-3.46-1.17-6.93-2.32c-4.62-1.52-9.21-3.18-13.8-4.78-36.75-13-72.9-27.68-108.19-44.2q-26.49-12.36-52.34-26l-12.6-6.73-.47-.25h0c1.42-2.47-4.2,7.4-6.39,11.14-3.38,5.77-5.59,9.6-7.13,12.33q-2.78,4.81-5.64,9.6l-9.81,16.19q-2.06,3.33-4.19,6.63c-1.53,2.35-2.81,4.33-3.73,5.82q-3.18,5-6.62,9.85c-1.78,2.69-3.53,5.21-5.42,7.75-1,1.3-1.9,2.51-2.57,3.47s-1.53,2.05-2.32,3.06l-4.43,5.5c-.67.81-1.37,1.62-2.08,2.41s-1.43,1.57-1.95,2.19c-1.15,1.32-2.41,2.62-3.68,3.83a41.5,41.5,0,0,1-3.16,3.05,42.42,42.42,0,0,1-9.16,6.7,10.92,10.92,0,0,1-1.27.58,4.81,4.81,0,0,1-.69.26l-.09,0h0c-2,.39,2.68-.53,1.86-.36-.25.05-.51.1-.78.13-2,.3-2.66.05-1.94.2a21.44,21.44,0,0,1,5.79,2.42,59.07,59.07,0,0,1,10.74,8.12,122.85,122.85,0,0,1,12.78,14.09c1.09,1.4,2.12,2.81,3.26,4.31.55.74,1.08,1.48,1.61,2.24-10.87-15.16,100.14,141.5,53.93,75.45l1.65.68c.5.4,1.15.27,1.86-.08l4.12-1.47,33-11.75,8.16-2.9,4-1.44,2-.72,1.93-.72,15.39-5.82,123.11-46.57L1549.61,693l15.38-5.82,7.7-2.91,3.84-1.45c.68-.24-.64-.7-.86-1l-1.44-1.11-23-17.72-46.1-35.43-92.18-70.86L1044.16,273.16Z"/><path class="b" d="M924,430c.58-3,3.81-1.38,5.7-2.13,3,3.75,6.79,7.66,4.22,9.76Z"/><path class="b" d="M956.72,600c-.81.55-3.22.18-5.59-.3s-4.76-1.06-5.74-.86c-3.19-.24,2.18,1.94,2.73,2.91a61.46,61.46,0,0,0-9.72,1.19,20.8,20.8,0,0,0-3.55,1.09,8.15,8.15,0,0,0-1.51.88c-.12.08-.23.18-.35.27l-.08.08,0,0h0l-.09.06-.4.28L930.48,607a202.61,202.61,0,0,0-18.93,15.37,188.91,188.91,0,0,0-20.7,22.29,175.21,175.21,0,0,0-20.6,33.23,166.09,166.09,0,0,0-14.53,94.21c.54,3.79,1.18,7.53,2,11.3s1.82,7.78,2.9,11.61,2.32,7.56,3.67,11.24c.67,1.83,1.37,3.66,2.1,5.47l1.11,2.71L868.6,817c1.55,3.4,3.19,6.77,4.92,10.08.88,1.7,1.71,3.15,2.59,4.69s1.77,3,2.69,4.51,1.84,3,2.79,4.43,1.82,2.68,2.75,4c1.84,2.62,3.79,5.26,5.71,7.71,1.82,2.29,3.7,4.54,5.61,6.74l1.44,1.65.72.8.67.73,2.72,2.87L904,868l1.39,1.39,1.31,1.25c1.72,1.63,3.47,3.22,5.23,4.79l1.32,1.17,1.22,1,2.44,2,2.46,2,1.23,1,1.13.86q2.26,1.71,4.55,3.38l1.14.82,1,.73,2.1,1.44,2.1,1.41,1,.7,1,.61,3.85,2.42,1,.59.88.52,1.75,1,1.75,1,1.68.95c2.09,1.16,4.31,2.38,6.1,3.29l2.78,1.42,2.5,1.23c.94.47,1.37.64,2,.91l1.71.77,3.41,1.51,6.79,3,6.75,2.9,6.73,2.76c4.48,1.82,8.9,3.62,13.32,5.31-3,1.59,4.14,4.82,9.88,7.82-3.23,4.83-10.79,5.61-20.56,4.11l-15.62-7.07c-5.15-2.4-10.26-4.86-15.34-7.3L952.12,918l-1-.47-1.43-.73-2.92-1.52-3.25-1.75-1.74-1-1.82-1-1.82-1-2-1.17-4-2.44L927.73,904l-1.1-.72-1.16-.77-2.42-1.66-2.41-1.69-1.2-.85-1.31-1q-2.64-1.95-5.23-4l-1.35-1.07-1.42-1.16-2.82-2.33-2.78-2.37-3-2.73-3-2.78-1.48-1.4-.74-.72-.81-.8q-3.19-3.22-6.28-6.55c-.53-.58-1-1.07-1.56-1.72L886,867.89q-1.63-1.9-3.24-3.84c-1.07-1.29-2.12-2.6-3.16-3.91s-2.21-2.92-3.29-4.4-2.16-3-3.2-4.5-2.05-3-3.15-4.71q-3.21-5.06-6.14-10.29a180.81,180.81,0,0,1-18.42-49.08c-.25-1.11-.47-2.2-.67-3.23l-.58-3.18q-.55-3.18-1-6.37l-.44-3.2-.36-3.35q-.34-3.36-.57-6.72c-.33-4.43-.42-9.13-.38-13.74s.29-9.29.71-14,1-9.28,1.79-13.88c.39-2.29.81-4.6,1.29-6.85s1-4.45,1.55-6.66,1.14-4.44,1.77-6.6,1.28-4.21,2-6.31,1.42-4.19,2.18-6.23,1.52-3.93,2.32-5.88a186.67,186.67,0,0,1,22-39.1,199.32,199.32,0,0,1,22.78-26,219.51,219.51,0,0,1,20.54-17.4l5.16-3.81.06-.18a3,3,0,0,0-.1-2.54c-.5-.86-1.56-1.78-3.82-2.76,4.7,2,7.81,3.4,10.36,4.32a47.47,47.47,0,0,0,6.44,1.87c2,.44,4,.82,6.86,1.47S951.71,598.41,956.72,600Z"/><path class="b" d="M1209,1039.35a20.43,20.43,0,0,1-6-3.24Q1203.63,1036.64,1209,1039.35Z"/><path class="b" d="M1393.42,1289.87c-1.76,1.66-3.79,3.51-6,5.45s-4.69,3.89-7.26,5.92-5.26,4.14-8,6.08-5.51,3.88-8.24,5.7c-11,7.22-21.21,12.5-25.49,12.15l-7.22,6.52c-2.42,2.15-4.86,4.24-7.35,6.38s-5.06,4.32-7.71,6.42-5.38,4.25-8.24,6.41a288.39,288.39,0,0,1-42.45,26.32c-4.18-.52-8.6-.92-11.23-3,4.28-3.47,9.39-7.66,15-12l8.84-6.94,9.48-7.32c13-9.91,27.28-20.75,41-30.48,3.44-2.47,6.85-4.76,10.21-7.07s6.66-4.48,9.89-6.5,6.37-4,9.42-5.72,6-3.26,8.82-4.65a54.35,54.35,0,0,1,15.29-5.32C1386.67,1287.46,1390.49,1287.91,1393.42,1289.87Z"/><path class="b" d="M520,1482.68c5.13-6.8,4.49-4,3.49-.86s-2.36,6.45,1.53.84c1.14,1.15-1.75,5.64-4.72,9.61s-6.78,7.42-8.12,6.37c.88-2.31,3.71-6.45,5.85-9.93C520.3,1485.23,522,1482.41,520,1482.68Z"/><path class="b" d="M769.64,1776.27c.57-1.69,2.33-3,5.89-3.86a38.49,38.49,0,0,1,6.8-.79c2.77-.12,6.06,0,10.09.09C791.52,1775.09,785.65,1777.28,769.64,1776.27Z"/><path class="b" d="M1509,1502.49a74.6,74.6,0,0,0,8.46-15.71,50.08,50.08,0,0,0,2.84-9.8,37.18,37.18,0,0,1,2.11-7.71,32.7,32.7,0,0,1,2.24-4.39l.78-1.26.43-.65.22-.34.25-.43c.66-1.16,1.39-2.4,2.21-3.74,1.74-8.54,3.13-17.24,4.09-26.26a250,250,0,0,0,1.45-28.12,203.85,203.85,0,0,0-2.49-30.94,167.65,167.65,0,0,0-9.25-34.47c-.55-1.48-1.23-3-1.87-4.55s-1.29-3-2-4.57c-1.49-3.09-3-6.12-4.75-9.23a137.49,137.49,0,0,0-12.18-18.27c-2.39-3-4.83-5.89-7.54-8.72s-5.5-5.56-8.41-8.2a130.06,130.06,0,0,0-18.95-14c-1.67-1-3.34-2-5-2.93s-3.38-1.77-5.08-2.62-3.42-1.66-5.15-2.41-3.47-1.49-5.2-2.18-3.41-1.26-5.12-1.85l-2.56-.87-2.49-.76c-1.65-.49-3.32-1-5-1.4s-3.19-.78-4.78-1.13l-2.38-.53-2.27-.42q-2.28-.42-4.53-.78c-1.46-.22-2.87-.4-4.29-.58s-2.86-.35-4.17-.45l-4-.33c-1.35-.1-2.52-.13-3.78-.19s-2.5-.11-3.66-.12l-3.44,0a145.19,145.19,0,0,0-22.54,1.88l-2.31.38-2.14.39-2.09.4-1.94.4-7.17,1.58c-9.44,2.12-18.95,4.32-29,5.87s-20.2,2.84-30.5,4-20.71,2.36-31.22,3.31c-21,1.78-42.34,3.45-63.72,4.44-42.75,2.37-85.65,3.08-126.43,4.14-47,1.17-95.63,1.94-135.33-2.72,8.41-4.76,19.77-7.73,32.92-9.44a360,360,0,0,1,43.64-2.34c3.89,0,7.82,0,11.77.12l11.89.24c8,.17,15.91.43,23.73.71l11.6.43,5.69.22,5.6.14c7.38.17,14.49.31,21.15.34a131.64,131.64,0,0,0,14.13-2.4q3.15-.72,6-1.56c1.86-.59,3.62-1.2,5.28-1.85,69.42,0,128.82-7.93,185-15,14-1.85,27.91-3.57,41.71-5.06,3.54-.39,7.71-.85,12.53-1.24s10.42-.71,16.66-.77a170.07,170.07,0,0,1,46.73,5.71,145,145,0,0,1,28.4,11.06,146.65,146.65,0,0,1,13.72,8q3.32,2.26,6.56,4.65c2.15,1.59,4.21,3.31,6.27,5a143.64,143.64,0,0,1,21.54,22.69,149.09,149.09,0,0,1,24.2,48.72,156.83,156.83,0,0,1,4.77,22.8,171.35,171.35,0,0,1,.45,41.45,137.13,137.13,0,0,1-.61,25.74,177.3,177.3,0,0,1-4.76,24.73c-.56,2.08-1.15,4.18-1.75,6.25l-1.6,5.05-3.27,10.34-.81,2.65c-.32.88-.63,1.76-.94,2.65q-.93,2.68-1.87,5.43t-1.87,5.59c-.64,1.89-1.18,3.85-1.92,5.76-2.6,4.12-5.25,8.26-7,8.66-2.53,3-3.78,2-4.5-.29S1509.39,1504.93,1509,1502.49Z"/><path class="b" d="M1056.7,1307a135,135,0,0,1-23.49,1.47c-7.85-.37-14-1.79-13.37-5.1-7,1.8-14.31,1.52-22.23.92-4-.31-8.06-.66-12.32-.92a114.58,114.58,0,0,0-13.3-.19c-51.42-6.94-111.62-10.64-175.14-15.62l-48.14-4-24.36-2.33-6.11-.6-3-.3-2.09-.24-4-.45c-1.29-.13-2.57-.32-3.85-.48-10.24-1.36-20.36-2.71-30.16-4.34q-7.35-1.24-14.42-2.58c-4.71-.91-9.32-1.77-13.77-2.86.9-3,3.26-4.16,5.91-4.81s5.73-.79,8.22-1.57a102.47,102.47,0,0,0,20,2.5c6.65.23,13.12-.08,19.35-.29,3.12-.12,6.18-.22,9.23-.25,1.54,0,3,0,4.66,0l1.23,0,1.62.07,4.23.22a295.2,295.2,0,0,1,35.19,4.12c8-.51,16.15-.64,24.38-.48q6.16.12,12.4.46l6.25.38,6.27.4c8.37.59,16.8,1.41,25.24,2.38q6.33.74,12.67,1.57l12.67,1.62c8.44,1.11,16.85,2.3,25.2,3.5l12.46,1.79,12.34,1.62c16.34,2.08,32.25,4.09,47.34,4.89a196.87,196.87,0,0,0,20.84,4.1c4,.59,8.2,1.14,12.58,1.62s8.95.83,13.64,1.17c9.38.67,19.27,1.12,29.3,1.34s20.2,0,30.11-.36C1064.07,1297,1060.5,1304,1056.7,1307Z"/><path class="b" d="M699.59,1300.15l-.72,3.84a157.45,157.45,0,0,1-18.74-.52q-9.21-.78-18.06-2c-5.92-.8-11.75-1.59-17.71-2.13a171.31,171.31,0,0,0-18.56-.7c8.32-4.59,22.81-4.15,31.88-7.31,4,.85,7.82,1.46,11.56,2s7.34.9,10.8,1.41C687,1295.7,693.28,1297.06,699.59,1300.15Z"/><path class="b" d="M643.62,1264.88c-1.82,3-7.56,3.29-13.23,2.12a36.23,36.23,0,0,1-7.78-2.57,16.6,16.6,0,0,1-4.51-2.84,31.48,31.48,0,0,1,12.92,1.62C634.64,1264.27,638.37,1265.38,643.62,1264.88Z"/><path class="b" d="M1025.1,864.74c-.1-1.4.55-4,2-7.08a64.71,64.71,0,0,1,11.29-16.56,69.83,69.83,0,0,1,6-5.76,72.85,72.85,0,0,1,7.28-5.42,71.61,71.61,0,0,1,8.62-4.84c2.82-4,5.7-8,9-12l4.91-6.08c1.67-2,3.43-4.09,5.22-6.15s3.44-4.16,5.25-6.25l2.75-3.16,2.66-3.19c1.82-2.13,3.65-4.29,5.49-6.46l5.41-6.57,2.76-3.32,2.65-3.35,5.36-6.79,5.12-6.89c.85-1.15,1.76-2.31,2.55-3.48l2.43-3.5,2.43-3.52c.82-1.18,1.62-2.36,2.35-3.55l4.51-7.15c1.47-2.39,2.8-4.8,4.19-7.21.67-1.21,1.37-2.42,2-3.63l1.86-3.64c1.15.5,2.72-.34,4.4-2a33.32,33.32,0,0,0,5.08-6.67,72.61,72.61,0,0,0,4.11-7.92c.51-1.23.93-2.37,1.25-3.35a12.17,12.17,0,0,0,.51-2.39,5.29,5.29,0,0,0-2.81,2.73,17,17,0,0,0-1.18,3.66c-.65,2.38-1.27,4.3-4,3.55,5.33-11.18,10.8-23,13.87-35.49a75.54,75.54,0,0,0,2.3-18.89,62.9,62.9,0,0,0-3-17.81c-.49-1.28-1-2.52-1.48-3.71s-1.13-2.31-1.73-3.4c1.58-1.84,3.44,3.07,5,2.73a1.11,1.11,0,0,0,.31-.67,7,7,0,0,0,0-1.08,16.78,16.78,0,0,0-.76-3.12,63.58,63.58,0,0,0-3.12-7.37c.72.1,2.21,2,3.68,4.82a48.24,48.24,0,0,1,3.58,10c.73,3.76,1,7.13.63,8.57-.15.72-.4,1-.78.57a4.44,4.44,0,0,1-.66-1.13c-.24-.55-.53-1.29-.93-2.24.08.47.16.91.23,1.34s.12.81.17,1.19c.12.76.25,1.44.39,2.07s.31,1.2.44,1.75.25,1.07.37,1.6a28.31,28.31,0,0,1,.66,3.41,31.13,31.13,0,0,1,0,4.71c.51-3.89,1.2-5.67,1.86-6.55s1.52-.81,2.25-1,1.34-.76,1.61-2.83a13.7,13.7,0,0,0,.12-1.86c0-.74-.08-1.6-.17-2.59a53.14,53.14,0,0,0-1.38-7.8c.52.09.91.92,1.31,2.1a31.51,31.51,0,0,1,1,4.22c.27,1.5.56,3,.87,4s.64,1.68,1.15,1.55a15.39,15.39,0,0,1-2.61,7.93c-.57,1-1.27,1.83-1.92,2.79a19.78,19.78,0,0,0-1.86,3.29,16.93,16.93,0,0,1,.12,2.48c0,1,0,2-.12,3.17s-.25,2.34-.42,3.63-.45,2.57-.7,3.94a129.91,129.91,0,0,1-4.66,16.14c-1.7,5-3.36,9-3.71,11.27s.49,2.6,3.4-.09c-.34,3-2.66,7.26-5.75,12-1.57,2.39-3.49,4.93-5.44,7.52l-3,3.92-3.23,4-3.2,3.93-1.54,1.93-1.58,1.92c-2.06,2.53-4,5-5.51,7.26a40.11,40.11,0,0,0-3.83,6.36,9.75,9.75,0,0,0-1,5.1q-3,3.72-5.74,7.22l-1.34,1.75-1.4,1.72-2.7,3.39-2.58,3.31-1.25,1.63-1.3,1.62q-2.6,3.21-5,6.35l-9.68,12.37-5,6.16-2.48,3.11c-.82,1-1.76,2.08-2.64,3.13l-5.43,6.4c-.89,1.08-1.88,2.17-2.87,3.27l-3,3.33c-4,4.5-8.48,9.16-13.28,14.12A465.51,465.51,0,0,1,1025.1,864.74Z"/><path class="b" d="M1148.56,612.74c-1.94-3.61-3.73-7-4-8.94s1.1-2.51,5.07.09c2.78,3.38,3.25,5.57,2.74,6.81S1150.24,612.39,1148.56,612.74Z"/><path class="b" d="M1125.36,595.53c-5.13-3.1-6.41-4.55-7.18-6s-1.12-2.83-4.7-4.77a17.55,17.55,0,0,1,10.81,5.25C1126.83,592.55,1127.72,595.3,1125.36,595.53Z"/><path class="b" d="M1089.51,570.6c-3.35,1.26-8-.27-13.66-2.34l-2.16-.8-1.11-.41-1.2-.38c-1.63-.5-3.3-1-5-1.45a56.53,56.53,0,0,0-10.95-1.85c3-1.4,8.72-.38,15.21,1.33l2.47.67c.83.23,1.68.47,2.45.74l4.78,1.62C1083.5,568.8,1086.64,569.83,1089.51,570.6Z"/><path class="b" d="M1033,558.31c-4.42.17-8.29.78-12.7,1-1.07,0-2.29.12-3.53.16s-2.55,0-3.93,0a73.71,73.71,0,0,1-9.29-.94,58.61,58.61,0,0,1,13.14-1.61q1.88,0,3.87,0c.66,0,1.36,0,2,.07l2,.18C1027.21,557.43,1030,557.81,1033,558.31Z"/><path class="b" d="M564.14,516.82c-11.5-.41-18.6-2.71-21.48-6.74C548.94,512.68,562.76,512.16,564.14,516.82Z"/><path class="b" d="M791.75,775.33c-5.64,2.44-11.12,4.46-14.56,6.31s-5,3.61-3.66,6.22c-4.34,1.79-9,3.34-13.24,4.66s-8.24,2.42-11.63,3.55a48.63,48.63,0,0,0-4.7,1.81c-.72.32-1.41.67-2.07,1-.33.18-.66.37-1,.57L738.58,801c-16.1,10.19-31.77,20.93-46.31,32.32-24.31,10-47.26,30.34-71.78,44.78a571.87,571.87,0,0,0-85.89,61.66c-1.74,1.52-3.48,3-5.2,4.56L524.24,949c-1.72,1.58-3.43,3.13-5.14,4.73l-6,5.67-3.95,3.8c-1.27,1.25-2.55,2.5-3.8,3.77l-7.52,7.63c-2.48,2.56-5,5-7.44,7.67l-7.2,7.87a546.42,546.42,0,0,0-51.43,65.8c-3.89,5.62-7.31,11.38-10.83,17.07s-6.74,11.46-10,17.19-6.13,11.51-9.1,17.26-5.56,11.52-8.26,17.25-4.89,11.51-7.23,17.23-4.13,11.45-6.08,17.14-3.41,11.33-4.92,17-2.53,11.16-3.66,16.68-2,11-2.64,16.4-1.1,10.79-1.39,16.14c-.08,2.67-.25,5.33-.27,8s-.06,5.31,0,8,.17,5.28.32,7.92.35,5.27.58,7.89l.93,7.87q.6,3.92,1.19,7.85c.53,2.6,1.05,5.21,1.57,7.81s1.25,5.21,1.88,7.81l2.25,7.75c.88,2.57,1.75,5.13,2.62,7.7l3.06,7.59,3.42,7.47,2.34,6.25c2.21,4.84,4.39,9.72,6.94,14.38,1.25,2.34,2.6,4.62,3.93,6.9.68,1.14,1.41,2.23,2.11,3.35s1.42,2.22,2.17,3.29a145.69,145.69,0,0,0,13.09,14.66,160.85,160.85,0,0,0,14.6,12.61,192,192,0,0,0,32.76,20,270.92,270.92,0,0,0,37.27,14.7c6.6,2.1,13.43,4,20.47,5.8,3.53.88,7.1,1.75,10.75,2.56a51.72,51.72,0,0,0,5.8.93l6,.81q24.64,3.38,49.7,7.31l12.55,2,1.57.25.79.13.84,0,3.35.24,6.7.48,27,2.06,27.19,2.28,13.67,1.21,13.54,1.07,5.24.4,4.37.35,8.75.73,17.55,1.57,35.2,3.1L789,1450l17.48,1.5,34.55,3,33.74,2.63c.32,2-.65,4.46,7.53,4.16,43.19,4.42,85.37,10.38,128.34,14.62l16.15,1.59,8.11.76,8.13.63q16.29,1.23,32.83,2.15l8.29.42,8.33.27q8.36.24,16.78.36t17,.09c2.84,0,5.69,0,8.55-.08l8.6-.24c11.22-.37,22.07-1.81,32.86-2.73,5.4-.44,10.77-.82,16.18-.89a105.32,105.32,0,0,1,16.36,1c11.59-2.64,24.67-4.8,38.31-7.08,6.83-1.11,13.8-2.18,20.8-3.24s14-2.07,21-3.26c13.15-.09,28.27-.71,44.2-1.91,8-.66,16.13-1.45,24.36-2.36q6.18-.67,12.38-1.44l6.18-.78,3.09-.4,1.44-.2,1.33-.2c3.43-.52,5.77-.93,7.07-1.25l.47-.13a2.63,2.63,0,0,0,.29-.11c.16-.07.41-.17.37-.23v-.08l0-2,.07-4.6v-3.56q0-3.57.16-7.13l.15-3.56,0-.89,0-.73,0-1.4c.06-1.86.15-3.73.27-5.59s.27-3.6.4-5.39c.18-3,.46-6,.85-8.91.21-2.4.52-4.77.92-7.15,0-.28.12-.63.14-.85l.1-.72.22-1.42q.24-1.43.54-2.85a70.38,70.38,0,0,1,3.76-13.5c.11-.28.23-.55.36-.83l.2-.42-.56,1.21v0l0-.06,0-.12c.14-.3.3-.62.49-.94s.47-.79.42-.72l0-.06a.51.51,0,0,0-.07.1l-.22.25c-.16.19-.32.36-.47.51l-.31.33-.39.37-.88.79c-.36.32-.68.56-1.06.85-.92.76-1.67,1.24-2.81,2a58.1,58.1,0,0,1-7.23,4c-7.57,3.67-17.53,6.48-27.09,8a135.09,135.09,0,0,1-13.55,1.45c-1,.07-2.08.08-3,.12s-1.87.06-2.79,0h-.57l.08,0a.33.33,0,0,1,.19.08,5.12,5.12,0,0,1,1.45,1.92l.27.52.12.2.06.1s0,.11,0,.21l-.08.31c-.41,1.66-.83,3.35-1.29,5.06-.36,1.17-.88,2.25-1.28,3.4l-.61,1.73-.3.87-.39.82c-1.1,2.18-1.89,4.54-3.21,6.69-.61,1.1-1.12,2.25-1.77,3.36s-1.39,2.18-2.06,3.3c-.35.56-.62,1.15-1,1.69l-1.19,1.64c-.81,1.09-1.52,2.23-2.35,3.35a136.08,136.08,0,0,1-27.65,26.63c-11.66,8.79-26.21,17-42.37,24.55-8.22,3.66-16.65,7.29-25.67,10.5-4.4,1.71-9.08,3.17-13.64,4.76-2.31.77-4.69,1.47-7,2.22s-4.68,1.49-7.1,2.15l-7.2,2.07c-2.4.69-4.88,1.3-7.31,2-4.85,1.34-9.87,2.48-14.82,3.7-10,2.29-20.12,4.46-30.41,6.31s-20.64,3.54-31,5c-5.22.7-10.41,1.45-15.65,2.05l-3.91.48-2,.24-2.09.23-8.39.92c-11.16,1.27-22.25,2.35-33.23,3.46l-16.4,1.52-7.16.7c-7.8.79-15.49,1.44-23,2.09a24,24,0,0,1-9.33,3.7,59,59,0,0,0-9.9,2.26c-7-3-18.63-2.93-33.14-1.66-3.62.33-7.42.7-11.33,1.18s-7.95,1-12,1.51c-8.15,1.08-16.51,2.32-24.17,3.56.12-3.44-6-4.54-13.57-6.55a53.51,53.51,0,0,1-11.25-4.09c-3.42-1.85-6.22-4.34-7.06-7.7A10.81,10.81,0,0,1,867,1528a21.6,21.6,0,0,1,1.41-4.73,65.79,65.79,0,0,1,5.2-9.42c1.8-2.92,3.36-5.49,3.73-7.59s-.47-3.74-3.36-5c5.44-5.74,10.61-10.13,15.46-14.39s9.57-8.38,15-12.32a108.4,108.4,0,0,1,18.75-11,113.8,113.8,0,0,1,24.58-8,167.89,167.89,0,0,1,22.22-2.84c7.07-.5,13.39-.65,18.61-1.12,4.52-2.94,10-5,15.34-7.11l4.83-1.94c5.27-2.07,10.5-4.16,15.84-6.33s10.65-4.38,16.06-6.7,10.84-4.71,16.32-7.22c0-1.62-1.92-3.18,2.13-5,27.13-7.93,65.52-34.5,102.9-45.71,6.69-4.06,13.27-8.3,19.79-12.55s13-8.67,19.59-13.23c13.13-9,26.58-18.48,41.22-28.67s30.47-21,48.37-33.15l6.82-4.59,7-4.79c2.37-1.62,4.79-3.19,7.22-4.88l7.44-5.1,3.81-2.57,3.85-2.68,7.91-5.44c2.67-1.83,5.37-3.79,8.12-5.7s5.58-3.83,8.39-5.9c.83-1.16,1.72-2.34,2.65-3.53.46-.6.94-1.2,1.42-1.81l.74-.91.38-.46.48-.53,1.94-2.14,2.17-2.34c1.51-1.59,3-3.23,4.62-4.9l9.87-10.27q5-5.39,10.5-10.94c14.3-15,29.88-31.71,44.51-49.57l10.81-13.53,10.25-13.83c1.76-2.28,3.3-4.64,4.9-7l4.76-7c3.29-4.6,6-9.33,8.79-14,11-18.53,19.17-36.61,23.51-52.24a164.28,164.28,0,0,0,12-42,134.92,134.92,0,0,0-2.55-49.95c-4-16.46-10.77-31.27-17.69-43.53-.82-1.57-1.75-3-2.6-4.5s-1.69-2.94-2.57-4.32l-2.51-4.12-2.48-3.88c-1.57-2.57-3.17-4.91-4.57-7.22s-2.83-4.39-4-6.44a237.79,237.79,0,0,0-40.44-33.35c-15.58-10.24-34.08-19.82-57.64-28.35-3.25-1.58-5.92-3.1-8.46-4.54s-5-2.78-7.49-4.19-5.2-2.83-8.39-4.33c-1.59-.74-3.31-1.51-5.2-2.29s-3.91-1.63-6.26-2.36a132.09,132.09,0,0,1-15.93-2.13c-3-.57-6.21-1.23-9.56-2l-2.55-.58-2.39-.59-4.85-1.27q-6.72-3-14.07-6l-3.7-1.54a13.48,13.48,0,0,1-1.43-.65l-1.2-.57-4.87-2.31c-3.3-1.55-6.7-3.06-10.17-4.61s-7-3.15-10.64-4.72c-14.48-6.31-30.08-12.71-46-19.25-4-1.6-8-3.21-12-4.86l-12-4.84c-8-3.28-16-6.41-23.9-9.61s-15.66-6.3-23.3-9.22l-11.23-4.45-5.51-2.12-5.39-2.12c-2-3.78-7.36-6-12.74-8.52s-10.9-5-13.2-9l-8.76-4-4.41-2-1.06-.47-.66-.27-.64-.25-.46-.17-.44-.15-.28-.06a1.48,1.48,0,0,0-.24,0l-.07.06-4.14,6.4q-2,3.17-4.07,6.29l-2.11,3.1c-.68,1-1.53,2.16-2,2.89q-1.65,2.46-3.39,4.88l-1.76,2.41c-.59.78-1.27,1.64-1.68,2.24-.94,1.31-1.91,2.61-2.91,3.88l-1.53,1.91-.78.94c-.28.32-.43.55-.65.82-.83,1.06-1.68,2.09-2.56,3.11l-1.35,1.52-.69.75-.54.64c-.73.84-1.49,1.67-2.28,2.48-1.74,1.71-2.83,2.92-4.26,4.2-5.29,4.9-9.18,7.05-11,7.77l-.42.18-.43.14h-.06l2.12-.42h-.06l-.12,0c-.6.15-1.47.21-1.79.26s-.53,0-.67,0h-.55l.24,0,.2,0,.27.06a13,13,0,0,1,1.41.46c.32.12.71.26,1,.41l.51.24.65.3c.45.21.81.42,1.26.67s1,.54,1.47.84l1.57,1c.57.37,1,.72,1.63,1.15,1.24.85,2.27,1.74,3.62,2.81.65.54,1.18,1,1.87,1.64s1.34,1.2,2,1.82l2,2c.7.69,1.32,1.38,2,2.11s1.42,1.5,2.1,2.28l1,1.17,1.08,1.23c.72.83,1.41,1.68,2.08,2.53s1.45,1.78,2.14,2.68c1.34,1.79,2.86,3.72,4.2,5.67l.5.73,13.5,19.12h.11l.2,0,.83.06.82.06.41,0h.31l.12-.06,3.94-1.86q3.95-1.85,7.93-3.65c5.32-2.4,10.66-4.72,16-7l8-3.31,3.93-1.61,3.82-1.61q30.49-12.85,60.87-25.25c40.58-16.52,81.18-32.3,123.62-47.42s86.81-29.61,135.9-43.94q5.49-.51,11.08-1.14l1.4-.16.7-.08.17,0s0,0,0,0l0-.08c.1-.22.19-.43.27-.65a12.69,12.69,0,0,0,.44-1.36,20.25,20.25,0,0,0,.52-6c-.2-4.26-1.25-8.92-2-13.37-1.38-8.86-1.41-16.92,10.22-18.86-7.12-9-27.4-25.1-25.28-29.2,9.38,2.08,1.57-5.14,3.24-7.28-8.31-8.55-19.19-19.25-32-31.2s-27.53-25.14-43.3-38.49c-31.51-26.69-67.29-54.06-98.14-71.76-20-7.49-40.66-15.38-53.21-16.92-6.3-.79-10.61,0-12,3s0,8.33,5.12,16.49c-9,1.53-14.49,6.12-19.8,10.64s-10.35,9-17.65,11-16.73,1.45-30.28-3.61-31.13-14.63-55.1-31.08c-12.82-2.35-24.47-5.19-33.86-5.53s-16.48,1.86-20.8,9.07c6.21,9.55,8.7,17.54,12,26a96.8,96.8,0,0,0,16.41,28.41c-8.13-3.16-4,1-7.36,2.46,5.27,4.69,12.82,10.26,18.31,15s8.84,8.64,5.58,9.86a137.31,137.31,0,0,0-18.35-13.22,143.72,143.72,0,0,0-15.83-8.1c-10.05-4.49-19.38-7.9-30.51-15.39-17.6-5.86-28.33-3.93-38.06-1.53s-18.31,5.4-29.19,3.52c-3.77-5-3.72-6.43-10.91-10-5,1.59-6.12,4.28-7.83,6s-3.93,2.6-10.49,1a9,9,0,0,0,2.53,7.36c1.84,2.11,4.51,4.13,7.32,6.71-3.25,6.21-2,12.9.55,19.41s6.53,12.95,8.92,18.77a136.81,136.81,0,0,1,33.14,35.94,126.82,126.82,0,0,0,10.1,14,64.43,64.43,0,0,0,6.94,6.83q2,1.74,4.51,3.57c.83.61,1.69,1.23,2.6,1.86l.69.47.36.24a.65.65,0,0,1,.15.11l-.06,0c-.16.09-.31.19-.46.29-8.28-1.1-13.07-1.21-15.23-.82s-2,1.37-.44,2.5c-3.3-.43-7.71-1.44-11.79-2.33a83.11,83.11,0,0,0-9.49-1.75,38.84,38.84,0,0,0,7,2c2.45.49,5.17.9,8.2,1.65,1.32,1,1.35,2.15.1,3s-3.62,1.32-6.75.66c2.31,2.44.07,4.21-2.46,6.07s-5.45,3.86-6.54,7.49a31.41,31.41,0,0,0-8.45-2.9l-.44-.05h-.22c-.2.08-.55.27-.83.4l-.87.44-.45.24-1.14.73c-1.52,1-3,2-4.58,3.07a165.16,165.16,0,0,0-20.86,17.2c-.92.87-1.93,1.89-2.92,2.9l-2.94,3.08c-1,1-2,2.21-3,3.36s-2,2.35-3,3.55c-.5.58-1,1.25-1.56,1.91l-1.58,2c-1,1.34-2.08,2.7-3.11,4.09s-2.14,3-3.19,4.55l-1.56,2.33-.77,1.18-.8,1.27c-1.06,1.71-2.11,3.45-3.13,5.21l-1.52,2.67-1.54,2.89c-1,1.94-2,3.91-2.95,5.9s-1.93,4.24-2.84,6.4a156.83,156.83,0,0,0-9,29c2,2,1.58,12.19,2.69,25.77.3,3.36.68,6.93,1.16,10.61s1.16,7.3,1.91,11c.38,1.91.81,3.65,1.26,5.46s.92,3.6,1.43,5.39l.78,2.67.88,2.77c.6,1.83,1.24,3.65,1.89,5.44a149.44,149.44,0,0,0,6.54,18.63c1.25,3,2.58,5.69,4,8.48s2.86,5.54,4.3,8,3,4.93,4.53,7.33c.8,1.24,1.52,2.25,2.29,3.34l2.3,3.2c3.21,4.41,6.15,7.86,9.29,11.44l1.18,1.32,1.1,1.17,2.21,2.31,2.23,2.27c.74.73,1.54,1.54,2.21,2.15,1.38,1.31,2.79,2.6,4.19,3.86l2.12,1.88,2,1.64q2,1.62,3.93,3.21c.69.55,1.25,1,1.86,1.44L935,870.8l1.81,1.35c.6.43,1.25.92,1.78,1.28l3.32,2.32c8.75,6,15.78,9.89,21.18,12.87l6.32,3.42L974.7,895c3.51,1.94,6.92,3.92,10.29,5.85s6.7,3.82,10,5.74l19.4,11.33c25.71,14.85,51.75,29.07,88.19,39.9,17.54,11.45,47,23.41,78.45,34.18q3.43,2,7,3.94c2.38,1.3,4.82,2.56,7.29,3.85s5,2.55,7.54,3.82l3.86,1.91.49.24.24.12.18.09.33.26.66.5c.88.67,1.77,1.33,2.66,2l1.33,1,.68.47.33.24c.11.07.25.16.26.2.65.85,1.27,1.64,1.89,2.37a28.42,28.42,0,0,0,7.54,6.36c1.39.81,2.91,1.55,4.61,2.34s3.56,1.67,5.49,2.78a25.54,25.54,0,0,1,5.49,4.19,26.38,26.38,0,0,1,4,5.4c-9.83,2.67-12.39,4.08-13.65,6.13-.63,1-.94,2.07-1.53,3.1a5.18,5.18,0,0,1-3,2.45,22.9,22.9,0,0,1-7.42,1,32.22,32.22,0,0,1-6.15-.79l-.59-.12s-.17,0-.3.08l-.38.15-.19.08a1.63,1.63,0,0,0-.24.12l-.77.46c-2.06,1.22-4,2.51-6.1,3.76s-4.11,2.55-6.13,3.88-4.13,2.64-6.15,4c-4,2.8-8.21,5.63-12.17,8.77-4.15,3-8,6.38-12.13,9.88-4.15,2.55.44,3.91-3.07,6.39-13.76,7.46-29.83,16.94-47.32,26.53s-36.38,19.26-54.87,27.23c-26.38,11.39-54.82,17.4-82.41,30.67-16.06,7.71-30.18,15.29-42.31,23.25a185.37,185.37,0,0,0-16.76,12.31l-1.88,1.6-.93.8a11.79,11.79,0,0,1-1.49,1q-3.49,2.28-6.79,4.54-6.6,4.54-12.43,9.07a324.83,324.83,0,0,0-35,16.05c-11.52,5.95-22.65,12.45-33.77,18.66-11,6.35-22,12.39-33.08,18q-4.19,2.09-8.48,4c-2.85,1.3-5.66,2.6-8.56,3.82-5.76,2.47-11.8,4.67-18,6.71-3.41,2.57-3.76,4.27-5.2,6.26a15,15,0,0,1-3.48,3.35,35.81,35.81,0,0,1-3.31,2.1c-1.35.77-3,1.61-4.81,2.58-10,5.65-12.25,4.4-18.5,6.73,5.5,2.62,9.65-.85,8,4.64,6.64-4.13,12.49-7.72,18-10.94s10.67-6,15.58-8.91c2.42-1.45,4.92-2.82,7.37-4.25s4.92-2.88,7.41-4.41,5-3.14,7.65-4.84,5.44-3.46,8.34-5.39c8-3.18,12.22-3.55,23.83-9.13l10.78-6.32,11.27-6.37c3.83-2.15,7.69-4.36,11.68-6.53l12.15-6.6c16.45-8.89,34.19-18,53-27.36,20.93-12.26,43.28-24.49,66.82-36.15,11.35-5.61,22.85-10.65,34.17-15.39s22.36-9.19,32.73-13.62,20.13-8.83,28.89-13.41c4.31-2.32,8.44-4.66,12.23-7.09a109.64,109.64,0,0,0,10.37-7.54c6.91-2.81,6.14,2.76,11.63,1.53a52.42,52.42,0,0,1,10.3-7,108.55,108.55,0,0,1,11-5c3.77-1.57,7.63-3.13,11.62-5a86,86,0,0,0,11.84-6.71c11.14-7.69,17.25-18.77,28.9-27,3-2.07,5.73-4.07,8.52-5.86s5.36-3.55,8-5.17l7.68-4.77.95-.58c.3-.18.71-.44.81-.47l.5-.23.26-.11.12,0h.06l.93-.09a13,13,0,0,0,8-3.27c4.86,1.36,7.62-.43,10-2s4.57-3.17,9.69-2.41c2,1.27-.49,2.22-2.78,3a9,9,0,0,0-2.8,1.27c-.58.5-.61,1.14.34,2.15,2.43-.68,4.67-1.87,8.3-1.44,1.67,5.16,5.36,11,7.09,17.84a28.34,28.34,0,0,1,.86,5.34,26.79,26.79,0,0,1,0,2.84,27.36,27.36,0,0,1-.34,2.91,24.48,24.48,0,0,1-1.9,6.13,31.7,31.7,0,0,1-3.88,6.43l-3,2.14-2.33,1.73-2.37,1.8c-1.54,1.21-3.11,2.35-4.65,3.49s-3,2.29-4.49,3.42c-5.93,4.47-11.41,8.77-16.61,12.86-10.37,8.23-19.28,15.9-27.33,23.22-25.89,12.84-55.39,26.42-87.5,40.22s-66.71,27.88-102.1,42.35c-17.69,7.23-35.56,14.58-53.36,22.06l-13.63,5.75-20.06,8.33L892.54,1267l-19.32,8.43c-25.46,11.28-49.64,22.74-71.82,34.27s-42.39,23-60.34,34.26c-5.23,2.37-10.33,4.73-15.34,7.09s-9.63,4.85-14.33,7.3l-3.51,1.84-3.4,1.89-6.73,3.8-6.67,3.88c-2.18,1.31-4.3,2.66-6.45,4A389,389,0,0,0,634.47,1411c-4.1,1.79-8.11,3.85-12.21,6.11-2,1.13-4.08,2.32-6.13,3.55s-3.94,2.55-5.91,3.9-3.9,2.74-5.85,4.17-4,2.9-5.73,4.43c-3.67,3-7.33,6.25-11,9.56a234.06,234.06,0,0,0-35.41,43.59l-.93,1.41-.86,1.42-1.7,2.83-3.41,5.63-.85,1.4-.77,1.4-1.55,2.79c-1,1.85-2.06,3.7-3.09,5.53-4,7.29-7.61,14.55-10.82,21.79-.83,1.78-1.55,3.65-2.33,5.43s-1.46,3.64-2.16,5.41l-1.93,5.38c-.61,1.83-1.27,3.54-1.85,5.34-2.49,7.08-4.31,13.91-6.13,20a22.78,22.78,0,0,1,2,4.17l.89,2.5c.29.89.57,1.82.84,2.78s.55,2,.84,3,.55,2.13.81,3.25.61,2.28.92,3.47.57,2.4.94,3.64c1.27,5,2.87,10.34,4.77,15.76.51,1.35,1,2.73,1.49,4.08l1.61,4c.58,1.32,1.17,2.65,1.77,4s1.25,2.59,1.85,3.89c2.52,5.14,5.27,10,8,14.39s5.48,8.35,8,12c5,7.09,9.13,12.57,11.15,16.35a24.54,24.54,0,0,1,5.89,1.1,44.26,44.26,0,0,1,6.26,2.35,128.55,128.55,0,0,1,13.1,7c8.77,5.24,17.37,11,23.75,15.18-2.14,1.22-18.15-3.69-4.43,2.28,5.89,3,8.4,1.6,12.69,2.36.67,1,1.48,2,2.33,3s1.8,2,2.55,3c1.5,2,2.38,4,1.35,5.89a56.52,56.52,0,0,0,7.68,2.84l1.71.47c.58.14,1.2.26,1.79.38l3.49.66a74.38,74.38,0,0,1,15.58,4.1c-6.78.83-13,2.2-22.48.12a62.09,62.09,0,0,1-7-2c-1.88-.66-3.47-1.3-4.83-1.92a30,30,0,0,1-6-3.5c-2.91-2.24-4.42-4.25-8.14-6.59-1.67,1.09-1.3,2.35-1.86,3s-2,.59-7.29-1.15c2.5-3.42-3.19-5.38-9.37-7.89s-12.78-5.58-12.75-9.81c5.84,3.35,11.19,5.44,15.21,5.54a220.34,220.34,0,0,1-21-10.12,207,207,0,0,1-19-11.8c3,2.57,6.61,6.17,1.46,3a182,182,0,0,0,33.82,27.79c3,1.89,6,3.74,9,5.45s6.05,3.35,9.39,4.92l9.81,4.72,4.93,2.34c.84.38,1.58.79,2.52,1.15l2.76,1.11,11.05,4.41,5.55,2.19,2.79,1.09,3.11,1,12.47,3.93,6.26,2,3.13,1c.5.17,1.08.31,1.67.45l1.74.41,14,3.26,7,1.62,3.51.8,1.76.39,1.94.3,15.57,2.37,7.79,1.17,3.91.57,1.95.29a17.46,17.46,0,0,0,2,.23l34.23,2.39c11.94.3,24,.5,36,.72s24.42,0,36.66,0c3,0,6.17-.06,9.27-.11l9.31-.17,18.66-.34c50-1.27,101.42-4.3,153.8-9a71.18,71.18,0,0,0,10.47,1.22c2,.11,4,.19,6.22.22,1.47.1,3,.18,4.52.24,6.2.22,13.14.18,19.85.1,9.68-1.76,18.68-3.19,26.86-4.76,4.09-.76,8-1.52,11.66-2.3l2.71-.6,2.7-.62q2.76-.66,5.32-1.35a78.71,78.71,0,0,0,17.41-6.55,27.33,27.33,0,0,0,10.59-9.41c-12.27,1.89-23.83,3.51-35.53,5.15l-16.88,2.25-8.68,1.16-9,1.1c-6.06.72-12.35,1.54-19,2.23l-10.16,1.06-6.15.61-8.07.72-35.16,2.63c-12.41.75-25.56,1.39-39.59,2.08-11.14-1.32-20.68-3-27.58-5.22s-11.09-5.23-11.83-8.94l16.07-1.25q8.05-.62,16.07-1.1c10.68-.57,21.43-1.28,32.18-1.81l16.16-.76,16.22-.86,16.26-.77c5.33-.25,11.34-.65,14.54-.77,7.65-.36,15.28-.71,22.86-1.21s15.11-.95,22.56-1.66q5.6-.51,11.12-1.1l5.51-.62c1.84-.21,3.8-.48,5.68-.74,3.8-.53,7.57-1,11.32-1.71s7.45-1.34,11.12-2.09a75.21,75.21,0,0,0,10-2.91,64.41,64.41,0,0,1,9.66-2.62l60.3-10.77c4.22-.79,8.32-1.45,12.38-2.26l12.06-2.34c8-1.72,16.09-3.41,24.69-5.72a432,432,0,0,0,101.34-40.78,412,412,0,0,0,49.22-32.12l5.92-4.64,3-2.32c1-.77,2-1.55,2.93-2.39,3.85-3.29,7.7-6.56,11.51-9.88l11.15-10.44c3.64-3.59,7.19-7.31,10.75-11l4.76-4.85c1.62-1.61,3.27-3.2,4.94-4.79s3.38-3.13,5-4.81,3.24-3.39,4.82-5.14a71.33,71.33,0,0,0,8.73-11.38,68.55,68.55,0,0,0,3.51-6.5,41.64,41.64,0,0,0,2.7-7.14c-1.57,2.42-3.39,4.67-5.1,7s-3.49,4.63-5.23,7-3.63,4.52-5.45,6.77l-5.53,6.68-1.38,1.66-1.44,1.6-2.87,3.16c-1.9,2.11-3.81,4.21-5.7,6.29l-1.42,1.57-1.46,1.48-2.9,3-5.75,5.84c-15.34,15.17-30.27,27.58-41.84,37.58-18.8,11.18-44,25-70.19,36.26l-9.85,4.21c-3.29,1.37-6.59,2.63-9.87,4l-4.92,2c-1.63.65-3.27,1.22-4.89,1.83l-9.7,3.59c-12.82,4.51-25.15,8.59-36.27,11.86-22.76,4.23-43.57,7.9-63.8,11.41s-39.85,6.76-60,9.67c-10.09,1.47-20.31,2.8-30.8,4l-15.4,1.66c-5.19.54-10.46,1.11-15.84,1.56l-16.41,1.38c-5.58.45-11.28.78-17.1,1.14l-10.83.65-12.3.57c-8.28.34-16.73.72-25.33.93-3.12-3.26-8.69-4.34-16.3-4.56-3.8-.11-8.11,0-12.86.15s-9.9.21-15.4.21c2-4-.88-6.51-7-8.07s-15.61-2.29-27.21-2.36c-7.07,1.17-5.73,2.44-4.23,3.62s3.12,2.26-3.87,3c-12.76-2.05-24-4.48-22.47-9.91,12.33-.2,26.64-.9,31.84.64-1.37-6-29.3-5-24.35-12.31,11.18-.68,22.17-1.36,33.08-2.43l16.19-1.57c5.35-.54,10.68-1.21,16-1.83l15.66-1.91,15.41-2.12c5.09-.72,10.13-1.37,15.14-2.13l14.91-2.22c4.93-.73,9.86-1.42,14.7-2.18l13.3-2.06,13-2c4.36-.64,8.73-1.26,13.12-1.83,8.77-1.16,17.59-2.32,26.52-3.22,4.49-.47,9-1,13.62-1.38s9.17-.9,13.81-1.27c10.27,2.11,16,6.55,28.31,7.41,3.54-3.3-1.7-4.59-8.29-5.71-3.29-.54-6.93-1.09-10-1.84s-5.56-1.66-6.59-2.95c10.72-3.54,24.5-6.8,37.81-10.4,6.65-1.9,13.2-3.72,19.15-5.85,3-1.05,5.83-2.07,8.47-3.18s5.08-2.27,7.27-3.44c4.77.84,4.55,4.91,16,1.3a343.58,343.58,0,0,0,47.68-14,314.39,314.39,0,0,0,40.11-18.27l4.61-2.52,2.29-1.26,2.24-1.33,8.87-5.3c2.9-1.83,5.74-3.72,8.6-5.57s5.63-3.81,8.4-5.77c5.6-3.81,10.93-8,16.38-12.13l8-6.51,2-1.63,2-1.71,3.94-3.45c4.07-3.39,7.82-7.12,11.67-10.67,2-1.74,3.73-3.68,5.57-5.53s3.65-3.71,5.47-5.56a273,273,0,0,0,19.87-23.79c12.23-16.54,22.54-34.56,29.68-54.18,1.69-4.94,3.61-9.77,5-15a123.74,123.74,0,0,0,3.15-15.87,110.89,110.89,0,0,0-.43-33.06,81.08,81.08,0,0,0-4.59-16.62,64,64,0,0,0-8.73-15.57,52,52,0,0,0-30.65-19.43c-2.94-1.26-2.4-2.7-2.71-4.14a2.76,2.76,0,0,0-1.76-2,16.34,16.34,0,0,0-6.64-1.11,120.6,120.6,0,0,0-23.2-.43c-3.88.22-7.72.58-11.53.86l-11.57.91c-7.76.61-15.61,1.22-23.41,1.75-3.9.26-7.79.53-11.65.71s-7.7.32-11.48.43c-7.57.22-15,.29-22,.15s-13.8-.48-20.07-1.24c-12.55-1.44-23.25-4-31-8.27a90.1,90.1,0,0,1-25.3-.21c-6.35-1-11.71-2.3-19.33-2.73a180.58,180.58,0,0,1-22.07,3.51c-4.13-2.34-12.38-2.45-22-2-4.79.22-9.91.57-15,.85s-10.19.38-14.9.26c-10.5-.3-20-1.9-29.46-3.58s-19.08-3.64-29.84-4.37c-9.37-.66-17.35-.85-24.33-.81s-13,.32-18.32.81c-10.69,1-18.87,2.72-27.5,4.11-21.29,3.17-53,4-66.81,11.86,6.28,2.24,13.05,4.34,18.42,6.89,12.17-2.26,25.23-5.77,39.37-8.58,3.54-.72,7.14-1.35,10.82-2s7.43-1.2,11.25-1.67a177.8,177.8,0,0,1,23.89-1.34c10.45.19,19,2.1,27.57,3.65s17.3,2.67,28.06,1l.06,3.86a575,575,0,0,1,76,.19c22.87,1.67,43.87,4.12,64.84,6.79,5.25.69,10.48,1.26,15.74,1.85s10.55,1.14,15.88,1.67c10.68,1,21.56,2,32.85,2.42s23,.59,35.37.24,25.31-1.46,39.12-3.09l10.87,1.36c3.58.45,7.07.94,10.45,1.52a80.88,80.88,0,0,1,18.3,5,39.79,39.79,0,0,1,7,3.86,27.14,27.14,0,0,1,5.06,4.62,22.07,22.07,0,0,1,3.21,5.1,21.63,21.63,0,0,1,1,2.58c.13.44.22.9.33,1.32a9.06,9.06,0,0,1,.26,1.3,17.51,17.51,0,0,0-10.93-6c-4-.67-8.45-.33-13.3.38s-10.24,1.87-17,3l-2.61.42-2.77.4c-1.88.26-3.82.5-5.84.72-4,.45-8.36.82-13.09,1.09-23.43,6.78-49.31,11.16-76.57,14.4-13.63,1.48-27.62,2.67-41.82,3.67s-28.65,1.49-43.19,2.06c-58.18,2-117.94,1.07-172.23,4.29-10.1-.8-20-1.35-29.8-1.72s-19.42-.75-29-.87c-19.1-.16-37.83-.15-56.53.24-4.68.07-9.35.22-14,.27l-14,.2-28.27.4c-9.49.08-19,0-28.71-.11l-14.59-.25c-4.89-.11-9.82-.24-14.78-.49-5.47-4-17.59-6.12-31.62-7.72L733,1380c-7.36-.79-14.61-1.61-21.14-2.61-3.87.13-4.18,1.74-5.63,3s-3.67,2.21-12.28.86c-17.47-1.76-30.56-4.36-40.71-7.38a118.44,118.44,0,0,1-13.35-4.78,46.68,46.68,0,0,1-5.39-2.69c-1.68-.93-3.27-1.87-4.81-2.8-6.15-3.72-11.39-7.36-17.6-10.61a82.93,82.93,0,0,0-10.27-4.55c-3.82-1.41-8.18-2.57-13.07-3.87-3.54-.89-9-1.44-14.9-2.16a124.26,124.26,0,0,1-17-3,149.83,149.83,0,0,1-38-17.22c-3.73-2.39-7-4.6-9.41-6.3-1.53-1-3-2.08-4.43-3.11s-2.89-2.17-4.25-3.37a92.12,92.12,0,0,1-7.94-7.36,81.05,81.05,0,0,1-12.67-17.41c-.78-1.59-1.64-3.16-2.37-4.78l-2.05-4.91-1.68-5c-.53-1.69-.88-3.41-1.33-5.12a90.64,90.64,0,0,1-2.12-21.07c.19-14.26,3.37-28.76,9.36-43.62A350.9,350.9,0,0,1,504.57,1152a445.76,445.76,0,0,1,33.31-47.21A524.5,524.5,0,0,1,578,1060.71c3.51-3.55,7.21-6.91,10.81-10.36s7.52-6.88,10.72-9.78c3.41-3,6.79-6,10.22-8.88s6.85-5.84,10.34-8.65c12.5-7.88,25.92-17.39,40.21-27.65s29.42-21.28,45.15-32.24c31.47-21.91,65.25-43.61,98.15-59.59l1.92-1.64,1.91-1.6q1.92-1.59,3.93-3.17,4-3.17,8.34-6.29c5.76-4.17,11.9-8.33,18.31-12.51,12.81-8.37,26.76-16.9,40.38-25.72s26.84-17.89,37.54-26.75,18.77-17.45,21.75-24.77c5.92-5,9.84-.7,16.15-7.13a76,76,0,0,1,4.84-6.65c1.78-2.22,3.67-4.47,5.65-6.66s4-4.45,5.94-6.62,3.87-4.38,5.65-6.49c7-8.46,11.7-16.35,6.56-20.75,1-1.15,2-2.22,3-3.22s2-2,3.09-2.83a56.42,56.42,0,0,1,6.66-4.7,101.21,101.21,0,0,0,4.55-10.68,50.53,50.53,0,0,0,2.57-11.25,37,37,0,0,0-.68-12.27A31.74,31.74,0,0,0,995.41,689a39,39,0,0,0-8-7.63,50.4,50.4,0,0,0-10.7-5.75c-7.78-3.12-16.41-4.72-24.91-5.58a197.61,197.61,0,0,0-25.31-.68l-24.12,1.12q-5.85.33-11.52.59l-5.62.23-5.56.28q-5.5.25-10.86.41c-3.58.15-7.11.29-10.61.37l-10.37.22c-3.43.06-6.83.07-10.21,0-6.76.07-13.46-.16-20.19-.36-13.6-12.7-33.57-25.67-69.1-34.73-7.08-3.41-14.58-6.87-23-10.14-2.1-.82-4.26-1.62-6.48-2.42s-4.44-1.58-6.94-2.33c-4.89-1.5-9.91-2.95-15.12-4.32C675.92,612.84,652,608.8,621,607.56a529.09,529.09,0,0,0-85,24.21q-9.11,3.35-17.54,6.8c-5.64,2.2-11.07,4.41-16.3,6.59l-7.7,3.24L487,651.45l-14.06,5.77c-3.17.28-6.11.57-8.83,1s-5.24.87-7.56,1.41a68.28,68.28,0,0,0-11.84,3.87,75.13,75.13,0,0,0-14.39,8.24l-11.21.76-13.47.27c-8.94.13-17.86.42-26.65.1l-13.22-.3-6.61-.17c-1.1,0-2.21,0-3.3-.1l-3.27-.21q-13.09-.84-26.29-1.8c-2.22-.12-4.36-.43-6.54-.66l-6.54-.77L300,667.24l-6.64-.83c-2.21-.29-4.36-.71-6.56-1.07l-13.22-2.29-6.7-1.19-3.37-.6c-1.11-.22-2.29-.36-3.33-.67l-13-3.35L234,653.73c-1.1-.32-2.28-.57-3.33-.94l-3.13-1.12-6.32-2.28q-6.06-2.19-11.9-4.43l-5.79-2.24c-1.82-.82-3.63-1.62-5.39-2.46a164.14,164.14,0,0,1-19.65-10.9,121.87,121.87,0,0,1-16.81-13.13,97.5,97.5,0,0,1-13.67-16,93,93,0,0,1-9.78-18.67,97.36,97.36,0,0,1-5.37-20.29,118.64,118.64,0,0,1,1.29-41,151.45,151.45,0,0,1,5.31-19.62,175.36,175.36,0,0,1,7.75-18.76,197.92,197.92,0,0,1,21.39-34.67c2.08-2.71,4.22-5.38,6.46-8,1.09-1.33,2.26-2.59,3.41-3.87l3.46-3.85c4.68-5.09,9.54-10.09,14.57-15.06,10.06-9.95,20.79-19.78,32.11-30.14,4.68-4.21,9.42-8.6,14.31-13.13,5.71-3.3,9.9-4,17-9.64-.29-2.45,2.57-5.7,6.77-9.5,2.09-1.9,4.6-3.85,7.13-6l3.91-3.18c1.32-1.07,2.68-2.14,3.88-3.25l3.65-3.29,1.76-1.65.86-.82a9.24,9.24,0,0,0,.64-.68,38.34,38.34,0,0,0,4-5.08c2-3.4,2.61-6.68.88-9.53a58.64,58.64,0,0,0-5.61,2.87l-1.45.87-1.59.89c-1.06.62-2.14,1.26-3.22,1.94l-1.63,1.05-2.39,1.67q-2.48,1.75-5.06,3.66c-1.66,1.27-3.6,2.58-5.51,3.93s-3.88,2.74-5.85,4.17c-4,2.81-8.15,5.78-12.33,8.83s-8.44,6.2-12.62,9.42-8.31,6.53-12.36,9.86-7.85,6.73-11.61,10.11q-3.06,2.87-6,5.71c-2,1.89-3.73,3.8-5.54,5.67-9.06,3.79-16.55,10.91-23.74,19.14s-13.56,17.77-20.9,27.17c-9.08,11.9-18.07,24.11-25.47,36.69s-13.28,25.48-16,38.34c-1.6,7.44.61,15.19.38,18-.35,5.2-.81,10.26-1,15.35-.13,2.55-.1,5.1-.14,7.69,0,1.29.08,2.58.12,3.89s.09,2.63.22,4,.23,2.66.35,4,.38,2.7.58,4.08.49,2.77.77,4.17.59,2.84,1,4.26.78,2.89,1.27,4.35,1,2.92,1.58,4.42,1.27,3,2,4.49,1.52,3,2.33,4.54a110.23,110.23,0,0,0,5.84,9.41c2,2.9,4,5.55,6.09,8a115.3,115.3,0,0,0,12.27,12.52,125.44,125.44,0,0,0,12,9.32c4,2.72,7.92,5.15,12,7.38s8.13,4.34,12.45,6.35c2.14,1,4.36,2,6.62,3s4.83,1.84,7.32,2.79l15.87,5.92,4.28,1.6c.74.26,1.44.55,2.22.8l2.44.68,10.24,2.83,10.74,3,5.36,1.48c.9.23,1.75.52,2.7.71l2.84.55,22.57,4.33,5.59,1.07c.92.19,1.87.34,2.83.46l2.86.41L300.49,680l11.24,1.57,5.58.76c1.85.24,3.76.37,5.63.55l22.18,1.94,5.43.44c1.8.17,3.64.18,5.44.28l10.74.4,10.5.34,5.17.14c1.7,0,3.4.09,5.11,0q10.19-.13,19.8-.42l9.45-.33,1.16,0,.58,0,.45-.05,1.79-.18,3.54-.39q7-.79,13.6-1.76c2.19-.33,4.34-.66,6.45-1s4.16-.81,6.17-1.23q6-1.28,11.55-2.75a113.91,113.91,0,0,0,19.53-7,59.43,59.43,0,0,0,14.22-8.92,74.3,74.3,0,0,0,21.71-3.26,86.07,86.07,0,0,0,16.43-7.52c10.09-5.67,19.24-12.37,32.79-16a252.38,252.38,0,0,0,33.6-5c7.35-1.47,14.66-2.53,33.26-3.2,19,5.84,36.71,12.19,54,18.67l25.83,9.76,3.22,1.22,2.42,1.28q2.4,1.29,4.69,2.58,4.59,2.56,8.8,5.13a324.15,324.15,0,0,1,28.82,19.85c8.2,6.27,15.18,12,22,16.9,5.52-.75,11-1.3,15.07-1s6.76,1.55,6.52,4.37a227.81,227.81,0,0,1-44,9.69c-6.82.82-13.62,1.38-20.61,1.82q-5.22.33-10.59.6l-5.39.28-2.73.13-7.44.53c-39.63,2.79-80.3,5.75-119,9.14s-75.33,7.22-106.64,12.74c6.93,3.14,14.74,3.56,23,3.3,4.11-.16,8.35-.44,12.53-.83s8.4-.75,12.56-.88c11.48-.3,22.87-.89,34.51-1.35l17.38-.88,8.76-.45,8.74-.52,17.63-1.05,17.66-1.18L659.13,736,677,734.64l36-2.85,12.21-1,5.32-.48c7.15-.67,14.49-1.45,22.29-2.4a109.5,109.5,0,0,0,15.46-3.39l9-2.5c3.16-.87,6.46-1.74,9.86-2.6a185.64,185.64,0,0,1,21-4.07c7-.87,13.77-1.08,19.16-.18,6.28,1.15,9.95,2.9,13.58,5.64a60.67,60.67,0,0,1,5.75,5,32.4,32.4,0,0,1,6.19,8,6.55,6.55,0,0,0-2.49,1.89,12.7,12.7,0,0,1-1.74,1.91c-1.12.93-3,1.78-7.1,2.55,1.11,1.73.74,3.83-.6,5.94a25.14,25.14,0,0,1-6.4,6.26c-5.54,4-12.84,7.64-19.22,10.57s-11.85,5.36-14.71,7.32-3.19,3.53,0,5.31C796.2,775.35,797.89,774,791.75,775.33Zm307.81-290.08c3.83,3.34.31,3.48-3,.94-1.25.95,4.7,5,8.33,8-4.08.22-13.64-8.95-17.62-8.66,2.61,4.82,7.59,10.61,13,16.52-6-3-10.19-6-12.81-8.83s-3.72-5.38-3.53-7.34C1084.31,482,1089.85,480.52,1099.56,485.25Zm118.92,149.82c-6.8-.67-9.33-2.21-9.36-4.09a2.69,2.69,0,0,1,.11-.73c.07,0-.11-.08-.21-.13l-.33-.16-.67-.31-1.34-.64q-2.68-1.29-5.36-2.7c-3.55-1.86-7.06-3.84-10.42-5.84-13.44-8-24.65-16.43-27.51-19.46s-5.13-7.08-4.72-9.54,3.52-3.31,12,.5c9.44,4.25,18.32,12.36,27.77,20.81,4.74,4.24,9.64,8.58,15,12.73,2.7,2.08,5.52,4.11,8.53,6.07l.57.37.28.18s.06,0,.06,0l0,0-.1,0-.78.41c-.51.27-1,.54-1.41.81A13.12,13.12,0,0,0,1218.48,635.07Zm-68.28,41.25c5.32,1.2,6.3,2.88,5.16,4.84-14.43,2.07-31.8,7.57-48.93,12.43-8.54,2.42-17,4.67-24.73,6.15a104.05,104.05,0,0,1-11,1.57,55.41,55.41,0,0,1-9.46,0c8.67-2.71,16-4.8,22.81-6.61s13.06-3.32,19.49-4.93C1116.38,686.59,1130,683,1150.2,676.32Zm-129.75,25.55c2.32.87,1.21,2-.29,3.26s-3.35,2.64-2.58,3.67c-2.87,0-6.6,1.22-10,2.4l-2.66,1c-1,.43-1.93.78-2.82,1.12a10.85,10.85,0,0,1-4.5.94,46.19,46.19,0,0,1,4.2-3.61l1-.71c.3-.21.64-.46.86-.6.5-.32,1-.62,1.44-.9a29.44,29.44,0,0,1,4.67-2.14A80.82,80.82,0,0,0,1020.45,701.87Zm10.18,29.54c-1.36.57-2.72,1.15-4.07,1.76s-2.7,1.34-3.94,1.77l-1,.38-.7.39c-.47.26-.94.52-1.38.8-.91.54-1.78,1.1-2.62,1.67a26.67,26.67,0,0,0-7.62,7.43,12.77,12.77,0,0,0-1.68,4l-.19,1.1-.07,1.16c0,.4,0,.82,0,1.22s.09.78.12,1.19c.48,3.13,2.32,6.66,5.55,10.08a64,64,0,0,0,12.16,9.6c2.33,1.49,4.89,3,7.43,4.49l7.66,4.46c10.3,5.86,20.92,11.45,31.85,16.56,18.82,8.83,38.45,14.88,57,20.55s36,11.06,50.8,18.86c-18.55-3.06-41.29-10.42-63.25-17.81s-43.14-14.85-59.18-17.37c-3.94-2.36-7.93-4.89-12-7.44s-8.12-5.2-12.18-7.88c-8.1-5.38-16.63-10.49-23.36-16.77a39,39,0,0,1-8.08-10.19l-.36-.68-.3-.69-.6-1.39a26,26,0,0,1-.85-2.82,22.62,22.62,0,0,1-.73-5.67,25.92,25.92,0,0,1,2.26-10.58,54.31,54.31,0,0,1,5.28-9.11,11.47,11.47,0,0,0,5.53-.13c1-.21,2.13-.44,3.22-.7l1.67-.35c.55-.11,1.23-.2,1.83-.3C1023.94,728.11,1029.1,727.88,1030.63,731.41Zm-43.48-5.74,3.19,2.21a43.47,43.47,0,0,0-4,8.11,38.86,38.86,0,0,0-2.24,10.29,38.26,38.26,0,0,0,.71,10.79,42.31,42.31,0,0,0,3.36,9.81c.33.76.72,1.44,1.1,2.13s.74,1.39,1.14,2c.8,1.24,1.54,2.51,2.32,3.57l1.11,1.61,1.07,1.45,1,1.39c.31.44.62.85.91,1.25,2.3,3.26,3.53,5.64,2.74,7.29a55.27,55.27,0,0,1-7.09-5c-1.08-1-2.13-1.87-3.11-2.87a41.7,41.7,0,0,1-2.82-3.13A39.28,39.28,0,0,1,979,761.71a36.11,36.11,0,0,1-.85-4.16c-.09-.7-.18-1.4-.26-2.1s-.1-1.45-.13-2.18a38.93,38.93,0,0,1,.72-9.18A43,43,0,0,1,987.15,725.67Zm14,67.82c3.68,1.1,5.68.22,6.61-1.84,4.12,2.35,6.65,4.1,8,5.51s1.38,2.36.6,2.86a3.15,3.15,0,0,1-1.86.3,12.63,12.63,0,0,1-3.24-.78A35.08,35.08,0,0,1,1001.14,793.49Zm-9.87,24.37a14.93,14.93,0,0,0,4.92,5.22,42.75,42.75,0,0,0,7.08,4c4.68,2.14,9.93,4.06,13.35,6.31a115.58,115.58,0,0,1,16.07,13c4.62,4.2,9.06,8.14,14.87,11.47a95.37,95.37,0,0,0,14.76,6.77c4.58,1.69,9,2.89,13.6,4.15a189.15,189.15,0,0,1,33.53,12.09c9.16,3.82,7.61-1.94,13.19-1.33,17.22,6,34.27,11.71,51.34,17,8.49,2.76,17,5.28,25.52,7.93l12.77,3.8,6.37,1.9L1225,912l12.66,3.65,10.42,2.8,5.17,1.39,4.89,1.26,9.84,2.56c6.6,1.67,13.24,3.34,19.89,5.12s13.25,3.84,19.79,6.15c13,4.65,25.91,10.33,37.58,18.08a91.3,91.3,0,0,1,16.14,13.44l1.77,2c.6.65,1.12,1.37,1.69,2.05,1.14,1.34,2.12,2.83,3.14,4.27a52.84,52.84,0,0,1,5,9.44l.51,1.24.42,1.29c.27.86.58,1.7.82,2.57a48,48,0,0,1,1.12,5.33c.11.9.33,1.79.36,2.71l.19,2.74c.08.92,0,1.85,0,2.77a25.66,25.66,0,0,1-.11,2.77,56.85,56.85,0,0,1-6.26,21.68,118.79,118.79,0,0,1-12.8,19.57c-2.44,3.1-5,6.12-7.51,9.17s-5.26,5.94-7.9,8.89c-3-1.78-3.74-4.7-3.56-8a52.11,52.11,0,0,1,.69-5.24c.32-1.8.72-3.6,1-5.36.46-3.5.32-6.76-1.72-8.89s-5.92-3-12.68-2.22a59.88,59.88,0,0,0,4-17.1,41,41,0,0,0-6-24.12,51.93,51.93,0,0,0-4.73-6.45,64.62,64.62,0,0,0-11.65-10.33A91,91,0,0,0,1279,964.35a104.42,104.42,0,0,0-15.72-3,128.2,128.2,0,0,0-16.29-.69c-3.21-.93-6.28-2-9.3-3l-2.5-.91-2.78-1.05-5.5-2.15L1210.38,947c-5.9-2.33-11.74-4.87-17.67-7.34-23.68-10.08-48.14-21.18-77.08-33.71-29.79-13-58.94-27.05-81.3-41.83A189.68,189.68,0,0,1,1018.92,853q-3.48-2.81-6.59-5.59c-2.05-1.88-4-3.78-5.72-5.65s-3.37-3.76-4.82-5.62c-.72-.94-1.41-1.87-2-2.8l-.94-1.39c-.31-.48-.54-.9-.94-1.44A51,51,0,0,1,991.27,817.86Zm235.27,143.21c3.67,1,4.9,2.44,5.69,3.94a11.48,11.48,0,0,1,.53,1.13c.11.35.22.7.36,1a4.13,4.13,0,0,0,1.41,1.83,31.94,31.94,0,0,1,11.74,5c2.71,1.94,4.58,4,7.06,6,3.38,1.85,8.2,3.48,13.62,5.52a89.86,89.86,0,0,1,16.67,7.85c5.23,3.32,9.54,7.65,11.17,12.33a11.69,11.69,0,0,1-2.8,12.73,5.91,5.91,0,0,0-1.79-6.19,21.7,21.7,0,0,0-6.7-3.81c-2.56-1-5.15-1.86-7.24-2.9s-3.69-2.27-4.41-4.18c-14.74,1.27-25,3.21-32.87,3.28a32.89,32.89,0,0,1-10.56-1.33,26.36,26.36,0,0,1-5-2.12c-.86-.45-1.72-1-2.63-1.59l-1.39-1-.36-.25-.28-.16-.34-.19-1.39-.75a27.18,27.18,0,0,1-4.64-3.36l-.57-.5a1.26,1.26,0,0,0-.18-.14l-.36-.2-.74-.42-2.93-1.68-5.84-3.43c-7.78-4.56-15.42-9.32-23.26-12.88-7.29-3.34-14.72-6.37-22-9.08s-14.38-5.39-21-8a189.72,189.72,0,0,1-17.8-7.93c-5.15-2.79-9.42-5.71-12.45-9,8.33-6.12,31.37.53,56.5,7.66l19,5.35c6.32,1.72,12.56,3.29,18.46,4.65s11.55,2.35,16.62,3c1.27.16,2.51.3,3.7.41l1.78.14.43,0,.21,0,.14,0,.52-.07A25.84,25.84,0,0,0,1226.54,961.07Zm-35.78-119.4c4.58-.23,8,.88,12.06,2.47a115,115,0,0,0,16.44,5.4C1216,854.79,1199.09,845.24,1190.76,841.67Zm89.37,370.61c-21.52,14.59-43,28.35-65.47,41.31a555.08,555.08,0,0,1-72,34.94c-24,9.43-43.13,14.52-63.66,20.46a659.49,659.49,0,0,0-72.17,24.77c-8.7,3.55-15.45,7.52-23.32,12l-6.15,3.5-6.55,3.6c-4.11,2.27-8.73,4.62-14.2,7.11-6.13,2.76-12.36,5.16-18.53,7.44s-12.26,4.47-18,6.78c-11.36,4.6-21.25,9.74-25.43,16.45-14.43,4.92-29.56,9.89-42.73,15.7s-24.21,12.4-29.06,19.62a6.36,6.36,0,0,1-2.07-3.53,9.79,9.79,0,0,1,.31-4.58c.9-3.41,3.27-7.31,6.52-11.6,6.49-8.48,16.87-18.07,25.47-26.16,36.1-15.27,71.58-29.36,107-43.12l54.48-21,54.14-20.72c35.88-13.77,71.26-27.5,106.1-41.67s69.15-28.79,103.12-44.6Zm-582,310.24c2.14-.06,1.25,1.72.5,3.43s-1.19,3.45,1.54,3c-6.22,6.91-9.59,14-10,20.78a26.74,26.74,0,0,0,1.1,9.73,30.05,30.05,0,0,0,1.85,4.47c.38.71.73,1.44,1.16,2.13l1.36,2a19.82,19.82,0,0,0,1.51,1.94c.53.63,1,1.28,1.61,1.87a43.5,43.5,0,0,0,3.61,3.44c.63.54,1.26,1.09,1.9,1.61l2,1.5,1,.74,1.05.69,2.07,1.37c5.6,3.52,11.39,6.28,16.45,8.86,4.83,2.43,7.42,5.42,10.43,8.37a28.37,28.37,0,0,0,12.59,7.68c4.1,1.25,9.65,1.88,15.39,2.22s11.67.36,16.71.47,9.21.25,11.56,1.06,2.89,2.25.7,4.7a114.18,114.18,0,0,1,19-1.78c3,0,6,0,9,.14l8.94.33c3,.13,6,.25,9.08.32s6.16,0,9.29-.11a96.22,96.22,0,0,0,19.19-2.5c-2.2,1.68-6,3.25-10.5,4.79s-9.57,3-14.17,4.44-8.66,3-10.91,4.51-2.68,3.2.19,5A66.43,66.43,0,0,0,849,1624c4.74-2.3,9.36-4.64,14.72-6.16,9.55-.08,16.67.42,20.92,1.89s5.64,3.89,3.3,7.5a148.87,148.87,0,0,1-15.61,3.34c-5.88,1-12.38,1.9-19.29,2.55s-14.24,1.28-21.74,1.65-15.18.63-22.79.69-15.13,0-22.32-.29-14.06-.66-20.34-1.21-12-1.28-16.84-2.06a53.73,53.73,0,0,1-11.9-3.2c-16.42.75-28.08-1.37-37.56-5.17a68.42,68.42,0,0,1-13.06-7,104.58,104.58,0,0,1-12.11-9.77c-8,1.56-2,4.78,2.43,7.24a37.52,37.52,0,0,1-12.91-4.91,24.53,24.53,0,0,1-4.42-3.61,21.33,21.33,0,0,1-3.11-4.36,23.5,23.5,0,0,1-2.7-10.52,41.41,41.41,0,0,1,1.54-12.38l.44-1.62c.14-.54.3-1.09.5-1.64l1.13-3.31c.42-1.11.91-2.23,1.34-3.33.24-.55.44-1.1.69-1.66l.77-1.66c2-4.43,4.38-8.8,6.66-13,.61-1,1.2-2.07,1.75-3.1s1.21-2,1.76-3c1.06-2,2.31-3.89,3.24-5.78a63.26,63.26,0,0,0,5-10.33c2.35-2.43,6.27-2.86,10-3.43S696,1525.07,698.13,1522.52Zm205.18,97.82c5.67.72,7.59,2.68,12.24,3.75-4.27,3.9-11.42,6.33-21.48,7-3.38-1.34-3-3-.78-4.92S899.43,1622.31,903.31,1620.34Zm158.61-67.12c6.43-.64,12.86-1.47,19.3-2.27l9.67-1.23,9.1-1.33c12.09-1.87,24.11-4,35.85-6.47s23.32-5.18,34.49-8.23l4.2-1.11,4.14-1.18c2.74-.8,5.51-1.54,8.21-2.36,5.39-1.66,10.78-3.24,16-5,15-4.88,30.66-10.24,46-16.45a294.66,294.66,0,0,0,43.25-21.42,150.67,150.67,0,0,0,33-26.36c8.7-9.3,14.38-19,17.53-28.44l2-2.26.53-.62.46-.67,1-1.41,2.1-3c.7-1.06,1.25-2.24,1.93-3.41l1-1.8a13.17,13.17,0,0,0,1-1.87c.56-1.31,1.12-2.65,1.7-4l1.14-2.64c.09-.27.2-.53.27-.83a6.1,6.1,0,0,0,.23-.89,10.75,10.75,0,0,0,.25-3.56,2.94,2.94,0,0,0-.94-2.14c-.13,0-.22-.16-.38-.15h-.26l.48-.07c.35-.06.71-.1,1.07-.15,1.43-.18,2.83-.42,4.2-.68s2.7-.48,4-.77,2.5-.52,3.7-.84l3.36-.88c1-.28,2.12-.65,3-.91s1.8-.56,2.63-.86a75.55,75.55,0,0,0,11.49-5,44.6,44.6,0,0,0,7.39-4.79,21,21,0,0,0,2.85-2.71l.11-.14s0,0,0,0l0,0-.09.15c-.12.18-.22.34-.3.49s-.16.28-.23.42l-.23.46-.1.23,0,.11v0h0c.25-.54-.56,1.22.56-1.2l0,.1c-.14.27-.26.54-.37.81s-.22.54-.32.8l-.07.19-.12.3-.23.6c-.15.4-.29.79-.42,1.19s-.21.73-.42,1.33c-.36,1.09-.66,2.16-.91,3.23a141.43,141.43,0,0,0-3.71,22.34c-.14,1.35-.26,2.69-.36,4l-.13,2,0,.5-.05.63-.11,1.25q-.39,5-.51,10l-.13,2.76,0,0-.06.08,0,0-.11,0-.23.1-.24.08-.39.11c-.29.07-.46.12-.88.21l-1.11.25-1.41.28c-2.05.41-4.69.91-7.94,1.49l-10.35,1.74-20.48,3.52c-6.78,1.16-13.5,2.36-20.17,3.4s-13.29,2-19.85,2.93c-8.95.16-18,.55-27.13,1.06s-18.37,1-27.68,1.66l-56.81,4.25c-4.8.34-9.63.71-14.47,1l-14.57.79c-9.74.49-19.54.9-29.38,1.17s-19.73.21-29.65.06c-5-.09-9.93-.22-14.91-.42s-10-.43-14.94-.82c-9-.66-16.86-2.42-24.76-4.19a189.91,189.91,0,0,0-25-4.35c-8-.71-16.8-.66-25.92-.62-4.56,0-9.19,0-13.81,0s-9.22-.36-13.74-.78c-13-1.24-25.77-3.51-38.39-5.78s-25.13-4.73-37.68-5.93c-2.88-.28-6-.4-9.22-.44s-6.57-.07-9.91-.08a166.2,166.2,0,0,1-18.94-.73c-7.47-.93-12-4.67-18.8-5.85-10.49-1.91-22.23-2.67-33.51-3.57-5.65-.45-11.18-.95-16.38-1.67a92.27,92.27,0,0,1-14.39-3.15c-7.82,0-15.54-.12-23.22-.28l-11.48-.27L731,1422q-11.43-.52-22.91-1.14l-6.7-.37-8.28-.52c-5.65-.38-11.3-.86-17-1.3L641.3,1416c-11.71-1-24.1-1.44-35.53-3.66l-36.14-5.55-18.92-2.82a39.33,39.33,0,0,1-4.62-.92c-1.5-.35-3-.7-4.49-1.08-3-.74-6-1.54-9-2.36,5.87.88,11.82,1.65,17.86,2.23,6.42.23,12.77.43,19,.57,12.42.29,24.29.35,35.06-.08,5.38-.21,10.48-.55,15.25-1,1.19-.12,2.35-.24,3.51-.4l3.51-.66q3.43-.67,6.56-1.46c8.33-2.09,14.89-4.74,19.29-8.16,12.29,1,24.4,1.9,36.37,2.76q4.49.33,9,.58l8.69.49,13.57.75c9,.51,18,1.17,27.07,1.86s18.12,1.51,27.29,2.62c6.61.8,12.13,1.57,17.38,2.29s10.21,1.29,15.72,1.85,11.56,1.06,19,1.47c3.7.21,7.74.4,12.22.56s9.4.21,14.87.27c9.86.09,19.48-.46,28.91-1l14-.77c4.64-.23,9.24-.36,13.82-.32q9.18.07,18.41.38l18.49.67c12.35.48,24.73,1.14,37.08,1.82,24.71,1.08,49.32,2.4,73.32,2,5.12-.06,10.24-.2,15.34-.39s10.18-.41,15.21-.74c10.08-.63,20-1.32,29.63-1.79q7.23-.36,14.21-.53t13.68-.16a164.58,164.58,0,0,1,25.37,2.08c8.21-.66,16.67-1.32,25.29-1.82s17.43-.89,26.31-1.22c4.45-.15,8.91-.35,13.39-.55l13.45-.58c9-.38,18-.76,26.89-1.21,17.81-1.11,35.34-2.44,51.88-4.59s32.13-5.29,45.9-9.47l7.72.21c1.1.05,2.31.06,3.3.12l1.53.06,1.4.08c.49,0,.9.06,1.32.09l1.22.08c.72.09,1.51.13,2.08.22,1.28.12,2.15.29,2.78.4a2.7,2.7,0,0,0,.41.06.88.88,0,0,0,.26.06h.12l0,0a.13.13,0,0,0,.09,0h0l0-.12.16-.5c.11-.32.23-.66.36-1l.61-1.55.29-.67.16-.33,0-.05c.12-.27-1.07,2.3-.56,1.2h0l0,0,0-.09c.11-.25.24-.51.38-.77l.29-.53a4.56,4.56,0,0,1,.25-.39l0-.08,0,0-.09.12-.17.2c-.15.17-.29.33-.42.46l-.56.57c-.24.23-.43.4-.69.63s-.64.58-1,.83l-.2.16,0,0h.06a.49.49,0,0,1,.15,0,.75.75,0,0,0,.18.07l.12,0a.41.41,0,0,0,.1.09,1.75,1.75,0,0,0,.27.16,3.5,3.5,0,0,0,.27.28,1.11,1.11,0,0,1,.3.31,15.78,15.78,0,0,1,2.59,4.77,40.72,40.72,0,0,1,2,16.26,89.84,89.84,0,0,1-5.81,7.59l-1.59,1.8c-.54.56-1.08,1.14-1.64,1.71l-.83.82-.41.41-.5.59-2,2.4c-1.34,1.62-2.64,3.26-4,4.9s-2.86,3.18-4.25,4.81c-.7.81-1.35,1.64-2.07,2.45l-2.25,2.38c-.74.8-1.47,1.6-2.19,2.42s-1.39,1.66-2.21,2.44q-2.36,2.37-4.59,4.87c-.69.86-1.6,1.62-2.38,2.45s-1.61,1.64-2.39,2.48l-1.17,1.27-.58.64-.64.62c-.86.82-1.7,1.66-2.53,2.52s-1.65,1.72-2.46,2.61-1.77,1.71-2.64,2.6c-6.94,7.07-14.49,14.7-23.19,23.3-1.82,1.71-3.53,3.44-5.17,5.21-.79.9-1.71,1.71-2.53,2.58s-1.67,1.72-2.48,2.59-1.59,1.75-2.36,2.63l-2.43,2.56q-2.38,2.58-4.62,5.23c-1.56,1.7-3.11,3.41-4.6,5.14s-2.94,3.51-4.49,5.18c-3,3.38-5.89,6.91-9,10.2-12,13.44-24.6,26.29-41.56,35.83-2.66.31-5.21.68-7.65,1.17a67.59,67.59,0,0,0-7,1.85,116.65,116.65,0,0,0-13.12,4.93c-4.34,1.75-8.67,3.73-13.36,5.47a101.83,101.83,0,0,1-15.27,4.5c-16.83,3.5-35.4,4.67-55.79,6.15-5.09.42-10.33.71-15.67,1.2s-10.82.93-16.44,1.53q-4.21.42-8.54,1c-2.85.37-5.94.73-9,1.16-6.08.84-12.3,1.93-18.69,3.16,5.82-14,4.74-24.07,14.67-35.22-2.73-1.83-8.2-2.34-13.07-3.14S1062.24,1556.2,1061.92,1553.22ZM501.1,1387.53c-1.89.8-4.58.93-6.86,1.31s-4.22,1.11-4.63,3.28c-9.35-7.5-21.51-14-33.47-21.26l-4.47-2.74-4.41-2.82-4.32-2.87-4.18-3A135.25,135.25,0,0,1,424,1347.24a157.45,157.45,0,0,1-10.27-14.84l-2.25-3.79-2-3.83c-1.33-2.54-2.63-5.06-3.83-7.55a215.24,215.24,0,0,1-8-21.18c-.49-1.77-1-3.53-1.46-5.28l-.36-1.32-.3-1.32-.6-2.63c-.88-3.5-1.39-7-2-10.46a185.23,185.23,0,0,1-2.08-20.64l-.13-2.57,0-2.56-.05-5.12.13-5.11.06-2.56c0-.85.11-1.7.16-2.56.11-1.7.22-3.42.34-5.13s.34-3.42.51-5.14c.3-3.44.86-6.89,1.32-10.36.26-1.74.6-3.48.9-5.23s.61-3.5,1-5.26l1.11-5.31c.46-1.78.93-3.58,1.39-5.37.95-3.6,1.89-7.23,2.89-10.91q1.77-5.54,3.67-11.19l1-2.83.48-1.42.57-1.43,2.29-5.76q1.17-2.89,2.34-5.83l1.2-2.94,1.38-3c2.35-3.88,4.64-7.41,6.87-10.73,1.08-1.67,2.34-3.26,3.51-4.83s2.37-3.09,3.54-4.61l3.52-4.52,1.75-2.26,1.85-2.26c2.48-3,5-6.15,7.55-9.5,1.83-3.13,3.94-6.19,5.95-9.28s4-6.16,6.14-9.21l6.46-9.09,3.24-4.53,3.41-4.45,6.82-8.88c2.32-2.94,4.75-5.81,7.12-8.7,4.68-5.83,9.72-11.42,14.64-17,2.42-2.84,5.05-5.52,7.59-8.26s5.11-5.43,7.65-8.13l7.85-7.92,3.9-3.94c1.3-1.31,2.66-2.56,4-3.84l8-7.61c2.63-2.54,5.31-5,8.08-7.51l6.34-5.7,5.81-5.1c33.37-29.29,67.34-58.59,99.66-80.57,18-12.24,37.31-21.87,55.16-31.64s34.25-19.67,46.56-32.48l3.37-1.87.43-.23.2-.11.08,0,.35-.15.71-.31,3-1.23c2.06-.83,4.24-1.67,6.51-2.54,4.53-1.74,9.44-3.62,14.28-5.7,9.62-4.15,19.08-9.25,22.53-14.26,10-2.44,20-7.85,30.2-14.09,5.11-3.14,10.32-6.48,15.86-9.94s11.46-7,18.13-10.62A47.63,47.63,0,0,0,879.32,761a37.57,37.57,0,0,0,2.49-10.57,37.06,37.06,0,0,0-.57-10.19,39.32,39.32,0,0,0-1.48-5.72,32.07,32.07,0,0,0-2.91-6.23,33.28,33.28,0,0,0-5.15-6.51,53.7,53.7,0,0,0-6.32-5.23c-4.26-3-8-5.52-11.12-8.39,11-2.53,20-2.33,27.61,0a34.85,34.85,0,0,1,10.29,5.2,101,101,0,0,1,8.19,7.11c2.94,2.63,5.77,4.76,10.13,5.87-1.11,2.27-2,4.33-2.74,6.21a41.53,41.53,0,0,0-1.69,5.16,31.62,31.62,0,0,0-.91,8.35c.07,5,1.08,9.6-.77,14-1.54,3.81-5.34,8.34-9.4,12.84s-8.36,9-11.26,13.18c-3.53,5.08-5.22,9.3-8.82,14.3s-9.12,10.84-20.18,18.61c-8.79,6.15-17.77,11.63-27.75,18.2a167.82,167.82,0,0,1-17,9.64c-6,3-12,5.71-17.82,8.28l-8.45,3.75c-2.92,1.34-4.64,2-9.47,4.62-8.21,4.38-15.9,8.77-22.67,13.2-7.37,4.83-13.63,11.89-21.11,16.39-8.84,5.35-19.34,10.23-30.09,15.5s-21.76,10.86-31.53,17.54a73.79,73.79,0,0,0-7.21,6.66,70.38,70.38,0,0,1-7.41,6.76c-9.85,6.32-22.22,10.91-31.85,17.12a507.26,507.26,0,0,0-51,38l-6.57,5.62c-1.1.94-2.19,1.93-3.28,2.9l-3.82,3.43c-3,2.65-5.72,5.26-8.54,8l-8.49,8.14-8.3,8.45c-1.38,1.43-2.8,2.83-4.15,4.28l-4,4.38-4.07,4.4c-1.36,1.47-2.73,2.94-4,4.46l-7.88,9.1c-1.34,1.51-2.59,3.08-3.86,4.63s-2.53,3.12-3.81,4.68l-3.81,4.69c-1.25,1.58-2.44,3.18-3.67,4.78-2.41,3.2-4.91,6.38-7.28,9.62l-7,9.8-1.75,2.45-1.66,2.49-3.33,5-3.33,5c-1.1,1.66-2.1,3.36-3.16,5-2.08,3.37-4.21,6.74-6.25,10.12l-5.91,10.22-1.49,2.56-1.36,2.58-2.71,5.15-2.72,5.16-.67,1.29-.61,1.29-1.23,2.59q-2.43,5.19-4.88,10.36-2.16,5.19-4.34,10.37c-1.5,3.45-2.66,6.89-3.93,10.33-.62,1.72-1.25,3.43-1.87,5.15l-.94,2.57-.82,2.57c-2.26,6.84-4.13,13.68-5.74,20.52a249.1,249.1,0,0,0-5.84,33,106.83,106.83,0,0,0,1.55,33.45c.23,1,.46,2,.7,3a26.39,26.39,0,0,0,.83,3c.66,2,1.32,4,2.05,6s1.67,3.94,2.5,5.93,1.83,3.93,2.74,5.9c1.84,3.51,3.84,7,5.78,10.37s4.09,6.66,6.15,9.83c8.6,13.48,17.12,24.87,27,34.75S485,1382.1,501.1,1387.53ZM809,772.11c2.19-1.87-2.81-1,2.85-2.71C822.45,767.8,817.94,772.06,809,772.11Z"/><path class="b" d="M619.25,1385.9c1.81-1.62,3.29-3.09,4.59-4.49s2.54-2.67,3.65-4c2.25-2.55,4.28-5,7.22-7.91,3.08-1.55,6.43-3.36,9.73-5.43s6.69-4.35,10.16-6.77,7.21-4.95,10.88-7.56l5.52-4,5.76-3.92c3.85-2.61,7.67-5.21,11.51-7.65s7.87-4.71,11.68-6.77a85,85,0,0,1,21.62-8.73c-17.46,9.9-32.75,19.51-47.31,28.77l-10.5,7c-3.48,2.3-7,4.57-10.21,6.87l-9.86,6.84-2.45,1.69c-.81.57-1.57,1.15-2.36,1.72l-4.69,3.41-9.35,6.81q-4.5,3.44-9,6.86c-6.13,4.56-11.75,9.22-17.65,13.88l-2.2,1.75c-.74.59-1.39,1.19-2.09,1.78l-4.15,3.58c-2.76,2.4-5.62,4.8-8.36,7.24l-7.94,7.43-4,3.78-3.76,3.84c0-.93.57-2.38,1.7-4.19a68.45,68.45,0,0,1,5.18-6.35c1.07-1.19,2.24-2.44,3.48-3.72l1.91-2,2.17-2c2.94-2.66,6.08-5.39,9.25-8.07.8-.66,1.58-1.33,2.4-2l2.54-1.93,5-3.69c3.26-2.37,6.28-4.55,9.08-6.37C614,1388.11,618.15,1385.83,619.25,1385.9Z"/><path class="b" d="M533.11,1463.37c4.69-5.73,5.67-8.72,6.5-11.66,1-2.93,2-5.8,6.52-11.21,1.16,2.4-1.39,7.21-3.69,11.91-2,4.7-4,9.29-2.43,11.22-3.23,4.07-3.13,3-3.2,1.36-.06-.8,0-1.73-.48-2.2S535,1462.31,533.11,1463.37Z"/><path class="b" d="M1170,627.37c-1.65-2.24-3.23-5.09-5.26-8.14s-4.28-6.39-6.9-9.69a94.54,94.54,0,0,0-8.73-9.64,97.73,97.73,0,0,0-10.1-8.48,108.8,108.8,0,0,0-21.82-12.37,96,96,0,0,0-20.92-6.32,86.61,86.61,0,0,1,21.28,5,94.8,94.8,0,0,1,20.38,10.54,89.89,89.89,0,0,1,18.54,16.85A94.19,94.19,0,0,1,1170,627.37Z"/></svg>