<svg xmlns="http://www.w3.org/2000/svg" viewBox="0 0 1703.46 1944.28"><defs><style>.a{fill:none;}.b{fill-rule:evenodd;}</style></defs><path class="a" d="M1316.67,94.64c-9.44,1.26-19.66,2.66-30.59,4.32-11.1,1.73-22.95,3.78-35.51,6.36-12.73,2.67-26.24,6-40.44,10.17a399,399,0,0,0-45,16.55q-5.91,2.7-11.77,5.48c-1.94.89-4,2-6,3l-6,3.15c-2,1.07-4,2.1-5.94,3.22l-6,3.54-6,3.6-3,1.82-3,2q-5.94,4-11.79,8.07c-.89.61-2.16,1.58-3.27,2.41l-3.41,2.58-3.39,2.62-3.26,2.66a273.45,273.45,0,0,0-24.29,22.44,277.87,277.87,0,0,0-21,24.46,282.12,282.12,0,0,0-18,26.56,276.75,276.75,0,0,0-15.14,28.93,269.18,269.18,0,0,0-12,31.75,257.21,257.21,0,0,0-8.28,35c-1,6.07-1.79,12.46-2.41,18.8-.52,6.52-.93,13-1,19.75a235.9,235.9,0,0,0,33.91,125.34,248.57,248.57,0,0,0,24.41,33.45q3.12,3.57,6.32,7.05,3.08,3.24,6.22,6.42l1.58,1.58,1.51,1.46,3,2.9,3.07,2.86,2.93,2.62,3,2.59,1.47,1.28,1.41,1.18,5.66,4.66,5.37,4.2,1.35,1,1.26,1,2.54,1.89c13.53,10,24.22,16.61,31.88,21.56l10.64,6.9c3.55,2.3,7.1,4.59,10.55,6.91l10.44,6.94c3.48,2.32,6.85,4.67,10.27,7,6.89,4.64,13.52,9.38,20.22,14.08,3.38,2.34,6.59,4.75,9.88,7.12s6.58,4.75,9.78,7.15l9.58,7.23c1.59,1.21,3.22,2.4,4.78,3.61l4.67,3.66,9.34,7.3,9.08,7.41,4.55,3.69c1.5,1.24,2.94,2.5,4.42,3.75l8.82,7.48c11.5,10.09,22.8,20.23,33.31,30.65,10.73,10.33,20.6,21,30.29,31.64l7,8.1,3.51,4,3.32,4.11,6.67,8.19,6.36,8.34,3.19,4.16c1.06,1.39,2,2.85,3.07,4.27l6.12,8.56c2,2.89,3.92,5.86,5.9,8.77l3,4.39c1,1.45,1.88,3,2.83,4.48l5.66,9c1.85,3,3.6,6.14,5.42,9.19l2.71,4.6c.92,1.52,1.73,3.12,2.6,4.68l5.18,9.4c6.62,12.75,13.16,25.61,18.95,39A664.05,664.05,0,0,1,1449.68,996c4.11,14.45,8,29,11.32,43.9,1.77,7.38,3.21,14.9,4.76,22.38l.58,2.81.51,2.83,1,5.67,1,5.66.52,2.83.46,2.85a888.55,888.55,0,0,1,10.43,92.71l.68,11.76.46,11.8.24,5.91.12,5.92.25,11.84,0,11.87,0,5.94-.1,5.95-.17,11.89-.39,11.92-.19,6c-.07,2-.19,4-.29,6l-.59,11.93-.8,11.93c-.26,4-.52,7.94-.88,12q-1.89,24.13-4.89,47.78a920.81,920.81,0,0,1-16.19,92.32q-5.19,22.45-11.57,44.16c-1.1,3.6-2.12,7.24-3.25,10.81l-3.41,10.71-3.59,10.58c-.6,1.77-1.2,3.56-1.79,5.16s-1.18,3.37-1.75,4.85c-2.3,6.24-4.48,11.75-6.48,16.26s-3.83,8.16-5.33,10.82a48.69,48.69,0,0,1-3.25,5.18l-.09.11h0l0,0,0,0h0l0,0,0,0,0,0v0s0,0,0,0,0,0,0,0l-.11,0-.18.13a2.94,2.94,0,0,1-.54.32c-.71.48-2,1.1-3.51,1.85-.42.18-.83.37-1.24.57s-1,.4-1.41.61c-.9.42-2.07.83-3.16,1.29-2.37.86-4.91,1.82-8,2.73-1.43.48-3.11.92-4.68,1.4l-2.54.68c-.85.24-1.7.47-2.64.68-7.29,1.91-14.75,3.35-22.25,4.58a254.55,254.55,0,0,1-90.93-2l124.64,199.11q41.82-165.43,67.44-334.37l6.15-42.21,5.63-42.28.34-2.64.52-4.45,1.11-9.66L1484,1336l4.42-38.64c.79-6.33,1.32-13.18,2-19.84l1.84-20.09,3.68-40.17c.69-6.73,1.07-13.3,1.53-19.92l1.36-19.83,2.72-39.65c.49-6.64.85-13.17,1.23-19.71l1.14-19.63,2.29-39.26,9.22-158.15-194.57,40.65-48.42,10.32c-2,.41-4.07.92-6.13,1.42l-6.17,1.51-12.34,3-24.68,6-50,13.85-50.33,15.49-50.34,16.73c-4.21,1.4-8.37,2.9-12.57,4.33l-6.27,2.21-5.18,1.87-13.18,4.67-26.09,9.46-25.8,9.55c-34.22,12.76-67.72,25.64-100.66,38.23-65.87,25.19-129.54,49.22-191.83,69.25-31.14,10-61.91,19-92.36,26.78l-11.41,2.9L575.72,1182c-3.78.87-7.57,1.81-11.35,2.64l-11.29,2.4c-3.77.79-7.54,1.66-11.29,2.38l-11.24,2.14-5.62,1.07-2.81.54-1.25.23-1.16.2-2.31.4-2.27.37c-1.52.25-3,.47-4.45.69a217,217,0,0,1-29.88,2.6,88.85,88.85,0,0,1-9.41-.4,31,31,0,0,1-3.9-.59h-.08c0-.2-.13.51-.21.85-.42,1.65-.87,3.31-1.36,5l-.76,2.49-.66,2.25c-.45,1.48-.93,3-1.45,4.44s-1,2.8-1.42,4.11-1,2.61-1.5,3.92c-.29.69-.45,1.19-.68,1.77l-.69,1.69c-.45,1.12-1,2.31-1.48,3.36a82.42,82.42,0,0,1-8.7,15.62l-.63.82c-.11.14-.22.28-.36.44l-.27.32,0,0,0,0,.19-.2.34-.32-2.73,2.51.52-.49,1.05-1c.7-.62,1.41-1.21,2.12-1.76.95-.82,1.91-1.6,2.88-2.35l1.45-1.09.74-.52.93-.71c1.24-.95,2.5-1.85,3.76-2.7l1.92-1.26c.78-.55,1.57-1.09,2.36-1.62q2.37-1.57,4.78-3l1.22-.72,1.46-.92c1-.61,1.95-1.2,2.93-1.78,2-1.16,3.92-2.24,6-3.33q3.57-2.07,7.19-4c1.21-.63,2.42-1.25,3.63-1.85.84-.43.87-.42.78-.37v0a.46.46,0,0,0-.07-.16l-.05-.08-.09-.23a3.55,3.55,0,0,0-.21-.44l-.05-.11-.07-.19-.15-.36c-.1-.25-.2-.49-.31-.73l-.38-1-.2-.5a4.41,4.41,0,0,1-.21-.57c-.59-1.65-1.27-3.55-2-6l-.3-.94h0a2.81,2.81,0,0,0,.33-.26l4.39-3.44c2.88-2.31,5.93-4.58,8.95-6.87,12-9.15,24.65-18.2,37.61-27.25l9.83-6.79,10-6.78,5-3.39,5.13-3.39,10.29-6.79,10.5-6.82,10.6-6.83,10.72-6.86,10.89-6.9,44.67-28.14,23-14.49,11.64-7.42,11.7-7.51,11.78-7.6,11.87-7.79c4-2.57,7.94-5.24,11.93-7.91s8-5.3,12-8c8-5.5,16.05-10.93,24.14-16.67s16.17-11.52,24.27-17.37c32.41-23.85,65.1-49.83,96.82-79.4,8-7.23,15.76-15,23.58-22.67,3.88-3.93,7.72-7.93,11.57-11.9,1.92-2,3.85-4,5.76-6l5.67-6.19c3.76-4.15,7.56-8.22,11.26-12.46l11-12.87c3.7-4.23,7.21-8.77,10.79-13.19l5.34-6.67c.89-1.13,1.77-2.2,2.67-3.38l2.73-3.59c7.27-9.45,14.51-19.69,21.6-30.27,3.54-5.48,7.07-10.78,10.52-16.59,1.73-2.87,3.46-5.67,5.16-8.62l5.06-9c1.68-2.94,3.32-6.13,4.95-9.27l2.43-4.72c.81-1.59,1.62-3.12,2.4-4.8,3.14-6.63,6.27-13.1,9.17-20.19l2.19-5.23c.72-1.73,1.44-3.47,2.13-5.32q2.07-5.47,4.06-11l1-2.75.94-2.86,1.85-5.76,1.8-5.77.89-2.9.82-3q1.62-6,3.17-12.11c.52-2,1-4.19,1.45-6.36l1.34-6.51c1.87-8.67,3-17.46,4.23-26.24.52-4.39.86-8.82,1.23-13.23l.49-6.63c.14-2.21.18-4.42.25-6.64.13-4.42.21-8.86.24-13.28s-.25-8.86-.44-13.29-.56-8.84-1-13.25-.8-8.82-1.47-13.21-1.27-8.77-2-13.14-1.76-9.12-2.59-13.13l-.66-3.11c-.22-1-.48-2-.72-3l-1.48-6-1.53-6c-.52-2-1.1-3.85-1.66-5.78-1.13-3.79-2.26-7.66-3.47-11.37s-2.47-7.28-3.74-10.9l-1-2.71-1-2.6-2-5.2-2-5.18c-.69-1.69-1.39-3.31-2.09-5-1.41-3.27-2.82-6.64-4.27-9.82l-4.38-9.4c-.74-1.6-1.48-3.09-2.23-4.58l-2.25-4.48-2.26-4.48-2.28-4.29c-1.52-2.83-3.06-5.74-4.6-8.49l-4.62-8.17c-6.17-10.63-12.41-20.74-18.52-30.1-.77-1.21-1.54-2.33-2.31-3.46l-2.3-3.38-4.62-6.76-9.28-13.5a895.61,895.61,0,0,0-83-100.51L897.36,216.4l-5.69-5.81c-1.89-2-3.9-3.76-5.85-5.64-7.87-7.44-15.7-14.93-23.68-22.25l-24.51-21.3c-2-1.79-4.14-3.48-6.26-5.17L825,151.16,812.35,141A914.36,914.36,0,0,0,704.46,68.89L690.25,61c-4.77-2.59-9.44-5.33-14.33-7.71L646.8,38.7,617.05,25.31c-4.93-2.3-10-4.2-15.08-6.26l-15.32-6.11-5.33-2.12c-1.82-.71-3.41-1.37-5.63-2.13s-4.19-1.43-6.28-2.11l-6.3-2L537.94-3.65,525.36-7.74l-6.29-2-3.15-1c-1-.35-2.11-.57-3.17-.86-8.46-2.22-16.94-4-25.42-5.62-33.91-6.11-67.82-6.55-100.74.14a236.34,236.34,0,0,0-48.12,14.8,250.63,250.63,0,0,0-22.67,11c-7.36,4.05-14.5,8.49-21.45,13.22-27.76,19-51.88,43.43-72.34,71.49a422,422,0,0,0-28.11,44.38c-4.14,7.81-8.13,15.72-12.2,23.58l-3,5.9-1.48,3L175.84,173l-4.11,8.76q-14,30-25.77,61.64c-7.75,21.19-14.68,43-20.6,65.38l-2.18,8.42-1.08,4.22-1,4.27c-1.29,5.71-2.62,11.39-3.85,17.13l-3.38,17.37c-1.07,5.82-1.95,11.74-2.9,17.6A622,622,0,0,0,104.27,450l-.33,18.45c.06,6.24.21,12.54.36,18.81,0,1.56.06,3.13.13,4.7l.27,4.7.57,9.4c.22,3.14.36,6.27.67,9.4l.94,9.39,1,9.39c.31,3.13.83,6.25,1.25,9.38l1.35,9.36.7,4.69c.23,1.56.55,3.11.82,4.67,1.15,6.24,2.3,12.47,3.53,18.69q2.08,9.32,4.28,18.62a531,531,0,0,0,24.12,73.62A476.6,476.6,0,0,0,229.57,810l241.32-218.1a145.46,145.46,0,0,1-14.3-19.28,149,149,0,0,1-12-23.6,204.33,204.33,0,0,1-8.94-27.36c-.53-2.44-1.1-4.86-1.7-7.28-.44-2.49-.88-5-1.38-7.45-.11-.63-.27-1.23-.35-1.87l-.25-1.9-.54-3.78c-.17-1.27-.44-2.52-.54-3.8l-.37-3.84-.41-3.83c-.16-1.28-.15-2.58-.25-3.87l-.24-3.87-.14-1.93c0-.64,0-1.29,0-1.94,0-2.59-.11-5.16-.16-7.77s.13-5.43.15-8.15a300.17,300.17,0,0,1,3.16-33.6c.5-2.88.88-5.74,1.42-8.64s1.15-5.82,1.69-8.73l2-8.81.49-2.21.59-2.22,1.15-4.44q4.72-17.82,11.35-36c4.5-12.11,9.61-24.29,15.28-36.45l1.62-3.47s0,0,0,0l1.41.6,9.38,3.74c3.16,1.3,6.39,2.41,9.48,3.91q9.36,4.26,18.76,8.41,9.18,4.68,18.41,9.25c3.12,1.45,6.06,3.27,9.08,4.91l9,5a589,589,0,0,1,68.76,46l8.1,6.46,4.05,3.22c1.36,1.07,2.73,2.13,4,3.3q7.78,6.83,15.64,13.57c5.06,4.69,10,9.48,15,14.18,1.24,1.2,2.56,2.32,3.74,3.57l3.59,3.72,7.2,7.39a570.66,570.66,0,0,1,52.33,63.31l11.51,16.8c3.59,5.48,6.62,10.49,9.37,15.17l1.93,3.41c.63,1.11,1.14,2.13,1.72,3.2l.85,1.57.72,1.47.74,1.45c.25.49.51,1,.69,1.4q.6,1.33,1.23,2.64c.4.85.66,1.59,1,2.38.16.39.36.79.51,1.15l.37,1,.4,1,.21.5c.06.16.08.29.13.43.17.57.37,1.12.59,1.67s.22.9.38,1.35a3.91,3.91,0,0,1,.2.61l.09.47a3.5,3.5,0,0,0,.14.46,1.11,1.11,0,0,1,.07.22v.14c0,.34,0,0,0-.09H759s.09,0,0,0h0s.08,0,0,.13a3,3,0,0,0-.2.74l0,.21a1.92,1.92,0,0,1-.11.27c-.07.19-.14.38-.2.57a5.5,5.5,0,0,0-.16.58c0,.1,0,.19-.08.3l-.16.36c-.2.49-.39,1-.55,1.5a4.77,4.77,0,0,1-.34.84l-.39.9c-.39,1.14-1.21,2.61-1.81,4a10.25,10.25,0,0,1-.58,1.14l-.62,1.18c-.41.8-.76,1.57-1.31,2.46s-1,1.73-1.45,2.61-1.14,1.84-1.68,2.77c-1,1.84-2.48,3.88-3.71,5.87-2.82,4.12-5.74,8.41-9.31,13l-1.28,1.7c-.45.58-1,1.22-1.47,1.83l-3,3.7c-2,2.46-3.86,5-6,7.39l-6.27,7.32c-2.11,2.44-4.4,4.82-6.58,7.25L708.37,647c-1.13,1.2-2.32,2.39-3.47,3.58L698,657.8c-4.91,4.7-9.57,9.51-14.76,14.16-20.14,18.82-43,37.13-67.66,55.3-6.27,4.52-12.46,9.06-19,13.57-6.36,4.53-13,9-19.62,13.56l-10.11,6.77c-3.37,2.26-6.74,4.52-10.22,6.78l-10.36,6.8-10.57,6.82L525,788.41l-10.78,6.87-22,13.9-45.32,28.55-11.57,7.34-11.68,7.47-11.75,7.57-11.8,7.66-11.91,7.86-5.95,3.94-6,4-12,8.11L352.18,900c-16.1,11.24-32.28,22.79-48.49,35.16-4.05,3.06-8.1,6.1-12.15,9.32l-6.07,4.76c-3.32,2.59-6.59,5.16-10.08,8A466.94,466.94,0,0,0,236,992.68a321,321,0,0,0-33.59,40,277.14,277.14,0,0,0-25.79,44.66,251.31,251.31,0,0,0-22.55,99.82q-.19,12.9.73,25.85t3.1,25.89a467.15,467.15,0,0,0,11.8,51.51q1.8,6.39,3.68,12.77l1.92,6.36,1.7,5.39c1.91,6,4.12,12.49,6.56,19.16a355,355,0,0,0,19.6,44.31A295.66,295.66,0,0,0,236.06,1418c3.54,4.17,7.11,8.35,10.84,12.33q2.82,3,5.67,5.89c1.91,2,3.83,3.88,5.84,5.73,4,3.73,8,7.48,12.18,10.93q3.14,2.63,6.31,5.19c2.11,1.72,4.28,3.31,6.44,4.94a284.41,284.41,0,0,0,53.84,31.61,309.18,309.18,0,0,0,52.93,18,354.45,354.45,0,0,0,48.48,8.28,414.74,414.74,0,0,0,43.69,2,537,537,0,0,0,76-6.11c2.93-.43,5.83-.87,8.69-1.34l4.29-.7,4.24-.74,4.13-.73,3.72-.7,7.44-1.42,14.88-2.84c5-1,9.82-2.06,14.74-3.09l14.71-3.14c4.87-1.08,9.69-2.25,14.55-3.37l14.53-3.42,14.36-3.63c38.28-9.72,75.56-20.71,111.92-32.41,72.72-23.42,141.74-49.61,208.32-75,33.29-12.73,66-25.28,98.19-37.3l24.08-8.91,23.9-8.67,13-4.59-.79,6.29-5.11,38.37-5.58,38.31q-23.22,153.1-61.2,303.44L1043.63,1876l166.3,34.34a579.66,579.66,0,0,0,208.22,4.72c17.24-2.79,34.4-6.23,51.39-10.61,2.11-.51,4.29-1.09,6.47-1.68l6.52-1.78c4.45-1.29,8.81-2.52,13.35-4,8.94-2.75,18.22-6,27.58-9.55,4.74-1.85,9.43-3.68,14.26-5.78,2.42-1.05,4.77-2,7.22-3.15l7.29-3.37c9.8-4.69,19.67-9.78,29.7-15.77,2.5-1.48,5-2.92,7.5-4.55l7.63-4.91c2.58-1.7,5.17-3.53,7.73-5.31s5.13-3.61,7.61-5.52,5-3.8,7.47-5.72,4.85-4,7.25-6l3.6-3,3.5-3.13q3.49-3.15,6.94-6.34,5-4.82,9.78-9.74c3.19-3.32,6.28-6.73,9.36-10.14s6-7,8.93-10.53l2.19-2.67,2.11-2.73,4.1-5.37a372.9,372.9,0,0,0,26.67-41.18c7.49-13.4,13.76-26.32,19.19-38.63s10-24,14-35c1.06-2.82,2-5.42,2.94-8.13s1.86-5.29,2.74-7.88c1.76-5.19,3.56-10.37,5.27-15.57l5-15.59c1.64-5.21,3.13-10.42,4.7-15.63q9.15-31.27,16.42-62.65a1245.84,1245.84,0,0,0,22-125.12q3.92-31.14,6.36-62.07c.46-5.13.8-10.34,1.15-15.55s.73-10.41,1-15.62l.79-15.64c.12-2.61.28-5.22.37-7.83l.27-7.84.49-15.68.24-15.71.11-7.85,0-7.87-.05-15.73-.33-15.76-.17-7.88-.3-7.9-.63-15.78-.9-15.8a1212.5,1212.5,0,0,0-14.3-126.67l-.64-4-.72-4-1.44-7.91-1.44-7.92-.72-4-.8-4c-2.16-10.55-4.24-21.1-6.72-31.63-4.68-21.07-10.27-42.08-16.28-63a988.77,988.77,0,0,0-45.26-124.05c-8.88-20.38-18.91-40.43-29.34-60.3l-8.12-14.79c-1.37-2.46-2.68-4.94-4.11-7.37l-4.28-7.31c-2.88-4.86-5.69-9.75-8.63-14.57l-9-14.4c-1.52-2.39-3-4.8-4.56-7.16l-4.73-7.09c-3.17-4.71-6.29-9.45-9.53-14.13l-9.92-13.91c-1.67-2.3-3.3-4.64-5-6.92l-5.18-6.82c-3.46-4.53-6.9-9.1-10.41-13.59l-10.74-13.24-5.38-6.6-5.52-6.41-11.06-12.78c-15-16.64-30.27-32.92-46-48.15-15.66-15.47-31.75-30-47.94-44.12l-12.22-10.39c-2-1.72-4.07-3.47-6.12-5.16l-6.16-5-12.33-10-12.4-9.71-6.2-4.85c-2.07-1.61-4.15-3.15-6.23-4.73L1403,401.87c-4.16-3.11-8.34-6.09-12.51-9.14s-8.33-6.12-12.51-9c-8.36-5.88-16.72-11.83-25.09-17.48-4.18-2.84-8.37-5.75-12.55-8.54l-12.55-8.35c-4.19-2.8-8.37-5.51-12.55-8.21L1302.76,333c-7.83-5-12.69-8.23-14-9.22l-.23-.17-.12-.08,0,0,0,0h0l-1.56,1.95-3.15,3.88-2.46,3.12-2.43,3q-2.44,3-5,6l-2.55,2.95-2,2.41c-1.33,1.58-2.67,3.13-4,4.67l-7.55,8.29q-1.7,1.81-3.45,3.6l-1.78,1.77-1.41,1.46c-1.86,1.92-3.81,3.79-5.83,5.6-1.53,1.51-3.13,3-4.8,4.38l-1.26,1-1,.84c-.65.56-1.31,1.11-2,1.65l-3.61,2.78c-.54.4-1.08.79-1.64,1.17l-.82.54-.58.42c-.39.27-.8.54-1.21.8l-3.66,2.22c-.72.44-.73.36,0,.11a5.87,5.87,0,0,1,.74-.25l.52-.16.56-.15,1.34-.32,1.58-.29a54,54,0,0,1,8.6-.59c1.58,0,3.47.08,5.16.28,1.89.13,3.62.41,5.51.69a84.4,84.4,0,0,1,10.61,2.51,78.38,78.38,0,0,1,8.59,3.23,55.17,55.17,0,0,1,5.16,2.67c1,.62,1.5,1,1.2.76l-.3-.23-.49-.42q-.35-.29-.72-.63l-.9-.84a64.58,64.58,0,0,1-4.9-5.34l-1.44-1.81-.72-1-.36-.5c10.67,14.68-24.14-33.2,23.88,32.83l.2.27q1.61,2.11,2.92,4.23l.66,1.08,1,1.53c.66,1,1.28,2,1.88,3.06l.45.77.21.38c.11.18.1.17.09.16l0,0,.15,0a.34.34,0,0,0,.14-.08s0-.09.2-.12a3,3,0,0,0,.74-.35c1.35-.53,3.53-1.43,6.83-2.44,3.46-1,7.82-2.12,13.11-3.24,5.47-1.1,11.74-2.23,18.84-3.33q10.89-1.65,24.07-3.39Z" transform="translate(-103.94 22.02)"/><path class="b" d="M1333.24,221.25c1.88,2.47-2,3.72-2.89,5.6-5.36-.42-11.67-.35-11.52-3.63Z" transform="translate(-103.94 22.02)"/><path class="b" d="M1209.21,634.35a35.61,35.61,0,0,1,10.91,10.75c2.1,3.24,3.93,6.4,9,10.42,4.31,4.07,6.68,5.1,8.68,5.4s3.58-.11,6.12,1.14c26,23.21,50.25,45.55,72.8,66.61s42.8,41.11,61.57,59.74c-1.51.29-1.38,1.47-.55,3s2.27,3.58,3.54,5.44c-5,3-10.73,1.67-17.07-1.4l-7.66-8.56q-3.94-4.18-7.8-8.37c-1.3-1.38-2.51-2.81-3.87-4.16l-4-4.1c-2.67-2.72-5.22-5.48-7.9-8.17l-8.12-8c-1.36-1.33-2.64-2.7-4.06-4l-4.18-3.93c-2.79-2.61-5.5-5.25-8.32-7.84l-8.6-7.68c-1.44-1.28-2.83-2.57-4.3-3.83l-4.45-3.76-8.9-7.49-9.22-7.32-4.62-3.65-4.79-3.56-9.61-7.1-10-6.9-5-3.42-5.18-3.35-10.48-6.63c6.73-4.18.92-11.63-5.41-19.25l-4.7-5.67a39.87,39.87,0,0,1-3.8-5.4C1207.31,639.84,1206.77,636.72,1209.21,634.35Z" transform="translate(-103.94 22.02)"/><path class="b" d="M1488.53,1229.47c-2.38,4.59-1.86,16-6.44,15.42C1482.71,1236,1484.79,1230.87,1488.53,1229.47Z" transform="translate(-103.94 22.02)"/><path class="b" d="M1797.5,1308c.66,8.17.35,20.76-.66,32-1.17,11.16-3.12,21-6,23.75.53,5.69,1.16,11.31,1.58,17.15s.79,11.85.88,18.31a267,267,0,0,1-3.38,45.82c-2.87,2.84-5.71,6-8.88,6.87-.43-5.26-.81-11.4-1.12-18.1s-.67-14-.92-21.47c-.54-15-.7-31.13-.23-46,.12-3.72.35-7.38.58-10.91s.52-7,.9-10.27a129.73,129.73,0,0,1,3.2-17.92,42.24,42.24,0,0,1,5.59-13C1791.32,1310.92,1794.12,1308.72,1797.5,1308Z" transform="translate(-103.94 22.02)"/><path class="b" d="M1293.43,1646.72c5.44,1.21,3.07,1.84.45,2.33s-5.5.87-.87,1.52a4.17,4.17,0,0,1-3.27.91,18.34,18.34,0,0,1-4.82-.92c-3.2-1-5.75-2.85-4.6-4.26C1284.16,1646.21,1293.54,1649.61,1293.43,1646.72Z" transform="translate(-103.94 22.02)"/><path class="b" d="M1439.77,1399.7c-3.47.56-5.32-2.11-3.66-11.72C1439.59,1387.4,1441.45,1390.07,1439.77,1399.7Z" transform="translate(-103.94 22.02)"/><path class="b" d="M1016.16,1115.3c-21.78,3.23-16.38,10.51-31.42,9-34.74,18.42-84.15,31.82-119.69,47-17.62,7.51-32.66,17.66-50.48,25.65a1069.44,1069.44,0,0,1-111.79,42.25c-38.32,12.16-76.88,22.36-113.43,31-5.27,1.34-10.57,2.41-15.86,3.63l-7.94,1.78-4,.89-4,.8-15.8,3.11-3.93.76-3.68.64c-2.43.43-4.81.77-7.19,1.14a229.79,229.79,0,0,1-27.11,2.46,128.72,128.72,0,0,1-23.35-1.38c5.93-4.76,13.84-8,23.54-10.68s21.24-4.83,33.93-7.11l5.16-.94,5.27-.93q5.28-.89,10.63-1.71l21.31-3.47,5.26-.83,5.19-.92,10.18-1.83c3.33-.61,6.6-1.18,9.78-1.81s6.27-1.33,9.27-2a112,112,0,0,0,12.13-5.21,71.57,71.57,0,0,0,9.3-5.73,719.54,719.54,0,0,0,86.83-26.81c27-10.08,52.47-20.95,77.45-31.44,12.48-5.22,24.88-10.46,37.28-15.42s24.87-9.83,37.54-14.4A613.91,613.91,0,0,1,956,1129.74c16.79-10.13,33.49-13.35,52.74-24.06,3.2-.58,6.48-1.19,7.71-.1C1021.93,1105.49,1017.86,1111.72,1016.16,1115.3Z" transform="translate(-103.94 22.02)"/><path class="b" d="M578.83,1301.58c-2.7,1-6.19,2.18-9.92,3.22a92.63,92.63,0,0,1-11.32,2.34c-7.26,1-13.14.68-13.14-2.68-11.82,5.87-25.88,3.26-41.24,5.71-5.46-.38-10.95-.79-16.4-1.32s-10.84-1.19-16.14-2A172.7,172.7,0,0,1,441,1300a81.62,81.62,0,0,1-22.55-11.49,56.53,56.53,0,0,1-8.09-7.37c-.57-.7-1.18-1.37-1.77-2.06s-1.09-1.42-1.66-2.13-1.07-1.56-1.63-2.34-1.07-1.7-1.63-2.55c-4.33-7.08-8.51-16.87-12.26-29l-1.41-4.63-.68-2.41c-.19-.69-.38-1.32-.53-1.91l-.93-3.62-.89-3.62c-1.16-4.83-2.26-9.67-3.14-14.52-1.73-9.68-2.55-19.61-.5-29.16.1-.6.28-1.18.42-1.77s.27-1.19.47-1.76l1.14-3.46,1.43-3.35c.51-1.1,1.11-2.16,1.64-3.25a61.63,61.63,0,0,1,8.47-11.71c3.59.34,4.22,2,4,4a22.34,22.34,0,0,1-.64,3.22,11.29,11.29,0,0,0-.37,3.17,33,33,0,0,0-6.53,18.31c-.25,6.29,1.09,12.35,2.82,18.08s3.9,11.18,5.61,16.78c.85,2.81,1.66,5.65,2.28,8.65q.74,3.12,1.49,6.31c.49,2.26,1,4.32,1.37,6.51,2.84,4.81,5.38,9.09,7.61,12.67s4.12,6.48,5.68,8.81c.39.56.74,1.2,1.12,1.66q.27.39.51.81c.17.27.4.5.58.77s.37.54.55.82.4.51.6.78.38.53.57.82l.64.77a47.34,47.34,0,0,0,6.24,6.6,55.75,55.75,0,0,0,9.73,6.72,81.14,81.14,0,0,0,13.41,5.78,118.4,118.4,0,0,0,33.34,5.66c9.06,2.7,22.88,3.88,39,2.8,4-.25,8.19-.67,12.44-1.18,1-.12,2.18-.29,3.31-.45l3.4-.52,6.84-1.09c4.57-.78,9.17-1.55,13.73-2.51s9.1-2,13.57-3.11C583.56,1290.45,581.72,1297.9,578.83,1301.58Z" transform="translate(-103.94 22.02)"/><path class="b" d="M361.58,1211.91l-4,.22a68,68,0,0,1-3.07-35,81.3,81.3,0,0,1,4.93-16.5c2.13-5.3,4.58-10.41,7-15.51a10.31,10.31,0,0,1,.7,5.37c-.07,1-.17,2.14-.34,3.26s-.39,2.27-.53,3.47c-.83,4.69-1.11,9.87-.05,13.59l-1,2.83a22.3,22.3,0,0,0-.85,2.79,46.62,46.62,0,0,0-1.09,5.51,81.28,81.28,0,0,0-.66,10.49c-.06,3.38,0,6.62-.12,9.83A64.8,64.8,0,0,1,361.58,1211.91Z" transform="translate(-103.94 22.02)"/><path class="b" d="M404.18,1154.94c-3.29-1.07-1.22-5.28,2.65-9.2a43.15,43.15,0,0,1,11.48-8.33c-1.27,3.76-3.9,6.1-6.74,8.61S405.69,1151.14,404.18,1154.94Z" transform="translate(-103.94 22.02)"/><path class="b" d="M966,697.1a39.53,39.53,0,0,1-.09-9.28c.14-2.1.38-4.41.72-6.84s.8-5,1.28-7.67,1.14-5.41,1.9-8.12,1.54-5.54,2.55-8.21c2-5.3,4.42-10.59,7.82-14.93.18-1.46.3-3,.43-4.48s.29-3,.43-4.53c.3-3.06.7-6,.93-9.29s.59-6.37.89-9.61.42-6.5.65-9.78a292.09,292.09,0,0,0-.06-40.77l-.18-2.63c-.07-.88-.18-1.76-.27-2.64-.2-1.76-.39-3.52-.59-5.29s-.37-3.56-.67-5.33-.57-3.56-.86-5.35-.61-3.57-.91-5.37-.77-3.63-1.16-5.45-.79-3.54-1.19-5.32-.9-3.46-1.36-5.19a215.31,215.31,0,0,0-15-39.92c1.62.45,2.11-.79,1.84-3a24.51,24.51,0,0,0-.9-4,40.56,40.56,0,0,0-1.78-4.83c-.72-1.67-1.52-3.4-2.36-5.09-.42-.85-.85-1.68-1.29-2.5s-.89-1.56-1.33-2.3a46.1,46.1,0,0,0-4.66-6.72c-1.53,1.78,1.08,5.05,3.21,7.85a12.11,12.11,0,0,1,2.21,3.58c.22.9-.26,1.38-2,1.18l-6.49-11.41c-1.07-1.85-2.15-3.69-3.21-5.52s-2.11-3.66-3.18-5.41c-2.12-3.55-4.19-7.07-6.27-10.41l-3.08-5-3.06-4.79c-4.05-6.31-8-12.11-12-17.22a156.91,156.91,0,0,0-11.58-13.72c1.09-2.12,3.9,1.72,5.34.93.9-1.36-3.08-6.43-5.51-10.3,2.82-.4,20.81,26.91,9.91,16.71,3.79,5.84,6,5.83,9.83,12.14-6.66-13.07,8.79-.15-5.64-19.72,2-.33,7,9.37,8.78,8.25a13,13,0,0,1,1.35,7.2,19.45,19.45,0,0,0-.19,6.17c2.17,2.13,5.26,6.45,8.66,11.47L943,432.7,948.1,441c6.54,10.73,11.66,19.2,11.48,12,5.89,6.94,10.07,21.25,13.53,35.94.89,3.65,1.67,7.42,2.56,11,.46,1.77.83,3.6,1.27,5.35s.87,3.47,1.34,5.12l1.43,4.84c.49,1.56,1,3.06,1.57,4.48a41.89,41.89,0,0,0,1.84,4,28.92,28.92,0,0,0,2,3.52q.51,2.93,1,5.77c.16,1,.35,1.93.49,2.86l.39,2.8c.48,3.71,1.08,7.3,1.47,10.85s.76,7,1.12,10.43.51,6.8.75,10.13c.06.84.13,1.67.19,2.5s.05,1.66.08,2.49l.15,4.94c.09,3.29.28,6.57.16,9.84s-.11,6.56-.16,9.85-.4,6.6-.62,10c-.13,1.68-.26,3.36-.39,5.06s-.41,3.39-.61,5.1-.44,3.44-.67,5.19-.45,3.54-.77,5.21c-.61,3.42-1.25,6.89-2,10.44s-1.63,7-2.53,10.66A240.35,240.35,0,0,1,966,697.1Z" transform="translate(-103.94 22.02)"/><path class="b" d="M896.26,379.26c-3.91-6.8-6.35-14.93.53-10C901.76,376.14,899.18,377.81,896.26,379.26Z" transform="translate(-103.94 22.02)"/><path class="b" d="M877,360.17c-8.11-8.92-3.72-10-9.19-17.28C874.05,345.06,880.79,359.57,877,360.17Z" transform="translate(-103.94 22.02)"/><path class="b" d="M848.9,313.28c-1.18.5-2.66-.3-4.39-1.88s-3.66-4-6-6.55c-4.54-5.16-9.91-11.48-15.46-15,2-1,6.23,2.61,11.13,7.58,2.45,2.49,5,5.3,7.61,8S846.7,311.05,848.9,313.28Z" transform="translate(-103.94 22.02)"/><path class="b" d="M806.51,273.73c-3.1-1.48-5.76-2.13-8.85-3.59a33,33,0,0,1-5.06-3c-.94-.67-1.92-1.45-3-2.33s-2.25-1.84-3.5-3C791.23,262.27,797.84,266.24,806.51,273.73Z" transform="translate(-103.94 22.02)"/><path class="b" d="M412.35,32.38c-2.32.16-4.54.23-6.64.39s-4.1.31-6,.41-3.7.22-5.4.27l-4.79.1c-6,.07-10.33-.38-13.15-1.73,5.38-.11,13.64-1.53,21-1.81a57.69,57.69,0,0,1,9.74.16C409.78,30.56,411.69,31.25,412.35,32.38Z" transform="translate(-103.94 22.02)"/><path class="b" d="M793.69,569.85c-1,3.53-2.92,6.67-3.94,9.52-.06.19-.1.37-.14.55a2.44,2.44,0,0,1-.21.53,4.67,4.67,0,0,0-.26,1.09l0,.27-.11.39q-.1.39-.18.78c-.11.56-.13,1.1-.19,1.71a15.35,15.35,0,0,0-.26,1.94c0,.67,0,1.33-.11,2.1a19.27,19.27,0,0,0-.07,2.29c0,.4.06.77,0,1.2s0,.86,0,1.29q-.72,1.18-1.41,2.4l-1.69,2.58-.83,1.31c-.28.44-.65.92-1,1.37l-1.93,2.8c-2.86,3.87-5.84,7.93-9.52,12.34l-1.33,1.63c-.44.55-.95,1.12-1.42,1.68l-2.87,3.4c-1,1.16-2,2.33-3.07,3.49l-1.53,1.76-1.64,1.8-3.27,3.64-3.61,3.86-3.57,3.89c-1.19,1.3-2.34,2.62-3.61,3.88q-3.72,3.84-7.36,7.73c-1.18,1.31-2.47,2.58-3.73,3.85l-3.76,3.85c-1.23,1.3-2.47,2.59-3.7,3.88s-2.55,2.55-3.81,3.84c-2.55,2.55-5,5.15-7.49,7.73-5.17,5.1-10,10.34-15,15.48l-3.65,3.91-1.8,2c-.62.65-1.23,1.3-1.85,1.94q-3.67,3.9-7.16,7.87c-2.18,1.2-4.44,2.48-6.61,3.88s-4.29,2.9-6.38,4.49-4.21,3.22-6.32,4.91-4.19,3.43-6.27,5.18-4.22,3.52-6.37,5.26-4.3,3.47-6.47,5.16-4.41,3.32-6.68,4.87-4.56,3-6.89,4.4a1629.63,1629.63,0,0,0-138.37,90.73c-47.49,34.62-95.85,73.51-141.68,116.12-7.38,5.41-14.73,10.7-22.1,16.34-3.53,3.28-7,6.5-10.45,9.92l-5.14,5.14-1.28,1.29-.64.65c-.23.23-.36.38-.74.72l-3.9,3.66a432.92,432.92,0,0,0-30.58,31.8c-19.2,22.26-35.71,46.86-48,75.29l-1.19,2.74-1.09,2.8-2.13,5.62c-.74,1.87-1.31,3.82-2,5.73s-1.28,3.84-1.88,5.78-1.09,3.91-1.64,5.88-1.12,3.93-1.49,6l-1.26,6-.31,1.52-.08.37,0,.1c-.14,0-.05,0-.08.08l0,.19-.13.76-.53,3a209.92,209.92,0,0,0-2.66,24.79,229.86,229.86,0,0,0,.33,25.29,308,308,0,0,0,8.15,51.22c2,8.57,4.32,17.14,6.7,25.71l1.82,6.42.93,3.21.94,3.13,1.56,5.2,1.64,5.16.82,2.59.9,2.68,1.83,5.36c1.34,3.7,2.61,7.31,4.14,11.15l1.12,2.84q.54,1.41,1.17,2.88l2.48,5.84c.83,1.94,1.8,4,2.71,6s1.84,4,2.9,6l3.1,6.09,3.42,6.2c.59,1,1.14,2,1.77,3.09l1.89,3.14c1.3,2.09,2.51,4.14,3.91,6.24s2.8,4.18,4.23,6.25l1.07,1.55,1.15,1.57,2.32,3.11c3,4.13,6.49,8.22,9.9,12.25,1.73,2,3.53,3.9,5.32,5.82s3.59,3.84,5.5,5.66,3.77,3.66,5.68,5.46,3.92,3.48,5.9,5.19l3,2.55c1,.83,2,1.62,3,2.43,2,1.61,4.09,3.19,6.15,4.76s4.17,3,6.27,4.44l3.16,2.17,3.19,2c2.13,1.34,4.26,2.69,6.4,4s4.29,2.45,6.45,3.65c1.07.59,2.15,1.21,3.23,1.77l3.22,1.65c2.15,1.08,4.31,2.18,6.47,3.2,4.26,1.94,8.61,4,12.83,5.6,2.12.84,4.26,1.7,6.38,2.5l6.29,2.23c0,1.07-.54,2.08.53,3.25s3.72,2.43,10.05,3.88a344.78,344.78,0,0,0,46.79,11.1,423.55,423.55,0,0,0,43.08,4.87c13.82.88,27.15,1.14,40.07.94s25.52-.81,37.8-1.78l9-.77,8.31-.78,16.69-1.69c5.57-.62,11.09-1.39,16.66-2.13l8.36-1.16c2.79-.39,5.6-.78,8.36-1.27q8.31-1.38,16.7-2.9l8.39-1.56,8.33-1.76q8.36-1.8,16.77-3.77c5.6-1.32,11.13-2.82,16.74-4.32,5.44-1.49,10.79-3.15,15.94-5s10.27-3.74,15.39-5.5c2.56-.89,5.12-1.74,7.7-2.54s5.11-1.59,7.7-2.28a104.69,104.69,0,0,1,16-3c20.83-10.94,47.55-22,72.28-33.43,24.62-6.77,55.62-18,84.45-30.67s55.59-26.58,72.79-38.59c27.74-6.8,48.94-21,75.21-31.37,22.79-9,46.57-18.15,71-27.11l3-1.08c.53-.2,1-.43,1.57-.64l3.2-1.21,6.52-2.42c4.39-1.57,8.86-3.17,13.41-4.68,9.09-3,18.44-6,27.92-8.56,4.74-1.28,9.5-2.56,14.28-3.69,2.39-.59,4.78-1.16,7.18-1.68l3.6-.8,1.79-.4.11,0h.06s0,0,0,0v.22l0,.44,0,.89c-1,24.13-2.65,46.92-4.26,68.1a14.66,14.66,0,0,1,2.29,8.36c0,1.42,0,2.88.09,4.45,0,.79.1,1.6.2,2.46a19.23,19.23,0,0,1,.3,3.84,347.65,347.65,0,0,0-7.8,38.84c-1.19,7.31-2.29,14.94-3.29,22.74s-1.88,15.78-2.84,23.75c-1.84,15.95-3.23,32-4.58,46.85-.63,7.43-1.17,14.58-1.6,21.29s-.92,13-1.2,18.63a129.37,129.37,0,0,0-6.94,21.3c-2.06,8-4,16.86-5.79,26.11l-2.78,14.13c-1,4.77-2,9.58-3.11,14.4-2.17,9.63-4.44,19.29-7.31,28.49-2.26,7.21-4.78,14.16-7.27,20.9s-4.92,13.27-7.17,19.59c-4.46,12.65-7.5,24.64-7.07,36.31-3.26,11.11-6.27,22.4-9.16,33.89l-26.72,106.11,107.3,22.61c36.28,7.65,74.14,10.61,112.71,10.18s78-4.2,118.59-10.39c9.91-1.44,20.18-3.21,30.81-5.41s21.58-4.86,32.88-8.26a287.81,287.81,0,0,0,34.83-12.91c3-1.27,5.94-2.73,8.93-4.2l4.48-2.23,4.5-2.42c3-1.65,6.13-3.36,9.19-5.27l4.6-2.82c1.53-1,3-1.93,4.54-2.94l6.63-5.32c2.18-1.79,4.3-3.65,6.42-5.48l3.17-2.76L1607,1791l6.07-5.69q4.35-4.37,8.63-8.78c2.8-3,5.52-6,8.24-9.08s5.26-6.23,7.85-9.37c1.31-1.57,2.55-3.18,3.78-4.8l3.6-4.75a330.57,330.57,0,0,0,23.77-37,363.36,363.36,0,0,0,29.48-70.12c-1.2-1.14-3.68-.57-2.22-5.25a111.82,111.82,0,0,0,4.31-11.45c1.3-4.08,2.61-8.41,3.74-12.94s2.22-9.27,3.31-14.13,2-9.85,3-14.89c4-20.21,8-41.35,14.55-59.7.36-3.91.59-7.79.85-11.66s.51-7.71.65-11.55.26-7.68.4-11.53c.06-1.92.11-3.84.17-5.77l.09-5.79c.07-3.86.13-7.74.19-11.67s.06-7.84.09-11.84c.13-8,.1-16.11.27-24.51.17-16.8.71-34.65,1.64-54.37s2.47-41.24,4.71-65.84c-5.5-19.69-6.56-50.3-8-82.79-.14-4.06-.4-8.15-.6-12.25l-.63-12.31c-.48-8.2-1.08-16.36-1.67-24.33s-1.51-15.76-2.39-23.2-2.09-14.53-3.3-21.11c-.67-20.49-2.65-47.51-4.61-73.34-1.8-25.84-3.88-50.47-2.1-66.44-1.12-6.66-2.21-13.2-3.32-19.8s-2.52-13.21-3.93-20.05c-.68-3.43-1.52-6.89-2.39-10.42s-1.79-7.13-2.77-10.83c-.49-1.84-1-3.71-1.53-5.6l-1.74-5.73c-1.21-3.88-2.48-7.86-3.85-12a122,122,0,0,1-1.15-13.15,63.59,63.59,0,0,0-2.55-14.92c-3.85-4.62-7.7-11.9-11.72-21.27-1.61-7.24-3.52-15-5.85-23.07q-1.85-6-3.91-12.35c-1.39-4.2-2.78-8.5-4.45-12.79-3.27-8.62-6.66-17.54-10.71-26.45-2-4.47-4-9-6.11-13.49s-4.44-9-6.72-13.5a520.44,520.44,0,0,0-65.52-98.64,17.63,17.63,0,0,0-3-7.6,98.92,98.92,0,0,0-6.18-8c-4.5-5.41-9-11-10-16.12a736,736,0,0,0-65.29-64.35c-23-20.19-46.95-39.21-70.93-57.57-48-36.73-96.16-70.8-139.43-108a80.22,80.22,0,0,0-3.23-8.76q-.94-2.2-2-4.39c-.34-.72-.7-1.45-1-2.18s-.65-1.39-1-2.09c-2.66-5.58-4.8-10.61-5.76-15-.19-1.08-.46-2.18-.53-3.19s-.08-2-.08-3a18.75,18.75,0,0,1,2.37-7.76c.5-.77,1-1.54,1.58-2.31a22.42,22.42,0,0,1,1.81-2.32l.06-.07h0l-.23.28-.45.53-.85,1-1.49,1.72q-2,2.28-4.2,4.7l-1.13,1.21c-.38.41-.79.84-1,1.15l-1.84,2.05c-1.25,1.37-2.57,2.76-3.93,4.16l-2.09,2.1c-.4.37-.61.62-.9.92l-.84.87q-1.7,1.74-3.51,3.45l-1.83,1.69-.45.41-.36.35-.72.69c-1,.91-2,1.81-3,2.68l-1.53,1.28-.38.32-.29.26-.58.5c-.77.67-1.56,1.32-2.34,1.94l-1.19.91-.59.44-.42.34c-1.13.9-2.26,1.71-3.33,2.41-.31.2-.42.3-.61.43l-.51.36-1,.63-3.73,2.25c.08-.05,0,0-.24.15l-.19.1-.09.05h0c-.19.09,3-1.51,10.1-1.88a65.37,65.37,0,0,1,12.49.6,81.13,81.13,0,0,1,13.59,3.13,70.17,70.17,0,0,1,10.06,4.1,30.5,30.5,0,0,1,3.88,2.24c.25.18-.5-.34-1.73-1.49a54.57,54.57,0,0,1-4.76-5c-.89-1-1.79-2.17-2.74-3.41l-.68-.94,0-.06,0,0v0h0l24,33,.09.13.19.24.37.49.35.49.09.11-.09-.12-.16-.24-.65-1c-.43-.67-.86-1.35-1.27-2a23.5,23.5,0,0,1-1.17-2.11c-.86-1.73-1.58-3.2-2.12-4.29a56.8,56.8,0,0,0-4.85-8.45,25.48,25.48,0,0,0-3.33-3.79c-.32-.3-.67-.6-1-.88s-.63-.55-1-.82a22.36,22.36,0,0,0-2.2-1.53c-1.84-2.8-3.83-5.58-6-8.28-1.07-1.36-2.18-2.69-3.31-4-.55-.66-1.18-1.29-1.69-2l-1.56-2c-2.11-2.66-4.29-5.23-6.44-7.71s-4.25-4.8-6.12-7.15a36.3,36.3,0,0,1-4.6-7.13,18.29,18.29,0,0,1-.74-1.85c-.11-.32-.2-.63-.29-.95a2.77,2.77,0,0,1-.17-1,16.14,16.14,0,0,1,.46-4.38,23,23,0,0,1,.73-2.39,21.42,21.42,0,0,1,1.25-2.41c.49-.82,1-1.67,1.67-2.54a22,22,0,0,1,2.27-2.58c.86-.87,1.75-1.8,2.81-2.69s2.28-1.75,3.54-2.67a43.8,43.8,0,0,1,4.27-2.69L1260,329c.84-.44,1.76-.86,2.67-1.3.68-1.82,1.43-3.6,2.21-5.35s1.68-3.38,2.51-5,1.63-3.28,2.37-4.89a48.19,48.19,0,0,0,2-4.73c2.25-6.3,2.6-12.69-2.69-19.88-10.62-1.07-19.26-3.18-29.49-4.18-1.27-.11-2.57-.21-3.91-.29s-2.71-.16-4.08-.12c-2.76.05-5.72.14-8.83.49-1.54.21-3.14.46-4.79.76l-2.52.48c-.86.17-1.73.36-2.59.61q-2.61.72-5.4,1.62c-.93.3-1.9.6-2.85,1l-2.88,1.2c4.45-6-1.39-3-3.58-5.35-1.76,1.05-3.61,2.2-5.5,3.43s-3.84,2.73-5.68,4.26c-3.77,2.94-7.29,6.21-10.5,9.12-6.33,5.88-11.26,10.62-14.13,9.54,3.49-4.16,6.64-7.81,9.6-11.06,1.45-1.65,2.87-3.17,4.21-4.65s2.65-2.85,3.86-4.21L1193,276.5l2.84-3.09,2.94-2.93c1-1,2-2,3-3,.53-.49,1.06-1,1.6-1.48s1.12-.94,1.7-1.41c1.15-.95,2.35-1.9,3.62-2.87s2.6-2,4-2.87,3-1.85,4.59-2.78a58.69,58.69,0,0,1,5.19-2.76,99.11,99.11,0,0,0,8.89-8.78,49.8,49.8,0,0,0,5.66-7.78,47.6,47.6,0,0,0,5.24-13.89c1.07-4.4,1.89-8.62,4-12.89s5.57-8.43,11.86-12.62c5.61-.43,8.89-.42,12.24-.81a41.48,41.48,0,0,0,5.35-.92c2-.47,4.36-1.17,7.23-2,2.62-4.85.06-7.25-.77-9.56-.41-1.16-.37-2.3,1-3.72s4.14-3.15,8.94-5.3c-8-4-18.41-1.56-34.34,1.29-3.94-2.71-10.05-4.13-17.58-4.76-3.86-.2-8.1-.18-12.64,0-2.32.18-4.73.41-7.2.69l-3.75.46c-1.27.15-2.55.33-3.89.58-2.66.47-5.38,1-8.14,1.54-1.39.29-2.76.53-4.19.89l-4.34,1.09c-2.91.76-5.85,1.53-8.84,2.39s-6.08,1.94-9.15,3c-1.54.52-3.07,1-4.62,1.58l-4.69,1.8c-3.13,1.23-6.26,2.45-9.39,3.77s-6.29,2.84-9.42,4.29c-1.56.73-3.12,1.43-4.67,2.2l-4.63,2.4-6.29,4.29-1.55,1.07-.79.55-.89.66-3.51,2.62c-2.36,1.74-4.59,3.53-6.79,5.32l-3.3,2.7-3.17,2.74a259.55,259.55,0,0,0-23,22.68,264,264,0,0,0-19,24.12,243.72,243.72,0,0,0-15.76,25.68,241.14,241.14,0,0,0-12.61,27.59,233.15,233.15,0,0,0-9.12,29.92,214.25,214.25,0,0,0-4.87,32.53,199.37,199.37,0,0,0,.54,34.89c.33,3,.62,5.94,1.12,9s1,6,1.54,9c1.27,6.05,2.65,12.06,4.5,18.06s3.93,11.93,6.24,17.78q1.83,4.36,3.81,8.67c1.29,2.89,2.77,5.66,4.21,8.47l2.24,4.17c.75,1.37,1.51,2.63,2.28,3.95,1.54,2.58,3.12,5.24,4.73,7.69s3.26,4.87,5,7.28,3.34,4.55,5.07,6.81A225.74,225.74,0,0,0,1092,539.7c6.79,6.62,13.39,12.31,19.61,17.3s11.91,9.08,17.21,12.76,10,6.72,14.18,9.33l5.89,3.68c1.94,1.18,3.89,2.36,5.87,3.53-2.57,7.87,20.21,21.82,33.55,27.06,3.12,6-3.89,9.71,4,16.94,9.33,2.22.74-6.08,2.54-9.27,11.5,4.47,34.91,19.1,39.7,27.29,10.52,3.85,23.24,12.63,36.2,22,3.25,2.34,6.4,4.78,9.63,7.15l4.84,3.52,2.42,1.72,2.34,1.73a198.09,198.09,0,0,0,18.35,11.93,57.13,57.13,0,0,0,3.65,8.29c.76,1.44,1.64,2.89,2.53,4.4s1.87,3.07,2.93,4.65a123.08,123.08,0,0,0,7.45,9.88c2.74,3.49,5.85,7.12,9.39,10.92a9.16,9.16,0,0,1,6.33-1.75,53.84,53.84,0,0,1,7.27,1.18q4.13,3.48,7.89,6.91c1.28,1.14,2.44,2.31,3.59,3.48s2.27,2.32,3.37,3.48q3.3,3.46,6.32,6.89c2,2.3,3.78,4.64,5.57,6.93s3.49,4.58,5.15,6.84,3.11,4.62,4.62,6.9l4.39,6.83c.74,1.12,1.43,2.28,2.09,3.44l2,3.48c2.68,4.64,5.49,9.14,8.1,13.91,1.34,2.36,2.72,4.71,4.15,7.07.71,1.18,1.44,2.36,2.16,3.55l2.15,3.65c1.47,2.44,3,4.89,4.61,7.35.8,1.24,1.66,2.46,2.47,3.73s1.64,2.55,2.5,3.84q2.57,3.86,5.47,7.8.72,1,1.47,2l1.45,2q1.47,2.05,3,4.14c.49,1.87,1.09,3.82,1.78,5.85s1.48,4.12,2.28,6.33c1.61,4.41,3.61,9.05,5.77,13.92s4.39,10.07,6.84,15.35c2.3,5.36,4.81,10.82,7.3,16.38,2.41,15.55,5.91,32.45,9.93,50.39s8.39,37,13,56.52c9.42,39,19,80.54,28.84,119.1a51.5,51.5,0,0,0-4.57,19,99.23,99.23,0,0,0-.28,10.55c.07,3.59.36,7.25.57,11,.47,7.44,1.38,15,1.77,22.51.23,3.74.42,7.44.47,11.07s-.14,7.2-.45,10.64c-2,21.86-6.39,43.53-9.9,65.2-.92,5.42-1.74,10.85-2.42,16.28s-1.4,10.9-1.83,16.38-.83,11.08-.89,16.68,0,11.2.31,16.86c-.54,5.14,3.36,2.12,3.15,6.66-2.42,16.27-4.24,35.07-6.6,54.21s-5.23,38.61-9.31,56.19c-1.52,6.23-3.22,12.39-5.26,18.35-1,3-2,6-3,8.94l-3.21,8.81c-1,2.95-2.13,5.85-3.19,8.77s-2,5.86-3,8.81-1.95,5.87-2.81,8.86c-.43,1.5-.82,3-1.22,4.52s-.81,3-1.17,4.53c-.41,1.78-.82,3.53-1.21,5.25s-.74,3.39-1.09,5-.67,3.19-1,4.71-.56,2.93-.81,4.38-.48,2.73-.68,4.09-.37,2.6-.54,3.87-.29,2.46-.4,3.66-.2,2.27-.26,3.39c0,.57,0,1.12-.07,1.68s0,1-.05,1.56c0,1,0,2.09,0,3.12s.08,1.93.16,2.9.19,2,.31,2.83a46.82,46.82,0,0,0,1,5.37c.22.87.46,1.75.73,2.64s.55,1.67.86,2.53a16.07,16.07,0,0,0-2,4.4,15.25,15.25,0,0,0-.54,2.19l-.18,1.08-.07.53a3.68,3.68,0,0,0,0,.47,36.17,36.17,0,0,1-.51,8l-.43,1.41c-.08.23-.15.47-.24.7l-.32.62a11.77,11.77,0,0,1-.7,1.2,11.91,11.91,0,0,1-.89,1,3.62,3.62,0,0,1-1.06.76,6,6,0,0,1-1.21.53,14.63,14.63,0,0,1-1.58.28,8.37,8.37,0,0,1-.9.08l-1,0c-.51,1.16-.12,2.56-.22,3.86a3.84,3.84,0,0,1-.53,1.9,3.72,3.72,0,0,1-.74.89,6.32,6.32,0,0,1-1.34.77,4.57,4.57,0,0,1-1.8.77,3.3,3.3,0,0,1-1.46-.12,8.39,8.39,0,0,0-2.56-.72c2.08,4.33,3.37,2.46,3.14,7.06a89.17,89.17,0,0,0,9.31-7.51,13.79,13.79,0,0,0,2.6-3.3c.27-.6.52-1.22.76-1.88a17.83,17.83,0,0,0,.55-2.26,12.65,12.65,0,0,1,2-.37,2.79,2.79,0,0,0,2-1.39c0-.15.09-.3.13-.46.15-.9.3-1.76.47-2.59s.19-1.77.31-2.6.09-1.77.17-2.59c0-.45,0-.88,0-1.32s.13-1,.2-1.5c.53-4.22,1.29-9.26,2.32-15.39s2.32-13.35,3.94-21.79q.64-3.27,1.29-6.62l1.43-7.09,1.57-7.61c.55-2.61,1.12-5.22,1.71-7.85,4.52-20.52,10.74-41.06,15.47-60.6s8-37.92,6.65-53.34c1.74-6.89,5.78-3.17,8-8.09-.81-8.37.69-15.89,2.66-23.77.93-4,2-8,2.85-12.29a91.7,91.7,0,0,0,1.7-13.78c.48-13.9-4.46-26.12-3.59-41.84.24-4,.56-7.79.86-11.41s.74-7.13,1.19-10.56.92-6.78,1.37-10.12,1-6.66,1.5-10c1-6.73,1.89-13.62,2.66-21.13.33-3.75.62-7.65.85-11.76.1-2.06.22-4.17.28-6.33s.06-4.39,0-6.68a29,29,0,0,0,2.6-6.55,51.64,51.64,0,0,0,1.55-7.9c.7-5.57,1-11.61,1.21-17.23a118.64,118.64,0,0,1,1-14.84c.66-4,1.68-6.74,3.78-7.42a10.4,10.4,0,0,1,1.49,6.56,69.73,69.73,0,0,1-1.12,8.46,53.33,53.33,0,0,0-.93,8.84,14.43,14.43,0,0,0,1.78,7.81c.57-3.17,1.1-6.58,1.74-9.49s1.51-5.34,2.93-6.56a164.17,164.17,0,0,0,8.38,21.29l9.16,18.58a126.59,126.59,0,0,1,13.12,47.86c-2.71,35.48-2.42,61.63-.22,83.27-8.42,45.47-18.6,97.38-32.84,148.85-.84,3.23-1.78,6.43-2.71,9.64l-2.76,9.64q-1.45,4.8-2.9,9.59l-1.44,4.8-1.53,4.77-3,9.53c-1,3.06-2,6.18-3,9.11s-2,5.82-3,8.7-2,5.58-3,8.16-2,5.18-3.06,7.71l-1.55,3.62-.76,1.8-.78,1.7c-2,4.64-4.15,8.75-6.21,12.58-.51.94-1,1.88-1.54,2.82s-1,1.73-1.55,2.6-1,1.68-1.54,2.48-.87,1.52-1.4,2.21a98.42,98.42,0,0,1-6.17,8.29c-2.3,2.64-4.73,5.14-7.25,7.52-1.33,1.11-2.53,2.3-4,3.42s-3.06,2.34-4.59,3.54c-3.29,2.29-6.72,4.59-10.44,6.75s-7.58,4.29-11.66,6.26c-10.93,2-21.77,3.94-33.51,6.42s-23.87,5.2-38.6,8.17c-12-4.41-28.3-4.78-46.46-5-9.08-.16-18.58-.3-28.11-.67s-19-1.25-28-2.45l62.77,100.27c4.55-23.43,9.47-44.13,15.93-57-2.11-5.32-2.46-12.89-1.62-21.54a180.68,180.68,0,0,1,5.24-28c1.26-4.81,2.68-9.6,4.17-14.21s3-9.07,4.54-13.18a127,127,0,0,1,8.87-19.57c-1.81-2.25-2.59-5.69-2.63-9.85a66.86,66.86,0,0,1,1.62-14.22c2.11-10.31,6-21.65,9.08-30.3,1.9.28,1.12,15.92,3.8.71,1.67-7-.41-7.45-.57-11.27,4-6,7.59-14.17,12.17-16.42,3.37-13.22.56-15.88,3.76-29.12,1.91,4.07,4.37,7.17,3.9,15.55-1.69,19.75-6.39,21.73-9.68,31.86,3.26.13,5.23-6.19,4.42,4.53-4.41,1.7-4.9,7.6-5.58,14s-1.28,13.5-5.69,17.46c1.12-6.73,1.5-12.18.27-14.9-.8,7.17-1.68,15-2.52,22.66s-1.58,15.06-2.24,21.32c.74-3.84,2.49-9,2-3.33,2.6-7.73,4.88-15.47,7.18-23.15s4.48-15.34,6.59-23c4-15.28,7.82-30.44,11.2-45.55q2.48-11.34,4.75-22.62c1.51-7.53,3-15,4.31-22.56s2.6-15,3.84-22.53q.9-5.62,1.81-11.26l1.63-11.27c2.11-15,4.21-30.06,5.85-45.2q1.26-11.34,2.53-22.73l.65-6.1.87-8.76q.86-8.76,1.73-17.54,1.7-17.51,3.42-35.15,1.41-18.07,2.82-36.33.71-9.11,1.41-18.26c.45-6.08,1-12.24,1.31-18.27q1.05-18.15,2.12-36.53c2-6.15,3.69-14.65,5.15-24.18s2.54-20,3.77-30.19c.11-13.79.21-26.59.3-38.27s-.06-21.88-.58-30.48c-1-17.2-3.74-27.56-10.52-27.58-.42,8.11-.83,16-1.23,23.82s-.7,15.41-1,23.11c-.66,15.42-1.33,31-2,47.83-.4,8.46-.81,17.22-1.25,26.42-.23,4.62-.44,9.33-.74,14.22s-.65,9.94-1,15.12c-1.46,20.77-2.81,43.79-5.74,70.69-2.83,11.53-5.81,21.66-9.1,29.5a58.13,58.13,0,0,1-5.16,10,20.84,20.84,0,0,1-5.8,5.86q.39-7.44.79-14.94t1-15.16q1.14-15.19,2.74-30.61l.39-3.85.34-3.84.69-7.69q.75-7.72,1.49-15.45,1.62-15.59,3.22-31.13c2-20.69,4-41.44,5.51-61.61s2.48-39.76,2.57-57.68c0-10.37-1.68-12.75-1.25-22.84.41-9.59.89-18.53,1.35-25.84l-2.4-1.18-1.17-.59-.14-.07s-.16,0-.24,0l-.51.1-1,.21-7.85,1.53c-5.11,1-10,1.86-14.59,2.69l-13.37,2.32-12.38,2.1-23.62,3.86c-7.8,1.32-15.72,2.68-24.21,4.24-9.72,1.77-19.58,3.81-29.6,5.87s-20.18,4.36-30.43,6.7l-15.43,3.57c-5.19,1.31-10.43,2.7-15.66,4.06-10.49,2.78-20.94,5.37-31.56,8.6l-15.87,4.64c-5.29,1.55-10.56,3-15.86,4.76l-31.66,9.93q-15.75,5.21-31.4,10.25c-5.22,1.65-10.41,3.37-15.59,5.08l-7.75,2.58-5.36,1.68c-6.29,1.94-12.93,2.63-19.48,4s-13,3.5-18.71,8.41c7.8-2,15.88-4.08,23.8-6.34l11.84-3.45,5.84-1.76,3-.93,4.1-1.36c10.9-3.61,21.38-7,31.12-10.42s18.74-6.9,26.77-10c5.79-1.25,12.07-2.69,18.7-4.29l10.22-2.53,10.67-2.48c7.25-1.71,14.76-3.54,22.42-5.45l2.88-.72,2.88-.65,5.79-1.31,11.69-2.7c31.32-7.32,63-13.92,89.39-19.82,8.72-1,17.21-2.1,25.58-3.31s16.75-2.41,25-3.76l12.38-2.06,12.47-2.14,12.46-2.26c2.07-.37,4.19-.8,6.22-1.14l3.26,2.18c-1.18,16.34-2.15,32.4-3.07,48.74s-2,32.81-3,50-2.45,35.2-4,54.25c-.75,9.5-1.75,19.35-2.82,29.47s-2.23,20.55-3.51,31.27a26.83,26.83,0,0,0-4.44,8,59.92,59.92,0,0,0-2.68,10.2c-1.4,7.55-2.2,16.73-3.73,27.49-3.88,0-7,4.08-9.5,10.87-.63,1.7-1.22,3.58-1.78,5.61s-1.09,4.22-1.63,6.5c-1.07,4.58-2,9.71-2.91,15.29.24,6.2,1.79,4.29,3.26,2.27s2.85-4.09,2.7,2.21c-3.89,13.21-7.84,25.16-13.49,26.42,1.39-11.71,2.47-25.08,4.94-30.84-6.67,4.26-9.2,30.55-16.47,29.48q1.21-15.61,2-30.61.36-7.46.73-14.83.19-7.38.4-14.69.27-14.36.56-28.5c.13-9.31.06-18.43.16-27.47l.14-13.5.12-6.71.07-6.7c.12-8.93.34-17.87.72-26.92s.86-18.24,1.52-27.7,1.54-19.18,2.69-29.36c4.37-14.08,10.22-25.3,14.06-41.88-2.63-1.13-5.22,6.88-7.92,16.11s-5.51,19.78-8.65,24.57c-1.33-8.26-1.66-19.61-2-30.82l-.49-2.11-.24-1-.12-.53c0-.07-.09,0-.14,0l-.19.05-.39.11-6.08,1.76c-4,1.18-8,2.38-11.83,3.59s-7.58,2.46-11.14,3.74-6.9,2.71-10.05,4.13c-2.67-1.33,1.59-6.17-10.6-2.78-8.42,1.55-16.58,3.4-24.58,5.23-2,.46-4,.92-6,1.41l-5.85,1.52q-5.82,1.53-11.49,3.11c-3.77,1.06-7.51,2.08-11.18,3.22l-10.87,3.41c-7.16,2.3-14.14,4.56-21,7.06s-13.49,4.9-20,7.34L1173,1138.6c-6.4,2.47-12.7,5.07-19,7.59l-19,7.51c-9.69,3.84-19.24,7.36-28.65,10.94-4.78,1.79-9.22,3.43-13.8,5.1l-13.61,5-54.51,19.57c-36.6,13.21-74,27.36-114.32,45.51-5.66,1.12-1.48-6.2-11.82-1-25,8.46-54.74,20.44-82.47,29s-53.45,13.63-69.92,9.2c-20.75,8-27.6,5.17-41.87,7.84-3,1.46-5.9,2.91-9,4.36s-6.53,2.79-10.4,4.16c-2.19-.66-5.19-.54-8.72.07s-7.62,1.75-12,3-9,2.69-13.65,4.06c-2.32.68-4.64,1.37-6.93,2s-4.55,1.09-6.73,1.52a151.11,151.11,0,0,1-27.93,2.5c-4.56.1-9.14.17-13.82.4s-9.5.45-14.52,1.09c-4.37.54-8.39,1.13-12.13,1.75s-7.19,1.12-10.39,1.73-6.17,1.26-8.93,1.93-5.37,1.4-7.65,2c-9.31,2.63-16.27,5.37-23.71,7.67-9.19,2.86-20.71,5-31.35,6.94s-20.42,3.88-26.69,7.43c5.28,2.6,11.27,4.77,16.13,7.31a173.58,173.58,0,0,0,17-4.55c5.84-1.86,11.83-3.94,18-6s12.63-4.26,19.37-6.19c3.37-1,6.82-1.88,10.36-2.71,1.78-.44,3.55-.82,5.4-1.21s3.77-.78,5.69-1.12a85.38,85.38,0,0,1,13.62-1.22l12.57,0a98.59,98.59,0,0,0,12.59-.78,57,57,0,0,0,6.61-1.29,63.32,63.32,0,0,0,7-2.33c.29,1.26.58,2.52.86,3.76A672.94,672.94,0,0,1,675,1305.11c10.73-1.91,21.17-3.28,31.37-4.76l30.28-4c40.07-5.26,80.06-11.37,129.3-31.76,28-4.06,54.34-7,77.54-7.22-35.4,11.95-44.34,23.49-78.68,35.16-19.86,12.31-42.53,23.32-67.06,33.15s-50.81,18.68-77.91,26.54-54.88,15-82.39,21.53-54.73,12.57-80.72,18.92c-20.48,2-40.46,3.93-60.63,4.86s-40.6.82-61.82-2a213.44,213.44,0,0,1-32.27-6.77,167.72,167.72,0,0,1-32.52-13.46,149.14,149.14,0,0,1-30.29-21.74l-3.41-3.33c-1.13-1.13-2.29-2.23-3.36-3.43-2.15-2.36-4.38-4.73-6.34-7.22l-3-3.72-2.81-3.81c-1.92-2.55-3.58-5.16-5.3-7.78-.35-4-2-9.34-4.24-15.57s-4.83-13.3-7.37-20.71-5-15.08-7-22.5c-.56-2-1.14-4.07-1.67-6.12s-1.07-4.09-1.56-6.11c-1-4-1.86-8-2.6-11.7-1.54-4.22-3.23-4.26-4.89-5.25s-3.34-3-4.5-11.14c-3.4-16.39-3.31-29.15-1.48-39.3a69,69,0,0,1,9.29-24.41l1.55-2.44c.51-.81,1-1.59,1.61-2.37l3.33-4.58.82-1.14.91-1.12c.59-.74,1.2-1.48,1.8-2.24,1.21-1.5,2.35-3,3.69-4.56l17.26-21.18a56.2,56.2,0,0,0,3.86-5.39c1.37-2.06,2.89-4.27,4.39-6.6s3.22-4.62,5-6.82a72.63,72.63,0,0,1,5.31-6.14c5.11-5.3,13.54-12.23,21.92-18.42,4.19-3.11,8.32-6.09,12-8.73,1.84-1.33,3.52-2.55,5.05-3.7s2.69-2.08,3.73-3c15.06-12.8,28.84-26.28,43.45-39.47s29.93-26.3,47.94-38C524,952,583.7,917.56,639.34,882.1c24.75-11.42,52.75-30.85,80.8-52.83l10.54-8.34,10.48-8.55,5.27-4.28,5.19-4.36c3.45-2.91,7-5.73,10.42-8.66,13.83-11.55,27.31-23.15,40.74-33.8q2.9-4.12,6.19-8.35c2.18-2.83,4.57-5.6,6.86-8.57,4.64-5.89,9.81-11.8,14.86-18.1l3.89-4.69c1.31-1.57,2.66-3.12,3.92-4.76q3.87-4.84,7.81-9.77c2.69-3.25,5.13-6.62,7.71-9.95l3.71-5.07c1.24-1.69,2.47-3.39,3.63-5.12l3.53-5.16c1.14-1.73,2.23-3.48,3.34-5.22,2.27-3.45,4.23-7,6.27-10.5a165.27,165.27,0,0,0,9.94-21.13c5.36-14,7.82-27.58,6.62-38.93.62-3.88,1.94-4.2,3.25-4.78a3.56,3.56,0,0,0,1.82-1.54c.58-.89.89-2.36,1-4.84-.16-1.69-.24-3.37-.37-5.06s-.36-3.38-.49-5.06l-.18-2.51c0-.84-.2-1.68-.29-2.52-.2-1.67-.37-3.33-.53-5a134.16,134.16,0,0,0-3.59-19.15q-.3-1.14-.6-2.25l-.31-1.11-.37-1.08c-.51-1.43-1-2.84-1.52-4.23s-1.13-2.77-1.74-4.1-1.26-2.62-1.91-3.87a56.66,56.66,0,0,0-4.55-6.83,37.19,37.19,0,0,0-5.44-5.37c-.71-1.6-1.34-3.08-1.85-4.45s-.9-2.65-1.31-3.84a31.91,31.91,0,0,1-1.39-6.33,287.91,287.91,0,0,0-19.14-25.87l-5.35-6.38-5.55-6.38c-1.91-2.12-3.76-4.26-5.73-6.37l-6-6.35-11.95-12.77c-1-1.09-2.05-2.1-3.1-3.14l-3.14-3.1-6.29-6.25-6.28-6.29c-1-1-2-2.13-3.16-3.14L791.68,423q-6.58-6.12-13.12-12.39l-3.27-3.14c-1.11-1-2.28-2-3.41-3.05L765,398.25,758.23,392c-2.27-2.09-4.51-4.22-6.92-6.21q-7.11-6.07-14.18-12.39l-3.53-3.18c-1.16-1.08-2.44-2.05-3.65-3.08L722.59,361l-7.34-6.35-3.67-3.23-3.81-3.11q-7.63-6.25-15.26-12.83c-2.5-2.25-5.21-4.28-7.83-6.44s-5.28-4.31-7.93-6.51-5.28-4.44-7.93-6.71l-8.23-6.54c-5.42-7.89-10.59-16-16.24-23.54L636,274.11c-1.41-1.92-2.79-3.91-4.25-5.8l-4.45-5.62q-4.49-5.64-9.12-11.34l-4.71-5.73c-1.6-1.88-3.28-3.67-5-5.53q-5-5.52-10.35-11.12l-5.4-5.63c-1.84-1.87-3.78-3.6-5.71-5.42L578.52,207l-4.31-5.52c-1.45-1.83-2.9-3.73-4.45-5.46-6.12-7.08-12.64-14.24-20.11-21.52-3.77-3.53-7.85-6.93-12.21-10.44-2.18-1.75-4.43-3.5-6.78-5.26s-4.86-3.58-7.54-5.36c-5.41-3.38-11.31-6.8-17.77-10.26q-4.85-2.6-10.11-5.23c-3.52-1.72-7.23-3.29-11.08-4.87-16.94-2.75-32.5-2.86-46.27.21s-25.68,9.14-34.48,18.12a91.4,91.4,0,0,0-19.28,28.92,139.5,139.5,0,0,0-8.5,27.84,48.3,48.3,0,0,0-5.38,12.2,40.57,40.57,0,0,0-1.53,10.25,47.85,47.85,0,0,0,2.12,14.14c-.88,2.46-1.69,4.9-2.47,7.29s-1.49,4.74-2.22,7.08l-1.08,3.44-1,3.51-.27.89L363.4,268l-.72,2.16c-.47,1.44-.95,2.88-1.43,4.31-.95,2.85-1.78,5.72-2.67,8.55s-1.81,5.64-2.61,8.47-1.63,5.63-2.44,8.44l-1.23,4.19-1.13,4.22c-.76,2.79-1.53,5.6-2.29,8.4s-1.42,5.64-2.14,8.46-1.5,5.64-2.13,8.49l-2,8.6c-.33,1.44-.71,2.87-1,4.32s-.61,2.91-.92,4.38l-1.9,8.83q-.85,4.45-1.72,9l-.9,4.57c-.26,1.53-.52,3.08-.78,4.63q-.78,4.67-1.67,9.18c-.49,3-1,6-1.55,8.93l-.84,4.37-.75,4.32q-.75,4.29-1.59,8.48c-.55,2.79-1,5.56-1.5,8.3-.27,1.37-.53,2.73-.79,4.08s-.56,2.71-.77,4c-.46,2.69-.95,5.35-1.46,8l-.78,4c-.23,1.31-.45,2.62-.66,3.92-3.77,20.92-7.13,40.61-8.78,60.89a294.93,294.93,0,0,0-.95,30.7c0,2.62.23,5.18.37,7.79s.36,5.23.54,7.86.62,5.24,1,7.89.68,5.32,1.15,8A178.3,178.3,0,0,0,340.55,633c.22,1.12.38,2.1.52,3.06s.23,1.9.39,2.89a22,22,0,0,0,2.47,7.1,6.5,6.5,0,0,1,3.58,1.8,20.81,20.81,0,0,1,3.5,4.1c1.15,1.67,2.28,3.61,3.43,5.67.55,1.06,1.21,2.06,1.84,3.1l1.93,3.13c1.3,2.08,2.62,4.16,4,6.06a31.71,31.71,0,0,0,4.43,4.84c3,2.67,6.15,4.07,9.36,3a66.67,66.67,0,0,0-2.25-7.29c-.47-1.29-1-2.61-1.56-3.95s-1.19-2.7-1.74-4.19c-1.16-2.91-2.48-5.92-3.93-9L365.4,651l-1-2.42c-.71-1.61-1.45-3.24-2.22-4.86-6.08-13.08-12.87-27.23-19.32-40.08a22.53,22.53,0,0,0,.46-4.53,25.36,25.36,0,0,0-.5-4.69,41,41,0,0,0-1.32-4.86c-.57-1.63-1.06-3.39-1.7-5.13s-1.31-3.53-2-5.34l-1.07-2.74c-.35-.92-.63-1.88-.94-2.83-.62-1.91-1.21-3.84-1.75-5.79-.27-1-.53-2-.76-2.94a24.92,24.92,0,0,1-.59-3c-.37-2.53-.63-5-.81-7.53a61,61,0,0,1-.2-7.4c.07-2.47.2-4.89.36-7.28.08-1.2.17-2.38.25-3.56s.29-2.37.43-3.53q.45-3.5.9-6.91l.41-3.36c.13-1.11.34-2.23.49-3.33q.5-3.31.81-6.51c.22-2.13.29-4.22.46-6.31.32-4.8-2.6-9.81-2.46-11.65a112.54,112.54,0,0,1,3.44-19.26c.37-1.63.74-3.28,1.07-5l.25-1.28.29-1.32q.29-1.32.54-2.7c.34-1.83.64-3.72.88-5.71q.17-1.49.3-3c.11-1,.24-2.1.33-3.19.73-9.72,1.59-17.78,2.26-25,.41-3.6.75-7,1-10.23s.73-6.39,1-9.5l.42-4.67c.19-1.56.37-3.12.56-4.7.38-3.17.68-6.41,1.11-9.83s1-7,1.52-10.88,1.38-8,2.17-12.5c3.47-18.26,8.24-36.58,13.46-54.23,2.63-8.82,5.31-17.48,8-25.9,1.27-4.23,2.72-8.35,4-12.44.52-1.74.86-3.19,1.23-4.61s.74-2.87,1.11-4.29c2.79-11.47,5.52-22.72,7.82-33.56s4.16-21.25,4.26-31.18a79.45,79.45,0,0,0,11-13.21c3-4.45,5.46-9,8.09-13.56a74.88,74.88,0,0,1,9-13,33.13,33.13,0,0,1,13.81-9.4c8.44-.8,14.34-.73,19-.77h3.24l2.88,0c1.83,0,3.49.07,5.16.15a64.31,64.31,0,0,1,11.26,1.53,136.41,136.41,0,0,1,18.53,5.81c7.57,6.48,14.24,12.79,20.14,18.91,1.48,1.52,2.9,3,4.26,4.65l4.16,4.8q4.43,4.91,8.66,9.78l4.21,4.85c1.38,1.62,2.78,3.2,4.1,4.92q4,5,8,10.08c2.6,3.32,5.21,6.64,7.85,10s5.16,6.76,7.71,10.21,5.14,6.88,7.75,10.3c1.3,1.7,2.62,3.4,3.94,5.13s2.68,3.38,4,5.19c5.22,7.13,10.65,14.22,16.42,21.29,5.6,7.34,11.47,14.79,17.85,22.18.81.9,1.57,1.89,2.35,2.86l2.37,2.92q2.39,2.93,4.87,5.85t5.07,5.85l2.61,2.93c.88,1,1.78,1.94,2.63,3,4.11,2.72,8.17,5.43,12,8.15,1.93,1.35,3.82,2.71,5.65,4.07l2.68,2c.89.67,1.69,1.43,2.5,2.14,6.47,5.74,11.65,11.42,14.42,17-5.1-2.48-10.31-5.29-15.63-8.39l-4-2.38-2-1.23-2.1-1.16q-4.2-2.36-8.49-4.91c-11.27-7-23.58-14.14-36.18-22-25.46-15.31-53.75-31.16-83.4-44.71-7.32-3.63-14.93-6.55-22.44-9.68l-4.61-1.91c-1.35-.58-1.92-.84-2.8-1.15l-4.93-1.78-4.91-1.7c-1.64-.51-3.28-1-4.92-1.4a49.53,49.53,0,0,0-9.78-1.57,28.74,28.74,0,0,0-9.31.94,22.79,22.79,0,0,0-8,4.14,26.06,26.06,0,0,0-8.73,14.66c3.24,1.31,5,.55,6.56-.9s3-3.57,5-4.49a23.64,23.64,0,0,1,8.89-2.19,34.64,34.64,0,0,1,9.37.92,80,80,0,0,1,9.24,2.76l4.57,1.7,2.29.85,1.16.43,1.4.59,1.9.79,3.25,1.32,6.65,2.68,6.69,2.67c2.23.92,4.41,2,6.62,3,8.83,4.05,17.89,7.81,26.7,12.42L550,301l13.33,7.23,6.73,3.61c1.13.61,2.27,1.18,3.38,1.81l3.31,2,13.37,7.84c21.08,12.8,42.86,23.66,64,37.18l8,5c2.65,1.74,5.22,3.6,7.84,5.42l7.86,5.6,3.93,2.87c1.31,1,2.65,1.91,3.88,3q7.56,6.22,15.1,12.95c1.24,1.13,2.52,2.25,3.74,3.43l3.56,3.65q3.55,3.71,7.08,7.56l4,4.48,2,2.22,1,1.1.9,1.15c2.4,3.05,4.72,6.07,7,9.06l6.76,8.93c1.15,1.46,2.18,3,3.23,4.56l3.17,4.62c8.66,12.22,17.25,25.06,28.16,39.79-.94,2.24,4.43,8.44-.84,7.91,1.63,2.1,3.16,4.23,4.61,6.39.72,1.08,1.42,2.17,2.11,3.26l1,1.64c.32.54.6,1.08.9,1.62A98.93,98.93,0,0,1,785,519.75a118.77,118.77,0,0,1,5.9,23.36c1.09,7,1.57,12.87,2.53,17.39a14.28,14.28,0,0,0,.83,3.16,17.2,17.2,0,0,0,1.81,3.86,5.78,5.78,0,0,0,.82.67A12.22,12.22,0,0,0,799,570C796.19,569.79,796.1,567.88,793.69,569.85Zm422.76-248.34c-2.83,1.75-3.74-.38-1.54-2.07-1.25-1-4.68,2.16-7.22,4.3-.31-.62,0-1.43.57-2.34a25.88,25.88,0,0,1,2.47-2.81,29,29,0,0,0,2.59-2.72c.73-.86,1.2-1.65,1-2.31-.67.12-1.37.26-2.08.43s-1.33.38-2,.6-1.4.45-2.1.73-1.42.6-2.14.93c-1.48.63-2.9,1.46-4.41,2.28s-3,1.8-4.43,2.81a20.11,20.11,0,0,1,8.07-8.43,14.28,14.28,0,0,1,4.35-1.55,11.56,11.56,0,0,1,4-.05c2.36.41,4,1.65,4.63,3.45a5.4,5.4,0,0,1,0,3.07,8.84,8.84,0,0,1-.66,1.78c-.16.31-.33.62-.53.94S1216.66,321.19,1216.45,321.51Zm6,167.23c-1,3-4.37,3.72-9,3s-10.44-2.92-16.69-5.83a130.64,130.64,0,0,1-18.54-10.65,81,81,0,0,1-12.52-10.33,51,51,0,0,1-3.5-4.13c-.58-.76-1.16-1.54-1.73-2.32s-1.1-1.66-1.62-2.49a46.65,46.65,0,0,1-2.81-5,31.82,31.82,0,0,1-1.91-4.7c-.95-2.85-1.06-5.16-.28-6.07a1.73,1.73,0,0,1,1.93-.36,15,15,0,0,1,3.59,1.9c3.33,2.31,7.36,6.29,12.16,10.85s10.38,9.64,16.31,14.43a204.46,204.46,0,0,0,18,13.13C1211.7,483.89,1217.3,487,1222.43,488.74Zm91.46,43.3c.87-3.09,3.43-3.62,6.76-3a66.91,66.91,0,0,0,5.69,6.61c2.22,2.3,4.66,4.78,7.31,7.27s5.44,5.07,8.3,7.66,5.7,5.32,8.52,8,5.58,5.35,8.16,8,4.92,5.34,7,7.91c4.16,5.16,7.25,9.93,8.18,14.24-3-3-5.91-5.64-8.48-8.18s-4.94-4.9-7.15-7.16l-12.4-12.66c-2-2.05-4-4.17-6.24-6.28s-4.53-4.31-7.06-6.63-5.28-4.79-8.33-7.42S1317.67,535.05,1313.89,532Zm74,88.59c.54-4.31,6.89,2.87,8.72,1.07,1.54,5.11,8.83,12.83,8,16.88a45.47,45.47,0,0,1-8.69-9.21c-1-1.31-1.9-2.63-3.13-4A44.1,44.1,0,0,0,1387.89,620.63Zm29.1-15.08,10.11,12c1.72,2,3.38,4.11,5.06,6.21l5.08,6.32,5.14,6.36,5.07,6.55,5.14,6.58c1.71,2.21,3.49,4.37,5.16,6.65q5.07,6.76,10.32,13.54c1.78,2.22,3.42,4.59,5.15,6.88l5.2,6.91c1.73,2.31,3.56,4.55,5.25,6.91l5.2,7q2.63,3.5,5.31,7c1.81,2.3,3.48,4.71,5.26,7,3,4.06,6.19,8,9.35,11.88s6.25,7.82,9.43,11.63,6.29,7.64,9.37,11.42l4.61,5.66c1.53,1.87,3.07,3.73,4.49,5.64,5.77,7.6,11.45,15,16.08,22.7,2.36,3.82,4.61,7.6,6.57,11.43s3.63,7.73,5.1,11.6c-11.55-14.52-24.76-33.83-38.54-51.68l-5.18-6.62c-.87-1.08-1.73-2.17-2.58-3.24s-1.78-2.11-2.66-3.15c-3.54-4.14-7-8.12-10.47-11.85s-7-7-10.37-10.1a85.29,85.29,0,0,0-9.88-7.91c-2.38-3.68-4.78-7.48-7.21-11.35l-1.83-2.92c-.63-1-1.27-1.92-1.91-2.88l-3.87-5.8c-1.29-2-2.59-3.89-3.89-5.84s-2.6-3.9-4-5.77q-4.1-5.68-8.23-11.2c-2.7-3.7-5.58-7.16-8.43-10.51s-5.67-6.55-8.49-9.56a124.93,124.93,0,0,0-17-14.8C1422,622.17,1410.62,609.79,1417,605.55Zm-5,40.5,2.77-2.71c2.75,2.42,6.06,5.33,9.41,8.43s6.57,6.54,9.4,9.77a44.54,44.54,0,0,1,6.47,9c1.28,2.69,1.59,4.89.43,6.27-1.69-1.4-3.21-2.71-4.61-4s-2.76-2.38-4-3.52a85.26,85.26,0,0,1-6.54-6.72C1421.42,658,1417.62,653.14,1412,646.05ZM1439.84,682c2.65,1.29,4.66.93,6.2-.72,2.66,2.8,4.17,5,4.75,6.65s.25,2.57-.64,2.75C1448.41,691,1444.21,688.39,1439.84,682Zm-17.31,19.42A7.43,7.43,0,0,0,1424,706a19.93,19.93,0,0,0,1.78,2.35c.65.8,1.37,1.61,2.12,2.42,3,3.22,6.64,6.43,8.56,9.39a45.91,45.91,0,0,1,2.48,4.23c.71,1.41,1.33,2.79,1.9,4.14,1.14,2.72,2.07,5.33,3,7.87s1.8,5,2.75,7.45a44.91,44.91,0,0,0,3.59,7.31c5.58,8.8,10.7,14.06,16.52,19.84l2.2,2.21,2.16,2.39c1.47,1.64,3,3.39,4.5,5.32s3.12,4,4.74,6.4,3.15,5.06,4.79,8c4.42,7.29,6.85,2.21,10.64,5.41A604.19,604.19,0,0,1,1542.29,883a596.66,596.66,0,0,1,33.4,89.24c4.56,15.5,8.3,31.42,11.74,47.63.83,4.07,1.56,8.17,2.34,12.27s1.57,8.23,2.18,12.4c1.29,8.33,2.65,16.72,3.62,25.26,2.22,17,3.53,34.49,4.49,52.35q.23,6.72.46,13.51c.06,2.26.13,4.53.19,6.8s0,4.57,0,6.86c0,4.58,0,9.19,0,13.82s-.21,9.31-.32,14c-6.68-2.71-9.27-15-13-25.71a76.6,76.6,0,0,0-2.88-7.56,25.38,25.38,0,0,0-3.66-5.9c-2.75-3.15-6.18-4.5-10.84-2.7-1.48-9.78-3-19.19-4.33-28.38q-1-6.87-2.06-13.56c-.31-2.23-.63-4.45-.94-6.65s-.69-4.38-1-6.55q-1-6.52-2-12.89t-2.09-12.57q-.53-3.11-1-6.2c-.34-2-.75-4.08-1.13-6.11q-1.15-6.09-2.31-12.08c-.78-4-1.72-7.92-2.59-11.84-.45-2-.91-3.91-1.36-5.86l-.69-2.92-.77-2.88c-2.1-7.67-4.15-15.32-6.79-22.75q-1.93-5.6-4-11.13-2.22-5.5-4.63-10.93a218,218,0,0,0-11-21.39c-7.22-20.94-13.14-40.21-20.12-60.21s-15.19-40.61-27.62-63.36c-12.8-23.45-26.94-45.73-37.36-65.2-.62-1.25-1.27-2.45-1.9-3.63s-1.24-2.38-1.83-3.55c-1.18-2.35-2.27-4.68-3.27-7-1.94-4.61-3.72-8.94-5-13.16a57.09,57.09,0,0,1-2.41-12.16A34.71,34.71,0,0,1,1422.53,701.39Zm83,214.07c4.12,9.65-.5,10.09.7,16.79,7.78,19.53,6.89,30.14,8.9,44,.46,2,.94,4.21,1.46,6.5s1.15,4.66,1.81,7.12,1.41,5,2.15,7.64,1.45,5.36,2.23,8.12l2.42,8.43c.8,2.87,1.55,5.79,2.34,8.72s1.58,5.89,2.36,8.84,1.45,5.95,2.16,8.9c5.6,23.67,9,46.66,5.24,58.89,0-10.33-3.86-18.13-7.49-26a108.11,108.11,0,0,1-5.25-12.21,48.66,48.66,0,0,1-1.78-6.8,47.13,47.13,0,0,1-.94-7.6c-2.78-3.15-5.4-6.34-7.87-9.62s-5-6.59-7.22-10.1a155.92,155.92,0,0,1-12.41-23.35c-2-4.33-3.81-9-5.56-13.94l-2.67-7.7q-1.33-4-2.61-8.26c-.41-1.43-.83-2.88-1.26-4.36L1480.9,965q-1.34-4.56-2.62-9.48c-.81-3.31-1.82-6.64-2.72-10.15s-1.81-7.14-2.76-10.89a77.78,77.78,0,0,1-1.9-9.86c-.46-3.37-.72-6.86-1.16-10.26s-.8-6.85-1.32-10.22c-.26-1.69-.54-3.36-.89-5s-.8-3.22-1.29-4.78a126.16,126.16,0,0,0-6.58-16.81c-1.26-2.66-2.53-5.27-3.77-7.82-.63-1.27-1.23-2.53-1.86-3.76l-1.87-3.6A124.7,124.7,0,0,1,1446.1,849a29.7,29.7,0,0,1-2.37-11.54,12.87,12.87,0,0,1,7.54,2.12,30.55,30.55,0,0,1,4,2.87,36.61,36.61,0,0,1,4,3.9,117.43,117.43,0,0,1,8.16,10.27c1.41,1.9,2.73,3.95,4.06,6.06s2.67,4.26,4,6.46,2.73,4.4,4,6.67l3.86,6.79,7.6,13.11c2.45,4.18,5,8,7.39,11.39A47.07,47.07,0,0,0,1505.54,915.46Zm65-102.79c3.45,2.94,5.15,6.05,7,10l3.1,6.73a91.79,91.79,0,0,0,4.59,8.68c-3,.66-5.72-3.66-8.11-9.18S1572.33,816.79,1570.5,812.67Zm95.44,528.44c-1.85,24.35-3.33,48.41-6,73s-6.5,49.63-13.31,75.6c-6.35,24.08-13.61,42-21.35,61.28-2,4.82-4,9.73-6,14.87s-4.2,10.43-6.31,16.09-4.49,11.61-6.76,18l-7.64,20.83c-3.27,8.79-5.14,16.45-7.79,25.38a141.55,141.55,0,0,1-13.89,32.56,139.91,139.91,0,0,1-14,19.69L1559,1703l-4.06,4.31-2,2.12-2.09,2-4.11,4c-6.42,6-12.83,11.34-18.79,16.6q-2.26,1.93-4.4,3.92c-1.42,1.33-2.86,2.56-4.2,3.88-2.68,2.64-5.24,5.16-7.56,7.92-17.89,8.86-36,14.43-52.91,19.54-8.46,2.56-16.64,5-24.48,7.58a226,226,0,0,0-22.62,8.83c1.9-2.87,5.91-6.32,11.24-9.91l4.2-2.81c1.47-1,3-2,4.6-3l10.09-6.19c14.06-8.59,29.79-18.63,40.84-28.15a197.85,197.85,0,0,0,26.49-14.21,162.91,162.91,0,0,0,23.77-18.51,171.85,171.85,0,0,0,17.14-19.07c1.27-1.71,2.62-3.36,3.82-5.11l3.64-5.21,3.44-5.33c1.16-1.77,2.18-3.61,3.27-5.4q6.4-10.89,11.7-22.21c3.53-7.54,6.76-15.16,9.8-22.82s5.84-15.35,8.53-23q2-5.77,4-11.54c1.33-3.84,2.54-7.71,3.82-11.55l1.9-5.77,1.82-5.79q1.8-5.77,3.61-11.55c2.25-7.73,4.66-15.4,6.79-23.12,8.86-30.8,16.51-61.54,24-92q5.49-22.93,10.91-45.53l1.38-5.66c.44-1.89.89-3.77,1.33-5.66q1.38-5.65,2.75-11.29t2.72-11.27c.47-1.87.93-3.75,1.4-5.62s.91-3.75,1.37-5.62Zm-448.88,370c-1.62-1.17,2.09-10.32,0-10.86,12.59-34,12.8-63.66,17.55-90.15,2.22-12.63,8.69-24.49,12.23-40.75,1.2-5.42,2-11.35,2.72-17.3.34-3,.67-6,1-8.89s.62-5.82,1-8.58c1.43-11.07,3.62-20.28,8.92-23.82a90.87,90.87,0,0,1,.85-18.32c.87-6.75,2.2-14,3.53-21.32s2.54-14.74,3.33-21.78a94.82,94.82,0,0,0,.46-19.6c6.17,2,5.8,37.42,15.64,16.74-1.1-9.7-7.11-10.49-8.72-19.26,2.9-21.94,7.34-36.06,14.55-37.27,1.22,7.67,1.47,18.89,1,32-.21,6.56-.81,13.57-1.47,20.85s-1.52,14.81-2.49,22.4c-2.07,15.15-4.73,30.5-7.63,44.35A329.24,329.24,0,0,1,1270,1545a166.5,166.5,0,0,1-5.41,36.69c-1.43,5.84-3.17,11.63-5,17.6s-3.67,12.1-5.5,18.59c2.36,2.22,3.44-4.46,4.7-9.9a80.39,80.39,0,0,1-4.76,24.6,240.39,240.39,0,0,1-10.28,23.93l-5.73,12c-1.91,4-3.77,8-5.46,12.12a112.19,112.19,0,0,0-7.53,25.25C1222.79,1711.56,1219.13,1704.11,1217.06,1711.14Zm68.08-332.55c1.71-7.21,4.19-11,6.16-17.06q5.23,3.06,4.06,18.45C1291.38,1389.45,1288.14,1384.19,1285.14,1378.59Zm-45.76-112.33a342.49,342.49,0,0,0-.16-37.78l-.08-1.59c.12-.43-.35-.15-.65-.08l-1,.29-3.86,1.18-7.57,2.34c-4.95,1.64-9.78,3.12-14.39,4.71-3.94,1.34-7.9,2.5-11.86,3.72s-8,2.31-12,3.5l-6.12,1.73-6.17,1.82c-4.14,1.18-8.29,2.51-12.47,3.83s-8.32,2.79-12.42,4.27-8.12,3.11-12,4.82l-2.85,1.3-.36.16-.61.25-1.66.67-3.3,1.34c-4.38,1.77-8.72,3.62-13,5.49-8.53,3.73-16.76,7.5-24.66,11.48-6.39,1.57-14.69,3.76-23.86,6.56s-19.12,6-28.82,9.65a269.43,269.43,0,0,0-27.06,11.53c-7.94,4-14.5,8.12-18.44,12.1-25.88,8.55-50.75,19.55-75.06,30.93s-48,23.21-71.45,33.39c-33.16,9.75-67.36,22.77-103.5,34.85s-74.24,23.18-114.28,28.83a100.11,100.11,0,0,1-13,1c-4.21.09-8.3,0-12.39-.07-8.16-.09-16.47-.49-25.74.46q-3,.32-6.18.77l-3.18.49-3.38.54-14.67,2.38a237.84,237.84,0,0,1-31.39,3.18,276.74,276.74,0,0,1-46.75-3.46c-8-1.23-16-2.65-24.09-4.28-2-.39-4.09-.85-6.13-1.27s-4.08-.84-6.17-1.32l-6.22-1.36-6.3-1.47c-7.75-1.83-17-3.54-26.46-6.11-2.34-.58-4.73-1.31-7.08-2s-4.66-1.42-6.95-2.28-4.52-1.66-6.66-2.53-4.25-1.89-6.21-2.85a48.53,48.53,0,0,1-7-4.22,70.35,70.35,0,0,1-5.8-4.57c-1.83-1.58-3.6-3.15-5.47-4.71s-3.81-3.25-6-4.84c-13.63-9.89-28.52-22.23-40.63-36-12.2-14-21-28.48-25-40.48a238.5,238.5,0,0,1-14.4-27.75c-3.94-8.93-7.18-17.51-10-25.7l-1.16-3.41-1.23-3.8-2.39-7.64q-2.33-7.66-4.49-15.43c-2.86-10.35-5.37-20.85-7.26-31.53a230.35,230.35,0,0,1-3.43-32.68,180.83,180.83,0,0,1,2.16-33.84c3.74-22.89,12.69-45.93,26.62-67.78a182.78,182.78,0,0,0-12,32.5,127.5,127.5,0,0,0-4.22,31.74,83.77,83.77,0,0,0,4,26.06,47.53,47.53,0,0,0,4.39,9.46,26,26,0,0,0,5.46,6.5c1.23,23.29,7.37,45.48,13.82,67.19l2.47,8.14c.82,2.7,1.73,5.49,2.43,7.67s1.56,4.7,2.32,7,1.67,4.8,2.49,7.21c3.43,9.71,7.42,19.9,12.36,30.51a210,210,0,0,0,10.74,20.32c1.91,3.07,3.75,6.06,5.9,9,1.07,1.49,2.09,3,3.25,4.48s2.37,3,3.62,4.53a138.3,138.3,0,0,0,19.24,19.06A150.5,150.5,0,0,0,410,1406.18c11.75,2.33,23,3.54,33.74,4.74a419,419,0,0,0,42.19,2.37c13.77.12,27.19-.42,40.36-1.38q9.86-.75,19.5-1.83c3.2-.38,6.41-.75,9.57-1.18l4.75-.65,4.5-.69q9-1.38,17.88-2.88l4.44-.77,4.39-.87,8.73-1.8c5-1.07,9.9-2.17,14.78-3.4s9.69-2.59,14.48-3.92c9.62-2.57,18.93-5.49,28-8.05l13.44-3.72c4.4-1.19,8.73-2.27,13-3.21a178.15,178.15,0,0,1,24.57-3.91c30.4-10.61,64.83-20.23,97.5-31.19s63.55-23.11,86.82-38.23c43.51-10.74,84.63-34.54,119.55-48.24a445,445,0,0,0,64.1-5.7,347.83,347.83,0,0,0,37.78-8.61c3.29-1,6.62-1.93,10-3l2.53-.81,1.16-.38.73-.23c1-.3,2-.64,2.94-1a123.94,123.94,0,0,0,12.09-5,109.36,109.36,0,0,0,19-12.08c6.2-4.66,12.45-10,19.1-15.5,3.32-2.72,6.73-5.5,10.23-8.27s7.12-5.52,10.85-8.13a164.25,164.25,0,0,1,23.48-14.18,24.91,24.91,0,0,0,10-.69,83.22,83.22,0,0,0,11-3.71c3.86-1.52,7.9-3.29,12-4.82a80.52,80.52,0,0,1,12.55-3.58c2.2-.4,4.36-.75,6.51-1s4.27-.38,6.37-.51,4.2-.21,6.3-.28l3.13-.09h.2s0,.17,0,.25l-.1.56-.2,1.13c-.14.75-.27,1.5-.41,2.26-2,11.06-4,22.33-5.28,33.27-.69,5.48-1.19,10.89-1.41,16.24a155,155,0,0,0,.21,16c-7.06,2.84-13.36,6.6-19.18,9.82a93.94,93.94,0,0,1-16.53,7.71C1246.69,1253.46,1245.9,1261.62,1239.38,1266.26ZM288.46,1054.09c-1.34-3.12,2.1-9.18-3.44-9.52,11.94-8.91,23.09-19.83,34-31l4.05-4.18,3.9-4.07.95-1,.48-.51.34-.39,1.28-1.54c.84-1,1.67-2.06,2.5-3.06l4.78-5.92c1.55-1.87,3.06-3.67,4.52-5.36l61.54-49.49c19.4-15.42,38.76-30.29,61.08-45.46,10.36-4.68,18.31-6.3,28-10.1,31.41-19.39,62.69-36.81,90.6-54.45,15.11-9.54,29.66-20.14,43.65-30.68s27.17-21.13,39.87-30.6c14-10.54,29.14-19.51,42.67-29.23,6.59-4.95,13.07-9.92,18.44-15.45q2.05-2.05,4-4.18c.63-.71,1.26-1.42,1.87-2.14s1.16-1.47,1.72-2.22a73,73,0,0,0,6-9.3c12.32-11,27.28-23.59,40.31-37l4.79-5.07c1.55-1.68,3.21-3.4,4.55-5s2.81-3.26,4.12-4.88,2.5-3.22,3.7-4.81,2.22-3.16,3.27-4.72l1.51-2.31c.46-.76.88-1.52,1.31-2.27.84-1.51,1.65-3,2.36-4.44s1.23-2.86,1.75-4.25c.56-.49,1.12-1,1.68-1.54s1-1.07,1.56-1.63c1-1.12,2.09-2.31,3.16-3.55a86.75,86.75,0,0,0,5.66-7.93,95.7,95.7,0,0,0,8.8-17.43c1.06-2.9,2.11-5.79,2.81-8.25.18-.65.46-1.28.61-1.93s.3-1.31.47-2,.36-1.3.56-2l.4-2c.26-1.33.68-2.64.83-4,.11-.66.23-1.33.37-2a14.17,14.17,0,0,0,.37-2c.09-.67.19-1.33.31-2s.3-1.34.34-2c.14-1.32.39-2.64.62-4-.37-1.21-.72-2.4-1-3.57s-.81-2-1.25-3.35l-.32-.92-.41-.94-.81-1.86c-.27-.62-.51-1.22-.8-1.84s-.63-1.25-.94-1.87c-1.15-2.46-2.64-5-4-7.44l-2.31-3.75-.57-.92-.63-.95-1.26-1.87c-.41-.63-.83-1.25-1.24-1.87s-.9-1.26-1.34-1.88l-2.68-3.76c-1.93-2.54-3.75-5-5.81-7.62s-4.11-5.16-6.15-7.75c-2.19-2.67-4.37-5.35-6.57-8l-6.86-8.39c-2.42-2.88-4.9-5.82-7.3-8.82-4.87-6-9.43-12.35-14.55-18.72-2.49-3.23-5-6.56-7.41-10-1.24-1.72-2.42-3.52-3.7-5.27s-2.61-3.5-3.91-5.31q-3.88-5.42-7.77-11.31l-1.94-3-1-1.52-1-1.48c-1.38-2-2.77-4-4.15-6.08,1.51,1,3,2,4.54,3.12a51.77,51.77,0,0,1,4.48,3.59c2.88,2.58,5.76,5.4,8.63,8.34s5.71,6,8.55,9.12,5.33,6.48,8,9.68,5.26,6.36,7.87,9.36c1.34,1.48,2.54,3,3.76,4.49s2.44,2.89,3.66,4.26c4.85,5.45,9.8,10,14.64,12.87A171.47,171.47,0,0,0,815,507.65q1.4,2,2.83,3.88l2.84,3.72c.93,1.21,1.88,2.4,2.83,3.58s1.8,2.29,2.71,3.41c7.26,9,13.56,16.64,17.3,23.55l1.16,2.25c.38.77.8,1.57,1.09,2.34.61,1.55,1.33,3.18,1.88,4.8l.75,2.36c.23.75.54,1.44.71,2.25.36,1.59.83,3.19,1.18,4.81s.66,3.28.92,4.93.52,3.31.71,5,.33,3.29.58,4.92.23,3.23.46,4.82c.17,1,.19,1.91.27,2.84s.17,1.85.28,2.76c0,.45.12.9.16,1.35s0,.89.07,1.33c.06.9.12,1.78.18,2.66a48.21,48.21,0,0,1,.14,5.57c0,1,0,2,0,3s-.19,2-.28,3.1-.21,2.14-.32,3.24-.41,2.27-.63,3.45-.48,2.4-.74,3.65-.72,2.57-1.12,3.92a100.43,100.43,0,0,1-7.89,18.79l-2.35,4.27c-.76,1.42-1.68,2.82-2.52,4.23s-1.68,2.81-2.59,4.22l-2.78,4.24-1.4,2.14-1.5,2.16-3,4.39c-1.06,1.48-2.15,3-3.24,4.51s-2.2,3.09-3.4,4.67-2.47,3.3-3.77,5-2.78,3.29-4.2,4.93-2.87,3.27-4.33,4.89l-2.2,2.43c-.73.8-1.53,1.57-2.3,2.36-3.1,3.12-6.25,6.21-9.38,9.25s-6.52,5.9-9.72,8.79c-13,11.45-25.83,21.82-35.91,31.45a50.55,50.55,0,0,0-3.84,4.26l-1.8,2.28-1.85,2.27a59.41,59.41,0,0,1-7.83,8.43c-1.69,1.44-3.55,2.8-5.48,4.15s-3.93,2.69-6,4-4.14,2.67-6.32,4L708.7,777,702,780.93c-2.23,1.32-4.5,2.63-6.71,4-4.44,2.7-8.66,5.57-12.77,8.53a57.52,57.52,0,0,0-5.85,6c-1.17,1.28-2.34,2.57-3.39,3.65a19.92,19.92,0,0,1-2.73,2.39,98.62,98.62,0,0,1-13.89,7A136,136,0,0,0,642.77,819c-14.38,8.07-29.74,17.3-46.14,27.21s-33.63,20.6-51.48,31.69c-35.74,22.22-73.81,46.13-111,69.65q-5.67,3.54-11.32,6.82l-11.25,6.43A226.47,226.47,0,0,0,389.54,975c-4.85,3.63-9.61,7.84-14.4,12.2a174.78,174.78,0,0,1-14.76,12.2c-5.12,3.68-10.37,6.75-15.58,9.83-2.61,1.53-5.22,3-7.83,4.5l-.49.28-.64.39-1.28.79-2.56,1.59c-1.69,1.06-3.47,2.21-5.2,3.34a198.1,198.1,0,0,0-20.26,15A121.43,121.43,0,0,0,288.46,1054.09ZM800.67,564.91a5.17,5.17,0,0,0-1.48-2.73c-.46-.5-.64-.91,0-2.64,2.19-1.33,3.9.1,4.43,1.83A2.76,2.76,0,0,1,800.67,564.91Z" transform="translate(-103.94 22.02)"/><path class="b" d="M1375,1648.69a28.43,28.43,0,0,0,3.56-1.32c1.06-.51,2-1,2.94-1.59,1.86-1.09,3.6-2.16,5.74-3.19a21.62,21.62,0,0,0,5.19-.07c.93-.11,1.9-.26,2.88-.45s2-.49,3-.77a110,110,0,0,0,12.28-4.31c2-.77,3.82-1.57,5.65-2.22a47,47,0,0,1,5.07-1.69,18.1,18.1,0,0,1,4.46-.73,9.21,9.21,0,0,1,3.9.68,161.81,161.81,0,0,1-21.47,8.17c-3.82,1.2-7.89,2.21-11.82,3.28-2,.5-4,.92-5.94,1.39l-3,.68-3,.58-5.93,1.15-6,.94-3,.47-3,.38c-2,.24-4,.52-6,.74-8.12.82-16.45,1.36-25.17,1.54,1.39-1.31,4.52-2.22,8.42-2.83s8.59-1.08,13.11-1.45c1.14-.07,2.26-.13,3.37-.17l3.21-.16c2.08-.09,4-.1,5.68,0C1372.48,1647.73,1374.74,1648,1375,1648.69Z" transform="translate(-103.94 22.02)"/><path class="b" d="M1309.09,1648.07c9.37.77,9.7-3.44,18.32-3.37-1.72,2.23-5.54,3.19-9.36,4.32s-7.59,2-9.26,4.2c-3.42-.38-2.47-.89-1.11-1.66S1310.8,1649.6,1309.09,1648.07Z" transform="translate(-103.94 22.02)"/><path class="b" d="M918,387.55c-7.91-6.16-19-19.2-30.1-33.14-5.83-6.74-11.78-13.64-17.46-19.88q-2.13-2.34-4.21-4.55c-1.38-1.46-2.84-2.78-4.22-4.08-2.79-2.59-5.46-4.9-8-6.85a91.11,91.11,0,0,1,8.35,6c1.4,1.11,2.81,2.28,4.21,3.5s2.71,2.57,4.06,3.92c5.42,5.41,10.86,11.45,16.31,17.67,2.78,3.06,5.27,6.4,7.9,9.63s5.19,6.49,7.8,9.66,5.21,6.29,7.82,9.28S915.5,384.76,918,387.55Z" transform="translate(-103.94 22.02)"/></svg>