<svg xmlns="http://www.w3.org/2000/svg" viewBox="0 0 1920 1920"><defs><style>.a{fill:none;}.b{fill-rule:evenodd;}</style></defs><path class="a" d="M1809.08,1461.79q-5.58-201.66-30.92-402.06-12.65-100-30.18-199.4l-9.1-49.6L1734.06,786l-2.42-12.37q-1.19-6.2-2.48-12.36l-5.1-24.69-2.56-12.35-.65-3.14-.77-3.53-1.56-7.07q-6.35-28.26-14.57-56.71c-5.53-19-11.78-38.08-19-57.35s-15.33-38.71-24.8-58.37A559.08,559.08,0,0,0,1627,478.48a453.87,453.87,0,0,0-45.75-60,389.39,389.39,0,0,0-29.39-29.14,359.85,359.85,0,0,0-34.71-27.29c-6.25-4.31-12.7-8.49-19.41-12.46-3.35-2-6.72-4-10.21-5.84l-5.2-2.82-5.39-2.74a323.29,323.29,0,0,0-91.67-30.08c-4-.65-8-1.23-12-1.79s-8-.94-12-1.35-7.89-.63-11.84-.9-8-.3-12.07-.39c-8.15-.29-15.89,0-23.73.34-4,.12-7.69.46-11.46.79s-7.54.7-11.3,1.09-7.21,1-10.8,1.49-7.27,1-10.61,1.7c-6.8,1.28-13.8,2.58-20.11,4.14l-9.66,2.31-9.14,2.5c-6.24,1.66-11.76,3.46-17.53,5.25-2.94.9-5.53,1.81-8.25,2.73l-8.09,2.78-7.61,2.8c-2.51.93-5.15,1.88-7.47,2.8-19.39,7.48-36.13,14.78-50.67,21l-10.41,4.44-9.86,4-19.7,8.05-2.47,1-2.5.93-5,1.86-10,3.72-10,3.73-5,1.87c-1.67.61-3.36,1.15-5,1.73a1248.42,1248.42,0,0,1-164.49,45.16,1240.22,1240.22,0,0,1-169.3,21.55l-5.32.35c-1.78.13-3.55.25-5.33.28l-10.66.36-21.32.76c-7.1.11-14.21.08-21.32.14l-10.66.07c-1.77,0-3.55.05-5.32,0l-5.33-.14-21.3-.52-5.32-.12-2.66-.06-2.66-.14-10.63-.59-21.26-1.13c-6.32-.39-11.13-.86-15.09-1.35s-6.62-1-7.81-1.27c-.35-.07-.48-.13-.65-.15a.06.06,0,0,0-.07,0l-.53,1.79-.56,2-1.19,4-2.4,7.66c-.77,2.41-1.71,5-2.41,7.13-.38,1.11-.77,2.22-1.18,3.33L535,479.21c-.73,2-1.51,4-2.34,6.05a194.28,194.28,0,0,1-9,19.54c-.66,1.28-1.38,2.57-2.11,3.81s-1.26,2.23-2,3.34l-.93,1.51c-.29.47-.6.95-.91,1.42l-1.74,2.56-1.6,2.18-.75,1-.39.49-.3.38c-.4.5-.85,1-1.28,1.5s-.64.74-1,1.11l-.4.43-.37.37-.54.51-.3.26,0,0,0,0,1.61-1.26c-.3.25-.62.49-1,.74l-.83.57c-.17.12-.36.24-.58.37l-.16.09,0,0,0,0-.14.08.22-.11,77.45-36.1,0,.15c.15.57.13.33.12.39h0L585.2,492l-.68,1.67-4.75,12.4c-1.6,4.23-3.25,8.46-4.8,12.69l-4.54,12.69c-3.1,8.46-5.89,16.91-8.72,25.36-11.22,33.81-20.86,67.52-29.33,101-16.91,66.9-29.18,132.73-39.56,197-5.19,32.15-9.87,63.93-14.34,95.28L471.91,997l-3.25,23.73c-1.09,7.89-2.12,16.08-3.18,24.15-4.16,32.48-8,66.09-10.7,101s-4.28,71-3.72,108.31a843.83,843.83,0,0,0,9.3,115.15l2.28,14.71,2.85,14.81,2.93,14.8c1.13,5.11,2.36,10.3,3.56,15.44a617,617,0,0,0,18.14,60.65A600.88,600.88,0,0,0,545.45,1605a533.45,533.45,0,0,0,84.12,104.33,477.76,477.76,0,0,0,54.57,45,447.31,447.31,0,0,0,63.05,37.25c2.79,1.34,5.56,2.72,8.39,4l8.56,3.76c2.86,1.23,5.7,2.49,8.6,3.66l8.75,3.4c2.92,1.11,5.83,2.25,8.78,3.3l8.92,3c3,1,6,2,8.93,2.92l8.9,2.55,8.92,2.48c1.48.4,3,.83,4.46,1.2l4.43,1c5.91,1.36,11.83,2.7,17.75,4q8.77,1.61,17.56,3.1l4.39.73,4.32.57,8.65,1.12,8.65,1.06,8.47.75,8.48.7,4.24.34,4.15.2,16.57.72,16.17.15c21.35-.1,41.92-1.21,61.55-3s38.32-4.38,56.36-7.19l13.33-2.19c2.24-.36,4.39-.75,6.55-1.13l6.48-1.15,6.47-1.16,6.3-1.18c4.21-.8,8.4-1.56,12.62-2.4,33.68-6.59,69.94-14.55,108.51-26.69,9.67-3.08,19.44-6.37,29.35-10s20-7.64,30.13-12.05,20.39-9.18,30.72-14.5,20.66-11,31-17.41a424.37,424.37,0,0,0,60.7-44.89,389.56,389.56,0,0,0,28.12-27.64l3.36-3.64,3.24-3.7c2.15-2.48,4.32-5,6.41-7.47,4.11-5,8.26-10.1,12.09-15.27s7.59-10.36,11.25-15.6c1.81-2.62,3.51-5.26,5.26-7.9l2.59-4,2.47-4c6.67-10.63,12.56-21.33,18.11-32s10.38-21.41,14.94-32.07c4.41-10.61,8.51-21.21,12.11-31.66s6.91-20.82,9.77-31c1.51-5.14,2.79-10.16,4.15-15.24s2.56-10.07,3.67-15c4.65-19.92,8.2-39.26,11.11-58.09s5.09-37.09,6.84-54.8c.22-2.2.46-4.47.64-6.6l.56-6.44,1.11-12.88c.36-4.29.76-8.58,1.08-12.88l.86-12.89a1685.41,1685.41,0,0,0-22.54-411.65c-1.57-8.48-3.08-17-4.71-25.42l-5.17-25.33c-.82-4.13-1.82-8.63-2.78-13.05-1-4.65-2.06-9.17-3.26-14.12-1.12-4.76-2.47-9.93-3.76-15-1.45-5.3-2.83-10.46-4.53-16-1.56-5.39-3.47-11.2-5.34-16.88l-3.12-8.84-.79-2.21-.86-2.28-1.77-4.56-1.79-4.56c-.59-1.52-1.3-3.13-2-4.69l-2.07-4.85c-.75-1.71-1.43-3.35-2.28-5.15q-2.46-5.29-5-10.54c-1.69-3.5-3.55-6.92-5.36-10.36A313.93,313.93,0,0,0,1472,645.62a294.09,294.09,0,0,0-30.52-35.15,316.47,316.47,0,0,0-35.48-30.2c-3.1-2.34-6.3-4.55-9.52-6.74l-4.83-3.27c-1.63-1.08-3.19-2.15-5-3.23l-5.18-3.19-4.49-2.75c-3-1.75-5.89-3.38-8.85-5.05-11.72-6.5-23.25-12.19-34.21-17l-4.15-1.84-4-1.7c-2.68-1.11-5.43-2.27-8.07-3.31l-7.87-3.07c-1.33-.52-2.61-1-3.88-1.46l-3.83-1.4-3.83-1.39-3.74-1.31-7.43-2.55c-4.8-1.57-9.67-3.2-14.32-4.56l-14.1-4.23-7.06-2.09c-2.35-.72-4.73-1.27-7.1-1.91l-14.22-3.7-7.11-1.83c-2.38-.6-4.77-1.09-7.15-1.63l-14.31-3.17-7.15-1.57-7.19-1.35a834,834,0,0,0-231-11.68,866,866,0,0,0-223.76,50.06A840.86,840.86,0,0,0,529,641.86a797,797,0,0,0-89.52,75.65l-2.65,2.55-1.33,1.28-1.35,1.37-5.4,5.52-5.4,5.54c-1.8,1.84-3.51,3.75-5.26,5.63l-5.23,5.66c-1.74,1.89-3.49,3.78-5.16,5.72l-10.11,11.59Q377.73,785.83,360,811c-11.88,16.75-22.9,34.23-33.24,52.28a605.72,605.72,0,0,0-28.55,56.23,598.87,598.87,0,0,0-23.07,60.6,535.62,535.62,0,0,0-16.22,65.35,471.54,471.54,0,0,0-7.57,69.91,451.21,451.21,0,0,0,3.54,73.42l1.35,9.31.71,4.65.36,2.32.44,2.34q1.77,9.31,3.71,18.6c1.46,6.19,3,12.37,4.65,18.53.42,1.53.78,3.08,1.25,4.61l1.4,4.59,2.85,9.16,1.46,4.57.74,2.29.82,2.26,3.33,9,3.41,9c1.18,3,2.49,5.9,3.75,8.85l3.87,8.79,2,4.39,2.09,4.31,4.26,8.58,4.52,8.49c.77,1.41,1.51,2.83,2.3,4.23l2.41,4.18c1.61,2.78,3.21,5.57,4.88,8.32,3.4,5.48,6.78,11,10.43,16.29s7.35,10.6,11.16,15.8c1.9,2.6,3.91,5.13,5.87,7.68s4,5.08,6,7.54l6.18,7.41,6.37,7.2c2.12,2.41,4.31,4.73,6.5,7.05s4.38,4.66,6.64,6.9c8.94,9.07,18.27,17.6,27.81,25.76s19.41,15.68,29.44,22.78c2.5,1.81,5,3.49,7.55,5.22s5.06,3.44,7.61,5.06l7.67,4.89,7.73,4.67c10.32,6.12,20.77,11.83,31.28,17,5.26,2.66,10.53,5.07,15.81,7.52,2.64,1.19,5.29,2.33,7.94,3.49l4,1.71,4,1.63c42.46,17.48,85.19,28.37,127.29,34.82,10.54,1.62,21,2.88,31.5,4s20.9,1.83,31.29,2.31c20.79,1.07,41.43,1,62,.16s40.88-2.77,61.13-5.49,40.37-6.36,60.38-11c10-2.25,20-4.85,29.92-7.57s19.85-5.75,29.74-9.06c4.94-1.58,9.87-3.36,14.8-5.07l7.38-2.71,3.69-1.37,3.76-1.46q15.08-5.85,29.69-12.44a594.58,594.58,0,0,0,57.05-29.52,565.61,565.61,0,0,0,54.48-36.39,508.15,508.15,0,0,0,51.86-44.92,443.77,443.77,0,0,0,48-56.16l1.41-1.94,1.38-2,2.76-4.07,5.45-8.16c1.79-2.77,3.53-5.68,5.28-8.53s3.47-5.72,5.16-8.64l4.95-9,2.43-4.54,1.2-2.27,1.16-2.37q2.31-4.72,4.57-9.5l2.23-4.77c.73-1.61,1.42-3.29,2.12-4.93a341.78,341.78,0,0,0,24.35-85.8,325.73,325.73,0,0,0,.21-92.39,339.59,339.59,0,0,0-24-85.66,399.27,399.27,0,0,0-38-69,515,515,0,0,0-42.37-53.55c-14.23-15.84-28.35-29.88-42-42.79-6.82-6.43-13.62-12.7-20-18.3l-19.44-17.27c-3.22-2.91-6.54-5.69-9.85-8.49l-9.93-8.39-9.93-8.38c-1.67-1.39-3.3-2.82-5-4.17l-5.06-4.08L1044,758.53c-1.69-1.35-3.37-2.72-5.08-4l-5.16-4-10.32-7.88-10.33-7.88-5.17-3.93-5.25-3.82-21-15.25L976.45,708l-5.34-3.69-10.69-7.37-10.7-7.36-5.35-3.68L939,682.3A1607.08,1607.08,0,0,0,759.06,578.72L747.4,573c-3.9-1.88-7.75-3.86-11.7-5.64l-23.59-10.87-5.9-2.72c-2-.91-3.94-1.8-5.93-2.65L688.35,546c-8-3.41-15.89-6.91-23.89-10.22L640.34,526c-4-1.6-8-3.27-12.08-4.8l-12.18-4.56-24-8.95-9.34-3.42-4-1.52s0,0,0,0h0l1.58-2.06,2.25-3,2.22-3a36.7,36.7,0,0,1,2.3-3q2.44-2.91,4.84-5.85c3-4,6.73-7.67,10.09-11.52C629.71,444,665.53,418.5,705,400s82.68-29.94,124.9-32.43a308.51,308.51,0,0,1,62,2.25,271.61,271.61,0,0,1,57.43,14.44L1064.29,80a596.79,596.79,0,0,0-127-32.25A633.18,633.18,0,0,0,809.14,43,653.82,653.82,0,0,0,684.72,63,684.69,684.69,0,0,0,567.1,105.42a676,676,0,0,0-108.3,63.51,632,632,0,0,0-95.51,84.39c-7.21,8-14.57,15.82-21.33,24.3l-10.28,12.56c-1.73,2.07-3.35,4.26-5,6.44l-4.87,6.54L317,309.71l-2.65,3.6L313,315.18c-.47.65-.86,1.15-1.46,2.06l-12.89,20-6.45,10c-2.11,3.35-4.41,6.61-6.2,10.11L274.55,378c-8.17,13.63-13.8,28-20.27,42.15l-4.74,10.63c-1.34,3.58-2.7,7.17-3.92,10.77s-2.43,7.2-3.51,10.82S240,459.61,239,463.23s-1.8,7.25-2.67,10.88-1.56,7.26-2.2,10.9-1.27,7.28-1.77,10.92-.94,7.29-1.32,10.94c-.21,1.82-.32,3.65-.46,5.48l-.39,5.47-.24,5.49-.1,2.74,0,2.74,0,5.48c0,1.83.13,3.66.18,5.48.13,3.65.3,7.32.49,11,.67,7.13,1.39,14.3,2.59,21.39l.93,5.32c.32,1.78.64,3.55,1,5.3.79,3.52,1.52,7,2.42,10.54s1.78,7,2.84,10.44,2.16,6.88,3.36,10.28,2.43,6.78,3.76,10.13,2.7,6.68,4.18,10,3,6.53,4.64,9.74,3.28,6.4,5,9.54,3.54,6.26,5.39,9.33,3.84,6.08,5.84,9.07a265.5,265.5,0,0,0,26.84,33.92c19.77,21.29,43.16,39.9,69,55.87a443.53,443.53,0,0,0,40.35,22c1.74.84,3.45,1.72,5.21,2.53l5.28,2.42c3.52,1.62,7,3.24,10.6,4.78q10.67,4.65,21.53,9,5.41,2.16,10.87,4.23l6.88,2.59,12.58,4.61,19.72,7.37,9.69,3.61c3.23,1.2,6.4,2.55,9.61,3.82l19.19,7.72c6.38,2.63,12.68,5.45,19,8.15l9.51,4.09q2.39,1,4.72,2.12l4.7,2.17,18.81,8.66c3.15,1.39,6.21,3,9.32,4.5l9.29,4.57A1281.2,1281.2,0,0,1,758.74,953.1l4.34,2.84,4.26,2.94,8.53,5.88,8.53,5.87,4.27,2.93,4.18,3.05,16.77,12.16,4.19,3,4.12,3.14,8.22,6.28,8.23,6.28,4.12,3.14c1.36,1.06,2.69,2.16,4,3.23l16.13,13,4,3.23c1.35,1.08,2.64,2.22,4,3.33l7.9,6.68,7.91,6.67c2.63,2.22,5.29,4.42,7.83,6.74l15.46,13.74c5.32,4.65,10,9,14.46,13.19,9,8.45,16.87,16.43,23.43,23.75a193.27,193.27,0,0,1,15.64,19.53,75.28,75.28,0,0,1,7.14,12.52,15.59,15.59,0,0,1,1.3,3.94c.1.6,0,.33,0,.66a18.68,18.68,0,0,1-1.21,3.71,4.59,4.59,0,0,1-.15.44c-.1.16-.19.33-.28.5a9.41,9.41,0,0,0-.47,1l-.1.27-.18.29-.35.6c-.23.4-.43.81-.62,1.23s-.6.89-.87,1.35-.5.92-.83,1.42-.72,1-1.06,1.52l-.5.78-.24.39-.33.41a118.39,118.39,0,0,1-12.7,14.67,185,185,0,0,1-18.69,16.11,258.3,258.3,0,0,1-49,28.78c-4.42,2-8.9,3.86-13.35,5.6l-1.68.66-1.78.66-3.57,1.32c-2.43.81-4.81,1.71-7.28,2.48-4.87,1.65-9.89,3.1-14.91,4.55s-10.16,2.72-15.34,3.87c-10.32,2.41-20.87,4.25-31.45,5.73s-21.25,2.4-31.83,2.86-21.1.47-31.38-.08c-5.16-.22-10.23-.66-15.26-1.12s-10-1.1-14.82-1.86c-19.4-3-37.36-7.8-52.47-14.06s-27.4-13.72-36.62-21.51c-2.25-2-4.45-3.93-6.42-6-.53-.48-1-1-1.45-1.52s-1-1-1.41-1.53-.91-1-1.38-1.52-.84-1.06-1.28-1.57a18.84,18.84,0,0,1-1.25-1.58c-.4-.54-.86-1-1.23-1.58-.76-1.1-1.59-2.14-2.29-3.27s-1.43-2.26-2.18-3.36c-.35-.57-.65-1.18-1-1.75l-.53-.87c-.17-.29-.31-.61-.47-.91-.31-.6-.64-1.2-1-1.8s-.59-1.26-.91-1.88l-.48-.93-.37-1q-.39-1-.81-1.89c-.27-.63-.62-1.23-.86-1.87s-.44-1.3-.67-2-.49-1.27-.76-1.91l-.2-.47-.13-.5-.28-1q-.3-1-.63-2l-.34-1a8.44,8.44,0,0,1-.25-1c-.3-1.39-.68-2.74-1.06-4.11q-.34-2.16-.84-4.29l-.13-.53-.06-.56-.14-1.13c-.09-.75-.2-1.5-.33-2.24a127.81,127.81,0,0,1-.91-19.72,147.22,147.22,0,0,1,2.55-22.81,209.91,209.91,0,0,1,6.26-25.2,277.72,277.72,0,0,1,10.18-26.6,283.08,283.08,0,0,1,13.72-27c5.13-8.94,10.68-17.86,16.84-26.48s12.63-17.07,19.48-25.2l5.24-6c.85-1,1.77-2,2.67-2.95l2.69-2.91c.9-1,1.77-2,2.69-2.9l2.77-2.81,2.74-2.83.7-.71.78-.74,1.56-1.49a472.05,472.05,0,0,1,53-44.74,516.19,516.19,0,0,1,124.9-66.36,541.4,541.4,0,0,1,139.61-31.24,509.45,509.45,0,0,1,140.81,7c1.43.27,2.87.5,4.29.79l4.24,1,8.48,1.88c1.41.32,2.84.58,4.24.94L1151,820l8.37,2.16c1.39.38,2.82.67,4.18,1.11l4.12,1.25,8.26,2.46c2.83.8,5.33,1.67,7.93,2.5l3.61,1.25c.58.2,1.22.4,1.77.61l1.65.61,1.65.6c.56.2,1.1.39,1.58.59l3,1.17c1,.38,1.81.76,2.73,1.13l1.35.55,1.17.53c3.31,1.42,5.72,2.71,7.61,3.73.42.26.92.5,1.3.72l.47.32a.81.81,0,0,1-.2-.14c-.09-.09,0,0-.08,0h0c.06-.07,0,0,0,0l0,0,0,0c.06,0,0,0,0,0s0,0,0,0,0,0,0,0h0s0,0,0,0,0,.12.07.19l.07.18.15.33c.09.24.2.4.3.7l.33.88.35.87c.06.15.12.27.18.45l.18.54c.25.73.5,1.44.77,2.16.53,1.73,1.1,3.29,1.68,5.38.6,1.85,1.2,4.22,1.82,6.42.63,2.5,1.26,4.84,1.92,7.66.64,2.61,1.32,5.69,2,8.62.69,3.19,1.39,6.28,2.08,9.78l4.16,20.41,3.79,20.49a1360.39,1360.39,0,0,1,18.2,332.3l-.69,10.4c-.26,3.46-.59,6.92-.88,10.38l-.89,10.38-.44,5.19c-.14,1.73-.33,3.33-.49,5q-2,19.89-4.69,37.83c-3.64,23.9-8.57,45-14.48,62-1.46,4.27-3,8.17-4.55,11.94s-3.15,7.12-4.77,10.24-3.19,6-4.84,8.58l-.59,1-.62.9c-.41.6-.78,1.26-1.19,1.83-.83,1.11-1.59,2.31-2.41,3.32s-1.62,2-2.38,3l-1.21,1.38-.59.7-.61.63a65.34,65.34,0,0,1-5.16,5.07,99.71,99.71,0,0,1-14.32,10.47c-2.89,1.81-6.21,3.6-9.7,5.43s-7.41,3.61-11.49,5.41-8.58,3.54-13.22,5.28-9.66,3.4-14.82,5.06c-20.82,6.58-45.4,12.28-72.79,17.6l-10.32,2-5.16,1-5,.9-5,.89c-1.68.3-3.36.6-5,.85l-9.71,1.6q-19.08,3-36.24,4.66c-11.35,1.06-21.89,1.55-31.67,1.61l-7.17,0q-3.36-.2-6.74-.31l-1.69-.06-1.57-.15-3.15-.28-3.16-.23-2.92-.41-2.94-.36-1.47-.16-1.35-.26c-1.81-.35-3.62-.65-5.44-.92-1.67-.42-3.33-.82-5-1.16l-1.26-.26c-.41-.1-.78-.23-1.17-.35-.77-.23-1.54-.46-2.31-.67s-1.56-.42-2.34-.61-1.43-.51-2.15-.74-1.43-.47-2.15-.68-1.41-.58-2.13-.84-1.42-.54-2.14-.8-1.41-.64-2.12-.94-1.43-.61-2.15-.9-1.41-.72-2.12-1.06a136.23,136.23,0,0,1-34.57-24.58,208.88,208.88,0,0,1-32.57-40.8,275.31,275.31,0,0,1-25.22-52.76,291.14,291.14,0,0,1-8.61-28.76l-1.69-7.31-1.55-8.11-1.61-8.11-1.25-8.36a521.62,521.62,0,0,1-5.59-70.82c-.38-24.9.67-51,2.78-78.23s5.28-55.46,9-84.72c1-7.36,1.87-14.61,2.91-22.14l3.08-22.52L800.52,996c4.31-30.27,8.71-60.08,13.43-89.38,9.45-58.58,20.17-115.23,33.78-169q10.21-40.34,22.73-78.33c2.11-6.29,4.18-12.63,6.45-18.78l3.32-9.29c1.12-3.08,2.32-6.09,3.47-9.14l3.6-9.39,8.47-19.86,4.23-9.92c1.44-3.33,2.68-6.53,4.6-10.18l10.59-21.27c6.45-14.17,15.61-28.38,23.91-42.58l6.32-10.65c.53-.89,1.28-1.81,1.9-2.71l2-2.73,3.93-5.46,15.68-21.82,3.93-5.45c.67-.92,1.25-1.8,2-2.74l2.57-2.91,10.31-11.62,20.6-23.24,2.57-2.9a33.65,33.65,0,0,1,2.88-3l6.91-6.52,13.83-13,27.64-26.08c1-1,2.55-2.3,4.06-3.57l4.45-3.79,8.91-7.57,17.81-15.14,17.82-15.14,8.91-7.57,4.45-3.78,5.08-4.24,84.46-70.27L1416.55,71.76,1057.13,21.63c-4.86-.67-9.75-1.39-14.58-2L1028,17.77c-2.42-.3-4.83-.63-7.27-.91l-7.38-.67L998.6,14.84c-5-.39-10-.6-15-.9l-7.51-.42-3.75-.22-3.81-.09-15.27-.33c-2.55,0-5.08-.14-7.67-.09l-7.75.09-15.55.24-15.8.78c-10.46.35-21.28,1.47-32,2.36-5.32.37-10.84,1.17-16.29,1.81l-16.4,2-16.7,2.68-8.35,1.35-2.09.33-2.13.43-4.25.85-17,3.39L787,30c-1.43.32-2.89.68-4.33,1L774,33.08l-8.67,2.08-4.34,1c-1.45.35-2.88.67-4.37,1.11l-17.67,5-8.84,2.47c-3,.87-6,1.93-9,2.88l-18,5.86c-1.51.51-3,.94-4.52,1.51L694,56.69l-9.18,3.42-9.18,3.43c-3.08,1.18-6.1,2.19-9.23,3.58L647.71,75l-9.34,3.94-9.49,4.48-19,9-2.37,1.12c-.8.4-1.6.85-2.4,1.27l-4.81,2.56-9.6,5.12-9.61,5.13-4.8,2.56c-1.61.88-3.23,1.89-4.84,2.83L552.1,124.42l-4.85,2.86c-1.61,1-3.23,1.85-4.85,3l-9.72,6.47-19.45,13-1.21.81-1.21.89-2.43,1.79-4.85,3.58-9.7,7.16-9.7,7.16-2.42,1.79c-.81.6-1.62,1.17-2.41,1.86l-4.78,4-19.13,15.9-4.78,4c-.79.68-1.61,1.29-2.38,2l-2.34,2.17-9.34,8.68-18.68,17.35-18,18.77-9,9.38-2.25,2.35c-.72.81-1.42,1.67-2.13,2.5l-4.26,5L365.2,287c-5.74,6.63-11.17,13.61-16.52,20.64s-10.5,14.23-15.46,21.51a425.16,425.16,0,0,0-27,45.22c-16,31-27.63,63.64-33.62,96.37s-6.5,65.59-.7,97.31l1.12,5.94,1.33,5.89c.87,3.93,1.95,7.82,3,11.71s2.35,7.71,3.56,11.55c1.37,3.8,2.71,7.6,4.21,11.35s2.91,7.34,4.89,11.51l1.68,3.61,2,4.24q2.14,4.18,4.42,8.31c3,5.55,6.29,10.82,9.7,16.06.85,1.3,1.7,2.63,2.58,3.89l2.68,3.76c1.8,2.49,3.63,5,5.49,7.41a242.48,242.48,0,0,0,52.25,49.86,253.52,253.52,0,0,0,27.83,17.1,279.48,279.48,0,0,0,26.69,12.38c8.62,3.47,16.85,6.27,24.8,8.69,2,.59,4,1.21,5.89,1.73l5.77,1.58c3.74,1,7.52,1.91,11.11,2.71,14.55,3.32,27.72,5.38,39.89,6.92s23.34,2.45,33.13,3.08l27.09,1.48,13.55.72,3.38.17,3.39.09,6.78.17,27.11.65,6.78.15c2.26,0,4.51,0,6.77,0l13.56-.07c9-.06,18.06-.06,27.1-.21l27.07-.93,13.54-.49c2.25-.06,4.51-.2,6.76-.35l6.75-.43,27-1.74,6.75-.45,6.74-.61,13.48-1.25c9-.87,18-1.65,27-2.61l26.86-3.3,13.43-1.67c2.25-.26,4.47-.62,6.7-1l6.69-1,26.76-4.1,6.68-1,6.66-1.21,13.31-2.43L937,753.43l6.66-1.23c2.21-.41,4.44-.79,6.64-1.29A1573.81,1573.81,0,0,0,1159,693.6c2.14-.74,4.29-1.44,6.41-2.21l6.35-2.36,12.71-4.74,12.7-4.75,6.35-2.38,3.17-1.19,3.15-1.27L1235,664.47l12.56-5.13,11.86-5.06c15.12-6.52,28-12,38.74-16.17,1.43-.58,2.6-1,3.87-1.45l3.75-1.39,3.37-1.14c1.1-.37,2.3-.83,3.23-1.08,1.95-.57,4.08-1.33,5.66-1.69.85-.23,1.69-.47,2.54-.73s1.41-.29,2.11-.47c1.52-.44,2.49-.49,3.6-.76a6.86,6.86,0,0,1,1.35-.2,11.68,11.68,0,0,0,1.18-.22,3.22,3.22,0,0,0,.76,0c.24,0,.54-.14.6-.06.23.06.56-.12.47,0h0l0-.93.07-1.22,0-.61c.17-2.95-.18,3.26-.14,2.69a.33.33,0,0,0,.24,0h0s0,0,0,0v0h0v0a.31.31,0,0,0,.11.09s.08,0,.13,0a.88.88,0,0,0,.17.12c.24.12.56.35,1,.61a35.59,35.59,0,0,1,3.32,2.63,67.75,67.75,0,0,1,5,5,130.54,130.54,0,0,1,12.79,17,233.72,233.72,0,0,1,13.85,25c9.1,18.88,17.45,41.33,24.43,65.32,3.49,12,6.67,24.43,9.51,37.07l1,4.76.52,2.38.58,2.79,2.35,11.36,4.7,22.73,1.17,5.68,1.11,5.69,2.22,11.39,4.45,22.78,8.37,45.66q16.13,91.41,27.78,183.56,23.28,184.21,28.47,370.1Z"/><path class="b" d="M1681.42,1464.73c-2.61,2.52-3.55-3.9-5.35-5.64.84-8.5,1.33-18.37,4.59-17.53C1680.91,1449.31,1681.17,1457,1681.42,1464.73Z"/><path class="b" d="M1696.55,718.59a181.31,181.31,0,0,1-5.21-31.57,131.16,131.16,0,0,0-4.91-28.83c-3-12.54-5.39-17.73-7.51-21.15s-4.07-5.13-6.6-10.8c-11.31-37-26-74.28-46.4-111.4a448.84,448.84,0,0,0-35.79-55.18,375.79,375.79,0,0,0-48.29-52.55,323.05,323.05,0,0,0-63.42-44.54c-5.85-3.13-12-6.16-18.2-8.94s-12.45-5.33-18.75-7.67a289.64,289.64,0,0,0-38.34-11.28,296.35,296.35,0,0,0-38.78-5.85l-4.84-.39c-1.61-.12-3.17-.18-4.75-.26L1350,328l-2.36-.09-2.4,0c-3.2,0-6.39,0-9.58,0s-6.4,0-9.44.25a312.19,312.19,0,0,0-67.33,10.73c3.58-3.61-13.22.34-25.83,4,0-3,2.85-6.36,8.11-10a68.26,68.26,0,0,1,10-5.49c2-.93,4.08-1.86,6.3-2.8,1.09-.47,2.33-.91,3.55-1.36l3.8-1.35,9.74-2.06c3.38-.61,6.8-1.19,10.2-1.75l5.11-.81c.86-.13,1.68-.28,2.57-.39l2.66-.32c3.56-.42,7.11-.82,10.67-1.19,1.79-.17,3.52-.39,5.37-.5l5.53-.34q5.52-.31,11-.54c3.72-.1,7.55-.05,11.32,0s7.59.06,11.29.25,7.38.39,11.12.71,7.52.67,11.26,1.11,7.48,1,11.2,1.53,7.42,1.22,11.12,1.92A309.24,309.24,0,0,1,1438.44,331a316.31,316.31,0,0,1,41.12,17.65,333.64,333.64,0,0,1,36.73,22.05,372.72,372.72,0,0,1,59.43,51.45,454.34,454.34,0,0,1,43.72,54.71,574.15,574.15,0,0,1,33,54.73c19.29,36.31,34.22,72.11,47.24,108-4.47-1.92-5.72,2.27-5.43,9.52s2,17.57,3.62,28C1701.15,698.11,1703.63,719.59,1696.55,718.59Z"/><path class="b" d="M508,526.29l.24-.12h0l71.89-33.5h.05l0,0,.11,0,.19.09c.06,0,.13.11.18.06l.14-.11.23-.18A10.66,10.66,0,0,1,582,492a15.14,15.14,0,0,1,3.78-1.31,12.7,12.7,0,0,0-1.88.77l-.79.38a2.72,2.72,0,0,1-.46.21,5,5,0,0,0-.54,0c-.18,0-.37,0-.56.07l-.15,0h-.11q-36.72,17.12-73,34l-.05,0Z"/><path class="b" d="M300.53,405.59a323.13,323.13,0,0,1,18.32-40.27c4-7.42,8.42-15,13.13-22.4s9.75-14.72,14.85-21.67,10.27-13.56,15.28-19.59l3.73-4.4,3.7-4.12c2.42-2.67,4.75-5.21,7-7.58,4.42-4.74,8.38-8.82,11.69-12,1.66-1.6,3.16-3,4.48-4.12a22,22,0,0,1,3.45-2.59l16.29-19.42,8.27-9.82c.7-.81,1.38-1.67,2.1-2.44l2.19-2.32,4.4-4.64q8.85-9.34,18.2-19.05l2.36-2.44,1.18-1.23,1.22-1.14c1.64-1.51,3.28-3,4.94-4.58l10.15-9.35L478,180.77l2.71-2.46c.91-.85,1.85-1.52,2.78-2.3l5.68-4.54c7.65-6.09,15.66-12.48,24.1-18.92Q526,143.61,540,134l3.53-2.41c1.19-.82,2.37-1.47,3.57-2.21l7.27-4.39,15.12-9,5.55-1.15a50.2,50.2,0,0,1,5.22-.65c3.25-.25,5.95-.12,7.41.87-11.14,7.14-24.26,17-38.43,27-3.54,2.41-7.16,5.41-10.84,8.26l-11.2,8.76q-5.65,4.43-11.49,9L504,178l-11.86,10c-2,1.69-4,3.33-6,5l-5.92,5.53-11.89,11-6,5.51-3,2.75-1.49,1.38c-.49.47-1,1-1.46,1.47-7.76,7.9-15.51,15.74-23.2,23.44L430.34,247c-.95,1-1.85,2.05-2.78,3.06l-5.51,6.13L411.1,268.25l-5.41,5.91c-.9,1-1.81,1.93-2.68,2.94l-2.54,3.1-10,12.16c-6.59,8-13.23,15.54-19.22,23.21-12.1,15.26-22.83,29.63-31.86,42.42s-16.58,23.84-22.93,32.13a105.35,105.35,0,0,1-8.71,10.23A22.64,22.64,0,0,1,300.53,405.59Z"/><path class="b" d="M641,492.9c2.35-3.46,2.63-2.06,2.64-.36s-.16,3.65,1.5.53c1.26.69.19,3.34-1.48,5.51s-3.79,3.81-5.12,2.86c.19-1.31,1.5-3.44,2.5-5.27S642.59,492.81,641,492.9Z"/><path class="b" d="M492,1134c3.49-1.44,5.34,2.8,3.65,19.2C492.1,1154.72,490.23,1150.51,492,1134Z"/><path class="b" d="M1208.21,1713.94a135.91,135.91,0,0,0,21.92-5.91,101.45,101.45,0,0,0,12-5.43c6.38-3.34,11-5.63,24.38-7.93,4.21-2.19,8.53-4.57,12.91-6.92s8.86-4.89,13.39-7.55c9.06-5.23,18.37-10.85,27.74-17.13s18.82-13,28.11-20.43a337.68,337.68,0,0,0,27.12-24,321.33,321.33,0,0,0,24.53-27,341.58,341.58,0,0,0,20.72-28.66c6.22-9.68,11.71-19.41,16.6-29s9-19,12.63-28.12,6.44-18,9-26.86,4.58-17.66,6.32-26.4c.94-4.38,1.68-8.73,2.53-13.11s1.54-8.74,2.21-13.1c1.46-8.76,2.7-17.52,4.07-26.44s2.48-17.68,3.56-26.51,2-17.62,2.81-26.39,1.59-17.54,2.24-26.24,1.17-17.25,1.76-25.92c2.19-34.64,3.63-69.79,4.07-105s-.17-70.42-1.93-105.18-4.61-69.06-8.55-102.36c-4.62-38.42-11-77.2-17.87-114.35-.43-2.32-.81-4.65-1.26-7l-1.35-6.9-2.63-13.68c-1.66-9-3.51-18.17-5.49-27.56-.52-2.36-1-4.67-1.53-7.06s-1.08-4.76-1.61-7.13c-1.17-4.82-2.28-9.57-3.58-14.44-2.56-9.69-5.33-19.44-8.73-29.27q2,2.67,4.07,5.68c1.32,2,2.6,4,3.91,6.22.64,1.09,1.31,2.21,1.93,3.33l1.84,3.42c1.22,2.31,2.49,4.77,3.62,7.19a255.93,255.93,0,0,1,12.4,31.95c.88,2.77,1.74,5.58,2.59,8.45s1.62,5.64,2.4,8.51q2.22,8.43,4.34,17.35c2.93,11.84,5.28,24.33,7.64,37.08,9.23,51.06,13.32,107,16.15,151.12,1.32,8.65,2.42,16.41,3.79,23.37.67,3.49,1.37,6.77,2.09,9.87.37,1.55.73,3.06,1.11,4.52s.71,2.89,1.07,4.26q.36,10.85.71,21.5c.06,1.77.13,3.54.19,5.31s.07,3.54.11,5.3q.11,5.28.23,10.52c.43,14,.48,27.71.7,41.24,0,1.69,0,3.38.07,5.07v15.08c0,3.33,0,6.66,0,10,0,1.65,0,3.3,0,5l-.06,4.94c-.2,13.14-.18,26.11-.6,38.9q-.23,9.6-.46,19.08t-.74,18.85c-.12,3.12-.24,6.24-.36,9.34s-.33,6.21-.49,9.29q-.51,9.27-1,18.44c-.08,1.53-.17,3.06-.25,4.58s-.21,3.1-.32,4.65q-.3,4.65-.67,9.31t-.75,9.34q-.39,4.65-.85,9.35c-1.19,12.49-2.64,25-4.45,37.68a558,558,0,0,1-16.2,76.69,399.39,399.39,0,0,1-31.26,77.57,319.71,319.71,0,0,1-53.06,72.75,295.61,295.61,0,0,1-35,30.48,307.91,307.91,0,0,1-38.35,24.26,219.85,219.85,0,0,1-24.5,16.08c-4.11,2.4-8.24,4.51-12.39,6.67l-6.24,3.06-3.13,1.52-3.15,1.44c-16.81,7.76-34.09,14.52-52.9,22.42-5.89,1.33-11.78,2.54-13.57,1.58C1195,1725.52,1204.15,1718.11,1208.21,1713.94Z"/><path class="b" d="M1446.5,956.27c-1.15-4.79-2.44-10.94-3.62-17.46-.59-3.25-1.15-6.6-1.66-9.91s-1.06-6.58-1.46-9.7c-1.67-12.45-1.87-22.43,1.56-22a120.85,120.85,0,0,1-4.45-16.77c-.58-2.91-1.09-5.89-1.57-8.93-.23-1.52-.46-3-.69-4.6s-.5-3.1-.75-4.67c-1-6.3-1.93-12.84-3.08-19.61s-2.63-13.88-4.61-21.32c-1.68-10.7-3.79-21.94-6.72-33.71l-2.36-8.93c-.9-3-1.79-6-2.74-9.11s-2-6.17-3.15-9.29c-.59-1.58-1.19-3.15-1.78-4.74s-1.22-3.26-2-4.93a215.23,215.23,0,0,0-20.67-38.8,193.12,193.12,0,0,0-29.81-34.4c-2.86-2.59-5.83-5.09-8.8-7.61s-6.12-4.85-9.29-7.16l-4.81-3.41c-1.61-1.15-3.2-2.27-4.93-3.35l-4.94-3.19c-1.59-1-3.18-2-4.78-2.91a320.2,320.2,0,0,0-38.77-19.56c-3.24-1.38-6.47-2.68-9.72-4s-6.47-2.52-9.68-3.69-6.45-2.38-9.63-3.46l-4.8-1.65c-1.61-.55-3.2-1-4.8-1.55l-19.26-6.08c-6.5-1.84-13-3.61-19.61-5.41a729.79,729.79,0,0,0-80.83-16.23l-20.67-2.61c-6.91-.76-13.85-1.31-20.79-2l-5.22-.47c-1.73-.15-3.48-.22-5.22-.34l-10.45-.62-10.47-.59-10.48-.29a783.6,783.6,0,0,0-83.94,2c-27.9,2.14-55.62,5.62-83,10.29-4.69-2-1.6-4.24,4.07-6.36s13.88-4,19.23-6.08l32.17-4.27q7.83-.91,15.44-1.91c2.54-.31,5.06-.71,7.57-1l7.52-.81L973,571.4c4.9-.52,9.78-.9,14.63-1.37l7.27-.67c2.41-.22,4.82-.49,7.23-.61l14.44-.92,7.21-.44c2.4-.15,4.81-.16,7.22-.24l14.48-.34c4.84-.15,9.7,0,14.58.1s9.8.26,14.75.44,9.92.7,14.94,1.11l7.57.68,3.81.37,3.82.5c5.1.7,10.26,1.45,15.47,2.28,2.6.43,5.23.78,7.85,1.34l7.93,1.65c3.48.26,7,.55,10.49.87l5.27.5,5.28.7c7,1,14.15,2,21.27,3.24s14.23,2.87,21.38,4.44c1.79.37,3.57.81,5.35,1.28l5.34,1.4,10.69,2.88,5.35,1.48c1.78.53,3.54,1.11,5.31,1.67l10.62,3.44c3.54,1.18,7.06,2.3,10.62,3.58s7.11,2.57,10.74,4c7.19,2.73,14.56,5.85,21.92,9.13s14.85,7,22.36,11.07,15,8.54,22.42,13.32l5.74,3.9,3,2.08c1,.69,1.92,1.41,2.87,2.11l5.7,4.27c1.89,1.44,3.7,3,5.53,4.46A235.16,235.16,0,0,1,1374,674.21l4.67,5.15,2.32,2.58c.74.88,1.47,1.78,2.2,2.66l4.35,5.35c1.43,1.79,2.73,3.68,4.09,5.51a226,226,0,0,1,14.57,22.83,262.67,262.67,0,0,1,11.59,23.84c.84,2,1.75,4,2.5,6s1.48,3.84,2.21,5.76,1.39,3.72,2,5.55,1.28,3.66,1.91,5.49c1.17,3.6,2.32,7.19,3.39,10.7q.77,2.63,1.52,5.22l.76,2.6.69,2.55c1.77,10.83,3.72,23.45,5.65,36.87,1,6.74,1.94,13.57,2.91,20.63s2.1,14.4,3.28,21.92c4.46,30.09,9.41,63.45,14.12,95.25C1457.81,967,1450.23,962,1446.5,956.27Z"/><path class="b" d="M1034.14,602.61c0,1.29,0,2.58,0,3.88l-9.68.42q-4.83.32-9.63.55l-9.58.41c-1.6.07-3.19.09-4.78.19l-4.76.29c-6.35.37-12.68.66-19,1l-18.83,1.38-4.69.34-4.67.49-9.31,1-9.28,1.05c-3.08.43-6.15.92-9.21,1.4l-9.17,1.52c-3,.53-6.09,1-9.1,1.73q-9,2-18,4.29c1.87-1.74,5.12-3.45,9.19-5.15,2-.85,4.26-1.7,6.62-2.54s4.86-1.7,7.43-2.43c10.26-3,21.42-6.13,28.93-8.94,4.79-.36,9.42-.75,13.94-1.17s8.93-.6,13.23-.93l12.63-.91L988.6,600q6-.19,11.74-.26c3.87,0,7.68.2,11.46.39s7.52.46,11.24.82c1.86.15,3.71.42,5.56.71S1032.3,602.27,1034.14,602.61Z"/><path class="b" d="M852.86,593.85c1.5,1.3-1.12,2.87-6,4.84a195.14,195.14,0,0,1-19.9,6.14c-7.75,2.29-16.09,4.52-23.34,6.33-7.2,2-13.29,3.58-16.6,4.27a115.37,115.37,0,0,1,15.05-6.81c5.26-1.8,10.68-3.36,16.21-4.9l8.39-2.3c2.85-.7,5.71-1.42,8.6-2.19s5.8-1.59,8.73-2.49S849.87,594.8,852.86,593.85Z"/><path class="b" d="M724.43,1480.91c4.32-2.17,17.11-5.68,32-8.32s32.06-4.46,46.28-2.1c15.39-3.87,31.38-7.61,48-11.7s33.7-8.58,51.27-14c8.8-2.66,17.69-5.62,26.67-8.8l6.75-2.45,6.76-2.59c2.26-.85,4.55-1.8,6.83-2.74l6.88-2.83a404.59,404.59,0,0,0,54.26-28.11c-.71,1.89,1,2,4.12,1a81.44,81.44,0,0,0,12.36-6c2.39-1.39,4.83-3,7.24-4.51s4.77-3.14,6.91-4.76a90.08,90.08,0,0,0,9.78-8c-2.33-.94-7.16,3.28-11.25,6.8s-7.52,6.08-6.69,2c22.28-15.55,43.8-32.19,62.25-49.75s33.71-36,43.66-53c2.89-.4-2.12,6.66-1,7.9.93,0,3.07-2.41,5.6-5.69s5.25-7.66,7.69-11.12c.19.85-1.8,4.63-4.75,9.42-1.44,2.44-3.26,4.94-5.11,7.53l-2.82,3.83-1.41,1.87-1.44,1.74c-3.81,4.54-7.16,8.31-8.76,9.37-.79.55-1.11.49-.77-.39a50.85,50.85,0,0,1,3.07-5.41c-1,1.21-1.88,2.31-2.67,3.33s-1.53,1.9-2.19,2.76c-1.32,1.72-2.39,3.25-3.48,4.79a77.22,77.22,0,0,1-9.13,10.78c9.52-8.75,9.42-6.11,10.57-5.12.57.48,1.44.5,3.94-1.72a72.53,72.53,0,0,0,5.14-5.23c2.22-2.46,4.9-5.89,8.31-10.29.23,1.2-3,5.46-6.19,9.57s-6.36,7.82-5.61,8.58c-1.15,1.08-2.19,2-3.16,2.78s-1.9,1.37-2.74,1.9a28.23,28.23,0,0,1-4.51,2.29,52,52,0,0,0-8.7,3.94c-1.63,2.06-4,4.76-6.88,7.84s-6.38,6.39-10.12,9.9c-7.55,6.92-16.25,14.37-24.16,20.61-15.75,12.59-27.94,21.34-17.84,18.36-5.13,4.73-12.72,9.56-21.51,14.19-4.42,2.28-9.08,4.64-14,6.78l-7.36,3.28-7.5,3.12c-5,2.13-10,4-14.86,6s-9.59,3.82-14,5.8-8.56,3.79-12.23,5.76a57.75,57.75,0,0,0-9.6,6c-19.37,6.82-36.49,12.38-52.94,17.37-8.22,2.53-16.27,4.81-24.33,7.1S855,1465,846.65,1467a515.43,515.43,0,0,1-53.89,10.18c-9.93,1.29-20.46,2.36-31.78,3.07S737.53,1481.2,724.43,1480.91Z"/><path class="b" d="M1153.84,1257.1c2-3.1,4.05-6.17,6-8.81l1.41-1.9c.44-.62.86-1.2,1.27-1.75a31.65,31.65,0,0,1,2.25-2.74c2.66-2.87,3.93-2.29,1.69,5.29a44.49,44.49,0,0,1-2.64,4.67c-.82,1.31-1.58,2.39-2.27,3.29a11.81,11.81,0,0,1-3.46,3.3C1156.17,1259.44,1155,1258.35,1153.84,1257.1Z"/><path class="b" d="M1171.1,1209c3.15-11.18,5.17-15.72,7-19.66,1-2,1.88-3.74,2.84-6.13a29.41,29.41,0,0,0,1.32-4.19c.42-1.62.82-3.49,1.22-5.72a27.71,27.71,0,0,1,.16,5.12,37.26,37.26,0,0,1-.78,6.2c-.44,2.15-1,4.38-1.61,6.58a51.55,51.55,0,0,1-2.13,6.36,56.91,56.91,0,0,1-4.81,9.58C1172.85,1209.27,1171.58,1210.07,1171.1,1209Z"/><path class="b" d="M1188.13,1103.69c-2.64-1.32-4.31-12.2-7.71-25.4s-8.77-28.48-15.4-38.76c1.24.11,3.08,2.54,5.31,6.48,1.07,2,2.22,4.4,3.43,7.07s2.38,5.7,3.55,8.91,2.35,6.63,3.37,10.19c.53,1.77,1.08,3.55,1.57,5.36s1,3.63,1.43,5.44.89,3.63,1.3,5.43.8,3.57,1.19,5.31C1186.84,1097.24,1187.59,1100.57,1188.13,1103.69Z"/><path class="b" d="M1143.85,1002.47c-1-1.07-2-2.06-3-3s-2-1.77-2.93-2.63c-1.92-1.73-3.87-3.4-6-5.39a183.4,183.4,0,0,1-16.42-18.23,41,41,0,0,1,5.59,3.69,81.06,81.06,0,0,1,6.63,6A148,148,0,0,1,1143.85,1002.47Z"/><path class="b" d="M640.3,583a163.15,163.15,0,0,1-21.5-11.54,53.24,53.24,0,0,1-6.48-5,17.24,17.24,0,0,1-3.67-4.4c4.61,3.19,12.49,7.26,19.28,11S640.35,580.47,640.3,583Z"/><path class="b" d="M866.59,1257.32c-17.73,4.35-36.7,7.43-55.36,10.15s-37.07,5.1-54.29,8.46a331.7,331.7,0,0,1-60.49-6.51,285,285,0,0,1-55.83-17.21,217.45,217.45,0,0,1-43-24.32,195.38,195.38,0,0,1-16-13.13l-1.82-1.64c-.57-.57-1.14-1.13-1.73-1.68l-.89-.82-.84-.85c-.56-.57-1.13-1.12-1.7-1.67s-1.09-1.14-1.65-1.7-1.14-1.09-1.64-1.69c-1-1.16-2.19-2.25-3.19-3.43-1.46-4.25-3.28-8.3-5.12-12.53-.9-2.13-1.94-4.24-2.78-6.4-.45-1.07-.94-2.13-1.45-3.18s-.82-2.19-1.28-3.27c-3.5-8.65-6.3-18-6.33-27.78.18-5.84.19-11.69.87-17.9l.17-2.3c0-.39,0-.77.09-1.16l.16-1.18c.21-1.58.4-3.16.56-4.74l.12-1.18c0-.4.13-.81.19-1.21l.39-2.43.35-2.43c.12-.81.19-1.61.39-2.45.7-3.33,1.08-6.6,1.94-10l1.06-5.1q.69-2.6,1.3-5.19l.61-2.61.75-2.63q.75-2.64,1.44-5.3c.51-1.77,1.12-3.57,1.65-5.36s1-3.58,1.69-5.4c1.26-3.62,2.37-7.26,3.82-10.92.69-1.84,1.29-3.68,2-5.52l2.22-5.54,1.09-2.79,1.21-2.78,2.37-5.59,2.57-5.58c.87-1.87,1.65-3.76,2.61-5.61a439.45,439.45,0,0,1,24.71-44.49A463.1,463.1,0,0,1,638,938.46l4.14-5,2.09-2.52,2.31-2.57q4.63-5.17,9.22-10.41c6.44-6.69,12.68-13.62,19.45-20.07,3.32-3.27,6.58-6.64,10.08-9.75l10.32-9.57,10.66-9.25,2.66-2.33,2.74-2.22,5.5-4.46,5.48-4.48c1.83-1.49,3.75-2.86,5.62-4.31,3.78-2.83,7.49-5.77,11.31-8.56l11.58-8.22c1-.69,1.93-1.39,2.9-2.06l3-2,5.93-3.92,7.35-3.87,7.48-3.6,7.47-3.62,1.87-.9,1.91-.84,3.81-1.68c20.2-11.12,40.66-21.94,62.63-31.64a419.17,419.17,0,0,1,71.23-24.4c53.09-13,113.92-15.7,173-7.48a482.63,482.63,0,0,1,86.33,20.14l10.34,3.43,5,1.8c1.68.6,3.17,1.22,4.77,1.82,6.21,2.42,12,4.85,17.08,7.3s9.59,4.9,13.47,7.26c.91.61,1.83,1.19,2.76,1.76.47.29.82.59,1.25.87l.3.22.2.15.36.27.37.26a4.58,4.58,0,0,1,.43.34l.83.69.86.65c.29.21.53.48.8.71a8.82,8.82,0,0,0-1.4,2.62,1.63,1.63,0,0,0,.31,1.3,4.45,4.45,0,0,0,1.66,1.43,45.17,45.17,0,0,1,4.54,6.25,48.37,48.37,0,0,1,3.16,6.84c.18.61.37,1.19.58,1.77s.31,1.2.5,1.77c.07.3.19.57.25.88l.18.9.21.87a3,3,0,0,1,.11.45l.12.54.11.54.19.68.37,1.37.74,3.05.19.76.18.84.37,1.67.38,1.66.36,1.82.37,1.81c.13.6.26,1.19.37,1.87l.73,3.91c.47,2.78,1,5.47,1.41,8.51.48,2.89.93,6.12,1.4,9.27l1.39,10.14q1.36,10.9,2.75,21.82c1,7.31,1.7,14.67,2.51,22q.61,5.5,1.22,11c.38,3.68.68,7.37,1,11.06s.7,7.38,1.06,11.08l.54,5.54.44,5.57q.93,11.11,1.85,22.31.76,11.21,1.63,22.46c2,30.07,3.74,60.6,5.31,91.92.18,3.82.43,7.61.71,11.38q.24,2.82.46,5.63c.14,1.87.27,3.74.41,5.6.54,7.46,1.17,14.85,1.64,22.22s.55,14.73.43,22.11c0,3.69-.27,7.38-.59,11.08s-.76,7.41-1.32,11.12c1,8,1.65,16.49,2.25,25.36.27,4.43.64,9,.75,13.55s.29,9.26.43,14c.51,18.87.26,38.55-.15,57.82-.58,4.52-1.22,9-1.85,13.6s-1.3,9.23-2,14c-1.36,9.48-2.82,19.16-4.42,28.79-3.19,19.26-7,38.22-11.46,55a345.22,345.22,0,0,1-14.34,43.24c-2.44,6-4.85,11.29-7.14,16.13s-4.44,9.22-6.45,13.13c-4.68,3.66-9.12,7.3-13.77,11.09s-9.48,7.66-14.82,11.57a176.26,176.26,0,0,1-39.41,22.14c-22.29,8.91-49.06,16.48-79.2,23.12q-11.31,2.49-23.25,4.87l-12,2.33-11.84,2.2c-15.7,2.82-31.08,5.22-46,7s-29.4,2.81-43.19,3a264.24,264.24,0,0,1-39-2.19,187.61,187.61,0,0,1-34-7.76l-2-.63c-.66-.22-1.3-.5-2-.74l-3.9-1.47-1-.37-1-.42-1.92-.84c-1.29-.57-2.59-1.08-3.87-1.66-5.09-2.47-10.21-5-15.19-8-20-11.63-39-28.38-55.83-48.52a307.26,307.26,0,0,1-42.48-69,355.21,355.21,0,0,1-14.67-38.44l-.79-2.43-.71-2.45-1.44-4.89c-1-3.25-1.75-6.54-2.65-9.78s-1.56-6.55-2.34-9.81q-1-5.2-2.07-10.38a548,548,0,0,1-9.68-84,74.86,74.86,0,0,1-1.55-7.48c-.41-2.45-.74-4.86-1-7.23s-.5-4.73-.69-7.08-.22-4.75-.31-7.14c-.14-4.81-.23-9.72-.43-15s-.2-10.9-.61-17.06c4.39-33.14,9.31-82.1,14.87-133.64,2.73-25.7,5.41-52.18,7.59-76.51s4-46.48,5.34-64.73c6.24-20,11-47.4,16.4-77,1.35-7.37,2.74-14.9,4.14-22.51s3-15.21,4.53-22.86,3.29-15.22,5.1-22.71q1.38-5.61,2.81-11.15c.95-3.7,1.92-7.37,3-10.95,6.4-22.63,14.32-43.38,21.12-62.66q1.29-3.6,2.49-7.17c.39-1.19.79-2.37,1.18-3.54s.8-2.33,1.19-3.49c1.56-4.63,3-9.19,4.24-13.71s2.48-8.88,3.42-13.26,1.69-8.71,2.32-12.95q2.6-7.16,5.22-14.36t5.38-14.29l1.33-3.59,1.4-3.55q1.38-3.56,2.78-7.12l2.76-7.14,5.11-12.1q2.6-6.13,5.19-12.3l2.6-6.17c1-2.11,2.06-4.31,3.09-6.47l12.55-26.09L876.75,503l3.7-6.57,4.47-6.69q4.46-6.69,8.94-13.39l4.48-6.71,2.24-3.36,1.12-1.68.56-.84.71-.88,11.46-14.11,11.5-14.15,2.88-3.55c.49-.59.94-1.17,1.47-1.78l1.88-1.94,7.54-7.77L954.83,404l7.58-7.8,3.8-3.91.48-.49.6-.55,1.2-1.11,2.41-2.21,38.65-35.47,2.43-2.23,1.25-1.13,1.4-1.25,5.63-5,11.27-10q11.33-10,22.66-20l11.38-10.05,12.55-10.95,25.55-22.25,25.91-22.5q14.22-12.24,28.49-24.49l28.76-24.67,29.65-25.27-10-4.83-5-2.44-1.24-.62c-.2-.1-.43-.2-.6-.3l-.46-.28-1.84-1.13c-4.76-3-10.34-6.17-13.37-9-1.77-1.45-3.65-2.92-5.32-4.38l-3.8-4.19-1.9-2.12a4.87,4.87,0,0,1-.74-1l-.63-1c-.83-1.36-1.66-2.73-2.5-4.09a7.36,7.36,0,0,1-.58-1.05l-.37-1-.73-2-.74-2-.37-1a6,6,0,0,1-.18-1l-.63-3.92-.17-1-.08-.48v-.48l0-1.88c0-1.26,0-2.52,0-3.76.18-1.21.35-2.41.5-3.61l.21-1.79c.11-.59.29-1.16.43-1.73.28-1.15.55-2.29.79-3.42s.73-2.19,1-3.28a28.75,28.75,0,0,1,1.06-3.17c.42-1,.81-2,1.17-3l.27-.75.33-.72.64-1.44c1.56-3.82,3.34-7.26,4.74-10.4,0-.69,0-1.39.08-2.12s.24-1.44.39-2.18l.06-.28v-.1s.06,0-.08,0l-1.11-.14-4.41-.58-8.8-1.15-17.34-2.28-16.88-2.17-16.46-2-8.17-1-8.06-1-16-1.85-4-.46-3.92-.42-7.83-.83-7.86-.84-3.93-.41L1048.4,64l-15.54-1.47-3.91-.36-3.85-.32-7.73-.63-7.77-.61-3.9-.3-3.89-.23-15.68-.85c-1.32-.06-2.63-.15-4-.19l-4-.06-8.06-.09c-5.41,0-10.79-.18-16.36.07-2.39,1.58-2.09,3.81-10.11,4-3-.15-6.14-.24-9.43-.29-1.64-.05-3.34,0-5.08,0l-5.29.2c-7.2.34-14.88.71-23,1.69S884.16,66.49,875.31,68l-13.37,2.14c-1.13.19-2.25.35-3.39.57l-3.43.67-6.9,1.35-13.89,2.7L820.26,78.6l-7,1.55c-2.34.5-4.67,1-7,1.61q-7.07,1.76-14.05,3.42L785.2,86.8c-2.31.52-4.65,1.2-7,1.77q-6.93,1.79-13.71,3.4c-2.26.56-4.48,1-6.74,1.61l-6.71,1.73Q744.42,97,738,98.4a699.52,699.52,0,0,0-87.85,41.68c-7.35,4.25-14.68,8.4-22.06,12.76l-22.3,14c-.94.59-1.87,1.15-2.81,1.77l-2.81,1.93-5.65,3.86-11.37,7.75L577.41,186l-5.75,4.23-11.58,8.51-5.85,4.28-1.46,1.07c-.49.37-1,.77-1.47,1.16l-2.93,2.35q-5.85,4.67-11.83,9.43l-6,4.76c-1,.8-2,1.57-3,2.4l-3,2.58L512.48,237.2l-6.13,5.24c-1,.89-2.07,1.72-3.08,2.66l-3,2.87L487.9,259.5l-6.27,5.84-1.57,1.47-1.54,1.57-3.1,3.15-12.55,12.74c-1.06,1.07-2.13,2.14-3.19,3.22l-1.61,1.62c-.54.52-1.06,1.08-1.57,1.67l-6.24,6.94L437.52,311.8c-2.2,2.31-4.21,4.89-6.28,7.42L425,326.88l-6.36,7.74c-2.12,2.61-4.32,5.17-6.39,7.89q-6.28,8.08-12.49,16.63c-4.15,5.68-8.23,11.52-12.16,17.57a364.41,364.41,0,0,0-22,38.56c-3.52,11.27-7.3,24-10.56,38a296.23,296.23,0,0,0-7.1,45.34,238.5,238.5,0,0,0-.45,24.74,199.57,199.57,0,0,0,2.67,25.56,172.29,172.29,0,0,0,6.48,25.74c.73,2.12,1.54,4.22,2.32,6.34s1.72,4.19,2.58,6.29c.44,1,.87,2.07,1.42,3.19l1.65,3.43c.69,1.4,1.35,2.82,2.09,4.19l2.27,4.12,2.34,4.09c.8,1.34,1.66,2.65,2.5,4,1.71,2.62,3.41,5.28,5.28,7.73s3.69,5,5.69,7.4,4,4.8,6.16,7.07a162.38,162.38,0,0,0,13.35,12.92,170.54,170.54,0,0,0,14.24,11c4.84,3.36,9.7,6.28,14.56,9,2.41,1.29,4.86,2.64,7.25,3.78l3.61,1.74,3.56,1.61a204,204,0,0,0,27.41,9.84A266.8,266.8,0,0,0,522.08,691c7,.68,13.62,1.09,19.83,1.34,3.1.12,6.12.21,9,.25l8.09,0,26,2.26,7,.59c2.36.2,4.74.29,7.14.44l14.65.83,15,.87c2.53.14,5.08.32,7.63.43l7.66.25c10.24.35,20.55.73,30.74,1.17,40.7,1.07,79.35,1.73,103.49,4.41l15.67-.9,7.79-.45c2.59-.15,5.2-.26,7.79-.51,10.38-.89,20.85-1.81,31.67-2.85l8.19-.81c2.74-.34,5.51-.72,8.31-1.09,5.6-.75,11.31-1.55,17.18-2.41S886.82,693,893,692s12.54-2.4,19.11-3.72c7.94-.75,13.77-.64,20.11-.73,3.18,0,6.45-.25,10.18-.63s7.92-1,12.87-1.9a126.29,126.29,0,0,1,14.94-5.74c1.47-.48,3-1,4.59-1.44l2.43-.72,2.48-.79q5.06-1.59,10.73-3.19,8.41-1.2,17.44-2.67l9.14-1.53,2.32-.4,2.33-.48,4.7-1q9.45-2,19.36-4.17l10-2.26,5.06-1.17c1.7-.4,3.38-.88,5.09-1.32q10.18-2.68,20.7-5.6l10.56-2.95,5.33-1.51c1.78-.51,3.54-1.1,5.31-1.65q10.65-3.37,21.47-6.92c7.2-2.4,14.5-4.66,21.67-7.41L1172.6,624l10.84-4.12c3.61-1.4,7.15-2.95,10.73-4.42l21.3-9c3.51-1.51,7.1-3,10.51-4.55l10-4.55c13-6,24.63-11.48,35.09-16.18s19.7-8.63,27.76-11.69c4.38,1.36,10.33-.64,15.51-1.78l2-.51,1.84-.31a31.12,31.12,0,0,1,3.56-.41,15.41,15.41,0,0,1,3,.37,8.3,8.3,0,0,1,1.36.43,7.57,7.57,0,0,1,1.13.82c1.08-.11,2.19-.31,3.25-.44s2-.12,3-.24a11.73,11.73,0,0,1,1.59-.09l1.62-.05c1,0,2.06,0,3.08,0,2.07,0,4.14.25,6.23.47s4.15.66,6.25,1.1,4.15,1.05,6.2,1.76c.53.13,1,.37,1.53.54s1,.34,1.57.59,1.08.45,1.63.66l1.64.75a70.11,70.11,0,0,1,6.8,3.58c1.17.63,2.33,1.45,3.52,2.17s2.39,1.57,3.59,2.48c9.65,6.94,19.89,17,29.55,29.56a239.44,239.44,0,0,1,14.08,20.38c4.5,7.33,8.85,15,12.93,23.15a402.83,402.83,0,0,1,21.62,52,499.47,499.47,0,0,1,15.48,56.67c.5,2.42,1,4.84,1.48,7.27l.72,3.66.74,4q1.42,8,2.86,16c1.84,10.64,3.73,21.24,5.21,31.89s3,21.24,4.33,31.84,2.32,21.2,3.3,31.76c-5.17,15-8.06,34.35-11.39,51.4a150.38,150.38,0,0,1-6,23.09c-2.44,6.58-5.4,11.78-9.29,14.77-.29,7.11.5,16.59.69,25.19s.12,16.28-1.66,19.75c-4.41-2-3.83,8.51-6,12,.09,6.2.08,13.13.22,20.59s.32,15.47.62,23.83.53,17.13,1,26.06c.2,4.47.43,9,.7,13.53s.54,9.11.81,13.7c1.06,18.32,2.82,36.71,4.85,53.87,1.06,8.57,2.3,16.83,3.74,24.59s2.93,15.06,4.73,21.68c3.72,6.41,7.5,13.2,11.21,19.09s7.25,10.91,10.71,13.73,6.75,3.47,9.81.62a20.19,20.19,0,0,0,4.41-7,73.23,73.23,0,0,0,3.91-13.26c13.63,1.93,26.72-14.94,38.7-15.56,6-.29,11.71,3.52,17.1,15.9,2.63,6.2,5.13,14.55,7.52,25.61,1.19,5.52,2.35,11.73,3.48,18.68s2.06,14.65,3,23.17c13.4,20.45,22.11,43.83,38.19,31.74.71-4.31,1.49-8.37,2.33-12.27s1.66-7.65,2.55-11.33c1.77-7.38,3.67-14.51,5.5-22.19.91-3.85,1.81-7.82,2.67-12s1.58-8.66,2.28-13.43c1.38-9.55,2.5-20.43,3.11-33.41,3.3,10.52,3.29.39,6.42-.54-.58-12.15-2.14-27.3-2.84-39.79s-.77-22.31,2.07-23.83c.56,7.61,1.26,14.38,2,20.49s1.45,11.57,2.28,16.55c1.66,10,3.57,18,5.55,25.58s3.84,14.72,5.66,22.83c.9,4,1.78,8.35,2.59,13.08s1.58,9.88,2.16,15.65c7.78,25.23,16.39,32.69,24.6,38.43s16,9.81,22.21,28.51c-.41,7.64-.83,12.07-.93,16.76a113.79,113.79,0,0,0,1.37,18.29c9.06,9.53,10.68-12.71,17.53,16.85,2.39-5.36,3.22-11.82,3.43-19.6s-.16-16.9-.46-27.55c3.2-4.54,5.66-11.74,7.6-20.8,1-4.54,1.82-9.53,2.56-14.89s1.28-11.09,1.79-17.08.93-12.24,1.3-18.66.74-13,.95-19.66c.47-13.29.87-26.85,1.42-39.87-6.48-76.24-9.49-139.7-13.69-200.4s-9.74-118.54-22.86-182.68c3.63-2.52,3.07-15.57.62-31.05a332.93,332.93,0,0,0-11.24-45.47c.94-11.3,9.23-6.07,6.56-25.6-6.82-15.39-4.2,6.33-7.64,7.66-1.8-5.21-3.92-12.2-6.07-20-.53-1.95-1.07-4-1.63-6-.58-2.23-1.17-4.5-1.77-6.78-1.22-4.71-2.47-9.51-3.7-14.27-4.86-19-9.59-37.55-10.58-47.13-9.53-21.08-20.75-52.61-36.24-85.91a516.65,516.65,0,0,0-26.38-49.91,330.25,330.25,0,0,0-32.05-44.55,178.6,178.6,0,0,0-10.62-20,234.67,234.67,0,0,0-16.83-23.76,263.17,263.17,0,0,0-25.29-27.17,277.33,277.33,0,0,0-36.87-29c-1.79,1.59-6.18.89-11.83-.6-2.85-.72-5.93-1.7-9.22-2.66s-6.63-2-10-2.87A317.78,317.78,0,0,0,1397.82,352c-10.54-2.36-20.92-4.12-31.14-5.41s-20-2-30-2.2l-7.39-.19c-2.4,0-4.78.06-7.15.11l-7.1.17c-1.17,0-2.37.06-3.51.13l-3.41.22c-4.52.33-9.06.64-13.48,1s-8.59,1-12.85,1.55a420.62,420.62,0,0,0-46.36,9.2c-14.09,3.7-27.18,7.78-39.57,12.07l-9.08,3.26c-1.56.56-3,1.1-4.42,1.65L1178,375.3l-4.36,1.69q-2.1.83-4.2,1.68c-2.8,1.12-5.7,2.29-8.34,3.4L1153,385.5l-7.87,3.43L1130,395.64q-7.49,3.33-15.24,7l-7.86,3.81-4,2-4.09,1.92c-26,5.91-64.11,19.22-104.84,31.19q-10,1.24-20.43,2.81L963,446c-3.56.55-7.2,1-10.85,1.51q-10.95,1.53-22.3,3.35c-3.76.65-7.6,1.13-11.47,1.65l-11.66,1.65L894.91,456c-2,.3-4,.64-6,.92l-6,.77q-12.09,1.57-24.43,3.39c-2.06.28-4.11.65-6.19.87l-6.24.75-12.54,1.57-12.62,1.68-3.17.44-3.18.34-6.38.7q-12.78,1.43-25.66,3c-8.61.84-17.24,1.68-25.88,2.61l-6.48.71c-2.16.23-4.32.51-6.49.65l-13,1.11-13,1.19-6.48.63c-2.16.22-4.32.31-6.48.48q-13,.9-25.83,2c-2.14.16-4.28.41-6.42.5l-6.41.36-12.76.79-12.68.87-3.16.23-3.14.13L628,483q-12.53.6-24.81,1.36a129.93,129.93,0,0,0-30.28-8l-26.77-3.7L542,472l-2.81-.46-.47-.08-.4-.05a1.44,1.44,0,0,0-.41,0h-.09s0,0,0,0,0,0,0,0l-.12.36c-.64,1.91-1.31,3.82-2,5.71l-.53,1.41-.47,1.29-1,2.59q-1,2.49-2,5-.95,2.33-2,4.64c-.64,1.46-1.21,2.8-1.88,4.19s-1.25,2.61-1.87,3.91-1.25,2.47-1.87,3.64c-1.05,2.12-2.42,4.42-3.4,6.16l-.83,1.38c-.29.46-.6.93-.81,1.3-.48.8-1,1.58-1.52,2.36a75.94,75.94,0,0,1-5,6.76c-.79.91-1.18,1.38-1.78,2l-.61.64-.53.5-.25.24-.2.17,0,0,0,0h0c-.39.3,3.38-2.66,1.77-1.4l-.06.06-.14.11c-.37.31-.78.61-1.23.92l-.81.54-.38.23-.1.06h0l-.15.09.26-.14,59.07-27.52h0l.06,0c.09.13.12-.16.16-.32a11.7,11.7,0,0,1,1.6-4.07,20,20,0,0,1,5.37-5.55c.86-.63,1.65-1.15,2.31-1.62.33-.24.63-.47.91-.7l.38-.35c.19-.07.16-.29.46-.28s.59-.34.53-.81c-.09-.29,0-.39.1-.57s.12-.35.17-.54a18.8,18.8,0,0,0,.44-3c.51-.58-1.43-3-1-3.81,2.35-1.72,4.61-4.53,7.78-7.85a63,63,0,0,1,5.21-4.89,30.09,30.09,0,0,1,5.65-3.8,5.21,5.21,0,0,1,3.31-.57,7.77,7.77,0,0,1,2.36,1,3.86,3.86,0,0,0,2.37.65,10.42,10.42,0,0,0,4.32-2c9.66-6.32,24.21-17.12,56.86-38.95,2.12.31,6.56-1.3,12.32-3.51l9.41-3.67,5.1-2c1.71-.62,3.44-1.22,5.16-1.81s3.41-1.13,5.07-1.64l1.57-.48a1,1,0,0,1,.25-.05c.24,0,.1.27-.57.92-1.35,1.29-4.85,4.09-11.47,9,2-1,11.63-7.65,7.44-4.12-1.7,1.66-6.63,5-9.76,7.32,11-7.33,9.87-6.9,17.55-11.66,1.24-1.71,3-3.39,3.87-4.48s1-1.52-1.87,0c2.79-2.18,7.4-5.48,8.71-6.77l-7.33,2.33c-2.5.82-5,1.6-7.46,2.49-4.95,1.75-9.8,3.48-14.55,5.36-9.47,3.65-18.45,7.64-26.68,11.49s-15.71,7.77-22.34,11.39-12.41,7-17.4,9.92a90.54,90.54,0,0,1-11.44,5.82c-3.1,1.34-5.83,2.29-8.51,3.53A31.76,31.76,0,0,0,596,455a28.19,28.19,0,0,0-6.58,8.6c-.64.14-.66-1.36-.66-3s.05-3.46-.54-3.81a14.1,14.1,0,0,1-2.91,4.14,7.22,7.22,0,0,1-2.72,1.5,19.15,19.15,0,0,0-3,1.28,9.26,9.26,0,0,0-3,2.93c-1.31,2-1.83,4.86-2.08,7.37-.12,1.28-.21,2.46-.35,3.5a8.48,8.48,0,0,1-.28,1.45,4,4,0,0,1-.22.64c0,.1-.09.19-.14.29s0,.25,0,.37a2,2,0,0,1-.57,1.12c-.27.3-.81.42-1,.79-.55.59-1.06,1.18-1.63,1.76-1.12,1.16-2.37,2.34-3.59,3.76a18.57,18.57,0,0,0-3.22,5.11,10.08,10.08,0,0,0-.46,6.81,7.57,7.57,0,0,0-1,1.36c-.08.1-.14.27-.22.33l-.23.1-53.32,24.85-.24.11.14-.07,0,0,.36-.22a7.26,7.26,0,0,0,.68-.45c.45-.3.88-.6,1.27-.91l.29-.23.07-.06,0,0h0l-1.78,1.4,0,0,.06-.05c-.06.05.26-.21.41-.36l.36-.35.48-.48.6-.62.65-.73a80.67,80.67,0,0,0,8.13-11.33A165.55,165.55,0,0,0,530.1,491.5c.45-1,.89-2,1.3-3s.83-2,1.23-3,.88-2.15,1.29-3.21l.6-1.58.28-.78c0-.07,0,0,0,0a1.19,1.19,0,0,0,.15.61c.44,1,1.8,2.63,1.54,4.76a2.77,2.77,0,0,1-3,.33c-.12-.11-.31-.22-.37-.36s-.16-.27-.13-.42l0-.2v0h0s0,0,0,.05l-.1.24-.41,1-.71,1.8c-.48,1.18-1,2.37-1.51,3.56l-.79,1.77-.7,1.62a147.76,147.76,0,0,1-10.91,20.3,67.4,67.4,0,0,1-6.75,8.87,75.83,75.83,0,0,0,8.47-11.6c.45-.71.88-1.41,1.27-2.1.2-.34.39-.68.58-1l.28-.5.32-.56c.86-1.48,1.58-2.85,2.24-4.15,1.57-2.89,2.51-5.08,3.42-6.89-2.67,5.76-5.31,10.51-7.41,14.09l-1.61,2.61c-.49.79-1,1.57-1.55,2.33s-.86,1.3-1.32,1.94l-1.26,1.71c-.38.51-.78,1-1.19,1.52s-.62.78-1,1.17l-.89,1c-.25.28-.5.55-.78.83l-.56.59-.52.49-.3.28-.18.16-.07.06h0l1.78-1.4h0l-.15.13-.33.26c-.22.18-.45.35-.69.52l-.37.25-.2.12-.08.07a8.21,8.21,0,0,1-.78.5l-.21.12,0,0,0,0,.07,0,28-13.12-.73-.13-.19,0a1.18,1.18,0,0,1-.19-.1l-.38-.21c-.5-.3-1-.58-1.55-.89l-1.49-1a24.21,24.21,0,0,1-9-11.67c-1.83-5.13-2.22-11.65-.23-19.49a166,166,0,0,1,9-17c.77-1.27,1.54-2.53,2.33-3.74l.58-.91a5.34,5.34,0,0,1,.6-.89c.44-.56.87-1.13,1.27-1.7.81-1.14,1.56-2.31,2.24-3.5.34-.6.67-1.21,1-1.82s.75-1.13,1.11-1.7l16.61-25.66a320.14,320.14,0,0,1,60.65-42,343.43,343.43,0,0,1,76.38-29.63,390.32,390.32,0,0,1,90.33-12.21c4,0,8-.18,12-.07l6,.07,1.52,0c.1,0,0,0,0,.05l-.1.09-.19.16-.37.33-1.51,1.32q-6,5.28-11.84,10.49c-7.74,7-15.18,13.93-22.05,21-11.88,10-21.16,18.36-29.17,26.47a178.46,178.46,0,0,0-21.13,25.32c-1.34,1.9-2.79,4.24-4.27,6.66-2.92,2.55-5.77,5-8.3,7.59s-5,5.09-7.28,7.62a133.86,133.86,0,0,0-12,15.73c-7,10.79-12.41,22.62-17.2,35.47l-1.8,4.82-1.68,4.9q-.86,2.49-1.71,4.95l-1.91,5.72q-1,2.85-1.92,5.66l-3.66,10.43q-1.84,5.17-3.63,10.22c-1.2,3.37-2.28,6.7-3.41,10-4.59,13.06-8.63,25.27-12.71,36.17-1.93,5.46-3.86,10.59-5.78,15.35-.95,2.37-1.93,4.65-2.85,6.84s-1.84,4.26-2.76,6.23c1.64,16.93-5.51,49-13.87,80.67s-18.09,62.93-24.42,77.77c1.62,3.37,2,8.78,1.67,15.44a174,174,0,0,1-3,22.93c-1.51,8.36-3.53,17.2-5.56,25.71s-4.2,16.71-6,23.77c-1.9-.18,0-25.14-3.82-.62-2.2,11.36-.12,11.77-.23,17.8-4.41,10-8.62,23.43-13.36,27.57a150.29,150.29,0,0,0-2.78,23.17,160.1,160.1,0,0,1-2.68,23.08c-1.72-6.13-4-10.68-3.07-23.9,2.81-31.26,7.7-35.08,11.69-51.52-3.28.22-5.73,10.49-4.18-6.59,4.62-3.29,5.56-12.68,6.69-23,.56-5.18,1.13-10.59,2.16-15.58s2.59-9.56,5-13c-1.75,10.91-2.53,19.64-1.46,23.78,2.69-23,6.2-50.61,8.88-70.95-1.16,6.27-3.49,14.83-2.4,5.63-6.81,25.54-12.76,50.71-18.09,75.53s-10,49.27-14.23,73.42q-3.2,18.12-6.08,36c-1.92,11.91-3.79,23.76-5.57,35.64s-3.52,23.87-5.19,35.84c-1.62,12.12-3.23,24.17-4.66,36.49s-2.75,24.68-4,37.08c-1.12,12.58-2.29,25.08-3.08,37.9-1,12.68-1.47,25.71-2.07,38.66-.32,13.12-.75,26.2-.6,39.61q0,5,0,10c0,3.33.16,6.74.23,10.12.22,6.77.36,13.52.67,20.35s.82,13.73,1.24,20.62c.11,1.72.19,3.43.34,5.17l.48,5.22c.32,3.48.65,7,1,10.45l1,10.48,1.35,10.57,1.38,10.6.69,5.31c.25,1.77.58,3.56.86,5.34q1.8,10.68,3.61,21.43c1.39,7.18,3,14.39,4.46,21.6a70.48,70.48,0,0,0,.51,12c.53,4.68,1.25,9.91,2.33,15.39.52,2.75,1.08,5.58,1.67,8.47s1.32,5.79,2,8.74c1.34,5.91,3,11.85,4.55,17.73,6.32,16.66,12.83,31.85,19.33,45.47q2.52,5.07,4.9,9.9c1.63,3.2,3.32,6.28,4.94,9.27l2.41,4.41c.82,1.45,1.66,2.85,2.48,4.24q2.46,4.15,4.85,8c12.94,20.43,25.37,33.65,36.28,38a565.74,565.74,0,0,1-30.74-52.79,537,537,0,0,1-25.06-56.64A523.11,523.11,0,0,1,537.78,1398,660.23,660.23,0,0,1,525,1313.69c.34-6.59.79-12.8,1.39-18.5.15-1.42.29-2.82.49-4.17s.42-2.66.65-3.93q.68-3.84,1.47-7.22c2.13-9,4.79-15.43,8.56-18.24.16,3,.48,6.11.73,9.18l.75,9.25.69,9.27c.23,3.1.6,6.23.88,9.35q.86,9.38,1.72,18.81,1.08,9.46,2.17,19c.61,6.34,1.64,12.72,2.52,19.1l1.35,9.58c.23,1.6.41,3.19.69,4.79l.85,4.8,3.39,19.2c.26,1.58.63,3.23,1,4.87l1,4.89,1,4.9c.35,1.63.75,3.25,1.13,4.87,2.94,13,6.55,25.8,10.46,38.43s8.51,25,13.42,37.1c10.06,24.14,22,47.18,36.08,68.09,2,3,3.79,5.52,5.55,7.73s3.38,4.16,5,6.09c3.15,3.9,6.45,7.6,10.43,13.17a524,524,0,0,0,36,44c11.52,12.6,22.55,23.46,33.43,33.35l8.17,7.23c2.73,2.35,5.52,4.59,8.25,6.86,1.37,1.12,2.73,2.26,4.11,3.35l4.21,3.23c2.82,2.13,5.57,4.33,8.46,6.37l8.72,6.13c1.45,1,2.95,2,4.47,3l4.57,2.93,4.63,3c1.56,1,3.18,1.88,4.79,2.83,3.24,1.86,6.49,3.8,9.89,5.62a334.14,334.14,0,0,0,41.43,18.77l10.9,3.81c1.82.66,3.65,1.18,5.48,1.73l5.51,1.62,5.52,1.6c1.85.52,3.69,1.09,5.54,1.49l11.12,2.62c1.86.42,3.72.87,5.58,1.25l5.56,1,11.17,2c3.71.58,7.4,1,11.11,1.52s7.44,1,11.1,1.3c7.35.62,14.76,1.36,22,1.58,3.64.16,7.29.34,10.92.45l10.77.1c28.73.13,56.25-2.31,82.54-5.6,13.2-1.61,26-3.57,38.54-5.52l18.57-3,18.19-3.09c10.65-1.84,21.66-2.44,32.9-4s22.73-4.1,34.08-9.8c-27.85,5.61-56,10.13-81.62,14.4l-70.91,12c-14.69.57-32.25,1.25-51.78,1.22a537.25,537.25,0,0,1-63.53-3.63,402,402,0,0,1-67.63-13.88c-2.76-.84-5.51-1.59-8.23-2.5l-8.11-2.8c-5.4-1.78-10.56-4-15.68-6-1.28-.52-2.57-1-3.81-1.54l-3.71-1.64-7.31-3.25c-2.43-1-4.72-2.27-7-3.38l-6.83-3.39a417.6,417.6,0,0,1-47-32.63,452.84,452.84,0,0,1-39.64-35.82,489.83,489.83,0,0,1-63.51-79.71,492.1,492.1,0,0,1-46.89-94.38,475.78,475.78,0,0,1-16.65-55.16c-.61-2.42-1.13-4.88-1.66-7.35s-1.06-5-1.59-7.46c-1-5-1.78-9.89-2.67-14.92q-.65-3.76-1.3-7.58c-.42-2.54-.89-5.1-1.17-7.67-.65-5.14-1.29-10.35-2-15.61a22.68,22.68,0,0,0,2.48-9,76.62,76.62,0,0,0,.25-12.64q-.17-3.6-.5-7.62c-.11-1.34-.23-2.72-.35-4.13s-.16-2.84-.26-4.31c-.35-5.89-.76-12.32-1-19.23,2,.37,3.52-.66,4.74-2.87s2.26-5.59,3-10a140.17,140.17,0,0,0,1.46-15.89c.44-6.14.7-13.07.82-20.63-.56-4.22-1.07-5.66-1.68-5.72s-1.27,1.24-1.87,2.58-1.17,2.68-1.68,2.65c-.25,0-.49-.38-.71-1.26a23.43,23.43,0,0,1-.53-4.36c1.29-8.69,2.59-17.11,4.34-23.63s4-11.11,6.8-12.33c-.13,4-.28,8.1-.42,12.16s-.15,8.12-.23,11.89-.25,7.3-.5,10.37c-.11,1.53-.27,2.94-.43,4.23s-.31,2.43-.52,3.41a8.8,8.8,0,0,0,2-3.43,41.33,41.33,0,0,0,1.62-5.52c1-4.2,1.79-9.28,2.63-14.17a80.9,80.9,0,0,1,3-13c1.21-3.42,2.63-5.6,4.47-5.49a702.46,702.46,0,0,0,4.3,86.33,669.32,669.32,0,0,0,15,82.75c1.74,6.76,3.25,13.5,5.27,20.25l1.43,5.06c.48,1.68,1,3.35,1.53,5l1.54,5,.77,2.51.83,2.49c4.27,13.34,9.14,26.49,14.41,39.54s11,26,17.21,38.89,13,25.67,20.27,38.43c5.23,15.09,5.25,24.68,14.56,41.83,6,3.54,2.89-4.09-1.31-13.46l-3.12-7.3-1.5-3.63c-.46-1.2-.88-2.38-1.27-3.51-1.56-4.53-2.55-8.28-2-10.16,11,13.73,24.84,31.11,39.86,46.66s31.35,29,44.57,36.49a16.94,16.94,0,0,1,2,3.89,27.92,27.92,0,0,0,1.63,3.55c1.5,2.51,4.25,5.9,12.16,11a252.56,252.56,0,0,0,69,36.64A277.94,277.94,0,0,0,907.83,1683a385.82,385.82,0,0,0,63.24-.62c20.62-1.77,41-4.71,61.85-8.28,15.85-2.72,31.39-5.7,46.79-8.73s30.63-6.16,45.81-9.55c30.35-6.78,60.48-14.61,90.08-25.88,7.39-2.85,14.74-5.88,22-9.17s14.5-6.89,21.64-10.76,14.13-8.1,21-12.61,13.57-9.48,20.1-14.74a228.81,228.81,0,0,0,35.86-36.39,226.46,226.46,0,0,0,15-21.53,241.68,241.68,0,0,0,12.84-23.44c1.32-1.92,2.26-2.65,3.08-2.91a10,10,0,0,1,2.3-.13c.78-.09,1.64-.48,2.77-1.94a20.38,20.38,0,0,0,1.9-3.11c.69-1.39,1.46-3.14,2.34-5.36,9.57-19.65,17.52-42.52,23.67-66.25s10.65-48.32,14.44-71.68c1.85-11.68,3.65-23.07,5.36-33.93s3.34-21.17,5.28-30.75,3.69-18.44,5.9-26.33c1.12-4,2.2-7.67,3.35-11.11a100.07,100.07,0,0,1,3.71-9.51c.06-4.59.2-8.74.4-12.55s.32-7.27.57-10.47c.48-6.39,1.17-11.73,1.93-16.68,1.46-9.9,3-18.23,4-30.24-.47-5.46-1.13-10.82-1.63-16.51s-.92-11.72-1.31-18.52c1.15-3.21,1.73-8.08,2-14s.15-13-.32-20.59-1-15.68-1.5-23.74-1.21-16.07-1.47-23.52c-.11-4.15-.27-8.19-.33-12.16s-.07-7.87,0-11.73c.15-7.73.3-15.27.44-22.83.08-3.79.15-7.59.22-11.42,0-1.92.06-3.85.08-5.79s0-3.89-.06-5.85c-.13-7.86-.42-16-1.06-24.54-2.64-29.76-6.32-50.58-10.36-67.19-2-8.3-4-15.57-6.09-22.4s-4.2-13.2-6.29-19.77c-2.48-8.07-5.23-17.29-8.3-27s-6.54-19.81-10.55-29.52a180.46,180.46,0,0,0-13.5-26.82c-1.19-2-2.56-3.92-3.8-5.73s-2.51-3.52-3.82-5.07-2.54-3-3.76-4.32-2.51-2.46-3.7-3.49q.72,2,1.44,4l1.29,4.11c.42,1.36.84,2.73,1.26,4.08s.72,2.74,1.08,4.1.68,2.68,1,4,.55,2.63.8,3.91c.48,2.53.92,4.94,1.14,7.25A426.3,426.3,0,0,1,1404.4,836c2,5.33,3.77,10.73,5.55,16.28s3.52,11.23,5.18,17.06,3,11.84,4.42,18,2.68,12.44,3.64,18.93c1.27,8.16,1.94,15.64,2.36,22.77s.34,14,.5,20.78c.07,3.41.2,6.81.33,10.27s.29,7,.58,10.58.7,7.3,1.25,11.14c.28,1.91.6,3.87,1,5.86s.7,4,1.12,6.13l-3.83.43a693.09,693.09,0,0,1,6.44,118.88c-.36,8.94-.69,17.68-1.28,26.26s-1.34,17-2.08,25.34-1.82,16.53-2.77,24.67q-.37,3-.73,6.09l-.84,6.07q-.85,6-1.7,12.08c-4.65,32.16-10.22,63.89-16,98.07-2.92,17.08-5.94,34.77-9.42,53.34s-7.37,38-12.42,58.63c-8.58,20.46-18.61,39.26-29.82,55.41a209.84,209.84,0,0,1-17.55,22.18,179.18,179.18,0,0,1-18.64,17.73c1.08-1.3,2-2.67,3-4s1.92-2.59,2.78-3.89c1.72-2.62,3.44-5.08,4.89-7.61l2.18-3.69c.72-1.2,1.34-2.44,2-3.63s1.26-2.39,1.88-3.55l1.69-3.52a205.22,205.22,0,0,0,10.25-26.57c2.74-8.69,5.12-17.45,7.7-27.3s5.37-20.79,8.69-34c3.25-34.65,5.55-72.45,7.39-113.34,2-40.71,3.77-83.29,3.81-126.51s-1.3-87.06-5-130c-.23-2.69-.45-5.37-.68-8s-.55-5.35-.82-8q-.86-8-1.69-16c-.27-2.65-.6-5.3-1-7.93s-.69-5.27-1-7.9q-1.05-7.87-2.1-15.69c-1.64-10.39-3.24-20.7-5.05-30.86q-1.47-7.61-2.91-15.12c-1-5-1.93-10-3.08-14.91q-1.45-11.16-3-22.13c-1.15-7.29-2.43-14.5-3.69-21.66-2.54-14.41-5.46-28-9-40.69-1.77-6.32-3.67-12.46-5.83-18.25-1-3-2.21-5.72-3.34-8.53-.58-1.37-1.22-2.74-1.8-4l-.87-1.94-.92-1.84a125.73,125.73,0,0,0-8.15-14.24l-2.32-3.36c-.77-1.12-1.65-2.16-2.47-3.25l-1.23-1.61c-.42-.54-.89-1-1.32-1.55l-2.65-3.08a115.94,115.94,0,0,0-25.08-20.31c-1.15-.68-2.27-1.45-3.44-2.06l-3.55-2c-1.22-.72-2.58-1.34-3.86-2s-2.56-1.35-3.93-2l-4-1.91c-1.34-.63-2.77-1.21-4.15-1.82-2.75-1.24-5.67-2.35-8.53-3.52-5.85-2.23-11.8-4.42-18.06-6.42s-12.61-4-19.23-5.81l-10-2.72-5-1.38-2.5-.7-2.53-.6L1182,705.08l-5.1-1.25c-1.7-.43-3.4-.86-5.13-1.2-3.52-2.64-9.47-5.25-17-7.84-3.79-1.22-8-2.31-12.47-3.45s-9.24-2.32-14.24-3.16-10.13-1.84-15.36-2.76c-5.24-.77-10.57-1.45-15.85-2.18-2.64-.34-5.27-.79-7.89-1l-7.77-.84-7.56-.87c-2.47-.3-4.9-.64-7.27-.83-5.56.16-6,1.77-7.6,3.06a7.13,7.13,0,0,1-4,1.48,26.83,26.83,0,0,1-4.06.15c-1.68-.05-3.71-.22-6.22-.38-10.13-.18-19.1-.85-27.17-1.18-4-.23-7.85-.53-11.47-.89s-7-.55-10.32-.92-6.37-.75-9.35-1.19l-4.38-.66-4.2-.6c-5.49-.83-10.6-1.8-15.56-2.81-2.49-.54-4.91-.9-7.35-1.35l-7.3-1.29c-4.89-.81-9.9-1.69-15.2-2.07s-11-.74-17.18-.75c-6.19.16-13,.66-20.53,1.55a75.07,75.07,0,0,0-9.37,1.93c-3.47.87-7.24,1.92-11.11,3s-7.8,2.4-11.68,3.56-7.67,2.28-11.22,3.16c-2.55.59-5.36,1.44-8.41,2.22L833,688.17l-5.21,1.29-5.3,1.48-10.78,3-5.35,1.5c-1.77.52-3.49,1.1-5.2,1.63l-9.81,3.19-4.49,1.5c-1.44.48-2.82,1-4.11,1.48-2.58,1-4.89,1.94-6.84,2.79-28.18,12.2-53.8,27.43-78.76,44.32s-49.3,35.5-75.26,55.63a653.14,653.14,0,0,0-54.72,47.67A500,500,0,0,0,517.8,910.2c-3.88,5-7.48,10.3-11.19,15.5-1.82,2.63-3.55,5.31-5.33,8l-2.67,4c-.87,1.35-1.7,2.71-2.55,4.07q-2.55,4.07-5.09,8.15l-4.86,8.31c-1.66,2.75-3.17,5.57-4.7,8.39s-3.13,5.6-4.57,8.47l-4.34,8.58c-.75,1.42-1.43,2.87-2.1,4.32l-2,4.35c-2.81,5.77-5.19,11.69-7.74,17.55l-3.48,8.9c-.57,1.49-1.18,3-1.72,4.46l-1.57,4.5c-1,3-2.16,6-3.1,9s-1.88,6-2.81,9.06c-1,2.39-1.85,4.88-2.76,7.39s-1.79,5.08-2.62,7.7l-2.31,8q-.57,2-1.14,4.11l-1,4.19c-.63,2.83-1.26,5.68-1.9,8.57s-1,5.85-1.5,8.83c-.24,1.48-.53,3-.71,4.49s-.35,3-.53,4.55-.35,3.06-.52,4.6-.37,3.09-.44,4.64q-.29,4.68-.57,9.42c-.13,1.59-.11,3.18-.13,4.77s0,3.2,0,4.8,0,3.22,0,4.84l.21,4.85.21,4.89.11,2.45c0,.82.15,1.63.22,2.45q.47,4.9,1,9.85c.42,3.29,1,6.57,1.45,9.88s1.19,6.58,1.84,9.88l1,5c.33,1.66.83,3.27,1.24,4.92s.85,3.27,1.28,4.91.82,3.3,1.38,4.9q1.55,4.86,3.11,9.74c2.39,6.39,4.68,12.85,7.6,19.07a237.73,237.73,0,0,0,19.69,36.16,267.56,267.56,0,0,0,25,32.3c4.57,5,9.22,9.9,14.07,14.53s9.78,9.12,14.77,13.48a455,455,0,0,0,62.14,31.34c11.74,4.73,24.08,9.06,36.82,12.82a390.29,390.29,0,0,0,39.14,9.26,357.51,357.51,0,0,0,78.53,5.68c25-1.06,48-5.09,66.67-11.39,7-1.21,8.3-.12,9.93.78a6.9,6.9,0,0,0,3.52.92,21,21,0,0,0,3.43-.22c1.42-.22,3.15-.57,5.29-1.1,11.35-3.67,23-7.26,34.47-11s22.75-7.81,33.29-12.17c5.27-2.19,10.38-4.45,15.18-6.82,2.39-1.2,4.73-2.39,7-3.59s4.44-2.51,6.56-3.77c1.06-.64,2.11-1.25,3.12-1.9l3-2c2-1.33,3.81-2.65,5.58-4a83.94,83.94,0,0,0,9.31-8.37c2.65-1.5,5.09-2.81,7.36-4s4.3-2.29,6.23-3.22c3.88-1.82,7.06-3.31,10-4.38a329.82,329.82,0,0,0,39.69-33.9l2.3-2.28,2.21-2.35,4.42-4.67,4.24-4.81,2.11-2.39c.7-.81,1.35-1.64,2-2.46,1.34-1.63,2.68-3.27,4-4.9s2.54-3.35,3.82-5l1.91-2.5c.63-.83,1.2-1.7,1.8-2.55l3.58-5.1c1.14-1.72,2.22-3.47,3.34-5.2l1.67-2.58c.53-.87,1-1.76,1.53-2.64,1-1.74,2-3.49,3.07-5.25l2.78-5.32c.45-.89,1-1.76,1.38-2.65l1.24-2.69c.8-1.79,1.71-3.55,2.45-5.35s1.45-3.58,2.18-5.38l.56-1.33.46-1.36.93-2.69c1.38-3.57,2.22-7.2,3.33-10.74.75-3.61,1.78-7.14,2.24-10.7.74-3.54,1-7.08,1.42-10.57.08-1.75.17-3.49.25-5.24,0-.88.16-1.74.11-2.61l0-2.6,0-2.6c0-.43,0-.86,0-1.29l-.12-1.29c-.14-1.73-.26-3.44-.36-5.16s-.49-3.43-.69-5.14c-.13-.85-.18-1.71-.35-2.56l-.53-2.57a91.76,91.76,0,0,0-2.37-10.16c-.92-3.36-2.11-6.72-3.35-10.1-5.15-13.47-12.88-27.26-23.27-41.48s-23.17-28.74-37.87-43.65c-7.32-7.46-15.14-15-23.31-22.76-4-3.86-8.45-7.8-12.72-11.77l-12.92-12c-18.83-24.65-37.1-48.56-57-71.86l-7.47-8.82-3.78-4.42-3.88-4.33q-7.8-8.67-15.87-17.48L863.53,867l-4.18-4.32-8.53-8.7c-5.76-5.8-11.57-11.8-17.79-17.52-9.34-10.79-18.3-21.67-28.09-32.2-4.86-5.32-9.83-10.71-15-16.15s-10.82-10.7-16.66-16.19c-23.47-21.81-52.5-45-94.54-68.88a581.93,581.93,0,0,0-130.49-34c-4.77-.69-9.41-1.35-14-1.93l-13.69-1.7-3.37-.43-3.48-.49-7-1q-6.94-1.05-13.78-2.26a342.76,342.76,0,0,1-51.77-12.92c-9.8-5.39-18.14-10.22-25.39-14.51s-13.45-8-18.77-11.28c-10.68-6.53-18.22-11-24-14.71a148.32,148.32,0,0,1-11.76-17.13,128.55,128.55,0,0,1-8.73-18.26c-1.3-3.08-2.18-6.25-3.21-9.36-.47-1.56-.84-3.14-1.26-4.7s-.86-3.12-1.13-4.69a134.18,134.18,0,0,1-2.68-18.58A152.12,152.12,0,0,1,345.39,506a202.06,202.06,0,0,1,6-28.29c1.38-4.65,2.84-9.3,4.48-13.91s3.34-9.22,5.4-13.75,4-9.13,6-13.7c1-2.29,2-4.59,3-6.89s2.31-4.49,3.47-6.75l7.11-13.55c1.22-2.26,2.34-4.58,3.65-6.81s2.69-4.43,4-6.66q4.08-6.68,8.18-13.43l2.07-3.39c.72-1.19,1.39-2.1,2.05-3.08l3.89-5.68q3.84-5.55,7.71-11.18c2.66-3.7,5.51-7.28,8.31-11l4.25-5.52c1.44-1.82,2.81-3.74,4.36-5.5l9.22-10.81c2.11-2.43,4.15-4.9,6.31-7.23l6.53-6.84,6.51-6.71,3.25-3.3,3.36-3.13q6.72-6.24,13.39-12.24c4.52-3.9,9.14-7.57,13.68-11.26,2.28-1.82,4.52-3.66,6.82-5.42l7-5.06,6.93-5,3.46-2.45c1.14-.82,2.29-1.62,3.48-2.36,9.45-6,18.63-12,28.16-17.13,18.73-10.74,37.88-19.18,56.78-26.85L618.55,206l7.12-2.56c2.39-.79,4.8-1.52,7.19-2.28l14.32-4.44,1.78-.54,1.81-.48,3.61-1,7.21-1.89,7.18-1.88c1.2-.31,2.39-.64,3.6-.93l3.63-.79,14.49-3.17c4.8-1.13,9.71-1.9,14.58-2.78s9.74-1.78,14.63-2.57l14.79-2.08,7.41-1.05,7.48-.79,15-1.61c5.05-.43,10.14-.74,15.23-1.14l7.67-.59c2.56-.21,5.15-.23,7.74-.36l15.62-.7c5.26-.14,10.56-.13,15.89-.23l8-.14c2.69,0,5.4.1,8.12.14l16.45.26q8.3.42,16.78.79c5.65.12,11.35.73,17.13,1.14s11.63.74,17.52,1.51c4,1.19,6.87,2.45,10.27,3.68,1.7.61,3.53,1.22,5.7,1.8s4.66,1.33,7.71,2c3.15-1.44,9.34-1,17,.51,3.79.89,7.94,2,12.26,3.28l6.59,1.93c1.11.34,2.24.64,3.34,1l3.33,1.16c4.43,1.54,8.86,3,13.11,4.36,2.12.68,4.23,1.23,6.22,1.88s3.93,1.23,5.79,1.72c7.41,2,13.56,2.57,17.2.52-3.45-2.33-7.51-4.81-12.09-7.42q-3.45-2-7.27-4c-1.26-.71-2.59-1.32-3.94-1.94l-4.14-1.88q-4.21-1.89-8.77-3.82l-4.61-1.94-2.36-1-2.41-.86c-6.5-2.28-13.33-4.58-20.42-6.82-7.15-1.92-14.54-3.8-22.07-5.6-7.56-1.56-15.27-2.88-23-4.18-1.93-.36-3.88-.51-5.81-.75l-5.83-.65q-5.82-.63-11.6-1.16c-1.92-.22-3.84-.29-5.75-.37l-5.72-.22c-3.79-.14-7.55-.24-11.26-.32a36.28,36.28,0,0,0-3.89-1.37c-1.35-.37-2.77-.7-4.24-1-2.93-.58-6.09-1-9.42-1.32s-6.85-.53-10.5-.59-7.43.15-11.31.33-7.88.39-11.93.63l-12.31,1.22-12.54,1.14c-4.18.49-8.38.92-12.56,1.26-10.53.68-20.68,1.7-30.72,2.29l-3.76.23c-1.24.07-2.47.22-3.71.32l-7.37.64-14.57,1.21L699,163.49c-4.69.6-9.4,1.07-14,1.95s-9.12,1.66-13.62,2.58c-2.24.46-4.48.92-6.7,1.44s-4.38,1.17-6.56,1.79A90.4,90.4,0,0,0,643.89,177c-2.12,1-4,2.08-5.59,2.92a32.24,32.24,0,0,1-3.84,1.82c-3.41,1.17-6.77,2.28-10.11,3.33l-5,1.54c-1.66.53-3.28,1.11-4.92,1.66-6.55,2.22-13.16,4.32-20,6.7-6.75,2.57-13.77,5.34-21.26,8.57C565.79,207,558,211,549.57,215.73l-13.24,8.16-6.19,3.87-1.5,1-1.46,1-2.87,2-10.89,7.55-5.13,3.61-4.82,3.69-9.15,7.12c-2.94,2.34-5.87,4.54-8.55,6.94-5.44,4.7-10.61,9.25-15.7,13.79-5,4.71-9.76,9.47-14.68,14.32l-3.69,3.67-3.6,3.88-7.38,8-3.8,4.16L435,310.54c-.65.72-1.26,1.48-1.89,2.23l-7.81,9.32-4.1,4.91c-1.39,1.66-2.82,3.34-4.16,5.16q-4.11,5.38-8.55,11.2c-4.93,6.24-9.38,12.9-13.91,19.44l-3.48,5.05-1.81,2.63c-.69,1-1.29,2.07-1.94,3.11L379.69,386l-3.8,6.19-1.9,3.09c-.62,1-1.29,2-1.83,3.11q-3.37,6.36-6.74,12.68l-6.67,12.58c-2,4.25-3.82,8.55-5.72,12.79l-5.59,12.68c-.46,1.06-.94,2.1-1.37,3.16l-1.21,3.18c-.82,2.12-1.57,4.24-2.31,6.36a236,236,0,0,0-7.4,25.33,168.18,168.18,0,0,0-4.36,49.74,139.94,139.94,0,0,0,7.11,34.59,130.64,130.64,0,0,0,14.81,29.92c1.54,2.22,3,4.44,4.62,6.55s3.2,4.19,4.88,6.17,3.37,3.93,5.12,5.78,3.51,3.66,5.29,5.4a159.25,159.25,0,0,0,22.28,18,174,174,0,0,0,22.53,12.94c1.83.92,3.68,1.73,5.5,2.53s3.6,1.57,5.39,2.28c3.59,1.39,7,2.7,10.44,3.78,13.57,4.41,25.52,6.36,35.07,6.48a173.52,173.52,0,0,0,19.86,7.83c3.13,1,6.15,1.89,9.09,2.65,1.46.38,2.91.73,4.33,1.06s2.86.65,4,.85a162,162,0,0,0,26.4,2.31c8.11.15,16.06,0,24.58.44a128.93,128.93,0,0,1,13.22,1.3c4.59.67,9.41,1.58,14.55,2.82l9.41,3.47c2.91,1,5.56,2.13,8,3,5,1.89,9.19,3.42,12.93,4.74s7,2.4,9.94,3.39l4.31,1.43,4.06,1.45c5.37,1.94,10.68,4,17.85,7.05,3.57,1.56,7.65,3.32,12.36,5.63s10.08,5.09,16.4,8.39c22.35,19,41.56,38.19,59.71,57.34l3.4,3.57,3.33,3.66q3.3,3.66,6.61,7.3l13.11,14.55,25.85,29.78q6.42,7.66,13,15.36c4.4,5.16,8.94,10.23,13.38,15.61,8.94,10.68,18.42,21.28,28.06,32.67l7.41,8.48,3.79,4.27,1.92,2.15c.62.73,1.25,1.47,1.89,2.2q7.59,8.85,15.71,17.89l4.11,4.54c1.38,1.52,2.71,3.12,4.09,4.68q4.13,4.71,8.39,9.48t8.71,9.62c1.49,1.59,3,3.25,4.42,4.93l4.45,5c6.6,5.29,13.19,10.47,19.38,15.71s12,10.55,17.37,15.63a170.16,170.16,0,0,1,14,14.54,82.16,82.16,0,0,1,9.25,13c-7-5.19-14.55-10.88-22.73-17.1-8.49-6.32-17.22-13.08-26.19-20.2q-6.87-5.19-13.91-10.64l-7.08-5.51c-2.38-1.85-4.73-3.77-7.2-5.58q-7.35-5.52-14.84-11.26l-7.52-5.79c-2.52-1.95-5.14-3.8-7.72-5.73l-15.69-11.67-4-3-4-2.9-8.15-5.83c-5.46-3.9-10.9-7.93-16.48-11.85l-16.94-11.7-8.53-5.93-8.72-5.76L769.34,889.2c-5.93-3.8-11.93-7.52-17.91-11.31l-9-5.67c-1.49-1-3-1.88-4.54-2.78l-4.58-2.72L715,855.79c-3-1.86-6.17-3.54-9.25-5.3l-9.29-5.21c-12.31-7.1-24.92-13.54-37.36-20.09l-4.66-2.44-4.72-2.31-9.41-4.6L631,811.28c-3.12-1.5-6.21-3-9.37-4.43l-18.72-8.39c-3.1-1.37-6.17-2.79-9.28-4.08l-9.31-3.82-18.39-7.43c-6.11-2.34-12.21-4.51-18.22-6.7l-9-3.21-4.45-1.58c-1.48-.52-3-1-4.46-1.45q-8.91-2.87-17.59-5.53L503.57,762l-9.75-2.9-10.05-3-1.38-.42-1.72-.56L477,753.89l-7.26-2.47c-19.24-6.62-37.67-13.74-54.79-21.5a139.06,139.06,0,0,0,21.82,14.37c4.12,2.16,8.38,4.32,12.81,6.35s9,4,13.69,5.84,9.44,3.67,14.27,5.41c2.69,1,3.93,1.37,5.62,2l4.86,1.62,9.53,3.14,2.27.77,2,.69,3.91,1.42C619.8,813.18,739.51,876.82,856.29,963.9c4.34,3.24,8.72,6.4,13.06,9.57s8.58,6.47,12.89,9.65l13,9.47,12.81,9.65,12.91,9.56,12.72,9.84,12.82,9.86q6.21,4.86,12.08,9.63c15.67,12.76,29.84,25.5,41.07,38.37s19.4,25.73,23.11,37.1a60.17,60.17,0,0,1,2.26,9.26,38.44,38.44,0,0,1,.54,8.19,56.68,56.68,0,0,1-2.14,15,97.07,97.07,0,0,1-6.19,16.09,160.4,160.4,0,0,1-12.21,21c-1.25,0-3,1.85-4.53,3.08s-3.1,1.74-3.48-1l-2.62,3.5c-.22.29-.43.58-.67.86l-.74.85-1.49,1.68a86.41,86.41,0,0,1-6.39,6.46c-.53.53-1.12,1-1.73,1.54l-1.79,1.5-1.79,1.49-.89.74-1,.71c-2.56,1.88-5,3.77-7.76,5.48a222.89,222.89,0,0,1-34.38,18c-12,5.18-24,9.87-35.91,14.93-6,2.46-11.8,5.17-17.62,8-1.47.71-2.85,1.46-4.37,2.21s-3,1.53-4.53,2.35c-3,1.57-6.06,3.31-9.14,5.07C865.71,1260.34,875.41,1257,866.59,1257.32Zm738.2-24.07c-.33-7.14,2-5.94,2.57-.23,1.43-1,.15-10.41-.25-17.11,2.78,1.26,3.11,21,5.9,22.38,1.41-9.32,1.85-21.64,2.07-34.62,4,15.71,3.1,29.14.33,35.59S1608.05,1245.22,1604.79,1233.25Zm-9.39-368.43c2.79-1.86,5.9,1.61,9,8.17a106.75,106.75,0,0,1,4.64,11.87c1.47,4.54,2.91,9.57,4.28,14.8,2.71,10.46,5.2,21.7,7,31.46s2.93,18,3.31,22.48c1.67,18,0,49-7,30.28a65.56,65.56,0,0,1-2.66-9.74c-.84-3.84-1.61-8.24-2.34-13-1.46-9.59-2.74-20.79-4.13-32.36s-3.08-23.48-5-34.55A185,185,0,0,0,1595.4,864.82Zm-49.48-153.73c-2.42,2.56-5,.42-7.75-3.76-.69-7.91-2.75-18.05-5.66-29.09s-6.69-23-10.68-34.54-8.14-22.81-11.5-32.65-6-18.3-6.51-24.53a314.41,314.41,0,0,1,14.43,32.11c3.64,9.46,6.48,18,9.21,26.75s5.35,17.77,8.32,28.29S1542.07,696.2,1545.92,711.09Zm-59.21-176.65c0,2.81-2.4.83-5-1.62s-5.56-5.32-6.6-4.52c-1.53-3.85-5.28-9.24-8.85-14.21s-7-9.54-7.28-12.18a87.68,87.68,0,0,1,15.18,16.22C1477.53,522.67,1480.58,527.11,1486.71,534.44Zm-34.8,6.44a201.12,201.12,0,0,0-32.54-33.69,151.1,151.1,0,0,0-42.48-24.31,144.43,144.43,0,0,0-24.58-6.58c-2.11-.42-4.25-.65-6.38-1s-4.3-.47-6.46-.7l-6.5-.34-3.27-.16-3.28.05c-2.19,0-4.38,0-6.58.12l-6.6.5c-1.11.11-2.21.14-3.31.3l-3.31.44c-2.2.32-4.42.54-6.62,1-4.4.83-8.82,1.6-13.2,2.74-4.4,1-8.76,2.3-13.12,3.55-15,4.57-29.38,10.92-43.28,17.71s-27.37,14.18-40.83,21.12c-6.78,3.38-13.48,6.7-20.12,9.9q-5,2.38-9.92,4.7c-3.28,1.54-6.55,3-9.85,4.37q-9.89,4.08-19.55,7.61-4.83,1.75-9.61,3.34l-4.77,1.53c-1.59.48-3.19.89-4.78,1.32,1.63-.83,3.31-1.6,5-2.47l5.11-2.63q5.21-2.62,10.72-5.3t11.26-5.38l5.8-2.71,2.93-1.36,2.93-1.45c7.82-3.88,15.86-7.8,24-11.72,4-2,8.14-3.88,12.15-5.92l12-6.09c15.92-8.13,31.46-16,45.9-22.93s27.76-12.89,39-17.87c1.74-.36,3.53-.58,5.32-.84l5.38-.74c3.62-.44,7.3-.68,11-1,3.71-.13,7.42-.31,11.15-.34l5.61.13c1.87.05,3.74.05,5.61.26a172.13,172.13,0,0,1,43.46,8.55,197.61,197.61,0,0,1,37.45,17.26c5.59,3.27,10.87,6.61,15.81,9.91s9.59,6.52,14,9.54c-.09,1.84,1,4.4,2.53,7.2.75,1.43,1.61,2.93,2.51,4.44s1.76,3.1,2.6,4.61C1453.38,533.65,1455.55,539.37,1451.91,540.88Zm-7.07-51.12c-.8,1-1.6,2-2.4,3.05-5.17-3.72-11.6-7.91-18.47-11.9s-14.2-7.75-21-11c-13.57-6.46-25-10.67-25.08-14.4a132.38,132.38,0,0,1,20,5.13,116,116,0,0,1,15.75,6.88c1.24.62,2.45,1.31,3.65,2s2.44,1.4,3.65,2.15c2.41,1.55,4.9,3.11,7.41,4.93A188.75,188.75,0,0,1,1444.84,489.76Zm-72.17-39.5a12.46,12.46,0,0,0-5.64,1,3,3,0,0,0-1.72,2.72c-1.72-.27-3.3-.54-4.74-.82s-2.78-.48-4-.73c-2.38-.51-4.28-.94-5.69-1.39-2.83-.91-3.73-1.85-2.87-2.56s3.5-1.25,7.71-1.15c1.06,0,2.21.11,3.45.22s2.58.27,4,.52,2.92.53,4.51.87S1370.93,449.76,1372.67,450.26Zm-1.39-26.67c-4.13-3.06-13.22-4.73-23.08-5.21l-3.71-.13c-1.24-.05-2.49-.07-3.75,0l-7.46.13-3.61.05-3.41.16c-2.23.1-4.33.15-6.27.13-3.78-.11-7.24.07-10.63.06h-5l-4.71.11-9,.16-8.46.34c-2.81.09-5.48.31-8.16.55s-5.4.48-8.08.84a124.46,124.46,0,0,0-16.27,3.29c-2.55.71-5,1.39-7.35,2.15s-4.5,1.52-6.63,2.29l-3.14,1.15-2.95,1.2q-2.91,1.2-5.65,2.41c-3.68,1.61-7,3.31-10.39,5s-6.51,3.44-9.83,5.21l-10,5.44c-3.43,1.85-7,3.76-10.86,5.71a263.11,263.11,0,0,1-26.77,12c-13.09,5.47-6.43,7.8-13,12.24a1160.93,1160.93,0,0,1-145.47,55.06,1111.54,1111.54,0,0,1-151.8,34.71,1085.3,1085.3,0,0,1-161.37,12.91c-3.48,0-7,.14-10.46.07l-10.52-.21-21.17-.47-5.33-.13-5.33-.29L621,579.81l-21.58-1.28c-7.22-.56-14.46-1.31-21.76-2l-11-1-5.5-.54-2.74-.27-2.64-.32c-14-1.7-27.34-4-38.89-7.63,2.71-2.72,7.89-3.66,14.7-4.28s15.2-.83,23.6-1.56c4.11-.34,8.56-.88,12.47-1.53A56.63,56.63,0,0,0,578,556.83c5.65-2.13,8.54-5.26,6.61-10.19l12,.24c2,.07,4,.06,5.92,0h5.87q11.71,0,23.07.12l5.66.07,5.63-.09,11.14-.14,21.86-.15,21.36-.64,10.51-.28,5.21-.13c1.74-.06,3.46-.18,5.19-.27l20.52-1.13c6.78-.38,13.52-.67,20.19-1.35l19.89-1.82,9.87-.94c3.28-.36,6.54-.83,9.79-1.26q9.78-1.3,19.47-2.71l9.68-1.44,9.62-1.81q9.62-1.85,19.19-3.84c3.19-.68,6.39-1.32,9.57-2.09l9.53-2.45q9.51-2.49,19-5.22l4.76-1.38,2.39-.7,2.36-.78,9.48-3.22c9-2,17.92-3.72,26.66-5.53,8.7-2,17.29-3.85,25.85-5.65l6.42-1.34,3.21-.67,3.18-.75,12.74-3,12.79-2.95c4.28-1,8.6-1.91,12.88-3.09l26.12-6.82,6.68-1.76,6.68-2,13.61-4.09,14-4.26c2.38-.69,4.7-1.57,7.08-2.37l7.16-2.48,14.65-5.17,7.51-2.69c2.53-.89,5-2,7.57-3,10.47-4.18,20.93-8.35,31.27-12.46,10.41-4.29,21.3-8.86,32.5-13.25l4.17-1.63,4.28-1.62c2.86-1.08,5.62-2.14,8.56-3.17l8.65-3,8.78-2.87c1.44-.48,2.93-.93,4.43-1.37l4.44-1.3,4.41-1.27,4.51-1.17c3-.76,5.9-1.54,8.92-2.19s6-1.29,9-1.89c23.91-4.64,47.76-5.43,67.28-2.21,4.91.9,9.52,1.93,13.77,3a102.63,102.63,0,0,1,11.62,4.1A57.86,57.86,0,0,1,1371.28,423.59Zm-412,72.57c-8.52,2.26-12.54,2.21-15.84,1.79-1.64-.21-3.11-.51-4.87-.66-.87-.08-1.82-.1-2.91-.09a33,33,0,0,0-3.73.22c-8.59,2-16.09,3.52-22.86,4.68-3.39.58-6.59,1.07-9.66,1.5s-6,.62-8.9.87c-5.73.47-11.1.8-16.49,1.13l-8.16.55-4.18.31-4.32.26c-7,.71-14.81,1.75-23.27,3l-6.45,1-3.31.52-3.37.45L807,513.61c-18.95,2.92-39.54,5.24-59.61,7.4-10.06.81-20,1.56-29.51,2.17-2.39.13-4.74.34-7.08.38l-6.91.15c-4.54.09-8.95.13-13.2.12-17,.16-31.33-1.45-40.89-4a126.64,126.64,0,0,0,23.31-.45c7.25-.91,14.11-2.44,21-3.85,3.46-.72,6.92-1.43,10.46-2.07s7.13-1.17,10.86-1.8a130.39,130.39,0,0,1,24.34-1.51q4.42-1.84,8.88-3.59t9-3.64c6-2.34,12.21-4.53,18.63-6.57,3.21-1,6.48-1.94,9.81-3s6.74-2.06,10.23-3c7-2,14.32-3.78,22.11-5.47s16-3.73,24.78-5.41c4.39-.86,8.93-1.66,13.62-2.5s9.5-1.87,14.5-2.78c10-1.85,20.7-3.38,32.09-5.55q8.55-1.53,17.73-3l4.63-.74c1.56-.24,3.13-.49,4.7-.8l9.61-1.77c22.21-3.78,46.28-4.06,68.26-8.89,10.17-2.39,20.27-5.23,30-8.21l27.71-9.51,6.46-2.15,6.15-2.17c4-1.39,7.88-2.63,11.55-3.68a84.54,84.54,0,0,1,19.57-3.6c-1.62,5.39-9.66,11.44-21.28,18-2.91,1.64-6,3.31-9.35,5s-6.88,3.21-10.55,4.85c-7.35,3.23-15.25,6.52-23.35,9.84-2,.86-4.09,1.59-6.15,2.36l-6.22,2.31-12.42,4.61-12.19,4.61c-4,1.42-8,2.82-11.82,4.23-7.66,2.81-14.81,5.61-21.12,8.39-3.13,1.43-6.12,2.63-8.82,3.94S961.42,494.87,959.27,496.16Zm135.65,65c-5.68,3.87-10.94,5.88-17.57,8.06-6.68,2-14.72,4.2-26,8.61.07-3.19,7.55-6.23,16.73-9,2.3-.69,4.7-1.36,7.12-2s4.83-1.39,7.18-2C1087.09,563.53,1091.5,562.29,1094.92,561.2ZM465.84,380.15l10.71-13.34c1.74-2.27,3.66-4.35,5.51-6.5l5.58-6.43,5.58-6.45c1.89-2.11,3.86-4.13,5.78-6.2,3.89-4.11,7.72-8.31,11.66-12.38,8-7.89,16-16.06,24.44-23.49,8.26-7.77,17-14.85,25.65-22.17,4.4-3.52,8.88-6.9,13.35-10.36,2.24-1.71,4.46-3.49,6.74-5.14l6.88-4.88,6.91-4.89,3.47-2.44c1.16-.81,2.35-1.54,3.52-2.31L615.81,244a543.43,543.43,0,0,1,59.3-31.68c4.74-2,9.32-4,13.78-5.83,2.23-.92,4.41-1.87,6.58-2.7l6.45-2.39c4.24-1.56,8.37-3.09,12.41-4.51l12-3.84,5.84-1.84c1.93-.6,3.87-1.1,5.78-1.64l11.43-3.17,2.84-.78,2.86-.69,5.7-1.39c3.82-.91,7.63-1.92,11.5-2.79L784,178.19l6-1.36,6.18-1.19c4.16-.82,8.41-1.68,12.79-2.6l13.56-2.44c2.33-.41,4.69-.91,7.1-1.3l7.38-1.18,7.63-1.26,3.92-.67,4-.55,16.84-2.42q8.76-1,18.27-2.22c7.44-.76,14.5-1.61,21.63-2.65l22.14-2.75c3.9-.42,7.94-.77,12.16-1.15l6.5-.55c2.22-.17,4.49-.38,6.84-.45,9.38-.39,19.75-.83,31.67-.4,3.32.09,6.61.17,9.88.33l9.73.7,9.55.79c3.16.3,6.31.72,9.42,1.08,6.23.78,12.34,1.43,18.42,2.44l9,1.36,4.48.66,1.12.16.14,0s.06,0,0,0l0,0-.16.14-.33.29-1.31,1.15c-7,6.1-13.34,11.77-18.37,16.52s-8.7,8.55-10.09,10.81c-4.34,4-8.75,8-13.06,12.14s-8.61,8.23-12.87,12.32C996,222.28,987.83,230.49,981,238.4l-2.54,2.92-1.24,1.44-1.16,1.46q-2.28,2.88-4.37,5.64c-1.44,1.81-2.59,3.65-3.73,5.41s-2.18,3.45-3.07,5.09c-3.29,6.67-4.76,12.32-2,16.61a30.19,30.19,0,0,1-4.62,1,24.36,24.36,0,0,1-4,.18,10.44,10.44,0,0,1-5.7-1.75c-.18-.13-.36-.26-.52-.4a5.51,5.51,0,0,1-.41-.43,6,6,0,0,1-.71-.95,8.09,8.09,0,0,1-.91-2.34,4.67,4.67,0,0,1-.14-1.34,14.15,14.15,0,0,1,.06-1.43,20.09,20.09,0,0,1,.58-3.18c1.39-4.39,4.39-9.73,8.45-15.05a188.58,188.58,0,0,1,13.27-15.61q17-15.06,34-29.53t34-28.64l.13-.11a.74.74,0,0,0-.17,0l-.36-.05-.72-.1-1.43-.21-2.88-.4-5.74-.81-5.74-.81-2.88-.4-2.87-.3-11.51-1.2-5.75-.59-5.76-.39-11.5-.78-2.87-.19-2.88-.09-5.74-.19-11.48-.37-11.46,0h-8.59l-2.85.1-11.4.41-5.7.21-5.68.4-11.33.79-2.83.19-2.83.29-5.63.58-11.26,1.17-11.2,1.52-5.59.77c-1.86.25-3.72.5-5.57.84a640,640,0,0,0-87,20.25,680.16,680.16,0,0,0-82.11,31.15,722.26,722.26,0,0,0-148.44,91.26,654,654,0,0,0-67.94,62.33ZM750.26,615.28c.69.86-.52,4.82-1.65,8.65s-2.07,7.59-1.08,7.94c-10.7,26.32-17.15,51.25-21.94,74.7s-7.94,45.49-12,66.54c-3.8,20.06-11.48,39.57-16.61,65.73-3.4,17.44-5.17,38-7.4,55.78s-5,32.8-10.58,39.17c.29,16.85-3.31,40.15-6.82,64-1.77,11.92-3.51,24-4.75,35.36s-1.94,22.1-1.58,31.38c-6.25-2.44-3.66-59.15-14.9-25,.52,15.36,6.59,16,7.77,29.75-1.1,8.83-2.1,16.85-3.27,24s-2.33,13.39-3.63,18.62a64.84,64.84,0,0,1-4.24,12.55c-1.5,3.09-3.15,5-5,5.75-.62-6-.83-13.47-.82-22s.38-18.27.94-28.73c1.23-21,3.52-45,6.52-69.49s6.53-49.3,10.37-71.76,8-42.53,11.95-57.55A375.77,375.77,0,0,1,680,821.77c4-18.84,9.18-37.57,14.56-58.45-1.06-1.6-2.1.26-3.11,3.6s-1.93,8.21-2.89,12.57c2.28-26.51,11.69-52.28,22.29-77.86s22.39-51,29.75-77.85C744.4,614.89,746.28,626.11,750.26,615.28ZM647.42,1147.66a137.13,137.13,0,0,1-2.95,14.53c-1.07,4.25-2.19,8.29-3,13.2-1.76-1.36-3.14-4.41-3.8-9.19a108.19,108.19,0,0,1-.5-19.44C641.33,1131.25,644.48,1139.2,647.42,1147.66Zm79.84,261.93a319,319,0,0,0,21.14,45.12c4,7.23,8.44,14.11,12.92,20.89l3.47,5c.58.82,1.14,1.67,1.74,2.48l1.8,2.4,3.59,4.82,3.71,4.65,1.85,2.33,1.91,2.24,3.81,4.48,3.92,4.3,2,2.15c.66.71,1.34,1.38,2,2.06l4,4.12,4.09,3.92c2.67,2.69,5.52,5,8.25,7.55,5.63,4.75,11.24,9.36,17,13.37,2.84,2.14,5.79,4,8.67,5.89l1.08.72,1.1.66,2.2,1.32c1.47.86,2.89,1.82,4.37,2.61a203.41,203.41,0,0,0,26.45,12.86l7,2.65c2.36.83,4.77,1.54,7.16,2.37a17.84,17.84,0,0,0,1.84.55l1.89.51,3.77,1.05c2.47.79,5.14,1.29,7.77,1.89l4,.92c1.32.32,2.74.48,4.1.74l4.14.73c1.38.26,2.76.53,4.22.68q4.3.53,8.64,1.13l9,.78a336.57,336.57,0,0,0,38.42.39l10.14-.58,10.34-.89c1.7-.13,3.47-.34,5.22-.54l5.26-.6c1.76-.21,3.48-.37,5.27-.62l5.33-.74q21.33-2.94,43.28-7.47c3.61-.7,7.32-1.52,11-2.3s7.29-1.57,10.88-2.4c7.17-1.65,14.17-3.33,20.9-5.11q20.3-5.28,37.7-11.51a331.06,331.06,0,0,0,32.47-7.84,225.62,225.62,0,0,0,35.08-13.52c2.74-1.32,5.31-2.75,7.87-4.13s4.93-2.87,7.17-4.38,4.39-3,6.45-4.49,3.9-3,5.58-4.57c6.89-6.08,11.36-12.06,13.13-17a100.08,100.08,0,0,0,13-13.65,121.72,121.72,0,0,0,10.92-16.51,184.88,184.88,0,0,0,16-40.61,353.8,353.8,0,0,0,9.26-47.6c2.18-16.64,3.59-33.86,4.77-51.29.93-5.85,1.77-11.8,2.5-17.9.39-3,.69-6.21,1-9.34l.93-9.47c.3-3.17.59-6.35.89-9.53s.45-6.39.68-9.6c.41-6.42.83-12.87,1.18-19.36,1.14-25.95,1.35-52.42.92-79.22s-1.69-53.92-3-81.26-3.16-54.86-4.58-82.62c-.4-6.25-.48-12.15-.4-17.88s.28-11.31.41-16.89.26-11.21.23-17-.43-11.84-1-18.26c-1-11.17-3.44-23.37-5.77-36-1.2-6.29-2.59-12.64-3.79-19-.6-3.18-1.19-6.37-1.73-9.55-.27-1.54-.54-3.08-.81-4.6s-.5-3-.74-4.49c-2.68-16.91-4.46-31.23-6.81-42.64q-.75-3.64-1.51-7.29c-.17-1.08-.49-2.1-.76-3.15-.15-.52-.26-1.06-.42-1.58l-.52-1.54a45.24,45.24,0,0,0-5.82-11.73,38.71,38.71,0,0,0-9.7-9.07c-1-.64-2-1.26-2.88-1.93s-1.94-1.18-2.85-1.82a7.38,7.38,0,0,0-.68-.46l-.63-.38-.61-.39-.79-.52c-1-.75-2.24-1.43-3.27-2.18a42.43,42.43,0,0,1-3.83-3.14l-3.4-3.4a44.45,44.45,0,0,0-3.55-3.41c-.65-.55-1.32-1.09-2-1.61a19.17,19.17,0,0,0-2.31-1.5q-2-1.11-4-2.19c-1.42-.71-2.87-1.4-4.33-2.1s-3-1.35-4.59-2l-2.36-1-2.46-1c-1.67-.63-3.27-1.28-5-1.9l-5.19-1.85-10.68-3.45-5.26-1.74c-1.75-.59-3.48-1.18-5.22-1.67-3.47-1-6.86-2.09-10.14-3.19-6.53-2.3-12.75-4.26-18.2-6.64-20.45-3.49-40.5-6.3-60.72-7.9s-40.49-2.79-61.35-2.46h-3.92c-1.3,0-2.61,0-3.92.06l-7.9.29c-5.29.2-10.61.28-16,.74s-10.79.7-16.25,1.18l-16.55,1.74a562.51,562.51,0,0,0-69.64,13l8-3.14,8.08-2.87c5.4-1.89,10.78-4,16.15-5.61s10.63-3.57,15.77-5.27,10.16-3.25,14.92-4.93l3.53-1.27,3.45-1.16c2.26-.78,4.46-1.57,6.58-2.37,4.24-1.59,8.16-3.35,11.69-5,7.08-3.21,12.58-6.77,15.82-10.75a652.8,652.8,0,0,1,76.93.34A424.44,424.44,0,0,1,1154,709.26l12.42,3.39c1.92.54,3.8,1,5.62,1.59l5.31,1.7c7,2.28,13.61,4.2,20.8,6.8,3.62,1.24,7.41,2.5,11.53,3.83s8.4,2.87,13,4.51c9.27,3.3,19.8,7.26,31.54,12.7l3.86,1.86,1.93.91,1.84.93c1.23.62,2.45,1.23,3.68,1.83l1.75.94,1.55.8a125.36,125.36,0,0,1,12.31,7.31,77.77,77.77,0,0,1,20.49,19.48,102.88,102.88,0,0,1,9.26,16.45c.7,1.42,1.27,2.91,2,4.54.34.83.69,1.62,1,2.47l.95,2.57,1,2.57.89,2.68c.6,1.78,1.2,3.55,1.74,5.44,4.5,14.75,7.88,31.37,11,49.28,6.42,35.64,11.35,71.29,16.06,106,3.93,29.69,8.28,59.32,10.92,87.45q.9,10.54,1.59,20.76c.25,3.4.35,6.78.46,10.11s.19,6.64.24,9.9.07,6.49.06,9.67-.18,6.32-.31,9.41c-.31,6.19-.77,12.18-1.42,18,1.21,24,1.44,49.53.34,75.49q-.17,4.88-.35,9.76c-.12,3.26-.35,6.52-.53,9.79q-.57,9.8-1.15,19.63-.75,9.81-1.52,19.62c-.26,3.27-.47,6.53-.77,9.79s-.6,6.5-.91,9.74q-.87,9.72-1.75,19.34t-1.92,18.75q-2,18.5-4.21,35.76c-2.94,23-6.12,44-8.89,63-3,7.2-5.88,14.35-8.93,21.33s-6.2,13.82-9.46,20.49-6.7,13.09-10.27,19.33-7.31,12.23-11.3,17.9a200,200,0,0,1-12.49,16.22,195.69,195.69,0,0,1-13.83,14.49,192.19,192.19,0,0,1-15.17,12.68,181.27,181.27,0,0,1-16.1,10.71c-5.89,1.64-12.12,3.17-18.62,4.67s-13.38,2.87-20.55,4.24c-14.42,2.68-30.1,5.26-47.45,7.9s-36.29,5.43-57.15,8.83c-10.41,1.71-21.42,3.56-32.65,5.66l-8.4,1.55-4.25.82-4.24.78-17.14,3.31c-18.64,3.64-34.81,7.3-49.66,10.78l-5.52,1.29-2.72.67-2.67.6c-3.55.78-7.05,1.63-10.51,2.46s-6.8,1.47-10.16,2.24l-2.52.58-2.47.48-4.93,1c-13.1,2.57-25.86,4.7-38.7,5.22-1.61.08-3.24.2-4.86.23l-4.82,0-4.89-.09-2.46-.06-2.43-.22c-3.25-.29-6.54-.63-9.89-1s-6.58-1.17-9.94-1.85c-3.26-1.92-6.43-3.62-9.55-5.16-3.07-1.69-6.14-3.12-9.16-4.54s-6-2.83-9-4.18-5.94-2.75-8.94-4.13c-11.91-5.61-24.2-11.91-36.61-22.53-18.71-16-35.37-37-51-61.88-7.85-12.44-15.49-25.87-23.11-40.32q-1.44-2.7-2.89-5.45t-2.82-5.58c-2-3.71-3.78-7.58-5.73-11.44-1-1.91-1.91-3.9-2.86-5.88l-2.9-6-2.84-6.11c-1-2-2-4.1-2.9-6.21a63.18,63.18,0,0,0,11,2.18c3.38.4,6.52.62,9.62,1,1.55.2,3.09.43,4.64.75a47.84,47.84,0,0,1,4.78,1.21,49.67,49.67,0,0,1,10.43,4.79,27.85,27.85,0,0,0-.59-7.63c-.27-1.49-.63-3-.94-4.63l-.89-4.77c-.29-1.56-.54-3.08-.71-4.49a28.27,28.27,0,0,1-.14-3.91C725.27,1411.78,725.86,1410.13,727.26,1409.59Zm136.37-661.3c-.75,3.39-6.34,6.92-2.34,10.11a92.91,92.91,0,0,0-10,1.6c-1.68.33-3.33.81-5,1.31s-3.31,1-5,1.6c-3.3,1.13-6.58,2.4-9.83,3.74s-6.37,3-9.48,4.61-6.15,3.26-9.13,4.92-5.79,3.55-8.56,5.3-5.46,3.44-8.05,5.09l-7.35,4.93c-16.75,7.56-31.77,16.1-46,24.62l-10.42,6.64c-1.71,1.11-3.44,2.18-5.13,3.3l-5,3.47-9.88,6.87c-3.22,2.35-6.37,4.79-9.55,7.16-6.44,4.66-12.49,9.78-18.71,14.73-3.15,2.43-6.08,5.14-9.14,7.73S669,871.2,666,873.89l-9,8.24c-1.51,1.39-3.07,2.74-4.58,4.15l-4.48,4.35-9.16,8.75q-4.46,4.59-9.1,9.24-2.19,1.68-4.29,3.19c-1.33,1-2.57,1.93-3.83,2.84s-2.49,1.78-3.72,2.63l-1.83,1.26-1.79,1.29L607,925c-2.39,1.82-4.78,3.78-7.31,5.92-2,2.17-3.83,4.49-5.74,6.73s-3.84,4.48-5.64,6.81-3.71,4.57-5.52,6.89-3.57,4.67-5.35,7c-.91,1.16-1.77,2.34-2.61,3.53l-2.57,3.56L569.67,969l-2.46,3.6c-1.62,2.41-3.32,4.78-4.89,7.2l-4.68,7.27c-.8,1.2-1.53,2.43-2.26,3.66l-2.21,3.67L551,998l-2.07,3.7c-1.36,2.47-2.81,4.9-4.11,7.38l-3.86,7.4c-.66,1.23-1.25,2.47-1.84,3.71l-1.77,3.71c-.59,1.24-1.18,2.47-1.78,3.7s-1.08,2.48-1.62,3.71c-1.06,2.48-2.18,4.94-3.2,7.4s-1.93,4.93-2.88,7.38a243.26,243.26,0,0,0-9.58,32.27,231.27,231.27,0,0,0-4.41,31.76l-.22,3.85c-.05,1.27-.21,2.57-.17,3.82q0,3.77-.1,7.51c.17,4.91.2,9.8.67,14.47.08,1.18.16,2.36.23,3.53s.3,2.29.43,3.44l.39,3.41.17,1.7c.06.57.19,1.11.27,1.66.38,2.21.72,4.4,1,6.59s.9,4.25,1.28,6.37c2,9.3,4.09,18.43,6.88,27.44.78,2.22,1.52,4.45,2.23,6.71l1.26,3.32.63,1.66.69,1.62c.45,1.09.9,2.17,1.36,3.25s1,2.12,1.48,3.17l.73,1.59.81,1.53,1.59,3.08a95.09,95.09,0,0,0,16.1,21.75l2.38,2.31,2.52,2.17,1.25,1.06,1.32,1,2.64,1.94a65.08,65.08,0,0,0,11.4,6.29c3.72,3.24,7.86,6.52,12.31,9.86s9.26,6.67,14.41,9.91a221.88,221.88,0,0,0,34.28,17.66c6.18,2.51,12.5,4.77,18.85,6.76s12.76,3.58,19,4.93a169.31,169.31,0,0,0,35.31,3.79,188.61,188.61,0,0,0,35.78,5.42c6.74.45,13.82.59,21.1.57s14.77-.38,22.37-.88c15.2-1.07,30.8-3,46-5.54,7.61-1.23,15.1-2.63,22.41-4.09,3.68-.69,7.27-1.49,10.84-2.19l10.5-2.26c6.38-2.39,12.53-5,18.33-7.66s11.28-5.43,16.63-8.37a295.19,295.19,0,0,0,55.6-39.4,294.71,294.71,0,0,0,21.81-21.76c13.3-14.72,24.19-29.94,31.91-44.38a155.28,155.28,0,0,0,9.36-21c.33-.86.5-1.7.8-2.56l.44-1.28a7,7,0,0,0,.4-1.28c.21-.86.44-1.71.71-2.57.12-.44.3-.87.39-1.3l.27-1.31c.19-.87.42-1.75.68-2.64s.27-1.79.46-2.71c.51-1.81.52-3.71.91-5.65a36.89,36.89,0,0,1,2.41,18.49,77.4,77.4,0,0,1-6.24,22.29,202.15,202.15,0,0,1-12.23,23.24c-.56.94-1,1.89-1.61,2.82s-1.15,1.84-1.69,2.76-1.07,1.83-1.57,2.74-1.08,1.79-1.58,2.68c-1,1.76-1.94,3.53-2.84,5.24s-1.78,3.37-2.49,5l-21.92,20.53-2.76,2.55c-.91.86-1.81,1.73-2.77,2.55-1.87,1.67-3.71,3.36-5.53,5.05s-3.74,3.29-5.58,4.95-3.74,3.21-5.57,4.84c-7.42,6.37-14.77,12.49-22.08,17.89l-2.7,2.05-2.72,1.93c-1.81,1.27-3.58,2.54-5.35,3.75l-5.3,3.44-2.61,1.64-2.6,1.52-4.52,2.58c-1.54.87-3.14,1.64-4.75,2.48s-3.24,1.67-4.91,2.47l-5.08,2.34c-6.88,3.13-14.33,6.14-21.88,8.88s-15.3,5.34-22.93,7.76-15.2,4.61-22.4,6.79c-8.8,2.62-16.71,4.9-24.5,7s-15.51,4-23.93,5.72a253.08,253.08,0,0,1-28.3,4,280.18,280.18,0,0,1-37.44.6c-11.49-.57-22.59-1.74-33.87-3.4s-22.73-3.83-34.84-6.7a219.58,219.58,0,0,1-37.12-12.5c-3-1.26-5.91-2.71-8.84-4.07l-4.3-2.19c-1.44-.71-2.85-1.47-4.24-2.24-5.63-3-11-6.28-16.14-9.6s-10-6.84-14.66-10.33-9-7.07-13.06-10.68c-8.24-7.1-15.33-14.21-21.7-20.7-3.51-3.49-7.24-6.85-10.94-10.29a65.62,65.62,0,0,1-9.73-11.29,102.43,102.43,0,0,1-8.4-16.09c-.6-1.47-1.22-2.92-1.8-4.41s-1.09-3-1.64-4.55-1-3.09-1.47-4.64-1-3.11-1.43-4.67c-3.59-12.57-5.86-25.54-8.1-38a17.17,17.17,0,0,0-.48-1.79c-.23-.7-.5-1.51-.73-2.41-.5-1.79-1.14-3.87-1.79-6-.31-1-.69-2.09-.94-3.13s-.46-2-.68-3a32.06,32.06,0,0,1-.76-4.57A94.72,94.72,0,0,1,483.1,1128l.41-2.49c.14-.82.35-1.66.52-2.48.36-1.65.7-3.29,1-4.91.54-3.23,1.35-6.43,1.84-9.54a355.88,355.88,0,0,1,18.92-68.38,426.94,426.94,0,0,1,37.3-73.46,443.9,443.9,0,0,1,54.51-69.19l3.88-4c1.31-1.32,2.55-2.64,4-4l8.3-7.89,4.14-3.95c1.38-1.32,2.86-2.53,4.28-3.8l8.58-7.55c2.81-2.56,5.82-4.91,8.76-7.31l8.82-7.17c3-2.35,6-4.55,9-6.83s6-4.55,9.06-6.72c5-3.46,10-6.75,15-9.94s10.13-6,15.13-8.92c1.26-.72,2.49-1.5,3.77-2.19l3.84-2.1c2.55-1.4,5.1-2.82,7.64-4.28,5-3,10.28-5.75,15.46-8.84,6.9-4.25,14.17-8.72,21.46-13.32l2.74-1.72c.92-.56,1.86-1.08,2.8-1.61,1.87-1.06,3.75-2.11,5.63-3.13s3.77-2,5.66-3,3.76-1.93,5.71-2.7c3.88-1.61,7.74-3.09,11.56-4.48,1.92-.7,3.82-1.37,5.72-2s3.85-1.16,5.77-1.72l11.42-3.23c1-.26,1.89-.53,2.84-.78l2.87-.69,5.72-1.4c3.8-.95,7.58-2,11.38-3s7.68-1.94,11.52-3.08C847.74,753.94,855.62,751.65,863.63,748.29Zm21.3,510.5a35.9,35.9,0,0,0,5.64-2.59c1.26-.71,2-1.27,2.77-1.73,1.47-.89,2.63-1.49,6.84-2.22,1.26.78.9,2-.37,3.23a18.34,18.34,0,0,1-5.75,3.56C889.44,1261.07,884.34,1261.68,884.93,1258.79Z"/><path class="b" d="M677.37,441.82c.68-1.22.54-1.8.24-2.22s-.74-.65-.7-1.27a62.22,62.22,0,0,0,7.41-7c.91-1,1.71-2,2.45-2.86s1.44-1.76,2.17-2.61c2.94-3.44,6.19-6.66,17-14.36a314.16,314.16,0,0,0-31.79,34.58c-4.59,5.91-9.31,12.37-13.9,19.5-.77-.23-.92-1.05-.64-2.24a11.89,11.89,0,0,1,.73-2c.37-.74.82-1.55,1.35-2.4s1.12-1.76,1.77-2.69,1.4-1.85,2.16-2.79a70.91,70.91,0,0,1,4.84-5.48C673.26,445.07,675.92,442.62,677.37,441.82Z"/><path class="b" d="M645.93,483.13a7.77,7.77,0,0,0,1.26-3.34,3.67,3.67,0,0,0-.35-1.93c-.45-1.09-1.13-2.06.34-4.44,4.36.33.52,7.55,4.77,8.95-1.39,2.31-1.7,1.75-2.27,1S648.24,481.79,645.93,483.13Z"/><path class="b" d="M1144.72,1294.37c1-2,2.13-4.22,3.42-6.54s2.59-4.92,4.06-7.58c3-5.24,6.12-11.38,9.6-17.79a322,322,0,0,0,19.35-45.44,227,227,0,0,0,10.87-52.18c.15-2.15.29-4.27.43-6.38s.28-4.18.24-6.24c0-4.12,0-8.12-.14-12s-.6-7.55-1-11.07c-.2-1.76-.33-3.49-.63-5.14s-.58-3.27-.88-4.83c6.39,24.88,5,59.08-4.54,91a271.35,271.35,0,0,1-18.31,45.43c-.9,1.76-1.8,3.52-2.7,5.26l-1.35,2.61c-.47.85-1,1.69-1.42,2.52-1.89,3.35-3.75,6.7-5.63,10l-5.72,9.44c-.93,1.58-1.9,3.07-2.86,4.56Z"/></svg>