<svg xmlns="http://www.w3.org/2000/svg" viewBox="0 0 1920 700"><path d="M96,503.19q-9.18-59-21.69-117.45T46,269.71q-8.91-32.53-18.88-64.77L19.54,207A542.55,542.55,0,0,0,96,207a552.53,552.53,0,0,0,76.5-10.87q20.75-4.44,41.09-10.55c.61-.18,2.23-.66,2.27-1.6s-1.53-1.59-2.12-1.81a18.24,18.24,0,0,0-10.6-.47q-17.72,5.31-35.76,9.38-4.44,1-8.89,1.92l-1.18.25-.25.05-2.08.41c-1.59.32-3.18.62-4.77.92q-9.08,1.69-18.23,3.09-9,1.35-18,2.41c-3.11.36-6.23.7-9.34,1l-2.11.21-1.21.11c.1,0,1.09-.1.29,0l-4.83.41q-18.43,1.48-36.94,1.66c-1.71,0-3.43.08-5.15,0h-1l-2.73,0c-3.44,0-6.87-.11-10.31-.21q-10.44-.31-20.88-1.05a16.23,16.23,0,0,0-5.33.47c-.54.15-2.54.75-2.27,1.61q17.63,57.06,32,115.06T69.6,436Q75.85,469.19,81,502.52c.38,2.44,5.58,2.69,7.38,2.75,1,0,7.94.11,7.6-2.08Z"/><path d="M45.7,323.93c20.91-9.47,41.73-18.13,63.31-26.36q16.18-6.17,32.54-11.83c.2-.07,1.1-.37,0,0l1-.32c.33-.11,1.26-.34-.26.07a31.33,31.33,0,0,1-3.31.68c-1.47.23-1.16.09-.2.3a7.21,7.21,0,0,1,1.69.59,7.8,7.8,0,0,1,3.45,4,10.93,10.93,0,0,1-1.9,11.24,18.29,18.29,0,0,1-5.66,4.49c-.51.26-1,.51-1.54.74.66-.29-.09,0-.19.07s-1.69.5-.38.16c-.18,0-1,.25-.06,0l-.07,0,1-.24c-1.28.29.38-.07.53-.1-1.64.32,1.52-.17-.14,0-.11,0-.91.09-.21,0s-.53,0-.69.05c-.94.07-.47,0-.26,0-.4,0-.81,0-1.21,0a28.76,28.76,0,0,1-4-.27,35.37,35.37,0,0,1-8.63-2.35l.12.55a120.64,120.64,0,0,1,20.61-14.35c1.85-1,3.72-2,5.61-2.9,1-.48,2-.94,3-1.39l1.28-.57.64-.28c.3-.13.29-.13,0,0l.43-.18c1.95-.8,3.91-1.57,5.89-2.28l.54-.2c.44-.17.89-.3,1.33-.45,1-.34,2.08-.66,3.13-1,.36-.11,1.26-.31-.38.1.23-.05.45-.12.67-.19l1.36-.37,1.58-.42c.23-.06,1-.26-.06,0-1.3.32.24-.06.4-.09l1.36-.32c.3-.06,2.15-.46.86-.19s.33-.06.62-.12l1.84-.34c.23,0,.47-.06.7-.12l-.62.1,1.62-.25,1.39-.2.92-.12c.63-.08.38-.07-.1,0,1-.16,2.08-.22,3.12-.29l.72,0c-.61,0,.19,0,.26,0H181a20.13,20.13,0,0,1,11.49,3.5,19.22,19.22,0,0,1,6,7.8c3,6.76,2.61,14.46,0,21.28-3.06,8.1-8.69,14.86-14.24,21.37q-18.47,21.7-38.42,42.08t-41.1,39.1c-1.75,1.56-3.51,3.1-5.27,4.64-.8.7,1.22.6,1.51.59a37.2,37.2,0,0,0,5.83-.91c-2.18.46.81-.17,1.23-.25l2.13-.43q2.65-.54,5.31-1.05,5.05-1,10.12-1.87l4.8-.83c1.74-.3-1,.17.1,0l1.34-.22,2.67-.43q5.09-.81,10.17-1.55t10.2-1.39l4.83-.61,1.35-.16c1-.13-1.36.16.37,0l2.69-.31q10.22-1.15,20.48-2A664,664,0,0,1,266,405.83q23,.94,45.92,3.47c3,.34,6.28-.54,9.15-1.34a21.31,21.31,0,0,0,4.27-1.46c.17-.09,1.48-.85.55-.95a678.83,678.83,0,0,0-84.58-4.13,698,698,0,0,0-85.56,6.52c-16.54,2.29-33,5.21-49.33,8.63l7.34-.33q22.36-19.5,43.27-40.59t40-43.45c10.31-12.05,23.24-27.68,16.33-44.57a19.45,19.45,0,0,0-6.26-8.32c-3.54-2.63-7.7-3.67-12-4a70.22,70.22,0,0,0-15.32,1.07c-5.85.88-11.63,2.08-17.35,3.53-18.35,4.63-35.9,12.57-50.91,24.17q-2.6,2-5.08,4.14c-.3.26-.26.44.13.54a40,40,0,0,0,18.11,2.62,73.23,73.23,0,0,0,13.86-2.47A54.71,54.71,0,0,0,149.24,305c4.43-2.3,9-5.94,9.95-11.12.78-4.12-.94-8.8-4.88-10.64-3.71-1.74-8.67-.53-12.44.26a106.31,106.31,0,0,0-13.29,4q-9.2,3.21-18.33,6.57-18.4,6.78-36.56,14.19-20.59,8.38-40.85,17.56c-.57.26-1.14.56-.56,1s3-.09,3.5-.16a37.78,37.78,0,0,0,9.92-2.64Z"/><path d="M237.53,286.34l55.76-18.42,15.89-5.26c3-1,5.68-5.1,3.68-8-2.27-3.36-6.44-3.21-9.85-2.09L247.25,271l-15.89,5.25c-3,1-5.67,5.11-3.68,8.05,2.27,3.35,6.44,3.21,9.85,2.08Z"/><path d="M484.6,592q-15.74-50.09-29.41-100.8-13.59-50.43-25.11-101.37c-1.9-8.44-4-16.88-5.58-25.39-.08-.44-.14-.88-.22-1.32-.23-1.24.1.41,0,.51a18.93,18.93,0,0,0,0-2.61l-.14.93a7.27,7.27,0,0,1,.22-.8c.22-1,.23.47-.23.46l.21-.36c.43-.59.3-.48-.38.34a5.77,5.77,0,0,1,.65-.57c.6-.43.46-.35-.44.24a14.73,14.73,0,0,0,2-.82c1.45-.52-1.5.28,0,0l1.3-.26,6.63-1.27,52.69-10.1,104.82-20.07L697.13,308.5l12.67-2.43a6.41,6.41,0,0,0,5.23-7.91c-.92-3.46-4.5-7.07-8.43-6.32L600.05,312.25,493.51,332.66l-53,10.15L427,345.4c-4.37.84-9.26,1.44-12.62,4.66-7.19,6.87-3.13,17.89-1.31,26.18Q424.46,428.1,438,479.43q13.47,51,29,101.51,2,6.31,3.92,12.61c1.11,3.51,4.38,7,8.43,6.31,3.57-.59,6.39-4.2,5.23-7.91Z"/><path d="M436.7,438.6c.8-.4,1.61-.79,2.42-1.17l1.21-.57c1.49-.7-1.71.76-.2.09,1.77-.79,3.54-1.56,5.33-2.3q4.95-2,10-3.79A178.87,178.87,0,0,1,476.57,425c.87-.19,1.75-.36,2.62-.54,1.59-.32-1.72.31-.12,0l1.32-.24q2.85-.51,5.73-.93,5.31-.76,10.65-1.22a177.21,177.21,0,0,1,21.86-.51l1.34.06.9,0c-1.1-.06-1.27-.06-.5,0l2.67.18c2,.14,4,.29,6,.55.74.1,1.48.24,2.22.41l1,.25c1.72.48-1.21-.46-.11,0a22.09,22.09,0,0,1,4.09,2l-1.48-1a11.82,11.82,0,0,1,2.44,2.13L536,424.86a7.87,7.87,0,0,1,1,1.61l-.7-1.65a6.07,6.07,0,0,1,.46,1.78l-.18-1.76c0,.32,0,.65,0,1s.4-2,0-.47c-.25,1,.93-1.63.3-.72-.5.73-.61.41.58-.68-.18.17-.37.36-.53.54,1.39-1.53,1.41-1.1.66-.58-1.15.8,1.91-.71.79-.34l-.74.25c-1,.36,2-.26.85-.15l-.8.08c-.31,0-1.61,0-.16,0s.15,0-.16-.08-.54-.11-.81-.17c-1.09-.23,1.67.67.67.2a11.78,11.78,0,0,1-1.69-.88l1.47,1a9.11,9.11,0,0,1-1.6-1.44l1.15,1.37a9.08,9.08,0,0,1-1.25-2.15l.7,1.65a10.91,10.91,0,0,1-.66-2.69l.18,1.75c-.08-.94.09-1.85.07-2.78,0,1.45-.26,1.3-.1.71,0-.23.11-.46.17-.69a12.11,12.11,0,0,0,.6-1.7c0,.07-.86,1.67-.29.69.12-.21.22-.43.34-.64.24-.42.51-.82.78-1.23s.8-.7-.52.64c.16-.17.31-.38.47-.56a15.46,15.46,0,0,1,1.14-1.15l.6-.51c.72-.63-1.41,1-.62.49.45-.3.88-.61,1.34-.89s.93-.55,1.41-.8c.23-.13.48-.24.72-.37.83-.43-1.75.75-.54.25a49.82,49.82,0,0,1,6.63-2.16c2.39-.6,4.81-1.11,7.23-1.61l1.66-.34,1-.19-.45.09c1.44-.24,2.87-.53,4.3-.78,5-.87,10-1.71,15.05-2.15,1.23-.1,2.45-.17,3.68-.18.58,0,1.16.05,1.74,0-2.26.08-.22,0,.44.09s1.11.16,1.66.28l.72.17c1.23.3-.21-.25-.46-.19.37-.09,1.36.51,1.7.67a16.59,16.59,0,0,1,1.6.88l-1.48-1A14,14,0,0,1,589,410l-1.15-1.38a14,14,0,0,1,2,3.39l-.7-1.65a17.14,17.14,0,0,1,1.08,4.52l-.19-1.75a23.49,23.49,0,0,1,0,3.46c0,.59-.09,1.18-.16,1.77,0,.24-.06.48-.1.72-.17,1.3.32-1.55.06-.34a48.69,48.69,0,0,1-2,7c-.44,1.15-.92,2.28-1.41,3.41-.18.4-.61,1.15.24-.54-.15.3-.28.63-.43.94-.32.69-.64,1.38-1,2.07-1.19,2.49-2.44,4.94-3.75,7.37a228.77,228.77,0,0,1-17.94,27.74c-1.66,2.22-3.34,4.41-5,6.6-.74,1,.35-.45.41-.52-.25.33-.51.65-.77,1l-1.17,1.47-2.74,3.41c-3.51,4.33-7.08,8.6-10.67,12.86-7.15,8.49-14.37,16.91-21.34,25.54-3.8,4.72-7.54,9.5-11.15,14.37-3.77,5.08-7.66,10.48-7.87,17.07a18.1,18.1,0,0,0,5.91,13.75c3.67,3.5,8.44,5.49,13.21,7a53.42,53.42,0,0,0,12.91,2.23c6.95.41,13.91.73,20.87.91q19.53.51,39.06-.26A592.71,592.71,0,0,0,672.44,564q4.81-.84,9.62-1.74a9.24,9.24,0,0,0,5.28-2.44,7.54,7.54,0,0,0,2.23-5,6.1,6.1,0,0,0-2-4.77,6.6,6.6,0,0,0-5-1.6,593.84,593.84,0,0,1-68.26,8.87,591.53,591.53,0,0,1-69.06.88l-2.44-.12-1,0c-.89,0,1.46.08.14,0s-2.89-.15-4.33-.26a51.35,51.35,0,0,1-6.3-.89c-1.07-.21-2.12-.47-3.17-.76-.61-.17-2.37-.86-.16,0-.5-.19-1-.35-1.51-.53A29.75,29.75,0,0,1,521,552.9l1.48,1a18.16,18.16,0,0,1-3.84-3.31l1.15,1.37a12.79,12.79,0,0,1-1.94-3.18l.69,1.65a12,12,0,0,1-.74-2.88l.19,1.75a12.31,12.31,0,0,1-.07-1.72,4.41,4.41,0,0,0,.07-1l-.17.93q.08-.4.18-.81c.1-.4.23-.79.37-1.19l.14-.39c.28-.69.2-.52-.26.53a26.86,26.86,0,0,0,1.43-2.59c1.84-3,4-5.72,6.13-8.5,1-1.33,2-2.65,3-4,.3-.38,1.27-1.58-.15.19.26-.32.51-.65.77-1l1.82-2.29q3.27-4.08,6.61-8.1c8.8-10.64,17.88-21,26.58-31.77,8.92-11,17.53-22.32,24.88-34.45a175,175,0,0,0,9.7-18.25c2.9-6.36,5.49-12.91,5.7-20a24.33,24.33,0,0,0-2.16-11,18.7,18.7,0,0,0-7.77-8.22c-6.33-3.73-14.36-3.34-21.37-2.43-8.34,1.08-16.63,2.56-24.85,4.35-7.6,1.65-15.52,4-21.13,9.72-5.85,6-8.45,15-4.65,22.71,3.2,6.52,12.09,8.92,18.63,6.64a14.42,14.42,0,0,0,9.11-8.84,11.8,11.8,0,0,0-1.76-10.79c-4.31-5.54-11.27-7.78-18-8.42a186.66,186.66,0,0,0-89.82,13.5c-3.77,1.59-7.49,3.3-11.17,5.1-3.19,1.57-5,6.53-2.93,9.59,2.38,3.49,6.42,3.47,9.87,1.78Z"/><path d="M629.12,410.93l59.2-16.58,16.84-4.72a12.38,12.38,0,0,0,5.06-2.83,8.06,8.06,0,0,0,2.61-4.18c.42-3.38-2.82-4.35-5.61-3.57L648,395.63l-16.85,4.72a12.51,12.51,0,0,0-5.06,2.83,8.1,8.1,0,0,0-2.6,4.18c-.42,3.39,2.82,4.35,5.6,3.57Z"/><path d="M656.22,441.5l13.22-132.61c4.08-41,7.23-82.79,16.48-122.73a288,288,0,0,1,18.78-56c.86-1.85,1.75-3.7,2.66-5.53.18-.37.37-.74.55-1.1-.64,1.26.29-.56.35-.66.52-1,1-2,1.58-3q3-5.56,6.34-11T723,98.56q1.77-2.52,3.63-5l1.87-2.45c.25-.32.51-.64.76-1l.77-1c-.47.57-.54.66-.21.25a188.34,188.34,0,0,1,16.88-18.17q2.22-2.08,4.52-4.08l.92-.8c1.56-1.35-1.26,1,.33-.27L755.05,64c3.23-2.57,6.57-5,10-7.32q2.52-1.68,5.08-3.26c.78-.47,1.55-.94,2.33-1.39.43-.26.87-.5,1.31-.76-1.68,1,.11-.05.35-.19q5.42-3,11.09-5.45,2.64-1.14,5.31-2.17c.94-.36,1.89-.71,2.84-1l1.72-.6c-1.2.42,0,0,.53-.17a129,129,0,0,1,13.12-3.42c19.3-4,40.09-3.17,59.84.27,20.58,3.58,40.64,9.69,60.43,16.32,4.86,1.63,9.71,3.3,14.56,5,6.18,2.14,15.56-9,7.62-11.72-39.83-13.77-82-28-124.75-24a140.7,140.7,0,0,0-54.26,16.16,169.06,169.06,0,0,0-41.88,32.34c-25.58,27-42.48,60.66-52.75,96.16-11.72,40.53-15.71,82.68-19.88,124.49L644.2,428.29l-1.62,16.27c-.35,3.51,3.31,5.09,6.29,4.34,3.39-.87,7-3.67,7.35-7.4Z"/><path d="M658.42,219.68a377.51,377.51,0,0,1,73.94-21.77,352,352,0,0,1,37.64-5q9.59-.78,19.21-1.06c3.12-.1,6.23-.15,9.35-.16q2.34,0,4.68,0l2.34,0,1.3,0a5,5,0,0,1,.52,0c6.41.16,12.82.46,19.21.94,1.11.08,2.22.24,3.33.32-.05,0-1.82-.26-.72-.09l.72.11c.66.1,1.32.21,2,.34a12.72,12.72,0,0,1,1.63.33s-2-.48-.86-.19l.72.18c.6.15,1.2.32,1.79.49.24.07.47.15.71.21-2.38-.63-1-.33-.5-.14s.92.32,1.37.5c.28.1.56.23.85.33.86.31-1.7-.77-.51-.21.43.2.86.39,1.29.61l.78.4c1.2.61-.64-.42-.16-.09s2.11,1,2.39,1.6c-.25-.58-.62-.53-.1-.07l.61.54c.4.36.78.73,1.14,1.12l.42.48s.63.79.3.35.26.38.25.38c.12.17.23.34.34.52a13.34,13.34,0,0,1,1.24,2.65,11.81,11.81,0,0,1,.53,5.58,13.06,13.06,0,0,1-5.37,9,25.19,25.19,0,0,1-5.36,3.06c.66-.29-.57.22-.7.27-.49.18-1,.35-1.48.51-1.07.35-2.16.65-3.25.91s-2.11.48-3.18.67l-1.61.26h0l-1.08.13c-2.11.23-4.23.37-6.36.4a7.15,7.15,0,0,1-1.79,0c.12,0,1.39.07.26,0l-.88-.06c-1.18-.06.35,0,.5.07a11.74,11.74,0,0,1,2.65.8c.29.12,1.4.44,1.45.77,0,0-.76-1-.32-.3-1-1.65-.8-3.27.06-5.09,2.21-4.68,7.16-7.16,11.66-9.1A152.68,152.68,0,0,1,849,205a163.24,163.24,0,0,1,18.65-4.35c1.53-.26,3.07-.5,4.61-.72,1.31-.19,2.37-.32,4.13-.51q4.77-.52,9.55-.76c1.55-.08,3.11-.13,4.66-.16a28.88,28.88,0,0,1,4.92,0c-1.82-.28-.15,0,.37,0s1.07.06,1.61.1,1.09.1,1.63.16,1.42.32-.52-.07c.36.07.73.1,1.09.16l1.45.26.73.15c1.37.28-1.64-.42-.69-.15.53.15,1.07.27,1.6.42.23.07.46.15.7.21-2.36-.6-1.1-.36-.53-.16s1,.39,1.51.58c.86.31-1.7-.79-.52-.22l.63.29c.25.13,1.82.93.85.42s0,0,.19.14.57.36.84.55l.54.39c.78.55-.22-.18-.22-.18s1,.85,1.09,1c.34.33.67.68,1,1,.14.16.27.32.4.49-.5-.63.06.11.16.26a12.57,12.57,0,0,1,2,5.34c.64,5.94-3,11.7-5.72,16.69A256.24,256.24,0,0,1,869,276.63c-14.33,15.57-30.13,29.73-46.45,43.18-16.62,13.69-33.8,26.67-50.89,39.77s-34,26.23-50.14,40.34c-3.89,3.4-7.75,6.85-11.54,10.37-2.31,2.14,5.27,4.67,6.17,4.87q42.76,9.75,86.15,16.39t86.94,9.92q24.1,1.84,48.28,2.68c.94,0,2.85.21,3.71-.5s.36-1.42-.24-2c-2.27-2.19-6.59-3.44-9.67-3.54q-42.71-1.49-85.21-6.1-10.51-1.14-21-2.48l-2.72-.35.16,0c-.46-.05-.91-.12-1.37-.18-1.9-.25-3.81-.5-5.71-.77q-5.18-.71-10.34-1.46-21.07-3.09-42-7-11.76-2.16-23.46-4.57-5.92-1.22-11.83-2.5l-5.91-1.29-2.68-.6c-.11,0-1.88-.43-.63-.15s-1-.21-1.17-.26l6.17,4.87c16.43-15.24,33.94-29.27,51.65-43s36-27.33,53.54-41.48c17.24-13.88,34-28.4,49.34-44.41s29-33.35,39.91-52.5c1.34-2.35,2.65-4.73,3.91-7.14a34.16,34.16,0,0,0,3.66-9.17,15.32,15.32,0,0,0-4.08-13.58c-3.81-4.08-9.34-6.65-14.56-8.36a65.91,65.91,0,0,0-18.56-3.36,166.07,166.07,0,0,0-41,4.15A163.34,163.34,0,0,0,828,202.15c-3.3,1.19-6.56,2.5-9.79,3.88a33.46,33.46,0,0,0-7.56,4c-3.42,2.65-7.87,7.63-5.63,12.3,1.86,3.89,6.81,5.76,10.66,6.8a41.3,41.3,0,0,0,11.93,1.13,67.48,67.48,0,0,0,14.58-1.87,32.91,32.91,0,0,0,12.45-5.58,15.42,15.42,0,0,0,6-10.3,15.81,15.81,0,0,0-4.13-12.18c-3.65-4.18-8.94-6.8-14-8.84A73.67,73.67,0,0,0,824.09,187c-6.19-.78-12.5-1-18.73-1.19q-10.67-.36-21.32-.18a377.8,377.8,0,0,0-39.92,2.86A384,384,0,0,0,665,206.89q-9.33,3.27-18.47,7c-.76.31-1.58.6-1.22,1.61s2.13,1.92,2.94,2.31a20.65,20.65,0,0,0,5.52,1.75c1.38.22,3.29.64,4.61.1Z"/><path d="M972.61,232.43l90.49,15.62,25.57,4.42a9.86,9.86,0,0,0,5.68-1.2,7.75,7.75,0,0,0,3.54-3.7,4.25,4.25,0,0,0-.52-4.21,6.76,6.76,0,0,0-4.25-2.06l-90.49-15.62-25.57-4.42a9.86,9.86,0,0,0-5.68,1.2,7.73,7.73,0,0,0-3.54,3.71,4.23,4.23,0,0,0,.52,4.2,6.76,6.76,0,0,0,4.25,2.06Z"/><path d="M1126.4,621.53A645.62,645.62,0,0,0,1159.73,509q5.74-28.68,8.84-57.81c2-19,2.9-38,3.56-57.05.59-17,1.5-34.34,7.76-50.23a68,68,0,0,1,12.57-20.61,88.5,88.5,0,0,1,18.37-15.2,141.68,141.68,0,0,1,21.05-10.71c8-3.37,16.26-6.25,24.53-8.94A441.32,441.32,0,0,1,1312,274.19a457.41,457.41,0,0,1,57.74-7.05q7.27-.42,14.54-.62c2.21,0,4.41-.09,6.62-.12l3.3,0h3.29q14.38.09,28.75,1.1,7.26.51,14.5,1.25c2.62.27,6.3-1.18,5.06-4.45s-5.21-5.49-8.6-5.83a464.41,464.41,0,0,0-118.07,3.06,470,470,0,0,0-57.93,12.8c-17.08,4.93-34.3,10.49-50.21,18.52-14.79,7.47-28.39,17.27-37.68,31.22-9.88,14.83-13.14,33-14.46,50.44-.66,8.79-.85,17.6-1.14,26.41q-.5,14.72-1.65,29.39-2.34,29.33-7.36,58.36a632.77,632.77,0,0,1-30.58,112.87q-2.55,6.86-5.27,13.65c-1.25,3.12,2.34,6.17,4.87,7.27,2.2,1,7.43,2.31,8.71-.9Z"/><path d="M1091.57,432.9a918.75,918.75,0,0,1,187.77,2.78c1.72.2,3.45.41,5.17.63,1.41.17-.6-.12.26,0l.9.17c.67.14,1.34.31,2,.48,1.07.28,0,0-.2-.08l.41.16c.56.24.55.23,0,0-.59-.63-.23-.12.15.1.84.5-1.13-.74-1.27-.85a16.36,16.36,0,0,1-1.4-1.36c-.78-.79.36.8-.22-.42.12.26.21.52.32.78.25.63,0,0,.08.33.48,4.13-3.6,6.24-7.42,7.29a21.1,21.1,0,0,1-6.56.82c-1.33,0-2.66-.16-4-.29l-2.27-.25-1.41-.17c-.63-.08-.3,0-.68-.1a44.73,44.73,0,0,1-4.7-1l-1.07-.31c.24.07,1,.39-.08,0l-1-.42c-1.36-.54,1,.65-.37-.17-.4-.24-1.25-.46.25.2-.31-.14-.61-.55-.92-.63.07,0,1.54,1.18.48.35-.65-.5,0-.47.28.28a4.46,4.46,0,0,0-.63-.71c.85.92.3.39.12.11l-.53-.79c-.77-1.12.25.73-.28-.52-2.06-4.78-1.55-10.2,3.5-13.26a51.53,51.53,0,0,1,9.46-4.1q5-1.78,10.06-3.11a114,114,0,0,1,42-2.8,97.13,97.13,0,0,1,9.71,1.66c.67.15,1.35.3,2,.48l1,.26s1.56.51.67.19.24.11.42.18l.91.38c.89.35-1.12-.66-.32-.15,1.33.85-.15-.16-.67-.51-1.41-.92.74.62-.37-.33s.38.65-.22-.22.21.63,0,0,.17.43.21.53a7.88,7.88,0,0,1,.17,4.28c-.59,3.13-2.67,6.05-4.57,8.54-8.4,11.06-17.8,21.51-27.16,31.77a667.49,667.49,0,0,1-60.21,58.24q-15.94,13.6-32.73,26.18-8.17,6.14-16.55,12-4.35,3-8.75,6a52.17,52.17,0,0,0-7.52,5.7,12.74,12.74,0,0,0-4.09,7.63c-.36,3.53,1.7,6.87,4,9.37,5.58,6.15,13.62,8.85,21.13,11.75q21.06,8.12,42.45,15.35,43.18,14.63,87.47,25.72,43.8,10.9,88.4,18.16,11.14,1.82,22.31,3.4a1.57,1.57,0,0,0,1.9-1.39c.06-1.14-1.16-2.66-1.84-3.38a15.59,15.59,0,0,0-9-5q-46-6.57-91.27-17.13t-89.79-25c-3.78-1.22-6.7-2.19-10-3.29q-5.58-1.89-11.14-3.82-11.12-3.88-22.15-8c-3.58-1.34-7.14-2.69-10.71-4.06l-5.18-2c-.83-.32-1.67-.64-2.5-1l-.91-.38c-.22-.1-1.68-.89-.76-.34s-.07,0-.29-.17c-.45-.25-1.48-1,.22.16-.39-.25-1.1-.9.43.36-.3-.25-1-.91.27.3-.78-.75,0,0,.13.16-.58-.77-.13-.26,0-.05a4.25,4.25,0,0,1-.41-1.78c-.07-2.87,1.9-5.29,3.87-7.18a57.42,57.42,0,0,1,7.77-5.76c3-2.06,6-4.13,9-6.24q8.77-6.2,17.34-12.65,17.34-13.06,33.81-27.26a668.64,668.64,0,0,0,61.75-60.57q7.29-8.14,14.32-16.53,3.51-4.2,7-8.44a37.65,37.65,0,0,0,5.61-8.47,13.25,13.25,0,0,0,.6-10.2c-1.56-4.05-5-7.28-8.56-9.65-6.8-4.6-14.91-6.08-22.89-7.23a119.77,119.77,0,0,0-44.12,1.92,95.22,95.22,0,0,0-20.82,7c-2.79,1.38-5.6,3.3-7,6.17a12.89,12.89,0,0,0-.91,8.23c1.61,8,8,14.15,15,17.89s14.66,5,22.45,5.64c4.88.41,10.55-.2,14.86-2.69a9.55,9.55,0,0,0,4.42-4.5,9.25,9.25,0,0,0-1.18-8.21c-4.4-7.18-13.09-10.46-21-11.53s-15.87-1.86-23.81-2.63q-24.26-2.36-48.61-3.42a920.7,920.7,0,0,0-96.73.86q-11.91.74-23.79,1.78c-3.14.28-1.45,3.3-.06,4.78a17.67,17.67,0,0,0,4.57,3.55c1.28.67,2.95,1.61,4.43,1.48Z"/><path d="M1383.76,428.4l56.7,4.62,16.1,1.31c1.14.1,1.77-.89,2-1.86a9.14,9.14,0,0,0-.65-4.71,14.87,14.87,0,0,0-2.93-5c-.91-.94-2-2-3.39-2.14l-56.7-4.62-16.09-1.32c-1.15-.09-1.78.9-2,1.87a9.14,9.14,0,0,0,.65,4.71,14.73,14.73,0,0,0,2.94,5c.9.94,2,2,3.38,2.14Z"/><path d="M1660.52,573.15q-14.28-46-31.56-91.07T1591.42,393q-10.08-21.89-20.88-43.44c-3-5.94-7.74-13-5.56-20,1.61-5.13,6.22-8.49,10.93-10.63,5.61-2.55,11.78-3.56,17.79-4.73l24.92-4.84,49.84-9.68,99.69-19.36,12.17-2.36c2.21-.43-2.25-4.58-2.74-5a26.84,26.84,0,0,0-4.66-3.42c-.9-.49-2.32-1.47-3.39-1.26l-100.27,19.48-49.84,9.68-24.92,4.84c-7.37,1.43-14.9,2.54-22.16,4.49-5.37,1.44-11.07,3.52-15.18,7.39-4.7,4.43-5.64,10.76-3.59,16.75a85,85,0,0,0,4.88,10.63q2.76,5.5,5.49,11,5.31,10.81,10.45,21.71,20.49,43.46,38.12,88.19,17.74,45.12,32.49,91.34,1.79,5.61,3.53,11.23c.88,2.8,4.14,5.15,6.48,6.69a13.25,13.25,0,0,0,4,2.1c.46.11,1.76.31,1.46-.65Z"/><path d="M1585.79,439.26a197.89,197.89,0,0,1,29.6-26.69l-1.12.82a202.11,202.11,0,0,1,55.37-28.61q3.72-1.23,7.47-2.32l1-.28c.83-.24-1.3.36,0,0l1.79-.49,3.78-1q7.6-1.86,15.33-3.1c2.23-.35,4.46-.68,6.71-.86,1.06-.09,2.13-.15,3.2-.18l1.54,0h.68c1.2,0-1.32-.06-.2,0a50.2,50.2,0,0,1,6.36.65c.54.09,1.08.2,1.62.32l.63.15c1.19.26-1.36-.42-.55-.15,1,.31,1.92.58,2.86,1,.11,0,1.65.8,1.7.75s-1.73-.93-.84-.41c.26.15.53.29.79.45.43.26.85.54,1.26.82,1,.69-1.44-1.19-.75-.58.26.23.54.44.8.67s.71.7,1.06,1c-1.94-1.89-.66-.73-.19-.1.15.2.28.42.43.62.83,1.15-.65-1.24-.33-.55.25.52.54,1,.77,1.54a6.32,6.32,0,0,0,.25.6c-.88-1.66-.34-1-.17-.38s.22,1.16.36,1.74c.19.75-.07-1.59,0-.44,0,.32,0,.64,0,1a14.48,14.48,0,0,1-.09,1.61c0,.26-.09.53-.11.79,0,.51.35-1.31,0-.14-.17.57-.31,1.14-.52,1.71a18.65,18.65,0,0,1-1.54,3.22l.71-1.18a17.73,17.73,0,0,1-4.58,5l1.12-.81a17.65,17.65,0,0,1-4,2c-.56.18-.41.14.45-.11l-.63.15-1,.16c-.47,0-.93.07-1.39.1-1.11.07,1.34.15.16,0-.46-.06-.93-.1-1.39-.18s-1.34-.62.3.11c-.7-.31-1.54-.61-2.28-.86,2,.67.89.46.27.1-.35-.21-.69-.44-1-.67-1.15-.74,1.62,1.33.33.25-.31-.27-.62-.54-.92-.83s-.33-.33-.5-.5l.87,1c-.31-.14-.69-.82-.9-1.1s-.4-.57-.61-.86c-.71-1,.94,1.72.08.07-.16-.31-.31-.63-.46-.95-.72-1.61.29,1.07,0,0a12.54,12.54,0,0,0-.55-2.38c.09.92.11,1.15.07.69,0-.18,0-.35,0-.53a13.1,13.1,0,0,1,0-1.4c0-.35.07-.7.1-1,.09-.54.07-.47,0,.23.06-.28.13-.55.21-.82a20.86,20.86,0,0,1,2.4-5.34l-.72,1.17a56.12,56.12,0,0,1,9-10.33,106.12,106.12,0,0,1,10.3-8.62l-1.11.82a106.82,106.82,0,0,1,22.71-12.66q3.07-1.24,6.21-2.3c1-.33,2-.64,3-.94l1.59-.47c.76-.22-.94.25-.18.05l1-.26a102.68,102.68,0,0,1,12.78-2.5c2-.26,4-.48,6-.58.92-.05,1.84,0,2.75-.06-.09,0-1.51-.05-.52,0l.52,0c.52,0,1,.06,1.56.1.87.08,1.73.18,2.58.32.46.07.91.15,1.35.25.61.12,2.15.7.16,0,.79.28,1.59.49,2.37.79l1,.45c1,.43-.85-.38-.8-.4a3.72,3.72,0,0,1,.69.38c.37.22.72.45,1.07.69,1.22.81-1.36-1.17-.47-.36l.91.85c.45.43.49.94-.72-.79.15.22.34.41.49.62s.18.26.28.38c.68.87-.55-.8-.46-.78s.53,1,.6,1.15a6.76,6.76,0,0,0,.3.72c-.11-.18-.41-1.43-.17-.35a5.26,5.26,0,0,1,.34,1.72c.18-1-.06-.76,0-.25,0,.29,0,.59,0,.88,0,.59,0,1.18-.1,1.76,0,.23,0,.45-.08.67s-.18,1.11-.05.4-.06.24-.1.41c-.08.37-.18.74-.28,1.1a49.75,49.75,0,0,1-2.53,6.88A236.65,236.65,0,0,1,1778.27,391l.72-1.18a468.28,468.28,0,0,1-27.06,39c-9.65,12.74-19.57,25.28-29,38.18q-3.51,4.79-6.9,9.64c-1.13,1.61-2.25,3.24-3.35,4.87a28.78,28.78,0,0,0-3.63,6.13c-1.83,5.11.45,10.32,4.18,13.89a22.46,22.46,0,0,0,11.47,5.39c3.87.73,7.9.47,11.82.44q6.92-.06,13.83-.27,13.7-.4,27.37-1.37,27.21-1.92,54.2-6.05c2.24-.35,4.47-.7,6.71-1.07,3.42-.55,4.16-4.16,2.72-6.94-1.52-2.94-5.17-6.19-8.8-5.59q-26.29,4.29-52.89,6.5t-53.24,2.27a12.15,12.15,0,0,0-1.81,0c-.07,0,1.42.07.79,0l-.62,0c-.81-.05-1.61-.14-2.4-.26l-1.11-.21-.48-.11c-1.17-.24,1.23.41.58.15a10.6,10.6,0,0,0-2.16-.82s1.45.81,1,.49a5.09,5.09,0,0,0-.5-.3c-1.18-.7,1.28,1.16.59.46-1.14-1.15,1,1.23.43.49s.86,1.76.38.57c-.2-.48.33,1,.34,1s-.13-.61-.15-.67c-.19-.44.11.79.09.84s0-.73,0-.73-.3,1-.07.33c.13-.34.21-.69.36-1a11.77,11.77,0,0,1,.81-1.58l-.72,1.18c2.51-4.12,5.41-8,8.21-12s5.58-7.71,8.43-11.52c5.75-7.7,11.63-15.29,17.49-22.91,11.64-15.16,23.19-30.45,33.22-46.74a257.2,257.2,0,0,0,14.13-25.88c2.22-4.75,4.28-9.48,5.21-14.68a21.38,21.38,0,0,0-3.85-16.38c-5.94-8.16-16-10.88-25.64-11-9-.14-18.23,1.94-26.83,4.52a108.2,108.2,0,0,0-46.42,28.32c-3.42,3.54-6.73,7.51-8.55,12.14a20.68,20.68,0,0,0,.27,15.24c3.67,9.69,14.42,17.52,25,16.57,8.19-.74,15.21-7.55,17-15.46a21.16,21.16,0,0,0-1.56-14,27.84,27.84,0,0,0-9.73-10.89c-7.11-4.79-16-6-24.39-5.88-8.23.12-16.51,1.89-24.49,3.77a203.93,203.93,0,0,0-95.33,51.85q-4.74,4.57-9.15,9.47c-2.37,2.61-.13,6.9,2.09,8.82s6.51,4,9,1.31Z"/><path d="M1835.87,331.13l49.63-10.23,14.11-2.91a9.87,9.87,0,0,0,5.3-2.39A6.61,6.61,0,0,0,1907,311a6.23,6.23,0,0,0-7.34-5.55l-49.63,10.23L1836,318.62a9.81,9.81,0,0,0-5.3,2.4,6.59,6.59,0,0,0-2.12,4.56,6.22,6.22,0,0,0,7.34,5.55Z"/></svg>