<svg xmlns="http://www.w3.org/2000/svg" viewBox="0 0 1920 700"><path d="M419.73,539q-9-43.83-18.91-87.45T380,364.59q-10.86-43.32-22.67-86.38t-24.53-85.77q-12.72-42.7-26.37-85.12Q304.75,102,303,96.73l-8.76,8.1q46.13-4.52,92.5-5.52,45.92-1,91.82,1.6,26.19,1.49,52.3,4.09a11,11,0,0,0,9.7-4.29c1.79-2.58.71-5.47-2.56-5.79q-46.54-4.65-93.36-5.7t-93.85,1.45q-26.42,1.42-52.75,4c-3.56.35-10.26,3.47-8.76,8.1q13.77,42.37,26.61,85t24.76,85.69q11.93,43,22.9,86.31t21,86.86q10,43.59,19.14,87.39,1.14,5.48,2.26,10.95c.26,1.24,2.32,1.88,3.29,2a10.28,10.28,0,0,0,5.38-.94c2.87-1.36,5.76-3.69,5.05-7.13Z"/><path d="M329.9,276.8a231.76,231.76,0,0,1,51.53-29.18,225,225,0,0,1,27.89-9.26C419,235.85,429,233.61,439,234.2a40.93,40.93,0,0,1,13.48,2.9c-1.38-.57.12.07.34.18l1.31.65.43.23-.3-.17a6.25,6.25,0,0,0,.84.51,10.4,10.4,0,0,0,1.24.81l-.82-.59.79.58,1.16.92c.64.53.51.42-.39-.34l.73.67a8.68,8.68,0,0,1,1.06,1c-1.09-1.48-.18-.17.09.14s.64.76,1,1.13c1.05,1.25-.67-1,.24.33a24.23,24.23,0,0,1,2.7,4.69A24.85,24.85,0,0,1,465,259.05c-.31,7.28-3.75,14.71-9.66,19.12a14.82,14.82,0,0,1-8.71,3c-.47,0-.94-.07-1.41-.13-.06,0-1.57-.32-.61-.08-.47-.11-.91-.29-1.36-.44,1.47.49-.16.07-.29-.17l.74.42q-1-.69.45.33l.78.68c-.44-.43-.46-.43-.06,0,1,.93-.69-1.05.34.43-.19-.27-.37-.54-.54-.82.2.42.18.36-.08-.18-3.54-8.49,3-17.45,8.65-23.26a113.83,113.83,0,0,1,22-17.44,107.68,107.68,0,0,1,25-11.15c7.44-2.25,15.46-4.23,23.15-3.31.9.11,1.78.28,2.67.44,1.42.25-.87-.31.49.11l1.26.4a7.5,7.5,0,0,1,1.22.47c-1.4-.79-.17,0,.13.11,1.39.66-1.41-.84-.09,0,.67.46.48.32-.58-.41.64.5.46.35-.52-.47l.32.29c.53.52.42.4-.34-.37a8.63,8.63,0,0,0,.57.67c-1-1.21-.09,0,.09.22.82,1.13-.34-.9.34.58a16.38,16.38,0,0,1,1.53,6.41c.35,9.44-4.89,18.15-9.55,26a322.35,322.35,0,0,1-33.43,45.77C462.75,334.7,434,359.41,405,383.47l-10.68,8.82c-1.25,1,1.77,4.22,2.21,4.67a19.71,19.71,0,0,0,6.78,4.62l104.84,42.75,104.52,42.61,59,24c.63.25,2.26.67,2.84-.07s-.24-2.2-.63-2.77a18.66,18.66,0,0,0-8.36-6.52L560.59,458.87,456.07,416.26l-58.95-24,9,9.29c15.58-12.83,31.14-25.7,46.19-39.14a536.48,536.48,0,0,0,43.2-42.64A329.38,329.38,0,0,0,532,270.86c5.08-8.41,10.86-17.9,10.73-28.08-.14-11.71-10-20.85-20.26-24.89-8.14-3.19-17.18-2.34-25.51-.46a108.39,108.39,0,0,0-27.28,10.2,117.08,117.08,0,0,0-24.52,17.42c-6.7,6.21-14.53,14.71-13.76,24.6.49,6.33,4.65,11.47,9.45,15.28,4.47,3.55,10,6.3,15.85,6.2,8.08-.13,14.6-6.08,17.83-13.15,9-19.78-6.57-39-23.47-48.05-19.73-10.54-43.16-4.73-63.26,1.62a233.66,233.66,0,0,0-57,27.09q-6.54,4.26-12.77,8.94c-2.12,1.58,8.3,11.86,11.83,9.22Z"/><path d="M576.46,232.06a488.12,488.12,0,0,1,94.44-15.82q6.74-.45,13.49-.72c2.25-.08,4.5-.16,6.75-.21l3.37-.08,1.45,0h1c.55,0,.64,0,.26,0-.12,0,2.2.12,2.25-.28s-2.22-.87-2.11-.84a44.93,44.93,0,0,0-10.52-1.34c-16.48.17-32.94,1.1-49.33,2.9S605,220,589,223.35q-13.51,2.86-26.85,6.46c-.88.24.68.71.67.71a26.49,26.49,0,0,0,4.4.93c1.91.29,3.82.54,5.75.65a11.59,11.59,0,0,0,3.48,0Z"/></svg>