<svg xmlns="http://www.w3.org/2000/svg" viewBox="0 0 1920 1920"><defs><style>.a{fill:none;}.b{fill-rule:evenodd;}</style></defs><path class="a" d="M1425.93,141.77c-22.92-3.36-46.6-6.72-71.37-9.58-12.31-1.46-25-2.74-37.8-3.9-6.47-.54-12.89-1.11-19.49-1.55-3.3-.22-6.53-.48-9.88-.67l-10-.56c-13.42-.67-27-1.16-41-1.19-6.93-.09-14.08,0-21.16.15-3.55,0-7.19.22-10.78.33s-7.19.24-10.88.47l-11,.64c-3.69.25-7.43.58-11.14.88l-5.57.47-5.66.59-11.31,1.24-11.48,1.54c-1.92.28-3.81.51-5.75.82l-5.82,1c-3.89.66-7.73,1.25-11.65,2l-11.76,2.32c-15.77,3.35-31.69,7.24-47.8,12.36l-6,1.87-6,2.07c-4,1.4-8,2.78-12.07,4.26-8.07,3.13-16.1,6.18-24.11,9.8l-6,2.66-3,1.34-3,1.44q-6,2.88-11.9,5.84c-2,1-3.94,2-5.9,3.09l-5.87,3.19-5.85,3.23c-1.95,1.07-3.86,2.26-5.79,3.4q-5.76,3.45-11.49,7c-3.76,2.44-7.5,4.94-11.24,7.44l-2.79,1.88c-1,.67-1.77,1.19-2.88,2-2.43,1.73-4.85,3.47-7.23,5.24s-4.67,3.56-7,5.37-4.52,3.66-6.76,5.51a311.63,311.63,0,0,0-48.36,50.82,289.28,289.28,0,0,0-21.06,32.07,264.59,264.59,0,0,0-18.19,39.33,242.54,242.54,0,0,0-12.4,49.25,226.72,226.72,0,0,0-.58,59.41,220.11,220.11,0,0,0,17.09,61.87c1.06,2.48,2.18,4.87,3.34,7.21s2.35,4.7,3.57,7,2.48,4.64,3.83,6.93,2.7,4.58,4.09,6.84,2.81,4.34,4.25,6.5,2.94,4.33,4.4,6.29c2.94,4,6,8.06,9.08,11.65a239.55,239.55,0,0,0,37,35.74,279.41,279.41,0,0,0,33.33,22.28L932.9,631c1.28.72,2.49,1.38,3.69,2l3.63,1.93,3.49,1.79c1.13.57,2.39,1.21,3.39,1.7l3.17,1.53c2.11,1,4.26,2.07,6.35,3,8.45,3.91,16.77,7.36,25,10.58s16.29,6,24.2,8.58,15.7,4.89,23.24,6.93c1.91.54,3.79,1,5.65,1.52l5.59,1.45c3.66.9,7.37,1.84,11,2.65,7.25,1.71,14.24,3.21,21.12,4.61s13.5,2.64,20,3.82,12.84,2.25,19,3.25l17.91,2.85,16.86,2.59,15.76,2.44c5,.81,10,1.6,14.59,2.4s9.14,1.59,13.34,2.41l6.19,1.21c1.94.42,4,.82,5.79,1.24,7.53,1.65,14,3.35,19.26,5,2.66.81,4.91,1.62,7,2.36s3.62,1.45,5,2.06,2.33,1.16,3.11,1.56a3.81,3.81,0,0,0,.52.29c.14.09.26.19.36.24s.14,0,.12.06h0s.09,0,0-.09-.14-.27,0-.06a1.74,1.74,0,0,0,.11.18,1.54,1.54,0,0,1,.09.28c.07.2.15.39.23.58l.15.28.12.4a67.78,67.78,0,0,1,2.59,9.29,142,142,0,0,1,2.32,15.37c.13,1.52.31,3,.41,4.63l.18,2.4c0,.39.06.81.07,1.27l0,1.34c.11,3.56.28,7.12.46,10.68,0,3.58-.07,7.16,0,10.74.07,1.79-.12,3.6-.19,5.4l-.24,5.4a329.3,329.3,0,0,1-5.54,44c-.82,3.73-1.51,7.45-2.36,11.2s-1.88,7.51-2.79,11.28-2.18,7.57-3.22,11.37c-.28.95-.52,1.89-.82,2.85l-.94,2.86-1.85,5.73a486.69,486.69,0,0,1-18.1,46.34l-5.43,11.7-5.84,11.72c-.93,2-2,3.92-3,5.87l-3.12,5.87c-1.06,2-2,3.93-3.15,5.88l-3.32,5.88c-8.84,15.67-18.39,31.37-28.82,47a1077.32,1077.32,0,0,1-69.93,93q-19.2,23-39.76,45.85c-6.89,7.6-13.78,15.2-20.87,22.78l-13.91,15c-7.6,8.2-14.89,16.66-22.12,25.13-28.76,34-54.17,70.42-72.25,108.19a340.76,340.76,0,0,0-21.78,57.22,286.08,286.08,0,0,0-10.06,57.78l-.45,7.22c-.13,2.41-.12,4.81-.19,7.22s-.14,4.81-.09,7.22l.18,7.21.09,3.61c.06,1.2.17,2.39.26,3.59l.54,7.19c.08,1.2.22,2.39.36,3.59l.43,3.58c.29,2.39.52,4.79.88,7.17a253.55,253.55,0,0,0,5.8,28.38c.62,2.34,1.18,4.69,1.86,7l2.16,7,1.09,3.47c.38,1.15.82,2.29,1.23,3.43l2.52,6.84c.82,2.28,1.83,4.5,2.75,6.75l2.87,6.71c2.06,4.4,4.15,8.8,6.3,13.16,4.62,8.57,9.35,17.06,14.76,25.14,1.36,2,2.76,4,4.15,6l2.11,3,2.18,2.91c1.47,1.92,2.87,3.9,4.4,5.77l4.61,5.61c1.51,1.89,3.17,3.63,4.75,5.46s3.19,3.63,4.87,5.35l5,5.24,5.19,5a269.24,269.24,0,0,0,21.94,18.81l2.86,2.22c1,.73,2,1.41,2.93,2.12l5.9,4.22,6.06,4c1,.66,2,1.36,3.05,2l3.11,1.9a303,303,0,0,0,53.24,26c9.46,3.52,19.13,6.74,29.09,9.47,4.95,1.42,10,2.66,15.07,3.87,2.52.63,5.12,1.12,7.67,1.68s5.11,1.15,7.72,1.59a454.68,454.68,0,0,0,64,7.46c10.91.57,21.94.68,33,.57l8.31-.16c2.77-.05,5.55-.2,8.33-.3,5.55-.2,11.11-.47,16.67-.84q16.68-1,33.35-3l4.16-.49,3.91-.49,6-.81c3.89-.54,7.84-1.15,11.79-1.78a480.15,480.15,0,0,0,49.48-10.64l6.44-1.79,6.52-2,3.26-1,3.31-1.07,6.61-2.2,6.7-2.38,3.34-1.22,3.39-1.31,6.77-2.66,6.84-2.88c2.26-.94,4.57-2,6.87-3s4.59-2.09,6.9-3.2c4.64-2.29,9.23-4.53,13.89-7.08,9.27-4.91,18.62-10.55,27.84-16.67l6.9-4.73c2.29-1.58,4.59-3.32,6.86-5,4.55-3.32,9.06-7,13.51-10.62,2.22-1.85,4.42-3.79,6.61-5.7s4.37-3.86,6.51-5.9,4.27-4,6.38-6.1,4.16-4.23,6.22-6.36l3.07-3.22,3-3.32q3-3.33,5.9-6.7c2.39-2.87,4.81-5.89,7.15-8.88l3.49-4.52,3.24-4.55q3.19-4.58,6.28-9.22,2.91-4.62,5.69-9.3l2.75-4.7,2.52-4.69q2.49-4.7,4.87-9.46,2.22-4.71,4.33-9.46l2.08-4.77,1.88-4.74q1.85-4.74,3.6-9.53c1.09-3.16,2.11-6.33,3.12-9.51l1.49-4.77c.46-1.59.88-3.17,1.32-4.75q1.28-4.76,2.47-9.54c.74-3.17,1.4-6.33,2-9.51s1.28-6.36,1.77-9.53,1-6.35,1.45-9.53.74-6.35,1.07-9.54c.71-6.36,1-12.74,1.28-19.12a285.93,285.93,0,0,0-1.37-38.6c-.58-6.45-1.61-13-2.67-19.56-.55-3.27-1.26-6.61-1.93-9.9s-1.39-6.57-2.29-9.94-1.75-6.67-2.68-10-2.09-6.75-3.19-10.1l-1.69-5c-.61-1.69-1.27-3.41-1.92-5.11q-2-5.1-4.07-10.16-2.28-5.18-4.7-10.28c-.83-1.71-1.59-3.37-2.5-5.11l-2.74-5.16-2.82-5.13c-1-1.7-1.89-3.38-3-5.12q-3.17-5.17-6.49-10.24c-1.08-1.67-2.27-3.38-3.5-5.09s-2.45-3.39-3.7-5.07-2.5-3.35-3.78-5-2.7-3.34-4.06-5q-4.17-5-8.52-9.8-4.61-4.86-9.39-9.54c-3.12-3.12-6.58-6.16-10-9.14-1.74-1.49-3.49-3-5.26-4.42s-3.55-2.89-5.44-4.28q-5.6-4.18-11.36-8.15c-3.86-2.62-7.93-5.06-12-7.46q-3-1.8-6.12-3.53c-2.07-1.11-4.17-2.18-6.27-3.24-4.21-2.1-8.47-4.16-12.77-6a241.26,241.26,0,0,0-26.12-9.42q-3.28-1-6.59-1.86c-2.17-.58-4.49-1.24-6.5-1.66-4.15-.93-8.33-1.78-12.51-2.56-2.09-.38-4.22-.8-6.26-1.08s-4.11-.57-6.17-.82c-4.1-.5-8.25-1-12.33-1.31s-7.94-.44-11.91-.58c-2-.06-4-.12-6-.14l-5.64.08c-3.76.08-7.53.21-11.28.39-3.55.25-7,.56-10.57.9l-5.27.54c-1.72.2-3.29.44-4.94.67q-4.89.7-9.76,1.5c-1.65.27-3,.57-4.58.86l-4.49.9c-3,.61-6.08,1.25-8.73,1.92l-8.23,2.06c-1.41.36-2.69.71-3.92,1.07l-3.77,1.08-3.76,1.11c-1.25.37-2.53.74-3.63,1.11l-6.88,2.24c-1.11.37-2.34.76-3.37,1.13l-3.14,1.11-6.26,2.25-5.72,2.17-2.86,1.1-2.65,1-5.2,2.08-4.81,2-8.84,3.7-7.67,3.24-6.38,2.59-6.39,2.6c-2.12.87-4.24,1.76-6.4,2.55a789.59,789.59,0,0,1-215.81,50.23,807,807,0,0,1-222.16-10.8c-18.23-3.35-36.24-7.62-54.1-12.28s-35.48-10.13-52.88-16L643,1225.3l-3.26-1.13-1.62-.56-1.69-.62-6.8-2.5-7.18-2.69L607.19,1212,596.46,1208l-15.71-5.82-3.93-1.45-3.94-1.38-7.9-2.74-7.9-2.75c-2.63-.89-5.28-1.7-7.92-2.55l-7.93-2.52c-2.65-.82-5.28-1.74-7.94-2.44l-15.9-4.46a493.88,493.88,0,0,0-63.31-12.4l-15.6-1.49-3.9-.37c-1.3-.13-2.57-.14-3.86-.21L423,1167l-7.71-.36c-2.57-.11-5.08,0-7.61,0l-7.59.12c-2.51.07-5.06.06-7.53.26q-7.47.46-14.89,1.06c-2.49.17-4.9.53-7.35.81l-7.3.93c-9.74,1.21-19.27,3-28.72,5.15a319.15,319.15,0,0,0-104.54,44c-7.81,5.17-15.43,10.63-22.68,16.54a270.81,270.81,0,0,0-21,18.66,267.77,267.77,0,0,0-35.73,43.43,263.74,263.74,0,0,0-40.13,103.79c-5.83,36.46-3.84,73.47,5.11,110.91s26,75.38,48.69,112.18c5.78,9.17,11.68,18.33,18,27.34l2.35,3.39,2.43,3.36,4.87,6.72c3.19,4.5,6.61,8.9,9.95,13.34,1.68,2.21,3.33,4.44,5.05,6.64l5.15,6.57,5.16,6.58,5.26,6.51,5.27,6.5c1.77,2.19,3.46,4.22,5.21,6.33l5.25,6.22,4.2,4.87a664.32,664.32,0,0,0,62,63.32,494.72,494.72,0,0,0,39,31.26c3.63,2.56,7.17,5.09,10.91,7.61s7.57,5,11.45,7.46,8,4.88,12,7.28l6.33,3.54,3.48,1.93,3.58,1.94a351.74,351.74,0,0,0,61.81,25.5,314.39,314.39,0,0,0,65.45,12.52,295.94,295.94,0,0,0,66.51-1.93,314.33,314.33,0,0,0,32.72-6.34c5.39-1.37,10.73-2.94,16.07-4.51,5.29-1.74,10.59-3.46,15.81-5.39,10.44-3.9,20.73-8.24,30.77-13.14,5-2.44,10-4.94,14.9-7.64l7.34-4c1.24-.69,2.39-1.38,3.57-2.08l3.42-2a464,464,0,0,0,42.68-29c12.65-9.63,23.74-18.88,33.89-27.75,2.59-2.25,5.21-4.47,7.77-6.76l7.63-6.9c2.54-2.31,5.1-4.61,7.61-6.94l7.46-7.08q29.8-28.38,56.81-59.4a881.7,881.7,0,0,0,95.86-133.3c3.43-6,6.95-11.84,10.2-17.89l5-9c.83-1.52,1.65-3,2.47-4.55l2.45-4.69c6.55-12.4,12.88-25.53,19-39l4.5-10.29,1.12-2.58,1.08-2.66,2.17-5.31c2.91-7,5.62-14.42,8.34-21.73,1.34-3.69,2.6-7.54,3.89-11.31l1.91-5.69c.63-1.89,1.21-3.89,1.81-5.84l3.52-11.76c1.11-4,2.17-8.1,3.23-12.15l1.56-6.1,1.43-6.28c.92-4.21,1.87-8.36,2.72-12.62,1.58-8.69,3.23-17.2,4.34-26.24l.88-6.7.42-3.35c.14-1.12.23-2.29.34-3.43q.64-6.87,1.2-13.76c.08-1.16.19-2.29.25-3.46l.16-3.52.28-7.05c.17-4.71.37-9.37.26-14.2s-.12-9.59-.23-14.38-.56-9.71-.89-14.56l-.55-7.28c-.25-2.4-.55-4.78-.83-7.18q-.87-7.17-1.84-14.33c-.77-4.76-1.65-9.51-2.52-14.26l-1.35-7.12c-.51-2.36-1.08-4.7-1.62-7q-1.66-7-3.44-14c-1.31-4.61-2.68-9.21-4.08-13.8l-2.12-6.87-2.37-6.73c-1.6-4.47-3.2-9-4.9-13.39s-3.58-8.69-5.42-13c-.93-2.15-1.81-4.36-2.8-6.44l-3-6.28a419.6,419.6,0,0,0-26.39-47.51l-7.28-11-1.84-2.73-1.88-2.62-3.78-5.22-3.8-5.21-1.91-2.59-2-2.49L959,1039.7l-2-2.45-2-2.36-4-4.72-4-4.69-2-2.33-2-2.25-8.19-8.93-2.06-2.22-2.07-2.12-4.16-4.25-4.17-4.23L920.18,997l-2.1-2-8.42-8c-2.81-2.73-5.64-5.19-8.47-7.78s-5.67-5.15-8.52-7.58c-5.69-4.84-11.4-9.81-17.13-14.35-2.86-2.3-5.73-4.65-8.6-6.9l-8.62-6.63L854,940.43l-4.32-3.17L841,931l-8.65-6.06c-2.88-2-5.77-4-8.65-5.95l-8.66-5.78c-2.89-1.94-5.77-3.73-8.66-5.6s-5.77-3.74-8.65-5.5l-8.65-5.33c-2.89-1.8-5.77-3.49-8.65-5.2l-8.64-5.11-8.62-4.94L758.88,879l-4.3-2.39L746,871.87l-8.59-4.62c-5.74-3.1-11.44-6-17.16-9s-11.4-5.79-17.08-8.62l-16.45-8-30-14.49c-19.43-9.45-38-18.63-55.48-27.77-4.3-2.29-8.7-4.57-12.85-6.86l-6.3-3.42L576,785.63l-3.06-1.71-3-1.71L564,778.78l-5.75-3.43c-1.92-1.15-3.85-2.29-5.66-3.44L547,768.48c-1.83-1.15-3.56-2.3-5.35-3.44-3.62-2.29-6.92-4.6-10.33-6.88-1.73-1.14-3.26-2.3-4.9-3.44L524,753l-1.21-.86-1.15-.86c-3-2.29-6.2-4.56-9-6.84-5.89-4.54-11.06-9.07-16-13.5-2.32-2.23-4.78-4.41-6.84-6.6l-1.63-1.63-.82-.81c-.27-.27-.5-.54-.74-.81-1-1.08-2-2.15-3-3.21l-.75-.79-.67-.8-1.34-1.59-1.37-1.56-.68-.78-.6-.79c-.8-1-1.62-2.07-2.46-3.08a17.58,17.58,0,0,1-1.15-1.54l-1.09-1.52c-1.59-2-2.74-4-4.13-6a13.84,13.84,0,0,1-.91-1.49l-.88-1.47a33.75,33.75,0,0,1-1.71-2.93q-.76-1.47-1.59-2.91c-.54-1-.91-2-1.41-2.94-1.06-1.9-1.7-4-2.63-5.88a9.75,9.75,0,0,1-.44-1.1c-.11-.31-.23-.61-.36-.91-.17-.64-.43-1.24-.62-1.88s-.43-1.26-.56-2c-.08-.33-.17-.66-.28-1l-.22-1c-.36-1.36-.57-2.82-.85-4.3-.07-.77-.21-1.52-.29-2.31s-.21-1.57-.22-2.41a74.61,74.61,0,0,1-.06-10.61,100.07,100.07,0,0,1,1.58-12,113.15,113.15,0,0,1,8.67-26,117.37,117.37,0,0,1,6.9-12.7A128.86,128.86,0,0,1,481.8,592,119.88,119.88,0,0,1,491,581.79a95.61,95.61,0,0,1,9.61-8.3,78.84,78.84,0,0,1,9.48-6.23,67.45,67.45,0,0,1,8.88-4.19,60.49,60.49,0,0,1,8.13-2.43c.65-.11,1.29-.25,1.94-.38.32,0,.64-.08,1-.14l.48-.1.57-.06c.37,0,.8-.13,1.11-.14l1-.11c.53,0,1.11-.11,1.44-.1s.6,0,.82,0a.11.11,0,0,0,.11,0c0,.28.06-2.18.08-3,0-1.25.07-2.5.13-3.75l.44-7.28c.08-1.17.18-2.34.29-3.52s.26-2.37.33-3.4c.2-2.15.46-4.32.79-6.49s.5-4,.86-6,.64-3.73,1-5.53c.18-.89.38-1.78.59-2.67s.33-1.6.53-2.42.37-1.56.58-2.35.48-1.66.62-2.29c.35-1.34.75-2.7,1.2-4.07.27-.74.38-1.21.58-1.8s.38-1.14.6-1.72l1.16-3c.18-.46.38-.93.59-1.39s.37-.83.52-1.18.31-.7.49-1.06c-.94,1.84,2.85-5.62-1.95,3.84,3-6,4.8-7.06,2.88-5.26l-.32.28c-.07.05-.23.19-.49.43-.43.39-.86.74-1.27,1.06l-.66.48c-.31.25-.63.5-1,.73-.63.47-1.26.9-1.88,1.28-.26.14-.76.51-1.16.77l-1.25.79c-.42.26-.84.5-1.26.73s-.76.38-1.33.74c-1,.61-2.08,1.17-3.11,1.68l-1.55.72c-.53.24-1.2.61-1.8.89-9.45,4.43-22.39,8.53-36.56,11.09-1.7.25-3.55.63-5.37.93l-2.19.33h0c0,.06,0,.28.06.4a3.55,3.55,0,0,0,0,.91c-.05.45,0,.82,0,1.33A54.79,54.79,0,0,1,486,529a77,77,0,0,1-2.48,10.32,72,72,0,0,1-3.68,9.43c-.28.74-.66,1.24-.94,1.87-.08.18-.11.26-.24.51l-.61,1.1-1.21,2.19c-.81,1.47-1.77,3.06-2.64,4.59l-2.9,4.86c-4.06,6.66-8.83,14-14.21,22-10.76,16-24,34.54-38.58,56.53s-30.52,47.79-45.12,79a423.66,423.66,0,0,0-19.92,50.82c-1.41,4.63-2.81,9.23-4.11,13.93l-1.87,7.13c-.61,2.39-1.24,4.75-1.77,7.21l-1.62,7.31-.78,3.66-.72,4c-.94,5.31-1.82,10.65-2.64,16-.44,2.67-.72,5.35-1,8l-.8,8-.7,8.06c-.13,1.34-.21,2.68-.25,4l-.15,4q-.29,8-.38,16.07c.08,5.33.29,10.63.51,15.94.13,2.65.23,5.32.43,8l.75,7.85.83,7.84c.31,2.6.54,5.25,1,7.8.8,5.12,1.65,10.25,2.56,15.36l.69,3.83.82,3.76,1.71,7.49c2.2,10.08,5.15,19.67,8.1,29.35,1.56,4.76,3.27,9.42,5,14.11l2.59,7,2.84,6.81c1.92,4.52,3.82,9.08,5.86,13.51s4.23,8.74,6.4,13.09,4.49,8.53,6.81,12.74l3.53,6.27,1.79,3.12,1.87,3q3.75,6,7.6,12c1.26,2,2.61,3.94,4,5.88l4.05,5.79,4.09,5.75c1.36,1.94,2.83,3.74,4.24,5.6q4.31,5.55,8.67,11c3,3.58,6,7.09,9.07,10.61l4.6,5.24,4.77,5.06c3.2,3.35,6.39,6.72,9.66,10s6.67,6.41,10,9.59c1.7,1.57,3.35,3.19,5.11,4.7l5.23,4.55,5.27,4.52c1.77,1.5,3.51,3,5.35,4.43q5.46,4.32,11,8.56l2.76,2.11c.93.7,1.89,1.36,2.83,2l5.7,4,5.72,4c1,.65,1.91,1.32,2.88,2l3,1.89q5.91,3.78,11.88,7.48c2,1.25,4,2.4,6.07,3.57l6.16,3.47,6.17,3.43c2.05,1.15,4.22,2.17,6.32,3.25q6.38,3.2,12.78,6.3c4.35,2,8.77,3.88,13.17,5.78l6.62,2.8,6.8,2.57c4.55,1.68,9.08,3.37,13.68,5s9.35,2.94,14,4.36,9.48,2.67,14.29,3.86l7.23,1.77c2.41.57,4.81,1.16,7.29,1.61,4.92,1,9.86,1.89,14.8,2.76a355.21,355.21,0,0,0,61.06,4.82l7.76-.06c1.32,0,2.48-.08,3.72-.13l3.66-.18,7.32-.39c2.44-.14,4.85-.39,7.28-.59l7.26-.67c2.42-.23,4.8-.57,7.21-.86,4.79-.61,9.59-1.24,14.32-2.07a399,399,0,0,0,107.65-33.92,411.11,411.11,0,0,0,92.46-60.73,402.43,402.43,0,0,0,73.63-84.63,386.34,386.34,0,0,0,27.75-50.73c2-4.48,3.92-9,5.8-13.47s3.56-9.11,5.26-13.69,3.19-9.19,4.71-13.8,2.82-9.25,4.17-13.89A398,398,0,0,0,1119,856.72a411.22,411.22,0,0,0-16.36-109.42,403.59,403.59,0,0,0-45.85-102.2,387.93,387.93,0,0,0-34.28-46.42c-3.12-3.72-6.46-7.31-9.77-10.9s-6.6-6.93-9.91-10.26l-5-4.94-5.1-4.78-5.13-4.75c-1.71-1.58-3.48-3.06-5.22-4.59a418.83,418.83,0,0,0-43.53-33.16,452.43,452.43,0,0,0-45.42-26.37,516.44,516.44,0,0,0-90.93-35.39,658.84,658.84,0,0,0-87-18.52c-28.15-4.09-55.54-6.56-82.13-7.86-13.53-.69-25.87-1-38.27-1.29l-18.21-.3-17.68-.15c-23.21-.14-45.14-.11-65.77-.4s-40-.89-57.84-2.13a459.12,459.12,0,0,1-49-5.92l-5.59-1-5.26-1.18-5.28-1.14-1.31-.28-1.24-.34-2.48-.68-5-1.31-2.46-.62c-.27-.09-.59-.16-.82-.25-1-.32-1.74-.59-1.81-.63s.07-.27-.81,1.86c-.65,1.52-1.31,3-2,4.56-1.36,3-2.74,6.06-4.2,9.05s-3,6-4.4,8.86c-.74,1.45-1.52,2.9-2.3,4.33s-1.5,2.82-2.29,4.22l-2.36,4.13c-.77,1.35-1.58,2.7-2.41,4s-1.55,2.6-2.37,3.88l-2.42,3.76c-.8,1.23-1.61,2.44-2.46,3.64s-1.57,2.31-2.4,3.45c-1.72,2.31-3.15,4.37-4.87,6.47-.81,1-1.54,2-2.36,2.95l-2.36,2.8c-.76.89-1.55,1.76-2.36,2.62s-1.45,1.62-2.23,2.4l-2.21,2.24c-.7.7-1.44,1.39-2.19,2.06s-1.31,1.23-2,1.83l-2,1.65a59.31,59.31,0,0,1-6.66,4.76,14.79,14.79,0,0,1-1.3.76c-.45.25-.69.4-1.07.59l-.94.45a7.4,7.4,0,0,1-.8.34,4.89,4.89,0,0,1-.46.19l-.3.11-.14,0,.2-.05.41-.09,1-.15-.66.09-.45,0-.3,0h.39c.17,0,.29,0,.45,0s.58.05.84.09l1,.16c.41.06.75.14,1.17.23s1,.22,1.53.35l1.69.45c.63.18,1.18.37,1.83.58s1.44.47,2.14.74l2.29.87c.82.33,1.56.66,2.39,1s1.81.79,2.68,1.22l2.8,1.38c1,.49,1.9,1,2.87,1.54s2.11,1.15,3.13,1.75,2.05,1.24,3.21,1.93,2.2,1.37,3.26,2.1,2.37,1.52,3.51,2.31l3.54,2.49q1.85,1.31,3.62,2.67c1.18.91,2.56,1.9,3.79,2.88l3.79,3a352.54,352.54,0,0,1,33.1,31c1.34,1.38,3.3,3.46,4.08,4.32l0,0,.08-.08.17-.14c.2-.19.64-.53,1.11-.92,1-.82,2.58-2,4.47-3.26l5.41-3.61c1.82-1.22,3.62-2.46,5.48-3.62,14.71-9.54,29.81-18.52,45.32-26.74s31.38-15.8,47.55-22.65,32.64-12.94,49.3-18.34L439.41,181.62Q400.62,194.16,363.06,210t-73.47,35c-24,12.72-47.35,26.58-70.14,41.37-2.87,1.83-5.68,3.73-8.5,5.62l-8.52,5.72c-7.32,5-14.83,10.46-22.56,16.56s-15.74,12.94-24,20.77a296,296,0,0,0-25.45,27.44,257,257,0,0,0-25.87,38.3c-1,1.93-2.08,3.91-3.09,5.88s-2,3.94-3,6.08-2,4.2-2.91,6.32-1.89,4.45-2.79,6.68-1.79,4.48-2.65,6.9-1.69,4.75-2.49,7.14-1.56,5-2.29,7.49-1.44,5-2.08,7.69-1.26,5.26-1.84,7.91-1.07,5.45-1.55,8.18-.91,5.48-1.26,8.32-.68,5.64-1,8.46-.44,5.74-.6,8.62-.26,5.75-.27,8.65,0,5.79.06,8.68.26,5.78.46,8.66c.35,5.8,1.07,11.42,1.87,17.09.42,2.83.94,5.68,1.47,8.51s1.11,5.64,1.81,8.47a217.28,217.28,0,0,0,10.63,33.05c2.21,5.21,4.57,10.49,7.11,15.39,1.27,2.46,2.58,5,3.91,7.34s2.71,4.71,4.11,7A222.78,222.78,0,0,0,126,644.46c1.55,1.92,3.12,3.79,4.66,5.53s3.12,3.53,4.71,5.27,3.11,3.28,4.69,4.9,3.16,3.19,4.71,4.67,3.16,3,4.73,4.45,3.1,2.78,4.67,4.15,3.11,2.67,4.64,3.93,3.11,2.54,4.64,3.74a269.5,269.5,0,0,0,35.16,23.35,303.08,303.08,0,0,0,32,15.49c10.24,4.26,20.07,7.75,29.71,10.76,2.42.77,4.79,1.46,7.2,2.17l5.63,1.53,11.24,3,5.62,1.47,2.82.73,2.77.62,11.1,2.46,11.11,2.4,10.91,2a785.11,785.11,0,0,0,84.05,10.32c26.72,1.85,52.08,2.55,76.14,2.9s46.84.29,68.33.42l15.85.14,15.3.25c9.94.25,20,.5,28.74.95,18.06.87,35.23,2.51,51.31,4.84a336.2,336.2,0,0,1,44.11,9.26,192.21,192.21,0,0,1,33.93,13,127.39,127.39,0,0,1,12.55,7.22,93.48,93.48,0,0,1,9.76,7.44c.36.32.77.6,1.09.93s.67.65,1,1l1,.92.94,1c.63.64,1.38,1.3,1.75,1.79s1,1,1.41,1.58a62.6,62.6,0,0,1,5.5,7.47,78.68,78.68,0,0,1,8.78,19.78A86.19,86.19,0,0,1,793.78,861a72.83,72.83,0,0,1-2.5,20.43,20.61,20.61,0,0,0-.65,2.16,21.78,21.78,0,0,0-.71,2.06c-.27.65-.54,1.29-.75,2s-.59,1.27-.83,1.93a62.37,62.37,0,0,1-4.42,8,77.57,77.57,0,0,1-14.17,16.13,86.32,86.32,0,0,1-19.28,12.67,74,74,0,0,1-19.77,6.35,20.64,20.64,0,0,1-2.27.32c-.37,0-.75.15-1.11.16s-.72,0-1.08.08-.73.11-1.08.11l-1,0-.52,0c-.16,0-.4.06-.47,0s-.41-.05-.62-.06a31.06,31.06,0,0,1-5.68-.44,10.91,10.91,0,0,0-1.69-.31,3,3,0,0,1-.88-.21c-.3-.09-.61-.18-.91-.25-1.22-.13-2.53-.81-3.87-1.06-.67-.25-1.36-.58-2.06-.81-.35-.12-.71-.23-1.07-.33l-1.07-.52c-.72-.34-1.46-.6-2.2-.91s-1.48-.8-2.24-1.15a9.89,9.89,0,0,1-1.14-.55c-.37-.24-.75-.46-1.13-.68s-.77-.43-1.15-.63a7.05,7.05,0,0,1-1.16-.66c-.75-.52-1.52-1-2.3-1.46l-.6-.34c-.19-.13-.37-.29-.56-.42l-1.13-.83c-.38-.26-.77-.53-1.16-.78-.19-.13-.4-.24-.58-.39l-.55-.46c-.73-.61-1.49-1.19-2.26-1.74a10.7,10.7,0,0,1-1.09-.93l-1.08-.95-1.12-.92a12,12,0,0,1-1-1c-.69-.68-1.39-1.33-2.11-2s-1.28-1.42-2-2.09l-1-1-.89-1.09c-.59-.72-1.25-1.4-1.86-2.1s-1.08-1.47-1.65-2.18a9.4,9.4,0,0,1-.85-1.06c-.23-.37-.47-.73-.72-1.09s-.51-.72-.77-1.07a6.21,6.21,0,0,1-.74-1.07c-.41-.73-.86-1.43-1.33-2.13l-.36-.51-.26-.53c-.18-.35-.37-.7-.56-1a14.45,14.45,0,0,1-1.11-2,18.94,18.94,0,0,0-1-2c-.3-.64-.47-1.27-.77-1.88-.14-.31-.28-.61-.44-.91s-.16-.59-.26-.87c-.17-.58-.45-1.14-.64-1.68-.16-1.06-.72-2.09-.76-3,0-.23-.12-.45-.19-.67s-.09-.22-.12-.33v-.3a4.65,4.65,0,0,0-.22-1.17c-.11-.2,0-.35,0-.52a2.63,2.63,0,0,0,0-.49,2.07,2.07,0,0,0-.12-.49c0-.15.05-.28.05-.42a2.77,2.77,0,0,0-.1-.81,1.37,1.37,0,0,0,.08-.69,1,1,0,0,0,0-.17.13.13,0,0,1,0-.16.81.81,0,0,0,.09-.29.76.76,0,0,0,0-.3c0-.1-.07-.21,0-.29a.81.81,0,0,0,.1-.55l0-.15.12-.43c.07-.29.13-.58.19-.88a5.32,5.32,0,0,1,.24-.93c.08-.32.16-.65.23-1,.2-.68.45-1.42.63-2.15a99.63,99.63,0,0,1,4.62-11.52c4.31-9.31,11.56-21.85,21.7-37.12s22.83-33.15,37-54.21c7.1-10.55,14.55-21.93,22.12-34.34l5.7-9.54c1.91-3.31,3.8-6.53,5.71-9.94l2.84-5.14,1.42-2.58,1.69-3.2c2.25-4.35,4.58-8.75,6.6-13.1a395.27,395.27,0,0,0,20.84-52.9A399.77,399.77,0,0,0,807,581.88a379.61,379.61,0,0,0,5.11-58.52,334.63,334.63,0,0,0-5.5-64.21,298.25,298.25,0,0,0-22.27-70.65c-.7-1.52-1.35-3-2.11-4.53l-2.32-4.59q-2.36-4.58-4.8-9.1c-1.65-3-3.53-6.09-5.34-9.1L767,356.67c-1-1.5-1.85-3-2.9-4.49q-3.06-4.5-6.23-8.92l-3.2-4.4c-1.1-1.46-2.27-2.91-3.42-4.36q-3.48-4.33-7.06-8.57-1.77-2.13-3.7-4.2l-3.84-4.12c-2.58-2.73-5.18-5.44-7.85-8.08s-5.52-5.16-8.34-7.69c-5.57-5.12-11.52-9.75-17.53-14.32-1.5-1.13-3-2.29-4.54-3.36L693.73,281q-4.63-3.13-9.37-6.13c-1.57-1-3.15-1.94-4.73-2.85l-4.77-2.71q-4.79-2.67-9.64-5.23a272.49,272.49,0,0,0-40.12-16.4,284.28,284.28,0,0,0-38.68-9.26,299.07,299.07,0,0,0-35.82-3.77l-4.27-.18c-1.43-.06-2.84-.1-4.21-.11l-8.28-.08c-5.36.07-10.79.17-15.93.47s-10.23.66-15.27,1.1l-7.37.77c-2.47.27-4.8.6-7.2.9l-3.59.48-3.66.57-7.31,1.18c-4.86.85-9.7,1.8-14.52,2.81a386.79,386.79,0,0,0-56.08,16.63,393.15,393.15,0,0,0-51.76,24.27,403.6,403.6,0,0,0-46.58,30.46,422,422,0,0,0-41.13,35.44,444.27,444.27,0,0,0-35.72,39.51,452.74,452.74,0,0,0-30.39,43,447.7,447.7,0,0,0-44.71,95.3,437.26,437.26,0,0,0-13.72,51.91,423.54,423.54,0,0,0-7.12,54.46,397.81,397.81,0,0,0,.35,56.38c.31,4.74.85,9.52,1.35,14.28s1.21,9.54,1.89,14.31c1.51,9.55,3.25,19.09,5.49,28.6.56,2.38,1.1,4.76,1.69,7.13l1.89,7.1c1.23,4.74,2.7,9.44,4.13,14.14s3.09,9.36,4.69,14l2.59,6.94c.88,2.29,1.77,4.71,2.63,6.7,3.5,8.33,6.92,16.71,10.93,24.77,2,4.05,3.88,8.15,6,12.11s4.23,7.9,6.38,11.83,4.42,7.75,6.7,11.57l3.45,5.71c1.16,1.89,2.29,3.81,3.52,5.63,4.82,7.33,9.66,14.74,14.82,21.66l3.84,5.25c1.28,1.75,2.57,3.5,3.89,5.16l8,10,2,2.5,2,2.41,4.09,4.79,4.12,4.77,2.07,2.38,2.09,2.28,8.42,9.09,2.11,2.25,2.14,2.16,4.27,4.32c5.71,5.85,11.5,11.21,17.3,16.65,11.63,10.58,23.41,20.65,35.19,29.81,5.9,4.71,11.78,9,17.69,13.43l2.21,1.64,2.2,1.57,4.42,3.13c2.93,2.06,5.9,4.22,8.82,6.18,5.86,4,11.75,8,17.57,11.7,2.91,1.88,5.85,3.81,8.75,5.63l8.71,5.4c2.91,1.83,5.79,3.55,8.67,5.26l8.64,5.16,8.57,4.95,4.29,2.47,4.26,2.38,8.5,4.74,8.43,4.59c5.64,3.09,11.16,6,16.72,8.92,22.16,11.61,43.65,22.18,64.41,32.28l30.4,14.7,13.68,6.67q6.48,3.23,12.84,6.48c4.2,2.19,8.45,4.35,12.54,6.58l6.17,3.31,6.06,3.35,3,1.68,3,1.7,5.92,3.38L614,1171c1.93,1.14,3.88,2.27,5.72,3.44l5.63,3.46c1.89,1.15,3.65,2.33,5.49,3.49s3.68,2.32,5.42,3.5l5.28,3.53c1.79,1.17,3.46,2.36,5.15,3.55l5.09,3.55,4.88,3.58,2.45,1.78,2.34,1.8,4.68,3.58,4.46,3.59c3,2.38,5.72,4.8,8.57,7.17,1.42,1.18,2.65,2.39,4,3.57s2.71,2.36,3.88,3.55l3.69,3.53.93.88.85.88,1.7,1.75,1.72,1.73.86.87.78.86,3.14,3.42.79.85c.26.28.48.56.72.84l1.41,1.68,1.44,1.66.72.83c.23.27.42.55.64.82.84,1.09,1.69,2.17,2.56,3.24l.65.8.56.8,1.12,1.57,1.16,1.56.58.77.48.76c.64,1,1.31,2,2,3a95.74,95.74,0,0,1,6.15,11l.65,1.28a11.74,11.74,0,0,1,.51,1.25c.32.83.68,1.64,1.06,2.44s.51,1.6.82,2.37c.14.39.3.78.47,1.16l.29,1.16c.21.76.46,1.51.73,2.25s.29,1.51.49,2.25c.09.37.22.73.31,1.1s.09.76.15,1.13c.11.75.3,1.49.46,2.23a22.32,22.32,0,0,0,.24,2.31l.19,1.13c0,.37,0,.72,0,1.08,0,.73.14,1.42.18,2.17a23.82,23.82,0,0,0,0,2.39,17.09,17.09,0,0,1-.06,2.55c0,.44,0,.88,0,1.33v.66a6.1,6.1,0,0,1-.08.72c-.11,1-.2,2-.25,2.93,0,.25,0,.48,0,.75l-.13.8-.23,1.61c-.16,2.07-.78,4.51-1.1,6.83-.25,1.22-.59,2.51-.84,3.76l-.4,1.9-.55,2-1.05,4.06c-.45,1.42-.88,2.85-1.3,4.29-.23.72-.39,1.41-.66,2.16l-.78,2.26c-.53,1.51-1,3-1.54,4.54-1.22,3.15-2.27,6.25-3.69,9.56l-1,2.45-.49,1.23-.56,1.26-2.21,5.07c-3.13,6.86-6.46,13.9-10.37,21.25l-1.42,2.74c-.47.92-1,1.88-1.54,2.82l-3.11,5.66c-2,3.81-4.26,7.49-6.4,11.23a557.25,557.25,0,0,1-60.5,84.11q-17,19.57-35.83,37.47l-4.69,4.47-4.79,4.35-4.78,4.35c-1.61,1.44-3.27,2.81-4.89,4.23-6.66,5.85-12.78,10.88-17.92,14.78a144,144,0,0,1-12.68,8.74l-.17.1-.05,0,0,0s0,.06,0,0v0s0,0,0,0,0,0,0,0v0s0,0,0,0l-.09-.08-.18-.1c-.33-.19-.67-.36-1-.53-.74-.49-1.51-1-2.3-1.4s-1.71-1.16-2.59-1.69-1.88-1.35-2.83-2c-3.94-2.84-8.45-6.45-13.26-10.71A345.28,345.28,0,0,1,488.29,1516l-1.55-1.8h0l21,8,8.51,3.2,8.94,3.28,2.25.82,2.33.82,4.66,1.63,9.32,3.24c24.89,8.5,50,16.3,75.4,22.9s50.91,12.63,76.64,17.4a1132.65,1132.65,0,0,0,311.86,15.22,1114.78,1114.78,0,0,0,304.85-71.12c3.08-1.14,6.12-2.4,9.17-3.63l9.14-3.73,9.14-3.73,7.77-3.28,6.63-2.77,3-1.22,2.58-1,1.24-.49,1.06-.4,2.11-.82,1.63-.57.81-.3c.29-.11.4-.12.6-.19.37-.11.73-.23,1.09-.36a1.56,1.56,0,0,1,.38-.11l.26-.07.26-.09c.1,0,.17-.06.12,0-.19-.69.4,1.73-.57-2-.65-2.55-1.26-5.1-1.84-7.67s-1.15-5.47-1.62-7.19c-.49-2-1-4-1.37-6s-.83-4-1.2-6.1-.7-4.37-1-5.87c-.64-3.18-1.17-6.41-1.59-9.67-.21-1.58-.38-3.4-.55-4.8s-.36-2.52-.5-3.79c-.29-2.53-.47-5.17-.56-7.72q-.29-2.88-.31-5.87c0-1,0-2,0-3,0-.76,0-1.42,0-2.15,0-1.42.11-2.88.26-4.36l.1-1.45q0-.69.15-1.41c.06-.47.14-1,.23-1.45s.06-.51.11-.8c.07-.45.17-.94.3-1.45-.19.86,2.45-10.14,1.42-5.9q.1-.43.24-.9c.09-.3.2-.62.31-.94s.12-.36.2-.58a8.18,8.18,0,0,1,.42-1c.06-.15,0-.09.06-.16l.07-.15.09-.18-.12.22-.24.36a7.61,7.61,0,0,1-.62.87c-.07.08-.21.25-.42.53s-.36.46-.54.66l-1.26,1.37a19.57,19.57,0,0,1-1.57,1.49,25.58,25.58,0,0,1-2,1.8c-.36.3-.64.47-1.06.83s-.82.66-1.23,1-.82.6-1.23.87-.81.53-1.3.89c-.94.66-1.88,1.25-2.82,1.78-.44.23-1,.57-1.49.88s-1,.59-1.54.86l-3.15,1.59c-1.08.54-2.17,1-3.24,1.44s-2.21,1-3.3,1.36l-1.63.57c-.55.21-1.09.41-1.63.59-1.07.38-2.15.68-3.19,1s-2,.61-3,.84l-2.84.66c-.9.21-1.84.35-2.65.5-1.56.32-3.2.46-4.33.61a35.21,35.21,0,0,1-4.51.22h.14l.55.07c.31,0,.64.08,1,.15l1.28.23c.49.09,1,.21,1.53.35,1.22.24,2.4.64,3.87,1.05.72.21,1.44.47,2.19.75s1.54.52,2.33.84l1.19.51c.4.15.8.31,1.2.49.8.34,1.62.72,2.44,1.15s1.58.75,2.39,1.19l1.21.69c.37.19.75.4,1.13.62.75.43,1.52.91,2.28,1.43s1.37.86,2.06,1.36c.34.25.69.51,1,.78s.59.42.89.64.59.46.89.71c-17-14.42,39.28,33.32-37.85-32.11l-.43-.37-.61-.57c-.29-.27-.5-.49-.78-.78s-.81-.81-1.17-1.21l-1.33-1.46-.72-.83c-.25-.3-.39-.5-.73-.88-1.27-1.48-2.17-2.71-3.65-4.62l-1-1.32c-.31-.44-.59-.86-1-1.42l-1-1.39h0a10.1,10.1,0,0,1-.93.53c-.21.17-.68.32-1,.54s-.48.2-.71.32a6.11,6.11,0,0,1-.79.35l-.88.38-1,.39-.52.22-.59.2c-.41.14-.8.29-1.2.44l-1.35.44-.67.23-.75.21-1.5.47-1.64.44a159.61,159.61,0,0,1-16,3.4c-1.58.24-3.14.49-4.79.72l-2.33.31c-.42.07-.19,0-.25,0h0v0l81.41-91.68a1402.52,1402.52,0,0,0,91-121.33q21.54-32.36,41.24-67.3l4.9-8.73c1.65-2.89,3.19-5.93,4.79-8.89l4.74-8.93c1.58-3,3.16-6,4.66-9l9.08-18.3,8.7-18.71a811.92,811.92,0,0,0,30.62-78.5l3.3-10.23,1.63-5.11c.54-1.72,1-3.47,1.52-5.2,2-7,4-13.88,5.9-20.89l5.26-21.26c1.63-7.15,3.07-14.4,4.58-21.6a653.49,653.49,0,0,0,11.16-89l.51-11.33c.14-3.79.38-7.55.35-11.36q.06-11.39,0-22.78c-.25-7.6-.58-15.21-.92-22.81l-.13-2.85c0-.94-.09-1.91-.17-2.92l-.44-6c-.27-3.93-.68-8-1.07-12.06a467.36,467.36,0,0,0-7.87-50.86,390.79,390.79,0,0,0-16-55.07l-1.31-3.54-1.44-3.6-3-7.18c-.5-1.19-1-2.38-1.51-3.58l-1.64-3.63-3.56-7.67c-1.22-2.67-2.5-5.07-3.78-7.58l-3.9-7.41c-1.29-2.48-2.71-4.88-4.11-7.3l-4.27-7.21c-1.41-2.42-3-4.73-4.49-7.07l-4.63-7c-3.16-4.61-6.51-9.08-9.84-13.56a317.9,317.9,0,0,0-21.78-25.44,325.11,325.11,0,0,0-50.88-43.45c-2.28-1.61-4.63-3.13-7-4.67l-3.51-2.29c-1.19-.77-2.3-1.43-3.45-2.15-2.29-1.4-4.53-2.78-6.79-4.12l-6.76-3.87c-9-5-18-9.55-26.8-13.56s-17.49-7.6-26-10.76-16.75-6-24.77-8.46c-16.07-5-31.29-8.8-45.6-11.95-3.62-.81-7.07-1.51-10.6-2.25s-6.92-1.4-10.25-2c-6.78-1.3-13.28-2.45-19.65-3.55s-12.48-2.07-18.5-3l-17.36-2.69-16.28-2.51-15.2-2.41c-4.91-.8-9.54-1.6-14.08-2.41s-8.82-1.62-12.89-2.45c-16.37-3.3-29.4-7-38.22-10.38-2.16-.87-4.17-1.69-5.86-2.48-.47-.19-.81-.4-1.23-.59s-.88-.4-1-.45l-.25-.12a.18.18,0,0,0-.07-.05c.61-1.2-1.24,2.17-2.76,5s-3,5.39-4.55,8.06l-4.16,7.21c-1.32,2.27-2.83,4.69-4.12,6.79s-2.44,4-3.71,6-2.58,4-3.64,5.63-2.3,3.47-3.51,5.19-2.11,3.12-3.24,4.67-2.27,3.07-3.25,4.41-2,2.64-3,3.94c-8.07,10.25-14.46,16.72-19.51,20.91-1.43,1.14-2.26,1.87-3.45,2.69-.65.44-.9.67-1.39,1s-1,.62-1.33.86-.65.41-1,.61c-2.59,1.43,2.3-1.28,1.54-.84l-.84.43-.7.32c-1.64.72-1.37.34.91.07a46.92,46.92,0,0,1,12,.39,97.6,97.6,0,0,1,19.6,5.12A146.73,146.73,0,0,1,1082.07,445a165.89,165.89,0,0,1,18.25,11.95,122.54,122.54,0,0,1,10.61,8.91c1.94,1.86,2.14,2.27.66.51-.47-.55-.94-1.12-1.4-1.72-.67-.83-1.34-1.69-2-2.59-.81-1.06-1.68-2.25-2.49-3.44,24,34.15,7.06,9.22,12.6,16.73l.69-.45c.92-.59,1.82-1.22,2.72-1.84s1.92-1.11,2.86-1.69c.48-.29.91-.62,1.42-.88l1.51-.78,1.48-.83a16.82,16.82,0,0,1,1.52-.81c1.06-.49,2.11-1,3.15-1.54l.78-.4.84-.35L1137,465c2.14-1.06,4.61-1.86,6.93-2.85l3.74-1.29,1.87-.68,2-.58a175.08,175.08,0,0,1,17.09-4.41l4.68-.93c1.56-.31,3.25-.53,4.87-.82l2.45-.42c.82-.14,1.71-.22,2.55-.34l5.13-.71,5.35-.57,2.68-.3,2.78-.21,5.57-.46,5.76-.32c1.89-.14,3.89-.18,5.87-.25s3.93-.18,6-.2c4.09,0,8.12-.15,12.36-.07,8.34,0,17.08.32,26,.75l6.74.38c2.23.12,4.57.32,6.85.47,4.54.29,9.26.72,13.92,1.1,9.45.87,19,1.82,28.89,3,19.64,2.27,40.22,5.16,61.53,8.29Z"/><path class="b" d="M1406.85,268c1.72,3-3.95,2.88-5.74,4.38-7.14-2.19-15.57-4.19-14.3-7.27Z"/><path class="b" d="M1027.89,644.57c3.95,1.09,7.3,2,10.32,2.94s5.58,1.75,7.9,2.56,4.36,1.58,6.27,2.35,3.63,1.49,5.35,2.23c6.79,2.91,13.15,5.8,25.28,8.31,10.87,2.79,15.48,2.86,18.86,2.45s5.34-1.41,10.28-1.17c30.1,6.14,56.51,10.46,78.22,14.86,10.79,2.18,20.48,4.33,28.56,6.47s14.76,4.22,19.65,6c2.47.9,4.55,1.73,6.28,2.45l1.23.51c.36.18.73.33,1.11.48s.65.31.94.41.4.17.64.23a35.38,35.38,0,0,1,4.8,2.06,18.19,18.19,0,0,1,2.38,1.38c.2.13.43.24.64.36a4.09,4.09,0,0,0,.56.42,11,11,0,0,1,1.18.84l.33.2c.1.07.17.16.27.24a4.51,4.51,0,0,0,.58.46c.1.08.24.15.32.22l.2.14.12.06a.54.54,0,0,1,.14.12l.39.41.2.2.18.26.37.52q.39.51.81,1c.52.78,1,1.64,1.64,2.44a1.82,1.82,0,0,0-1.44.58,2.13,2.13,0,0,0-.34,1.44,11.45,11.45,0,0,0,.39,2c.16.78.38,1.6.58,2.37a16.52,16.52,0,0,1-7.81-.29,24.83,24.83,0,0,1-3.42-1.05c-1-.49-2.12-.82-3.08-1.24l-.32-.59a2.68,2.68,0,0,0-.33-.48,10.33,10.33,0,0,1-.6-.92,1.66,1.66,0,0,0-.3-.37l-.14-.16s-.1-.12-.11-.09,0,.08-.22,0-.38-.3-.68-.38a1.24,1.24,0,0,1-.29-.2,1.18,1.18,0,0,1-.36-.14,10.47,10.47,0,0,0-2.46-.92,6.55,6.55,0,0,0-1.16-.2,1.84,1.84,0,0,1-.78-.18c-.13,0-.22-.11-.36-.16l-.43-.15-.42-.18-.5-.19c-1.32-.51-3-1.16-5.13-1.88s-4.73-1.52-7.72-2.34-6.36-1.66-10.12-2.5-8-1.65-12.44-2.44c-8.94-1.6-19.34-3.06-30.72-4.44s-24-2.69-37.6-4.1-28.3-2.94-44.14-4.89c6.46-6.38-9.83-11.59-28.46-18-9.28-3.2-19.1-6.73-26.12-10.33a31.87,31.87,0,0,1-7.93-5.26C1027.29,647.59,1026.81,646,1027.89,644.57Z"/><path class="b" d="M942.81,1285.62a105.29,105.29,0,0,0-8.22,11.13c-3.05,4.37-5.88,9.21-8.66,13.6s-5.15,8.4-7.23,11.13-3.68,4.24-4.65,3.63c3.14-6.07,5.87-11.5,8.84-16.15a126.35,126.35,0,0,1,8-11.93,72.27,72.27,0,0,1,6.71-7.76A16.24,16.24,0,0,1,942.81,1285.62Z"/><path class="b" d="M1243.65,1404.87c1.15.33,1.91.71,1.68,1.37a3.64,3.64,0,0,1-1.17,1.32,16.25,16.25,0,0,1-1.32,1c-.51.35-1.15.76-1.9,1.19a27.3,27.3,0,0,0,8.18-2.73c2.15-1.1,3.3-2.12,3.46-2-1.75,2.3-3.21,4.59-5.14,7.53a24.62,24.62,0,0,1-9.87,5.65c-4,1.17-8.31.9-10.59-.87a4,4,0,0,1-.77-.7,3,3,0,0,1-.34-.37l-.24-.41-.23-.4a4.59,4.59,0,0,1-.15-.44,3.12,3.12,0,0,1-.12-.91,5.14,5.14,0,0,1,2-3.77,17.26,17.26,0,0,1,6.12-3.18A64.17,64.17,0,0,1,1243.65,1404.87Z"/><path class="b" d="M1075.84,1304.66c18.67-2.43-14.66,6.48.76,3.79-.64.86-2.51,1.64-4.91,2.27a43.19,43.19,0,0,1-8.13,1.29c-5.58.37-10.48-.15-9.22-2a50.14,50.14,0,0,1,6.17-1.2c2.41-.37,5-.67,7.4-1.12C1072.66,1306.86,1076.48,1306,1075.84,1304.66Z"/><path class="b" d="M560.84,1233.38c.73,2-.42,3.11-4.41,2.68a50.58,50.58,0,0,1-8.28-1.83c-3.57-1-8-2.32-13.42-4.18-.87-2.06.11-3.2,4.1-2.88a50.6,50.6,0,0,1,8.38,1.65C550.84,1229.81,555.34,1231.36,560.84,1233.38Z"/><path class="b" d="M660.23,1780.12c1.3-.55,2.55-1.09,3.74-1.64l3.38-1.62,2.91-1.45,2.61-1.34c3.22-1.78,5.88-3.42,8.17-4.92s4-2.9,5.61-4.18,3-2.45,4.15-3.55c4.86-4.42,8.46-7.57,19.41-11.85l9-8.26,4.49-4.14,2.27-2.08,2.22-2.08c5.9-5.55,12.11-11.06,18.25-16.89,12.47-11.45,25.1-23.59,37.56-36l9.24-9.38c3.09-3.11,6-6.34,9-9.5,6-6.29,11.74-12.8,17.41-19.15,11.12-12.89,21.51-25.68,30.31-38.2,2.19-3.1,4.35-6.17,6.38-9.3s4-6.3,5.9-9.45c3.91-6.26,7.39-12.73,11-19.14,1.8-3.19,3.48-6.47,5.2-9.74s3.46-6.53,5.2-9.83l5.18-10c1.73-3.36,3.6-6.69,5.35-10.14,3.54-6.82,7.23-13.61,10.65-20.6l5.24-10.44,5.18-10.74c6.83-14.47,13.45-29.5,19.57-45.21a502.68,502.68,0,0,0,16.44-49.23A387.32,387.32,0,0,0,962,1336.39a320.29,320.29,0,0,0,2.07-57.31l-.49-7.3-.27-3.65c-.1-1.22-.27-2.41-.41-3.62-.59-4.8-1.14-9.61-1.84-14.39s-1.7-9.53-2.59-14.28-2.17-9.4-3.29-14.08A315.63,315.63,0,0,0,909,1121.52a396.27,396.27,0,0,0-37.34-46.14A536,536,0,0,0,831,1036.47c-13.73-11.88-27.43-22.81-40.75-32.91S764,984.12,751.86,975.28c13.21,2.56,29.52,9.36,47.33,19.93s37.12,24.89,56.07,42.26a402.92,402.92,0,0,1,53.46,60.31,389,389,0,0,1,39.25,69c4.37,8.73,8.44,16.56,11.86,23.86.9,1.8,1.76,3.56,2.61,5.27l1.27,2.53,1.16,2.5q2.31,4.93,4.53,9.31a331.86,331.86,0,0,1,9.17,48.35l.69,6c.27,2,.33,4,.5,6q.39,6,.78,12c.12,3.95.17,7.88.23,11.8,0,2,.07,3.93.06,5.87s-.11,3.85-.17,5.77c-.14,3.83-.21,7.68-.44,11.45s-.57,7.49-.86,11.21-.74,7.35-1.17,11l-.66,5.43c-.23,1.81-.44,3.62-.74,5.37-1.15,7-2.22,14.11-3.68,20.84-.35,1.7-.69,3.4-1,5.09s-.68,3.4-1.09,5l-2.37,9.87c-.76,3.31-1.68,6.46-2.54,9.65s-1.74,6.39-2.67,9.5-1.9,6.17-2.85,9.24c-.48,1.53-.95,3.08-1.44,4.59l-1.53,4.48-3.05,8.92-3.22,8.68c-2.1,5.83-4.41,11.35-6.64,17-1.1,2.82-2.31,5.48-3.46,8.21s-2.31,5.45-3.51,8.11l-3.59,7.92-1.8,3.95-1.85,3.85c-1.23,2.57-2.46,5.14-3.69,7.69s-2.51,5-3.76,7.48-2.51,5-3.77,7.43l-1.89,3.69-2,3.65q-15.48,29.3-33.45,56.37a619.44,619.44,0,0,1-38.46,52.12,561.92,561.92,0,0,1-44.24,47.57c-2,1.86-4,3.73-6,5.61s-4,3.73-6.06,5.53c-4.11,3.62-8.24,7.24-12.42,10.81s-8.54,7-12.87,10.44-8.83,6.75-13.3,10.08c-1.26,1.43-2.51,2.85-3.8,4.21s-2.6,2.67-3.91,4c-2.62,2.61-5.26,5.13-7.92,7.6-1.3,1.23-2.71,2.47-4.11,3.69l-4.23,3.65-4.4,3.65c-1.47,1.22-2.95,2.43-4.51,3.65l-4.65,3.69-4.85,3.73c-3.21,2.51-6.7,5.07-10.18,7.71-1.72,1.32-3.62,2.65-5.44,4s-3.66,2.74-5.66,4.14l-5.93,4.29c-1,.73-2.07,1.45-3.11,2.2l-3.32,2.32c-3.06,1.52-6.31,3-9,4s-4.84,1.61-5.9,1.37c-5.38,1.73-5.67.09-4.15-2.55S658.31,1782.74,660.23,1780.12Z"/><path class="b" d="M868.45,1114.44c-.83-.85-1.69-1.8-2.62-2.74l-2.93-3c-2-2.08-4.13-4.32-6.28-6.65s-4.44-4.57-6.61-6.9l-3.21-3.48-3.11-3.32c-2-2.18-3.87-4.3-5.47-6.27s-3-3.69-4.06-5.27c-2.09-3.13-2.79-5.43-1.3-6.3-1.11-.74-2.2-1.53-3.29-2.32s-2.18-1.57-3.26-2.39c-2.15-1.65-4.26-3.4-6.35-5.23s-4.23-3.64-6.35-5.57l-6.43-5.91-6.71-6c-1.14-1-2.29-2.06-3.46-3.07l-3.61-3c-2.43-2-4.94-4-7.55-6s-5.34-3.87-8.17-5.76c-28.83-24.84-62.7-47.79-99.48-68.64-4.6-2.61-9.24-5.22-13.93-7.75l-7-3.83-7.12-3.76L643,937.54l-6.94-3.6q-6.93-3.56-13.93-7.17c-18.59-9.55-37.28-19.11-55.76-29s-36.67-20-54.28-30.76A574.32,574.32,0,0,1,462,832.92c-31.39-24.09-57.55-51.52-74-81.21,1.11-3.72,3.53-2.7,6.26-.28.69.61,1.39,1.31,2.11,2.06s1.41,1.53,2.2,2.28a52.85,52.85,0,0,0,4.45,4,151.94,151.94,0,0,0,25.06,29.51,272.85,272.85,0,0,0,29.79,23.56c21,14.62,43.54,27.94,69.17,45.85,18.3,8.25,37.39,17.66,56.9,27.94S623.6,908,643.87,919.59l15.5,8.93c5.29,3.06,10.55,6.25,15.78,9.38,10.45,6.38,20.75,12.81,30.85,19.41s20,13.24,29.71,19.82,19.14,13.25,28.35,19.83c3.21,3,6.85,6.25,10.77,9.82L787.57,1018c9.07,7.92,19.12,16.88,29.66,26.58l8,7.41,8.07,7.78c2.75,2.56,5.41,5.36,8.14,8l4.1,4.09,4.05,4.23c1.36,1.41,2.71,2.83,4.07,4.25s2.72,2.82,4,4.31l8,8.79,7.82,9,2,2.26,1.89,2.33,3.78,4.63C883.55,1117.61,874.44,1117.19,868.45,1114.44Z"/><path class="b" d="M446.5,848.08l-2.32,3.11a209.5,209.5,0,0,1-23.74-17.5,277.06,277.06,0,0,1-20.65-19.77c-6.54-6.76-12.44-13.84-18.38-20.77-5.71-7.08-11.48-14-17-21.06,4,1.18,9.28,6,15,11.16s12,10.59,17.2,13.35c2.16,2.64,4.23,5.22,6.39,7.65l6.49,7L416,817.7l1.59,1.58,1.63,1.52,3.22,3q1.57,1.53,3.13,3l3.16,2.94c2.1,2,4.08,4,6.1,5.93s4,4,5.94,6S444.65,845.88,446.5,848.08Z"/><path class="b" d="M385.47,740c-1,1.38-2.75.37-4.81-2.08-.52-.61-1.06-1.31-1.61-2.08a22.74,22.74,0,0,1-1.65-2.54c-1-1.85-2.13-3.93-3.2-6.11a31.82,31.82,0,0,1-1.48-3.37l-1.35-3.45-1.28-3.4-.91-3.06a52.87,52.87,0,0,1-1.92-9.23c.91,1.26,1.67,2.57,2.45,3.87s1.35,2.66,2,4c.32.67.63,1.36.91,2l.43,1,.49,1.13c.67,1.51,1.29,3.06,1.91,4.62C377.92,727.69,380.84,734.15,385.47,740Z"/><path class="b" d="M447.22,768c.54,4.65-.73,17.41-3.06,32.34-.55,3.76-1.22,7.63-2,11.55-.35,2-.73,3.95-1.14,5.92s-.86,4-1.28,5.92-.92,3.94-1.44,5.87c-.28.94-.51,2-.76,3s-.52,2-.8,3a93.05,93.05,0,0,1-3.91,11.29A416.8,416.8,0,0,0,436.5,899a298,298,0,0,0,12.3,53.28,278.76,278.76,0,0,0,23.07,51.86,256.84,256.84,0,0,0,34.82,47.25c-2-.27-1.78,1.37-.26,4.11a49.65,49.65,0,0,0,3.2,4.81c.66.91,1.41,1.82,2.22,2.75s1.66,1.89,2.55,2.86c1.77,1.94,3.67,3.93,5.6,5.87s4,3.68,5.9,5.34a68.2,68.2,0,0,0,9.5,7.23c.25-1.25-1-2.63-2.64-4.21a72.08,72.08,0,0,0-6-4.69,28.45,28.45,0,0,1-4.71-3.92c-.78-1.08-.55-1.76,1.46-1.85,19.06,17.24,39.28,32.66,59.48,44.57s40.34,20.09,57.54,24c.54,1.24-1.09,1.39-2.89,1.25s-3.85-.4-4.27.32c.11.44.81,1,1.92,1.57a28.87,28.87,0,0,0,4.4,1.85c3.52,1.22,7.89,2.5,11.47,3.69-.69.45-4.44-.23-9.3-1.47a126.21,126.21,0,0,1-15.69-5.32c-1.24-.5-2.44-1-3.55-1.47s-2.09-1-3-1.48a26.4,26.4,0,0,1-3.82-2.27c-1.37-1.11-.08-1.23,5.67.35a92.29,92.29,0,0,0-11.68-4.29,78.07,78.07,0,0,1-11.81-5.15c10.16,6.06,7.71,6.85,7.1,8.22s.58,3.63,19.5,10.77c-.51.3-1.92.06-3.76-.46s-4-1.46-6.2-2.31c-4.36-1.72-8.58-3.37-9.08-2.43-4.89-3-7-5.38-8.72-7.58a48.8,48.8,0,0,0-5.6-6.89c-2.25-.89-5.24-2.28-8.73-4-1.76-.84-3.56-1.89-5.46-3l-5.94-3.5c-4.15-2.37-8.26-5.29-12.47-8.08s-8.22-5.86-12.06-8.65c-1.89-1.43-3.8-2.73-5.49-4.11s-3.36-2.62-4.88-3.81-3-2.25-4.26-3.19l-3.42-2.46c-3.92-2.76-5.49-2.87-3,1.55a75.62,75.62,0,0,1-8.69-7.16c-3-2.89-6-6.32-9.06-10a244.66,244.66,0,0,1-17.67-24.92c-5.6-8.86-10.78-17.88-15.6-25.9-2.52-3.93-4.74-7.79-7.09-11.11-1.17-1.67-2.34-3.23-3.52-4.66s-2.28-2.81-3.45-4l-3.18-6.85-1.57-3.35c-.47-1.14-.95-2.27-1.42-3.39l-2.78-6.66c-.9-2.2-1.88-4.32-2.65-6.54q-2.44-6.59-4.79-12.91l-4.14-12.78a308.92,308.92,0,0,1-11.14-51.87c-.46-4.54-.89-9.13-1.29-13.81-.2-4.71-.33-9.5-.43-14.41a232.31,232.31,0,0,1,2-30.86c.61-5.54,1.6-10.67,2.6-16.11q.87-4,1.79-8.13c.59-2.77,1.37-5.46,2.09-8.26A277.44,277.44,0,0,1,447.22,768Z"/><path class="b" d="M664.85,1145c1.54.48,3,1.06,4.56,1.52s3,1,4.31,1.43a43.48,43.48,0,0,1,6.53,2.81c3,1.73,2.8,3.1-4.09,3.13a47.36,47.36,0,0,1-7.93-2.14,8.84,8.84,0,0,1-3.58-2.32C663.38,1147.9,664,1146.45,664.85,1145Z"/><path class="b" d="M709.27,1147.43c2.49,0,4.6.25,6.46.29s3.43.18,4.8.34a40.07,40.07,0,0,1,6.52,1.25l2.69.74a28.79,28.79,0,0,0,2.88.57,44.26,44.26,0,0,0,8.43.41,28.35,28.35,0,0,1-9.17,1.81,42.2,42.2,0,0,1-5.72,0c-1.94-.11-3.87-.3-5.69-.55s-3.55-.56-5.08-.9a22.59,22.59,0,0,1-3.88-1.28C709.42,1149.15,708.46,1148.21,709.27,1147.43Z"/><path class="b" d="M797.65,1146.37c.35-1.36,2.67-2.61,6.24-3.88,1.77-.69,3.84-1.39,6.15-2.11l3.62-1.11,3.84-1.27c2.63-.88,5.44-1.72,8.21-2.78s5.62-2.11,8.39-3.27,5.44-2.48,8-3.79a71.11,71.11,0,0,0,7-4.26c0,1.19-2,2.89-5.22,4.9-1.64,1-3.61,2-5.82,3.06l-3.46,1.64c-1.22.54-2.49,1-3.8,1.59-2.62,1.05-5.35,2.21-8.21,3.2s-5.75,2-8.63,3l-8.52,2.7Z"/><path class="b" d="M881.31,1105.53c1.89-1.9,3.43-3.65,5-5.41s3-3.59,4.79-5.52c.9-1,1.87-2,3-3s2.25-2.24,3.6-3.46,2.83-2.53,4.51-3.95,3.5-3,5.57-4.7a45.39,45.39,0,0,1-8.72,11.49c-1.08,1.1-2.23,2.27-3.51,3.42s-2.66,2.34-4.12,3.56C888.44,1100.41,885.05,1102.88,881.31,1105.53Z"/><path class="b" d="M830,528.5C810.65,520,799.25,514,795.7,508.57c2.48,1.46,5.87,3.14,9.55,4.82s7.64,3.49,11.31,5.29A71.92,71.92,0,0,1,826,524C828.48,525.67,830,527.21,830,528.5Z"/><path class="b" d="M632.68,903.84c-.63-2.16-.74-4.29-1.17-6.35a9.89,9.89,0,0,1-.14-1.53c0-.5-.08-1-.13-1.5s-.12-1-.19-1.48,0-1,0-1.43c0-.95-.09-1.88-.17-2.79a25.81,25.81,0,0,0,0-2.63,7.74,7.74,0,0,1,0-1.27c0-.41.08-.82.09-1.22s0-.8,0-1.2a4.56,4.56,0,0,1,0-1.17,14,14,0,0,0,.09-2.23l0-.56.07-.53a9.24,9.24,0,0,0,.07-1c-.13-1.43.16-2.73,0-4.1a3.72,3.72,0,0,1,0-1,8.39,8.39,0,0,0,0-1,8.89,8.89,0,0,0-.13-1,3,3,0,0,1-.07-.57l0-.74c0-1-.09-2,0-3s-.11-2.09-.08-3.23a140.59,140.59,0,0,1,7.61-15.47q5-8.85,12.59-20c5.06-7.43,11.06-15.67,17.71-24.63l21.94-29.43c15.69-21.32,33.44-46.19,49.72-76.11l1.51-2.78,1.74-3.35q1.75-3.45,3.5-6.9c1.18-2.3,2.18-4.59,3.26-6.89s2.12-4.59,3.11-6.89c3.92-9.18,7.47-18.35,10.45-27.52a323,323,0,0,0,13-54.92,230,230,0,0,0,7.53-40.18,283.14,283.14,0,0,0,.63-44.73,311.33,311.33,0,0,0-6.85-48.32,323.75,323.75,0,0,0-15.82-50.8A235,235,0,0,0,727,343.16c-1-1.19-1.91-2.39-2.9-3.57l-3.09-3.5q-3.12-3.48-6.32-6.88c-2.1-2.3-4.38-4.46-6.65-6.63s-4.57-4.31-6.9-6.42c-1.16-1.06-2.35-2.08-3.56-3.08l-3.65-3q-3.66-3-7.4-5.84c-5-3.72-10.18-7.18-15.4-10.59-5.22-3.23-10.54-6.24-15.92-9.19-2.73-1.43-5.53-2.79-8.32-4.13-1.4-.67-2.81-1.35-4.21-2l-4.19-1.82A239.59,239.59,0,0,0,605,265c-2.73-.72-5.48-1.41-8.22-2.06s-5.37-1.15-8.06-1.69-5.33-1-8-1.43l-3.95-.63-2-.3-1.92-.25q-3.85-.49-7.71-.92c-2.57-.28-5-.46-7.55-.67l-3.76-.29-3.66-.19c-2.43-.11-4.89-.22-7.3-.29-9.57-.21-18.82,0-27.72.6s-17.44,1.52-25.65,2.74c-4.15.59-8.44,1.36-12.64,2.08s-8.39,1.68-12.57,2.57-8.31,2-12.42,3.05-8.22,2.23-12.26,3.5A348.93,348.93,0,0,0,350,313.19a374.4,374.4,0,0,0-71.33,61.43A398.18,398.18,0,0,0,192.58,529.3a385,385,0,0,0-14.85,86.28,363.62,363.62,0,0,0-2.58,51.94A315.38,315.38,0,0,0,184,721.7a327.25,327.25,0,0,0,18.53,52.79c1,2.14,2,4.28,3,6.44.5,1.11,1,2,1.51,3l1.51,3c2,3.94,4,7.9,6.14,11.81l6.65,11.63,1.68,2.91,1.78,2.85,3.58,5.71A451.59,451.59,0,0,0,260.21,866,526.38,526.38,0,0,0,340,944.65c28.62,23,58.41,43.06,87.93,61s58.84,34.05,86.94,49c14,7.46,27.78,14.65,41.1,21.62l19.59,10.26,8.89,4.76,8.71,4.76c-.54,2-2.51,3.71,6.25,7.59a562.24,562.24,0,0,1,60.15,41.59q13.63,10.92,25.83,22.17c8.09,7.49,15.55,15.1,22.46,22.66,1.67,1.91,3.45,3.78,5.06,5.68l4.79,5.66c3,3.79,6.07,7.52,8.74,11.25a232.42,232.42,0,0,1,14.29,21.73,170,170,0,0,1,9.72,20.1,150,150,0,0,1,6.1,18.45,42.74,42.74,0,0,0,1.22,4.33,37.94,37.94,0,0,0,1.2,4.29c.65,2.89,1.56,5.83,1.91,8.63a33.65,33.65,0,0,1-2.15,18.88c1.24,7.69,1,17.52-.91,28.81a242,242,0,0,1-9.66,37c-.71,1.41-1.53,2.88-2.33,4.38s-1.6,3-2.41,4.57c-1.7,3.15-3.45,6.4-5.25,9.72-.93,1.7-1.88,3.41-2.83,5.14l-1.42,2.63-1.53,2.7-6.2,11.08c-8.45,15-17.74,30.6-27.24,45.8-19,30.44-39,59.09-52.07,79.89q-2.4,2-4.71,4.12c-1.54,1.37-3.1,2.71-4.6,4.09s-3,2.76-4.45,4.15l-2.16,2.11-2.18,2.07c-2.9,2.75-5.69,5.59-8.47,8.42s-5.6,5.6-8.36,8.45-5.62,5.6-8.43,8.44-5.61,5.56-8.35,8.15a164.55,164.55,0,0,1-16.11,13.67l-2.7,1.9c-.45.31-.91.66-1.34,1l-1.3.86c-.86.56-1.75,1.19-2.58,1.72l-1.25.76-.9.58a65.26,65.26,0,0,1-6.22,3.47l-.8.42-.82.35c-.56.23-1.1.51-1.65.75-1.14.38-2.24.92-3.42,1.24s-2.35.66-3.52,1.06c-.6.12-1.2.23-1.8.38a11.5,11.5,0,0,1-1.83.32c-.62.08-1.23.2-1.84.32s-1.24.07-1.87.14l-.93.12h-.94q-.95,0-1.89.09c-.63,0-1.26-.08-1.89-.08h-1l-1-.11c-.63-.07-1.26-.12-1.9-.15s-1.25-.23-1.89-.31l-1-.12-.94-.23c-.62-.14-1.26-.24-1.89-.37-1.22-.43-2.52-.59-3.72-1.08a61.67,61.67,0,0,1-7.29-2.83c-1.19-.64-2.3-1-3.7-1.88l-1.34-.71-.68-.36-.69-.42-2.8-1.66c-3.79-2.38-7.76-5-11.88-8.08a256.27,256.27,0,0,1-25.77-22.13c-1.1-1-2.21-2.15-3.32-3.26l-3.33-3.33c-2.22-2.34-4.45-4.55-6.68-7l-3.36-3.59-3.35-3.72c-2.25-2.44-4.48-5.07-6.73-7.6-.35-.4-.35-.42-.5-.6l-.36-.45-.74-.87c-.51-.57-1.05-1.13-1.46-1.65l-2.65-3.18q-2.62-3.19-5.18-6.47c-6.78-8.73-13.29-17.9-17.71-28.11a54.34,54.34,0,0,1-4.37-16,37.15,37.15,0,0,1,1.83-16.2,35.78,35.78,0,0,1,8.68-13.48,46.58,46.58,0,0,1,13-8.87,61,61,0,0,1,29.73-5.35c2.83-2.11,6.07-2.39,9.4-2.13,1.68.08,3.4.36,5.24.5a48.09,48.09,0,0,0,6,.28,184.88,184.88,0,0,0,19.8,9.58l1.39.57,3.2,1.25,7.67,2.93,8,3,8.37,3.07c11.38,4.16,23.85,8.18,36.1,12.09,24.69,7.49,49.73,13.68,73,18.44,11.69,2.2,22.88,4.38,33.45,5.88,5.28.78,10.37,1.58,15.26,2.22l14,1.64q3.65,1.32,7.62,2.56c2.66.82,5.43,1.55,8.3,2.3,5.75,1.46,11.88,2.92,18.35,4.2s13.27,2.39,20.3,3.52,14.34,2,21.79,2.91c29.84,3.56,62.33,5.63,92.87,8.12l8.92.81,8.81.72,17.31,1.53c11.38.79,22.47,1.78,33.18,2,5.36.15,10.63.27,15.79.21s10.21-.34,15.15-.71q3.71-.29,7.32-.67c2.41-.26,4.79-.64,7.13-1,4.69-.79,9.25-1.74,13.66-2.91a790.93,790.93,0,0,0,81.81-9.75c27.51-4.63,55.16-10.81,83-17.91s55.8-15.27,84-24.21l21.22-6.85q10.59-3.61,21.32-7.15l21.43-7.43c7.13-2.44,13.39-4.63,18.87-6.26l1.71-.52,1.58-.44,3.11-.86c.54-.15,1-.26,1.47-.37l1.4-.33,1.4-.33c.47-.11,1-.23,1.35-.29l2.47-.46c.4-.07.85-.18,1.21-.22l1.06-.12,2.11-.27,1.73,0,.85,0a3.44,3.44,0,0,1,.68.06l1.27.12a.94.94,0,0,1,.47.13l.4.15.38.13c.06,0,.14,0,.17.07l.07.12.25.41h0s0,0,0-.12l-.07-.61-.13-1.24-.27-1.93c-.17-1.27-.32-2.54-.45-3.83s-.22-2.58-.3-3.89l-.09-2c0-.36,0-.59-.05-.83l-.07-.72q-.22-2.93-.21-6l0-1.52v-.38a2.6,2.6,0,0,0,0-.28v-.53c0-.71,0-1.42,0-2.15s.06-1.45.12-2.19.17-1.64.17-2a26.56,26.56,0,0,1,.29-2.84l.12-.74.07-.36v-.16c0-.22.06-.44.1-.68s.1-.48.15-.73l1.43-5.86a15,15,0,0,1,.48-1.82l.45-1.31a5.6,5.6,0,0,1,.22-.54l.13-.29,0-.06a2.59,2.59,0,0,1,.15-.32l0,.09-.11.17-.08.12-.31.48-.32.43-.15.19-.08.08-.14.19a13.81,13.81,0,0,1-1.11,1.31l-.29.3-.4.45c-.27.29-.54.56-.81.82l-1.82,1.69c-.34.31-.69.6-1,.89l-.53.4-.57.45a72,72,0,0,1-16.16,9.35,84.2,84.2,0,0,1-17,5.22l-.9.15-.81.16c-.54.09-1.07.18-1.59.24s-1,.12-1.45.18l-.32,0-.16,0h0s.05,0,0,0,0,0,0,.06a.1.1,0,0,0,0,.07.29.29,0,0,0,0,.1c0,.25,0,.62,0,.79s-.05,0,0,.07,0,0,0,0l.63.14,1.29.36c1.81.49,3.85,1.19,6,2a67.69,67.69,0,0,1,12.91,6.71c.47.31,1,.65,1.43,1l.72.55.62.44c.41.3.82.62,1.24,1l.62.54.16.13,0,0c4.73,4-41.14-34.9-21.73-18.42h0v0l-.08.09a8.74,8.74,0,0,0-.51.78,6,6,0,0,0-.57.82,35.19,35.19,0,0,1-3.22,3.82c.73,1.36,2.35,2.81,1.07,3.93-2.55,1.06-5.65,3.06-10,5.69a122.49,122.49,0,0,1-17.12,8.56A128.09,128.09,0,0,1,1265,1454c-1.13.21-2.32.39-3.47.57l-1.45.23-.76.09c-.51.05-1,.16-1.52.18l-1.52.08a21.74,21.74,0,0,1-5.85-.57,154.74,154.74,0,0,1-21.1,7.44,84.16,84.16,0,0,1-27.09,2.85,58.49,58.49,0,0,1-7.54-1,48.1,48.1,0,0,1-7.59-2.14,40.48,40.48,0,0,1-7.34-3.52,36.55,36.55,0,0,1-6.67-5.12,34.63,34.63,0,0,1-7.55-10.83,34.19,34.19,0,0,1-1.67-4.34,38.37,38.37,0,0,1-1.46-9.6,41.33,41.33,0,0,1,1.15-10.35c-3.39-4.77-3.94-12-1.87-20.19s6.64-17.1,12.44-25.81c2.89-4.36,6.08-8.69,9.4-12.93,1.66-2.13,3.36-4.23,5.06-6.31.84-1.05,1.74-2.05,2.58-3.09.43-.52.84-1,1.28-1.56l.66-.79,1.13-1.28,10.39-11.85c3.48-3.95,6.85-7.91,10.12-11.82s6.45-7.71,9.48-11.51,5.94-7.5,8.7-11.11c4.87-5,10-10.54,15.47-16.31s11.06-12,16.86-18.33l8.74-9.7,4.44-4.91c1.47-1.67,3-3.33,4.43-5q4.44-5,8.91-10l8.84-10.07c11.78-13.32,23.16-26.53,33.67-38.18,5.23-5.85,10.19-11.37,14.92-16.26s9-9.39,13-13.05c2.81-3.74,5.5-7.55,8.21-11.34s5.39-7.58,8.1-11.37,5.27-7.77,8-11.69c1.32-2,2.66-4,4-6l3.93-6.15q4-6.22,8-12.72t7.92-13.64c2.71-4.65,5.31-9.58,8-14.68s5.42-10.31,8-15.93c3.85-6.25,7.3-10.39,10.72-15.16a122.73,122.73,0,0,0,11-18.51c1.28-8.29,5-19.4,9.72-33.38a428.52,428.52,0,0,0,27.67-67.65,490.76,490.76,0,0,0,18.59-84.54,483,483,0,0,0,3.05-91.3,403.1,403.1,0,0,0-5.08-45.62,345.73,345.73,0,0,0-10.88-45.45,32.43,32.43,0,0,0-.33-6.36c-.17-1.17-.37-2.37-.64-3.63s-.62-2.58-1-3.92c-.76-2.68-1.6-5.47-2.63-8.36s-2.21-5.88-3.38-8.86-2.53-6-3.76-9c-.62-1.48-1.23-3-1.84-4.41s-1.27-2.91-1.87-4.34c-1.24-2.92-2.4-6-3.4-8.64a58.76,58.76,0,0,1-2.34-7.55,251.42,251.42,0,0,0-57.86-69.35c-3-2.39-5.86-4.83-8.92-7.1l-4.56-3.42-4.66-3.3c-3.09-2.21-6.31-4.24-9.5-6.32-1.6-1-3.23-2-4.86-3s-3.27-2-4.86-2.88A291.11,291.11,0,0,0,1336.5,474c-6.35-2.55-12.6-4.72-18.83-6.8s-12.36-3.87-18.38-5.49c-12.11-3.3-23.85-5.89-35.23-8.06s-22.42-3.95-33.11-5.48-21.08-2.87-31.12-4.11c-20.12-2.48-39-4.71-56.62-7.48s-33.87-6.06-48.23-10.38a181.85,181.85,0,0,1-20-7.17l-2.29-1-2.2-1c-1.5-.67-2.88-1.4-4.29-2.1s-2.72-1.46-4.07-2.18l-1.92-1.14-1-.56-.81-.52a26.8,26.8,0,0,1-4.58-3.52,4.17,4.17,0,0,1-.56-.64,1.89,1.89,0,0,1-.31-.52c-.12-.16,0-.26,0-.35v-.07s0,0,0,0l-.07.09-.14.19-.58.73q-1.15,1.46-2.37,2.88A116.94,116.94,0,0,1,1034.08,425l-1.39,1.11c-.46.35-.93.7-1.42,1a25.54,25.54,0,0,1-2.29,1.55l-.83.53-.44.25-.23.12-.11.06-.06,0,2.43-1.34a13.26,13.26,0,0,1-1.41.74l-.26.11-.12.06-.28.13c-.18.08-.44.18-.62.24a.84.84,0,0,1-.18.07l-.14,0,.13,0,.21-.05c.21,0,.49-.11.7-.14l1-.14.59-.07.28,0,.34,0c.57-.06,1.12-.09,1.66-.1h.9c.36,0,.71,0,1.06,0,1.22.06,3.1.09,4.65.3.89.09,1.9.19,2.8.33.47.07.91.15,1.37.24s1.05.15,1.57.25c1,.18,2,.4,3,.64s2.21.48,3.27.77l3.29.91c1.13.32,2.18.68,3.26,1.05s2.28.73,3.36,1.13l1.59.62,1.66.62c2.19.83,4.17,1.75,6.24,2.63,1,.45,2,.91,2.89,1.37l2.78,1.34c3.52,1.81,6.62,3.47,9,4.93s4.28,2.61,5.49,3.35c.89.56,1.81,1.15,2.74,1.78l1.41,1,1.39.94c.93.63,1.86,1.3,2.78,2s1.77,1.28,2.64,1.95c1.2.93.85.69,1.07.81l.31.18c.26.11.45.19.73.29a8.77,8.77,0,0,1,4,2.45c1.29,1.55,2.22,2.46,3,3.24.18.18.36.4.53.6l.25.3.1.11-.16-.2-1.34-1.7-2.3-3.08-.66-.93-.33-.48-.17-.24-.08-.12,0-.06,0,0,6.61,9.44,1-.26c1.36-.34,2.74-.74,4.13-1.19s3-.71,4.49-1.14c.72-.25,1.56-.38,2.35-.57s1.61-.38,2.4-.59c6.53-1.56,13.79-3.11,21.78-4.74S1165.08,456,1174,454a201.63,201.63,0,0,0,26.13-7.31l2.94-2.61c1-.87,2.05-1.69,3.08-2.54,2.06-1.69,4.1-3.41,6-5.09a47.16,47.16,0,0,0,9.5-9.88c2.08-3.24,2.68-6.5.78-9.75a15.55,15.55,0,0,0-4.81-4.83,34.09,34.09,0,0,0-4-2.35,48.57,48.57,0,0,0-5.21-2.29c.73-6.75-1.79-13.6-4.72-20.26S1197.55,374,1197.3,368s2.57-11.57,12.36-16.32,26.76-8.32,55-8.56c4.55-2.7,9.24-5.19,13.64-7.52a87,87,0,0,0,11.72-7.12c6.52-4.92,9.81-10.73,5.74-19.45-14.31-5-25.1-10.49-38-15.64a179.5,179.5,0,0,0-50.7-12.52c9.39-2.78.47-3.26-.27-6.44-10.83,0-24.39,1-35.57,2s-20,1.2-21.59-1.5l5-.7,4.74-.59,8.72-1.23c5.51-.7,10.43-1.6,14.92-2.29s8.56-1.61,12.37-2.34,7.36-1.64,10.81-2.38l10.24-2.32c3.42-.71,6.91-1.4,10.62-2a169,169,0,0,1,26.18-2.25,111.91,111.91,0,0,0,14.79-4.33,57,57,0,0,0,10.26-4.87,47.44,47.44,0,0,0,12.23-10.86c3.11-3.71,5.86-7.39,10-10.56s9.82-5.93,18.67-7.64c13.6,3,15.6,4.43,31.31,4.72,9.87-7.46-9.52-12.53,17.7-14.68-8.66-6.39-22.25-7.39-41.63-10-7.3-7.64-24.78-14-47.32-18.9-11.23-2.49-23.8-4.49-36.82-6.24-6.56-.79-13.16-1.63-19.89-2.24-3.36-.32-6.68-.7-10-1l-10-.81c-39.26,1.59-77.17,5.6-114,13.53a437.22,437.22,0,0,0-106.08,36.91q-6.24,3.28-12.41,6.63c-1,.56-2.06,1.1-3.08,1.69l-3,1.78-6,3.59-6,3.66c-2.49,1.64-5,3.29-7.43,5-4.84,3.38-9.56,6.86-14.1,10.49a267.4,267.4,0,0,0-25.95,23.53,254.75,254.75,0,0,0-23.57,28.12,231,231,0,0,0-20.91,35.14A211.4,211.4,0,0,0,844,387a195,195,0,0,0-3.91,58.78q.41,4.05.92,8.1c.18,1.35.36,2.69.56,4l.72,4.09c.49,2.73,1,5.46,1.62,8.17s1.34,5.45,2.07,8.17c1.42,5.44,3.28,10.78,5.21,16.1,1,2.66,2.07,5.22,3.17,7.82s2.24,5.2,3.48,7.67c-.37,1.54.22,4.75,1.75,9.28a75.75,75.75,0,0,0,3.16,7.69c.67,1.43,1.4,2.93,2.19,4.48s1.65,3.07,2.57,4.69,1.91,3.27,3,5,2.15,3.31,3.31,5,2.4,3.48,3.67,5.17,2.58,3.38,4,5.1c.68.85,1.39,1.74,2.1,2.58l2.13,2.47c1.44,1.65,2.95,3.35,4.48,5,3,3.13,6.25,6.43,9.43,9.32L902,578l1.25,1.11,1.21,1c1.62,1.38,3.27,2.76,5,4.12s3.27,2.56,4.94,3.83c.82.63,1.68,1.28,2.49,1.86l2.44,1.74,2.46,1.71,1.24.85,1.19.79c1.59,1,3.2,2.08,4.81,3.1s3.1,1.89,4.66,2.81,3.07,1.78,4.56,2.6,3,1.67,4.41,2.38l4.25,2.16c1.4.69,2.71,1.3,4,1.93l2,.92,1.9.84,3.69,1.59,3.31,1.3c2.16.83,4.26,1.63,6.23,2.3,5.77,4.39,6,7.29,7.59,10.5a15.76,15.76,0,0,0,4.4,5.31,37.61,37.61,0,0,0,4.64,3.13c1,.55,2,1.14,3.23,1.74s2.47,1.18,3.89,1.81c5.21,1,7.44.92,8,.36s-.63-1.71-2.41-3.07-4.22-3-6.14-4.54-3.38-3-3.22-3.89l11.34,3.23c4.13,1.14,8.65,2.43,13.29,3.66,9.32,2.51,19.27,5,28.72,7.3,19,4.61,35.66,8.31,43.42,11.62,10.13.31,22,1.33,34.32,2.55,6.17.61,12.45,1.27,18.76,2l18.72,2.1,34.57,4c5.25.57,10.2,1.07,14.76,1.47,2.32.19,4.46.38,6.61.5s4.14.24,6,.31a175,175,0,0,0,16.65,11.4c5.85,3.62,11.58,7.11,15.73,9.8a13.37,13.37,0,0,1,4.21-4.18c.81-.5,1.46-.94,2.2-1.37l1.11-.62,1.12-.55a20.61,20.61,0,0,1,7.42,4.06c.55.41,1,.93,1.46,1.36l.65.74.34.35.27.4c.19.26.38.52.58.77a4.15,4.15,0,0,1,.55.77c.3.56.66,1.07,1,1.6s.52,1.13.81,1.66.41,1.14.65,1.69a2.23,2.23,0,0,1,.16.4l.07.35.09.35c0,.1.11.33.16.5.28.65.45,1.56.69,2.35a100.14,100.14,0,0,1,2.32,11.46c1.24,8.86,2.11,19.46,2.78,32.57.13,1.57.15,3.37.22,5.14s.15,3.56.25,5.37.24,3.62.38,5.47.1,3.72.18,5.62c.49,7.56.69,15.54,1.24,24.11-.69,2.28-1.33,4.72-1.92,7.29s-1.07,5.28-1.79,8.12-1.27,5.8-1.85,8.87c-.14.76-.29,1.54-.43,2.32l-.54,2.36c-.35,1.59-.7,3.2-1,4.84-1.2,6.54-3,13.48-4.47,20.66-1.9,7.19-3.53,14.63-5.79,22.19-9.08,17.78-19.32,37.74-31.11,59.26s-25.34,44.58-40.1,68.46c-1.78,3-3.74,6-5.63,9s-3.79,6-5.69,9.06l-5.89,9.09-2.92,4.58-3,4.57-6,9.19-6.16,9.21c-4,6.16-8.31,12.3-12.44,18.47-16.73,24.65-34.16,49.24-50.93,73.12-15.55,7.9-30.24,22.88-45.33,39.38-3.75,4.13-7.56,8.34-11.33,12.58l-3,3.32-4.13,4.57c-3.74,4.14-7.52,8.33-11.17,12.53l-10.85,12.57c-3.5,4.22-7.06,8.35-10.47,12.5-6.81,8.32-13.44,16.48-19.7,24.45-10,12.62-19.42,25.59-28.1,38.87a402.9,402.9,0,0,0-23.53,40.72c-13.78,27.71-23.66,56.43-28.15,85.59a244.39,244.39,0,0,0-2.85,44,221.62,221.62,0,0,0,5.67,43.84c.92,3.6,1.81,7.21,2.79,10.8s2.2,7.12,3.36,10.66,2.62,7,4,10.48,3,6.86,4.54,10.27c.75,1.71,1.61,3.38,2.46,5l2.58,5,1.31,2.49.33.62c0,.25.22.42.31.64l.72,1.21,2.9,4.83c1.93,3.22,4,6.36,6,9.51s4.37,6.12,6.6,9.15c4,5.67,5.43,6.13,6.76,6.4s2.6.32,6.34,5a232.32,232.32,0,0,0,22.21,25.16c2.11,2,4.17,4,6.36,6s4.4,3.9,6.66,5.82l7,5.64,7.27,5.44a271.58,271.58,0,0,0,31.85,19.6,293.7,293.7,0,0,0,35.87,15.76,366.16,366.16,0,0,0,80.44,18.84,539.64,539.64,0,0,0,84.3,3.25c4.94-.22,9.86-.35,14.78-.62s9.84-.53,14.75-.85,9.81-.7,14.71-1.11l7.34-.66,7.17-.72,5.43-.56c1.75-.18,3.52-.38,5.3-.59l5.33-.63,5.4-.72c7.18-.94,14.55-2.15,22-3.49a355.42,355.42,0,0,0,46.23-11.76,286.78,286.78,0,0,0,48.68-21.25,309.68,309.68,0,0,0,27.53-17.37c2.2-1.55,4.37-3.2,6.51-4.79s4.25-3.21,6.33-4.92,4.13-3.36,6.14-5,4-3.5,5.95-5.24l2.9-2.63c1-.88,1.89-1.8,2.83-2.7q2.82-2.71,5.53-5.43c1.8-1.83,3.55-3.72,5.28-5.57s3.44-3.69,5.07-5.62c3.27-3.82,6.46-7.57,9.4-11.47,1.48-1.93,2.94-3.86,4.36-5.78,1.72-2.36,3.48-4.85,5.14-7.27a201.19,201.19,0,0,0,27.05-56.37,183.18,183.18,0,0,0,7.74-49.24,194,194,0,0,0,3.23-58.63,241,241,0,0,0-13.86-60.41,259.06,259.06,0,0,0-13.59-30.39c-1.36-2.53-2.6-5-4.13-7.55s-3-5-4.47-7.53l-1.14-1.87-1.22-1.88-2.49-3.75-2.52-3.72c-.84-1.23-1.67-2.45-2.61-3.7-3.7-5-7.27-9.79-11.45-14.59-2.06-2.4-4.06-4.77-6.21-7.11s-4.42-4.66-6.66-6.95c-1.13-1.14-2.23-2.29-3.39-3.41l-3.59-3.34q-3.6-3.32-7.25-6.55-3.81-3.16-7.68-6.25l-3.89-3c-1.29-1-2.66-2-4-2.93a75.22,75.22,0,0,0-10.82-4.68c-3-.92-5.52-1.51-8.54-2.36s-6.51-2-11.44-3.55l-8.59-2.84c-.82-.27-1.68-.58-2.57-.85l-2.74-.82-6.13-1.8-4.34-1.15-2-.51-1.76-.41-6-1.41c-3.48-.84-6.08-1.61-8.29-2.24a112,112,0,0,0-13.42-3.34c.35,2.45,3.57,3.7,5,4.7s1,1.64-5.62,3q6.06.38,11.74.94c1.89.16,3.79.45,5.66.74s3.71.58,5.52.9,3.6.63,5.36,1c.86.15,1.79.38,2.7.59l2.71.66q5.38,1.35,10.46,2.81c3.4,1.1,6.72,2.26,9.95,3.44l4.78,1.81c1.57.65,3.12,1.34,4.65,2q4.59,2,9,4.19c2.9,1.48,5.72,3.06,8.52,4.64,5.65,3.11,10.81,6.63,16,10.22l1.94,1.36,1.87,1.41,3.74,2.88,3.73,3c1.25,1,2.5,2,3.67,3,4.74,4.17,9.65,8.57,14.17,13.31l3.5,3.63,1.76,1.86,1.66,1.89q3.36,3.81,6.8,7.92c2.2,3.38,3.82,6.31,5.39,9.14.76,1.41,1.54,2.81,2.22,4.19s1.34,2.78,2,4.23c2.83,5.83,6,12.47,10.51,22.72l2.34,4.93c.77,1.66,1.55,3.33,2.21,5,1.38,3.31,2.74,6.66,4,10s2.37,6.72,3.5,10.14,2,6.8,3,10.26a242.34,242.34,0,0,1,7.46,42.21,238.58,238.58,0,0,1-9.71,91,223.67,223.67,0,0,1-21.64,48.55q-1.86,3-3.78,6.08l-2,3c-.66,1-1.39,2-2.09,3q-2.12,3-4.32,6l-2.21,3-1.9,2.44c-4.88,6.3-10.08,12.44-15.57,18.34a275.44,275.44,0,0,1-35.83,32.27,300,300,0,0,1-39.65,25.22,303.9,303.9,0,0,1-39.07,17.34,358.83,358.83,0,0,1-37.77,11.38c-12.26,3-24.14,5.27-35.58,7.06-2.84.43-5.72.89-8.5,1.26l-4.19.57-2.31.3-2.86.36q-11.49,1.38-22.8,2.33c-15.07,1.24-29.85,2-44.18,2.35s-28.16.11-41.41-.51-25.93-1.57-37.95-2.81c-6-.72-11.86-1.31-17.5-2.12s-11.16-1.55-16.52-2.31a45.7,45.7,0,0,1-9.59-3.64,10.25,10.25,0,0,1-3.46-3,15.34,15.34,0,0,0-2.38-2.87,24.51,24.51,0,0,0-6.09-3.51,160.52,160.52,0,0,1-30.63-10c-4.8-2.06-9.38-4.41-14-6.81s-9-5.09-13.29-7.95a289.58,289.58,0,0,1-25.87-18.78c-8.54-7-17.28-14.66-26.24-23.37l-2.37-2.27-2.31-2.31c-1.52-1.54-3.09-3-4.6-4.55-2.94-3.11-6-6.06-8.82-9.23-5.81-6.18-11.28-12.62-16.55-19.43a196.13,196.13,0,0,1-14.57-22.17c-2.33-4-4.35-8.2-6.42-12.56-1.06-2.17-2-4.44-2.88-6.74s-1.83-4.65-2.68-7.06A215.55,215.55,0,0,1,904.52,1476q-.12-3.36-.24-6.69c-.06-2.22-.21-4.42-.11-6.63l.15-6.59c0-1.1,0-2.19.09-3.29l.23-3.27c.16-2.18.31-4.36.47-6.54.06-1.09.18-2.18.31-3.26l.38-3.26c.26-2.18.52-4.35.77-6.53s.71-4.35,1.07-6.54.67-4.37,1.13-6.56.94-4.39,1.41-6.6c.86-4.42,2.11-8.86,3.25-13.35.29-1.13.59-2.26.88-3.39s.67-2.26,1-3.39c.68-2.28,1.37-4.56,2.07-6.87,1.44-4.61,3.12-9.27,4.76-14q1.36-3.56,2.75-7.19c1-2.41,1.86-4.86,2.93-7.31,2.1-4.92,4.18-10,6.63-15.07,1.2-2.56,2.41-5.15,3.68-7.77l4-7.93,2-4.05,2.24-4.07,4.54-8.31c7.45-8.52,16-20.29,25.82-32.85s20.58-26,31.17-38.19,20.91-23.14,29.18-30.86c.51-.48,1-.94,1.51-1.39l.37-.34.25-.2.49-.4c.64-.53,1.27-1,1.87-1.48a19.23,19.23,0,0,1,3-1.93c1.76-.89,3.2-1.2,4.26-.79a15.58,15.58,0,0,1-2.28,4c-.26.35-.49.64-.83,1s-.69.8-1.06,1.2l-1.14,1.22c-.47.47-.94.94-1.41,1.43-5,5.1-11,10.64-16.85,16.51s-11.87,12-17.07,18.08c-2.54,3.1-4.91,6.17-7,9.18a65.77,65.77,0,0,0-5.14,8.89c11.69-13.31,25.47-28.14,32.08-31.09a325.12,325.12,0,0,0-29.24,49,346.86,346.86,0,0,0-16.9,42.74c-4.58,14.09-8.66,28.48-12.59,44.86-1,4.1-2,8.3-2.89,12.69-.45,2.18-1,4.4-1.42,6.67s-.88,4.57-1.33,6.93c-1.66,9.42-3.49,19.56-4.53,30.72-.48,2.33-.77,4.66-1.09,7s-.68,4.59-.88,6.86c-.39,4.55-.86,9-.93,13.42a180.68,180.68,0,0,0,.86,25.48q.41,3.06.79,6.07c.14,1,.27,2,.41,3l.57,2.94q.57,2.92,1.14,5.81c.4,1.91.93,3.78,1.39,5.65s.9,3.73,1.47,5.54,1.14,3.6,1.71,5.37c1.06,3.57,2.53,7,3.82,10.31a166.41,166.41,0,0,0,19.87,35.23,155.88,155.88,0,0,0,24.51,25.85c20,22.08,46.29,39.81,77,52.21a288.35,288.35,0,0,0,49.27,14.79l3.26.68,3.31.61c2.2.4,4.4.84,6.63,1.2l6.72,1c2.24.37,4.53.61,6.79.92,4.53.64,9.16,1,13.77,1.52s9.31.77,14,1,9.46.41,14.21.57,9.57.14,14.39.08q14.46-.12,29.15-1.06c9.77-.61,19.59-1.47,29.41-2.64,5.38-.62,8.64-1.1,12.67-1.66s7.82-1.19,11.79-1.89a376.1,376.1,0,0,0,48.81-11.72c8.34-2.64,16.75-5.61,25.21-9.08s17-7.44,25.41-11.9a248.66,248.66,0,0,0,49-33.91c3.86-3.37,7.56-7,11.22-10.64l5.34-5.65c1.78-1.87,3.44-3.88,5.15-5.83l2.53-3,2.87-3.63,2.84-3.68c.94-1.24,1.89-2.47,2.73-3.73q2.58-3.75,5.08-7.56c1.62-2.54,3.09-5.11,4.59-7.68a196.56,196.56,0,0,0,22.57-63.12,207.42,207.42,0,0,0,1.42-63.07c-.29-2.6-.74-5.22-1.19-7.83s-.87-5.2-1.49-7.83-1.17-5.21-1.79-7.8-1.45-5.21-2.2-7.8-1.62-5.19-2.52-7.77-1.77-5.15-2.87-7.74-2.13-5.15-3.23-7.69-2.45-5.12-3.71-7.65-2.7-5.06-4.11-7.56-2.86-5-4.53-7.46-3.23-4.91-5-7.33-3.63-4.8-5.49-7.16a159.6,159.6,0,0,0-26.56-25.92,153.55,153.55,0,0,0-32.73-19c-2.88-1.23-5.8-2.25-8.71-3.3l-4.37-1.5c-1.46-.44-2.91-.84-4.37-1.24-2.91-.79-5.85-1.55-8.74-2.22s-5.59-1-8.38-1.51l-4.18-.67-4.12-.43c-2.74-.27-5.48-.5-8.2-.7s-5.3-.14-7.94-.17h-3.94c-1.3,0-2.53.09-3.8.15q-3.77.2-7.5.46c-2.45.2-4.76.52-7.13.8-4.81.54-9.1,1.4-13.49,2.23-2.24.21-4.2.54-6.28.83s-4.11.61-6.1,1l-5.73,1.12c-1.91.38-3.83.76-5.57,1.19-3.55.85-7.21,1.7-10.46,2.64l-5,1.4-4.71,1.46c-12.46,3.91-23.34,8.16-33,12.14l-13.74,5.66-6.85,2.91-3.47,1.51-3.56,1.46c-4.77,2-9.65,4-14.7,6.23s-10.36,4.24-15.82,6.55c-3.56.17-7.41.41-11.43.91s-8.25,1.19-12.64,2.07-9,1.73-13.76,2.84l-14.68,3.52c-10,2.62-20.67,5.29-31.52,8.26-5.46,1.37-11,2.81-16.53,4.28s-11.18,2.75-16.77,4.17c-22.44,5.45-45,10.15-65.37,13-10.17,1.22-19.73,2.34-28.4,2.54-4.34.15-8.44.21-12.27.1s-7.4-.48-10.65-.93c-11.3,7.36-36.4,10-61.52,9-3.14-.13-6.28-.28-9.39-.5s-6.2-.57-9.23-.9-6-.69-8.91-1.07-5.72-.89-8.43-1.36c-5.43-1-10.44-2-14.82-3.05s-8.14-2.27-11.09-3.35a14,14,0,0,1-4.89,2.43,26.93,26.93,0,0,1-3.23.76c-1.15.18-2.38.31-3.67.41a100.82,100.82,0,0,1-18-.68c-6.57-.89-13.52-2.13-20.19-3.61s-13-3.28-18.55-4.83c.24-1.86,19.67-1.23.61-3.82-8.78-1.89-9.19.2-13.92.24-1.92-1.05-4-2.07-6.08-3.09s-4.15-2.16-6.08-3.24c-3.85-2.17-7.1-4.38-8.52-6.75-4.08-1-7.3-1.74-10.13-2.19s-5.26-.72-7.69-1-4.87-.45-7.69-1a96.58,96.58,0,0,1-10.06-2.52,76.29,76.29,0,0,1,7.59-2.09,27.63,27.63,0,0,1,4.87-.43,49.21,49.21,0,0,1,6.55.38,131.85,131.85,0,0,1,14.41,2.81,68.63,68.63,0,0,1,9.37,2.92c5.2,2,8.95,4.26,15.24,6,0-3.27-7.78-5.41,5.29-4.33,1.16,2.23,3.54,3.53,6.63,4.37a60.77,60.77,0,0,0,10.86,1.36,103.46,103.46,0,0,1,11.92,1.29,21.83,21.83,0,0,1,10,3.94,108.38,108.38,0,0,0-11.09-.65,20.62,20.62,0,0,0-7.21.84l6.79.56,7,.4c4.73.25,9.52.57,14.25.76,9.48.24,18.63.62,26.39.45-4.81-.32-11.41-1.48-4.39-1.64-39.3-7.13-76.76-15.32-113-24.9l-6.8-1.76-6.74-1.89c-4.49-1.27-9-2.44-13.45-3.73-8.88-2.68-17.79-5.14-26.55-8l-6.59-2-3.3-1-3.26-1.1-13.07-4.31c-2.18-.69-4.33-1.48-6.49-2.24l-6.47-2.27-6.48-2.25c-2.14-.73-4.4-1.6-6.59-2.39l-28-10.37L575.4,1262l-11.95-4.35c-4-1.48-8-2.79-12-4.18s-8-2.79-12-4l-12.06-3.82-12.1-3.44c-2-.55-4-1.16-6.06-1.68l-6-1.49-6.06-1.49c-2-.49-4-1-6.06-1.4l-12.11-2.46c-1-.2-2-.43-3-.6l-3-.48-6-1-6-1c-2-.33-4-.48-6-.73l-12-1.35c-7.95-.49-16-1.28-23.81-1.23-7.91-.22-15.68.19-23.47.54-3.87.28-7.71.66-11.56,1-1.92.19-3.85.35-5.76.6l-5.73.76c-7.61,1.14-15.18,2.48-22.66,4.25a261.74,261.74,0,0,0-84.33,35.61c-6.72,2.4-15.65,7.27-24.94,14a199.9,199.9,0,0,0-27.44,24.35,202.12,202.12,0,0,0-25.92,43.08,163,163,0,0,0-11.79,39.57,108.93,108.93,0,0,0-.88,31.63c1.13,9,3.72,16.18,7.14,21.58a197,197,0,0,1,7.36-59,185.83,185.83,0,0,1,10.61-28.31,183.15,183.15,0,0,1,16-27.35c1.58-2.22,3.25-4.41,4.92-6.63s3.49-4.37,5.34-6.51,3.71-4.32,5.72-6.4l3-3.17,3.14-3.1c2.09-2.1,4.32-4.09,6.55-6.14,1.1-1,2.29-2,3.44-3s2.33-2,3.54-3c2.44-1.91,4.87-3.93,7.46-5.78l3.88-2.85,4-2.77c21.7-14.64,48.54-27.32,81.72-34.88,14.53-1.61,27.77-1.33,38.29.37a81.34,81.34,0,0,1,13.65,3.39,26.92,26.92,0,0,1,8.8,5l-4.89.24c-1.63.07-3.24.26-4.86.38l-9.74.85c-6.46.71-12.93,1.53-19.37,2.67a286.66,286.66,0,0,0-38.17,9.23c-25,7.94-49,19.59-70,35.34-5.19,4-10.27,8.16-15.07,12.62a176,176,0,0,0-13.61,14.12l-1.61,1.84-1.54,1.91c-1,1.27-2.05,2.53-3,3.83-1.94,2.62-3.91,5.21-5.69,7.93a153.83,153.83,0,0,0-9.88,16.7l-2.15,4.32c-.68,1.45-1.31,2.93-2,4.39-1.34,2.92-2.39,5.93-3.55,8.9-.59,1.48-1,3-1.54,4.5s-1,3-1.46,4.52-.81,3.06-1.22,4.58l-.6,2.28-.53,2.3-1,4.57c-.34,1.53-.55,3.07-.83,4.6s-.56,3.06-.73,4.6l-.54,4.61c-.08.77-.18,1.53-.25,2.3l-.17,2.3c-.1,1.53-.21,3.06-.31,4.59s-.08,3-.12,4.58-.1,3,0,4.56a91.88,91.88,0,0,0,.59,9.21c.32,2.72.62,5.18,1.09,7.6.83,4.85,1.73,9.55,2.68,16a276.83,276.83,0,0,0,13.25,52.15c2.72,7.66,5.63,14.88,8.58,21.8s6,13.53,9.25,19.92c6.37,12.78,13,24.76,20.38,36.66s15.31,23.73,24.37,36.2c4.37,6,8.94,12,13.56,18.06,2.34,3,4.69,6,7.05,9s4.7,5.85,7.1,8.75l6,7.12c1.85,2.22,3.77,4.43,5.7,6.65,3.83,4.42,7.84,8.83,11.9,13.23a465.91,465.91,0,0,0,55.39,51,356.82,356.82,0,0,0,33.67,23.09l4.5,2.7,4.67,2.61,5,2.76c1.71.91,3.47,1.78,5.21,2.66,6.94,3.56,14.06,6.76,21.24,9.72A248.54,248.54,0,0,0,500,1804.81a235.91,235.91,0,0,0,45.41,4.8l5,.09c1.67.06,3.34,0,5,0,3.33,0,6.69,0,10.05,0l10.11-.44,2.54-.13,2.54-.25c1.69-.17,3.39-.36,5.09-.57,13.56-1.7,27.33-5.47,40-13.23-3.91,1.36-7.92,2.5-11.92,3.65l-3,.86c-1,.28-2,.51-3,.77l-6.11,1.48c-2,.52-4.09.89-6.15,1.3l-6.18,1.18c-2.06.37-4.14.65-6.21,1s-4.14.65-6.22.87a234.06,234.06,0,0,1-49.28.82,260.2,260.2,0,0,1-45.13-8.1l-5.18-1.39-5-1.55c-3.31-1.05-6.58-2-9.7-3.14l-9.17-3.25-8.59-3.36-2.86-1.51L439.1,1783l-5.9-3.38c-1-.58-2-1.15-3-1.75l-3-1.84-5.72-3.59c-1.9-1.2-3.7-2.47-5.6-3.73s-3.8-2.55-5.68-3.87l-5.62-4-2.85-2.06-2.79-2.12a457.68,457.68,0,0,1-43.37-37.49c-6.9-6.66-13.43-13.48-19.85-20.28-3.12-3.42-6.32-6.81-9.32-10.21l-4.53-5.09-4.4-5.06c-2.94-3.35-5.7-6.7-8.5-10-1.73-2.06-3.44-4.12-5.14-6.16s-3.44-4.16-5.15-6.32c-3.4-4.26-6.8-8.4-10-12.55l-4.78-6.12-4.59-6c-21.79-32.59-39.69-63.08-52.64-93.51-3.27-7.59-6.18-15.19-8.79-22.81s-4.87-15.25-6.79-23c-1-3.84-1.8-7.71-2.64-11.58s-1.47-7.77-2-11.69a192.8,192.8,0,0,1-2.09-23.73,184.19,184.19,0,0,1,1-24.21A162.16,162.16,0,0,1,210,1396.4,152.41,152.41,0,0,1,231.64,1349a166.58,166.58,0,0,1,38.86-40,201.06,201.06,0,0,1,53.89-28c6.06,1.43,13.55.17,23.14-1.73s21.27-4.51,35.37-5.6c.3,1.89,1.91,3.36,4.59,4.49a49.14,49.14,0,0,0,11.11,2.65c9.34,1.59,22.27,2.28,37.66,4.35q1.55,0,2.61-.15a12.14,12.14,0,0,0,1.7-.18c.85-.16,1.18-.41,1.15-.72-.05-.61-1.53-1.44-3-2.24s-3-1.47-3.09-2,1.27-.92,5.55-.63L448,1281l3.33.88,3.24,1c4.25,1.38,8.2,2.7,11.66,4.19,6.91,3.09,11.8,6.13,13.22,9.29-4-.92-8.18-1.74-12.28-2.62s-8.16-1.45-12-2.2c-.95-.17-1.89-.37-2.8-.53l-2.7-.44c-1.75-.3-3.42-.6-5-.92s-3-.63-4.33-1-2.51-.59-3.54-.92a14.9,14.9,0,0,0,3.86,2.41,55.75,55.75,0,0,0,5.83,2.36c2.18.77,4.57,1.5,7,2.26l7.45,2.52a83.44,83.44,0,0,1,13.13,5.39c3.48,1.86,5.69,3.74,5.71,5.65-28.36-6-55.76-8.15-81.7-5.37A186.81,186.81,0,0,0,379,1306c-6.3,1.35-12.5,2.93-18.57,4.86s-12,4.11-17.84,6.55-11.47,5.25-17,8.26a166.46,166.46,0,0,0-16,10,150.3,150.3,0,0,0-28,25.2,129.88,129.88,0,0,0-11.27,15.32,121.35,121.35,0,0,0-8.92,16.93c-.68,1.45-1.19,3-1.8,4.46-.28.75-.6,1.49-.86,2.25l-.77,2.28c-.48,1.53-1.08,3-1.49,4.58s-.87,3.1-1.31,4.65a148.9,148.9,0,0,0-3.5,19,161,161,0,0,0-.79,19.41c-.31,1.62-.65,3.13-1,4.57s-.65,2.79-1,4.11c-.18.67-.37,1.32-.55,2l-.48,1.92c-.33,1.28-.65,2.55-1,3.85a57.5,57.5,0,0,0-1.32,19.08c4.48,6,4.51-.69,4.72-9.11,0-1.05,0-2.13.07-3.22l.18-3.29c.09-2.18.34-4.32.61-6.23a24,24,0,0,1,1.13-4.94,5.17,5.17,0,0,1,1.65-2.66,237,237,0,0,0,7.31,25.85,228.7,228.7,0,0,0,11.4,27c8.78,17.6,19.77,33.61,29.63,44.18.7,2.77-.17,4.07.06,6.38s1.48,5.7,6.65,12.5c6.87,10.41,14,20.19,21.19,29.5s14.37,18.12,21.55,26.34c1.83,2.12,3.49,3.94,5.21,5.85s3.4,3.76,5.13,5.58c3.41,3.69,6.88,7.23,10.32,10.71,6.95,6.93,13.94,13.48,21.05,19.67s14.37,12,21.78,17.49,15,10.64,22.79,15.4a274.24,274.24,0,0,0,24.23,13.22,237.83,237.83,0,0,0,26.19,10.63,179.88,179.88,0,0,0,41.81,8.52,155.75,155.75,0,0,0,41.78-2.62l2.57-.5,2.53-.63,5.07-1.25,5-1.5,2.5-.75,2.46-.86,4.92-1.74,4.85-1.94,2.42-1,2.38-1.07,4.77-2.15,4.68-2.33,2.34-1.17,2.31-1.25,4.6-2.5,4.52-2.64,2.24-1.32,2.2-1.38,4.4-2.76c2.86-1.94,5.81-3.79,8.62-5.81a413.63,413.63,0,0,0,32.93-25.67l8-6.87c2.65-2.32,5.24-4.72,7.88-7.09,5.3-4.72,10.42-9.7,15.61-14.7,2.62-2.47,5.12-5.08,7.67-7.66s5.12-5.18,7.64-7.83l7.5-8.1,3.75-4.1,3.68-4.2,7.37-8.5q3.57-4.38,7.2-8.8l3.61-4.44,3.51-4.56,7.05-9.24c5.72-5.69,4.2,4.88,13.42-8.66a592,592,0,0,0,35.62-49.22c11.65-17.79,22.75-36.47,33-54.44s19.62-35.43,28-50.72,15.93-28.48,23.41-37.67c.93-4.13,1.85-7.85,2.74-11.26s1.57-6.57,2.36-9.44,1.48-5.54,2.19-8,1.41-4.82,2.12-7.06c1.31-4.56,2.52-8.75,3.79-13.18.55-2.25,1.06-4.58,1.56-7q.38-1.86.72-3.84c.24-1.32.48-2.69.61-4.14-.16-2.63-.32-5.24-.48-7.88-.07-1.31-.15-2.63-.23-4s-.27-2.69-.41-4.06c-.27-2.74-.52-5.56-.75-8.5s-.71-6-1-9.3a25.41,25.41,0,0,0,1.05-5.86,77.06,77.06,0,0,0-.09-7.81c-.18-5.79-1.48-12.53-2.85-19.76-.84-3.58-1.81-7.27-2.77-11-.25-.94-.49-1.87-.74-2.82l-.87-2.78-1.77-5.6c-.6-1.86-1.14-3.73-1.77-5.57l-2-5.42c-1.29-3.59-2.43-7.16-3.77-10.48-.7-1.87-1.39-3.72-2-5.56s-1.25-3.69-2-5.44q-2.07-5.33-4-10.57c-2.77-6.85-5.3-13.7-8.31-20.31-5.84-13.33-12.53-26.57-22.15-39.78a247.63,247.63,0,0,0-23.56-28.07q-2.75-2.79-5.34-5.35c-1.74-1.69-3.49-3.23-5.16-4.75s-3.31-3-4.91-4.33-3.2-2.63-4.74-3.88c-12.35-9.92-22.72-16-33.35-22.65-13.14-8.11-29.18-18.17-44.68-26.19s-30.34-14.12-40.58-15.33l9.88,9.45c3.2,3.18,6.21,6.33,8.75,9.31,15.42,6.79,32.49,13.75,50.27,23.22s36.22,21.54,53.43,38.4c10.77,10.68,17.82,21.14,24.59,31.78l2.59,4c.87,1.31,1.69,2.7,2.56,4,1.73,2.7,3.54,5.39,5.46,8.12s3.83,5.62,6,8.49l1.67,2.15,1.66,2.25c1.14,1.51,2.33,3,3.59,4.57l-3.23,2.12a217.51,217.51,0,0,1,27.11,51.82A202.15,202.15,0,0,1,906.66,1259a206,206,0,0,1-1.76,47.8A253.18,253.18,0,0,1,894.15,1350a354.27,354.27,0,0,1-16.59,40c-6.26,13-13.14,26-20.56,39.13s-15.38,26.61-23.91,40.73-17.47,28.95-27.29,44.7a485.74,485.74,0,0,1-39.74,39.14,362.72,362.72,0,0,1-39.35,29.93c17.33-18.4,26.53-32.71,35.22-46.85s16.81-28.35,30.15-48.54c6.07-14.23,12.58-28.82,19.08-43.93s12.85-30.41,18.6-46.09a436,436,0,0,0,14.73-47.78l.39-1.52.32-1.51.64-3c.43-2,.87-4,1.3-6.07s.71-4,1.06-6.07.76-4,1-6.07c.52-4,1.18-8.11,1.45-12.15q.29-3,.56-6.06l.27-6,.15-3c.06-1,0-2,0-3l0-6v-1.51l-.09-1.49-.17-3c-.13-2-.18-4-.35-6l-.68-6c-.23-2-.38-4-.78-6-.72-4-1.2-8-2.21-11.86l-1.32-5.89c-.51-2-1.11-3.88-1.65-5.82l-.83-2.92-.41-1.45-.5-1.44-2-5.74c-.34-.95-.64-1.92-1-2.87l-1.16-2.82-2.29-5.65c-.79-1.88-1.73-3.7-2.58-5.56l-1.3-2.77c-.43-.93-.85-1.86-1.36-2.75-15-29.19-37.19-55.27-62.46-76.25a318.55,318.55,0,0,0-26.73-24.8l-7-5.7c-2.37-1.86-4.8-3.66-7.19-5.48l-3.61-2.7-3.67-2.61c-2.46-1.73-4.88-3.48-7.37-5.15-9.91-6.74-20.06-13-30.35-19s-20.81-11.58-31.48-16.93-21.43-10.51-32.41-15.46c-2.73-1.25-5.47-2.48-8.24-3.7l-8.33-3.67-17.22-7.54c-11.54-5.08-23.24-10.26-35.08-15.71s-23.83-11.13-36-17.24c-5.23-6.77-19.41-15.76-36-26-8.31-5.08-17.21-10.54-25.92-16.09-4.34-2.81-8.63-5.64-12.77-8.43s-8.1-5.66-11.82-8.45c-4.71-2.7-5.93-1.56-7.94-1.28a7,7,0,0,1-4.13-.8c-1.93-.87-4.56-2.65-8.44-5.8-16.34-12-27.69-23.15-36.15-33.26q-3.14-3.84-5.82-7.43c-1.79-2.41-3.38-4.85-4.9-7.17s-2.94-4.56-4.22-6.85-2.49-4.52-3.65-6.71c-2.36-4.34-4.35-8.78-6.44-13.12s-4.06-8.86-6.34-13.42c-.56-1.16-1.17-2.29-1.73-3.49l-1.75-3.63c-1.22-2.45-2.52-5-3.93-7.52s-2.76-5.36-4.33-8.18c-.78-1.42-1.64-2.82-2.44-4.32s-1.64-3-2.51-4.59c-.63-1.13-1.37-2.32-2.19-3.59s-1.74-2.58-2.62-4c-1.83-2.84-3.89-5.89-6-9s-4.08-6.55-6.06-9.84c-1-1.62-1.87-3.32-2.72-5s-1.65-3.27-2.39-4.84l-1.65-3.58c-.55-1.26-1.05-2.62-1.6-4-1.08-2.79-2.22-5.78-3.38-8.89-2.15-6.4-4.28-13.35-5.91-20.28-3.4-13.84-5.1-27.4-6.35-35.31-.64-3.58-1.06-7.17-1.59-10.74s-.9-7.15-1.21-10.73-.62-7.14-.9-10.72l-.3-5.37c-.11-1.79-.17-3.58-.21-5.37a286.08,286.08,0,0,1,1.77-43.2c.85-7.24,2.06-14.49,3.52-21.77s3.38-14.53,5.58-21.81,4.86-14.51,7.87-21.73a229.43,229.43,0,0,1,10.43-21.43,302.5,302.5,0,0,1,41.76-57.86,284.91,284.91,0,0,1,26.83-25.65A270.66,270.66,0,0,1,405.78,413a250,250,0,0,1,70.71-30.63,235.16,235.16,0,0,1,38.37-6.57c6.48-.56,13-.86,19.64-.84a182.37,182.37,0,0,1,20,1.23l4.1.86,4.15,1,2.1.5,2.11.58c1.41.4,2.83.77,4.26,1.19a169.74,169.74,0,0,1,17.34,6.25,135.71,135.71,0,0,1,17.27,9c.71.43,1.43.83,2.13,1.29L610,398.3l4.15,2.89a23.05,23.05,0,0,1,2,1.54l2,1.6c1.33,1.08,2.7,2.13,4,3.26a125.94,125.94,0,0,1,26.46,32.81l2.49,4.74c.4.8.84,1.59,1.22,2.4l1.1,2.44,2.19,4.9,1.91,5,1,2.51c.31.85.55,1.7.83,2.55l1.62,5.11c.52,1.71.92,3.44,1.39,5.17s.94,3.46,1.26,5.21c.72,3.48,1.49,7,2,10.5.26,1.75.58,3.52.79,5.28s.38,3.53.58,5.29l.27,2.66.18,2.65.34,5.31c.07,1.77.09,3.53.13,5.3s.1,3.55,0,5.31a224.18,224.18,0,0,1-4.39,41.82,229.36,229.36,0,0,1-11.85,39.56c-1.24,3.16-2.67,6.25-4,9.34s-2.9,6.09-4.47,9.06-3.13,5.9-4.88,8.74q-1.29,2.13-2.56,4.26c-.86,1.37-1.73,2.68-2.6,4-7.71,18.34-19.37,37.86-32.45,57.46s-27.46,39.5-40.12,59.69c-6.32,10.09-12.19,20.27-17.25,30.46A205.28,205.28,0,0,0,531,817.54a138.26,138.26,0,0,0-5.84,29c-.06.58-.13,1.16-.16,1.72s0,1.13,0,1.69c0,1.11-.05,2.22-.07,3.31s0,2.18,0,3.25a28.26,28.26,0,0,0,.08,3.19c.18,2.11.38,4.18.6,6.18.12,1,.24,2,.35,3s.4,1.95.61,2.9c0,5.58-1.26,6.4-2.42,7.58S522,882,522.81,889c.59,2.32,1.25,4.65,1.81,7,.27,1.17.55,2.33.83,3.5s.69,2.32,1,3.48c.7,2.32,1.28,4.64,2,6.95s1.54,4.6,2.27,6.88,1.61,4.54,2.45,6.79l1.26,3.35.62,1.67.72,1.64c1,2.17,1.91,4.33,2.86,6.46.24.54.45,1.08.71,1.6l.81,1.55,1.6,3.08a125.18,125.18,0,0,0,6.75,11.61l.86,1.37c.3.44.63.88.94,1.31l1.9,2.56c1.27,1.68,2.49,3.32,3.78,4.87s2.69,3,4,4.33c.66.69,1.33,1.36,2,2l1,1,1.06.89a59,59,0,0,0,8.39,6c6.28,7.55,10.07,12.72,12.62,17.16a196.47,196.47,0,0,0,74,40.17,170.24,170.24,0,0,0,40.11,6.47,20.7,20.7,0,0,0,2.49.05h2.49l4.94,0,4.92-.32,2.44-.13a22.09,22.09,0,0,0,2.44-.2l4.84-.6,2.41-.27c.79-.08,1.66-.27,2.49-.39,1.68-.3,3.36-.51,5-.85l5-1a196.58,196.58,0,0,0,39.63-13.25,210.33,210.33,0,0,0,19.14-9.89q9.39-5.52,18.38-12a216.55,216.55,0,0,0,33.44-30,202.15,202.15,0,0,0,26.9-37.16,171.18,171.18,0,0,0,20-24.36,167.36,167.36,0,0,0,15.77-29.33,174.16,174.16,0,0,0,10.42-34.25,180.57,180.57,0,0,0,3.44-38.88,219.1,219.1,0,0,0,1.15-35.56,165.09,165.09,0,0,0-6.51-38.44,157.74,157.74,0,0,0-19.61-42.26c-2.33-3.7-5-7.23-7.77-10.94-1.4-1.83-2.9-3.61-4.41-5.44-.76-.92-1.52-1.84-2.3-2.76s-1.62-1.79-2.43-2.7a192.73,192.73,0,0,0-22.68-21.39,220.74,220.74,0,0,0-30.93-14.52,237.88,237.88,0,0,0-30-9,259,259,0,0,0-54.58-6.26,323.79,323.79,0,0,0-46.32,3.07c-14.08,1.92-26.85,4.44-38.52,6.94-16-.59-27.37,1.44-35.68,4s-13.6,5.75-17.87,8.06C569.85,644.75,535,648,498.84,650c-9.11.45-18.15,1-27.49,1.21-4.66.13-9.29.33-14,.38l-14.35.15c-2.4,0-4.85,0-7.3,0l-7.4-.1-7.46-.12c-2.51-.07-5.06-.2-7.61-.3-5.11-.24-10.25-.39-15.51-.74l-16-1.22a400.64,400.64,0,0,1-62.62-10.72c-1.25-.29-2.49-.64-3.73-1l-3.7-1.08-7.34-2.18L297.05,632c-2.64-.86-5.33-1.8-8-2.76a206.48,206.48,0,0,1-31.33-14.51,160.6,160.6,0,0,1-30.32-22.21,128.77,128.77,0,0,1-14-15.49,113.41,113.41,0,0,1-11.9-19.16,102.79,102.79,0,0,1-7.85-22.23,99.69,99.69,0,0,1,.39-45.73,101.82,101.82,0,0,1,7.2-20A113.25,113.25,0,0,1,211,453.46,131.86,131.86,0,0,1,222.08,440a172.74,172.74,0,0,1,23.45-20.64,262,262,0,0,1,24-15.71c4.15-2.44,7.78-4.34,11.59-6.47l5.69-3.14,5.75-3.1c30.76-16.6,63.2-33.2,99.36-51,3.45-.87,6.13-1.14,9.18-1.69A54,54,0,0,0,412.54,335c1.42-2.85,6-5.37,12.11-7.91,3.05-1.27,6.51-2.42,10.13-3.62l5.55-1.79L446,320c7.59-2.38,15.18-4.62,21.11-7.31s10.32-5.57,11.5-9.27c-14.25.2-36.2,4-60,11.25-5.94,1.83-12,3.79-18.12,6s-12.21,4.62-18.29,7.11a364,364,0,0,0-34.91,16.87,38.74,38.74,0,0,0-7.14,1.2,68.52,68.52,0,0,0-7.61,2.59,138.94,138.94,0,0,0-16.45,8.15c-11.38,6.51-23.53,14.44-35.9,21.36-3.92,2.11-7.75,4.24-11.62,6.22l-5.86,3-6.36,3.38c-8.48,4.62-17,9.46-25.42,15.17-4.22,2.86-8.43,5.9-12.6,9.24A156.35,156.35,0,0,0,206,426a126.71,126.71,0,0,0-11.73,13.51,111.57,111.57,0,0,0-10.43,16.58,84.21,84.21,0,0,0-7.59,23.39c-.73,3.83-1.1,7.54-1.43,10.58s-.44,5.64-.65,7.35c-.33,3.14-.67,6.24-.78,9.35-.07,1.56-.14,3.11-.17,4.66l0,4.63c0,3.09.28,6.09.5,9.13s.66,6.06,1.17,9.09a123.15,123.15,0,0,0,11.47,35.24c1.38,2.81,2.89,5.45,4.47,8.15.79,1.32,1.61,2.6,2.45,3.9l1.27,1.95c.43.62.87,1.24,1.3,1.87a129.73,129.73,0,0,0,11.51,14.16,134.87,134.87,0,0,0,13.19,12.36,141.1,141.1,0,0,0,14.66,10.56,205.38,205.38,0,0,0,30.88,15.86,238.65,238.65,0,0,0,25.55,8.88l.74.22.64.17,1.28.33,2.52.65,4.94,1.25,9.53,2.35c3.11.81,6.14,1.3,9.14,1.91l8.92,1.68c5.91,1.18,11.7,1.89,17.63,2.71l9,1.2c3,.34,6.11.61,9.26.92,6.3.6,12.93,1.3,19.92,1.67l10.91.7c1.89.14,3.79.22,5.72.29l5.93.24c32.67,1.36,64.36.84,93.75-.5s56.69-3.33,81-5.44l17.7-1.64c5.68-.54,11.29-1.18,16.49-1.75,10.49-1.17,20.26-2.42,29.19-3.78,17.85-2.75,32.38-6.09,42.7-11.2,5.23.78,10,1.35,14.49,1.59s8.62.31,12.55.23q2.94-.09,5.76-.32c1.87-.13,3.7-.29,5.5-.5,3.62-.43,7.08-.88,10.55-1.42,6.91-1,13.7-2.16,21.05-2.69a111.06,111.06,0,0,1,11.47-.16,89.91,89.91,0,0,1,12.65,1.49c11.68,4,19.76,7,26.09,9.43l4.48,1.66,3.94,1.54c2.51,1,4.84,1.82,7.07,2.81s4.52,1.92,6.92,3.09,5,2.53,7.88,4.2A175.83,175.83,0,0,1,861.46,676a183,183,0,0,1,18.19,31.31,169.05,169.05,0,0,1,10.53,31.16A200.55,200.55,0,0,1,894.52,799a242.82,242.82,0,0,1-11.64,57.93c-1.51,4.72-3.31,9.39-5.09,14-2,4.61-3.85,9.21-6.1,13.69a189.39,189.39,0,0,1-15.07,25.9c-.74,2.16-1.37,4.35-2.23,6.43s-1.71,4.16-2.61,6.19c-.42,1-1,2-1.48,3s-1,2-1.55,2.88c-1.13,1.85-2.16,3.7-3.41,5.37-4.76,6.82-10.34,12-15.92,14.49a238.23,238.23,0,0,0,14-31.2,164.23,164.23,0,0,0,5.09-17.18,158.37,158.37,0,0,0,3.34-19.2,162.59,162.59,0,0,0,1-21.08,156.24,156.24,0,0,0-2.08-22.24,152.65,152.65,0,0,0-5.37-22.3,146.27,146.27,0,0,0-8.77-21.09,121.09,121.09,0,0,0-11.79-18.65c-.56-.7-1.07-1.45-1.64-2.13l-1.71-2-.84-1-.89-1-1.75-2-.44-.5-.51-.5-1-1-2-2-4.17-3.94A152.62,152.62,0,0,0,769.25,734a214.34,214.34,0,0,0-49.68-14.7,253.93,253.93,0,0,0-25.72-3,239.83,239.83,0,0,0-24.92-.4c6.55,4,14.13,5.8,22.09,7.11,2,.35,4,.6,6,.91l6.05.89c4,.65,8,1.3,11.78,2.28,20.95,5.2,40.22,12.41,56.62,21.25a166.05,166.05,0,0,1,22.32,14.53l2.45,2,1.24,1,1.17,1L801,769c.78.69,1.49,1.43,2.25,2.13,1.56,1.38,2.93,2.9,4.39,4.34.79.74,1.31,1.42,2,2.11s1.29,1.32,1.86,2.08c9.82,11.28,18.14,26.16,23.49,43A139,139,0,0,1,841,876c-.45,5.27-1.05,10.41-1.83,15.42a144.51,144.51,0,0,1-3,14.63,119.42,119.42,0,0,1-11.61,29.12,113.89,113.89,0,0,1-22.15,27.7A102.63,102.63,0,0,1,769.87,983a106.79,106.79,0,0,1-40.26,6.55c-1.58-.06-3.17-.16-4.73-.2-1.37-.2-2.75-.35-4.13-.45l-1-.06c-.35,0-.71-.13-1.07-.19-.71-.12-1.42-.23-2.14-.33s-1.44-.18-2.16-.25l-2.23-.47a154.52,154.52,0,0,1-19.75-4.77c-.2-1.07-2-2.14-3.16-3.11s-1.84-2,.22-3.46c-8.38-2.53-15.95-7.64-22.25-13.82a103.19,103.19,0,0,1-15.71-20.6c-4.31-7.17-7.85-14.24-11.54-20.6a78.64,78.64,0,0,0-12.87-17.3C630.07,904,631.82,908.68,632.68,903.84Zm566.38-587.68c-5.94,0-4.94-2.29-.15-2.57-.43-.73-2.62-.91-5.38-.81s-6.11.46-8.91.58c.51-1.37,4.9-2,9.31-2.7s8.89-1.13,9.49-2.5a97.53,97.53,0,0,0-13.45-2c-2.48-.22-5.06-.4-7.71-.56s-5.35-.16-8.11-.21a57.05,57.05,0,0,1,9.52-2.12,54.73,54.73,0,0,1,8.5-.37,28.7,28.7,0,0,1,12.12,2.93c2.7,1.51,3.91,3.49,3.17,5.32S1204.06,314.79,1199.06,316.16ZM967.85,464.44c-1.87,2.76-6.42.56-11.29-6.26a46.45,46.45,0,0,1-3.52-5.93c-.57-1.12-1-2.32-1.58-3.56l-.76-1.91c-.23-.65-.45-1.32-.66-2-.42-1.36-.9-2.76-1.23-4.2s-.65-2.93-1-4.44-.45-3.06-.65-4.63-.25-3.14-.36-4.74a82.81,82.81,0,0,1,1.42-19,91.6,91.6,0,0,1,4.88-16.86c.94-2.56,2-4.86,3-7.08s2.06-4.19,3.1-5.95a82.43,82.43,0,0,1,5.25-8.24,87.29,87.29,0,0,1,10.25-11.38,67.12,67.12,0,0,1,11.06-8.44c3.29-1.93,5.88-2.81,7-2.23s.72,2.61-1.66,6.7c-2.63,4.56-7.37,10.53-12.68,18A139.35,139.35,0,0,0,963,399.65a88.31,88.31,0,0,0-5.1,17,68.51,68.51,0,0,0-1.08,18.06C957.64,446.7,962.17,457.59,967.85,464.44Zm133.88,49.67c-.93-3.27,1.8-4.66,6.17-5.32,6.36,2.81,15,5.36,24.78,7.71s20.54,4.51,31.11,6.75,20.92,4.55,29.73,7.21,16.06,5.65,20.47,9c-11.72-2.51-21.33-4.57-30-6.53s-16.27-3.79-24.09-5.66-15.83-3.75-25.16-5.84S1114.79,517.09,1101.73,514.11Zm152.38,48.82c-1.22-2.17,1.24-2.15,4.14-1.89s6.16.84,6.59-.38a34.93,34.93,0,0,0,5.24,3.34c2,1.19,4.28,2.31,6.37,3.55,1,.6,2.07,1.21,3,1.8s1.82,1.23,2.59,1.82a8.63,8.63,0,0,1,3,3.46,118.43,118.43,0,0,1-15.77-6.3A67.25,67.25,0,0,0,1254.11,562.93Zm23.21-25.38a261.36,261.36,0,0,1,41.35,20.58,203.26,203.26,0,0,1,19.76,13.93,183.17,183.17,0,0,1,18.14,16.59,181.29,181.29,0,0,1,15.89,19.09,199.13,199.13,0,0,1,13.17,21.32,224.24,224.24,0,0,1,10.4,23c3,7.86,5.67,15.82,7.91,23.92,4,13.94,7.12,27.88,9.8,41.71.66,3.45,1.24,6.9,1.85,10.34.28,1.72.55,3.44.82,5.15l.41,2.57.34,2.56c.44,3.42.89,6.81,1.32,10.19l.66,5.06.32,2.53.21,2.52c2.66,26.82,2.43,52.82-2.83,75.65-.07-3.26-.1-6.63-.09-10.08,0-1.73,0-3.47,0-5.25,0-.88,0-1.77,0-2.66s0-1.8,0-2.71q-.1-5.44-.14-11.09c0-1.88,0-3.77,0-5.68s-.14-3.83-.2-5.76q-.2-5.79-.4-11.71l-.09-2.95c0-1-.14-2-.2-3l-.42-6c-.29-4-.53-7.95-.86-11.92s-.9-7.92-1.34-11.87a263.22,263.22,0,0,0-8.64-44.81c-4-13.67-9.11-25.59-14.77-34.46a196.53,196.53,0,0,0-13.53-35.45l-1.09-2.19-1.2-2.14-2.41-4.29c-.79-1.44-1.74-2.77-2.61-4.17s-1.75-2.78-2.68-4.13A143.21,143.21,0,0,0,1354,596.64a134.11,134.11,0,0,0-28.51-23.83,126.42,126.42,0,0,0-14.83-7.86,105.46,105.46,0,0,0-14.14-5.11c-.7-3.5-6.52-7.72-11.74-11.58S1275,540.75,1277.32,537.55Zm20.49,42.71,1.69-3.49a160.35,160.35,0,0,1,15.19,7.22,102.89,102.89,0,0,1,15,9.84c1.13.86,2.14,1.8,3.15,2.67l1.46,1.32c.46.45.9.9,1.34,1.34.85.88,1.66,1.73,2.38,2.56s1.34,1.68,1.89,2.46a13.88,13.88,0,0,1,2.2,4.23,3.47,3.47,0,0,1-.21,3c-8.85-6.88-15.06-11.19-21.28-15.76A251.84,251.84,0,0,0,1297.81,580.26Zm44.25,37c3.15,1.73,5.32,1.64,6.83-.08l1.22,1.33,1,1.29c.66.84,1.23,1.62,1.73,2.34a18.64,18.64,0,0,1,2,3.75c.75,2,.47,3-.51,3.08s-2.65-.93-4.68-2.94a38.54,38.54,0,0,1-3.48-3.67c-.63-.74-1.32-1.5-2-2.36Zm-16.69,20.1a8.92,8.92,0,0,0,1.5,4.87,35.61,35.61,0,0,0,3.84,5.26c.7.93,1.43,1.87,2.18,2.8a35.19,35.19,0,0,1,2.16,2.82,26.75,26.75,0,0,1,3.22,5.51c.33.84.65,1.67.94,2.49.14.4.28.81.42,1.2s.21.8.31,1.2c.37,1.53.77,3.15,1.08,4.73a86.56,86.56,0,0,1,1,9.29c.26,3,.28,6,.58,9,.11,1.51.22,3.06.42,4.61.1.77.23,1.54.35,2.34s.23,1.63.38,2.45c2.19,12.16,5,20.84,7.67,30.93.61,2.55,1.34,5.12,1.89,7.93.27,1.41.56,2.85.85,4.33s.45,3.09.67,4.71c.41,3.27.76,6.78,1.05,10.6.06,1,.12,1.94.19,2.93s0,2,0,3.07q0,3.12-.09,6.53c.13,11.43,4.76,7.27,6.17,13.61a407.79,407.79,0,0,1-3.76,64A463.59,463.59,0,0,1,1345,907.59c-11.91,41.61-29.3,82.22-51.4,121.62s-48.52,77.82-79.14,115.46-65.34,74.62-104.2,111.59c-.89-3.82,1.36-9.33,4.89-15.57s8.32-13.22,12.52-20c8.49-13.51,14.67-26.08,4.9-29.5,17.78-22.2,34.42-42.74,49.92-62.48s29.84-38.68,42.91-57.6a531.13,531.13,0,0,0,35-57.34,323.56,323.56,0,0,0,24.52-60.94c1.65-3.44,3-6.89,4.56-10.27s3.06-6.73,4.46-10.07,2.8-6.65,4.22-9.94c.7-1.65,1.45-3.28,2.12-4.92s1.31-3.29,2-4.93q2-4.91,4-9.79l3.7-9.82c2.62-6.54,4.71-13.17,7.08-19.86.29-.84.6-1.67.87-2.52l.77-2.53c.52-1.7,1-3.4,1.56-5.1s1-3.43,1.57-5.15c.27-.86.53-1.73.8-2.59l.69-2.62q1.37-5.25,2.77-10.61l.71-2.69c.21-.91.39-1.82.59-2.72l1.17-5.5c.4-1.85.79-3.71,1.19-5.58.19-.94.41-1.88.58-2.83s.31-1.89.47-2.85q.93-5.73,1.88-11.63l.23-1.49.17-1.49c.1-1,.21-2,.32-3,.22-2,.44-4,.66-6.08s.46-4.11.64-6.19.22-4.19.34-6.32l.36-6.55c.06-1.1.14-2.19.18-3.28l0-3.27q.11-6.52.21-13c-.3-8.58-.26-17.27-.78-25.15-.85-16-2.72-30-4.52-41.9-1-5.78-1.89-11.25-2.75-16.35-.08-.65-.23-1.22-.33-1.83s-.22-1.21-.28-1.73-.13-1.11-.2-1.65-.19-1.1-.27-1.66c-.18-1.1-.34-2.2-.47-3.31s-.34-2.14-.47-3.22-.25-2.13-.34-3.19-.28-2-.37-3.07-.14-2.05-.2-3.05-.15-2-.18-2.94c-.06-2,0-3.91.1-5.75A45.81,45.81,0,0,1,1325.37,637.35ZM1294,913.9a32.62,32.62,0,0,1-1.72,4.29,28.78,28.78,0,0,1-1.67,3.07,18.08,18.08,0,0,1-3.12,3.76c-1,1-2,1.72-3,2.76a18.75,18.75,0,0,0-1.55,1.82,24.29,24.29,0,0,0-1.7,2.52,166.44,166.44,0,0,1-15.44,30.44c-2.59,3.94-5.13,7.57-7.65,11.22s-5.29,7.26-8,11.27q-1.12,1.85-2.28,3.84L1245.4,993q-2.52,4.2-5.14,8.84l-11.44,19.77c-4.14,6.93-8.32,14.2-12.88,21.47s-9.22,14.63-13.9,21.85c-19.09,28.75-40,54.82-54.6,64.53a82,82,0,0,0,6.92-8c2-2.7,3.83-5.41,5.49-8.13a184.77,184.77,0,0,0,8.71-16.45q2-4.11,4.13-8.3c1.4-2.79,2.88-5.58,4.53-8.37a108.94,108.94,0,0,1,12.24-17A340.62,340.62,0,0,1,1212,996.84c2.81-6,5.6-12.27,8.88-18.8,1.69-3.26,3.22-6.63,5-10.07q1.32-2.57,2.67-5.22c.46-.88.93-1.76,1.39-2.66s.89-1.79,1.34-2.7q2.71-5.45,5.77-11.19c1.93-3.84,3.91-7.79,6-11.85.53-1,1.07-2,1.62-3.07s1-2.08,1.53-3.13l3.21-6.39c2.28-4.32,4.35-8.8,6.62-13.41,1-2,2-3.9,3.09-5.84s2.08-3.87,3.19-5.79c2.2-3.85,4.68-7.67,6.83-11.52q1.66-2.9,3.34-5.79c1.09-1.93,2.25-3.87,3.18-5.82,1.94-3.9,3.76-7.84,5.32-11.82,5.36-14.84,8-30.32,10.08-43.69.49-3.35.88-6.57,1.41-9.64s1.15-6,1.61-8.69a58.3,58.3,0,0,1,1.94-7.59,49.45,49.45,0,0,1,2.67-6.32,10.45,10.45,0,0,1,2.91,2.91,20.77,20.77,0,0,1,2.15,4.43,45.27,45.27,0,0,1,1.61,5.8c.23,1.07.43,2.19.63,3.35.09.58.19,1.18.27,1.78s.1,1.22.15,1.85c.2,2.5.32,5.17.39,8s.15,5.75-.08,8.79c-.36,6.08-.69,12.58-1.68,19.22-.45,3.32-.81,6.69-1.35,10.06s-1.15,6.75-1.72,10.1c-.29,1.68-.53,3.36-.84,5s-.66,3.32-1,5c-.64,3.28-1.24,6.51-1.77,9.67-1.29,6.29-2.39,12.27-3.12,17.71A78.11,78.11,0,0,0,1294,913.9Zm121.6-64.18c.91,6.16,0,11.1-1.31,17.18-.68,3-1.38,6.38-2.26,10.26s-1.85,8.31-2.7,13.64c-2.73-1.62-1.65-8.7.38-17,.91-4.16,2.08-8.61,3.2-12.81.55-2.1,1.14-4.13,1.58-6S1415.31,851.29,1415.61,849.72Zm-332.55,623.19a46,46,0,0,0,1.85,4.95l1,2.44c.36.81.78,1.58,1.17,2.37a73.28,73.28,0,0,0,5.25,9.14,80.94,80.94,0,0,0,13.91,15.77c10.59,9.32,23.39,15.94,36.79,20.52a206,206,0,0,0,41.71,9.12,410.9,410.9,0,0,0,43.78,2.73c13.89.15,26.28.16,38.33-.17l4.54-.15,4.94-.25c3.28-.22,6.55-.41,9.79-.7,6.49-.55,12.94-1.23,19.44-2.23a184.73,184.73,0,0,0,40.25-10.51,136.63,136.63,0,0,0,21.14-10.51,116.46,116.46,0,0,0,20.86-16.13c1-1,1.93-1.89,2.81-2.87l2.53-2.93c.85-1,1.55-2,2.31-3a32.57,32.57,0,0,0,2.06-3l1.74-2.86c.59-1,1-2,1.56-3,1.08-2,1.87-4.21,2.82-6.37a127.17,127.17,0,0,0,4.51-15.11c.28-1.44.6-2.92.94-4.43s.53-3.13.84-4.76.44-3.38.72-5.13.37-3.63.57-5.54a134.52,134.52,0,0,0-.2-25.25,81.89,81.89,0,0,0-5.66-22.53,44.14,44.14,0,0,0-11.22-16,22,22,0,0,0-14.2-5.75,44.69,44.69,0,0,0-9.23-4.41,49.74,49.74,0,0,0-5.47-1.4l-1.41-.29a8.21,8.21,0,0,0-1.43-.25l-3-.34a64.4,64.4,0,0,0-12.68.18c-2.19.15-4.48.61-6.74,1-1.13.18-2.3.49-3.44.73s-2.29.47-3.47.82a154.37,154.37,0,0,0-28,10.67c-2.34,1.15-4.61,2.29-6.95,3.54l-3.45,1.86-3.47,1.93c-2.27,1.31-4.64,2.63-6.94,4s-4.58,2.75-6.81,4.17a30.92,30.92,0,0,1,5-6.1c1.14-1.13,2.42-2.32,3.83-3.55s2.86-2.52,4.47-3.85a255.7,255.7,0,0,1,22.72-16.82,165.88,165.88,0,0,1,27.62-14.81A95.46,95.46,0,0,1,1370,1341a73.91,73.91,0,0,1,17.93,5.25,64.77,64.77,0,0,1,15.54,10,72.43,72.43,0,0,1,12.35,13.9,89.78,89.78,0,0,1,8.74,16.61c.55,1.48,1.2,2.91,1.66,4.43l1.47,4.5,1.2,4.58.31,1.15.23,1.16.48,2.32.48,2.33.36,2.35c.21,1.57.53,3.12.65,4.7l.47,4.73.22,4.75a126.25,126.25,0,0,1-.83,19,128.86,128.86,0,0,1-3.8,18.52,115.54,115.54,0,0,1-6.81,17.5,95.28,95.28,0,0,1-9.82,15.8c-1,1.21-1.89,2.43-2.9,3.62l-3.13,3.54c-1,1.19-2.18,2.28-3.26,3.42-.55.57-1.09,1.14-1.65,1.69l-1.71,1.63c-2.25,2.21-4.65,4.24-7,6.3l-3.68,3c-1.22,1-2.52,1.89-3.77,2.84a158.2,158.2,0,0,1-15.88,10.21q-8.25,4.62-16.92,8.4t-17.68,6.7c-6,2-12.07,3.69-18.18,5.22a312.87,312.87,0,0,1-37.16,6.71l-4.67.54-4.57.46c-3,.3-6.09.54-9.13.76-6.07.46-12.14.73-18.17.93-24.13.78-47.94-.48-70.48-5.1a178.64,178.64,0,0,1-32.48-9.74,129.36,129.36,0,0,1-14.92-7.26,104.05,104.05,0,0,1-13.59-9.13c-2.16-1.65-4.16-3.49-6.17-5.29l-2.88-2.85c-1-.94-1.83-2-2.74-3-.45-.5-.9-1-1.34-1.5l-1.26-1.58c-.83-1.07-1.71-2.07-2.46-3.2l-2.3-3.3-2.1-3.45a81.82,81.82,0,0,1-10.36-30.25Zm-81-10.15c-.93,2-15.35,1.73-15.24,3.87l-9.83.07q-4.86,0-9.58.09c-6.31.12-12.46.43-18.47.58s-11.89.55-17.66.88-11.41.56-17,.92c-22.18,1.21-42.82,2.55-62.71,1.76a138.81,138.81,0,0,1-14.26-1.22c-4.8-.68-9.67-1.51-14.71-2.38s-10.23-1.89-15.68-2.85q-4.1-.72-8.38-1.37l-8.84-1.31c-4-.57-8.24-1-12.53-1.45l-6.51-.58-6.56-.65L751,1457.9c-4.32-.39-8.54-1-12.61-1.5s-8-1.14-11.64-1.81-7-1.55-10.11-2.45c-6.11-1.84-10.88-4-13.58-6.94a123.45,123.45,0,0,1-12.48-1.12c-4.46-.62-9.2-1.35-14.08-2.45s-10-2.25-15.14-3.52c-2.59-.61-5.19-1.34-7.8-2.06l-7.89-2.19-7.92-2.19c-2.64-.72-5.25-1.55-7.86-2.29-5.21-1.53-10.38-3-15.43-4.3s-9.9-2.73-14.6-3.8-9.23-1.92-13.45-2.62c.45-.7,1.62-1.11,3.28-1.35a55.79,55.79,0,0,1,6.19-.32c4.78,0,10.51.3,15.21.29a38.72,38.72,0,0,0,6-.36c1.61-.29,2.72-.73,3.09-1.4.74-1.35-1.52-3.56-8.56-7.58-13.7-1.69-15.47,4.21-28.07,2.91q-5.76-1.93-11-3.83c-3.45-1.29-6.66-2.6-9.7-3.86a155.44,155.44,0,0,1-15.37-7.37,49,49,0,0,1-9.7-6.74,13.91,13.91,0,0,1-2.56-3.1,6.45,6.45,0,0,1-.75-2.85l1.79.22,2.13.37c1.46.26,3,.55,4.59.88,3.19.66,6.67,1.45,10.35,2.36s7.65,1.92,11.76,3l13,3.56c4.54,1.22,9.23,2.52,14,3.89,2.4.67,4.83,1.41,7.3,2.08l7.5,2c5.05,1.36,10.16,2.88,15.37,4.26s10.47,2.77,15.75,4.21l4,1.08,4,1,8,2c5.3,1.38,10.58,2.81,15.85,4.05s10.45,2.61,15.56,3.92,10.17,2.41,15.08,3.63l7.28,1.81,7.08,1.65c4.65,1.1,9.13,2.2,13.41,3.29,8.59,2,16.39,4,23.08,5.88,4.74.17,9.36.42,13.87.78s8.92.85,13.3,1.23c8.73.81,17.2,2.12,25.73,3.2,4.27.58,8.53,1.21,12.83,1.88s8.66,1.19,13.08,1.82,8.9,1.29,13.49,1.82l14.11,1.54c2.54-2.62-7.15-2.85-15.12-3.41,23.76-1.56,47.71,2.65,72.56,6.46,6.21.89,12.46,1.88,18.75,2.66s12.62,1.38,19,1.86c12.7.76,25.52.84,38.23-1C1000.13,1457.24,991.31,1463.36,1002,1462.76Zm-481.17-77.89a96.93,96.93,0,0,1-9.78-5.43c-2.87-1.82-5.65-3.59-9.12-5.36,1.09-1.6,3.41-2.4,7-2.29a57,57,0,0,1,14.54,3.06c5.44,3.43,6.34,5.57,5.14,7S524.13,1384.08,520.86,1384.87ZM395.2,1454.06a42.82,42.82,0,0,0-5.41,11.23,45.59,45.59,0,0,0-2,12.41c-.25,8.46,1.89,16.88,5.11,24.62a114.55,114.55,0,0,0,12.21,21.51c4.65,6.61,9.63,12.7,14.55,18.47L430.5,1555l1.4,1.62c.52.57,1,1.14,1.54,1.72l.74.89.37.45.69.78,2.9,3.3c3.87,4.4,7.78,8.69,11.73,12.93,7.89,8.45,15.94,16.4,24,23.6l3,2.69,3,2.55c2,1.76,4,3.28,6,4.91,1,.84,2,1.54,3,2.3l3,2.25,2.95,2.06c1,.69,2,1.43,2.92,2,1.93,1.24,3.86,2.58,5.74,3.64l2.81,1.69,2.64,1.43,1.08.61,1,.48c.69.33,1.37.66,2.05,1s1.41.58,2.1.9l1,.46.52.24.54.18c1.44.48,2.81,1.13,4.28,1.49.73.21,1.43.48,2.16.69s1.46.33,2.19.52l1.08.29,1.1.19q1.11.18,2.19.42c.74.12,1.48.16,2.21.26a17.87,17.87,0,0,0,2.19.23,52.22,52.22,0,0,0,17-1.59,50,50,0,0,0,14.47-6.78l3-.75c1-.36,2.15-.63,3.28-1.07.56-.22,1.14-.44,1.74-.65.3-.12.61-.2.91-.35l.95-.42.24-.11.33-.16.67-.32c.44-.22.89-.42,1.35-.66l2.84-1.54,1.46-.79,1.51-.9,3.07-1.84c2.13-1.39,4.25-2.69,6.5-4.29,4.42-3,9.09-6.59,13.78-10.42l3.52-2.92,3.54-3.11c2.34-2.06,4.64-4.13,6.87-6.17s4.31-4.18,6.35-6.23,4-4,5.81-6.09a145.73,145.73,0,0,0,9.44-11.58,65.65,65.65,0,0,0,6-10c23.89-22.61,44-48.61,60.59-75.62,8.32-13.48,15.91-27.15,22.71-40.86,1.78-3.38,3.39-6.84,5-10.25s3.32-6.78,4.83-10.21,3.1-6.78,4.64-10.14,2.91-6.6,4.27-9.83c4.72-8.27,8.83-16.62,12.57-25a255.43,255.43,0,0,0,9.23-24.88,210.15,210.15,0,0,0,5.61-23.83,157.35,157.35,0,0,0,2-21.8c0-1.7,0-3.39,0-5.09s-.21-3.26-.26-4.89l0-1.22c0-.4-.09-.79-.14-1.18l-.24-2.35-.19-2.35c-.11-.8-.27-1.6-.39-2.4a124.71,124.71,0,0,0-4-19c-.23-.79-.45-1.59-.66-2.38l-.32-1.2-.42-1.19c-.56-1.59-1.08-3.19-1.56-4.82q-1-2.4-1.85-4.86l-.43-1.24-.54-1.23-1-2.49-1-2.51-1.19-2.53-1.15-2.56-.56-1.3c-.2-.43-.44-.86-.66-1.29-.88-1.73-1.74-3.48-2.56-5.25s-1.94-3.55-2.86-5.36c-.78-1.64-1.73-3.25-2.52-4.88-.4-.81-.78-1.62-1.15-2.44s-.7-1.65-1.12-2.46c-.8-1.63-1.55-3.27-2.28-4.92-.38-.83-.7-1.67-1.11-2.49l-1.22-2.49-2.48-5c-.92-1.68-1.91-3.37-2.92-5.08l-1.57-2.58c-.53-.87-1.18-1.71-1.79-2.57-1.24-1.72-2.56-3.45-4-5.2a160.44,160.44,0,0,0-19.05-18.19l-2.73-2.31c-.9-.77-1.88-1.52-2.82-2.29q-2.85-2.3-5.67-4.66c-1.93-1.54-3.87-3.09-5.76-4.68l-2.83-2.39-2.86-2.39c-10.78-9.28-21.51-19.06-32.78-28.55a312.75,312.75,0,0,0-35.81-26.66c-11.71-7.35-29-14.18-41-21.07-1-.58-1.88-1.16-2.82-1.79s-1.83-1.29-2.67-1.94c-1.69-1.31-3.22-2.64-4.73-4a69.33,69.33,0,0,0-9.79-7.71c-11.94-7.38-26-14.39-39.67-21.55s-26.77-14.51-36.56-22.17c-19.67-9.34-38.9-19.33-58.05-30.42a637.89,637.89,0,0,1-57.44-37.41c-9.62-7-19.24-14.61-28.94-22.65l-7.24-6.25-3.64-3.16-3.61-3.3-7.27-6.69-7.23-7L312,890.9c-1.21-1.22-2.39-2.49-3.59-3.73l-7.21-7.58-7.12-8c-1.19-1.35-2.38-2.71-3.58-4.06l-3.5-4.25a383.2,383.2,0,0,1-27.31-37c1.13,1.41,2.22,2.86,3.39,4.23l3.51,4.12c2.36,2.73,4.67,5.51,7.07,8.16,4.88,5.21,9.64,10.49,14.66,15.2,2.48,2.38,4.92,4.78,7.4,7s5,4.38,7.43,6.48c1.23,1,2.44,2.09,3.67,3.1l3.68,2.88q3.66,2.84,7.21,5.46c19,13.77,36,21,46.36,20l8.06,6.61c2.69,2.16,5.42,4.21,8.12,6.3l4.06,3.1c1.36,1,2.73,2,4.09,3,2.73,2,5.43,4,8.16,5.88,10.93,7.62,21.87,14.78,32.82,21.61s21.92,13.41,32.89,19.79l32.93,19.26c15.85,9.28,26.32,15.62,39.49,22.82s29.13,15.22,55.34,27.22l4.42,2,4.32,1.9q4.23,1.86,8.44,3.61c5.57,2.41,11.16,4.67,16.59,7,10.93,4.65,21.49,9.46,31.51,15A473.22,473.22,0,0,1,730,1118.86a429.1,429.1,0,0,1,59.14,59.61,310.51,310.51,0,0,1,19.44,26.38,174.34,174.34,0,0,1,14.76,26.86c.49,1.12,1.08,2.22,1.47,3.36l1.26,3.39c.82,2.25,1.76,4.46,2.34,6.72s1.3,4.48,1.93,6.68.92,4.45,1.35,6.64c.19,1.09.46,2.17.58,3.26s.23,2.19.34,3.27c.2,2.16.47,4.27.51,6.39s0,4.2-.08,6.24c0,1,0,2-.15,3s-.27,2-.4,3c.22,2,.52,4,.68,6s.19,4.14.29,6.23,0,4.23,0,6.37l-.06,3.24,0,1.62-.13,1.65c-.18,2.2-.35,4.41-.53,6.64,0,1.1-.26,2.24-.4,3.36l-.45,3.39-.45,3.4c-.21,1.14-.43,2.29-.64,3.44-.44,2.3-.81,4.59-1.31,6.91a287,287,0,0,1-7.84,28.22c-3.27,9.49-7,19-11,28.51s-8.46,18.91-13,28.24c-1.08,2.34-2.32,4.65-3.45,7s-2.26,4.63-3.48,6.94q-3.53,7-7,13.74c-9.23,18.1-18.09,35.23-25.56,51.29-2.25,2.81-4.61,5.55-6.89,8.35s-4.49,5.66-6.8,8.46c-4.59,5.61-9,11.36-13.58,17s-9,11.33-13.51,17c-2.22,2.84-4.55,5.59-6.8,8.4s-4.47,5.61-6.78,8.32l-6.81,8.2c-2.26,2.71-4.59,5.33-6.86,8-4.51,5.35-9.21,10.38-13.74,15.42-2.27,2.51-4.64,4.88-6.93,7.29s-4.55,4.79-6.9,7l-6.93,6.67c-1.15,1.08-2.28,2.18-3.43,3.22l-3.48,3.08-8.16,4c-2.76,1.38-5.55,2.62-8.38,4-5.65,2.57-11.41,5.22-17.21,7.64s-11.66,4.81-17.45,6.81c-1.46.57-2.9,1-4.34,1.49-1.27.39-2.49.77-3.73,1.06s-2.45.69-3.7,1-2.5.6-3.73.93a153.62,153.62,0,0,1-31.51,4.22,139.9,139.9,0,0,1-34.88-4.07c-.62-.15-1.24-.3-1.85-.43l-.93-.2-.9-.25c-1.2-.34-2.4-.64-3.61-.91s-2.34-.68-3.52-1c-.59-.16-1.19-.27-1.77-.44l-1.72-.51c-1.14-.34-2.31-.59-3.47-.93l-3.75-1.17c-1.33-.38-2.67-.91-4-1.36s-2.68-.87-4-1.36c-10.72-3.82-21.49-8-32.12-12.84a274.81,274.81,0,0,1-31.43-16.51q-3.85-2.42-7.68-5c-2.54-1.76-5.08-3.54-7.6-5.41s-5-3.83-7.49-5.89l-3.71-3.15-3.39-3a92.46,92.46,0,0,0-8.88-13.62c-3.15-4-6.54-7.69-10.1-11.43s-7.29-7.55-11-11.74a108.84,108.84,0,0,1-10.58-14,151.86,151.86,0,0,1-12.55-24.93c-1.72-4.41-3.28-8.93-4.63-13.6a145.15,145.15,0,0,1-3.37-14.49,118.4,118.4,0,0,1-1.49-32.08,109.29,109.29,0,0,1,3.14-17.48,104.87,104.87,0,0,1,6.43-17.84,108.19,108.19,0,0,0,9.66,10.74c3.22,3.17,6.4,6,9.4,8.87a134.2,134.2,0,0,1,16.78,18.24c3.26-.42,6.06-3.25,9.31-5.17a16.36,16.36,0,0,1,2.47-1.25,8.77,8.77,0,0,1,2.57-.66A7.76,7.76,0,0,1,395.2,1454.06ZM238.27,785.86c-3.6-.66-8.57-7.75-10.89-2.5-2.32-8.35-5.52-17.9-8.64-27.27s-6.34-18.94-9.31-28.41-5.72-18.85-8-27.88-4.18-17.69-5.42-25.62a383,383,0,0,1,3.06-74.35,392.87,392.87,0,0,1,15.32-66.6A374.81,374.81,0,0,1,241,471a351.52,351.52,0,0,1,40.68-59.82,205.51,205.51,0,0,1,21.67-18.57c7-5.32,14.09-10.2,22.2-15.85a331.75,331.75,0,0,1,92-55.15l6.34-2.44,6.4-2.28c4.25-1.54,8.61-2.84,12.91-4.21,8.69-2.54,17.42-4.88,26.25-6.68,4.39-1,8.84-1.71,13.24-2.52,2.21-.37,4.43-.68,6.64-1s4.44-.67,6.6-.91c8.64-1.09,17.53-1.87,26.69-2.22a288.31,288.31,0,0,1,31.11.36,242.69,242.69,0,0,1,33.86,4.62,211.68,211.68,0,0,1,35.83,11c3,1.16,6,2.57,9,3.93,1.49.7,3,1.37,4.45,2.12l4.32,2.27c2.88,1.54,5.74,3.08,8.56,4.71s5.61,3.5,8.38,5.3c1.38.91,2.77,1.8,4.13,2.74l4,3c2.67,2,5.32,4,7.91,6.07s5,4.34,7.52,6.56c1.23,1.12,2.48,2.21,3.67,3.36l3.49,3.5c2.3,2.36,4.62,4.72,6.81,7.15s4.23,4.93,6.3,7.43c1,1.26,2.09,2.5,3,3.78L707.8,381c1.85,2.56,3.75,5.15,5.46,7.76,3.31,5.21,6.7,10.5,9.42,15.78,1.4,2.65,2.84,5.31,4.12,8s2.43,5.28,3.61,7.92c.57,1.32,1.19,2.66,1.71,4s1,2.61,1.52,3.92c1,2.62,2,5.24,2.93,7.85s1.66,5.15,2.45,7.73l1.17,3.86c.38,1.28.68,2.53,1,3.79q1.08,4.2,2.07,8.43c.61,2.79,1.1,5.54,1.62,8.32l.74,4.16c.23,1.39.39,2.73.58,4.1.36,2.73.7,5.45,1,8.18a252.5,252.5,0,0,1,1.13,31.57,313.15,313.15,0,0,1-7.21,57.89c-.92,4.58-2,9-3.11,13.48s-2.31,8.78-3.45,13.13-2.44,8.6-3.77,12.82-2.56,8.42-4,12.55c-5.44,16.58-11.3,32.55-17.3,48.43l-.45.81-.41.7-.81,1.37-1.64,2.77c-1.1,1.85-2.22,3.74-3.37,5.54l-3.48,5.53q-1.77,2.7-3.58,5.45L694,699.54l-1.84,2.69-3.72,5.4c-2.49,3.52-5,7.11-7.57,10.56s-5.1,6.88-7.66,10.32l-7.62,10-14.73,19.06-6.91,9.05c-2.2,2.92-4.42,5.86-6.47,8.68s-4.05,5.6-6,8.34c-.92,1.35-1.84,2.7-2.76,4l-1.35,2-1.27,1.94c-3.45,5.22-6.32,10.1-8.88,14.77a109,109,0,0,0-6,13,109.54,109.54,0,0,0-14.35,22.68c-1,2.08-1.84,4.14-2.78,6.26-.76,2.09-1.66,4.24-2.31,6.36s-1.29,4.27-1.95,6.43q-.57,2.83-1.33,5.71a97.47,97.47,0,0,0-1.4,24.81,177.32,177.32,0,0,0,4,26.5,112.17,112.17,0,0,0,13.77,21.61A124.93,124.93,0,0,0,622,957.37a161.21,161.21,0,0,0,38.85,24.38c1.63.85,3.36,1.45,5,2.16s3.32,1.49,5,2,3.38,1.26,5,1.91,3.4,1.06,5.09,1.65c6.77,2.09,13.52,3.88,20.32,5.35A206.06,206.06,0,0,0,722,997.76c.88.07,1.76.16,2.65.27l.68.08.75,0,1.52.06c1,0,2.05.15,3.09.13s2.1,0,3.17.06c4.27,0,8.75,0,13.45-.3a61.14,61.14,0,0,1-20.74,6.32,22.85,22.85,0,0,1-2.68.28l-2.61.2-1.32.12a8.23,8.23,0,0,1-1.32.06l-2.69,0h-2.71a9.07,9.07,0,0,1-1.37-.08l-1.37-.12-2.74-.2-1.38-.08c-.46,0-.92-.13-1.38-.19q-2.76-.42-5.5-.7c-1.83-.38-3.65-.72-5.46-1l-1.36-.21-1.34-.31c-.89-.21-1.78-.4-2.67-.58s-1.76-.34-2.64-.48-1.73-.43-2.59-.62c-1.72-.4-3.42-.7-5.09-1s-3.28-.74-4.88-1c-.8-.12-1.59-.23-2.38-.32s-1.53-.27-2.29-.38a38.14,38.14,0,0,0-4.45-.37l-1.25-.71-1.22-.78c-.81-.52-1.63-1-2.45-1.5s-1.65-1-2.48-1.42-1.62-1-2.44-1.5c-1.62-1-3.27-1.94-4.92-2.85s-3.21-2-4.84-2.95c-.81-.48-1.66-.89-2.44-1.41l-2.37-1.5-2.4-1.45c-.8-.48-1.63-.91-2.39-1.44-3.06-2.06-6.3-3.87-9.23-6-1.48-1-3-2-4.49-3s-2.86-2.08-4.3-3.09c-.71-.52-1.45-1-2.14-1.52l-2-1.6-4-3.12c-1.3-1.06-2.48-2.16-3.71-3.22s-2.47-2.1-3.56-3.2l-3.22-3.27a40.67,40.67,0,0,1-3-3.24,110.61,110.61,0,0,1-16.82-27,191.28,191.28,0,0,1-10.14-29.52c-.33-1.42-.69-2.8-1.06-4.16-.17-.68-.41-1.35-.54-2l-.39-2c-.52-2.61-1.27-5.18-1.55-7.7a72.71,72.71,0,0,1-1.06-7.64c-.11-1.3-.23-2.6-.35-3.93l-.1-1c0-.34,0-.67,0-1,0-.67,0-1.35,0-2,0-1.39,0-2.79,0-4.24a21.56,21.56,0,0,1,.16-2.32c.07-.8.15-1.61.23-2.43a96.48,96.48,0,0,1,1.75-10.63,122.38,122.38,0,0,1,3.46-12.36,153.29,153.29,0,0,1,5.87-14.58c7.74-16.8,17.84-32.88,31-52.88,13.69-20.9,31.81-42.85,49.06-66.43,2.15-3,4.3-5.9,6.41-8.94l3.15-4.5,3.1-4.58c2.06-3,4-6.15,6-9.2,1-1.53,1.94-3.12,2.9-4.66.48-.78,1-1.56,1.43-2.33s.93-1.52,1.45-2.44a225.4,225.4,0,0,0,18.71-40.76c.59-1.76,1.17-3.54,1.66-5.33s.94-3.62,1.37-5.44c.9-3.63,1.54-7.33,2.23-11,1.33-7.35,2.38-14.69,3.9-21.79,1.72-8.42,3.61-17.32,5.1-26.76.83-4.69,1.44-9.56,2.09-14.49.31-2.47.52-5,.78-7.52l.36-3.8c.07-1.29.15-2.58.23-3.87a206.46,206.46,0,0,0-.35-32.07c-.28-2.75-.5-5.47-.91-8.25s-.86-5.54-1.34-8.29-1.18-5.55-1.81-8.3c-.33-1.38-.64-2.75-1-4.12s-.82-2.76-1.22-4.13c-.26-.84-.63-1.91-1.1-3.15s-1-2.65-1.72-4.2c-1.42-3.09-3-6.62-4.87-10.15-1-1.76-1.92-3.53-2.84-5.24s-1.78-3.34-2.74-4.87c-1.82-3.07-3.36-5.68-4.24-7.44a248.48,248.48,0,0,0-19.8-32.3,143.07,143.07,0,0,0-27-27.69q-3.18-2.33-6.45-4.61c-1.09-.75-2.18-1.55-3.29-2.25l-3.39-2.07q-3.39-2.06-6.89-4.08c-2.36-1.29-4.8-2.51-7.25-3.75a176.76,176.76,0,0,0-30.28-11.39,211.63,211.63,0,0,0-60.61-7.22A270.14,270.14,0,0,0,498,324c-9.47,1.25-19.07,2.91-28.57,5.14s-18.95,5-28.28,8.17-18.49,7-27.48,11.1c-36,16.65-68.49,40.39-95.7,68.24a373.68,373.68,0,0,0-66.46,93.48c-6.87,13.75-13.15,27.11-18.55,40.9a246,246,0,0,0-12.7,43.37A233.73,233.73,0,0,0,217,626.78c-.48,11.12-.46,22.32-.63,33.17s-.2,21.56.1,32.1a308.34,308.34,0,0,0,2.33,31.5,201.84,201.84,0,0,0,6.67,31.62c.82,2.63,1.66,5.28,2.59,7.92s2,5.27,3.07,7.91C233.25,776,235.65,780.89,238.27,785.86ZM629.42,915c1.61,2.81,2.49,3.64,3.32,4.3s1.22,1.29,1.57,3.93c-1.57,2.2-4.13.32-5.8-2.19C627.15,918.46,626.75,915.39,629.42,915Z"/><path class="b" d="M1208.64,1270.4c2.08-1,3.89-2,5.55-2.91.83-.48,1.62-1,2.38-1.43s1.48-1,2.2-1.47c2.87-2,5.56-3.9,8.94-5.9,1.28-.23,2.62-.55,4-.93q1-.29,2.13-.63c.74-.23,1.6-.54,2.41-.84l2.51-1,2.69-1.08c1.91-.78,3.79-1.59,5.85-2.49,8.21-3.58,18.33-8.25,30-12.72.69-.28,1.46-.56,2.22-.84l2.28-.82,4.55-1.62,1.13-.39,1.21-.39,2.41-.77,4.8-1.48A186.34,186.34,0,0,1,1316,1228c1.7-.3,3.27-.59,5-.82s3.42-.44,5.08-.62c3.35-.34,6.41-.65,9.69-.7s6.2-.07,9,.06l1,0,1.07.09,2.07.2c1.34.15,2.63.32,3.85.52a226.89,226.89,0,0,0-48.38,7.33,327.5,327.5,0,0,0-35,11.4c-10,3.86-18.47,7.52-25.95,10.75l-5.39,2.33-2.61,1.13-2.36,1-9.36,3.89a735.48,735.48,0,0,1-78,26.94c1.94-1.88,6.79-4.17,13-6.48l4.85-1.81c1.68-.63,3.42-1.25,5.19-1.86,3.55-1.23,7.25-2.41,10.9-3.54,7.24-2.42,14.32-4.46,19.68-5.86S1208.2,1269.83,1208.64,1270.4Z"/><path class="b" d="M1101.83,1299a49.56,49.56,0,0,0,15-5.55c1.77-1,3.5-1.91,5.67-2.88a52.25,52.25,0,0,1,8.31-3c-4.45,5.85-23.81,10.83-27.77,16.41C1091.74,1306.26,1108.44,1300.57,1101.83,1299Z"/><path class="b" d="M630.31,1148.24c2,.28,4.18.75,6.56,1.13s4.91.86,7.57,1.39l4.1.84c1.39.3,2.82.62,4.31.86l9.24,1.7,4.85.91,5.06.75,10.48,1.57,11,1.12c1.85.17,3.7.41,5.59.51l5.69.28,5.72.26c1.91.07,3.82.19,5.74.13q5.77-.06,11.49-.19c.95,0,1.91,0,2.85-.08l2.75-.19,5.46-.4,2.7-.21,2.66-.3,5.26-.63a183.37,183.37,0,0,0,36-8.19,154.14,154.14,0,0,1-33.52,9.44c-3.13.49-6.33.94-9.58,1.37s-6.57.64-9.91.93c-1.65.16-3.4.22-5.15.27l-5.26.14-5.3.1-2.66,0-2.66-.1q-5.31-.21-10.67-.49l-2.67-.14-2.65-.26-5.3-.56-5.3-.59-2.64-.29-2.61-.41-10.37-1.7-2.58-.42c-.85-.15-1.69-.35-2.53-.52l-5-1.06-5-1.06c-1.65-.35-3.32-.66-4.92-1.1l-9.56-2.4c-1.58-.39-3.16-.75-4.7-1.16Z"/></svg>