<svg xmlns="http://www.w3.org/2000/svg" viewBox="0 0 1920 1920"><defs><style>.a{fill:none;}.b{fill-rule:evenodd;}</style></defs><path class="a" d="M787.59,631.4a588.73,588.73,0,0,1,121.74-3.3,606.27,606.27,0,0,1,120.79,22.07A565.06,565.06,0,0,1,1088,670.36a581.65,581.65,0,0,1,55,25.94l6.62,3.65c2.2,1.24,4.46,2.37,6.59,3.69l13,7.67,12.69,8.05c1.07.66,2.1,1.35,3.13,2.07l3.09,2.11,6.19,4.2A523.54,523.54,0,0,1,1241,764.31c7.44,6.45,14.5,13.23,21.51,20l10.25,10.43q4.89,5.4,9.84,10.75a466.91,466.91,0,0,1,35.47,45.39,484.57,484.57,0,0,1,30.08,50,508.64,508.64,0,0,1,23.95,53.84,516.39,516.39,0,0,1,17.66,56.42,498.16,498.16,0,0,1,10.74,58c4.85,38.88,5.22,78,.38,115.82a433.3,433.3,0,0,1-10.62,55.56l-1.83,6.76c-.62,2.25-1.16,4.53-1.91,6.72l-4.19,13.27q-2.37,6.51-4.66,13c-.36,1.1-.83,2.15-1.26,3.21l-1.3,3.19-2.57,6.4c-.43,1.06-.83,2.16-1.28,3.18l-1.34,3.08c-.44,1-.88,2-1.32,3l-1.32,2.9c-1.74,3.65-3.43,7.21-5.07,10.25-1.64,3.19-3.21,5.81-4.68,8.34-1.48,2.31-2.85,4.53-4.07,6.15-1.22,1.81-2.29,3-3.17,4.13-.87.87-1.54,1.75-2,2.07l-.16.18-.07.09-.07,0a.65.65,0,0,0-.22.18c0,.1-.16.12-.25.19a1.25,1.25,0,0,0-.23.23c-.59.32-1.15.87-2.41,1.56-.31.17-.52.36-.89.55s-.76.39-1.12.61l-.56.32-.69.33c-.46.23-.91.47-1.36.71l-1.6.74c-.57.26-1,.53-1.7.79-1.29.52-2.42,1.09-3.93,1.66a227,227,0,0,1-21.71,7.35l-3.33,1c-1.1.32-2.35.65-3.52,1l-3.6,1-3.78,1-1.89.5-2,.47-4,1-7.89,1.92c-2.64.63-5.26,1.31-7.9,1.91l-8,1.7-8,1.71c-2.65.58-5.3,1.17-8,1.63l-16,3c-2.66.55-5.37.89-8,1.34l-8.06,1.28-8.06,1.28-8.11,1.06-8.1,1.07c-2.7.36-5.4.75-8.12,1l-16.28,1.71c-2.71.33-5.44.48-8.16.71l-8.17.64-8.17.65-8.2.42-8.19.43c-2.73.14-5.46.34-8.2.37A869.4,869.4,0,0,1,858.92,1351c-84.74-23.2-165.65-59.29-238-106.86L486.82,1156l-89.67,132.55a256.66,256.66,0,0,0-40.64,101.63c-1.53,8.64-2.41,17.09-3.1,25.59-.26,4.18-.46,8.38-.6,12.57s-.05,8.26,0,12.4a280.64,280.64,0,0,0,5.14,47.94,293.5,293.5,0,0,0,12.75,45.12,288.32,288.32,0,0,0,20,42.46,275.71,275.71,0,0,0,27.62,39.63,264.65,264.65,0,0,0,36.1,35.8A254,254,0,0,0,525,1692.89q3.3,1.27,6.62,2.49c2.23.78,4.49,1.5,6.75,2.23s4.53,1.41,6.8,2.09l3.42,1c1.12.33,2.37.64,3.55.94a247.49,247.49,0,0,0,29.34,5.76c2.52.33,5.11.61,7.67.87s5.11.51,7.8.67,5.32.3,8,.41,5.51.11,8.26.12c5.41,0,11.36-.25,17.1-.64,2.91-.21,6-.54,9-.88l4.53-.55c.74-.09,1.52-.21,2.33-.34l2.38-.37q4.75-.78,9.48-1.71c3.23-.65,6.62-1.46,9.9-2.28,1.65-.42,3.29-.84,4.93-1.29s3.44-1,5.15-1.53c3.44-1.06,6.87-2.2,10.26-3.4,3.55-1.31,7.11-2.73,10.62-4.21,1.76-.75,3.48-1.49,5.25-2.29s3.62-1.73,5.41-2.62c3.61-1.8,7.11-3.61,10.67-5.64s7.18-4.29,10.68-6.56,7-4.76,10.46-7.34q2.58-1.93,5.12-4c1.69-1.33,3.36-2.68,5-4.13q5-4.29,9.69-8.85l2.35-2.28,2.08-2.16q2.05-2.16,4.07-4.36A208.59,208.59,0,0,0,785.15,1623a205.93,205.93,0,0,0,13.53-21.85c2-3.8,4-7.66,5.73-11.55s3.45-7.86,5-11.79,2.82-7.83,4.09-11.79c.65-2,1.19-3.9,1.72-5.82s1-3.85,1.53-5.79,1-3.89,1.38-5.78.77-3.7,1.12-5.55.68-3.71,1-5.57l.45-2.78.36-2.62c.46-3.49.86-7,1.19-10.51.27-3.31.46-6.55.62-9.83s.18-6.28.18-9.33,0-6.16-.17-8.84-.27-5.56-.46-8.34c-.21-2.57-.44-5.11-.71-7.67l-.2-1.91c-.07-.64-.14-1.27-.22-1.83l-.47-3.5-.5-3.5-.26-1.75-.27-1.62-1.13-6.4c-.2-1.1-.4-2.07-.6-3l-.61-2.93c-.84-4-1.68-7.44-2.57-11.06l-1.32-5-.67-2.46-.66-2.31-1.33-4.54-1.31-4.22-.66-2.1-.64-2-1.28-3.87c-1.65-4.87-3.29-9.51-4.74-13.46l-7.11-19.05-1.09-3-.1-.29,0,0,0,.16h0s0,0,0,0h0s0,0,0,0,0,0,0,0a.61.61,0,0,1,0,.19,32.6,32.6,0,0,1,1.64-6.55c.49-1.51,1.21-3.2,2-5s1.71-3.65,2.8-5.54,2.25-3.84,3.51-5.75,2.68-3.77,4.1-5.56l.53-.67.27-.34c.08-.11.24-.28.36-.41l1.52-1.74,1.49-1.76c.48-.6,1.12-1.19,1.66-1.79l1.67-1.8c.55-.61,1.09-1.22,1.76-1.84q1.88-1.85,3.72-3.73,7.93-7.57,18.4-15.87l2.65-2.08,1.32-1c.45-.35.94-.71,1.41-1.06l5.7-4.25,6.08-4.34c1-.72,2.07-1.46,3.15-2.19l3.23-2.22q13-8.9,28.31-18.4c10.22-6.38,21.18-13,32.64-20l34.51-21,138-83.83,138-83.82,34.23-20.79,3.21-1.93,3-1.75c1.85-1.06,3.63-2.09,5.16-2.91s2.9-1.55,4.12-2.18l.83-.41.41-.21.36-.16.7-.33.57-.26c.41-.21.64-.27.92-.41l.49-.2a.11.11,0,0,0,.08,0c.23.59-.52-1.51-.94-2.57l-1.37-3.75-1.31-3.77c-.42-1.24-.85-2.61-1.24-3.69-.8-2.29-1.57-4.6-2.29-6.93l-2-6.6-.93-3.21-.87-3.17q-.84-2.91-1.58-5.88l-1.37-5.6c-.43-1.78-.81-3.67-1.16-5.39s-.7-3.26-1-4.92l-.8-4.66-.34-2.24-.15-1.13c0-.39-.09-.75-.14-1.07-.41-2.58-.62-5.53-.83-7.72L1270,970c0-.6,0-1.24-.09-1.71-.06-1-.1-2-.1-3.1a72.92,72.92,0,0,1,.39-9.33l.21-1.58c.06-.42.14-.86.23-1.31s.1-.55.17-.86l.16-.63q0-.19.12-.42l0,0h0l-.09.25a3.46,3.46,0,0,1-.19.43L1206,755.62c-23.61,16.22-48,33-73,51.14q-18.71,13.57-37.7,28.12t-38.1,30.5a906,906,0,0,0-75.68,70.3,683.6,683.6,0,0,0-70.39,86.57c-10.83,16-21.07,32.76-30.52,50.2-2.34,4.39-4.74,8.71-6.94,13.21l-3.34,6.71-1.66,3.36-.83,1.68-1,2.23c-2.8,5.93-5.85,12.91-8.85,20.73a255.33,255.33,0,0,0-8.78,27.28c-.69,2.7-1.34,5.31-2,8.09q-1,4.44-1.79,8.89l-.41,2.23-.39,2.45-.73,4.92-.64,4.94c-.1.78-.19,1.76-.28,2.64l-.25,2.72c-.16,1.82-.3,3.63-.42,5.45l-.17,2.73c-.06.88-.1,1.84-.13,2.86q-.18,6-.1,12c0,1.91.12,4.21.23,6.34s.26,4.33.44,6.49l.28,3.24c.1,1.09.19,2.12.34,3.31.29,2.32.6,4.63.95,6.94a203.08,203.08,0,0,0,6.39,28.37c1.54,4.89,3.23,9.75,5.08,14.53.91,2.39,1.92,4.77,3,7.15s2.16,4.74,3.29,7.08,2.31,4.66,3.52,7,2.55,4.58,3.89,6.84,2.71,4.52,4.11,6.69,2.83,4.25,4.29,6.34l2.23,3.11c.75,1,1.51,2.07,2.25,3,1.49,1.94,3,3.86,4.57,5.75,3.16,3.89,6.2,7.24,9.41,10.65a207.82,207.82,0,0,0,37,30.79,229.53,229.53,0,0,0,31.07,17.05l3.38,1.5c1.12.49,2.29,1,3.32,1.43l3.17,1.31c1.07.44,2.14.87,3.11,1.24l3,1.15,1.49.56,1.4.51,2.8,1,1.37.49,1.2.4c6.4,2.14,12.82,4.24,19.3,6s13,3.37,19.47,4.87c3.26.7,6.51,1.33,9.77,2,1.62.31,3.26.63,4.88.91l4.88.78a349.44,349.44,0,0,0,38.76,4l9.57.36,9.48.06c3.17,0,6.29-.06,9.41-.15s6.27-.17,9.34-.38c12.4-.64,24.49-2,36.4-3.68s23.46-4.07,34.78-6.79c2.85-.66,5.62-1.41,8.43-2.13s5.6-1.46,8.34-2.27l8.24-2.42,8.12-2.6q16.14-5.31,31.52-11.71c5.15-2.09,10.16-4.36,15.19-6.62,2.5-1.14,5-2.33,7.45-3.51s4.94-2.38,7.36-3.62c9.79-4.88,19.26-10.17,28.59-15.66s18.37-11.38,27.26-17.48l6.61-4.68c2.2-1.55,4.38-3.15,6.54-4.77s4.37-3.26,6.42-4.85l6-4.74,5.94-4.76c2-1.6,4-3.17,5.85-4.81l11.32-9.79,2.82-2.46,2.7-2.49,5.38-5c3.56-3.34,7.21-6.68,10.54-10.06l10.18-10.17c3.29-3.4,6.47-6.81,9.7-10.23l4.79-5.13,4.59-5.13c3-3.43,6.15-6.87,9.08-10.29l8.68-10.29,2.17-2.57,2.07-2.56,4.13-5.12c5.6-6.86,10.72-13.6,16-20.4,2.57-3.38,5-6.72,7.52-10.09l3.74-5,3.59-5,7.13-10,6.86-9.81c2.32-3.3,4.47-6.49,6.68-9.71l3.3-4.83,3.24-4.78,6.35-9.47,6.19-9.31,12-18.25q11.79-18,24.24-37.28c8.29-13,16.71-26.53,25.13-40.66s16.82-29.14,25-44.73l6.09-11.9c2-4,4-8.16,6-12.24,1-2.06,2-4.08,3-6.18l2.88-6.35,2.87-6.36,1.42-3.19L1651,929l5.49-13.15c1.77-4.47,3.5-9,5.22-13.55s3.37-9.18,5-13.85,3.26-9.28,4.7-14.14l4.41-14.43c1.42-5.1,2.84-10.2,4.11-15.35,2.59-10.28,4.87-20.66,6.77-31.16s3.53-21.1,4.73-31.84S1693.54,760,1694,749s.58-22.11.19-33.39-1.13-22.64-2.46-34.18a397.89,397.89,0,0,0-14.33-70.22c-3.6-11.84-7.76-23.67-12.65-35.44A376.31,376.31,0,0,0,1648,540.81a368.77,368.77,0,0,0-21-33.55q-2.92-4-5.89-8.05l-3-4-3.09-3.88q-3.1-3.88-6.26-7.71t-6.51-7.44a359.88,359.88,0,0,0-57.28-51.7c-10.16-7.3-20.53-14.15-31-20.24s-21.12-11.68-31.81-16.77c-5.34-2.43-10.71-5-16.07-7.12l-8.06-3.3L1450,374l-4-1.5-4-1.4-8.08-2.75c-2.7-.88-5.39-1.69-8.08-2.52s-5.4-1.66-8.09-2.39a455.5,455.5,0,0,0-64.55-13.3,475.16,475.16,0,0,0-64.22-4.1l-8,.07-8,.26c-5.34.13-10.68.53-16,.84-2.67.18-5.34.43-8,.65s-5.43.44-7.84.75l-15,1.79c-2.47.32-5,.58-7.43,1l-7.31,1.16c-4.86.8-9.75,1.57-14.58,2.43l-14.23,2.86-7.11,1.47-6.92,1.64-13.84,3.34c-4.51,1.2-9,2.44-13.45,3.67l-6.71,1.86c-2.24.62-4.37,1.32-6.55,2l-13,4c-4.32,1.36-8.45,2.81-12.68,4.23s-8.48,2.83-12.5,4.34l-12.24,4.48-3,1.13-3,1.15-5.93,2.32c-16,6.16-30.94,12.6-45.73,19.05-29.2,12.95-56.43,26.11-81.94,38.46l-76.37,37L547,640.2h0s0-.05,0,0l-.19.15-.2.12,1.17-.81c1.58-1.14,3.37-2.22,5-3.34s3.36-2.25,5.16-3.34l5.29-3.32,5.48-3.29,2.74-1.66,2.84-1.63,5.69-3.27c7.75-4.33,15.74-8.64,24.08-12.88s16.92-8.47,25.87-12.63c4.39-2.1,9-4.16,13.52-6.25s9.19-4.14,14-6.21c18.78-8.27,38.59-16.51,59.17-25L593,256c-43,17.68-89,36.89-136.69,61.16q-17.89,9.12-36.08,19.32l-9.1,5.23-4.55,2.63L402,347.1l-9.13,5.51-9.17,5.74c-3,1.88-6.11,3.92-9.17,5.92s-6.1,4-9.16,6.09l-6.07,4.14-3.7,2.57-3.51,2.5c-4.6,3.34-9.12,6.77-13.69,10.15l-6.83,5.08c-2.25,1.72-4.41,3.54-6.62,5.31-4.39,3.56-8.82,7.09-13.18,10.68-8.42,7.45-17.12,14.67-25,22.5l-6.07,5.76-3,2.89-2.88,3-11.5,11.95-1.44,1.49-1.36,1.53L257.68,463l-5.43,6.14-5.44,6.15c-1.72,2.09-3.4,4.2-5.1,6.3l-5.09,6.3L234.08,491c-.85,1.06-1.72,2.1-2.48,3.18l-9.43,12.9-2.36,3.23c-.8,1.07-1.48,2.18-2.22,3.27l-4.36,6.56c-2.87,4.38-5.94,8.71-8.5,13.18l-8,13.3c-.7,1.1-1.24,2.24-1.85,3.36l-1.79,3.37-3.57,6.75c-1.18,2.24-2.41,4.49-3.55,6.74l-3.15,6.81-3.14,6.8-1.57,3.4-.79,1.7-.7,1.71c-3.7,9.1-7.38,18.22-10.4,27.37s-5.74,18.35-8,27.55a332.48,332.48,0,0,0-9,55.2c-.68,9.18-.91,18.32-.8,27.44.06,2.27.08,4.55.16,6.83l.33,6.81c.32,4.53.66,9.06,1.18,13.56a275.92,275.92,0,0,0,11,53.29,265.24,265.24,0,0,0,9.47,25.76c3.59,8.45,7.77,16.65,12.1,24.79a272.19,272.19,0,0,0,40.73,55.18,281,281,0,0,0,52.66,43.07,305.49,305.49,0,0,0,29.71,16.57,322.09,322.09,0,0,0,31.52,13.23,327.36,327.36,0,0,0,33,9.82,303.35,303.35,0,0,0,34.22,6.28c5.73.93,11.66,1.33,17.53,1.89l4.41.4c1.47.11,3,.15,4.46.23l9,.37c1.5.05,3,.13,4.5.13h4.55l9.1-.1c3,0,6.13-.25,9.2-.4l9.25-.59a408.14,408.14,0,0,0,76.07-13.68c25.79-7,51.82-16.76,77.56-27.94l9.65-4.22,9.61-4.42,9.6-4.44,9.57-4.57q9.57-4.54,19.11-9.19l10.07-4.88,305.47-147.9,76.37-37c25.4-12.31,49.13-23.71,71.64-33.69,11.14-4.84,22.13-9.58,32.58-13.59l4-1.55,2-.77,1.92-.7,7.69-2.81c2.59-1,5-1.75,7.53-2.61s5-1.75,7.44-2.5l7.24-2.23c1.2-.36,2.43-.79,3.6-1.09l3.52-1,7-1.94,6.79-1.61,3.39-.83,3.29-.65,6.55-1.35,6.35-1,3.16-.53c1.06-.21,2.06-.25,3.08-.38,2-.23,4.08-.49,6.12-.76,1.09-.17,1.84-.18,2.71-.26s1.7-.17,2.56-.22c1.72-.06,3.43-.26,5.16-.26l2.59-.1h2.6a148.24,148.24,0,0,1,20.39,1.29,130.22,130.22,0,0,1,18.48,3.77,100.88,100.88,0,0,1,14.92,5.48c2,1,4,2,5.69,3s3.15,2,4.5,2.9a34.73,34.73,0,0,1,5.62,5,4.1,4.1,0,0,0,.5.52,5.3,5.3,0,0,0,.39.54l.24.24c.06.09.1.19.17.28a2.63,2.63,0,0,0,.39.49c.47.72,1,1.51,1.51,2.41s1,2.06,1.58,3.33,1.05,2.82,1.59,4.51a73.19,73.19,0,0,1,2.52,12.81c.32,2.51.47,5.26.58,8.12s.07,5.9-.06,9-.39,6.38-.77,9.69-.87,6.7-1.5,10.11-1.37,6.86-2.24,10.29c-.4,1.72-.91,3.42-1.36,5.14-.61,1.93-1.23,3.89-1.81,5.84s-1.33,4-2,6-1.33,4-2.2,6.11l-2.39,6.25-2.69,6.42c-3.78,8.67-8,17.65-12.93,27.07s-10.4,19.18-16.41,29.3-12.56,20.65-19.49,31.51-14.35,22.18-22,33.85l-11.32,17.17-5.55,8.36-5.46,8.14-2.71,4-2.69,3.93c-1.78,2.62-3.58,5.29-5.34,7.77l-5.29,7.57-5.23,7.29-2.61,3.64-2.59,3.47-5.15,6.92c-3.41,4.39-6.82,8.93-10.18,13l-2.53,3.14-1.26,1.56-1.25,1.48-5,5.93c-1.66,2-3.32,3.72-5,5.6l-2.47,2.79-2.46,2.6-4.88,5.18-4.84,4.82c-1.6,1.68-3.21,3.07-4.81,4.57l-2.38,2.23-1.18,1.12-1.19,1q-2.38,2-4.72,4.1c-.78.73-1.57,1.27-2.35,1.91l-2.34,1.86-2.32,1.89c-.73.58-1.36,1-2,1.53s-1.33,1-2,1.48l-2,1.46c-2.78,1.88-5.59,3.72-8.44,5.41s-5.73,3.32-8.62,4.72c-11.49,5.8-22.82,9.31-31.29,10.53-2.08.26-4.06.52-5.78.59-.46.07-.84,0-1.26,0a9.61,9.61,0,0,1-1.19,0c-.38,0-.75,0-1.13,0a8.72,8.72,0,0,0-1-.06,26.27,26.27,0,0,1-3.42-.35,2.22,2.22,0,0,0-.37,0c-.11,0-.21-.06-.32-.09s-.43-.07-.64-.1-.78-.15-1.09-.3-.64-.23-1-.28h-.06l-8.64,24.75c-1,2.9-2,5.8-3.11,8.68l-1.61,4.28-1.28,3.51q-1.3,3.49-2.68,7l-2.48,6.25c-.77,1.93-1.57,3.86-2.39,5.77s-1.48,3.52-2.21,5.19-1.44,3.26-2.19,4.87c-.4.84-.76,1.61-1,2.28l-1,2.1q-1,2.1-2,4.18l-1.86,3.73c-.62,1.21-1.26,2.41-1.93,3.6-.36.62-.57,1.08-.87,1.62l-.86,1.57c-.59,1-1.2,2.08-1.83,3.1-1,1.84-2.16,3.63-3.33,5.36a77.31,77.31,0,0,1-10.89,13.63c-.62.63-1.49,1.33-1.93,1.72-.27.23-.56.46-.86.68l-.35.26-.3.22c-.2.15-.42.29-.65.43l-.37.24-.19.11c.26-.14-.88.47.53-.29h0l.18-.08a5.92,5.92,0,0,1,.78-.26,24.61,24.61,0,0,1,3.76-.83c.4-.06.8-.1,1.2-.13l1.58-.18c.55,0,1.1-.08,1.64-.1s1,0,1.74,0a34.75,34.75,0,0,1,4.09,0c.31,0,.67,0,1.11,0l1.25,0c.82,0,1.64.1,2.45.19l2.48.29c1,.09,1.93.2,2.88.32s1.9.28,2.84.45l1.41.27,1.66.26q3.3.56,6.5,1.36l3.68.81c1.25.29,2.48.61,3.7.94l1.83.51c.59.18,1.2.36,2,.54,1.41.37,2.82.76,4.22,1.17s2.78.84,4.16,1.29l2.07.69,2.41.75q4.82,1.52,9.5,3.27c.72.28,1.7.61,2.61.93l2.77,1c1.84.67,3.66,1.36,5.48,2.06l12.06,4.79q3.24,1.3,6.45,2.69l3.2,1.39,3.87,1.63c2.66,1.12,5.31,2.27,7.94,3.43l4,1.77,3.68,1.69.09-.17,2.51-5c.86-1.87,2-3.7,2.93-5.57,4-7.41,8.52-14.83,13.54-22.26a357.89,357.89,0,0,1,36.68-44.83,583,583,0,0,1,48.67-45q13.5-11.25,28.13-22.52t30.33-22.6c20.82-15.13,43-30.43,66-46.24l243.56-167.28L1363.31,740.74q-4-1.69-8-3.28l-4-1.57-4.08-1.45c-2.72-1-5.46-1.86-8.2-2.73s-5.52-1.62-8.3-2.38l-4.16-1.1-4.16-1c-2.78-.62-5.57-1.24-8.35-1.77-5.49-1-11.11-1.93-16.5-2.52a238.07,238.07,0,0,0-31.65-1.59q-3.73.07-7.49.23c-2.5.1-4.83.29-7.25.46-4.89.34-9.36.87-14,1.44-2.26.29-4.41.63-6.61,1l-3.29.53c-1.1.18-2.11.38-3.16.57l-6.27,1.22c-2,.42-4,.87-6,1.32l-3,.7-2.87.72-5.66,1.49c-1.85.51-3.61,1-5.42,1.57s-3.61,1.07-5.28,1.61A333.52,333.52,0,0,0,1153,748.34l-4,1.84-3.86,1.83-1.93.92-1.85.91-3.69,1.84c-4.77,2.42-9.42,4.86-13.73,7.22s-8.45,4.71-12.42,7l-5.73,3.36-5.44,3.27-34.78,21.12-138,83.82-138,83.83-34.51,21c-11.53,7-23.58,14.32-36.19,22.19s-25.82,16.4-39.35,25.63l-5.1,3.5c-1.7,1.17-3.39,2.32-5.13,3.58l-10.35,7.39-10.48,7.81-2.63,2-2.65,2.07-5.29,4.14c-14.14,11.18-28.45,23.42-42.6,37l-10.56,10.53c-1.75,1.73-3.49,3.58-5.23,5.45l-5.2,5.58c-1.72,1.89-3.46,3.68-5.16,5.66l-5.09,5.89-5.06,5.91-1.27,1.51-1.32,1.63-2.62,3.26q-10.44,13.11-19.79,27t-17.58,28.66q-8.28,14.75-15.35,30.51c-4.72,10.5-9.08,21.29-12.93,32.53a357.5,357.5,0,0,0-16.85,71.89l-.64,5.19c-.19,1.71-.33,3.36-.49,5-.3,3.35-.63,6.7-.82,10.06s-.37,6.72-.51,10.08-.15,6.72-.19,10.09a326.17,326.17,0,0,0,2.38,40.25,301.13,301.13,0,0,0,7.52,39.6c.43,1.63.84,3.26,1.28,4.88l1.42,4.84,1.46,4.83.37,1.2c.08.2.1.41.17.61l.19.6.78,2.4,1.58,4.79,1.64,4.68,2.33,6.47,7,18.77c.88,2.37,1.46,4.08,2,5.58l.3.92.15.44.09.31.19.6c0,.1.05.2.09.3l0,.12v0h0l.85-.24q4-1.08,7.93-2.11l4-1,2-.5c.72-.16,1.14-.3,1.73-.45q6.57-1.75,13.22-3.27l12-2.71c1.87-.4,3.75-.79,5.64-1.15l2.84-.53c.5-.09.91-.17,1.29-.26l1.2-.25c3.21-.65,6.44-1.23,9.69-1.72l2.4-.37,2.07-.35c1.39-.23,2.78-.44,4.18-.63s2.8-.36,4.2-.51l1-.11.9-.12,1.79-.23c2.4-.28,4.84-.49,7.25-.63q3.09-.3,6.22-.39c2.25,0,3.82-.14,5.63-.14s3.7.12,5,.11,3,.15,4.45.31a35,35,0,0,1,3.62.38l.92.15.72.09,1.42.24,2.5.54,1,.28c.36.11.75.25.92.28a13,13,0,0,1,1.36.47l.22.09.15,0,.33.15.18.08.08,0h0c.23.12-.5-.28-.77-.52a25.67,25.67,0,0,1-2.61-2.11c-.27-.25-.52-.49-.76-.74l-.18-.18c2.07,2-4.88-4.85,4.59,4.53l-.06,0a1.17,1.17,0,0,1-.14-.17l-.05-.06-.14-.17a3.49,3.49,0,0,1-.25-.32l-.54-.79a8.65,8.65,0,0,1-.66-1.1,3.89,3.89,0,0,0-.2-.35l-.23-.4c-.15-.27-.28-.53-.41-.8s-.24-.52-.34-.78l-.47-1a21,21,0,0,1-.77-2c-.32-.81-.6-1.62-.83-2.42l-.33-1.21c-.14-.46-.27-.92-.39-1.37-.25-.92-.4-1.78-.59-2.73s-.42-2-.55-2.94l-.42-3c-.13-1-.18-2-.26-3-.22-2-.19-4-.24-5.91,0-.94,0-1.91.06-2.78s0-1.72.12-2.55l.19-2.27c.06-.68.17-1.43.25-2s.13-1,.21-1.53l.2-1.11.17-.78h0l1.39-5.11,0-.14.07-.23.25-.7a23.12,23.12,0,0,1,1.08-2.33,41.89,41.89,0,0,1,4.92-7.35,58.83,58.83,0,0,1,7.34-7.38,50.22,50.22,0,0,1,6.78-4.77l1.19-.66.91-.45c.22-.11.48-.21.6-.26l.22-.09s-.17.06-.7.22-1.25.35-2.16.51a47.45,47.45,0,0,1-8.07.83c-.8,0-1.69,0-2.53,0s-1.72,0-2.63-.13a51.8,51.8,0,0,1-5.19-.59l-2.47-.48c-.39-.09-.79-.18-1.2-.29l-.61-.17-.52-.13a20.25,20.25,0,0,1-2.12-.65,18.2,18.2,0,0,1-1.74-.61,19.3,19.3,0,0,1-3.69-1.82l-163,85.74c102.09,67.09,214.2,116.83,330.69,148.76a1194.61,1194.61,0,0,0,358.64,41.73c3.78-.07,7.56-.31,11.34-.5l11.35-.59,11.34-.61,11.33-.88,11.33-.9c3.78-.31,7.56-.56,11.33-1l22.63-2.38c3.78-.36,7.54-.88,11.3-1.37l11.29-1.49,11.29-1.5,11.27-1.77,11.26-1.79c3.75-.63,7.51-1.15,11.24-1.89l22.44-4.18c3.75-.67,7.47-1.47,11.2-2.28l11.17-2.39,11.17-2.41c3.71-.85,7.42-1.78,11.12-2.67l11.12-2.71,5.56-1.36,2.77-.68,2.84-.74,5.68-1.5,5.84-1.59,5.91-1.64,6.06-1.76a546.06,546.06,0,0,0,52.29-18c4.57-1.79,9.38-3.92,14.08-6,2.34-1,4.8-2.19,7.2-3.3s4.8-2.24,7.24-3.43l7.35-3.73,3.67-1.89,3.73-2,7.44-4.14c2.48-1.39,5-3,7.51-4.45a358.48,358.48,0,0,0,30-20.27c2.49-1.91,5-3.87,7.44-5.83s4.94-3.92,7.32-6,4.79-4.14,7.16-6.23l1.77-1.58,1.7-1.59,3.39-3.19a359,359,0,0,0,25-26.22c7.49-8.85,14.63-17.85,20.9-26.72,6.45-8.93,12.09-17.72,17.5-26.48,5.2-8.67,10.16-17.35,14.53-25.73s8.46-16.67,12.29-24.81l2.74-6c.91-2,1.82-4,2.65-6l2.57-5.89c.85-2,1.61-3.92,2.42-5.87l4.75-11.75,2.35-5.88c.78-2,1.6-3.92,2.29-5.91l8.51-23.8c2.62-8,5.09-16,7.6-24,1.3-4,2.35-8,3.47-12.09l3.29-12.13a758.94,758.94,0,0,0,18.78-98c8.28-65.75,7.62-131.75-.45-196.36a824.22,824.22,0,0,0-17.8-95.82,838.64,838.64,0,0,0-68.69-181.91,811.14,811.14,0,0,0-50.49-84,792,792,0,0,0-60.88-77.81L1508.82,571l-17.15-17.5c-11.65-11.41-23.47-22.64-35.72-33.32a848.73,848.73,0,0,0-76.44-59.78l-10-6.79-5-3.39c-1.66-1.13-3.33-2.25-5-3.31L1339.13,434l-20.7-12.25c-3.43-2.08-7-3.93-10.47-5.89l-10.51-5.78A904.23,904.23,0,0,0,1211,369.24a888.36,888.36,0,0,0-89.86-31.36A930.85,930.85,0,0,0,934.54,303.8,913.61,913.61,0,0,0,744,309.06Z"/><path class="b" d="M770.82,504.82c-2-2.47,2.24-3.71,3.23-5.58,5.89.43,12.63.43,12.35,3.72Z"/><path class="b" d="M1188.38,696a43.5,43.5,0,0,1,7.59,5.44,38.18,38.18,0,0,1,4.2,5,58.39,58.39,0,0,0,3.78,4.84,46,46,0,0,0,6,5.42c4.49,4.13,7,5.11,9.08,5.39,1,.14,2,.1,3,.18a10.65,10.65,0,0,1,1.58.24,9.7,9.7,0,0,1,1.8.7q5.05,4.53,10.16,8.93c1.73,1.43,3.33,3,5,4.5l4.94,4.5c1.64,1.5,3.32,3,4.94,4.46l4.78,4.58,4.81,4.5,2.41,2.24,2.31,2.3q4.63,4.6,9.31,9.09l9,9.17c1.49,1.52,3,3,4.48,4.54l4.33,4.62q2.19,2.28,4.35,4.56l2.19,2.26c.71.75,1.37,1.53,2.07,2.29q4.11,4.59,8.27,9.06c1.42,1.45,2.7,3,4,4.57l4,4.57,4,4.51c1.32,1.51,2.57,3.09,3.86,4.61q3.86,4.6,7.75,9.09c2.47,3.11,4.94,6.17,7.44,9.19,1.23,1.52,2.51,3,3.73,4.52l3.56,4.59c2.38,3,4.8,6,7.19,9s4.56,6.08,6.86,9c-1.58,0-1.52,1.34-.76,3.19a29.77,29.77,0,0,0,1.55,3.1l1.78,3.47a11.7,11.7,0,0,1-8.37.16,30.55,30.55,0,0,1-9.19-4.89c-1.23-1.81-2.45-3.61-3.68-5.4l-.9-1.35-1-1.31-1.92-2.61-7.51-10.42q-3.91-5-7.71-10.06l-1.9-2.52-2-2.43-4-4.84-3.89-4.85c-1.28-1.63-2.7-3.13-4-4.69l-8-9.3-8.29-8.92-2.06-2.24c-.68-.74-1.44-1.45-2.16-2.18l-4.36-4.36c-5.66-5.92-11.86-11.36-17.81-17-6.31-5.32-12.38-10.83-19-15.82l-4.88-3.82c-.82-.64-1.61-1.29-2.46-1.9l-2.54-1.82L1226,748.52c-3.48-2.33-7-4.58-10.56-6.86-1.78-1.11-3.5-2.31-5.35-3.35l-5.5-3.19c3.32-2.16,3.47-5.08,2-8.44a28.39,28.39,0,0,0-3.35-5.33c-1.45-1.79-3.15-3.63-4.87-5.49C1191.54,708.32,1183.77,701.09,1188.38,696Z"/><path class="b" d="M1362.37,1328.3a9,9,0,0,0-2.5,1.38c-.81.52-1.59,1.14-2.35,1.65-1.54.78-3,1.18-4.76-.26a8.44,8.44,0,0,1,2.09-1.69,7.68,7.68,0,0,1,2.35-1.16,10.13,10.13,0,0,1,2.52-.41A7.88,7.88,0,0,1,1362.37,1328.3Z"/><path class="b" d="M1528,1598c-3,2.4-6.38,4.88-10.15,7.58-.93.67-1.9,1.36-2.87,2l-3,2q-3,2-6.2,4c-2.13,1.37-4.25,2.6-6.42,3.86s-4.36,2.5-6.57,3.73c-4.38,2.37-8.76,4.56-13.07,6.65-4.21,1.92-8.37,3.76-12.26,5.32s-7.44,2.77-10.7,3.82a79.42,79.42,0,0,1-8.4,2.12,17.33,17.33,0,0,1-5.54.38,441,441,0,0,1-44.66,21.29c-4,1.61-7.8,3-11.93,4.55-2.07.75-4,1.42-6.15,2.13s-4.23,1.43-6.35,2.07c-8.56,2.6-18,5.23-28.56,7.71-4.26-1.54-8.87-2.92-11.06-5.53,2.81-1.23,5.87-2.54,9.13-3.9l10.3-4.49c3.61-1.55,7.38-3.15,11.28-4.76l12.12-5,27.06-11,14.59-5.93,7.47-3.1,3.73-1.52,3.78-1.6c10-4.11,20.15-8.54,29.8-12.66l14.19-6.14,13.24-5.58c2.11-.86,4.16-1.67,6.15-2.41s4-1.56,5.83-2.23c3.75-1.36,7.2-2.35,10.39-3.21C1519.58,1596.4,1524.62,1596.29,1528,1598Z"/><path class="b" d="M721.29,1356.91c13.75,7.33-13.28-1.92-1.56,3.55-1.78.77-6.71-1.06-10.59-3.6s-6.89-5.37-5-6.28c2.57.8,6.7,3.13,10.27,4.91S721,1358.32,721.29,1356.91Z"/><path class="b" d="M782.32,1459.76c-1.41,1.51-2.92,1-4.63-2.54-.43-.92-.87-1.87-1.32-3.07s-.93-2.57-1.43-4.16c-1-3-2.07-6.8-3.23-11,1.34-1.39,2.86-1.19,4.62,1.58a29.7,29.7,0,0,1,2.84,6.55c.5,1.45,1,3.37,1.55,5.42.27,1,.53,2.1.8,3.32S782.05,1458.39,782.32,1459.76Z"/><path class="b" d="M1074.35,1079.35c23.3-8.76,16.34-14.74,33-17,17.72-13.66,39.81-27,62.17-40,11.19-6.5,22.44-12.91,33.25-19.26q8.12-4.76,15.83-9.46,3.84-2.36,7.54-4.69l6.39-4.11c7.89-5.14,14.31-10,20-14.13s10.58-7.26,14-8.71c1.14-.49,2-.86,2.63-1.14a2.87,2.87,0,0,0,.61-.34.53.53,0,0,0,.11-.09l0-.06,0-.08s0,0,0-.06l0-.66c0-.44,0-.89.08-1.34s.1-1,.11-1.26c0-.69.14-1.4.26-2.13.06-.54.13-1,.24-1.59l.08-.38,0-.25.11-.51c.28-1.24.42-1.28,0-.29l-15.37-124.14c-31.28,23.06-64.83,46.54-98.13,71.83-16.64,12.65-33.21,25.72-49.36,39.35s-31.84,27.9-46.71,42.74c-10.4,10.41-20.68,21.24-30.55,32.56s-19.47,22.9-28.58,34.68-17.68,23.78-25.83,35.59c-4,6-8,11.79-11.72,17.68l-2.84,4.35c-1,1.44-1.88,2.88-2.77,4.34l-5.41,8.57c.87-12.13,5.72-27.13,13.73-43.12s19.24-32.8,32.2-48.87a470,470,0,0,1,42.16-45.29c14.56-13.87,29-26.27,41.67-37,2.29-2.36,4.41-4.65,6.4-6.85s3.83-4.28,5.54-6.32c3.41-4.12,6.31-7.85,8.73-11.42,26.63-21.05,51.5-40,74.89-57.71l66.25-50.12,25.7,139.19c.57-1.28.28-1-.12,1.05a59.06,59.06,0,0,0-.86,11.41c0,1.5,0,3,.13,4.49.07,1.7.18,3.45.38,5.13.08.91.16,1.94.27,2.89l.18,1.44.09.72,0,.32h0a.37.37,0,0,1-.11.18,13.94,13.94,0,0,1-2.4,1.19c-2.56,1.13-6.77,3.08-11.83,5.78s-11.06,6.16-17.73,10.14l-11.25,6.73q-6.11,3.62-12.25,7.16-12.32,7.06-24.92,13.8c-16.83,9-34.16,17.46-52.28,25.39-17.08,14.44-34.89,21.88-54.3,37.51-3.42,1.39-6.86,2.84-8.36,2.06C1069.56,1090.69,1073,1083.39,1074.35,1079.35Z"/><path class="b" d="M1065.72,1017.52c-4.41,6-11.66,14.81-18.11,21.76s-12.27,11.84-14.36,9.13a63.15,63.15,0,0,1-3.33,5.64c-1.18,1.87-2.46,3.69-3.83,5.51s-2.81,3.6-4.3,5.41-3,3.69-4.57,5.57-3.2,3.75-4.79,5.74-3.2,4-4.8,6.12a129.57,129.57,0,0,0-9.22,13.72A351.14,351.14,0,0,0,969.87,1138l-3.32,5.77-.42.73-.45.84-.9,1.7c-.6,1.11-1.2,2.29-1.8,3.5a155.53,155.53,0,0,0-6.93,15.93,124.42,124.42,0,0,0-5.59,20.16c-.34,2-.69,3.85-.94,5.92s-.46,4.2-.63,6.32-.19,4.52-.22,6.79.15,4.8.29,7.2a93.39,93.39,0,0,0,2.5,15.34,78.35,78.35,0,0,0,2.37,7.88c.47,1.32.9,2.63,1.45,3.92s1.12,2.58,1.7,3.87,1.2,2.55,1.83,3.82,1.36,2.49,2.07,3.73c1.41,2.51,3,4.78,4.58,7.1.8,1.16,1.63,2.19,2.47,3.28s1.7,2.18,2.56,3.14c1.72,2,3.52,4,5.3,5.7a104.13,104.13,0,0,0,10.9,9.41,119.71,119.71,0,0,0,10.6,7c3.48,2.07,6.77,3.76,10,5.36s6.36,2.93,9.33,4.11c1.52.63,3,1.17,4.42,1.73s2.72,1,4.1,1.46c2.71.94,5.42,2,8.19,2.75s5.51,1.71,8.31,2.45,5.59,1.46,8.41,2.15a245.94,245.94,0,0,0,34.34,5.46,277.36,277.36,0,0,0,68.86-2.75,334.69,334.69,0,0,0,65.25-17.87,380.73,380.73,0,0,0,59.91-29.32c2.39-1.4,4.74-2.87,7.08-4.35l3.52-2.21,3.48-2.28c2.31-1.52,4.63-3,6.9-4.64s4.61-3.15,6.73-4.74c4.32-3.18,8.7-6.33,13-9.55l12.54-9.86c8.8.21-4.22,11.41-9.68,18.5q-5.29,3.81-10.33,7.59c-.85.63-1.69,1.25-2.52,1.88l-2.62,1.88-5.17,3.73c-3.46,2.41-6.82,4.86-10.22,7.17q-2.55,1.74-5.05,3.48l-5,3.38a462.27,462.27,0,0,1-40.49,24.41,274.54,274.54,0,0,1-43.84,18.82c-1.94.66-3.92,1.26-5.92,1.83l-6,1.71-6.16,1.52-3.12.73-3.17.65c-2.12.42-4.26.82-6.41,1.22s-4.37.67-6.58,1l-3.32.46-3.38.35c-2.27.22-4.54.45-6.84.61a210.43,210.43,0,0,1-75.23,3.3,222.71,222.71,0,0,1-39.23-8.94l-4.83-1.59c-1.6-.56-3.19-1.18-4.78-1.77l-4.76-1.82-1.2-.47-1.31-.54-2.62-1.1c-3.57-1.52-7.34-3.26-11.27-5.25l-3-1.58-1.51-.81-1.57-.89-3.12-1.8-3.24-2a131.37,131.37,0,0,1-13.46-9.73c-2.26-1.82-4.67-4-6.93-6.15-1.18-1.14-2.34-2.32-3.48-3.5s-2.29-2.45-3.43-3.75a107.54,107.54,0,0,1-12.55-17.61c-.93-1.64-1.83-3.3-2.68-5s-1.59-3.37-2.33-5.08-1.47-3.41-2.12-5.14-1.2-3.46-1.76-5.2-1.1-3.51-1.53-5.23-.81-3.45-1.16-5.18l-.52-2.59-.25-1.29-.18-1.25c-.23-1.66-.44-3.33-.63-5-.42-3.41-.49-6.45-.58-9.62l0-2.35c0-.78,0-1.48.06-2.23.05-1.46.12-2.93.2-4.39a123.53,123.53,0,0,1,5.61-29.26,160.49,160.49,0,0,1,8.53-21.28l1.11-2.3,1.11-2.17,1.11-2.17,1.11-2,1.1-2,1-1.73c.65-1.13,1.31-2.26,2-3.39l3.88-6.72c1.29-2.22,2.65-4.37,4-6.54s2.6-4.32,3.89-6.46l3.94-6.28c10.07-11.66,23.36-28.55,38.58-46.63,1.87-2.29,3.83-4.55,5.79-6.83l5.91-6.94c4.06-4.56,8.05-9.33,12.22-13.92,8.21-9.35,16.69-18.5,24.88-27.47,2.23-1.06,3.8.42,4.69,2.82A17.47,17.47,0,0,1,1065.72,1017.52Z"/><path class="b" d="M1213.76,1270.77l-1.5-3.58c17.66-9.14,34.9-17.77,51.21-27.77a260.66,260.66,0,0,0,23.54-16q5.43-4.35,10.68-8.88c1.77-1.49,3.4-3.1,5-4.7s3.26-3.23,4.85-4.87c-1.21,8.45-18.06,23.57-25.85,33.76-12.59,7.8-23.76,14.64-34.74,20.19S1225.26,1268.68,1213.76,1270.77Z"/><path class="b" d="M1344.79,1218.1c-.86-.27-1.07-1-.75-2a16.39,16.39,0,0,1,2.3-4,113.24,113.24,0,0,1,10.37-11.71c4.09-4.39,8.71-8.88,12.65-12.74s7.27-7.06,9.19-8.66a63,63,0,0,1-6.72,10.19c-1.24,1.61-2.65,3.16-4.08,4.7s-2.9,3-4.4,4.58l-4.54,4.61c-1.58,1.54-3.17,3.09-4.75,4.7s-3.14,3.25-4.67,5c-.77.86-1.53,1.74-2.29,2.64S1345.55,1217.17,1344.79,1218.1Z"/><path class="b" d="M1339.08,435.48a50.42,50.42,0,0,1-9.65,3.2c-2.22.57-4.68,1.06-7.32,1.59s-5.46,1-8.37,1.38c-11.66,1.59-24.78,2.21-35.6-1.25l-9.09,2-9.24,1.92-4.69,1-2.35.46-2.28.51c-3,.68-6.14,1.32-9.25,1.95l-4.69.92-2.36.45-2.35.52-9.48,2c-6.43,1.24-12.79,2.82-19.32,4.3-26,6.1-53,13.88-79.21,25.38,1.1-3.19-5-2.16-12.08.21s-15,6.3-17.92,8.45c3.29,3.38,14.75-9.47,13.32-2.45-33.32,15.41-65.73,28.19-85.44,41.48-2-1.38,2.64-3.73,2.12-5.29-1.22-1.09-7.43,2.28-11.94,4.22.07-1.44,8.22-5.82,14.72-8.63s11.47-4,4.89.8c7-3.07,7.48-5.21,15-8.34-15.23,5,1.6-8.81-22.07,3.13,0-2.1,11.34-5.77,10.52-7.74,7.32-2.09,9,.81,14.39.51a110,110,0,0,1,13.6-7.42c5.93-2.81,12.54-5.93,18.58-8.66,11.92-5.59,21-10,13.64-10.44,7.74-5.28,22.37-8.43,37-11.41,3.66-.75,7.29-1.53,10.81-2.36s7-1.6,10.2-2.56A76.71,76.71,0,0,0,1162,462a29.35,29.35,0,0,0,7-4.08l39-9.4c6-1.58,12.11-2.86,18.14-4.27l4.52-1.06c1.5-.36,3-.72,4.56-1l9.29-1.87,4.72-1c1.59-.31,3.15-.65,4.85-.91,3.34-.54,6.75-1.15,10.23-1.62,7-1,14.24-1.82,22-2.37l5.89-.38c2-.12,4-.16,6.06-.23s4.15-.15,6.27-.15l6.48,0c2.19,0,4.42.06,6.69.16s4.58.18,6.93.3C1329.18,434.57,1334,434.87,1339.08,435.48Z"/><path class="b" d="M1006.57,536.66c-8.08,2.81-16.93,3.85-10.32-2.19C1004.54,530.68,1005.74,533.51,1006.57,536.66Z"/><path class="b" d="M982.15,552.73c-11.38,6.2-11.3,1.62-20.22,5.51C965.86,552.5,982.49,548.87,982.15,552.73Z"/><path class="b" d="M926.32,569.73c.47,5.14-21.25,9.78-32.23,18.48C893.52,583.74,914.58,576,926.32,569.73Z"/><path class="b" d="M871.87,599c-5.36,4.95-6.84,9.32-20,15.42C854.58,609.82,861.09,604.72,871.87,599Z"/><path class="b" d="M530.77,703.42a4.59,4.59,0,0,1-4.06-2.25c-.74-1.39-.82-3.33-.31-5.82C527.09,698.7,531.81,697.84,530.77,703.42Z"/><path class="b" d="M1229.76,644.66l4.9-.54,2.46-.29c.82-.1,1.64-.2,2.44-.24q4.83-.33,9.64-.79c6.31-.33,12.57-.88,18.51-1.16q2.25-.17,4.47-.39c1.34-.08,2.63-.16,3.93-.28s2.61-.18,3.9-.33l1.94-.21,1.94-.18c2.58-.33,5.14-.6,7.68-1.06s5.07-.92,7.56-1.45a160.68,160.68,0,0,1,16.93,3.22,158.69,158.69,0,0,1,16.31,5,135.48,135.48,0,0,1,27.31,13.63A120.33,120.33,0,0,1,1377,673.5c2.18,2.07,4.13,4,6,5.9s3.9,4,6,6.3c-.23,4.84,1.49,9.3,3.16,14.9.46,1.36.81,2.84,1.24,4.3s.72,3,1,4.65a37.11,37.11,0,0,1,.41,10c-.82,8.12-1.93,16.8-3.53,25.84s-3.65,18.36-6.14,27.66l-1,3.5-1.17,3.86-1.11,3.88c-.36,1.3-.85,2.63-1.26,4-.87,2.66-1.59,5.3-2.61,8l-1.39,4.1-.67,2.06-.78,2.09c-4,11.16-8.57,22.9-13.92,35.22-10.64,24.66-23.9,51.48-38.56,80.1l-22.39,43.64c-7.28,14.27-14.29,28.06-21.21,41.18l-7.46,10.4c-2.48,3.43-5,6.7-7.45,10.07-8.79,14.79-16.85,29.14-25.63,42.85s-18.28,26.79-29.82,38.23l-4.53,4.33-2.29,2.18-2.2,1.94c-2.92,2.6-6,5-9.23,7.47A159.77,159.77,0,0,1,1170,1135a142.88,142.88,0,0,1-44.32,15,108.92,108.92,0,0,1-20.65,1.24,87.89,87.89,0,0,1-17.81-2.6c-.66-.21-1.32-.4-2-.58l-1-.27-1-.33c-.64-.22-1.28-.43-1.92-.62l-1.84-.72c-1.25-.4-2.39-1-3.58-1.47l-.44-.18-.2-.13-.2-.11c-.06,0-.06-.06-.09-.09l-.08-.08s0,0,0,0h0s0-.08,0,.07l-.12.32q-1,2.52-2.07,5l-1.08,2.5-.92,2.2q-.9,2.13-1.86,4.25l-1.89,4.11c-1.09,2.45-2.26,4.87-3.49,7.27-1,2.13-2.08,4.21-3.23,6.28l-.43.77-.36.68-.73,1.36c-.5.91-1,1.8-1.55,2.69a110.54,110.54,0,0,1-10.67,15.59,44.13,44.13,0,0,1-7.3,7.14,10,10,0,0,1-1.07.73,4.56,4.56,0,0,1-.63.39l0,0h0l.7-.38h0l.21-.09.3-.11.26-.08.17,0,.47-.15a9.79,9.79,0,0,1,1.26-.3l.38-.07.65-.14c.45-.09.92-.17,1.42-.23.34,0,.65-.06,1-.08s.92-.13,1.37-.17c.9-.08,1.8-.12,2.67-.11,1.09,0,2.26-.09,3.36,0,.56,0,1.11,0,1.66.08.24,0,.6,0,.94,0l1,0c1.36.07,2.69.19,4,.36.6.1,1.46.16,2.24.24s1.57.19,2.35.3,1.55.24,2.32.38l1.15.22,1.34.21q2.71.43,5.35,1l1.32.32.65.16.76.16c1,.21,2,.44,3.06.68q3,.74,6,1.62c2.28.59,4.6,1.23,6.87,1.93s4.34,1.43,7.13,2.27q3.92,1.24,7.76,2.64c1.29.47,2.47.93,4.08,1.48l3.89,1.39a1,1,0,0,0,.17,0l.3-.21a12.38,12.38,0,0,0,1.73-2l3.43-5.11c.58-.85,1.12-1.71,1.72-2.55l1.82-2.5c1.22-1.67,2.38-3.35,3.63-5,2.58-3.27,5-6.57,7.73-9.76,1.36-1.6,2.59-3.22,4-4.8l4.15-4.74c5.68-6.28,11.45-12.5,17.72-18.6,24.78-24.5,53.86-48.11,86.75-75.15,16.08-13.15,29.52-28.95,49.45-38.29,16-17,39.25-36,62.17-54.89,2.26-1.36,4.58-2.78,7.22-4.43l189.73-119-210-94.81a190.12,190.12,0,0,0-28.87-10.39,193.58,193.58,0,0,0-31-5.59,201.25,201.25,0,0,0-30.38-.48,206.49,206.49,0,0,0-27.81,3.58,239.46,239.46,0,0,0-46,14.08,295.82,295.82,0,0,0-34.89,17.41c-5.09,3-9.84,5.89-14.27,8.75s-8.62,5.7-12.45,8.41l-1.36,1-1.22.89-2.44,1.78-4.79,3.53c-3.16,2.35-6.25,4.69-9.24,7-12,9.24-22.57,18.06-30.84,25.92-29.73,13.89-51.55,33.74-79.59,51.36-38.9,24.44-81,50.56-124.83,77.55l-66.77,41-34.24,21-17.84,11.09-9.14,5.8c-3,1.91-6.16,4-9.24,6-12.38,8.1-25,16.64-37.75,26s-25.56,19.4-38.22,30.33a447,447,0,0,0-37.08,35.79l-4.47,4.85c-1.49,1.6-2.92,3.35-4.38,5l-4.33,5.07c-1.45,1.71-2.86,3.33-4.34,5.21-5.92,7.28-11.47,14.79-16.73,22.46S572.62,1217,568,1225.1s-9,16.25-12.89,24.69-7.61,17-10.86,25.84-6.16,17.8-8.67,27-4.55,18.56-6.21,28.06c-.77,4.82-1.52,9.49-2.07,14.47l-.46,3.87c-.13,1.27-.23,2.51-.35,3.77-.21,2.51-.43,5-.59,7.51a277.07,277.07,0,0,0-.27,29.79,268.8,268.8,0,0,0,3,29.13c4.36,13.55,7.88,25.2,12.12,37.17.54,1.49,1.09,3,1.63,4.49.29.76.57,1.52.85,2.28s.61,1.61.92,2.41c.49,1.28,1,2.42,1.44,3.58s1,2.37,1.44,3.46c2,4.54,4,8.82,6.16,12.84.66,2.73,1.35,5.61,2.07,8.62.3,1.27.61,2.56.92,3.88.23,1.14.54,2.38.72,3.36a41.55,41.55,0,0,1,.76,4.66l0,.19v.11a1.47,1.47,0,0,0,0,.21c0,.06,0,.18,0,.17h0c2.06-.36,4.15-.69,6.25-1,1.8-.32,3.57-.61,5.38-.87s3.62-.49,5.45-.68c1-.09,1.68-.21,2.48-.31l2.35-.28c12.85-1.33,22.47-1.22,29.2-.47s10.45,2.11,11.42,2.57-.73-.16-4-3.39l-.13-.13-.06-.07c9.47,9.39,2.62,2.6,4.73,4.7h0l0,0-.07-.07s-.07-.09-.09-.11l0,0-.09-.11-.19-.24a5.36,5.36,0,0,1-.32-.44c0-.08-.3-.42-.46-.67s-.33-.53-.47-.78-.36-.63-.56-1-.39-.76-.55-1.13a52,52,0,0,1-4.06-13.84A78.34,78.34,0,0,1,613,1472a56.94,56.94,0,0,1,1.09-8.85v0q.72-2.64,1.43-5.27l.05-.16.1-.28c.08-.24.16-.45.24-.65l.12-.27.06-.12.09-.23c.14-.32.27-.61.41-.89s.64-1.29,1-1.92.87-1.5,1.35-2.19l.37-.52a1.73,1.73,0,0,0,.15-.22l0,0-.18.17a3.63,3.63,0,0,1-2.76.29,11,11,0,0,0,0-5.41c-.38-1.89-1.19-4-1.55-6.1,0-.25-.13-.51-.19-.76a3.57,3.57,0,0,0-.1-.73c0-.12-.07-.25-.08-.37a2,2,0,0,0,0-.34c0-.22-.08-.46-.09-.67a10.81,10.81,0,0,1,0-1.14v-.25a.27.27,0,0,1,0-.22,1.32,1.32,0,0,0,.06-.39c0-.14.1-.18.11-.28s0-.19.1-.2a.17.17,0,0,0,.1-.11l.1,0s.06,0,0,0l-.25-.05-.52-.13-1.92-.51c-.3-.08-.61-.18-.92-.28s-.68-.25-.87-.3c-.93-.27-2.13-.8-2.72-1a15.94,15.94,0,0,1-2.47-1.31l-129.68,35,18.78,14.9c1.53,1.21,3.05,2.42,4.58,3.58l4.6,3.39c3.06,2.22,6.09,4.38,9.12,6.46s6,4.05,9,5.93,6.08,3.5,9.12,5.07a113.36,113.36,0,0,0,18.28,7.61c38.36,22.57,80.3,41.21,124,58.26,2.73,1.07,5.45,2.19,8.21,3.22l8.29,3.08,16.65,6.25,16.85,6c5.63,2,11.25,4.16,17,6.07s11.41,4,17.13,6l4.29,1.55,4.33,1.47,8.67,3,8.68,3c2.9,1,5.79,2.11,8.73,3.07q8.76,3,17.58,6.11c38.12,13.39,77.16,27.4,118.79,36.43,7.15.7,14.25,1.41,21.3,2.18,3.52.35,7,.81,10.55,1.11l10.52,1,10.48,1,5.24.51c1.74.17,3.49.27,5.24.41l21,1.57c3.49.3,7,.44,10.51.61l10.54.49,10.59.44c3.54.13,7.09.12,10.65.17,7.12,0,14.27.11,21.49,0s14.49-.52,21.83-.9c.71-1.51-.82-3.65,4.54-3.87,8.55.45,18.35-.09,28.91-1,5.27-.49,10.74-1.24,16.33-2l8.49-1.13c2.85-.39,5.73-.73,8.63-1.22,5.79-.91,11.66-1.81,17.56-2.65l8.85-1.2q4.43-.67,8.84-1.26c5.88-.79,11.74-1.44,17.54-1.91s11.5-1,17.11-1.13q6.54-1.69,13-3.45c4.29-1.22,8.54-2.55,12.78-3.84,8.47-2.62,16.91-5.19,25.37-8.19,17-5.69,34.14-11.95,52.58-18.56q6.9-2.54,14.08-5.07l7.26-2.54,7.51-2.69c10.24-3.67,21.31-7.6,33.4-12.16s25.22-9.75,39.54-16.24a375.73,375.73,0,0,0,46.36-24.86l8.84-9c3.16-3.08,6.46-6.58,9.94-10.09,1.76-1.73,3.46-3.63,5.24-5.5s3.61-3.77,5.36-5.75l5.35-6,1.36-1.53,1.31-1.56,2.64-3.14a383.38,383.38,0,0,0,38.77-55.58,457.1,457.1,0,0,0,27.78-57.64c1-2.3,1.8-4.6,2.64-6.88l2.49-6.81c1.63-4.5,3.23-8.93,4.71-13.29,2.69-8.8,5.22-17.22,7.2-25.16,2.16-5.88,4.45-12.24,6.85-18.95,1.25-3.34,2.28-6.83,3.42-10.36s2.26-7.15,3.42-10.8q.87-2.74,1.75-5.52c.55-1.85,1-3.73,1.59-5.61,1.06-3.76,2.13-7.56,3.21-11.36,2.27-7.59,4.06-15.32,6.06-22.93,7.74-30.45,13.75-59.63,20-77.63,1.8-16.18,3.3-31.81,3.88-48.57.09-2.1.17-4.21.25-6.35s0-4.28,0-6.46q0-6.52-.12-13.37c-.06-2.29-.06-4.61-.19-7s-.29-4.72-.44-7.14q-.48-7.23-1.13-14.94c.18-3.08.31-5.72.62-8.22s.62-4.84.92-7.28.55-5,.68-7.9c0-1.45.1-3,0-4.66s-.18-3.44-.37-5.37a78,78,0,0,1-4-11.77c-.63-2.31-1.22-4.8-1.81-7.45s-1.29-5.44-1.92-8.39c-.15-4.36-.37-8.9-.65-13.58-.08-1.17-.14-2.35-.25-3.53s-.23-2.37-.35-3.57q-.39-3.6-.79-7.29c-.57-4.93-1.14-10-1.9-15.14s-1.73-10.37-2.69-15.69c-.5-2.67-1-5.35-1.49-8.06s-1.2-5.39-1.81-8.12q-1.86-8.16-3.88-16.53c-1.49-5.53-3.07-11.1-4.68-16.71-.82-2.8-1.65-5.61-2.47-8.43s-1.85-5.58-2.77-8.39c-1.89-5.6-3.75-11.23-5.78-16.82s-4.26-11.11-6.44-16.64-4.55-11-6.93-16.39c-1.2-2.7-2.4-5.4-3.6-8.08l-1.8-4c-.61-1.34-1.28-2.64-1.92-4q-3.87-7.87-7.76-15.56c-.65-1.28-1.29-2.56-1.94-3.83s-1.37-2.5-2-3.75l-4.11-7.41c-1.37-2.44-2.74-4.86-4.09-7.27l-2-3.59c-.69-1.18-1.42-2.34-2.12-3.5q-4.27-6.94-8.47-13.58c0-5.43-4.38-12.18-8.73-19.07-2.2-3.44-4.35-6.94-6.16-10.27a28,28,0,0,1-3.58-9.48,675.31,675.31,0,0,0-68.8-83.17,864.82,864.82,0,0,0-81-73.21c-28.42-22.67-57.92-43.67-87.78-63.54s-60.09-38.63-90.27-57a97.31,97.31,0,0,0-6.07-9c-2.29-2.94-4.77-5.87-7.36-8.78-5.19-5.79-10.73-11.68-16-17.06a146.58,146.58,0,0,1-13.81-16c-3.71-5.08-6.22-10-6.65-14.74a203.33,203.33,0,0,0-19.65-10.43c-6.8-3.37-12.77-6.67-14.76-9.72,1.74-1.55.48-3.33-1.48-5.09s-4.63-3.51-5.59-5.22c-5-2.42-10.65-5-16.79-7.82s-12.86-5.35-19.91-8.13l-5.35-2.08-5.51-1.95c-3.71-1.3-7.5-2.59-11.34-3.87l-5.81-1.91-2.93-.95-3-.87c-4-1.14-8-2.27-12-3.36s-8-2.16-12.09-3.13-8.11-1.79-12.15-2.61-8-1.59-12-2.3-7.94-1.18-11.83-1.68a208,208,0,0,0-42.61-1.56c-6.37,2.54-13,5.11-18.78,7.76s-10.68,5.42-13.64,8.5-3.93,6.23-1.91,9.64a18.49,18.49,0,0,0,5.4,5.31,65.41,65.41,0,0,0,10.63,6c-1.9,6.55.16,13.75,2.39,20.8s4.69,13.93,3.88,19.88-4.8,10.95-15.24,14.27a82.82,82.82,0,0,1-9.1,2.22c-3.47.7-7.4,1.3-11.83,1.79q-3.33.36-7,.65l-3.82.27-4,.32c-5.52.41-11.59.7-18.28.89-8.44,5.86-17.12,10.75-22.57,16.19s-7.65,11.7-3.39,19.9a143.56,143.56,0,0,1,17.15,6.29c2.65,1.14,5.23,2.27,7.83,3.49l7.9,3.77a236.54,236.54,0,0,0,40.87,14.8c-7.8,1.76-.72,3.19-.54,6.42,4.23.64,9,1.15,13.82,1.66s9.63,1.25,14,2a58.5,58.5,0,0,1,11,2.63c2.79,1.1,4.55,2.38,4.76,3.9-2.62-.48-5.1-.94-7.46-1.26s-4.61-.54-6.75-.73c-4.28-.38-8.12-.56-11.64-.6h-2.58l-2.48.12c-1.62.09-3.17.21-4.67.35-3,.29-5.81.65-8.53,1.05s-5.34.78-8,1.3-5.38,1-8.24,1.39-5.88.76-9.18,1l-5.16.35c-1.81.11-3.69.2-5.68.24a63.11,63.11,0,0,0-11.19,4.55,36.32,36.32,0,0,0-7.56,5.37,40.38,40.38,0,0,0-8.47,11.64c-2,3.91-3.78,7.76-6.51,11.29a30.88,30.88,0,0,1-12.4,9.63c-9.74-1.44-11.36-2.34-22.36-.2-2.86,4.48-.72,7.17-.21,9.57a3.39,3.39,0,0,1-1.22,3.56,14,14,0,0,1-3,2,48.44,48.44,0,0,1-5.34,2.45,17.28,17.28,0,0,0,5.62,2.43,34.2,34.2,0,0,0,6.64,1c2.4.14,5,.12,7.8.06s5.84-.2,9.12-.08c2.82,3.37,7.2,6.12,12.64,8.4,2.72,1.11,5.72,2.25,8.91,3.31s6.6,2,10.15,2.92,7.24,1.9,11,2.81,7.65,1.8,11.53,2.7l11.67,3,5.77,1.48c1.91.51,3.8,1.11,5.67,1.67L925,583c2.75.29,5.47.55,8.14,1q8,1.18,15.74,2.45,7.68,1.53,15,3.11c1.23.27,2.46.51,3.67.81l3.61.93,7.12,1.85,7,1.87,6.83,2.1,6.72,2.1c2.22.71,4.44,1.37,6.6,2.18l12.89,4.59c2.13.73,4.21,1.58,6.29,2.4l6.22,2.45,6.17,2.41c2,.81,4.06,1.72,6.08,2.56q6.06,2.58,12.08,5,6,2.7,11.92,5.28c2,.87,4,1.66,6,2.58l5.94,2.7,6,2.64c2,.86,4,1.7,6,2.65q6,2.75,12.14,5.35c2.07.84,4.09,1.8,6.15,2.71s4.12,1.82,6.22,2.71,4.21,1.77,6.34,2.64l6.38,2.78c-.39,2,.89,4.26,3.22,6.47a30.9,30.9,0,0,0,4.25,3.29c1.61,1.12,3.39,2.27,5.31,3.35s4,2.14,6.06,3.13,4.29,1.87,6.37,2.83a94.06,94.06,0,0,0,11.92,4.35c1.9,2.87,1.14,5.37,1,8s.33,5.36,4.63,8.69c9.64,1.55.23-6.13,1.75-9.47a112.84,112.84,0,0,1,11,4.31c4.09,2,8.52,4.33,12.77,6.77,1.06.62,2.14,1.21,3.14,1.87s2,1.31,3,2c1.92,1.32,3.73,2.63,5.38,3.9,3.28,2.55,5.89,4.93,7.19,7a82.36,82.36,0,0,1,8.65,3.76q2.28,1.14,4.67,2.43c1.56.9,3.13,1.88,4.73,2.89,3.21,2,6.53,4.19,9.93,6.46s6.65,4.88,10.06,7.38l5.13,3.79,5,4,5,3.88c1.67,1.29,3.41,2.5,5,3.81,6.46,5.18,13.06,9.75,19,13.75a62.32,62.32,0,0,0,3.74,8.9c.81,1.53,1.58,3.2,2.49,4.86s1.9,3.38,3,5.13,2.25,3.53,3.52,5.36l1,1.39.94,1.43q.95,1.43,2,2.91c1.37,2,2.83,4,4.41,6,.78,1,1.6,2.07,2.44,3.12s1.62,2.2,2.48,3.31c3.79-2.57,9-.44,14.13,1.21,2.87,2.74,5.38,5.65,7.84,8.48s4.81,5.62,7,8.41,4.15,5.7,6.1,8.49,3.88,5.52,5.52,8.37a289.32,289.32,0,0,1,17.3,33.28q1.85,4.17,3.7,8.35c.62,1.39,1.28,2.76,1.87,4.17l1.77,4.26c2.35,5.7,5,11.32,7.5,17.3q1.93,4.44,4.1,9c.75,1.49,1.41,3.05,2.12,4.61s1.43,3.12,2.18,4.7c1.49,3.17,3.17,6.35,4.81,9.65s3.31,6.71,5.16,10.17c.28,2.16.77,4.38,1.17,6.77s.91,4.87,1.49,7.44,1.24,5.22,2,8,1.33,5.59,2.09,8.49,1.55,5.88,2.4,8.9l2.35,9.3,2.52,9.56c.76,3.25,1.54,6.53,2.31,9.83.29,34.68,1.76,76,.81,118.6a1041.23,1041.23,0,0,1-10.1,126A55.57,55.57,0,0,0,1405,1273c-1.57,3-3.15,6.15-4.51,9.44s-2.55,6.72-4,10.09-2.64,6.88-3.9,10.37c-.61,1.78-1.31,3.42-2,5.12s-1.34,3.28-2,4.87c-2.7,6.31-5.5,11.79-8.67,16l-1.88,2.42c-.63.77-1.26,1.46-1.89,2.19l-.93,1.08c-.31.35-.63.64-.94,1l-1.85,1.9-1.82,1.65-.89.81-.89.69c-.58.45-1.15,1-1.72,1.37s-1.12.74-1.66,1.12a11.82,11.82,0,0,1-1.58,1c-.51.26-1,.64-1.49.83s-1,.42-1.4.65l-.33.17-.33.1-.63.2a16.42,16.42,0,0,1-2.24.64c-.33.08-.65,0-.94.09a4.85,4.85,0,0,1-.88.09,5.6,5.6,0,0,0-.86.11,8.56,8.56,0,0,0-1,.19l-.48.13-.59.15a8,8,0,0,0-1.14.39,12.11,12.11,0,0,0-1.36.47l-.66.29c-.27.09-.53.19-.79.3-.53.21-1,.44-1.54.7s-1.19.5-1.77.79c-.31.14-.55.3-.9.45l-1,.46c-.69.32-1.28.67-2,1-1.52.7-2.88,1.51-4.61,2.37-3.19,1.74-7,3.76-11.1,6.12-2.09.68-2.17,1.66-2.17,2.63a3.59,3.59,0,0,1-.2,1.45,2.58,2.58,0,0,1-1.64,1.26l-25.72,7c-5,1.3-10,2.67-15.14,4.09-2.56.75-5.16,1.37-7.78,2l-7.88,2-7.93,2c-2.66.66-5.35,1.22-8,1.83-5.37,1.18-10.72,2.45-16.07,3.55-10.76,2-21.38,4.1-31.73,5.32q-5.52.72-11,1.25c-3.68.26-7.35.45-11,.63l-11,.46-11,.13c-3.65.05-7.3.12-11,.24s-7.31.09-11,.23-7.33.32-11,.61-7.37.48-11.07.9c-34.46,3.7-60.67,7.88-82.4,17.93a111.66,111.66,0,0,0-21.33.37c-7.32.56-14.83,1.41-22.37,2.11a159.1,159.1,0,0,1-22.45.34,68.44,68.44,0,0,1-10.84-1.61,63.28,63.28,0,0,1-10.36-3.27c-5.63.7-5.1,4.64-15.26,2.62-7.17-.89-6.86-3-10.36-4.46-.57,4.78,3.38,4.32-1.44,7.59,5.19.31,9.68.68,13.76,1s7.78.76,11.41.89,7.14.26,10.87.2c1.87,0,3.79-.1,5.79-.22,1-.06,2-.13,3.08-.22l3.25-.38c4.87,1,6.71,2.7,14.38,3.13,5.05-.3,10.22-.86,15.47-1.36l7.94-.75c2.67-.26,5.35-.44,8.07-.79q8.15-.94,16.54-1.84l4.21-.44,4.24-.53,8.59-1.06,8.7-1c2.92-.29,5.87-.77,8.83-1.13,5.93-.79,11.94-1.43,18-2.21s12.25-1.62,18.5-2.33l2.35-.26,2.36-.33,4.73-.63q4.74-.62,9.56-1.18c24.69-3.07,49.8-4.57,72.92-7.29,5.77-.74,11.41-1.56,16.88-2.38,2.73-.44,5.45-.79,8.07-1.35s5.22-1.07,7.75-1.63,5-1.15,7.44-1.76,4.78-1.21,7-2a134.29,134.29,0,0,0,12.83-4.85c8-1,5.62,4.26,11.65,4.28a60.18,60.18,0,0,1,12.86-4.48c2.16-.53,4.36-.88,6.54-1.33s4.41-.8,6.66-1.15c4.51-.71,9.15-1.35,14-2.23,2.33-.47,4.73-1,7.1-1.63,1.15-.31,2.32-.65,3.49-1s2.38-.76,3.49-1.2c6.53-2.42,11.49-5.93,16.07-9.36s8.72-6.78,13-8.93,7.45-3.63,10-4.66c.32-.13.65-.25,1-.36l.83-.34.84-.29.44-.13.34-.14c.47-.17,1-.31,1.47-.45a9.57,9.57,0,0,1,1.28-.37,17.39,17.39,0,0,0,5.92-3.06,38.34,38.34,0,0,0,8.25-9.27c3.07-.63,6-3,8.74-6a82.83,82.83,0,0,0,7.91-11.54c5-8.44,9.49-17.22,13.74-16.64a7.83,7.83,0,0,1-.14,3.22,14.83,14.83,0,0,1-1.35,3.3,53.28,53.28,0,0,1-4.62,6.74c-3.42,4.4-6.76,8.66-6.19,13.19.89-1,1.8-2,2.71-3.12s1.81-2.19,2.72-3.15c1.81-2,3.62-3.59,5.42-3.92a136.21,136.21,0,0,0-1.68,20.37c-.08,6,.15,11.69,0,17.18a71.51,71.51,0,0,1-2.06,16.56c-.37,1.33-.8,2.68-1.28,4.09s-1.07,2.64-1.69,4c-.67,1.25-1.37,2.62-2.18,3.91l-1.28,1.88c-.23.32-.44.66-.69,1s-.51.61-.78.92c-4.28,3.12-8.84,6.11-13.63,9-1.25.71-2.37,1.48-3.63,2.19s-2.48,1.44-3.7,2.17-2.55,1.41-3.78,2.13-2.58,1.4-3.82,2.12c-5.14,2.8-10.22,5.59-15.41,8.29l-15.22,8.09-5.63,1.25-5.83,1.26c-4,.84-8,1.7-12.28,2.5l-12.68,2.52-6.43,1.29-6.52,1.16-13.18,2.41-3.33.62-3.35.53-6.75,1.08-13.62,2.25-13.84,2c-9.25,1.46-18.68,2.47-28.16,3.7-4.73.66-9.51,1.09-14.29,1.59l-14.41,1.53-14.52,1.21c-4.85.41-9.7.9-14.58,1.14-9.76.59-19.53,1.36-29.33,1.67-4.9.2-9.8.48-14.69.65l-14.7.33-7.33.2c-2.45,0-4.89,0-7.33,0l-14.61.06c-2.43,0-4.86,0-7.28-.06l-7.27-.13c-4.83-.1-9.65-.08-14.45-.26l-14.34-.53-7.13-.23-7.08-.41c-37.69-2-73.72-5.56-106.38-9.92-7.77-2.43-15.15-5-22.55-7.24s-14.71-4.46-22.3-6.53l-5.74-1.52-2.92-.75-2.93-.81q-5.88-1.6-12.11-3.16c-8.35-2-17.09-4.31-26.68-6.55a111.22,111.22,0,0,0-17.22-10.72c-3.32-1.71-6.87-3.29-10.55-5s-7.5-3.34-11.49-4.95q-3-1.2-6.08-2.38l-3.11-1.17-3.12-1.24q-6.28-2.49-12.86-4.88l-6.61-2.38-6.61-2.53-13.4-5c-2.25-.79-4.45-1.69-6.66-2.57l-6.62-2.61c-4.39-1.75-8.79-3.41-13-5.21L667.23,1364c-4.07-1.82-8.07-3.56-11.82-5.51s-7.4-3.77-10.85-5.64-6.74-3.69-9.72-5.66a108.78,108.78,0,0,1-15.11-11.36c-5.71.41-13-1.68-21.12-5.16a102.24,102.24,0,0,1-12.39-6.45c-4.19-2.47-8.44-5.2-12.62-8.06l-61.21-41.91-44,62.77a204.13,204.13,0,0,0-26.89,54c-5.64,17.25-8.2,32.22-10.07,42,4.38,7.36,6.05,24.72,10.25,43.73,1.94,9.56,4.59,19.51,7.55,29.11l2.33,7.08c.79,2.33,1.67,4.59,2.5,6.83l1.25,3.31c.41,1.09.88,2.15,1.32,3.2l2.59,6.11c-.78.52-5.14-5.42-7.41-8.42-1.11-1.5-1.79-2.21-1.4-.88s1.89,4.68,5.42,11.17c6.56,12.22,8.68,11,13.29,16.52,1.21,3,2.8,6.18,4.37,9.38.78,1.6,1.65,3.18,2.52,4.75l2.54,4.62c1.6,3,3.32,5.84,4.58,8.41a33.16,33.16,0,0,1,2.64,6.66c2.49,2.55,4.78,4.78,6.91,6.76s4.29,3.63,6.24,5.15c1,.77,1.92,1.49,2.84,2.18s1.9,1.31,2.81,1.93c1.85,1.24,3.64,2.38,5.43,3.52s3.64,2.21,5.58,3.33l6.15,3.58c2.2,1.26,4.65,2.56,7.31,4l4.21,2.33,4.79,2.46c-2.12-.3-4.17-.53-6.25-.87s-4.2-.81-6.61-1.48a51.94,51.94,0,0,1-8.12-3c-1.51-.69-3.13-1.49-4.87-2.42a63.88,63.88,0,0,1-5.54-3.26,137.64,137.64,0,0,1-11.86-8.64c-1.68-1.37-3.24-2.7-4.71-4s-2.74-2.55-4-3.76c-2.42-2.43-4.62-4.64-6.38-6.79s-3.35-4.13-4.77-6-2.62-3.74-3.78-5.55l-3.38-5.42c-1.12-1.82-2.15-3.71-3.34-5.68s-2.48-4.06-3.81-6.36c-1.1,1.31.19,4.8.05,5.85s-2-.29-8.46-9.15c.24-3.2-1.11-7.26-3.48-11.9-1.21-2.32-2.46-4.84-3.93-7.45l-2.24-4-2.21-4.22a118,118,0,0,1-7.81-17.76,67.45,67.45,0,0,1-2.18-8.76,33.84,33.84,0,0,1-.31-8,123.38,123.38,0,0,0,6,16.6,42.5,42.5,0,0,0,5.82,9.64,217.27,217.27,0,0,1-20.82-84.57c0,8.09-.07,19.26-1.23,7.61a206.91,206.91,0,0,0,4.38,48.89,213.94,213.94,0,0,0,15.1,45.59,209.79,209.79,0,0,0,25.47,41.7,201.05,201.05,0,0,0,36.52,36,192.31,192.31,0,0,0,47.35,26.4c1.08.42,2.15.85,3.24,1.24l3.29,1.12q3.3,1.11,6.62,2.14c1.12.34,2.2.69,3.35,1l3.48.93c2.32.6,4.64,1.19,7,1.68a176.79,176.79,0,0,0,29.34,4,171.09,171.09,0,0,0,32.7-1.43,155.31,155.31,0,0,0,37-10.06,147.07,147.07,0,0,0,38.22-23c3-2.56,5.89-5.22,8.72-8l1-1,.94-1,1.85-2c1.23-1.32,2.45-2.66,3.64-4l1.78-2,1.77-2.19c1.17-1.47,2.33-3,3.46-4.45,2.27-2.94,4.41-6.23,6.48-9.46s4-6.64,5.78-10.08,3.42-6.94,4.93-10.48,2.82-7.08,4-10.65c.58-1.76,1.2-3.6,1.68-5.33s.95-3.49,1.4-5.24a154.94,154.94,0,0,0,4.58-38.33,180.56,180.56,0,0,0-2.67-29.78,217.33,217.33,0,0,0-5.24-22.79c-1.9-6.7-3.88-12.68-5.8-18.15s-3.8-10.3-5.55-14.79q-4.08-10.17-8.16-20.39a56.55,56.55,0,0,1-4.33-18.63c-.07-1.63-.14-3.27-.09-4.92,0-.82,0-1.69.08-2.37l.08-1.37.17-1.48a88.37,88.37,0,0,1,2.34-12.68,14.94,14.94,0,0,0,3-2.87,46.29,46.29,0,0,0,2.92-4c1.95-2.93,4-6.34,6.24-9.56a129,129,0,0,1,6.32-15.15c2.24-4.62,4.44-8.78,6.21-12.63.23-.49.44-1,.64-1.45L762,1308c.48-1,.91-2,1.3-3s.72-2,1-3,.62-1.94.84-2.91a24.44,24.44,0,0,0,.09-11.5c-1.67,1.61-3.07,3.28-4.56,4.9s-3,3.22-4.23,4.87l-4,4.87c-1.12,1.53-2.29,3-3.36,4.59-2.21,3.09-4.28,6.32-6.26,9.66s-3.89,6.82-5.68,10.44a148.55,148.55,0,0,0-9.39,23.61,123.18,123.18,0,0,0-3.18,13.06c-.24,1.12-.39,2.23-.57,3.35s-.3,2.34-.44,3.16-.18,2-.32,3.06-.18,2.11-.19,3.2a70.16,70.16,0,0,1-5.86,10,24.93,24.93,0,0,1-3.69,4.06,18.44,18.44,0,0,1-4.65,3,57.49,57.49,0,0,1-2.13-25.84l.23-1.7c.06-.58.21-1.19.31-1.78.21-1.2.42-2.4.72-3.61s.53-2.42.88-3.64l.48-1.83c.17-.61.37-1.23.56-1.84a124.64,124.64,0,0,1,5.56-14.74,192.51,192.51,0,0,1,16.19-28.5c3.07-4.55,6.27-9,9.5-13.3,1.53-2.1,3.42-4.4,5.16-6.68.9-1.14,1.69-2.32,2.63-3.44s1.83-2.28,2.72-3.43c1-1.31,1.8-2.52,2.53-3.64s1.39-2.15,2-3.17,1.28-2,2-3.1a22,22,0,0,1,2.87-3.28,233.4,233.4,0,0,1,40.67-31.84c12.74-8,24.82-14.57,39-22.58,13.71-7.75,28.14-16,43-24.8s29.68-17.75,44.51-26.77c29.67-18,59.28-36.16,88.46-52.6,12.86-7.24,28.43-9.65,39.36-22.4-32.86,15.93-67.9,35.53-89.3,51.22-17.28,7.89-40,19.94-63.3,32.92-5.82,3.24-11.68,6.54-17.5,9.85l-17.2,9.88c-11.21,6.49-21.68,12.69-30.79,18.34A355.21,355.21,0,0,0,786.86,1240a264.23,264.23,0,0,0-39.57,33.33l-4.23,4.59-2.14,2.3-2,2.37-4.06,4.76c-1.24,1.57-2.5,3.07-3.69,4.67-2.45,3.15-4.75,6.47-7.07,9.85s-4.5,6.91-6.6,10.55a186.15,186.15,0,0,0-20,48.26,8.8,8.8,0,0,0-4.3,3,16.22,16.22,0,0,0-1.33,2.27,12.66,12.66,0,0,0-.92,2.67c-1,3.94-1.2,9-1.38,14.86a7,7,0,0,0-4.88,1.41,8.14,8.14,0,0,0-1.78,2,14,14,0,0,0-1.29,2.78c-1.41,4.2-1.54,10.42,0,17.61,2,3.68,3,2,3.79.54.39-.76.82-1.51,1.32-1.63.25-.06.51,0,.82.38a6.93,6.93,0,0,1,1.1,1.76c0,2.05.08,4.18,0,6,0,1,.11,2.33.14,3.46s.07,2.33.05,3.45a24.86,24.86,0,0,1-.7,6,7.4,7.4,0,0,1-2.32,4c-.94-2.48-1.92-5-2.88-7.59-.47-1.23-.92-2.44-1.33-3.59-.2-.58-.4-1.15-.61-1.72l-.48-1.48a33.12,33.12,0,0,1-1.28-5,11.93,11.93,0,0,1-.17-3.92c-1.35,1.07-1.88,3-2.15,5.32a28.71,28.71,0,0,0-.11,3.76c0,.64,0,1.29.07,2s.14,1.55.22,2.35c.63,6.29,1.32,12.84-2.15,14.06l-5.74-13.47c-1.61-3.75-3.18-7.58-4.5-11.45a131.11,131.11,0,0,1-5.89-23.77,141.6,141.6,0,0,1-1.6-24.44,158,158,0,0,1,2.58-25.12,171.46,171.46,0,0,1,17.35-49.29,169.67,169.67,0,0,1,14.53-22.76c1.39-1.8,2.77-3.61,4.24-5.36l2.2-2.63,2.34-2.6,4.72-5.17c1.63-1.69,3.34-3.32,5-5,4.65-2.5,8.93-3.56,13.19-4.87,1.06-.33,2.14-.66,3.22-1s2.24-.73,3.39-1.17a53.63,53.63,0,0,0,7.37-3.41c.57-2.33-.38-3.08-2.28-2.92s-4.64,1.31-7.7,2.7-6.33,3.09-9.27,4.35-5.55,2.06-7.14,1.72c6.47-9.64,16.55-20.5,27-30.6s21.14-19.67,28.19-27.66c5-1.22,6.16,2.68,16.27-5,16.19-9.92,31.14-19,45.13-27.94s27-17.54,39.49-26.1c24.9-17.1,47.64-33.71,72.77-50.43C1016.06,1021.28,1090,984,1174.28,926.6c6.11-2.58,2.47,5.89,13.21-2,8.07-4.56,16.54-9.39,25.41-13.9A189.54,189.54,0,0,1,1240.49,899c9.44-3,19.11-4.88,28.24-4.73a51.71,51.71,0,0,1,24.57,6.25L1291.36,880c-21.12,12.2-40.39,21.11-55.15,22.68a128.45,128.45,0,0,1-24,15.29l-9.47,4.46a103.87,103.87,0,0,0-10.16,5.48l-8.56,8.34c-3,2.85-6.21,5.78-9.94,9-5.15.84-12.83,6.32-21.29,13.32s-17.69,15.56-26.2,22.27c-9.42,7.6-18.75,13.5-28,19.78s-18.71,12.76-28.15,21.38c-16.4,15.09-26.42,27.55-33.7,38.17-3.56,5.4-6.58,10.22-9.13,15l-3.77,7-3.55,7c-5.9,11.43-13.56,25.37-19.19,39.08-1.5,3.36-2.7,6.82-3.89,10.1q-.87,2.46-1.64,4.85c-.5,1.6-.92,3.19-1.32,4.72-.79,3.08-1.42,6-1.83,8.7a43.08,43.08,0,0,0-.56,7.93l1.94-2.46,2-2.39c1.31-1.56,2.6-2.95,3.9-4.39s2.57-2.8,3.84-4.11,2.51-2.53,3.8-3.62c1.12-3.35,2.2-6.81,3.29-10.38s2.36-7.13,3.57-10.81c2.53-7.33,5.28-15,8.65-22.67a182.4,182.4,0,0,1,28.21-46.3,85.82,85.82,0,0,1,6-6.45c2-2,4-3.83,6-5.55s4.06-3.34,6.07-4.93,4-3.15,6-4.67c4-3.06,7.93-6.24,11.89-9.77,2-1.77,3.9-3.7,5.86-5.76s3.92-4.26,5.86-6.71c.9.92,1.8,1.85,2.7,2.76q12.88-13.51,25.69-24.48c8.5-7.39,17-14,25.33-20a471.25,471.25,0,0,1,49.17-30.79c32.22-17.7,63.5-31.48,97.13-50.17l1.88-1-2.09-1.15a64.44,64.44,0,0,0-17.41-6.49,73.93,73.93,0,0,0-19.6-1.38c-13.45.86-27.14,4.95-40.42,11.28-16,3.77-31.33,9-45.66,13.73-14.17,4.6-27.75,8.55-40.55,11.61,9.37-5.27,16.92-10.09,23.53-14.68,3.3-2.3,6.37-4.54,9.32-6.74l8.92-6.7a226.13,226.13,0,0,1,19.62-13.32A141.45,141.45,0,0,1,1224.24,863a117.64,117.64,0,0,1,38.93-13,100.29,100.29,0,0,1,24.28-.45,98.86,98.86,0,0,1,25.49,6.13l59,22.87-52.94,41.75c-37,29.19-78.84,57.36-118,87.83-9.77,7.63-19.43,15.36-28.76,23.3s-18.36,16-27,24.33-16.79,16.8-24.44,25.46-14.71,17.51-21.11,26.48a274.33,274.33,0,0,0-35.51,46.92l-3.53,6.16-1.75,3.08-1.62,3.13c-1.08,2.09-2.15,4.17-3.23,6.24s-2,4.22-3,6.32l-1.47,3.16-.71,1.56-.59,1.4c-.79,1.86-1.46,3.62-2,5.32a43.58,43.58,0,0,0-2.24,8.7c-.3,2.29-.08,3.76.17,4a.05.05,0,0,1,0,0v0l-.13,0h-.21c-.57,0-1.16.12-1.75.23l-.9.19-.6.11a11.08,11.08,0,0,0-1.17.29l-.3.1-.17,0-.27.07c-.18.06-.38.14-.59.23s0,0,0,0h0l-.73.39.08,0,.54-.32s.26-.16.41-.26.31-.21.45-.32l1.08-.81c.21-.17.41-.33.6-.5l.28-.26.4-.33a17.87,17.87,0,0,0,1.47-1.4l.91-.88.15-.16h.15l.22.07,1.84.78c.84.36,2,.8,3.29,1.26s2.83.94,4.52,1.44c.8.25,1.81.5,2.77.75l2.88.79c1.93.5,3.91.89,5.85,1.37l5.94,1.15a176.53,176.53,0,0,0,24.7,2.41c4.64,3.93,15.59,5.47,28.46,4.72s27.47-3.89,39.65-6.79c3.35-1.49,3.06-3.11,3.56-4.74a4.16,4.16,0,0,1,1.85-2.4,11.29,11.29,0,0,1,2.37-1.18,31.74,31.74,0,0,1,3.86-1.27l2.3-.81,2.23-.84,4.31-1.52c2.78-1,5.47-1.87,8-2.75,1.27-.42,2.51-.81,3.73-1.18s2.4-.76,3.56-1.1l3.43-1c1.11-.33,2.2-.63,3.28-.91a231.72,231.72,0,0,1,23-4.62c7-1.19,13.86-2.2,21.07-4.51,1.82-.54,3.65-1.25,5.53-2s3.8-1.64,5.79-2.6a83.15,83.15,0,0,0,12.47-7.54c3.22-2.16,6.85-6.15,10.72-10.32,1-1.06,2-2.09,2.9-3.19s1.91-2.18,2.85-3.27c1.91-2.14,3.81-4.2,5.67-6,2.63-2.63,5.89-5.87,9.53-9.29,1.84-1.69,3.65-3.57,5.53-5.41l5.69-5.62c3.72-3.81,7.32-7.63,10.5-11.06s5.74-6.64,7.56-9.08c13.08-17.75,23.43-36.64,33.87-56.06s21-39.49,34.49-59.9c19.19-29.16,39.37-59.87,57.09-92.26a531.69,531.69,0,0,0,24.16-49.76c1.69-4.27,3.43-8.52,5.09-12.79s3.17-8.59,4.63-12.91l2.1-6.49c.69-2.16,1.45-4.33,2-6.49,1.28-4.3,2.47-8.63,3.54-13,5.39-13.78,9.1-30.23,10.6-48a218.48,218.48,0,0,0-20-111.36,207,207,0,0,0-13.92-25,252.79,252.79,0,0,0-16.58-22.69c-5.89-4.3-12.14-8.86-18.86-13.43s-14-9-21.66-13.37a248.19,248.19,0,0,0-50.77-21.6,211.54,211.54,0,0,0-54.34-8.92,160.46,160.46,0,0,0-25.11,1.33,113.8,113.8,0,0,0-21.78,5.17c-4.91.6-5.76-.57-6.89-1.64s-2.55-2-8.66-.66c-16.17,5.12-33.4,9.21-48.94,14.68s-29.31,11.65-37.89,20.25c-8.38,3.19-14.11,4.78-18.78,5.3-1.45.75-2.91,1.48-4.36,2.26L1140,578.9l-8.7,4.76-8.69,5c-2.89,1.66-5.79,3.31-8.69,5.07-5.79,3.46-11.6,6.91-17.43,10.55s-11.68,7.26-17.57,11l-36,22.91c-12.28,7.79-25,15.72-37.83,23.56-51.57,31.43-107.82,62.61-173,91.25-46.65,8.37-90.16,13.82-139.15,24.39-21.5,1.63-42.12,2.43-65.44,5.77-5.82.83-11.9,1.86-17.89,2.95s-12.1,2.33-18.31,3.72c-12.43,2.76-25.38,6.14-39.76,10.1-15.34,8.49-30.61,16.73-46.18,24.43-1.93,1-3.89,1.91-5.85,2.83l-5.87,2.8-11.82,5.32-6,2.5c-1,.41-2,.86-3,1.24s-1.94.71-2.92,1l-5.83,2c-1.93.64-3.86,1.31-5.79,1.86a240,240,0,0,1-44.85,9c-7.14.72-14.08,1.09-20.78,1.15s-13.12-.27-19.28-.82c-7.31-2.46-13.69-4.6-19.34-6.44l-4.1-1.3-3.86-1.15c-2.46-.79-4.83-1.37-7-2-4.37-1.16-8.15-2-11.51-2.71s-6.21-1.19-8.65-1.78a147.39,147.39,0,0,1-38-40.14,157.8,157.8,0,0,1-9.28-17.36,150.9,150.9,0,0,1-6.81-18.12,170.3,170.3,0,0,1-6.9-37.69,201.85,201.85,0,0,1,1.21-39.25,235.85,235.85,0,0,1,9-41A221.75,221.75,0,0,1,279,616.77c2.08-4.4,4.36-8.7,6.59-13,1.09-2.14,2.37-4.21,3.59-6.29l3.68-6.18a286.47,286.47,0,0,1,34.51-44.6c3.18-3.35,6.28-6.7,9.64-9.83,1.66-1.57,3.3-3.15,4.94-4.71s3.27-3.12,5-4.6c3.41-3,6.79-5.93,10.19-8.81l10.44-8.28a429.13,429.13,0,0,1,43.11-28.72l11-6.23,5.55-3,2.81-1.5.69-.36.6-.3,1.19-.6c3.15-1.63,6.37-3.1,9.55-4.66l4.79-2.3,4.81-2.22c12.82-6,25.77-11.67,39-17.36,26.38-11.42,53.64-23.1,82.87-37.25,5.66-1.08,8.94-.14,16.92-3.17,2-5.25,14.4-8.93,26.46-12.91s23.81-8.39,24.72-15.56c-11.57.2-28.84,3.52-47.81,9.1a349.86,349.86,0,0,0-57.56,22.62c-7.68-.45-16.52,3-26.07,7.62s-19.78,10.66-30.43,15.44c-13.37,6-26.75,10.48-39.69,15.27l-4.83,1.76L430.4,448c-3.16,1.25-6.31,2.44-9.38,3.8l-2.3,1c-.17.07-.4.19-.65.31l-.72.36-1.43.71c-1.89.95-3.81,1.95-5.6,2.9-3.63,1.95-7.13,4.05-10.62,6.17a53,53,0,0,0-5.73,4.12c-1.77,1.52-3.41,3.08-4.89,4.54-3,2.92-5.31,5.41-6.79,6.41-2.62,1.89-5.21,3.72-7.82,5.5s-5.27,3.48-7.83,5.29l-7.77,5.42c-2.63,1.83-5.33,3.66-7.91,5.68-5.21,4-10.77,8.15-16.17,13.12l-4.16,3.79c-1.38,1.3-2.86,2.6-4.2,4-2.74,2.83-5.54,5.82-8.41,9-1.63,1.76-3.09,3.56-4.53,5.31l-4.23,5.14c-1.37,1.69-2.76,3.32-4,5l-3.64,4.86-3.49,4.68c-1.13,1.54-2.28,3-3.27,4.55L289,568.44c-.91,1.42-1.92,2.78-2.72,4.19l-2.46,4.13q-2.38,4.08-4.68,8c-1.44,2.62-2.73,5.21-4,7.76s-2.62,5.06-3.84,7.57c-2.28,5.07-4.54,10.06-6.65,15.19s-4,10.41-5.87,16a284.19,284.19,0,0,0-9.86,38.33c-4.42,24-5.4,48.25-2.13,71.44s11.1,45.17,22.65,63.58a140.42,140.42,0,0,0,31,34.95,136,136,0,0,0,35.45,20.62,118.55,118.55,0,0,0,33.35,8,80,80,0,0,0,27.05-2,76.92,76.92,0,0,0,27.35,2.26A96.94,96.94,0,0,0,446.72,863c14.51-5.34,27.75-12.26,44-18.36l7.43-1.8c2.29-.61,4.39-1.26,6.34-1.84s3.77-1.13,5.43-1.74l4.65-1.69,4-1.55c1.26-.52,2.44-1,3.56-1.53l6.34-2.8c2-.93,4-1.87,6.2-2.81l7.23-3.06c2.69-1.13,5.77-2.27,9.35-3.71l12.61-4.87c20.09-.75,40.85-2,63.63-4.35,3-.36,5.34-.4,7.86-.52l7.49-.33,15-.66c10-.45,20-.94,30.22-1.59,40.79-2.59,84.21-7.64,137.88-22.34,22.89-12.19,45.17-23.4,61-25.22C838.62,796.49,760.38,833.06,681,870.47L644,888c-16.16,7.59-32.34,15-48.52,21.56s-32.28,12.31-48.16,17.1a440.27,440.27,0,0,1-46.73,11.21,354.54,354.54,0,0,1-86.2,5.15,342.53,342.53,0,0,1-38.83-4.76c-12.43-2.24-24.27-5.13-35.55-8.32,7.3,6.42,17.83,11,29.57,14.14s24.69,5,37,6.79a327.82,327.82,0,0,0,52.55,3,337.53,337.53,0,0,0,56.08-6.43,433.35,433.35,0,0,0,58.88-16.12c20-6.94,40.14-15.4,60.33-24.73L642,903l7.58-3.61,15.21-7.27,19.32-9.32,36.38-17.67q36.74-17.94,74.79-37.06c60.3-30.37,112.09-69.3,180.23-100.16,19.9-9,38-16.15,56.75-23.84,9.34-3.83,18.91-7.84,28.8-12.23s20.08-9.12,30.79-14.39c2.38,1.12,11.61-4.26,9.29,1.31,24.47-12.87,48.67-17.72,70.77-21.92,1.38-.26,2.78-.57,4.13-.8l4-.73q4-.74,8-1.6c2.63-.54,5.19-1,7.74-1.62q1.92-.43,3.81-.93c1.26-.33,2.52-.68,3.74-1q3.69-.94,7.31-2.14c1.21-.4,2.41-.83,3.61-1.27s2.34-.81,3.51-1.26q3.49-1.35,6.94-3.06c2.29-1.13,4.51-2.21,6.76-3.54C1230.42,641.92,1223.21,643.51,1229.76,644.66ZM937.24,439c5.3.79,4,2.94-.24,2.56.53,1.61,7.6,1.69,12.53,2.56-.71,1.27-4.65,1-8.62,1s-7.93-.11-8.63,1.16a98.45,98.45,0,0,0,11.31,3.94c4.17,1.31,8.68,2.61,13.3,3.86a49.22,49.22,0,0,1-8.46.11,52.59,52.59,0,0,1-7.26-1.11,23.47,23.47,0,0,1-10-4.58C927,444.76,927.91,440.3,937.24,439Zm245.07,108.17c-1,6.39-14.13,3.83-28.54-.27-7.14-2.23-14.73-4.6-21.13-7s-11.76-4.46-14.52-5.85a88.31,88.31,0,0,1-9-5.2c-1.51-1-3-2-4.36-3s-2.6-2-3.65-2.88c-4.17-3.71-5.19-6.77,2-6.63a33,33,0,0,1,7.08,1.1,90,90,0,0,1,8.85,3c3.19,1.21,6.6,2.62,10.16,4.13,1.78.73,3.56,1.59,5.38,2.44l5.51,2.59,11.22,5.22c3.71,1.81,7.4,3.55,11,5.13,1.8.79,3.59,1.54,5.34,2.24l5.15,2A72.2,72.2,0,0,0,1182.31,547.14ZM1289.89,590c.61-3.21,3.37-3.7,7.16-2.94a141.63,141.63,0,0,0,15.77,15.3l9.76,8.72,5.06,4.46,2.53,2.24,2.45,2.32c13.16,12.25,24.72,25,27.26,34.24-1.7-1.79-3.43-3.38-5-5s-3.13-3.12-4.61-4.58c-3-2.94-5.59-5.73-8.15-8.32-5.2-5.1-9.73-9.73-14.4-14.47s-9.76-9.24-15.68-14.54c-3-2.61-6.31-5.25-9.94-8.17-1.83-1.44-3.74-2.95-5.75-4.52-1-.78-2-1.6-3.1-2.39ZM1376,690.11c.24-2.27,2.11-1.29,4.17,0s4.18,3.12,5.16,2.26c.86,2.85,3.27,6.59,5.36,10.13s3.88,6.9,3.39,9.06c-1.2-1.25-2.31-2.32-3.26-3.34s-1.78-2-2.51-2.84c-1.46-1.77-2.55-3.33-3.6-4.87s-2.07-3.07-3.39-4.76c-.67-.85-1.38-1.75-2.26-2.69S1377.21,691.18,1376,690.11Zm31-12.27,5.52,7.13c1.85,2.4,3.74,4.78,5.51,7.31q5.38,7.46,10.91,15.11l10.69,15.75c.9,1.33,1.82,2.64,2.7,4l2.6,4.08,5.26,8.18c14,22,27.6,45,41.16,68.46,2.87,5.08,5.87,10.06,8.92,15s5.87,9.92,8.88,14.79l2.27,3.63c.75,1.21,1.44,2.46,2.16,3.67l4.3,7.3c2.86,4.85,5.78,9.62,8.34,14.49s5.21,9.62,7.68,14.38,4.52,9.61,6.58,14.36c1,2.38,2,4.74,2.94,7.11s1.69,4.76,2.46,7.13c1.54,4.73,2.88,9.42,4,14.07-5.27-9.34-10.31-20.26-16.12-31.52q-2.1-4.25-4.23-8.59T1525,875c-3-5.76-6-11.62-9.25-17.23-1.61-2.82-3.22-5.63-4.8-8.41s-3.15-5.54-4.87-8.17c-3.35-5.31-6.67-10.43-9.94-15.25s-6.8-9.18-10.07-13.22c-1.65-2-3.25-3.94-4.88-5.72s-3.32-3.4-4.93-4.92l-6.84-13.9c-2.44-4.67-4.92-9.4-7.41-14.15s-5.17-9.45-7.85-14.11l-4-7c-.68-1.15-1.34-2.31-2-3.43l-2.15-3.34c-2.86-4.43-5.73-8.76-8.6-12.94-1.4-2.11-3-4.07-4.45-6s-3-3.85-4.49-5.7a128.52,128.52,0,0,0-18-18.71c.56-1.59.23-3.73-.46-6.12s-1.89-4.92-2.88-7.41C1405,684.33,1403.6,679.66,1407,677.84Zm-5.07,42.91,3-2.5,4.8,4.91c1.68,1.77,3.35,3.72,5.08,5.68,3.43,3.95,6.94,8.08,9.88,12,5.66,8.08,9.34,15.2,6.81,17.78-3.53-3.57-6.39-6.67-8.87-9.58-1.25-1.45-2.39-2.86-3.48-4.26s-2.21-2.72-3.26-4.11c-2.1-2.76-4.1-5.63-6.29-8.89l-3.47-5.22C1404.8,724.79,1403.42,722.86,1401.93,720.75Zm28.69,43.38c2.7,1.9,4.81,1.88,6.49.36C1447.74,778.72,1439.1,779.75,1430.62,764.13Zm-18.92,18c-.44,3.24,2.06,7.14,5.18,11.13.77,1,1.62,2,2.39,3l2.31,3.06a42.47,42.47,0,0,1,3.76,5.76,69.55,69.55,0,0,1,4.19,9.92c1,3.21,1.82,6.25,2.59,9.22s1.52,5.83,2.45,8.68a63.9,63.9,0,0,0,3.23,8.72c1.27,2.72,2.55,5.16,3.85,7.41.64,1.13,1.31,2.21,1.95,3.26s1.25,2.1,1.88,3.1c2.53,4,5.18,7.58,7.94,11.36,1.41,1.87,2.73,3.86,4.09,6s2.76,4.34,4.18,6.79,2.9,5.07,4.3,8,2.74,6.26,4.13,9.89c1.94,4.48,3.64,5.45,5.31,5.83s3.29.19,5,2.4c3.74,8.29,7.65,16.5,11,24.91l2.58,6.26c.85,2.1,1.76,4.17,2.5,6.3q2.34,6.34,4.67,12.67c.76,2.12,1.61,4.22,2.28,6.36l2.09,6.41c1.38,4.27,2.82,8.53,4.14,12.82s2.46,8.64,3.68,12.95l1.82,6.48,1.6,6.54,3.17,13.09q1.33,6.6,2.68,13.21l1.32,6.62c.43,2.21.74,4.43,1.11,6.66l2.13,13.35a510.82,510.82,0,0,1,4.72,54.29,479.58,479.58,0,0,1-9.18,111.84c-1,4.71-2.13,9.42-3.21,14.16-.56,2.36-1.08,4.74-1.67,7.1s-1.3,4.71-2,7.08-1.31,4.72-2,7.09-1.27,4.76-2.08,7.1l-4.65,14.16-1.18,3.55c-.44,1.17-.89,2.34-1.33,3.52q-1.34,3.51-2.68,7t-2.7,7.08c-.89,2.36-2,4.66-3,7-2,4.66-4,9.37-6.17,14s-4.54,9.24-6.84,13.9c-2.36-2.83-2.72-7.6-2.25-13.15.12-1.39.29-2.83.49-4.3s.34-3,.55-4.54c.4-3.07.8-6.22,1.2-9.28a70,70,0,0,0,.65-8.76,29.58,29.58,0,0,0-.9-7.43c-1.2-4.27-3.8-7-8.83-7,.66-2.58,1.31-5.14,2-7.69s1.15-5.11,1.72-7.64l1.78-7.5c.29-1.24.64-2.46.88-3.7s.51-2.48.77-3.72c1-4.93,2.09-9.77,3.16-14.56q1.32-7.24,2.72-14.29c1-4.68,1.65-9.39,2.44-14s1.64-9.19,2.15-13.78,1.2-9.12,1.79-13.62.85-9,1.28-13.47c.2-2.24.39-4.46.59-6.68s.22-4.45.32-6.67q.26-6.66.51-13.25c0-4.41-.1-8.81-.19-13.19l-.18-6.57-.5-6.57c-.36-4.37-.76-8.73-1.23-13.09-.63-4.36-1.31-8.71-2.07-13.06-.38-2.17-.75-4.35-1.19-6.52s-1-4.34-1.54-6.51c-1.08-4.33-2.17-8.67-3.46-13-.82-6.14-1.52-12.16-2.12-18.12-.8-5.93-1.55-11.78-2.21-17.63l-.25-2.19-.32-2.18-.63-4.35-1.2-8.72-.6-4.38c-.24-1.46-.49-2.91-.73-4.37q-.72-4.38-1.46-8.8c-4.08-23.55-9.61-48.21-19.88-76l-2-5.37c-.66-1.78-1.41-3.52-2.1-5.29q-2.12-5.28-4.2-10.52c-1.32-3.53-2.89-6.91-4.32-10.33s-2.87-6.79-4.25-10.15c-2.93-6.63-5.79-13.12-8.4-19.48-2.83-6.23-5.4-12.34-7.7-18.24-2.49-5.8-4.65-11.42-6.43-16.83-.43-1.36-.9-2.67-1.34-4s-.86-2.58-1.24-3.85q-1.17-3.81-2-7.44c-.56-2.42-1-4.79-1.3-7.07a59.29,59.29,0,0,1-.72-6.55A37.75,37.75,0,0,1,1411.7,782.17Zm63.21,252.31c1.11,5.77.54,8.49-.3,10.71-.42,1.11-.9,2.1-1.28,3.28a14.36,14.36,0,0,0-.77,4.47c.92,5.77,1.5,10.81,1.77,15.36s0,8.61-.16,12.41c-.1,1.91-.22,3.75-.36,5.56s-.42,3.6-.62,5.39c-.43,3.57-.85,7.15-1.14,11,0,1.15,0,2.34,0,3.56s0,2.47-.07,3.76c0,2.57,0,5.27,0,8.07,0,1.4.08,2.83.12,4.28,0,.73,0,1.46.08,2.2s0,1.47,0,2.22c0,3,0,6.06.09,9.2,0,1.57.07,3.15.1,4.75l.06,2.41c0,.8,0,1.6,0,2.41,0,3.24-.07,6.52-.11,9.82.07,6.62-.39,13.26-.71,19.85a237.93,237.93,0,0,1-4.74,36.62,93.13,93.13,0,0,1-4.18,14.52c-.79,2.11-1.61,4.07-2.46,5.84-.43.89-.86,1.72-1.31,2.51s-1,1.51-1.46,2.19a36.21,36.21,0,0,0,1.91-7.55,58.89,58.89,0,0,0,.67-7.24,60.21,60.21,0,0,0-.12-7c-.2-2.33-.46-4.63-.71-6.93s-.49-4.61-.65-6.94c-.09-1.16-.15-2.33-.19-3.52s-.14-2.39-.17-3.61a55.3,55.3,0,0,1,1.85-15.55c-1.78-4.1-3.4-8.16-4.84-12.26-.73-2-1.36-4.1-2-6.18s-1.39-4.2-2-6.33-1.21-4.3-1.74-6.5-1-4.43-1.53-6.73c-1.06-4.58-1.93-9.36-2.6-14.4s-1.54-10.38-2-16c-.19-2.84-.57-5.76-.83-8.78s-.49-6.14-.67-9.37l-.12-2.44c-.07-.82-.14-1.65-.2-2.49-.12-1.67-.25-3.36-.37-5.09-.23-3.45-.38-7-.54-10.73s-.52-7.52-.71-11.49q-.13-3-.27-6.07t-.45-6.26a93.25,93.25,0,0,1,0-11.09c.13-3.74.28-7.53.51-11.34l.3-5.73c0-1,.11-1.91.12-2.85l0-2.83a104.62,104.62,0,0,0-.67-11.14c-.23-1.69-.41-3.39-.74-5s-.67-3.33-1-5c-.73-3.31-1.53-6.57-2.36-9.78l-.63-2.4-.72-2.34q-.72-2.34-1.44-4.62c-.94-3-1.86-6-2.74-8.89-.41-1.45-.89-2.85-1.34-4.22s-.87-2.73-1.26-4.06c-.79-2.66-1.46-5.22-2-7.66-.25-1.23-.47-2.43-.64-3.59s-.37-2.28-.48-3.38a27.39,27.39,0,0,1,0-6.21c4.9.57,10,5.45,14.7,13,1.19,1.89,2.38,3.94,3.57,6.12.59,1.08,1.19,2.2,1.79,3.35l1.65,3.56c2.17,4.87,4.44,10.09,6.53,15.51s4,11,6,16.52c1.8,5.54,3.64,11,5.53,16.1.24.63.48,1.27.71,1.9s.44,1.26.65,1.88c.43,1.24.87,2.46,1.31,3.65q1.32,3.57,2.72,6.77c.93,2.12,1.89,4.1,2.87,5.91A43.08,43.08,0,0,0,1474.91,1034.48Zm79.85-99a28.42,28.42,0,0,1,3.63,6.1c.45,1.05.87,2.11,1.23,3.23s.66,2.28,1,3.51a164.85,164.85,0,0,0,5.69,19.09c-3.06,0-5.3-5.43-7-12.17-.87-3.37-1.59-7.07-2.31-10.55S1555.45,938,1554.76,935.46ZM1410.1,1516.28c-13.79,6.09-27.54,11.16-41.24,15.78s-27.28,8.61-41.08,12.35l-10.37,2.85c-3.49.88-7,1.7-10.53,2.54l-10.63,2.49-5.36,1.22-5.41,1.07c-7.24,1.4-14.57,2.78-22,4q-11.19,1.64-22.7,3c-3.56.47-7,.72-10.42,1s-6.69.51-9.92.72l-9.51.56c-3.11.12-6.18.16-9.2.22-6,.11-12,.17-17.83.22l-17.74-.27-9.06-.07-9.33-.22c-6.34-.14-12.91-.13-19.86-.16s-14.29-.15-22.13,0l-3,.05-3,0h-6.18c-4.2,0-8.54.07-13,.16-2.64.07-5.16.18-7.62.26s-4.86.28-7.25.48c-4.77.41-9.49,1-14.58,1.54s-10.53.92-16.75,1.26c-3.1.17-6.4.29-9.94.37s-7.31-.06-11.37-.18c-9.09-.34-18.08-1-26.81-2.12s-17.25-2-25.42-3.17c-4.09-.52-8.1-1-12-1.32-2-.17-3.91-.32-5.83-.43s-3.81-.27-5.69-.35a95.42,95.42,0,0,0-21.39,1.14c-5-1.13-9.92-2.37-14.84-3.55s-9.81-2.34-14.64-3.62-9.62-2.53-14.37-3.73-9.49-2.27-14.14-3.49-9.28-2.25-13.87-3.22q-3.43-.72-6.86-1.36c-2.27-.43-4.52-.91-6.77-1.31-4.5-.82-9-1.51-13.4-2q-3.33-.39-6.63-.65c-2.2-.17-4.38-.38-6.56-.5a24.45,24.45,0,0,1,6.49-2.06,81,81,0,0,1,9.38-1.35c3.52-.33,7.42-.56,11.57-.69l13.13-.34c18.28-.29,39-.24,55.34-1.18l16.35,3.12c2.72.55,5.46,1,8.2,1.41l8.19,1.32,8.19,1.3,4.1.65,4.1.55,16.41,2.14c5.45.77,10.93,1.28,16.4,1.85L998,1546.2l16.38,1.23,8.17.61c2.72.2,5.45.29,8.17.43l16.32.8c2.71.16,5.43.2,8.14.27l8.14.2,8.13.19c2.7.07,5.41.15,8.11.12h16.2c2.69,0,5.39,0,8.08,0l8.06-.18,16.1-.35,16-.68c5.34-.27,10.67-.37,16-.79,42.53-2.49,84.38-6.92,125.57-12.57l15.4-2.28,7.69-1.11c2.57-.36,5.13-.71,7.68-1.16l15.29-2.46,7.65-1.17L1347,1526c20.39-3.48,40.92-7.43,61.62-13.29Zm-823.87-63.21c-.83.58-3.73-.74-6.45-2.15s-5.42-2.68-6-1.76c-5.6-4-11.15-7.55-16.59-11s-10.71-6.73-16-9.76l-15.41-8.81c-5-2.83-10-5.53-14.88-8.16l51.66-10.25a68.24,68.24,0,0,0-3.83,10.11c-.21.86-.43,1.72-.64,2.58-.1.43-.24.84-.33,1.27l-.25,1.31c-.15.87-.41,1.69-.54,2.58s-.28,1.75-.46,2.61c-.71,4.43-2.05,9-3,14.31a48.77,48.77,0,0,0,0,18.12,51.06,51.06,0,0,0,5.08,13.45,108,108,0,0,0,7.73,11.92c.68.87,1.32,1.74,1.92,2.6s1.27,1.62,1.83,2.43c.29.4.56.8.82,1.2l.82,1.12a24.94,24.94,0,0,1,1.4,2.24,16.19,16.19,0,0,1,2,4.27,9.82,9.82,0,0,1,.51,4.21c4,1.7,8,4.09,12.44,6.34a74.21,74.21,0,0,0,14.07,5.73,31.9,31.9,0,0,0,13.44,1.12c3.58-.66,5.39-2.31,4.92-3.86a7.32,7.32,0,0,1,.94,2.16,8.43,8.43,0,0,1,.2,1.19,4.86,4.86,0,0,1-.12,1.25,11.33,11.33,0,0,1-3.14,5.35,15.25,15.25,0,0,1-1.12,1.25,13.41,13.41,0,0,0-1,1.22,4.32,4.32,0,0,0-1.06,2.28,2.68,2.68,0,0,0,1.24,2.23,11.34,11.34,0,0,0,4.54,1.77,7.42,7.42,0,0,0,3-3.35,9.47,9.47,0,0,0,.8-3.69,55.35,55.35,0,0,0-.31-6.6c.1-.1.24-.17.35-.26a.94.94,0,0,1,.27-.29l.17-.11.19-.23a3.24,3.24,0,0,1,.43-.4c.43-.54.89-.89,1.21-1.28a23.35,23.35,0,0,0,2.49-2.89c.27-.28.46-.67.72-1a6.25,6.25,0,0,1,.4-.5c.12-.19.24-.38.36-.55.26-.37.54-.71.83-1a10.73,10.73,0,0,1,.84-1.05c.3-.34.63-.64,1-.94a8.15,8.15,0,0,1,3.34-2.06,27.55,27.55,0,0,1,2.58,10,20.84,20.84,0,0,1-.45,5.41,19.37,19.37,0,0,1-2.38,5.59l-1,1.45c-.34.4-.69.82-1,1.26a12.4,12.4,0,0,1-1.18,1.23l-.61.62-.71.55a23.88,23.88,0,0,1-6.9,3.92,44.72,44.72,0,0,1-19.61,2.29,61.05,61.05,0,0,1-10.77-1.93l-2.66-.79a24.76,24.76,0,0,1-2.64-.88l-2.59-1-1.29-.49-1.25-.6a72.22,72.22,0,0,1-18.06-11.8,78.34,78.34,0,0,1-13-14.93,74.23,74.23,0,0,1-7.47-14.71,61.77,61.77,0,0,1-9.28-16.56,69.29,69.29,0,0,1-4.13-17.7,83.56,83.56,0,0,1,.25-18c.22-1.49.37-3,.65-4.51s.59-3,.89-4.51.77-3,1.16-4.49.94-3,1.38-4.48c-2.27-2.25-3.62,4.11-4.41,9.5a39.36,39.36,0,0,1,3.42-18.2,47.46,47.46,0,0,1,10.72-15l-25.42,5c4.66,4.24,9.27,8.65,13.93,13.09,2.34,2.21,4.66,4.49,7.07,6.64s4.84,4.27,7.31,6.37,5,4.16,7.52,6.17,5.12,4,7.82,5.77a137.24,137.24,0,0,0,16.82,9.78c3,2.14,2.18,3.44,1.56,4.78S582.41,1450.86,586.23,1453.07Zm43.28,38.45c-.12-1.59-.25-3.14-.27-4.56s0-2.83-.1-4.24a61.83,61.83,0,0,0-.59-8.85c2,.18,4.07,1.61,6,4.24a34.94,34.94,0,0,1,5.06,11.31c-.38,5-2,6.15-3.81,5.91S631.79,1493.33,629.51,1491.52ZM583,1237.29q7.38-13.23,15.85-25.77c1.39-2.11,2.85-4.17,4.3-6.23l2.19-3.1,2.24-3c1.5-2,3-4.07,4.57-6.06s3.12-4.06,4.64-5.86c3.07-3.72,6.13-7.49,9.25-11.14l9.51-10.69,9.73-10.21c3.27-3.32,6.58-6.52,9.87-9.77,26.54-25.48,53.91-46.28,79.65-64.19,18.43-12.76,38.23-25,57.68-36.8l60.1-36.32c40.49-24.61,80.71-49.81,114-74.54,27.86-13.45,88.91-46.21,104.23-66.32,13.75-7.62,27.09-15.75,40.09-24.18q9.75-6.31,19.27-12.83l5.4-3.63,5.71-3.77c3.9-2.54,7.89-5.11,12.13-7.71s8.59-5.21,13.22-7.82c2.27-1.3,4.69-2.6,7.07-3.89l3.7-1.93,1.85-1,1.92-1a251.1,251.1,0,0,1,34.35-14.19c6.46-2.08,13.33-4,20.57-5.56a201.91,201.91,0,0,1,23.24-3.53,185.92,185.92,0,0,1,25.66-.48,175.25,175.25,0,0,1,27.09,3.59,187.68,187.68,0,0,1,29.75,10.46l184.78,83.07L1359.73,979.61c-30.76,19.67-60.34,41.85-88.78,64.42s-55.58,45.48-82,67.06c-3.2,2.55-6.25,4.78-9.37,6.83s-6.15,4-9.25,5.88a106.87,106.87,0,0,0-18,13.44c-2.52,2.43-4.92,5.18-7.4,8s-4.76,6-7.1,9.09l-3.47,4.73-1.76,2.37-1.71,2.37q-1.72,2.37-3.52,4.66c-1.17,1.54-2.3,3.07-3.51,4.54-6.85,8.52-14.14,16.52-20.82,24.88-1.71,2.08-3.27,4.21-4.91,6.33l-1.21,1.59-.6.8-.44.52-.85,1-.73.83a9.56,9.56,0,0,1-2,1.93l-.18.1-.1,0h0l-.62-.19-2-.58-2-.55c-.68-.18-1.4-.35-1.94-.52-2.32-.69-4.69-1.3-7.08-1.84l-1.81-.38c-.62-.13-1.05-.26-1.59-.38-1-.25-2.07-.48-3.11-.68s-1.94-.37-2.93-.53l-1.48-.24-1.27-.24c-1.72-.31-3.49-.56-5.31-.73l-.69-.06-.58-.08-1.15-.14c-.77-.09-1.56-.15-2.35-.2s-1.62-.08-2.4-.1-1.31-.09-2-.1-1.35,0-2,0l-1,0h-.82a27.11,27.11,0,0,0-3.31.26,19.23,19.23,0,0,0-2.5.33l-.64.14-.42.07-.81.18c-.27.07-.56.15-.84.25l-.39.11-.41.15-.22.09s0,0,0,0,0,0,0,0h0l-.72.39h0l.11-.06.19-.11a2.22,2.22,0,0,0,.34-.22,35.75,35.75,0,0,0,6.78-6.06c.48-.53,1.05-1.15,1.52-1.71l.7-.87c.23-.28.43-.56.73-.9.54-.66,1-1.32,1.53-2s.89-1.27,1.47-2,1-1.47,1.53-2.2.91-1.44,1.5-2.3,1.06-1.65,1.56-2.47.91-1.6,1.52-2.58,1.11-1.87,1.63-2.81l1.58-2.92c1.22-2.17,2.3-4.32,3.43-6.66.66-1.28,1.31-2.58,1.94-3.91l.47-1,.06-.12s0,0,0,0v0l0,0a.91.91,0,0,0-.07.14,1.52,1.52,0,0,0,.06.53l.29.39a5.19,5.19,0,0,0,.48.43,4.71,4.71,0,0,0,.66.46,4.21,4.21,0,0,0,.4.24l.55.26a42.34,42.34,0,0,0,4.61,2l2.41.88,2.48.72,1.25.38c.42.12.85.2,1.27.31l2.54.64c6.81,1.59,13.71,2.63,19.65,4.9,5.29-.42,10.6-1,16-2s10.76-2.07,16.2-3.46,10.92-3.08,16.44-5,11.09-4.1,16.66-6.63a213.46,213.46,0,0,0,33.5-18.83c2.76-1.92,5.52-3.9,8.25-6,1.38-1,2.72-2.12,4.07-3.21.69-.55,1.35-1.06,2.06-1.66l2.11-1.83c5.71-4.8,11.42-10.06,17.16-15.84l-1.56,2.38c-.53.78-1.08,1.52-1.62,2.28l-3.28,4.57c-2.16,3.14-4.45,6-6.67,8.94s-4.3,5.73-6.36,8.48-4,5.36-6,7.92c-7.6,10.39-13.77,19.65-14.1,28.46-14.79,7.9-29.62,14.41-44.67,18.82s-30.32,6.7-45.27,5.81l-3.85-.33-1.82-.16-1.73-.24-3.32-.44-3.13-.55c-4.09-.7-7.85-1.62-12-2.57s-8.54-2.11-13.81-3.76c-1.34-.35-2.69-.84-4.13-1.3l-2.21-.7c-.6-.21-1.3-.43-1.84-.64-1.2-.42-2.2-.82-3-1.13a7.82,7.82,0,0,0-1.36-.51h0l-.07.1-.57.89q-.57.88-1.17,1.74c-.76,1.07-1.53,2.13-2.29,3.19q-.54.73-1.11,1.44l-.58.71-.49.62c-.63.8-1.31,1.58-2,2.35a37,37,0,0,1-6,5.59,8.42,8.42,0,0,1-.93.64,5.46,5.46,0,0,1-.55.34l-.15.09,0,0h0l.72-.39h0l0,0,.24-.11.3-.11.65-.19a11.59,11.59,0,0,1,1.18-.32l.57-.1a3.87,3.87,0,0,0,.39-.08l.46-.1c1.25-.25,2.14-.28,3.94-.49.79-.07,1.57-.09,2.34-.09.16,0,.44,0,.69,0l.75,0c.49,0,1,0,1.48,0s1,0,1.46,0l.72,0,.36,0h.45c1.19,0,2.37.1,3.53.21l.44,0,.11,0h-.05s0,0-.06,0a.88.88,0,0,0-.09-.2c-.26-.65-.08-2.54.7-4.93.58-1.65,1.23-3.46,2.17-5.53.2-.49.48-1,.72-1.58s.45-1,.82-1.7l2-3.89c2.57-5.21,5.51-10.27,8.44-15.34a323.1,323.1,0,0,1,19.92-29.22c1.83-2.34,3.57-4.72,5.45-7l5.61-6.92c3.86-4.54,7.66-9.09,11.65-13.52q11.86-13.35,24.17-26.19c13.9-14.67,28-29.67,42.46-43s29.28-24.81,44.24-32.26c29.8-25.65,68.51-50,104.59-74.91L1417.19,878l-95.87-41.45a125.14,125.14,0,0,0-21.55-7.07,119.3,119.3,0,0,0-21.59-2.92,132.15,132.15,0,0,0-38.07,3.88,148.56,148.56,0,0,0-29.39,10.78,151.36,151.36,0,0,0-22.32,13.39,216.61,216.61,0,0,0-20.18,9.32c-6.36,3.31-12.55,6.93-17.88,10.15-11,6.66-21.79,13.72-32.27,20.81-21,14.19-40.76,28.48-59.21,39.92-41,10.57-95.32,27.12-155.67,68.9-24.42,16.9-41.35,34.33-56.65,51.21-7.65,8.45-14.9,16.75-22.47,24.78A263,263,0,0,1,799.5,1103a91.87,91.87,0,0,0-16.38,7.92,150.57,150.57,0,0,0-14.06,9.93c-9.07,7-18,14.93-29.7,22.76-2.21,1.5-4.46,3-6.74,4.46l-6.91,4.58c-4.69,3-9.45,6.27-14.36,9.52-2.45,1.62-4.89,3.4-7.39,5.12s-5,3.47-7.52,5.38l-7.63,5.7c-2.54,2-5.08,4.07-7.66,6.17-1.28,1.06-2.59,2.09-3.87,3.2l-3.83,3.39-3.86,3.47-1.94,1.76-1.9,1.86q-3.79,3.73-7.63,7.64c-2.49,2.68-5,5.47-7.46,8.3l-1.86,2.13c-.62.73-1.24,1.51-1.86,2.27-1.22,1.53-2.49,3-3.67,4.65l-3.59,4.81-3.47,5a198.19,198.19,0,0,0-12.65,21.73,105.34,105.34,0,0,0-5.1-9.87c-1.68-2.94-3.35-5.65-4.78-8.46a38.23,38.23,0,0,1-4.3-21.42,30.37,30.37,0,0,0-6.79,5.37c-2.44,2.48-5.1,5.34-7.55,8.1-1.23,1.38-2.44,2.7-3.61,3.89a40.13,40.13,0,0,1-3.28,3.13C586.09,1237.16,584.29,1238,583,1237.29ZM1251.78,1096c-1.43-2.91.2-7.27-4.21-8.7a41.82,41.82,0,0,0,5.57-4,58.62,58.62,0,0,0,4.95-5.13,75.08,75.08,0,0,0,8.32-12.1c1.24-2.11,2.39-4.34,3.47-6.57s2.13-4.42,3.12-6.58c2-4.35,3.74-8.65,5.47-12.38,15.77-22,28.36-43.88,41.22-66.69l19.73-34.92c6.72-11.76,13.46-23.49,20.48-35.55,1.87-2.27,3.72-4.3,5.47-6.17s3.46-3.6,5.17-5.3c3.47-3.42,6.7-6.66,10.19-10.67,9.52-16,18.25-31.52,25.69-46.53a306.79,306.79,0,0,0,18-43.54l.92-2.86.76-2.71c.53-1.81,1-3.64,1.41-5.48s.79-3.68,1.2-5.53.68-3.7,1-5.56a187.51,187.51,0,0,0,2.17-22.11,231.49,231.49,0,0,0-2.18-40c-.84-6.6-1.55-13-2.47-19a103.59,103.59,0,0,0-3.81-17.18,45.32,45.32,0,0,0-7.12-14A26.89,26.89,0,0,0,1404.6,648a140.26,140.26,0,0,0-12.36-13.62,113,113,0,0,0-17.63-13.57c-13.25-8.4-29.59-13.91-42.69-14.21a84.57,84.57,0,0,0-21.54-6.78,161.13,161.13,0,0,0-27.06-2.6l-3.58-.07-3.6,0c-2.41,0-4.81.13-7.23.18l-.91,0-1,.07-1.93.14-3.89.26-3.88.22-1.95.11c-.65,0-1.3.12-2,.18-2.61.26-5.22.5-7.81.7-1.3.11-2.59.17-3.89.31l-3.9.43c-2.59.27-5.17.51-7.72.71s-5.12.57-7.63.78c-18.68,5.75-35.54,13.31-51.64,21.53s-31.48,17.15-47.54,26.26-32.87,18.55-52.06,28c-9.6,4.72-19.82,9.44-30.79,14.1s-22.54,9.2-35,13.65a219.09,219.09,0,0,1,25.7-16.56c9.42-5.33,19.48-10.54,29-15.57,19.19-10.1,36.57-19.34,46.11-29,17.34-6.76,32.5-15.18,46.21-23.2L1172,609c3.07-1.77,6-3.37,9-4.94l4.3-2.27c1.41-.73,2.79-1.35,4.16-2,4.69-2.11,9.8-4.3,15.08-6.09l8.07-2.8,8.24-2.46c5.53-1.77,11.06-3,16.48-4.59l2-.58,2-.48,4-1c2.62-.68,5.19-1.42,7.69-2.13,3-.76,5.91-1.55,8.7-2.35l4.12-1.21,3.86-1c5.12-1.43,10.21-2.62,15.79-3.69a132.33,132.33,0,0,1,18.77-2,142.09,142.09,0,0,1,24.64,1.39,190.57,190.57,0,0,1,21.94,4.41c7.22,1.88,14.5,4.12,22.12,6.85a114.23,114.23,0,0,1,22.68,11.21,128.14,128.14,0,0,1,19.11,15,156.66,156.66,0,0,1,14.73,16.1c4.24,5.28,7.86,10.34,11.28,14.86a32,32,0,0,0,3,3.6c1,1.2,2.19,2.35,3.29,3.55s2.16,2.45,3.11,3.76a26,26,0,0,1,2.46,4.14c3.09,6.91,4.87,15.38,5.83,24.28s1.34,18.15,2.38,27a19.94,19.94,0,0,0,.74,3c.41,1.26.91,2.74,1.34,4.26a33,33,0,0,1,1.73,7.66,61.07,61.07,0,0,1-2.31,14.16c-.57,2.36-1.29,4.71-1.86,7s-1.17,4.55-1.59,6.74c-1.41,7.46-3.08,15.23-5.09,23.23-1,4-2.12,8-3.28,12.15l-1.85,6.16-1,3.1-.49,1.56-.57,1.62c-1.53,4.32-2.87,8.7-4.63,13.14-.83,2.23-1.66,4.46-2.49,6.71l-2.75,6.79c-.45,1.14-.91,2.28-1.37,3.42l-1.5,3.45-3,6.94-3.25,7L1426,847.2c-.55,1.18-1.16,2.36-1.74,3.55-18.22,38-44,78.38-71.5,118.45-11.2,16.33-23,29.55-33.23,45.1-6.83,10.39-12.45,23-20.1,32.62a133.06,133.06,0,0,1-12.09,13.2c-2.07,2-4.2,3.89-6.29,5.81l-3.14,2.84-1.56,1.42-1.57,1.37c-4.18,3.64-8.21,7.47-12.1,11.35-2,2-3.79,4.11-5.62,6.23A76.81,76.81,0,0,0,1251.78,1096Zm-36-455.58a22,22,0,0,0-6.82,2.79c-1.19.67-2.16,1-5.57.92-2-2,1.39-4.32,5.14-5.48a16.38,16.38,0,0,1,2.81-.63,8.82,8.82,0,0,1,2.43,0C1215.15,638.29,1216,639,1215.76,640.38Z"/><path class="b" d="M826.92,1399.57c7.59,1.37,12.2.66,18.74,1.34,3.81,2.13,9,3.67,14.82,5,2.91.68,5.95,1.32,9.07,1.91l9.47,1.54c3.15.53,6.26,1.07,9.25,1.67,1.5.29,3,.62,4.39.93s2.81.6,4.15.94c5.34,1.35,9.81,3.11,12.74,5.6l-18.67-3.3-17.66-3.69-4.31-.91c-1.43-.32-2.84-.68-4.24-1l-8.39-2c-5.55-1.37-11.06-2.66-16.45-4.24l-16.2-4.54c-5.36-1.64-10.71-3.35-16.13-5-2.7-.87-5.43-1.67-8.15-2.61l-8.18-2.85-8.32-2.9-4.23-1.47-4.22-1.6a15,15,0,0,1,4.86.16,63.23,63.23,0,0,1,7.17,1.45c2.67.68,5.57,1.52,8.54,2.47s6,2.07,9,3c6,2,11.75,4.23,16,6.1S827,1398.84,826.92,1399.57Z"/><path class="b" d="M741.55,1365.5a35.57,35.57,0,0,0,12.86,3.21c1.69.13,3.34.27,5.3.59a36.45,36.45,0,0,1,7.07,1.93c-6.12,2.49-21.53-3.58-27.19-1C730.89,1366.46,745.11,1370.09,741.55,1365.5Z"/><path class="b" d="M1020,516c-8,7.39-24.18,16.07-41,24.79s-34.33,17.53-45.3,25.38c10.46-9.06,25.22-17.26,40.68-25.35,7.71-4,15.69-8.08,23.39-12.18S1013.06,520.32,1020,516Z"/></svg>