<svg xmlns="http://www.w3.org/2000/svg" viewBox="0 0 1920 1920"><defs><style>.a{fill:none;}.b{fill-rule:evenodd;}</style></defs><path class="a" d="M191.41,889.12a340.55,340.55,0,0,0,85.7,45.74,382.41,382.41,0,0,0,85.6,20c13.65,1.62,27,2.57,39.87,2.93s25.42.18,37.63-.38,24-1.56,35.56-2.83,22.8-2.84,33.74-4.67,21.68-3.85,32.18-6.07c5.21-1.13,10.42-2.27,15.53-3.47,1.27-.3,2.62-.59,3.81-.9l3.62-.91,7.22-1.83,14.44-3.69,7.22-1.85c2.42-.59,4.78-1.34,7.17-2l28.6-8.31a1148.67,1148.67,0,0,0,111.54-41.09l13.61-6c4.52-2,9.09-3.92,13.53-6.09L794.79,855c8.84-4.46,17.61-9,26.41-13.57l6.59-3.41,6.49-3.6,13-7.22a1132.79,1132.79,0,0,0,100.31-63.54,1140.81,1140.81,0,0,0,93-74.19l11.07-10,5.52-5,2.76-2.51,2.68-2.51,5.33-5,5.21-5c3.5-3.34,6.85-6.62,10.21-9.91,13.43-13.13,25.91-25.8,37.88-37.94s23.31-23.67,34.21-34.43c5.48-5.43,10.78-10.55,16-15.58l7.77-7.3c2.55-2.34,5.12-4.75,7.62-7,10.05-9.06,19.72-17.26,28.93-24.28A272.2,272.2,0,0,1,1242.15,505l3.11-1.86,3.07-1.69c2-1.2,4-2.14,6-3.21,1-.56,2-.95,3-1.44s2-1,2.93-1.41l2.9-1.28,1.44-.65,1.2-.42c1.58-.57,3.13-1.19,4.67-1.86,1.63-.51,3.29-1,4.9-1.54a42.93,42.93,0,0,1,5-1.39c.85-.22,1.7-.45,2.54-.7a8,8,0,0,1,1.31-.28l1.34-.23c.89-.17,1.77-.34,2.66-.53a19.25,19.25,0,0,1,2.68-.52c1.85-.21,3.7-.46,5.53-.78l.69-.11.72,0,1.44-.1c1-.07,1.91-.15,2.86-.24l1.43-.15a8.69,8.69,0,0,1,1.45-.09c1,0,2,0,3-.06,3.9-.29,8,0,12.06,0q3.09.3,6.21.46c.52.05,1,0,1.55.11l1.58.22,3.16.4a181.08,181.08,0,0,1,51,14.59,218.46,218.46,0,0,1,23.8,12.86,204.62,204.62,0,0,1,21,15.8q2.31,2.19,4.71,4.27a10.6,10.6,0,0,1,1.12,1.1l1.08,1.12,2.2,2.2,1.12,1.09.56.54.49.58,2,2.28a57.51,57.51,0,0,1,3.94,4.55,120.39,120.39,0,0,1,13,18.67c.44.79.9,1.57,1.36,2.34.22.39.5.77.68,1.17l.55,1.2c.73,1.59,1.55,3.15,2.36,4.71.61,1.6,1.26,3.19,2,4.75l.54,1.16.38,1.2c.26.8.53,1.6.81,2.38s.59,1.58.9,2.36.57,2,.87,3l.91,3c.15.51.34,1,.46,1.52l.35,1.56.76,3.1.41,1.55.2.78.15.79c.39,2.13.81,4.25,1.28,6.36,3,17.18,3.7,36.15,1.76,57.4a336.46,336.46,0,0,1-5,33.35c-2.32,11.58-5.21,23.54-8.85,35.89s-7.77,25-12.44,37.85-9.94,26-15.57,39.35c-11.25,26.65-24.35,54.08-38.5,82.23l-5.36,10.6L1384,915.63l-11.23,21.69c-7.45,14.25-14.75,28-22,41.12-14.53,26.14-29,50-43.72,70.65q-11.07,15.48-22.34,28.71l-2.83,3.28c-.93,1.1-1.87,2.2-2.87,3.25l-5.87,6.41L1267,1097c-2,2.08-4.2,4.09-6.27,6.16q-12.74,12.21-26.94,23.6c-2.41,1.88-4.75,3.8-7.21,5.66l-7.4,5.56-7.63,5.45c-2.55,1.82-5.23,3.56-7.83,5.36-42.15,28.41-92.94,52.78-149.44,74.91q-21.19,8.31-43.34,16.32t-45.21,15.86c-30.67,10.51-62.49,20.95-95.06,31.84S804.6,1310,770.43,1322.5c-17.07,6.26-34.3,12.78-51.66,19.68s-34.88,14.25-52.46,22a1111.84,1111.84,0,0,0-106,53.5A858.18,858.18,0,0,0,456.45,1488L110.8,1761.41l440.68,16.41c41.25,1.54,84.32,2.14,129.52-.16,22.6-1.16,45.75-3,69.55-6.06a713.71,713.71,0,0,0,73.39-13.09,556.07,556.07,0,0,0,77.39-24,458.08,458.08,0,0,0,79.5-40.48,401.86,401.86,0,0,0,74.53-61.54l4.28-4.48c1.41-1.51,2.75-3.1,4.12-4.66q4.08-4.69,8.11-9.44c1.33-1.59,2.69-3.15,4-4.77l3.8-4.93q3.78-4.92,7.5-9.91c2.53-3.3,4.78-6.74,7.09-10.15s4.58-6.86,6.83-10.31l1.68-2.59,1.64-2.69,3.23-5.43c2.14-3.62,4.28-7.25,6.23-11a389,389,0,0,0,35.7-91.72,412.29,412.29,0,0,0,8.85-46.06,438.71,438.71,0,0,0,3.78-44.86c.57-14.73.3-29.09-.44-43.22s-2.13-27.9-3.91-41.45a589.31,589.31,0,0,0-16-77.94c-3.44-12.48-7.25-24.71-11.32-36.78s-8.55-23.88-13.26-35.55l-3.61-8.71c-.6-1.43-1.21-2.93-1.82-4.31l-1.84-4.1-7.42-16.41-3.73-8.18c-1.24-2.74-2.65-5.38-4-8.06l-8.08-16a832.68,832.68,0,0,0-76.29-120.94A838.82,838.82,0,0,0,802.35,753.75c-5-3.26-10-6.58-15.08-9.76l-15.44-9.24-7.74-4.6-3.87-2.29c-1.29-.77-2.56-1.45-3.84-2.17l-7.67-4.28c-2.55-1.42-5-2.71-7.47-4.07l-3.72-2-3.65-2-7.18-3.79-13.9-7.2-25.57-13.09C671,681,657.17,673.59,645.45,666.62c-.73-.43-1.51-.87-2.21-1.3l-2-1.27-4.12-2.53-3.76-2.47-1.9-1.22c-.61-.41-1.15-.8-1.73-1.2l-3.44-2.37c-1.12-.78-2.08-1.55-3.14-2.32l-1.56-1.13c-.24-.18-.57-.4-.74-.54l-.58-.47-1.18-.91L617.9,648a93.88,93.88,0,0,1-14.62-14.72,47.29,47.29,0,0,1-3.68-5.4,21.63,21.63,0,0,1-1.14-2.24h0s.11,0-.25.1l-1.51.55-3,1c-.94.32-1.89.61-2.87.89-.51.14-.9.28-1.34.41l-1.31.37c-1.88.49-3.32.9-5,1.25l-2.19.47L579,631c-1.18.23-2.6.4-3.5.52l-.79.09-.74.07c-.4,0-.81.08-1.23.11l-1,.06-.91,0h-.84l-12-.32h-.17a8.91,8.91,0,0,1-1.16-.08h-.15l.24,0,.44.09.33.1c.32.07.62.15.9.23s.54.16.78.25l.4.14.63.2c.41.14.81.28,1.18.43l1.13.48a29,29,0,0,1,2.89,1.31l.32.17.43.2.87.43c.57.29,1.11.58,1.63.88a82.36,82.36,0,0,1,14.12,10.05c1.25,1,2.43,2.07,3.5,3.13l.8.8.85.81c.57.54,1.1,1.09,1.62,1.63s1,1.1,1.5,1.64l.38.41.19.19h0s0,0,0,0,0,0,0,0l.08,0a.36.36,0,0,0,.21-.21.86.86,0,0,0,.41-.25.81.81,0,0,1,.09-.1l.15,0a1.75,1.75,0,0,0,.27-.16,1.21,1.21,0,0,0,.24-.21,1.35,1.35,0,0,0,.35-.14,2.07,2.07,0,0,0,.32-.19l.15-.12.19-.06a2.69,2.69,0,0,0,.73-.39c.57-.14,1.05-.5,1.63-.63a15,15,0,0,1,3.14-.91c.11,0,.23-.12.34-.11h.3c.15,0,.29-.15.26-.05s0,0,0,0,0,.07,0,0v0s0,.1,0,0v0s0-.08,0,0,0,0,0,0,0-.08,0,0l0,0,.21.1.26.09a1.67,1.67,0,0,1,.24.16,3.81,3.81,0,0,0,.52.29l.28.12.27.2a35.37,35.37,0,0,1,5.26,4A69.4,69.4,0,0,1,621,673.79a109.38,109.38,0,0,1,10.8,27.7,115.64,115.64,0,0,1,2.62,15.16c.14,1.24.17,2.47.32,3.71s.08,2.43.18,3.64,0,2.37.06,3.56l-.2,4.54A186.62,186.62,0,0,1,629,771.6a281.13,281.13,0,0,1-15.67,44.68,430.43,430.43,0,0,1-25.21,48.06l-1.82,3.07-1.94,3.08-3.87,6.16c-.66,1-1.27,2.05-2,3.08l-2.06,3.1-4.1,6.19c-1.33,2.07-2.8,4.14-4.24,6.21l-4.33,6.21c-1.38,2-3,4.21-4.53,6.34l-4.64,6.41c-25.17,34.37-55.44,70.44-88.1,110.29-16.32,19.94-33.21,40.87-50.17,63.17L410,1096.1c-2.12,2.85-4.24,5.58-6.36,8.53l-6.34,8.72c-2.12,2.93-4.24,5.78-6.33,8.82l-6.31,9-3.14,4.51-1.72,2.49-1.91,2.82c-5.15,7.69-10.43,16-15.79,25.29-2.67,4.59-5.37,9.55-8,14.68-1.35,2.63-2.67,5.21-4,8-.67,1.39-1.32,2.72-2,4.16l-2,4.31c-2.62,5.86-5.19,12-7.66,18.64-1.23,3.24-2.44,6.79-3.6,10.25-.58,1.77-1.16,3.62-1.72,5.43l-.83,2.74-.82,2.86-1.57,5.75-1.48,6c-.48,2-.93,4.11-1.37,6.22s-.87,4.17-1.26,6.4a251.05,251.05,0,0,0-3.43,27.86,239.62,239.62,0,0,0,.07,31.12,228.42,228.42,0,0,0,4.82,33.19,222.43,222.43,0,0,0,10.08,33c1,2.69,2.15,5.34,3.32,8s2.36,5.24,3.6,7.84,2.61,5.2,4,7.77,2.81,5.15,4.26,7.68c3,5.06,6.19,10.08,9.57,14.91q2.56,3.61,5.23,7.15l2.69,3.51,2.78,3.4q2.81,3.38,5.71,6.66c1.93,2.22,3.91,4.24,5.9,6.33s4,4.12,6.08,6.08,4.11,3.82,6.2,5.69c4.21,3.81,8.38,7.13,12.68,10.49,2.17,1.7,4.27,3.19,6.41,4.72s4.29,3,6.47,4.48,4.25,2.73,6.39,4.07l3.23,2c1.09.66,2.16,1.3,3.2,1.88q3.17,1.79,6.36,3.51l3.2,1.71,3.11,1.55a257.48,257.48,0,0,0,47.73,18,286.65,286.65,0,0,0,42.43,8,318.06,318.06,0,0,0,38.32,2,340.21,340.21,0,0,0,35.93-2.24c2.94-.33,5.88-.7,8.81-1.13s5.85-.86,8.78-1.36,5.86-1,8.79-1.6l2.2-.43,1-.2.83-.19,3.34-.75a515.39,515.39,0,0,0,103.62-33.94,545.22,545.22,0,0,0,92.4-53,602.7,602.7,0,0,0,78.07-66.33A680.16,680.16,0,0,0,984,1298.44a763.1,763.1,0,0,0,51.68-79.87,861.36,861.36,0,0,0,72.4-169.56q6.73-21.85,12.31-44l2.73-11.11,1.35-5.56,1.23-5.6,2.45-11.19,1.21-5.62,1.21-6.07,1.38-7.27c.55-3.07,1.09-6.14,1.6-9.22,1-6.15,2-12.32,2.75-18.49,1.61-12.36,2.78-24.74,3.36-37.1a354.8,354.8,0,0,0-3.64-73.23,290.56,290.56,0,0,0-19.76-69,262.21,262.21,0,0,0-36.7-61.12l-5.74-6.85-6-6.59c-2-2.21-4.1-4.32-6.19-6.44l-6.27-6.37a279.3,279.3,0,0,0-27.68-22.61c-4.8-3.55-9.84-6.78-14.89-10-2.5-1.65-5.13-3.11-7.72-4.63s-5.2-3-7.85-4.44l-8-4.13-4.05-2-4.13-1.91q-4.14-1.9-8.31-3.74c-2.79-1.21-5.63-2.33-8.46-3.47-11.32-4.57-23-8.45-34.9-11.92l-9-2.42c-3-.81-6-1.64-9-2.36q-9.06-2.24-18.2-4.19l-9.16-1.9-9.31-1.85-9.83-1.9-18.38-3.54-73.52-14.16L636.69,530.68l61.18-81-281.52-163a96.14,96.14,0,0,1-8.51,11.66L406,300.61l-.94,1.13L403.91,303c-1.54,1.73-2.85,3.31-4.7,5.31l-2.59,2.87-3.34,3.61-3.5,3.74-14,15-7,7.48L362,348.55l-6.82,7.57-6.55,7.71c-2.17,2.57-4.4,5.12-6.51,7.72l-6.19,7.85-3.09,3.92c-1,1.31-2.08,2.61-3,3.95l-5.77,8-2.89,4c-.47.67-1,1.33-1.42,2l-1.31,2-5.23,8.14c-3.62,5.4-6.64,10.91-9.79,16.42L301.11,432,299,436.15l-4.2,8.34c-.69,1.39-1.4,2.78-2.05,4.18l-1.92,4.21c-1.29,2.8-2.49,5.62-3.68,8.45-19,45.27-27.52,92.82-23.57,139.52a252,252,0,0,0,15.51,68.7,245.47,245.47,0,0,0,34.23,61.33c26.1,33.58,58.93,59,99.81,77.83a336,336,0,0,0,32.26,12.52c2.82.92,5.58,1.9,8.44,2.77l8.67,2.52c2.86.88,5.87,1.59,8.8,2.38l4.43,1.16,4.48,1.07c12,2.89,24.2,5.33,36.45,7.68l36.76,7.08,157.93,30.43,100.33,19.34h0v.05l-.07.37-.29,1.5-.62,3.11-.78,3.53-1.55,7.09-.76,3.55-.87,3.53L805,925.46q-3.57,14.12-7.85,28.06a536.89,536.89,0,0,1-44.85,105.39c-18.25,32.44-39.67,61.43-62.88,84.73a278.21,278.21,0,0,1-35.84,30.57,219.61,219.61,0,0,1-37.21,21.47,190.3,190.3,0,0,1-38.4,12.62l-1.21.3-.31.08c-.13,0-.15,0-.16,0l-.1,0a3.86,3.86,0,0,1-.41.07,3.31,3.31,0,0,1-.47.07,2.63,2.63,0,0,1-.48.06,14,14,0,0,1-1.41.11h-.06l0,.66-.08,3.21q0,1.65-.15,3.33l-.19,3.5c-.07,1.19-.16,2.39-.27,3.59-.19,2.43-.4,5-.73,7.48a213,213,0,0,1-5.74,30.9,140.49,140.49,0,0,1-9.65,26.21l-.72,1.37-.62,1.22c-.42.82-.88,1.63-1.36,2.44l-.36.6-.3.53-.62,1.06c-.43.69-.91,1.42-1.36,2.08s-.77,1.18-1.19,1.77-.93,1.21-1.22,1.64c-.65.91-1.63,2-2.13,2.6-2.59,3-4.14,3.72-3.21,3.17.2-.13.39-.23.57-.33l.26-.13.14-.06.25-.13c.33-.17.66-.32,1-.45l.47-.19-1,.41-.36.13h0l.26-.07.47-.12.77-.15.53-.09.58-.09,1.34-.17c.54-.06,1-.08,1.57-.13s1.3-.09,1.93-.1h.47l.58,0,1.16,0c1.39,0,3.39,0,5.09.19,1,0,2,.12,3,.22l3.25.36,1.69.23c.56.09,1.1.18,1.76.27,1.26.17,2.51.38,3.74.62.59.13,1.28.25,2,.37l2,.41,4.21.94c1.48.33,2.95.7,4.4,1.1s3.19.82,4.76,1.28l4.93,1.45c1.72.52,3.33,1.06,5.09,1.64,3.7,1.16,7.08,2.45,11.07,3.87l2.86,1.09c.94.37,1.88.75,2.94,1.15q3.07,1.17,6.09,2.45l6.37,2.67,6.53,2.9,3.42,1.54,3.07,1.43s0,0,0-.06.12-.22.18-.37c.22-.4.49-.94,1-1.73.85-1.5,2.27-3.77,4.06-6.45l.71-1,1-1.36,2.22-3.16,4.42-6.34c1.44-2.1,3.06-4.25,4.6-6.38l4.66-6.42c1.51-2.13,3.22-4.32,4.83-6.48l4.89-6.5c13.26-17.44,27.7-35.39,43-54.07,30.55-37.4,64.7-77.7,98.61-123.85l6.35-8.74c2.11-2.93,4.21-5.79,6.35-8.89l6.36-9.15c2.12-3,4.25-6.09,6.32-9.25l6.24-9.41,3.11-4.71c1-1.57,2-3.21,3.06-4.82l6.09-9.68,3-4.85,3-5a752.68,752.68,0,0,0,44.15-84.53,605.64,605.64,0,0,0,33.51-96.56,512.13,512.13,0,0,0,15.5-108.4l.21-7,.1-3.53c0-1.2.09-2.28.06-3.59,0-5-.07-10.13-.23-15.16s-.42-10.06-.76-15.06-.76-10-1.28-14.93a438.36,438.36,0,0,0-10.08-58.57,433.79,433.79,0,0,0-43.83-111.22,404.91,404.91,0,0,0-34.76-51.78,382.07,382.07,0,0,0-44.53-47.5A360.66,360.66,0,0,0,770,373.71l-3.72-2.25-3.81-2.15-7.67-4.24c-1.29-.7-2.56-1.41-3.86-2.08l-4-2-8.16-4c-2.77-1.37-5.66-2.58-8.51-3.83s-5.74-2.45-8.62-3.65c-5.77-2.38-11.64-4.5-17.5-6.63-4.58-1.42-9.14-2.9-13.73-4.27-2.3-.67-4.59-1.4-6.91-2l-7-1.73c-9.29-2.37-18.75-4-28.21-5.53A334.56,334.56,0,0,0,591,326.19c-4.79.2-9.59.44-14.37.75s-9.55.89-14.32,1.42-9.39,1.25-14,2l-6.8,1.13c-2.27.38-4.48.88-6.71,1.33a338.18,338.18,0,0,0-52.14,14.93c-8.47,3.07-16.73,6.69-25,10.38q-6.11,2.94-12.17,6l-3,1.54-3,1.63-6,3.31-5.94,3.36-5.86,3.61L416,381.19l-2.9,1.85-2.87,2q-5.73,3.94-11.38,8c-3.75,2.83-7.46,5.72-11.14,8.63a331.94,331.94,0,0,0-41.83,40.29,309.5,309.5,0,0,0-35.47,50.72,285.68,285.68,0,0,0-36.09,127.27l-.19,4.21,0,4q0,4,0,8c.05,2.65.14,5.3.24,7.94s.22,5.29.42,7.91.4,5.24.63,7.86.55,5.19.85,7.78c.58,5.21,1.4,10.28,2.24,15.37a318,318,0,0,0,15.68,57.4A343.87,343.87,0,0,0,317.63,790a373,373,0,0,0,28.43,42.33,403.12,403.12,0,0,0,31.64,36.15,426.13,426.13,0,0,0,34.18,31.17l4.44,3.6,4.5,3.52,2.25,1.75c.77.61,1.43,1.07,2.15,1.61l4.23,3.14c2.81,2.06,5.66,4.2,8.47,6.18l8.4,5.82c1.39,1,2.81,2,4.2,2.87l4.13,2.71,8.29,5.39,8.13,5,4.07,2.5,4,2.37c21.27,12.63,41.35,23.18,59.31,32.4l25.67,13.14,11.66,6,5.55,2.92,2.7,1.44,2.61,1.41c1.72.94,3.54,1.9,5.17,2.81l4.9,2.74c.81.46,1.66.9,2.43,1.37l2.31,1.39,4.62,2.78,9.27,5.5c3.06,1.91,6,4,9.06,5.92a513.7,513.7,0,0,1,127,118.48,507.58,507.58,0,0,1,46.39,73.59l4.87,9.66c.8,1.62,1.69,3.19,2.41,4.84l2.21,4.92,4.46,9.82,1.12,2.45c.37.81.65,1.54,1,2.32l1.91,4.58q3.69,9.19,6.86,18.39c2,6.12,4,12.21,5.61,18.23a265.61,265.61,0,0,1,7.2,34.75c.7,5.47,1.29,10.82,1.51,15.83s.37,9.88.16,14.33a114.69,114.69,0,0,1-1,12.48,85.24,85.24,0,0,1-2,10.44,65.06,65.06,0,0,1-2.65,8.45,122.65,122.65,0,0,1-1.52,3.6,18.38,18.38,0,0,0-.78,1.69c-.3.53-.61,1-.87,1.58a10.13,10.13,0,0,1-.89,1.54l-.43.77c-.08.13-.13.26-.21.39l-.31.41c-.41.54-.79,1.1-1.15,1.67a9.32,9.32,0,0,1-1.13,1.66,60.88,60.88,0,0,1-5,6A75.71,75.71,0,0,1,805,1420.37a131.71,131.71,0,0,1-23,11.55,231.65,231.65,0,0,1-32.52,9.95c-24.47,5.76-53.64,9.35-85.06,10.93s-65.24,1.31-100.68,0l95,289.87A534.51,534.51,0,0,1,723,1699.39,785.92,785.92,0,0,1,798,1661.63q20-8.87,41.07-17.24T882.26,1628c29.34-10.77,60-21.17,91.48-31.7s64-21.2,97.34-32.61q25-8.55,50.52-17.74t51.61-19.43c34.7-13.61,70.08-28.81,105.65-46.42a930,930,0,0,0,106.39-61.33,742.33,742.33,0,0,0,101-81.2c4-3.86,7.93-7.68,11.82-11.62l11.56-11.94c3.79-4.06,7.52-8.18,11.27-12.28,1.88-2,3.72-4.14,5.53-6.25l5.46-6.32c14.43-16.91,27.7-34.1,40-51.3,24.5-34.43,44.93-68.69,63.27-101.65,9.11-16.45,17.67-32.58,25.88-48.31l12.11-23.35,6.09-11.88,6.09-12c16.21-32.29,32.36-65.89,47.44-101.55a1016.38,1016.38,0,0,0,40.92-113.51c5.89-20.1,11.06-41,15.39-62.59a659,659,0,0,0,10-67,565.46,565.46,0,0,0,2.2-71.1,522.64,522.64,0,0,0-7.58-73.68q-1.79-9.26-3.69-18.51l-.48-2.31-.55-2.31-1.11-4.6-2.28-9.21-1.16-4.6c-.39-1.53-.86-3.05-1.29-4.57l-2.68-9.13c-.92-3.05-1.77-6-2.77-9.14l-3.33-9.61-3.42-9.57-1.74-4.77-1.93-4.68q-3.87-9.34-7.91-18.61c-2.87-6.06-5.83-12.06-8.83-18.05l-2.25-4.49c-.76-1.49-1.6-2.92-2.4-4.38L1741,404a445.87,445.87,0,0,0-44.72-64.62c-4-5.11-8.35-9.85-12.64-14.64l-6.47-7.15-1.62-1.78-1.67-1.72-3.36-3.41-6.75-6.78-3.39-3.38c-1.13-1.12-2.26-2.25-3.43-3.31q-7-6.43-14.05-12.79a526,526,0,0,0-60-45.17,541.08,541.08,0,0,0-65.33-35.41A506,506,0,0,0,1374.09,163l-9.43-1.14-4.72-.55c-1.57-.19-3.17-.27-4.76-.41q-9.54-.74-19.09-1.36c-6.4-.28-12.84-.37-19.27-.5s-12.91.07-19.38.25l-9.72.35c-1.61,0-3.24.16-4.87.29l-4.89.39-9.77.83-4.89.45-2.44.22-2.45.32q-9.79,1.31-19.58,2.75c-3.26.43-6.53,1.15-9.79,1.75l-9.79,1.93-4.88,1c-1.63.34-3.26.65-4.88,1.08l-9.74,2.47c-6.48,1.71-13,3.26-19.39,5.4s-12.85,4.09-19.23,6.29q-9.51,3.58-19,7.34l-4.71,1.88-4.35,1.91-8.7,3.87c-2.87,1.32-5.68,2.69-8.52,4s-5.69,2.7-8.42,4.14c-5.51,2.85-11.08,5.68-16.38,8.68-2.67,1.49-5.37,3-8,4.49l-7.8,4.6a594.63,594.63,0,0,0-57.38,39.14c-17.67,13.51-33.77,27.25-48.85,40.83-3.82,3.4-7.42,6.76-11.1,10.15s-7.16,6.71-10.71,10.07c-7,6.65-13.82,13.28-20.35,19.76-13.17,13-25.54,25.59-37.31,37.53s-23,23.35-33.79,33.87c-2.69,2.62-5.38,5.25-8,7.75l-3.95,3.78L840,432.35,838,434.17l-2,1.75-3.89,3.5-7.75,7a816.63,816.63,0,0,1-65.53,52.28,805.89,805.89,0,0,1-71,45l-9.19,5.12-4.59,2.57-4.67,2.41-18.71,9.63-19,9c-3.14,1.57-6.39,2.89-9.6,4.3L612.46,581A825.37,825.37,0,0,1,533.7,610l-20.12,5.82c-1.68.47-3.34,1-5,1.43l-5.07,1.28-10.13,2.58-5.07,1.3-2.53.65c-.85.23-1.57.37-2.36.56-3.12.74-6.17,1.39-9.22,2.06q-9.07,1.92-17.67,3.34c-5.73,1-11.23,1.71-16.49,2.29s-10.33,1-15,1.21-9.08.26-13.09.16-7.56-.41-10.7-.77a58.55,58.55,0,0,1-13-2.79,14.29,14.29,0,0,1-2.53-1.1l-1-.61Z"/><path class="b" d="M267.67,786.69c-.29-3.51,5.1-.58,7.43-1.07l2.22,2,2.27,2c1.49,1.29,2.9,2.55,4,3.72,2.33,2.28,3.66,4.17,2.46,5.35A209.21,209.21,0,0,1,267.67,786.69Z"/><path class="b" d="M901.88,766.8c5.16-3.42,9.11-6,12.57-7.79a92.87,92.87,0,0,1,9.2-4.24c2.84-1.16,5.61-2.24,8.79-3.79,1.59-.77,3.28-1.66,5.14-2.73s3.81-2.43,6-4c16.59-10.54,12.06-12.28,18.79-18.71l2.25-1.53,2.2-1.6,4.4-3.2L980,712.8l8.7-6.47,4.33-3.24,4.23-3.36q8.44-6.75,16.77-13.54l4.16-3.4c1.39-1.13,2.77-2.27,4.1-3.46l8-7.06q8-7.07,15.9-14.15c5.14-4.75,10.18-9.52,15-14.21,9.71-9.42,18.84-18.67,27.5-27.69,17.28-18,32.63-35,46.67-50.7l20-22.43,18.21-20.26c.25,1.6,1.66,1.19,3.55-.08,1-.64,2-1.5,3.13-2.43l3.35-2.76a11.55,11.55,0,0,1,1.51,8.51,26.35,26.35,0,0,1-1.43,5.15,51.78,51.78,0,0,1-2.6,5.64c-14.35,14.49-29.33,30.47-45.13,47.45l-24.4,26.24q-12.62,13.5-26.12,27.66c-9,9.44-18.41,19.06-28.31,28.86l-15.15,14.61-7.6,7.32-3.8,3.67-3.9,3.55-15.61,14.29c-2.62,2.37-5.19,4.81-7.85,7.15l-8,7-16.07,14.08-2,1.77-2.06,1.71L971,745.64l-8.25,6.91c-.28-4.39-3.93-4.74-9.29-3a70.36,70.36,0,0,0-9.13,3.84c-3.35,1.61-7,3.37-10.65,5.22C926.38,762.23,919,766,913.12,768a19.62,19.62,0,0,1-7.44,1.37C903.73,769.26,902.39,768.47,901.88,766.8Z"/><path class="b" d="M1480.12,609.39a12.25,12.25,0,0,0-.83,3.68c-.07.69-.12,1.4-.17,2.11s-.19,1.45-.31,2.15c-.46,2.78-1.2,5-3.47,5C1475.21,615.28,1476.57,611.11,1480.12,609.39Z"/><path class="b" d="M1791.78,687c.16,12.62-1.54,31.61-4.35,48.27-.76,4.11-1.57,8.09-2.41,11.81s-1.68,7.19-2.64,10.18c-1.86,6-3.71,10.47-5.41,12.36-1.34,16.31-2.82,32.24-6.1,49.87a370.33,370.33,0,0,1-16.43,60.34c-3.73,3.23-7.56,6.83-11,7.46,2.51-13.6,5.88-31.87,9.56-51.78,3.71-20.1,7.64-42.12,11.33-63.2s7.32-41,11.51-56.47c2.07-7.74,4.29-14.37,7-19.29S1788.32,688.19,1791.78,687Z"/><path class="b" d="M1114.47,1254.69c4.16-1.43,5.46-1.62,5.33-1.13s-1.71,1.64-3.41,2.78c-3.39,2.29-7.18,4.63-.38,1.9-.81,1.9-6.15,4.43-11.2,5.88s-9.7,1.92-9-.12c2.65-1.52,7.8-3.22,12-4.9S1115.35,1255.84,1114.47,1254.69Z"/><path class="b" d="M605.84,1433.71c1.43,1.14,1.66,2.6,0,4.53a19.48,19.48,0,0,1-4,3.29c-1.86,1.22-4.28,2.6-7.33,4.22C591.62,1443.54,593.51,1439.85,605.84,1433.71Z"/><path class="b" d="M1080,1307.59c.48-16.74-1.9-23.73-3.56-29.23a46.2,46.2,0,0,1-2-8.13,54.09,54.09,0,0,1,.22-12c-4.27-14.17-8.75-29.25-13.69-44.65s-10.32-31.16-16.25-46.68c-1.44-3.9-3-7.73-4.55-11.59-.75-2-1.56-3.77-2.35-5.63s-1.59-3.69-2.38-5.54l-4.76-11c-.79-1.82-1.59-3.64-2.38-5.45-.4-.9-.78-1.81-1.2-2.7s-.85-1.77-1.28-2.65c-3.42-7-6.84-13.94-10.25-20.62-1.65-3.37-3.5-6.57-5.31-9.73s-3.62-6.25-5.42-9.27-3.6-5.93-5.44-8.82l-1.39-2.15-1.47-2.1-3-4.15c-4-5.5-8-10.88-12.1-16.24l-1.52-2-1.61-2-3.22-3.93-6.43-7.92q-3.22-4-6.42-8.08c-1.05-1.38-2.16-2.72-3.28-4.07l-3.34-4.09-13.25-16.57-13.88-16.35c-2.34-2.72-4.6-5.51-7-8.21l-7.28-8L907,959.91c-2.44-2.69-4.83-5.43-7.4-8L884.4,936.08c-2.5-2.68-5.16-5.22-7.8-7.78l-7.91-7.69-7.92-7.7c-2.68-2.54-5.45-5-8.17-7.47L844.39,898l-4.11-3.72c-1.37-1.24-2.73-2.5-4.16-3.67l-17-14.29-4.25-3.57-4.36-3.41-8.75-6.82-8.73-6.79L790.87,854l-2.25-1.62-4.48-3.22L766.2,836.38c-12.28-8-24.3-16.28-36.86-23.48l-9.3-5.53-4.64-2.74-4.64-2.58c-6.21-3.48-12.27-6.7-18.29-9.88-27.69-14.48-54.28-26.92-76.86-39.66a330,330,0,0,1-30.75-19.3c-1.14-.81-2.31-1.61-3.39-2.44l-3.22-2.48-3.16-2.46c-1-.83-2-1.67-3-2.5l-2.9-2.49c-.47-.41-1-.83-1.42-1.24l-1.27-1.19c-1.71-1.58-3.31-3.22-4.88-4.83a60.24,60.24,0,0,1,6.82,1.23c.58.13,1.17.28,1.75.43l1.83.51c1.28.38,2.57.8,3.87,1.25s2.6,1,3.92,1.49,2.77,1.06,4.17,1.64,2.81,1.21,4.24,1.86,3,1.31,4.48,2c12,5.61,26,13,41.86,21.35l12.13,6.49,12.63,6.85,13.08,7.19,6.6,3.67,6.69,3.77c4.41,2.47,9,5.12,13.37,7.65l6.68,3.91c2.22,1.32,4.38,2.55,6.61,3.91,8.83,5.19,17.3,10.72,25.28,15.68q5,2.53,9.55,4.67c3,1.47,5.85,2.91,8.6,4.17,5.48,2.54,10.51,4.59,15.15,6.23,5.14,3.42,10,7.15,14.88,10.71s9.72,7.13,14.53,10.64l13.95,10.88,6.9,5.37,3.44,2.66c1.13.9,2.22,1.84,3.33,2.75l13.2,10.93,6.54,5.39c2.16,1.8,4.22,3.7,6.33,5.54l12.5,11c2.05,1.83,4.17,3.59,6.16,5.47l6,5.61c31.89,29.62,60.24,60,85.3,91.73s46.77,65,64.61,100.57q3.29,6.7,6.49,13.44l3.19,6.75c1,2.26,2,4.58,2.93,6.88q2.89,6.92,5.68,13.88c1.87,4.65,3.73,9.24,5.44,14.2a409.09,409.09,0,0,1,16.63,60.81c5.81,13.46,9.37,26.74,12.5,40.66s5.82,28.52,9.49,45.28c0,5.08,0,10.21-1.35,11.58-.55,4.15-2.14,4-4,2.26S1081.67,1309.59,1080,1307.59Z"/><path class="b" d="M658.39,806.41A205.92,205.92,0,0,1,632,794.27c-8.31-4.69-14.14-9.36-11.9-11.93a60.73,60.73,0,0,1-11.83-4.79c-1.91-1-3.82-2.08-5.75-3.22s-3.76-2.37-5.68-3.62c-3.87-2.48-7.6-5.19-11.67-7.83-2-1.34-4-2.68-6.08-4s-4.22-2.61-6.41-3.88l-4.14-3.4-4-3.47c-1.34-1.17-2.72-2.31-4.06-3.48s-2.62-2.38-4-3.57c-2.72-2.4-5.17-4.69-7.63-7.1l-1.86-1.8-1.82-1.84c-1.23-1.22-2.42-2.47-3.62-3.72a220.8,220.8,0,0,1-25.85-32.43A164.14,164.14,0,0,1,506,676.71a124.33,124.33,0,0,1-6.78-17.64,93.51,93.51,0,0,1-3.3-17.22l-.18-2.1c-.07-.7-.05-1.39-.09-2.09-.1-1.39,0-2.77-.06-4.15,0-.69.06-1.38.07-2.06l0-1v-.52l.06-.47c.17-1.25.3-2.49.39-3.75A67.25,67.25,0,0,1,500,611.07l.75-1.8a13.42,13.42,0,0,1,.78-1.8c.62-1.18,1.2-2.37,1.76-3.58.73-1.17,1.42-2.35,2.08-3.55a17,17,0,0,1,1.15-1.75l1.18-1.76a91.07,91.07,0,0,1,11.66-13.49,98.81,98.81,0,0,1,15.22-11.81,117,117,0,0,1,17.76-9.32,123.27,123.27,0,0,1,19.27-6.06c1.64-.31,3.26-.72,4.89-1s3.27-.49,4.89-.75c3.29-.32,6.44-.7,9.48-.71A92.08,92.08,0,0,1,609,554.9c.76,1.52.7,2.7.17,3.47a5.08,5.08,0,0,1-2.79,1.78c-1.24.39-2.7.58-4.13,1a20.72,20.72,0,0,0-3.91,1.21l-3.28-.12a14.78,14.78,0,0,0-1.63,0l-1.61.08-3.19.16-3.26.46-1.66.22c-.54.07-1.09.23-1.63.34l-3.24.71a12.55,12.55,0,0,0-1.6.42l-1.58.48c-1,.33-2.1.61-3.13.95a94.07,94.07,0,0,0-22.34,11.6,128.59,128.59,0,0,0-17.76,14.93c-.63.66-1.28,1.31-1.95,1.94L530,595l-.45.5-.91,1c-.6.65-1.29,1.27-1.89,1.92s-1.16,1.32-1.77,2l-1,.95-.82,1c-.57.65-1.16,1.29-1.79,1.92s-1.07,1.31-1.66,1.95a21.94,21.94,0,0,0-1.72,1.94c-.13.54-.28,1.06-.44,1.58a11.68,11.68,0,0,0-.46,1.54,26,26,0,0,1-.79,3,27.1,27.1,0,0,1-.62,2.9,7.11,7.11,0,0,0-.27,1.42c-.08.47-.16.94-.27,1.4a24.07,24.07,0,0,0-.46,2.76c-.07.45-.2.9-.28,1.35s0,.93-.11,1.38-.13.92-.22,1.37a2.32,2.32,0,0,0-.07.69l0,.71c0,.46-.07.93-.14,1.4l-.1.7c0,.25,0,.54,0,.81,0,.56-.05,1.11-.1,1.67s0,1.12,0,1.69,0,1.14,0,1.71,0,1.15,0,1.74c0,2.35.22,4.78.43,7.32s.65,5.19,1.2,7.94,1.18,5.6,2.09,8.53a129.76,129.76,0,0,0,17.92,36.85A157.19,157.19,0,0,0,549.12,716c2.55,2.72,5.13,5.4,7.84,7.9,1.33,1.28,2.71,2.48,4.08,3.69s3,2.45,4.42,3.65c1,1.17,2,2.4,3.14,3.64s2.43,2.49,3.74,3.79c2.57,2.63,5.68,5.28,8.94,8.08a241.17,241.17,0,0,0,23.64,17.13c9,5.81,19.05,11.65,29.7,17.39s21.92,11.43,33.24,17C671.37,802,664,806,658.39,806.41Z"/><path class="b" d="M524.55,552.4l-2.14-3.23A96.05,96.05,0,0,1,542.29,537l5.35-2.28c1.81-.71,3.65-1.31,5.47-2s3.67-1.19,5.51-1.72,3.68-1.12,5.55-1.5l5.57-1.29,5.57-1,1.39-.28,1.4-.19,2.78-.39,2.74-.43c.91-.12,1.82-.19,2.73-.29,7.23-1,14.47-1.38,21.79-1.81a10.21,10.21,0,0,1-2.57,1.68,29.35,29.35,0,0,1-3.4,1.49c-1.25.45-2.59.86-4,1.23s-2.85.92-4.33,1.34l-2.22.63c-.74.22-1.47.5-2.2.74l-4.28,1.51c-1.38.55-2.7,1.19-3.93,1.8a22.93,22.93,0,0,0-3.34,1.94c-10.69,1.14-20,4.13-28.49,7.25S533.09,549.84,524.55,552.4Z"/><path class="b" d="M616.38,559.77a1.9,1.9,0,0,1,1-2,5.3,5.3,0,0,1,1.46-.53,7,7,0,0,1,2-.18,33,33,0,0,1,5,.57c1.78.5,3.73,1,5.63,1.71l4.25,1.83c1.34.7,2.62,1.41,3.79,2.06a28.62,28.62,0,0,1,3.06,2c.9.63,1.68,1.2,2.2,1.63a33.9,33.9,0,0,1-7.51-1.54c-.58-.19-1.15-.4-1.72-.62s-1.12-.47-1.71-.66c-1.16-.42-2.31-.9-3.47-1.4C626.05,561,621.5,559.32,616.38,559.77Z"/><path class="b" d="M435.7,1211.62a66.74,66.74,0,0,1-1.59,12c-1.08,5.48-2.65,12.29-4.52,20-2,8-4.16,16.66-6.28,25.17-2.25,9-4.6,18.43-7,27.71a160.58,160.58,0,0,0,5.06,33.63,140.84,140.84,0,0,0,5.8,17.24c1.21,2.8,2.4,5.64,3.81,8.36s2.76,5.48,4.4,8.18a129.72,129.72,0,0,0,23.72,29.68,135.51,135.51,0,0,0,29.84,20.83,153,153,0,0,0,30.9,11.89,179,179,0,0,0,30.07,5.36,202.56,202.56,0,0,0,57.79-3c-1.23,1.49.22,2.26,3.27,2.42a39.9,39.9,0,0,0,5.64-.22c1.09-.11,2.24-.26,3.44-.43.58-.09,1.27-.18,1.78-.28l1.63-.32c4.41-.89,9.18-2.11,13.34-3.34,2.07-.62,4-1.24,5.64-1.82a36.73,36.73,0,0,0,3.94-1.79c-.82-.9-2.41-.78-4.3-.23a52.76,52.76,0,0,0-6.16,2.2c-4.07,1.62-7.36,2.83-5.76-.63l8-2.26c1.32-.38,2.64-.73,4-1.12l3.9-1.26,15.47-4.89c5.06-1.75,10-3.58,14.91-5.32,2.43-.91,4.89-1.7,7.24-2.67l7-2.9c18.54-7.41,34.49-16.12,46.51-24.57,2.34,1.13-3.31,4.27-2.76,5.83.72.48,3-.4,5.75-1.74s5.92-3.37,8.66-4.84c-.07.77-2.54,2.72-6,5a127.35,127.35,0,0,1-12,6.61c-8,4-13.94,5.8-5.82-.11-1.06.53-2,1-2.84,1.51s-1.64.87-2.36,1.29c-1.43.82-2.63,1.59-3.85,2.37a58.82,58.82,0,0,1-9.58,5.1c9.38-3.34,8.72-1,9.38.31.34.66,1,1.08,3.48.4a40.57,40.57,0,0,0,5.23-2c2.29-1,5.14-2.58,8.79-4.6-.1,1.1-3.61,3.07-7,5s-6.78,3.55-6.36,4.55a22,22,0,0,1-9.69,1.24c-1.19-.13-2.3-.31-3.51-.42a26.22,26.22,0,0,0-4.16,0,171.31,171.31,0,0,1-17.34,8.34c-3.76,1.5-7.8,3-11.82,4.49l-6,2.23-2.95,1.1-2.93,1c-7.7,2.51-14.41,4.84-18.15,6.58-3.77,1.59-4.54,2.8-.18,3.33-5.19,2.29-12.31,3.88-20.36,5.13a205.76,205.76,0,0,1-29.92,1.69c-10.26-.1-20.5-.74-29.91-1.24s-18-.86-25,0a207.32,207.32,0,0,1-31.45-8.44,165.32,165.32,0,0,1-30.65-14.51c-1.24-.73-2.5-1.56-3.74-2.38l-3.71-2.49c-2.45-1.72-4.88-3.59-7.28-5.43s-4.74-4-7-6.06l-3.41-3.26c-1.12-1.09-2.24-2.19-3.31-3.38a132,132,0,0,1-22.08-31.59,129.08,129.08,0,0,1-7.51-18.23,138.1,138.1,0,0,1-4.78-19.68,145.48,145.48,0,0,1-1.8-20.17,156.33,156.33,0,0,1,1-19.79,173.39,173.39,0,0,1,8.64-36.92A222.62,222.62,0,0,1,435.7,1211.62Z"/><path class="b" d="M755.1,1368.63c4.74-2.37,9.67-4.51,12.54-5s3.61.68-.28,4.74C757.61,1374.6,756.11,1371.72,755.1,1368.63Z"/><path class="b" d="M782.91,1345.2a78.12,78.12,0,0,1,7.49-5.18,26,26,0,0,1,4.88-2.22,30.83,30.83,0,0,0,10.36-5.23c-1.87,3.68-7.55,8-12.73,10.79a25.63,25.63,0,0,1-7,2.74C784.08,1346.46,782.9,1346.24,782.91,1345.2Z"/><path class="b" d="M843.5,1305.45c-.9-2.54,4.33-7.57,10.94-13.85,6.36-6.45,14.35-14,18.54-21.5,1,2.05-3.25,8-9.55,14.79-1.55,1.71-3.21,3.48-4.9,5.27s-3.4,3.61-5.2,5.34C849.78,1299,846.33,1302.41,843.5,1305.45Z"/><path class="b" d="M892.2,1246.64a49.63,49.63,0,0,0,2.17-5.69c.62-1.84,1.24-3.68,2.08-5.7a53.27,53.27,0,0,1,3.42-6.79c.75-1.29,1.66-2.65,2.63-4.17s2.07-3.16,3.34-4.94C905.28,1225.45,900.87,1234.43,892.2,1246.64Z"/><path class="b" d="M1007.64,686.83c-4.52-3.83-8.52-7.42-12.25-10.44q-2.76-2.32-5.16-4.44c-1.63-1.36-3.14-2.65-4.53-3.89s-2.64-2.41-3.76-3.54-2.17-2.12-3.05-3.11a20.7,20.7,0,0,1-3.71-5.29c5.05,4.35,13.89,10.33,20.88,16.43,1.76,1.51,3.42,3,4.92,4.39a54,54,0,0,1,3.8,4.1C1006.88,683.58,1008,685.62,1007.64,686.83Z"/><path class="b" d="M565.24,1264.92a140.66,140.66,0,0,1-7.73,20.87,83.05,83.05,0,0,1-8.44,14.36,35.56,35.56,0,0,1-5.46,6c-.88.71-.5.22,1.57-.72.26-.12.52-.22.77-.32l-.94.4-.29.1h0a11.53,11.53,0,0,1,1.48-.34l.87-.15c.32-.05.58-.07.93-.11s.83-.11,1.23-.14l1.32-.1c.51,0,1-.07,1.52-.08l1.69,0c.61,0,1.21,0,1.8,0,.27,0,.66,0,1,0l1,0a124,124,0,0,1,21.35,3,241.47,241.47,0,0,1,29.64,8.81l3.09,1.12h0l.08,0a1.27,1.27,0,0,0,.33-.25l.19-.21.25-.29.58-.73,3.65-4.82c1.56-2.05,3.47-4.48,5.73-7.26l8.89-11.13c12.46-15.44,26.16-31.46,40.43-48.1S701,1211,715.5,1193.1s28.69-36.46,41.5-55.43a199.75,199.75,0,0,0,17.09-18.51c2.76-3.37,5.48-6.77,8.18-10.31s5.37-7.21,8-10.86c1.33-1.84,2.66-3.63,4-5.51l4-5.64,8-11.24c2.68-3.84,5.38-7.65,8.11-11.37,1.37-1.86,2.75-3.71,4.11-5.55s2.74-3.72,4.12-5.54c3.28-4.35,6.6-8.62,9.79-13.1s6.37-9,9.52-13.56c1.59-2.25,3.11-4.62,4.65-7l4.57-7.06,4.54-7.1L860,998l4.35-7.37c1.44-2.46,2.89-4.9,4.26-7.47q4.17-7.62,8.24-15.31c1.39-2.52,2.64-5.23,4-7.86l3.86-7.94c1.28-2.67,2.58-5.29,3.8-8l3.61-8.23,3.55-8.25,1.76-4.14,1.65-4.26q3.29-8.52,6.47-17.09c4-11.73,7.91-23.37,11.09-35.64l2.45-9.11.6-2.28.53-2.33,1-4.68c1.37-6.25,2.78-12.44,4-18.76s2.14-12.78,3.14-19.17c.23-1.6.52-3.17.71-4.8l.55-4.89,1-9.78,1-9.77.54-9.92.45-9.91.2-5c0-1.65,0-3.34,0-5q-.06-10-.27-20c0-1.61-.13-3.43-.23-5.19l-.3-5.31-.34-5.29-.49-5.26c-.35-3.49-.63-7-1.1-10.47l-1.38-10.37c-.51-3.45-1.12-6.86-1.7-10.27-.3-1.71-.57-3.42-.91-5.11l-1-5.08c-.72-3.37-1.35-6.76-2.19-10.09l-2.45-10c-.87-3.31-1.81-6.59-2.74-9.88s-1.93-6.54-3-9.78c-2-6.51-4.33-12.9-6.65-19.27-1.2-3.17-2.48-6.32-3.73-9.46s-2.58-6.26-4-9.36c-2.66-6.21-5.62-12.31-8.58-18.38-1.52-3-3.12-6-4.69-9-.8-1.49-1.56-3-2.4-4.46l-2.51-4.43-2.53-4.39c-.83-1.47-1.69-2.92-2.6-4.37q-2.69-4.32-5.36-8.63c-1.84-2.85-3.76-5.67-5.65-8.48-1-1.4-1.88-2.81-2.88-4.2l-3-4.15-3-4.12-1.5-2.05-1.58-2-6.33-8c-2.16-2.65-4.4-5.26-6.61-7.87-1.12-1.29-2.21-2.6-3.36-3.88l-3.48-3.81a341.39,341.39,0,0,0-33.06-36.14,289,289,0,0,0-52.09-35l-7.1-3.67c-2.41-1.17-4.86-2.29-7.3-3.41s-4.88-2.26-7.37-3.3l-7.6-3.09a318.55,318.55,0,0,0-32.51-10.86A290.57,290.57,0,0,0,641.88,385a313.9,313.9,0,0,0-47.78-.62l-7.82.65c-2.61.26-5.23.42-7.84.8l-7.84,1.06c-2.62.37-5.27.72-7.81,1.23l-7.64,1.44-3.8.74-3.76.87c-5,1.2-10.06,2.32-15,3.81a308.79,308.79,0,0,0-58.17,22.93l-3.53,1.82-3.49,1.94-7,3.95q-1.74,1-3.45,2.07l-3.43,2.14-6.84,4.34L440,438.87l-3.35,2.36L435,442.42l-1.65,1.26-6.56,5.1-3.26,2.58-3.2,2.73a263.55,263.55,0,0,0-46.86,51.64,237.46,237.46,0,0,0-32.05,68.21c-7.21,24.83-9.58,52-8.16,75.91a254.35,254.35,0,0,0,13.83,69.06,293.55,293.55,0,0,0,27.41,57.31c-.67.84-1.73,1.26-1.55,3s1.6,4.81,6.11,10.61c5.31,8.16,10.86,16,16.59,23.44s11.67,14.61,17.77,21.49a406.51,406.51,0,0,0,38.74,38.18c12.92,11.21,25.94,21.3,38.76,30.6s25.47,17.79,37.61,25.55c24.3,15.57,47.11,28.9,67,41.06l3.74,2.28,3.6,2.23,3.61,2.22,3.47,2.19c4.69,2.86,9,5.85,13.46,8.74l6.73,4.33c1.12.72,2.28,1.39,3.37,2.16l3.32,2.31q6.64,4.57,13.49,9c4.35,3.08,8.73,6,13.17,8.7l3.33,2c1.11.69,2.24,1.33,3.29,2.08l6.4,4.4c2.12,1.48,4.21,3,6.28,4.52a68,68,0,0,1,6,4.88,100,100,0,0,1,10.71,11.4c1.23.71,2.51,1.39,3.74,2.18l3.7,2.43q3.74,2.49,7.6,5.18l3.89,2.73c1.31.92,2.65,1.83,3.9,2.86l7.71,6.15,7.88,6.34c2.55,2.23,5.08,4.52,7.64,6.8l7.71,6.86c1.32,1.12,2.54,2.32,3.76,3.52l3.69,3.57c1.92,2.56,3.93,5.2,6,7.88,1,1.36,2.18,2.66,3.19,4.1l3.16,4.31c2.14,2.89,4.37,5.83,6.66,8.8,1.13,1.49,2.36,2.94,3.46,4.5l3.36,4.68q3.42,4.7,7,9.45l1.8,2.37c.61.79,1.14,1.63,1.72,2.44l3.44,4.91q3.46,4.9,7,9.79l.9,1.22.84,1.26,1.68,2.5,3.39,5c2.27,3.31,4.59,6.58,6.88,9.83q3.21,5,6.47,9.86l3.26,4.8,1.63,2.37.82,1.18.75,1.2q3,4.79,6,9.34l6,8.86q2.75,4.38,5.47,8.45t5.38,7.76l1.31,1.82,1.2,1.71q1.2,1.68,2.37,3.27c1.85,6.9,4,13.39,6.26,19.71s4.61,12.45,7,18.57c1.11,3.06,2.35,6.12,3.41,9.19q.84,2.31,1.66,4.63c.51,1.55,1,3.1,1.54,4.66s1,3.13,1.46,4.71.92,3.16,1.35,4.76c.77,3.18,1.62,6.44,2.17,9.71a235.06,235.06,0,0,1,4.23,51.28c-.59,16.46-3.36,31.68-8.18,45a110.57,110.57,0,0,1-8.81,18.78l-.62,1.12c-.24.37-.51.74-.76,1.12l-1.49,2.24-1.45,2.29c-.12.19-.23.39-.36.57l-.41.53-.82,1.06c-1.1,1.41-2.11,2.89-3.2,4.31s-2.35,2.7-3.48,4.09a132.09,132.09,0,0,1-16.12,15.25A171.45,171.45,0,0,1,824.68,1473q-2.94,1.52-5.85,3.09l-.73.39-.78.36-1.56.72-3.11,1.46c-1,.48-2,1-3.13,1.46l-3.29,1.36c-2.21.89-4.3,1.9-6.66,2.7l-6.88,2.59-7.2,2.37c-2.35.84-4.91,1.5-7.39,2.24s-4.94,1.51-7.56,2.12l-7.72,2-8,1.79c-2.61.64-5.37,1.13-8.08,1.67s-5.39,1.12-8.2,1.55l-8.33,1.41c-2.8.45-5.66.83-8.47,1.25l-4.24.61-4.31.53c-2.88.34-5.73.72-8.62,1-5.83.57-11.59,1.22-17.51,1.65s-11.79.88-17.7,1.27c-11.9.65-23.81,1.18-35.85,1.37-6,.17-12,.16-18,.24h-9c-3,0-6,0-9,0-12-.07-24-.38-35.91-.68l61.89,188.78,6-4.68c1.9-1.49,3.68-3,5.51-4.3l5.26-4c1.7-1.3,3.38-2.58,5.12-3.8a75.82,75.82,0,0,1,8-8.39c2.78-2.45,5.61-4.68,8.54-6.9s6.08-4.32,9.3-6.7,6.74-4.87,10.39-7.88c11.72-5.21,25.66-12.21,41.12-19.92s32.4-16.19,49.75-24.63,35.06-16.87,51.72-24.71,32.21-15.11,45.06-21.29c16.26-2.53,37.1-9.31,60.18-17s48.34-16.38,73-22.86c19.31-5.06,38.29-8.74,55.84-13.26s33.7-9.89,47.18-18.17c44.26-14.56,89.72-33.44,136.59-56.24,11.72-5.65,23.52-11.69,35.42-17.82s23.87-12.64,35.93-19.43,24.21-13.79,36.48-21c12.22-7.39,24.59-14.85,37-22.84,20.14-12.85,40.42-26.51,60.23-41.77a494.07,494.07,0,0,0,57.13-51,962.25,962.25,0,0,0,58.06-81.17l3.23-5,3.12-5,6.18-10.12c4-6.74,8-13.54,11.75-20.33,7.65-13.63,14.75-27.36,21.45-41.35-1-1.38-3.61-1-1.11-6.08,2.41-3.85,4.71-8,7-12.5s4.55-9.23,6.79-14.19,4.44-10.09,6.68-15.36l6.87-16.37c9.36-22.33,19.43-46.28,31.57-66.91,12.16-36.55,21.2-72.52,31.48-115.3,5.09-21.44,10.45-44.64,16-71.07.73-3.27,1.34-6.68,2-10.09l2.07-10.39,2-10.79q.51-2.73,1-5.5t.94-5.65l2-11.53q.88-5.91,1.79-12c.3-2,.63-4.07.91-6.15s.53-4.18.8-6.3.55-4.24.83-6.39.57-4.3.78-6.52c-1.13-7.09-1.77-15.07-2.65-24-.4-4.43-.66-9-1.15-13.85-.21-2.41-.41-4.86-.63-7.35s-.33-5-.63-7.58a624.9,624.9,0,0,0-9.21-67.24c-1.18-5.89-2.58-11.81-3.89-17.74-.31-1.49-.72-3-1.11-4.44l-1.17-4.42c-.79-2.95-1.59-5.89-2.38-8.84-.37-1.47-.83-2.93-1.29-4.38l-1.37-4.36c-.92-2.89-1.84-5.79-2.75-8.67l-.71-2.16-.81-2.21c-.55-1.46-1.09-2.93-1.64-4.39q-1.65-4.38-3.3-8.71a299.54,299.54,0,0,0-32.11-60c-15.09-27-39.42-59.81-66.54-86.61l-5-5.08-2.5-2.51-2.56-2.4-10.1-9.49c-1.64-1.59-3.34-3.06-5-4.52l-5-4.38-4.85-4.3-2.39-2.12-2.4-2c-12.66-10.75-24.09-20-32.62-27.69l-12.68-7.55c-4.26-2.4-8.58-4.67-12.9-7-2.16-1.14-4.32-2.33-6.52-3.44l-6.71-3.21-6.8-3.2c-2.29-1.06-4.57-2.17-7-3.11-4.74-2-9.57-3.92-14.53-5.87-2.46-1-5-1.84-7.61-2.74l-7.87-2.65-4-1.31c-1.35-.45-2.71-.89-4.11-1.26l-8.49-2.31-8.77-2.29c-3-.72-6.08-1.31-9.19-2-3.61-1.16-6.68-2.32-9.56-3.47l-2.13-.86-2.1-.78-4.22-1.55c-2.85-1-5.84-2.06-9.31-3.05-1.75-.48-3.58-1-5.63-1.42s-4.24-.78-6.65-1.14c-2.13.25-4.5.43-7.07.54-1.28.06-2.62.09-4,.11l-2.13,0-2.22.08c-3,.09-6.22.12-9.62.11l-5.25-.05c-1.8,0-3.63-.12-5.54-.06a306,306,0,0,0-75.37-1,332.07,332.07,0,0,0-86.83,21.55l-5.47,2.14c-.93.35-1.77.73-2.62,1.1l-2.57,1.13c-3.41,1.53-6.88,3-10.22,4.63l-10,4.9-9.79,5.18a422.42,422.42,0,0,0-36.7,22.59c-11.55,7.9-22.18,16.13-32.11,24.33-5,4.09-9.68,8.21-14.3,12.28s-8.94,8.12-13.06,12.12a26.69,26.69,0,0,0-8.94,5.09c-3.1,2.44-6.33,5.45-9.47,8.49-1.58,1.52-3.18,3-4.76,4.51s-3.12,2.88-4.66,4.16a31.81,31.81,0,0,1-9.07,5.67c-12.93,13.29-25.19,26.74-37,40s-23.2,26.48-34.38,39.23S900.42,470,889.39,481.66c-1.38,1.45-2.75,2.95-4.15,4.36l-4.19,4.23-8.42,8.47L868.4,503c-.71.7-1.4,1.43-2.13,2.11l-2.19,2-8.8,8.13A562.26,562.26,0,0,1,779.43,574a451.39,451.39,0,0,1-84.63,42.42,89.93,89.93,0,0,0-9.79-1.24q-2.5-.2-5.07-.3c-1.69-.07-3.41-.12-5.15-.21-6.95-.32-13.95-.37-20.54-.66-3.3-.17-6.45-.29-9.53-.72a70.81,70.81,0,0,1-8.68-1.65c-5.39-1.41-9.9-3.53-13.12-6.82a81.53,81.53,0,0,0-8.36,1.77l-9.1,2c-6,1.27-11.34,2.08-14.21.8.13-2.25-1.6-2.91-3.73-3.23s-4.7-.42-6.21-1.3c-4.3.64-9.08,1.41-14.19,2.33-2.56.44-5.18,1-7.91,1.44s-5.54.88-8.41,1.37-5.77,1-8.72,1.57l-4.46.86c-1.49.3-3,.61-4.52.84-6.08,1-12.26,2.17-18.42,3.46l-4.61,1-4.63.88q-4.62.9-9.17,1.9t-9,2.14l-2.18.57-2,.48-3.94,1c-10.3,2.67-19.32,5.6-26.45,9.08-6.52,7.34-13.89,14.49-16.67,21.15-1.4,3.37-1.65,6.63.06,9.78s5.43,6.17,12.32,8.72c-.11,6.77,2.61,13.46,5.72,19.93S460.73,706,461.43,712s-1.44,11.74-9.74,17a47.08,47.08,0,0,1-7.4,3.75,81.31,81.31,0,0,1-10,3.29,126.32,126.32,0,0,1-28.22,3.81c-7.23,5.66-15.18,9.89-20.71,14.63a20.55,20.55,0,0,0-6.13,8.09c-1.17,3.1-1.33,6.72.12,11.16l4.37,2c1.43.67,2.82,1.41,4.2,2,2.77,1.3,5.43,2.72,8.11,4s5.32,2.65,8.05,3.9l4.14,1.92,4.3,1.82c11.69,4.8,25.68,9,46.68,10-8.36,3.39-.2,3.28.72,6.39,9.9-.57,22.14-2.56,32.19-4s18-2,19.61.67c-12.24,2.17-21.77,4.22-29.82,6.24s-14.56,4.08-20.78,6.06l-4.63,1.49-4.63,1.42c-3.1,1-6.3,1.83-9.71,2.67a128.56,128.56,0,0,1-24.51,3.44c-2.74.81-5.29,1.51-7.62,2.31s-4.5,1.57-6.48,2.35-3.79,1.62-5.46,2.45-3.19,1.63-4.58,2.48a51.79,51.79,0,0,0-7.12,5.24,68.47,68.47,0,0,0-5.38,5.41c-3.29,3.62-6.29,7.1-10.87,10.1s-10.82,5.27-20.83,5.95c-3.74-1.19-6.67-2.24-9.24-3.13s-4.78-1.78-7.08-2.52-4.7-1.47-7.64-2.25l-10.9-2.72c-6.38,2.41-4.28,6.08-4.45,8.58s-2.78,4.11-19.54.27a36.51,36.51,0,0,0,3.75,3.41,47.68,47.68,0,0,0,4.47,3q2.42,1.45,5.16,2.82c1.83.86,3.77,1.69,5.82,2.52,4.1,1.7,8.59,3.11,13.5,4.64,2.46.75,5,1.41,7.64,2.15l4,1.09,4.17,1a37,37,0,0,0,8.13,6.52c1.71,1,3.59,2.11,5.63,3.15s4.2,2,6.52,3a149.12,149.12,0,0,0,15.39,5.4q4.16,1.18,8.63,2.31c3,.73,6,1.37,9.12,2a330.66,330.66,0,0,0,39.35,5.3c13.46,1.06,26.93,1.47,39.64,1.63,18.59-2,35.67-4.64,51.85-7.33,8-1.39,15.91-2.76,23.5-4.22l2.86-.53,2.72-.55,5.38-1.09,10.65-2.13C596.66,887.1,623,881,648.77,874.48c3.23-.75,6.38-1.72,9.57-2.59l9.5-2.68c6.32-1.82,12.66-3.56,18.92-5.5s12.45-4.07,18.68-6.16,12.49-4.15,18.63-6.59,12.36-4.8,18.58-7.3c3.09-1.28,6.24-2.47,9.31-3.87l9.26-4.19q9.28-4.26,18.68-8.81c6.22-3.12,12.4-6.51,18.68-9.93,1.63,1.42,5.18,1.24,9.86-.06a60.82,60.82,0,0,0,7.77-2.75c2.78-1.21,5.74-2.65,8.79-4.23,6.1-3.18,12.54-7,18.57-10.81,1.51-1,3-2,4.39-3s2.8-2,4.13-3c2.66-2,5.12-3.89,7.3-5.68,4.92-1.08,7,.65,9.84,1.68a10.56,10.56,0,0,0,5.21.57,18.93,18.93,0,0,0,3.83-.93c.74-.25,1.53-.55,2.37-.92s1.73-.83,2.69-1.35c5.17-5.43,3.44-5.92.15-5.43-1.65.26-3.69.75-5.46,1s-3.32.23-3.91-.47c1.89-1.51,4-3.35,6.46-5.27s5.09-4,7.93-6.15,5.84-4.35,8.92-6.57,6.26-4.4,9.33-6.69c6.19-4.51,12.36-8.78,17.85-12.25,2.74-1.74,5.32-3.28,7.65-4.56a56.45,56.45,0,0,1,6-3.09c3.05-3.26,6.57-6.7,10.46-10.27,1.94-1.79,4-3.61,6.09-5.47s4.34-3.7,6.52-5.72c4.42-4,9.09-8.06,13.91-12.23l7.34-6.32c1.23-1.06,2.5-2.11,3.72-3.21L990,690.4l14.77-13.47c2.44-2.26,4.9-4.49,7.28-6.78l7-7c9.11-9.26,17.7-18.33,24.34-27a152.92,152.92,0,0,0,26.09-16.57,342.3,342.3,0,0,0,31.64-28c-1.43-1.8-1.41-4.44-.78-7.42a88,88,0,0,1,3-9.49c6.85-8.27,13.39-15.68,19.7-22.38s12.39-12.73,18.29-18.16a369,369,0,0,1,33.94-27.76c5.45-4,10.81-7.7,16.14-11.41s10.59-7.21,15.85-10.68L1223,473.69q2-1.32,4-2.75t4-2.73l8.23-5.67c1.85-.34,3.76-.87,5.75-1.34,1-.23,2-.49,3-.76l1.54-.44.78-.23.71-.14c3.81-.75,7.63-2.14,12-3.05a212.59,212.59,0,0,1,28.47-5.81c1.64.16,3.38.57,5.11.88s3.46.6,5.2.85c.86.08,1.77.35,2.66.51l2.7.54,2.7.48c.91.17,1.81.25,2.74.51q2.77.65,5.58,1.2l2.82.53,2.86.72q2.88.7,5.78,1.29c1.95.49,3.92,1.07,5.89,1.55a350.34,350.34,0,0,1,49.34,16.67c2.06,1,4.13,1.92,6.23,2.83,1,.48,2.12.86,3.13,1.38l3.08,1.54,3.1,1.48c1,.49,2.1.93,3.09,1.52,2,1.09,4,2.16,6.11,3.19l1.54.77,1.48.87,3,1.71c2,1.13,4.07,2.15,6,3.41s3.89,2.37,5.87,3.51,3.76,2.51,5.68,3.72c.94.61,1.92,1.19,2.86,1.81l2.72,1.95,2.76,1.9,1.39.93a12.19,12.19,0,0,1,1.35,1c3.45,2.7,7.16,5.17,10.41,8l2.56,2,1.29,1,1.18,1.05q2.37,2.09,4.85,4.09a29.22,29.22,0,0,1,2.33,2.08c.76.69,1.53,1.39,2.28,2.09,1.52,1.38,3.19,2.69,4.54,4.15a31.64,31.64,0,0,0,.84,8,33.69,33.69,0,0,0,2,7.58c.27.6.45,1.23.66,1.85s.43,1.24.67,1.85c.47,1.23,1,2.43,1.6,3.63l.46.89c.14.3.24.61.37.91.25.62.51,1.22.79,1.83.54,1.21,1.14,2.41,1.77,3.6l.48.89c.15.3.26.61.39.92l.81,1.83c.55,1.21,1.13,2.42,1.74,3.62.15.3.31.6.45.9l.35.93.71,1.85c.51,1.22,1,2.44,1.5,3.65a9.4,9.4,0,0,1,.38.95l.33,1.11c.23.74.45,1.48.67,2.21l1.27,4.38c.63,3,1.13,5.9,1.47,8.75a164.44,164.44,0,0,1-.44,28l-.37,3.57-.17,1.79-.08.88-.13.92c-.36,2.43-.69,4.84-1,7.25-.83,4.92-1.49,9.78-2.46,14.83l-.6,3.75-.74,3.83-.67,3.84-.31,1.91-.39,2c-.51,2.62-.95,5.24-1.36,7.88s-1,5.38-1.4,8.09c-1.84,10.92-3.47,22.37-4.55,34.64-1.4,5.51,3,2.73,2,7.66-5.13,17.45-11.39,38.72-19,61.29-4,11.31-8.1,22.89-12.72,34.46s-9.47,23-14.68,34.11c-7.36,15.78-16.14,30.9-25,46.33-4.42,7.72-8.85,15.5-13.15,23.56-2.18,4.06-4.31,8.21-6.35,12.32s-4,8.25-5.85,12.42c-8.61,19.34-15.32,35.85-20.23,50.69s-8,27.89-9.29,40.48c-8.09,12.3-13.54,26.94-20.19,40.58-1.66,3.42-3.41,6.69-5.23,10-.9,1.66-1.88,3.17-2.86,4.7s-2,3-3.07,4.5c-.52.73-1,1.48-1.61,2.17s-1.12,1.36-1.7,2q-1.73,2-3.57,3.86a47.94,47.94,0,0,1-8.16,6.57c-2.4,4.94,1.12,6.71-6,13.82-4.71,5.26-6.31,3.75-9.45,5.69,3.56,3.25,5.43-.19,5.35,5.57,3.2-4,6.11-7.31,8.58-10.49s4.86-5.9,6.9-8.78A100.75,100.75,0,0,0,1325,1104c1.69-1.76,3.13-2.8,4.7-4.18a22.79,22.79,0,0,0,2.48-2.46,42.82,42.82,0,0,0,2.88-3.87c4.55-9,9-18.89,13.59-29.18s9.2-21.44,14-33.1l15.21-37.12c5.36-13.1,11.08-26.85,17.33-41.31,12.31-28.41,26.69-55.55,38.43-80.29s21.16-47.35,24.52-66.41c1.94-4.08,3.6-4.81,5.25-5.22s3.29-.53,5.08-3.34a83.24,83.24,0,0,1,3.67-14.43c.4-1.15.82-2.28,1.26-3.41s.85-2.24,1.3-3.35c.9-2.23,1.85-4.45,2.84-6.7s1.93-4.48,2.91-6.78,2-4.64,2.87-7.06,1.73-4.87,2.52-7.43c.4-1.29.79-2.6,1.14-3.93s.64-2.67.92-4a70.79,70.79,0,0,0,1.45-11.43c.15-3.74.3-7.49.19-11.18,0-7.45-.11-14.93,1.1-23,.3-2,.63-4,1-6s.56-3.77.88-5.6.63-3.62,1-5.38.54-3.43.84-5.12.63-3.35.94-5,.52-3.23.8-4.84l.87-4.83.69-4.74c.25-1.6.49-3.2.74-4.82s.35-3.19.52-4.81.41-3.3.51-5,.18-3.32.27-5c.27-3.47.1-6.89.06-10.58,0-1.86-.22-3.66-.36-5.55-.09-1-.18-1.9-.26-2.87s-.15-2-.34-2.92a29,29,0,0,0,2.07-13c0-1.22-.09-2.46-.16-3.71s-.32-2.47-.49-3.71-.37-2.48-.55-3.72c-.1-.61-.18-1.23-.29-1.84s-.27-1.19-.4-1.78c-.52-2.35-1-4.65-1.33-6.78a30.83,30.83,0,0,1-.82-5,12.86,12.86,0,0,1,.3-4,4.06,4.06,0,0,1,1.67-2.6,5.21,5.21,0,0,1,1.92,1.75,10.38,10.38,0,0,1,1,2.62,31.07,31.07,0,0,1,.5,3.13c0,.55.11,1.11.17,1.67l.08.85c0,.3,0,.66,0,1a37.11,37.11,0,0,0,.94,7.75,11.51,11.51,0,0,0,3.22,6.3c0-1.43-.06-2.91-.09-4.36,0-.73,0-1.45,0-2.17s-.06-1.38-.06-2c0-2.66.32-5,1.43-6.43,4.21,6.35,8.39,11.78,12.46,17,1,1.33,2,2.63,3,3.93s2.11,2.58,3,3.92c1.91,2.66,3.91,5.33,5.84,8.15,7.48,11.34,14.31,25,15.93,48.15-1.39,19.13-3.35,36.16-5.09,51.63s-3.33,29.35-4.46,42.2c-11.07,32.71-25.87,69.12-43.56,107.67s-38.26,79.31-59.33,121c-10.4,20.5-20.69,40.41-31.08,59.39s-20.94,36.89-31.69,53.62a544.15,544.15,0,0,1-32.94,46.23A521.08,521.08,0,0,1,1305.1,1178l-39.78,27.84c-13.44,9.45-27.65,19.61-45,31.57-12.64,2.53-27.79,9-44.79,17s-35.83,17.78-55.12,27.22c-38.49,18.91-79,36.62-104.21,40-8.52,10-30.85,19.43-54.42,26.48s-48.28,11.79-60.89,12.43c-5.9,11.38-42.09,19.83-65,24.81-.7-1.77,17.26-10.31-1.28-3.66-8.84,2.71-8.19,4.73-12.41,7.1-9,.2-20.2,2-25.28-.49a100.14,100.14,0,0,0-17.63,7.2,110.55,110.55,0,0,1-17.65,7.41c3.57-4.1,5.76-8.15,15.6-12.84,23.45-10.62,28.23-7.77,41.52-11-1.65-2.82-9.87-.78,2.69-6.42,8.65,5.44,27.84-11.8,41.51-8.88-8.14,3-14.43,5.81-16.8,8.48,16.93-7,37-15.26,51.45-21.48-4.62,1.59-11.29,3.13-4.76.22-35.14,8.28-69.55,17.61-103.57,28.56a1046.35,1046.35,0,0,0-100.86,38.05,884.17,884.17,0,0,0-98.72,50.72,776.5,776.5,0,0,0-95.43,67.16L278.91,1712.8l274.86,4.29c18.45.29,37.39.39,56.83.14,4.59,1.65,11.5,2.57,19.31,3.31s16.73,1,25.4,1.34c50.42-4.74,88.49-9.73,100.71-25.25l-11.49,1.69c-3.79.56-7.5,1-11.21,1.49-7.44,1-14.68,1.78-22,2.66l-11,1.1c-3.68.38-7.38.74-11.08,1l-11.29.93-11.55.76c-31.23,1.94-66.58,2.61-112.26.65l-252.51-10.81,198.92-152.64,1-.8c4.68-2.55,9.15-4.85,13.36-6.8a102.47,102.47,0,0,1,11.85-4.54c7.23-2.29,13.19-2.65,17.14-.89-10.85,8.57-21.77,17.42-32.86,26.28L350.77,1684.82l204,5.2c15.39.39,31,1,46.78,1.59s31.72,1,47.67,1.05c31.89.08,64-1.57,94.75-7.37a125.87,125.87,0,0,0,12.67-3.25,92.11,92.11,0,0,1,12.31-3.17c3.91-.67,7.74-1.5,11.45-2.23l5.47-1.09,2.68-.53,2.66-.58c7-1.56,13.64-2.89,20-4.48l9.28-2.18,8.9-2.31c2.9-.78,5.74-1.43,8.55-2.24l8.28-2.37,4.06-1.15,2-.57,2-.63,7.9-2.51,3.91-1.25c1.3-.4,2.6-.83,3.89-1.31l7.75-2.79,3.88-1.4c1.29-.47,2.59-.94,3.88-1.49l7.82-3.21,4-1.66c1.32-.54,2.65-1.11,4-1.76l8.1-3.85a302.42,302.42,0,0,0,61.78-40,290.81,290.81,0,0,0,52.14-57.22l5.4-8.09c1.79-2.7,3.59-5.38,5.23-8.25s3.35-5.64,5-8.49l4.63-8.66c1.58-2.87,2.92-5.83,4.35-8.76s2.83-5.87,4.07-8.86,2.56-6,3.79-8.93,2.3-6,3.44-9a358.08,358.08,0,0,0,18-72.11q.63-3.9,1.28-7.78c.45-2.58,1-5.17,1.46-7.76s.9-5.17,1.36-7.76c.21-1.31.43-2.61.65-3.92s.35-2.6.51-3.91c.31-2.62.58-5.26.76-7.92s.15-5.3.08-8a67.64,67.64,0,0,0-2.41-16.19,497.22,497.22,0,0,1-7.84,77c-1.1,6.29-2.5,12.5-3.79,18.55-.73,3-1.46,6-2.17,9-.37,1.47-.69,2.93-1.09,4.37s-.79,2.89-1.18,4.31c-3,11.4-6.48,21.94-9.5,31.34a383.58,383.58,0,0,1-24.4,42.48c-.62.94-1.24,1.91-1.88,2.84l-2,2.77-4,5.59-4.11,5.66c-1.4,1.89-2.94,3.7-4.42,5.57l-4.53,5.58c-1.53,1.86-3,3.77-4.68,5.55L995.39,1567a333.39,333.39,0,0,1-43.9,38.24c-3.83,2.7-7.6,5.46-11.4,8l-11.32,7.2c-1.85,1.21-3.74,2.24-5.59,3.31l-5.51,3.15-5.4,3.06-5.32,2.74c-3.62,1.5-7.19,3-10.74,4.46l-10.57,4c-1.75.64-3.48,1.36-5.22,1.93l-5.18,1.77c-3.44,1.16-6.85,2.38-10.24,3.48l-10.09,3.12-5,1.55-5,1.38-9.85,2.78-9.75,2.48c-6.47,1.74-12.87,3.09-19.26,4.59-3.19.78-6.36,1.37-9.54,2l-9.51,2-9.48,1.74c-3.16.58-6.33,1.2-9.48,1.68-6.32,1-12.67,2.12-19,3a760.57,760.57,0,0,1-78.78,7.24,830.77,830.77,0,0,1-88-1.18c-2.29-2.58-5.79-4.09-10.33-5a120.5,120.5,0,0,0-16.56-1.79l-162.76-9.7,128.5-94.77c4-2.92,8.3-6.18,13.08-9.57,1.7,3.54,6.32,3.46,13,.81,1.67-.66,3.47-1.49,5.39-2.46s4-2,6.15-3.21,4.44-2.53,6.81-4,4.88-2.91,7.45-4.52c5.09-4.57,2.61-4.49.15-4.32s-4.91.46.35-3.78c3.23-1.5,6.47-2.84,9.55-4s6-2.23,8.66-3c5.34-1.42,9.63-1.68,11.95.09l-8.33,5.16c-2.76,1.79-5.49,3.54-8.07,5.14-5.19,3.15-9.71,5.87-12.82,6.87,1.79.65,4.63.08,8-1s7.18-2.66,10.9-4.15c1.87-.73,3.7-1.44,5.44-2a40.48,40.48,0,0,1,4.87-1.29c2.94-.54,5.17-.33,6.1,1.25a547.64,547.64,0,0,0-68.35,53.51l-53.76,49,69-2.49c14.93-.54,29.75-1.26,44.54-2.08s29.56-1.84,44.4-2.86,29.75-2.24,44.85-3.41,30.42-2.58,46.08-4a84.18,84.18,0,0,1,8.57,1.72c1.33.34,2.62.68,3.91,1l3.86,1c2.61.63,5.29,1.23,8.28,1.69,1.5.22,3.07.45,4.75.56s3.45.17,5.36.17c2.23-1.8,1.71-2.92-.36-3.68s-5.71-1.08-9.77-1.55-8.52-.79-12.27-1.36-6.79-1.5-8-2.77c6.65-1.89,14.2-4,22.16-5.95l12.14-3.25c4.09-1.11,8.2-2.36,12.29-3.54,16.31-4.89,31.88-10.85,42.28-17.06,2.91,0,4.33,1,6.75,1.31a13.91,13.91,0,0,0,4.67-.29,34.49,34.49,0,0,0,7.95-2.8,246.48,246.48,0,0,0,55.27-28.14,214.3,214.3,0,0,0,41.12-36.76c22.87-26.77,38-56.34,47.59-89.28a307.73,307.73,0,0,0,11.88-75.1,373,373,0,0,0-4.87-74.69,421.07,421.07,0,0,0-19.39-74.38l-1.68-4.64c-.59-1.55-1.19-3.09-1.78-4.64s-1.2-3.09-1.81-4.64-1.27-3.08-1.9-4.63-1.29-3.09-1.93-4.64-1.35-3.08-2-4.63-1.35-3.1-2.07-4.63l-2.21-4.58q-4.43-9.19-9-18.51c-3.27-6.13-6.73-12.23-10.19-18.42-1.22-3.48.3-4,1.16-5.19s1.14-3.18-3-9.4q-3-5.68-6.15-11.62c-1.06-2-2.14-4-3.22-6s-2.33-4-3.51-6l-7.3-12.1q-1.86-3-3.72-6.14l-4-6-8-12.16c-1.36-2-2.63-4.11-4.07-6.08l-4.23-6-8.36-11.87-2-3c-.69-1-1.43-1.92-2.13-2.88-1.42-1.91-2.84-3.81-4.24-5.71q-4.2-5.69-8.19-11.29l-2-2.79-2.05-2.7-4-5.34c-5.27-7-9.93-14.09-14.54-20.43s-8.39-12.68-11.67-18.5a88.91,88.91,0,0,1-7.77-16.17c-2.75-2.5-5.17-4.84-7.37-7s-4.27-4.07-6.08-5.93c-3.62-3.73-6.46-7.06-9-10.24l-3.68-4.7L803,922.33c-2.56-3-5.34-6.16-8.82-9.62-7.35-5.05-14.88-9.31-23.86-15.78a20.91,20.91,0,0,0-2.91-4.16,40.55,40.55,0,0,0-4.7-4.62c-3.7-3.14-8.33-6.55-13.39-10.1-2.53-1.77-5.15-3.6-7.84-5.4l-8.33-5.24c-5.57-3.51-11-7.12-16-10.57-5.66-3.69-10.86-7.49-15.85-11.35l-7.39-5.81L686.61,834c-9.74-7.51-19.59-14.93-31.17-21.86A406.53,406.53,0,0,0,609.37,788c-3-1.26-5.65-2.44-8.31-3.51l-7.61-3-7.18-2.8-7-2.83c-11.44-4.82-24.72-12-36.78-18.92-12-6.7-22.71-13.36-31.09-15.85,3.58,6.51,8.07,13.16,11.35,19,3.09,1.78,6.29,3.47,9.6,5.1s6.85,3.19,10.35,4.79l10.93,4.62,11.44,4.59c15.57,6.21,32.26,12.87,49.92,22.31,11.09,6,19.49,12.51,28.17,18.81s17.74,12.31,30.43,17.35l-1.83,3.4a406,406,0,0,1,44,25.29q9.86,6.82,19,13.56c1.54,1.09,3,2.31,4.44,3.48l4.31,3.53q4.28,3.52,8.4,7c5.58,4.57,10.66,9.52,15.67,14.32l7.4,7.19c1.21,1.21,2.46,2.35,3.6,3.61L782,922.8c4.58,5,9.05,9.86,13.46,14.75,1.12,1.19,2.15,2.49,3.21,3.75l3.15,3.79q3.12,3.79,6.24,7.56l6.19,7.53q3,3.89,5.93,7.79l5.94,7.76,3,3.88c1,1.3,2,2.58,3,3.94q5.74,8,11.68,16.09,1.49,2,3,4c1,1.36,1.92,2.78,2.89,4.16l5.9,8.4q3,4.21,6.09,8.45c1.05,1.4,2,2.88,3,4.34l3,4.41q3,4.43,6.23,8.89c2.1,3,4.34,5.94,6.39,9.09q6.3,9.33,13.24,19c4.39,6.6,9,13.34,13.9,20.22,14,32.65,23,64.37,26.73,92q-1.65-4-3.25-7.58c-.54-1.2-1-2.4-1.61-3.53l-1.71-3.32c-2.26-4.34-4.45-8.3-6.6-12-4.15-7.49-8.72-13.64-13-19.83-2.19-3.08-4.3-6.17-6.55-9.3s-4.67-6.28-7.08-9.68-4.85-7-7.41-11c-2.71-3.85-5.52-8-8.47-12.67-19.4-20.37-39.6-42.56-61.51-65a942.72,942.72,0,0,0-71.06-66.28,612.68,612.68,0,0,0-81.29-57.75c-1.77-1.06-3.51-2.16-5.32-3.18l-5.42-3.05c-3.58-2-7.33-4-11-6s-7.44-3.89-11.15-5.82l-11.31-5.69c-15.16-7.52-30.59-14.77-46-22.07-21.63-13.27-43.21-26.49-64-41.2-2.6-1.84-5.16-3.77-7.74-5.64-1.29-.95-2.57-1.85-3.86-2.84l-3.89-3c-5.13-4-10.17-8.11-15.09-12.37a326.59,326.59,0,0,1-28-27.31A268.39,268.39,0,0,1,427.16,735a218.91,218.91,0,0,1-19.83-36.88,204.09,204.09,0,0,1-7.27-20.67,189.4,189.4,0,0,1-4.86-22.06,171.4,171.4,0,0,1-2-23.14c0-2-.07-3.91,0-5.92s.19-4,.29-6.07.19-4.06.39-6.09.52-4,.78-6.09c1.25-2.19,2.35-5,3.8-8.35q1-2.49,2.08-5.34c.36-1,.69-1.93,1.08-2.92l1.25-3c.82-2.06,1.67-4.23,2.56-6.48s2-4.48,3-6.83c2-4.74,4.51-9.46,7-14.42a202.77,202.77,0,0,1,18.64-28.29,171.45,171.45,0,0,1,22.31-22.84c3.93-4.11,3.21-5.54,3.5-7.63a7.76,7.76,0,0,1,2-3.94,47.74,47.74,0,0,1,8.43-6.75c2.16-1.55,4.31-3,6.39-4.34l3.1-2c1-.64,2.07-1.21,3.09-1.8q3.06-1.74,6-3.31c1.94-1.05,3.91-1.9,5.79-2.79s3.74-1.69,5.55-2.44,3.62-1.35,5.37-2,3.44-1.2,5.11-1.72,3.34-.91,4.94-1.32,3.18-.78,4.71-1.12,3.07-.57,4.54-.82c3-.45,5.79-.89,8.53-1.1a118.87,118.87,0,0,1,15.44-.28c9.72.32,18.6,1.77,28.38,2.95,2.47.37,5,.71,7.57,1l2,.22,2,.29c1.34.2,2.71.38,4.1.55s2.82.33,4.27.48,2.94.43,4.45.63,3.08.38,4.67.55,3.23.48,4.91.69c4.81.59,11.52.86,18.66,1.59,3.56.43,7.26.75,10.8,1.51,1.78.34,3.54.69,5.25,1.05s3.32.92,4.89,1.39c1.93.64,4.07,1.27,6.85,2.33a183,183,0,0,1,29.74,15.11c9.74,6,18.3,12.45,23.61,16.3a310.72,310.72,0,0,1,30.87,24.74,265.43,265.43,0,0,1,27.23,28.79c16.78,20.73,30.89,44.9,39.6,73.15a314.14,314.14,0,0,1,7.68,31.22,285.42,285.42,0,0,1,4.32,32.77c.21,2.78.43,5.57.51,8.38s.27,5.61.27,8.44,0,5.65,0,8.49-.23,5.58-.35,8.39c-.27,5.6-.37,11.23-1,16.83-.28,2.8-.57,5.6-.85,8.42s-.53,5.63-1,8.41A382.1,382.1,0,0,1,803.05,837a498.64,498.64,0,0,1-24.86,62.35q-3.62,5.79-7.23,12c-2.47,4.12-5.06,8.3-7.6,12.64s-5.21,8.72-7.91,13.2L751.39,944c-1.35,2.3-2.82,4.55-4.23,6.86-11.3,18.49-23.71,37.94-37.26,57.3-27,38.67-58,77-89.08,108.86-18.75,29.47-48.14,63.6-74.09,99.14-3.23,4.45-6.49,8.87-9.54,13.37l-4.61,6.72-2.27,3.34-2.13,3.26a162.91,162.91,0,0,0-13.82,25.87c-3.47,8.45-5.6,16.7-6,23.92s.95,13.31,3.48,17.59c.72,3.3-.24,4-1.2,5a3,3,0,0,0-.91,2,4.51,4.51,0,0,0,.29,1.75,10.81,10.81,0,0,0,1.24,2.5,48.27,48.27,0,0,0,13.87,11.34,61.46,61.46,0,0,0,19,6.5,67.15,67.15,0,0,0,10.6,1.06,63.68,63.68,0,0,0,10.4-.54,45,45,0,0,0,17.68-5.87c8.31-1,13.79-1.4,18.15-1.13.69-.22,1.57-.56,2.35-.84l2.42-.88,4.83-1.75,4.82-1.76c.8-.3,1.62-.55,2.4-.9l2.37-1c6.29-2.74,12.63-5.25,18.72-8.48l4.6-2.28,2.3-1.14c.77-.37,1.53-.75,2.28-1.19l9-5.08c1.49-.85,3-1.66,4.48-2.54l4.38-2.78,8.75-5.52,8.53-6,4.26-3c1.41-1,2.78-2.13,4.17-3.19l8.32-6.38c2.72-2.23,5.4-4.55,8.11-6.79l4.07-3.39c1.34-1.15,2.63-2.39,3.95-3.58l7.93-7.17,7.74-7.55,3.88-3.76,3.77-4,7.59-7.91,7.4-8.27c1.24-1.39,2.52-2.72,3.72-4.15l3.62-4.31,3.65-4.3c1.21-1.45,2.48-2.82,3.63-4.34l7.15-9,1.81-2.23c.6-.74,1.16-1.54,1.75-2.3,1.16-1.55,2.33-3.09,3.5-4.64,4.79-6.08,9.28-12.58,14-19,2.3-3.25,4.52-6.6,6.83-9.89,1.15-1.66,2.31-3.31,3.46-5s2.23-3.4,3.35-5.12l3.4-5.12c1.13-1.72,2.31-3.4,3.39-5.18q3.3-5.28,6.7-10.57c8.82-14.31,17.7-29.13,26.36-44.73a704.49,704.49,0,0,0,45.61-54.4,471.67,471.67,0,0,0,40.43-63.54l2.49-3.5c.81-1.17,1.61-2.35,2.41-3.52l4.81-7c1.6-2.36,3.26-4.72,4.8-7.12s3.08-4.85,4.64-7.29l4.64-7.48q2.28-3.8,4.48-7.73c2.9-5.13,5.72-10.62,8.39-16.6a175.24,175.24,0,0,0,7.35-19.41,162.09,162.09,0,0,0,5.35-22.69,147.13,147.13,0,0,0,1.85-26.14,128.87,128.87,0,0,0-1.12-14.26c-.28-2.45-.77-4.89-1.2-7.39s-1.05-5-1.77-7.5a99.44,99.44,0,0,0-7.92-14.11,93.94,93.94,0,0,0-9.64-12.2,84.52,84.52,0,0,0-11.09-10.07,98.41,98.41,0,0,0-12-8,105,105,0,0,0-25.39-10,129.8,129.8,0,0,0-24.84-3.83,184.18,184.18,0,0,0-22.63-.08c-7.09.37-13.72,1.11-19.88,2-3.09.44-6,.89-8.9,1.38-2.66.53-6,.91-9,1.35l-17.65,2.46c-30.16-3.72-43.56,2.44-52.15,5.72-35.28-3.44-67.29-6.71-99.42-10.49-16.07-1.89-32.16-3.9-48.72-6.13L602,746.79l-6.33-.88-8.44-1.31q-17.31-2.7-35.55-5.68a454.57,454.57,0,0,1-45.7-9.58,258.42,258.42,0,0,1-39.41-13.79,180.71,180.71,0,0,1-32.66-18.82L430.29,694l-.91-.67-.86-.73-1.73-1.45-3.42-2.88c-1.12-1-2.19-2-3.27-3.06l-3.22-3.06-3-3.27c-1-1.09-2-2.14-3-3.27L408,672.24A116.49,116.49,0,0,1,384.91,624a131.67,131.67,0,0,1-2.58-17.63,152.4,152.4,0,0,1-.18-17.75,173,173,0,0,1,2-17.61c1-5.83,2.29-11.6,3.8-17.32s3.4-11.36,5.43-17,4.38-11.1,6.88-16.55,5.29-10.82,8.23-16.14a259.89,259.89,0,0,1,20.25-30.87c7.52-10,15.68-19.91,24.37-29.87s17.92-20,27.3-30.52c3-2.28,5.52-3.68,8.22-5.48,1.36-.9,2.76-1.9,4.31-3.15l1.19-1,.31-.26.16-.14.2-.19c.32-.31.45-.41.63-.57.7-.63,1.44-1.33,2.22-2.13-.17-5.75,9.75-14.49,18.18-23.8l1.59-1.74,1.48-1.76c1-1.18,1.92-2.36,2.82-3.52a36.09,36.09,0,0,0,2.43-3.48c.73-1.15,1.39-2.28,2-3.39a17.1,17.1,0,0,0,2-6.26,7.79,7.79,0,0,0-1-5.13c-2.22,1.57-4.52,3.44-7,5.56q-1.93,1.56-3.93,3.32l-2,1.79L512,363.34l-9.19,8.2-10.29,9.27-5.49,5-2.84,2.6-1.42,1.32-.71.66-.66.66-.48.46c-5.17,5-10.38,10-15.55,15.19a379.1,379.1,0,0,0-28.65,31.65,60,60,0,0,0-13.45,11.2,126.72,126.72,0,0,0-12.41,15.91c-7.93,11.73-14.83,25.35-21.65,39C380.66,521.66,373,538.72,367.68,556s-8.11,34.56-6.77,51.19a51.28,51.28,0,0,0,3.34,13.58c.38,1,.75,1.95,1.1,2.84s.74,1.71,1.06,2.47a29.81,29.81,0,0,1,1.35,3.64,201.82,201.82,0,0,0,8.9,27c.86,2.21,1.93,4.31,2.93,6.51.48,1.11,1.09,2.14,1.66,3.21l1.75,3.23c.62,1.07,1.16,2.21,1.86,3.25l2.07,3.19c.71,1.07,1.43,2.15,2.15,3.25s1.56,2.11,2.36,3.19A119.06,119.06,0,0,0,408.39,700l5.54,4.42c1.83,1.42,3.73,2.67,5.53,4l2.7,1.89,2.73,1.74c1.81,1.14,3.56,2.28,5.33,3.35l5.27,3,2.57,1.45,2.61,1.32,5.08,2.57c1.69.82,3.39,1.55,5.05,2.31a246.24,246.24,0,0,0,38.46,13.6c12.7,3.41,25.65,6.12,40.23,8.62,7.28,1.25,15,2.42,23.2,3.67L579.17,756l14.18,2.2,10.11,1.43,20.13,2.83c13.38,1.86,26.63,3.68,39.63,5.38,26,3.39,51,6.29,73.87,8.13s43.68,2.62,61.3,1.75a178.24,178.24,0,0,0,23.92-2.61,98,98,0,0,0,9.93-2.36c.76-.23,1.52-.46,2.23-.71a12.17,12.17,0,0,0,2-.79c1.12-.57,2.2-1.18,3.27-1.81a86.87,86.87,0,0,0,21.3,1.7c6.53-.29,12.73-1.1,19.11-2,3.18-.39,6.39-.78,9.7-1.09,1.64-.12,3.3-.23,5-.31.84,0,1.7-.09,2.56-.1l2.58,0c1.73,0,3.5.1,5.31.23s3.59.42,5.44.72a43.81,43.81,0,0,1,5.61,1.25,42.5,42.5,0,0,1,5.75,1.9l3.38,2.06c1.11.63,2.06,1.4,3,2.05,1.94,1.33,3.77,2.53,5.34,3.81l2.32,1.79c.75.57,1.49,1.1,2.13,1.69l3.71,3.18c1.19,1,2.17,2,3.16,2.87l1.43,1.33,1.3,1.31c.84.87,1.7,1.65,2.44,2.49l2.23,2.47a62.1,62.1,0,0,1,8.24,12.22c.65,1.36,1.36,2.8,2.05,4.4s1.41,3.33,2,5.27a95,95,0,0,1,3.65,13.8,141.58,141.58,0,0,1-7.65,33.76,176.42,176.42,0,0,1-13,28.09,203.37,203.37,0,0,1-15.3,22.9l-17.44,25.36q-4.56,6.44-9.08,12.93c-3.13,4.31-6.26,8.65-9.37,13.06l-19.49,27c-12.92,17.89-27.07,37.51-43.21,59.87-9.56,23-21,44-32.94,53.16q1.86-4.87,4-9.9c1.38-3.37,2.72-6.9,4.2-10.42.75-1.76,1.5-3.54,2.27-5.34l2.22-5.52c1.5-3.72,3.14-7.45,4.72-11.3,6.33-15.42,13-32.1,19.55-49.79S851,980,856.7,960.47q2.06-7.34,4.14-14.74c1.35-5,2.55-10,3.86-15,.68-2.49,1.2-5,1.79-7.54s1.16-5.05,1.75-7.58l.44-1.9c.15-.65.29-1.27.41-1.84l.74-3.53.52-2.53c.1-.55.21-1.09.34-1.64,1.73-8.72,2.79-17.82,1.8-26.68a43.84,43.84,0,0,0-3.24-12.72,32.08,32.08,0,0,0-17.45-17.27,44.29,44.29,0,0,0-11.38-3,54.09,54.09,0,0,0-10.94-.34c-1.73.13-3.41.33-5,.6-.79.14-1.63.28-2.32.47l-.52.14h-.25l-.39,0-.79,0-3.34-.14c.88.56,1.79,1.09,2.7,1.59l1.29.71a1.78,1.78,0,0,1,.29.16l.08.12.16.23a6.41,6.41,0,0,0,1.55,1.44,8.89,8.89,0,0,0,3.7,1.38c2.66.46,5.81.32,8.51,1.2a45.33,45.33,0,0,1,10.61,4.91,33.57,33.57,0,0,1,4.66,3.69,29.53,29.53,0,0,1,3.83,4.64,32.08,32.08,0,0,1,4.61,11.28,52.6,52.6,0,0,1,1,12.43,92.26,92.26,0,0,1-1.36,12.65c-.07.53-.18,1-.28,1.58,0,.26-.07.53-.13.8l-.27,1.41c-.25,1.36-.55,2.8-.82,4.19-.13.68-.32,1.49-.48,2.24l-.5,2.3c-.67,3.06-1.33,6.14-2,9.22l-.49,2.31-.57,2.31c-.37,1.54-.75,3.08-1.12,4.62a672.73,672.73,0,0,1-22.44,74.47c-1.37,3.67-2.67,7.37-4,11.05s-2.71,7.28-4,10.94-2.67,7.26-4,10.89l-2,5.44-1,2.73-1,2.68c-1.4,3.59-2.77,7.19-4.14,10.81s-2.9,7.12-4.34,10.71q-1.08,2.68-2.17,5.39c-.78,1.76-1.55,3.52-2.33,5.29-1.57,3.52-3.06,7.13-4.71,10.63l-5,10.51c-.82,1.79-1.73,3.5-2.65,5.22l-2.74,5.18-2.78,5.21c-1,1.71-2,3.38-3,5.08l-3,5.1c-1,1.69-2,3.44-3.12,5.06q-3.27,4.95-6.64,9.94c-1.1,1.7-2.35,3.23-3.53,4.86s-2.43,3.2-3.64,4.81l-1.85,2.42c-.61.81-1.24,1.6-1.9,2.36l-3.95,4.63-4,4.62c-1.34,1.57-2.81,3-4.23,4.45a276.2,276.2,0,0,1-40.3,34c-3.5,2.33-7,4.71-10.53,7.19-3.6,2.28-7.27,4.58-11,7.06-3.76,2.3-7.63,4.58-11.54,7.12l-6.09,3.53-3.1,1.85-1.56,1a15,15,0,0,1-1.6.92c-2.21-1.16-9.48,3.71-8.11-1.58-4.78,3.06-9.87,5-14.84,7a34.92,34.92,0,0,1-3.79,1.24l-3.81,1-3.78,1-1.89.47c-.63.14-1.27.23-1.91.33q-3.82.63-7.58,1.18c-1.25.16-2.48.42-3.74.49l-3.77.25-7.39.52c-2.47.08-4.93,0-7.35.09l-3.6.1-1.79.06a1.45,1.45,0,0,1-.59,0l-.44-.1c-1.17-.22-2.39-.49-3.56-.68-2.35-.46-4.58-.88-6.38-1.1s-3.12-.3-3.74.14l-.12.1-.06.09-.14.24a.09.09,0,0,0,0,.07l-.18,1-.44,2.28-1,4.53c-.33,1.5-.69,3-1.09,4.49-.21.76-.39,1.5-.56,2.21l-.58,2.18-.64,2.18c-.23.73-.46,1.46-.65,2.14-.4,1.38-.84,2.77-1.33,4.16.33-.95.93-2.72,1.46-4.62s1.25-4.1,1.64-5.64.65-2.55.56-2.22S566.31,1261.3,565.24,1264.92ZM463.86,763.8c2.68-.18,3.84.27,3.79.9s-1.3,1.38-3.45,1.65c.44.71,2.42.74,4.92.47s5.53-.76,8.06-1.08c-.35,1.41-4.3,2.35-8.26,3.21s-7.94,1.66-8.38,3.07c7.2,1.38,16.75,1.56,26.83,1.15-11.78,4.78-22.37,4-27.45,1.25-2.55-1.39-3.77-3.23-3.24-5.12a5.57,5.57,0,0,1,2.13-2.82A18.81,18.81,0,0,1,463.86,763.8Zm284.29-54.45c2.38,2.24.67,5.85-3.49,10.12a94.85,94.85,0,0,1-18.22,13.78c-3.73,2.28-7.65,4.54-11.53,6.68C713,741,711,742,709.15,743l-2.82,1.46-2.77,1.31c-7.29,3.39-13.53,6-17,7.12-1.74.58-3.65,1.15-5.63,1.69s-4,1.08-6.11,1.44a77.62,77.62,0,0,1-11.36,1.39c-6.37.18-9.31-1.42-2.83-6.33a43.22,43.22,0,0,1,7-4.1c1.41-.69,3-1.38,4.58-2.08s3.32-1.49,5.11-2.25c7.15-3,15.62-6.19,24.36-9.53,8.62-3.58,17.54-7.32,25.68-11.19,2.05-.94,4-2,5.89-3.05s3.72-2.1,5.47-3.16A92,92,0,0,0,748.15,709.35Zm100.4-81c-2.93-1.63-2.25-4.44,0-7.86,5.87-2.48,13-6.61,20.73-11.46,1.92-1.22,3.92-2.44,5.87-3.78L881,601.1l12-8.42,6-4.13,5.77-4.13c3.81-2.68,7.52-5.18,11.06-7.37a109.13,109.13,0,0,1,10-5.59,36.55,36.55,0,0,1,8.42-3.25l-6,5c-1.92,1.61-3.87,3-5.7,4.42-3.68,2.78-7.11,5.31-10.37,7.68s-6.35,4.56-9.38,6.7-6.12,4-9.18,6l-9.36,6.19-4.93,3.32-2.56,1.75-2.7,1.74c-3.65,2.37-7.54,4.94-11.76,7.8l-6.58,4.52-3.51,2.45C851.08,626.67,849.82,627.47,848.55,628.32Zm125.79-77.83c-4.84-.2,4.74-8.24,3-10.14,3.08-1.19,7.12-4.16,11-6.78s7.51-4.93,9.8-4.77A74.24,74.24,0,0,1,986,540.16,83.85,83.85,0,0,0,974.34,550.49Zm-11.85-31.7c19.57-16.48,40.14-34.6,61.32-53.63s43-38.9,65.52-58.7c19.4-17,38-34.64,57.8-49.48s40.35-27,61.59-32.68q-4,2.31-8.18,4.65l-4.27,2.34-4.28,2.53c-2.88,1.69-5.84,3.38-8.77,5.22s-6,3.59-8.94,5.54a428.57,428.57,0,0,0-35.52,25c-22.77,17.83-42.3,37.56-53.07,53.72-17.6,13.76-36.9,29.27-54.22,44.84s-32.81,31-42.89,44.7c-3.36-.74-8.94,2.48-14.15,5S964.37,522.19,962.49,518.79Zm45.35.24-2.76-2.72c6.27-7.17,15-17.24,23-25s15.15-13.13,18.18-11.11C1032.43,498.11,1025.64,503.59,1007.84,519Zm44.31-39.23c1.69-3.3,1.41-5.49-.41-6.85,6.83-7.29,10.85-8.7,11.17-6.79S1059.91,473.38,1052.15,479.8ZM1073.5,495c7.06-.87,15.79-14.73,23-20.45,14-11.09,25.45-13.89,36.88-22.56,10.56-7.91,16.71-14.54,23.74-21.67a147.21,147.21,0,0,1,11.88-11q1.74-1.4,3.64-2.85l2-1.47,2.09-1.42q2.13-1.44,4.49-2.94c1.58-1,3.27-1.92,5-2.92,4.32-2.67,5.14-4.39,5.34-6.12s-.18-3.29,1.87-5.37q12-7.5,24.46-13.75l12.28-5.66,12.63-4.89a233.5,233.5,0,0,1,53.31-11.9c36.65-3.84,74.88.51,111.53,12.58a283.24,283.24,0,0,1,101.79,59.18,248.81,248.81,0,0,1,39.91,46.37,227.1,227.1,0,0,1,27.14,56,11.11,11.11,0,0,1-5.48-2.41,24.83,24.83,0,0,1-2.69-2.36c-.91-.89-1.74-1.9-2.75-2.91-1.94-2-3.87-4.36-5.79-6.75l-1.43-1.8-.72-.91-.79-.87-3.12-3.46c-1-1.12-2.07-2.22-3.08-3.26a32,32,0,0,0-3.09-2.89,29.48,29.48,0,0,0-6.25-4c-4-1.75-7.64-1.36-10.88,2.51l-.56-.78-.62-.74-1.22-1.49-2.4-3-2.35-3-1.16-1.48-1.26-1.41c-1.66-1.89-3.29-3.77-4.9-5.66-.82-.92-1.54-1.91-2.42-2.79L1511,482.1q-2.52-2.69-5-5.36c-1.7-1.74-3.47-3.4-5.16-5.1l-2.54-2.54c-.85-.85-1.66-1.72-2.57-2.49l-5.27-4.79a274.11,274.11,0,0,0-44.1-32.76,207.52,207.52,0,0,0-48.21-21.13,157.87,157.87,0,0,0-51.41-6.31q-4.43-.51-8.74-1.11l-2.16-.31-2.14-.18-4.27-.39c-5.67-.73-11.22-.86-16.77-1.32-1.39-.15-2.76-.08-4.14-.13l-4.12-.1-4.14-.14a20,20,0,0,0-2,0l-2,.05q-4.11.11-8.26.13c-2.74.15-5.47.4-8.24.57l-4.18.26-4.13.55c-2.76.38-5.59.65-8.4,1.09-5.54,1.13-11.31,2-17,3.67a88.33,88.33,0,0,0-8.65,2.5c-2.88,1-5.78,1.94-8.79,3l-4.67,1.9-2.36,1-2.36,1.08-4.8,2.18-4.84,2.43-2.51,1.26-2.5,1.36-5,2.7c-3.31,1.93-6.63,3.73-9.9,5.77-6.58,3.89-13,8.13-19.41,12.32-12.72,8.51-25,17.25-36.64,25.23C1110.33,482.93,1089.5,495.28,1073.5,495Zm242.2-89.28c5.45,0,7.83.91,9.68,2.33s3.19,2.82,6.6,3.62a58.92,58.92,0,0,1,7.6.72c2.37.33,4.58.69,6.66,1.07,4.16,1,7.8,2.14,11.18,3.26,3.36,1.33,6.46,2.71,9.55,4,1.56.61,3.09,1.41,4.65,2.16s3.17,1.49,4.84,2.21c1,.36,2.08.72,3.17,1.07s2.19.85,3.33,1.27c2.28.84,4.69,1.67,7.21,2.48s5.06,1.92,7.74,2.86l4.07,1.43,4.1,1.67,4.21,1.66c1.41.55,2.86,1.07,4.25,1.75q4.21,1.91,8.57,3.79c5.62,2.82,11.43,5.52,16.8,8.76l4.08,2.33c1.37.76,2.61,1.67,3.91,2.49l3.81,2.51,1.89,1.24a22,22,0,0,1,1.82,1.29l6.86,5.26,1.64,1.29,1.52,1.37,2.93,2.7,2.78,2.63,1.33,1.29,1.19,1.35c1.56,1.8,3,3.53,4.29,5.2.65.84,1.26,1.65,1.83,2.46s1,1.68,1.44,2.49a35,35,0,0,1,2.13,4.61,45.67,45.67,0,0,0-4.79-5.36,47.21,47.21,0,0,0-5.45-4c-.93-.59-1.86-1.16-2.79-1.7l-1.41-.79c-.48-.25-1-.47-1.48-.7-2-.91-4-1.76-5.94-2.62-1-.44-2-.88-2.94-1.31s-2-.81-3-1.24a63,63,0,0,1-6-2.85c-1.92-1.14-4-2.16-6-3.52-1-.66-2-1.39-3-2.18s-2-1.69-3-2.53c-2.13-.05-4.21-.13-6.26-.25l-3-.21c-1-.08-2-.19-3-.22q-3.09-.15-6.12-.43c-1-.1-2-.21-3-.33s-2-.27-3-.34c-2.06-.19-4.1-.43-6.15-.73s-4.08-.72-6.22-1c-4.25-.57-8.46-1.61-13-2.39-2.25-.42-4.5-1-6.84-1.53s-4.75-1-7.19-1.6-5-1.1-7.55-1.76c-1.29-.31-2.6-.64-3.92-1-.66-.19-1.33-.33-2-.47l-2.05-.43c-10.94-2.61-23.22-5.5-37.31-7.7a57.09,57.09,0,0,1-9.06-2c-3-.65-6.08-1.49-9.2-2.38-.78-.25-1.54-.37-2.31-.54l-2.31-.49c-1.55-.32-3.1-.63-4.66-.93a30.86,30.86,0,0,0-4.6-.52c-1.52-.1-3-.15-4.54-.15l-2.1,0c-.7,0-1.37.14-2,.21l-4.08.52c-1.35.19-2.71.36-4,.6l-3.87,1-3.81.95c-.62.17-1.27.28-1.86.5l-1.79.62c-2.38.82-4.7,1.59-7,2.27-2.16.89-4.28,1.68-6.34,2.34-1.05.35-2,.58-3.09.94s-2.16.72-3.21,1-2.09.55-3.11.78-2,.47-3,.63a29.79,29.79,0,0,1-5.67.32,12.57,12.57,0,0,1,2.62-7.5,36.74,36.74,0,0,1,7.54-7.64c1.49-1.11,3.11-2.21,4.85-3.35l2.68-1.71,1.4-.87,1.49-.74,6.27-3,1.63-.77c.55-.26,1.13-.44,1.7-.66l3.47-1.29,3.51-1.33c.59-.22,1.18-.46,1.77-.66l1.83-.54c2.44-.71,4.89-1.45,7.32-2.23,1.2-.43,2.46-.66,3.69-1l3.67-.93c2.43-.64,4.81-1.37,7.2-1.82s4.67-1.09,6.88-1.71l1.64-.46,1.63-.37c1.08-.25,2.12-.51,3.14-.79,2-.57,4-1.19,5.74-1.87A50.91,50.91,0,0,0,1315.7,405.69ZM1222,318.49c4.67-3.56,9.25-4.77,14.89-6.21s12.51-2.52,22.23-5.38c-.31,3.14-6.7,5.13-14.5,6.6-3.87.86-8.07,1.77-12.06,2.53-2,.39-3.93.75-5.72,1.14S1223.45,318.07,1222,318.49Zm434.17,410.67c-2.91,15.76-6.15,31.27-9.81,46.67s-7.92,30.61-12.61,45.84-10.06,30.35-16,45.55-12.68,30.36-20.17,45.62c-14,28.28-27,48.69-40.61,70.92-6.85,11.13-13.88,22.64-21.43,35.8s-15.64,28-24.93,45.52c-2.73,5.13-5,9.93-7.14,14.77s-4.18,9.65-6.39,14.85-4.66,10.73-7.74,16.9c-1.54,3.09-3.21,6.35-5,9.82s-4,7.09-6.31,11c-10.45,17.42-22.82,33.24-34.28,47.88s-22,28.23-28.79,42c-16.72,16.2-34.48,30.57-51.33,44.26s-32.87,26.73-46.58,40.73a29.27,29.27,0,0,1,3.17-6.72,100.65,100.65,0,0,1,5.85-8.68c2.36-3.12,5-6.6,7.87-10.23,1.44-1.81,2.94-3.66,4.48-5.55l4.68-5.87,4.88-6c1.62-2,3.26-4.13,4.9-6.23l5-6.25,4.82-6.35c1.6-2.11,3.21-4.17,4.74-6.26l4.47-6.23c1.46-2,2.91-4,4.26-6s2.63-4,3.89-5.84c9-8.47,17.48-17.44,25.81-26.51,8.14-9.23,16.12-18.59,23.57-28.31,1.86-2.42,3.78-4.81,5.6-7.27l5.43-7.38,2.7-3.69,2.62-3.75,5.24-7.48c1.72-2.51,3.39-5,5.08-7.57s3.4-5,5-7.6c3.26-5.11,6.58-10.17,9.7-15.34,12.7-20.56,24.53-41.46,35.85-62.41s22.29-41.86,33.23-62.64c21.79-41.63,42.89-83,62.07-124.8s36.54-84.06,50.49-127.89Zm-570.25,693.58c-.3,2.09-12.8,5.14-12.13,7.14a477.49,477.49,0,0,0-61,20.48c-18.22,7.32-34.82,14.68-51.21,20.52-15.6,5.57-32.57,7.21-52.89,13.62-13.54,4.28-28.51,11.14-41.68,16.41a134.77,134.77,0,0,1-18.12,6.11c-5.35,1.28-9.92,1.6-13.34.41-11.31,7.13-28.67,13.4-46.14,20.22s-35,14.16-46.77,22.81c-.71-3.18,8.39-10.44,14.37-16.11,3-2.86,5.14-5.37,4.81-6.85s-3.17-2-10.19-.7a24.28,24.28,0,0,0-8.38,9.83c-1.62,3.15-3.09,6.26-7.29,9.76-6.24,3-12.07,5.5-17.25,7.71s-9.91,3.86-14,5.1a41.29,41.29,0,0,1-10.32,2c-2.79.1-4.93-.43-6.33-1.66,7.18-6.36,18.85-14.2,33.19-22.41a521.63,521.63,0,0,1,49.17-24.43c35.54-15.58,73.94-28.22,98.09-33.48,30.26-15.07,57.45-20.22,90.84-29.31,1.17-3.3-7-.28-13.78,1.86,19.1-9.58,40.83-13,63.11-16.36s45.17-6.52,66.33-15.54C1082.84,1417.83,1076.82,1425.71,1085.94,1422.74ZM679.41,1571.35a94.82,94.82,0,0,1-11,3.94c-3.31,1-6.5,1.91-10.18,3.32-.07-2.1,1.23-4.52,3.94-7.27a42.31,42.31,0,0,1,5.11-4.35q3.11-2.25,7.27-4.74c6.1-1.77,8.33-1,8.48.91S681.34,1568.19,679.41,1571.35ZM662,1528c14.85-.81,29.59-2.06,43.9-4s28.29-4.33,41.66-7.33c26.82-5.9,50.93-14.42,70.86-24.38q2.64-1.36,5.36-2.71c1.77-.92,3.44-1.94,5.2-2.88,3.6-1.84,6.78-4,10.24-6,.89-.48,1.62-1.09,2.45-1.62l2.43-1.63,2.46-1.61c.82-.54,1.54-1.15,2.32-1.72q2.31-1.73,4.68-3.41c1.45-1.24,2.92-2.45,4.41-3.65.72-.61,1.54-1.16,2.21-1.82l2.07-1.93,2.11-1.91,1.06-.94c.35-.32.65-.68,1-1q2-2,4-4a22,22,0,0,0,1.88-2.11l1.85-2.14,1.88-2.12c.61-.72,1.14-1.52,1.72-2.26l3.48-4.53c2-3.24,4.43-6.38,6.17-9.6a121.48,121.48,0,0,0,15-43.46,154.26,154.26,0,0,0-.83-49.24,161.53,161.53,0,0,0-.23-23.7,199.29,199.29,0,0,0-4.66-30c-4.76-20.49-13.14-39.93-21.32-48l-1.74-5c-.61-1.65-1.26-3.28-1.89-4.92l-1-2.45c-.31-.81-.72-1.67-1.08-2.5l-2.24-5q-2.26-5-4.58-9.93c-.79-1.64-1.49-3.32-2.38-4.91s-1.74-3.2-2.6-4.8l-5.26-9.51c-.88-1.58-1.77-3.15-2.65-4.72s-1.93-3.05-2.9-4.58l-5.81-9.07c-1.94-3-3.83-6-6-8.87l-6.25-8.62-3.11-4.28-1.55-2.13c-.52-.7-1.1-1.37-1.64-2.06l-13.06-16.28q-6.84-7.8-13.44-15.47c-.55-.64-1.08-1.3-1.65-1.91l-1.73-1.85-3.43-3.69-6.72-7.35c-2.51-3.71-5.36-7.18-8.19-10.71s-5.73-7-8.65-10.56-6.19-6.76-9.33-10.15-6.25-6.84-9.68-10l-10.14-9.74-2.55-2.44c-.85-.81-1.77-1.56-2.65-2.34l-5.35-4.66-5.37-4.67-2.69-2.35-1.34-1.18-1.4-1.11-11.21-9c-1.87-1.49-3.72-3-5.62-4.5l-5.81-4.29q-5.81-4.31-11.58-8.69c-4-2.76-8-5.51-11.92-8.33l-5.93-4.24c-2-1.41-4.06-2.68-6.07-4q-6.09-4-12.13-8.21c-1-.72-2-1.37-3.06-2l-3.1-2-6.16-4c-8.07-5.45-16.6-10.76-25.63-16.56-4.14-2.62-7.85-5.32-11.61-8.15-1.87-1.41-3.62-2.81-5.48-4.26L584.53,936c-1.8-1.45-3.7-2.94-5.63-4.44s-3.87-3-5.89-4.45-4.2-3-6.42-4.52c-1.11-.74-2.23-1.48-3.39-2.23s-2.39-1.53-3.63-2.29c-2.15-1.32-4.38-2.62-6.69-3.93s-4.77-2.71-7.25-4.06L530,901.57a339.83,339.83,0,0,1-32.81-20.22c-3.85-2.83-7.63-5.66-11.37-8.62s-7.44-6.09-11.09-9.28l-5.44-4.89-2.7-2.46c-.89-.81-1.78-1.63-2.72-2.54q-5.58-5.26-10.9-10.75a531.32,531.32,0,0,1-39.62-46.5c-5.77-7.48-12.74-16.11-19.26-25.33a184.58,184.58,0,0,1-16.76-28.05,77.83,77.83,0,0,1-5.29-16.67c-1.14-5.29-2.06-10.48-3.74-16.41-2.62-9.19-5.2-19.09-7.25-29.46a236.67,236.67,0,0,1-4.24-31.93c-.07-1.34-.15-2.68-.22-4s-.07-2.69-.1-4c0-2.68-.09-5.33,0-8,0-1.32.09-2.63.13-3.94s.1-2.58.24-3.94c.23-2.67.49-5.31.79-7.9a119.31,119.31,0,0,1,2.58-14.89c.27-1.17.55-2.34.82-3.49l.42-1.71c.18-.56.35-1.12.52-1.67q1-3.31,2.14-6.4a190.47,190.47,0,0,1,13.71-43.09A211,211,0,0,1,399.78,508a238.18,238.18,0,0,1,27.68-31.23,262.34,262.34,0,0,1,32.08-25.4,267.44,267.44,0,0,1,75.75-34.67,259.1,259.1,0,0,1,93.6-8.93,238.82,238.82,0,0,0-45.18,4.39c-3.62.71-7.17,1.59-10.67,2.42s-6.85,1.85-10.12,2.85a188.55,188.55,0,0,0-18.24,6.7c-2.81,1.27-5.51,2.56-8.1,3.85-1.29.64-2.56,1.28-3.79,1.93s-2.42,1.39-3.58,2.08q-3.48,2.07-6.58,4.11c-2,1.39-3.94,2.86-5.7,4.26s-3.38,2.81-4.85,4.18a56.05,56.05,0,0,0-3.87,4.21,28.6,28.6,0,0,0-4.83,7.89,224.73,224.73,0,0,0-69.67,51.41,212.4,212.4,0,0,0-26.58,36c-1.86,3.35-3.75,6.69-5.53,10.11s-3.37,7-5,10.56q-2.24,5.46-4.42,11c-1.33,3.75-2.54,7.57-3.79,11.39-.48,1.36-.79,2.76-1.16,4.1s-.69,2.69-1,4-.66,2.59-1,3.86c-.16.63-.32,1.26-.46,1.88l-.36,1.88c-.47,2.49-.91,4.91-1.35,7.27-.21,1.19-.42,2.36-.63,3.53s-.27,2.33-.41,3.48a169.86,169.86,0,0,0-1.32,27.26,167.74,167.74,0,0,0,4.17,31.83c.36,1.5.72,3,1.09,4.62s.86,3.14,1.31,4.77c.87,3.27,2,6.57,3.14,10.08a213.58,213.58,0,0,0,9.16,22.19,177,177,0,0,0,11.29,20c4.05,6.28,8.38,12.13,12.81,17.72s9,10.87,13.6,16,9.26,10,13.88,14.82a386.78,386.78,0,0,0,39.43,35.82c13.53,10.72,27.39,20.45,41.19,29.38,27.63,17.84,54.88,32.52,80.09,45.5,10.77,5.54,21.37,10.72,31.49,15.83l7.48,3.83c2.47,1.29,4.84,2.64,7.24,3.95l14.16,7.86c4.57,2.73,9,5.61,13.27,8.42s8.54,5.57,12.37,8.7,7.59,6.11,11.1,9.2c1.74,1.57,3.48,3.06,5.06,4.71s3.11,3.3,4.58,5q5.55,3.93,11.18,8.08c.94.7,1.9,1.37,2.81,2.1l2.74,2.23,5.49,4.52c3.66,3.05,7.38,6.1,11,9.28l10.72,9.95c7.31,6.55,14,13.86,21,20.89,3.54,3.47,6.74,7.27,10.09,10.91l10,11q4.75,5.65,9.51,11.19c3.16,3.71,6.43,7.29,9.38,11.07s6,7.4,9.07,11c1.5,1.82,3.08,3.55,4.51,5.39l4.32,5.43q4.32,5.37,8.68,10.5c.72.86,1.47,1.69,2.17,2.56l2.06,2.59c1.38,1.71,2.77,3.4,4.15,5.07q4.17,5,8.38,9.68c1.44,1.54,2.72,3.15,4.07,4.69s2.68,3.07,4,4.56q2.13,4.41,4.39,8.76c.76,1.44,1.52,2.89,2.29,4.33l2.16,4.42q4.38,8.79,9.17,17.39,4.42,8.78,9.08,17.4l2.34,4.29c.77,1.43,1.46,2.9,2.19,4.34l4.38,8.65,4.42,8.54c1.47,2.83,2.75,5.62,4.13,8.4s2.6,5.58,3.89,8.33,2.45,5.54,3.65,8.28a273.44,273.44,0,0,1,11.65,32.12c-.58,21-2.19,44.9-4.72,70.37-1.3,12.73-2.92,25.81-4.84,39.15q-1.53,10-3.31,20.16c-1.29,6.75-2.66,13.58-4.21,20.54-2.63,11.17-4.84,21.15-7.16,30.74-.14.6-.26,1.21-.41,1.8l-.48,1.76c-.31,1.18-.6,2.36-.88,3.54s-.63,2.35-1,3.52-.67,2.35-1,3.52c-1.17,4.81-2.83,9.21-4.22,13.88-3.25,8.94-6.73,18-11.82,26.36a106.71,106.71,0,0,1-8.39,12.43c-.74,1-1.64,2-2.48,2.94l-2.62,2.9-2.71,2.9c-.93,1-2,1.82-3,2.74-2.83,1-5.39,2.25-7.89,3.44s-5,2.36-7.25,3.67-4.63,2.57-6.86,3.93c-1.13.68-2.24,1.36-3.35,2.07l-1.66,1.06-1.72,1-6.92,4.16-1.76,1.06-1.84,1-3.76,2a81.41,81.41,0,0,1-8,3.79c-2.84,1.16-5.77,2.32-8.91,3.33a225.13,225.13,0,0,1-30.55,7c-5.36,1-11,1.63-16.67,2.4-1.42.21-2.86.37-4.32.51l-4.38.48c-2.95.3-5.89.71-8.93.94l-9.19.89c-3.09.32-6.27.53-9.45.84l-4.81.46-4.9.42c-3.29.27-6.61.61-10,.94-13.53,1.23-27.84,2.67-43.13,4.66,3.94-6.85,5.66-12.89,8-18.47a43.44,43.44,0,0,1,11.1-16.3C681.33,1533.22,662.35,1534.07,662,1528ZM675.73,418a10.21,10.21,0,0,1,3.69-1.34c3.52-.71,7.58-1.09,5.8-4.92q3.13,1.63,6.35,3.2c2.16,1,4.28,2.17,6.46,3.22s4.38,2.1,6.6,3.12,4.38,2.15,6.6,3.2,4.29,2,6.47,3l6.4,3.12,6.44,3.07,6.33,3.18c16.88,8.39,32.87,17.38,45.29,26.12,4.77,4.07,9.14,8.31,13.52,12.46,2.16,2.09,4.2,4.23,6.28,6.34s4.13,4.2,6.06,6.35l5.81,6.39c1.9,2.14,3.7,4.3,5.53,6.45,3.7,4.26,7,8.64,10.46,13a378.61,378.61,0,0,1,34.23,53.33c1.26,2.27,2.36,4.59,3.53,6.89s2.32,4.62,3.43,7,2.15,4.69,3.22,7,2.14,4.72,3.12,7.11,2,4.79,3,7.2,1.87,4.85,2.8,7.29,1.85,4.9,2.7,7.39,1.66,5,2.5,7.5l1.23,3.78,1.14,3.83c.75,2.57,1.49,5.14,2.25,7.73s1.35,5.23,2,7.88,1.34,5.3,1.9,8,1.15,5.41,1.73,8.14,1,5.52,1.51,8.31c1,5.57,1.75,11.29,2.51,17.09.09,4.92-.06,9.45-.25,13.74s-.68,8.38-1.09,12.38-1,8-1.56,12.05q-.11.75-.21,1.53l-.24,1.46c-.17,1-.33,2-.5,3l-1,6.17a417.78,417.78,0,0,1-13,88.36,558.65,558.65,0,0,1-26.63,78.34c-11,26.24-23.07,52-36,76.24A642.25,642.25,0,0,1,781,1050c-15.86,22.47-34.12,42.23-50.82,61.08s-31.82,36.79-41.71,55.74c-16.42,18.51-36.51,39.1-54.4,59.27-4.48,5-8.75,10-12.95,15-4,5-8,9.85-11.62,14.64s-7,9.47-9.9,14q-2.19,3.4-4.15,6.68l-1.89,3.24-.9,1.6-.42.77-.32.66a95.83,95.83,0,0,0-14.31,16.75c-.46.67-.8,1.25-1.21,1.87s-.72,1.16-1,1.66l-.84,1.45-.6,1.11a3.47,3.47,0,0,1-.73,1.08l0,0h0l-.21-.05c-.71-.14-1.42-.26-2.14-.38l-4.15-.62c-.65-.09-1.31-.17-2-.24l-1-.1-.87-.1c-1.15-.13-2.4-.21-3.52-.28a66.13,66.13,0,0,0-10.27.06l-.92.11-.72.09-.69.11-.58.1a8.24,8.24,0,0,0-.89.19,3.35,3.35,0,0,0-.46.11l.25-.09,1-.44-.56.22c-.38.16-.77.35-1.16.56a6.36,6.36,0,0,0-.64.32l-.35.21-.08,0-.21.13a1.48,1.48,0,0,0,.25-.18l.43-.34c.22-.18.33-.29.58-.52.71-.62,1-1,1.95-2a55.63,55.63,0,0,0,5.24-6.95c1.1-1.61,1.9-3.1,3-5,.25-.46.5-.92.73-1.38s.43-.89.73-1.43c.55-1,1.06-2,1.52-3.08l.33-.74s0,0,0,0v.4a2.4,2.4,0,0,1,.17.32,1,1,0,0,0,.22.36c1.06,0,2.87.13,5.1.08a67.05,67.05,0,0,0,7.66-.63,80.77,80.77,0,0,0,17.2-4.38c2.12-.84,6.82-2.65,10.56-4.06,2-.76,3.9-1.41,5.81-2.22l5.64-2.52,5.61-2.43c1.85-.85,3.66-1.84,5.48-2.72,3.64-1.84,7.32-3.45,10.86-5.53,14.37-7.62,28.46-16.09,43.68-25.79s31.56-20.73,50.37-34.29c-1.14,1.72-2.37,3.46-3.67,5.21s-2.79,3.32-4.28,5-3,3.35-4.64,5c-.79.87-1.64,1.64-2.49,2.43l-2.58,2.38-5.3,4.76c-.89.82-1.82,1.56-2.75,2.29l-2.81,2.2-5.64,4.43c-.93.76-1.9,1.42-2.87,2.1l-2.88,2c-15.27,10.94-30.16,19.71-38.65,28.68-15.72,5.8-30.1,12.44-43.92,18.48-3.47,1.41-6.87,2.88-10.2,4.36l-1,.46-.89.42c-.59.3-1.19.56-1.8.82-1.19.56-2.41,1-3.61,1.54a71.22,71.22,0,0,1-13.75,4,54.35,54.35,0,0,1-10.64.77,52.24,52.24,0,0,1-8.16-.88l-.7-.13c-.24,0-.38-.09-.58-.12-.44-.05-.62-.14-.94-.15-.13,0-.19,0-.3,0h-.23a.67.67,0,0,0-.18.08v0s0,0,0,.07l-.17.26c-.24.35-.48.69-.74,1l-.77,1c-.19.28-.4.56-.61.84-.41.54-.93,1.14-1.34,1.61s-.69.83-1.09,1.24l-1,1a15,15,0,0,1-1.92,1.67l.23-.14,0,0,.19-.11.36-.2.88-.44c.41-.2.81-.37,1.19-.52l-.91.38-.22.09-.12,0h0s0,0,0,0l.24-.07.62-.14.45-.09.52-.09a13.48,13.48,0,0,1,1.34-.19l.91-.11.22,0c.05,0,0,0,0,0H549a1.53,1.53,0,0,1-.36-.07,2.47,2.47,0,0,1-1.32-1.52c-.73-1.75-.88-5.15.43-10.28a57.62,57.62,0,0,1,3.23-9,105.91,105.91,0,0,1,6.17-11.7c2.11-3.48,4.33-6.91,6.88-10.58q4.15-5.91,8.37-11.88c5.77-8,11.75-16.15,18.38-25,13.74-18.5,30.64-36.75,47.2-54.28s32.77-34.41,45.05-50c6.67-8.45,11.63-18.8,18.5-27.06,16.21-19.54,39.9-41,57-65.36,2.7-3.62,8.84-18,11.67-22,2.17-3,4.39-6,6.8-9s4.87-5.91,7.36-8.84c4.85-6,9.74-11.9,13.72-17.9a479.15,479.15,0,0,0,38.3-70.58,451.26,451.26,0,0,0,28.56-88.11c1.59-8,3.36-16,4.43-24.33l1.8-12.4c.51-4.17.84-8.4,1.24-12.61l.58-6.33c.16-2.11.42-4.21.47-6.35q.23-6.4.47-12.82l.21-6.42.05-1.61,0-1.68,0-3.35L874,717.2l-.29-6.68a358.53,358.53,0,0,0-6.39-52.65A376.31,376.31,0,0,0,853.6,607.4c-4.65-13.33-9.33-26.07-14.89-38.55a224.35,224.35,0,0,0-20.3-36.51c-1.4-2-2.82-4-4.33-6s-3.13-3.91-4.75-5.86l-2.44-2.93c-.83-1-1.71-1.91-2.56-2.87L799.12,509c-7.16-7.53-14.52-14.91-21.71-22.12-1.76-1.78-3.45-3.58-5.21-5.33s-3.5-3.49-5.24-5.21l-2.58-2.6-2.65-2.53q-2.64-2.55-5.26-5.05c-1.72-1.71-3.59-3.28-5.37-4.92l-5.42-4.85-5.62-4.66c-1.9-1.53-3.75-3.12-5.74-4.56s-4-2.93-6-4.37c-1-.72-2-1.45-3-2.15l-3.13-2c-2.1-1.35-4.22-2.69-6.38-4s-4.41-2.49-6.66-3.7-4.68-2.47-7.13-3.59-5-2.18-7.5-3.21l-3.83-1.52c-1.29-.49-2.61-.92-3.93-1.37-2.65-.87-5.34-1.71-8.06-2.5l-1.47-.38C676.75,418.26,676.24,418.12,675.73,418ZM569.2,1251.62l.26,0a1.63,1.63,0,0,0,.31,0,2,2,0,0,0,.49-.14,5.85,5.85,0,0,0,.76-.47.74.74,0,0,1,.67-.1,6.37,6.37,0,0,1,1.21.93c.51,2.49-1.16,3.73-2.43,3.63a1.28,1.28,0,0,1-.84-.3,1.49,1.49,0,0,1-.53-.75A5.81,5.81,0,0,1,569.2,1251.62Z"/><path class="b" d="M1225.61,1200.79c6.32-4.94,8.78-9.07,13.66-13.76,8.29-3.27,18.6-12.12,28-20.79,2.37-2.15,4.63-4.34,6.92-6.34l3.38-2.92c1.08-1,2.16-1.86,3.23-2.71a54,54,0,0,1,6.23-4.33,20.79,20.79,0,0,1,5.73-2.51c-4.51,4.56-9.17,8.76-13.67,12.93s-9.13,8-13.78,11.74c-2.29,1.89-4.56,3.77-6.92,5.55l-6.94,5.36c-4.74,3.43-9.33,6.9-14.16,10.15s-9.64,6.49-14.52,9.68c-2.45,1.59-5,3.11-7.49,4.68l-3.77,2.34-3.87,2.28c-10.26,6.16-21.16,12.08-32.8,18.11,2.73-4.15,15.26-11.7,27-18.25,2.92-1.65,5.83-3.21,8.55-4.63s5.17-2.73,7.35-3.78C1222.13,1201.53,1225.06,1200.29,1225.61,1200.79Z"/><path class="b" d="M1137,1244.59a40.65,40.65,0,0,0,12.36-7.86,45.47,45.47,0,0,1,11.33-7.89c-2.75,6.24-19.05,14.41-21.52,20.43C1129.42,1253.43,1143.29,1244.9,1137,1244.59Z"/><path class="b" d="M738.56,1393A241.33,241.33,0,0,1,759.68,1377l13.55-9.67c4.8-3.27,9.52-6.93,14.34-10.56l7.26-5.46c2.35-1.89,4.67-3.82,7-5.72,4.59-3.83,9.24-7.51,13.33-11.42s8.12-7.56,11.69-11.16,6.58-7.2,9.23-10.45c-2.44,3.51-5.22,7.1-8.27,10.74s-6.6,7.13-10.23,10.75c-1.83,1.8-3.68,3.64-5.62,5.43s-4,3.52-6.07,5.28l-6.27,5.29-3.2,2.66-3.33,2.54-13.51,10.14L765.64,1375l-3.43,2.39-3.5,2.26-6.88,4.51q-3.41,2.25-6.68,4.5C743,1390.15,740.71,1391.52,738.56,1393Z"/></svg>