<svg xmlns="http://www.w3.org/2000/svg" viewBox="0 0 1920 1920"><defs><style>.a{fill:none;}.b{fill-rule:evenodd;}</style></defs><path class="a" d="M899.91,1498.57a2084.9,2084.9,0,0,0,221.63,131c19.15,9.7,38.38,19.25,57.83,28.35,9.68,4.64,19.47,9,29.22,13.53l8,3.58q6.9,3.18,13.89,6.18c9.08,4,18.17,7.78,27.36,11.3a388.71,388.71,0,0,0,55.8,17,293.06,293.06,0,0,0,56.44,6.91,254,254,0,0,0,55.93-4.92A242.71,242.71,0,0,0,1479.4,1694l7.07-3.55,3.52-1.77,1.76-.88,1.72-1c2.29-1.29,4.6-2.53,6.85-3.89l6.73-4.09a256.84,256.84,0,0,0,25.55-18.56,308,308,0,0,0,45-46.44c6.92-8.58,13.46-17.6,20-26.62l9.78-13.52,2.45-3.38a30.54,30.54,0,0,0,2.3-3.42l4.06-7,32.47-55.89,64.93-111.78,16.23-27.94,8.11-14,4.06-7,1-1.75a6.06,6.06,0,0,0,.46-.86l.11-.72.43-2.88a206.22,206.22,0,0,0-1.83-68.91,190,190,0,0,0-6.72-25.09c-.71-2.12-1.39-4.28-2.18-6.39l-.6-1.59-.31-.79c-.08-.27-.34-.47-.38-.76l-1.25-3.15c-1.6-4.23-3.53-8.32-5.47-12.33a201.53,201.53,0,0,0-12.76-22.35A205.06,205.06,0,0,0,1683,1160.4a213,213,0,0,0-17.13-14.74l-2.28-1.75-2.35-1.73c-.77-.58-1.59-1.14-2.38-1.71l-1.2-.85c-.42-.28-.88-.55-1.32-.83l-10.66-6.57-5.33-3.29-2.66-1.64-1.33-.83-.67-.41c-.24-.13-.51-.25-.77-.38q-6.24-3-12.57-6t-12.73-5.83l-14.56-4.85-14.57-4.85c-.31-.1-.6-.21-.92-.3l-1-.22-2-.44-4-.89-8.06-1.77-16.11-3.54c-.68-.15-1.34-.31-2-.44l-2.1-.33-4.21-.66-8.41-1.33-16.84-2.65c-5.61-.89-11.11-1.89-16.68-2.83l-16.65-2.87-4.15-.73-4.12-.79-8.23-1.59-16.46-3.18-4.11-.8-4-.85-8.07-1.73-16.13-3.46-4-.86-1.72-.38-.93-.21-3.71-.86q-29.68-6.76-59.11-14.61-14.71-3.91-29.35-8.1l-14.62-4.25-14.36-4.31c-4.25-1.3-7.31-2.31-9.15-3l-1.12-.41c-.26-.1-.41-.17-.62-.24s-.09,0-.11,0h0c-.07.15.18-.45-.34.78l-1.09,2.5-2.21,5-1.7,4c-1.16,2.65-2.35,5.29-3.59,7.92-2.75,5.67-4.39,9.41-6.58,13.72l-1.63,3.14c-.54,1-1.18,2.17-1.54,3-.87,1.72-1.76,3.43-2.69,5.13s-1.91,3.39-2.89,5c-.75,1.39-1.54,2.77-2.35,4.14s-1.67,2.73-2.55,4.07c-.23.35-.44.68-.59.93l-.5.83-1,1.65c-5.87,8.92-10.41,14.06-13.3,16.92-.28.3-.59.6-.91.89l-.49.44-.25.22c-1.63,1.44,13.3-11.8,6.84-6a32.83,32.83,0,0,1-2.63,2.24l-.72.53c-.24.18-.53.37-.64.47-.29.24-.6.48-.92.71l-1,.69-.55.33-.25.15-.12.09c-.35.23-.74.46-1.18.69l-.34.17,0,0-.13.07-.2.08,0,0,.09,0,.18-.08c.24-.09.41-.14.62-.2a43.36,43.36,0,0,1,10.38-1.77c1.5-.16,3.07-.26,4.55-.27h1.67l.68,0c.93,0,1.85,0,2.76,0s1.82.05,2.71.11l1.34.11,1.59.06c2.14.1,4.24.3,6.31.57,1,.16,2.27.26,3.45.4s2.39.3,3.58.49l7.43,1.28c2.65.47,5.26,1,7.82,1.68,2.86.6,5.78,1.27,8.6,2,1.41.38,2.81.79,4.21,1.21,1.57.4,3.12.82,4.66,1.26,3.09.88,6.09,1.84,9.12,2.88q5,1.51,9.79,3.26l1.1.4h0l0,0,.08-.12a.9.9,0,0,0,.08-.28,5,5,0,0,0,.27-.57l.11-.3c0-.1.14-.27.2-.41s.28-.57.4-.86.37-.7.54-1l.27-.55.13-.28.19-.32c.5-.87.87-1.68,1.49-2.69l.83-1.46,1-1.59.48-.8c.06-.12.21-.33.32-.51l.36-.55,1.44-2.22.18-.28a5.47,5.47,0,0,1,.32-.47l1.22-1.71,2.42-3.4,2.43-3.41c.81-1.13,1.58-2.29,2.49-3.37l5.28-6.59,2.64-3.29,2.74-3.26a453.33,453.33,0,0,0,39.15-53.45l4.14-6.71,3.9-6.7,2-3.36,1.84-3.37,3.67-6.74c4.65-9,9.13-18.09,13-27.18s7.41-18.22,10.56-27.33,5.74-18.22,7.9-27.3a282.26,282.26,0,0,0,7.74-54.08c.45-8.94.23-17.82-.19-26.7-.4-4.43-.66-8.85-1.24-13.27-.28-2.21-.47-4.43-.82-6.63l-1.09-6.6a229.43,229.43,0,0,0-15.57-52.21c-.89-2.13-1.86-4.24-2.85-6.34l-1.48-3.16-.74-1.57-.81-1.54-3.28-6.15c-1.12-2-2.29-4-3.43-6-.58-1-1.14-2-1.74-3l-1.87-2.9c-1.26-1.92-2.48-3.89-3.77-5.77l-3.9-5.62-1-1.41c-.33-.46-.69-.9-1-1.35l-2.07-2.67a209.05,209.05,0,0,0-17.35-20.1,229.31,229.31,0,0,0-18.67-17.23c-3.14-2.73-6.55-5.14-9.87-7.62l-5-3.66-5.1-3.54a239.14,239.14,0,0,0-22-12.8c-3.82-2-7.85-3.87-11.92-5.72-2.09-.9-4.14-1.82-6.25-2.69l-7.3-1.94-29.21-7.73-29.21-7.73-3.65-1a9.14,9.14,0,0,0-2-.3l-2.08-.2-8.31-.79L1202,625.28l-64.57-6.2-57.38-5.66q-64.3-6.85-128.42-15.32c-10.68-1.45-21.38-2.79-32-4.33l-32-4.52-32-4.77c-10.67-1.58-21.3-3.32-32-5q-63.87-10.12-127.48-21.84l-31.77-6c-10.59-2-21.15-4.13-31.73-6.19s-21.14-4.23-31.7-6.4l-15.83-3.24L578,534.33c-2.29-.48-4.5-1-6.71-1.47a487.19,487.19,0,0,1-48-13.08c-14-4.72-25.87-9.89-33.89-14.39-2-1.11-3.75-2.17-5.27-3.14l-.25-.17.19.11c.12.08.24.16.35.25l.17.14c.05,0,0,0,0,0l0,0h0s0,.06,0,0l0,0s.08-.05,0,0,0,0,0,0,0,0,0,0,.05,0,0,0,0,0,0,0,0-.05,0,0a1.05,1.05,0,0,1-.05.19s0,.06,0,0l0-.14.1-.3c.1-.39.3-.84.45-1.27l.47-1.32.55-1.4.26-.71.32-.75.61-1.51.7-1.58c.91-2.12,2-4.42,3.18-6.78s2.49-4.87,4-7.46,3-5.25,4.63-8,3.42-5.53,5.32-8.39c.91-1.42,1.9-2.86,2.87-4.31.47-.71,1-1.48,1.54-2.24l1.59-2.27c.52-.75,1.06-1.55,1.57-2.26l1.54-2.12c1-1.42,2-2.88,3-4.15s2-2.68,2.95-3.9l2.86-3.63c1.85-2.21,3.68-4.5,5.38-6.35l1.28-1.48,1.22-1.3,1.2-1.29.59-.65.57-.55c.74-.72,1.48-1.48,2.19-2.21s1.34-1.21,2-1.84a62.23,62.23,0,0,1,5.68-4.57,3,3,0,0,0,.78-.53,1,1,0,0,0,.48-.25s.07-.08.09-.08l.06,0a.11.11,0,0,0,.08,0l0,0v0s0,0,0-.06l-.12-.24c-.32-.65-.64-1.32-.94-2s-.6-1.4-.88-2.14l-.21-.55c11.15,28-15.23-38.16-12.49-31.32l0,.07.06.14.11.26.41,1.07.72,2c.22.63.41,1.3.59,1.85a47.13,47.13,0,0,1,1.28,5.14c.38,2.17-.06.92.16-3.07a61.43,61.43,0,0,1,.91-7.76,80.76,80.76,0,0,1,2.44-10,75.62,75.62,0,0,1,4-10.18,58.62,58.62,0,0,1,4.76-8.27c.19-.27.38-.54.59-.82s.45-.58.59-.78c.33-.45.69-.91,1.1-1.37s.59-.73.94-1.1l.43-.47.39-.4c1-1,1.55-1.37,1.39-1.27l10.75-199.76a286.16,286.16,0,0,0-61,32.66,293.76,293.76,0,0,0-88.9,99.47,286.34,286.34,0,0,0-25.64,64.26l-52.74,200,207,4.12a955.64,955.64,0,0,1,204.72,26.15l12.54,3.11,12.49,3.27,3.11.82,2.78.78,5.46,1.55c1.82.51,3.52,1,5.28,1.57l5.1,1.58a237.36,237.36,0,0,1,32.93,12.94,106.69,106.69,0,0,1,9.9,5.6c.35.2.6.4.86.58l.11.08.05,0h0l0,0,0,0c0,.05,0,0,0,0h0s0,0,0,0h0s0,0,0-.11l0,.77-.12,1.11-.08,1.12-.17,1.29-.14,1.29-.22,1.45-.2,1.45-.28,1.6a294.6,294.6,0,0,1-8.32,34c-4,13.73-9.28,29.43-15.15,47s-12.32,37.12-18.61,59.25-12.39,47-16.36,76.13l-.72,5.53L775,838l-.18,1.7-.36,3.41c-.47,4.54-.89,9.09-1.18,13.64l-.43,6.84c-.12,2.28-.19,4.56-.27,6.84l-.18,6.84v6.83a327.83,327.83,0,0,0,4.72,54.32,300.86,300.86,0,0,0,37.15,101.61c3.54,5.67,7.06,11.36,10.89,16.84q2.84,4.14,5.74,8.23c2,2.7,4.06,5.32,6.12,8a320.51,320.51,0,0,0,26.8,30c2.4,2.35,4.86,4.63,7.32,6.92s4.9,4.59,7.48,6.76c5.11,4.36,10.21,8.75,15.57,12.83,2.67,2.06,5.34,4.1,8,6.13s5.46,3.94,8.21,5.88l4.15,2.88,2.08,1.43,1.74,1.15,6.74,4.37,3.37,2.16,3.27,2,6.57,4c1.11.68,2.16,1.28,3.22,1.89l3.19,1.83c2.12,1.21,4.29,2.46,6.37,3.61,8.29,4.56,16.46,8.87,24.14,12.67l5.79,2.88,5.57,2.68c3.76,1.83,7.33,3.47,11,5.17l5.44,2.53,5.58,2.52,5.61,2.5,2.8,1.26,2.89,1.24,11.58,4.93,12,4.83c2,.81,4,1.59,6.09,2.37l6.18,2.34c2.07.77,4.1,1.56,6.21,2.32l6.39,2.25a556.77,556.77,0,0,0,54.1,16.16c4.66,1.22,9.67,2.23,14.54,3.3l7.35,1.56,7.58,1.38,7.6,1.32c1.27.21,2.52.45,3.81.64l3.92.55,8.78,1.19,5.07.65c1.68.19,3.35.34,5,.5a413.45,413.45,0,0,0,80.36.35,349.41,349.41,0,0,0,180-70.27,323.38,323.38,0,0,0,28.78-24.92,306.42,306.42,0,0,0,47-58.76l4.81-8.08c1.52-2.73,3-5.49,4.49-8.24s2.83-5.58,4.22-8.38,2.69-5.65,4-8.51a276.49,276.49,0,0,0,13-35.14l.34-1.12a3.69,3.69,0,0,1,.19-.56l.16-.56.61-2.27,1.19-4.53c.81-3,1.54-6.06,2.23-9.11,1.47-6.08,2.57-12.24,3.63-18.41a288.45,288.45,0,0,0,3.5-37.37,294.08,294.08,0,0,0-1.29-37.64c-.55-6.27-1.43-12.52-2.37-18.76l-1.66-9.33c-.58-3.11-1.29-6.2-1.95-9.3a324.61,324.61,0,0,0-10.54-36.7,349.36,349.36,0,0,0-14.85-35.6c-22.55-46.55-56.11-89.07-97.39-123.29-2.59-2.12-5.16-4.28-7.83-6.31s-5.36-4-8.07-6c-5.42-4-10.85-7.93-16.48-11.63s-11.26-7.39-17-11l-7.48-4.38-6.68-3.85a551.77,551.77,0,0,0-52.47-25.62c-17-7.15-33.53-13.23-49.42-18.61l-11.77-3.86c-3.89-1.25-7.64-2.39-11.47-3.59-1.89-.58-3.85-1.21-5.69-1.74l-5.54-1.65c-3.68-1.09-7.46-2.22-11-3.21L1213,575.6l-10.38-2.89-19.94-5.47L1163.77,562q-9.36-2.57-18.7-5.23Q995.61,514.6,849.79,460.65L847.08,766.7a609.59,609.59,0,0,1,349.3-15.11l5.36,1.31c1.78.43,3.58.84,5.32,1.4l10.55,3.09,10.57,3,5,1.61,2.49.8,2.38.81,4.74,1.62,4.51,1.64,2.25.82c.74.27,1.42.55,2.13.83l4.23,1.64c5.36,2.23,10.56,4.41,14.9,6.61,2.35,1.06,4.25,2.18,6.31,3.22l.75.39.68.4,1.35.78,1.36.77.68.38.59.38c.78.51,1.58,1,2.38,1.49l.61.36.5.36,1,.72,1,.68.52.34a5,5,0,0,1,.43.34c.56.45,1.14.88,1.73,1.29l.44.3c.14.11.23.21.35.32l.69.6.73.57.37.27a3.5,3.5,0,0,1,.27.28,14.06,14.06,0,0,0,1.14,1l.3.23a1.55,1.55,0,0,1,.21.25c.14.16.28.32.43.47s.3.29.45.43a1.47,1.47,0,0,1,.41.42,4.94,4.94,0,0,0,.67.77c.3.2.41.55.64.81s.21.26.33.39.27.23.33.39a32.32,32.32,0,0,1,4.25,8.3c.08.23.18.47.28.7l.15.35.1.42c.14.55.31,1.1.5,1.64,0,.13.11.26.15.4l.1.48c.06.31.14.62.22.93a17.55,17.55,0,0,1,.48,1.93c.12.7.27,1.4.44,2.09a7.39,7.39,0,0,1,.19,1.13l.18,1.17c.33,1.48.42,3.28.68,5a117.4,117.4,0,0,1,.58,11.81c.08,2.09-.07,4.41-.11,6.68l0,.85-.06.89-.13,1.79c-.1,1.21-.09,2.36-.24,3.62-.29,2.5-.41,4.94-.81,7.56l-.49,3.89-.64,4-.3,2-.4,2-.75,4.12-.9,4.19c-.3,1.4-.57,2.8-.94,4.23a303.72,303.72,0,0,1-10.56,35.1L1288.8,918c-.56,1.49-1.18,3-1.76,4.46-1.13,3-2.43,5.94-3.66,8.91-.59,1.5-1.3,3-1.94,4.44s-1.29,3-2,4.42c-1.43,3-2.59,5.69-4.41,9.14a620.06,620.06,0,0,1-44.74,76.85A635.45,635.45,0,0,1,1110.09,1158a619.35,619.35,0,0,1-72.46,51.54c-1.51,1-3.24,2-4.87,3l-5,2.94-10.55,6.1-11.27,6.38-11.93,6.68c-16.33,9.14-34.34,19.16-53.67,30.86a675.57,675.57,0,0,0-61.19,41.33l-8,6.28c-2.65,2.12-5.28,4.15-8,6.46l-8,6.79-4,3.42-4,3.64-7.92,7.32-2,1.84-2.13,2.08-4.29,4.24c-2.86,2.84-5.58,5.76-8.35,8.66s-5.38,5.89-8,8.87a388.34,388.34,0,0,0-54.36,79.93,360.14,360.14,0,0,0-20,47.22,333.48,333.48,0,0,0-13.39,53.35,309.68,309.68,0,0,0-4,59.42,292.6,292.6,0,0,0,9,63.17c.7,2.63,1.34,5.27,2.13,7.89s1.59,5.24,2.41,7.84c1.59,5.23,3.53,10.36,5.44,15.49.94,2.54,2,5.16,3.13,7.77s2.23,5.19,3.38,7.77c2.35,5.11,4.87,10.15,7.46,15.14a285.32,285.32,0,0,0,37.41,54c3.5,4.09,7.15,7.85,10.81,11.67,1.84,1.93,3.71,3.72,5.58,5.53s3.77,3.6,5.68,5.38,3.85,3.44,5.76,5.11,3.49,3.07,5.31,4.55l5.47,4.4c1.83,1.47,3.67,2.92,5.56,4.3a314.16,314.16,0,0,0,47.72,29.62,326.43,326.43,0,0,0,107.53,32.34,319.93,319.93,0,0,0,112.54-6.33c36.88-8.59,72.24-23.64,104.47-43.35a386,386,0,0,0,45.88-32.93A418,418,0,0,0,1296,1767.1a449.57,449.57,0,0,0,63.43-88.52,368.74,368.74,0,0,0,22-47.67,310.6,310.6,0,0,0,14.08-48.79,284.25,284.25,0,0,0,5.56-49.27,257.83,257.83,0,0,0-3.57-49.14l-1.13-6.08-.56-3c-.2-1-.46-2-.68-3l-1.42-6-.72-3-.81-3-1.66-6-.42-1.5a5.54,5.54,0,0,0-.52-1.46l-.93-3c-1.27-4-2.49-7.91-4-11.75l-2.25-5.8c-.79-1.91-1.62-3.81-2.45-5.71-1.61-3.81-3.4-7.54-5.2-11.27l-1.35-2.79-1.46-2.73-3-5.45c-1-1.82-2.08-3.57-3.11-5.35s-2.07-3.57-3.17-5.31c-4.39-7-9-13.78-14.06-20.26l-3.75-4.88-3.94-4.73c-2.56-3.2-5.39-6.18-8.14-9.22-.7-.76-1.37-1.53-2.09-2.27l-2.16-2.19-4.31-4.4c-2.94-2.88-6-5.68-9-8.49l-4.69-4c-1.57-1.34-3.08-2.74-4.73-4l-4.86-3.88-2.43-1.95-2.51-1.87c-26.59-20-57.43-36-91.19-47.8s-70.14-19.51-107.2-24.1c-4.64-.58-9.27-1.07-14-1.58s-9.43-1-14.15-1.41l-3.46-.29-1.87-.19-3.73-.36-7.47-.72-29.92-2.55-29.94-2.19-30-1.83q-119.89-6.63-240-2-60,2.34-119.85,7.52l-15,1.34-7.48.67-7.27.7-27.74,2.71c-8.89.86-17.41,1.63-25.63,2.3s-16.1,1.23-23.58,1.62-14.63.66-21.39.75-13,0-18.94-.27a184.88,184.88,0,0,1-29.58-3.38c-.95-.23-2-.4-2.88-.63s-1.79-.46-2.7-.66-1.66-.49-2.5-.71-1.54-.51-2.33-.73a78.18,78.18,0,0,1-8-3.08c-.56-.29-1.13-.56-1.72-.81,4.18-8.56-37.5,74.52-19.75,39.15l.19-.38.33-.62.16-.29,0,0,0,.08-.47.8-.48.77-.61.93-.81,1.22-.92,1.33c-.34.5-.7,1-1.06,1.5l-1.22,1.66-1.32,1.73c-.48.62-1,1.25-1.47,1.87l-1.57,1.93q-.81,1-1.68,2c-2.3,2.74-4.89,5.49-7.62,8.27s-5.61,5.48-8.64,8c-.72.63-1.46,1.25-2.21,1.85l-2.25,1.78c-.74.58-1.49,1.14-2.27,1.69s-1.45,1.07-2.2,1.59a74,74,0,0,1-16,8.64,26.87,26.87,0,0,1-7.93,1.92h-.17l.27,0,.4,0c.23,0,.44.07.63.11l-.79-.16.39.08.74.21c.44.11.86.24,1.27.38.61.24,2.06.7,3.11,1.19.46.23,1.32.57,2.05.91s1.47.71,2.17,1.09c.88.43,1.86.93,2.74,1.43.45.25.89.51,1.33.77s.9.55,1.5.88c1.12.64,2.22,1.32,3.28,2l1.63,1.09c.67.42,1.33.85,2,1.29,1.31.88,2.6,1.79,3.85,2.72.55.43,1.46,1,2.22,1.6l2.35,1.72,2.29,1.77c.83.64,1.36,1.13,2.41,1.91q2.88,2.21,5.65,4.52l6.11,5.15q3.52,3,6.93,6c1.23,1.1,2,1.88,3.72,3.35l4.51,4q4.49,4.08,8.84,8.28c1.28,1.26,3.9,3.64,5.77,5.43l6.08,5.81,6,5.89c2,1.92,4,4,6.15,6.09l.12-.11.06-.06.17-.16,2.56-2.42,20.3-18.87,82.34-76.51L306.32,1068.27,224,1144.77l-20.86,19.39-3.52,3.31-4.1,3.94-2.28,2.25-2.37,2.36-2.57,2.64-2.62,2.74a250.62,250.62,0,0,0-25.15,31.22l-1.69,2.51-1.76,2.74c-1.17,1.86-2.32,3.72-3.45,5.6-.56.92-1.13,1.89-1.73,3l-1.74,3.1c-1.15,2.09-2.26,4.14-3.36,6.29s-2.25,4.56-3.33,6.86-2.12,4.56-3.17,7.12c-2.07,5-4,9.9-5.77,15.4q-1.34,4-2.53,8.11c-.78,2.79-1.51,5.64-2.2,8.49-1.4,5.69-2.47,11.44-3.36,17.23-.46,2.86-.79,5.85-1.11,8.79s-.59,5.9-.75,8.88c-.33,6-.48,11.94-.28,17.88s.6,11.8,1.24,17.65c.32,2.92.75,5.73,1.19,8.59s.94,5.7,1.51,8.41,1.17,5.49,1.82,8.22,1.37,5.27,2.11,7.89l1.15,3.91,1.21,3.74c.82,2.48,1.68,5,2.58,7.41a219,219,0,0,0,25.34,48.38c1.14,1.65,2.32,3.31,3.48,4.91s2.31,3.09,3.48,4.62l1.77,2.28,1.74,2.15,3.53,4.28c4.65,5.43,9.4,10.59,14.05,15.18s9.33,8.91,14,13,9.3,7.7,13.92,11.14a275.44,275.44,0,0,0,28.12,18.48c2.38,1.39,4.8,2.71,7.22,4,1.21.66,2.45,1.29,3.67,1.93l1.85,1,1.69.85c3.63,1.78,7.29,3.53,10.95,5.26a410.24,410.24,0,0,0,88.24,28.89,506.52,506.52,0,0,0,81.88,9.95c12.82.56,25.25.71,37.25.56s23.55-.6,34.76-1.19,22-1.38,32.49-2.23,20.58-1.78,30.34-2.71l28.19-2.76,6.71-.64,6.51-.59,13-1.17q52.15-4.5,104.48-6.55,104.61-4.08,209.31,1.7l89.56,6.82s0,0,0,0,0,0,0,0h0s0,0,0,0L1017,1588.12l-.34.37-.68.74c-.4.46-.83.92-1.28,1.38l-1.34,1.34c-.8.83-1.86,1.73-2.6,2.43a44.72,44.72,0,0,1-8.37,6l-.51.27-.51.24-.24.11-.16.06c-1.39.55,11.65-4.64,6.14-2.44h0l0,0s-.09,0,0,0l.19-.07,1-.27a55.35,55.35,0,0,1,11.78-1.42,114.47,114.47,0,0,1,22,1.6c1.06.17,2,.38,3.13.57l1.64.3,1.06.22c-.06,0,0-.08,0-.16s0-.1.05-.17a1,1,0,0,0,0-.24,3.44,3.44,0,0,0,.2-.64,35.53,35.53,0,0,1,1.95-4.45,64.64,64.64,0,0,1,8.75-12.72c.48-.49.92-1,1.39-1.52s.92-1,1.41-1.45l.7-.7c.13-.13.19-.21.38-.38l.61-.54c.81-.72,1.61-1.46,2.4-2.2l1.18-1.13,1.37-1.13,2.71-2.32c.84-.77,2-1.57,3-2.37l3-2.42a352.66,352.66,0,0,1,32-21.4c12.72-7.71,27.42-16,43.79-25.11l12.58-7,13.19-7.46,13.77-8,7.12-4.23c2.38-1.43,4.73-2.77,7.15-4.32a944.81,944.81,0,0,0,110.57-78.62A960.81,960.81,0,0,0,1499,1209.6a943.8,943.8,0,0,0,68.24-117.24c2.51-4.85,5.18-10.69,7.76-16.18,1.3-2.77,2.51-5.59,3.77-8.39s2.52-5.59,3.69-8.43c2.38-5.67,4.79-11.31,7-17.07,1.13-2.87,2.28-5.73,3.37-8.62l3.23-8.71a630,630,0,0,0,21.69-72.49c.77-3.11,1.44-6.3,2.13-9.48l2-9.55,1.81-9.7.89-4.85.79-4.94,1.54-9.88c.47-3.32.88-6.69,1.31-10,.91-6.65,1.5-13.56,2.15-20.38.32-3.4.5-6.93.74-10.4l.32-5.22.15-2.61.1-2.66c.24-7.09.49-14.14.39-21.41,0-14.37-.84-29.25-2.32-44.28-.89-7.61-1.72-15.13-3.06-22.87l-.94-5.77c-.33-1.92-.64-3.83-1-5.78q-1.17-5.85-2.41-11.66c-.78-3.86-1.84-7.82-2.82-11.73l-1.51-5.87-.78-2.93-.87-3q-1.75-5.91-3.61-11.79l-.93-2.94-1-3-2.1-5.9-2.15-5.88c-.37-1-.72-2-1.11-2.94l-1.2-2.94q-2.42-5.86-4.92-11.71c-.81-2-1.73-3.88-2.65-5.82l-2.77-5.79c-1.88-3.86-3.7-7.71-5.81-11.5s-4.14-7.58-6.26-11.34c-1-1.89-2.2-3.73-3.33-5.59l-3.43-5.53c-4.5-7.42-9.59-14.49-14.64-21.57-1.25-1.79-2.6-3.48-3.93-5.19l-4-5.12c-2.72-3.39-5.37-6.82-8.27-10s-5.74-6.52-8.65-9.74c-1.45-1.64-2.93-3.17-4.42-4.69l-4.48-4.56c-6-6.18-12.14-11.71-18.35-17.3-.78-.69-1.55-1.41-2.33-2.07l-2.34-2-4.7-3.9-4.73-3.86c-.79-.64-1.58-1.3-2.37-1.91l-2.37-1.8q-4.74-3.58-9.52-7.12l-2.39-1.76-2.38-1.64-4.77-3.28-4.79-3.24-2.39-1.61-2.38-1.51-9.53-5.95-2.4-1.47-2.36-1.38-4.73-2.72-4.74-2.71-2.38-1.34-2.34-1.26c-6.24-3.32-12.56-6.69-18.69-9.61-12.43-6.14-24.49-11.3-36.45-16.18l-8.86-3.46c-1.47-.57-3-1.17-4.42-1.7l-4.35-1.6-8.7-3.15-8.55-2.93-4.27-1.45-4.19-1.36-8.39-2.7L1309,445.21l-16.43-4.75c-2.74-.83-5.5-1.49-8.26-2.18l-8.29-2.06a939.37,939.37,0,0,0-536.38,23.45l-428,148.93L737,765.73Q894.68,824,1056.62,869.82q10.11,2.86,20.24,5.66l20,5.52,19,5.23,9.09,2.53,8.71,2.48c3,.83,5.64,1.64,8.42,2.46l4.15,1.23c1.4.41,2.64.82,4,1.22l7.82,2.45,7.44,2.44c9.63,3.27,18.41,6.55,26.25,9.82,7.68,3.3,14.38,6.6,20.18,9.79l2.06,1.21.73.42.54.28c-.06.08-.1.14-.06.07l.06-.07s0,0,.06,0h0l-.18,0-1.09-.14-1.09-.12c-.37,0-.78-.15-1.16-.22l-2.36-.43-2.37-.39-2.53-.57c-1.7-.4-3.32-.63-5.17-1.17a231.73,231.73,0,0,1-23.33-7l-3.15-1.1c-1.06-.37-2.17-.82-3.25-1.22l-3.28-1.24c-1.09-.4-2.18-.81-3.33-1.29l-6.79-2.74-7-3-1.76-.75-1.81-.81-3.62-1.62L1138.5,897l-3.73-1.74c-2.47-1.16-5-2.32-7.32-3.45l-3.53-1.7-3.27-1.62c-4.4-2.17-8.13-4.18-11.66-6.1l-4.76-2.73-2.07-1.26-1-.62-.88-.58-1.75-1.13-.22-.13-.15-.1v0l0,0,0,0,0,0s0,0,0,0h0l0,0,0,0,0,0s0,0,0,0,0,0,0,0h0a2.07,2.07,0,0,1,0-.24l.17-1.26a231.55,231.55,0,0,1,7-30.86c3.68-13,8.64-28.25,14.31-45.29s12.05-36,18.37-57.3a612.39,612.39,0,0,0,17.22-72.54l.86-5.15.78-5.33.75-5.33.67-5.51.64-5.53.53-5.69.5-5.72.4-6.07c.33-4.7.45-9.22.57-13.79s.13-9.13.07-13.69-.23-9.12-.46-13.68-.6-9.1-1-13.64a307.43,307.43,0,0,0-99.84-201c-1.85-1.7-3.7-3.41-5.6-5.06l-5.73-4.92c-3.82-3.29-7.8-6.38-11.76-9.5s-8.06-6-12.14-9l-3.15-2.19-3-2.05c-1.81-1.23-3.64-2.48-5.43-3.62a427.14,427.14,0,0,0-42.6-24.4c-13.93-7-27.47-12.86-40.71-18.09s-26.1-9.73-38.66-13.75l-9.34-2.91c-3.07-.92-6.19-1.88-9.22-2.74s-6.1-1.77-9.09-2.59l-4.51-1.25-4.2-1.11c-5.59-1.47-11.17-3-16.77-4.4l-16.83-4.16a1280.63,1280.63,0,0,0-274.51-35.07l112.25,193a37.31,37.31,0,0,1,8.28,3.26,15.48,15.48,0,0,1,1.42.82c.41.25.75.48,1,.68a6.29,6.29,0,0,1,.61.46l.2.16a1.69,1.69,0,0,1-.19-.18,6,6,0,0,1-.52-.55,11.1,11.1,0,0,1-.78-.94,12.59,12.59,0,0,1-1-1.32,37.59,37.59,0,0,1-4.17-7.86L754.2,205.28a250.38,250.38,0,0,0-62.61-62.67A262.75,262.75,0,0,0,655.8,121.7a270.46,270.46,0,0,0-36.2-14.31,286.21,286.21,0,0,0-70.83-12.72A297.48,297.48,0,0,0,480.45,99a290.24,290.24,0,0,0-33.65,8.12c-2.78.81-5.59,1.77-8.38,2.7l-4.18,1.43-4.2,1.55-4.17,1.58-2.06.8L422,116,414.79,119l-7.17,3.17c-2.37,1.07-4.62,2.23-6.92,3.36L393.84,129l-3.41,1.77c-1.12.59-2.19,1.21-3.29,1.82-4.35,2.46-8.69,5-13,7.51Q368,144,361.91,148a383.47,383.47,0,0,0-43.07,33.82q-4.72,4.35-9.38,8.75c-3,2.91-5.87,5.83-8.78,8.77l-2.18,2.21-2.05,2.18-4.1,4.38-4.07,4.4-3.84,4.35c-5.22,5.85-9.94,11.59-14.66,17.37L263,242.84c-2.23,2.85-4.29,5.64-6.43,8.47s-4.14,5.6-6.15,8.38l-3,4.17c-1,1.39-1.92,2.73-2.88,4.1l-2.85,4.1c-1,1.36-1.89,2.72-2.86,4.16-1.92,2.84-3.84,5.69-5.74,8.61-3.81,5.78-7.57,11.78-11.3,17.85s-7.38,12.38-11,18.88c-7.19,12.93-14.13,26.61-20.59,41.32l-2.4,5.54-2.35,5.67-1.16,2.84-1.14,2.91L181,385.67c-.74,2-1.45,4-2.17,6s-1.44,4-2.12,6.06l-2.36,7.13c-.82,2.55-1.53,5-2.28,7.47-3,9.92-5.46,20-7.63,30.07s-3.81,20.31-5,30.56a317.12,317.12,0,0,0-1.33,61.59A298.19,298.19,0,0,0,194,655.91a310.41,310.41,0,0,0,37.69,54.26,340.56,340.56,0,0,0,48.22,45.65c4.36,3.45,8.88,6.69,13.38,10l3.39,2.42,1.73,1.22,1.91,1.28,7.26,4.79c7.84,5,15.65,9.73,23.36,14a480,480,0,0,0,45.28,22.12c14.74,6.3,29.13,11.68,43.2,16.43a806.31,806.31,0,0,0,80.66,22.2c3.22.73,6.44,1.45,9.6,2.11l9.15,1.93,16.87,3.45c11.24,2.31,22.48,4.63,33.74,6.81s22.51,4.48,33.79,6.6l33.83,6.38Q704.77,890,772.78,900.79c11.34,1.76,22.67,3.61,34,5.29l34.05,5.08L874.93,916c11.36,1.63,22.75,3.07,34.12,4.61q68.25,9,136.73,16.31l11,1.13,0,0h0l-.25.39-.38.6-3.07,4.81-1.56,2.46-1.69,2.76-3.36,5.54-3.34,5.77c-2.21,3.78-4.41,7.9-6.58,11.91l-.81,1.52-.81,1.58-1.62,3.17c-1.07,2.14-2.14,4.19-3.2,6.41l-3.15,6.69c-.52,1.13-1,2.21-1.55,3.38l-1.54,3.53-3,7.1-2.94,7.5-1.44,3.76-1.41,4-2.74,8c-.89,2.81-1.75,5.66-2.59,8.5l-1.25,4.27-1.19,4.54c-.77,3-1.52,6-2.24,9.13q-1,4.86-2,9.73c-.31,1.65-.63,3.2-.91,4.94l-.8,5.19-.74,5.21c-.24,1.75-.48,3.43-.65,5.32q-.57,5.55-1,11.1l-.19,2.79-.12,3-.18,5.88-.08,5.89c0,1,0,2,0,3l.09,3.1c.14,4.14.33,8.26.62,12.41a243,243,0,0,0,10.27,52.81,236.57,236.57,0,0,0,23.45,51.14c1.19,2,2.44,3.87,3.7,5.78s2.54,3.77,3.83,5.63,2.62,3.72,4,5.56,2.67,3.47,4,5.21q4.08,5.12,8.34,10.08c3,3.37,6.19,6.75,9.37,10a243.69,243.69,0,0,0,39,31.86,276.23,276.23,0,0,0,35.72,19.82c10.91,5,20.76,8.87,29.43,12s16.19,5.43,22.58,7.4l17.6,5.29,17.44,5.07q17.46,5,35,9.66,35.09,9.35,70.5,17.43l6.22,1.43,8.4-11.61h0a.41.41,0,0,1,.34.14v0h0l-.17-.08-.77-.34-1.55-.69-3.1-1.39c-8.21-3.8-16.47-7.49-24.63-11.4-16.39-7.67-32.6-15.74-48.75-23.91a1758.86,1758.86,0,0,1-186.87-110.41Z"/><path class="b" d="M972,1393.17c-.38-3.5,5-.77,7.34-1.29,5.9,5.3,13,11,10.53,13.26Z"/><path class="b" d="M1679.82,1407.13a362.93,362.93,0,0,1,25.41-38.85c3.5-4.75,7-9.36,10.81-14.94,1.93-2.78,4-5.81,6.14-9.21l.42-.64.1-.17,0-.13.06-.28c.09-.36.18-.73.28-1.11.18-.75.37-1.53.53-2.32.35-1.58.67-3.25,1-5a78.16,78.16,0,0,0,1.86-14.41,28.35,28.35,0,0,0-.71-7.47c-.89-3.64-2.18-5.49-2.8-11.43a164.41,164.41,0,0,0-2-29.83,165.28,165.28,0,0,0-23.1-60.83,172.43,172.43,0,0,0-17.79-23.35,189.17,189.17,0,0,0-19.9-19c-3.53-2.91-7.16-5.71-10.94-8.41-1.89-1.35-3.8-2.69-5.77-4l-3-2c-.47-.33-1-.64-1.58-1l-1.64-.94-13.1-7.44-3.27-1.86-1.63-.92-.83-.46-.94-.42-7.57-3.37q-7.59-3.35-15.26-6.54a39.64,39.64,0,0,0-4.16-1.42l-4.31-1.35-8.6-2.67-8.59-2.65-4.29-1.32-4.7-1-18.72-3.83-4.66-1c-1.56-.3-3.07-.67-4.71-.87l-9.66-1.41L1503,1110.7c-6.36-.94-12.62-2-18.89-2.92l-9.38-1.45c-3.11-.49-6.25-.94-9.3-1.5l-18.35-3.15-9.11-1.56c-3-.52-6-1.11-8.92-1.66-11.19-2.1-26.12-4.92-29.39-5.4l-17.43-3-33.93-5.8c2.93-2.08-6.13-4.11-13.53-6.26,2.38-5.36,10.73-7.23,22.13-7.5,6.55,1.42,13.11,2.68,19.61,4l19.45,3.86,9.67,1.86,17,3.36c6.73,1.32,13.38,2.7,20.15,4l20.47,3.66,10.23,1.84,10.32,1.65,20.65,3.3c6.88,1.09,13.88,2.05,20.81,3.08l10.41,1.52,5.21.76c1.72.27,3.34.66,5,1l20,4.11,5,1a38.39,38.39,0,0,1,4.83,1.16l9,2.83,18.1,5.67,1.13.36,1,.42,2,.85,4,1.7,7.92,3.46,7.86,3.51,2,.89a15.94,15.94,0,0,1,1.85.92l3.36,1.93,13.44,7.75,3.36,1.94c.54.33,1.14.64,1.65,1l1.52,1c1,.67,2,1.35,3,2s2,1.36,2.94,2.06c3.88,2.77,7.62,5.61,11.22,8.56a205.24,205.24,0,0,1,20.39,19,197,197,0,0,1,34.58,51l1.67,3.87.84,2,.42,1,.2.48.11.25,0,.12c.15,0,.07.06.12.09.53,1.31,1.09,2.6,1.59,3.92l1.45,4c.93,2.64,1.94,5.25,2.79,7.87s1.63,5.23,2.39,7.83a216.1,216.1,0,0,1,6.18,30,223.75,223.75,0,0,1,2,28.47c-3.9-2.45-6.6,1.65-9.27,9-1.37,3.68-2.71,8.17-4.3,13.17l-.6,1.9a8.23,8.23,0,0,1-.34,1l-.8,1.16-3.27,4.74-6.63,9.75c-8.89,13.1-17.84,26.34-25.18,35.8S1682.4,1408.94,1679.82,1407.13Z"/><path class="b" d="M1008.62,611.81c-7.23-3.22-26-5.19-24.6-9.54Q1005.92,605.89,1008.62,611.81Z"/><path class="b" d="M863.75,906.34c-5.49-.28-12.46-.85-19.93-1.66s-15.45-1.94-23-3.19-14.58-2.64-20.22-4.15-9.85-3.12-11.67-4.7c-7.69-.1-15.3-.17-23.15-.34s-15.92-.52-24.56-1.06-17.83-1.29-27.88-2.54-21-2.82-33.1-4.93c-3.83-3.11-8.11-6.26-9.37-9.54,7,0,15.11.11,24,.32s18.63.57,28.72,1.05c20.21.87,41.94,2.44,62.16,4.64s38.89,5.25,52.91,9.53S862.14,899.34,863.75,906.34Z"/><path class="b" d="M531.25,368.05a2.56,2.56,0,0,1-1.08-.4.6.6,0,0,1-.29-.53,1.27,1.27,0,0,1,.28-.65c.17-.2.39-.42.62-.65.92-.82,2.09-1.59.14-1.62.25-1.46,2-1.74,3.25-1.07l.47.26a4.51,4.51,0,0,1,.39.37,2.58,2.58,0,0,1,.57.87,3.36,3.36,0,0,1,.08,2.18c-.54.26-1.62-.17-2.69-.27S531,366.68,531.25,368.05Z"/><path class="b" d="M849.12,570.55c.5-1.64,1.44-2.73,3-2.89a6.07,6.07,0,0,1,2.73.48,10.7,10.7,0,0,1,1.66.83,14.46,14.46,0,0,1,1.85,1.23c-.69,1.59-1.61,2.61-3,2.79a5.09,5.09,0,0,1-2.52-.43,14.34,14.34,0,0,1-1.68-.79C850.5,571.44,849.9,571,849.12,570.55Z"/><path class="b" d="M1260.73,1167.13a125.36,125.36,0,0,0,26.72-2.67,83.41,83.41,0,0,0,8.25-2.15c2.36-.75,4.41-1.45,6.31-2.15a114,114,0,0,1,11.29-3.76,154.31,154.31,0,0,1,17-3.1,335.57,335.57,0,0,0,58.15-32.84,257.49,257.49,0,0,0,51.79-48.32,220.07,220.07,0,0,0,20.09-29.56,204.63,204.63,0,0,0,14.6-32,199.32,199.32,0,0,0,8.49-33A188.19,188.19,0,0,0,1486,945.4a176.29,176.29,0,0,0-2.9-30.43,203.07,203.07,0,0,0-7.51-29.2,275.24,275.24,0,0,0-11.28-28.17c-4.33-9.27-9.21-18.41-14.54-27.57a301.29,301.29,0,0,0-61.57-74.32,279.26,279.26,0,0,0-26.09-20.31c-2.27-1.59-4.54-3.18-6.84-4.74l-7-4.48-7.07-4.43c-2.44-1.54-4.58-2.67-6.83-4-8.26-4.78-16.58-9-24.92-13.17a515.06,515.06,0,0,0-49.84-21c-32.88-12-64.7-20.8-94.28-28.94l-21.8-6-21.41-6-21.2-6-20.94-6c-32-9.23-64.45-18.82-95.38-28.94S924.3,581,898.37,569.82c12.72-.75,28.88,1.5,47.09,5.62S984,585.5,1005,592.12s42.7,14,63.69,21,41.24,13.78,59.29,19.21c7.29,1.57,13.91,2.63,19.91,3.41,3,.38,5.83.67,8.57.89s5.36.35,7.84.42l36.53,10.67c6.11,1.75,12.4,3.67,18.56,5.49l9.38,2.88,4.66,1.43,4.72,1.51,9.4,3,9.46,3.2,4.71,1.6,4.75,1.71,9.46,3.42,9.51,3.67,4.72,1.84,4.76,2,9.47,4,9.47,4.3,4.71,2.15c1.57.72,3.15,1.55,4.72,2.31l9.38,4.69c3.12,1.59,6.24,3.35,9.33,5s6.66,3.61,10.34,5.91c7.24,4.41,14.42,8.85,21.28,13.7,3.44,2.4,6.91,4.77,10.25,7.27s6.64,5,9.83,7.71A306.33,306.33,0,0,1,1458.33,809a280.8,280.8,0,0,1,21.86,41.76c1.56,3.57,2.89,7.22,4.27,10.84s2.55,7.31,3.77,11c2.27,7.38,4.33,14.8,5.91,22.29a220.59,220.59,0,0,1,1,90.52c-1.62,7.39-3.41,14.76-5.76,22l-1.77,5.39c-.64,1.79-1.32,3.55-2,5.33-1.3,3.56-2.85,7-4.36,10.5a208.34,208.34,0,0,1-23.06,39.27,223.94,223.94,0,0,1-31.17,33.82,240.11,240.11,0,0,1-37.94,27.18,185.35,185.35,0,0,1-25.84,17.17,230.33,230.33,0,0,1-27.94,13.06c-19.38,7.63-40.18,13.57-64.28,18.57a100.84,100.84,0,0,1-10.41.2c-3-.11-5.38-.4-6.37-1-6-.42-5.68-2-3.27-3.91S1257.92,1168.78,1260.73,1167.13Z"/><path class="b" d="M1047,650.44a253.29,253.29,0,0,1-32.16-8.54c-10.49-3.66-18.38-7.62-16.52-10.5-19.86-2.5-39.31-13.72-64.41-20.89C915.43,602.45,896,594.3,875.79,586S834.59,569,813,560.23L812,666.48c27.36-8.29,56-15.68,85.71-21.53l22.46-4c1.87-.37,3.77-.62,5.67-.87l5.7-.79L943,637.72c7.61-1.21,15.34-1.77,23.07-2.58L977.68,634c3.88-.31,7.78-.47,11.68-.72l11.71-.68,5.86-.34,5.88-.11c7.85-.11,15.7-.3,23.56-.35l23.6.6c3.94,0,7.87.4,11.79.65l11.78.81a632.39,632.39,0,0,1,92.58,14.23c1.29,1.8,1.21,2.91.23,3.58a5.55,5.55,0,0,1-2.07.71,21.8,21.8,0,0,1-3.09.32c-4.63.2-11-.4-15.31-.09l-6.12-1.32-3-.62-3-.47q-6-.93-11.92-1.7t-11.64-1.43c-3.85-.37-7.67-.54-11.44-.77l-11.22-.56-5.54-.24c-1.85,0-3.69,0-5.52,0l-21.78.17c-7.21.27-14.4.68-21.62.91s-14.47.76-21.83,1.07c-3.68.17-7.39.31-11.13.4-1.88,0-3.76.16-5.64.26l-5.7.28q-5.75.25-11.63.35l-6,.05c-2,0-4,.14-6,.18q-9.47,2-19.14,3.65c-3.23.48-6.44,1.22-9.68,1.82s-6.5,1.22-9.77,1.79-6.55,1.11-9.86,1.63-6.56,1.27-9.87,1.87-6.61,1.2-9.94,1.77l-5,.84c-1.67.29-3.36.51-5,.88-26.64,5-53.59,10.55-79.91,17.13l1.19-134.26c33.08,15.15,65.49,29.71,96.06,41.26,14.65,8.09,36.37,17.73,61.25,27.13s52.87,18.63,79.91,26.17C1060,644,1053.07,649.14,1047,650.44Z"/><path class="b" d="M1051.51,610.69l0-3.88c2.69-.18,5.38-.34,8.06-.46l4-.17c1.34-.06,2.68,0,4,0q8,.11,16,.44l7.94.37,2,.1,2,.18,3.94.39,15.67,1.61,7.79.8,7.74,1.1c5.15.71,10.29,1.39,15.42,2l3.85.44,1.92.22,1.91.28q3.82.55,7.65,1c5.11.65,10.22,1.21,15.35,1.64-4.08,2.09-12.3,2.35-21.14,2.32-4.4-.1-9,.1-13.31.3a89.82,89.82,0,0,0-11.57,1.14l-5.68-1-2.79-.47c-.92-.14-1.85-.23-2.76-.35-3.67-.43-7.24-.83-10.74-1.2l-10.26-1.08-5-.53-4.9-.36c-6.47-.48-12.72-1.06-18.86-1.9l-9.15-1.34C1057.58,611.87,1054.55,611.34,1051.51,610.69Z"/><path class="b" d="M1189.49,654.77c-.54-1.71,1.84-2.28,5.89-2.12a71.64,71.64,0,0,1,7.17.73c2.68.47,5.59,1.15,8.6,1.87,6,1.47,12.42,3.27,17.89,4.94s9.91,3.63,12.27,4.69a71,71,0,0,1-12.48-1.79c-4.16-.77-8.31-1.83-12.53-3s-8.51-2.33-12.94-3.38A103.61,103.61,0,0,0,1189.49,654.77Z"/><path class="b" d="M1062.06,1295.43c-.75,1.8-2.85,4.76-5.83,8.22a103,103,0,0,1-11.67,11.43c-9.42,7.92-21.57,15.56-33.8,18.16-10.49,8.67-22.1,17.2-34.56,26.31s-25.76,18.89-39.37,29.94c-3.39,2.81-6.84,5.51-10.24,8.56l-5.13,4.49c-1.72,1.5-3.45,3-5.13,4.64l-5.11,4.82-2.56,2.44-1.28,1.22-1.32,1.33c-1.75,1.78-3.54,3.55-5.26,5.39s-3.45,3.68-5.14,5.57a255.59,255.59,0,0,0-35.73,51c-.31-2-1.89-1.25-4.1,1.31a56,56,0,0,0-3.65,5.06c-1.33,2-2.65,4.43-4,7s-2.63,5.28-3.88,8-2.32,5.54-3.32,8.14a83.2,83.2,0,0,0-3.79,12.76c2.5-.64,4.07-7.2,5.68-12.61a34,34,0,0,1,2.33-6.35c.78-1.22,1.51-1.27,2.25.7a302.6,302.6,0,0,0-13.36,40.45,227.76,227.76,0,0,0-6.37,41.88,178.15,178.15,0,0,0,2.46,40.32,140.18,140.18,0,0,0,10.56,34c-.6,1.39-1.76-.12-3-2s-2.33-4.12-3.18-4c-1.22,1.65,3.49,13.89,7.45,22.57-.91-.31-3.25-4.5-5.86-10.22-1.19-2.86-2.52-6.08-3.65-9.42-.55-1.68-1.09-3.38-1.59-5.06s-1-3.35-1.36-5c-.76-3.24-1.48-6.24-1.81-8.72a37.78,37.78,0,0,1-.52-5.47c.06-2.15.93-.86,3.19,6.11-.67-3.43-1.29-6.13-1.89-8.49s-1-4.38-1.51-6.43a66.55,66.55,0,0,1-1.29-6.62c-.19-1.24-.37-2.59-.53-4.08s-.22-3.11-.3-4.94c0,1.8-.06,3.34-.09,4.67s-.06,2.44-.12,3.36a11.21,11.21,0,0,1-.69,3.63c-.62,1.32-1.5.85-2.24,1s-1.37.83-1.22,4.62c0,1,.11,2.09.25,3.46s.32,3,.67,4.83.75,4,1.26,6.43,1.3,5.15,2.13,8.2c-1.09-.64-2.87-6.52-4.08-12.27-.33-1.43-.66-2.85-1-4.18s-.53-2.55-.79-3.6c-.52-2.1-1-3.47-1.57-3.44a37.19,37.19,0,0,1-.06-4.79c.06-1.42.17-2.66.31-3.78a26.41,26.41,0,0,1,1.26-5.53c.52-1.56,1.08-3,1.6-4.55.26-.79.51-1.63.75-2.55s.5-1.91.73-3c-.8-5.85-.92-16,.13-27.31a230.84,230.84,0,0,1,6-34.12c1.3-5.3,2.71-10.13,3.88-14.35s2.22-7.74,2.91-10.3c1.32-5.18.91-6.83-2.5-2.4,1.71-7.26,5.66-16,10.94-25a231.47,231.47,0,0,1,18.92-27c7-8.74,14.27-17,20.66-24.48s11.91-14.28,15.18-20.42l2.89-2.74,1.43-1.35,1.37-1.23,5.39-4.84,5.24-4.72,5.16-4.41,5-4.35c1.66-1.45,3.32-2.74,5-4.1s3.26-2.7,4.87-4,3.2-2.66,4.79-3.9l9.41-7.51,9.26-7.14,2.31-1.79,2.29-1.72,4.6-3.43,4.62-3.47,4.62-3.34c12.4-9,25.22-17.85,39.28-26.89S1045.14,1305.48,1062.06,1295.43Z"/><path class="b" d="M854,1687.65c.86,1.78,1.82,3.49,2.68,5.21s1.67,3.4,2.49,4.92a75.05,75.05,0,0,1,3.59,7.75c.73,1.9.83,3.06,0,3s-2.67-1.19-5.56-4.22c-1.24-1.8-2.29-3.39-3.13-4.82s-1.46-2.74-1.95-3.86a12.94,12.94,0,0,1-1.37-5C850.78,1688.42,852.33,1688,854,1687.65Z"/><path class="b" d="M890.07,1726.06c4.44,3.78,7.14,6.28,9.36,8.4a69.28,69.28,0,0,1,4.84,5.35c1.29,1.55,2.42,3.06,4.1,4.76a48.41,48.41,0,0,0,7.39,5.91,19.15,19.15,0,0,1-4.43-1.73,49,49,0,0,1-5-2.94,66.19,66.19,0,0,1-9.57-8.13,43.14,43.14,0,0,1-3.73-4.22c-.53-.68-1-1.31-1.44-1.94s-.84-1.24-1.17-1.79C889.1,1727.54,888.86,1726.06,890.07,1726.06Z"/><path class="b" d="M972.55,1780.86c2.23-1.9,12,.93,24.63,3.24,3.15.64,6.49,1.07,9.89,1.59s6.9.79,10.38,1a94.66,94.66,0,0,0,19.79-.66c-.61,1.09-3.52,1.87-7.94,2.19-1.11.09-2.31.16-3.58.22s-2.64,0-4.06,0-2.92-.07-4.46-.12-3.14-.21-4.77-.34-3.31-.27-5-.47l-5.15-.67c-3.48-.42-7-1.12-10.44-1.71s-6.85-1.4-10.1-2.1S975.39,1781.59,972.55,1780.86Z"/><path class="b" d="M1080,1780.56c1.44-.61,2.76-1.21,4-1.8s2.46-1.26,3.65-1.89l7.47-3.94c1.37-.7,2.83-1.4,4.43-2.14s3.32-1.57,5.25-2.4l6.39-2.74,3.71-1.52,4.07-1.72c-2.88,2.83-7.43,6-13.87,9.14A126.69,126.69,0,0,1,1080,1780.56Z"/><path class="b" d="M1018.17,1292.93c-17.72-2.28-28.52-5.68-32.5-10.11C995.15,1286.37,1016.88,1288.05,1018.17,1292.93Z"/><path class="b" d="M1043.11,1547.51c5.73-3.88,11.72-7.87,18.76-12l2.54-1.57,2.73-1.59q2.73-1.61,5.43-3.24c1.93-1.1,3.86-2.22,5.76-3.34l2.87-1.71,3-1.74,6-3.55q3.15-1.83,6.24-3.69l6.34-3.83c2.16-1.31,4.21-2.61,6.38-4,4.44-2.75,8.59-5.5,13.06-8.48,2.2-1.48,4.34-3,6.49-4.49s4.41-3.13,6.55-4.73l17-8.62,9-4.61,9.34-4.87,4.74-2.47,4.88-2.63,4.91-2.66c1.64-.88,3.28-1.75,5-2.72l20.06-11.53c6.8-3.8,13.36-8,20-12.19l10-6.31,5-3.17,4.91-3.33,19.65-13.5c3.31-2.23,6.46-4.66,9.66-7l9.58-7.18,9.55-7.24c3.16-2.44,6.2-5,9.3-7.52,6.16-5.06,12.33-10.11,18.38-15.25q8.9-7.93,17.63-15.91l4.36-4,2.17-2,2.1-2.06,8.34-8.27,8.24-8.27,4.07-4.14c1.36-1.38,2.63-2.83,3.94-4.24q7.8-8.52,15.34-17l3.74-4.25,3.59-4.36,7-8.7q3.47-4.35,6.88-8.67l3.38-4.31,3.2-4.42q5.51-5.34,10.86-11.16c1.79-1.93,3.57-3.9,5.34-5.89l2.64-3c.87-1,1.7-2.07,2.55-3.12,3.37-4.19,6.7-8.49,10-12.84l5-6.57c1.64-2.21,3.31-4.4,4.85-6.69l9.37-13.64,4.69-6.81c1.55-2.27,3.16-4.49,4.62-6.81,6-9.19,12.09-18.14,18.26-26.76q5.32-7.79,10.58-15.66c3.47-5.26,7.07-10.47,10.29-15.93s6.56-10.84,9.81-16.3c1.61-2.73,3.26-5.45,4.83-8.22l4.56-8.39q4.54-8.41,9-16.88c.74-1.44,1.48-2.78,2.23-4.29l2.26-4.61c1.49-3.08,3-6.14,4.45-9.26,5.83-12.41,11.13-25.12,16.09-38s9.35-26.19,13.37-39.66,7.44-27.34,10.42-41.42,5.3-28.58,7.06-43.34,2.78-29.9,3.06-45.33a440.15,440.15,0,0,0-1.8-47.3,403,403,0,0,0-7.86-48.88,361.54,361.54,0,0,0-15.2-49.4q-2.47-6.14-5-12.22c-1.79-4-3.73-8.08-5.63-12.08s-4-8-6.12-11.91-4.23-7.86-6.62-11.69a307.38,307.38,0,0,0-31.33-43.65c-2.94-3.35-5.83-6.73-8.87-10s-6.18-6.38-9.3-9.51c-.79-.78-1.56-1.58-2.35-2.34l-2.4-2.22-4.81-4.4-4.84-4.36c-1.62-1.41-3.27-2.73-4.91-4.1a326.73,326.73,0,0,0-40.08-28.51,367.19,367.19,0,0,0-40.1-21.11l-5.61-3c-1.87-1-3.75-2-5.59-2.86l-11.13-5.4-11-5c-3.67-1.62-7.29-3.09-10.95-4.63a468.13,468.13,0,0,0-45.26-13l-5.53-1.28c-1.84-.43-3.68-.84-5.49-1.19l-10.93-2.16-22-4.24-22.39-3.5-11.3-1.79c-3.8-.52-7.63-1-11.47-1.46q-11.52-1.45-23.26-3.05c-7.87-.86-15.84-1.66-23.91-2.6-4.15-.46-8.31-1-12.5-1.42l-12.67-1.07-12.78-1.12c-4.27-.37-8.56-.84-12.89-1l-26.13-1.58c-4.39-.35-8.8-.38-13.22-.54l-13.31-.41c-4.45-.13-8.91-.33-13.38-.41H1053l-13.53,0h-6.78l-6.79.21-27.29.83-27.39,1.73-6.86.44c-2.29.15-4.56.43-6.85.64l-13.7,1.35-13.71,1.35c-4.56.51-9.1,1.19-13.66,1.78l-13.64,1.84c-4.54.62-9.09,1.18-13.59,2l-27,4.66a948.68,948.68,0,0,0-104.14,26.3L475.3,601.21l281,112.24.56.23c-.19,2.1-2.21,4,8.84,7.38C822.1,745.14,877,769.33,933.58,791.91c28.29,11.29,57,22.17,86.48,32.36q11.06,3.84,22.27,7.52t22.6,7.24q11.38,3.56,23,6.92l11.57,3.34,11.43,3.19c14.73,4,28.37,6.71,41.07,9.93s24.39,7,34.52,12.87a212.78,212.78,0,0,1,36.1,9.87l4.17,1.62,2.11.8,2,.87c1.27.55,2.81,1.25,3.62,1.52l.7.25a2,2,0,0,1,.41.15c.26.11.54.21.82.3a15.07,15.07,0,0,0,1.76.46c.59.17,1.15.4,1.73.61q1.76.62,3.48,1.38c2.88,3.42,6,7.2,9,11.51a79.25,79.25,0,0,1,8.24,14.55,56.63,56.63,0,0,1,4.33,17.28,92.93,92.93,0,0,1-.28,16.87,91.45,91.45,0,0,0-7.63,5.92c-2.3,2-4.46,4-6.76,6a55.68,55.68,0,0,1-7.45,5.55,33.07,33.07,0,0,1-9.1,3.89,59,59,0,0,1-6.46,1.23c-1.1.17-2.21.24-3.33.35l-1.68.15-1.69.06c-2.26.12-4.55.06-6.86,0l-3.48-.22c-.59-.06-1.12-.16-1.69-.21l-3-.34c-17.8-2.48-38.33-8.07-60.73-16.65-11.21-4.31-22.88-9.32-35-14.91-3.06-1.38-6-2.77-8.88-4.16-1.5-.7-2.82-1.38-4.24-2.06s-2.84-1.38-4.13-2c-2.64-1.36-5.35-2.71-7.78-4.05-1.22-.67-2.55-1.34-3.69-2l-3.5-2c-1.22-.66-2.21-1.31-3.32-2l-1.63-1-.82-.49-.74-.48-3-1.91-.72-.45-.39-.29-.8-.57c-1.13-.67-2.12-1.54-3.22-2.27-.54-.37-1-.84-1.53-1.24s-1.07-.78-1.55-1.23a58.12,58.12,0,0,1-5.66-5.55,36.89,36.89,0,0,1-2.47-3.13l-.6-.8a4.62,4.62,0,0,1-.57-.82c-.35-.56-.72-1.12-1.1-1.67a46.08,46.08,0,0,1-6.38-17.63,59.58,59.58,0,0,1-.63-9.44c0-1.58.09-3.16.2-4.74,0-.79.18-1.57.21-2.36,0-.29.12-1,.2-1.7l.26-2.05c1.5-11.16,4.6-24.7,8.82-39.54s9.5-31,15.17-48.31,11.75-35.66,17.48-55.44a547,547,0,0,0,14.89-64.37c1.88-11.65,3.34-23.82,4.11-36.51a303.48,303.48,0,0,0-.36-42.57,257.15,257.15,0,0,0-19.38-80c-2-3.45-4-6.8-5.72-9.83a398.74,398.74,0,0,0-24-36.59,212.31,212.31,0,0,0-32.65-34.94,244.39,244.39,0,0,0-34-30.11l-4.82-3.48c-1.53-1.12-3.07-2.14-4.63-3.2l-4.72-3.17-4.8-3c-3.23-2.07-6.48-3.93-9.81-5.89s-6.66-3.76-10-5.54c-27.09-14.36-56-24.9-83.75-32.71-6.93-1.93-13.84-3.76-20.6-5.38-1.73-.44-3.33-.8-4.94-1.17l-4.84-1.1-9.63-2.17c-6.41-1.36-12.77-2.64-19-3.9l-18.55-3.38c-24.32-4.16-46.83-6.89-65.38-8.51-20.34-6.62-48.63-11.17-79.7-14.35s-64.92-4.88-96.75-7.19l-.49,0,95.31,126.11a20.66,20.66,0,0,1,4.73-4.49,43.15,43.15,0,0,1,5.91-3.44,30.34,30.34,0,0,0,4.72-2.62,6.1,6.1,0,0,0,2.31-3.85L706.4,238.35,705,236.67a186.54,186.54,0,0,0-28.32-32.27A193.44,193.44,0,0,0,643,180a206.57,206.57,0,0,0-35.9-16.22,218.73,218.73,0,0,0-36.28-9,236.1,236.1,0,0,0-71.54-.33A239,239,0,0,0,464,162.39c-5.85,1.78-11.7,3.85-17.52,6.14l-1.09.42-1,.41-1.94.83-3.87,1.68c-2.58,1.13-5.16,2.26-7.72,3.43a297.43,297.43,0,0,0-54.87,34.06,390.45,390.45,0,0,0-43.61,39.85c-13,13.65-24.46,27.43-35.19,41-2.65,3.38-5.36,6.79-7.89,10.13l-3.88,5.05-3.91,5.21q-7.81,10.5-15.56,21.69c-4.2,6-8.33,12.33-12.43,18.74s-8.13,13.11-12.07,20-7.79,14.06-11.46,21.6c-.93,1.84-1.83,3.76-2.73,5.68s-1.81,3.81-2.68,5.79l-2.6,5.93c-.44,1-.86,2-1.28,3l-.62,1.53-.72,1.8L218,420.09l-1.32,3.58-2.57,7.22c-1.61,4.86-3.22,9.74-4.61,14.69s-2.7,9.95-3.93,15-2.25,10.12-3.11,15.24-1.64,10.27-2.31,15.46-1.12,10.39-1.38,15.63-.42,10.49-.47,15.76.16,10.55.56,15.82c.24,1.93.46,3.86.73,5.78l.9,5.74c.57,3.82,1.34,7.6,2.09,11.36,1.54,7.53,3.46,14.91,5.51,22.16a272.13,272.13,0,0,0,29.74,65.94c.77,1.29,1.59,2.56,2.43,3.8l2.51,3.76c1.71,2.48,3.34,5,5.14,7.42l5.43,7.22c.92,1.19,1.81,2.41,2.77,3.57l2.89,3.48q2.89,3.46,5.85,6.91t6.14,6.65c4.08,4.46,8.49,8.61,12.86,12.82,2.18,2.1,4.49,4.07,6.76,6.09s4.55,4,6.92,5.93,4.74,3.82,7.14,5.71c1.2.94,2.39,1.89,3.61,2.81l3.69,2.71q3.71,2.7,7.46,5.34c2.4,1.71,5.35,3.62,8.11,5.42l3.62,2.33c1.13.73,2.24,1.41,3.36,2.07l6.73,4c2.26,1.37,4.48,2.57,6.73,3.81l6.75,3.67,6.73,3.4c2.24,1.12,4.51,2.27,6.74,3.28,4.47,2.07,9,4.19,13.47,6l6.74,2.83,6.71,2.61c.8-.48.88-1.44,1.71-1.9s2.41-.39,6.14,1a260.26,260.26,0,0,0,39.43,14c14.36,4,29.62,7.3,44.93,10.21,7.65,1.44,15.35,2.84,23,4.16l22.12,3.89a394,394,0,0,1,39.89,9.13c10.54,1,20.93,1.79,31.31,2.56s20.78,1.35,31.28,2l32,2c10.9.68,22,1.51,33.61,2.34,46.24,3.53,98.79,9.2,166.73,20.52a223.54,223.54,0,0,1,23.41-.94c8.62,0,18,.29,27.91.85,5,.28,10.06.62,15.27,1s10.54.75,15.95,1.19c10.83.85,22,2,33.35,3l34.28,3.23,34,3,4.06.34,2.6.16,5.15.28c3.42.18,6.79.34,10.12.46l4.94.16,2.45.07c.76,0,1.34,0,2,0,2.61,0,5.19-.09,7.73-.19l11.39,1.93,12.33,2c8.36,1.46,17,2.54,24.59,5.38a33.4,33.4,0,0,1,10.17,5.82,23.89,23.89,0,0,1,6.5,8.88,22.47,22.47,0,0,1,1.69,10.36,26.08,26.08,0,0,1-2.59,9.62,44.86,44.86,0,0,1-1.77,12.19,84.44,84.44,0,0,1-4.24,11.63,219.38,219.38,0,0,1-12.38,23.16,39.59,39.59,0,0,1-7.42,5.24,35.81,35.81,0,0,0-7.36,5.51c.26,2.84-1.38,6.71-4.14,11.5-1.67,1.38-3.3,2.81-4.88,4.31l-.29.28-.14.14-.07.08-.16.21c-.48.64-1,1.29-1.45,1.93l-2.9,3.93c-.48.62-1,1.42-1.52,2.14l-1.55,2.23c-1,1.51-2.07,3-3.1,4.55-2,3.17-4.13,6.28-6.16,9.7l-3.07,5.11c-1,1.78-2,3.58-3,5.38l-1.51,2.73c-.5.94-1,1.89-1.49,2.85-1,1.91-2,3.84-3,5.78l-2.89,6.11c-.48,1-.95,2.07-1.43,3.1l-1.4,3.26a231,231,0,0,0-10.19,28.65,201.72,201.72,0,0,0-6.74,35.06,179.56,179.56,0,0,0,.54,42.25,171.19,171.19,0,0,0,12.88,46.07c.84,1.88,1.7,3.74,2.58,5.6s1.77,3.72,2.76,5.49c2,3.57,4,7.11,6.09,10.6s4.42,6.64,6.74,9.89c.58.81,1.16,1.64,1.75,2.42l1.79,2.27q1.82,2.27,3.66,4.49c1.24,1.49,2.46,3,3.76,4.43s2.74,3,4.13,4.42,2.81,3,4.23,4.28,2.86,2.7,4.31,4l2.18,2c.73.65,1.45,1.24,2.17,1.85,1.46,1.22,2.92,2.43,4.4,3.62s2.93,2.29,4.39,3.37l4.41,3.21a202.45,202.45,0,0,0,33.35,18.81,269.45,269.45,0,0,0,28.11,10.68c8.38,2.69,15.81,4.74,22.16,6.41,6.51,1.7,13,3.42,19.33,5s12.67,3.1,18.88,4.49,12.31,2.78,18.31,4c2.38,1.92,5.84,3.42,9.87,4.71s8.65,2.3,13.29,3.36,9.36,2.07,13.58,3.36a38.51,38.51,0,0,1,10.78,4.75l15.2,3,15.31,2.82,1,.17.48.09.15,0h.1l.73.07,1.49.14,3,.29c2,.21,4,.34,6,.51,8,.65,16.51,1.21,25.47,1.74l13.74.75c4.68.26,9.47.42,14.3.82a70.77,70.77,0,0,1,14.35,2.53c4.63,1.41,9.13,3.63,12.33,7.1a17.63,17.63,0,0,1,4.73,12.48,29.84,29.84,0,0,1-3.68,12.8,60.33,60.33,0,0,1-3.45,5.89c-1.23,1.89-2.67,3.9-3.79,5.43-2.38,3.29-4.85,6.58-7.4,9.83-5.1,6.51-10.49,12.9-16,18.76-2.75,2.93-5.54,5.73-8.32,8.34l-4.38,4.07c-1.56,1.45-3.14,2.84-4.69,4.19-7.84-.94-14.53-1-20.51-2.62a25.87,25.87,0,0,1-15.31-11.14,45.86,45.86,0,0,1-3.26-5.81c-1.49-.94-3.06-1.41-4.45-2.33a7.71,7.71,0,0,1-3.23-4.78,20.53,20.53,0,0,0-.91-4.76,21.91,21.91,0,0,1-.9-3.69,19.88,19.88,0,0,1-1.76-6,12.72,12.72,0,0,1,0-2.53c.06-.36,0-.74.38-1l.18-.12s.08,0,0,0l-.67-.35-1.33-.71-5.32-2.83c-28.48-15.07-57.75-29.38-81-36.07l-10.13.07c-3.36,0-6.68,0-9.83.15-6.29.23-11.94.89-15.86,2.4-7.83,3-9.06,9.94,4.91,24.91-4.33,5.29-5.13,12.77-5.55,20.26s-.43,14.93-3.39,20.16-8.87,8.22-21.06,6.54a87.42,87.42,0,0,1-10.38-2.15c-3.88-1.07-8.19-2.46-13-4.23-2.41-.88-4.94-1.84-7.6-2.92s-5.42-2.29-8.33-3.59-6-2.69-9.14-4.2-6.48-3.18-9.94-4.93c-5.66.16-11.34,0-16.62,0a87.71,87.71,0,0,0-14.42.71c-8.44,1.36-14.07,5.06-14,14.83,5.75,5.58,10.55,10.94,15.15,16.23s9,10.51,13.83,16,10.22,11.07,16.75,17.14a258.05,258.05,0,0,0,24,19.49c-9.91-2.47-2.06,2.58-3,5.69,9.64,5.75,22.22,12,32.3,17.62s17.71,10.53,17.44,13.64c-12.44-6.63-22.46-11.25-31.05-14.87-4.31-1.8-8.28-3.29-12-4.62s-7.27-2.54-10.72-3.64l-10.25-3.22c-3.41-1.11-6.86-2.26-10.48-3.57s-7.43-2.75-11.51-4.51-8.44-3.82-13.22-6.26c-23.71-6.44-34.17-3.27-43.14.53s-16.53,8.27-34.39,3.41c-2.84-2.2-5-4-7-5.53s-3.6-2.91-5.38-4.2c-3.55-2.58-7.54-4.92-14.85-8.6-12.47,2.29,3.69,15.68-22.92,5.29,2.76,4.86,7.25,9,13.12,13.44s13.2,8.86,21.58,14.38c1.72,5.07,5.92,11,11.87,17.43,3,3.2,6.44,6.53,10.22,10s7.91,7,12.34,10.57c17.61,14.43,39.55,29.61,59.69,43.88l70.2,37.49c11.07,5.85,21.82,11.67,32.41,17.22,5.3,2.79,10.51,5.61,15.73,8.29l2.8,1.42,3.29,1.64,6.58,3.2c4.36,2.11,8.61,4.16,12.92,6.16a407.57,407.57,0,0,0,52.08,20.41,272.44,272.44,0,0,0,52.89,10.94,215.61,215.61,0,0,0,53.12-1,195.5,195.5,0,0,0,51.48-15l6.9-3.36c2.3-1.13,4.61-2.24,6.84-3.52s4.5-2.49,6.69-3.85,4.43-2.64,6.58-4.09a222.32,222.32,0,0,0,25-19,259.21,259.21,0,0,0,23-23.13q5.52-6.27,10.81-13c1.75-2.25,3.52-4.48,5.26-6.78s3.45-4.63,5.15-7c2.35.23,7-3.55,12.9-10.06,3-3.24,6.27-7.15,9.79-11.53l2.68-3.37a33.53,33.53,0,0,0,2.6-3.57c1.57-2.47,3.18-5,4.8-7.69,13-21.19,27-46.85,35.69-64.61,5.87-6.85,9.11-7.5,13-9.75s8.57-6.15,17.36-19.83c5.06-11.94,2.59-10.23-1.57-5.72s-10,11.9-12,11.85c7.5-15.31,20.89-40.06,34.47-63.66,6.8-11.81,13.66-23.36,19.91-33.4,3.13-5,6.1-9.66,8.83-13.77,1.15-3.51,2.06-6.47,3-8.88.15-11.06.62-24.2-.58-39.6a184,184,0,0,0-3.66-25c-1-4.46-2.2-9.09-3.74-13.74a126.18,126.18,0,0,0-5.28-14,136.55,136.55,0,0,0-14.51-26,142.39,142.39,0,0,0-17.67-20.45,146.9,146.9,0,0,0-19.08-15.48,154.22,154.22,0,0,0-20-11.56,65.63,65.63,0,0,0-5.84-5.86q-3.54-3-7.69-6.18t-9-6.68c-3.65-2.19-7.7-4.41-12-6.69q-3.21-1.71-6.65-3.45l-3.5-1.75a16.47,16.47,0,0,0-1.93-.81l-2-.77q-8.23-3.09-17.4-6.37l-4.65-1.64-1.18-.42-1.3-.32-2.62-.64-10.84-2.6c-7.44-1.71-15-3.7-23.59-4.94-2,2-7.07,3-13.36,3.65s-13.87.91-20.85,1.15l-16.63-2.29-8.1-1.16L1453,1121l-15.39-2.61c-2.52-.44-5-.87-7.51-1.33l-7.29-1.44-14.28-2.88-6.94-1.44-3.72-.83c-4.93-1.11-9.76-2.21-14.47-3.41-18.86-4.74-36.1-10.17-53.16-15.79-4.27-1.38-8.52-2.81-12.78-4.25l-12.86-4.3-13.06-4.32-6.65-2.17-6.67-2.12-10.32-3.32c-2.67-.87-4.56-1.51-5.46-1.71a1.84,1.84,0,0,0-.48-.06l0,.06-1.47,2.87-.85,1.59c-.27.52-.6,1.11-.79,1.5-1.74,3.5-3.63,7-5.69,10.44-1.58,2.91-3.24,5.71-5.09,8.53-6.43,10.26-11.62,16.41-15,19.79-.16.15-.2.21-.3.31l-.26.27-.56.55-.61.55-.32.28-.08.07c-6.37,5.64,8.66-7.69,7.11-6.31h0l0,0,0,0-.2.19a31,31,0,0,1-3.56,2.9c-.2.14-.25.19-.37.28l-.31.25-.65.48q-.67.48-1.47,1l-.89.56c-.29.17-.6.34-1,.51-1.66.88.92-.94,9.41-1.77l1.51-.09c.67-.07,1.33-.13,2-.17,1.32-.09,2.63-.11,3.91-.08l2.38,0c.8,0,1.61,0,2.41,0s1.59.08,2.38.14l.6,0,.72,0,1.43.07c1.91.1,3.79.29,5.66.54.86.14,2,.23,3.11.35s2.18.27,3.26.43,2.16.34,3.22.54l1.61.31,1.84.29q3.68.61,7.28,1.45l1.79.43c.57.16,1.32.28,2,.43l2,.45.25.06.12,0h0s0,0,0-.11a2.21,2.21,0,0,0,.14-.41c0-.08,0-.13.05-.23l.14-.36a6.18,6.18,0,0,0,.23-.73c.13-.31.28-.66.4-1,.17-.61.63-1.52.93-2.34,1.89-1.82,4-4.1,6.45-6.78l4-4.32,2.32-2.6,1.29-1.49.68-.78,1.58-2c2.13-2.67,4.23-5.38,6.42-8.08l6.94-8c4.74-5.32,9.74-10.62,14.41-16.19,9.46-11.06,18.5-22.65,26.74-34.38,2-2.93,4.12-5.87,6-8.83s3.91-5.92,5.77-8.93,3.71-6,5.52-9.08,3.48-6.14,5.24-9.23a336.74,336.74,0,0,0,17.87-38,271.23,271.23,0,0,0,18.6-79.07l.34-5,.16-5,.15-5,0-5c0-1.67,0-3.34-.08-5l-.28-5c-.14-3.33-.49-6.67-.8-10-.66-6.67-1.8-13.31-3.06-20q-1.1-5-2.32-10l-1.37-5-.69-2.48c-.24-.83-.53-1.64-.79-2.46-1.08-3.29-2.13-6.57-3.4-9.82-.62-1.63-1.2-3.26-1.86-4.88L1404,777c-1.34-3.23-2.94-6.36-4.44-9.52-.74-1.59-1.66-3.09-2.48-4.63s-1.68-3.08-2.57-4.59l-2.7-4.49-1.35-2.24c-.45-.75-1-1.44-1.45-2.17-2-2.85-3.89-5.77-6-8.49l-3.08-4.13c-1-1.36-2.18-2.62-3.26-3.94l-3.29-3.9-3.39-3.73c-1.12-1.26-2.28-2.44-3.45-3.62s-2.3-2.39-3.5-3.51c-2.4-2.23-4.78-4.48-7.21-6.57s-4.91-4.12-7.38-6.14l-3.78-2.85q-1.87-1.44-3.8-2.77a217,217,0,0,0-32.2-18.7c-5.72-2.63-11.52-5.13-17.64-7.37-3-1.15-6.17-2.2-9.29-3.26-.41-.12-.75-.28-1.2-.37l-1.34-.27-2.68-.55-5.34-1.08q-21.33-4.3-42.07-8.26-4.86-2.54-10.36-5l-2.77-1.21c-1-.28-2.14-.52-3.23-.78-2.17-.5-4.4-1-6.68-1.47-9.1-1.92-18.95-3.63-29.33-5.17s-21.3-2.93-32.54-4.2c-9.93-1.18-20.11-2.24-30.45-3.24s-20.78-1.91-31.24-2.83l-20.13-1.82c-12.24-1.18-24.21-2.5-35.28-4.62q-13.19-2.46-26.32-5.2l-26.23-5.73-13.1-2.9-13.1-3c-8.74-2-17.49-3.85-26.25-5.72q-26.28-5.68-52.94-9.94c-8.89-1.41-17.86-2.54-26.86-3.58s-18.09-1.81-27.26-2.31c-8.34-1.28-3.38,3.11-10.72,2.2-26.33-4.94-57-9.41-88.47-14.31l-23.74-3.68-23.72-3.9c-15.76-2.57-31.26-5.49-46.15-8.39-10.61-2.08-21-4.6-31.41-7.14l-7.76-1.93-3.87-1-3.44-.92c-4.52-1.2-8.92-2.45-13.26-3.69-17.35-5-33.29-10.09-48.12-14-17.27-4.57-29.77-8.39-39.36-10.45-1.15-.27-2.31-.5-3.48-.7l-.8-.15-.4-.08-.19,0c-.08,0-.05,0-.07.05a6.15,6.15,0,0,1-.33.6l-.05.08-.1,0-.22.06-.42.1-.88.24-.95.3-.93.22c-2.64.77-5.52,1.43-8.85,2.13-1.69-2-4.37-3.25-7.26-5a30.72,30.72,0,0,1-8.51-6.69,14.11,14.11,0,0,1-3.19-6.85,9.65,9.65,0,0,1,1.88-7.26c-.62-1.08-2-1.61-3-2.39a4,4,0,0,1-1.24-1.51,4,4,0,0,1-.2-1.11c0-.21,0-.44,0-.68s.1-.5.17-.77a6.7,6.7,0,0,1,.17-1,3.19,3.19,0,0,1,.36-.74,2.87,2.87,0,0,1,.94-.93,8.08,8.08,0,0,0,2.15-1.27c-4.67-1.15-4,.89-7.47-2-.08,2.52-.11,4.65-.11,6.57,0,.48,0,.95,0,1.4s.06.91.07,1.34c0,.87.17,1.72.22,2.54a20.32,20.32,0,0,0,1.26,4.84,17.24,17.24,0,0,0,2.91,4.86c-.16,2.13-1.45,3.35-.09,6.45l0,0c.39.45.86.87,1.25,1.3l.6.65.29.32.34.3a35.36,35.36,0,0,0,2.7,2.34,41.64,41.64,0,0,0,5.8,4,45.33,45.33,0,0,0,6.28,2.88,50.87,50.87,0,0,0,6.38,1.85c1.14.13,2.07.46,3.17.54.26,0,.51.08.75.14s.24.06.37.07.28,0,.31,0l.33-.22c0-.08.33.09.53.16l.69.27c4,1.4,8.39,2.92,13.26,4.5s10.36,3.17,16.16,4.81,12.17,3.26,18.84,4.92l20.16,4.91c7,1.67,14.18,3.35,21.5,5l11.14,2.47,5.64,1.21,5.83,1.22L604,565.43l12.25,2.46,12,2.24c7.89,1.43,15.58,2.75,23,3.89a346.08,346.08,0,0,0,41.28,4c11.47,2.57,5.79,6.29,14,9.08,13.54.16,25.83,2.81,38.73,5.77,6.45,1.5,13,3.12,20,4.61s14.31,2.74,22.23,3.65c11.15,1.27,21.63,1.16,32.48,1.06,5.42,0,10.93,0,16.66.21s11.67.7,18,1.52c51.06,6.86,82.39,17.18,141.65,24.61,5.83,2.92,13.93,5.1,22.82,7s18.58,3.46,27.64,4.8,17.47,2.69,23.78,4.2c1.58.38,3,.77,4.33,1.18.65.2,1.25.41,1.82.62l.42.16a2.55,2.55,0,0,0,.48.17l1.26.38c3.2,1,5.24,2,5.85,3.17a36.87,36.87,0,0,1-3.79.3c-.67,0-1.36,0-2.06,0l-2,0a42.26,42.26,0,0,1-5.86-.57c-4.14-.67-8.71-1.81-13.39-2.94-9.36-2.27-19.16-4.42-26.89-2.68,10,2.53,21.56,4.64,25,8-6.68.36-12.86.91-18.69,1.58s-11.32,1.4-16.61,2.23c-10.58,1.65-20.4,3.71-30.64,5.41s-20.92,3.31-33.24,4.25a339.5,339.5,0,0,1-43.05.1c-55.27-8.66-95.65-12.22-129.17-13L670.54,629.59l-61.06-12.44-31.19-6.45-7.86-1.61-7.52-1.56q-3.66-.76-7.24-1.57c-2.41-.52-4.82-1.05-7.18-1.6-19-4.35-37.4-9.25-54.33-14.94s-32.48-12.14-45.39-19.19l-4.71-2.66c-.4-.22-.77-.44-1.13-.67l-1.05-.65c-.42-.26-.85-.5-1.29-.73-1.09-.65-2.13-1.42-3.23-2.08-.28-.18-.56-.33-.82-.52l-.78-.57-1.58-1.1a85.57,85.57,0,0,1-11.75-10A70.43,70.43,0,0,1,402.5,510.9a85.74,85.74,0,0,1-.68-14.82,112.48,112.48,0,0,1,1.66-14.5c.19-1.19.48-2.36.68-3.55l.36-1.64.26-1.08c.1-.38.18-.75.3-1.13.83-3.05,1.71-6.13,2.72-9.22,3.9-7.14,8-14.17,12.43-21.28s9-14.3,13.93-21.83c2.48-3.77,5-7.59,7.74-11.59l4.12-6.09q2.07-3,4.18-6.09c5.62-8.11,11.47-16.27,17.78-24.26,4.76-2.42,9.59-5.58,14.48-8.65,2.43-1.67,4.89-3.1,7.32-4.8,1.22-.78,2.44-1.51,3.65-2.32s2.43-1.53,3.63-2.28a157,157,0,0,1,14.2-8.08,13.83,13.83,0,0,1,1.74-.84c.59-.26,1.16-.53,1.74-.81,1.31-.68,1.89-.89,2.77-1.29a48.29,48.29,0,0,1,5.55-2,57.49,57.49,0,0,1,12.63-2.31,46.64,46.64,0,0,1,10.93.55,21.66,21.66,0,0,1,5.76,1.84,6.32,6.32,0,0,1,1,.69,1.21,1.21,0,0,1,.21.59L591.05,222c-18.71,6.95-33.84,15.06-46.13,21.94-8.86,11.06-24.44,26.78-39.32,47.31a261.53,261.53,0,0,0-21,34.08,238.31,238.31,0,0,0-16,39l-27.22,88.58L542,461.39c20.52,1.72,39,5.43,49,8.71,2.6-2,7-3.18,12.5-3.67a110.1,110.1,0,0,1,19.15.51c7,.82,14.45,1.92,21.59,3.43,3.57.73,7.07,1.47,10.42,2.25s6.53,1.62,9.49,2.38c-.19,1.88-20.92,1.29-.53,3.84,4.73.81,7.17.74,9.07.44a31.34,31.34,0,0,1,5.77-.89c2.08,1,4.34,2,6.59,3s4.51,2.09,6.6,3.15c4.2,2.12,7.76,4.24,9.36,6.65a123.08,123.08,0,0,0,19.15,2.93,95.57,95.57,0,0,1,19.1,3.27c-5.3,1.49-9.3,3.6-20.2,2.43-6.42-.88-11.44-1.64-15.53-2.58-2.05-.46-3.87-.94-5.54-1.43s-3.17-.94-4.57-1.43c-5.64-1.95-9.73-4.12-16.51-5.83.13,3.28,8.5,5.36-5.51,4.39-2.6-4.5-10.38-5-18.86-5.56s-17.73-.84-23.56-5c9,.68,16.13,1,19.54-.39-19-1.25-41.66-1.93-58.2-1.65,5.14.33,12.2,1.5,4.72,1.64,8.45,1.31,16.81,2.78,25.12,4.15s16.54,2.92,24.71,4.5c16.34,3.09,32.45,6.26,48.35,9.76s31.61,7.05,47.15,10.94,30.93,7.89,46.19,12.2c2,.52,3.67,1,5.46,1.55l5.28,1.55q5.24,1.54,10.27,3.16c6.71,2.14,13.17,4.36,19.31,6.64A250.75,250.75,0,0,1,859.3,551l1.73.94,1.63.95,1.63.94,1.54.95,1.54.93,1.38.9c.32.21.64.38,1,.6s.64.46,1,.68a69.44,69.44,0,0,1,7.52,5.8,53.82,53.82,0,0,1,18.12,33.67,73.25,73.25,0,0,1,.68,10.08l0,1.29c0,.64,0,1.22-.06,1.89-.11,1.33-.15,2.61-.26,4s-.23,2.75-.4,4.2-.32,2.89-.53,4.4c-2.09,3-4,7.77-6,13.62s-4.34,12.84-6.94,19.91c-4.39,21.69-10.78,42.83-14.5,60.75s-5,32.82-.81,42.4c5.07-16.87,9.86-31.86,14.39-46.44s8.8-28.58,12.69-42.78a410,410,0,0,0,9.69-42.79c.25-1.74.59-3.56.78-5.27s.49-3.51.64-5.2c.1-.85.19-1.71.29-2.58s.13-1.68.2-2.53c.19-1.69.21-3.5.3-4.45,0-2.46.17-5,0-7.6,0-1.31-.16-2.63-.2-4-.07-.67-.14-1.35-.22-2l-.08-1-.16-1c1-4.87,1.89-9.54,3.15-13.68a32.16,32.16,0,0,1,2.35-5.79,17.34,17.34,0,0,1,3.55-4.7,60,60,0,0,1,6.43,15.27A71.5,71.5,0,0,1,923.54,600l0,1.06,0,1.06,0,2.13c0,1.42-.15,2.84-.21,4.25l-.2,2.17c-.07.87-.14,1.74-.27,2.65-.22,1.81-.39,3.59-.7,5.47a236.1,236.1,0,0,1-4.82,23.48c-4.2,16.45-10.08,34.1-16.25,52.54s-12.6,37.77-17.9,58c-.76,2.92-1.31,5.43-1.76,7.74s-.78,4.46-1.13,6.55a133.72,133.72,0,0,1-2.92,14.12q-3.54,13.29-6.43,25.72c-1.9,8.35-3.57,16.44-5,24.34-.68,4-1.4,7.86-1.95,11.79-.15,1-.29,2-.44,2.92l-.21,1.45-.11.73-.1.82q-.4,3.25-.79,6.45c-.51,4.25-.86,8.44-1.21,12.54s-.59,8.16-.67,12.15a247,247,0,0,0,2.41,46c.58,3.73,1.17,7.47,2,11.19.39,1.86.75,3.74,1.2,5.6s.93,3.72,1.39,5.59c.24.94.49,1.87.73,2.81l.82,2.8c.57,1.87,1.14,3.74,1.71,5.63s1.28,3.75,1.94,5.64,1.32,3.8,2.11,5.67a209,209,0,0,0,12.75,26.71c14.58,25.59,35.23,48,59.11,66.63,3,2.29,6,4.65,9.09,6.82l4.66,3.28c1.52,1.06,3.21,2.26,4.5,3.08,2.75,1.79,5.51,3.61,8.27,5.36l8.22,5c10.92,6.44,21.66,12.12,32.09,17.3l3.91,2,3.85,1.85c2.56,1.23,5.14,2.49,7.66,3.65,5.06,2.36,10.09,4.73,15.29,7,10.24,4.66,20.87,9.1,31.56,13.43a598.37,598.37,0,0,0,67.52,22.5c2.76.79,5.63,1.5,8.43,2.34s5.63,1.67,8.45,2.55l8.69,2.43c2.93.77,5.8,1.64,8.85,2.25,1.52.32,3,.63,4.56.93,1.69.31,3.59.64,5.39.93a106.33,106.33,0,0,0,11,1.17c3.72.23,7.46.33,11.24.26a113.36,113.36,0,0,0,11.38-1.08l-6.55-.51c-2.19-.18-4.38-.34-6.57-.63-4.38-.51-8.78-1.06-13.17-1.64-2.2-.28-4.38-.59-6.59-1l-6.41-1.11-5.61-1c-1.86-.35-3.67-.78-5.51-1.16-3.65-.8-7.32-1.55-10.92-2.38l-10.63-2.65c-3.56-.83-6.93-1.85-10.35-2.79s-6.83-1.84-10.07-2.88c-26.38-7.9-49.32-16.43-67.27-22.74-10.84-5.62-23-12-36.1-19-3.31-1.8-6.66-3.59-10.18-5.54l-5.29-2.92-5.44-3.08-2.74-1.55-2.8-1.64-5.64-3.31-5.76-3.52c-1.92-1.17-3.86-2.35-5.83-3.64l-5.89-3.79c-2-1.3-4-2.69-6-4l-3-2c-.47-.31-1.05-.73-1.61-1.14l-1.69-1.21-6.72-4.91c-2.21-1.67-4.37-3.4-6.55-5.11l-3.25-2.59c-1.08-.87-2.11-1.78-3.17-2.67l-6.26-5.41c-2-1.85-4-3.74-6-5.62a227.75,227.75,0,0,1-39.35-49.22A217.53,217.53,0,0,1,879.47,969a235.37,235.37,0,0,1-8-29.58,240.12,240.12,0,0,1-4-29.4c-.15-2.44-.37-4.86-.44-7.29s-.15-4.84-.23-7.25c0-4.82,0-9.62.17-14.39q.49-14.31,2.34-28.3l.44-3.49.48-3.16,1-6.14c.7-4,1.39-8,2.19-11.94s1.61-7.75,2.42-11.61,1.73-7.57,2.66-11.24c3.65-14.83,7.74-28.88,12-42.64s8.62-27.12,13-40.38,8.73-26.42,12.81-39.54,7.89-26.22,11-39.17q2.35-9.74,4-19.22c.32-1.61.51-3.14.77-4.72s.46-3.13.67-4.68c.1-.78.24-1.57.31-2.33l.24-2.21c.19-1.24.29-2.57.41-3.89a9.26,9.26,0,0,0,2.27-1.89,11.05,11.05,0,0,0,1.55-2.51c.22-.47.41-1,.59-1.47s.28-1.06.4-1.62a21.24,21.24,0,0,0,.48-3.63c.34-5.18-.53-11.6-1.9-19a6.07,6.07,0,0,0,3.81-1.93,9.33,9.33,0,0,0,2-4.43c.66-3.73.2-9.08-1.91-15.24-.52-1.42-1.11-2.93-1.74-4.5s-1.46-3.15-2.34-4.75c-3.6-3.94-3.83-1.81-4.06.19s-.39,3.89-3.45.06c-1.8-4.89-4-9.54-5.32-13.59a26.45,26.45,0,0,1-.87-2.92,22.07,22.07,0,0,1-.49-2.65,7.56,7.56,0,0,1,.74-4.43,106.4,106.4,0,0,1,10.28,11.74c2.94,3.92,4.87,7.72,5.41,10.29a5.65,5.65,0,0,0,.59-2.91,14.12,14.12,0,0,0-.17-1.86c-.12-.64-.29-1.31-.49-2a32.83,32.83,0,0,0-1.57-4.43c-.65-1.52-1.32-3.11-2.1-4.6s-1.45-3.05-2.15-4.44-1.22-2.81-1.68-4c-.87-2.44-1-4.52.38-5.76a130.92,130.92,0,0,1,25.94,32.55,129.31,129.31,0,0,1,10.22,24,136.31,136.31,0,0,1,5.24,25.58c.12,1.09.27,2.18.35,3.27l.25,3.27c.21,2.19.23,4.38.35,6.57.07,1.11,0,2.2.06,3.29l0,3.42c-.07,2.32-.09,4.64-.19,7a259.08,259.08,0,0,1-2.88,28.43,433.4,433.4,0,0,1-13.74,58.23c-5.91,19.65-12.89,39.52-20.23,60.14-3.77,6.11-7.41,10.49-11,15.34a89.4,89.4,0,0,0-10.82,18.18c1.18,6.38,4.94-.13,9.45-8.27s9.81-18,13.24-19.33c-2.71,15.58-7.39,35.2-10.2,54.9-.17,1.23-.35,2.46-.52,3.68s-.3,2.46-.44,3.69-.29,2.44-.43,3.65-.23,2.44-.34,3.65c-.24,2.41-.4,4.81-.52,7.18s-.23,4.73-.28,7.07a123.29,123.29,0,0,0,1.77,24.85c-.87,3.31-2.34,4.62-3.31,7.32a19.59,19.59,0,0,0-1,5.52,42.3,42.3,0,0,0,.12,4.34c0,.83.13,1.73.24,2.69s.3,2,.49,3.09a144.59,144.59,0,0,0,6.84,31.11,139.1,139.1,0,0,0,12.64,27c1.27,2,2.54,4,3.79,5.91s2.72,3.76,4.07,5.61c.69.92,1.35,1.86,2.07,2.74l2.19,2.62,2.18,2.59,1.09,1.29,1.15,1.23,4.61,4.84c1.54,1.59,3.19,3.06,4.77,4.57l2.39,2.23,2.48,2.12c1.66,1.39,3.28,2.8,4.95,4.14,3.41,2.61,6.72,5.25,10.21,7.59,1.73,1.19,3.41,2.43,5.17,3.54l5.24,3.35c1.74,1.14,3.46,2.08,5.17,3.1s3.41,2,5.15,3c3.45,1.88,6.87,3.78,10.33,5.5,13.8,7,27.61,13,41.49,18.6s28,11.08,42.62,16.25c28,9.85,56,17.79,84.6,22.14a270.25,270.25,0,0,0,43.8,3.17c1.84,0,3.68.05,5.52-.07l5.51-.29,5.51-.29c1.84-.14,3.67-.34,5.51-.51a201.86,201.86,0,0,0,21.9-3.59,195.57,195.57,0,0,0,42.41-14.62,174.58,174.58,0,0,0,38.45-24.93,144.75,144.75,0,0,0,30.45-35.91,123.17,123.17,0,0,0,16.16-45.94c1.14-4.13,2.62-3.52,4-4.05s2.88-2.24,2.91-11.23c1.74-20.36-1.86-43.31-10.2-65-2-5.45-4.42-10.78-6.92-16.07-1.34-2.61-2.59-5.26-4-7.81l-2.1-3.86-2.22-3.79a241.81,241.81,0,0,0-19.76-28.46c-28.1-35.79-64.42-59-80-77.13-2-.89-3.95-1.76-5.78-2.6s-3.56-1.67-5.23-2.39c-3.34-1.49-6.34-2.92-9.09-4.3s-5.28-2.55-7.63-3.79-4.51-2.45-6.6-3.57c-4.18-2.22-8-4.46-12.07-6.63s-8.43-4.34-13.66-6.47c-5-1.1-10-2.22-15.18-3.31-2.6-.57-5.27-1.17-8-1.85s-5.67-1.33-8.72-2.12c-4.95-4.09-16.39-7.75-29.72-11.33s-28.42-7-41.12-11.09c-28.31-9-49.23-21.55-77.87-32-24.92-9.09-42.85-14.43-57.58-18.06s-26.27-5.56-38.3-8c-14.82-3.07-33-7.88-50-11.86-4.25-1-8.44-1.92-12.49-2.74s-8-1.58-11.67-2.17a93.47,93.47,0,0,0-19.26-1.44c7.74,5,16.21,10,22.66,14.77,8.5,1.67,17.41,3.09,26.67,4.58s18.88,3,28.85,4.65c19.9,3.47,41.13,7.84,63.44,15.09,28.11,9.07,43.59,22.12,73.76,27.76l-1.08,3.7c19.52,5,37.61,10.17,54.66,15.32s33.1,10.38,48.54,15.95c30.85,11.11,58.88,23.65,85.23,38.65a407.41,407.41,0,0,1,38.15,24.81l4.63,3.4c1.55,1.13,3,2.39,4.56,3.57l4.53,3.6c.76.61,1.53,1.18,2.26,1.81l2.21,1.9,4.41,3.78c1.47,1.27,3,2.49,4.38,3.84,2.9,2.6,5.72,5.32,8.52,8.09a265.21,265.21,0,0,1,31.24,37.48A233.91,233.91,0,0,1,1389,892.66a129.84,129.84,0,0,1,2,28.36,109.64,109.64,0,0,1-4.31,26.26,93.2,93.2,0,0,1-24.24,40.62,84.07,84.07,0,0,0,6.43-14.88c.7-2.4,1.39-4.7,1.82-7,.23-1.14.51-2.25.66-3.37s.31-2.22.47-3.31a85.86,85.86,0,0,0-.55-24.2,161,161,0,0,0-5.54-23.06,267.25,267.25,0,0,0-9.91-26.56,234.19,234.19,0,0,0-28-33,208.87,208.87,0,0,0-34.23-27.29l-4.66-3-4.81-2.79-2.39-1.42c-.81-.49-1.53-1-2.45-1.42l-5.49-3L1271,812c-1-.5-1.94-1-2.91-1.47l-5.84-3c-1.92-1-4-1.89-6-2.85l-6-2.83c-16.39-7.31-33.92-13.89-52.24-20s-37.46-11.71-57-17.32l-59.3-17c-39.4-11.45-78.09-22.83-115.19-32.92C901.35,690,840.73,671,779.44,650.86l-105-34.56,105.65-41c40.33-15.66,82.39-28.43,127.67-36.64,4.46,1.15,11.19,1.37,19.37,1,2-.09,4.18-.21,6.4-.37l3.37-.26c1.15-.08,2.32-.12,3.51-.19,4.74-.25,9.74-.6,14.91-1l7.87-.64,4-.35c1.33-.13,2.68-.24,4-.29l16.32-.86,8.1-.41,4-.19,2-.09h2c5.25,0,10.34,0,15.18.09,5.62-.6,6-2.24,7.48-3.66a7.52,7.52,0,0,1,4-1.79,24.19,24.19,0,0,1,4.16-.44c1.73,0,3.84,0,6.42.21,5.22.07,10.14.23,14.78.45,2.33.11,4.58.24,6.77.38l3.23.23c1.07.08,2.11.23,3.14.35,8.25,1,15.52,2.21,22.06,3.56,1.64.34,3.23.68,4.78,1l2.29.53c.75.19,1.49.42,2.23.62q4.39,1.28,8.38,2.6c5.34,1.77,10.21,3.6,14.87,5.44,2.32.93,4.61,1.8,6.86,2.79l6.72,3c4.48,2,9,3.94,13.86,5.81,2.43.94,4.93,1.86,7.54,2.75s5.3,1.95,8.15,2.89c5.69,1.91,12,3.73,19,5.43,1.27.31,2.68.59,4.19.85s3.11.62,4.8.91c3.38.59,7.09,1.15,10.91,1.7,7.63,1.16,15.79,2.13,22.57,4,4.89,1.25,10.88,3,17.35,4.84l4.94,1.45c1.67.48,3.33,1.11,5,1.67l10.15,3.49,10,3.4,4.78,1.61c1.56.52,3.07,1.1,4.54,1.62,5.9,2.08,11.07,4,15,5.19,14.08,4.47,28,9,41.82,14.21a347.05,347.05,0,0,1,41.12,18.27,221,221,0,0,1,39.42,26.45,174.69,174.69,0,0,1,33.85,38.3q2.5,4,5,8.11c1.62,2.75,3.1,5.59,4.65,8.4s2.9,5.74,4.31,8.65l2.09,4.38,1.87,4.48a225.33,225.33,0,0,1,12,37.23,286.82,286.82,0,0,1,6.72,78.36,377.67,377.67,0,0,1-3.89,39.18c-2,13-4.65,25.77-7.79,38.43a502.89,502.89,0,0,1-24.7,73.54c-4.92,9.24-10.18,19.09-15.69,29.43q-4.27,7.53-8.59,15.48l-4.33,8-1.09,2-1.16,2-2.32,4q-4.66,8.13-9.39,16.56c-1.53,2.84-3.28,5.57-5,8.38l-5.08,8.44q-2.54,4.26-5.12,8.56l-1.28,2.15-1.36,2.12-2.73,4.24q-5.48,8.51-11,17.16c-3.82,5.68-7.8,11.31-11.74,17-2,2.84-3.94,5.7-6,8.53l-6.28,8.34-6.31,8.35-3.16,4.16-1.59,2.08-1.66,2q-6.69,8.07-13.34,16.11l-3.35,4-3.49,3.88-7,7.67c-4.69,5.08-9.26,10.21-14.2,14.94s-9.71,9.53-14.56,14.16c-1.19,1.18-2.45,2.29-3.71,3.39l-3.75,3.3-7.5,6.48c-13,16-30.17,32.34-49.22,48.81-4.86,4-9.85,8-14.89,12l-7.61,6.07c-2.59,2-5.25,3.89-7.89,5.84q-7.93,5.84-16,11.71l-16.45,11.2-8.22,5.59-8.36,5.3-16.52,10.6c-11,6.83-21.78,13.38-32,19.81-20.46,12.78-38.73,25.22-52.46,37.75-5.64,3.62-7.15,3.07-8.93,2.8a6.18,6.18,0,0,0-3.43.35,31.27,31.27,0,0,0-7,4.2l-3.19,2.68-3.16,2.7-6.42,5.33c-4.19,3.61-8.57,7.07-12.67,10.69-2.06,1.8-4.21,3.51-6.2,5.34l-6,5.38-1.49,1.33L985,1466l-2.82,2.73-2.79,2.7-1.38,1.35-1.3,1.38-5.11,5.48c-.84.9-1.66,1.8-2.39,2.7L967,1485q-2.14,2.7-4.1,5.39c-1.25,1.84-2.52,3.59-3.61,5.42-4.47,7.21-7.54,14.35-8.84,20.93-5.41,8.68-9.08,14.14-12.43,18.15a139.06,139.06,0,0,0-9.48,41.05,102.43,102.43,0,0,0,.52,19.36,81.29,81.29,0,0,0,4.17,17.44c.5,1.35,1,2.71,1.57,4l.83,2,.94,1.9c.32.63.59,1.27.93,1.88l1,1.83c.64,1.26,1.42,2.35,2.12,3.49A69,69,0,0,0,951,1640.15c1,.93,2,1.9,3.06,2.77l1.57,1.36,1.67,1.3c1.07.89,2.26,1.7,3.41,2.53l.86.62.91.59c.59.37,1.26.83,1.92,1.29a100.16,100.16,0,0,0,16.9,8.81,114,114,0,0,0,36.9,8.27,109.47,109.47,0,0,0,37.63-4.46A138.86,138.86,0,0,0,1091,1647a186.21,186.21,0,0,0,31.51-25.72,197.82,197.82,0,0,0,26.33-17.65,194.17,194.17,0,0,0,25.45-24,158.08,158.08,0,0,0,11.5-14.82,132.11,132.11,0,0,0,9.71-17,100.6,100.6,0,0,0,6.6-19,77,77,0,0,0,2.07-20.47,86.09,86.09,0,0,0-2.66-35.59,83.18,83.18,0,0,0-18.63-32.21,41.14,41.14,0,0,0-3.58-3.66c-1.29-1.17-2.6-2.36-4-3.47-2.74-2.31-5.67-4.52-8.76-6.73a162.22,162.22,0,0,0-21-12.52c-15.6-7.88-34.7-14.74-57.94-19.77q-9.81-.63-19.21-.67h-9.26l-4.55,0-4.37.08c-11.09.24-21.79,1-32.07,1.74l-7.64.63c-2.52.24-5,.51-7.5.78-4.95.53-9.8,1.11-14.55,1.71-9.51,1.15-18.64,2.67-27.41,4.16-4.38.76-8.67,1.51-12.87,2.34s-8.32,1.68-12.35,2.54c-8.06,1.73-15.77,3.42-23.17,5.29s-14.47,3.64-21.24,5.4L872,1423.78c-4.34.16-8.35.41-12.07.79s-7.13.89-10.29,1.45a113.11,113.11,0,0,0-16,3.92,104.36,104.36,0,0,0-18.92,8.81c-40.08,3.44-76.31,7.36-112.65,11.6l-13.65,1.58-13.7,1.69-13.8,1.67c-4.63.54-9.27,1.2-13.95,1.78-9.36,1.2-18.86,2.34-28.54,3.68l-29.87,3.93c-41.44,5.52-81.63,8.27-121.12,5.56-9.85-.64-19.69-1.7-29.43-3.06s-19.45-3.12-29.07-5.29c-4.79-1-9.6-2.3-14.35-3.53s-9.5-2.67-14.21-4.22a291.58,291.58,0,0,1-27.82-10.44,277.9,277.9,0,0,1-26.74-13.25c-2.19-1.18-4.33-2.49-6.47-3.77l-3.21-1.93-1.65-1-1.8-1.13a162.09,162.09,0,0,1-13.84-9.77,147.66,147.66,0,0,1-25.12-24.91,113.58,113.58,0,0,1-10.8-16.5,91.8,91.8,0,0,1-8-20.53,77.67,77.67,0,0,1-2.25-24.09l.24-3.09.41-3.07c.26-2.06.72-4.05,1.14-6.05s1.05-4,1.64-5.94,1.31-3.83,2.07-5.65a87.63,87.63,0,0,1,11-19.14,125.53,125.53,0,0,1,12.38-14.07c4.08-4.06,8.05-7.65,11.71-11s7.11-6.44,10.69-9.75q10.72-9.91,21.64-20.59c6.05-3.86,9.95-4.49,18.11-11.53,1.75-12.61,51.6-39.6,49.69-55-25.86,12.54-73.7,49.43-109.22,83.89-4.28,1.48-9.14,4.38-14.77,9.15a98.86,98.86,0,0,0-9,8.75,108.77,108.77,0,0,0-9.71,12.61,101.47,101.47,0,0,0-9.19,17.56,95.5,95.5,0,0,0-3.59,10.68q-.74,2.85-1.38,5.73t-1,5.83a96.29,96.29,0,0,0-.33,24,107,107,0,0,0,5,22.39,125.78,125.78,0,0,0,10.55,22.95,157.37,157.37,0,0,0,12.35,18,186,186,0,0,0,26.42,27.06c4.57,3.82,9.25,7.37,14.11,10.68l6.45,4.32c2.06,1.34,4.11,2.74,6.2,4s4.18,2.5,6.28,3.72,4.23,2.3,6.35,3.42c4.24,2.27,8.55,4.18,12.87,6.07,10,4.18,22.07,5,25.86,6.16,14,4.36,26.55,8.44,40.29,11.9a225.83,225.83,0,0,0,46.63,6.93c5,.24,9.76.31,14.32.41s8.87.07,13,0l6.06-.1,5.77-.18c3.8-.11,7.38-.31,10.88-.49,13.92-.77,25.76-1.92,37.15-3.25s22.29-2.88,34.14-4.62,24.58-3.72,39.46-5.69c15.14-2.13,30.35-3.9,45.42-5.74l22.51-2.53c7.45-.87,14.86-1.55,22.2-2.36l10.94-1.18,10.82-1.07,21.21-2.19q10.46-1,20.53-2.12l19.73-2.13c51.42-5.83,93-12.29,114.27-24.69a150.94,150.94,0,0,0,16.07-.18,128.4,128.4,0,0,0,13.76-1.48,170.46,170.46,0,0,0,23.27-5.81c7.23-2.26,14.24-4.74,21.88-6.89a142.39,142.39,0,0,1,25.6-4.61c26.49,1.43,37.19,1.08,47.61,1.15,5.08,0,10.18.09,17.17.62a240.55,240.55,0,0,1,28.29,4.06c5.55,2.8,10.73,5.69,15.54,8.74,2.42,1.49,4.73,3.08,7,4.61s4.38,3.15,6.43,4.81a127.78,127.78,0,0,1,11.37,10.05,111.85,111.85,0,0,1,9.41,10.71,92.75,92.75,0,0,1,7.49,11.4l.81,1.45.76,1.51c.49,1,1,2,1.46,3,.89,2.06,1.77,4,2.5,6.16s1.39,4.21,2,6.3,1.09,4.28,1.44,6.52.65,4.44.9,6.65.32,4.5.26,6.82-.16,4.61-.31,6.88-.51,4.62-1,7-1,4.65-1.54,6.92c-.73,2.33-1.3,4.58-2.21,6.87a102.79,102.79,0,0,1-14,25.63,152.72,152.72,0,0,1-19.25,21.32,219.85,219.85,0,0,1-21,17.14,67,67,0,0,1-13.44,15.75c-5,4.13-10.36,6.72-15.25,6.94,4.87-6.28,9.67-12.87,14.21-20a170.3,170.3,0,0,0,12.59-23.18,76.53,76.53,0,0,0,4.51-13.33,53.55,53.55,0,0,0,1.13-7.19,44.64,44.64,0,0,0-.07-7.4,39.28,39.28,0,0,0-1.6-7.31,35,35,0,0,0-3.17-6.86,38.78,38.78,0,0,0-10.32-11.12,60.66,60.66,0,0,0-13.45-7.39,93.91,93.91,0,0,0-14.74-4.51,127.21,127.21,0,0,0-15.09-2.4c-2.49-.24-5.06-.44-7.43-.51-.6,0-1.19-.08-1.77-.14l-4.34-.36c-3.18-.24-6.34-.53-9.5-.72-50.46-3.45-97.51-3.49-136.73.71,8.46,3.41,18.22,4.34,28.51,4.64,5.14.18,10.42.18,15.73.19s10.64,0,15.89.37l21.76,1.35,22,1.67c7.39.52,14.81,1.27,22.28,1.91l11.24,1,11.29,1.15.35,0,.16,0,.21,0,.41.07.82.1c.55.06,1.09.06,1.69.15,1.17.11,2.33.26,3.5.41,2.33.31,4.67.67,7,1.1a98.28,98.28,0,0,1,13.92,3.54,56.09,56.09,0,0,1,13.19,6.32,31.66,31.66,0,0,1,10.27,10.78,28.78,28.78,0,0,1,2.77,7.1,29.71,29.71,0,0,1,.75,7.65,45.39,45.39,0,0,1-3.42,15.2c-2.32,5.83-4.62,11.43-7.43,17.24a83.18,83.18,0,0,1-11,17.27c-1.17,1.4-2.44,2.75-3.76,4.09-.68.65-1.34,1.33-2.07,1.94-.36.31-.72.63-1.07,1s-.75.6-1.12.92a54.36,54.36,0,0,1-10,6.51,48,48,0,0,1-11.79,4,40.56,40.56,0,0,1-12.89.5,42.66,42.66,0,0,1-7.31-1.53c-1.17-.3-2.29-.76-3.41-1.12s-2.2-.86-3.24-1.4a44.89,44.89,0,0,1-6-3.32,50.1,50.1,0,0,1-5.47-4,65.5,65.5,0,0,1-5-4.61c-.36-.39-.86-1-1-1.16a7,7,0,0,1-.6-.81c-.1-.13-.2-.26-.31-.38s-.15-.26-.23-.38a5.31,5.31,0,0,1-.46-.71c-.1-.24-.31-.43-.4-.65a2.21,2.21,0,0,0-.34-.58,1.54,1.54,0,0,0-.26-.53,2.78,2.78,0,0,0-.21-.46c-.12-.3-.28-.53-.36-.76s-.1-.22-.17-.32-.09-.07-.12-.16a1.63,1.63,0,0,0-.11-.31c1.72-.89.59-2,4.6-2.46-.92-1.12-.33-3.91,1.91-8s6.11-9.12,10.73-14.33,10-10.67,15-16.37c2.51-2.85,5-5.79,7.21-8.88l1.67-2.35.4-.6a5.79,5.79,0,0,1,.46-.66c.39-.49.78-1,1.16-1.5.76-1,1.49-2.07,2.21-3.16.37-.54.68-1.11,1.09-1.66l1.2-1.7a5.28,5.28,0,0,1-.69,2.6c-.38.9-.82,1.76-1.11,2.45C1039.78,1548,1040,1548.63,1043.11,1547.51Zm147.11-97.35c5.64,3.28,3.45,4.7-1.19,2.29,0,1.75,7.9,5.3,13.24,8.29-2.44,1.74-17.78-7.8-20.27-6.18,1.59,1.47,3.35,3,5.26,4.54s4,3.1,6.16,4.69c4.35,3.17,9.1,6.51,14.06,9.76-14.24-4.33-24.08-11.83-27.5-17.46S1179.38,1446.86,1190.22,1450.16Zm289.09,43.16c2.86.9,2.69,5,.39,11.27s-6.68,14.51-12.38,23a137.85,137.85,0,0,1-20.2,24,93.12,93.12,0,0,1-20.7,14.82,50,50,0,0,1-5,2.28,63.53,63.53,0,0,1-14.92,3.77,54.26,54.26,0,0,1-14.39.09c-4-.55-6.73-1.54-7.33-2.69s1-2.37,5.47-4c3.39-1.23,8-2.51,13.41-4.24a113.15,113.15,0,0,0,17.75-7.32,109.88,109.88,0,0,0,18-11.85,139.53,139.53,0,0,0,16.36-15.63A167.24,167.24,0,0,0,1479.31,1493.32Zm71-126.71c-4.95,1.72-6.13,0-5.76-3.07A117.53,117.53,0,0,0,1562.7,1341a83.23,83.23,0,0,0,7.31-14.84,55.12,55.12,0,0,0,3.47-16.51,44.31,44.31,0,0,0-2.23-16.1,45.25,45.25,0,0,0-2.93-7,53,53,0,0,0-3.61-6c-2.49-3.68-5.09-6.62-7.16-9.21-1-1.29-2-2.48-2.72-3.6a6.88,6.88,0,0,0-.57-.81c-.22-.23-.44-.46-.64-.69-.4-.47-.76-.91-1.08-1.33,11.3,5.14,19.36,12.08,23.89,20.11a41.14,41.14,0,0,1,4,25.55c-1.3,8.67-4.76,17.24-9.78,26.29S1558.79,1355.49,1550.33,1366.61Zm-31.09-123.3c.71,3.35-13-.23-15.31,1.74-4.75-3.36-20.81-7-21.84-10.67a106.24,106.24,0,0,1,19.6,4.5A111.43,111.43,0,0,0,1519.24,1243.31Zm-43.83,21.88c-12.4-3-25.43-6.24-39.09-9.75s-28-7.28-42.75-11.26l-47.13-12.51q-24.57-6.48-49.64-12.91c-14.39-3.63-28.74-6.88-42.9-9.94-7.08-1.59-14.06-3-21.12-4.6s-14.14-3.36-21.21-5.58a129.19,129.19,0,0,1-20.91-8.5,89.22,89.22,0,0,1-19.18-13.24c-1.45-1.32-2.82-2.76-4.2-4.15s-2.54-2.93-3.78-4.4a50.71,50.71,0,0,1-3.45-4.64,48,48,0,0,1-3.1-4.85,67.47,67.47,0,0,1-8-20.92,92.4,92.4,0,0,0,12.64,22c1.41,1.68,2.75,3.43,4.24,5.06l4.61,4.77,2.5,2.28,1.26,1.13,1.31,1.07,2.65,2.12,2.74,2,1.38,1,1.42.91,2.84,1.82,2.91,1.67,1.46.83,1.49.76a130,130,0,0,0,12.05,5.5,205.91,205.91,0,0,0,24.54,7.71c8.14,2.08,16.1,3.77,23.89,5.45s15.43,3.11,22.74,4.41c14.64,2.51,28,4.2,39.23,4.52l18.93,6c6.42,2.06,13,4.08,19.53,6.1s13.2,4,19.79,5.93,13.06,3.7,19.45,5.41c25.57,6.76,49.19,11.52,70.16,12.65-.12,2.87,5.45,5.54,9.82,8.12S1480,1262.23,1475.41,1265.19Zm-10.3-34.12-2.74,3.45c-6-.83-13.21-1.82-20.61-2.94-3.69-.56-7.42-1.15-11.07-1.79s-7.2-1.36-10.57-2.08a110.58,110.58,0,0,1-16.95-4.75c-4.26-1.7-6.87-3.47-6.76-5.28C1425.64,1221,1437.06,1223.9,1465.11,1231.07Zm-73.23-18.35c-4.87.13-7,1.46-7.14,3.73-1.57-.3-3-.6-4.33-.9l-1.88-.46c-.59-.15-1.07-.29-1.56-.44a29.16,29.16,0,0,1-4.57-1.73c-2.21-1.11-2.81-2.11-2-2.75s3-.92,6.41-.61c.86.07,1.76.19,2.79.35s2.34.39,3.64.65C1385.82,1211.09,1388.72,1211.8,1391.88,1212.72Zm.75-26.24a14.84,14.84,0,0,0-3.5-2.08c-.7-.31-1.47-.62-2.28-.9l-2.26-.78a70.83,70.83,0,0,0-9.27-2.19c-6.72-1.19-14.06-2.2-19.25-3.82a134,134,0,0,1-13.55-5.12c-4.11-1.76-7.86-3.61-11.51-5.43-7.32-3.58-14.22-7.07-22.63-9.73-15.46-5-26.71-6.63-39.11-8.68-6.13-1-12.93-2.16-19.63-3.72-3.31-.79-6.76-1.69-10.06-2.8a68.55,68.55,0,0,1-9.69-4,10.16,10.16,0,0,0-4.16-1.19,4.28,4.28,0,0,0-2.4.75c-.66.41-1.26.91-2,1.27a3.85,3.85,0,0,1-2.56.37,41.19,41.19,0,0,1-7-4.64,7.79,7.79,0,0,1-.71-.6l-.71-.73-.74-.71-.38-.35-.29-.37c-.4-.48-.82-1-1.27-1.42s-.67-1-1.06-1.46a29,29,0,0,1-3.34-6.44,36.71,36.71,0,0,1-1.61-8.59,52.56,52.56,0,0,1,.46-11c.17-1,.22-2,.45-3l.61-3.13c.21-1.06.52-2.15.77-3.22l.39-1.63.49-1.65a156.37,156.37,0,0,1,11.1-27.41l1.84-3.48c.59-1.16,1.23-2.32,1.89-3.48l1.95-3.48,2.15-3.6,1.1-1.84,1.53-2.36,3.07-4.69c2.17-3.07,4.26-6.16,6.5-9.17l26.24-35.77A326.58,326.58,0,0,0,1285.26,958a282.06,282.06,0,0,0,17.56-38.4c2.34-6.6,4.52-13.25,6.28-20,.5-1.68.83-3.39,1.25-5.09s.82-3.4,1.13-5.12l1-5.15.81-5.2c.31-1.73.46-3.48.66-5.23s.41-3.49.5-5.25.25-3.52.33-5.29l.09-5.31a122.3,122.3,0,0,0-1.93-21.35,92.23,92.23,0,0,0-6.48-20.81A89.87,89.87,0,0,0,1295.1,797l-3.57-4.18-.89-1-1-1-1.93-1.94L1285.8,787l-2-1.81-2-1.81-2.14-1.67a104.3,104.3,0,0,0-18.25-11.35c-12.84-6.27-26.39-10.36-40.71-13.79-3.6-.84-7.19-1.7-10.94-2.45L1198.06,752l-23.51-4.27-5.93-1.1-3-.55c-.5-.09-1-.2-1.5-.27l-1.56-.2L1150,744l-25.55-3.38-6.48-.86-6.3-.88-12.42-1.79L1074,733.38c3.2-3,10.74-4.31,20.27-5,4.77-.35,10-.53,15.45-.66l17-.34c11.73-.26,23-.77,31.31-2.42s13.73-4.43,13.14-9.32l8.4.58a32.28,32.28,0,0,1,4,.52l3.86.63,15.3,2.54q15.19,2.57,29.9,5.2l1.84.33,1.69.43,3.35.88c2.22.59,4.38,1.22,6.56,1.83s4.26,1.29,6.35,2,4.17,1.34,6.19,2.08,4.05,1.43,6,2.23,4,1.53,5.87,2.39l2.88,1.25,2.84,1.32c1.89.86,3.76,1.79,5.62,2.72a135.31,135.31,0,0,1,21.07,13.22c1.63,1.32,3.29,2.57,4.88,4l2.36,2.1c.79.69,1.58,1.39,2.32,2.14,3.07,2.9,5.91,6.08,8.74,9.23l4,5c1.3,1.67,2.48,3.46,3.72,5.19s2.3,3.59,3.42,5.39c.55.91,1.12,1.8,1.64,2.73l1.5,2.82,1.49,2.81c.48.94.88,1.93,1.32,2.89.85,1.93,1.79,3.84,2.49,5.82l1.13,2.94c.37,1,.78,2,1.06,3,.62,2,1.25,4,1.87,6a142.09,142.09,0,0,1,4.49,24.09c.46,4,.61,8,.81,12,0,2,0,4,0,6s-.1,4-.14,5.94a206,206,0,0,1-2.28,23.56l-.42,2.92c-.16,1-.35,1.94-.53,2.91l-1.08,5.83c-.86,3.86-1.61,7.74-2.63,11.59a332.46,332.46,0,0,1-15.15,46.08q-4.73,11.49-10.26,23c-3.75,7.68-7.69,15.41-12,23.14-7.13,10.47-14.8,20.88-22.78,31l-6,7.58-6.13,7.46c-2,2.48-4,5-6,7.47-1,1.23-1.91,2.52-2.84,3.79l-2.78,3.81-1.35,1.86-.76,1.09-1.52,2.16c-1.07,1.5-1.85,2.7-2.76,4s-1.72,2.58-2.56,3.86-1.64,2.55-2.41,3.81a161.73,161.73,0,0,0-8,14.37,87,87,0,0,0-4.74,11.66l-.21.6c-.07.2-.09.35-.14.53-.09.34-.19.68-.29,1a5.41,5.41,0,0,0-.23.9,6.62,6.62,0,0,1-.24.84c0,.23-.06.42-.12.64a1.81,1.81,0,0,1-.09.31l0,.16v.1a7.1,7.1,0,0,1-.19.71.62.62,0,0,1-.14.22l-.06,0-1,.24-.41.09-.33.07c-.44.1-.91.23-1.4.39l-.65.21-.29.11-.14.06.09,0a2.72,2.72,0,0,0,.28-.13l0,0,.26-.12.57-.31c.18-.1.35-.2.51-.31l.23-.15.12-.09.25-.14.8-.5,0,0s0,0,0,.06l.08.09a.39.39,0,0,1,.08.25c-.09,0-.07.13.57.68a25.62,25.62,0,0,0,3.86,2.5,80.39,80.39,0,0,0,7.8,3.61c3.2,1.31,6.93,2.68,11.1,4.12l6.62,2.22,7.15,2.34c19,6.27,37.14,12.33,53.43,18.29s30.74,12,42.41,18.12a118.58,118.58,0,0,1,15.27,9.52c1.07.82,2.1,1.64,3.07,2.47.49.42,1,.84,1.42,1.26l.68.63.33.31c.12.11.3.23.44.34A47.55,47.55,0,0,1,1392.63,1186.48Zm-123.15-122.63c7.71-10.61,12.52-14.59,16.48-17.81,2-1.6,3.87-3,6-4.74a65.78,65.78,0,0,0,7.25-7.35c7.83-10.83,14.34-20,20.08-28.21,2.91-4.09,5.51-8,8.08-11.74,1.28-1.86,2.44-3.71,3.65-5.51s2.4-3.57,3.49-5.33c2.23-3.51,4.46-6.91,6.49-10.3l3.07-5.06,2.92-5.07c3.89-6.77,7.44-13.7,10.88-21.25a218,218,0,0,0,15.66-66.41,188,188,0,0,0,.45-19.2c0-1.63-.15-3.26-.22-4.9s-.13-3.27-.29-4.92-.34-3.28-.5-4.93l-.26-2.48-.36-2.47-.72-5-1-5-.48-2.48c-.17-.83-.4-1.65-.59-2.48l-1.2-4.95c-.45-1.65-1-3.28-1.46-4.92l-.73-2.45c-.25-.82-.56-1.63-.84-2.44-.57-1.62-1.14-3.23-1.7-4.85s-1.32-3.18-2-4.76l-1-2.37c-.34-.79-.72-1.56-1.08-2.34-.74-1.54-1.47-3.09-2.2-4.63s-1.63-3-2.44-4.48l-1.23-2.22c-.42-.74-.88-1.44-1.31-2.16l-2.62-4.29c-.9-1.4-1.89-2.73-2.83-4.09-1.84-2.74-3.88-5.26-5.83-7.8-1-1.3-2-2.47-3.05-3.65l-3.08-3.53c-1-1.18-2.11-2.23-3.14-3.35-.53-.54-1-1.09-1.57-1.64s-1.06-1-1.59-1.55l-3.16-3-3.2-2.85c-1-1-2.12-1.83-3.17-2.71s-2.08-1.78-3.13-2.6c-2.11-1.62-4.14-3.29-6.2-4.74l-3-2.21-3-2.08c-3.91-2.74-7.73-5.09-11.2-7.41-1.76-1.13-3.45-2.21-5.06-3.29s-3.23-2-4.72-3c-3-1.91-5.7-3.74-8.09-5.4,4.81,2.28,9.33,4.49,13.83,6.53l13,6.15c2.13,1,4.31,2,6.37,3.07s4.18,2.09,6.24,3.21l3.11,1.64,3.06,1.74c2.07,1.13,4.06,2.41,6.07,3.67s4,2.65,6,4,3.9,2.93,5.86,4.43,3.8,3.25,5.68,5,3.67,3.62,5.51,5.51,3.46,4.05,5.2,6.16,3.28,4.48,4.92,6.83,3,5,4.44,7.61q1,2,2,4.12c.64,1.4,1.37,2.79,1.9,4.29a131.32,131.32,0,0,1,14.75,22.13c1,2,2.14,4,3,6s1.91,4.1,2.75,6.19,1.64,4.23,2.48,6.38,1.43,4.35,2.14,6.57a165,165,0,0,1,6.32,60.5,216.59,216.59,0,0,1-6,36.79,264,264,0,0,1-14.63,41.89,327.36,327.36,0,0,1-25.69,46.73c-5.39,8.13-11.25,16.54-17.95,25.24l-2.49,3.27-2.61,3.29-5.31,6.63c-3.71,4.41-7.41,8.91-11.41,13.36-3.41,3.79-6.7,7.63-10.06,11.43-1.73,1.88-3.26,3.86-4.86,5.8l-2.39,2.91-1.2,1.46-.6.72-.29.35-.14.15-2.22,2.31-1.14,1.16-1,.93-3.77,3.63c-5,4.73-9,9-11.1,12.33-.29.43-.44.74-.64,1.08l-.58,1q-.18.39-.39.78l-.21.4c0,.1-.07.17-.11.26a3,3,0,0,1-.25.51,1.82,1.82,0,0,1-.09.24l-.07.09,0,0h0l-.17,0-.4-.08-.81-.15q-3.24-.57-6.57-.93c-.53-.06-1.15-.1-1.61-.17l-1.42-.19c-.94-.12-1.9-.22-2.85-.3s-1.93-.15-2.9-.19l-1.45-.06-1.2-.09c-1.61-.12-3.24-.16-4.88-.14l-1.24,0c-.4,0-.67,0-1,0-.66,0-1.32,0-2,0a60.89,60.89,0,0,0-11.7,1.45c-.41.07-.84.18-1.29.3l-.68.22-.17.06-.07,0-.11,0-.5.17-.14.06-.06,0,0,0,.16-.07.2-.11.36-.18.47-.25c.29-.17.56-.34.79-.5,0,0,.18-.11.31-.19l.38-.23.73-.47c.46-.32.88-.63,1.28-1,.11-.09.16-.14.33-.26l.48-.34.92-.7c.59-.46,1.15-.93,1.67-1.39l.75-.7.09-.09-7.11,6.31h0l0,0,.16-.13.29-.26q.58-.51,1.08-1l.5-.52.74-.74c.48-.48.92-1,1.32-1.43l.59-.69.83-.91c-.84.9-1.4,1.64-2.42,2.7-.25.26-.52.54-.81.82s-.49.5-.69.7c-.4.42-.87.86-1.41,1.33l-.21.18,0,0,7.11-6.3h0l-.06.06-.13.12-.52.49c-.36.32-.74.65-1.15,1s-.84.67-1.3,1l-.71.52c-.24.17-.31.25-.49.38a19.08,19.08,0,0,1-2.1,1.45c-.5.29-.56.36-.79.5s-.43.27-.68.4l-.78.41-.24.1.46-.18a3.68,3.68,0,0,1,.37-.11c.32-.11.75-.25,1.1-.35s.73-.18,1.07-.24c.63-.17,1.26-.31,1.88-.42l.91-.15.45-.06c.15,0,.29,0,.54-.08q1.34-.24,2.64-.36c.43,0,.86-.08,1.29-.1l.64,0,.86-.09c1.15-.1,2.28-.16,3.41-.18.56,0,1.12,0,1.67,0,.24,0,.65,0,1,0l1.05,0c1.39,0,2.78,0,4.15.11l1,.08.51,0,.61,0c.07,0,0,0,0-.06a2.07,2.07,0,0,0-.2-.15c-.52-.64-.51-3.21.1-6.66a95.12,95.12,0,0,1,3.29-12.39c1.47-4.56,3.27-9.33,4.82-13.84q.28-.86.57-1.68c.19-.56.32-1.07.57-1.7.45-1.2.86-2.38,1.23-3.52l.27-.85a3.36,3.36,0,0,1,.15-.45l.35-.72,1.35-2.78C1268,1067.23,1268.78,1065.49,1269.48,1063.85Zm-124.92,55.38a44.19,44.19,0,0,1-1.28-5.23c-.24-1.71-.39-3.39-.48-5.1a39.92,39.92,0,0,1,.1-5.12,50.64,50.64,0,0,1,.56-5.35c1-7.39,3-15.89,6.1-27.78,1.27,1,1.38,3.39,1,6.8-.22,1.69-.63,3.59-1,5.73s-1,4.37-1.48,6.8c-.26,1.2-.52,2.43-.79,3.68s-.47,2.54-.72,3.82-.49,2.56-.69,3.86-.35,2.6-.52,3.88A84.42,84.42,0,0,0,1144.56,1119.23ZM824.08,770.18c-35.16-5.23-69.9-9.53-105.3-14.85-17.71-2.55-35.56-5.51-53.75-8.67-9.09-1.62-18.24-3.39-27.49-5.23l-13.95-2.84c-4.67-1-9.37-2.05-14.09-3.12-8.76-2-17-4-24.85-6s-15.35-4.07-22.66-6.1l-10.84-3-10.75-3.09c-7.22-2.1-14.42-4.33-21.76-6.62-14.67-4.65-29.9-9.7-47-15.82-8.53-3.05-17.51-6.45-27.1-10.27s-19.75-8.18-30.6-13.37l-18.05-8.54c-2.93-1.37-5.8-2.85-8.77-4.27-1.51-.7-2.92-1.5-4.48-2.3l-4.82-2.57c-3.14-1.8-6.41-3.68-9.79-5.78s-6.88-4.41-10.42-7.13a149.1,149.1,0,0,1-22.81-20.54,147.19,147.19,0,0,1-21.25-30.57,174.18,174.18,0,0,1-13-33,247.07,247.07,0,0,1-6.81-35c-1.43-11.22-2.36-21.84-3.58-31.87a215.38,215.38,0,0,1,4.55-22.05c1.92-7.2,4.15-14.26,6.6-21.16l1.91-5.13c.6-1.63,1.26-3.21,1.89-4.81,1.26-3.2,2.63-6.3,3.94-9.42q4.08-9.24,8.38-18c5.74-11.69,11.62-22.82,17.31-33.58s11.11-21.21,16-31.47c.19,8.57-7.2,27.68-14.43,50.34-3.6,11.34-7.21,23.56-9.9,35.67-1.38,6-2.51,12.06-3.42,17.87-.22,1.47-.44,2.93-.65,4.37s-.36,2.87-.53,4.28c-.36,2.8-.56,5.55-.78,8.18a182.79,182.79,0,0,0-6.55,43.13,146.94,146.94,0,0,0,5.25,43.1,141.71,141.71,0,0,0,15,34.8,158.45,158.45,0,0,0,23.2,29.77,199.41,199.41,0,0,0,28.91,24.06l7.83,5.18,7.93,4.81c2.68,1.5,5.35,3,8.05,4.52s5.43,2.88,8.18,4.26c21.94,11,44.82,19.44,67.84,26.51S533,697.45,556,702.5c46.05,10.39,91.56,20.55,136.37,31s88.93,21.26,132.26,32.83C824.47,767.63,824.27,768.91,824.08,770.18ZM643.74,271.1a5.39,5.39,0,0,1,2.49,1.87c1.07,1.17,2.35,2.76,3.67,4.48l24.88,32.39L633.4,331.21c-1.38.71-2.9,1.41-4,2.08a4.18,4.18,0,0,0-1.27,1,.88.88,0,0,0-.23.94A65.51,65.51,0,0,0,609,345.66a73.72,73.72,0,0,0-14.19,14.82,76.24,76.24,0,0,0-9.12,16.72,89.2,89.2,0,0,0-4.78,16.74l-36.75-48.63c9.48-.26,18.71-.49,27.78-.22,19.87.52,39.56,5.53,65,8.49,17,1.92,36.74,2.8,53.86,4.71,4.27.5,8.38,1,12.22,1.67s7.42,1.42,10.65,2.27a52.83,52.83,0,0,1,8.55,2.93,21.37,21.37,0,0,1,5.89,3.84,117.93,117.93,0,0,1,13.1.84c4.68.55,9.64,1.3,14.8,2.19s10.5,2.08,15.95,3.25,11,2.57,16.57,3.9l16.67,4.15c5.53,1.35,11,2.78,16.28,4l7.93,1.8c2.63.57,5.21,1.15,7.75,1.66,5.06,1,9.93,1.94,14.51,2.59-.89,1.41-5,1.68-10.06,1.72s-11.19-.22-16.17-.09-8.79.67-9.49,2c-.35.69.08,1.59,1.56,2.78a47.11,47.11,0,0,0,7.82,4.58,36.08,36.08,0,0,0,15.24-1.48,45.76,45.76,0,0,1,6.15-1.5,31.42,31.42,0,0,1,8.33-.17c8.36,2.66,16,5.47,22.62,8.32a141.52,141.52,0,0,1,17.1,8.63,53.94,53.94,0,0,1,10.73,8.07c2.44,2.49,3.7,4.76,3.69,6.72-11.65-3.38-28.3-8.77-47.72-14.15-9.7-2.71-20.1-5.43-30.89-8.07-5.39-1.33-10.89-2.62-16.39-3.89s-11.07-2.64-16.68-3.88c-22.4-5.16-45.23-10.14-66-14.57s-39.58-8.33-53.75-11.8c-5-.12-9.82-.42-14.58-.67s-9.4-.61-14-1.05c-9.19-.73-18.12-1.84-27.1-2.89-18-2.2-36-4.84-56.34-6.53-2.63,2.67,7.55,2.73,15.93,3.3a177,177,0,0,1-18.86.31q-9.47-.27-19-1.29l15.42,20.4a79.27,79.27,0,0,1,12-21.27,107.76,107.76,0,0,1,17.11-17.24,160.76,160.76,0,0,1,19.39-13.37c6.62-3.94,13.28-7.44,20-10.86,2.28-.68,3.22-.23,3.74.57l13.94-45.42c.48-.9,1.56-1.22,1.8-2.34a4.22,4.22,0,0,0-.46-2.48A20.71,20.71,0,0,0,643.74,271.1ZM927.41,435.54c2.56,1.67,4.75,3.37,6.75,4.92s3.75,3.19,5.46,4.72l10.64,10a8.79,8.79,0,0,1-4.25,0,22.15,22.15,0,0,1-2.8-.77c-1-.33-2.13-.73-3.31-1.21s-2.38-1-3.68-1.63-2.7-1.24-4.17-2l-4.65-2.39-5.17-2.74a29.35,29.35,0,0,1-5.75-5.78c-.84-1.37-.68-2.26.16-2.81a8.62,8.62,0,0,1,4.28-.8A59,59,0,0,1,927.41,435.54ZM1064.1,726c-6,20-12.07,38.86-17.55,56.64s-10.32,34.49-13.83,49.82c-1.76,7.65-3.17,14.94-4.18,21.72-.22,1.67-.49,3.37-.69,5s-.39,3.25-.53,4.79l-.2,2.31-.1,1.12c0,.33,0,.54,0,.81,0,1-.14,2.06-.1,3.1a77.15,77.15,0,0,0,3,23.84,84.69,84.69,0,0,0,3.06,8.13,63.29,63.29,0,0,0,8.86,14.27c.85,1,1.7,2,2.63,3l1.38,1.48,1.45,1.41c1,1,2,1.85,3,2.76a19.8,19.8,0,0,0,1.57,1.31c.54.43,1.07.87,1.58,1.32,1.09.84,2.21,1.64,3.29,2.51q.87.57,1.71,1.17l.84.61.21.16.1.08.17.11.68.43a265.91,265.91,0,0,0,25.16,14.55c1.16.62,2.42,1.24,3.66,1.86l3.74,1.86,7.8,3.75,8,3.74c2.68,1.24,5.31,2.37,8,3.56,10.57,4.61,21,8.83,31,12.33a302.73,302.73,0,0,0,29.12,8.58,199.93,199.93,0,0,0,26.4,4.25l3.06.18,1.84,0c1.22,0,2.47-.08,3.67-.13a68.51,68.51,0,0,0,7-.76c1,.18,2.07.37,3.23.55.57.09,1.17.19,1.78.26l1.89.18a58.59,58.59,0,0,0,27-3.73,41.82,41.82,0,0,0,15.07-9.72c3.7-3.87,5.62-8.15,5.41-11.77a38.47,38.47,0,0,0,7.33-9,37.62,37.62,0,0,0,4.18-10.65,41.51,41.51,0,0,0-1.43-22.31,59.23,59.23,0,0,0-10.64-18.64,85.85,85.85,0,0,0-14.15-13.4,45.49,45.49,0,0,0-8.67-8.64l-2.54-1.86c-.89-.55-1.82-1.06-2.69-1.66-.46-.29-.83-.62-1.34-.91l-2.21-1.23-2.71-1.54-1.35-.78-1.46-.73c-1.93-1-3.88-2-5.83-3s-4.14-1.89-6.2-2.85c-1.06-.47-2-1-3.16-1.42l-3.31-1.36c-2.24-.91-4.35-1.87-6.75-2.72l-7-2.66-7.38-2.57c-2.41-.87-5.06-1.68-7.63-2.52s-5.13-1.68-7.86-2.49c-10.6-3.31-22.09-6.48-34-9.78l-18.4-5-19.36-5.31c-6.53-1.81-13.32-3.79-20-5.75s-13.4-4-20.1-6.12-13.37-4.26-20-6.52-13.33-4.54-20-7c-23.94-8.64-40.39-19.76-64.64-29-21.06-8.05-47.79-14.91-71.59-24.42-34.3-13.64-65.71-31.33-98.55-45.07-9.12-3.79-20.35-7.45-31-11.11L525.35,613.9l239-83.56c7.7-2.69,15.16-5.19,21.83-7a67.78,67.78,0,0,1,7.89-1.57c1.25-.16,2.46-.31,3.66-.41l3.56-.18a96.82,96.82,0,0,0,14.46-1.31c4-.75,8.1-1.61,12.25-2.54l3.12-.71c1.05-.24,2.11-.42,3.16-.64l6.38-1.3c8.53-1.74,17.16-3.74,25.66-5.45,8.54-1.52,16.93-2.93,24.88-4q3-.4,5.87-.74c1.92-.26,3.84-.32,5.7-.44,3.74-.21,7.33-.31,10.73-.28L931,500.48c5.83-1,11.65-1.74,17.45-2.58s11.59-1.64,17.38-2.41l17.41-1.67c5.8-.52,11.6-1.12,17.43-1.53l17.53-.88,8.82-.41c2.94-.12,5.89-.33,8.85-.31l17.84-.13,9-.05h4.52l4.54.14,18.35.59,9.3.31c3.11.12,6.23.41,9.38.6l19,1.33c6.43.35,12.9,1.13,19.46,1.81l20,2.09c6.73.86,13.52,1.88,20.44,2.83s14,1.81,21,3.17c-6.48-.51-13.07-.6-19.6-.8s-13-.34-19.42-.45c-1.59-.06-3.18,0-4.77,0l-4.73.12-9.25.3c-6.08.24-12,.54-17.52,1a203.37,203.37,0,0,0-29.34,5,55.46,55.46,0,0,0-10.77,3.92,29.6,29.6,0,0,0-7.5,5c-7-.24-13.94-.55-20.84-.65l-20.59.18-10.21.12c-3.4.12-6.78.32-10.17.47l-20.24,1c-3.37.1-6.72.47-10.08.72l-10.08.79-10.09.76-5,.36c-1.68.15-3.35.35-5,.52q-10.08,1.07-20.25,2l-5.1.46-2.55.23-2.55.3-10.23,1.21L909,527.38l-6.26.66-6,.85c-7.82,1.11-15.24,2.19-23.42,3.51l-3.11.51c-1,.19-2.1.42-3.18.64L860.44,535c-4.59,1-9.52,2.11-14.94,3.38-2.7.64-5.54,1.27-8.49,2L827.77,543c-6.46,1.88-13.54,4-21.38,6.35-10.75,3.68-21.13,7.7-31.25,11.7L624.62,620.59,774.22,665l23.64,7c7.78,2.31,15.44,4.73,23,7.32,65.44,22.5,131.72,49.18,196.78,68.72,27.75,8.37,55.93,15.14,82.33,22s50.76,13.57,69.84,22.67l8,2.07,7.91,2.24,4,1.15,3.93,1.22c2.61.83,5.27,1.64,7.88,2.5,10.41,3.47,20.68,7.34,30.62,11.57,2.48,1.07,4.88,2.2,7.33,3.3l3.66,1.67,3.54,1.76,3.54,1.77c1.18.59,2.39,1.15,3.51,1.79l6.84,3.73c1.16.6,2.24,1.27,3.34,1.93l3.28,2,3,1.78c.85.54,1.67,1.14,2.51,1.69,1.67,1.14,3.39,2.19,5.06,3.31l4.88,3.52c3.25,2.34,6.35,4.85,9.35,7.44s5.89,5.28,8.67,8,5.43,5.62,8,8.48,5,5.83,7.38,8.84a222.27,222.27,0,0,1,13,18.44c4,6.28,7.59,12.67,11,19.09a146.62,146.62,0,0,1,.44,33,102.37,102.37,0,0,1-8.76,31.84,98.21,98.21,0,0,1-42.28,44.86c-5,.75-10.19,1.3-15.44,1.61s-10.6.35-16,.19-10.81-.57-16.24-1.21c-1.36-.16-2.72-.32-4.08-.53l-2-.29-2-.36c-2.72-.5-5.43-.84-8.15-1.45l-4.08-.8c-1.36-.25-2.72-.62-4.08-.91l-4.08-.9-4.09-1c-1.36-.33-2.75-.62-4.09-1l-2-.55-2.76-.62c-1.83-.35-3.74-.94-5.64-1.39s-3.81-.89-5.76-1.41-3.94-1.08-5.94-1.59c-1-.26-2-.49-3-.77l-3.08-.89-6.24-1.71c-2.12-.64-4.27-1.28-6.44-1.89l-3.27-.93-3.33-1-6.78-2c-4.61-1.51-9.3-2.83-14.16-4.45-15.69-5-30.54-9.36-44.87-13.23s-27.09-6.82-38.88-9.88l-2.23-.56-2.15-.59-4.29-1.18c-1.45-.38-2.77-.81-4.17-1.22l-4.08-1.21a117,117,0,0,1-14.24-4.81A77.45,77.45,0,0,1,995,945.55c-.31-.69-.62-1.37-.94-2l-.48-1-.42-1c-.57-1.34-1.16-2.63-1.78-3.88-2-4.53-4.21-8.68-6.14-12.9l-.77-1.55-.71-1.58c-.47-1.06-1-2.09-1.46-3.15-.9-2.13-1.9-4.24-2.71-6.44s-1.61-4.43-2.42-6.72c-.65-2.33-1.38-4.69-1.87-7.18a68.72,68.72,0,0,1-1.59-16A113.85,113.85,0,0,1,975,867.21c.16-1.25.43-2.5.64-3.76l.34-1.89c.14-.7.28-1.4.43-2.1.3-1.42.56-2.83.9-4.28s.68-2.89,1-4.35c1.45-5.85,3.16-11.88,5.08-18.1s4.11-12.66,6.42-19.32c4.63-13.34,9.9-27.61,15.25-43.25s10.77-32.68,15.4-51.67c4.78,7.13,9.56,11.5,13.7,16.41a44.26,44.26,0,0,1,9.82,20c3.18-2.89,6.76-10.38,10.26-17.06S1061.21,725.14,1064.1,726ZM1248.72,512.1c2.53-2.51,10.21-2.47,7.87-7.36,3.61,1.52,7.36,2.87,11.2,4.09l2.9.89,2.9.94c2,.61,3.92,1.2,5.9,1.75,7.94,2.21,16.13,4,24.3,5.44,16.38,3.25,33.09,6.15,47.22,9.8,2.78,1,5.6,2.16,8.38,3.26s5.53,2.17,8.3,3.34c5.54,2.37,11,4.59,16.45,7.15,10.86,4.83,21.64,10.37,32.21,16.09a350.72,350.72,0,0,1,61.32,42.87c2.43,2.15,4.8,4.43,7.2,6.66l3.57,3.39,1.77,1.7,1.74,1.8c4.59,4.82,9.3,9.57,13.56,14.75q3.27,3.84,6.5,7.73c2.08,2.66,4.11,5.37,6.16,8.09,4.17,5.38,7.86,11.13,11.67,16.88.47.73,1,1.44,1.41,2.18l1.33,2.21,2.64,4.47,2.62,4.5,1.31,2.27c.42.76.81,1.53,1.22,2.3,3.21,6.17,6.49,12.42,9.26,18.88a293.76,293.76,0,0,1,14.65,40.17c.56,3,1.06,5.81,1.51,8.57.21,1.37.46,2.73.61,4.06s.3,2.63.44,3.91c.51,5.15,1,10.06,1.16,14.8.46,9.55.44,18.71.41,29.07a374.07,374.07,0,0,1,.59,54.08,441.32,441.32,0,0,1-6.19,50.83c-2.94,16.38-6.64,32.19-10.86,47.48s-9,30-14.1,44.29q-8.31,23.18-18,46l-2.43,5.68c-.81,1.9-1.68,3.76-2.51,5.65l-2.53,5.63-.63,1.4-.63,1.33-1.26,2.64-10.09,21.13c-1.63,3.54-3.46,7-5.25,10.4l-5.36,10.27-5.36,10.2c-1.81,3.37-3.76,6.64-5.64,9.94q-5.68,9.87-11.36,19.49-6,9.42-12,18.53l-3.34,5c-1.13,1.68-2.24,3.36-3.46,5q-3.57,4.88-7.22,9.7t-7.34,9.6l-3.7,4.75-3.87,4.62-15.46,18.23c-5.24,5.94-10.58,11.7-15.75,17.5-2.6,2.88-5.12,5.81-7.72,8.63s-5.22,5.6-7.77,8.4-5.07,5.59-7.54,8.39-4.84,5.64-7.34,8.33c-9.87,10.88-18.7,22.07-26.94,33l-9,8.33-4.69,4.26-4.93,4.17c-6.64,5.58-13.47,11.34-20.53,17.06l-21.86,16.85c-.92.7-1.82,1.43-2.76,2.11l-2.83,2-5.65,4.07-11.26,8.13c-30.12,21.38-60.14,40.51-82.27,56.59-12.2,5.46-25.92,12-40,19s-28.52,14.31-42.46,21.75-27.35,15-39.51,22.24-23.13,14.34-32.8,20.81c-2.13,1.92-3.91,3.92-5.78,5.86l-2.73,2.88c-.74.87-1.49,1.74-2.22,2.61a127.51,127.51,0,0,0-8,10.85,116.8,116.8,0,0,0-6.46,11.14,104.09,104.09,0,0,0-4.93,11.06c-.73,1.81-1.29,3.62-1.92,5.39s-1.1,3.52-1.49,5.24-.8,3.4-1.2,5.06-.62,3.26-.78,4.82-.33,3.07-.52,4.56c0,1.45-.19,2.89-.15,4.23s.07,2.64.08,3.9c.06.61.12,1.21.15,1.81s.16,1.14.21,1.7a35.79,35.79,0,0,0,2.85,10.26c.61,1.26,1.22,2.4,1.82,3.51l1.74,2.6c.66,1,1.37,2.08,2.41,3.37.26.32.57.64.82,1s.63.68.91,1.06a4.24,4.24,0,0,0,.49.57l.6.63a22,22,0,0,0,1.61,1.59,92.17,92.17,0,0,0,15.4,11.93,34.42,34.42,0,0,1-16.41-4.35c-1.32-.77-2.67-1.52-3.94-2.42a20.19,20.19,0,0,1-1.89-1.36l-.73-.5-.65-.53a35.61,35.61,0,0,1-4.55-4.19c-1.24-1.37-2.26-2.68-3.22-3.91-.2-.32-.47-.61-.7-.92a6.38,6.38,0,0,0-.66-.91,2.6,2.6,0,0,1-.34-.52c-.11-.18-.23-.36-.35-.54l-.4-.54-.32-.55c-1-1.42-1.87-2.94-3-4.41-.45-.78-1.12-1.49-1.63-2.28-.28-.38-.58-.76-.91-1.13s-.59-.78-.92-1.16c0-1.14.17-2.38.16-3.57.14-1.27.09-2.49.23-3.82s.19-2.66.22-4c.06-.69.14-1.4.18-2.1s.1-1.43.18-2.16a161.71,161.71,0,0,1,2.75-18.72c2.76-13.06,7.49-26.5,13.76-36.8a100.61,100.61,0,0,1,9.64-13.3c.92-1.09,1.89-2.15,2.85-3.24l.36-.41.43-.43.85-.87,1.71-1.75,3.46-3.53c1.19-1.17,2.47-2.31,3.7-3.48,9.93-9.31,21.37-18.4,32.25-27.13l4.85-3.94,4.79-3.78,4.62-3.71,4.65-3.64,4.62-3.62,4.76-3.62,4.87-3.66,5.15-3.73c7-5,14.88-10.36,24.34-16.36s20.69-12.72,34.49-20.9l8.22-4.92,4.09-2.45,4.07-2.56,16.39-10.26c5.57-3.37,11-7.19,16.57-11l8.51-5.82c2.87-2,5.81-4,8.67-6.15q9-6.73,18.5-13.38c3.18-2.18,6.22-4.55,9.34-6.84l9.37-6.89,9.43-6.86,9.22-7.1,9.2-7.05c3.06-2.33,6.14-4.64,9.06-7.09l17.45-14.32c2.89-2.32,5.6-4.79,8.3-7.2l8-7.19,7.72-7.07,1.88-1.75,1.8-1.79,3.54-3.57c4.66-4.73,9.08-9.35,13.21-13.85,1.11-1.24,2.24-2.46,3.27-3.77s2.06-2.65,3.06-4c2-2.7,4-5.44,5.93-8.17s3.92-5.43,5.94-8.07q1.51-2,3.08-3.88t3.07-3.83c5-5.87,10.46-11.86,16.23-18l17.36-19.22,4.44-4.93c1.42-1.69,2.85-3.39,4.27-5.1q4.26-5.11,8.46-10.31l4.14-5.21c1.36-1.75,2.74-3.47,4-5.28,2.55-3.59,5-7.19,7.4-10.79,1.46-2.2,4-7.41,6.62-12.63s4.91-10.66,6.46-13c9.4-14.15,21.34-28.38,29.93-42.4q5.22-9,10.54-18.52c3.54-6.18,7.12-13.17,10.57-20.16,6.91-14.06,13.39-28.94,19.29-44.62A478.66,478.66,0,0,0,1542,887.09a405.13,405.13,0,0,0,3.78-58.18,336,336,0,0,0-6-61.47,299.9,299.9,0,0,0-19-62.05,271.72,271.72,0,0,0-33.51-57.12c-5.36-7.17-11-13.9-16.7-20.41l-8.67-9.42q-4.44-4.46-8.94-8.84a240.63,240.63,0,0,0-38.79-30.12c-2.34-1.42-4.73-2.82-7.15-4.21s-4.89-2.58-7.38-3.85c-5-2.61-10.05-4.84-15.11-7.13-2.54-1.18-5.06-2.2-7.58-3.27l-7.5-3.22c-2.47-1-4.93-2-7.35-3.08l-7.16-3.13c-18.89-8.4-35.58-16.6-52.46-23.69-8.4-3.4-16.87-6.54-25.73-9.39q-3.32-1.07-6.71-2c-2.26-.66-4.58-1.15-6.92-1.68C1258.45,513.75,1253.66,512.84,1248.72,512.1Zm-219,1037.54a13.43,13.43,0,0,0-3.29,4.79,3.62,3.62,0,0,1-1,1.31,11.84,11.84,0,0,1-2.42,1.57,2.07,2.07,0,0,1-1.52-2.55,5.74,5.74,0,0,1,.65-1.92,12.09,12.09,0,0,1,1.31-1.89,8.24,8.24,0,0,1,3.48-2.48A2.11,2.11,0,0,1,1029.68,1549.64Z"/><path class="b" d="M474.75,410.14c-1.1,1.78-2,3.4-2.79,5s-1.45,3.15-2.09,4.65l-.93,2.23c-.32.77-.63,1.54-.95,2.33-.65,1.57-1.36,3.17-2.19,4.87-3.55,3.33-7.06,8.23-10.28,13.73a177.37,177.37,0,0,0-8.68,17.33c-2.55,5.74-4.71,11.11-6.82,15.45s-4.15,7.63-6.77,9.56a173.19,173.19,0,0,1,13-31.16q4.18-8,9.09-15.93c3.28-5.32,6.68-10.52,10.46-16,.92-1.37,1.84-2.66,2.76-3.93l2.75-3.85,2.74-3.67c.91-1.22,1.82-2.45,2.73-3.58l2.72-3.47c.91-1.17,1.82-2.19,2.72-3.3l1.36-1.64c.45-.56.9-1.1,1.36-1.59l2.7-3.07c.9-1.07,1.8-2,2.7-2.92s1.79-1.95,2.68-2.84l2.66-2.64c.45-.43.89-.93,1.33-1.31l1.32-1.2c.88-.79,1.75-1.65,2.62-2.41s1.73-1.44,2.59-2.18,1.7-1.39,2.55-2l1.26-1a13.31,13.31,0,0,1,1.25-.95,6.62,6.62,0,0,1-.54,1.48,11.54,11.54,0,0,1-1.06,1.73c-.43.63-.94,1.16-1.52,1.91s-1.24,1.47-1.95,2.22l-1.11,1.14-1.2,1.3c-.82.88-1.69,1.71-2.6,2.63-1.82,2-3.79,3.81-5.8,6C484.81,401.08,476.07,410.65,474.75,410.14Z"/><path class="b" d="M526.16,369.09a1.13,1.13,0,0,0-.67.3l-.23.18-.32.26c-.2.17-.38.34-.55.51a7.86,7.86,0,0,0-1.58,2.19,13.45,13.45,0,0,1-1.48,2.31,7.76,7.76,0,0,1-1.15,1.24c-.46.42-1,.67-1.7,1.2a7.08,7.08,0,0,1,1.11-3.65,25.22,25.22,0,0,1,2.42-3.37c.43-.62.87-1,1.27-1.53a11.86,11.86,0,0,0,1.09-1.6.6.6,0,0,0,.11-.34,3.11,3.11,0,0,1,0-.32c0-.22,0-.45,0-.7a12.1,12.1,0,0,0,0-1.57c1.17-.24,1,.44.86,1.37A4.53,4.53,0,0,0,526.16,369.09Z"/><path class="b" d="M826,1656.21l1.77,3.58c.63,1.23,1.28,2.52,2,3.85s1.35,2.72,2.06,4.15,1.53,2.92,2.33,4.45,1.62,3.09,2.46,4.69l2.74,4.82c1.83,3.32,3.93,6.63,6.08,10.07,1,1.73,2.23,3.4,3.39,5.12s2.34,3.48,3.61,5.18c2.53,3.4,5.1,6.91,7.93,10.26s5.73,6.69,8.74,10c1.53,1.62,3.1,3.19,4.68,4.79.79.8,1.57,1.61,2.38,2.38l2.45,2.29c1.65,1.51,3.26,3.08,5,4.51l5,4.2c1.62,1.34,3.32,2.61,5,3.91l2.51,1.92,2.56,1.83a192,192,0,0,0,20.85,13,163.93,163.93,0,0,0,39.32,15.36A143.31,143.31,0,0,1,921,1763.86a179.07,179.07,0,0,1-19.36-11.09l-4.73-3.26-2.36-1.67-2.31-1.75c-1.54-1.18-3.09-2.36-4.62-3.56l-4.57-3.84c-1.59-1.32-3.14-2.73-4.67-4.16s-3.09-2.84-4.59-4.33c-3-3-6-6-8.8-9.25a195.37,195.37,0,0,1-15.9-20.33c-1.19-1.8-2.38-3.6-3.57-5.38s-2.24-3.68-3.35-5.51c-2.25-3.64-4.2-7.44-6.2-11.16-1-1.86-1.86-3.79-2.77-5.66s-1.85-3.78-2.62-5.63C829,1663.55,827.31,1659.9,826,1656.21Z"/></svg>