<svg xmlns="http://www.w3.org/2000/svg" viewBox="0 0 960 700"><path d="M205.44,608q-34.32-73.07-64.95-147.76-30.75-75-57.76-151.49Q55.82,232.5,32.71,155c-1.56-5.23-4.2-11.5-2.41-17a10,10,0,0,1,2.85-4.62c-.62.66,1.17-1,1.48-1.2s.9-.65,1.37-.95c0,0,1.76-1,.83-.53a40.77,40.77,0,0,1,12.49-4c6.36-1.16,12.82-1.9,19.22-2.81q41.8-5.89,83.67-11.37,83.72-11,167.64-20.25L340.7,90c3.53-.38,6.34-3.59,5.32-7.18s-5.31-5.85-9-5.45q-85.51,9.25-170.82,20.24Q123.59,103.1,81,109q-10.9,1.52-21.81,3.06c-5.69.81-11.43,1.45-17,2.73-10.27,2.35-21.17,6.7-25.56,17.09-2.72,6.43-1.4,13.66.44,20.13s3.8,12.76,5.73,19.13q6,19.69,12.2,39.32,12.44,39.24,25.88,78.15,26.85,77.82,57.62,154.22,30.88,76.7,65.61,151.78,4.22,9.11,8.48,18.2c1.59,3.39,6.74,4.71,10,3.45,3.73-1.43,4.42-5,2.87-8.33Z"/><path d="M25.47,339.38Q45,328,65.53,318.54q5.25-2.42,10.56-4.7l2.42-1L80,312.2c.25-.11,1.14-.48-.09,0,1.78-.75,3.56-1.47,5.35-2.18q10.48-4.21,21.16-7.91,21.35-7.41,43.33-12.71c3.82-.92,7.66-1.82,11.53-2.53.88-.16,1.77-.35,2.67-.45-1.7.19.11,0,.38,0l1.08-.13c1.95-.23,3.91-.38,5.88-.43,1,0,1.95,0,2.93,0a5.91,5.91,0,0,1,1.33.06c-1.72-.47-.26,0,.23,0a46.54,46.54,0,0,1,5.73,1.05c1.35.32-.23,0-.38-.13a5.76,5.76,0,0,0,1.19.41c.66.24,1.32.51,2,.8l1.14.56c1.14.54-.57-.33-.64-.36a12,12,0,0,1,2.17,1.37c.64.44,1.25.93,1.87,1.41.79.61-1.38-1.29-.3-.27.31.3.62.58.92.88.5.5,1,1,1.44,1.55l.54.64.52.66c-.63-.88-.74-1-.32-.42a30.85,30.85,0,0,1,2,3.59c.62,1.3-.48-1.41,0,0,.09.25.18.5.26.76a19.19,19.19,0,0,1,.58,2.35,4.85,4.85,0,0,1,.18,1.19c.14-.1-.09-1.39,0-.17a16.76,16.76,0,0,1-.06,2.24,6.33,6.33,0,0,1-.32,2.05c.51-1,.21-.79.05-.32s-.33,1.05-.54,1.57a17.47,17.47,0,0,1-.84,1.87c-.16.31-.32.61-.49.91l-.11.17c-.34.57-.28.47.2-.29,0,.39-1,1.34-1.23,1.67-.53.65-1.09,1.27-1.67,1.87s-1.11,1.1-1.69,1.61a4.48,4.48,0,0,1-.81.7c1.32-.64.29-.24-.11.06a45.62,45.62,0,0,1-4,2.66c-1.24.74-2.51,1.43-3.8,2.07-.64.32-1.29.62-1.93.92-.34.15-.7.27-1,.45,1.59-.89.61-.26.15-.08a47.3,47.3,0,0,1-8.13,2.38c-.56.11-2.76.31-.54.13-.64.05-1.27.17-1.91.23a33.87,33.87,0,0,1-4.15.15c-.37,0-.74,0-1.11,0-1.37-.06,1.52.2.6,0-.66-.11-1.32-.16-2-.28s-1.16-.22-1.73-.37l-.68-.19c2.54.61.9.26.27,0s-1-.45-1.57-.69c-1.22-.55,1.5.93.71.4l-.73-.44c-.48-.31-.92-.66-1.37-1-1.08-.82,1.33,1.31.39.32-.23-.25-.48-.49-.72-.74s-.45-.54-.68-.81c-.83-1,.72,1.21.31.42s-.78-1.26-1.11-1.93a8.2,8.2,0,0,0-.36-.79c.82,1.26.22.53,0-.05a23.32,23.32,0,0,1-.54-2.45c-.21-1.18,0,.33,0,.34s0-1.07,0-1.26c0-.7,0-1.41.11-2.11s.21-1.41.33-2.12c.25-1.46-.41,1.27,0-.15.13-.42.24-.85.38-1.27a34.86,34.86,0,0,1,1.89-4.61c.35-.69.71-1.37,1.09-2,.15-.27.31-.54.47-.8l.48-.8c-.43.68-.46.73-.09.16a63.78,63.78,0,0,1,6-7.58q3.54-3.83,7.35-7.36c1.16-1.07,2.33-2.12,3.53-3.15.59-.51,1.19-1,1.8-1.52.36-.3.72-.62,1.09-.9-1.19.91,0,0,.24-.19a136.65,136.65,0,0,1,16.82-11.37q4.52-2.58,9.21-4.82c1.42-.68,2.86-1.33,4.3-2,.43-.18.87-.39,1.31-.55-.18.06-1.32.53-.23.1.87-.36,1.75-.71,2.63-1a115.36,115.36,0,0,1,18.52-5.56l2.11-.4,1-.16c1.43-.24-1.64.22-.2,0s2.88-.35,4.32-.47a65.55,65.55,0,0,1,8.29-.15l1.17.06c1.41.08-1.49-.14-.52,0,.71.07,1.41.14,2.12.23,1.39.17,2.78.4,4.15.7.62.13,1.23.27,1.84.43s2.76,1,.24,0c1.27.48,2.55.87,3.79,1.42.62.26,1.21.56,1.81.85s1.36.86-.64-.37l.93.54a29.17,29.17,0,0,1,3.23,2.26c.19.15.37.32.56.46-1.8-1.33-.79-.69-.36-.29s.86.84,1.27,1.28.81.9,1.19,1.37c.23.29.43.6.67.87-1.31-1.52-.49-.66-.2-.22a32,32,0,0,1,2.24,4.15c.23.5.55.59-.09-.24a4.9,4.9,0,0,1,.45,1.32,27.36,27.36,0,0,1,.73,2.69c.17.76.31,1.53.42,2.3.06.38.1.77.15,1.16.13.95-.07-1.48,0,0,.07,1.74.12,3.47,0,5.22a65.85,65.85,0,0,1-1.49,10.55c-.23,1.11,0,.08,0-.12-.09.48-.22.95-.34,1.42-.2.78-.41,1.56-.62,2.34-.47,1.7-1,3.39-1.5,5.08-8.19,26.37-21.4,50.8-35.8,74.24q-2.79,4.55-5.64,9l-1.29,2.05c-.22.34-.44.68-.65,1s-.79,1.24-.06.09c-.95,1.51-1.92,3-2.88,4.5-3.76,5.86-7.55,11.7-11.32,17.56-7.73,12-15.4,24.06-22.56,36.41-3.48,6-6.84,12.07-10,18.23-3.45,6.7-6.9,13.43-8.21,20.93s1,15.45,6.52,20.66c5.19,4.85,11.75,7.49,18.67,8.75s13.81,1.19,20.7,1.29q12.28.18,24.59,0,24.58-.26,49.15-1.72,12-.72,23.95-1.72c3.23-.27,6.66-2.69,5.59-6.37a8.74,8.74,0,0,0-8.65-5.9,1000.72,1000.72,0,0,1-101.42,3.33c-1.75,0-3.5,0-5.25-.11l-2-.09-1.18-.07c-1.28-.08,1.87.17-.1,0a53.73,53.73,0,0,1-8.55-1.52c-1.18-.31.79.25.81.25a5.3,5.3,0,0,1-1.08-.37c-.6-.21-1.18-.44-1.76-.69-.34-.15-.67-.3-1-.47-.61-.3-1.43-1,.46.28-.6-.42-1.24-.76-1.83-1.18-.24-.18-.46-.39-.71-.55-.77-.51,1.42,1.36.47.41-.46-.46-.9-.95-1.35-1.43s-.57-1.12.27.43c-.18-.32-.42-.62-.61-.93s-.25-.43-.37-.64-1.18-1.87-.3-.49a7.57,7.57,0,0,1-.67-2.32,6.89,6.89,0,0,1-.23-1.42c0,1.53,0-.06,0-.34a15.63,15.63,0,0,1,.55-5.36c-.5,1.36.05-.17.11-.41s.19-.66.28-1c.3-1,.63-1.95,1-2.91.66-1.75,1.42-3.47,2.22-5.16,3.07-6.5,6.49-12.84,10-19.11s7.16-12.46,10.91-18.59q2.79-4.56,5.64-9.08,1.35-2.16,2.72-4.31c.18-.29.79-1.24.06-.1l.79-1.23c.52-.82,1-1.64,1.57-2.46,8-12.43,16.07-24.78,23.88-37.32,15-24,28.89-49,37.62-76.06,4.59-14.23,8.47-30.06,1.73-44.27-5.76-12.14-18.66-19-31.49-20.91S223,243,210.7,247a141.21,141.21,0,0,0-38.58,19.2,146.37,146.37,0,0,0-16.87,14,77.66,77.66,0,0,0-13.64,16.7c-3.64,6.25-5.78,13.69-4.29,20.9,1.56,7.5,7.12,13.38,13.89,16.57,11.84,5.58,26.42,2.38,37.61-3.18,6-3,12-7.06,15.75-12.64,4.11-6.06,5.75-13.38,3.51-20.5a33.62,33.62,0,0,0-13.47-17.44c-7.21-4.85-15.69-6.81-24.29-6.95s-16.93,1.67-25.14,3.61q-11.25,2.67-22.35,5.88A477.27,477.27,0,0,0,35.59,318q-10,5.21-19.78,10.9c-3.13,1.82-3,6-.62,8.45,2.55,2.59,6.93,4,10.28,2Z"/><path d="M321.15,265.5l65-4.71,18.36-1.34a4.43,4.43,0,0,0,3.33-2.78,6.31,6.31,0,0,0-.49-4.76,9.33,9.33,0,0,0-9.13-5.09l-65,4.71-18.35,1.34a4.44,4.44,0,0,0-3.34,2.78,6.27,6.27,0,0,0,.5,4.76,9.32,9.32,0,0,0,9.13,5.09Z"/><path d="M598,439.46a1228,1228,0,0,1,17.58-268.63q1.44-8.19,3-16.36c1-5.23,2-10.38,3-14.68a68.19,68.19,0,0,1,4.76-13.58c.55-1.11,1.13-2.22,1.79-3.28-.15.25-.55.82.15-.2.34-.49.67-1,1-1.45a40.21,40.21,0,0,1,4-4.65q1.07-1,2.22-2c-1.18,1,.11-.07.31-.22l1-.75a46,46,0,0,1,5.28-3.33c.74-.4,1.49-.79,2.24-1.15.25-.12,1.81-.82.3-.16.46-.21.93-.4,1.4-.6,1.91-.77,3.86-1.45,5.83-2s3.7-1,5.57-1.46c1-.23,2.08-.45,3.12-.64l1.05-.2-.18,0,1.05-.17c4.09-.63,8.21-1,12.34-1.31,9.71-.65,19.47-.58,29.19-.71l34.78-.45,68.8-.89,137.62-1.78,17-.22c3.34,0,6.6-3.1,5.57-6.59-1.12-3.78-4.93-5.89-8.71-5.84L819.23,87.9l-69.54.9c-22.61.3-45.24.36-67.84.9-17.07.41-35.25,2-50.38,10.61A47.2,47.2,0,0,0,613,119.48c-4.82,9.15-6.56,19.64-8.5,29.68a1227.74,1227.74,0,0,0-21.77,271.21c.17,5.54.39,11.08.63,16.62a8,8,0,0,0,7,7.34c3,.39,7.79-.95,7.62-4.87Z"/><path d="M551.4,233.72c31.5-4.45,63.13-8.85,95-9.41a306.51,306.51,0,0,1,47.3,2.58,224.06,224.06,0,0,1,22.84,4.3,60.08,60.08,0,0,1,9.74,3.13,33.44,33.44,0,0,1,4.26,2.17,20.34,20.34,0,0,1,1.74,1.17c.35.27.69.55,1,.83s.44.18.69.63a11,11,0,0,0-1-1.11,29.42,29.42,0,0,1-2-2.81c-.68-1.09-.1-.2.05.11.38.76-.32-.95.17.42a17.68,17.68,0,0,1,1,3.94,13.24,13.24,0,0,1-1.35,8.09,10.47,10.47,0,0,1-11.17,5.43,16.8,16.8,0,0,1-5.84-2.42c-.31-.2-.81-.58-1.18-.88-.2-.15-.39-.32-.58-.48-.93-.75.52.28-.11-.09-.28-.16-1-1.07.11.16-.29-.33-.8-1,.4.5-.76-.94.48.64.51.67.77,1.11.93,1.34.49.68l.56.86c.79,1.32.26.51.1.16-.32-.7.4,1-.07-.13-.2-.46-.4-.93-.56-1.41a14.69,14.69,0,0,1-.64-3.27,17,17,0,0,1,1.34-7.7c4.32-11.07,15.6-17.68,25.83-22.49a258.15,258.15,0,0,1,42-15.64,168.54,168.54,0,0,1,22.67-4.57c6.09-.77,13.59-2.17,19.38.61a13.33,13.33,0,0,1,1.69,1.06c-2.71-1.82-5.79-9.87-4.65-6a11.33,11.33,0,0,1,.3,4,23.12,23.12,0,0,1-2.9,8.82c-3.35,6.34-8.37,11.76-12.82,17.32Q775,261.47,744,299.85T681.9,376.46q-15.52,19.05-31.09,38.07c-2.41,3-5.24,5.84-7.06,9.21s-1.59,6.42.15,9.73a44.15,44.15,0,0,0,6.21,8.72,19.79,19.79,0,0,0,4.68,4c2.56,1.49,5.53,2,8.4,2.59l97.15,18.66,97.47,18.73,23.64,4.54c1.5.29-1.76-4.67-2-5a43.17,43.17,0,0,0-3.52-4.58c-.63-.69-1.65-2.19-2.59-2.37L772.62,459.41,671.91,440.06l-12.31-2.37a69.88,69.88,0,0,1-10.34-2.29,20.32,20.32,0,0,1-3.29-1.67l2.87,3.93q3.88,6.38,2.72,3.54c0-.31-.08-.63-.1-.95a6.83,6.83,0,0,1,.5-3c1.36-3.48,4.2-6.33,6.52-9.17q16.2-19.78,32.34-39.6,32.07-39.37,64-78.91t63.6-79.2c4.39-5.49,9.15-11,11.29-17.8a15.84,15.84,0,0,0,.56-8.65,21.45,21.45,0,0,0-2.63-5.76,49.19,49.19,0,0,0-7-9,15.76,15.76,0,0,0-8.66-4.66,40.23,40.23,0,0,0-10.05-.09,155.94,155.94,0,0,0-23.11,3.78c-15.37,3.65-30.21,9.29-44.62,15.7-10.74,4.77-22.84,11.07-28.13,22.2a19,19,0,0,0-.91,15.48,45.49,45.49,0,0,0,6.32,10.68,46.15,46.15,0,0,0,8.33,8.93c3.63,2.81,8.33,5,13,4,5.26-1.11,8.32-6.23,8.61-11.33a19.6,19.6,0,0,0-1.77-8.85,51.27,51.27,0,0,0-9.35-13.94c-5.23-5.7-11.65-9.07-19-11.14-15.23-4.27-31.31-6.2-47.06-7.17-32.71-2-65.47,1.29-97.87,5.57-8,1-15.92,2.17-23.88,3.29-.74.11,3.24,6.27,3.56,6.7a35.94,35.94,0,0,0,3.42,4.07c.46.45,1.22,1.4,1.94,1.3Z"/><path d="M820.64,222l48.54,16.18,14,4.65a6.47,6.47,0,0,0,3.74-.37,19.22,19.22,0,0,0,5.17-2.62c.7-.5,5.61-4.42,3-5.28l-48.54-16.18-14-4.66a6.56,6.56,0,0,0-3.74.38,19.43,19.43,0,0,0-5.16,2.61c-.71.51-5.61,4.43-3,5.29Z"/></svg>