<svg xmlns="http://www.w3.org/2000/svg" viewBox="0 0 1920 1920"><defs><style>.a{fill:none;}.b{fill-rule:evenodd;}</style></defs><path class="a" d="M1525,1526.24a814.73,814.73,0,0,0-79.41-151.91q-23.68-35.47-50.73-68.29a820.87,820.87,0,0,0-57.12-62.64q-30.1-29.78-63-56.53l-8.26-6.61c-2.78-2.18-5.48-4.45-8.33-6.55L1241.23,1161c-5.73-4.12-11.5-8.19-17.27-12.27-2.87-2.07-5.81-4-8.75-6l-8.83-5.88q-35.46-23.29-73.25-43.07l-19-9.64-19.31-9.09c-13-5.84-26.06-11.55-39.38-16.73A815.58,815.58,0,0,0,974,1031l-20.9-5.44c-1.75-.47-3.45-.87-5.15-1.25l-5.1-1.18-10.2-2.33c-1.7-.38-3.42-.79-5.09-1.14l-5-1-10-2c-6.75-1.43-13.26-2.54-19.86-3.75-52.53-9.37-101.91-14.58-147.85-19.33-23-2.37-45.18-4.6-66.5-7l-15.81-1.84L647,982.73l-15.06-2.07c-2.54-.32-4.91-.72-7.36-1.09l-7.31-1.11c-38.59-6-72.85-14-100.61-24.47a232.27,232.27,0,0,1-37-17.36,177.08,177.08,0,0,1-28.89-21.07l-1.66-1.42a18.48,18.48,0,0,1-1.58-1.43c-1-1-2-1.93-3-2.87-1.91-2-3.92-4-5.77-6.14a153.45,153.45,0,0,1-11.06-13.65c-3.55-4.92-7.06-10.07-10.35-15.71s-6.49-11.55-9.54-17.81c-12.14-25.14-21.63-55.77-27.84-89.34-1.59-8.37-2.93-17-4.09-25.68-.62-4.34-1.09-8.78-1.62-13.18s-.94-8.89-1.3-13.4c-.78-9-1.4-18.11-1.77-27s-.53-17.58-.46-26.1a389.31,389.31,0,0,1,3.15-48.23A257.73,257.73,0,0,1,382.47,573a156,156,0,0,1,12.91-30.81A116.17,116.17,0,0,1,403,530.32l1-1.32.5-.67.24-.33a2.35,2.35,0,0,1,.21-.27,8.77,8.77,0,0,0,1.06-1.29,16.25,16.25,0,0,0,1.25-1.36,6.6,6.6,0,0,1,.7-.7c.25-.23.48-.48.71-.73a68.1,68.1,0,0,1,15.8-11.29,65,65,0,0,1,17.61-6.09c.59,0,1.21-.23,1.75-.28a13.22,13.22,0,0,0,1.57-.18,5.47,5.47,0,0,0,1.31-.09c.07.06,0,.08,0,0s0,0,0,0-.05,0,0-.06,0,0,0,0-.08,0,0,0,0,.06.09.13a1.71,1.71,0,0,0,.13.23c.15.21.38.53.58.77l.16.2.16.28.33.54c.23.36.46.72.7,1.07a10.92,10.92,0,0,1,.75,1.24c.25.44.51.89.78,1.32a137.73,137.73,0,0,1,7.19,14.87c2.56,6.11,5.19,13.29,7.79,21.36l1,3.07.49,1.53.48,1.7,1.94,6.81,2,6.8,1,3.4.88,3.54,3.56,14.14.45,1.77.4,1.83.8,3.67,1.61,7.34,1.62,7.33,1.45,7.6,1.46,7.6.74,3.8.37,1.9.32,2,2.66,15.7.66,3.93.61,4.05,1.21,8.1,1.22,8.1c.21,1.34.4,2.71.58,4.11l.56,4.17,2.25,16.69c1.4,11.48,2.85,22.7,4.19,34.58l8.28,72.89c2.85,25,6.15,51.18,10,77.82l3.05,20.15,3.49,20.52c.6,3.43,1.13,6.82,1.8,10.28l2,10.38,2,10.37c.69,3.45,1.44,6.89,2.16,10.33q8.68,41.32,20,81.94t25.47,80.26q14,39.66,30.6,78.34t35.69,76.1q19.07,37.46,40.5,73.64t45.3,70.84q23.81,34.68,49.84,67.83l13.18,16.42c4.41,5.47,9,10.82,13.46,16.22s9.14,10.68,13.73,16l3.46,4,1.73,2,.89,1,1.52,1.67,12.22,13.33,12.22,13.33c2,2.24,4.19,4.38,6.3,6.57l6.39,6.53,12.77,13,3.2,3.26c1.07,1.07,2.1,2.23,3.24,3.18l6.69,6,13.38,11.92,6.7,6c1.12,1,2.21,2,3.36,2.93l3.44,2.74c9.17,7.28,18.52,14.11,28,20.37a317.29,317.29,0,0,0,58.75,30.77,266,266,0,0,0,61.38,16.19,237.48,237.48,0,0,0,95-5.91,221,221,0,0,0,30.19-10.57l7.24-3.2c1.2-.55,2.44-1,3.6-1.63l3.52-1.76c2.33-1.19,4.72-2.28,7-3.55l6.81-3.85a242.36,242.36,0,0,0,25.76-17.48,272,272,0,0,0,23.62-20.71l5.54-5.76c.92-1,1.87-1.89,2.76-2.91l2.68-3,5.36-6.09,5.19-6.38L1293,1612l2.5-3.35,5-6.75,4.78-7.05,2.39-3.53c.8-1.18,1.53-2.45,2.3-3.66l4.57-7.38c1.49-2.51,2.87-5.17,4.31-7.75l8.56-15.59c2.69-5.39,5.26-10.91,7.9-16.35l3.93-8.2c1.28-2.76,2.5-5.57,3.75-8.35l7.45-16.74,7.35-16.81c2.44-5.61,4.93-11.2,7.32-16.83l3.68-8.63,2.57-6.13,3.84-9.23c1.28-3.08,2.56-6.16,3.83-9.3l3.8-9.39,3.76-9.51c2.53-6.31,5-12.83,7.45-19.26,4.87-13,9.7-26.23,14.27-39.87,2.33-6.73,4.53-13.69,6.76-20.59,1.11-3.45,2.16-7,3.24-10.51s2.15-7,3.16-10.61l3.06-10.74c1-3.57,2-7.27,2.94-10.9,2-7.24,3.74-14.74,5.55-22.16,3.45-15,6.71-30.28,9.3-46.1,1.41-7.8,2.47-15.91,3.63-23.9.53-4,1-8.14,1.46-12.21l.7-6.11.57-6.21,1.08-12.43.73-12.63c.11-2.11.25-4.2.33-6.32l.18-6.41c.1-4.27.24-8.52.27-12.82-.07-8.67,0-17.26-.48-26l-.29-6.56c-.1-2.18-.18-4.36-.37-6.57l-1-13.22a503.62,503.62,0,0,0-7.64-53.24c-1.63-8.88-3.83-17.72-6-26.56-.51-2.22-1.16-4.37-1.76-6.56l-1.86-6.52-3.79-13c-2.75-8.56-5.73-17-8.7-25.46-3.19-8.26-6.5-16.46-9.87-24.64a595.47,595.47,0,0,0-47.94-88.84,816.31,816.31,0,0,0-54.5-73.77c-18.47-22.43-36.91-43-54.77-62.27s-35.18-37.38-51.53-54.68-31.74-33.83-45.79-49.81l-32.17-38.82,4,2.22a95.65,95.65,0,0,1,9.21,6.48,69.58,69.58,0,0,1,6.67,6.57,12.74,12.74,0,0,0,1.31,1.53,13.52,13.52,0,0,0,1,1.51,7.42,7.42,0,0,1,.94,1.42c.16.23.32.45.5.67a3.93,3.93,0,0,1,.34.68,5.89,5.89,0,0,0,.37.64c.11.22.35.4.38.63a5,5,0,0,0,.59,1.21c.17.18.15.41.23.6a3.69,3.69,0,0,0,.23.58,1.51,1.51,0,0,0,.15.28l.08.13a.52.52,0,0,1,.09.23c.14.42.28.83.44,1.24a78.71,78.71,0,0,1,3.15,12c.49,2.34.84,5,1.24,7.77s.65,5.84.84,9.16c.93,13,.52,29.77-1.06,49.26s-4.34,41.85-7.35,67l-2.25,19.34c-.71,6.73-1.49,13.46-2.13,20.21-1.37,13.48-2.52,27-3.57,40.48q-3.08,40.53-4.21,81.16c-.71,27.08-.86,54.18-.29,81.27.15,6.77.3,13.54.54,20.31l.16,5.08.09,2.54.14,3.2c.19,4.26.38,8.53.69,12.78,1.11,17,3,34,5.65,51.27a504.08,504.08,0,0,0,11.12,52.76,432.5,432.5,0,0,0,19,55.83c1.93,4.76,4.26,9.74,6.51,14.6,1.09,2.41,2.35,4.92,3.61,7.41l3.8,7.45c1.31,2.5,2.76,5.07,4.16,7.58l2.13,3.78c.72,1.26,1.42,2.5,2.22,3.81q2.36,3.85,4.75,7.69l2.41,3.82,2.63,3.9c1.77,2.59,3.55,5.18,5.36,7.74.87,1.27,1.88,2.6,2.86,3.91l3,3.91,3,3.89c1,1.29,2,2.56,3.12,3.89,2.2,2.62,4.41,5.22,6.66,7.8,1.13,1.29,2.22,2.56,3.41,3.85l3.66,3.89q3.69,3.87,7.46,7.65c2.63,2.55,5.38,5.08,8.11,7.57s5.45,5,8.48,7.39,6,4.83,9,7.19l2.29,1.76,2.4,1.73,4.85,3.42,4.9,3.35c1.63,1.11,3.26,2.21,5,3.26q5.17,3.2,10.43,6.22c1.77,1,3.48,2,5.32,3l5.48,2.81c3.68,1.84,7.37,3.65,11.1,5.37s7.61,3.21,11.45,4.73l5.77,2.24c1.93.73,3.89,1.35,5.84,2q5.85,1.92,11.76,3.68c2,.62,3.93,1.12,5.9,1.6l5.9,1.43c3.92.91,7.92,1.85,11.82,2.56s7.79,1.3,11.69,1.87l5.86.82c2,.25,4.08.42,6.12.62q6.18.56,12.36.92c4.06.15,8.12.22,12.18.24,2,0,4.07,0,6.08,0l5.94-.25a269.92,269.92,0,0,0,45.52-6q5.32-1.22,10.62-2.53c1.79-.43,3.45-.93,5.15-1.41l5.07-1.48,5.06-1.54c1.7-.51,3.26-1.08,4.89-1.63q4.85-1.68,9.65-3.44a319.08,319.08,0,0,0,66.36-34.8c2.41-1.66,4.9-3.32,7.22-5l7-5.18c2.35-1.73,4.54-3.52,6.8-5.31s4.57-3.62,6.5-5.33q6.07-5.21,12-10.53c2-1.75,3.92-3.62,5.84-5.48l5.74-5.6a374.59,374.59,0,0,0,41.33-48.47c1.53-2.13,3.13-4.25,4.57-6.42l4.33-6.52c2.83-4.36,5.78-8.72,8.33-13.16s5.22-8.87,7.77-13.34q3.58-6.71,7.07-13.47l1.74-3.38c.57-1.13,1.08-2.25,1.62-3.38l3.16-6.79,3.12-6.8c1-2.27,1.92-4.53,2.88-6.79,1.85-4.53,3.77-9.09,5.48-13.63s3.29-9,4.9-13.59c.84-2.28,1.54-4.53,2.26-6.78l2.13-6.77,2.1-6.78,1.85-6.73,1.82-6.73c.6-2.24,1.22-4.5,1.72-6.71l3.08-13.34c.53-2.24.92-4.42,1.37-6.63l1.28-6.61,1.25-6.61,1-6.53c.67-4.35,1.42-8.75,2-13.06l1.61-12.92a620.56,620.56,0,0,0,2.88-99.53l-.29-6-.4-6c-.29-4-.52-8-.87-11.9l-1.09-11.81c-.34-4-.85-7.81-1.28-11.71-.84-7.83-2-15.5-3-23.23-1.21-7.65-2.35-15.34-3.76-22.91-2.67-15.2-5.85-30.2-9.38-45.08l-1.35-5.58-.67-2.79-.67-2.66-2.62-10.21c-.88-3.42-1.79-6.7-2.68-10s-1.79-6.68-2.7-9.93c-7.27-26.3-14.84-51.08-22-74.67l-10.49-34.46c-3.38-11.19-6.56-22-9.59-32.7s-5.77-20.9-8.34-31S1678,526,1676,516.54s-3.58-18.5-5-27.32-2.29-17.21-3-25.37-.94-15.89-1-23.4.39-14.63,1-21.6l-323.89-30.08c-1.55,17.43-2.31,34.73-2.36,51.76s.8,33.66,2.1,50,3.29,32.11,5.6,47.58,5.13,30.36,8.15,44.94,6.35,28.63,9.81,42.37,7.08,27,10.75,40,7.39,25.54,11.08,37.79L1400.1,739c7.11,23.24,13.81,45.32,19.59,66.24.74,2.64,1.44,5.22,2.12,7.79s1.41,5.18,2,7.69l2,7.58.24.94.2.85.4,1.68.81,3.35c2.12,8.93,4,17.9,5.58,26.82.87,4.47,1.47,8.9,2.21,13.34.56,4.4,1.27,8.84,1.71,13.19.22,2.18.55,4.39.72,6.54l.6,6.49c.2,2.16.29,4.27.46,6.41l.23,3.2.13,3.15a295.55,295.55,0,0,1-1.21,47.18l-.65,5.29c-.21,1.77-.55,3.4-.79,5.1l-.38,2.54-.49,2.4-.46,2.41c-.16.8-.27,1.64-.48,2.37-.37,1.51-.72,3-1.05,4.55a21.62,21.62,0,0,1-.57,2.18l-.58,2.14-.55,2.14-.66,2-.61,2a16.17,16.17,0,0,1-.64,1.93c-.46,1.22-.9,2.45-1.31,3.68s-1,2.26-1.4,3.41c-.24.55-.42,1.17-.68,1.67l-.74,1.53-.7,1.55c-.11.25-.21.54-.34.77l-.39.69c-.51.91-1,1.85-1.43,2.8s-1,1.66-1.51,2.51a22.06,22.06,0,0,1-1.5,2.35c-.25.38-.48.77-.71,1.16a12.14,12.14,0,0,1-.79,1,50,50,0,0,1-6.26,7.36c-.29.27-.56.54-.83.83a5,5,0,0,1-.84.81,18.63,18.63,0,0,0-1.77,1.56,3.47,3.47,0,0,1-.59.49c-.16.1-.29.3-.44.36a1.78,1.78,0,0,0-.38.28c-.12.14-.23.12-.33.21s-.31.16-.4.29,0,0,0,0h0c-.08-.13.09.16.34.6l2.47,4.5c.83,1.53,1.63,3.1,2.38,4.72s1.58,3.14,2.31,4.78c.36.82.72,1.64,1.06,2.48s.72,1.58,1.07,2.39c.69,1.6,1.32,3.29,1.93,5s1.22,3.15,1.75,4.79l1.53,4.71c.23.77.45,1.55.67,2.35s.4,1.64.6,2.29c.4,1.41.76,2.86,1.06,4.36l.21,1.12.22,1c.14.64.27,1.29.39,2s.22,1.33.32,2c0,.33.08.73.13,1l.14.84c.17,1.13.3,2.3.38,3.5,0,.33,0,.59.07.8l.07.7q.06.7.09,1.44t0,1.5l0,1.12a22.15,22.15,0,0,1-.07,2.29c0,.47,0,1-.08,1.51l0,.41c-1.16,10,1.51-13.23,1.22-10.55,0,.47-.09,1-.15,1.43-.12,1-.29,2-.51,3a5.07,5.07,0,0,0-.12.61l-.08.45c0,.31-.12.62-.19.94s-.16.65-.26,1l-.14.51c0,.17,0,.16-.07.25a9.3,9.3,0,0,1-.26.9l-.16.41,0-.06s0,0,0,0c.13-.3.3-.67.44-.93l.22-.39.18-.34.24-.45c.33-.59.66-1.14,1-1.64.1-.15.14-.18.29-.43l.39-.63c.27-.42.54-.82.81-1.21s.55-.77.83-1.13l.42-.53.55-.77q1.14-1.56,2.34-2.94l.61-.68c.18-.19.43-.5.69-.81q.75-.91,1.53-1.77t1.56-1.68l1.63-1.63q1.89-2,3.87-3.87c.66-.61,1.32-1.2,2-1.77l2.28-2.1q2.33-2.1,4.73-4c.77-.56,1.7-1.38,2.6-2.11s1.82-1.47,2.74-2.17,1.84-1.39,2.77-2,1.84-1.26,2.9-2.09q3.09-2.31,6.26-4.39c1.06-.7,2.11-1.36,3.19-2,.56-.39,1.35-.91,1.1-.77v0a.18.18,0,0,0-.09-.12s0-.09-.09-.17a2.26,2.26,0,0,0-.11-.22c-.07-.17-.17-.24-.28-.46a7.12,7.12,0,0,0-.35-.74,4.57,4.57,0,0,1-.41-.83c-.28-.72-.64-1.25-1-2.19a111.31,111.31,0,0,1-4.56-13.67,178.3,178.3,0,0,1-4-19.09c-1.09-7-1.9-14.32-2.38-21.73-.15-1.86-.21-3.71-.3-5.56l-.07-1.39-.07-2-.13-4.1c-.2-5.47-.31-10.93-.44-16.4-.46-21.88-.33-43.77.24-65.64s1.74-43.74,3.4-65.56c.85-10.91,1.77-21.81,2.88-32.7.51-5.44,1.15-10.87,1.72-16.32l2-17.14c2.79-23.53,6.16-49.88,8.56-79.1,1.19-14.64,2.1-30.08,2.47-46.3s.12-33.32-1.08-51.21c-.56-8.91-1.49-18.13-2.59-27.41s-2.62-18.83-4.5-28.51a402.56,402.56,0,0,0-15.77-58.88l-2.67-7.4c-.21-.61-.45-1.24-.73-1.92l-.79-2-1.61-4-3.27-7.9c-1.13-2.62-2.18-5.29-3.44-7.82q-3.65-7.68-7.46-15.29c-1.24-2.56-2.67-5-4-7.44l-4.15-7.34c-1.41-2.42-2.77-4.91-4.27-7.26l-4.5-7c-3-4.66-6-9.4-9.32-13.8s-6.5-8.92-9.84-13.27-6.89-8.46-10.39-12.64a394.28,394.28,0,0,0-45.56-45A416.77,416.77,0,0,0,1293.47,278q-6.63-3.86-13.32-7.6c-2.22-1.28-4.48-2.42-6.75-3.59l-7.89-4-4.36-2.17c-.75-.38-1.44-.69-2.13-1l-2.09-.95q-4.17-1.89-8.38-3.73t-8.44-3.6l-4.23-1.76-4.27-1.64q-8.56-3.25-17.21-6.26c-5.78-1.91-11.6-3.7-17.44-5.42s-11.71-3.22-17.6-4.66c-2.94-.72-5.89-1.41-8.84-2.09s-5.92-1.2-8.88-1.78a394.22,394.22,0,0,0-71.29-7.24l-8.86,0-4.43,0-4.4.17q-8.81.38-17.57,1c-11.61,1.09-23.2,2.33-34.54,4.43A353.87,353.87,0,0,0,954.69,244c-2.62,1-5.3,1.92-7.86,3l-7.72,3.3c-5.12,2.25-10.28,4.43-15.2,7s-9.92,5-14.79,7.63-9.57,5.52-14.3,8.34c-1.18.71-2.37,1.41-3.53,2.14l-3.44,2.26L881,282.22l-6.79,4.63c-2.2,1.61-4.38,3.25-6.56,4.89l-3.26,2.47-3.18,2.55c-2.11,1.71-4.23,3.41-6.31,5.16-4.09,3.56-8.23,7.07-12.12,10.82a297,297,0,0,0-22.4,23.33l-5.15,6.21c-1.73,2.07-3.31,4.24-5,6.37-3.3,4.24-6.34,8.68-9.41,13.09a261.69,261.69,0,0,0-16.31,27.84c-1.27,2.38-2.39,4.83-3.54,7.26l-1.7,3.67-.85,1.83-.77,1.87-3.05,7.48c-1,2.5-1.88,5-2.81,7.56l-1.37,3.8c-.45,1.27-.81,2.56-1.22,3.84l-2.34,7.7-2,7.76-.5,1.95-.43,1.95-.86,3.91c-.27,1.3-.59,2.6-.83,3.9l-.68,3.93c-.44,2.62-.93,5.24-1.27,7.86s-.8,5.24-1.08,7.87l-.8,7.88a260.1,260.1,0,0,0,2.7,63.44,281.34,281.34,0,0,0,18.37,64.05l3.07,8,1.54,4c.58,1.33,1.27,2.65,1.9,4l7.75,15.9,3.88,8c.65,1.32,1.27,2.65,2,4l2.22,3.91,8.88,15.66,4.43,7.83c.76,1.3,1.44,2.62,2.26,3.9l2.45,3.83,9.81,15.34c6.29,10.35,13.66,20.16,20.69,30.14l5.31,7.47c.89,1.24,1.77,2.49,2.68,3.72s1.84,2.5,2.7,3.61l8.36,10.8c4.58,6,9.17,11.52,13.76,17.2s9.19,11,13.79,16.52,9.17,10.62,13.76,15.88c18.29,20.79,36.31,40.08,53.6,58.38s33.84,35.6,49.25,52.24,29.64,32.6,42.3,48a494.65,494.65,0,0,1,32.88,44.25,272.28,272.28,0,0,1,21.93,40.2c1.21,3.18,2.5,6.33,3.78,9.46,1,3.13,2.14,6.22,3.17,9.3q.62,2.33,1.29,4.62l.68,2.3c.22.77.51,1.53.65,2.3.66,3.09,1.55,6.1,2,9.28a178.81,178.81,0,0,1,2.8,19.45c.12,1.69.25,3.39.4,5.08.1.84.11,1.72.14,2.6l.1,2.62c.25,3.44.13,7.1.22,10.68,0,1.82-.1,3.69-.13,5.53l-.06,2.78c0,.94-.11,1.9-.17,2.84l-.31,5.71-.52,5.86-.25,2.94-.37,3-.7,6c-.65,4.12-1.1,8.17-1.91,12.41-5.56,33.57-16.94,71.15-31.87,110.75-1.92,5-3.76,9.94-5.79,15l-3,7.56-3.09,7.64c-1,2.54-2.09,5.11-3.16,7.69l-3.21,7.72-.83,2c-.19.45-.24.55-.19.43v0c0-.07.11-.18.08-.18h0l-.2-.23-.18-.2-4.49-5.18c-3.4-4-6.89-7.82-10.19-11.87s-6.73-8-10-12l-9.81-12.22q-19.38-24.63-37.13-50.56t-33.85-52.91q-16.05-27-30.28-55.08t-26.7-56.9q-12.42-28.86-22.83-58.49t-19-59.75c-5.68-20.1-10.57-40.38-14.86-60.76-.53-2.54-1.1-5.09-1.61-7.64l-1.46-7.66L846.42,876c-.49-2.55-.9-5.21-1.35-7.81l-2.68-15.7L840,836.28c-3.18-21.81-6-44.24-8.73-67.89l-8.31-73.1c-1.4-12.46-3.07-25.52-4.65-38.35l-2.65-19.72-.67-4.93c-.21-1.63-.44-3.29-.7-5l-1.51-10.07-1.51-10.06-.76-5L809.6,597l-3.47-20.51L805.7,574l-.5-2.61-1-5.22-2-10.44-2-10.43-2.32-10.61-2.33-10.6-1.17-5.3-.59-2.64-.67-2.69-5.39-21.48-1.37-5.37-1.54-5.43-3.12-10.85-3.13-10.84-.79-2.71-.9-2.84-1.8-5.69c-4.9-15.23-10.58-31.11-17.48-47.59a459,459,0,0,0-25.08-51.07L728.62,343c-1.3-2.2-2.56-4.36-4-6.61l-4.28-6.65-2.16-3.31-1.09-1.65-1.16-1.67-4.74-6.71-2.53-3.52c-.84-1.17-1.67-2.33-2.64-3.56q-5.62-7.26-11.44-14.36-6-7-12.18-13.74c-4.22-4.41-8.54-8.75-12.9-13s-9-8.24-13.62-12.26-9.41-7.79-14.19-11.59c-4.63-3.31-9.24-6.65-13.93-9.88L624.22,232c-1.19-.78-2.4-1.52-3.6-2.28l-7.27-4.48c-4.83-3-9.86-5.68-14.88-8.36-2.53-1.31-5-2.69-7.59-3.91l-7.74-3.6a317.47,317.47,0,0,0-64.73-21.42,336,336,0,0,0-67.92-7.49c-5.69,0-11.45.08-17.09.26-5.3.28-10.55.62-15.78,1s-10.31,1.07-15.46,1.68S392,184.88,387,185.68a389.58,389.58,0,0,0-111.67,37.61,394.43,394.43,0,0,0-49.58,30.44,387.76,387.76,0,0,0-45.3,38.16l-5.32,5.35c-1.76,1.81-3.54,3.56-5.25,5.46-3.44,3.76-6.87,7.51-10.22,11.35S153,322,149.79,326c-.42.52-.76,1-1.11,1.42l-1.05,1.37-2.09,2.74-4.16,5.5a439.41,439.41,0,0,0-29.53,45.7,480.58,480.58,0,0,0-40.43,95.1,581.52,581.52,0,0,0-20,93.17,711.79,711.79,0,0,0-5.95,88.39q-.16,21.48.74,42.39c.59,14,1.51,27.62,2.7,41.39.57,6.87,1.3,13.79,2,20.69s1.59,13.85,2.55,20.82c1.86,13.91,4,27.89,6.69,42s5.58,28.18,9.09,42.39,7.34,28.45,11.85,42.77,9.42,28.65,15,43,11.82,28.7,18.66,43,14.52,28.5,22.82,42.54,17.48,27.91,27.33,41.48A480.69,480.69,0,0,0,197,1121.32c5.67,6.41,11.71,12.59,17.75,18.75l9.33,9c1.56,1.52,3.14,2.94,4.73,4.35l4.76,4.25a503.66,503.66,0,0,0,81.58,59.55,558.42,558.42,0,0,0,86.76,41.12,718.15,718.15,0,0,0,84.81,25.76c27.55,6.62,54.25,11.6,80.07,15.67l9.62,1.46c3.2.48,6.46,1,9.58,1.42l18.88,2.58,18.53,2.32,18.21,2.12c24.07,2.72,47.32,5.06,69.76,7.37s44.09,4.58,64.72,7.17,40.42,5.43,59.11,8.77c4.63.86,9.38,1.64,13.8,2.6l6.74,1.37,3.38.68c1.12.23,2.17.5,3.26.74l6.49,1.49,3.25.74c1.09.24,2.17.49,3.17.77l12.25,3.18a490.2,490.2,0,0,1,48.35,16.25c8,3.06,15.83,6.55,23.68,10l11.68,5.49,11.54,5.86q23,12,44.8,26.36l5.43,3.61c1.81,1.2,3.63,2.39,5.39,3.68l10.65,7.56,10.44,7.86c1.77,1.28,3.42,2.71,5.13,4.06l5.11,4.08q20.29,16.51,38.93,34.93a494.48,494.48,0,0,1,35.16,38.56q16.55,20.11,31,41.63a490.07,490.07,0,0,1,47.37,90.46Z"/><path class="b" d="M1406,1572.5c-1.82,2.64-4.29-1.46-6.4-2-1.3-6.13-3.29-13.1-.06-13.72Z"/><path class="b" d="M1092.45,1099.58c-2.64-1.17-4.92-2.27-6.94-3.32s-3.76-2-5.34-3a81,81,0,0,1-7.85-5.3c-4.61-3.41-8.78-6.93-18.14-10.74-8.27-4-12.22-4.88-15.15-5s-4.88.66-9.15-.28l-9.42-3.87-4.72-1.91-4.76-1.77c-6.37-2.34-12.71-4.69-19.1-6.9s-12.85-4.17-19.27-6.18c-3.19-1.05-6.45-1.89-9.68-2.81l-9.7-2.67a688.92,688.92,0,0,0-74-15.27c-23.64-3.53-46.12-5.73-67.49-7.18q-8-.51-15.8-.92l-15.29-.61c-5.09-.18-10-.27-14.86-.36s-9.75-.15-14.42-.15c2.2-2.54-5.54-3-11.93-3.83,1.34-5.67,8.07-9,17.59-11.14,22.86,1.13,45.94,2.77,69.41,5l8.81.88,4.39.44,4.47.51,17.84,2.09,18.07,2.41c3,.37,6.07.88,9.12,1.34l9.16,1.39c24.56,3.88,49.57,8.6,75.84,14.72,25.88,6.2,51.63,13.39,77.5,21.52-3.43,2.61-1.93,5.85,2.05,9.39a64.24,64.24,0,0,0,7.53,5.52l9.43,5.92c3.25,2,6.54,4.07,9.56,6.07a67.29,67.29,0,0,1,8,5.9C1092.52,1093.46,1094.7,1096.92,1092.45,1099.58Z"/><path class="b" d="M386,818.59c.55-2.37-.08-6-.22-9.13s.18-5.87,2.42-6.24a39.59,39.59,0,0,1,.79,5.47A21.19,21.19,0,0,1,389,813,7.77,7.77,0,0,1,386,818.59Z"/><path class="b" d="M66,813.61a262.06,262.06,0,0,1-7-38.51,154.82,154.82,0,0,1-1-18.49,54.82,54.82,0,0,1,.5-6.81,13.11,13.11,0,0,1,1.28-4.32c-3.41-13.28-6.58-26.15-9-41.56a308.43,308.43,0,0,1-3.53-56.1c2.47-4,4.94-8.35,8-9.93,2,12.86,4.57,29.79,7.45,47.71,1.41,8.87,2.88,18.1,4.36,27.36s2.82,18.23,4,27.07c2.41,17.67,4.15,34.28,3.83,47.39a60.73,60.73,0,0,1-2.26,16.71C71.24,808.61,69.07,811.89,66,813.61Z"/><path class="b" d="M500.42,495.86c-1.76-5,0-3.46,1.75-1.59a31,31,0,0,0,2.21,2.23c.43.31.46-.31-.47-2.33,1.73.1,3.42,3.61,4.29,6.88.78,3.48.69,6.74-1.17,6.44-1.12-1.7-2.13-5.22-3.24-7.8a15.54,15.54,0,0,0-1.64-3.26C501.58,495.74,501,495.46,500.42,495.86Z"/><path class="b" d="M561.78,927c3.08-1.82,5.76.64,7.61,12.28C566.31,941.1,563.61,938.66,561.78,927Z"/><path class="b" d="M946.39,1558.94c1.47,1.77,2.87,3.39,4.18,4.88s2.61,2.73,3.8,3.92a80.57,80.57,0,0,0,6.44,5.7,65.75,65.75,0,0,0,9.25,6.16,50.21,50.21,0,0,1,7.28,4.78,77.12,77.12,0,0,1,9.3,9.6,415.46,415.46,0,0,0,43.22,21.06,219.51,219.51,0,0,0,49,14.13,163.75,163.75,0,0,0,25.9,2,145.21,145.21,0,0,0,25.69-2.42,132,132,0,0,0,45-17.35,102.64,102.64,0,0,0,9.16-6.26c1.45-1.12,2.91-2.22,4.34-3.37l4.09-3.64c2.76-2.38,5.26-5,7.81-7.58,1.3-1.26,2.49-2.65,3.68-4l3.59-4.11c9.39-11.13,17.53-23.51,25.74-36.73a378.67,378.67,0,0,0,22.5-42.48l2.65-5.59c.84-1.91,1.67-3.83,2.51-5.75q2.52-5.75,5-11.53l9.8-23.37q4.88-11.71,9.77-23.52,2.07-5.12,4.16-10.24l3.39-8.49c2.29-5.63,4.5-11.4,6.78-17.1s4.49-11.5,6.7-17.32c8.83-23.25,17.41-47,24.89-71.21a696.75,696.75,0,0,0,18.86-73.68q1-5.39,2-10.78t1.79-10.92c.63-3.63,1.11-7.33,1.62-11l.75-5.52.38-2.76.31-2.79q.63-5.57,1.24-11.12c.4-3.7.66-7.45,1-11.16l.48-5.56c.11-1.87.23-3.73.34-5.59q.33-5.58.65-11.12c.22-7.44.61-14.78.58-22.12l.06-5.47c0-1.82.05-3.63,0-5.45,0-3.63-.1-7.24-.15-10.81s-.23-7.14-.34-10.67c-.06-1.77-.12-3.53-.19-5.27s-.1-3.49-.23-5.23c-.47-6.95-.69-13.76-1.3-20.43,6.56,10.3,11.37,25.33,14.14,43s3.37,37.94,1.89,58.5a429.61,429.61,0,0,1-9.08,61c-4.25,19.55-9.35,37.76-13.87,53.61-.6,3.21-1.1,6.26-1.52,9.18s-.83,5.64-1.12,8.26-.51,5.12-.66,7.51-.27,4.59-.31,6.73c-13.39,40.4-26.61,76.28-39.07,109.71q-2.34,6.24-4.66,12.41l-1.26,3.3c-.6,1.55-1.21,3.09-1.81,4.63q-1.82,4.56-3.62,9.1c-4.83,12-9.61,23.94-14.47,35.74-2.36,6-5,11.7-7.44,17.51-1.26,2.88-2.48,5.81-3.78,8.64l-4,8.36a323.31,323.31,0,0,1-17,31.83c-1.54,2.46-3,5-4.65,7.36l-4.8,7.13c-1.67,2.29-3.33,4.57-5,6.84l-1.25,1.71-1.3,1.64-2.6,3.27a215.29,215.29,0,0,1-22.46,23.9,175.14,175.14,0,0,1-26,19.26l-3.52,2c-1.18.67-2.33,1.38-3.57,2l-7.31,3.66-7.54,3.32a39.72,39.72,0,0,1-3.85,1.48l-3.9,1.37a141.08,141.08,0,0,1-32.4,7,158.77,158.77,0,0,1-16.61.74,163.56,163.56,0,0,1-16.56-1.19c-5.5-.64-10.95-1.69-16.36-2.87s-10.77-2.74-16-4.57a187.47,187.47,0,0,1-31-13.7,128.6,128.6,0,0,1-20.51-8.14,202.09,202.09,0,0,1-19.42-11.05c-6.41-4.06-12.83-8.46-19.47-13.17l-5-3.59q-2.55-1.8-5.14-3.7c-1.73-1.26-3.51-2.49-5.28-3.81l-2.7-1.94-1.37-1-1.35-1c-3.77-4.28-7.58-8.56-7.81-10.74-2.75-3.8-1.66-4.93.69-5.05S944,1558.6,946.39,1558.94Z"/><path class="b" d="M1327,1208.43c.29-7.3,1.24-18.57,2.6-27.84a67.67,67.67,0,0,1,2.61-11.59c1.06-2.85,2.38-4.41,4-3.9-.14-1.06-.24-2.13-.31-3.21s-.17-2.16-.21-3.26c-.09-2.18-.08-4.39,0-6.63s.29-4.51.41-6.84.33-4.69.54-7.1.47-4.87.62-7.39.28-5.08.37-7.7.2-5.29.07-8-.26-5.52-.53-8.35a320.66,320.66,0,0,0-1.39-50.32c-.51-4.37-1.12-8.76-1.73-13.21-.16-1.1-.3-2.22-.48-3.33s-.39-2.22-.59-3.33l-1.23-6.71-.63-3.38c-.2-1.13-.43-2.25-.7-3.37q-.8-3.35-1.59-6.72c-.54-2.26-1.09-4.51-1.63-6.78l-.84-3.41c-.27-1.14-.56-2.28-.91-3.39-2.71-8.94-5.27-18.14-8.7-27-.83-2.24-1.65-4.49-2.48-6.75l-1.25-3.39c-.43-1.12-.91-2.21-1.37-3.32q-2.82-6.63-5.66-13.33c-.92-2.26-2-4.41-3-6.6l-3.15-6.55-3.19-6.58c-1.08-2.18-2.26-4.29-3.4-6.44-2.3-4.27-4.58-8.61-7-12.87l-7.41-12.6L1277,894c-.63-1-1.3-2.06-1.94-3.09l-3.93-6.15c-2.62-4.11-5.23-8.26-8-12.22l-8.25-12q-4.26-5.87-8.52-11.75c-2.83-4-5.78-7.72-8.69-11.57s-5.83-7.7-8.82-11.4l-8.93-11.26-9-11c-24.15-29.25-48.82-56.92-71.6-84.07.71-8,10.27,2.5,16.69,6.37,18.25,22,36.87,39.25,55,57.45s36.08,37.33,52.07,63.31a282.16,282.16,0,0,1,36.29,49.78c2.77,4.54,5.29,9.39,7.8,14.23s5,9.66,7.22,14.77l3.37,7.58,1.65,3.79c.56,1.27,1.1,2.53,1.59,3.85q3,7.82,5.91,15.65a431.51,431.51,0,0,1,16.78,64.22,567.22,567.22,0,0,1,7.17,61.76q-.1,1.44-.21,2.94c-.09,1-.19,2-.28,3.07q-.27,3.13-.48,6.54t-.42,7c-.17,2.4-.34,4.88-.53,7.43s-.3,5.15-.46,7.82-.42,5.37-.63,8.13-.34,5.6-.61,8.44-.5,5.72-.76,8.65c-.12,1.46-.24,2.94-.36,4.42l-.45,4.43c-.29,3-.59,6-.89,9s-.7,6-1,9.09-.66,6.11-1,9.16-.78,6.1-1.18,9.16l-.57,4.59-.65,4.55q-.63,4.55-1.25,9.08c-.42,3-.92,6-1.35,9C1335.23,1218.93,1329.18,1213.37,1327,1208.43Z"/><path class="b" d="M1192.61,815.17l-2.92,2.55c-12.87-12.29-24.13-25.47-35.37-38.15-5.61-6.4-11.2-12.61-16.93-18.68s-11.64-11.82-17.83-17.19c4,.24,9.56,3.85,15.45,8s12,8.9,17,11.33C1168.17,782.92,1183.12,796.61,1192.61,815.17Z"/><path class="b" d="M1133.83,708.13c-1.26,3.22-8.11-2.5-15.06-9.87-3.47-3.67-7-7.78-9.94-11.4s-5.22-6.76-6.35-8.53a45.42,45.42,0,0,1,8.15,6.25c2.49,2.36,4.89,4.95,7.26,7.62s4.75,5.42,7.36,8.12A80.82,80.82,0,0,0,1133.83,708.13Z"/><path class="b" d="M1232.41,557.82a12.73,12.73,0,0,1,2.5,1.24,28.71,28.71,0,0,1,3,2.34c.54.47,1.09,1,1.65,1.52s1.06,1.16,1.59,1.79a30.87,30.87,0,0,1,3.06,4.2c3.79,6.08,6,14.3,2.94,21.42,6.37,14.44,8.33,32.5,8.17,52.81s-2.38,43.1-3.46,68.31c-2.38-2.15-4.11,3-5.12,9.57s-1.32,14.65-.76,18c4.52-1.18-1.55-16,4-11.76-.39,8.32-1.07,16.69-1.83,25-.38,4.17-.77,8.29-1.14,12.34s-.78,8.07-1.1,12c-1.39,15.67-2.16,30-1.25,41.73-2.19,1-2-4.1-3.55-4.42-1.58.53-1.65,7.49-2.2,12.37-2.5-1.59.89-36.61,2.86-20.73.75-7.45-.81-8.91.15-16.78-1.58,7.7-3.29,6.29-4.78,6.18-.75,0-1.44.23-2,2.15s-1.09,5.49-1.38,12c-1.79-1.08.55-12.51-1.54-12.77,1.84-7.25,5.17-7.28,7.56-12a106.75,106.75,0,0,1,.25-15c.42-6.29,1-13.36,1.48-19.54.9-12.36,1-21.38-2.71-15.74-1.06-8.5,2.86-21.24,6.09-33.53s5.78-24.32,2.34-31.77a193.75,193.75,0,0,0,1.59-30.5,200,200,0,0,0-2.56-26.18c-1.38-8.47-3.18-16.92-5.41-25.84-.54-2.24-1.18-4.46-1.76-6.78s-1.24-4.63-2-6.95C1235.75,567.72,1234.15,562.9,1232.41,557.82Z"/><path class="b" d="M1243.54,834.9c-1.47,8.38-4.9,16.77-6.94,8C1237.33,833.72,1240.38,834.1,1243.54,834.9Z"/><path class="b" d="M1245.82,864.19c.06,13.08-3.93,10.84-4.64,20.67C1237.88,878.63,1242.58,862,1245.82,864.19Z"/><path class="b" d="M1235.26,922.32c2.42.95,2.24,6.87,1.91,14.31-.16,3.72-.36,7.81-.34,11.84a54.29,54.29,0,0,0,1.16,11.45C1233.68,958.54,1235.64,935.84,1235.26,922.32Z"/><path class="b" d="M1238.59,985c.58,1.75,1.23,3.26,1.88,4.77l1,2.3.47,1.2c.16.43.32.91.47,1.38a45.34,45.34,0,0,1,1.61,6.76,84.61,84.61,0,0,1,1,9.87,31.15,31.15,0,0,1-4.15-10.19c-.54-2.25-1-4.78-1.42-7.6C1239.1,990.86,1238.81,988,1238.59,985Z"/><path class="b" d="M1645.36,1172.41q4.29-5.79,8-10.34c2.37-3.06,4.55-5.71,6.61-7.94a48.23,48.23,0,0,1,5.71-5.4,16.12,16.12,0,0,1,4.71-2.86c-.92,1-1.9,2.15-2.92,3.45s-2.19,2.71-3.32,4.2c-2.29,3-4.67,6.16-7,9.08C1652.4,1168.4,1647.81,1173,1645.36,1172.41Z"/><path class="b" d="M1443.65,670.81c3-20.37,5.43-43.07,5.07-66.94s-3.7-49-11.41-72.22a379.17,379.17,0,0,0-9.92-42.84c-1.1-3.68-2.28-7.38-3.45-11.08-.28-.91-.65-1.92-1-2.9l-1.07-3-2.19-5.94c-2.84-8-6.37-15.71-9.9-23.54l-1.34-2.92-1.45-2.85-2.94-5.7q-1.49-2.85-3-5.7l-1.52-2.85-1.62-2.77q-3.24-5.52-6.61-11l-1.69-2.75c-.57-.91-1.18-1.78-1.77-2.67l-3.6-5.31A328.3,328.3,0,0,0,1275.16,297.3c-3.46-1.95-6.91-3.9-10.4-5.74l-5.27-2.63-6.36-3.13-3.29-1.58c-1.11-.53-2.12-1-3.18-1.43l-6.32-2.69q-6.33-2.66-12.65-5.1c-4.23-1.59-8.49-3-12.73-4.44s-8.45-2.81-12.7-3.94c-8.5-2.33-16.9-4.54-25.28-6.1-22.87-8.23-48.68-12.28-74.24-13.15s-51,1.22-74.93,4c-57,6.52-111.11,29.05-154.12,63.69a270.81,270.81,0,0,0-30,28.25,244.92,244.92,0,0,0-24.87,32.55l-2.71,4.35c-.88,1.46-1.81,2.89-2.61,4.4-1.65,3-3.34,6-4.89,9s-3.06,6.12-4.51,9.21-2.75,6.26-4.07,9.41-2.41,6.39-3.57,9.6-2.12,6.49-3.15,9.73-1.76,6.58-2.62,9.87-1.43,6.63-2.15,9.94-1.16,6.65-1.64,10-.83,6.69-1.1,10-.63,6.67-.69,10l-.18,5c-.08,1.67,0,3.34,0,5l0,5,.25,5c.1,1.66.13,3.32.28,5l.44,5c.6,6.63,1.53,13.24,2.73,19.84a255.63,255.63,0,0,0,10.42,39.27c1.18,3.25,2.29,6.48,3.59,9.71s2.49,6.46,4.08,9.67q4.51,9.58,9,19.16l2.25,4.76a21.47,21.47,0,0,0,1.26,2.35l1.34,2.35,5.39,9.34,5.37,9.3,2.68,4.62c.94,1.53,2,3,3,4.54l11.92,18,3,4.46,3.21,4.36,6.41,8.67,6.39,8.6,3.18,4.28,3.4,4.16L888,715.28l3.35,4.07c1.13,1.32,2.3,2.74,3.4,4l3.34,3.73.83.93.62.65,1.21,1.28,4.85,5.07L908,737.5l2.43,2.44,10.11,12.44c3.38,4.08,6.77,8,10.17,12.07,15.47,15.26,31.5,29,47.64,42.4s32.42,26.78,48.42,41.43c32.9,30.12,64.81,63.62,89.87,97.86a378.89,378.89,0,0,1,31.91,51.12,273.6,273.6,0,0,1,19.55,48.79c-1.82.94-4.36,1.15-1.85,6.49a56.4,56.4,0,0,1,1.08,5.69q.48,2.83,1,5.66c.15.94.34,1.87.46,2.81l.29,2.83.6,5.61c.14,1.88.21,3.78.33,5.66s.27,3.73.24,5.64c0,3.8.15,7.53-.06,11.36-.07,1.91-.07,3.78-.19,5.69l-.41,5.75-.2,2.85-.32,2.9-.59,5.77c-1.06,7.78-2.16,15.54-3.78,23.52-1.44,7.91-3.41,16-5.33,24.24-2.15,8.28-4.24,16.63-6.77,25.28-2.38,8.59-5.09,17.45-7.79,26.51-1.46,4.57-2.75,9.13-4.26,13.84-.72,2.34-1.44,4.7-2.17,7.06s-1.5,4.78-2.25,7.19c-5.79,18.75-8.28,38.49-19.58,56.14-.94,5.47-2.32,11.33-3.78,17.36s-3.27,12.34-5.22,18.81c-.48,1.61-1,3.23-1.45,4.86l-.76,2.45-.38,1.23-.19.6v.14c0,.38,0,.75,0,1.2s0,.93-.06,1.4c-.12,1.89-.28,3.87-.46,5.91a46.13,46.13,0,0,0-5.58,9.4c-1.7,3.62-3.37,7.77-5.63,12a46.41,46.41,0,0,1-8.77,12,63.3,63.3,0,0,1-5.4,4.65c-1.8,1.4-3.57,2.66-5.23,3.92a41.8,41.8,0,0,0-13-6c-4.13-1.25-8.47-2.65-12.48-6-2.78-2.3-5.43-4.89-8.2-7.5s-5.44-5.35-8.4-8.49l-1.09-1.14-.55-.58-.28-.29-.62-.7c-1.81-2-3.62-4.08-5.43-6.14l-5.47-6.17c-1.83-2.06-3.59-4.19-5.4-6.3-7.25-8.41-14.34-17.11-21.44-26a984.92,984.92,0,0,1-78.87-115.18,1036.43,1036.43,0,0,1-62.64-125.72,1085.06,1085.06,0,0,1-42.94-124.6,88.13,88.13,0,0,1-8.32-19.6c-1-3.3-1.92-6.69-3-10.27s-2.39-7.34-3.88-11.46c-.22-2.95-.53-6-.91-9.27s-.82-6.57-1.25-10c-.88-6.94-2.09-14.27-3.22-22.1q-.9-5.84-1.94-11.87c-.35-2-.68-4-1-6.13l-1-6.26-4.41-25.68c-1.56-8.78-3.12-17.55-4.66-26.16s-3.22-17.36-4.76-25.62-3.17-16.4-4.72-23.95q-1.18-5.7-2.3-11c-.77-3.55-1.52-7-2.23-10.17.37-3.81.53-7.91.53-12.28s-.2-9.1-.51-14-.71-10-1.26-15.31-1.19-10.86-1.86-16.49c-.34-2.82-.67-5.63-1-8.54s-.78-5.83-1.17-8.77c-.77-5.9-1.54-11.86-2.32-17.84s-1.62-12.12-2.31-18.16c-.37-3-.64-6-1-9.06s-.69-6.06-1-9.07c-.47-4.71-.85-9.38-1.18-14s-.8-9.27-1.16-13.82-.75-9.05-1.12-13.48c-.17-2.2-.44-4.42-.7-6.62s-.56-4.37-.83-6.52c-2.13-17.18-6-33.25-12.78-46.77q-3-11.82-6.21-23.69c-.51-1.95-1.16-4-1.77-6.07l-1.89-6.14c-1.31-4.13-2.72-8.31-4.13-12.48a433.94,433.94,0,0,0-21.95-52.15c-1.14-2.24-2.24-4.47-3.43-6.72l-3.7-6.8c-2.4-4.5-5.21-9.1-7.93-13.66-1.33-2.27-2.83-4.57-4.32-6.87l-4.5-6.87c-1.54-2.3-3.23-4.6-4.85-6.89l-2.56-3.58c-.86-1.19-1.72-2.39-2.7-3.62l-5.75-7.29L650.81,333l-3-3.53-6.17-7c-1-1.18-2.1-2.31-3.19-3.42l-3.25-3.37c-2.19-2.22-4.36-4.48-6.61-6.65l-6.92-6.36-3.5-3.16c-1.16-1-2.39-2-3.59-3.06l-7.28-6c-3.87-2.94-7.81-5.83-11.77-8.71-1-.71-2-1.45-3-2.13l-3.08-2-6.19-4a272.2,272.2,0,0,0-26-14.39,297.06,297.06,0,0,0-56.79-20.67c-3.59-1-7.24-1.74-10.89-2.54s-7.32-1.62-11-2.2-7.42-1.23-11.16-1.81-7.5-.92-11.27-1.34c-1.89-.2-3.78-.44-5.68-.58l-5.7-.39-5.73-.35-2.87-.16c-.95,0-1.82-.05-2.73-.08-3.62-.09-7.21-.15-10.82-.19s-7.14.11-10.74.2l-5.38.18-5.33.36c-3.55.27-7.14.5-10.67.87s-7.06.83-10.6,1.29l-2.65.35-2.62.42-5.25.88c-7.05,1.13-13.91,2.74-20.88,4.34-6.83,1.81-13.76,3.62-20.48,5.91a406.1,406.1,0,0,0-50.66,25.4,362.09,362.09,0,0,0-46,32.25A315.51,315.51,0,0,0,190.29,342c-1.57,1.93-3.13,3.87-4.7,5.81l-2.33,2.93-1.16,1.47-1,1.38c-2.69,3.67-5.42,7.34-8,11.11s-5.13,7.58-7.55,11.47S160.71,384,158.46,388c.82,1.57,3.61,1.1.32,6.9-12.07,17.51-22.52,42.83-30.44,69.21-4,13.19-7.56,26.68-10.85,39.8s-6.47,25.87-10,37.79c-3.29,39.82-.49,75.75,3.43,115.63,1,10,2.14,20.19,3.3,30.8s2.48,21.46,3.81,33c2.71,22.93,5.58,48.26,9.53,77.33,10.24,21.62,19.44,56.94,32.77,94.31a580.73,580.73,0,0,0,22.86,55.77A333.19,333.19,0,0,0,211.22,997a416.78,416.78,0,0,0,23,37.83,489.88,489.88,0,0,0,30.4,40l4.1,4.81c1.36,1.6,2.71,3.2,4.12,4.74,2.8,3.09,5.53,6.22,8.27,9.19,5.56,5.79,10.88,11.5,15.93,16.9,5.22,5.19,10.09,10.17,14.46,14.88.55.58,1.08,1.18,1.62,1.74l1.62,1.63,3.09,3.2c2,2.1,3.82,4.12,5.5,6.06l5.21,4,1.3,1,1.33.93,2.65,1.85,10.65,7.37c1.79,1.2,3.56,2.5,5.39,3.62l5.51,3.42q5.56,3.42,11.31,6.86c1.91,1.19,3.89,2.16,5.87,3.25l6,3.2,6.19,3.22,3.17,1.61,3.23,1.49c4.34,2,8.81,4,13.45,6l3.51,1.5c1.18.48,2.37.92,3.58,1.38l7.35,2.75c5.61,2.94,9.43,5.75,13.69,8.29a87.8,87.8,0,0,0,16.38,8,78,78,0,0,1,12.43,1.24q3.57.62,7.56,1.48c2.65.52,5.43,1.07,8.34,1.73q6,2.5,12.49,5,6.45,2.31,13.34,4.61l7,2.29,7.12,2.09c4.79,1.37,9.74,2.79,14.74,4.07a635.47,635.47,0,0,0,62.58,12.41c21.34,3.18,42.64,5.34,63.06,6.9s39.77,2.38,57.48,2.81c3.73,2.86,10.44,3.25,17.22,3.68s13.59.89,17.76,3.87c28.83,1.52,57.49,2.88,85.48,5.38l5.26.46,5.19.55,10.4,1.1c3.45.4,6.83.87,10.26,1.31l5.13.67,2.57.34,2.52.4c6.68,1.09,13.55,2.06,20,3.42l9.82,1.93c3.26.73,6.51,1.54,9.76,2.31a390,390,0,0,1,38.63,11.44c3.18,1.1,6.3,2.38,9.45,3.57s6.29,2.39,9.38,3.74l9.24,4.08,4.6,2.07c1.52.72,3,1.49,4.52,2.23a313.19,313.19,0,0,1,66.72,43.81,112,112,0,0,0,6.09,16.84l1.85,4.12,1.81,4.17c1.2,2.77,2.38,5.49,3.47,8.16a70.27,70.27,0,0,1,4.74,15.5,26.88,26.88,0,0,1-.82,13.77c2.34,3.6,6.11,7.7,9.34,11.56a37.38,37.38,0,0,1,4,5.7,10.17,10.17,0,0,1,1.59,4.94c-3.8,2.11.17,6.74-.23,9.94,4,6,9.29,13,14.84,20.75,1.4,1.93,2.9,3.83,4.34,5.83s2.91,4,4.42,6.06,3.06,4,4.62,6.07,3,4.13,4.62,6.17,3.2,4,4.77,6,3.13,4,4.73,6,3.25,3.84,4.83,5.73,3.16,3.77,4.77,5.55,3.24,3.5,4.88,5.15,3.16,3.3,4.76,4.83a108.71,108.71,0,0,0,9.65,8.06c4.72,1.14,9.64,2.49,14.3,3.47s8.89,1.71,12.55,1.34,6.64-1.75,8.48-4.85a15.11,15.11,0,0,0,1.85-6,30.27,30.27,0,0,0,.16-4.16,35.23,35.23,0,0,0-.45-5c6-3.17,10.55-8.75,14.79-14.47s8.17-11.58,13.08-15,10.84-4.47,19.14-.25c4.07,2.16,8.72,5.64,14.12,10.77,2.59,2.63,5.37,5.68,8.34,9.19,1.47,1.76,3.06,3.6,4.57,5.63s3.07,4.19,4.68,6.47c4.32,1.44,8.57,3.1,12.49,4.66a70.89,70.89,0,0,0,11.22,3.7c7.12,1.5,13.52.51,18.94-6.85-1.23-6-1.82-11.57-2.43-17s-1.13-10.78-1.85-16.5c-.34-2.88-.88-5.76-1.48-8.8s-1.35-6.21-2.26-9.57c-.45-1.68-.94-3.41-1.5-5.18s-1.23-3.55-1.93-5.41c-1.4-3.71-3-7.65-5-11.87,6.33,4.84,2.92-1.48,5.25-3.73-2.28-3.69-5.16-7.62-8-11.63l-4.25-6c-1.42-1.94-2.83-3.82-4.11-5.65a68.57,68.57,0,0,1-6-9.75c-1.28-2.78-1.81-4.88-.93-6.16,1.69,2.15,3.22,4.23,4.73,6.17s3,3.74,4.36,5.44c2.8,3.4,5.52,6.29,7.92,9a165.41,165.41,0,0,0,13.63,13.15c4.22,3.83,8.34,7.35,12.69,11.59a93.65,93.65,0,0,1,6.58,7.14c2.25,2.67,4.59,5.64,7.06,9.06,14.94,12.66,24.92,13.72,34,13.88,4.55.08,8.9-.07,13.57,1a30.13,30.13,0,0,1,7.3,2.77,39.27,39.27,0,0,1,8,5.9c2,5.53,2.91,8.83,4.29,12.13a75.07,75.07,0,0,0,6.68,12.32c5.54,1.53,7.06-1.77,9-3.23,1-.72,2.11-1,3.92.11a18.17,18.17,0,0,1,3.32,2.74c.66.66,1.39,1.43,2.18,2.33s1.61,2,2.53,3.13a22.46,22.46,0,0,0,.2-3.68,25,25,0,0,0-.45-3.77,50.22,50.22,0,0,0-2.41-8.09c-1.09-2.85-2.42-5.88-3.9-9.15s-3.28-6.7-5-10.47a27.81,27.81,0,0,0,1.1-8.11,53,53,0,0,0-.94-10.15c-.66-3.66-1.6-7.61-2.77-11.78-.58-2.09-1.22-4.24-1.91-6.43s-1.52-4.38-2.34-6.63c-1.67-4.5-3.51-9.16-5.46-13.92-.95-2.4-2-4.75-3.12-7.14l-3.29-7.21c-4.37-9.73-9.4-19.3-14-28.73-17.69-24.94-34.4-47.31-50.7-68.1l-6-7.76-6.12-7.53-6-7.45-3-3.7-3.06-3.6-12.1-14.26-12.28-13.74-3.06-3.4-3.12-3.32q-3.15-3.3-6.27-6.6l-6.29-6.56c-2.11-2.16-4.28-4.25-6.44-6.37-4.33-4.21-8.62-8.48-13.08-12.57s-9-8.12-13.6-12.16a457.38,457.38,0,0,0-61.19-44.57c.47-2.08-1.28-4.9-4.48-8.08a63.45,63.45,0,0,0-5.79-5,86.45,86.45,0,0,0-7.42-5.19c-5.4-3.39-11.48-6.75-17.42-9.72a176,176,0,0,0-16.84-7c-6.29-7.06,1.94-10.75-11.88-19.29-13.67-2.94,1.5,6.81.24,10.26-4.3-1.39-9.87-3.51-16-6s-12.93-5.07-19.46-7.9c-13.18-5.43-25.58-11.22-31.23-15.26-4.1-.76-8.56-1.82-13.32-3.09s-9.9-2.57-15.21-4.11l-8.13-2.38c-2.76-.83-5.62-1.56-8.48-2.38-5.75-1.58-11.61-3.31-17.59-4.92s-12.07-3.07-18.11-4.55c-3-.77-6.06-1.41-9.09-2l-9-1.81c-3-.57-5.94-1.12-8.85-1.63s-5.68-.82-8.45-1.18c-5.52-.68-10.89-1.28-15.89-1.51a106.79,106.79,0,0,0-11.64-6q-3.3-1.49-7-2.94t-7.72-2.69a261.79,261.79,0,0,0-39.33-9.28c-1.22,4.44-8.26,6.22-14.56,8.31-20.91-1-38.95-2.78-55.31-4.86s-31.28-4.64-45.92-7.12c-7.3-1.24-14.44-2.45-21.79-3.59-7.18-1.14-14.59-2.19-22.08-3.1s-15.25-1.65-23.16-2.22c-4-.29-8.11-.49-12.25-.67s-8.37-.31-12.75-.35c-9.1-3.09-20.65-5.67-33.25-8.17l-4.8-.92-4.82-.95c-3.25-.63-6.57-1.25-9.95-1.84l-10-2c-3.38-.64-6.82-1.24-10.11-2-3.94-1.86-8.09-3.6-12.2-5.43s-8.19-3.69-12.44-5.46c-4.09-1.89-8.25-3.75-12.52-5.55s-8.23-3.81-12.47-5.63c-1.08-.43-2.06-1-3.08-1.44l-3-1.45c-2-1-4.1-1.91-6.17-2.83-4-2-7.94-4-12-5.84-1.9-1-3.82-2-5.76-3l-2.92-1.47c-1-.5-2-.94-2.89-1.49q-2.76-1.57-5.57-3.09c-1.86-1-3.83-1.94-5.55-3.06a368.86,368.86,0,0,1-40.27-26.5l-2.39-1.75-1.2-.86-1.09-.9-2.22-1.76c-.75-.59-1.52-1.14-2.23-1.78-1.44-1.25-2.94-2.42-4.41-3.66s-2.9-2.54-4.38-3.78c-5.8-5.15-11.53-10.63-17.16-16.38.52-11-4.38-21-10.11-32.35-.71-1.42-1.46-2.82-2.22-4.23l-2.2-4.36-1.12-2.17-1.07-2.25-2.12-4.47a97,97,0,0,1-6.4-18.48c-4.35-19.66-5.64-40.81-7.13-62.35s-3.22-43.66-8.56-66.61c-.4-5.35-3.69-1.57-4.28-6.25-.39-17-1.46-36.19-1.39-55s1.23-37.15,4.34-52.58a110.77,110.77,0,0,1,4.38-15.64c.83-2.51,1.83-4.83,2.74-7.2.47-1.18,1-2.29,1.48-3.43s.95-2.29,1.48-3.36,1-2.19,1.49-3.29l1.51-3.17c.95-2.17,2-4.13,2.9-6.23.47-1,1-2,1.4-3l.64-1.53.67-1.48c.44-1,.84-2,1.22-3s.81-2,1.17-3c1.72-4.64,3.22-9,4.67-13,.16-.52.33-1,.49-1.53s.35-1,.53-1.46c.33-1,.64-2,.93-2.95s.63-1.89.91-2.85c.14-.49.27-1,.4-1.45a10.39,10.39,0,0,0,.18-1.07c.56-5.57,1.16-12.08,1.39-19.63a40.93,40.93,0,0,0,7.19-8c2.43-3,4.8-6.6,7.69-9.67a46,46,0,0,1,4.49-4.45,25.32,25.32,0,0,1,2.46-1.87,21.43,21.43,0,0,1,2.58-1.63,19.32,19.32,0,0,1,8.4-2.39,21.12,21.12,0,0,1,2.95.26,5.47,5.47,0,0,0,1.15-1.9c.25-.64.44-1.31.71-2a4.64,4.64,0,0,1,1.3-1.79,5.23,5.23,0,0,1,1.17-.74,7.85,7.85,0,0,1,1.66-.42c3.54-1.18,3.92,1.06,5.8,1.57-.85-4.74-2.61-3.3-1.14-7.64-.64.26-1.25.49-1.85.71s-1.16.41-1.73.67c-1.14.49-2.2.9-3.22,1.27s-2,.89-2.95,1.28a25.25,25.25,0,0,0-2.74,1.28c-.89.47-1.76.93-2.63,1.42a28.22,28.22,0,0,0-2.57,1.73l-1.3,1-.65.51-.64.59c-.86.81-1.74,1.67-2.64,2.61a29.35,29.35,0,0,1-3.61.47,10.36,10.36,0,0,0-2,.43,14.88,14.88,0,0,0-2.39,1.29,113.67,113.67,0,0,0-20.66,29.05c-.54,1.31-1.14,2.56-1.72,3.8s-1,2.5-1.47,3.72c-.19.62-.4,1.24-.61,1.83l-.33.89-.42,1.07c-.35.81-.69,1.63-1,2.45s-.73,1.6-1,2.46c-2.73,6.63-5.3,13.6-7.86,21.1-2.47,7.2-5.17,14.71-7.75,22.62s-5.07,16.17-7,24.61c-3.93,16.85-5.62,34.43-2.73,49-.48,3.38-1.84,4.29-3.28,5s-3,1.11-3.75,3.64c1.79,8,1.18,15.6.38,23.77s-1.8,16.88-.57,27c.89,7.13,3.11,13.68,5.39,20.44s4.57,13.63,5.64,21.59c2.25,16.11,3,29.13,4.14,42.61.33,3.33.62,6.74,1,10.19s.83,7,1.46,10.58a178.3,178.3,0,0,0,5.25,23.21c-2.14,8.11.95,19.86,4,29.66.76,2.45,1.53,4.77,2.14,7s1.22,4.15,1.54,6a16.89,16.89,0,0,1,.31,4.63,4.2,4.2,0,0,1-1.46,3c-3.38-1.89-4.23-7.13-5.16-12.54s-1.89-11.1-5.86-14.24c.36,3,1,6.11,1.23,8.92s.23,5.15-.73,6.72c-9.72-12.34-19.28-20.7-28.59-30.91-2.32-2.56-4.58-5.27-6.88-8.16s-4.46-6.08-6.58-9.6a118,118,0,0,1-11.65-26.15c-2.94-18.42-5.59-34.49-8.25-48.83s-5.44-26.93-8.32-38.2c.41-31,2.14-64.35,7.38-96.63.62-4,1.38-8,2.1-12,.4-2,.79-4,1.19-6s.87-3.93,1.29-5.91c1.77-7.85,3.74-15.59,6-23.12s4.78-14.84,7.54-21.94c.72-1.75,1.37-3.56,2.12-5.27l2.21-5.19,2.34-5.06c.76-1.7,1.63-3.3,2.43-5q4.95-9.82,10.66-18.86l2.91-4.45c1-1.46,2-2.87,3-4.33l.75-1.08c.25-.37.47-.61.7-.92l1.35-1.79,1.32-1.8,1.47-1.75c1.85-2.39,4-4.65,6-7q1.67-1.67,3.29-3.37c1.07-1.14,2.3-2.17,3.42-3.28a155.57,155.57,0,0,1,14.79-12.2,181.85,181.85,0,0,1,16.14-10.32c5.54-3,11.15-5.75,16.74-8.15s11.17-4.23,16.62-5.86l4.07-1.07c.67-.18,1.35-.4,2-.54l2-.43c1.32-.27,2.66-.66,3.95-.87s2.6-.45,3.87-.7c.31,0,.64,0,.94.1l.83.17,1.65.3c1.1.2,2.17.29,3.24.57s2.11.43,3.15.6,2.06.49,3.09.68c2.06.33,4.05,1,6.08,1.35,1,.23,2,.57,3,.79l1.53.35c.51.1,1,.3,1.51.44,1,.3,2,.57,3.07.81s2,.67,3.08,1c.52.16,1.06.27,1.58.45l1.57.56,1.61.52a11.89,11.89,0,0,1,1.62.55c1.06.43,2.16.83,3.3,1.21s2.19,1,3.36,1.4c.56.24,1.18.41,1.74.71l1.72.83a37.4,37.4,0,0,1,3.56,1.72c.26.73.56,1.45.88,2.15s.71,1.36,1.06,2.11c3.21,6.54,7.81,12.71,12.89,19.6l1,1.48,1.17,1.61c.83,1,1.6,2.3,2.42,3.47,1.68,2.28,3.31,5,5.07,7.52,3.39,5.42,6.94,11.28,10.32,17.66a246.37,246.37,0,0,1,17.34,41.32c1.09,3.56,2.1,7,3,10.38s1.77,6.53,2.29,9.72a96.55,96.55,0,0,1,1.78,17,27.37,27.37,0,0,1,5.9,7.65,75.37,75.37,0,0,1,4.91,11c.73,2.07,1.5,4.18,2.09,6.45s1.19,4.61,1.72,7c1.07,4.78,2,9.75,2.75,14.78s1.17,10.23,1.53,15.2c.19,2.49.33,5,.45,7.34s.11,4.8.12,7.09c0,4.58-.11,8.84-.35,12.6-.12,1.88-.27,3.64-.45,5.25s-.43,3.13-.68,4.45c2.47,1.61,4.37,4.77,5.82,8.91a68.67,68.67,0,0,1,3.1,14.83c.64,5.59,1,11.58,1.07,17.4s0,11.58-.15,16.52c-1.87.29-6-16.06-3.85.45.52,7.77,2.64,7.55,3.94,11.48-2,7.51-3,17.16-6.74,20.89a75.49,75.49,0,0,0,2.44,16,77.39,77.39,0,0,1,2.47,16.05c-3-3.82-6.27-6.34-8.24-15.38a103.47,103.47,0,0,1-1.81-13.11,53.59,53.59,0,0,1,.1-8.73c.45-5,1.44-8.72,1.52-14.52-3.15.89-3.15,8-5.58-3.32,3.68-3.08,2.46-9.31,1.06-16.13s-3-14-.1-19.49c1.07,7.16,2.45,12.74,4.47,15.16-1.48-7.56-3.15-15.73-4.79-23.7s-3.42-15.44-4.94-21.85c.59,4,.69,9.73-.77,4,.88,33.81,2.15,67.43,4.56,101.4s5.91,68.29,11.24,103.32l2.06,13.16.52,3.28.58,3.33,1.2,6.64c1.61,8.87,3.16,17.71,5.09,26.65q1.41,6.69,2.81,13.39t3.08,13.34c2,8.93,4.35,17.78,6.61,26.69,1.11,4.46,2.39,8.88,3.6,13.32l3.72,13.35q2,6.64,4,13.32c1.33,4.46,2.65,8.92,4.09,13.36l4.27,13.37c1.39,4.48,3,8.91,4.47,13.38s3,9,4.58,13.43l4.81,13.45a41.53,41.53,0,0,0,.55,7.79c.46,2.93,1.14,6.15,1.95,9.56s1.76,7,2.75,10.65,2.14,7.33,3.2,11c18.66,40.29,31.88,69,49.09,74.22-11-23.8-20.91-45.11-31.46-70.48a856.71,856.71,0,0,1-33.22-95.44,106.61,106.61,0,0,1-.1-23.35c.83-6.46,2.61-11.37,5.8-14.14,10.7,31.7,19.89,64.93,30.24,97.55S682,1164,697,1192.17c4.31,8.07,7.59,10.65,11.34,18.4,2.94,5.94,5.7,11.52,8.3,16.79s5,10.23,7.34,15,4.4,9.26,6.52,13.56,4.08,8.43,6,12.47,3.77,7.93,5.63,11.76l5.5,11.42c1.82,3.79,3.77,7.53,5.7,11.37s3.94,7.72,6.08,11.69c16.63,30.82,36.53,61.3,57.84,90.71s44.17,57.68,66.41,84.83c1.22,1.5,2.37,3,3.49,4.64L888,1496l1.22,1.6,2.4,3.22c3.2,4.33,6.38,8.76,9.74,13.12q2.52,3.29,5.2,6.48c1.84,2.1,3.79,4.13,5.8,6.1a84.81,84.81,0,0,0,13.22,10.73c-4.35-5.13-8.76-10.28-13.19-15.4L909,1518l-3.21-3.9-6.43-7.75-6.44-7.66-3.21-3.8-.38-.45-.28-.35-.56-.71-1.12-1.42q-4.5-5.65-9-11.09l-8.7-10.64q-4.26-5.19-8.4-10c-5.39-6.46-10.54-12.34-15.31-17.38-10.44-16.91-25.37-39.18-40.31-62.6s-30-47.88-41.91-68.33c-9.66-21.55-19-41.41-28.26-60.8q-3.45-7.29-6.87-14.51l-3.46-7.2-3.39-7.24c-2.25-4.82-4.61-9.61-6.85-14.48l-6.78-14.66c-9-19.73-18-40.15-26.55-62.55a744.63,744.63,0,0,1-24.08-74.18c2.42-3.78,2.25-8.79,1-15.17-.6-3.2-1.5-6.73-2.52-10.61s-2.22-8.08-3.2-12.69c3.9-.4,5.64-4.19,5.84-10.4a68.87,68.87,0,0,0-.77-11.05c-.53-4.23-1.36-9-2.42-14.09-4.72-10.86-3.33,8.35-7.29-2.55a113.82,113.82,0,0,1,.11-16.94c.55-4.81,1.73-8.44,4.22-9.94C655,963.73,658.3,976,658,981.71c1.25-1.31,1.77-3.82,1.95-6.88s.15-6.69.12-10.19c0-7,.17-13.51,3.81-14.25,10.64,39.81,24.65,76.07,39.6,111.37,7.37,17.7,15.14,35.13,22.69,52.85q2.9,6.62,5.7,13.32l1.39,3.36,1.45,3.35c.95,2.24,1.89,4.48,2.85,6.73,3.69,9.05,7.55,18.13,11.16,27.47a109.5,109.5,0,0,1,.18,14.84,58.61,58.61,0,0,0,1.49,16.15c4.33,2.71,3.87-2.95,2.93-10s-2.4-15.51-.56-18.31c3.45,5,7,10.83,10.58,17s7.43,12.64,11.22,19,7.66,12.56,11.46,18.16a151,151,0,0,0,11.12,14.54c.6,5.1-3.36,5.83,3.38,16.68,1.09,2.13,2.13,4.24,3.24,6.3s2.22,4.08,3.31,6.1q3.3,6,6.57,11.77c2.25,3.8,4.48,7.5,6.7,11.14s4.41,7.19,6.69,10.62c4.54,6.88,8.92,13.54,13.52,19.83l6.77,9.34c2.24,3.06,4.58,6,6.85,9,18.25,23.6,36.66,44.36,56.19,66.66l5.52,6.34,5.55,6.25c3.71,4.14,7.28,8.35,11,12.43l11,12.29,11.27,12.42c3.71,4.18,7.56,8.24,11.37,12.34s7.58,8.24,11.51,12.24l11.71,12.12q5.94,6,12.2,11.75a260.39,260.39,0,0,0,26.57,21.5,170.14,170.14,0,0,0,30.27,17.06,103.37,103.37,0,0,0,34.54,8.43,74.13,74.13,0,0,0,36.19-7c3.12-.84,3.35.77,4.28,1.8a2.29,2.29,0,0,0,2.37.66,19.38,19.38,0,0,0,6-3,89.64,89.64,0,0,0,19.09-14.67,138.09,138.09,0,0,0,16.31-19.85c9.9-14.44,17.89-30.53,25.62-45.78s15.34-29.74,23.08-42.1c3.88-6.2,7.76-11.86,11.71-17a71.88,71.88,0,0,1,11.17-11.23,146.86,146.86,0,0,1,6.14-14.91,107.25,107.25,0,0,1,5.68-10.38l5.49-8.69a97.81,97.81,0,0,0,5.51-9.91c.85-3.79,1.67-7.51,2.61-11.45s2-8.09,3.38-12.7c3.78-3.46,7.22-12.06,10.38-22.38,1.65-5.12,3.09-10.75,4.69-16.27s3.07-11.1,4.75-16.16c3.6-11.32,8-21.23,12.21-31.46q1.56-3.84,3.15-7.72c1-2.61,2-5.27,3-8a160.18,160.18,0,0,0,5.14-17.26c5-21.37,6.12-37.15,6-49.86-.07-3.19-.2-6.19-.36-9s-.49-5.61-.76-8.26-.63-5.22-.93-7.77-.75-5.07-1.13-7.63c-.21-1.57-.43-3.19-.66-4.85s-.42-3.35-.7-5.08l-1.55-10.65c-.55-3.62-1.27-7.3-1.92-11-.35-1.82-.66-3.65-1.05-5.46s-.84-3.6-1.26-5.38-.87-3.53-1.3-5.25-.89-3.42-1.44-5.07c-1-3.29-2.13-6.43-3.26-9.34a61.44,61.44,0,0,0-3.72-8,42.15,42.15,0,0,0-4.06-6.18c-.3,3.77-.62,7.68-.92,11.46a91,91,0,0,1-1.68,10.58c4.4,13.18,9.63,27.66,13.07,43.89a170.71,170.71,0,0,1,3.51,53.27,81.37,81.37,0,0,1-1.24,8.59c-.55,2.73-1.18,5.34-1.85,7.87-.35,1.26-.69,2.51-1,3.74s-.76,2.43-1.14,3.63l-2.32,7.13-2.26,7.12c-.74,2.4-1.42,4.85-2,7.39s-1.17,5.14-1.63,7.89-.81,5.64-1,8.71l-3.78-.79a339.68,339.68,0,0,1-10.46,43.65,366.88,366.88,0,0,1-14,37.36c-10.23,23.17-21.65,43.34-33.4,63l-17.93,29.49c-6.08,10.1-12.1,20.06-18,30.35s-11.61,20.9-17.43,32.28c-2.91,5.69-5.92,11.55-9.17,17.58s-6.72,12.25-10.68,18.56a85.67,85.67,0,0,1-16.38,12.06,66,66,0,0,1-18.12,6.86l-4.74.73-1.16.16-1.21.06-2.38.11-2.35.08c-.78,0-1.58-.06-2.37-.09l-2.34-.13-2.35-.29a61.59,61.59,0,0,1-17.8-5.14c1.12,0,2.22.08,3.29,0l3.16-.19a49.13,49.13,0,0,0,5.85-1,45.23,45.23,0,0,0,5.28-1.6c.85-.29,1.64-.68,2.44-1s1.58-.66,2.31-1.1q2.22-1.25,4.29-2.49c1.34-.91,2.6-1.91,3.85-2.85a36.85,36.85,0,0,0,3.52-3.07l1.68-1.58c.57-.52,1.06-1.13,1.58-1.69a121,121,0,0,0,11.6-14.87c3.75-5.44,7.57-11.4,11.91-18.32,1.9-5.67,3.61-11.34,5.35-16.92s3.32-11,5-16.65c3.35-11,7-21.67,10.88-32.3q1.47-4,2.94-8l3-7.93,8-20.34c5.47-13.81,11-27.75,16.27-41.78s10.44-28.16,15.14-42.33,8.92-28.38,12.51-42.53c7.27-28.27,11.55-56.41,11.89-82.86a241.46,241.46,0,0,0,1.85-56.64,234.26,234.26,0,0,0-10.69-52.56l-4.29-12.54q-2.51-6.15-5-12.32c-.77-2.07-1.79-4.07-2.72-6.1l-2.82-6.07c-1.78-4.08-4-8-6-12a542.47,542.47,0,0,0-28.73-48c0-3.31-1.41-7.68-3.69-12.74a81.57,81.57,0,0,0-4.23-8c-1.63-2.79-3.41-5.7-5.31-8.69s-4.08-6-6.22-9c-1.07-1.53-2.15-3.06-3.22-4.6l-3.37-4.55c-2.25-3-4.47-6-6.59-9s-4.32-5.8-6.27-8.57c-2.83-2.78-4.25-1.94-6-1.9s-3.77-.69-8-6.57c-2.34-2.79-4.44-5.49-6.44-8.07s-3.86-5.05-5.54-7.44-3.2-4.71-4.63-6.94-2.74-4.39-3.93-6.48a153.2,153.2,0,0,1-10.43-22.86c-5.31-14.18-9-27.15-22.46-44.42-4.82-6.19-16-14.81-23.11-22.58-2.55-2.8-5.58-6.35-8.83-10.25s-6.67-8.19-10.06-12.37-6.69-8.35-9.69-12-5.7-6.77-7.79-9c-3.8-4.05-7.7-8-11.57-11.86s-7.75-7.8-11.69-11.64l-11.7-11.7c-2-1.93-3.89-3.95-5.83-5.95l-2.9-3-3-3.17-3.14-3.34c-1-1.14-2.05-2.31-3.08-3.47l-6.18-7.06-3.11-3.59-1.55-1.82-1.49-1.86-6-7.6c-2-2.57-4-5.14-5.92-7.81s-3.75-5.42-5.61-8.18-3.71-5.57-5.54-8.41-3.4-5.82-5.07-8.79c-9.52-17-18.46-34.87-24.73-53.82-1.6-4.73-2.94-9.56-4.19-14.42-.56-2.45-1.14-4.9-1.62-7.37s-.95-5-1.25-7.46a117.44,117.44,0,0,1-.63-30.51,103.53,103.53,0,0,1,8.12-29.92,121.34,121.34,0,0,1,16.39-26.62c13.12-16.33,29.72-29.61,47.61-40.11l1.49-.69,1.53-.64L976,390l6.23-2.69c.52-.23,1-.47,1.57-.69l1.62-.62,3.26-1.25,6.59-2.58c2.24-.83,4.54-1.55,6.83-2.36s4.6-1.64,7-2.37l7.18-2.11,3.63-1.08c1.21-.37,2.47-.62,3.7-.94l7.5-1.85L1033,371l1.92-.38,3.86-.75c2.59-.49,5.18-1.07,7.81-1.49l8-1.16c1.34-.19,2.67-.41,4-.57l4.07-.39,8.19-.77,8.31-.38,4.18-.18c1.4-.05,2.8,0,4.2,0l8.46.08c2.83.08,5.66.3,8.51.46,5.69.24,11.37,1.06,17.08,1.69a233.26,233.26,0,0,1,33.81,7.29c5.57,1.51,11,3.54,16.36,5.47,1.35.47,2.67,1,4,1.58l3.94,1.67,3.91,1.68,2,.85,1.9.94c5.08,2.53,10.06,4.94,14.87,7.88l3.51,2.09c1.13.7,2.29,1.33,3.38,2.1q3.3,2.24,6.52,4.47c15.09,6.38,31.37,16.64,46.44,30.33a219.11,219.11,0,0,1,40.08,49.16l4,7.05c.66,1.19,1.36,2.34,2,3.54l1.8,3.62,3.59,7.21,3.19,7.35c1,2.43,2.16,4.86,3,7.28s1.93,4.8,2.76,7.21,1.78,4.78,2.57,7.17,1.6,4.75,2.4,7.09c3.11,9.4,5.75,18.54,8.29,27.2s5,16.85,7.45,24.39c.68,5.68-.59,6.61-1.64,7.84s-2,2.76-1.17,9.57c3.9,18.28,4.24,37.92,4.43,55.62s.5,33.71,4.49,45.72c-.65,9.52-2,15.54-3.63,20.11,0,13.56.06,27.06.36,40.4s.81,26.74,1.43,40.28,1.48,27.2,2.36,41,1.93,27.8,3,42c2.16,28.21,4.4,57.38,6.74,87.85q.21,2.83.42,5.7c.06,1,.14,1.82.21,2.66l.22,2.53c.13,1.69.28,3.38.46,5.08s.33,3.4.5,5.11c.72,6.81,1.59,13.66,2.54,20.54s2.15,13.7,3.4,20.54,2.75,13.55,4.34,20.21c-1.16,18.59-1,36.32,2.19,53.08a98.35,98.35,0,0,0,7.76,24.12,72.8,72.8,0,0,0,6.62,11.09c.65.89,1.35,1.69,2,2.57l1.06,1.3.54.66.58.6,2.37,2.43c.41.4.81.86,1.24,1.23l1.32,1.12a73.6,73.6,0,0,0,20,17.21,75.59,75.59,0,0,0,29.24,9.69,91.78,91.78,0,0,0,18.08.26c3.21-.2,6.42-.72,9.77-1.26,1.67-.28,3.32-.68,5-1l2.57-.59,2.55-.71a122,122,0,0,0,21.22-8.11,138.07,138.07,0,0,0,21.82-13.24,161.5,161.5,0,0,0,29.26-44.53,163.29,163.29,0,0,0,12.16-43c.21-1.69.42-3.36.63-5s.4-3.27.48-4.92c.22-3.27.4-6.46.53-9.55s0-6.2,0-9.17c0-1.5,0-3-.11-4.41s-.19-2.91-.28-4.34a262.15,262.15,0,0,0-4.09-30.94c.35-3.06.52-5.93.59-8.58,0-1.33.06-2.6,0-3.84s-.16-2.44-.28-3.59c-.23-2.29-.55-4.4-.94-6.34a46.28,46.28,0,0,0-1.48-5.38,49.4,49.4,0,0,0-3.64-8.27c-1.32-2.31-2.6-4.19-3.66-5.83-.8-28-4.18-53.54-8.89-79a792.72,792.72,0,0,0-19-79q-1.54-5.36-3-10.58t-3-10.6c-1.91-7-3.75-13.93-5.46-20.77-3.43-13.67-6.49-27.07-9.19-40.3-5.41-26.44-9.46-52.22-13.06-78.25-1.79-13-3.49-26.1-5.18-39.39s-3.37-26.82-5.11-40.68-3.55-28.21-5.42-43.06-3.82-30.42-5.69-46.88c.44-2.92,1.17-5.08,1.75-7.6a34.23,34.23,0,0,0,.73-4.18,43.77,43.77,0,0,0,.34-5.58,8.8,8.8,0,0,1-2.26-4.48,24.54,24.54,0,0,1-.57-3.3c-.11-1.2-.17-2.49-.19-3.86,0-2.73.07-5.74.24-8.89s.57-6.45.87-9.74.63-6.57.84-9.7.24-6.12.19-8.83c-.16-5.42-1.3-9.75-4.28-11.92a113.82,113.82,0,0,0-7.11,21.36c-.5,2.14-1.06,4.37-1.47,6.65s-.84,4.63-1.23,7c-.84,4.83-1.35,9.86-1.86,15.07a254.35,254.35,0,0,0,2.51,64,28.61,28.61,0,0,0-1.45,5.9,45.4,45.4,0,0,0-.34,6.6c0,2.31.2,4.71.46,7.21s.68,5,1.13,7.63c1.76,10.49,4.71,21.77,6.19,33,3.84,28.09,1.74,54,5.58,77,1.13,6.6,5.44,13,5.92,15.48,3.52,18,2.74,33.85,9.08,56.51,7.06,25.2,12,41,17,56l7.62,22.79c1.39,4.09,2.61,8,4,12.36.71,2.17,1.35,4.42,2,6.77s1.42,4.78,2.11,7.33c2.85,10.33,5.38,20.75,7.67,31.11.54,2.59,1.07,5.18,1.61,7.75.27,1.29.54,2.58.8,3.87l.72,3.85c.49,2.56,1,5.12,1.45,7.66s.85,5.08,1.28,7.6c.21,1.26.43,2.52.64,3.77l.57,3.75q.57,3.74,1.14,7.43c.34,2.46.67,4.91,1,7.33l.51,3.63c.14,1.2.28,2.39.43,3.58q.45,3.59.9,7.1c.25,2.34.51,4.66.76,6.95.59,4.61.92,9.07,1.44,13.48,1.82,17.57,3,33.34,4.85,46.91s4.07,24.88,8.51,33.68c-4.64,15.29-4.31,26.32-3.52,37.65.16,2.8.45,5.67.56,8.52s.11,5.73,0,8.74a57.57,57.57,0,0,1-1.06,9.21c-.3,1.58-.65,3.2-1.07,4.87s-1.06,3.26-1.7,5l-3.5,5.84q-1.72,2.63-3.18,4.9l-2.66,4.27c-.84,1.31-1.68,2.48-2.41,3.61-1.49,2.25-2.75,4.22-3.89,6s-2.34,3.38-3.46,5-2.29,3.19-3.59,4.89-2.94,3.34-4.79,5.29c-.92,1-1.92,2-3,3.1s-2.39,2.15-3.75,3.33c-2.74,2.35-5.88,5.09-9.85,7.92-19.74,6.3-38.8,7.28-54.59,3.94a64.19,64.19,0,0,1-20.64-8,38.75,38.75,0,0,1-4.07-2.84,34.42,34.42,0,0,1-3.59-3.08l-1.62-1.58c-.52-.5-1.09-1.17-1.61-1.72l-1.54-1.71-.74-.82-.67-.93a40,40,0,0,1-7-14.52,97.72,97.72,0,0,1-2.38-15.22c-.51-5.38-1-11.25-1.6-18s-1.23-14.53-1.83-23.35a103.41,103.41,0,0,1-7.54-23.5c-1.45-7.91-1.54-15.41.17-21.23,2.07,5.07,4.07,10.37,6.21,15.66,1,2.69,2.14,5.28,3.18,8s2.16,5.31,3.33,7.84c2.23,5.17,4.53,10.23,6.91,14.7a120.35,120.35,0,0,0,6.91,11.73,46.6,46.6,0,0,0,5.32,6.65,2.71,2.71,0,0,1,.42.41c.06.06.12.18.18.21l.17.09c.2.12.35.43.44.38a.18.18,0,0,1,.1.12s0,0,0,0v0h0l-.08.11-.17.24c-.47.65-.92,1.34-1.36,2.07-.13.21-.17.26-.25.38l-.22.32-.43.68c-2.27,3.81-1.5,4-.42-1.12l.14-.83c.1-.45.19-.89.27-1.33l.19-1.15v.1h0c.21-1.84-1.86,16.11-1,8.49l0-.1.08-.71a12.14,12.14,0,0,0,.07-1.31l.06-1c0-.34,0-.67,0-1s0-.64,0-1,0-.28,0-.5v-.67c0-.43,0-.86,0-1.29l0-.63v-.16s0-.11,0-.08h0c0,.08,0,0,.08,0a10.66,10.66,0,0,0,4.54-1,48.73,48.73,0,0,0,9.66-5c1.8-1.24,3.68-2.52,5.5-4l1.39-1.12,1.54-1.42c1-.94,2.06-1.85,3.1-2.76a99.85,99.85,0,0,0,19.21-26l1.71-3.71a36.45,36.45,0,0,0,1.62-3.71c1-2.57,2-5,2.74-7.65a105,105,0,0,0,4.91-31.64c-4.1,3.49-6.11,7.88-7.6,12.59-.39,1.15-.73,2.34-1,3.56-.17.6-.3,1.23-.48,1.81l-.54,1.75a42.57,42.57,0,0,1-2.42,6.82,116.87,116.87,0,0,1-9,16.35,99.36,99.36,0,0,1-10.8,13.87l-1.48,1.58a18.54,18.54,0,0,1-1.5,1.57q-1.6,1.46-3.14,3a16.2,16.2,0,0,1-1.65,1.44l-1.68,1.42-1.65,1.46c-.48.35-1,.71-1.41,1.07a16.44,16.44,0,0,1-1.41,1c-.47.31-.92.7-1.38,1-.92.57-1.81,1.24-2.68,1.7s-1.68.93-2.46,1.43c-.39.2-.75.34-1.12.54l-.53.29-.49.18a17.37,17.37,0,0,1-2.83,1.08.73.73,0,0,0-.35.12s-.09,0-.12,0l0,0h0l0,.13,0,.3.12.5c.15.68.3,1.37.42,2.07s.25,1.41.35,2.13l.14,1.07.15.89c.18,1.2.32,2.45.4,3.74.11,1.08.2,2,.22,3.1l.06,2.68c0,.4,0,.81,0,1.24l0,.61v.39c0,.52-.07,1.09-.15,1.69v.09c.57-4.93-1.27,11.06,1.28-11l0,.19,0,.38-.08.77c-.06.52-.13,1-.22,1.59s-.19,1.08-.31,1.63l-.09.42c0,.12,0,.17-.05.26l-.08.49c-.13.67-.29,1.37-.5,2.1-.41,1.75-1,2.81-.13.93l.24-.43.49-.9c.36-.65.73-1.23,1.1-1.77.56-.92,1.16-1.83,1.77-2.66l1-1.26c.42-.59.84-1.16,1.27-1.71s.87-1.08,1.31-1.6l.67-.76.35-.38.41-.51c1-1.21,2.82-3.18,2.27-2.57,0,.12-.09-.09-.17-.12l-.15-.07-.09,0-.1-.13a2.69,2.69,0,0,0-.49-.46c-.09,0-.19-.19-.29-.32a3.09,3.09,0,0,0-.33-.39c-.46-.37-1-1.27-1.57-1.91-1.4-1.95-3.21-4.49-5.2-7.55s-4.11-6.87-6.29-11-4.3-8.75-6.4-13.64-4-10.21-5.84-15.77-3.44-11.37-4.81-17.42-2.54-12.28-3.37-18.65c-.77-5.67-1.38-14.62-1.75-22.66q-.56-12.33-.33-25.09c.43-19.91,2.13-37.58,3.94-55.89s3.75-37.28,5-59.92c2.13-1.43,2-11.59,5.72-7a181.52,181.52,0,0,1,5.55-37.75c2.91-11.93,6.73-24,10.27-36.47a293.38,293.38,0,0,0,8.77-39.24,163.72,163.72,0,0,0,.46-44.07C1441.28,668.55,1440.39,680.16,1443.65,670.81ZM1271.17,1457.9c-2.61-4.07-.23-4.65,2.09-1.52.85-1.39-3.3-6.3-5.84-10.09,2.72-.78,9.53,10.89,12.33,10.21a84.5,84.5,0,0,0-4-10.39c-.85-1.85-1.76-3.76-2.73-5.7s-2.08-3.84-3.17-5.8a38.65,38.65,0,0,1,5.71,5.53,35.07,35.07,0,0,1,3.82,5.74,20.64,20.64,0,0,1,2.76,9.93c-.08,2.67-1.21,4.58-3.06,5.08S1274.49,1460.59,1271.17,1457.9Zm-157.68-201.42c.83-3.09,4.56-3.68,9.81-2.54s12,4.06,18.94,7.63c3.43,1.86,6.91,3.89,10.27,6s6.65,4.11,9.54,6.23a149.2,149.2,0,0,1,12.93,10.08c4.71,4.54,10.37,11.45,13.13,16.46s2.48,8.31-4.21,5.5c-3.78-1.49-8.51-4.83-13.85-9.19l-8.55-7-9.28-7.82c-3.23-2.59-6.53-5.21-9.84-7.77s-6.6-5.07-10-7.25C1125.74,1262.34,1119.37,1258.47,1113.49,1256.48ZM1005.59,1219c0,3.28-2.49,4.28-6.17,4.46-9-6.86-25.43-14.09-41.4-20.44l-5.92-2.46-2.9-1.23-2.87-1.16c-3.8-1.55-7.41-3.12-10.73-4.73-1.65-.8-3.23-1.62-4.72-2.44s-2.92-1.57-4.22-2.37a31,31,0,0,1-6.41-5c4.63,1.41,8.83,2.68,12.69,4s7.35,2.72,10.66,4c6.66,2.49,12.4,5.17,18.29,7.78l4.46,2,2.28,1,2.29,1.08c3.09,1.46,6.33,2.94,9.83,4.5l5.47,2.39,5.87,2.69C996.18,1214.89,1000.66,1216.81,1005.59,1219Zm-117.85-57.36c2.2,4-8.48.92-9,3.42-4.77-3.55-16.81-6.11-18.86-10a60.86,60.86,0,0,1,14.46,3.12A72.81,72.81,0,0,0,887.74,1161.61Zm-17.8,28c-43.11-12.29-93.32-22.74-145.45-27-22.46-1.87-44.73-1.27-65.94-1.36s-41.4-1-59.33-5.48c20.66-.84,46.69.37,71.86.78s49.43.26,66.5-3c19.52,3.39,40.9,8,61.06,11.73s39.1,6.91,54.15,6.88c1.13,3.1,6.23,5.71,10.64,8.44S871.54,1186.11,869.94,1189.62Zm-22.22-36.56c-.21,1.27-.41,2.54-.61,3.83l-14.54-1.34c-5.24-.49-10.64-1.19-15.53-1.93-9.77-1.51-17.5-3.82-17.71-7.41C819.66,1145.94,827.27,1148,847.72,1153.06Zm-51.91-11.17c-3.3.77-4.7,2.37-4.68,4.64-8.93-.72-12.19-2.83-11-4.31S786.93,1139.92,795.81,1141.89Zm-1-26.1c-2.31-2.47-7.32-3.25-12.75-3.53s-11.36-.17-15.61-1a121.8,121.8,0,0,1-20.74-6.36c-6.09-2.3-11.88-4.48-18.76-5.56a108.87,108.87,0,0,0-16.76-1.38c-5,0-9.7.26-14.62.54s-10,.54-15.92.46c-2.95,0-6.09-.17-9.5-.43s-7-.67-11-1.24c-10-1-6.88,4-12.5,5-18.6-1-36.77-2.42-54.72-4.25s-35.48-4.37-52.83-7.49a498.25,498.25,0,0,1-50.9-12.18l-12.38-4c-2.09-.62-4.08-1.43-6.11-2.16l-6.08-2.24c-2-.77-4.08-1.48-6.08-2.29l-5.95-2.53-6-2.53c-1-.43-2-.84-3-1.29l-2.9-1.41-11.65-5.69-11.32-6.3-2.84-1.58c-.93-.56-1.83-1.15-2.75-1.73l-5.48-3.48-5.51-3.49c-1.78-1.24-3.53-2.53-5.29-3.8l-5.31-3.83-2.65-1.91c-.88-.66-1.7-1.38-2.55-2.06l-10.18-8.35c-6.46-6-13.07-11.91-19.1-18.4-24.24-26-43.8-58.25-57.53-95.38,7.19.25,14.61,11,22.5,19.38,3.89,4.23,8,7.8,11.78,9.44s7.55,1.16,10.89-2.52c1.44,1.92,2.81,3.89,4.24,5.75s2.85,3.71,4.24,5.56c2.88,3.58,5.61,7.19,8.48,10.55s5.68,6.66,8.44,9.93,5.65,6.31,8.56,9.24,5.77,5.82,8.61,8.69l9,8.18,2.21,2,2.33,1.88,4.63,3.76c1.54,1.24,3,2.52,4.59,3.74l4.8,3.43a227.43,227.43,0,0,0,19.64,12.77l10.39,5.45c.88.43,1.71.92,2.62,1.31l2.72,1.19,5.43,2.34c1.82.76,3.61,1.55,5.47,2.25l5.67,2,5.7,1.89c1,.3,1.88.64,2.87.9l3,.77c4,1,7.91,2,11.95,2.85s8.27,1.42,12.45,2c22.06,7.33,43.11,14.07,66.21,20.3a609.92,609.92,0,0,0,79.11,15.93c31.7,4.28,64.35,7.85,91.41,13.88q5.07,1.13,9.85,2.35c3.19.83,6.3,1.71,9.27,2.62a138,138,0,0,1,16.36,6,74.72,74.72,0,0,1,12.94,7.28A38.38,38.38,0,0,1,794.84,1115.79Zm-262.57-74.46c-5.49-1.34-7.64-3-9.23-4.63-.8-.84-1.47-1.67-2.33-2.51a12.89,12.89,0,0,0-3.5-2.49c-2.67-.73-5.14-1.47-7.44-2.22-1.15-.37-2.27-.73-3.33-1.13s-2-.83-3-1.25c-3.88-1.66-7.24-3.33-10.35-5s-5.72-3.58-8.46-5.34l-4.15-2.64c-1.35-.94-2.73-1.87-4.18-2.8-3.55-2-7.82-3.86-12.07-6.16q-3.25-1.65-6.8-3.32c-1.2-.53-2.32-1.16-3.48-1.78l-3.52-1.85-3.61-1.86c-1.2-.64-2.5-1.19-3.64-1.91q-3.54-2.07-7.19-4.13c-1.21-.69-2.44-1.36-3.64-2.07L428.86,986l-7-4.52c-2.24-1.58-4.37-3.26-6.52-4.87l-3.18-2.41c-.52-.4-1.06-.79-1.56-1.21l-1.45-1.3c-1.92-1.73-3.79-3.43-5.59-5.1L401,964.08c-.81-.84-1.57-1.7-2.32-2.54a69.81,69.81,0,0,1-7.52-9.82c-.94-1.63-1.76-3.2-2.43-4.69-.33-.75-.63-1.48-.89-2.19a21.3,21.3,0,0,1-.6-2.16,26.2,26.2,0,0,0,4,5c.71.74,1.43,1.43,2.17,2.08s1.56,1.2,2.35,1.76a45,45,0,0,0,4.88,3c1.69.87,3.39,1.67,5.07,2.49l1.26.61,1.34.58c.89.39,1.77.79,2.65,1.2A53,53,0,0,1,416,962.2c.83.53,1.65,1.09,2.46,1.69s1.7,1.14,2.54,1.78a32.6,32.6,0,0,1,4.83,4.57c3.66.4,7.53.51,11.14.94,1.81.19,3.61.43,5.37.72.87.16,1.8.26,2.73.38s1.84.25,2.75.4c1.83.29,3.64.63,5.45,1,.9.2,1.8.41,2.7.64s1.89.39,2.84.61q2.85.64,5.72,1.47c1.94.54,3.78,1.24,5.89,1.8,8.16,2.45,16.83,5.89,27.42,10,10.39,4.31,22.76,9.27,37.83,15.22,12.69,5.11,26,14.27,40.15,18.74A167.29,167.29,0,0,0,596.1,1027c3.41.6,6.74,1.17,10,1.68l9.79,1.43c6.26,1,12.29,1.94,17.51,3.27a65.59,65.59,0,0,1,7.27,2.28,32.77,32.77,0,0,1,6,3c-1.51,2-4.07,3.57-7.46,4.7a54.49,54.49,0,0,1-12.23,2.19c-2.37.19-4.9.33-7.51.38s-5.29,0-8.09-.07-5.67-.18-8.62-.33-5.84-.42-8.82-.66l-9-.76-8.86-.92-8.72-.86c-2.81-.31-5.58-.6-8.27-.83s-5.35-.4-7.85-.56-4.85-.31-7.12-.35A64.33,64.33,0,0,0,532.27,1041.33Zm54.67,113.86c-4.88,1.11-8.82.58-13.65-.27-2.42-.44-5.06-1-8.17-1.46s-6.66-1.07-10.93-1.43c1.26-2.85,7-2.44,13.59-1.16S582,1154.28,586.94,1155.19ZM186.85,746.48c-1.59-13.87-3-27.59-4.24-41.42s-2.1-27.75-2.48-41.9-.25-28.56.72-43.26a346.53,346.53,0,0,1,5.83-45,287.13,287.13,0,0,1,10.39-38.2c4-11.61,8.54-22.44,13.61-33.5s10.74-22.38,17.53-34.86c3.37-6.24,7.13-12.73,11.21-19.64s8.67-14.15,13.94-21.76c1.51-2.26,2.94-4.43,4.34-6.53s2.67-4.23,4-6.33,2.75-4.22,4.12-6.38l1-1.64,1.1-1.6,2.27-3.28a149.59,149.59,0,0,1,27-29.88c1.85-1.55,3.7-3.1,5.6-4.56s3.85-2.84,5.79-4.22,3.91-2.69,5.9-4,3.95-2.54,5.95-3.74l6-3.44c1-.56,2-1.14,3-1.68l3-1.56,6-3.11,6-2.87c3.89-2,7.83-3.64,11.58-5.48,1.87-.94,3.78-1.73,5.62-2.61s3.67-1.75,5.45-2.65c3.62-1.67,7.08-3.46,10.43-5.29s6.59-3.67,9.67-5.65a244.42,244.42,0,0,1,32.54-4.57l8.09-.49c2.69-.11,5.39-.12,8.06-.2,1.34,0,2.65-.09,4-.07l4.07.07,4,0,2,0,2,.1,8,.36,7.86.58c1.3.11,2.6.16,3.89.29l3.86.41,3.84.37c1.28.12,2.56.21,3.82.4q3.79.5,7.57.9c1.26.12,2.51.3,3.75.49l3.73.51c5,.55,9.85,1.44,14.78,2a30.6,30.6,0,0,1-7.33,1.59c-1.49.2-3.08.25-4.82.46s-3.57.33-5.5.45c-7.69.45-16.93,1.2-26.56,2.35a245.21,245.21,0,0,0-29.2,5.59c-4.69,1.38-9.26,2.58-13.56,4.17-2.16.77-4.27,1.44-6.29,2.26L414,341a219.91,219.91,0,0,0-62.69,20,229.37,229.37,0,0,0-54,36.6c-2,1.86-4,3.65-5.94,5.57l-5.72,5.78-5.46,6-1.36,1.51L277.57,418,275,421.15a282.82,282.82,0,0,0-18.77,26.12,316,316,0,0,0-15.6,27.84q-7.08,14.25-12.74,29c-3.78,9.82-7.14,19.76-10.15,29.77s-5.56,20.1-7.88,30.21-4.3,20.26-6,30.42-3.27,20.31-4.52,30.46-2.38,20.3-3.31,30.43-1.7,20.23-2.39,30.32c-1.31,20.19-2.24,40.24-2.91,60.33Zm474.2-232.75c1,.19,2,3.18,3,6.06s1.76,5.68,2.8,5.43c1.53,10.69,3.7,20.65,5.63,30.14,1,4.74,2.14,9.35,3.29,13.86s2.15,8.91,3.27,13.22,2.25,8.55,3.38,12.71,2.07,8.25,3.09,12.28,2,8,2.87,12,1.61,7.85,2.31,11.73c2.64,14.81.92,30.22,2.89,49.32.63,6.35,1.84,13.16,3.1,19.94s2.57,13.53,3.59,19.85c2,12.61,2.72,23.38-1.27,28.9,4.08,11.32,5.69,27.83,7.49,44.5s3.83,33.58,8.62,45.77c-3.25-.16-7.49-9.72-11.25-16.18s-7.08-9.79-8.78,2.89c4,10.12,10,9.16,14.17,18.08.87,6.14,1.71,11.68,2.15,16.7a103.67,103.67,0,0,1,.5,13.26c-.16,7.53-1.68,12.53-4.9,14.32-7.52-15.43-15.1-47.71-20.09-81.78s-7.79-69.81-7.38-91.88c-7.73-29.15-7-53.75-9.84-84.61-3-1.48-1.57,6.12-.75,12.45-2.91-9.11-4.15-18.56-4.84-28.27-.32-4.86-.42-9.78-.4-14.76s-.07-10,0-15.08c.25-20.27-.13-41.3-6.57-61.08-.24-1.8,0-2.77.45-3.35a3.78,3.78,0,0,1,1.89-1C660.81,518.61,662.1,518,661.05,513.73ZM715.32,899c.79,8.14-.29,12.95-.11,20q-6-1.46-10-18.14C706,889.44,710.69,894,715.32,899Zm109.45,174.56a774.45,774.45,0,0,0,33.94,72.88c12.46,23.65,25.86,46.49,39.42,68.22,2.45,3.88,4.9,7.87,7.39,11.91s5.13,8.1,7.72,12.25,5.31,8.31,8,12.55l4.07,6.38c1.37,2.13,2.8,4.24,4.2,6.38l4.24,6.44c1.41,2.16,2.82,4.33,4.31,6.46q4.38,6.45,8.83,13l9.15,12.9,2.3,3.24,2.36,3.19,4.74,6.38c12.71,17,26,33.49,39.81,48.69,3.43,3.8,7,7.48,10.4,11.14.87.91,1.73,1.82,2.6,2.72l1.24,1.29.67.59,2.64,2.3A87.84,87.84,0,0,0,1033,1390c.82,1.39,1.83,3,3,4.68s2.45,3.58,3.93,5.44a64.86,64.86,0,0,0,10.42,10.61c3.87,3.09,8.06,5.37,11.82,6.19s7.09.14,9.15-2.19a24.74,24.74,0,0,0,8.68,2.19,21.32,21.32,0,0,0,8.6-1.29,24.84,24.84,0,0,0,7.53-4.57,32.82,32.82,0,0,0,5.75-7,47,47,0,0,0,4-8.13,79.51,79.51,0,0,0,2.75-8.38c1.53-5.54,2.54-10.83,3.68-15.58a72.12,72.12,0,0,0,4.49-8.07c.69-1.43,1.34-2.9,2-4.38q1.31-3.18,2.61-6.41c6.94-17.15,13.28-34.55,19.2-51.91s11.41-34.65,16.68-51.66q3.86-12.6,7.76-25.29c1.19-4.16,2.53-8.33,3.77-12.45.61-2.06,1.23-4.12,1.88-6.17l1-3.09.91-3.06a160.88,160.88,0,0,1,8.07-19.81c1.35-3.12,2.84-6.3,4-9.59.59-1.65,1.16-3.34,1.69-5.08a52.87,52.87,0,0,0,1.38-5.41c.31-1.62.59-3.28.83-5s.51-3.47.6-5.22.24-3.55.35-5.36.23-3.66.23-5.47l.12-5.51.09-2.77v-2.73c0-3.65.27-7.31.42-10.83.07-1.28.17-2.55.29-3.83s.26-2.55.32-3.81c.18-2.51.42-5,.7-7.57s.38-5,.63-7.52c.1-1.25.25-2.52.34-3.77l.2-3.74.21-3.75c.07-1.26.15-2.52.13-3.75,0-2.49,0-5,0-7.46s-.3-4.93-.5-7.4l-.36-3.69c-.2-1.22-.43-2.43-.67-3.64a75.3,75.3,0,0,0-4.48-14.38c-1-2.46-1.92-4.91-2.74-7.3a66.69,66.69,0,0,1-2.45-6.87,19,19,0,0,1-.66-4.23c-.07-1.38,0-2.72,0-4a31.07,31.07,0,0,0-.75-8.06,82,82,0,0,0-4.91-13.12c-1.83-4.44-4.32-8.82-6.54-13.19s-4.67-8.64-6.66-12.84a111.41,111.41,0,0,1-5.16-12.2c-4.16-5.66-8.73-11.21-13-16.78-2.19-2.79-4.53-5.55-6.75-8.32l-3.36-4.17c-1.11-1.39-2.33-2.76-3.48-4.15l-7-8.34-7.23-8.37-3.63-4.22L1109.1,902l-7.6-8.54c-10.44-11.47-21.33-23.22-33.39-35.59s-25-25.3-39.29-39.29c14.92,10.57,29.85,21.52,43.29,29.55a113,113,0,0,0,18.75,9.36c5.72,2.1,10.94,3,15.44,2.34,13,14.2,25.54,27.72,37.16,41.54s22.13,28,31.17,43.31l4.39,7.71c.66,1.21,1.35,2.37,1.93,3.52l1.72,3.4,3.37,6.57c.56,1.09,1.14,2.18,1.72,3.29l1.65,3.41c1.13,2.31,2.34,4.72,3.69,7.29.66,1.3,1.44,2.61,2.09,4l2.15,4.38c.77,1.52,1.57,3.1,2.42,4.76s1.81,3.38,2.63,5.23c1.72,3.69,3.69,7.7,5.86,12.15,1.75,4.07,3.65,8,5.62,11.91.24.48.51,1,.73,1.45l.66,1.47,1.32,2.93,2.69,5.81,1.35,2.89c.44,1,.78,1.95,1.18,2.92q1.14,2.94,2.26,5.86t2.14,5.86c.59,2,1.13,4,1.64,6,1.48,5.29,2.39,10.76,3.46,16.19.38,2.76.77,5.51,1.15,8.27.17,1.38.42,2.75.52,4.15l.37,4.18.35,4.19.18,2.09.09,2.11.33,8.44c.07,2.81,0,5.65,0,8.47,0,1.42,0,2.83,0,4.24l-.17,4.26-.17,4.25c0,1.41-.09,2.83-.22,4.25q-.3,4.26-.61,8.51c-.19,2.84-.56,5.69-.82,8.52l-.41,4.24-.54,4.26c-1.27,11.32-3.14,22.63-4.91,33.87-3.17,19.19-6.29,38.8-10.8,57.23s-10.42,35.6-18.7,49.46a498.51,498.51,0,0,1-17.73,49.26c-1.76,4.2-3.54,8.42-5.31,12.66s-3.68,8.48-5.52,12.72l-8,17.68c-2.5,5.56-4.94,11.09-7.26,16.62s-4.49,11.09-6.62,16.67c-4.23,11.17-8.49,22.41-13.27,33.8-.77.63-1.53,1.28-2.29,1.94s-1.58,1.25-2.36,1.9c-1.53,1.32-3.25,2.47-4.85,3.75l-2.57,1.77-1.28.89-1.34.81c-.9.54-1.77,1.13-2.68,1.65l-2.79,1.5a62.65,62.65,0,0,1-24.09,7.08,66.24,66.24,0,0,1-23.92-2.65,78.94,78.94,0,0,1-20.61-9.59c-5-7.45-9.8-15.44-14.29-23.51-2.26-4-4.45-8.09-6.61-12.12s-4.26-8.07-6.48-11.94a223.83,223.83,0,0,0-14.35-22.63l-1-1.37-1.61-2-3.54-4.41q-3.6-4.42-7.47-8.86t-7.83-9L973,1362a298.23,298.23,0,0,0-27.11-25.85c-4.4-3.78-8.8-7.3-13.18-10.66s-8.6-6.67-12.88-9.85-8.42-6.36-12.56-9.53-8.27-6.34-12.19-9.71-7.87-6.79-11.7-10.42-7.43-7.55-11-11.69c-.52-1.42-1.06-2.78-1.63-4.11s-1.11-2.64-1.71-3.9c-1.18-2.53-2.46-4.92-3.81-7.21s-2.78-4.48-4.27-6.62-2.93-4.28-4.47-6.4l-4.69-6.36c-1.59-2.14-3.19-4.32-4.73-6.62A144.91,144.91,0,0,1,837.9,1218c-8.57-16.93-15.58-36.08-23.55-57s-16.75-43.54-29-68.1c7.63,1.07,13.77.63,19.7.8a49.56,49.56,0,0,1,8.91,1,42.21,42.21,0,0,1,9.59,3.37c.9-3.2-.14-8.81-.76-13.88S822,1074.63,824.77,1073.52Zm184.4-275.79c-3.13,1.11-8-1.5-9.43,3.14a65.63,65.63,0,0,0-4.77-7,83.74,83.74,0,0,0-5.68-6.61c-2-2.13-4.14-4.19-6.34-6.18s-4.48-4-6.79-5.91c-9.25-7.56-19.06-14.54-26.9-20.74-10.91-12.28-21.39-23.86-31.48-35.65l-1.89-2.2L913.66,714l-2.51-3c-.83-1-1.71-2.09-2.56-3.14l-10-12.79-5-6.36-2.49-3.19-1.24-1.59-1.17-1.63q-4.66-6.54-9.33-13.06l-4.68-6.56c-.77-1.1-1.6-2.17-2.31-3.29L870.23,656l-8.7-13.53-4.37-6.83c-1.36-2.31-2.64-4.65-4-7l-8-14.19-2-3.59-.5-.9-.42-.91-.85-1.83-3.38-7.37q-3.39-7.44-6.83-15a251.56,251.56,0,0,1-10.56-31.43,136.87,136.87,0,0,1-1.41-23.78c0-.9,0-1.8,0-2.7s.1-1.8.15-2.7c.09-1.79.19-3.59.29-5.42s.28-3.68.42-5.59c.06-1,.13-1.91.19-2.89s.18-2,.27-3a181.62,181.62,0,0,1,3.88-44.13,178.07,178.07,0,0,1,15-41.85c.8-1.67,1.7-3.28,2.6-4.89l2.69-4.83c1.9-3.15,3.8-6.28,5.8-9.35,4.1-6.06,8.39-11.94,13-17.51a243.1,243.1,0,0,1,30.06-30.45c1.42-1.26,2.91-2.47,4.4-3.68l4.46-3.63c3-2.34,6.09-4.7,9.2-7l4.72-3.37,2.38-1.67,2.44-1.59,9.8-6.35a303.87,303.87,0,0,1,41.74-21.59,281,281,0,0,1,90.71-21.9,255.08,255.08,0,0,1,51.38,2l6.38.88c2.13.29,4.24.72,6.35,1.09,4.23.77,8.43,1.59,12.6,2.43s8.3,2,12.4,3l6.13,1.55c2,.55,4,1.16,6.06,1.75l12,3.57,11.7,3.91,5.78,2c1.91.66,3.8,1.39,5.69,2.07l11.25,4.13,21.9,8.46,5.57,2.27,1.39.56.69.28.58.22,2.35.86c3.14,1.09,6.2,2.31,9.29,3.43a286.81,286.81,0,0,1,40.13,29.22l5,4.36c1.65,1.47,3.32,2.91,4.92,4.49q4.85,4.65,9.65,9.39c6.25,6.56,12.47,13.14,18.23,20.18a360.73,360.73,0,0,1,31,43c1.12,1.8,2.28,3.53,3.34,5.34l3.1,5.37c1,1.77,2,3.53,3.05,5.26s2,3.41,2.93,5.16l5.42,10.1c.87,1.64,1.81,3.21,2.6,4.83s1.61,3.19,2.4,4.74c.9,3.3,1.88,6.72,2.9,10.24.86,3.35,1.76,6.83,2.69,10.41s1.74,7.19,2.65,10.94,1.71,7.54,2.51,11.41a443,443,0,0,1,7.41,48.59,393.76,393.76,0,0,1,1.51,48.7,326.68,326.68,0,0,1-4.23,43.72c-.39,26.06-.92,48.55-1.12,69.24-.11,10.33-.17,20.19-.19,29.71,0,9.28,0,18.5,0,27.78,0,18.36-.19,36.91-1.25,56.84s-3,41.25-6.19,65.27c-3.6-16.86-3.39-38.17-3-58.31s1-39.17-2.69-51.95c.67-4.49,1.22-9,1.58-13.38s.67-8.81.81-13.14c.33-8.69.3-17.4.08-25.92-.42-17.06-1.58-33.41-1.66-47.63-.08-12.22.57-26.32.81-41s0-30-1.61-44.07c-1-8.6-2.28-16.32-3.79-23.89-.76-3.78-1.6-7.54-2.45-11.34s-1.77-7.67-2.81-11.72c-2-8-4.27-16.76-7.12-26.91s-6.32-21.76-11.29-35.48c-1.85-5.37-4.27-11-6.54-16.47-.59-1.37-1.11-2.78-1.77-4.11s-1.28-2.69-1.93-4l-3.94-8.09c-1.37-2.69-2.9-5.3-4.38-8l-2.28-4-1.15-2c-.39-.67-.83-1.31-1.24-2l-5.16-8c-.9-1.33-1.73-2.73-2.71-4s-1.94-2.62-2.92-3.95a397.22,397.22,0,0,0-26.41-32.49l-7.19-7.7c-1.18-1.32-2.46-2.49-3.69-3.73l-3.74-3.67-3.74-3.67c-1.26-1.2-2.56-2.33-3.84-3.49l-7.72-6.89-7.91-6.42-3.95-3.15-4-3q-4-2.91-8-5.74-4.06-2.66-8.08-5.19l-4-2.51c-1.34-.81-2.69-1.54-4-2.3l-4.31-2.37-4.54-2.41c-5.88-2.92-11.68-5.47-17.26-7.76-3.07-1.15-6.21-2.14-9.38-3.05s-6.35-1.75-9.57-2.41c-6.43-1.38-12.72-2.83-18.86-4.48-14.41-4.26-30.61-8.84-47.7-12.11l-6.44-1.16-3.24-.56c-1.08-.17-2.17-.29-3.25-.43-4.35-.55-8.71-1.05-13.07-1.46a180.38,180.38,0,0,0-25.76-.16,55.54,55.54,0,0,0-5.61.84c-1.17.21-2.42.5-3.72.83l-4,1c-2.67.67-5.34,1.36-7.67,1.91-1.17.26-2.25.53-3.2.77s-1.78.41-2.45.5c-4,.61-8.21,1-12.45,1.46s-8.48,1-12.76,1.57c-1.06.14-2.14.25-3.2.41l-3.15.53c-2.1.36-4.19.74-6.25,1.13s-4.1.82-6.1,1.26-3.91,1.08-5.79,1.67q-4.79,1.5-9.65,3.11c-3.19,1.2-6.39,2.46-9.62,3.75l-4.85,2c-1.62.67-3.19,1.46-4.79,2.19q-4.78,2.26-9.62,4.63c-3.18,1.64-6.3,3.46-9.47,5.24l-4.74,2.72c-1.59.92-3.11,1.94-4.67,2.92-6.23,3.93-12.24,8.34-18.19,13A204.88,204.88,0,0,0,880,400.38a167.19,167.19,0,0,0-24.25,41.07c-1.6,3.73-2.86,7.58-4.17,11.43-.66,1.93-1.12,3.91-1.69,5.86s-1.1,3.93-1.49,5.92-.9,4-1.25,6-.67,4-1,6c-.49,4-1,8.09-1.21,12.13a183.94,183.94,0,0,0,3.52,48.54c1.61,8,3.69,16,6.13,24,.63,2,1.23,4,1.91,6l2.05,5.93c1.46,4,2.86,7.9,4.64,11.8s3.38,7.83,5.07,11.74,3.25,7.83,5.35,11.65l5.89,11.51c2,3.83,3.82,7.69,6.07,11.41,3.52,6.11,6.82,12.14,10,18.14,3.43,5.91,6.92,11.74,10.36,17.61s7.21,11.57,11.08,17.31q2.91,4.3,5.94,8.61c2,2.88,4.19,5.73,6.3,8.37l1.09,1.35,1,1.2c.59.69,1.17,1.38,1.77,2.07,1.19,1.38,2.42,2.76,3.66,4.13,2.48,2.79,5.1,5.4,7.69,8.09s5.17,5.36,7.66,8.09,4.91,5.37,7.13,8.15,4.35,5.6,6.37,8.41,4,5.53,5.88,8.31l5.6,8.33,5.56,8.15c1.88,2.69,3.78,5.4,5.76,8s4,5.18,6.17,7.71,4.42,5,6.83,7.44S1006.43,795.47,1009.17,797.73Zm425.33-109c-1.23,12.34,1.31,9.31-1.71,17.89-2.65,1.47-3.34-3.88-2.83-9.21a24.23,24.23,0,0,1,1.6-7.07C1432.33,688.62,1433.34,687.78,1434.5,688.78Z"/><path class="b" d="M470.71,455.37a11.3,11.3,0,0,0-2-.12,12,12,0,0,0-1.91.38c-.61.16-1.2.33-1.79.46a13.6,13.6,0,0,1-1.85.48,7.23,7.23,0,0,0-.92-1,5.57,5.57,0,0,0-1.19-.68c-.43-.19-.89-.37-1.36-.53a6.8,6.8,0,0,0-1.52-.26l-1.61-.19c-.56,0-1.13,0-1.69.06s-1.13,0-1.7.06-1.14.15-1.7.19c-.28,0-.56,0-.84,0s-.55.09-.83.12a12.81,12.81,0,0,1-1.61.14c-.52,0-1,.07-1.54.08a7.17,7.17,0,0,1-1.47-.09c-.41-.11-1.12-.1-1.68-.21a10.12,10.12,0,0,1-1.72-.45,10.28,10.28,0,0,1-3.09-1.77l1.93-.36,1.86-.2,1.8-.25a4.85,4.85,0,0,1,.77-.07l.69,0c1.85-.23,3.66-.21,5.46-.26.89.06,1.78.08,2.68.07s1.75.21,2.63.26a7,7,0,0,1,1.29.18c.43.08.86.15,1.29.2a19.35,19.35,0,0,1,2.54.51c.42.09.85.18,1.27.25s.82.27,1.23.38.82.25,1.24.35l.62.16.6.25c.79.32,1.61.58,2.41.87s1.55.73,2.34,1.05a54.43,54.43,0,0,1,8.84,5.48q.83.75,1.74,1.47a5.53,5.53,0,0,1,.88.8c.28.28.56.56.86.83s.6.55.91.82.55.61.84.91c.54.64,1.18,1.19,1.73,1.84a5.15,5.15,0,0,1-2-.06,7.73,7.73,0,0,1-2.14-.92,10.17,10.17,0,0,1-2.32-1.43,20.16,20.16,0,0,1-2.34-1.76c-.47-.43-1-.73-1.5-1.15s-.92-.85-1.39-1.24A12.61,12.61,0,0,1,474,459.9a13.75,13.75,0,0,0-1.17-1.14,8.23,8.23,0,0,1-1.7-2C470.76,456.21,470.58,455.74,470.71,455.37Z"/><path class="b" d="M493.75,483.45c-.23-.44-.46-.84-.68-1.21s-.47-.63-.7-.91a13,13,0,0,0-1.38-1.39,11.21,11.21,0,0,0-1.34-1,10.33,10.33,0,0,0-1.36-.63c-.44-.18-.89-.36-1.33-.57a11.91,11.91,0,0,1-1.19-.56,5.35,5.35,0,0,1-.56-.36,3.84,3.84,0,0,1-1.5-1.2,6.55,6.55,0,0,1,3.19-.21,9.08,9.08,0,0,1,1.65.69c.58.3,1.24.73,1.87,1.1s1.27.84,1.91,1.27a18.61,18.61,0,0,0,1.93,1.16,11.31,11.31,0,0,0,2,.8,5.49,5.49,0,0,0,1.94.35c1.35,2.62.48,2.21-.85,1.71S494.25,481.38,493.75,483.45Z"/><path class="b" d="M1232.12,813.16c2.52,10.47,2,28.84,1.68,48.05s-.58,39.23,1.55,52.76c-3.44-13.63-3.94-30.84-3.7-48.61S1232.88,829.26,1232.12,813.16Z"/></svg>