<svg xmlns="http://www.w3.org/2000/svg" viewBox="0 0 1920 1920"><defs><style>.a{fill:none;}.b{fill-rule:evenodd;}</style></defs><path class="a" d="M1655.61,1213.19,1724.87,684l33.71-257.63,4.22-32.2a267.32,267.32,0,0,0,2.74-31,194.29,194.29,0,0,0-1.18-27.16l-.34-3.17c-.1-1.08-.3-2-.44-3l-.95-6c-.28-2.05-.74-3.84-1.13-5.72l-1.22-5.58a183.06,183.06,0,0,0-6.12-20.06l-1.69-4.68a20.53,20.53,0,0,0-.9-2.2l-.94-2.1-3.75-8.41a17,17,0,0,0-1-2l-1-1.86-2-3.71-2-3.71a39.25,39.25,0,0,0-2-3.53l-8.43-12.75a13,13,0,0,0-1.07-1.41l-1.07-1.33-2.14-2.64-4.28-5.29-2.14-2.65c-.35-.42-.71-.91-1.07-1.29l-1-1.06-4.22-4.26-4.21-4.26-2.11-2.13-1.06-1.06c-.35-.36-.69-.63-1-1-2.76-2.49-5.43-4.75-9.23-7.75-1.93-1.51-4.1-3.19-6.75-5s-5.62-3.87-8.8-5.88-6.6-4-9.9-5.77-6.49-3.39-9.47-4.8c-6-2.78-11.23-4.86-16-6.56s-9-3-12.77-4c-1.89-.52-3.64-1-5.23-1.35s-3-.7-4.54-1l-2.27-.49-2.35-.44c-1.57-.3-3.13-.6-4.81-.85l-2.47-.39c-.81-.13-1.64-.26-2.53-.36l-5.24-.64-5.54-.49c-1.89-.14-3.91-.23-5.86-.34a197.22,197.22,0,0,0-27.29.77l-8,.94-8.64,1.44c-1.38.19-3,.62-4.57,1l-4.68,1c-3,.57-6.57,1.7-9.91,2.62a229.7,229.7,0,0,0-46.74,19.53l-13.58,8.21a35.15,35.15,0,0,0-3.5,2.35l-3.57,2.57-7.16,5.14-3.58,2.57-3.71,3.2-7.44,6.4-3.72,3.21a46.17,46.17,0,0,0-3.74,3.44l-7.57,7.53c-20.17,20.06-40.2,41.35-59.51,60.55l-14.39,14-14.19,12.88c-1.18,1.12-2.36,2.11-3.53,3l-3.53,2.85-7,5.72c-1.18.93-2.35,1.94-3.53,2.81l-3.56,2.39-7.12,4.77c-5.09,3.75-8.66,4.94-12.71,7l-3,1.41c-.75.35-2.52,1.22-2.45,1.14-.29.07-.58.16-.87.25s-.57.19-.86.3-.54.12-.8.2a12.66,12.66,0,0,1-1.55.4c-.24.05-.49.1-.73.17a3.11,3.11,0,0,1-.72.16,11,11,0,0,0-1.41.26,6.14,6.14,0,0,0-1.28.16,8.3,8.3,0,0,0-1.32.11,41.07,41.07,0,0,1-6.32-.16,65,65,0,0,1-8.93-1.55,102.17,102.17,0,0,1-11.94-3.74c-4.46-1.7-9.36-3.86-14.58-6.47a264.12,264.12,0,0,1-34.27-20.89,465.7,465.7,0,0,1-37.62-29.93c-6.14-5.38-13.5-12.09-20.79-18.84s-15-13.93-22.84-21.35c-15.84-14.86-32.83-30.84-51.57-47.39s-39.37-33.7-62.58-50.55c-11.61-8.42-23.88-16.76-36.9-24.82s-26.84-15.82-41.38-23a466.36,466.36,0,0,0-45.75-19.84l-6-2.18c-1-.36-2-.72-3-1.08L872,92.52q-6.5-2.1-13-4.11c-2.18-.67-4.35-1.36-6.54-2l-6.58-1.7q-6.58-1.68-13.19-3.28c-2.21-.56-4.41-1-6.62-1.42l-6.62-1.29c-4.42-.83-8.85-1.7-13.28-2.41s-8.84-1.23-13.27-1.8-8.86-1.17-13.26-1.47c-8.81-.68-17.68-1.5-26.42-1.58q-6.57-.17-13.15-.25c-4.37,0-8.7.17-13,.29l-6.51.22c-2.17.08-4.35.15-6.49.33l-12.88,1-6.44.57c-2.13.23-4.24.52-6.36.79l-12.71,1.7-3.17.45-3.13.54L663,78.29l-12.51,2.35-12.31,2.84L632.08,85,629,85.7l-3,.84a471.52,471.52,0,0,0-92.87,36c-1.84.94-3.71,1.84-5.52,2.84l-5.43,3-10.82,6.08c-1.81,1-3.56,2.11-5.33,3.19l-5.29,3.27c-3.51,2.2-7,4.35-10.51,6.63l-10.28,7c-3.42,2.36-6.85,4.69-10.15,7.24-6.65,5-13.35,10-19.74,15.41a454.11,454.11,0,0,0-70.78,73.07A423.62,423.62,0,0,0,326,341.59c-3.68,8.19-6.69,16.79-9.79,25.3-.74,2.14-1.57,4.24-2.22,6.43l-2,6.53q-2,6.54-3.89,13.11c-.34,1.11-.63,2.18-.88,3.2l-.79,3.12-1.55,6.24c-1.07,4.16-1.93,8.33-2.82,12.51l-1.31,6.27c-.42,2.09-.77,4.17-1.15,6.26-.71,4.18-1.52,8.37-2.1,12.54a453,453,0,0,0-4.8,49.82,476.48,476.48,0,0,0,.36,48.61c.92,15.91,2.55,31.52,4.77,46.79s5.13,30.12,8.46,44.67,7.18,28.72,11.43,42.55,8.85,27.38,13.86,40.53,10.3,26.06,15.89,38.66,11.5,24.88,17.62,36.94l4.63,9,4.74,8.9c1.58,3,3.22,5.87,4.83,8.8.82,1.47,1.59,2.92,2.45,4.41l2.59,4.48,5.2,8.94c1.74,3,3.47,6,5.31,8.87,3.63,5.83,7.21,11.71,10.94,17.47A761.6,761.6,0,0,0,454,929.05a772.21,772.21,0,0,0,55.21,61.28A716.36,716.36,0,0,0,571.81,1046a663.79,663.79,0,0,0,71,48.8,591.52,591.52,0,0,0,80.2,39.9,528.46,528.46,0,0,0,89.66,27.45A482.27,482.27,0,0,0,910,1172.51a461.64,461.64,0,0,0,99.38-10.55c2-.43,4.1-.84,6.12-1.29l5.94-1.45,5.94-1.47c1-.25,2-.49,2.94-.75l2.81-.77,11.21-3.14,10.59-3.23c13.77-4.34,26.28-8.73,37.66-12.85,22.38-8.18,40.49-15.09,53.85-19.16,3.48-1.13,6.36-1.87,9.3-2.72,1.33-.32,2.65-.65,4-1,.69-.2,1.22-.28,1.81-.41l1.71-.37c.56-.11,1.18-.3,1.68-.37l1.49-.22c1-.15,2-.4,3-.54,2-.15,4-.61,6.11-.65a100.3,100.3,0,0,1,12.83-.33c1.12.08,2.23.14,3.35.17a14,14,0,0,1,1.7.13l1.72.18c2.27.1,4.63.58,7,.82,18.89,2.93,40.27,10.6,60.55,23.11,1.3.72,2.52,1.59,3.78,2.39s2.55,1.57,3.77,2.45c2.46,1.75,5,3.38,7.39,5.26,4.91,3.54,9.59,7.49,14.21,11.49,2.24,2.08,4.56,4.06,6.71,6.24,1.07,1.08,2.24,2.07,3.27,3.2l3.17,3.28c1.1,1.06,2,2.24,3.08,3.35l1.54,1.68.77.83.72.87,2.92,3.44.74.85.69.89,1.38,1.76c1.92,2.3,3.6,4.72,5.39,7.08.46.58.87,1.18,1.27,1.79l1.24,1.81,1.25,1.79c.21.31.42.57.63.92l.66,1,2.66,4.13c.9,1.36,1.7,2.82,2.57,4.22,1.76,2.78,3.31,5.75,5,8.63,3.15,5.92,6.31,11.89,9.1,18.22l1.09,2.34,1,2.4,2.06,4.79,1.95,4.91,1,2.45.92,2.52c10,26.6,16.83,56.46,20.58,88.13s4.22,65.25,1.84,99.34c-.14,2.13-.33,4.27-.5,6.4s-.32,4.27-.55,6.41l-.6,6.42-.69,6.29c-1,8.27-2,16.18-3.24,23.33s-2.55,14-4.07,19.87a158.51,158.51,0,0,1-4.69,15.9c-3.25,9.25-6.56,15.26-9.24,19.12-.4.72-.41.56-.49.76s-.21.3-.38.44-.31.32-.42.52-.32.36-.53.51-.37.32-.52.52-.35.33-.54.44-.35.25-.48.41-.29.23-.42.27-.22.11-.28.2-.11.1-.12,0l1,1.92c.4.77.8,1.56,1.18,2.38.8,1.6,1.53,3.34,2.28,5s1.44,3.5,2.07,5.38,1.24,3.67,1.79,5.44,1,3.58,1.41,5.45q.32,1.26.57,2.61c.08.46.16.89.25,1.28l.22,1.24a73,73,0,0,1,.94,8.93l0,1.8v.86c0,.31,0,.57,0,.77,0,.45,0,.93-.07,1.42s0,.71-.09,1.1l-.1.89-.11.67q0,.18-.09.45c5-23.27,1.23-5.7,2.25-10.55l-.32,1.33a53.16,53.16,0,0,1-2.22,7.14c-.11.29-.28.69-.39.93a5.77,5.77,0,0,1-.27.58l-.1.21v0l0-.07a28.69,28.69,0,0,1,2.18-3.11,68.32,68.32,0,0,1,6-6.58,108.19,108.19,0,0,1,10.33-8.82,151.18,151.18,0,0,1,14.35-9.6q2.07-1.29,4.17-2.43c.94-.51,1.13-.65,1-.56l0,0s0-.09-.07-.14,0,0-.06-.09a.47.47,0,0,0-.06-.15,37.23,37.23,0,0,1-1.94-5.44,100.72,100.72,0,0,1-3.27-23.93,138.33,138.33,0,0,1,2.42-29.59,112.71,112.71,0,0,1,3.24-13l1.72-5.22c.57-1.79,1.28-3.74,1.93-5.63l1-2.85,1.08-3,1.09-3c.35-1,.72-2,1.12-3L1408,1463l2.51-6.38,1.29-3.24,1.32-3.3,2.73-6.71,5.77-13.92,6.16-14.7c4.22-10,8.62-20.48,13.14-31.59s9.13-22.73,13.69-35,9.09-25.29,13.37-39l1.59-5.17.79-2.58.78-2.67,3-10.71,2.89-11c1-3.69,1.82-7.58,2.72-11.37a490.6,490.6,0,0,0,8.56-48.48,422.32,422.32,0,0,0,3.08-53c0-9.08-.47-18.36-1.08-27.59q-.61-7-1.32-13.94c-.5-4.65-1.19-9.34-1.84-14a390.67,390.67,0,0,0-12.2-54.32,417.93,417.93,0,0,0-18.69-50.08,453.92,453.92,0,0,0-23.28-45,537.12,537.12,0,0,0-54.07-75.38,727.13,727.13,0,0,0-58-60.39q-14.66-13.68-29.29-26.16l-7.3-6.2-1.82-1.54-1.78-1.46-3.56-2.91-14.24-11.63A1408.66,1408.66,0,0,0,882.67,554.47l-17.22-6.41-8.61-3.19c-2.87-1.07-5.74-2.13-8.65-3.11l-17.38-6-8.7-3-4.35-1.48L813.38,530l-17.54-5.52c-5.9-1.84-11.53-3.66-17.93-5.51-12.51-3.67-25.39-7.17-38.7-10.4a639.85,639.85,0,0,0-85.71-15.1c-30.72-3.13-64-4-100,.06a379.21,379.21,0,0,0-55.39,10.44,352.66,352.66,0,0,0-56.7,20.47,342.4,342.4,0,0,0-100.52,70.85A368.7,368.7,0,0,0,303.57,640a409.84,409.84,0,0,0-28.23,46,503.09,503.09,0,0,0-36,88.51,736.35,736.35,0,0,0-19.5,81c-2.39,12.87-4.45,25.45-6.29,37.73-.92,6.12-1.78,12.26-2.58,18.13L208.7,928.4c-3,22.93-5.7,46.4-7.95,70.44-.54,6-1.12,12-1.6,18.13l-1.37,18.37c-.77,12.39-1.52,24.78-1.93,37.45-.91,25.26-1,51.1,0,77.49s3.42,53.4,7.24,80.7l1.49,10.25.76,5.12.9,5.15c1.23,6.89,2.43,13.72,3.75,20.65,2.8,14.11,6.12,28.14,9.86,42.1A629.37,629.37,0,0,0,248.33,1397c5.75,13.61,12.13,27.09,19,40.45S281.68,1464,289.83,1477a523.6,523.6,0,0,0,56.56,75.07c10.78,11.88,22.25,23.4,34.4,34.4a480.62,480.62,0,0,0,38.58,31.28c6.73,5,13.68,9.62,20.72,14.25l10.88,6.82c3.66,2.2,7.36,4.32,11,6.46a457,457,0,0,0,45.48,22.5,462.93,462.93,0,0,0,95.39,29,470.86,470.86,0,0,0,98.48,8.29,462.74,462.74,0,0,0,98.85-12.66,448.27,448.27,0,0,0,139.79-60,467.47,467.47,0,0,0,40.52-29.63,473.74,473.74,0,0,0,36.82-33.46,478.78,478.78,0,0,0,61.72-77.18A474.65,474.65,0,0,0,1103.6,1449a468.78,468.78,0,0,0,20-45.89,453.34,453.34,0,0,0,15-48.38l1.53-6.18,1.37-6.25c.91-4.17,1.82-8.33,2.57-12.55l1.16-6.38.59-3.31.61-4c.4-2.67.81-5.35,1.14-8l.92-8.06a333.61,333.61,0,0,0,.28-63.65,322.23,322.23,0,0,0-4.5-31.92,303.88,303.88,0,0,0-8.18-33,283.23,283.23,0,0,0-13-34.53c-.67-1.47-1.32-2.93-2-4.41l-2.22-4.51-2.27-4.49c-.75-1.48-1.55-3-2.42-4.53q-2.54-4.59-5.18-9.12c-1.88-3.1-3.84-6.19-5.82-9.25a250.52,250.52,0,0,0-29.73-37.1,233.73,233.73,0,0,0-42.16-34.11c-2-1.26-4.05-2.51-6.1-3.73s-4.12-2.41-6.27-3.54c-4.27-2.29-8.57-4.51-13-6.57s-8.92-3.91-13.44-5.71-9.12-3.3-13.73-4.8-9.22-2.75-13.86-3.89-9.32-2.22-13.84-3-9.15-1.54-13.77-2.11-9.29-.93-14-1.24a238.75,238.75,0,0,0-50.71,2.55,271.25,271.25,0,0,0-39.55,9.34c-11.29,3.56-21,7.31-29.08,10.71s-15,6.55-20.62,9.17l-15.35,7.17-15.47,7.32-15.88,7.64c-2.63,1.25-5.39,2.64-8.1,4l-8.16,4c-21.92,11-44.81,23.16-68.3,37.36a638,638,0,0,0-71.46,49.78,495.59,495.59,0,0,0-68.92,67.46l-2,2.38c-.66.77-1.44,1.77-2.15,2.65l-4.33,5.46c-2.92,3.64-5.59,7.36-8.33,11.07s-5.29,7.49-7.87,11.27-5,7.62-7.44,11.47a404.52,404.52,0,0,0-44.64,98.84l-1.94,6.61-1.77,6.7-1.72,6.72-1.54,6.83c-.55,2.52-1.15,5.11-1.66,7.73l-1.47,8-1.37,8-1.12,8c-5.77,42.87-4,86.66,6.17,128.19a310.19,310.19,0,0,0,36.4,88.17c5.54,9,11.57,17.77,17.85,26.3,3.55,4.39,7.07,8.82,10.69,13.16.88,1.09,1.82,2.15,2.77,3.2l2.85,3.13,5.75,6.22c3.94,4,8,8,12.09,11.88s8.42,7.54,12.75,11.17a309.81,309.81,0,0,0,56.71,37.2c40.45,20.66,85.59,32.57,131.52,35.38a357.11,357.11,0,0,0,69-2.44c5.72-.8,11.42-1.71,17.11-2.68,5.3-1,10.48-2.1,15.66-3.25s10.33-2.52,15.47-3.93,10.27-3,15.37-4.65a345,345,0,0,0,60-26.17c4.87-2.77,9.72-5.45,14.5-8.53s9.54-6,14.22-9.38l7-5,1.73-1.26,1.56-1.19,3.11-2.4,6.18-4.84c2-1.63,4-3.33,6-5a371.16,371.16,0,0,0,43.66-43.56,388.25,388.25,0,0,0,34.95-48.32,419.9,419.9,0,0,0,45.15-103.06A460.16,460.16,0,0,0,1105.94,1396a468.84,468.84,0,0,0-.44-53c-.23-4.42-.66-8.85-1-13.28l-.3-3.32-.37-3.15-.76-6.28-1.61-12.54c-.25-2.1-.6-4.14-1-6.2l-1-6.15A569,569,0,0,0,1075,1198.3a687.32,687.32,0,0,0-35.83-83.28c-13.24-26.07-27.49-50.53-42.23-73.71-3.7-5.77-7.43-11.44-11.15-17.16l-11.27-16.66C968,998,961.75,989,955.89,980.27c-11.75-17.39-22-33.45-30.3-48-4.19-7.3-7.73-14.12-10.7-20.36l-1.13-2.34-1-2.21-1-2.2c-.37-.75-.57-1.38-.87-2.08.12.32.06.21.08.23v0s0,0,0,0,0,0,0,0v0l-.57.11-.15,0,.23,0,.57-.1,1.21-.16c1.59-.25,3.3-.41,5-.62s3.49-.33,5.32-.42c3.63-.23,7.4-.4,11.28-.37,1,0,2,0,2.92,0s2,0,2.93.07l2.08.07h0a6.31,6.31,0,0,1,0-.64l.37-5.32c.22-3.45.54-7,.81-10.3l.48-5c.15-1.64.32-3.27.5-4.91l.55-4.83c.19-1.58.39-3.17.61-4.76.77-6.19,1.75-12.27,2.74-17.95S950,837,951.29,831.75c1.14-5,2.55-10,3.87-14.44a141.17,141.17,0,0,1,8.89-22.57l1.12-2.14,1.14-2c.35-.62.72-1.23,1.11-1.84.21-.31.39-.59.55-.86l.52-.8c.78-1.13,1.35-2,2.08-2.91.35-.44.6-.79.93-1.18l.9-1c.27-.31.56-.62.86-.92s.45-.48.7-.72l.64-.59c.17-.16.43-.37.57-.49s.62-.47.69-.53l.21-.14-.05,0-.1.06-.28.13-.44.19c.67-.27-1.65.65,1.48-.6l-.2.09-.4.15c-.41.13-1.36.47-2.08.63-.46.13-1,.28-1.51.39l-.76.15-1,.21c-.67.13-1.26.21-2,.32s-1.6.25-2.39.33l-2.71.28-1.44.1-.72,0-.84.06c-1.16.08-2.3.12-3.45.14h-.88l-1,0-2,0c-2.48-.05-6.09,0-9.28-.24-.37,0-.87-.05-1.37-.06l-1.49-.07-3-.18-6.53-.49c-2.44-.2-4.87-.43-7.29-.71-3-.28-6.16-.61-9.22-1l-10.77-1.34-6.07-.83-6.38-.93Q883.42,774.31,875,773l-22.16-3.57-6-1h0s0,0,0,0l-.05.28-.24,1.13-.48,2.46c-.33,1.64-.79,3.29-1.12,4.94-.49,1.65-.85,3.31-1.35,5s-.93,3.33-1.55,5a157.26,157.26,0,0,1-8,19.78,166.23,166.23,0,0,1-11,19l-.75,1.15-.81,1.13-1.6,2.26c-1.08,1.5-2.23,2.94-3.32,4.43s-2.28,2.9-3.48,4.29-2.34,2.85-3.61,4.17a162.5,162.5,0,0,1-15.55,15.2,140.4,140.4,0,0,1-34.45,21.63,135.09,135.09,0,0,1-18.71,6.52,151.6,151.6,0,0,1-20.48,3.87,146.27,146.27,0,0,1-21.39,1,157.32,157.32,0,0,1-21.41-2,142.4,142.4,0,0,1-39.13-12.31l-2.2-1.06-2.12-1.15c-1.46-.7-2.77-1.56-4.17-2.32-.71-.37-1.35-.81-2-1.22s-1.33-.82-2-1.22l-1.67-1.12-.84-.53-.81-.6a99.84,99.84,0,0,1-12.79-10.73,126.5,126.5,0,0,1-22.52-31.09,159.58,159.58,0,0,1-14.64-41.14,165.87,165.87,0,0,1-3.3-44.11,133.61,133.61,0,0,1,8.09-38.88,97,97,0,0,1,16.39-28.42L345.47,463.45c-7.84,9.34-15.35,18.95-22.32,28.87s-13.57,20.06-19.56,30.46-11.65,21-16.7,31.68c-2.6,5.35-4.93,10.76-7.3,16.18S275.06,581.51,273,587a458.38,458.38,0,0,0-28.49,133.49,490.91,490.91,0,0,0,9.65,131.74A484.39,484.39,0,0,0,298.93,977.1a451.35,451.35,0,0,0,81.53,111.07,425,425,0,0,0,54.91,46l3.7,2.61,3.76,2.52c2.51,1.67,5.06,3.38,7.55,5l7.4,4.6c2.48,1.53,5,3.06,7.46,4.49,5,2.88,10,5.81,15.13,8.46l7.64,4,7.73,3.82a467.51,467.51,0,0,0,128.89,40.88,480.12,480.12,0,0,0,66.58,6.19,470.49,470.49,0,0,0,66.86-3.11A477.76,477.76,0,0,0,824.41,1201a459.24,459.24,0,0,0,64.71-22.56,449.59,449.59,0,0,0,60.59-32,479.4,479.4,0,0,0,54.42-39.8,489.78,489.78,0,0,0,47.7-46.51c3.74-4.08,7.27-8.34,10.86-12.55s7-8.58,10.42-12.89,6.71-8.78,9.94-13.26l4.81-6.75,2.38-3.39,2.31-3.44a492.35,492.35,0,0,0,33.33-57.42,481.79,481.79,0,0,0,25.27-62.06c1.82-5.31,3.37-10.75,5-16.15s3-10.91,4.42-16.38,2.65-11,3.8-16.61l1.67-8.38.83-4.29.89-5.16.47-2.9.47-3.12.47-3.44.23-1.73.22-1.91.43-3.84.39-4.22.17-2.13.16-2.31c.09-1.56.18-3,.26-4.66.13-3.4.23-6.59.21-10.37l0-2.73,0-1.37,0-1.46q-.09-3-.24-5.92l-.09-1.49-.11-1.59-.25-3.18c-.19-2.13-.38-4.17-.66-6.5s-.58-4.52-.91-6.77-.79-4.77-1.23-7.14l-.7-3.57-.83-3.76c-.58-2.51-1.18-5-1.86-7.49-1.44-5.22-3-10.24-4.92-15.57-.95-2.61-1.94-5.27-3-7.79s-2.14-5-3.28-7.52c-2.29-5-4.86-10-7.59-14.78a196.89,196.89,0,0,0-18.73-27.28c-1.72-2.1-3.45-4.09-5.22-6.09l-2.69-3c-.89-1-1.78-1.88-2.68-2.82q-2.7-2.79-5.49-5.48c-1.8-1.72-3.64-3.41-5.5-5.07-.93-.82-1.88-1.67-2.8-2.45l-2.75-2.3c-1.83-1.5-3.74-3-5.57-4.44-3.62-2.75-7.41-5.5-11-7.84l-2.73-1.79-1.37-.88-1.31-.83c-1.76-1.08-3.53-2.15-5.31-3.19l-1.33-.78-1.28-.72-2.57-1.42c-1.69-.93-3.49-1.9-5.11-2.71s-3.31-1.67-5-2.47c-.85-.42-1.65-.79-2.44-1.16l-2.4-1.09c-3.28-1.49-6.29-2.73-9.4-4l-2.26-.89-2.23-.83c-1.46-.54-3-1.12-4.41-1.6-2.83-1-5.75-1.95-8.43-2.76-5.56-1.72-10.65-3-15.71-4.27-4.89-1.14-9.72-2.15-14.2-2.93s-8.85-1.46-13.07-2-8.2-1-12-1.32-7.61-.6-11.25-.8l-2.7-.14-2.22-.09-4.05-.14q-4-.15-8.12-.2c-2.71,0-5.41-.1-8.14-.07-10.86,0-21.83.36-32.9,1.07-5.53.34-11.13.86-16.71,1.38s-11.26,1.24-17,2.06l-4.26.6-4.8.75-6,1-5.43,1c-3.62.7-7.23,1.41-10.83,2.17s-7.18,1.61-10.76,2.46a392.5,392.5,0,0,0-42.13,12.7,355.68,355.68,0,0,0-40,17.49,314.93,314.93,0,0,0-70.66,49.23,295.37,295.37,0,0,0-53.34,66.58c-2.67,4.89-5.34,9.79-7.92,14.74-1.33,2.45-2.49,5-3.67,7.52l-3.48,7.61-1.7,3.83c-.54,1.29-1,2.59-1.55,3.88l-3,7.82c-2.06,5.19-3.69,10.54-5.38,15.86a295.92,295.92,0,0,0-12.31,65.92,320.73,320.73,0,0,0,2.55,67.69,374,374,0,0,0,16,66.77c1.82,5.46,3.8,10.89,5.81,16.29l1.52,4,.78,2q.38,1,.81,2.07l3.38,8.16c1.65,4,3.35,7.8,5.05,11.59l2.57,5.69,2.6,5.48c7,14.6,14.18,28.23,21.45,41,14.54,25.55,29.33,48.32,43.41,69.21,7.05,10.45,13.93,20.45,20.48,30l8.14,12,7.72,11.89c10,15.78,19,31.3,26.66,46.41a364,364,0,0,1,19,43.84,244.69,244.69,0,0,1,10.58,40.09l.42,2.38a22.07,22.07,0,0,1,.38,2.35c.17,1.55.35,3.1.55,4.64l.32,2.32c0,.38.12.79.16,1.14l.07,1c.1,1.32.28,2.64.32,4a146,146,0,0,1,.13,16.21,136.27,136.27,0,0,1-5,30.85A95.69,95.69,0,0,1,766,1434.68a53.72,53.72,0,0,1-10.88,13.07c-.22.18-.41.41-.63.56a7.79,7.79,0,0,0-.65.48l-.31.26-.15.14h0a.07.07,0,0,0-.08,0c0,.09-.16.07-.23.16s-.31.12-.42.25a18.94,18.94,0,0,1-3.39,1.45,11.89,11.89,0,0,0-1.21.37,8.58,8.58,0,0,0-1.3.34,7.06,7.06,0,0,0-1.3.27c0-.07,0,0,0,0s0,0,0,0h0a.67.67,0,0,0,.07-.2c.08-.36.15-.73.22-1.1l.32-1.14c.1-.38.19-.76.28-1.15l.37-1.17a77.51,77.51,0,0,1,3.65-9.76,80.5,80.5,0,0,1,5-9.42c.48-.72.89-1.51,1.4-2.16s.91-1.44,1.42-2,.92-1.35,1.43-1.9c.25-.3.48-.6.71-.91a6.41,6.41,0,0,1,.4-.51l.63-.69a171,171,0,0,1,23.9-23.12,314.75,314.75,0,0,1,35.15-24.28c13.57-8.22,28.91-16.48,45.7-24.89l6.38-3.17c2.15-1,4.22-2.1,6.48-3.18l13.39-6.44,13.89-6.57,14.07-6.58q6.27-2.91,9-4.06l1.14-.47a4.92,4.92,0,0,0,.6-.23c.12-.06,0,0,.07,0,.46,1.28-.37-1-2-5.72-1.31-4-2.35-7-3.29-9.67-1-2.85-1.91-5.73-2.8-8.62-1.87-6.35-3.2-10.23-4.51-15-.64-2.25-1.28-4.87-1.81-6.85s-1-3.76-1.49-5.66-.89-3.82-1.29-5.75c-.38-1.69-.73-3.12-1.05-4.71s-.61-3.14-.87-4.72c-.25-1.76-.5-2.65-.71-4-1.66-10.59-1.72-17.36-1.48-21.31a21.33,21.33,0,0,1,.19-2.31c-.79,6.41-.16,1.13-.29,2.25,0-.38.12-.78.2-1.18s.21-.94.22-1.09a7.44,7.44,0,0,1,.16-.73c.06-.26.13-.52.21-.79s.07-.26.12-.43a3.79,3.79,0,0,1,.12-.36c0-.09.14-.35.1-.25s0,.06,0,0l-.17.35c-.06.13-.13.24-.19.35s-.12.21-.28.5-.27.46-.41.68a47.3,47.3,0,0,1-7,8.3,91.41,91.41,0,0,1-14.38,11.37c-1.49,1-3,1.93-4.52,2.79-1.6,1-3.22,2-4.86,2.8-.8.41-1.64.85-2.5,1.33s-1.71.91-2.57,1.33l-5.23,2.47a188.64,188.64,0,0,1-21.29,8c-1.69.54-3.47,1-5.08,1.46s-3.23.89-4.83,1.26c-.83.18-1.53.38-2.28.56l-2.2.5-4.13.84-1.91.36-1.84.3c-.79.14-.32.06-.45.09s0,0,0,0,0,.07,0,.1,0,.08,0,.15a7.76,7.76,0,0,1,0,.86.5.5,0,0,0,0,.21s0,.11,0,.12,0,0,0,0h0s0,0,0,0l-.14.67-.29,1.62c-.16,1.11-.45,2.23-.69,3.35l-.35,1.69-.44,1.69a127.72,127.72,0,0,1-4.21,13.65,139.65,139.65,0,0,1-6,13.62,147.26,147.26,0,0,1-7.52,13.28A154.28,154.28,0,0,1,786,1340.8,148.75,148.75,0,0,1,774.71,1351a140.68,140.68,0,0,1-11.87,8.71,125.13,125.13,0,0,1-12.25,7,121.64,121.64,0,0,1-12.55,5.41,124.09,124.09,0,0,1-13.63,4.05,136.9,136.9,0,0,1-29.76,3.78,146,146,0,0,1-30.74-2.59,137.85,137.85,0,0,1-28.65-8.68,134.06,134.06,0,0,1-12.71-6.27c-1-.6-2-1.15-3-1.73s-1.9-1.22-2.88-1.81c-2-1.35-4-2.67-6-4.16q-6-4.38-11.86-9.6t-11.49-11.53a199.45,199.45,0,0,1-21.44-28.6c-3.37-5.33-6.53-11-9.58-16.9s-5.95-12-8.62-18.32a305.11,305.11,0,0,1-13.73-40c-1.86-7-3.54-14-5-21.12l-2-11.32-.52-2.84-.41-2.91-.83-5.82q-3.27-23.39-4.35-48.64c-.64-16.88-.58-34.38.06-52.39.28-9,.86-18.2,1.41-27.42l1-14c.37-4.69.84-9.48,1.25-14.22,1.79-19.08,4-38.63,6.64-58.64l2-15.11c.66-4.86,1.31-9.45,2-14q2-13.69,4.37-26.34a413.22,413.22,0,0,1,10.76-45.28A181.54,181.54,0,0,1,563,837.85a86.33,86.33,0,0,1,5.66-9.35,44.86,44.86,0,0,1,4.19-5.14,17.31,17.31,0,0,1,2.69-2.29,15.35,15.35,0,0,1,2.35-1.36,25.81,25.81,0,0,1,4.33-1.54,55.42,55.42,0,0,1,8.39-1.51,140.79,140.79,0,0,1,29.69.36,317,317,0,0,1,42.1,7.6c7.73,1.88,15.76,4,24,6.47,4,1.13,8.67,2.66,13.11,4L713,839.36l3.36,1,3.34,1.14,6.66,2.29,13.34,4.57c2.24.73,4.44,1.55,6.64,2.38l6.61,2.46,13.23,4.91a1081.78,1081.78,0,0,1,201,102.29,1075.26,1075.26,0,0,1,91.34,66.19l10.92,8.91,2.73,2.22,1.37,1.11,1.27,1.08,5.08,4.31q10,8.61,19.16,17.1a404.39,404.39,0,0,1,32,33.16c4.54,5.34,8.67,10.55,12.3,15.57s6.77,9.83,9.43,14.36a108.12,108.12,0,0,1,10.64,23.39,66.4,66.4,0,0,1,2,9c0,.71.22,1.37.28,2.1s.11,1.49.22,2.23c0,1.57.21,3.11.15,4.85a93.46,93.46,0,0,1-.7,11.79c-.58,4.54-1.48,9.69-2.79,15.44-.36,1.48-.63,2.88-1.05,4.43l-1.21,4.66-1.41,4.91-.34,1.23-.41,1.3-.8,2.59c-2.19,7-4.73,14.43-7.72,22.46s-6.36,16.54-10,25.5-7.65,18.47-11.81,28.38l-6.4,15.25-6.66,16.08-3.39,8.34-1.7,4.23-1.71,4.3-3.43,8.74-3.43,9c-.58,1.49-1.15,3-1.71,4.59l-1.71,4.66-1.7,4.68-1.69,4.81c-1.12,3.23-2.24,6.37-3.34,9.74l-1.65,5-.82,2.49-.88,2.74c-2.68,8.42-5,16.76-7.12,25.09s-3.94,16.63-5.52,24.9a463.36,463.36,0,0,0-8.15,99.64,442.46,442.46,0,0,0,4.33,51.19q1.85,13,4.64,26.27c1.87,8.85,4,17.76,6.6,26.81a360.28,360.28,0,0,0,20.69,55.36c4.45,9.4,9.43,18.86,15.08,28.32a311,311,0,0,0,19.1,28.29,294.3,294.3,0,0,0,23.57,27.46,284.54,284.54,0,0,0,28.31,25.44,276.44,276.44,0,0,0,68.06,39.19,284.09,284.09,0,0,0,36.72,11.8q4.58,1.1,9.17,2.12,4.84,1,9.71,1.86c3.25.61,6.49,1.06,9.75,1.52s6.51.89,9.75,1.18a276,276,0,0,0,38.64,1.29,283.11,283.11,0,0,0,37.13-3.76c6.05-1,11.9-2.21,17.76-3.51s11.54-2.82,17.09-4.5,11-3.45,16.49-5.33,10.67-4,15.79-6.14,10.19-4.46,15.19-6.81,9.82-4.87,14.53-7.48,9.36-5.29,14-8,9-5.65,13.34-8.63,8.6-6,12.83-9.13,8.28-6.34,12.25-9.66,7.91-6.7,11.78-10.14,7.6-7,11.25-10.66,7.24-7.38,10.78-11.14,6.95-7.69,10.28-11.7,6.6-8.08,9.81-12.2,6.44-8.6,9-12.42a403.16,403.16,0,0,0,49-96.55,480.69,480.69,0,0,0,13.82-46.34c3.79-15.09,6.61-29.58,9-43.73s4.21-27.75,5.73-41l1.07-9.85.93-9.75c.33-3.24.58-6.51.84-9.77s.54-6.51.76-9.78c1.8-26.17,2.64-52.57,2.12-79.27-.2-13.33-.82-26.75-1.66-40.21-.49-6.75-.94-13.48-1.6-20.25s-1.34-13.55-2.1-20.33c-1.63-13.59-3.51-27.21-5.92-40.89-1.12-6.82-2.49-13.68-3.82-20.52-.66-3.42-1.45-6.85-2.18-10.28s-1.45-6.85-2.3-10.28l-2.47-10.29c-.83-3.43-1.77-6.86-2.67-10.29-1.75-6.86-3.8-13.72-5.78-20.57-1-3.43-2.12-6.85-3.19-10.28s-2.16-6.84-3.35-10.26l-3.5-10.25-3.75-10.22-1.9-5.11-2-5.09-4.07-10.18-4.33-10.13-2.19-5-2.31-5c-6-13.45-12.85-26.72-20-39.85-3.68-6.53-7.29-13.08-11.24-19.5-2-3.22-3.85-6.46-5.89-9.64l-6.13-9.53-1.54-2.38c-.5-.79-1.1-1.62-1.64-2.43l-3.36-4.9-3.37-4.87c-1.12-1.63-2.25-3.25-3.43-4.83-4.66-6.34-9.32-12.7-14.25-18.78a532.6,532.6,0,0,0-139.35-123.42l-10.13-6c-3.38-2-6.87-3.88-10.31-5.8-6.86-3.89-14-7.43-21.07-11-3.55-1.78-7.2-3.43-10.81-5.13s-7.23-3.37-10.94-4.91l-11.1-4.69c-3.73-1.51-7.52-2.94-11.29-4.38L1341,814c-1.9-.7-3.84-1.34-5.76-2l-11.56-3.92c-3.91-1.22-7.85-2.39-11.77-3.57l-5.9-1.74-6-1.57c-4-1-8-2.08-12-3.07l-12.2-2.68c-2-.42-4.06-.89-6.12-1.27l-6.19-1.12c-4.14-.71-8.25-1.48-12.43-2.1-8.39-1.16-16.72-2.38-25.25-3.08l-6.37-.58c-2.12-.19-4.24-.38-6.39-.48l-12.87-.65a426.06,426.06,0,0,0-52.06,1.26c-8.72.61-17.45,1.84-26.16,3-4.35.63-8.69,1.43-13,2.18l-6.51,1.17c-2.16.39-4.17.86-6.26,1.3l-6.22,1.35c-2.06.46-4.18.91-6.1,1.41l-11.79,3c-7.49,2.05-15,4.17-21.88,6.34-13.91,4.32-26.71,8.78-38,12.87l-30.67,11.26q-13.47,4.89-23.8,8.17L952.76,841l-4.44,1.23-1.1.32c-.37.1-.66.16-1,.24l-1.94.47-1.94.5c-.63.13-1.23.21-1.84.33A135.35,135.35,0,0,1,911,847.23a156.51,156.51,0,0,1-31.67-3.5,202.64,202.64,0,0,1-34.35-10.63,266.67,266.67,0,0,1-36-18,338.17,338.17,0,0,1-36-24.72,393,393,0,0,1-34.39-30.62A449.12,449.12,0,0,1,678.93,686c-2.15-3.33-4.17-6.72-6.29-10.06-1.07-1.66-2-3.37-3-5.07l-3-5.09-1.49-2.54c-.5-.85-1-1.8-1.5-2.69-1-1.82-2-3.62-3-5.44l-2.9-5.43-2.8-5.44q-5.5-10.87-10.35-21.68t-8.8-21.41c-10.68-28.26-16.87-55.27-18.06-78a148.89,148.89,0,0,1-.13-16.31l.06-1.95c0-.65.11-1.26.15-1.9.12-1.24.12-2.54.29-3.75s.27-2.44.38-3.66.36-2.36.51-3.55a16.37,16.37,0,0,1,.29-1.75l.31-1.72c.1-.57.17-1.17.29-1.73l.38-1.67c.24-1.12.42-2.26.74-3.33l.41-1.64.19-.82a4.41,4.41,0,0,1,.2-.72c.3-.8.56-1.62.79-2.44.11-.41.22-.83.32-1.24a8.34,8.34,0,0,1,.46-1.23c.71-1.63,1.06-3.34,2-5a98.29,98.29,0,0,1,12.06-20.56,129,129,0,0,1,19.5-19.94c15-12.68,34.46-22.38,53.24-27.49l.88-.27c.29-.08.59-.13.88-.2l1.76-.38c1.17-.27,2.34-.56,3.5-.87s2.32-.37,3.47-.59l1.72-.35.86-.17.86-.09c1.13-.13,2.26-.27,3.39-.44.56-.08,1.13-.19,1.69-.26l1.65-.09c1.11-.08,2.2-.18,3.3-.3a11.16,11.16,0,0,1,1.62-.07l1.6,0c1.07,0,2.15-.13,3.19-.13s2.06.1,3.08.11c2.1-.11,4,.29,6,.34a18.81,18.81,0,0,1,2.86.33c.94.14,1.89.25,2.83.33s1.79.4,2.7.55l1.35.23a6.31,6.31,0,0,1,1.32.27c.85.26,1.7.48,2.56.68l1.29.27c.42.12.81.29,1.22.42.81.28,1.62.53,2.45.76l.62.16c.22.06.53.19.79.29l1.64.6a144.5,144.5,0,0,1,13.8,6c4.85,2.41,10,5.23,15.34,8.56s11.05,7.16,17,11.46c11.84,8.59,24.64,19,38.35,31.16s28.33,25.76,44,40.54c7.89,7.41,16.07,15.09,24.62,23s17.22,15.85,27.35,24.75a792,792,0,0,0,64.09,50.8,586.82,586.82,0,0,0,76.75,46.34,486.23,486.23,0,0,0,44.83,19.71,426.84,426.84,0,0,0,50,15.55,389.69,389.69,0,0,0,55,9.34A365.55,365.55,0,0,0,1301,690c5-.38,9.91-.77,14.85-1.27s9.89-1.23,14.82-1.91,9.74-1.64,14.6-2.53c2.44-.42,4.83-.95,7.23-1.48l7.18-1.61c4.82-1.05,9.48-2.37,14.18-3.65,2.34-.65,4.71-1.28,7-2l6.88-2.18,6.86-2.23,1.32-.45.74-.26c.89-.31,2.4-.92,2-.75L1333.08,1171Z"/><path class="b" d="M1529.07,1196c-3,2.31-2.82-4.77-4.3-6.94,2.32-9,4.52-19.6,7.58-18.16Q1530.72,1183.51,1529.07,1196Z"/><path class="b" d="M1703.42,259.49l-1.21-1.87c-.39-.62-.76-1.23-1.11-1.69-.7-1-1.34-1.94-1.93-2.86-1.19-1.84-2.18-3.54-3-5.14-1.72-3.18-2.92-6-4.06-8.69a50.47,50.47,0,0,0-3.92-7.64,35.52,35.52,0,0,0-3.62-4.61,53.37,53.37,0,0,0-6.83-6.15,79.68,79.68,0,0,0-8-5.89,59.55,59.55,0,0,0-6.75-3.78,36.43,36.43,0,0,0-8.9-3.09,51.54,51.54,0,0,0-6-.72,65.68,65.68,0,0,1-7-1,119.94,119.94,0,0,0-21.13-5.29c-1.46-.23-2.8-.38-4.07-.52s-2.45-.2-3.68-.31c-2.41-.22-5-.32-7.52-.47l-3.94-.13-2-.06-2.06,0-4.15,0-4.37.1-2.19,0-2.31.11-4.63.22-4.92.4c-.83.07-1.62.12-2.48.21l-2.62.29c-1.76.2-3.47.37-5.27.6l-5.62.83c-1,.15-1.83.25-2.84.44l-3,.57c-2,.39-4,.72-6.08,1.17l-6.49,1.49-1.62.38c-.53.12-1.07.24-1.67.42l-3.49,1-3.5,1-1.74.49c-.58.16-1.16.32-1.8.54l-7.52,2.51-1.88.62c-.62.21-1.25.41-1.94.7l-4,1.59-4,1.59-2,.79-1,.4c-.34.14-.71.33-1.07.48l-8.66,4-2.16,1-1.08.5c-.36.17-.76.41-1.14.6l-4.62,2.49-4.6,2.48-2.31,1.24-1.15.63c-.38.21-.81.49-1.21.74l-9.75,6.12-2.44,1.53-1.21.76c-.41.27-.85.62-1.27.92l-5.11,3.75-5.1,3.74-2.55,1.88-1.27.93c-.43.33-.88.75-1.32,1.12L1434.75,262l-2.63,2.29-1.31,1.14c-.45.41-.89.87-1.34,1.31l-5.34,5.3c-3.55,3.54-7.11,7-10.64,10.6l-10.58,10.77-20.83,21.26q-5.1,5.15-10.2,10.25l-2.54,2.56-1.27,1.27-1.25,1.21-5,4.82-5,4.82-2.49,2.4-1.24,1.2-1.23,1.1-9.79,8.83-2.44,2.2-1.22,1.1-1.22,1-4.84,3.92-4.84,3.9-2.41,1.95-1.21,1c-.4.29-.81.55-1.21.83l-9.71,6.55-2.42,1.63-1.21.82a2.64,2.64,0,0,1-.55.31l-.51.26-4.1,2-7.72,3.8c-.6.24-1.2.5-1.78.78l-.88.42-.86.33c-.57.23-1.13.47-1.69.74s-1.11.38-1.65.6a12.55,12.55,0,0,1-1.64.6c-.55.17-1.09.36-1.63.57a4.32,4.32,0,0,1-.8.25l-.78.23c-.53.13-1,.39-1.58.49s-1.07.25-1.61.41a11.3,11.3,0,0,1-1.65.38c-.56.11-1.11.27-1.69.39s-1.17.17-1.76.28l-.88.18-.93.09c-.62.06-1.24.15-1.86.26l-2,.13c-1.29.19-2.71.12-4.1.23.75-1.32,0-1.95-1.42-2.55a10.66,10.66,0,0,0-1.2-.37c-.43-.11-.88-.18-1.39-.33-1-.27-2-.49-3.06-.72a14.36,14.36,0,0,1,4.59-6.65,35.78,35.78,0,0,1,6.67-4.43,58,58,0,0,0,7-.49c.53,0,1-.21,1.49-.26.24,0,.49-.07.73-.09s.47-.13.7-.19c.46-.12.92-.17,1.38-.28a10.85,10.85,0,0,1,1.32-.37,52.71,52.71,0,0,0,5.68-1.91l.75-.26c.25-.07.51-.24.77-.34.52-.24,1-.45,1.58-.64l9-4.41,2.28-1.12,1.15-.55c.19-.11.36-.16.58-.31l.68-.46,5.41-3.67,5.41-3.67a57.79,57.79,0,0,0,5.39-3.89l10.71-8.73,2.67-2.19c.9-.78,1.79-1.62,2.69-2.43l5.38-4.91,5.37-4.91c.9-.83,1.79-1.58,2.7-2.5l2.72-2.66,10.89-10.66,1.36-1.33,1.39-1.41,2.76-2.82,5.53-5.64,5.53-5.63,5.61-5.8,11.23-11.64,11.36-11.71,5.67-5.85,5.71-5.73,5.7-5.73,2.85-2.86,1.43-1.44.71-.71.7-.62,11.22-9.81,2.8-2.45a29.87,29.87,0,0,1,2.77-2.29l5.4-4,5.4-4,2.7-2,1.35-1c.44-.32.86-.55,1.29-.83l10.26-6.44,2.56-1.6,1.29-.81c.41-.24.8-.44,1.21-.66l4.82-2.58,4.83-2.59,2.41-1.29,1.21-.64,1.13-.53,9-4.1,2.25-1,1.13-.51c.37-.17.7-.28,1.06-.42l4.18-1.61,4.19-1.62,2.09-.81c.7-.27,1.41-.55,2-.73l7.76-2.51,1.93-.63c.64-.2,1.32-.44,1.9-.58l3.58-1c2.38-.63,4.81-1.31,7.14-1.9l6.63-1.45,3.3-.71,3.07-.53,6.14-1.07,5.7-.75,2.85-.38,2.66-.26,5.3-.5,5-.32,2.48-.15c.82,0,1.56,0,2.34-.08l4.64-.12c5.94-.06,11.65,0,16.81.39,2.69.13,5.12.38,7.67.59s4.82.52,7.32.87a137.59,137.59,0,0,1,19.37,4.36c1.92.57,3.91,1.21,6,1.94s4.27,1.51,6.58,2.42,4.71,1.92,7.23,3.06,5.16,2.42,7.83,3.78c-2.66.64-3.3,2-2.43,4s3.32,4.57,6.49,7.73,7,6.77,10.08,10.16a86.85,86.85,0,0,1,7.44,9.38c1,1.45,1.92,2.9,2.84,4.38s1.84,3.21,2.7,4.78a72.23,72.23,0,0,1,4.24,9.14,22.57,22.57,0,0,1,1.6,8C1705.64,256.2,1704.94,258.19,1703.42,259.49Z"/><path class="b" d="M308.15,420.22c-.67,1.72-1.36,3.78-2.06,6.07s-1.29,4.81-1.94,7.44-1.31,5.37-1.91,8.1-1.14,5.45-1.68,8.05S299.44,455,299,457.2s-1,4.22-1.47,5.86c-1,3.28-2,5.14-3.07,4.63q.64-5.26,1.35-10c.45-3.12,1.07-6.08,1.6-8.83s1.13-5.32,1.69-7.68,1.24-4.55,1.85-6.53a64.3,64.3,0,0,1,3.67-9.55A15,15,0,0,1,308.15,420.22Z"/><path class="b" d="M613.05,550.08c2.35,7.52,5.7,19.61,9,31.19.4,1.45.79,2.88,1.17,4.28s.78,2.8,1.12,4.15c.17.68.33,1.35.5,2s.33,1.31.5,1.95c.32,1.27.59,2.5.83,3.67a56.89,56.89,0,0,1,1,6.24,13.76,13.76,0,0,1-.16,4.27c6.69,11.15,13.86,21.94,22.14,34.7,4.15,6.38,8.53,13.26,13.4,20.91,2.4,3.65,4.82,7.37,7.29,11.4,1.31,2,2.64,4,4,6.1l2,3.2,1,1.64L678,687.4c0,4.38.38,9.11-1.25,12.12l-6.94-7c-1.26-1.26-2.45-2.62-3.69-4l-3.83-4.29c-2.67-2.91-5.18-6.09-7.84-9.37-1.33-1.66-2.68-3.25-4-5.07l-4.12-5.54a290.3,290.3,0,0,1-28.6-48.06,169.69,169.69,0,0,1-8.86-23.24c-.55-1.83-1.06-3.63-1.46-5.38s-.84-3.46-1.16-5.13A81.05,81.05,0,0,1,605,573C604.13,561.19,606.79,553.06,613.05,550.08Z"/><path class="b" d="M1335.85,1127.88c-6.3-7-2.92-4.93.74-2.45l2.64,1.79a17.15,17.15,0,0,0,1.76,1.14c.36.17.44.08.1-.43-.18-.25-.46-.6-.86-1.08s-1-1-1.67-1.73a4.78,4.78,0,0,1,2.07.8,19.94,19.94,0,0,1,2.59,2.09,40.3,40.3,0,0,1,5.54,6.24,28.88,28.88,0,0,1,3.69,6.21c.62,1.7.57,2.78-.54,2.71-.58-.56-1.24-1.26-1.93-2.07s-1.51-1.65-2.3-2.57c-1.61-1.84-3.23-3.93-4.92-5.67a49.85,49.85,0,0,0-4.38-4.34C1337.12,1127.6,1336.21,1127.25,1335.85,1127.88Z"/><path class="b" d="M1362.76,1581.43a7.47,7.47,0,0,1,1,3.91,1.85,1.85,0,0,1-1.75,1.74,15.12,15.12,0,0,1-.69-4,1.85,1.85,0,0,1,.29-1.12.55.55,0,0,1,.18-.16,1.14,1.14,0,0,1,.25-.18A7.27,7.27,0,0,1,1362.76,1581.43Z"/><path class="b" d="M1177.26,808.12a181.6,181.6,0,0,0-17.57-14.67,96.11,96.11,0,0,0-11.12-6.93c-6.2-3.38-10.69-5.9-19.19-15.89-31.53-18.5-67.21-41-104-62s-74.56-40.7-108.65-55c-8.49-3.44-16.9-6.6-25.28-9.62-4.17-1.56-8.43-2.86-12.64-4.24l-12.68-4c-4.24-1.31-8.44-2.71-12.73-4L840.49,628c-8.65-2.54-17.34-5.32-26.33-7.93L800.78,616c-4.48-1.34-8.94-2.8-13.49-4L760,604.24c-18.79-5.16-38.3-10-58.62-14.1-10.16-2-20.52-3.88-31.09-5.44s-21.39-2.82-32.43-3.71a379.81,379.81,0,0,0-69,.31,304.57,304.57,0,0,0-36.18,5.76,276.12,276.12,0,0,0-36.41,10.81A259.48,259.48,0,0,0,461,614.19l-8.43,4.95c-2.77,1.71-5.46,3.51-8.18,5.28s-5.35,3.66-8,5.56-5.26,3.78-7.74,5.83a251.31,251.31,0,0,0-28.19,25.77c-4.37,4.53-8.36,9.25-12.37,14-3.8,4.78-7.63,9.57-11.08,14.47a297.67,297.67,0,0,0-18.86,29.69c-5.56,10-10.57,20-14.89,29.94-5.05,11.47-9.47,23-13.37,34.46S322.7,807,319.7,818.23c-6,22.56-10.41,44.58-14.18,65.8-1.86,10.6-3.53,21-5.11,31.14q-2.27,14.9-4.46,29.34c-3,19.37-5.83,38-8.55,55.77-3.34-15.51-4.2-36.38-3-60,.31-5.88.72-12,1.23-18.19s1.22-13,2-19.8c1.65-13.63,3.89-28,6.84-42.9,5.93-29.75,14.58-61.54,27.18-92.72A408,408,0,0,1,343.42,721a347.25,347.25,0,0,1,27.12-41.53c.86-1.32,1.77-2.61,2.69-3.88l2.69-3.77,2.62-3.67,2.67-3.55,5.18-6.83q2.64-3.3,5.14-6.41l2.46-3.1c.85-1,1.69-2,2.51-3l4.81-5.71c3.16-3.68,6.28-7.1,9.14-10.42A283.24,283.24,0,0,1,437.6,609.3a266.94,266.94,0,0,1,28.89-16.25l7.39-3.47c2.47-1.12,5-2.13,7.43-3.18l3.72-1.55c1.24-.5,2.49-1,3.73-1.43l7.46-2.76,7.45-2.47c1.24-.4,2.48-.83,3.72-1.2l3.71-1.08c2.47-.7,4.95-1.44,7.41-2.08l7.36-1.84c2.46-.63,4.89-1.12,7.32-1.64s4.87-1.06,7.28-1.49c4.81-.85,9.63-1.74,14.36-2.36,9.51-1.42,18.78-2.26,27.92-2.9a424.42,424.42,0,0,1,52.32,0c16.65,1,32.61,2.86,47.94,5.19s30,5.21,44.28,8.37c3.57.78,7.07,1.62,10.59,2.43l10.41,2.55c3.42.88,6.87,1.73,10.23,2.64l5.07,1.34,4.88,1.37L787.79,593l9.6,2.76,9.5,3c50.6,15.68,98.94,34.24,145.56,56.75,2.94,1.35,5.81,2.85,8.7,4.31l8.66,4.41c5.76,3,11.54,5.9,17.26,9s11.35,6.32,17,9.53,11.35,6.39,16.9,9.86c11.14,6.86,22.38,13.63,33.27,21.13q8.22,5.53,16.42,11.2c5.43,3.84,10.78,7.84,16.17,11.82,4.09,2,8.06,4.12,12,6.25s7.6,4.44,11.33,6.71,7.37,4.6,11,6.94l5.48,3.53,2.74,1.78,2.71,1.86c7.23,5,14.56,10,22.29,15.08l2.92,1.91,2.92,2,6,4q6.06,4,12.57,8c2.25,2,4.53,4,6.27,5.81s2.9,3.37,3,4.39C1194.6,812.4,1183.13,809.06,1177.26,808.12Z"/><path class="b" d="M356.25,794.39c-1.46,5.61-3.33,12.79-5.31,20.36-1,3.74-2,7.58-2.95,11.37l-2.93,11c-1,3.51-1.91,6.8-2.84,9.75s-1.82,5.54-2.69,7.65c-1.76,4.2-3.43,6.44-4.92,5.53-.84,12.9-3.51,26-6.33,40-1.4,7-2.87,14.22-4.14,21.71-.65,3.78-1.21,7.49-1.74,11.34s-1,7.77-1.39,11.78c-4.48,22.18-8.55,45.61-11.87,70.23s-5.87,50.44-7.19,77.33c-2.64,53.76-.24,112,12.13,171.92a533,533,0,0,0,27.15,89.51,478,478,0,0,0,44.92,85.73,434.71,434.71,0,0,0,29.8,39.82,402.17,402.17,0,0,0,35,36.48,382.2,382.2,0,0,0,39.92,32,357.48,357.48,0,0,0,44.4,26.39c1.7,2.43,1.44,3.53-.15,3.73a10.57,10.57,0,0,1-3.31-.31c-.69-.15-1.44-.33-2.25-.56s-1.64-.52-2.52-.83c-7.11-2.42-16.66-6.94-23.25-9.67-6-3.67-11.76-7.52-17.35-11.31q-4.14-2.88-8.21-5.72l-7.94-5.82c-10.42-7.81-20.22-15.75-29.52-23.84s-18-16.42-26.27-24.86-16.05-17.14-23.5-26-14.34-18-21-27.46-12.72-19.19-18.51-29.29a352.4,352.4,0,0,1-29-65.75,394.38,394.38,0,0,1-29.15-94.09c-5.9-32.58-8.32-65.75-8.34-98.07a848.78,848.78,0,0,1,5.55-93.86c3.27-30,7.43-58.54,11.17-85.28,2.62-10.18,5.43-22.51,8.32-36.33,1.48-6.93,2.89-14.09,4.46-21.93s3.21-16,4.9-24.32c6.86-33.62,15.46-71.82,28.27-108.93C351.85,777.32,355.8,786.53,356.25,794.39Z"/><path class="b" d="M406.84,1431.87l3.17-2.23c18.35,23.37,37.48,45.74,59.18,65.47a296.9,296.9,0,0,0,34.4,27.12,229.58,229.58,0,0,0,38.29,20.89c-5.81.21-16.83-3.68-28.38-9.07-2.87-1.38-5.8-2.8-8.7-4.25l-8.43-4.4c-2.74-1.44-5.35-2.9-7.86-4.18s-4.84-2.5-7-3.52c-2.17-1.85-4.38-3.59-6.44-5.43l-6.17-5.37c-2-1.78-3.94-3.59-5.88-5.35l-2.88-2.62-2.77-2.67c-7.43-7-14.07-14-20.33-20.93C424.75,1461.34,414.58,1447.24,406.84,1431.87Z"/><path class="b" d="M555.21,1587c-.76-2,3-1.59,9.2,0,3.15.73,6.89,1.88,11.08,3.06s8.75,2.59,13.53,3.87c9.51,2.76,19.76,5.31,28.63,7.48,4.45,1,8.54,2,12,2.74s6.39,1.39,8.39,1.89c-13.38.14-26.8-2.49-40.44-6.15S570.12,1591.42,555.21,1587Z"/><path class="b" d="M546.09,1596a73.12,73.12,0,0,1,6.85,5.31c.5.42,1,.85,1.58,1.29s1.13.89,1.73,1.35c1.16.94,2.39,2,3.7,3s2.61,2.18,4,3.34l4.46,3.48,4.68,3.73,5,3.77c1.72,1.26,3.39,2.64,5.2,3.9l5.43,3.9,2.73,2,2.82,1.93c1.88,1.29,3.76,2.6,5.62,3.93s3.82,2.55,5.7,3.85l2.82,2c.93.66,1.87,1.3,2.82,1.91,1.89,1.25,3.76,2.51,5.59,3.78.92.64,1.82,1.3,2.73,1.92l2.73,1.84c1.79,1.24,3.55,2.49,5.25,3.76s3.41,2.44,5,3.7l3.83,1.39c1.28.47,2.56.93,3.88,1.33l7.85,2.52c2.62.83,5.32,1.52,8,2.29l4,1.12,4.09,1a286.16,286.16,0,0,0,33.65,6.22,279.22,279.22,0,0,0,35.35,2.22c6,.07,12.07-.23,18.18-.52l9.17-.77,2.31-.21,2.3-.28,4.61-.59,4.63-.61,4.63-.77,4.64-.81c.77-.14,1.56-.26,2.31-.41l2.23-.48c3-.65,5.91-1.26,8.88-2L806,1668a251.42,251.42,0,0,0,35.31-12.85c2.9-1.37,5.83-2.66,8.71-4.16s5.75-3,8.62-4.57,5.68-3.33,8.51-5,5.58-3.63,8.36-5.47A228,228,0,0,0,906,1610.77c-.54,2.27,1.41,1.76,4.81-.51a53.58,53.58,0,0,0,5.9-4.69c2.2-1.93,4.61-4.17,7-6.67s4.85-5.1,7.1-7.85,4.52-5.44,6.43-8.1a106.54,106.54,0,0,0,8.42-12.92c-1.38,0-3,1.74-4.78,4.14-.44.6-.88,1.25-1.33,1.92s-.93,1.35-1.39,2.05c-.93,1.41-1.87,2.86-2.76,4.23a38.08,38.08,0,0,1-4.77,6.36c-1.25,1.17-2,1.07-2-1.25a324.91,324.91,0,0,0,47.69-81.42c10.87-27,16.64-52.59,18.31-73.53,1.2-.89,1.47,1,1.63,3.11s.1,4.6.87,4.92c1.76-.86,3.56-13.39,4.79-22.22.27.36.37,1.66.33,3.61a70.55,70.55,0,0,1-.56,7.51,175.57,175.57,0,0,1-3.36,19.43c-.75,3.13-1.47,6-2.17,8.33a37.35,37.35,0,0,1-1.85,5c-1,1.87-1.22.38-.3-6.73-1.71,6.62-2.29,10.62-3.09,14.7-.39,2-.74,4.11-1.36,6.53s-1.44,5.2-2.6,8.66c5.2-13.45,6.13-10.79,7.62-10.41.73.18,1.54-.24,2.94-3.64a63,63,0,0,0,2.48-7.67c.48-1.76,1-3.78,1.56-6.1s1.06-4.94,1.65-7.9c.36.52.26,2.2-.07,4.45-.16,1.12-.38,2.38-.63,3.71l-.89,4.08c-1.17,5.5-2.5,10.79-1.5,11.15a38.05,38.05,0,0,1-6.72,12.12c-2,2.5-4.15,4.37-6.53,8.33-.62,2.9-1.91,6.77-3.42,11.32-.78,2.27-1.74,4.69-2.71,7.24-.5,1.27-1,2.58-1.54,3.9s-1.14,2.66-1.73,4a316.19,316.19,0,0,1-16.92,33.4c-6.06,10.48-12.07,19.36-15.2,24.69-1.53,2.68-2.47,4.42-2.28,5.06s1.41.11,3.93-1.89c-4.42,7.35-11.52,16-20.61,24.68a241.3,241.3,0,0,1-31.5,24.92c-1.44,1-2.83,1.92-4.31,2.88l-4.58,2.87c-1.52,1-3,1.9-4.54,2.83s-3,1.76-4.55,2.64c-3,1.72-6,3.48-8.93,5s-5.8,3.18-8.61,4.6c-11.19,5.92-21.16,10.63-28.28,15.56a317.39,317.39,0,0,1-35.86,10.16c-2.89.61-5.74,1.23-8.63,1.8l-8.9,1.53c-2.94.53-5.88.85-8.8,1.25s-5.81.77-8.7,1l-8.63.77-8.58.46c-2.85.17-5.69.19-8.53.22l-4.26,0c-1.42,0-2.84,0-4.25,0l-8.5-.27c-2.84-.11-5.67-.36-8.51-.56l-4.27-.33c-1.42-.14-2.83-.31-4.26-.48-2.84-.34-5.7-.65-8.56-1.06a256.83,256.83,0,0,1-34.77-7.63A223.67,223.67,0,0,1,621.27,1660a208.05,208.05,0,0,1-36.09-22.82,199.58,199.58,0,0,1-34.12-34.44C549.61,1600.82,547.85,1598.43,546.09,1596Z"/><path class="b" d="M998.23,1402.79c.54-3.75,1.19-7.52,1.77-10.83a71,71,0,0,1,1.9-8c1.24-3.77,2.68-3.73,3.69,4.2a59.48,59.48,0,0,1-1.14,9.5,12.22,12.22,0,0,1-1.81,4.57C1001.32,1404,999.78,1403.46,998.23,1402.79Z"/><path class="b" d="M994.86,1350.82c-.11-1.45-.22-2.79-.32-4s-.2-2.41-.26-3.49c-.14-2.16-.19-4-.18-5.6a51.56,51.56,0,0,1,.36-7.5c.24-2.09.53-4,.64-6.49a46.22,46.22,0,0,0-.55-9.77,23.06,23.06,0,0,1,1.72,4.58c.44,1.78.81,3.77,1.11,5.86a93.89,93.89,0,0,1,.88,12.94,55.39,55.39,0,0,1-1.08,10.59C996.54,1350.43,995.74,1351.66,994.86,1350.82Z"/><path class="b" d="M984.56,1249.26c-1.41-.39-2.76-3.09-4.35-7.11s-3.39-9.45-5.33-15.51-4.37-12.53-6.9-18.88a137.5,137.5,0,0,0-8.53-17.35c1.25.1,3,2.44,5,6.23,1,1.9,2.13,4.15,3.29,6.66l1.78,4c.61,1.37,1.16,2.84,1.75,4.33,1.17,3,2.37,6.13,3.58,9.34.59,1.61,1.22,3.21,1.8,4.85s1.11,3.31,1.67,5C980.55,1237.3,982.79,1243.67,984.56,1249.26Z"/><path class="b" d="M941.15,1153c-1.84-2.33-3.56-4.28-5.27-6.22l-2.6-3c-.89-1-1.8-2-2.74-3.17-3.78-4.52-8-10.59-14-20.82a42.59,42.59,0,0,1,5.06,4.66,70.44,70.44,0,0,1,5.83,7q3.06,4.11,6.55,9.44C936.31,1144.45,938.62,1148.55,941.15,1153Z"/><path class="b" d="M975.09,779.29c.94-.77,1.2-.84.8-.64l-.4.19-.27.11-.06,0h0c-.35.14,3-1.22,1.6-.65h0l-.24.1a9.86,9.86,0,0,1-1,.33c-.45.16-.89.29-1.31.4-4,1.14-10.64,2-20,2.12A304.74,304.74,0,0,1,919.08,779c-1.82-.2-3.6-.4-5.32-.62l-2.54-.33-3.1-.38q-6.42-.78-12-1.61l-2.75-.41-.68-.1h-.51l-.76,0,.27,0,.13,0h0l.18,0,.44.07,1.44.21,2.58.38q5.21.76,10.72,1.45l9.4,1.16,4.42.49,2.25.22,1.1.1.89.1c2.38.27,4.82.49,7.3.68l6.53.49,3.12.16,1.52.06,1.29.07c14.56.62,22.81-.47,27.39-1.49.53-.11,1.12-.27,1.6-.41s.79-.21,1.19-.34l.91-.3.39-.15.2-.08h0c.35-.14-3,1.22-1.6.65h0l.05,0a3.65,3.65,0,0,0,.41-.18l.27-.12.17-.1c.07,0,0,0,0,0h0l-.14.09-.3.21C975.32,779.09,975.18,779.22,975.09,779.29Z"/><path class="b" d="M756.51,1485.44c-.59,0-1.18.07-1.75.13s-1.2,0-1.79.06l-.85,0a3.18,3.18,0,0,1-.76,0,11.11,11.11,0,0,0-1.12-.15c-.18,0-.37,0-.55,0l-.55-.12a10.43,10.43,0,0,0-1.09-.13c-.37-.07-.73-.18-1.08-.23a6.67,6.67,0,0,1-1.07-.19,6.54,6.54,0,0,0-1-.22l-.26,0-.25-.08-.52-.15c-.34-.1-.68-.12-1-.21l-1-.27c-1.33-.35-2.63-.74-3.91-1.13-2.55-.78-5-1.54-7.56-2.26s-5.24-1.33-8.2-2a27.56,27.56,0,0,1-3.64-5.55,29.85,29.85,0,0,1-2.43-8.11,31.78,31.78,0,0,1-.07-8.32,36.77,36.77,0,0,1,1.83-7.76c.13-.62.47-1.21.62-1.81a3.11,3.11,0,0,1,.18-.5l.11-.27,0-.14.08-.26c.22-.71.37-1.42.65-2.14s.49-1.45.71-2.17.55-1.46.81-2.2c.46-1.47,1.16-2.94,1.69-4.43,1.3-2.94,2.53-5.94,4.07-8.83l.53-1.1c.19-.36.4-.71.59-1.07q.58-1.08,1.14-2.16l1.22-2.1.59-1.06.64-1c.42-.68.83-1.37,1.23-2.06s.88-1.31,1.3-2l.63-1,.67-.94c.44-.63.87-1.27,1.29-1.91s.91-1.19,1.34-1.8l.65-.92.68-.85c.45-.57.88-1.14,1.31-1.73l1.95-2.25c1.29-1.51,2.53-3,3.77-4.59,1.42-1.48,2.8-3,4.16-4.52l2-2.31,2.26-2.26c1.5-1.52,3-3,4.42-4.61,1.62-1.5,3.23-3,4.81-4.57l2.35-2.33,2.57-2.29c1.71-1.53,3.39-3.08,5.06-4.65s3.61-3.07,5.38-4.62c13.14-6.67,27.39-15.58,43.43-24.8s33.67-18.67,52.31-26.3l34.14-14.09c5.36-2.22,9.32-3.73,11.78-4.5.3-.09.67-.23.89-.28l.66-.16a4.5,4.5,0,0,1,.93-.19l.17,0c.05,0,0,0,.05,0l0,0h0l-.1-.32-.21-.64-.8-2.59-.77-2.6c-.26-.85-.52-1.83-.73-2.43-.44-1.37-.87-2.74-1.28-4.12q-1.25-4.14-2.33-8.34l-.53-2.11-.48-1.7c-.31-1.12-.61-2.25-.9-3.38-.57-2.27-1.09-4.55-1.57-6.86-.06-.27-.12-.61-.17-.83l-.17-.69-.32-1.38c-.21-.92-.41-1.85-.59-2.79s-.37-1.87-.53-2.81l-.46-2.76c-.3-1.5-.55-3-.77-4.55-.11-.77-.2-1.54-.29-2.31l-.13-1.17-.13-.9c-.16-1.21-.29-2.44-.38-3.68-.05-.62-.09-1.24-.12-1.87,0-.35,0-.5-.06-.76l0-.71c-.07-.94-.1-1.9-.11-2.87v-2.39c0-.7,0-1.41.07-2.13l0-.51v-.33l0-.68c0-.46.09-.93.16-1.41.39-3.08-.5,4.08-.41,3.31v-.25l0-.34.09-.69c.07-.47.16-1,.27-1.45a3.35,3.35,0,0,0,.11-.54l.09-.44c.62-2.62,1-2.58-.17-.63a48.61,48.61,0,0,1-8.58,10,106.25,106.25,0,0,1-18.8,13.64,165.69,165.69,0,0,1-25,11.7c-2.14.81-4.27,1.61-6.41,2.27-1.08.32-2.1.69-3.13,1l-1.55.48-.19.06-.09,0h0c.05-.06,0,.08.1.13s.06,0,.08.11a1.52,1.52,0,0,0,.06.2,16.3,16.3,0,0,1,.78,2.58c.24,1.12.43,2.41.58,3.61s.26,2.06.34,3.07a6.46,6.46,0,0,0,0,.74l-.27,2.27c-.11.81-.16,1.63-.29,2.45l-.38,2.47c-.19,1.65-.54,3.3-.82,5s-.67,3.33-1,5a176.89,176.89,0,0,1-14,40.32,193.73,193.73,0,0,1-24.09,37.64,185.11,185.11,0,0,1-32,30.83,166.33,166.33,0,0,1-18.14,11.89,163.91,163.91,0,0,1-20.06,9.56,190.72,190.72,0,0,1-26.3,4.68,251,251,0,0,1-28.32,4.14,205.58,205.58,0,0,1-29.63.43,178,178,0,0,1-30.42-4.48l-3.79-1-1.92-.49-1.88-.58-3.8-1.15-3.75-1.3-1.9-.65-1.86-.74-3.74-1.47-3.69-1.62c-.61-.28-1.25-.54-1.85-.83l-1.82-.9c-1.24-.62-2.53-1.2-3.75-1.86l-3.7-2c-1.24-.63-2.48-1.46-3.74-2.18s-2.53-1.45-3.75-2.29L574,1401.7c-1.23-.83-2.45-1.72-3.68-2.57l-1.86-1.3-1.81-1.38c-1.21-.93-2.45-1.82-3.65-2.78-4.82-3.84-9.55-8-14.19-12.44s-9.11-9.29-13.47-14.37c-17.42-20.36-32.35-45.63-43.62-73.46-2.79-7-5.42-14.07-7.79-21.3s-4.51-14.56-6.41-22-3.58-14.9-5-22.42c-.37-1.88-.68-3.77-1-5.65l-.5-2.83-.44-2.93q-.87-5.83-1.76-11.67c-2-15.68-3.37-31.52-4-47.47-.17-4-.21-8-.33-12q-.06-3-.14-6c0-2,0-4,0-6,0-4-.05-8,.05-12s.2-8,.3-12c2.07-.56,4.37.79,4-11,2.09-31.28,6.72-63,12.39-95.29l2.24-12.16,1.13-6.08,1.19-6.13,2.4-12.27,2.51-12.37,1.25-6.15,1.26-5.86,1.27-5.8,1.3-5.73c1.72-7.63,3.56-15,5.43-22.22s3.88-14.19,5.91-21,4.22-13.27,6.42-19.57,4.56-12.19,6.93-17.83,4.85-10.85,7.33-15.73,5-9.22,7.51-13.23,5-7.36,7.34-10.39c.61-.72,1.19-1.45,1.75-2.2s1.18-1.29,1.73-1.95l.42-.51.43-.43.84-.88.8-.9.83-.77c1.05-1.14,2.14-2,3.13-3a18.64,18.64,0,0,0,1.53-1.29c.48-.45,1-.76,1.51-1.19.25-.19.45-.44.71-.6s.49-.35.73-.54c.48-.35.88-.83,1.39-1.14a13.79,13.79,0,0,0,1.38-1.15,14.14,14.14,0,0,0,1.38-1.07,42.84,42.84,0,0,1,6.29-4c.63-.27,1.19-.64,1.88-.88l2-.8,2.23-.64c.75-.22,1.61-.34,2.41-.51a37.14,37.14,0,0,1,11.35-.12c8.51-3.12,20.93-4.95,36.08-4.81s32.8,2.1,51.13,5.32c8.35,2.52,17.53,5.36,27.44,8.55q7.82,2.64,16,5.28c5.44,1.78,11,3.47,16.6,5.46s11.27,3.83,17,5.73l4.31,1.43,4.3,1.54,8.65,3.07,8.7,3,4.37,1.5c1.45.51,2.89,1.07,4.34,1.6q8.67,3.23,17.35,6.34c46.22,16.83,90.23,35.37,121.37,46.69,4.76,3.17,9.53,6.15,14.29,9s9.41,5.81,14.14,8.55,9.46,5.37,14.16,8.05,9.36,5.39,14.08,8c9.51,5.17,18.79,10.75,28.33,16.33,2.37,1.42,4.79,2.78,7.13,4.29l7.08,4.53c4.73,3.06,9.5,6.2,14.29,9.46,6.57,4.63,13.13,9.42,19.79,14.19l5,3.6,4.92,3.75,9.91,7.54,5,3.79c1.68,1.26,3.34,2.54,5,3.87l9.87,7.93q5,4,9.94,8c3.21,2.65,6.39,5.29,9.51,8,12.55,10.67,24.49,21.6,35.61,32.76q8.31,8.37,15.88,16.9c5,5.67,9.84,11.38,14.24,17.1a230.15,230.15,0,0,1,22.22,34.08,145.52,145.52,0,0,1,12.62,32.4,115.86,115.86,0,0,1,2.74,15.54,113.84,113.84,0,0,1,.62,16.5c0,2.85-.29,5.86-.46,8.87l-.48,4.63c-.14,1.55-.44,3.18-.63,4.77-1,6.46-2.18,13.19-3.94,20.35s-3.82,14.6-6.25,22.34-5.29,15.83-8.36,24.13-6.49,16.92-10,25.73-7.38,18-11.27,27.28c-7.82,18.72-16.13,38.48-24.18,59.61-4,10.51-8,21.53-11.74,32.79-.94,2.86-1.87,5.73-2.81,8.58-1,3.38-2.1,6.76-3,10.13q-2.89,10.11-5.17,20.15a406.26,406.26,0,0,0-9.91,79.79,387.09,387.09,0,0,0,6.19,79.87,316.59,316.59,0,0,0,26.13,80.84,263,263,0,0,0,23.76,39.74A236.3,236.3,0,0,0,1212,1756.8a312.19,312.19,0,0,0,29.41,19.82,255.89,255.89,0,0,0,30.31,15.38,214.48,214.48,0,0,0,32.93,11,193,193,0,0,0,38.51,5.4,200.76,200.76,0,0,0,29.69,1.44,220.74,220.74,0,0,0,31.44-3.11,236,236,0,0,0,62.5-20.38,260.72,260.72,0,0,0,56.16-37,269.93,269.93,0,0,0,46-51.15,313.23,313.23,0,0,0,30.34-55.5,367.23,367.23,0,0,0,17.88-53.68,438.16,438.16,0,0,0,9.07-47.58q.38-2.73.74-5.43c.21-1.77.41-3.52.61-5.26.38-3.47.81-6.91,1.07-10.18s.57-6.51.85-9.65.41-6.12.6-9.07a332.83,332.83,0,0,0,7.29-45.16c1.69-16.94,2.59-35.58,2.68-55.16.23-39.17-3-82-8-122.8-1.94-16-4.15-31.66-6.77-47-1.26-7.65-2.78-15.19-4.29-22.62s-3.27-14.73-5.21-21.88l-1.41-5.33c-.49-1.77-1-3.53-1.54-5.28-1-3.49-2.08-6.95-3.2-10.36-2.31-6.8-4.64-13.45-7.34-19.85s-5.51-12.59-8.49-18.54c-1.51-3-3.15-5.86-4.77-8.69s-3.26-5.61-5-8.28a472.07,472.07,0,0,0-27.49-51.13l-4-6.23-2-3.11-1-1.55-1.07-1.58c-2.88-4.21-5.73-8.45-8.7-12.6s-6-8.24-9.14-12.3-6.33-8-9.57-12a475.67,475.67,0,0,0-90.65-84,484.07,484.07,0,0,0-113.91-60.17,457.44,457.44,0,0,0-65.43-18.63,433.52,433.52,0,0,0-70.54-8.55,404.68,404.68,0,0,0-59.77,2.27,469.31,469.31,0,0,0-56.48,10.13c-17.34,4.12-33.13,8.61-47.47,12.73s-27.24,7.94-38.63,11c-7.38,2.72-14.17,5-20.3,6.77-1.52.44-2.93.78-4.4,1.19l-2.19.59-2.11.42-8.44,1.78a176.93,176.93,0,0,1-34.35,2.36c-2.92-.13-5.83,0-8.79-.4l-4.44-.36c-1.49-.13-3-.14-4.47-.42-3-.43-6-.81-9-1.15q-4.57-.89-9.19-1.64a322.21,322.21,0,0,1-38.39-10.17c-1.2,1.15-.61,3.68-5.54,1.95-.94-.44-1.9-.88-2.88-1.31l-3-1.48c-2-1-4.15-1.93-6.35-2.87s-4.45-2-6.78-3.06-4.72-2.07-7.18-3.15-4.92-2.35-7.47-3.53L789,858.87l-3.89-2-8-4-8.07-4.44c-1.35-.75-2.72-1.48-4.09-2.25l-4-2.47c-2.71-1.67-5.45-3.28-8.15-5-5.32-3.65-10.76-7.16-15.86-11.25a190.18,190.18,0,0,1-28.15-26.11,578.92,578.92,0,0,1-45.94-39.11,416.82,416.82,0,0,1-43.32-47.89c-1.73-2.28-3.51-4.56-5.24-6.9l-5.08-7.2-2.57-3.67c-.87-1.22-1.71-2.57-2.57-3.85l-2.57-3.94-2.52-4a381.87,381.87,0,0,1-19.3-34.61,343.16,343.16,0,0,1-16.46-39.52c-2.43-7-4.55-14.23-6.55-21.65s-3.58-15-4.94-22.81c-5.65-11.48-10.22-27.06-12.38-44.51a182.59,182.59,0,0,1,1.9-55.36l.31-1.77.39-1.74.76-3.51c.13-.57.24-1.19.39-1.74l.45-1.6.89-3.24.85-3.24a13.73,13.73,0,0,1,.5-1.62l.55-1.6c.74-2.13,1.44-4.28,2.15-6.43.88-2.1,1.74-4.2,2.57-6.32l.63-1.59.31-.79.37-.77,1.48-3.1,1.44-3.11.71-1.55.83-1.51q1.65-3,3.23-6.05c.49-1,1.14-2,1.73-2.95l1.77-2.92c.58-1,1.15-2,1.73-2.93s1.26-1.88,1.88-2.83c1.26-1.87,2.5-3.75,3.72-5.62l4-5.37c.65-.9,1.29-1.79,1.92-2.68s1.38-1.71,2.05-2.56c1.37-1.69,2.7-3.39,4-5.07s2.78-3.21,4.11-4.81l2-2.38,1-1.18,1-1.12A220,220,0,0,1,625.26,348a209.68,209.68,0,0,1,42.91-18.91,164.46,164.46,0,0,1,42.53-7.51c13-.45,24,1.21,32,3.78a168.34,168.34,0,0,1,40.22,7.75c1.63.53,3.21,1.18,4.85,1.74l2.46.85,1.24.41,1.36.55c3.63,1.4,7.35,2.93,11.2,4.62,7.68,3.38,15.87,7.38,24.88,12.28l1.77,1.32c.57.45,1.11.92,1.63,1.36,1,.89,2,1.76,2.95,2.62,1.85,1.73,3.54,3.5,5.32,5.23a129.54,129.54,0,0,0,14.06,12.43c7,2.51,16.25,8,27.43,16.46l23.42,24.07c8.52,8.76,17.74,18.23,27.69,28.29s20.63,20.73,32.15,31.8Q974,485.47,983.27,494c6.48,5.9,13.08,11.81,20,17.63,13.69,11.68,28.3,23.09,43.66,34a524.65,524.65,0,0,0,48.69,30.63,431.53,431.53,0,0,0,53.46,24.89,358.1,358.1,0,0,0,56.89,16.44,46.46,46.46,0,0,0,7.34,3c1.4.46,2.89.9,4.43,1.32s3.22.75,4.91,1.11a198.53,198.53,0,0,0,22.45,3.14c4,.3,8,.64,11.92.88s7.85.41,11.57.68a157.6,157.6,0,0,1,19.86,1.92,292.68,292.68,0,0,0,52.81-8.06c4.31-1.08,8.62-2.16,12.83-3.48s8.48-2.54,12.59-4l6.2-2.19,1.55-.56.38-.14.18-.07.32-.14,1.28-.56c1.63-.73,3.73-1.64,4.47-2.11a130.18,130.18,0,0,0,24.67-17.83c16.14-14.38,31.66-33,47.91-51l6.13-6.72,3.09-3.32c1-1.11,2.07-2.19,3.19-3.19a39.59,39.59,0,0,1,7.25-5.17,22.7,22.7,0,0,1,8.2-2.8,10.77,10.77,0,0,1,4.2.38,7.66,7.66,0,0,1,3.44,2.26,9,9,0,0,1,1.94,3.61,15,15,0,0,1,.42,4.12c-.1,2.79-.61,5.58-1,8.4l-1.29,8.55a546.55,546.55,0,0,1-15.57,70.21c-9.62,12.75-17.12,23.77-24.43,31.94a64.72,64.72,0,0,1-11.1,10.17,42.89,42.89,0,0,1-12.38,6c-3.2,3.09-4.15,7-8.78,7.37a13.93,13.93,0,0,0-4.41-.06l-.81.11-.21,0-.1,0c0,.07-.09.19-.13.28l-.55,1.15a15.32,15.32,0,0,1-2.28,3.68c-14.09,54.95-37.35,162.08-35.94,224.87,8.43,32.2,16.18,71.14,35.92,23.82,25.67,10.39,66.94-62.73,53.27,89.86,8.7,25.16,12.74,52.34,30.9,42.26,12.42-36.48,26.48-54.08,40.35-109.45.89,12,3.11,1.14,6.38.84,4.48-26.32,8-66.44,14.15-68.33-10.27,66.17-1.29,76.27-6.18,126.76,4.75,57.36,27.5,38.63,32.36,80.75-3.76,16.11-5.28,18.54-6.2,37.43,7.17,11.75,12.86-11.61,14.17,21,6.67-10.56,8-26.84,11.67-49.5,16.12-16.87,28.89-80.68,42.35-134.73,10.71-81.2,23.78-147.92,36.06-211.69q2.29-12,4.56-23.79l2.25-11.84,1.1-5.91.28-1.48.42-2.58.85-5.28c4.56-28.19,9-56.62,13.41-85.47,8.73-57.67,17-117.16,24.34-178.92,2.47-3.35,5-11.62,7.51-22.95a170.73,170.73,0,0,0,3.9-38.3,156.69,156.69,0,0,0-4.74-36.24,128.89,128.89,0,0,0-4.56-14.1c-.82-2.08-1.63-4.08-2.42-6l-.29-.7-.32-.63-.64-1.23-1.23-2.36a29.83,29.83,0,0,1,.73-9.3c.31-1.27.68-2.46,1.05-3.62s.72-2.22,1-3.38a23.4,23.4,0,0,0,.89-8.05,32.56,32.56,0,0,0-.85-5.45c-.25-1-.54-2.12-.91-3.22s-.82-2.1-1.34-3.24c-5.51-5.15-6-2.59-5.55,1.86.21,2.23.65,4.92.84,7.34,0,.61.08,1.17.08,1.77s0,1.18-.07,1.7a5.54,5.54,0,0,1-.7,2.48c-.37-.58-.75-1.19-1.14-1.82s-.82-1.14-1.24-1.75q-1.26-1.79-2.63-3.83t-2.81-4.31l-1.44-2.31c-.25-.39-.49-.79-.74-1.19s-.5-.7-.75-1.06c-2-2.77-4.06-5.74-6.11-8.82l-3.06-4.66q-1.5-2-3-4.05c-2-2.72-3.85-5.47-5.64-8.17s-3.36-5-5-7.35-3.31-4.61-5.2-6.94c-1-1.16-2-2.33-2.92-3.44l-2.88-3.19c-2.7-1.6-5.83-3.42-9.35-5.24a110.7,110.7,0,0,0-11.2-4.94,103.72,103.72,0,0,0-21.5-5.52c-3.3-.48-6.49-.79-9.48-.95a82.82,82.82,0,0,0-8.47,0c-1.32.07-2.52.18-3.71.32l-3.56.45c-1.18.14-2.41.3-3.66.48l-3.74.54c-5.15.8-10.4,1.63-16.19,2.83-2.79.55-5.84,1.24-8.81,1.91-1.45.32-3.1.76-4.64,1.14s-3.1.79-4.72,1.24a233.67,233.67,0,0,0-42.5,16.13,51.37,51.37,0,0,0-8.19.3l-2.3.23-1.18.12c-.38,0-.79.1-1.24.19-1.74.33-3.53.7-5.39,1.1l-2.84.62-1.45.34-.73.17-.8.25q-3.2,1-6.58,2.11c-4.37,1.26-9.68,3.74-15.06,6.07l-2,.91c-.69.3-1.45.75-2.18,1.13l-4.49,2.43-4.61,2.52-2.35,1.3-.59.33-.63.42-1.25.82-10.33,6.88c-.88.62-1.75,1.14-2.67,1.84l-2.8,2.25-5.69,4.61-5.82,4.74c-.49.37-1,.87-1.5,1.33l-1.51,1.42-3,2.86c-4.08,3.87-8.27,7.74-12.53,11.9l-13,12.72L1385,322.15c-.56,3.62-4.66,10-10.23,17.54-1.4,1.88-2.88,3.83-4.43,5.83s-3.11,3.88-4.73,5.87l-9.78,11.83q-4.35,3.9-8.62,7.76L1343,374.8c-.71.66-1.42,1.21-2.12,1.77l-2.1,1.69-8.34,6.66-2.07,1.64-2.08,1.39-4.14,2.75-4.11,2.73-2,1.35-1,.68c-.17.1-.36.24-.5.31l-.44.21-7,3.38-3.46,1.66-.86.41-.24.11-.13,0-.5.18-2,.77a14.15,14.15,0,0,1-2,.68l-1.91.61c-1.26.38-2.5.61-3.72,1s-2.44.41-3.64.66-2.32.24-3.47.37c-9.21.62-18.5-1.06-29.22-4.59s-22.65-9-36.75-16.49-30.35-17.09-50-29.48c-4.44-4.61-9.68-9.61-15.54-15.25l-19.44-18.49c-14.9-14.15-32.53-31-52.25-49.23-11-12.82-23.49-26.65-38-41.16q-10.89-10.9-23.37-22.24c-8.33-7.54-17.33-15.18-26.93-22.82s-19.92-15.28-31-22.75-22.91-14.78-35.52-21.72A419.72,419.72,0,0,0,887,122.28l-5.31-2.2c-1.78-.73-3.61-1.4-5.41-2.09l-5.46-2-2.75-1-2.95-1q-5.91-2-11.86-3.85l-6-1.88c-2-.56-4-1.08-6-1.61a376.35,376.35,0,0,0-98-13,390.71,390.71,0,0,0-95.08,11.79,414.56,414.56,0,0,0-86.15,32c-3.4,1.61-6.66,3.47-10,5.23L542.21,148c-6.41,3.75-12.7,7.64-18.92,11.54l-9.11,6.16-4.51,3.1c-1.5,1-3,2.06-4.44,3.17l-8.69,6.55c-2.86,2.2-5.76,4.33-8.5,6.67a170.11,170.11,0,0,0-22.76,12.72c-1.93,1.27-3.88,2.58-5.83,3.92s-3.93,2.7-5.84,4.22q-5.79,4.47-11.66,9.36A319.1,319.1,0,0,0,397.24,263,404.59,404.59,0,0,0,360,322.38c-2.64,5.28-5.25,10.54-7.78,15.79-2.36,5.37-4.69,10.71-7,16-.58,1.32-1.15,2.64-1.72,4l-1.56,4-3.08,8-3,7.86c-1,2.62-1.83,5.27-2.74,7.87l-4.2,12.46c-.73,2.13-1.25,4-1.86,6l-1.75,6c-1.21,4-2.22,8-3.26,12l-1.54,6c-.5,2-.93,4-1.39,6l-1.35,6-.67,3-.59,3c-.78,4-1.56,8.06-2.28,12.1l-1.92,12.09c-.61,4-1.06,8.05-1.57,12.09a470.88,470.88,0,0,0-3.18,48,466.36,466.36,0,0,0,18.33,135.58Q332,687.43,340,707.46a421.93,421.93,0,0,0,17.81,38.88c2.62,6,3.95,6.57,5.14,7s2.38.67,4.86,5.75c4.19,9.3,8.71,18.87,13.67,28.45,2.44,4.84,5,9.63,7.65,14.49,1.31,2.44,2.68,4.83,4,7.27s2.71,4.85,4.22,7.37l9,15.08c3.09,5,6.32,10,9.54,15s6.64,10,10,15l5.15,7.47q2.66,3.67,5.34,7.36l5.39,7.36,2.7,3.68,2.8,3.62c3.75,4.82,7.48,9.66,11.27,14.45s7.77,9.43,11.65,14.14c1.92,2.38,3.95,4.66,5.95,7l6,6.89c2,2.28,4,4.6,6,6.83l6.16,6.69c4.09,4.45,8.13,8.9,12.36,13.17S515,969,519.22,973.14l12.6,12.34c23.93,23.09,48.58,45.23,75.46,65.6s56.14,38.84,89,53.42l3.53,1.6c1.18.53,2.4,1,3.59,1.5l7.13,2.9,7,2.81c2.33.91,4.62,1.85,7,2.65q7.05,2.49,13.91,4.8c2.3.76,4.53,1.55,6.83,2.24l6.86,2q6.81,2,13.43,3.74c4.44,1.14,8.92,2.08,13.27,3.06s8.64,1.89,12.93,2.65,8.56,1.38,12.74,2c33.49,4.82,63.8,4.13,89.94-.46q6.36.26,12.83.29c2.16,0,4.33,0,6.51-.16l6.56-.38c4.38-.28,8.79-.62,13.2-1s8.86-1.2,13.3-1.87l6.66-1c2.22-.37,4.44-.69,6.65-1.2q6.64-1.41,13.28-2.93c8.87-1.84,17.57-4.57,26.28-7,2.16-.64,4.36-1.23,6.49-1.91l6.33-2.06,6.31-2.06,6-2.12,6-2.07,5.75-2.08,11.22-4c14.61-5.21,27.92-9.7,40.33-12.39,8.3-4.67,5.53-7.79,21-13.19,1.31-.52,2.46-1,3.5-1.3s1.85-.56,2.63-.75a21.17,21.17,0,0,1,3.82-.57c2.15-.14,3.61.17,6.17-.24-1.94-4.43-6.6-1.69-2.43-7.34l-18.86,8.06-17.51,7.55-8.81,3.9-9.26,4.2-21.65,10.13c-2.49.7-4.62,1.23-6.81,1.7l-6.41,1.37c-1.11.25-2.25.52-3.48.82s-2.63.62-4.09,1-3.05.81-4.78,1.3-3.56,1.06-5.75,1.66c-10.9,3.93-22.74,7.2-34.76,10.55q-9.1,2.13-18.48,4.17l-4.71,1-4.75.81-9.62,1.58a416.75,416.75,0,0,1-81.07,4.57,439.4,439.4,0,0,1-84.87-12.27,478.49,478.49,0,0,1-83.89-29.12,491.63,491.63,0,0,1-74.34-42.2,634.24,634.24,0,0,1-63.49-49.93c-19.25-17.18-36.65-34.47-52.53-50.81L491.31,936.5l-11-11.69L475,919.2l-5.15-5.54c-3.4-3.63-6.78-7.12-10.07-10.5-5.17-7.26-5.69-10.11-5.77-12.52s.26-4.39-3-10a208.32,208.32,0,0,1-18.2-23.32c-2.71-4.05-5.41-8.09-7.93-12.31s-5-8.49-7.44-12.84-4.82-8.84-7.25-13.39c-1.21-2.27-2.44-4.57-3.67-6.9l-1.86-3.48c-.6-1.15-1.19-2.31-1.79-3.48-4.86-9.26-9.91-19.06-15.61-29.45-8-14.66-16.16-28-24.15-42.39s-15.77-29.88-22.33-48.93a451,451,0,0,1-15.19-55.65A481.77,481.77,0,0,1,317.65,574a538.55,538.55,0,0,1-1.89-59.62c.32-10.79.8-22.05,1.9-34s2.59-24.6,4.72-38c3.93-10.72,8.08-25.22,13.19-41,5.53-16.53,11.83-34.26,19.23-49.92,1.83-3.92,3.56-7.82,5.43-11.49s3.78-7.15,5.61-10.51a197,197,0,0,1,10.68-17.6c1.66-2.49,3.24-4.75,4.72-6.75s2.95-3.6,4.23-5c2.58-2.75,4.6-4.32,5.94-4.44a59.53,59.53,0,0,1-3.93,8.05c-.8,1.44-1.72,2.87-2.62,4.43S383,311.27,382,312.9c-2,3.27-4.2,6.69-6.49,10.21-1.17,1.75-2.25,3.61-3.37,5.47l-3.37,5.67c-1.12,1.91-2.25,3.84-3.37,5.77l-1.66,2.91c-.54,1-1,2-1.54,3-2,4-3.95,8-5.69,12-.86,2-1.75,3.91-2.43,5.91s-1.34,3.95-1.92,5.88a83.91,83.91,0,0,0-2.6,11.1c1.92-4.41,3.9-9,5.89-13.39L357,364.1c.5-1.09,1.06-2.13,1.59-3.17,1.06-2.07,2.12-4.08,3.15-6,2.07-3.82,4.05-7.27,5.87-10.06a33.71,33.71,0,0,1,5.06-6c-1.08,2.82-2.18,5.54-3.12,8.3s-1.78,5.51-2.62,8.19c-1.64,5.38-3.27,10.49-4.4,15.67s-2.29,10.09-3.28,14.93-1.53,9.7-2.18,14.37q-.45,3.51-.9,6.95c-.22,2.24-.36,4.4-.53,6.58-.32,4.34-.61,8.6-.69,12.85-.33,8.47-.26,16.81-.06,25.22.48,16.83,1.77,34,3.86,53.3.58,4.81,1,9.79,1.75,14.88.32,2.55.64,5.14,1,7.79s.75,5.29,1.14,8c.19,1.36.38,2.74.57,4.13s.44,2.77.66,4.17c.43,2.81.88,5.67,1.33,8.6,1,5.79,2,11.86,3.18,18.08,1.2,10.53,2.91,20.49,4.71,30.06,1,4.74,1.92,9.42,3,14s2.11,9,3.31,13.28A434.85,434.85,0,0,0,430.16,746q4.8,10.62,10.07,21.28c1.77,3.54,3.53,7.12,5.39,10.65l2.77,5.34c.92,1.78,1.95,3.58,2.92,5.38q3,5.42,6,10.87c1,1.83,2.05,3.62,3.11,5.41l3.2,5.4c2.16,3.59,4.25,7.25,6.51,10.82L477,831.84c1.16,1.79,2.28,3.61,3.48,5.38s2.4,3.55,3.61,5.32q3.65,5.33,7.31,10.69L499,863.78l3.87,5.3c1.3,1.76,2.68,3.47,4,5.22l8.14,10.45c2.74,3.48,5.64,6.86,8.47,10.31,5.63,6.93,11.67,13.6,17.66,20.38,1.49,1.7,3,3.35,4.61,5s3.11,3.31,4.68,5c3.15,3.3,6.21,6.68,9.5,9.89l9.8,9.72,2.47,2.43,2.54,2.37,5.09,4.75c6.72,6.4,13.85,12.49,21,18.64,1.75,1.56,3.59,3,5.43,4.53l5.5,4.47c3.68,3,7.32,6,11.16,8.82l11.44,8.62c3.85,2.83,7.84,5.54,11.77,8.31l5.93,4.13c2,1.35,4,2.65,6.08,4l12.24,7.87,12.6,7.48c2.12,1.23,4.19,2.52,6.35,3.69l6.5,3.52,6.5,3.51c2.17,1.16,4.32,2.35,6.57,3.41l13.37,6.53c1.12.54,2.22,1.09,3.36,1.61l3.43,1.51,6.86,3,6.87,3,1.72.75,1.76.68,3.51,1.37,14.08,5.39,14.38,4.83c2.41.77,4.77,1.63,7.22,2.32l7.34,2.08,7.33,2.06,3.67,1c1.23.33,2.49.59,3.73.89l14.92,3.42c2.46.6,5,1,7.53,1.47l7.56,1.34,7.55,1.31c2.54.39,5.1.67,7.64,1,5.1.62,10.17,1.29,15.27,1.8,10.27.72,20.45,1.63,30.73,1.58l7.68.08,3.83,0,3.83-.14,15.3-.67c2.54-.07,5.08-.39,7.61-.62l7.58-.76,7.55-.79c1.26-.11,2.51-.32,3.76-.51l3.74-.59,14.88-2.42c4.92-1,9.78-2.1,14.63-3.17l7.26-1.65c2.39-.58,4.72-1.25,7.08-1.88s4.72-1.26,7-1.94l6.75-2c17.84-5.53,33.86-11.68,48.33-17.5s27.57-11.38,39.55-16.14,22.81-8.79,32.72-11.89c1.26-.19,2.56-.45,3.77-.59l3.61-.45c1.18-.14,2.39-.35,3.54-.46l3.42-.29c4.5-.54,9-.67,13.46-1,8.94-.38,17.87-.23,27.13.24l3.49.21,1.76.08c.59,0,1.18.12,1.77.17,2.37.24,4.75.42,7.18.64s4.88.62,7.37.89,5,.77,7.59,1.12a290.92,290.92,0,0,1,33.17,7.32c3,2.07,6.33,4.47,9.92,6.61,1.79,1.13,3.62,2.35,5.53,3.49l2.9,1.73c1,.6,2,1.22,3,1.85l3.06,1.83c1,.6,2.08,1.21,3.12,1.88,2.09,1.3,4.25,2.6,6.45,3.88s4.39,2.76,6.67,4.13,4.51,2.91,6.85,4.34c9.26,5.93,18.92,12.49,28.52,19.74a339.74,339.74,0,0,1,28.15,23.66,281.07,281.07,0,0,1,25,26.72l2.8,3.46c.46.58.94,1.15,1.38,1.73l1.31,1.76,2.61,3.5,1.3,1.74c.43.58.85,1.23,1.27,1.83,1.67,2.48,3.39,4.88,5,7.34l4.62,7.32a220.33,220.33,0,0,1,14.5,28.4c.92,2.27,1.82,4.46,2.63,6.62s1.48,4.31,2.15,6.37,1.24,4.07,1.73,6,.94,3.84,1.31,5.65c5.38,5.07,11,14.24,15.77,26a205.42,205.42,0,0,1,11.24,40.61,274.15,274.15,0,0,1,4.05,42.83,187.2,187.2,0,0,1-1.89,31.9c4.78,5.26,6.91,19.25,6.8,35.47s-2.37,34.54-4.84,48.42c-1.89-.06-2.56-23.94-3.86-.28-.63,5.51-.42,8.33,0,10.49a40,40,0,0,1,1.14,6.59c-1,2.49-1.86,5.17-2.83,7.81s-1.88,5.34-2.9,7.73a62.9,62.9,0,0,1-3.09,6.53,15,15,0,0,1-3.38,4.24,177.32,177.32,0,0,0-2.78,20.56,84.18,84.18,0,0,1-3.67,19.27c-1.33-5.35-3.3-9.21-2-20.37,1.64-13.31,3.29-21.28,5.13-27.65.45-1.59.92-3.08,1.39-4.54s.91-2.94,1.37-4.44a88,88,0,0,0,2.51-10.12c-3.28.41-5,10.16-4.62-6,2.16-1.67,3.28-4.75,3.9-8.63a92,92,0,0,0,.6-13.43c-.1-9.76-.47-20.25,3.16-27.31,0,2.57,0,5,.13,7.27s.13,4.37.27,6.27a32.37,32.37,0,0,0,1.52,8.68c-.07-10.9-.37-22.82-1.15-34.28s-1.83-22.48-3.06-31.68c.35,5.78.14,13.81-1,5.48q-.48,18-1.78,35.75c-.85,11.86-2,23.65-3.37,35.37-.65,5.86-1.44,11.7-2.21,17.52l-1.23,8.72c-.44,2.87-.88,5.72-1.32,8.58-1.8,11.28-3.82,22-6.1,32-4.55,20.08-10.23,37.46-16.87,51.28a131.72,131.72,0,0,1-10.62,18.28l-.69,1c-.22.33-.46.72-.64.93l-1.16,1.53c-.41.5-.82,1-1.21,1.53s-.87,1-1.28,1.51c-1.75,2-3.62,4-5.58,5.81a72.34,72.34,0,0,1-12.31,9.41,54.19,54.19,0,0,1-11.12,5.22,31.75,31.75,0,0,1-6.84,1.42,18.6,18.6,0,0,1-1.91.06,24.54,24.54,0,0,1-2.57-.45,10.21,10.21,0,0,1-3.77-1.63,27.92,27.92,0,0,1-6.48-7.11,72.3,72.3,0,0,1-7.77-15.67,128.81,128.81,0,0,1-5.88-22.55c1-3.86,1.35-9.38,1.73-15.8s.83-13.71,1.79-20.74a193.82,193.82,0,0,1,1.43-28.77c.53-4.31,1.14-8.34,1.75-12.09.14-1,.31-1.85.46-2.76s.3-1.79.46-2.65l.21-1.29,0-.32.09-.41.19-.84c.23-1.12.47-2.21.69-3.3.44-2.2.87-4.33,1.27-6.38s.75-4.1,1.09-6.09c.72-4,1.15-7.7,1.49-11.26a68.49,68.49,0,0,0,.16-9.85,34.12,34.12,0,0,0-1.53-8.29c-3.21,8.2-6.22,16.1-8.84,23.68l-1,2.85-.93,2.81-1.86,5.59L1329,1467l-.43,1.38c-.14.45-.3.94-.38,1.26l-.61,2.17a200.38,200.38,0,0,0-6.49,38.43,213.81,213.81,0,0,0,1.35,44.92,161.4,161.4,0,0,0,4.95,23.32,105.09,105.09,0,0,0,8.29,20.48c.6,2.81,1.12,5.31,1.51,7.57a46.1,46.1,0,0,1,.69,6.23,23.79,23.79,0,0,1-1.93,10.91,40.1,40.1,0,0,1-11.21-10.64,78.43,78.43,0,0,1-9.78-18.29,130.34,130.34,0,0,1-6.54-23.89,185.37,185.37,0,0,1-2.72-26.91,244.64,244.64,0,0,1,4.94-55.23c.9-4.43,1.89-8.78,3-13l.84-3.16.87-3.11c.28-1,.61-2,.9-3.06l.22-.77.28-.9.59-1.85c3.06-9.88,6.35-19.91,9.76-30.13,2-5.89,3-10.19,4.15-14.47a111.37,111.37,0,0,1,4.55-14.15c7-17.6,13.85-33.44,20.17-48.3s12.16-28.58,17.54-42,10.35-26.56,14.89-40.3a404.42,404.42,0,0,0,12-44.28,330.07,330.07,0,0,0,6.53-49.35,298.83,298.83,0,0,0-1.73-52.7,302.84,302.84,0,0,0-11.31-52.37,334.83,334.83,0,0,0-19.47-48.39c-1.84-3.88-3.86-7.56-5.82-11.32s-4.09-7.34-6.14-11-4.24-7.16-6.43-10.65-4.37-7-6.66-10.34c-9-13.59-18.6-26.36-28.44-38.44-19.73-24.14-40.54-45.51-61.18-65.22-9.1-8.68-17.34-18-26.32-26.81-2.25-2.24-4.5-4.27-6.84-6.33s-4.74-4.05-7.23-6a106,106,0,0,0-16.22-10.52l16.74,15.16,8.48,7.6,8.57,7.85c11.43,10.57,22.8,21.38,33.72,32.18s21.38,21.65,31.06,32.09,18.59,20.52,26.48,29.67c4.89,7.1,10.11,15.06,15.54,23.69s11,18.14,16.41,28.33A374.3,374.3,0,0,1,1389,1076a313.87,313.87,0,0,1,8.91,39.75c.26,1.69.57,3.36.78,5.06l.64,5.09c.2,1.7.41,3.39.62,5.09s.29,3.37.44,5.06.27,3.36.41,5,.28,3.36.33,5q.21,5,.4,10a346.36,346.36,0,0,1-1.38,38.08c-.3,3-.66,6-1,8.93-.17,1.46-.32,2.94-.52,4.38s-.42,2.86-.62,4.28c-.43,2.82-.81,5.66-1.29,8.38s-1,5.4-1.44,8.06-1.33,5.12-2,7.65-1.33,5.06-2.06,7.51c-1.46,4.89-2.84,9.8-4.39,14.48-3,9.51-6.19,18.48-9.36,27.3-6.47,17.46-13.17,33.71-19.76,49.28s-13.13,30.39-19.38,44.92-12.25,28.7-17.77,42.74c-1.38,3.51-2.75,7-4,10.52s-2.61,7-3.87,10.49-2.42,7-3.66,10.46l-1.71,5.21-.86,2.62-.22.65-.17.57-.34,1.12c-1.84,6-3.46,12.2-4.82,18.68s-2.5,13.18-3.36,20.07a253.27,253.27,0,0,0-1.72,43.06,205,205,0,0,0,6.55,44c-2.37,3.87-2,9.25,0,15.49s5.8,13.29,10.35,20.13c-3.45,1.78-4,5.81-1.65,11.21s7.51,11.69,15.35,16.63c.63.21,1.15.37,1.6.48a6,6,0,0,0,1.14.12c.62,0,1-.16,1.1-.42.3-.52-.11-1.45-.51-2.33s-.76-1.81-.49-2.24,1.14-.37,3.34.38c3.77,3.21,8,6,11.6,8.53a30.39,30.39,0,0,1,2.53,1.91,16.68,16.68,0,0,1,2,1.86,8.3,8.3,0,0,1,2.18,4c-.65-.1-1.31-.16-2-.27l-2-.37c-1.29-.18-2.72-.59-4.08-.86a62.9,62.9,0,0,1-7.64-2.41c-4.69-1.81-8.35-4.08-10.06-6.11,0,3.56,5.63,8.21,11.94,11.71l1.16.69,1.18.62c.79.41,1.53.88,2.29,1.27,1.52.78,2.92,1.63,4,2.35,2.27,1.57,3.8,3.05,3.52,4.89a93.77,93.77,0,0,1-17-3.35,88,88,0,0,1-30.15-15.79,101.76,101.76,0,0,1-12.81-12.25,126.33,126.33,0,0,1-11.09-14.71A154.45,154.45,0,0,1,1269,1614a189.48,189.48,0,0,1-13-37.3,232.54,232.54,0,0,1-6-40.27,252.12,252.12,0,0,1,.84-41.45,231.84,231.84,0,0,1,8-41.17c.48-1.69,1-3.36,1.54-5s1.15-3.45,1.73-5.17,1.19-3.47,1.78-5.21,1.27-3.47,1.9-5.21c2.54-7,5.34-13.92,8.25-20.89,2.27-3.43,4.5-6.34,6.66-9s4.35-5.2,6.53-7.79a139.71,139.71,0,0,0,14-19.2c.07-7.12-5-.5-11,8.22s-12.67,19.56-16.29,21.06c4.71-17.69,13-39.66,20.85-61.34,3.92-10.85,7.71-21.63,10.89-31.75a258.06,258.06,0,0,0,7.26-27.68c4.24-6.51,7.46-3.23,13-22.84a341.68,341.68,0,0,0,11.44-42.67,264.48,264.48,0,0,0,4.83-41.31,228,228,0,0,0-2-39.3,220.84,220.84,0,0,0-8.32-36.46c-7.4-23.23-18-44.16-30.39-63.53s-26.69-37.28-42.4-54.72c-23.9-26.43-49.39-49.83-75.58-71.94-26.29-22-53-43.05-81.06-63.3l-21.27-15-21.87-14.58c-1.84-1.21-3.66-2.46-5.52-3.64l-5.63-3.53-11.32-7.06-5.69-3.55c-1.9-1.18-3.8-2.38-5.75-3.49l-11.7-6.83a957.78,957.78,0,0,0-100.61-51c-8.77-5.1,4-5.1-15.09-12.64L890,723.42c-2.73-1.3-5.54-2.5-8.35-3.77L864.33,712l-4.41-1.93-4.5-1.83-9.08-3.67-9.18-3.71L832.54,699l-2.31-.94-2.34-.87-18.82-7.07c-3.15-1.17-6.28-2.39-9.43-3.53l-9.5-3.34-18.85-6.71-18.66-6.29c-24.5-8.58-48.26-16-69.11-22.49s-39-12-52.18-17.81l-46.59-2.24-8.68-.35c-2.86,0-5.7-.12-8.64-.12s-6,.13-9.16.34c-1.6.12-3.25.27-5,.43s-3.46.35-5.29.65c-3.24.93-6.44,1.82-9.65,2.91l-4.85,1.58L528.6,635c-6.64,2.34-13.59,5.15-21.36,8.49a42.81,42.81,0,0,0-7.43,1.52c-2.82.91-6,2.08-9.47,3.58s-7.14,3.32-10.9,5.54c-1.89,1.1-3.88,2.16-5.8,3.43l-5.89,3.87-1.5,1-1.47,1.07-2.95,2.19c-2,1.47-4,2.93-5.91,4.56l-5.84,4.84-5.64,5.11c-1.91,1.67-3.66,3.49-5.46,5.24s-3.59,3.49-5.25,5.3l-5,5.3-4.7,5.25c-6.78,7.71-13.1,15.12-18.83,22.59-.73.93-1.48,1.85-2.19,2.78s-1.39,1.87-2.09,2.8c-1.38,1.87-2.81,3.71-4.15,5.58-2.65,3.76-5.37,7.49-7.86,11.31-5.13,7.61-9.84,15.45-14.3,23.73l-3.28,6.29c-1.05,2.14-2.08,4.3-3.11,6.5s-2,4.43-3,6.7-2,4.59-2.85,6.94a345.08,345.08,0,0,0-13.61,43.06c-3,12.45-4.94,23.15-6.31,32.72-2.64,19.13-3.16,33.76-3.91,49-.25,4.64-.51,9.56-.78,14.67s-.63,10.34-.95,15.7-.6,10.81-.9,16.25-.47,10.92-.64,16.27-.19,10.63-.19,15.7.14,9.94.41,14.54.59,8.88,1.11,12.79a87.49,87.49,0,0,0,2,10.46c2.84-10.83,5.89-22.36,9.14-31.42-.38-21-1.36-43.68-1.12-68.19s1.83-51.51,8.33-80.45c1-4.56,2.21-8.88,3.41-13s2.55-8.09,4-11.92,2.83-7.54,4.35-11.19,3.05-7.22,4.59-10.8,3.2-7.16,4.73-10.82,3.21-7.37,4.86-11.21c3.24-7.71,6.61-15.92,10.08-25.27l3.49,1.64c10.46-23.73,23.9-45,40-62.4a184.19,184.19,0,0,1,54-40.49,188.81,188.81,0,0,1,58.49-17.23,217.79,217.79,0,0,1,28.52-1.8c9.37,0,18.59.51,27.7,1.41s18.09,2.28,27,3.9,17.77,3.55,26.6,5.76c17.68,4.38,35.32,9.7,53.42,15.71q13.58,4.5,27.58,9.48,14,5.13,28.77,10.21c9.78,3.64,19.86,7.22,30.27,10.87q7.74,2.91,15.76,5.8l8.1,2.9,4.1,1.44c1.37.49,2.73,1,4.11,1.54,43.22,23.24,81.21,48.36,111,72.88-3.55-1.95-6.94-3.84-10.27-5.52s-6.55-3.24-9.66-4.73c-6.23-3-12-5.67-17.58-8.09s-10.91-4.4-16.07-6.38l-7.64-2.91c-2.51-.95-5-1.89-7.54-2.73L855.9,749.3c-5.15-1.78-10.37-3.78-16-5.65-11.16-3.83-23.26-8.6-37.82-14.1q-7.22-1.74-14.53-3.62l-14.84-3.55q-7.49-1.83-15-3.79l-15.35-3.66q-7.71-1.87-15.52-3.86l-7.75-1.82-7.78-1.79c-10.4-2.35-20.89-4.57-31.43-6.53-21.08-3.93-42.44-6.89-63.52-7.81a277.09,277.09,0,0,0-31.22.4,194.41,194.41,0,0,0-29.93,4.37,160.85,160.85,0,0,0-27.81,9,141.71,141.71,0,0,0-25,14.17c-15.69,11.12-29.2,25.74-40.32,42.91s-19.83,36.7-26.57,57.09A403.9,403.9,0,0,0,420.56,884c-3.9,15.56-7,31.25-9.59,47q-.48,3-1,5.89t-.91,6q-.89,6-1.75,11.9c-1.08,7.9-2.14,15.77-3.06,23.58-3.68,31.23-6,61.78-6.56,92a786.78,786.78,0,0,0,3.33,89.8c1.62,14.83,3.36,29.72,6,44.52l.93,5.57c.31,1.86.6,3.72,1,5.56q1.09,5.54,2.21,11.12c1.42,7.45,3.18,14.71,5,22.11a43.85,43.85,0,0,0-.26,8.62,105.53,105.53,0,0,0,1.45,11.46,211.92,211.92,0,0,0,7.4,28.65c3.35,10.36,7.52,21.18,12,31.63s9.38,20.53,13.88,29.58c3.3,4.88,4.9,4.41,6.87,5.1a7.81,7.81,0,0,1,3.56,2.65,29.44,29.44,0,0,1,2.49,3.46c1,1.47,2.1,3.29,3.38,5.59,5.72,8.94,10.89,16.71,15.51,23.73,2.38,3.45,4.51,6.82,6.63,9.91l5.93,8.95c7.48,11.36,13.32,20.7,19,29.48s11.31,17,18.86,25.31A126.14,126.14,0,0,0,564.06,1498a79,79,0,0,0,9.2,4.44c1.74.78,3.64,1.43,5.56,2.16s3.9,1.48,5.95,2.12c8.12,2.81,16.9,5.11,24.34,7.43a379.18,379.18,0,0,0,42.26,10.61c3.93.65,7.83,1.37,11.65,1.83,1.9.24,3.77.53,5.61.72l5.37.53a158.48,158.48,0,0,0,17.68.71c2.06,0,4.11-.12,6.16-.25s4.09-.2,6.12-.38c4.07-.39,8.12-.73,12.13-1.32a237.17,237.17,0,0,0,23.75-4.4l5.83-1.45c1.93-.5,3.85-1.08,5.77-1.62,3.85-1,7.62-2.36,11.41-3.55l5.62-2,2.81-1,2.77-1.1,5.55-2.2,5.47-2.38c29.09-12.91,56.07-30.75,82.38-53.21a290.3,290.3,0,0,0,27-26.37l1.62-1.78,1.56-1.83,3.15-3.65c2.08-2.46,4.06-5,6.12-7.52s4-5.14,5.88-7.78l2.85-4,1.43-2,1.37-2a292,292,0,0,0,20-34.25,278.89,278.89,0,0,0,15.17-37.29l.8-2.4.72-2.43,1.44-4.86c.9-3.25,1.74-6.53,2.57-9.82l1.12-5,.57-2.48.49-2.49,1-5c.17-.84.29-1.61.41-2.39l.37-2.36a146.79,146.79,0,0,0,.48-38.34,120.37,120.37,0,0,0-9.73-36c-5-10.84-11.88-19.82-19.94-25.46a37.3,37.3,0,0,0-10.59-6.57,39.14,39.14,0,0,0-6.42-2,42.54,42.54,0,0,0-7-1c-9.79-.63-21.47,2.06-34,7-6.28,2.43-12.76,5.33-19.59,8.49s-13.76,6.37-20.7,9.67c-13.92,6.58-28,13.49-42,20.75s-27.95,14.92-41.62,23-27,16.63-39.77,25.64l-4.77,3.39c-1.59,1.14-3.21,2.23-4.73,3.44l-9.25,7c-1.57,1.14-3,2.4-4.51,3.61l-4.46,3.65-4.45,3.63-4.27,3.78-4.27,3.76c-1.42,1.25-2.88,2.47-4.21,3.8l-8.14,7.76c-1.39,1.25-2.65,2.62-3.93,3.95l-3.86,4-3.86,4c-1.28,1.32-2.43,2.68-3.66,4-4.36,6.8-8.78,14.05-13,21.82s-8.22,16-11.91,24.67a253.59,253.59,0,0,0-9.83,27.18c-1.41,4.7-2.66,9.5-3.77,14.35-.26,1.2-.53,2.4-.79,3.61l-.39,1.77-.32,1.78-.66,3.58-.32,1.79-.26,1.8c-3,19.2-3.11,39.41.91,58.66a128.35,128.35,0,0,0,9,27.68,114.34,114.34,0,0,0,14.83,24,26.61,26.61,0,0,0,1.74,2.08c.6.68,1.19,1.36,1.79,2s1.19,1.35,1.78,2,1.26,1.26,1.88,1.9c1.28,1.24,2.51,2.5,3.8,3.69l4,3.41a101,101,0,0,0,16.75,11.22l2.13,1.16,2.19,1c1.46.67,2.89,1.34,4.32,2l4.37,1.67,2.14.79,2.18.67,4.28,1.27c1.43.35,2.86.66,4.27,1,2.78.67,5.59,1,8.29,1.4,1.65.55,3,.91,4,1.33a11.49,11.49,0,0,1,2.31,1.2,8.09,8.09,0,0,1,2,2.25,6.08,6.08,0,0,0,2.74,2.19,15.49,15.49,0,0,0,3.21,1.07c1.38.3,3.11.59,5.29.86a238.42,238.42,0,0,0,35.59-1.28c1.47-.15,2.92-.41,4.37-.6s2.91-.34,4.34-.64c2.87-.54,5.73-1,8.53-1.65l4.19-.94,4.24-1.13c1.41-.36,2.81-.73,4.18-1.2l4.09-1.29a114,114,0,0,0,28.49-13.88c8-5.49,14.07-11.66,18-17.9,9.22-7.57,15.18-12.61,20.26-16.18,21.93-27.29,35.36-61.61,40.78-97.89a261.7,261.7,0,0,0,2.23-55.47,266.46,266.46,0,0,0-3.29-27.84l-.6-3.45c-.22-1.17-.49-2.37-.73-3.55-.49-2.36-1-4.73-1.48-7.1l-.73-3.56-.91-3.56c-.59-2.36-1.19-4.74-1.78-7.11a402.15,402.15,0,0,0-20-57.26,601.65,601.65,0,0,0-29.24-58.08c-11.12-19.56-23.51-39.37-37-59.57l-10.46-15.43q-5.58-8.19-11.28-16.72c-7.58-11.37-15.24-23.2-22.81-35.6-7.35-17.44-14.2-35-20.19-53.09-.74-2.26-1.49-4.52-2.23-6.77l-2.12-6.87c-1.43-4.54-2.71-9.23-4-13.85-.67-2.28-1.24-4.69-1.85-7s-1.22-4.68-1.77-7.07l-.41-1.79c-.14-.62-.25-1.14-.44-1.86l-1-4.09c-.67-2.69-1.21-5.33-1.77-8a304,304,0,0,1-5-31.79c-.42-5.31-1-10.55-1-15.84,0-1.32-.08-2.64-.13-3.95s-.09-2.63-.05-4c0-2.62.07-5.25.11-7.88,0-1.31.09-2.63.18-3.94s.17-2.62.25-3.93.18-2.61.26-3.92.29-2.62.43-3.92c.32-2.61.59-5.21,1-7.81s.91-5.17,1.37-7.77l.34-1.94c.13-.64.3-1.28.45-1.93.3-1.28.6-2.56.91-3.85s.61-2.56.91-3.84.75-2.55,1.11-3.82c.79-2.53,1.48-5.08,2.36-7.59l2.78-7.48.61-1.28.69-1.26,1.38-2.48,2.76-4.9c2-3.18,4.08-6.27,6.1-9.32,2.27-2.95,4.47-5.88,6.76-8.73,2.45-2.76,4.84-5.52,7.32-8.19,2.4-2.37,4.69-4.77,7.24-7,1.26-1.11,2.44-2.27,3.76-3.33l3.92-3.2c1.28-1.08,2.7-2,4-3.07s2.71-2,4.15-3l4.24-2.85,4.41-2.69a169.22,169.22,0,0,1,18.69-9.59,207.35,207.35,0,0,1,20.47-7.5,267.34,267.34,0,0,1,45.61-9.42c8.12-1,16.46-1.68,25.18-2.08,9-.44,18.41-.59,28.27-.4,6.7-.86,13.34-1.49,19.88-2,3.28-.28,6.53-.48,9.77-.69s6.19-.33,9.22-.36c12-.12,23.53,1.07,32.74,5.46a29.66,29.66,0,0,1,11.46,9.42,35,35,0,0,1,5.64,14.68,97.84,97.84,0,0,1,1.06,16.59c0,2.77-.07,5.5-.11,8.21s-.2,5.41-.28,8.1c-.5,10.71-1.32,21.12-2.59,31.16-.27,2.52-.69,5-1,7.46-.18,1.24-.35,2.47-.52,3.7s-.41,2.43-.6,3.64c-.42,2.43-.82,4.83-1.23,7.21s-.92,4.73-1.37,7.06-1,4.64-1.47,6.93-1,4.57-1.56,6.8c-1.12,4.46-2.19,8.89-3.44,13.16-2.36,8.62-5.11,16.78-7.91,24.64-11.6,19.7-19.67,33.77-25.21,44.77s-8.57,18.85-11.21,24.91a348,348,0,0,1-60.41,54A336.54,336.54,0,0,1,855,1070.68a323.47,323.47,0,0,1-35.85,16.64,347.51,347.51,0,0,1-77.24,20.29,356.61,356.61,0,0,1-84.79,1.82A315.67,315.67,0,0,1,574,1089.75a300.31,300.31,0,0,1-36.63-17c-5.78-3.22-11.47-6.5-16.95-10-1.37-.87-2.76-1.72-4.11-2.62l-4-2.73c-2.67-1.82-5.32-3.63-7.95-5.6a287.13,287.13,0,0,1-54.3-52.06,319,319,0,0,1-37.79-59.79,366.49,366.49,0,0,1-24.09-64.14,416.48,416.48,0,0,1-12.52-67.66,433.1,433.1,0,0,1-1.35-71.64c.78-12.32,2.11-24.85,4.06-37.59A394.45,394.45,0,0,1,386.31,660c1-2.17,1.88-4,2.8-5.79L392,649c.95-1.82,2-3.77,3.09-6.09.55-1.16,1.12-2.42,1.7-3.8s1.26-2.87,1.93-4.51a18,18,0,0,1,.8-7.72c.44-1.59,1-3.33,1.67-5.17s1.53-3.79,2.43-5.83a215.53,215.53,0,0,1,15-26.55c5.85-9.05,12.06-17.76,16.86-25.17,1.17-1.87,2.32-3.61,3.28-5.32s1.78-3.33,2.49-4.83c1.39-3,2.1-5.69,1.88-7.9a166.53,166.53,0,0,0-26,25.38,233.25,233.25,0,0,0-26.56,39.84A263.48,263.48,0,0,0,370.42,661a272.44,272.44,0,0,0-9.85,52.37c-4.85,11-6.72,27.16-6.44,45.11.08,9,.77,18.43,1.66,28,.43,4.8,1,9.62,1.5,14.45s1.16,9.67,1.73,14.48c2.89,24.13,6.2,47,11.14,69s11.62,42.89,21.18,62.2a97.67,97.67,0,0,0,10,15.39L406,967.9A47.39,47.39,0,0,1,409,972c9.15,14.66,17.76,28.12,28.54,42A238.19,238.19,0,0,0,456,1035.13a218.6,218.6,0,0,0,24.61,21.66c2.67,2,5.35,3.91,7.94,5.8s5.25,3.59,7.8,5.32c1.28.88,2.54,1.68,3.78,2.46l3.71,2.33,3.65,2.28c1.2.74,2.42,1.42,3.61,2.13l7.07,4.07,6.92,3.7,3.37,1.77c1.12.58,2.24,1.11,3.35,1.66l6.57,3.18a324.1,324.1,0,0,0,48.55,18.14,354.83,354.83,0,0,0,48.25,10.2,389.25,389.25,0,0,0,59,3.85c11.5-.12,23-.65,34.41-1.82s22.76-2.7,33.94-4.89l4.2-.79,4.17-.91c2.77-.62,5.55-1.19,8.31-1.86l8.23-2.08c2.74-.67,5.45-1.52,8.16-2.27,5.43-1.5,10.76-3.31,16.07-5,5.28-1.89,10.54-3.7,15.68-5.81s10.23-4.23,15.25-6.44c2.51-1.12,5-2.33,7.44-3.5l3.68-1.77,3.62-1.86,7.16-3.75,7-3.93c2.32-1.29,4.58-2.67,6.82-4s4.49-2.72,6.67-4.14a329.1,329.1,0,0,0,47-36.51,307.94,307.94,0,0,0,35.61-39.41,267,267,0,0,0,24.34-38.55c1.55-3.11,3.08-6.1,4.42-9.1s2.61-5.93,3.79-8.78,2.17-5.71,3.14-8.44,1.76-5.45,2.54-8,1.45-5.12,2-7.6,1-4.83,1.43-7.1a95.48,95.48,0,0,0,1.2-12.69,137.9,137.9,0,0,0,14.83-68.75c0-2.4-.25-4.81-.38-7.17s-.29-4.72-.55-7.1c-.46-4.77-.93-9.59-1.42-14.62a139.16,139.16,0,0,0-2.6-17.06,65.63,65.63,0,0,0-3-9.54,49.08,49.08,0,0,0-5.11-9.56,41.28,41.28,0,0,0-8.89-10.75,47.4,47.4,0,0,0-9.49-6.38A65.37,65.37,0,0,0,977.65,736a94.07,94.07,0,0,0-12.33-1.77c-3.66-.28-7-.37-10.24-.39s-6.54.07-10,.15l-11.65.24c-4.37.1-9.34.2-15.22.46s-12.65.61-20.63,1.3c-3.82-.46-7.62-.78-11.42-1.13l-5.81-.38c-2-.14-3.88-.18-5.84-.27-7.79-.3-15.66-.34-23.53.06a237.78,237.78,0,0,0-23.71,2.23,209.16,209.16,0,0,0-23.64,4.76A184.72,184.72,0,0,0,758,759.74a171.35,171.35,0,0,0-21,14.32,170.48,170.48,0,0,0-51.94,70.73l-2.81,7.79c-.46,1.31-.93,2.63-1.37,4l-1.17,4c-.76,2.72-1.57,5.46-2.26,8.25s-1.23,5.63-1.83,8.49a205.17,205.17,0,0,0-3.74,36.1l-.09,4.75c0,1.59.06,3.18.1,4.78.09,3.21.2,6.45.37,9.73.53,6.52,1.05,13.21,2.1,20s2.24,13.64,3.68,20.64c.76,3.49,1.62,7,2.49,10.54s1.78,7,2.93,10.83l.84,2.8.62,2.27c.41,1.52.83,3,1.28,4.49.9,3,1.81,5.95,2.73,9s1.95,5.89,2.95,8.88,2.06,5.92,3.15,8.86c2.14,6,4.46,11.74,6.85,17.68s4.93,11.72,7.58,17.51c.74,1.21,1.48,2.42,2.23,3.62s1.49,2.36,2.23,3.54l4.43,7c3,4.56,5.86,9.14,8.71,13.47,5.71,8.8,11.15,17,16.1,24.84,2.47,3.85,4.83,7.67,7,11.25,1.1,1.8,2.17,3.58,3.19,5.34s2,3.42,2.93,5.09c1.89,3.36,3.57,6.53,5.07,9.57l1.09,2.26c.35.75.7,1.49,1,2.13.56,1.33,1.07,2.62,1.52,3.89l-4.69-5.48-5.12-6.11c-3.48-4.21-7-8.54-10.62-13.13-7.23-9.13-14.74-19-22.42-29.79s-15.53-22.45-23.38-35.16S683,1042,675.5,1026.8c-.94-1.91-1.9-3.79-2.83-5.73l-2.76-5.94c-.91-2-1.85-4-2.74-6l-3-7-1.7-4.08c-.52-1.32-1-2.64-1.55-4-1-2.66-2-5.33-3-8-2-5.34-3.78-10.79-5.54-16.27l-1.3-4.13-1.18-4.16q-1.14-4.17-2.29-8.36c-.78-2.8-1.37-5.63-2-8.46l-1.86-8.52c-.54-2.86-1-5.73-1.51-8.61l-.7-4.32c-.25-1.44-.46-2.89-.62-4.34-.34-2.9-.67-5.8-1-8.71-.15-1.46-.32-2.91-.45-4.37l-.29-4.39c-.17-2.93-.33-5.86-.5-8.79s-.09-5.88-.12-8.82v-4.42c0-1.47,0-2.94.11-4.41.16-2.94.33-5.89.49-8.84.11-1.47.16-2.95.32-4.41l.5-4.41q.52-4.4,1.07-8.81c.47-2.92,1-5.84,1.53-8.76s1-5.84,1.78-8.72a235.89,235.89,0,0,1,26.29-66.47,233.28,233.28,0,0,1,58.24-65.73c23.4-18.16,50.16-32.13,78.35-42a337.06,337.06,0,0,1,43.17-11.95q5.48-1.11,11-2.13c3.47-.64,8.35-1.38,10.92-1.79l9.14-1.25,9.06-1c12-1.24,23.88-1.94,35.56-2.21l8.73-.11c2.9,0,5.78,0,8.67,0s5.75.14,8.62.21l1.07,0,1.31,0,2.67.12c1.79.09,3.6.2,5.45.33A229.88,229.88,0,0,1,986.18,640a190.2,190.2,0,0,1,27.69,7,167.84,167.84,0,0,1,15.89,6.27,157,157,0,0,1,17.3,9.25,146.83,146.83,0,0,1,18.18,13.37A138.29,138.29,0,0,1,1082.75,694a134.58,134.58,0,0,1,14.51,22.2c2.09,3.94,3.86,7.89,5.55,11.93q1.23,3.09,2.35,6.23c.75,2.11,1.36,4.09,2,6.16l.89,3.08.77,3,.72,3,.34,1.49.29,1.43c.39,1.91.74,3.82,1.07,5.73s.54,3.63.78,5.45a160.2,160.2,0,0,1,1.21,19.45c0,5.76-.28,10.93-.67,15.55s-.87,8.53-1.35,12.09-.93,6.45-1.37,9-.9,5.38-1.34,8.05a503.58,503.58,0,0,1-35.22,114.38c9.6-11.31,17.52-26.3,24-42.83s11.48-34.55,16-52.23q3.32-12.9,5.86-26.18c.84-4.27,1.83-9.83,2.72-16.83a184.43,184.43,0,0,0,1.45-26,157.29,157.29,0,0,0-5-36.63c-.44-1.69-1-3.49-1.48-5.22s-1-3.44-1.67-5.24c-1.24-3.56-2.57-7.13-4-10.5q-1.11-2.55-2.28-5.07c-.81-1.69-1.66-3.37-2.52-5-1.72-3.34-3.63-6.6-5.61-9.82a149.26,149.26,0,0,0-28.09-33,158.34,158.34,0,0,0-30-20.69c-1.23-.67-2.37-1.24-3.55-1.84l-3.53-1.73-3.41-1.56c-1.14-.51-2.3-1-3.38-1.48-2.2-.91-4.46-1.84-6.55-2.61L1019,636.5l-3.1-1.06A197.78,197.78,0,0,0,993,629.25a247,247,0,0,0-37.89-4.72l-3.67-.16-3.41-.13c-2.26-.09-4.54-.14-6.82-.18-4.55-.1-9.14-.09-13.74-.06-9.22.12-18.53.49-28,1.18s-19,1.75-28.73,3.14l-8.62,1.35-2.3.39-2.22.41-4.43.84c-5.91,1.1-11.79,2.44-17.67,3.83a323,323,0,0,0-68.3,24.78A270,270,0,0,0,706.7,701a246.21,246.21,0,0,0-46.64,57.46q-3.45,6.28-6.82,12.7c-1.16,2.12-2.14,4.33-3.16,6.53l-3,6.64-1.48,3.35-1.33,3.42L641.65,798l-1.28,3.46c-.43,1.16-.77,2.35-1.15,3.52q-1.1,3.54-2.2,7.1a247.78,247.78,0,0,0-9.89,59.61A280.36,280.36,0,0,0,631.7,934a350.82,350.82,0,0,0,17.76,61.9c1,2.6,1.95,5.11,3,7.75l1.68,4,1.51,3.52,1.3,3,1.33,2.89,2.68,5.73c1.79,3.88,3.66,7.46,5.52,11.14s3.77,7.2,5.68,10.72c7.68,14,15.7,27,23.86,39.35,16.32,24.65,33.21,46.71,49.41,67.63q5.7,7.38,11.47,14.82c1.76,2.31,3.58,4.62,5.31,7s3.44,4.66,5.16,7l2.59,3.52c.85,1.17,1.66,2.36,2.49,3.54l5,7.12c1.69,2.39,3.19,4.79,4.8,7.2s3.2,4.84,4.74,7.28c12.26,19.49,23.08,39.89,31.25,61.21l3.28,9.21.81,2.26.69,2.25c.46,1.49.91,3,1.36,4.46,2,5.92,3.2,11.67,4.71,17.36.62,2.84,1.16,5.65,1.75,8.44l.86,4.19.64,4.15c.41,2.76.93,5.52,1.3,8.26s.59,5.47.92,8.21.48,5.46.7,8.2c.1,1.37.21,2.74.31,4.12l.17,2.06.06,1.92c.25,5.14.23,10.42.13,15.84s-.44,11-.9,16.72c-.21,2.87-.57,5.76-.86,8.71q-.3,2.2-.57,4.44c-.17,1.5-.45,3-.65,4.5-1.09.7-2,3.71-2.92,5.9s-2.11,3.49-3.6.91a89.37,89.37,0,0,1-13.79,35,88.12,88.12,0,0,1-21.17,22,119.55,119.55,0,0,1-10.54,6.87c-.87.46-1.7,1-2.52,1.46s-1.69.89-2.49,1.38a2.06,2.06,0,0,1-.49.23l-.43.17a9,9,0,0,0-.82.41,6.35,6.35,0,0,1-.87.4c-.3.14-.59.28-.88.44A135.07,135.07,0,0,0,755.6,1491c.31-1.49,1.82-2.47,2.56-3.33S758.92,1486.17,756.51,1485.44Zm743.54-554.69c1.34-7.82,3.37-6,2.56.33,1.63-.81,2.56-11.24,3.72-18.59,2.42,2-1.84,23.48.56,25.57,3.54-9.78,6.83-23,10-37C1517.53,936.9,1500.83,958.2,1500.05,930.75Zm93.64-407.4c3.65-4.16,5.76-1.55,6.74,5.53s.84,18.49.09,31.32-2.1,27-3.53,39.34-2.93,22.86-4,28.5c-2.16,11.45-6,26.77-9.41,35.84s-6.39,12.06-7.07.62c-.37-6.34.51-15.77,2.07-27.1s3.78-24.59,6.07-38.44,4.64-28.28,6.38-41.54S1593.89,532.13,1593.69,523.35Zm3-156.06c-1.89,3.85-3.42,6-4.76,6.87s-2.47.61-3.92-.36a26.15,26.15,0,0,0-1-8.14,19.1,19.1,0,0,0-3.91-7.19,15.83,15.83,0,0,0-6.73-4.4,22,22,0,0,0-8.1-.94,43.27,43.27,0,0,0-16.48,5,65.28,65.28,0,0,0-14.64,10.32c-8.75,8.06-17.11,15.9-24,21.78a112.11,112.11,0,0,1-9.17,7.17,31,31,0,0,1-3.51,2.1c-.5.23-1,.51-1.48.74a7.41,7.41,0,0,1-1.27.49c10.4-10.21,18.74-18.46,26.18-25.62,7.34-6.87,13.64-12.65,20.25-18.32a63.32,63.32,0,0,1,11.36-7.25,54.08,54.08,0,0,1,14.3-5,33,33,0,0,1,8.64-.52,20,20,0,0,1,9.16,3,19.41,19.41,0,0,1,7,8.32A27.71,27.71,0,0,1,1596.65,367.29Zm-134,50.41c2.18,2.6-10.94,12.44-12,16.66-2.82.68-8.13,4-13.22,6.83a62.68,62.68,0,0,1-7,3.54c-2.06.8-3.65,1.1-4.4.47,2.44-2.09,4.62-3.87,6.57-5.42s3.61-2.81,5.15-3.93c3.13-2.27,5.51-3.82,7.89-5.34s4.6-2.95,7.29-4.89S1458.63,421.23,1462.68,417.7Zm-24.54,57.87q-9,7-18.78,13.85c-6.59,4.51-13.5,8.95-20.76,13.21s-15,8.24-23,12l-6.1,2.72-6.25,2.54-1.58.64-1.6.58-3.21,1.17-3.24,1.17-3.37,1.09-3.38,1.09c-.58.18-1.1.37-1.72.54l-1.86.53c-2.49.69-5,1.42-7.46,2.08l-7.56,1.8c-2.52.6-5.1,1-7.64,1.54a228,228,0,0,1-31.18,3.56,249,249,0,0,1-63-5.93,398,398,0,0,1-99.43-37c-30.1-16-56.57-34.76-77.31-55.3L1071.08,452c7.5,5.09,15.39,10.34,23.55,15.6,16.37,10.46,33.94,20.9,52,29.62a286.63,286.63,0,0,0,53.89,20.32c2.15.61,4.34,1,6.46,1.54s4.24,1,6.34,1.31l6.17,1.09,6,.78,2.92.35,2.89.22,5.57.37c1.83.06,3.61.07,5.35.08s3.41,0,5.06-.09c3.78.67,7.6,1.42,11.5,1.91s7.85,1,11.85,1.38c2,.21,4,.26,6,.4s4,.27,6.08.27l6.13.1c2,0,4.09-.11,6.15-.16l3.09-.09,3.08-.24c2.06-.16,4.12-.29,6.18-.48l6.16-.76c1-.14,2.06-.24,3.08-.41l3.05-.53c2-.36,4.08-.69,6.11-1.09l6-1.35c2-.42,4-1,6-1.52s4-1.06,5.89-1.65c3.79-1.26,7.61-2.39,11.21-3.83,1.81-.7,3.63-1.36,5.4-2.08l5.25-2.27,2.58-1.14,2.53-1.23,5-2.45,4.81-2.61c1.59-.88,3.18-1.72,4.69-2.67a200.09,200.09,0,0,0,32.48-23.94c.83,1,2.9.72,5.34-.13,1.23-.41,2.57-1,3.93-1.51l4-1.78c2.63-1.11,4.93-2,6.34-1.92S1439.14,472.68,1438.14,475.57Zm-29.44-16.93c-.09,1.85-.17,3.68-.26,5.55-3,2.45-6.28,5.06-9.74,7.81l-5.39,4.06-2.76,2.07-2.83,2-5.73,4-5.81,3.68c-1,.6-1.92,1.22-2.88,1.79l-2.9,1.64c-1.91,1.07-3.8,2.12-5.65,3.11s-3.7,1.79-5.48,2.62-3.49,1.63-5.18,2.23-3.29,1.23-4.81,1.75l-2.22.74c-.71.18-1.4.34-2.06.49a32.77,32.77,0,0,1-6.62.9,4.9,4.9,0,0,1-2.07-.38,2.53,2.53,0,0,1-1.18-.91c1.56-.64,3.49-1.61,5.23-2.43l5.12-2.41,9.57-5.1c3-1.74,5.86-3.36,8.66-4.92s5.49-3.28,8.21-4.84,5.41-3.32,8.2-5,5.61-3.52,8.61-5.34,6.08-3.91,9.42-6S1405,461.2,1408.7,458.64Zm-80.18,41.16c-3.93,2.33-5.16,4.44-4.17,6.51a52.86,52.86,0,0,1-8,1.87c-1.11.18-2.12.32-3,.4a19.53,19.53,0,0,1-2.37.05c-2.75-.12-3.75-.79-3.19-1.71a5,5,0,0,1,2-1.51,41.62,41.62,0,0,1,4.18-1.74,62.73,62.73,0,0,1,6.28-1.85C1322.64,501.1,1325.42,500.47,1328.52,499.8Zm-12.17-23.39a9.36,9.36,0,0,0-3-.5,19.45,19.45,0,0,0-3.68.14c-.66.08-1.33.18-2,.31s-1.4.28-2.14.39c-1.46.25-3,.57-4.52.93-6.17,1.28-12.91,2.78-18,2.48-9.82-.39-17.62-2.71-24.82-5.25s-13.87-5.43-22-7.93c-1.86-.52-3.66-1.16-5.41-1.68l-2.58-.75-2.52-.78c-1.66-.52-3.28-1-4.87-1.41s-3.14-.95-4.69-1.38-3.06-.86-4.57-1.31l-4.53-1.26-4.53-1.36-2.29-.66-2.3-.75c-12.35-4-26.16-9.15-45.26-22.08-12.16-7.94-10.28-1.1-17.82-4.34-11.53-7.39-22.78-15.43-33.84-23.82-5.53-4.2-11-8.54-16.4-12.93s-10.85-9-16.31-13.66c-21.84-18.63-43.59-38.36-66.3-57.92-11.36-9.79-23-19.54-35-29.1S942.52,272.91,929.54,264a478.86,478.86,0,0,0-40.83-25.16,374.09,374.09,0,0,0-44.78-20.68C842,217.38,840,216.7,838,216s-3.88-1.46-6-2.06l-12.26-3.82-1.54-.47-1.55-.4-3.12-.78-6.24-1.55-3.12-.78-1.56-.38-1.58-.31-6.32-1.21a286.14,286.14,0,0,0-51.3-5.21,333.82,333.82,0,0,0-51.81,3.42,351.26,351.26,0,0,0-51.17,11.77l-6.31,2-3.17,1-3.12,1.13c-4.15,1.54-8.34,3-12.5,4.63l-12.35,5.18C601,229,599,230,596.94,231l-6.1,2.88a365.82,365.82,0,0,0-47.27,27.56,335.84,335.84,0,0,0-43.69,35.8,328.12,328.12,0,0,0-38.39,44.46,12.41,12.41,0,0,1,0-4.06c.11-.79.26-1.62.47-2.5a25.09,25.09,0,0,1,.83-2.71,102.49,102.49,0,0,1,5.85-13c2.67-4.67,5.81-9.72,9.17-14.84l5.37-7.53q1.35-1.89,2.72-3.77l1.35-1.88,1.41-1.81,5.48-7.09c1.78-2.32,3.44-4.64,5.12-6.71a110.21,110.21,0,0,0,8.16-11.68c4.21-6.73,5.15-11.77-.32-13.49a342.78,342.78,0,0,1,54.33-39.12,357.3,357.3,0,0,1,57.38-26.87,361.17,361.17,0,0,1,58.83-15.68l7.37-1.29c1.23-.23,2.46-.4,3.7-.55l3.71-.48,7.4-.94,3.68-.45c1.23-.14,2.48-.21,3.71-.32,5-.38,9.87-.78,14.78-1.1l14.78-.39a360,360,0,0,1,58.63,4.52l14.48,2.64c4.79,1.07,9.57,2.23,14.34,3.36l3.58.86c1.19.32,2.37.68,3.55,1l7.09,2.07,7.08,2.1,6.74,2.27a469.52,469.52,0,0,1,51.87,21.32c2.11,1,4.16,2,6.22,3l6.19,3.07,6.09,3.16,3.06,1.58,3,1.62,6,3.24,5.95,3.31c4,2.19,7.88,4.47,11.85,6.71a563.18,563.18,0,0,1,54.6,44.27c16.32,14.9,31.34,29.82,46.07,44.7s29.26,29.76,44.47,44.38c1.94,1.88,3.74,3.55,5.62,5.34s3.77,3.51,5.68,5.27,3.85,3.5,5.8,5.24,3.94,3.48,6,5.2c8,6.9,16.44,13.7,25.33,20.26a405.48,405.48,0,0,0,54.54,34.24,296.81,296.81,0,0,0,48.83,20c7.33,2.23,14.2,4,20.64,5.54,3.23.84,6.32,1.41,9.34,2.18,1.5.3,3,.59,4.43.93.72.16,1.45.37,2.16.5l2.11.43C1299.21,470.23,1308.94,472.48,1316.35,476.41ZM1007.12,263.92a107.88,107.88,0,0,1-9.65-8.8,44.56,44.56,0,0,1-4.91-6c-1.2-1.77-2.23-3.4-3.63-5.24a45.75,45.75,0,0,0-6-6.48c-9.51-7.21-18-13.53-25.75-19.29l-5.65-4.22c-1.87-1.37-3.69-2.7-5.46-4-3.51-2.64-7-5.11-10.34-7.56-13.45-9.71-25.65-18.29-41.32-27A301.53,301.53,0,0,0,861,160.56l-4.79-1.75-2.43-.88c-.81-.29-1.72-.56-2.58-.84q-5.24-1.68-10.66-3.33l-5.46-1.65c-1.84-.51-3.7-.94-5.58-1.42q-5.62-1.38-11.39-2.73c-30.81-6.86-64.58-8.85-96.56-6.91s-62.15,8.19-87.6,15.07-46.32,14.5-61,18.54l2.26-1,2.25-.91,4.42-1.84q4.35-1.84,8.48-3.72l2.06-.95,2.07-.87,4.07-1.77c2.69-1.18,5.32-2.37,7.92-3.57s5.19-2.35,7.78-3.47l7.68-3.4c5-2.36,10.23-4.35,15.4-6.47,2.59-1,5.18-2.11,7.84-3.09s5.36-1.86,8.1-2.77,5.51-1.81,8.33-2.68,5.76-1.53,8.73-2.26,6-1.4,9.1-2.05c1.54-.35,3.13-.59,4.73-.84l4.87-.7q4.93-.67,10.11-1.19c3.46-.3,7.06-.39,10.72-.5,4.9-1.44,9.83-2.91,14.93-4s10.23-2.26,15.51-3.16,10.69-1.53,16.2-2.18c2.74-.37,5.55-.49,8.38-.68s5.69-.33,8.58-.46a272.13,272.13,0,0,1,76.88,8.44q5.28,1.37,10.7,2.87l1.36.38,1.27.4,2.56.8,5.16,1.66c3.49,1.1,6.91,2.38,10.42,3.66,1.74.64,3.52,1.28,5.27,2l5.26,2.12a364.41,364.41,0,0,1,42.82,20.91,434.73,434.73,0,0,1,43,28.09c14.24,10.5,28.21,22.12,42.1,34.64,11.82,10.66,22.25,22.34,32.1,33.78s19.09,22.68,28.54,32.59c8.8,9.24,17.67,17.91,26.2,25.89l6.32,5.86,6.16,5.61,5.94,5.34L1131,340c14.24,12.56,26.13,22.63,32.18,31.7-5.32,1.51-14.69-1.81-26.33-8.76a210.55,210.55,0,0,1-18.89-12.83c-3.28-2.43-6.94-5.33-10.59-8.25l-5.56-4.52-5.68-4.7c-15.27-12.73-31.55-27-47.18-39.61S1018.42,269.65,1007.12,263.92Zm27.4,161.59c-13.25-7.08-18.7-16.17-39-32.77,2.85-1.47,9.71,4,17.31,11.22S1028.77,420.11,1034.52,425.51ZM503,636.53c3.32,9.51,7.05,18.86,11,28.09S522.29,683,526.86,692s9.3,17.92,14.35,26.73,10.32,17.47,15.69,26.09c10.87,17.2,22.8,34,35.58,50.6s26.51,33,41.28,49.34l5,5.6c1.65,1.85,3.37,3.58,5,5.35s3.28,3.5,4.9,5.21,3.19,3.44,4.82,5.06l9.48,9.69,9.36,9.16c3,3.07,6.2,5.91,9.3,8.79s6.14,5.81,9.35,8.5l9.52,8.28c3.25,2.69,6.56,5.31,9.9,8a359.87,359.87,0,0,0,45.41,30.79c4.39,2.38,8.93,4.76,13.62,7.23,1.16.64,2.37,1.19,3.59,1.76l3.68,1.71,7.55,3.49c1.27.61,2.59,1.13,3.91,1.66l4,1.61,8.24,3.28c2.83,1,5.73,2,8.67,3l4.46,1.5c1.5.5,3,1,4.57,1.42a163.54,163.54,0,0,0,20.64,4.7l5,.8,2.51.38c.83.13,1.67.25,2.53.31l10.39,1,2.69.25c.9.09,1.81.17,2.74.19l5.67.25,5.94.31,3.08.18,3.19,0,6.64.11,3.48.09c1.18,0,2.37.09,3.59,0l7.55-.12,4,0c1.34,0,2.71,0,4.11-.09,3.11-.17,6.22-.31,9.31-.43l4.64-.15,4.59-.4,9.15-.72c.75-.06,1.51-.08,2.27-.18l2.25-.3,4.49-.58,8.9-1.13,8.7-1.62,4.31-.8,2.14-.39c.71-.15,1.41-.33,2.12-.5,2.82-.69,5.61-1.3,8.38-2.06a227.49,227.49,0,0,0,31.68-11,180.9,180.9,0,0,0,27.47-14.58c28.92-9.49,59.58-19,91-24.12a447.64,447.64,0,0,1,46.2-5.1c15.06-.84,29.71-1.08,44-1.21a31.43,31.43,0,0,1-4.21,1.34c-1.64.46-3.51.92-5.57,1.35s-4.31.84-6.73,1.23l-7.77,1.38-4.22.69-2.19.34-2.24.43-9.37,1.7c-3.23.6-6.56,1.37-10,2.06s-6.86,1.53-10.37,2.39a309.65,309.65,0,0,0-42.41,13.52,400.65,400.65,0,0,0-37.37,17.45c-32.42,10.83-63.6,23.89-95.71,32.11-8,2.14-16.13,3.53-24.21,5.18-4.06.64-8.15,1.15-12.22,1.74-2,.26-4.07.62-6.12.8l-6.14.5-6.14.5-3.07.26c-1,.07-2.06.06-3.08.1l-12.3.31c-2.05.11-4.1-.06-6.15-.09l-6.14-.19-6.14-.18-6.12-.52a310,310,0,0,1-48.37-7.54c-4-1-7.93-1.88-11.86-2.93l-11.71-3.46c-3.93-1.07-7.72-2.54-11.58-3.84s-7.7-2.57-11.44-4.16l-11.31-4.5c-3.72-1.6-7.4-3.31-11.1-5-1.84-.84-3.69-1.65-5.52-2.51l-5.43-2.73c-3.6-1.83-7.25-3.58-10.8-5.49-7.06-3.94-14.18-7.73-21-12L722.29,946l-2.58-1.57-2.51-1.67-10.05-6.66C694,927,681.08,917.43,669,907.05l-4.59-3.84c-1.53-1.27-3-2.64-4.47-4q-4.46-4-8.88-8c-2.91-2.71-5.75-5.49-8.61-8.23L638.12,879c-1.41-1.39-2.77-2.83-4.16-4.24q-4.12-4.26-8.26-8.5c-2.69-2.89-5.33-5.83-8-8.74l-4-4.37c-1.31-1.47-2.56-3-3.85-4.48l-7.62-9c-2.49-3-4.9-6.13-7.34-9.18l-3.64-4.59c-1.22-1.53-2.35-3.13-3.52-4.69q-3.49-4.7-7-9.39c-2.29-3.15-4.46-6.38-6.68-9.56-4.5-6.32-8.57-12.92-12.76-19.39-2.08-3.25-4-6.61-6-9.9s-4-6.57-5.79-10-3.7-6.71-5.55-10c-.94-1.67-1.79-3.38-2.66-5.08l-2.59-5.1c-3.48-6.76-6.79-13.64-9.91-20.57a475.84,475.84,0,0,1-29.55-84.39ZM1518.31,1135.2c1.14.24,3.52,4.75,5.79,9.11s4.33,8.63,5.32,8.23c12.25,32.72,22,62.16,30.1,89.94,4,13.87,7.46,27.34,10.38,40.52,1.51,6.58,2.73,13.11,3.94,19.57s2.14,12.88,2.89,19.25c.81,6.06,1.14,12.17,1.4,18.4s.22,12.57,0,19.13c-.24,13.12-.86,27.06-1.15,42.68-.31,20.82.14,44.9-1.09,65.8a210.87,210.87,0,0,1-3.29,28.09c-1.59,8-3.88,14.41-6.73,18.18a196.09,196.09,0,0,1-4.23,34.78,313.32,313.32,0,0,1-11.67,41.06,367.15,367.15,0,0,1-17.67,41.17l-2.47,4.86c-.82,1.6-1.6,3.21-2.49,4.76q-2.58,4.68-5,9.21-2.6,4.44-5,8.71l-1.18,2.13c-.39.7-.83,1.41-1.24,2.11l-2.42,4.16c-.45-.71-.22-2.36.47-4.58.33-1.11.85-2.37,1.3-3.73s1-2.82,1.61-4.36c2.48-6.09,5.23-13.5,7.11-19.58,1.7-6.15,2.65-10.93,1.49-12-.56-.52-1.62-.11-3.38,1.49a40.59,40.59,0,0,0-3.16,3.34c-.61.72-1.28,1.52-2,2.41l-1.11,1.4-1.26,1.5a67.31,67.31,0,0,0-3.57,10.57,59.89,59.89,0,0,0-1.46,7.82c-.16,1.22-.32,2.45-.52,3.71s-.56,2.58-1,4a44.34,44.34,0,0,1-4.35,9.93c-14.79,18.17-30.39,30.12-42.7,37s-21.45,8.7-25,6.7c12.36-9,30-22.62,46.62-42q6.29-7.23,12.23-15.53c1-1.37,2-2.78,2.93-4.21.48-.71,1-1.42,1.45-2.14s.91-1.44,1.37-2.17c1.8-2.91,3.7-5.81,5.47-8.81a275.67,275.67,0,0,0,18.69-38.27c10.7-26.67,17.54-54.71,22.41-80.13,2.47-12.73,4.4-24.83,6.12-35.89.85-5.53,1.66-10.81,2.43-15.79s1.45-9.68,2.17-14c-.49-24,0-45.6.17-67.47s.26-44-1.67-68.66c-1.55-1.36-1.89,1-1.74,5,.08,2,.28,4.38.53,6.91s.43,5.21.65,7.74c-2.87-14.85-4.61-29.93-6.11-45.34s-2.76-31.13-4.69-47.07a382.44,382.44,0,0,0-8.53-48.06,218.78,218.78,0,0,0-17.24-46.64c-2.06-5.44-.72-5.94.57-6.74S1521.29,1141.61,1518.31,1135.2Zm-100.77,592.37a98.38,98.38,0,0,1-19.53,4.2l-2.18.27-2.19.18-4.39.36c-3,.14-6,.39-9.42.48,1.43-2,5.15-4,10.91-6.29s13.6-5,23.18-8.86c9.78-2.3,12.8-2.15,12.45,0-.19,1.06-1.25,2.58-2.86,4.24-.8.84-1.73,1.73-2.73,2.65S1418.66,1726.65,1417.54,1727.57Zm-273.27-240.92a398.65,398.65,0,0,1,7.25-43.8q2.46-11,5.62-22l1.64-5.51,1.51-4.8c1-3.15,2-6.36,3-9.43,4.09-12.47,8.39-24.45,12.73-36s8.7-22.8,13-33.69c8.55-21.71,16.7-42.13,23.58-61.31s12.54-37.1,16.25-53.43c.75-3,1.28-5.83,1.92-8.75.34-1.48.54-2.88.82-4.33s.56-2.88.79-4.31l.66-4.24.34-2.13.26-2.09.54-4.19c.13-1.37.25-2.74.38-4.11a156.17,156.17,0,0,0-.14-31.51c-.62-5-1.48-10-2.63-15.16s-2.78-10.32-4.64-15.61a160.51,160.51,0,0,0-6.76-16.1c-.68-1.36-1.27-2.73-2-4.1l-2.15-4.11c-1.55-2.74-3-5.5-4.75-8.26-13.25-22.14-32.21-44.48-53.89-65q-8.16-7.69-16.71-15.07t-17.44-14.36L1119,989.8c-1.48-1.15-3-2.29-4.53-3.44l-9.2-6.8c-6.12-4.46-12.07-8.93-18.19-12.94-16.09-14.73-43.67-37.11-72.1-56.12a473.1,473.1,0,0,0-41.47-25c-6.52-3.31-12.63-6.21-18.15-8.56-2.76-1.17-5.36-2.23-7.81-3.08s-4.78-1.5-6.88-2c-38-22.85-78.29-41-118.48-55.66-2.51-.91-5-1.91-7.52-2.74l-7.56-2.57-15-5.08c-2.49-.87-5-1.64-7.52-2.4l-7.52-2.3-14.92-4.58-29.65-8.29-29.07-7.51c-24.21-8.19-48.44-14-70.92-16.61-2.83-.37-5.55-.56-8.33-.85s-5.45-.42-8.07-.49-5.25-.17-7.84-.23c-1.29,0-2.52,0-3.79,0h-1.89l-1.83.08a138.65,138.65,0,0,0-14,1.11,107.22,107.22,0,0,0-12.3,2.21c-1.94.41-3.7,1-5.5,1.43s-3.45,1.06-5,1.69c-.81.29-1.63.55-2.37.9l-2.28.93q-1.06.52-2.16,1c-.75.3-1.38.72-2.09,1a65,65,0,0,0-7.81,4.63l-1,.61c-.32.21-.61.47-.92.69-.61.47-1.24.91-1.88,1.34s-1.19,1-1.81,1.48c-.31.25-.63.46-.93.72l-.9.81a106.82,106.82,0,0,0-14.9,16c-1.24,1.76-2.58,3.38-3.84,5.31l-1,1.39-.49.69-.47.75q-1,1.5-1.95,3c-.66,1-1.28,2.1-1.94,3.14s-1.32,2.09-1.95,3.24l-2,3.36-1.93,3.53c-4.67,8.56-9.6,16.68-14.36,25.55a160.35,160.35,0,0,0-13,30.68c-3.16,10.56-5.55,23-7.72,36.26-1.11,6.6-2.12,13.5-3.22,20.4-.56,3.5-1.12,7-1.68,10.49s-1.2,7.21-1.86,10.76c-3.77,20.4-8.26,40.09-12.27,59.48s-7.41,38.45-9.18,57.48c-1.75,17.52-.1,40.3-.56,56.85a60.46,60.46,0,0,1-.75,7.65c-.38,2.37-.74,4.57-1.18,6.77s-.87,4.36-1.22,6.61a45.47,45.47,0,0,0-.67,7.07c-.36,15.51,1.46,32.45,3.59,48.51,1.29,7.93,2.32,15.89,3.43,23s2,14.06,2.55,20.28a443.11,443.11,0,0,0,23.16,59.35,339,339,0,0,0,31.3,53,253.23,253.23,0,0,0,41.62,45.07,207.06,207.06,0,0,0,25.46,18.35,201.25,201.25,0,0,0,28.94,14.43,218.07,218.07,0,0,1-29.22-9.5c-9.48-3.8-18.75-8.25-27.25-12.51s-16.4-8.37-23.42-11.44c-1.75-.78-3.43-1.51-5.08-2.13s-3.26-1.13-4.77-1.62a29.93,29.93,0,0,0-8.44-1.47,342.55,342.55,0,0,1-24.35-31.09,329.18,329.18,0,0,1-20.48-33.78,321.16,321.16,0,0,1-28.41-75.16c-2.27-9.63-3.78-17.77-5.09-25.5-.3-1.94-.59-3.85-.89-5.76l-.44-2.85c-.13-1-.25-1.94-.38-2.91-.51-3.89-1-7.82-1.64-11.94-.32-2-.55-4.18-.8-6.38s-.53-4.47-.82-6.82-.63-4.78-.92-7.34-.54-5.24-.83-8-.63-5.72-1-8.8-.55-6.35-.85-9.76c-.71-6.8-1.12-14.38-1.74-22.77-.16-1.88-.25-3.78-.35-5.68s-.23-3.78-.34-5.66-.25-3.76-.38-5.63-.28-3.73-.36-5.61c-.36-7.5-1-14.89-1.18-22.31-.14-3.71-.29-7.39-.43-11.07s-.11-7.37-.13-11c-.12-7.32.13-14.66.47-21.94,1.05-19.5,2.93-39.24,5.41-59.11,1.31-10,2.63-19.9,4.16-29.9.73-5,1.49-10,2.3-15l1.2-7.51,1.21-7.43c3.25-19.57,7-38.56,11.26-56.82,2.13-9.13,4.46-18,6.91-26.71s5-17.16,7.85-25.28c2.41-6.93,4.83-13.79,7.51-20.31l1-2.47,1-2.41c.69-1.59,1.34-3.23,2.05-4.8,1.43-3.11,2.81-6.26,4.32-9.24s3-5.91,4.55-8.84q1.22-2.1,2.41-4.2c.4-.69.78-1.41,1.2-2.08l1.26-2a144.8,144.8,0,0,1,10.51-15l2.79-3.38c1-1.09,1.93-2.12,2.89-3.18l1.43-1.58,1.5-1.47,3-2.92,3.07-2.68,1.53-1.33,1.58-1.22,3.14-2.41c1.08-.73,2.16-1.46,3.24-2.17a77,77,0,0,1,26.66-11.36A111.74,111.74,0,0,1,553,717.14c2.37-.81,4.9-1.39,7.39-2.07,1.26-.32,2.56-.57,3.85-.86l1.93-.43c.66-.14,1.33-.24,2-.36l4-.71,4.09-.57c1.36-.21,2.76-.35,4.16-.49s2.79-.32,4.22-.41c5.69-.46,11.56-.65,17.55-.65,24,.14,50.13,4.22,76.21,10.25,13.06,3,26.15,6.51,39.15,10.24,3.22.89,6.56,1.94,9.85,2.92l9.83,2.91c6.53,1.91,13,3.7,19.36,5.71s12.64,3.8,18.86,5.57c3.12.85,6.16,1.85,9.2,2.76l9.06,2.68,8.93,2.53,4.42,1.21,4.34,1.26q8.65,2.5,17,4.64c33.65,16.5,68.73,32.17,102.28,48.3s65.54,32.59,92.66,49.69c21.83,21.38,47,46.49,76.42,74.9q5.51,5.34,11.29,10.75c3.79,3.69,7.63,7.45,11.59,11.21l6,5.66c2,1.89,4.14,3.79,6.1,5.69L1146.85,981c8.17,7.79,16.48,15.74,24.83,23.91s16.77,16.56,25.09,25.22c13.48,14,25.1,26.27,35.39,37.77,5.14,5.74,10,11.28,14.53,16.77,1.17,1.36,2.24,2.74,3.34,4.1s2.23,2.72,3.24,4.09,2.11,2.72,3.15,4.08,2,2.73,3,4.09a198.4,198.4,0,0,1,10.91,16.67l1.26,2.14,1.16,2.16c.76,1.44,1.59,2.89,2.31,4.36,1.41,2.94,2.9,5.91,4.12,9a123.3,123.3,0,0,1,9.55,40.38c-.37,2-.85,4-1.19,5.92-.18,1-.34,1.93-.51,2.89s-.37,1.91-.55,2.86c-.36,1.9-.66,3.77-.94,5.62s-.65,3.72-.93,5.56l-.39,2.75-.45,2.75c-.29,1.83-.53,3.65-.78,5.48s-.58,3.67-.85,5.51l-.38,2.77-.46,2.78c-.3,1.87-.59,3.73-.89,5.61s-.69,3.8-1,5.71c-.17,1-.35,1.93-.52,2.89s-.41,2-.62,2.93q-.63,2.94-1.29,6a209.11,209.11,0,0,1-7.72,25.48c-5.11,13.61-11.46,27.59-18.49,42.29s-14.82,30.19-22.74,47-16,35-23.27,55.33c-.91,2.53-1.81,5.09-2.67,7.72-.43,1.31-.86,2.62-1.3,3.94s-.86,2.59-1.31,4.09c-1.81,5.79-3.38,11.7-4.79,17.7a264.3,264.3,0,0,0-5.9,37.2,110.24,110.24,0,0,0-8.1-10c-2.59-2.85-5-5.39-7.26-8.22-4.47-5.67-8.44-12.43-10.39-25.61-3.43,5-7.13,16.56-10.15,26.88S1147.28,1486.9,1144.27,1486.65Zm-512.19-34.39c1.1-1.24,3.18-2,4.76-3s2.66-2.27,1.9-4.62c10.69,5.26,23.87,6.68,36.35,5.87a133.73,133.73,0,0,0,18.07-2.55c5.7-1.27,11-2.62,15.73-4a171.56,171.56,0,0,0,43.62-10.34,168.43,168.43,0,0,0,35.78-18.84,192.08,192.08,0,0,0,16.07-12.25q7.77-6.61,15.11-14.12a235.87,235.87,0,0,0,27.47-34c2.23-2.35,4.17-4.58,6.2-6.61,1-1,1.9-2.07,2.86-3.06l1.43-1.48,1.37-1.5,2.75-3c.91-1,1.77-2,2.67-3.1,1.84-2.08,3.49-4.37,5.32-6.83,2.3-4.87,4.63-9.73,6.57-14.7,1.07-2.46,1.91-5,2.88-7.45.48-1.24.86-2.5,1.3-3.75s.9-2.49,1.25-3.75l1.17-3.76c.41-1.25.69-2.52,1.06-3.77.75-2.51,1.31-5,1.93-7.55.34-1.25.55-2.52.82-3.77l.39-1.85c.13-.57.29-1.23.32-1.52.29-1.52.58-3,.75-4.59l.15-1.15c0-.39.06-.78.1-1.18l.12-1.22.06-1.24c.07-.83.07-1.67.09-2.52s0-1.67,0-2.51a69,69,0,0,0-.8-9.5,45.48,45.48,0,0,0-1.62-7c-.28-.81-.51-1.52-.69-1.91a1.32,1.32,0,0,1-.1-.3c0-.12-.06-.09-.08-.15a.35.35,0,0,1,0-.15v0h0l.38-.23c.53-.32,1-.64,1.58-1s1.13-.74,1.7-1.13l.84-.59.78-.5q1.56-1,3.09-2.19c1.06-.84,1.94-1.45,2.85-2.16s1.81-1.48,2.68-2.26c.78-.63,1.55-1.3,2.31-2,.38-.36.76-.72,1.13-1.11l1-.92c.63-.62,1.25-1.27,1.85-2,.33-.4.53-.56.78-.86s.49-.54.72-.83.48-.58.71-.89c.11-.14.25-.34.33-.43l.26-.32a17.22,17.22,0,0,0,1-1.39l.24-.38.16-.23.32-.48.31-.52.25-.44c.09-.15.19-.33.29-.53l.07-.16,0-.08h0s0,0,0,0a5.27,5.27,0,0,0-.21.58l-.06.24-.17.57a11.59,11.59,0,0,0-.26,1.15c0,.11,0,.14-.06.32l-.11.47c-.07.31-.12.62-.17.93s-.09.6-.13.89l0,.44,0,.22c.84-6.8.23-1.87.42-3.38v.2a16.53,16.53,0,0,0-.17,1.8l0,.42c0,.06,0,.17,0,.29l0,.35c0,.46-.06.92-.07,1.37s0,.9,0,1.34l0,.69v.94c0,1.25.06,2.47.17,3.67l0,.45,0,.59.07,1.2q.07,1.2.21,2.37t.3,2.34l.34,2.91c.26,2,.58,3.88,1,5.88.19,1.22.39,2.43.62,3.64l.35,1.8.19.89,0,.21h0s0,0,0,0l-.13.08c-.1.06-.12,0-.3.13-.38.19-.69.27-1.33.56-2.21.85-6.62,2.82-12.28,5.56l-20.57,10.1L838.23,1292c-14,7-27.85,13.56-41,20.12s-25.29,13.24-36.5,20.21a192.81,192.81,0,0,0-29.34,22.3c-2,2-3.95,4-5.86,6-.47.5-1,1-1.41,1.51l-1.27,1.57c-.83,1.06-1.65,2.1-2.48,3.14a84.44,84.44,0,0,0-8.28,12.88c-.23.25-.53.54-.72.76l-.59.69-1.22,1.38c-.41.47-.84.92-1.25,1.39s-.8,1-1.21,1.48c-1.68,1.93-3.28,4.06-4.95,6.19a150.82,150.82,0,0,0-9.5,14.11,149,149,0,0,0-8.2,15.78l-1.75,4.11c-.52,1.38-1,2.76-1.59,4.13l-1.42,4.15c-.26.69-.45,1.38-.65,2.07l-.31,1-.26.81a83.07,83.07,0,0,0-2.79,12.19,60.44,60.44,0,0,0-.54,12,50.92,50.92,0,0,0,1.87,11,37.09,37.09,0,0,0,4.05,9.09,41.66,41.66,0,0,0,5.13,15.72c.34.71.83,1.33,1.23,2s.8,1.4,1.31,2a48,48,0,0,0,3.06,3.9l.82,1,.41.5.45.44c.61.59,1.22,1.21,1.82,1.83s1.31,1.15,1.95,1.75l1,.89c.33.29.69.55,1,.82a67.75,67.75,0,0,0,19.35,10.56,83.6,83.6,0,0,0,11,3.14,90.46,90.46,0,0,0,11.33,1.77c3.8.48,7.6.54,11.38.64.94,0,1.88,0,2.83,0l2.81-.09h1.4L761,1529c1.06-.09,2.16-.16,3.24-.22a99,99,0,0,0,13.87-5.34c1.06-.54,2.1-1.06,3.15-1.57l3-1.7c1-.52,1.9-1.18,2.83-1.76s1.86-1.15,2.69-1.81,1.71-1.25,2.55-1.86,1.57-1.32,2.35-2a28.15,28.15,0,0,0,2.21-2c.73-.69,1.39-1.21,2.24-2.11l2.44-2.38,2.32-2.5c.38-.42.78-.81,1.15-1.24l1.09-1.3c.72-.88,1.5-1.68,2.18-2.59,2.84-3.5,5.41-7.22,7.89-11s4.68-7.78,6.74-11.91,4-8.33,5.73-12.75c.94-2.15,1.68-4.46,2.55-6.66l1.16-3.43.59-1.7.53-1.76q8.79-27.84,10.94-61.87c.31-5.66.57-11.45.57-17.35s-.13-11.91-.46-18.09a418.54,418.54,0,0,0-4.89-42.34c.57,1.24,1.14,2.51,1.71,3.8l.85,2c.26.65.49,1.31.73,2q1.44,4,2.85,8.27c.23.7.49,1.42.68,2.13l.57,2.16c.37,1.45.74,2.91,1.12,4.38l1.12,4.46c.36,1.5.57,3,.86,4.52s.55,3,.82,4.57l.42,2.31c.13.77.28,1.55.36,2.26l.57,4.4c.18,1.47.29,3,.44,4.44.51,6,.84,12,.81,17.91s-.14,11.81-.54,17.46c0,.7-.08,1.41-.11,2.11s-.12,1.4-.17,2.09c-.11,1.39-.21,2.76-.31,4.12-.28,2.7-.43,5.38-.73,7.94-1,10.32-2,19.44-1.95,27-.5,1.21-1,2.43-1.45,3.64l-.68,1.82-.74,1.78c-.47,1.2-.93,2.39-1.4,3.57s-1,2.32-1.44,3.48l-.7,1.75-.74,1.7-1.41,3.4c-.51,1.11-1,2.21-1.47,3.32l-.71,1.66-.75,1.62c-.5,1.07-1,2.16-1.45,3.24s-1,2.09-1.5,3.14l-.73,1.58-.77,1.53-1.5,3.06c-2.07,4-4.09,7.91-6.26,11.57a154,154,0,0,1-13.59,20c-1.25,1.41-2.41,2.92-3.66,4.26l-1.87,2-.92,1c-.32.35-.58.57-.86.87l-1.66,1.65a19.62,19.62,0,0,1-1.69,1.6l-1.75,1.51a19,19,0,0,1-1.78,1.44c-8.19,6.45-19.88,11.9-32.65,15.29l-2.39.62-1.19.31-1.08.22c-1.45.28-2.88.69-4.33.92l-4.36.77c-1.46.18-2.91.39-4.37.62-5.82.68-11.61,1-17.21,1.11a147.94,147.94,0,0,1-17.4-.71,92.85,92.85,0,0,1-16.74-3.28,73.25,73.25,0,0,1-17.74-7.85l-2.33-1.45c-.79-.49-1.51-1.09-2.3-1.65s-1.58-1.12-2.36-1.73l-2.31-2c-1.63-1.26-3-2.84-4.65-4.35a14.68,14.68,0,0,1-1.14-1.22l-1.11-1.27-1.15-1.3-.59-.65-.53-.7a71.43,71.43,0,0,1-6.59-9.7,89.91,89.91,0,0,1-9.78-25.45,119.79,119.79,0,0,1-2.64-28.72c0-1.33.08-2.66.18-4s.16-2.69.36-4,.33-2.68.49-4,.47-2.68.71-4a17.26,17.26,0,0,1,.4-2l.45-2,.43-2,.55-2,.6-2.24c.19-.77.4-1.53.65-2.29l1.43-4.58a171.59,171.59,0,0,1,7.24-17.89,176.12,176.12,0,0,1,9.19-16.8,182,182,0,0,1,10.54-15.2l2.75-3.53,2.83-3.36c.9-1.14,1.88-2.18,2.83-3.25l1.41-1.59.7-.79.81-.83q3.23-3.33,6.27-6.6c.5-.55,1-1.1,1.51-1.64l1.61-1.56,3.16-3.09,3.07-3.07c.51-.51,1-1,1.51-1.52l1.58-1.46q3.15-2.9,6.09-5.76l1.57-1.58,1.66-1.56q1.65-1.58,3.25-3.22c2.17-2.17,4.16-4.5,6.47-6.64s4.5-4.35,6.8-6.45c1.12-1.07,2.39-2,3.61-3s2.49-1.9,3.76-2.79c12-8.4,26.89-16.15,42.81-23.59s33-14.63,49.2-22.56c1.24-.6,3.13-1.72,5.36-3.11l7.5-4.66c2.64-1.64,5.26-3.29,7.62-4.67a64.31,64.31,0,0,1,5.82-3.11c4.19-1.84,8.54-3.53,13.05-5.15q3.38-1.21,6.78-2.38l3.38-1.14,3.25-1c4.2-1.33,8-2.41,11.36-3.3s6.11-1.48,8.41-2c.89-.17,1.89-.44,2.62-.52l1.16-.19c.33,0,.65,0,1-.09l.47-.06h.37c.25,0,.5,0,.73,0l.51.06h.24l.13.07a2,2,0,0,0,.25.07l0,.08v0h0v-.32c0-1,0-2,0-3,0-.44,0-.87,0-1.32l0-.67,0-.34v-.21c0-.55.06-1.12.14-1.72l.06-.45v-.17c-.84,6.79-.23,1.85-.42,3.35l0-.21c0-.28.06-.57.1-.86.09-.59.2-1.2.35-1.82.08-.44.13-.74.24-1.15l.16-.6.09-.28,0-.11c.05-.16.1-.34.18-.55l0-.13h0l0,.07a6.43,6.43,0,0,1-.3.59l-.47.82c-.21.36-.42.66-.65,1-.33.53-.67,1-1,1.48-.18.23-.36.44-.54.65s-.47.64-.71.94c-.49.6-1,1.17-1.49,1.69-.61.71-1.26,1.42-1.91,2.06l-.24.24-.12.12h0a.22.22,0,0,0,0,.09.2.2,0,0,0,.06.12,1.37,1.37,0,0,0,.13.31c.13.1.26.56.47.8a52.9,52.9,0,0,1,3.22,7.5,83.79,83.79,0,0,1,3,12.64,102.67,102.67,0,0,1,1.09,15.12,94.46,94.46,0,0,1-1.28,15l-.93,4.93c-.28,1.69-.72,3.36-1.07,5s-.72,3.37-1.18,5-.84,3.37-1.3,5c-1.85,6.71-4.08,13.39-6.57,20a226.77,226.77,0,0,1-77,101.15c-1.13.86-2.3,1.64-3.46,2.42l-3.46,2.33c-2.37,1.42-4.67,2.91-7,4.22s-4.7,2.65-7.1,3.81l-3.56,1.8-3.6,1.66c-9.58,4.45-19.15,8.15-29.35,11.93-1.72.6-3.41,1.35-5.18,2s-3.53,1.33-5.31,2-3.63,1.3-5.45,2-3.71,1.24-5.57,1.89a114.8,114.8,0,0,1-23,5.17,119.06,119.06,0,0,1-22.65,0c-3.68-.25-7.32-.78-10.91-1.24l-5.38-.86c-1.79-.27-3.56-.67-5.34-1C661.49,1457.92,647.67,1454.55,632.08,1452.26ZM767.19,1490a8.84,8.84,0,0,0,1.71-.82c.46-.27.84-.5,1.15-.71a10.86,10.86,0,0,0,1.19-1.2,2.18,2.18,0,0,1,1.12-.67,5.88,5.88,0,0,1,2.25-.28,2.27,2.27,0,0,1,.69,2.8,4.44,4.44,0,0,1-.95,1.38,10.39,10.39,0,0,1-1.61,1,6.56,6.56,0,0,1-.89.41c-.32.09-.65.16-1,.22a5.93,5.93,0,0,1-1.77,0A2.24,2.24,0,0,1,767.19,1490Z"/><path class="b" d="M1221.78,1059.85c-1.06-.14-2-.24-3-.33s-1.86,0-2.73,0c-1.75,0-3.36.08-4.92.15s-3.08.35-4.63.49-3.16.2-4.88.4c-1.08-.36-2.24-.68-3.48-1-.61-.15-1.25-.29-1.9-.42s-1.32-.17-2-.25c-1.35-.14-2.77-.26-4.23-.37-.37,0-.74-.06-1.11-.07h-1.11l-2.26,0-2.32,0-1.17,0c-.39,0-.78.07-1.17.11l-4.74.43-1.19.1-1.19.19-2.37.37c-1.58.25-3.18.38-4.71.75s-3.1.61-4.62.86-3,.69-4.46,1c-2.85.49-6,1.31-8.81,1.74-6,1.22-11.72,1.93-16.46,1.48,8-2.6,15-4.62,21.23-6a149,149,0,0,1,17.93-2.86,157.18,157.18,0,0,1,17.88-.77,173.71,173.71,0,0,1,18,1.38c6,.67,12.05,1.93,18.13,3.23,1.52.35,3,.79,4.56,1.17l2.29.58,1.15.29,1.14.35c3.05,1,6.14,1.74,9.2,2.89a221.13,221.13,0,0,1,37.47,16.67,25.14,25.14,0,0,1-5.58-1.24c-1.17-.36-2.44-.8-3.78-1.32l-2.08-.81-2.21-.82q-2.27-.85-4.67-1.88l-5-1.95c-3.33-1.44-6.82-2.62-10.18-4.05C1234.3,1065.15,1221.88,1061.23,1221.78,1059.85Z"/><path class="b" d="M1315.89,1110.19c-1.53-1.26-2.9-2.34-4.17-3.24s-2.49-1.56-3.59-2.16a38,38,0,0,0-6-2.67,59,59,0,0,1-5.85-2.35,49,49,0,0,1-7.63-4.12c3.54-.29,9.56,2.17,15.42,4.93,1.49.63,2.91,1.39,4.33,2.05s2.79,1.28,4.1,1.8c2.6,1,4.85,1.82,6.59,1.73,2.24,1.86,3,2.67,2.83,2.93s-1.07-.09-2.23-.42C1317.42,1108,1314.43,1107.15,1315.89,1110.19Z"/><path class="b" d="M1005.93,1442.24c.14-9.64,1.2-22.8,1.77-37.94a475.08,475.08,0,0,0-.47-49.78c-.32-4.37-.62-8.77-1.11-13.15-.24-2.18-.42-4.42-.72-6.53s-.59-4.24-.89-6.35c-.61-4.22-1.17-8.42-1.85-12.53s-1.58-8.11-2.35-12c-.41-2-.8-3.92-1.2-5.85s-.93-3.77-1.4-5.62q-1.41-5.55-2.83-10.73c-.24-.87-.47-1.72-.71-2.57s-.53-1.65-.79-2.46c-.54-1.63-1.06-3.22-1.58-4.78-1-3.1-2.08-6.05-3.11-8.81q1.78,4.11,3.52,8.53c.56,1.48,1.14,3,1.72,4.49s1.15,3.06,1.63,4.67q1.52,4.79,3,9.82c1,3.36,2,6.77,2.75,10.34s1.6,7.17,2.38,10.84c.37,1.84.8,3.67,1.11,5.55s.61,3.78.91,5.69q.85,5.73,1.73,11.56c.3,1.92.47,4,.7,6s.44,4,.62,6.07a396.45,396.45,0,0,1,1.08,48.95C1009.23,1411.74,1007.7,1427.49,1005.93,1442.24Z"/></svg>