<svg xmlns="http://www.w3.org/2000/svg" viewBox="0 0 1920 1920"><defs><style>.a{fill:none;}.b{fill-rule:evenodd;}</style></defs><path class="a" d="M748.6,530.16a35.72,35.72,0,0,1,5,2.24c.66.34,1.16.64,2,1.1l1.11.65.53.33c.06,0,0,0,.06,0s0,0,0-.06a.17.17,0,0,0,.11-.15,25.59,25.59,0,0,1,4-4c4.69-4,14.22-9.31,24.63-12.12.65-.16,1.29-.39,1.94-.54s1.3-.31,1.94-.48,1.3-.26,2-.41,1.28-.23,1.92-.37,1.28-.21,1.91-.32l.94-.16c.37,0,.85-.08,1.27-.12,1.75-.16,3.45-.42,5.22-.62a169.75,169.75,0,0,1,23.87-.27l3.28.16a16.88,16.88,0,0,1,1.69.13l1.73.17,3.46.31,1.73.15c.58,0,1.21.15,1.81.23l7.28.91,7.59,1.21C866,520,877,522.35,888.56,525.32c2.93.79,5.8,1.5,8.8,2.34l9,2.56,9.26,2.78c1.53.45,3.11,1,4.7,1.47L925.1,536c1.59.51,3.15,1,4.78,1.53l4.87,1.62c3.26,1.07,6.52,2.15,9.69,3.25s6.33,2.2,9.48,3.29,6.21,2.22,9.21,3.35c24.3,8.93,45.94,18.49,63.86,28.42s31.71,20.14,41.1,29.4c2.44,2.3,4.41,4.6,6.36,6.79.45.56.9,1.11,1.37,1.66s.84,1.1,1.28,1.64c.91,1.06,1.58,2.18,2.41,3.22.37.54.69,1.09,1.07,1.62l.55.79c.17.27.31.58.48.87.64,1.16,1.33,2.28,2.08,3.38.63,1.28,1.26,2.6,2,3.86l.54.94c.18.33.31.73.48,1.09.31.74.63,1.47,1,2.2s.68,1.45,1,2.16l.93,2.48q.48,1.23,1,2.46l.51,1.23c.16.43.3.92.45,1.37.59,1.86,1.22,3.7,1.89,5.54.57,2,1.14,4.1,1.76,6.13a290.45,290.45,0,0,1,6.2,28.93c1.72,10.93,3.18,22.87,4.38,35.71s2.07,26.85,2.91,41.54l1.19,22.81,1.14,23.23q1.11,23.24,2.09,46.47,2,46.47,3.43,93t2.42,93l.84,46.49c.23,15.34.36,29.86.27,43.69l0,5.14c0,1.72,0,3.46-.07,5.08l-.22,9.92-.37,9.57-.08,2.39-.14,2.29-.26,4.58-.26,4.58-.35,4.38c-.25,2.89-.41,5.92-.74,8.64s-.55,5.6-.87,8.31l-1,7.92a266.16,266.16,0,0,1-5.56,28c-.59,2-1.12,4.12-1.68,6.13s-1.27,3.81-1.85,5.73c-.26,1-.65,1.82-1,2.72l-1,2.66c-.58,1.82-1.38,3.52-2.11,5.26-5.91,13.86-14.21,27.62-25.76,41.89s-26.25,28.8-43.9,43.18A578.78,578.78,0,0,1,972.55,1382c-22.28,13.88-46.54,27.43-72.28,41l-9.71,5.09-9.93,5.12-10,5.14-9.91,5c-13.22,6.7-26.19,13-39.07,19.18-25.71,12.21-50.76,23.11-75.22,32.45-6.15,2.45-12.17,4.48-18.22,6.7-3,1.14-6,2.05-9,3.07l-9,3-8.87,2.69c-3,.88-5.92,1.87-8.83,2.61-5.83,1.54-11.7,3.33-17.44,4.6l-8.64,2.12-8.54,1.78-4.26.91-2.13.45-2.11.36-8.42,1.47c-1.39.24-2.83.52-4.18.73l-4,.58c-2.66.44-5.33.7-8,1.07s-5.33.57-8,.87-5.32.49-8,.66c-10.61.75-21.14,1-31.46.76a284.38,284.38,0,0,1-30.14-2.34,225.5,225.5,0,0,1-53.16-13.32,178.27,178.27,0,0,1-21.8-10.41c-.87-.44-1.64-1-2.47-1.46l-2.45-1.45-2.36-1.54c-.79-.5-1.6-1-2.34-1.53-1.5-1.07-3.07-2.06-4.49-3.19l-2.2-1.6c-.56-.47-1.12-.93-1.69-1.38-9.16-7.18-18.09-17.54-25.09-28.84-6.85-11.39-11.78-23.78-13.75-34.48a68.71,68.71,0,0,1-1.47-14.5,51.88,51.88,0,0,1,1.18-10.82,41.66,41.66,0,0,1,1.29-4.16c.13-.31.2-.69.31-1a3.27,3.27,0,0,0,.35-.7,2.78,2.78,0,0,0,.12-.38,1.88,1.88,0,0,1,.21-.36,5.17,5.17,0,0,0,.36-.75c.05-.29.3-.48.42-.74a5,5,0,0,0,.37-.77,4,4,0,0,0,.26-.32l.12-.18c0-.06,0,0,0,0s-.16.06-.07.09-.1-.07,0,0l0,0,0,0c-.07-.07.05.07,0,0s0,.06,0,0,0,0,0-.06,0,0,0,0v0c-.05,0,.12,0,.22.07l.34.1,1.56.46c.57.2,1.15.39,1.73.57s1.25.46,1.88.66c2.58.93,5.47,2.05,8.71,3.49s6.68,3,10.42,4.91c.92.46,1.85.92,2.82,1.44l2.9,1.52c2,1.09,4,2.13,6.06,3.32s4.21,2.39,6.33,3.59,4.35,2.55,6.62,3.94,4.56,2.78,6.86,4.19l7.14,4.5,7.38,4.74,8.1,5.32,16.22,10.65c5.42,3.52,10.77,7.16,16.14,10.77l16.1,10.83c10.71,7.26,21.32,14.67,32,22q127.38,88.79,245.85,189.54,59.14,50.28,115.83,103.35l1.78,1.65.45.42.22.2c4.53-4.71-9.84,10.85,10.22-10.52q8.82-9.53,17.83-18.89l13.81-14.29,5.39-5.46,5.14-5.11q3.69-3.73,7.5-7.37l6.52-6.18,2.91-2.68,2.85-2.54c1.54-1.41,3.11-2.8,4.72-4.15l4.34-3.61c.66-.55,1.34-1.09,2-1.62l2-1.53q1.7-1.35,3.48-2.6l3.25-2.25c.5-.34,1-.68,1.55-1l.79-.48c.28-.16.51-.31.71-.44.87-.56,1.76-1.09,2.68-1.57a41.29,41.29,0,0,1,8.23-3.59l.81-.2.55-.14a5.72,5.72,0,0,1,.57-.11l.3,0,.24,0a3.74,3.74,0,0,1,.7-.08h.34c.35,0-.08,0-.13,0,.12,0-1.29-.27-.62-.14l.16,0,.32.07.33.11.28.11.08,0-.07,0a2.37,2.37,0,0,1-.37-.25s-.39-.28-.64-.5a5.34,5.34,0,0,1-.68-.66c-.31-.3-.74-.71-1-1.07-.17-.19-.32-.38-.47-.58a6.74,6.74,0,0,0-.51-.66,17.53,17.53,0,0,1-1.18-1.62q-.27-.42-.51-.84c-.15-.28-.45-.67-.65-1-.44-.7-.84-1.42-1.2-2.14-.2-.38-.3-.69-.55-1.13s-.46-.87-.67-1.3c-.43-.87-.81-1.75-1.16-2.64-3.15-7.43-5.94-17.52-7.92-28.83-.53-2.86-1-5.79-1.35-8.68s-.81-6-1.06-8.94-.62-6-.79-9c-.12-1.48-.23-3-.31-4.43l-3.28-68.87-10,.46c-13.11.58-25.72,1.1-37.59,1.4s-23.08.37-33.68.21-20.32-.71-29.47-1.48-17.36-2-25-3.32l-5.58-1.08q-2.61-.64-5.23-1.23l-1.31-.29-1.22-.35-2.45-.68-2.45-.64-1.93-.6a105.59,105.59,0,0,1-14.7-5.9c-2.28-1.15-4.47-2.34-6.53-3.54s-3.88-2.47-5.6-3.68a55.43,55.43,0,0,1-7.74-6.63,21.31,21.31,0,0,1-2-2.31c-.19-.18,0-.14-.11-.12h0s0,0,0,0-.05,0,0,0h0c.14,0,0,0,.06,0h-.06s.05,0,.05,0,0,0,0,0l0-.16c0-.11,0-.21.05-.33a2.43,2.43,0,0,0,.13-.38c.1-.27.1-.51.2-.81.27-.61.33-1.22.68-2q.1-.27.18-.54a2.55,2.55,0,0,1,.22-.57,12.82,12.82,0,0,0,.5-1.21,56.62,56.62,0,0,1,2.76-5.52,82.87,82.87,0,0,1,9-12.86c1.93-2.15,3.84-4.39,6-6.43,1-1.09,2.18-2,3.24-3.07.54-.5,1.13-1,1.69-1.45s1.1-1,1.69-1.43,1.15-.92,1.71-1.39,1.17-.85,1.74-1.3c1.13-.93,2.33-1.63,3.46-2.49.57-.4,1.16-.73,1.73-1.11a16.76,16.76,0,0,1,1.71-1.08c.57-.33,1.13-.67,1.68-1l2.55-1.33q2.6-1.36,5.14-2.83,2.82-1.26,5.6-2.61c.93-.44,1.83-.92,2.79-1.36l3-1.22c2-.82,4-1.7,6.05-2.53s4.36-1.55,6.52-2.35l1.62-.61a17.36,17.36,0,0,1,1.68-.58l3.5-1.09,3.49-1.12c1.18-.36,2.27-.79,3.56-1.1l7.47-2c2.4-.75,5.16-1.3,7.78-2l4-1,2-.49c.67-.16,1.39-.28,2.08-.43l8.39-1.74,2.09-.44,2.2-.39,4.41-.78,4.41-.8,2.2-.4,2.31-.35L978,1440l2.32-.36,2.41-.32,4.81-.64c3.24-.41,6.34-.89,9.74-1.25l10-1.17c1.65-.2,3.38-.38,5.12-.55l5.19-.53c6.81-.74,14.08-1.37,21.22-2l22.23-1.88,11.44-.91,10.56-.81c13.52-1,25.43-1.54,35.47-1.55a165.58,165.58,0,0,1,23.23,1.34,52.29,52.29,0,0,1,5.46,1.05c.53.13.81.23.92.26s0,0,0,0l.76-2,.66-1.86q.66-1.85,1.41-3.69l.77-1.84.64-1.62a124.66,124.66,0,0,1,9.34-18.47,46.79,46.79,0,0,1,3.11-4.41L1054.29,1514.5l230.14-49.85a488.19,488.19,0,0,0,79-24.23,461.28,461.28,0,0,0,75.72-38.82,421.81,421.81,0,0,0,70.15-55.8,387.41,387.41,0,0,0,58.89-74.45,358.77,358.77,0,0,0,39.46-92.63,362.46,362.46,0,0,0,12.47-99.07,349.9,349.9,0,0,0-4.5-51.42l-1.16-6.49-1.29-6.81q-1.44-6.73-3-13.45t-3.59-13.32c-1.33-4.39-2.7-8.78-4.14-13.15a321.18,321.18,0,0,0-22-50.48,315.65,315.65,0,0,0-30.39-45.9c-2.82-3.42-5.64-6.86-8.57-10.2s-5.86-6.67-8.93-9.89-6.13-6.43-9.32-9.53l-4.8-4.62c-1.6-1.53-3.27-3.12-4.7-4.39a408.19,408.19,0,0,0-34.59-28.12c-22.21-16.12-42.08-27.84-58.63-37.56q-49.65-29-100.68-55.47t-103.34-50.28c-17.46-7.89-35-15.69-52.62-23.13-8.8-3.8-17.68-7.4-26.51-11.09L1124,629l-6.65-2.69-6.56-2.59-25.74-10.09-24.43-9.52c-8.07-3.14-15.6-6.17-23.27-9.23l-11.07-4.53-2.76-1.13-2.65-1.13-5.31-2.25c-14.07-6-27.35-11.95-39.25-18-1.5-.75-3.08-1.49-4.52-2.25l-4.28-2.28-4.3-2.27c-.7-.38-1.45-.74-2.12-1.13l-2-1.15-8-4.56q-3.72-2.34-7.47-4.62l-1.88-1.14c-.61-.38-1.15-.78-1.73-1.17l-3.46-2.32L933,542.6c-1.13-.76-2.13-1.57-3.21-2.35l-3.19-2.32c-1-.78-2.21-1.52-3.12-2.33-1.94-1.59-3.89-3.16-5.87-4.7l-.75-.57-.54-.48-1.06-.93-1.08-.92c-.36-.31-.7-.66-1.06-1-.69-.67-1.43-1.28-2.12-2s-1.38-1.37-2.09-2c-2.75-2.8-5.45-5.71-8-8.74s-4.88-6.17-7.06-9.31-4.08-6.3-5.83-9.38-3.12-6.09-4.38-8.92-2.09-5.47-2.85-7.84a17.17,17.17,0,0,0-.51-1.73c-.12-.55-.22-1.07-.37-1.6a11.78,11.78,0,0,1-.31-1.47c0-.24-.11-.48-.17-.71a5.32,5.32,0,0,1-.09-.65c0-.41-.18-.86-.2-1.23a6.63,6.63,0,0,0-.13-1.08c-.05-.34,0-.62-.05-.93a2.4,2.4,0,0,1,0-.79,6.89,6.89,0,0,1,.06-1.89s-.06-.1,0-.12.05,0,.05-.07-.06-.12,0-.12,0-.05,0-.06,0,0,0,0h0l-30.24-10.95q-4.61-1.62-9.18-3.38l-8.28-3.19-3.81-1.53-3.73-1.54q-3.25-1.3-6.49-2.72l-6-2.65c-1.87-.84-3.73-1.72-5.56-2.62q-2.46-1.12-4.87-2.36l-2.42-1.26-2.14-1.09c-1.42-.74-2.82-1.52-4.22-2.33s-2.49-1.38-3.73-2.12l-1.82-1.13-1.64-1c-1.07-.67-2.14-1.37-3.18-2.1s-1.87-1.24-2.78-1.9c-.46-.33-.91-.67-1.36-1l-1.19-.87c-.78-.59-1.54-1.21-2.3-1.86s-1.3-1.05-1.94-1.62c-.31-.29-.63-.58-.93-.88l-.79-.71c-.51-.48-1-1-1.51-1.53s-.8-.82-1.18-1.26l-.56-.67-.44-.5c-.28-.34-.57-.75-.81-1.08s-.37-.5-.55-.78l-.4-.62-.14-.25s-.23-.43,0,0a3.44,3.44,0,0,1,.19.39l.07.16.17.38c.11.26.2.52.28.77a4.74,4.74,0,0,0,.18.51l.19.6.16.59c.05.2.08.36.17.67.15.55.28,1.09.38,1.62l.14.82c.07.35.14.69.19,1,.12.69.21,1.36.27,2s.21,1.64.27,2.45c0,.41.06.81.08,1.22s0,.85.07,1.35c.39,7.43-.21,17.38-2.48,30.27-.29,1.64-.58,3.46-.93,5.17l-.53,2.58c-.19.84-.38,1.71-.58,2.73q-.59,2.91-1.29,5.81l-.72,2.89-.78,3.29q-.81,3.28-1.72,6.53c-.3,1-.63,2.34-1,3.59l-1,3.75-1.09,3.74c-.38,1.3-.73,2.32-1.18,3.91-.85,2.95-1.75,5.88-2.68,8.8l-1.42,4.37c-15.17,47.27-4.16,13.13-7.53,23.69l.15.08.3.12c.21.08.45.06.63.22a2.28,2.28,0,0,0,.63.24c.22.06.39.26.62.33.46.09.85.54,1.36.68.25.13.47.36.73.49l.4.2a3.4,3.4,0,0,1,.39.3,4.75,4.75,0,0,0,.85.55,10.32,10.32,0,0,0,.88.73c.16.11.32.22.49.32l.47.45a8.93,8.93,0,0,0,1,.82,11.34,11.34,0,0,0,1,1l.56.48.54.61c.37.41.76.77,1.16,1.16s.77.93,1.17,1.37c.2.22.42.42.62.66l.6.79c.4.52.83,1,1.25,1.51,6.66,8.68,14,22.63,18.16,38.73.61,2,1,4,1.53,6.07.29,1,.41,2.06.64,3.09s.48,2,.62,3.1c.31,2.08.77,4.15,1,6.25.13,1,.31,2.08.43,3.13s.19,2.08.3,3.12c.05.52.13,1,.16,1.56l.09,1.55.22,3.1c0,1,0,2,.08,3.06l.07,1.53,0,1.51c0,1,0,2,0,3l-.12,2.93,0,1.47a8.33,8.33,0,0,1-.08.89l-.09,1-.34,3.82-.28,3.83-.13,1.91c0,.64-.18,1.31-.26,2q-.57,3.94-1.06,7.9c-.21,2.6-.9,5.38-1.36,8.09l-.73,4.1c-.24,1.36-.44,2.72-.82,4.15-1.38,5.65-2.41,11.22-4.19,17.13L771.21,690c-.39,1.46-.73,2.91-1.26,4.43l-2.83,9c-.85,3-2.06,6.12-3.13,9.22l-1.63,4.66c-.55,1.56-1,3.09-1.69,4.7-2.53,6.39-4.76,12.68-7.64,19.29-1.38,3.28-2.67,6.53-4.12,9.85l-4.48,10.06c-.76,1.68-1.45,3.33-2.26,5.05l-2.41,5.14-4.84,10.3-5.16,10.52-2.57,5.26-2.73,5.38L719,813.67l-5.71,11-2.86,5.49-3,5.61-6,11.25-12.36,23.1-100.75,188-25.19,47-6.3,11.76-3.15,5.87-1.57,2.94-2.57,4.86c-.89,1.72-1.83,3.58-2.75,5.42s-1.88,3.81-2.85,5.86c-1.9,4-3.85,8.34-5.81,13.06s-3.92,9.71-5.87,15.31-3.82,11.51-5.61,18.28-3.42,14-4.75,22.27a217.92,217.92,0,0,0-2.64,27.58,201,201,0,0,0,1.77,33.7,196.46,196.46,0,0,0,9.32,38.54,193.78,193.78,0,0,0,18.74,38.61,192.84,192.84,0,0,0,60.18,60.16,196.47,196.47,0,0,0,36.06,17.77c1.46.54,2.93,1.07,4.4,1.58s2.94,1,4.32,1.43c2.82.89,5.69,1.75,8.49,2.51s5.43,1.4,8.16,2c1.4.33,2.64.58,4,.85l3.9.77a213.53,213.53,0,0,0,28.4,3.31,228.14,228.14,0,0,0,23.77-.09c7.24-.41,13.86-1.12,20.11-2s11.92-1.91,17.38-3,10.48-2.37,15.36-3.68,9.41-2.67,13.85-4.09l3.29-1.07,3.2-1.09,1.37-.48,1-.35,2-.72a797.33,797.33,0,0,0,233-130.07l6.54-5.25c2.17-1.76,4.28-3.59,6.42-5.39,4.26-3.63,8.57-7.19,12.76-10.9l12.51-11.2c4.15-3.75,8.17-7.66,12.26-11.5l3-2.89,1.53-1.45c.5-.48,1-1,1.58-1.53l6.6-6.55,6.53-6.7,6.44-6.83c8.54-9.22,16.88-18.84,25-29s16-20.73,23.67-32l5.67-8.57c1.87-2.91,3.72-5.89,5.56-8.84s3.64-6.07,5.44-9.12c.9-1.52,1.79-3.06,2.66-4.65l3-5.38,1.65-3,1.54-3,3-5.94,3-6,2.82-6,2.76-6.06c.89-2,1.75-4.07,2.61-6.12,1.71-4.09,3.41-8.19,4.94-12.34a345.28,345.28,0,0,0,15-50.76,305.45,305.45,0,0,0,4.27-104.46,294.11,294.11,0,0,0-31.87-99.11,314.53,314.53,0,0,0-64.17-82.9,370.86,370.86,0,0,0-41.43-33.22c-3.67-2.51-7.32-5-11.08-7.41l-5.62-3.57c-1.88-1.17-3.81-2.39-5.58-3.43l-5-2.93c-1.53-.9-3.07-1.81-4.58-2.64-3-1.69-6.09-3.42-9.11-5a520.65,520.65,0,0,0-70.67-31.21c-11.47-4.13-22.81-7.82-34-11.16l-4.21-1.24-1.05-.31-1-.27-1.92-.53-7.68-2.12c-5.13-1.39-10.24-2.85-15.38-4.18l-15.46-3.84-7.73-1.89-7.77-1.74-15.55-3.43-15.61-3.08c-10.39-2.13-20.87-3.76-31.32-5.56-2.61-.46-5.23-.83-7.86-1.21l-7.87-1.14-7.87-1.13c-2.62-.38-5.24-.75-7.88-1-10.52-1.23-21-2.61-31.59-3.5-5.28-.49-10.55-1-15.83-1.45l-15.86-1.09-7.93-.53-7.94-.36-15.88-.69c-5.3-.17-10.6-.23-15.9-.34s-10.59-.24-15.9-.16l-15.9.1-4,0-4,.11-8,.25c-5.31.19-10.61.28-15.91.57l-15.89.9c-2.65.16-5.3.27-8,.49l-7.93.64-15.88,1.32-15.85,1.68-7.92.87-7.43.89c-19.34,2.42-36.12,4.75-50.7,6.35-7.26.8-14,1.44-20,1.85l-4.39.27-4.12.2c-.7,0-1.32.05-2,.06l-1.46,0c-.24,0-.16,0-.17,0h0v0l0,0,0,0,0,0,0,0,0,0,0,0,0,0,0,0h0l.05-.13.11-.28c.09-.26.21-.64.3-1,.21-.65.51-1.26.71-1.91s.54-1.19.75-1.81.56-1.11.78-1.69a34.12,34.12,0,0,1,2.94-5l.06-.12a.45.45,0,0,1,0-.08l.13-.16.5-.64,1-1.29c.64-.88,1.41-1.72,2.08-2.6s1.53-1.74,2.25-2.63,1.64-1.76,2.43-2.66a144.81,144.81,0,0,1,11.63-11A247.4,247.4,0,0,1,514,558.15c13.42-8.07,29-16.21,46.26-24.44s36.24-16.57,56.68-25.43L487.64,209.82c-21.14,9.17-43.7,19-67.34,30.27s-48.37,24-73.8,39.24a571.34,571.34,0,0,0-77.19,55.05,470,470,0,0,0-37.59,35.79c-3,3.29-6.05,6.52-9,9.91s-5.92,6.77-8.8,10.28-5.76,7-8.55,10.65l-4.17,5.46-2.07,2.75-.52.68-.57.79-1.15,1.61A359.81,359.81,0,0,0,165,465.59c-2.15,4.56-4.36,9.13-6.35,13.74s-3.95,9.23-5.74,13.89-3.55,9.33-5.16,14l-2.36,7.12-1.21,3.75-.6,1.89-.6,2A371.12,371.12,0,0,0,128.2,655.82a331.54,331.54,0,0,0,11.65,65.65,307.62,307.62,0,0,0,24.76,61.21,294.74,294.74,0,0,0,37.3,54.06c1.81,2.06,3.6,4.14,5.45,6.16l5.73,5.9c1.93,1.94,3.82,3.93,5.82,5.81l6,5.57L228,863c1,.92,2,1.84,3.1,2.69l6.38,5.2,3.22,2.57,1.61,1.27c.12,0,.06.2.14.23l.21.16.41.31.81.63,6.57,5a306.63,306.63,0,0,0,93.21,44.95c33.56,9.76,69,14.08,104.56,14.18h6.66c2.21,0,4.5,0,6.49-.09l5.2-.15c1.6,0,3.19-.09,4.71-.16,3.06-.14,6.2-.26,9.2-.44l8.92-.55c11.72-.81,22.7-1.89,33.1-3,20.76-2.3,39.2-4.89,55.14-6.87l5.8-.7,5.33-.56,10.67-1.15,10.69-.87,5.35-.45c1.78-.15,3.58-.21,5.36-.32l10.73-.61c3.57-.21,7.16-.24,10.74-.38l5.38-.17,2.68-.09h2.69l10.76-.07c3.59-.08,7.17.06,10.76.12s7.17.09,10.76.21l10.76.48,5.38.23,5.37.37,10.74.73,10.72,1c7.16.56,14.27,1.56,21.4,2.36,1.79.18,3.56.44,5.34.71l5.32.77,5.33.76c1.78.25,3.56.49,5.32.82,7.06,1.25,14.16,2.29,21.18,3.77l10.55,2.06,10.49,2.33,5.24,1.16,5.21,1.29,10.42,2.58c3.47.89,6.9,1.89,10.35,2.82l5.17,1.42,1.29.35.65.17.55.17,2.18.65c5.82,1.73,11.39,3.55,16.64,5.44a199,199,0,0,1,26.86,11.69l2.56,1.42c.45.22.82.46,1.2.69l.58.34.2.12c.15.06.09,0,.09.07h0l0,0h0l0,0,0,0,0,0h0l0-.12s.06-.1,0-.09l-.29.54c-.18.36-.41.74-.65,1.13-.48.77-.87,1.53-1.39,2.34l-1.53,2.44c-.58.85-1.14,1.69-1.69,2.55-2.35,3.45-5.06,7.11-8.07,10.85s-6.31,7.58-9.85,11.4l-2.69,2.87-2.78,2.85-2.86,2.84-3.51,3.32c-2.41,2.23-4.73,4.55-7.19,6.75l-7.35,6.58c-2.46,2.19-5,4.26-7.52,6.41-1.26,1.06-2.49,2.16-3.78,3.19l-3.87,3.09a472.15,472.15,0,0,1-137.69,76.91l-1.15.43-.58.21c-.53-.63,1.31,4.5.95,3.44.51,1.46,1,2.92,1.49,4.4s1,3.06,1.51,4.6c2,6.21,3.93,12.74,5.72,19.36s3.39,13.3,4.78,19.88,2.52,13,3.39,19.25,1.48,12.15,1.78,17.72a137.06,137.06,0,0,1,.11,15.37,88.74,88.74,0,0,1-1.35,12.25c-.13.83-.36,1.76-.52,2.52s-.35,1.51-.57,2.27-.35,1.32-.57,2c-.13.35-.23.65-.3.91s-.19.55-.29.83a23.93,23.93,0,0,1-2.09,4.4c-.47.74-.61.8-.24.43l.39-.36a6.62,6.62,0,0,1,.6-.5c.1-.07-.13.11-.19.16l-.31.22-.41.29c-.43.27-.27.1.64-.21a25.05,25.05,0,0,1,5.14-1.17,60.49,60.49,0,0,1,9.5-.4,101.06,101.06,0,0,1,13.6,1.39,172.13,172.13,0,0,1,17.4,3.77c6.3,1.7,13.49,3.85,21.14,6.54l2.91,1,3,1.09q3.12,1.13,6.2,2.33l3.25,1.26,3.31,1.31,6.87,2.82,7.21,3.07c2.56,1.09,5.1,2.22,7.63,3.37l4.12,1.84,4.15,1.9,8.82,4.12,1.2.57s0,0,0,0l.05-.11.27-.52,11.57-21.6,25.19-47,100.75-188,12.79-23.92,6.52-12.32,3.26-6.18,3.3-6.33,6.58-12.67,6.61-13,3.3-6.52,3.29-6.7,6.57-13.43,6.51-13.83,3.24-6.93c1.08-2.31,2.13-4.74,3.2-7.11l6.35-14.31c2.1-4.82,4.13-9.83,6.19-14.74,4.17-9.71,8-20.13,12-30.29,1-2.51,1.9-5.21,2.84-7.84l2.79-7.92c1.84-5.3,3.73-10.49,5.41-16l5.13-16.41c.87-2.7,1.63-5.56,2.41-8.38l2.31-8.48c3.21-11.17,5.77-23,8.41-34.67.69-2.89,1.23-5.92,1.79-8.93l1.65-9,1.62-9c.25-1.51.56-3,.76-4.54l.64-4.63q1.28-9.26,2.45-18.52c.18-1.56.42-3.08.55-4.66l.41-4.73.78-9.46.74-9.47.17-2.36c.06-.82.13-1.52.16-2.43l.21-5.19c.13-3.47.26-6.94.34-10.4l0-10.32,0-5.17-.14-5.13-.36-10.26-.65-10.21-.35-5.1c-.13-1.69-.31-3.38-.47-5.07a468,468,0,0,0-14.5-80.05c-3.49-13.15-7.8-26.2-12.5-39.16l-3.74-9.7-1.92-4.83-2-4.82-4.16-9.62-4.5-9.56-2.28-4.77-2.43-4.75-4.94-9.46c-1.74-3.15-3.52-6.28-5.3-9.4l-2.69-4.68c-.92-1.56-1.89-3.11-2.84-4.66l-5.79-9.26c-2-3.08-4.09-6.13-6.16-9.18l-3.13-4.56c-1-1.52-2.19-3-3.28-4.53l-6.7-9c-2.31-3-4.71-5.93-7.09-8.87l-3.6-4.4c-1.22-1.46-2.51-2.9-3.77-4.35q-3.79-4.34-7.66-8.62c-2.65-2.84-5.37-5.65-8.09-8.44L982,310.24l-4.28-4.1q-4.3-4.08-8.66-8.1-4.53-4-9.12-7.85c-1.53-1.29-3-2.59-4.6-3.87l-4.79-3.76c-3.21-2.49-6.41-5-9.69-7.39s-6.71-4.74-10.09-7.07c-1.7-1.15-3.36-2.34-5.11-3.45l-5.27-3.32c-3.53-2.19-7-4.4-10.63-6.48-7.31-4.08-14.56-8.19-22.2-11.77-3.8-1.82-7.57-3.68-11.44-5.36s-7.77-3.29-11.68-4.89-7.87-3-11.85-4.45l-6-2.09-3-1-1.52-.51-1.79-.56a265,265,0,0,0-33.83-8.29,224.92,224.92,0,0,0-48.88-3.13,202.11,202.11,0,0,0-66.36,14.51c-1.48.6-2.93,1.19-4.4,1.83s-3,1.33-4.44,2q-4.41,2.07-8.74,4.31c-2.88,1.51-5.71,3.12-8.52,4.77q-2.1,1.24-4.17,2.53c-1.39.85-2.68,1.71-4,2.59-2.63,1.75-5.24,3.55-7.8,5.41s-4.87,3.67-7.25,5.58c-1.19.95-2.36,1.92-3.53,2.89s-2.2,1.89-3.29,2.86q-3.25,2.88-6.4,5.87c-2,1.91-3.9,3.84-5.8,5.81l-2.81,3-2.58,2.87c-1.69,1.91-3.38,3.87-5,5.82s-3,3.74-4.48,5.64l-2.16,2.85-2,2.72c-1.29,1.82-2.59,3.67-3.83,5.49s-2.29,3.49-3.41,5.25L594.94,310l-1.5,2.5c-1,1.67-2,3.36-2.92,5l-2.59,4.77-1.27,2.4L585.52,327l-2.24,4.54-2,4.29-1,2.16-.88,2L577.7,344l-1.55,3.84-.76,1.93-.69,1.82-1.35,3.62-2.17,6.34-2.1,6.33c-.69,2.11-1.37,4.23-2,6.37a332.19,332.19,0,0,0-13.3,103.07c.12,4.2.24,8.42.56,12.53s.56,8.28,1,12.36.91,8.11,1.42,12.16,1.18,8,1.81,12c.34,2,.64,4,1,5.93l1.15,5.82c.8,3.87,1.56,7.79,2.5,11.55s1.84,7.59,2.82,11.35,2.08,7.4,3.16,11.09a410.1,410.1,0,0,0,15.31,42.27q8.7,20.22,19.06,39t22.25,35.92q11.89,17.24,25.15,33.18t28,30.63l7.44,7.27c2.5,2.41,5.09,4.75,7.65,7.11,1.29,1.18,2.56,2.36,3.87,3.52l4,3.45,4,3.43,2,1.69,1.86,1.51q7.44,6,14.95,12c2.49,2,5,3.81,7.53,5.68l7.57,5.53c2.53,1.82,5.07,3.71,7.6,5.46l7.6,5.11,7.63,5.09c1.27.84,2.55,1.71,3.82,2.51l3.8,2.36,15.24,9.36,15.13,8.64,3.79,2.14c1.26.71,2.5,1.35,3.75,2l7.48,4,7.5,4c2.5,1.31,4.93,2.48,7.4,3.72,19.82,10,39,18.57,57.64,26.52l7,3,3.48,1.47,3.4,1.4,13.61,5.57c8.84,3.53,17.81,7.13,26.3,10.43l25.26,9.85,23.9,9.37,5.84,2.3,5.71,2.31,11.4,4.61c7.56,3.17,15.16,6.23,22.68,9.48,15.11,6.37,30.08,13,45,19.79q44.73,20.45,88.43,43t86.13,47.45c14.13,8.21,24.76,14.86,31.3,19.67a81.26,81.26,0,0,1,6.82,5.45c.25.18.17.15.17.16h0s0,0,0,0,0,0,0,0,0,0,0,0,0,0,0,0h0l0,0c0,.1,0,.19.08.29a24.48,24.48,0,0,1,.29,3.5,38.09,38.09,0,0,1-1.32,10.06,34.07,34.07,0,0,1-3.56,8.59,61.88,61.88,0,0,1-9.49,11.82,98.43,98.43,0,0,1-16.13,12.67,137.44,137.44,0,0,1-22.37,11.39,163.57,163.57,0,0,1-26.37,8.06l145.52,40.21a289.23,289.23,0,0,0-42.55-32.91,301.59,301.59,0,0,0-45.25-23.56,330.25,330.25,0,0,0-43.95-14.78,374.39,374.39,0,0,0-40.65-8.2,484.77,484.77,0,0,0-70.6-4.76c-21.33,0-40.77,1.12-58.54,2.39l-12.9,1-12,1-24.65,2.08c-8.49.78-16.84,1.51-25.62,2.44l-6.52.67c-2.16.23-4.33.44-6.58.72L958,1114.52c-4.4.49-9.06,1.16-13.59,1.75l-6.85.92-3.42.46-3.5.53-14,2.17-3.5.55-3.59.63-7.17,1.28-7.17,1.29-3.59.66-3.67.75-14.65,3c-1.23.27-2.43.5-3.67.79l-3.74.88-7.48,1.79c-5,1.22-9.91,2.32-15,3.79L828.13,1140c-2.52.67-5.13,1.55-7.69,2.34l-7.72,2.45-7.71,2.47c-1.28.4-2.58.86-3.89,1.34l-3.9,1.4-15.59,5.71c-5.22,2-10.48,4.28-15.69,6.45l-7.83,3.3c-2.62,1.17-5.24,2.43-7.85,3.65q-7.85,3.7-15.65,7.49-7.82,4.13-15.57,8.35l-3.87,2.12-1.94,1.06c-.66.37-1.24.67-2,1.11l-8.4,5c-2.82,1.67-5.54,3.42-8.26,5.18s-5.44,3.51-8.11,5.32c-5.27,3.67-10.61,7.31-15.68,11.19-2.56,1.92-5.13,3.83-7.64,5.8l-7.45,6c-2.5,2-4.9,4.07-7.31,6.14s-4.83,4.14-7.19,6.27c-4.67,4.31-9.39,8.56-13.87,13.07-9.12,8.85-17.72,18.28-26.07,28a408.68,408.68,0,0,0-44.72,64.22,380.12,380.12,0,0,0-18.09,36.63l-4,9.67c-.66,1.6-1.29,3.26-1.9,4.92l-1.82,5c-2.48,6.58-4.62,13.51-6.74,20.36-1,3.46-2,7-2.91,10.54l-1.39,5.3c-.44,1.77-.84,3.6-1.25,5.41l-1.22,5.54c-.41,1.9-.82,3.79-1.2,5.71q-1,5.77-2,11.59c-.3,1.94-.64,3.87-.9,5.81l-.72,5.84c-.45,3.89-.94,7.78-1.26,11.69-.59,7.82-1.13,15.64-1.16,23.48a318.83,318.83,0,0,0,12.28,92.85,334.09,334.09,0,0,0,13.79,38.29,322.87,322.87,0,0,0,18.49,36.27c1.75,2.92,3.46,5.85,5.3,8.71s3.69,5.7,5.57,8.53c3.83,5.58,7.8,11.24,11.82,16.4a344,344,0,0,0,24.48,28.66,380.62,380.62,0,0,0,53.75,46.75q14,10,28.47,18.68t29.28,16a430.29,430.29,0,0,0,60.88,24.48l7.82,2.4,7.37,2,7.39,2,3.69,1,3.66.87,14.62,3.39c4.82,1,9.62,1.91,14.43,2.84,19.11,3.48,37.83,6,55.8,7.51s35.25,2.33,52,2.67,32.51.11,47.85-.26,29.86-1,43.89-1.63l10.4-.47,3.31-.18,3.49-.22c2.48-.19,4.92-.4,7.42-.65,2.67-.29,5.28-.6,8-1,2.9-.41,5.72-.84,8.66-1.35,3.19-.59,6.26-1.18,9.51-1.89q2.63-.6,5.24-1.25l2.62-.66,1.3-.34,1.38-.38q2.94-.82,5.86-1.72l2.91-.92c1-.31,1.89-.6,3-1q3.3-1.14,6.57-2.39l3.26-1.27,1.64-.66,1.86-.79q3.72-1.59,7.38-3.33l3.65-1.76c.56-.28,1.27-.64,2-1l2.08-1.1q4.16-2.22,8.2-4.63l2-1.21c.68-.42,1.29-.79,2.1-1.31q2.3-1.47,4.55-3,4.53-3.06,8.88-6.37c.75-.58,1.37-1,2.23-1.73l2.43-2q2.4-2,4.76-4.07t4.64-4.21l2.27-2.15c.76-.75,1.45-1.4,2.3-2.28q4.88-5,9.42-10.35a177.94,177.94,0,0,0,17-23.9c2.58-4.25,5-8.78,7.18-13.38s4.26-9.3,6.1-14c.47-1.2.88-2.35,1.28-3.5l1.19-3.46c.76-2.32,1.49-4.66,2.17-7,1.36-4.71,2.55-9.44,3.53-14.24a178.61,178.61,0,0,0,3.41-29.51q.12-3.72.1-7.43l-.06-3.71-.16-3.57c-.26-4.76-.69-9.53-1.29-14.26-.15-1.21-.32-2.33-.49-3.41l-.53-3.29c-.38-2.19-.8-4.38-1.25-6.55s-.94-4.36-1.46-6.5c-.49-2-1-3.91-1.57-5.85s-1.14-3.88-1.75-5.81l-.94-2.88c-.33-1-.64-1.89-.94-2.71q-1.83-5.1-3.93-10.09l-1.06-2.49-1-2.21q-1-2.18-2-4.32t-2.15-4.28l-1.08-2.06-1-1.85c-1.35-2.45-2.76-4.88-4.2-7.28l-1-1.69-1-1.56-2-3.09-2.06-3.06-1-1.41L1195,1582q-1.89-2.64-3.85-5.22l-1.78-2.29-1.78-2.23-1.8-2.21-1.65-2-3.29-3.79-3-3.3-1.51-1.61L1175,1558l-2.71-2.77-2.43-2.42-2.28-2.21-2.11-2-1-1-2-1.82Q1100.07,1487.39,1035,1432q-130.22-110.68-270.59-208.61c-11.74-8.07-23.43-16.21-35.21-24.2l-17.73-11.93c-5.91-4-11.8-8-17.77-11.86l-17.86-11.73-8.95-5.87-9.77-6.27L647,1145.18c-3.49-2.15-6.93-4.28-10.53-6.44s-7.25-4.32-10.91-6.47-7.48-4.33-11.39-6.49-7.84-4.32-11.82-6.46l-6.14-3.22c-2-1.06-4.13-2.13-6.25-3.19-8.38-4.24-17.22-8.41-26.47-12.44s-18.94-7.94-29.15-11.6c-2.59-.91-5.08-1.83-7.75-2.7l-7.95-2.6c-2.69-.85-5.46-1.65-8.21-2.47l-2.1-.62c-.72-.21-1.36-.4-2.23-.63l-4.92-1.32c-6.56-1.77-13.19-3.26-19.83-4.69s-13.34-2.59-20.05-3.54a325.37,325.37,0,0,0-40.48-3.53,311,311,0,0,0-40.5,1.55,328,328,0,0,0-39.9,6.73c-61,14.72-116.86,48.91-159.23,95.65-2.65,2.92-5.29,5.85-7.87,8.83s-5,6.1-7.48,9.18c-5,6.1-9.55,12.57-14.12,19-1.12,1.63-2.27,3.2-3.36,4.9l-3.25,5.07-3,4.84-2.9,4.68c-1.84,3.17-3.64,6.36-5.43,9.56s-3.6,6.39-5.2,9.69-3.27,6.57-4.87,9.88c-.79,1.66-1.62,3.29-2.36,5l-2.21,5.07q-2.19,5.07-4.31,10.18c-1.35,3.39-2.57,6.75-3.82,10.14a363.42,363.42,0,0,0-12.37,41.18A376.69,376.69,0,0,0,88.72,1411a393.37,393.37,0,0,0,7.59,79.68A416.91,416.91,0,0,0,118,1564.48a439.62,439.62,0,0,0,77.78,127.59l3.09,3.55,3.18,3.49,6.43,6.92c2.12,2.32,4.41,4.53,6.62,6.78s4.47,4.48,6.74,6.69c9.22,8.75,18.71,17.27,28.81,25.3l7.58,6,7.33,5.44c4.87,3.66,9.86,7.06,14.85,10.49,2.49,1.73,5,3.36,7.55,5l7.61,4.87c2.56,1.58,5.13,3.11,7.7,4.65s5.14,3.11,7.75,4.54a502.76,502.76,0,0,0,63.63,30.47,532.46,532.46,0,0,0,65.05,20.86,559.94,559.94,0,0,0,65.05,12.39,609,609,0,0,0,64.31,5q31.89.78,63.26-1.51c5.23-.35,10.42-.86,15.64-1.3s10.39-1.07,15.57-1.7,10.35-1.26,15.49-2l7.73-1.14c2.56-.4,5-.85,7.5-1.27l14.92-2.61,3.73-.67,3.67-.75,7.33-1.53c4.88-1,9.79-2,14.65-3.11L753,1833.4c9.67-2.24,18.95-4.94,28.38-7.5,4.74-1.26,9.28-2.71,13.89-4.09l13.8-4.22,13.52-4.48c4.49-1.52,9.05-3,13.42-4.59,8.78-3.17,17.72-6.27,26.26-9.64,34.57-13.2,67.47-27.64,98.83-42.53,15.62-7.46,31-15,46-22.57l11.24-5.68,11.06-5.68,11.14-5.75,11.28-5.9c30.18-15.88,61.18-33.06,92.54-52.58s63.09-41.32,94.42-66.91,62.23-55.13,90.53-90a520.74,520.74,0,0,0,39.79-56.14,485,485,0,0,0,32.69-63.34c2.34-5.54,4.7-11.07,6.73-16.72l3.14-8.44c1-2.82,2.11-5.66,3-8.45q2.74-8.4,5.39-16.83c1.62-5.58,3.13-11.12,4.65-16.7a590,590,0,0,0,13-64.85l2-15.57c.61-5.14,1.09-10.17,1.62-15.26s.88-10,1.29-15l.57-7.43.43-7.26.41-7.25.2-3.61.14-3.54.53-14.11.31-13.77c.06-2.32.07-4.53.09-6.77l.07-6.7c.13-17.77,0-34.84-.3-51.09l-.87-48.28q-1-48.26-2.51-96.51t-3.56-96.47q-1-24.12-2.17-48.23l-1.18-24.1-1.28-24.52c-1-16.85-2.07-34.43-3.76-53s-4-38.06-7.23-58.33a618.1,618.1,0,0,0-13.82-63.67c-1.59-5.55-3.19-11.07-4.85-16.61q-2.8-8.47-5.7-16.92c-.49-1.41-.95-2.81-1.47-4.22l-1.65-4.29-3.35-8.57c-1.14-2.85-2.24-5.69-3.43-8.54l-3.86-8.62-3.93-8.6c-.67-1.43-1.3-2.85-2-4.28l-2.2-4.31c-3-5.73-5.94-11.44-9-17.12q-5-8.51-10.13-16.92c-.86-1.4-1.71-2.81-2.59-4.19l-2.75-4.14c-1.84-2.74-3.66-5.51-5.55-8.21-3.82-5.33-7.64-10.72-11.67-15.82-2-2.57-4-5.2-6-7.67l-6.2-7.46c-8.37-9.75-17-19.18-25.94-27.86l-3.35-3.3-3.37-3.17c-2.25-2.11-4.51-4.24-6.78-6.31-4.55-4-9.13-8.14-13.75-11.93-9.22-7.78-18.56-14.93-27.94-21.72l-7-5-7-4.8-3.53-2.39-3.52-2.28-7.06-4.54c-9.39-5.85-18.8-11.45-28.14-16.6-37.39-20.67-74-36.18-108.93-49.1-4.39-1.64-8.71-3.16-13.06-4.73s-8.64-3.06-12.9-4.5-8.53-2.89-12.78-4.29l-6.36-2.11-6.51-2.08-6.53-2.08c-2.17-.69-4.36-1.38-6.61-2.05l-13.43-4-13.78-3.91c-4.61-1.29-9.4-2.5-14.1-3.75-19-4.88-38.87-9.3-59.69-12.86L894.26,195c-5.37-.73-10.81-1.4-16.22-2.07-1.36-.16-2.69-.35-4.08-.49l-4.17-.39-8.33-.77-4.17-.37c-1.38-.13-2.78-.24-4.22-.32l-8.54-.48a493,493,0,0,0-70.82,1.14c-6.09.59-12.22,1.34-18.32,2.08-1.54.19-3,.36-4.61.58l-4.91.75c-3.27.51-6.55,1-9.78,1.64s-6.5,1.18-9.71,1.87l-9.64,2.09-9.56,2.34c-3.18.8-6.33,1.7-9.49,2.57q-18.93,5.37-37.35,12.51T624,234A381,381,0,0,0,554.9,279a348.56,348.56,0,0,0-61,64.64,324.46,324.46,0,0,0-44,84.74Z"/><path class="b" d="M637.1,491.77c-3.2.85-2.19-3.92-3.35-5.87,3.39-5.72,7.53-12,10.1-9.9A124.43,124.43,0,0,0,637.1,491.77Z"/><path class="b" d="M1095.21,602.39c.47.55.9,1.08,1.29,1.58s.67,1,1,1.5a12.71,12.71,0,0,1,1.31,2.69,22.35,22.35,0,0,1,.67,2.38,20.76,20.76,0,0,1,.23,2.31,27.81,27.81,0,0,0,.54,4.47,18.71,18.71,0,0,0,1.89,5.77c.11.27.21.52.3.77s.17.53.25.79a14.19,14.19,0,0,0,.51,1.37,11.79,11.79,0,0,0,1.08,2.06,8.16,8.16,0,0,0,1.14,1.36c.2.17.39.33.59.48s.36.32.54.46c1.48,1.12,3,1.48,4.51,3.65.67,1.82,1.12,4,1.7,6.07l.86,3.1.22.77.19.85.37,1.68c.5,2.25,1.08,4.4,1.59,6.71s.93,4.78,1.44,7.15c.12.6.26,1.16.38,1.79l.31,1.9.66,3.8.69,3.78.59,4,.61,4c.2,1.35.45,2.61.6,4.06q.55,4.2,1.09,8.4c.2,1.37.36,2.85.51,4.32l.49,4.39.51,4.37.43,4.56q.45,4.57.89,9.14l.81,9.45.21,2.35.18,2.44c.13,1.62.25,3.25.37,4.87.25,3.26.53,6.45.75,9.85q.72,10.23,1.44,20.34.76,10.56,1.5,21t1.58,20.88q1.62,20.73,3.39,40.89c2.35,26.84,4.91,52.84,7.66,77.78-2.84-2.48-2.21,7.87-2,16.46-5.82-.82-10.1-9.17-13.61-21.38-2.29-30-4.36-59.49-6.43-88.57q-1.56-21.79-3.11-43.37-.81-10.74-1.61-21.45l-.81-10.36c-.29-3.34-.57-6.68-.86-10l-.43-5-.48-4.77c-.32-3.17-.61-6.42-1-9.51l-1-9.14-.27-2.28-.3-2.19-.59-4.36c-.74-5.94-1.72-11.28-2.59-16.84l-1.51-7.82c-.26-1.28-.47-2.65-.76-3.86l-.85-3.65-.84-3.66-.41-1.83c-.15-.59-.32-1.14-.47-1.71-.62-2.26-1.23-4.53-1.85-6.79-.28-1.18-.67-2.13-1-3.19l-1-3.12-1-3.11-1.11-2.82-1.08-2.83a27.7,27.7,0,0,0-1.1-2.73q-1.19-2.52-2.29-5.05a20.92,20.92,0,0,0-1.2-2.32l-1.21-2.21L1089,637l-1.29-1.91c3.81-.58,5.55-2.59,6.24-5.59a11.81,11.81,0,0,0,.3-2.34c0-.77,0-1.57-.1-2.42a30.52,30.52,0,0,0-.77-5.18c-.18-.83-.37-1.68-.53-2.54s-.26-1.77-.47-2.54a22.47,22.47,0,0,1-.41-2.41c-.09-.79-.23-1.55-.25-2.3a10.65,10.65,0,0,1,.11-2.2,7.39,7.39,0,0,1,.47-2A6.48,6.48,0,0,1,1095.21,602.39Z"/><path class="b" d="M835.61,1462.91c-3.87.52-10,2.95-15.18,4.58s-9.58,2.51-10.16.29q5-2.07,9-3.39a63.65,63.65,0,0,1,7.25-2Q832.88,1461.12,835.61,1462.91Z"/><path class="b" d="M856.94,1792.37l-4.71,2.19c-1.67.75-3.49,1.49-5.35,2.27-3.74,1.56-7.77,3.19-12,4.83-2.11.81-4.22,1.66-6.44,2.44l-6.69,2.34c-4.5,1.54-9,3-13.45,4.43-9,2.68-17.58,4.89-24.58,6.35s-12.68,1.88-15.46,1.32c-8.77,3.63-17.8,6.85-27.08,10.2-4.61,1.71-9.48,3.21-14.44,4.76s-10.08,3.11-15.43,4.6-11,2.79-16.88,4.16l-4.46,1c-1.49.35-3,.69-4.61,1-3.18.63-6.43,1.24-9.76,1.85a431.14,431.14,0,0,1-44.58,5.44c-3-1-6.11-2-8.8-3.07a17.34,17.34,0,0,1-6.25-3.79c9.11-1.63,19.68-3.72,31.19-6.1s23.91-5.28,36.73-8.5c25.09-6.43,51.32-14.09,75.35-21.3,6-1.85,11.83-3.62,17.56-5.28,2.89-.8,5.63-1.7,8.37-2.51s5.44-1.61,8.09-2.36,5.26-1.47,7.81-2.14l7.38-2c4.8-1.27,9.38-2.35,13.68-3.23C839.14,1787.6,851.77,1787.25,856.94,1792.37Z"/><path class="b" d="M447.62,1348.64c-6.53-3.2-3.44-2.94,0-2.45s7.3,1.46,1.45-1.15c.87-.41,2.52-.17,4.46.46a34,34,0,0,1,6.34,3.11c4.16,2.56,7.47,5.76,5.48,6.54a41.88,41.88,0,0,1-5.11-2.33c-1.88-.91-3.94-2-5.75-2.86-.91-.42-1.79-.82-2.59-1.15a18.38,18.38,0,0,0-2.11-.67C448.55,1347.85,447.74,1347.93,447.62,1348.64Z"/><path class="b" d="M921.14,1716.73c1.16-3.5,5.18-2.79,15.34,6.94C935.3,1727.16,931.27,1726.46,921.14,1716.73Z"/><path class="b" d="M895.32,1375.93a88.75,88.75,0,0,0,15.3-2.74,57.3,57.3,0,0,0,8.57-3c4.47-1.94,8.07-3.09,17.43-1.64a298,298,0,0,1,41.65-8.81l5.69-.83c1.92-.26,3.89-.48,5.84-.72,3.93-.47,7.84-.94,11.84-1.36,8.08-.78,16.18-1.55,24.54-2.15s16.77-1.18,25.14-1.75l24.86-1.59c15.71-1,29.87-1.61,42.2-2,12.18-.41,23.08-1.06,33.1-1.1s19,.65,26.6,2.76a66.24,66.24,0,0,1,11.26,4.21,48,48,0,0,1,9,5.7l33.81,27.1,33.84-8.41a473.19,473.19,0,0,0,47.87-14.5,432.36,432.36,0,0,0,46.73-20.55,392.19,392.19,0,0,0,44.67-27.21,356.57,356.57,0,0,0,41.17-34.51,328.14,328.14,0,0,0,35.53-42c5.13-7.78,10.26-15.32,15-23.86q7-12.57,12.53-25.6a271.51,271.51,0,0,0,21.63-108.13,258.67,258.67,0,0,0-3.3-39.15c-.5-3.28-1.17-6.51-1.8-9.92s-1.48-6.68-2.25-10-1.75-6.6-2.65-9.89-2-6.51-3.05-9.75a232.82,232.82,0,0,0-38.19-70.5c-1.89-2.3-3.76-4.61-5.68-6.86l-5.87-6.64-6.08-6.38c-2-2.09-4.15-4.12-6.23-6.15-1.06-1.05-2-2-3-2.87l-3-2.75c-2-1.86-4-3.51-5.93-5.24s-3.94-3.36-5.89-5l-2.93-2.42-2.9-2.3c-15.48-12.3-29.95-22.1-42.77-31,3,.6,6.15,1.44,9.48,2.46s6.86,2.3,10.59,3.85A181.38,181.38,0,0,1,1434,875a222.23,222.23,0,0,1,27.9,19.75c2.39,1.92,5,4.32,7.61,6.63s5.09,4.78,7.63,7.26c5,5,9.88,10.38,14.6,16a225.44,225.44,0,0,1,18.08,25.51,232.31,232.31,0,0,1,14.64,28.54,252.06,252.06,0,0,1,10.68,30.66c1.37,5.25,2.72,10.49,3.76,15.8.55,2.65,1.1,5.29,1.52,8l.64,3.93c.2,1.29.43,2.58.6,3.87a279.84,279.84,0,0,1,2.49,30.45c.25,10-.1,19.74-.8,29.23s-2,18.68-3.52,27.53-3.41,17.35-5.59,25.44c-2.27,11.11-4.67,21.05-7.07,30-1.13,4.5-2.39,8.72-3.47,12.76l-3.28,11.47c-3.61,7.29-7.38,14.45-11.55,21.39-1,1.73-2.06,3.5-3.11,5.17l-3.17,4.83-6.36,9.58c-1,1.61-2.21,3.08-3.33,4.61l-3.39,4.52-3.39,4.5c-1.15,1.48-2.24,3-3.45,4.41l-7.14,8.47c-1.2,1.39-2.39,2.79-3.58,4.18s-2.46,2.67-3.69,4a366.75,366.75,0,0,1-62.86,54,406.77,406.77,0,0,1-66.93,36.88,424.31,424.31,0,0,1-68.54,23.11l-35.59,8.72-48.48-32c-1.32-.87-2.65-1.66-4.1-2.43a53.31,53.31,0,0,0-5-2.19,67.23,67.23,0,0,0-6.55-2.1c-2.44-.7-5.29-1.31-8.38-1.89-.79-.13-1.52-.31-2.36-.43l-2.49-.39-2.6-.35-1.32-.18-1.38-.15c-3.63-.44-7.59-.75-11.72-1-8.27-.51-17.45-.61-27.24-.49-4.92.08-10,.22-15.21.39l-16.18.68-17.28.83-18,.77c-23.84.91-47.07,1.42-70,2-6.6,1.69-12.69,3.22-18.87,4.42l-2.31.45-2.25.48-4.5.92c-3,.61-6,1.14-9,1.76l-8.92,2-4.54,1-4.46,1.23c-3,.85-6,1.75-9.14,2.73s-6,2.26-9.13,3.54c-4,.42-7.81,1.14-9.14,0C887.27,1386.07,892.75,1379.67,895.32,1375.93Z"/><path class="b" d="M1500.09,1049.11c-.31-1.4-.67-2.9-1.08-4.47s-.8-3.28-1.22-5-1-3.53-1.43-5.37-.95-3.73-1.54-5.62c-2.14-7.59-4.78-15.44-7.2-22.52-.63-1.77-1.25-3.48-1.84-5.13s-1.09-3.27-1.67-4.76c-1.11-3-2-5.74-2.64-8-1.37-4.54-1.56-7.48.18-7.71-7-9.76-13.59-20.17-21.6-30.81a224.67,224.67,0,0,0-17.2-20.34c-1.62-1.65-3.29-3.37-5-5s-3.34-3.1-5.05-4.65c-3.44-3-7-6-10.78-8.69-17.18-15.62-35.84-28.62-53.9-40.55s-36.79-23.55-56.43-35.15c-39.27-23.21-81.75-45.68-126.2-67.1q-33.35-16.07-68-31.27c-23-10.12-46.76-19.94-69.7-29.35s-45.37-18.73-66.74-28.51a621.82,621.82,0,0,1-60.4-31.2c-2.88-8.34,12.22.11,21.12,2.11,30.66,17,61.43,27.29,92.64,37.92l11.81,4,11.92,4.13c4,1.41,8,2.84,12.06,4.32s8.17,3.05,12.28,4.63a520.08,520.08,0,0,1,50.66,22.65c47.5,16,95.68,40.57,141.36,67.76,22.86,13.59,45.13,27.81,66.59,41.84l31.56,20.8c10.36,6.85,21.09,13.9,31.89,21.4,7.62,6.76,17.31,15,28.27,25.22,1.37,1.26,2.75,2.64,4.16,4s2.82,2.7,4.25,4.17l4.36,4.39,4.58,4.85A267.05,267.05,0,0,1,1468,943.39a241.66,241.66,0,0,1,16.08,24.74,235.57,235.57,0,0,1,13.07,27.47,232.71,232.71,0,0,1,9.56,29.27c.69,2.47,1.23,5,1.81,7.48l.85,3.75.73,3.78c1,4.95,1.73,9.82,2.46,14.7-.45,3.82-2.59,4.08-5.08,2.58A25.46,25.46,0,0,1,1500.09,1049.11Z"/><path class="b" d="M1036.09,726l-1.41,3.62c-22.65-7.16-43.91-16-64.35-25.07s-40-18.49-59.62-26.89a15.46,15.46,0,0,1,4,.07,45.29,45.29,0,0,1,5.18.9c3.75.83,8,2.14,12.4,3.49s9.07,2.74,13.41,4a92.39,92.39,0,0,0,12,2.58l5.48,2.76L968.7,694c3.59,1.67,7.08,3.28,10.55,4.81l20.13,8.7q4.88,2.12,9.56,4.25t9.31,4.39C1024.32,719.17,1030.3,722.39,1036.09,726Z"/><path class="b" d="M909.75,637.46c0,1.8-2.46,1.6-6.29.18a26.55,26.55,0,0,1-3.05-1.32c-1.07-.53-2.21-1.12-3.39-1.76-2.37-1.28-4.94-2.77-7.56-4.36s-5.1-3.46-7.61-5.24-5-3.53-7-5.32-4-3.39-5.67-4.81a42.86,42.86,0,0,1-3.76-3.52c7.54,3.1,13.92,7.84,21,12.62,1.76,1.21,3.46,2.48,5.3,3.68s3.74,2.36,5.66,3.52,3.89,2.3,5.92,3.39S907.52,636.55,909.75,637.46Z"/><path class="b" d="M748.34,942.66c.81,8.42-6.57,44.89-24.54,62.18-8.64,25.73-21.35,52.23-35.66,80.33l-22.37,43.43q-5.73,11.2-11.5,22.79l-5.74,11.71-5.72,12a1.32,1.32,0,0,0-.52-1,.89.89,0,0,0-.86,0,8.83,8.83,0,0,0-2.72,2.62,75.19,75.19,0,0,0-7.82,13.84c-1.4,3.1-2.8,6.53-4.08,10.16s-2.44,7.52-3.39,11.39a109.74,109.74,0,0,0-2.15,11.3,78.14,78.14,0,0,0-.72,9.17,7.51,7.51,0,0,0,1.52-3.17c.22-.73.4-1.6.6-2.47s.37-1.83.54-2.83c.71-3.95,1.4-8.48,2.17-12.35a45.4,45.4,0,0,1,2.38-8.78c.8-1.71,1.55-1.91,2.32.41a141.31,141.31,0,0,0-6.37,30.58,106.72,106.72,0,0,0,.11,19.79,92.66,92.66,0,0,0,5.12,22.46A88.86,88.86,0,0,0,648.07,1307a87.57,87.57,0,0,0,8.94,8.17,89.12,89.12,0,0,0,19.91,11.93,95.11,95.11,0,0,0,19.25,6,110.71,110.71,0,0,0,30.94,1.59,137.88,137.88,0,0,0,23-3.94,151.47,151.47,0,0,0,18.12-5.89l2-.8,1.58-.7,3.09-1.39q3-1.41,5.89-2.8c2.35,1.38-4.59,4.05-4.3,5.69.69.55,3.37-.13,6.73-1.24,1.67-.55,3.52-1.21,5.37-1.87l5.35-2c-.26.75-3.4,2.56-7.77,4.37-2.18.93-4.64,1.91-7.16,2.86l-3.81,1.4-1.88.66-.93.32-1.05.35c-6.12,2-11.74,3.26-14,3.37-1.11.06-1.37-.17-.44-.74a59.08,59.08,0,0,1,6.4-3c-6.75,2-10.9,3.36-15.32,4.72-2.21.67-4.53,1.3-7.39,1.91a85.17,85.17,0,0,1-10.94,1.51c4.61-.19,7.63-.38,9.84-.38a14.78,14.78,0,0,1,4.22.35c1.53.48,1,1.41,1.21,2.14s1.06,1.27,5.21.81,11.54-1.95,23-6.14c-.53,1.17-6,3.2-11.82,5s-11.78,3.26-11.66,4.32a56.23,56.23,0,0,1-9.82.54,41.68,41.68,0,0,1-6.8-.83c-2-.41-3.79-.86-5.92-1.33-1-.23-2.15-.45-3.43-.68s-2.61-.42-4.24-.66a88.26,88.26,0,0,1-18-.37l-3.06-.39c-1.06-.16-2.16-.35-3.27-.55-2.18-.37-4.63-1-7-1.53a100.5,100.5,0,0,1-16-5.66,94.92,94.92,0,0,1-17.1-10.11,96.08,96.08,0,0,1-21.6-22.45q-1.46-2.16-2.84-4.38c-.89-1.49-1.75-3-2.58-4.54a97.73,97.73,0,0,1-7.58-18.59,103.25,103.25,0,0,1-3.41-17.08c-.14-1.29-.26-2.56-.37-3.82s-.16-2.41-.22-3.59c-.13-2.39-.13-4.49-.13-6.6a180.24,180.24,0,0,1,1.27-18.51c.24-2.07.41-3.78.47-5a5.12,5.12,0,0,0-.18-2.29c-.2-.31-.54-.13-1,.6a11.74,11.74,0,0,0-.88,1.51c-.33.66-.69,1.51-1.1,2.51a91.64,91.64,0,0,1,4-17.81,124.7,124.7,0,0,1,7.2-17c1.38-2.72,2.82-5.32,4.31-7.89.75-1.27,1.5-2.53,2.26-3.76l1.14-1.83c.38-.6.8-1.27,1.08-1.66,2.48-3.68,5-7.43,7.57-11.18,10.13-15,19.76-30.09,21.28-41.45C698,1057.27,708.17,1020.27,748.34,942.66Z"/><path class="b" d="M803.25,1310.41c11.61-3.83,24.2-6.11,13.65,1.22C804.59,1316.73,803.64,1313.67,803.25,1310.41Z"/><path class="b" d="M840.05,1289.78c8.3-4.45,12.25-5.4,15.7-6.06a40.87,40.87,0,0,0,12.81-4.16,27,27,0,0,1-7.2,5.3c-1.52.84-3.15,1.63-4.8,2.36s-3.36,1.32-5,1.86C845,1291.22,839.47,1291.92,840.05,1289.78Z"/><path class="b" d="M918,1256.4c-.09-1.38,1.7-3.18,4.64-5.37s7-4.85,11.53-7.72l3.5-2.21,3.55-2.38c2.39-1.61,4.82-3.28,7.19-5A91.77,91.77,0,0,0,961.15,1223c.44,2.31-6.14,8.12-15.06,14.44-2.22,1.6-4.56,3.26-7,4.93l-7.36,4.87Z"/><path class="b" d="M989.42,1200.34c3.21-4.14,5.24-7.51,8.32-11.75a77.85,77.85,0,0,1,5.86-7c1.23-1.31,2.62-2.69,4.17-4.22s3.25-3.2,5.19-5a46.48,46.48,0,0,1-7.76,11.93q-2.91,3.48-6.82,7.53l-2,2.06-2.19,2.07Q991.93,1198.11,989.42,1200.34Z"/><path class="b" d="M819.46,663.91q-3.71-.81-7.05-1.64c-2.23-.56-4.35-1-6.34-1.55q-6-1.54-10.49-3.17a52.11,52.11,0,0,1-7.58-3.34,17.38,17.38,0,0,1-4.68-3.41C793.92,655,818.41,658.76,819.46,663.91Z"/><path class="b" d="M844.3,1195c25.46-40.62,52.8-84.1,69.12-126.25q9.83-16.61,20.15-34l21.09-35.47C969,975,984.21,949,998.81,921.06s28.61-57.65,40.37-89,21.19-64.39,26.62-97.61c.92-2.81,1.86-5.63,2.68-8.55s1.52-5.93,2.24-9,1.41-6.06,2.07-9.13c.32-1.54.65-3.08,1-4.62.15-.78.32-1.54.46-2.33l.39-2.39c1-6.36,1.93-12.81,2.77-19.31.2-1.63.4-3.26.61-4.89s.27-3.32.41-5l.75-10c.23-3.34.45-6.69.68-10,.05-.85.12-1.63.15-2.54l.08-2.73.16-5.44.14-5.44c0-1.81,0-3.6,0-5.4,0-3.6,0-7.18-.05-10.76-.31-14.27-1-28.28-2-41.91a414.12,414.12,0,0,0-6.28-48.39,397.9,397.9,0,0,0-12.3-47.89,385.31,385.31,0,0,0-44.16-92.7,349.37,349.37,0,0,0-74.79-82.15,322.36,322.36,0,0,0-49.62-32.17A312.65,312.65,0,0,0,835.53,249a241.6,241.6,0,0,0-39.79-8.61c-1-.13-2-.25-3.12-.36l-3.22-.33-3.21-.29-3.45-.23-3.47-.19c-1.15-.06-2.27-.11-3.55-.13q-3.72-.09-7.44-.06a187.94,187.94,0,0,0-33.83,3.49A175.34,175.34,0,0,0,696,254.76q-4.87,2.28-9.61,4.79c-3.15,1.7-6.23,3.53-9.28,5.41l-2.27,1.43-2.18,1.45c-1.44,1-2.87,2-4.29,3s-2.86,2.05-4.17,3.07-2.64,2.06-3.94,3.12a173.29,173.29,0,0,0-25.86,26A186.75,186.75,0,0,0,618,327.35a196.46,196.46,0,0,0-10.36,21.08c-2.69,6.42-4.85,12.38-6.57,17.72-1.51,4.93-3,9.87-4.33,14.82s-2.43,10-3.52,15a291.94,291.94,0,0,0-6,59.8,306.3,306.3,0,0,0,5.47,56.71A327.83,327.83,0,0,0,606.93,564a364.34,364.34,0,0,0,46.3,86.63,400.79,400.79,0,0,0,32.19,44.24A366,366,0,0,0,726.74,733c1.82,1.48,3.69,2.91,5.59,4.33L738,741.6c1,.74,1.85,1.31,2.76,1.95l2.72,1.88,5.46,3.74,5.47,3.72,2.74,1.85c.92.61,1.85,1.16,2.78,1.75l11.15,6.89C801,781.59,832,796,863.51,809.86c2,.89,4.08,1.83,6.11,2.68l6.09,2.55c4.06,1.69,8.17,3.47,12.24,5.13,8.09,3.25,16.32,6.68,24.4,9.8l6.1,2.41c2,.82,4.08,1.62,6.08,2.38l12.13,4.69,24,9.18,23.66,9.07L996,862.27l11.51,4.53,11.35,4.56L1030,876c7.47,3.07,14.89,6.31,22.33,9.52,29.7,13,59.07,27.08,87.61,41.71s56.21,29.87,82.6,45.1c-.51,2-2.73,3.63,7.38,8.43,11.6,7.13,23,14.47,34.22,21.91,5.63,3.72,11.18,7.53,16.74,11.29s10.6,7.39,15.27,10.84c9.19,6.85,16.68,13.18,21.79,18.61,1.36,1.36,2.4,2.65,3.52,3.89l1.38,1.77c.1.14.25.3.31.41l.17.32.36.61a46.07,46.07,0,0,1,2.5,5,40.85,40.85,0,0,1,2.85,12,43.67,43.67,0,0,1,.09,5.82l-.08.7c0,.25,0,.6,0,.89,0,.62-.07,1.28-.07,1.91-.08,1.3-.14,2.63-.28,4a95.21,95.21,0,0,1-3.28,17.51,91.1,91.1,0,0,1-6.61,16.84c-.61,1.11-1.11,2.26-1.64,3.31-.14.28-.22.54-.38.85l-.59,1c-.38.68-.74,1.36-1.08,2.06l-.5,1.06-.25.53c-.09.18-.21.34-.31.51-.44.68-.85,1.37-1.26,2.06s-.8,1.4-1.19,2.11-1,1.34-1.46,2c-3.81,5.44-8.91,10.67-16.33,13.82-5.07,6.8-12.64,13.91-22.09,20.44-1.12.89-2.41,1.6-3.65,2.4l-3.74,2.39c-2.59,1.53-5.3,3-8,4.52l-4.19,2.07-2.1,1.06c-.7.36-1.39.73-2.13,1l-4.34,1.92c-1.44.65-2.87,1.35-4.37,1.89-2.4.46-4.83,1-7.37,1.58s-5.21,1-7.93,1.53l110.26,30.46a244.38,244.38,0,0,0-46.19-34.59,262.72,262.72,0,0,0-52.17-22.85l-6.5-1.94-3.27-.94-3.21-.84-6.45-1.65-6.35-1.42-3.18-.69-3.12-.61-6.26-1.16-6.13-1c-2.05-.32-4.1-.63-6.09-.87a362.36,362.36,0,0,0-45.52-3.13,482.3,482.3,0,0,0-73.72,5.45l-7.59,1.17-7.18,1.21c-4.5.8-8.87,1.62-13.08,2.45s-8.39,1.69-12.35,2.55-7.72,1.72-11.4,2.64c-23.07.25-45.53,3.09-68.56,7.34s-46.65,9.84-72.67,16.25c-4.31,1.09-8.61,2.11-13,3.29l-13.2,3.76c-2.22.64-4.42,1.25-6.65,1.93l-6.73,2.18c-4.49,1.47-9,2.93-13.52,4.45l-13.7,5.09c-2.29.86-4.58,1.7-6.88,2.6l-6.91,2.91c-4.62,2-9.24,3.89-13.88,5.94l-13.91,6.69c-2.31,1.14-4.65,2.2-7,3.45l-6.93,3.75-6.93,3.81-3.47,1.91-1.74,1-1.83,1.1-7.37,4.46c-2.47,1.48-4.82,3.08-7.23,4.64-4.83,3.1-9.46,6.43-14.14,9.74-2.33,1.67-4.58,3.42-6.87,5.15s-4.57,3.46-6.77,5.28l-6.67,5.43-6.51,5.63-3.24,2.84-3.16,2.93c-2.11,2-4.23,3.92-6.31,5.91-4.09,4.07-8.25,8.09-12.18,12.37a350.49,350.49,0,0,0-61.34,88.44,337.16,337.16,0,0,0-14.56,35.47c-1.06,3.08-2,6.24-3,9.38-.49,1.57-1,3.12-1.44,4.72l-1.3,4.83-1.28,4.83-.63,2.42-.56,2.47-1.09,5-1.1,5.15a294.72,294.72,0,0,0-5,42.16,284.23,284.23,0,0,0,1.62,42.56,278.17,278.17,0,0,0,8.5,41.85,272.47,272.47,0,0,0,41,83.23l1.7,2.36,1.73,2.29,3.43,4.46c2.28,2.92,4.64,5.72,7,8.56s4.79,5.49,7.22,8.2,4.92,5.28,7.43,7.84a322.87,322.87,0,0,0,31.4,28,355,355,0,0,0,68.26,41.76,372.14,372.14,0,0,0,36.06,14.61c3.06,1,6.11,2.07,9.19,3l4.63,1.42c1.54.47,3.11,1,4.55,1.34l8.85,2.42c2.94.77,5.91,1.65,8.82,2.28a494.86,494.86,0,0,0,68.47,11.46c22,2.18,43.08,3,63.12,3.13s39.1-.44,57.17-1.2l13.38-.62,13-.66,6.39-.33,4.2-.24,3.34-.22,3.51-.3,1.75-.17,1.85-.21,3.71-.46c1.23-.16,2.63-.38,3.93-.58l2-.32c.65-.11,1.31-.22,2-.36l4.29-.85,2.17-.47,2.35-.55c1.56-.38,3.11-.78,4.67-1.19s3.43-1,5.13-1.52l3.51-1.33c1.29-.52,2.58-1.05,3.85-1.59s2.53-1.09,3.78-1.65l1-.43,1.06-.5,2.1-1q2.1-1,4.14-2.1l2-1.09,2.3-1.3q2.28-1.32,4.5-2.7l2.21-1.39,1.1-.71,1.23-.84c3.29-2.26,6.45-4.61,9.53-7.1,3.43-2.86,6.73-5.87,9.85-9,.75-.73,1.62-1.66,2.44-2.56s1.65-1.81,2.46-2.73q2.41-2.76,4.67-5.63l1.11-1.44.55-.73.57-.78c.76-1.06,1.5-2.12,2.22-3.19q2.19-3.23,4.17-6.56a112.73,112.73,0,0,0,7-13.93c1-2.39,2-4.85,2.83-7.22s1.55-4.75,2.22-7.15a110.8,110.8,0,0,0,3.15-14.64c.37-2.49.67-5,.9-7.48s.33-5,.39-7.52,0-5-.06-7.5-.29-4.82-.54-7.23c-.12-1.2-.26-2.4-.41-3.6l-.24-1.78-.28-1.67c-.37-2.23-.8-4.46-1.29-6.67-.24-1.1-.5-2.2-.77-3.3s-.53-2-.81-3q-.85-3-1.83-5.94c-.67-2.06-1.29-3.69-2-5.45s-1.4-3.47-2.14-5.18c-.39-.9-.72-1.59-1.08-2.36l-1.09-2.26q-1.11-2.25-2.29-4.46c-.72-1.31-1.45-2.6-2.21-3.89l-1.15-1.92c-.37-.62-.8-1.32-1.14-1.84-.72-1.12-1.45-2.23-2.19-3.34l-1.13-1.65-.57-.81-.52-.73-2.13-2.87-1.09-1.43-1-1.29a152,152,0,0,0-14.64-15.81l-1.56-1.45c-.48-.43-.95-.87-1.44-1.3l-.72-.65-.46-.39-.87-.72-3.55-2.93c-2.43-2-5-4-7.67-6.06q-4.65-5.12-9.91-10.6l-5.4-5.58c-1.85-1.88-3.77-3.76-5.72-5.68-7.81-7.65-16.25-15.75-25.24-24s-18.53-16.64-28.33-25.11-20-16.9-30.22-25.26c-41-33.41-83.84-64.61-114.68-85.11-7.23-7.82-16.48-16-26.9-24.79s-22.2-17.78-34.52-27.19c-6.14-4.72-12.53-9.39-19-14.17s-12.91-9.62-19.41-14.48-13.06-9.67-19.48-14.57q-4.83-3.68-9.56-7.38l-9.43-7.33q-7.3-5.74-14.3-11.52l-13.81-11.38c-9.1-7.46-17.89-14.78-26.58-21.56s-17.28-13-25.81-18.6a179.93,179.93,0,0,0-25.72-14l-11.66-8-6.21-4.16-6.36-4.17c-8.58-5.57-17.54-11.15-27-16.66a499.51,499.51,0,0,0-63-31.46A380.22,380.22,0,0,0,495.51,1137l-2.51-.73c-.87-.25-1.63-.48-2.63-.74l-5.74-1.5c-3.82-1-7.68-1.86-11.55-2.72-7.73-1.68-15.56-3-23.42-4.13a268.23,268.23,0,0,0-95.44,4,262.29,262.29,0,0,0-85.35,37.07c-1.66,1.09-3.32,2.16-4.95,3.27L259.1,1175l-4.79,3.53c-1.59,1.2-3.22,2.35-4.74,3.63q-4.65,3.77-9.25,7.61c-.76.65-1.54,1.28-2.29,1.94l-2.22,2-4.43,4.07L227,1201.9c-1.47,1.37-2.85,2.84-4.27,4.27-2.82,2.88-5.65,5.78-8.42,8.73-5.37,6.07-10.82,12.14-15.78,18.65l-4.72,6.07c-1.57,2-3,4.21-4.55,6.32L185,1252c-1.43,2-2.69,4-4,6.09-5.32,8.17-10.2,16.66-14.8,25.38-2.21,4.4-4.48,8.85-6.55,13.3s-3.95,8.93-5.86,13.44-3.51,9.12-5.21,13.73-3.09,9.28-4.58,14a319.5,319.5,0,0,0-12.7,115.77,398.25,398.25,0,0,0,17.13,74l1.46,4.4,1.56,4.33,3.18,8.65,3.42,8.49c1.15,2.83,2.29,5.66,3.56,8.42l3.74,8.31c1.23,2.78,2.62,5.47,3.94,8.2s2.66,5.45,4.09,8.11l4.3,8c1.42,2.67,2.94,5.28,4.47,7.89l4.62,7.81,4.87,7.67c1.63,2.55,3.27,5.1,5,7.59s3.46,5,5.2,7.48,3.6,4.91,5.42,7.36,3.63,4.9,5.58,7.27l5.79,7.14c1.92,2.39,4,4.69,6,7s4.07,4.64,6.17,6.92l6.43,6.77,3.25,3.36,3.37,3.28,6.8,6.54,7.08,6.34,3.58,3.15c1.22,1,2.46,2,3.7,3.07l7.48,6.07c1.94-.35,1.24-3.65,8.71,2.06q2.13,1.85,4.37,3.7l1.12.93,1.11.86,2.25,1.73c3.05,2.3,6.19,4.7,9.52,7s6.77,4.58,10.34,6.84,7.28,4.43,11.06,6.66a394.08,394.08,0,0,0,49.67,23.71c17.56,7,35.76,13.06,53.66,18.37s35.55,9.94,52.2,14.43a483.23,483.23,0,0,0,80.36,2.5A690.45,690.45,0,0,0,638,1787c3.51-.56,7-1.23,10.59-1.88l5.36-1,5.39-1.06c3.61-.71,7.25-1.43,10.92-2.23s7.4-1.53,11-2.42l11.09-2.58c3.73-.87,7.54-1.68,11.29-2.69l11.47-2.93,5.84-1.46c2-.48,3.88-1.07,5.85-1.6,31.42-8.46,65.13-18.93,102.11-31.7,3.28-2.13,6.83-4.32,10.63-6.53q2.87-1.67,5.89-3.34l3.08-1.69,3.11-1.74q6.32-3.51,13.24-7.1c4.63-2.38,9.3-4.92,14.2-7.42,19.52-10.06,41.18-20.91,63-32.2,10.88-5.66,21.89-11.37,32.68-17.11,5.45-2.86,10.77-5.75,16.09-8.61l7.94-4.28,7.91-4.35c21-11.55,41.05-23.37,58.13-34.76,13.92-7.35,30-16.3,46.94-26.37s34.7-21.27,52-32.94,34-23.8,49-35.15l21.15-16.15c6.5-5.13,12.56-9.62,17.89-13.6,2-2.07,4.08-4.07,6.07-6.16l5.93-6.31c4-4.15,7.77-8.57,11.63-12.93,1.94-2.16,3.81-4.45,5.69-6.73l5.64-6.88c1.87-2.34,3.69-4.77,5.54-7.18s3.72-4.83,5.51-7.38l5.41-7.72c.9-1.31,1.82-2.61,2.71-3.94l2.63-4.09q2.63-4.14,5.3-8.36c1.73-2.87,3.42-5.83,5.14-8.82,3.51-5.91,6.68-12.32,10-18.84,1.62-3.3,3.15-6.72,4.74-10.17.79-1.74,1.58-3.48,2.37-5.24l2.22-5.43c2.12-4.17,4.17-7.68,6-11s3.54-6.46,5.33-9.72c.88-1.64,1.77-3.32,2.68-5.1s1.68-3.64,2.55-5.65,1.74-4.17,2.63-6.52,1.89-4.92,2.68-7.69c.17-2.55.47-5.34.87-8.38q.3-2.28.69-4.74c.26-1.64.54-3.33.77-5.07.95-7,2.49-14.87,3.77-23.44q1.29-4.54,2.62-9.27,1.13-4.68,2.3-9.53.57-2.43,1.14-4.9l.57-2.48c.17-.82.33-1.64.5-2.47q1-5,2-10.07c.32-1.7.67-3.43,1-5.14s.54-3.42.82-5.14q.79-5.19,1.61-10.5c.44-3.49.89-7,1.33-10.59.22-1.78.43-3.58.65-5.38s.36-3.56.54-5.36c.33-3.59.66-7.2,1-10.85s.52-7.21.78-10.87c.53-7.35.79-14.52,1.12-21.9.48-14.52.68-29.18.57-43.46q0-5.33-.11-10.68t-.17-10.61c-.14-7-.29-14-.51-21-.41-14-.95-28-1.62-41.77-1.33-27.54-3.16-54.27-5.34-78.85,4.58-11.44-2.42-37.58,2.11-50.52-3.17-41.34-7.23-83.55-11.52-126.22-2.16-21.5-4.5-44.13-7.7-67.63s-7.26-48-13.17-73.15A487,487,0,0,0,1322,543.11c-.68-1.62-1.27-3.23-2-4.85l-2.22-4.86-4.48-9.68c-.38-.81-.74-1.62-1.14-2.42l-1.25-2.4-2.51-4.8-5.06-9.58c-1.79-3.16-3.7-6.29-5.56-9.43s-3.73-6.28-5.68-9.37l-6.06-9.17-6.32-8.93a410.11,410.11,0,0,0-57.1-62.69A583.49,583.49,0,0,0,1160,356.32c-10.45-15.17-27.63-30.82-42.58-44.36s-27.71-25.58-29.67-35.62c-7.15-4.35-17.18-9-26-13.29s-16.55-8.25-19.22-11.56c2.08-1.43.39-3.34-2.16-5.37s-5.89-4.07-7.17-5.92c-6.23-3-13.57-6.24-21.45-9.67l-12.6-5.19c-2.16-.89-4.43-1.76-6.73-2.63l-7-2.65a522.94,522.94,0,0,0-64.67-19.45,413.33,413.33,0,0,0-74.31-10.29q-4.71-.19-9.32-.31c-1.53-.06-3.09-.06-4.65,0l-4.64.06c-3.08,0-6.12.12-9.12.21-1.5.06-3,.09-4.47.18l-4.48.32c-6,.48-11.65,1-17.21,1.7s-11,1.71-16.07,2.7c-1.25.49-2.49,1-3.75,1.48l-3.81,1.6-7.54,3.25c-2.48,1.08-4.92,2.18-7.3,3.27l-3.66,1.72-3.62,1.76c-9.44,4.68-17,9.53-21.07,13.72s-4.59,7.65,0,10,14.24,3.43,30.8,4.41c-.65,3.5.46,6.78,2.38,10a64.4,64.4,0,0,0,7.26,9.49c5.45,6.21,11,12.27,11.23,18.27.16,3-1,6-4,9s-7.71,5.84-15.32,9.27S740.69,299.44,728,304.5c-6.37,2.48-13.39,5.43-21.18,8.77s-16.24,7.34-25.44,12.06c-9.15,10.8-18.25,21.61-22.33,30.66a27.6,27.6,0,0,0-2.1,6.36,12.63,12.63,0,0,0,.12,5.5c.89,3.31,3.51,5.88,8.25,7.71,17.17-6.63,31.22-8.31,46.77-9.81,7.77-.73,16-1.25,25.25-1.86s19.65-1.24,31.83-1.61c-4.76,2.07-4.72,2.93-3.42,3.59s3.92,1.2,4.48,2.76c5.45-.71,11.75-1.23,18-1.92,3.15-.27,6.33-.4,9.42-.58l4.58-.24,4.43,0c2.88,0,5.6.11,8.07.25a56.46,56.46,0,0,1,6.63.88c3.81.74,6.29,1.77,6.8,3.25a175.89,175.89,0,0,0-18.7-.12c-2.78.16-5.42.26-7.92.54s-4.84.65-7.09,1l-3.29.54-1.58.27-1.54.36q-3,.72-5.82,1.46c-1.85.5-3.64,1-5.37,1.51l-5,1.72c-6.42,2.4-12.28,5-18.81,7.93s-13.72,6.12-22.72,10c-2.24,1.73-4.25,3.36-6,5a59.61,59.61,0,0,0-4.54,4.79,51,51,0,0,0-3.34,4.53,40.8,40.8,0,0,0-2.31,4.3,30.87,30.87,0,0,0-2.37,7.82,41.21,41.21,0,0,0-.51,7.08c0,2.26.07,4.36.1,6.67a47.27,47.27,0,0,1-.28,6.71,40.49,40.49,0,0,1-5.08,15c-2.14,1.11-3.78,2-5.23,2.83A34.87,34.87,0,0,0,697,462.6c-2.31,1.69-4.46,3.87-7.35,8.14,1.32,5,4.62,5.53,6.59,7a3.8,3.8,0,0,1,1.8,3.21,9.22,9.22,0,0,1,0,1.36,13.15,13.15,0,0,1-.22,1.71c-.11.63-.27,1.31-.48,2.06s-.37,1.61-.63,2.5a12.83,12.83,0,0,0,2.51-.5,15.91,15.91,0,0,0,2.32-.9,22.59,22.59,0,0,0,4.3-2.88c2.93-2.31,6.09-5.45,10.54-8.69,7.83,2.42,18.08.35,30.58-1.9,6.2-1.16,13-2.21,19.92-2.92a117.21,117.21,0,0,1,20.37-.35l1.71-.25.85-.14c.28,0,.56-.09.91-.11l4-.4,3.92-.42,4-.16,4-.19c1.31-.06,2.7,0,4,0,2.7.05,5.31,0,8.07.21l4.05.25,2,.12c.66,0,1.37.15,2,.21,2.75.32,5.45.58,8.17.92l8.23,1.28c2.74.46,5.54,1.07,8.26,1.59,11,2.3,22.11,5.28,33.21,8.74S907,489.65,918.27,494s22.85,9.08,34.51,13.9,22.68,9.63,33.51,14.47,21.27,9.71,31.47,14.62,20,9.9,29.54,14.93c-.51,2.06.86,4.51,3.27,7.14a69.23,69.23,0,0,0,9.56,8.17c3.8,2.72,7.72,5.45,11.57,7.82,1.83,1.22,3.78,2.31,5.45,3.35.86.51,1.72,1,2.55,1.43s1.57.89,2.32,1.27c1.07,3-.39,5.28-1.22,7.68a8.07,8.07,0,0,0-.56,3.8,9,9,0,0,0,1.91,4.66c3.69,1.34,4.35,0,4.26-2-.05-1-.2-2.25-.3-3.37a3.9,3.9,0,0,1,.56-2.88c.58.33,1.21.7,1.87,1.11s1.26.86,1.93,1.34c1.4,1,2.73,2.07,4.15,3.25a59.9,59.9,0,0,1,7.8,8l.88,1.07.78,1.1,1.5,2.17c.85,1.55,1.66,3,2.37,4.42a18.16,18.16,0,0,1,1.59,4.17,15.7,15.7,0,0,1,.64,3.48l.68.6c.21.22.41.47.62.71l1.25,1.53c.84,1.05,1.7,2.17,2.57,3.35a15.86,15.86,0,0,1,1.23,2c.4.69.8,1.4,1.21,2.12l1.24,2.2a20.16,20.16,0,0,1,1.21,2.37c1.48,3.44,3.18,6.85,4.54,11,.36,1,.73,2,1.1,3l.56,1.54c.18.52.33,1.1.5,1.65.68,2.22,1.36,4.47,2,6.73.37,1.1.67,2.32,1,3.53s.63,2.43.95,3.64l1,3.65c.33,1.2.58,2.55.89,3.81.58,2.57,1.19,5.13,1.81,7.68s1.11,5.33,1.7,8c.29,1.32.59,2.63.88,3.93s.55,2.71.82,4.06c.56,2.68,1.15,5.31,1.74,7.92s1.12,5.33,1.72,7.91,1.24,5.16,1.84,7.63c-3.86,15.89-5.69,39.53-4.29,78.34,4.59.45,7.77,8.58,11.09,15.8,6.15,51.94,5.61,92.2,5,132s-1.52,79.24,3.34,129.84c-1.67,13.95-2.39,31.2-2.94,49.35-.27,8.83-.56,18.13-.85,27.73-.2,4.56-.4,9.2-.6,13.89-.13,2.28-.25,4.57-.38,6.87l-.18,3.46c-.09,1.11-.17,2.23-.25,3.36-2.68,11.22-5.68,22.24-8.85,33a318.73,318.73,0,0,1-10.5,30.54c-2,4.69-3.9,9.35-6,13.67-.54,1.09-1,2.24-1.56,3.31s-1.14,2.16-1.69,3.26c-1,2.2-2.33,4.35-3.5,6.54a255.78,255.78,0,0,1-17,26.59c-13.08,18-30.09,36.93-50.6,55.89s-44.07,37.81-68.35,56c-17.71,3.15-37.45,13.21-58.75,24.82l-16.18,8.91-8.24,4.52-4.13,2.24-4.2,2.24c-5.59,3-11.21,5.92-16.65,8.56s-10.86,5.18-16.11,7.35c-16.69,7-33.27,13.07-49.69,18.82-16.35,5.57-32.52,10.79-48.29,15.69-4,1.27-7.85,2.37-11.75,3.61l-5.84,1.84-5.78,1.74c-3.84,1.15-7.68,2.4-11.48,3.59s-7.55,2.29-11.3,3.51-7.46,2.32-11.16,3.56-7.4,2.53-11,3.66-7.27,2.45-10.9,3.8-7.18,2.46-10.77,3.82c-6.81,1.69-1.51,4.09-7.42,5.63-5.43,1-11.07,2.18-16.76,3q-4.29.73-8.69,1.56c-2.81.41-5.64.92-8.52,1.33-11.47,1.68-23.47,3.13-35.53,3.88-24.12,1.59-48.52.58-69.24-3.67-14.85-2.93-28.12-8.24-40.11-14.06s-22.66-12.26-33.44-18.09c-1.53-.89-3.15-1.65-4.59-2.55l-2.22-1.27-1.1-.61-.91-.54c-.61-.36-1.22-.7-1.83-1a20.37,20.37,0,0,1-1.82-1c-1.19-.75-2.43-1.4-3.62-2.12-4.81-2.85-9.41-5.91-14-8.82-2.34-1.42-4.52-3-6.84-4.33-1.12-.72-2.21-1.45-3.35-2.14l-1.72-1-1.65-1.06c-1.11-.69-2.27-1.35-3.41-2s-2.22-1.36-3.36-2l-1.74-1-1.68-1q-1.69-1-3.48-1.86a148.21,148.21,0,0,0-9.59-15.08,180.54,180.54,0,0,1-10-15.72,61.72,61.72,0,0,1-6.67-16.7,29.82,29.82,0,0,1,.64-16.17c-1.44-3.83-5.43-3.26-4.55-10.54a6.26,6.26,0,0,1,1.45-4.53c.36-.42.74-.76,1.11-1.13a6.38,6.38,0,0,0,.52-.61,4.69,4.69,0,0,0,.55-.72c-4.8-.73-4.16,2.12-7.59-1.45a120.64,120.64,0,0,0,.64,18.44,53,53,0,0,0,5.1,17.15,44.43,44.43,0,0,1-.21,5.16,24.19,24.19,0,0,0,.19,2.89c.08.55.17,1.14.3,1.78s.38,1.34.62,2.1a169.42,169.42,0,0,0,14,23,193.69,193.69,0,0,0,18.84,22,178.17,178.17,0,0,0,22.64,19.14l1.48,1.07.74.54.77.49c1,.66,2,1.33,3,2s2.06,1.24,3.06,1.89l1.51,1c.51.31,1,.58,1.55.87,1,.59,2,1.17,3.08,1.8s2.4,1.33,3.59,2,2.44,1.31,3.65,2,2.42,1.35,3.71,2,2.42,1.24,3.61,1.88,2.48,1.19,3.7,1.81,2.48,1.21,3.73,1.8,2.45,1.25,3.76,1.8c5,2.39,10.29,4.59,15.57,6.8s10.81,4.12,16.33,6l4.2,1.31,2.09.67,2.13.6,4.23,1.2,4.27,1.09c1.4.39,2.84.69,4.27,1s2.84.66,4.27.94c2.89.53,5.69,1.15,8.57,1.55l4.24.65,4.25.51,2.09.25,2.11.17,4.16.33A123.49,123.49,0,0,0,578.4,1550a11.25,11.25,0,0,1,4.64,1.12,5.65,5.65,0,0,1,2.08,1.88c1,1.38,1.71,2.86,5,3.51,10.29-2.41,20-2.59,30.44-2.86,5.21-.15,10.57-.29,16.18-.84l4.26-.45c1.45-.18,3-.46,4.5-.72,3.06-.54,6.19-1.16,9.4-1.91,9.08-2.39,17.18-5.91,25.59-9.86l6.38-2.87c2.17-1,4.38-2,6.65-3s4.6-1.89,7-2.76,5-1.89,7.6-2.74c21.38-7,39.64-12.29,59.16-18.56a523.57,523.57,0,0,0,66.95-26.38c12.81-1.31,32.05-9.9,49.13-17.73,4.29-2,8.44-3.9,12.3-5.61,1.93-.85,3.78-1.65,5.55-2.38s3.38-1.39,4.93-2c6.2-2.29,10.66-3.25,12.47-1.81-2,2.33-5.24,4.28-9.13,6.06-1.95.9-4,1.75-6.23,2.59l-6.88,2.54c-4.66,1.7-9.45,3.54-13.7,5.56a37.83,37.83,0,0,0-10.89,7.31c5-1.77,10.22-3.8,14.84-5.28s8.65-2.5,11.06-2.08c-2.79,2-5.44,4-8,6s-4.94,3.87-7.26,5.78c-4.64,3.81-8.92,7.55-13,11.13s-7.91,7.23-11.7,10.73L846.43,1515A291.37,291.37,0,0,1,820.57,1536a259.32,259.32,0,0,1-36.29,21.68c-25.47,9.62-47,17.36-65.75,24.07-2.35.9-4.66,1.68-6.92,2.47l-6.68,2.38c-2.19.78-4.34,1.62-6.45,2.36l-6.24,2.18-6,2.19-2.94,1.1c-1,.36-2,.67-2.91,1q-5.75,2-11.18,4c-2.57.47-5.14.75-7.72,1.09l-7.8,1-3.92.53-3.87.42c-2.59.27-5.18.57-7.79.78-10.44,1-21.1,1.61-31.89,1.87a415.05,415.05,0,0,1-65.59-3.41c-43.78-5.85-86.33-19.74-120.64-42.52-2.15-1.42-4.32-2.82-6.38-4.34l-3.14-2.22c-1-.74-1.9-1.46-2.86-2.19l-2.85-2.16-2.78-2.3c-.92-.78-1.88-1.49-2.78-2.31l-2.71-2.42a196.78,196.78,0,0,1-20.38-21.21,202.23,202.23,0,0,1-30.29-49.92,176.82,176.82,0,0,1-13.42-52,140.59,140.59,0,0,1,3.14-46.47q1.29-2.4,2.45-4.75c.36-.81.84-1.5,1.25-2.24l1.23-2.18c.74-1.48,1.73-2.85,2.57-4.26l1.26-2.12,1.4-2c.93-1.34,1.72-2.76,2.74-4l1.33-1.83a20.81,20.81,0,0,1,1.24-1.69c.91-1.1,1.79-2.22,2.63-3.38s1.88-2.17,2.77-3.31A148.75,148.75,0,0,1,368.94,1327a100.06,100.06,0,0,1,16.58-12c1.11.08,2.21.06,3.33.06s2.32.11,3.48.08c.59,0,1.16-.06,1.75-.07s1.22,0,1.82,0c1.23,0,2.43-.1,3.68-.12,4.72,0,9.69-.06,14.89.15a151.57,151.57,0,0,1,16.18,1.6c1.38.3,2.8.42,4.19.75l2.11.39c.7.17,1.41.32,2.12.47s1.6.36,2.54.6,1.89.44,2.87.73c2,.56,3.93,1.06,6,1.71a244.68,244.68,0,0,1,25.76,9.46c8.93,3.84,18,8.25,27,13s17.73,10,26.05,15.21c2.11,1.35,4.1,2.61,6.19,4l6.11,4.11c4,2.71,7.75,5.37,11.3,8s6.87,5.12,9.92,7.59,5.81,4.91,8.28,7.25c7.56,1.16,17.69,5.45,28.89,11.67,5.57,3.15,11.42,6.76,17.36,10.67s12,8.1,17.88,12.54c11.8,8.84,23.33,18.1,32.92,26.78s17.57,16.34,22.28,22c7-.36,18.77,6.56,31.16,16a427.1,427.1,0,0,1,35.1,30.71c-1.09,1.55-20.48-10.7-2.37,3.07,8.16,6.8,9.52,5.16,14.38,7.87,3,4.09,6.67,8.56,9.7,12.75s5.44,8.07,5.9,11.05c15.11,13.08,19.42,12.72,34.38,26-5.83-1.43-10.7-1.58-20.76-8.53-5.86-4.23-10.39-7.64-14-10.7a97.9,97.9,0,0,1-8.47-8.09c-4.53-4.85-7.45-9-13.15-14.33-1.44,3,5.65,9.48-7.4.8-.39-5.39-7.53-10.29-15.38-15.61s-16.54-10.88-19.92-17.94c8.1,5.89,14.85,10.16,18.75,10.94l-27.72-18.64c-9.4-6.18-18.58-12.09-26.36-17,4.65,3.37,10.65,8.63,3.56,4.24,36,31.12,70.83,61,105.1,90.35s67.88,58.18,101.26,87.2l6.28,5.42,6.23,5.47,12.47,10.93c8.37,7.24,16.61,14.62,24.91,22l12.47,11,12.39,11.16L981.37,1741l1.56,1.4.26.22.07.07.16.12v0l3.83-3.92,4.6-4.6,2.32-2.29,1.6-1.61q3.13-3.16,6.37-6.25l3.25-3.07,2.46-2.36q2.43-2.31,4.94-4.54L1014,1713c.23-.2.4-.35.55-.5l.49-.45,2-1.77q2-1.77,4.08-3.45l1.73-1.47,1.7-1.39,1.74-1.35c.57-.44,1.23-.91,1.66-1.27,1-.76,1.94-1.5,3-2.22l1.53-1.05c.51-.34.86-.62,1.31-.93.85-.59,1.72-1.16,2.62-1.71s1.58-1,2.37-1.46,1.54-.87,2.34-1.26c.62-.37,1.27-.71,1.93-1s1.44-.61,1.89-.85c1-.48,2.36-.88,3.09-1.15.43-.14.93-.25,1.34-.35a8.81,8.81,0,0,1,1-.22l.51-.06.3,0a4,4,0,0,1,.61,0h.39l-.2,0h-.06c.64.14-.89-.18-.7-.15l.25,0a4.25,4.25,0,0,1,.56.15l.3.11.06,0h0l.08,0-.05,0a3.37,3.37,0,0,1-.34-.21,3,3,0,0,0-.41-.32,6.05,6.05,0,0,1-.65-.55c-.22-.21-.29-.34-.69-.7a8.59,8.59,0,0,1-.87-1,6,6,0,0,1-.38-.5,3.08,3.08,0,0,0-.2-.26l-.28-.34c-2.52-3.29-5.44-8.88-8-16.35a156.28,156.28,0,0,1-6.31-26.4c-.21-1.24-.39-2.49-.56-3.73l-.23-1.87-.28-1.92c-.36-2.57-.61-5.12-.85-7.7s-.51-5.17-.67-7.75-.38-5.08-.48-7.62l0-.94c.19,3.86-.27-5.85-.28-4.8h-.14l-.54,0-1.08.07-2.16.14-4.33.28-8.59.54-8.53.53-8.39.48-4.2.24-4.13.2-8.26.4-8.13.31-4.06.15-4,.1-8,.18-7.86.07a67,67,0,0,0-8.12-2.15c-1.55-.31-3.19-.6-4.91-.87l-5.24-.86c-1.79-.27-3.65-.53-5.53-.78s-3.72-.58-5.62-.85l-5.69-.83-5.51-1-4-.09c-1.33,0-2.59-.13-3.87-.2-2.52-.15-5.07-.23-7.46-.43l-7-.61-1.7-.14-1.62-.19-3.2-.38c-4.3-.4-8.13-1-11.87-1.48-1.9-.18-3.6-.53-5.33-.74s-3.39-.45-5-.61a104.94,104.94,0,0,0-15.87-.89,35,35,0,0,0-6.66.91,23,23,0,0,0-5.92,2.22,157.07,157.07,0,0,0,15.19,6c1.26.46,2.55.84,3.82,1.24s2.55.78,3.83,1.14l1.92.54,2.1.52,4.22,1a283.21,283.21,0,0,0,37.14,6.12c13.76,1.41,29.2,2.23,47.54,2.44,2.27,0,4.67,0,7,0s4.79,0,7.31,0c5-.08,10.14-.08,15.62-.24,10.81-.19,22.67-.6,35.61-1.06,2.71.31,5.35.64,7.9,1s5.09.73,7.49,1.13l3.52.64,1.7.33.83.17.42.08.1,0v.07c.05.14.1.29.14.42a.63.63,0,0,1,0,.22,5.15,5.15,0,0,0,.07,1c.14,1.81.34,3.61.53,5.37s.33,3.46.54,5.15c.85,6.75,1.82,12.8,2.91,18,.15.66.3,1.31.44,2s.25,1.21.38,1.81q.38,1.77.81,3.45c.16.55.31,1.1.45,1.64s.33,1.09.43,1.56c.24,1,.5,1.9.77,2.8,1.24,3.77,2,6.37,3.08,8.75.29.62.43,1.06.62,1.53s.37.9.55,1.31c.37.82.73,1.54,1.06,2.15a32.81,32.81,0,0,1-1.88-4.16c-.66-1.53-1.35-3.21-1.87-4.83l-.39-1.23-.48-1.37q-.46-1.38-.87-2.76c-.27-.93-.51-1.85-.74-2.79s-.58-2-.84-3-.49-2-.71-3l-.31-1.54-.38-1.64c-.49-2.19-.89-4.37-1.23-6.57s-.81-4.62-1.12-6.92l-.21-1.74-.26-1.78-.23-1.79,0-.22c0-.06,0,0,0,0h0s0,0,0,0l-.11,0a.73.73,0,0,1-.27.1l-.2,0-.09,0h0l-.21,0-2,.15-8.07.57c-5.39.36-10.68.66-16,.92l-7.92.33c-2.65.11-5.28.19-7.87.25a595.56,595.56,0,0,1-60.44-1.27,428.53,428.53,0,0,1-54-7.29l-6.24-1.25-6-1.42c-4.08-.84-7.9-2-11.82-2.94-2-.47-3.7-1-5.53-1.49l-5.35-1.56c-3.54-1.11-7.08-2.2-10.54-3.4-1-.34-1.93-.63-2.82-.88s-1.7-.52-2.5-.74l-2.3-.59-2.16-.59a40.18,40.18,0,0,1-4.33-1.32c-.74-.26-1.51-.56-2.32-.9s-1.62-.76-2.5-1.21a136,136,0,0,1-26.21-17.67c-1.75-1.46-3.29-3-4.86-4.43s-3-2.92-4.25-4.4a94.81,94.81,0,0,1-7.08-8.58l-1.51-2.09c-.51-.69-.93-1.41-1.39-2.1-.9-1.3-1.6-2.6-2.37-3.87-.4-.61-.7-1.29-1.06-1.93s-.72-1.27-1-1.93c-.6-1.33-1.32-2.58-1.86-3.93l-.89-2-.79-2c-.58-1.32-1-2.73-1.51-4.09-.88-2.78-1.79-5.6-2.45-8.58-.12-.46-.24-.92-.36-1.4a92.57,92.57,0,0,1-1-35c.3-1.45.57-2.9.81-4.36l.53-2.19.54-2.39c.48-1.6.89-3.21,1.34-4.84s1-3.25,1.6-4.89a137.36,137.36,0,0,1,8.78-19.87A164.59,164.59,0,0,1,794,1428.5a161,161,0,0,1,37.21-28.2l1.1-.59.56-.29.64-.29c.85-.37,1.72-.73,2.59-1.09,1.74-.7,3.5-1.36,5.26-2,3.45-1.38,7.23-2.32,10.86-3.56,1.82-.61,3.61-1.28,5.39-2a59.17,59.17,0,0,0,5.51-2.21,47.92,47.92,0,0,0,5.34-2.9c.86-.57,1.77-1.11,2.68-1.69s1.8-1.2,2.68-1.87c-4.79,1.15-9.29,2.76-13.94,4.27l-3.49,1.14c-1.13.42-2.23.88-3.35,1.31l-6.7,2.67-1.68.67-.84.33-.8.38-3.19,1.52-6.37,3-1.58.76-1.37.75-2.75,1.48c-1.84,1-3.59,2.14-5.38,3.18a131.31,131.31,0,0,0-19.16,14.48,114.78,114.78,0,0,0-14.11,15.36,137.21,137.21,0,0,0-20.31,22,152.31,152.31,0,0,0-9,14,140.12,140.12,0,0,0-7.23,15.17c-.92,2.58-2,5.17-2.69,7.75-.41,1.29-.85,2.58-1.13,3.86l-.49,1.86c-.15.6-.36,1.19-.46,1.79a92.84,92.84,0,0,0-2.1,14.35c-.05,1.2-.11,2.39-.19,3.58s0,2.37,0,3.54.11,2.34.16,3.5a32.75,32.75,0,0,0,.28,3.45c.15,1.13.28,2.26.39,3.38s.41,2.2.61,3.29c.1.54.17,1.09.28,1.62s.27,1.06.4,1.58l.74,3.12c.18.57.32,1,.45,1.47a73.38,73.38,0,0,0,2.87,12.35,82.38,82.38,0,0,0,4.85,11.53c.5.9.93,1.86,1.47,2.74l1.56,2.68c.59.92,1.18,1.83,1.78,2.73s1.3,1.84,1.94,2.77a107.72,107.72,0,0,0,8.82,10.67c12.91,13.74,30,25.21,49.21,33.83,4.82,2.14,9.76,4.17,14.85,5.93s10.14,3.36,15.92,4.84a322.43,322.43,0,0,0,36.21,7.4c25.94,3.8,55.54,5.39,90.43,5.89,7.26,6.7,24.16,4.9,48.58,4.66-.35,2,.54,3.55,2.5,4.84a13.61,13.61,0,0,0,1.67.92c.31.14.64.28,1,.41s.79.26.88.39a15.74,15.74,0,0,0,2.27,1.37l1.06.51a4.92,4.92,0,0,1,.46.23l.34.21.09.06,0,0,.06.1,0,.06v0l.08.31.21.71c.15.5.25.93.36,1.37l.36,1.34c.24.89.52,1.79.81,2.69.16.45.31.9.47,1.36l.24.67.18.62a48.25,48.25,0,0,0,1.88,5,39.33,39.33,0,0,0,2,4.43c.44.78.65,1.33,1,2s.68,1.24,1.07,1.86c.18.29.43.64.57.88s.29.5.44.75c.32.49.66,1,1,1.45.17.23.43.51.54.68l.4.53a11.1,11.1,0,0,0,.94,1l.26.25a1.34,1.34,0,0,1,.17.17c.09.11.19.21.3.32a6.44,6.44,0,0,0,.74.6l.11.07,0,0,.07.06.16.13.19.12.11.06.06,0-.13-.06h0l0,0-.17-.07a4.78,4.78,0,0,0-.66-.19l-.31,0h0l.71.15h.09l.12,0h-.44l-.39,0-.84.12.58-.08a4.69,4.69,0,0,1,.88-.07h-.13a4.3,4.3,0,0,0-.61,0l-.16,0-.08,0-.15,0a5,5,0,0,0-.64.1,6,6,0,0,0-.64.15l-.41.1-.47.12q-.46.12-.9.27l-.43.17-.56.18a17.08,17.08,0,0,0-2.23.92,26.3,26.3,0,0,0-2.68,1.26l-.63.36-.79.4c-.52.27-1,.56-1.53.85l-3.21,2c-.58.37-1.14.74-1.7,1.13l-.82.58-.42.3-.5.34c-1.32.89-2.6,1.82-3.82,2.78l-.94.74-1.11.84c-.74.56-1.46,1.13-2.18,1.7s-1.41,1.16-2.09,1.75l-.26.22-.13.11h0s0,0,0,0l0-.06.12-.25a2.54,2.54,0,0,0,0-.39,4,4,0,0,0-.17-1c-.12-.39-.26-.8-.42-1.24-.1-.23-.19-.46-.28-.69a3.35,3.35,0,0,0-.15-.35l-.27-.47c-.36-.63-.69-1.23-1-1.83a25.81,25.81,0,0,1-1.47-3.35,8.29,8.29,0,0,1-.44-5.31l7.87,7.26c.86.82,1.57,1.53,2,2l.17.18.1.13.19.22.06.11,0,0h0l0,0c.59-.46,1.18-.92,1.78-1.36a92.13,92.13,0,0,1,11.79-7.52c1.38-.77,3-1.42,4-1.87l.87-.33.44-.15.39-.13a9.85,9.85,0,0,1,1.3-.42c.22-.06.44-.12.67-.16l.45-.12a6.51,6.51,0,0,1,.9-.17l.23,0,.13,0,.25,0a4.41,4.41,0,0,1,.52,0h.36c.12,0,0,0,0,0l-.12,0,.22,0h-.42a15.19,15.19,0,0,0-4.6,1,54.74,54.74,0,0,0-12.13,6.3c-.67.44-1.33.9-2,1.37l-2,1.39c0-.08.18-.12.15-.28s.06-.25,0-.45-.07-.39-.14-.61a20,20,0,0,0-1.69-3.43l-.28-.5c-.1-.16-.28-.41-.41-.6l-.8-1.23c-.52-.8-1-1.58-1.39-2.32-1.6-3-2.2-5.35-.92-6.67q3.83,3.35,7.64,6.65c2,1.72,3.55,3.16,4.37,4,.25.23.35.36.51.5l.14.11s.1.07.08,0l0,0,.16-.1.33-.2.67-.39c.45-.25.91-.49,1.38-.73.84-.45,1.51-.83,2.31-1.2.4-.18.79-.36,1.2-.52s.62-.3.94-.43c.62-.27,1.34-.52,1.94-.71a20.8,20.8,0,0,1,2.8-.8,5,5,0,0,1,.58-.09l.27,0,.16,0a4,4,0,0,1,.71-.06h.27l-.11,0h-.08l-.68-.14a3.75,3.75,0,0,1,.62.12c.11,0,.23.07.34.12l.17.07h0l.09,0,.07,0-.18-.1a2.8,2.8,0,0,1-.36-.25s-.43-.31-.65-.5a6,6,0,0,1-.67-.66c-.32-.31-.72-.7-1-1.06-.16-.18-.31-.37-.45-.56s-.25-.36-.5-.65a17,17,0,0,1-1.17-1.59c-.17-.27-.34-.54-.5-.82l-.11-.2-.17-.26-.34-.51c-.44-.69-.83-1.39-1.19-2.1l-.51-1.07-.34-.63c-.08-.16-.07-.11-.07-.11h0c-.06,0,0,.12-.19.21a2.24,2.24,0,0,1-.55.33,20.8,20.8,0,0,1-4.67,1.5c-1,.22-2.09.42-3.23.59l-.87.12-.44.06-.61.07-2.45.25c-26.13,2.74-51.45,5.48-76.55,6.86-12.55.71-25,1-37.47.81s-24.83-1-37.18-2.41a285.44,285.44,0,0,1-36.67-6.84l-9-2.53c-1.53-.4-3-.92-4.45-1.39s-2.95-1-4.4-1.49c-5.87-2-11.65-4.42-17.35-7-5.47-4.18-9-8.31-12.71-12.47a142.67,142.67,0,0,0-13.22-13.65c-5.72-.4-1.67,4.77,4.55,10.68,1.56,1.47,3.22,3,4.91,4.47l4.84,4.33c3,2.79,5.39,5.18,5.84,7a153.87,153.87,0,0,1-23.71-9.28,213,213,0,0,1-24.54-14,256.37,256.37,0,0,1-22.14-16.5c-6.73-5.54-12.69-11-17.87-15.47-1.12-3.09-.7-4.82-1.17-7.41a16.23,16.23,0,0,0-1.72-4.75,37.29,37.29,0,0,0-1.86-3.4l-1.29-2.05c-.46-.74-.95-1.52-1.5-2.36a163.16,163.16,0,0,1-8.52-17.54,172.88,172.88,0,0,1-6.11-17.5,159.33,159.33,0,0,1-5-26.79,157.24,157.24,0,0,1-.56-25.87,192.68,192.68,0,0,1,3.19-24.71,217.13,217.13,0,0,1,6.38-23.68,232.78,232.78,0,0,1,9.06-22.53q5.23-10.94,11.54-21.38A238.66,238.66,0,0,1,730.43,1392c1.22-1.68,2.59-3.23,3.88-4.86s2.62-3.25,4-4.8l4.17-4.74c1.45-1.53,2.9-3.07,4.37-4.61,1.27-1.38,2.61-2.68,4-4s2.66-2.63,4-3.91l4.14-3.76,2.07-1.87,2.13-1.8,4.26-3.58,4.38-3.42c2.88-2.32,5.94-4.39,8.92-6.57a207.76,207.76,0,0,1,18.72-11.64l9.69-5.29c1.59-.92,3.29-1.64,4.94-2.45l5-2.37c6.56-3.29,13.43-5.94,20.2-8.76.85-.35,1.69-.72,2.55-1l2.6-.93,5.19-1.86,5.19-1.86,2.59-.93,2.64-.82c7-2.16,14-4.46,21.23-6.25l5.36-1.44c1.79-.47,3.57-1,5.39-1.37l10.87-2.51c3.61-.89,7.29-1.58,11-2.31s7.34-1.5,11-2.18l11.15-1.93c1.87-.31,3.72-.67,5.6-1l5.64-.85,11.34-1.7,11.44-1.53c3.83-.54,7.68-1,11.55-1.45l11.65-1.4c15.62-1.75,31.52-3.43,47.79-5.09s32.86-3.58,49.81-5.09c4.4.25,4.15,1.87,5,3.14s2.81,2.21,11.55,1.4c5.66,0,11.47.07,17.39.2s12,.45,18,.87,12.24,1.07,18.4,1.9,12.3,2,18.37,3.34a158.55,158.55,0,0,1,17.88,5.13,126.91,126.91,0,0,1,16.82,7.18,115.54,115.54,0,0,1,15.16,9.31,112.77,112.77,0,0,1,13,11.22l3.91,3.94,6.06-1.19c4.85-1,9.65-1.83,14.36-2.7q7-1.56,13.78-2.94c4.46-1.1,8.84-2.13,13.11-3.08s8.35-2.15,12.38-3.08l3-.7,2.9-.78c1.93-.5,3.82-1,5.69-1.43s3.71-.88,5.51-1.28,3.53-.9,5.25-1.3c3.43-.82,6.74-1.49,9.9-2s6.08-1.19,8.91-1.55c16.19-9.67,26.44-15.68,35.5-20.82,4.49-2.63,8.82-4.82,13.07-7.66a117.18,117.18,0,0,0,13.74-9.83l5.78-6.49,5.6-6.91,2.93-3.56c.49-.61,1-1.2,1.5-1.83l1.47-1.94c2-2.6,4.06-5.3,6.3-8.14a17.46,17.46,0,0,0,2.47-1.68c.84-.69,1.71-1.49,2.62-2.38,1.81-1.79,3.77-3.94,5.84-6.39a89.41,89.41,0,0,0,6.16-8.4l3.17-4.79c.53-.83,1.1-1.63,1.61-2.52l1.55-2.67a204.43,204.43,0,0,0,11.48-23.31c3.42-8.11,6.42-16.32,9-24,5.76-17.05,10.52-32.68,13.79-49.11a193.75,193.75,0,0,0,3.43-25.41,153.9,153.9,0,0,0-.52-27.76c-.13-1.56-.34-3.1-.56-4.61s-.44-3-.66-4.54c-.46-3-1.07-5.89-1.61-8.71s-1.28-5.53-1.93-8.18-1.47-5.17-2.2-7.65a164.66,164.66,0,0,0-10.57-25.83,146,146,0,0,0-24.54-34.26,207.29,207.29,0,0,0-18.88-17.16l-2.88-2.32-1.46-1.18-1.47-1.12c-2-1.47-3.94-3-6-4.52-4.09-3-8.33-6-12.67-8.81a303.36,303.36,0,0,0-26.41-15.54c-17.48-9.09-33.44-15.35-44.43-17,7.23,6.61,15.11,13.39,20.93,19.72,12.91,5.63,27,11.43,41.79,19.48A198.67,198.67,0,0,1,1422.61,942a156.72,156.72,0,0,1,22.15,19.74,136.66,136.66,0,0,1,22.77,33.66,120.38,120.38,0,0,1,8.28,24.15,184.58,184.58,0,0,1,3.45,22.69c1.26,14.91,1.62,29.33,2.83,47.49l-3.86-.09a193.49,193.49,0,0,1-7.25,52.73,189.23,189.23,0,0,1-19.07,44.57c-1,1.66-2,3.34-3,4.94s-2.11,3.21-3.15,4.81c-2.19,3.08-4.43,6-6.63,9l-1.66,2.2c-.55.74-1.09,1.47-1.7,2.15l-3.55,4.14-3.54,4.07-1.76,2c-.6.66-1.24,1.28-1.86,1.91l-7.44,7.46c-1.21,1.26-2.54,2.37-3.83,3.52l-3.88,3.4-3.86,3.35c-1.28,1.11-2.67,2.1-4,3.15l-8,6.1c-2.73,1.89-5.49,3.73-8.21,5.57l-4.09,2.72-4.21,2.51c-2.8,1.66-5.57,3.33-8.37,4.93l-8.55,4.48c-1.43.73-2.83,1.49-4.27,2.2l-4.36,2c-2.9,1.33-5.78,2.69-8.69,4l-8.85,3.59c-1.47.58-2.93,1.22-4.42,1.76l-4.5,1.6c-3,1-6,2.17-9,3.18l-9.17,2.86c-1.53.46-3,1-4.6,1.39l-4.67,1.27-4.67,1.27c-1.57.43-3.12.89-4.71,1.23l-9.55,2.25-2.39.58-2.43.48-4.88,1c-6.48,1.45-13.16,2.39-19.87,3.61l1.91.53a120.7,120.7,0,0,0-36.16-25.78,159.35,159.35,0,0,0-46.85-13.24c-10.5-3.12-21.07-5.63-31.5-7.69s-20.72-3.7-30.74-5.16c-20-2.92-39.1-5.07-56.23-7.73,7.22-.4,13.89-.91,20.18-1.42s12.11-1.06,17.67-1.59c11.12-1.07,21.09-2.17,31.17-3a281.35,281.35,0,0,1,31.85-.91c5.79.22,11.93.63,18.59,1.52,3.31.39,6.78,1,10.36,1.61s7.34,1.47,11.23,2.49a165.27,165.27,0,0,1,20.81,3.77,153.78,153.78,0,0,1,21.42,6.9,149.82,149.82,0,0,1,21.36,10.6,156.82,156.82,0,0,1,20.26,14.55l-32.58-9c27.73-8,55.81-19.27,81.57-34.84s49-35.47,66-59.47l6.11-9.14,2.73-4.58,2.58-4.69a153.06,153.06,0,0,0,8.68-19.73,157.8,157.8,0,0,0,8.92-42.12,147.38,147.38,0,0,0,0-21.12c-.14-1.73-.25-3.46-.49-5.17s-.37-3.43-.67-5.12c-.5-3.39-1.16-6.73-1.89-9.89a117.48,117.48,0,0,0-6-18.59,107,107,0,0,0-8.91-16.86,104.82,104.82,0,0,0-9.14-15.28,127.75,127.75,0,0,0-22-22.87,251.63,251.63,0,0,0-28.61-20.16c-5.13-3.18-10.48-6.29-15.9-9.39s-11-6.17-16.56-9.22q-16.63-9.11-33.43-17.67c-44.85-22.92-90.68-43.65-139.35-65.43-5.89-6.77-21.41-15.28-39.79-24.09S1056.61,817,1039.24,809c-5.33-1.67-6.29-.3-8.22.4s-4.79.73-14.09-3.61c-19.22-7.76-33.76-14.95-45.48-21.94-2.92-1.74-5.66-3.44-8.27-5.14s-5.06-3.42-7.4-5.09-4.57-3.33-6.71-5-4.21-3.32-6.22-5c-8.05-6.51-15.3-13-23.86-19.68-4.26-3.41-8.87-6.79-14-10.35q-3.86-2.73-8.2-5.54c-2.91-1.87-6-3.75-9.27-5.82-4.69-2.95-11.66-6.1-18.93-9.86L863,709.65l-2.78-1.41-2.73-1.5c-3.6-2-7.11-4-10.27-6-2.29-1.38-4.74-3.14-7.37-5l-8.34-6c-2.89-2.14-5.78-4.55-8.75-6.9s-6-4.7-8.86-7.28c-5.75-5.06-11.44-9.89-16.36-14.58l-12.31-11.77-2.17-2-2.12-2.06L776.67,641l-4.15-4.19c-1.38-1.39-2.77-2.78-4.11-4.22l-4-4.26c-1.35-1.42-2.63-2.89-4-4.33-2.67-2.88-5.2-5.86-7.77-8.83a314.38,314.38,0,0,1-28.08-38.31c-4.17-6.89-8.21-14-11.79-21.43A216,216,0,0,1,703,532.18c-.69-2-1.37-4.06-2.06-6.1s-1.24-4.15-1.86-6.24c-1.26-4.17-2.19-8.49-3.2-12.82-.45-2.18-.83-4.39-1.23-6.6-.2-1.11-.39-2.22-.59-3.34s-.29-2.25-.44-3.37c-.28-2.27-.62-4.53-.82-6.82l-.51-6.93a191.37,191.37,0,0,1,6.25-61.36c1-3.4,1.87-6.83,3.07-10.18.57-1.68,1.15-3.36,1.72-5.05s1.28-3.45,2-5.21a96.76,96.76,0,0,1,12.08-21.83,66.35,66.35,0,0,1,10-10.67,57.32,57.32,0,0,1,13.46-8.59,60.46,60.46,0,0,1,15-4.6,68.69,68.69,0,0,1,14.32-.87,100.72,100.72,0,0,1,24.58,4.27c1.86.54,3.68,1.12,5.43,1.72l5.13,1.85,5.13,1.87,5,2.14,5,2.15,4.91,2.4,4.9,2.43c1.61.85,3.19,1.77,4.78,2.65a214.6,214.6,0,0,1,35.61,25.05c21.9,18.95,39.68,41.81,53.48,66.12,4.91,10.37,9.6,21.54,14,33.35s8.55,24.32,12.09,37.44a352.86,352.86,0,0,1,12.43,84.78c0,3.73.07,7.47,0,11.23-.06,1.88-.12,3.76-.17,5.64s-.07,3.79-.24,5.63l-.84,11.16-.44,5.59-.22,2.8-.35,2.78c-.49,3.71-1,7.41-1.46,11.13s-.94,7.43-1.68,11.08-1.37,7.34-2,11l-1.05,5.5L953,708.79a417.37,417.37,0,0,1-28,81.71c-5.7,20.86-14.74,44.07-25.83,67.83s-24,48.25-36.78,72.34S837,978.58,826.11,1001.3s-20,44.17-26,63.28c-6.53,13-6.46,1.48-13.86,17.68-16.94,45.09-45,91.47-50.26,123.82-2.85,5.76-5.4,10.41-7.74,14.27-2,3.26-3.69,5.69-5.21,7.7a62.45,62.45,0,0,0-2.36,9.23,18.38,18.38,0,0,0-.19,6.31c.13.66.35,1.05.57,1.1,0,0,.06,0,.06,0l-1.13.08-1.13.12c-.31,0-.64.06-1,.11l-1.79.28c-.52.09-1.12.25-1.48.31a15,15,0,0,0-2.85.94s0,0,0,0l.12-.07.19-.12.54-.38.3-.24-.3.23c-1.91,1.64-.66,1.21.93-2.5a44.65,44.65,0,0,0,2.44-7.86l.3-1.34.06-.33s.09-.12.12-.16a2.22,2.22,0,0,1,.22-.14l.3-.14c.89-.36,2.75-.87,5-1.61s4.92-1.77,7.79-3c1.42-.62,2.9-1.29,4.4-2l5.47-2.65c4-2,8-3.82,12-5.83l12-6.13,11.88-6.44q23.68-13.15,46.79-28.43t45.59-32.82q22.47-17.55,44.29-37.35c1.82-1.65,3.67-3.27,5.48-5l5.38-5.11,5.44-5.1,5.33-5.27,5.39-5.26,5-5.09c3.28-3.43,6.56-6.9,9.73-10.44,6.37-7.08,12.52-14.37,18.26-21.85s11.11-15.14,16-22.89c2.25-2.41,3.9-3.63,5.73-5.51,1.87-1.73,3.58-3.59,5.4-5.45a139.71,139.71,0,0,0,10.11-12.15,121.06,121.06,0,0,0,8.88-13.87,104.53,104.53,0,0,0,7-15.61,98.93,98.93,0,0,0,5.86-35.71,101.65,101.65,0,0,0-8.91-38.58,142.7,142.7,0,0,0-6.31-16.84,148.15,148.15,0,0,0-8.84-16.46,161.21,161.21,0,0,0-11.73-16.2,179.08,179.08,0,0,0-15.11-15.95,224.1,224.1,0,0,0-41.22-30.07,283.77,283.77,0,0,0-26.7-13.48c-2.41-1-4.87-2.13-7.38-3.15s-5.06-2.06-7.65-3q-7.76-2.93-16.06-5.89a457.78,457.78,0,0,0-70.12-7q-8.16-.1-16-.07c-5.23.13-10.37.33-15.39.56-2.51.13-5,.22-7.45.4l-7.31.61c-4.82.43-9.53.85-14.14,1.38-36.94,4.41-67.22,12.44-92.46,19.9-4.45.3-8.56.62-12.35,1.17s-7.28,1.2-10.48,1.88-6.13,1.4-8.8,2.22-5.1,1.71-7.32,2.59a90.32,90.32,0,0,0-11,5.24c-3,1.75-5.45,3.42-7.59,4.81l-7.5,1.22c-2.48.41-5,.78-7.39,1.28l-14.52,2.73c-9.64,1.86-19.44,3.92-29.3,5.91-19.75,4-39.93,7.87-61.45,10.52l-8.13.92c-2.76.26-5.49.56-8.28.78l-4.26.33-2.37.17-2.45.13c-3.28.14-6.56.33-9.86.39a290.18,290.18,0,0,1-40.05-1.61,228.26,228.26,0,0,1-40.48-8.18,199.15,199.15,0,0,1-39.55-16.77c-2-1-3.81-2.26-5.68-3.38s-3.69-2.25-5.43-3.41l-4.38-3-1.08-.76c-.33-.3-.7-.55-1-.82l-2.11-1.6-4.16-3.22c-.69-.55-1.39-1.07-2.06-1.63l-2-1.73-3.89-3.45L291.52,780c-.63-.58-1.22-1.21-1.83-1.81l-3.62-3.66c-1.19-1.24-2.42-2.42-3.51-3.73a167.74,167.74,0,0,1-23-32.56,184.63,184.63,0,0,1-14.68-35.45,194.6,194.6,0,0,1-7.24-36.36,228.25,228.25,0,0,1-.83-36,252.09,252.09,0,0,1,4.64-34.65,259.25,259.25,0,0,1,9.22-32.79l2.94-7.86c.48-1.33,1-2.56,1.55-3.8l1.57-3.67,1.57-3.61,1.69-3.55c1.15-2.36,2.23-4.73,3.45-7a264.08,264.08,0,0,1,16-27l4.51-6.44c1.51-2.14,3.16-4.2,4.74-6.3l2.41-3.12,2.54-3.05,2.54-3,1.27-1.52c.42-.49.84-.94,1.26-1.41a364.71,364.71,0,0,1,43.7-41.39c31.36-25.37,66.45-46.46,104.75-67.69,3.73-1.21,6.64-1.75,9.94-2.56a68.68,68.68,0,0,0,12.32-4.35c3-6,19.54-12.2,35.59-18.3s31.7-12.46,33.59-20.14c-14.94,1.92-37.69,7.87-63,17.25-12.66,4.71-26,10.27-39.09,16.68a362.56,362.56,0,0,0-38,21.35c-10.06,1.92-21.83,8.61-34.27,17.62S338.6,420.5,325.53,431.6q-12.34,10.38-24,20.88c-1.93,1.77-3.89,3.49-5.78,5.28l-5.66,5.35c-1.88,1.77-3.68,3.62-5.52,5.43l-2.74,2.71-2.79,3c-15,16-27.23,33.22-36.11,51.52a82.86,82.86,0,0,0-5.44,16.34l-.86,3.72c-.27,1.2-.54,2.28-.75,3.36a45.88,45.88,0,0,1-1.2,5c-5.52,16.43-10.24,31.74-13.57,49s-5.17,36.55-2.34,59.89c.53,5.08,1.42,9.93,2.23,14.62.37,2.36.92,4.64,1.41,6.89s1,4.46,1.5,6.63c1.16,4.31,2.29,8.48,3.53,12.48s2.58,7.84,4,11.53a195.35,195.35,0,0,0,19.45,38.35,190.56,190.56,0,0,0,24.28,29.8c2.3,2.2,4.58,4.45,7,6.62s4.94,4.21,7.47,6.33c1.24,1.1,2.63,2,3.95,3l4.08,3,2.07,1.52a24.45,24.45,0,0,0,2.11,1.51l4.37,2.94a214.94,214.94,0,0,0,47.53,22.79c22.07,7.53,45.35,11.41,68.47,12.63,11.57.61,23.1.56,34.49,0,1.46-.06,2.76-.15,4.13-.23l3.56-.24c2.38-.15,4.66-.38,7-.57s4.59-.43,6.85-.67,4.53-.47,6.73-.75c8.89-1,17.42-2.28,25.63-3.62s16.15-2.77,23.73-4.23,14.9-3,21.89-4.41,13.74-2.93,20-4.18c12.64-2.73,24.75-5.14,36.12-7.56q8.54-1.7,16.49-3.54,8-1.63,15.27-3.44c4.87-1.26,9.52-2.29,13.92-3.52,2.2-.61,4.33-1.23,6.41-1.87l6-1.91a104.87,104.87,0,0,0,19.89-8.46,157.42,157.42,0,0,0,16.43,0c5-.25,9.71-.59,14.11-1.22a208.16,208.16,0,0,0,24.08-5l5.64-1.52,5.64-1.42c3.78-1,7.62-1.88,11.64-2.71a121,121,0,0,1,12.62-1.93,127.27,127.27,0,0,1,14.24-.75c6.85,1,12.68,1.76,17.74,2.37s9.33,1.31,13.11,1.76l10,1.16,8.45,1.07a177.15,177.15,0,0,1,18.19,3.13c3.67.81,7.82,1.8,12.72,3s10.44,3,17,5c24.29,14.34,44.74,30.29,61.56,47.43,4.22,4.25,8.14,8.65,11.87,13,.9,1.1,1.88,2.26,2.66,3.29s1.55,2.1,2.3,3.16,1.49,2.07,2.2,3.13l2.07,3.16c.7,1,1.34,2.11,2,3.17s1.28,2.1,1.89,3.16c1.19,2.16,2.39,4.23,3.44,6.4a124.92,124.92,0,0,1,5.69,12.91,115.84,115.84,0,0,1,4,13.1,104.94,104.94,0,0,1,2.25,13.26,100.61,100.61,0,0,1,.37,13.32,93.71,93.71,0,0,1-1.55,13.17A92,92,0,0,1,984,974.16a113,113,0,0,1-14.66,21.46c-.61,1.81-1.39,3.54-2.09,5.3-.41.84-.8,1.7-1.18,2.56-.2.44-.4.79-.59,1.16l-.8,1.55a120.4,120.4,0,0,1-8.8,13.82,95.76,95.76,0,0,1-10.13,11.6,56.44,56.44,0,0,1-10.5,8.09c3.85-6.34,7.75-12.9,11.45-19.58l2.73-5c.86-1.66,1.72-3.34,2.6-5.05s1.73-3.36,2.46-5l1.2-2.51c.21-.42.37-.84.56-1.25l.28-.63.13-.31.07-.18,1.13-3.1a14.9,14.9,0,0,0,.56-1.63c.19-.55.38-1.09.59-1.62.7-2.21,1.42-4.43,2-6.71a75.36,75.36,0,0,0,2.43-14.16,58.69,58.69,0,0,0,.06-7.39l-.13-1.86c-.06-.63-.18-1.24-.23-1.87l-.1-.94-.17-.93c-.13-.61-.17-1.25-.32-1.86a60.75,60.75,0,0,0-2.06-7.37,57.27,57.27,0,0,0-3.18-7.07c-5-9.18-12.86-16.88-21.87-22.82-.57-.35-1.13-.73-1.68-1.12l-2.43-1.48c-.95-.61-2-1.17-3-1.77l-1.54-.89-1.61-.86c-4.25-2.35-8.83-4.6-13.61-6.78-2.36-1.11-4.86-2.15-7.31-3.22s-5-2.07-7.63-3c-5.16-2-10.47-3.89-15.94-5.66-1.35-.45-2.73-.88-4.11-1.31s-2.74-.87-4.15-1.27l-4.19-1.23-4.59-1.25-9.16-2.47c-1.52-.41-3-.84-4.56-1.22l-4.58-1.09c-6.11-1.43-12.14-3-18.22-4.17S815,879.38,809,878.43a513.4,513.4,0,0,0-69.41-7.71A381.13,381.13,0,0,0,678.07,873a47.44,47.44,0,0,0,6.29,2c2.16.51,4.38,1,6.66,1.39a121.89,121.89,0,0,0,14.22,1.24c4.9.27,9.92.36,15,.46s10.13.46,15.12.9l5.15.49,5.15.63L756,881.39c1.74.19,3.46.44,5.19.7l5.2.77,10.44,1.55,10.46,1.82c3.5.62,7,1.17,10.51,1.92,7,1.44,14.06,2.72,21.09,4.41l10.6,2.4,10.58,2.68c7.11,1.71,14.15,3.8,21.27,5.77,1.77.49,3.62,1,5.14,1.47s3.21,1,4.77,1.46c3.17,1,6.28,2,9.38,3.07,6.16,2.1,12.13,4.35,17.83,6.71s11.15,4.82,16.23,7.37l1.91,1,1.83,1c1.23.65,2.46,1.29,3.6,2s2.36,1.29,3.43,2l1.35.79.26.15.21.14.4.27A61.92,61.92,0,0,1,940,940.46a46.18,46.18,0,0,1,5,6.25c.37.56.75,1.12,1.08,1.71a16.94,16.94,0,0,1,1,1.77c.16.3.33.6.5.89s.27.63.42.93.29.62.45.92.24.64.37,1a40.75,40.75,0,0,1,3,16.21,79.86,79.86,0,0,1-.78,10,81.68,81.68,0,0,1-2,10.08c-.27.82-.39,1.72-.7,2.55q-.2.63-.36,1.29l-.33,1.16a1.21,1.21,0,0,1,0,.14l-.11.28-.23.56c-.16.37-.29.75-.47,1.12l-1,2.28c-.64,1.53-1.46,3.08-2.2,4.65a185.8,185.8,0,0,1-11.12,19.42,230.89,230.89,0,0,1-14.53,19.88c-1.37,1.63-2.73,3.28-4.14,4.91l-2.14,2.43c-.37.42-.68.8-1.1,1.24l-1.25,1.33-5,5.3c-1.69,1.76-3.35,3.57-5.13,5.27a329.57,329.57,0,0,1-46.77,39c-2.55,1.73-5,3.45-7.56,5.09l-7.54,4.7-3.73,2.3c-1.24.76-2.51,1.46-3.76,2.18l-7.46,4.25-1.85,1-1.88,1-3.75,2-7.48,3.93-7.58,3.7c-2.52,1.24-5,2.52-7.62,3.67-5.16,2.34-10.29,4.84-15.65,7.1l-8,3.57-8.3,3.48-4.22,1.81-4.31,1.73q-4.35,1.76-8.81,3.62l-9.16,3.59L729,1163.6l-4.83,1.8c-1.26-.62-4.72.34-7.42.77-.34,0-.66.1-1,.13l-.45,0h-.21a.2.2,0,0,1-.1,0,1.67,1.67,0,0,1-.6-.49,3.26,3.26,0,0,1-.37-2.22,10.93,10.93,0,0,1-2.36.9h0l.58,2.64c.37,1.77.73,3.54,1.1,5.3.67,3.55,1.33,7,1.85,10.39,1.09,6.79,1.88,13.25,2.33,19.33.12,1.48.18,3,.27,4.48s.14,2.86.15,4.3c.11,2.72.05,5.49,0,8a95.46,95.46,0,0,1-1.28,13.34c-1.22,7.52-3.4,12.22-4.47,13.85-.49.79-.67.88-.27.48l.4-.37a7.42,7.42,0,0,1,.65-.53,6.28,6.28,0,0,1-.62.47l-.22.15-.18.12c-.39.25-.17,0,.81-.28a8.57,8.57,0,0,1,.87-.27,12.08,12.08,0,0,1,1.21-.32c.95-.23,1.93-.38,3.26-.57a58.09,58.09,0,0,1,9.71-.33,104.87,104.87,0,0,1,13.81,1.47c5.12.89,11.1,2.13,17.46,3.87l2.42.67,2.47.71q2.6.72,5.13,1.55c1.76.55,3.64,1.13,5.43,1.74l5.64,1.93,5.87,2.12c2.06.75,4.1,1.52,6.12,2.33s4.37,1.68,6.53,2.56l1.63.67.65.28h.12a.89.89,0,0,0,.44-.12,3.9,3.9,0,0,0,.59-.44,15.85,15.85,0,0,0,1.54-1.62l.47-.56.24-.29c.09-.13.12-.13.31-.42l1.8-2.75c4.78-7.35,9.38-14.77,13.72-22.36a275.62,275.62,0,0,0,22.16-48.26C843.22,1191.71,836.73,1203.6,844.3,1195ZM775.6,326.23c7.6-.57,6.31,1.85.31,2.56.58.7,3.32.65,6.79.35l2.72-.26,2.87-.19c1.93-.12,3.86-.25,5.61-.32-.34.69-1.89,1.21-4,1.64-1.08.22-2.3.41-3.6.6s-2.67.46-4,.68c-5.49,1-11,1.89-11.6,3.34,4.9.52,10.48.78,16.5,1,3,.21,6.12.38,9.31.53l4.82.24,4.89.39c-2,.4-4,.66-5.91.95s-3.8.57-5.61.76-3.57.3-5.26.36l-4.87.12a57.1,57.1,0,0,1-8.42-.47,37.76,37.76,0,0,1-6.33-1.43c-3.43-1.15-5.16-2.87-4.44-4.83S769.28,328,775.6,326.23Zm335.64,125.58c-.52,3.3-4.92,3.44-11.45,1.92s-15.26-4.69-24.51-8.26-19-7.51-27.52-11-15.58-6.46-19.33-8.27c-7.52-3.71-17.46-9.38-23.29-13.78s-7.41-7.7,2-6.63c5.25.61,12.64,2.95,21.19,6.34s18.24,7.86,28.09,12.72,19.86,10.08,29.21,14.88S1103.76,448.88,1111.24,451.81Zm119.63,94.75c1.78-3.06,4.75-1.6,8.35,2,.59,1.94,1.29,4,2.07,6.16.41,1.07.75,2.2,1.12,3.36l1.17,3.52c.81,2.4,1.69,4.88,2.62,7.44.49,1.27.88,2.59,1.3,3.93l1.3,4,2.73,8.33q1.21,4.29,2.48,8.69c1.79,5.81,3.07,11.84,4.52,17.75l.52,2.22c.16.74.29,1.48.44,2.22.28,1.48.55,3,.83,4.42.54,2.93,1.08,5.83,1.55,8.66.76,5.71,1.46,11.18,1.82,16.27s.36,9.81.18,14a49.87,49.87,0,0,1-1.7,10.65c-.37-3.29-.73-6.43-1.08-9.44s-.77-5.88-1.14-8.65-.66-5.45-1-8-.76-5.06-1.12-7.47-.66-4.78-1-7.08-.79-4.55-1.17-6.77-.76-4.43-1.14-6.62-.9-4.35-1.35-6.54c-.94-4.36-1.79-8.82-3.1-13.39s-2.42-9.43-4.23-14.48c-.87-2.55-1.77-5.18-2.7-7.92-.45-1.39-1-2.75-1.6-4.15l-1.77-4.29-1.87-4.47-1-2.31c-.35-.78-.75-1.54-1.12-2.32Zm22.47,174.21c3.22-4.24,3.36,10.65,5.92,10.6-2,7.38-1.51,24-4.78,27.76C1252.39,740.16,1255.2,738,1253.34,720.77Zm32,14.36c0,15.83-.22,32-.37,48.58s-.31,33.51-.35,50.74c0,34.48.36,70.1,2,106.12,1.42,31,5.07,61.34,8,90.21s5.11,56.23,3.44,81.46c-2-13.91-3.75-29.72-5.31-46.36s-3-34.15-4.55-51.35c-3.09-34.38-6.66-67.56-12.41-90.27.43-27.22,1.5-57.19,1.54-85.45s-1-54.8-4.54-75.1c2.78-2.39,4.07-10,5.55-16.84S1281.56,734.09,1285.37,735.13Zm-30,40.55,3.87-.2c2.37,22.89,6.3,64.38-.77,66.45C1254.38,814.71,1255,804.15,1255.34,775.68Zm-.53,71.9c1.34,4.27,3.17,5.83,5.39,5.33C1262,877.26,1254,872.22,1254.81,847.58Zm-25.54,6.63c-4.08,7.12.57,26.92.24,38.57-.61,22.53-5.7,36.26-5.85,55.23-.36,34.94,7.49,48.35,7.56,93.35.41,14.13,5,8.78,6.76,16.42.85,13,1.65,26,2.39,38.74s1.35,25.39,1.72,37.82.55,24.73.43,36.91c-.12,6-.2,12.14-.51,18.12-.15,3-.21,6-.44,9l-.62,8.93c-.16,3-.53,5.9-.8,8.85l-.43,4.42c-.14,1.47-.29,2.94-.5,4.39l-1.14,8.73-.29,2.19-.36,2.15-.72,4.31-.72,4.32-.36,2.16-.44,2.12-1.75,8.51-.45,2.13-.52,2.09-1,4.19-1.05,4.19c-.18.7-.34,1.4-.53,2.09l-.61,2.06-2.46,8.24c-.38,1.38-.85,2.73-1.33,4.07l-1.41,4c-1.78,5.43-4,10.69-6.14,16a293.9,293.9,0,0,1-15.68,30.9l-4.56,7.49c-1.57,2.48-3.23,4.91-4.85,7.37s-3.36,4.86-5.08,7.28l-2.59,3.62c-.86,1.21-1.81,2.36-2.71,3.55-1.85,2.35-3.61,4.76-5.54,7.08l-5.77,7c-4,4.55-8,9.14-12.26,13.55-16.84,17.83-36,34.33-56.89,49.84a652.5,652.5,0,0,1-67.66,43.37c-24.1,13.57-49.63,26.33-76.5,38.69,1.26-8,17.69-19,31.29-29.75s24.37-21.38,15.88-27.52c25.74-16.67,48.92-32.41,69.8-48.11S1114,1391.42,1130,1375c31.72-32.84,53.39-68.91,59.17-110.28a425.85,425.85,0,0,0,10.58-42.55c2.87-14.59,5.17-29.7,6.93-45.77s3-33.12,3.67-51.69c.34-9.3.56-19,.65-29.12s.07-20.82,0-31.85c-.49-45.47-1.26-90.7.7-128.14S1218.45,868.53,1229.27,854.21Zm-37.34,370.88c-2.29,14.38-6.28,11.84-9.43,20.27-.62,3.47-1.56,6.45-2.36,9.34-.41,1.43-.81,2.82-1.23,4.16l-1.4,3.74-1.39,3.52c-.47,1.12-.87,2.26-1.41,3.27-1,2-2,4-3,5.86-.51.93-1,1.86-1.49,2.74l-1.6,2.59c-1.08,1.7-2.09,3.39-3.17,5s-2.26,3.29-3.38,5c-.58.84-1.08,1.71-1.71,2.56l-1.82,2.6c-5.26,8.78-11.82,20-20.21,32a303.15,303.15,0,0,1-30.16,37c-22.88,24.11-50.83,44.31-68,49.87,13.22-7.62,21.48-16.93,29.28-26.32s15.25-18.85,26.83-27.67c8.24-19.77,16.31-37.52,26-57.31.59-1.25,1.29-2.47,1.85-3.74s1.19-2.54,1.82-3.81c1.34-2.53,2.44-5.18,3.78-7.83.32-.66.69-1.32,1-2l.92-2q.93-2.06,2-4.14l1.9-4.27c.64-1.45,1.4-2.88,2-4.39s1.27-3,2-4.53c.16-.39.35-.76.51-1.15l.46-1.2,1-2.4c.63-1.62,1.37-3.2,2-4.92s1.28-3.52,2-5.32c.34-.9.72-1.79,1.06-2.73l1-2.91q1-3,2.09-6c1.23-4.3,2.79-8.53,4-13.4.56-2,1.26-4,1.92-6.12s1.34-4.24,2.09-6.36l1.14-3.2,1.09-3.34,2.3-6.68c2.88-9.2,5.71-18.7,7-28.64,2.51-18.39,2.23-38.3,2.16-56.49s.19-34.8,3.68-45.84c2.24,1.76,4.13,5.12,5.75,9.73a107,107,0,0,1,4.07,17.07c2.23,13.25,3.6,29.68,4.36,46.19s.9,33.17,1,47.45c0,7.11.15,13.82.33,19.62A107.64,107.64,0,0,0,1191.93,1225.09ZM1299.38,1129c1.76,6.4,2,11.82,1.75,18.59-.1,3.38-.22,7.09-.35,11.42s-.11,9.29,0,15.18c-2.93-1.12-3.35-9-2.94-18.25.13-4.64.5-9.65.83-14.36S1299.29,1132.46,1299.38,1129ZM751.83,1691.85c-18.42,5.47-36.83,10.72-55.62,14.94-9.33,2.32-18.85,4-28.35,6-9.58,1.73-19.26,3.33-29,4.51q-3.68.49-7.36.87l-7.39.78c-5,.41-9.91.88-14.91,1.15-10,.65-20.11.9-30.33.83a387.18,387.18,0,0,1-62.6-5.47,332.08,332.08,0,0,1-52.83-13.65,383.39,383.39,0,0,1-45.72-19.42,458,458,0,0,1-46.29-26.9c-8.08-5.46-16.49-11.37-25.2-18.1s-17.79-14.52-27-23.32L304,1599.46c-2.38-2.39-4.85-4.7-7.24-7.14s-4.84-4.93-7.31-7.57-5-5.43-7.51-8.44l-3.86-4.7-2-2.47c-.66-.84-1.3-1.73-2-2.61l-4.05-5.53c-1.39-1.91-2.69-4-4.09-6.07-2.83-4.18-5.51-8.88-8.41-13.93a231,231,0,0,1-15.52-35.31,311.61,311.61,0,0,1-9.93-35.54c-2.53-11.65-4.45-23-6.27-33.73-.76-5.4-1.76-10.65-2.52-15.78-.22-1.29-.45-2.56-.67-3.82s-.47-2.51-.66-3.76c-.41-2.5-.87-5-1.38-7.38a238.63,238.63,0,0,1,7.42-44.55,262.06,262.06,0,0,1,14.85-41.35c1.4-3.34,3.1-6.49,4.65-9.7.81-1.59,1.52-3.22,2.4-4.76l2.53-4.64,2.51-4.63q1.35-2.25,2.67-4.5c.91-1.53,1.81-3.07,2.71-4.6s1.9-3,2.83-4.45c3.7-6,7.67-11.66,11.6-17.3q3.06-4.14,6-8.3c2.09-2.67,4.16-5.34,6.2-8a48.18,48.18,0,0,1-3.65,9c-.89,1.76-1.77,3.77-2.82,5.83s-2.19,4.24-3.36,6.55c-2.2,4.74-4.88,9.75-7.27,15.35-1.24,2.77-2.57,5.56-3.71,8.57q-.89,2.19-1.79,4.44c-.59,1.48-1.21,3-1.72,4.52-1.07,3.08-2.19,6.16-3.24,9.31s-1.91,6.37-2.87,9.6l-2.43,9.78c-.75,3.26-1.31,6.56-2,9.78a199.13,199.13,0,0,0-3.06,36.78,220,220,0,0,0-3,45.38,239.25,239.25,0,0,0,6.06,44.83,274.23,274.23,0,0,0,34.21,82.55,285,285,0,0,0,57.61,67.05A323.4,323.4,0,0,0,418,1664.49a402.78,402.78,0,0,0,81.82,26.94,503,503,0,0,0,84.4,10.75,600.91,600.91,0,0,0,84.18-2.21c27.78-2.59,55.24-6.73,82.32-11.84C751.09,1689.37,751.46,1690.61,751.83,1691.85Zm-147.45-422c2-.89,14.16,8.77,15.39,7,11.34,8.69,22.28,16.71,33,24q4,2.72,8,5.32l7.87,5.19q7.81,5.09,15.43,9.82l29.47,18.33c4.75,3,9.44,5.9,14,8.88s9,6,13.41,9.07a262.23,262.23,0,0,1,24.37,19.78c4.12,3.64,8.38,7.41,12.91,11.28q3.39,2.9,7,5.85c2.42,2,4.89,4,7.49,6,6.91,5.41,14.65,10.85,22.48,16.22s15.6,10.81,22.76,16c3.58,2.59,7,5.13,10.12,7.61s6,5,8.44,7.33c5,4.74,8.49,9.15,9.79,13.11a133,133,0,0,1,11.48,7.11c4,2.76,8.12,5.83,12.39,9.11s8.65,6.79,13.1,10.4,8.91,7.43,13.43,11.21c18.09,15.1,36.26,30.76,52,40.2-2.69,1.83-15.46-5.16-24.72-9.23s-15-5.15-4,8.5a35,35,0,0,0,14.72,5.06,34.64,34.64,0,0,1,14,4.22c13.31,11.34,23.95,21.22,30.87,29.35s10.35,14.23,9.32,18c-20.48-12.13-56.93-40.5-94.22-70.43s-75.35-61.56-97.46-82.27c-35.18-21.71-59.72-44.73-92.91-70.92-3.74.7,5,6.65,12,11.87-22.68-12.7-42.16-30.92-62.11-49.55-10-9.3-20-18.8-30.6-27.61-5.29-4.43-10.69-8.74-16.26-12.84s-11.38-7.89-17.35-11.43C602.52,1275.42,613.88,1276.49,604.38,1269.85Zm421.38,331.06c8.11,8.38,11.55,14.16,18.06,21.64q-6.52,1.62-25-14C1009.14,1596.11,1017.25,1598.21,1025.76,1600.91ZM868.84,1792.8c-3-.32-6-.85-9-1.28l-9-1.38-9.13-1.66-4.57-.85-2.28-.42-2.3-.5-9.21-2-4.61-1-4.62-1.19-9.26-2.42-2.32-.61-2.4-.7-4.8-1.42a361,361,0,0,1-73.77-31.75,318.48,318.48,0,0,1-66.32-50.24c-5.05-5.09-10-10.32-14.72-15.86-2.37-2.76-4.72-5.53-7-8.44-1.14-1.45-2.32-2.93-3.47-4.43l-3.39-4.61a257.36,257.36,0,0,1-23.41-38.92,240.17,240.17,0,0,1-14.19-36.43,244.2,244.2,0,0,1-9.91-63.27c-.13-2.74-.09-5.49,0-8.24s.08-5.53.16-8.29.35-5.54.53-8.32l.3-4.17c.12-1.39.3-2.78.45-4.17.33-2.77.67-5.56,1-8.34s.88-5.56,1.34-8.34.91-5.59,1.54-8.32,1.19-5.4,1.79-8.1,1.32-5.25,2-7.88,1.39-5.25,2.19-7.81c1.62-5.1,3.17-10.3,5.05-15.26.92-2.5,1.83-5,2.78-7.51s2-4.89,3-7.34l1.54-3.66,1.63-3.59q1.67-3.57,3.32-7.16a341.27,341.27,0,0,1,32-52.78A375.44,375.44,0,0,1,679.27,1299a385.4,385.4,0,0,1,45.4-37.56c2-1.41,4.05-2.76,6.06-4.13s4-2.75,6.1-4l6.2-3.9c1-.63,2.09-1.32,3.07-1.89l2.93-1.7c7.83-4.46,15.55-9.16,23.34-13l11.58-6c3.84-1.87,7.68-3.62,11.48-5.42l5.69-2.66,2.84-1.33c.94-.43,1.88-.8,2.82-1.21l11.17-4.76c12.39-3.72,28.46-7.83,46-11.86,4.37-1,8.81-1.84,13.34-2.8l6.83-1.44c2.28-.46,4.55-.85,6.84-1.28l13.8-2.61,13.67-2.33c2.26-.39,4.55-.82,6.77-1.18l6.64-1.06,13-2.16c4.2-.66,8.32-1.33,12.32-2l11.56-2c3.69-.66,7.25-1.34,10.63-2s6.5-1.33,9.48-2a123.56,123.56,0,0,0,15.09-4.4l16.54-1.14c5.42-.38,10.86-.8,16.23-1.24s10.61-.87,15.89-1.35l16.73-1.49c22.76-2,47.17-3.89,73.66-3.69a400.38,400.38,0,0,1,41.51,2.48,302.46,302.46,0,0,1,45,8.68,251.08,251.08,0,0,1,47,18.18,228.12,228.12,0,0,1,44.43,29.61l3.88,3.63-97.9-27,6.35-1.23c1.06-.21,2.13-.38,3.18-.63l3.15-.81,3.16-.79c1-.28,2.13-.5,3.15-.85l6.23-2,1.57-.48,1.52-.57,3-1.14c2-.78,4.12-1.46,6.07-2.39l6-2.58c1.94-.93,3.83-1.93,5.76-2.88,1-.48,2-.93,2.88-1.44l2.76-1.59,2.77-1.57a29.46,29.46,0,0,0,2.72-1.61q2.61-1.71,5.27-3.37c.92-.54,1.71-1.17,2.54-1.77l2.5-1.8,2.51-1.77,2.33-1.9,2.35-1.87c.76-.64,1.63-1.21,2.31-1.9,1.43-1.32,2.88-2.63,4.36-3.91a23.11,23.11,0,0,0,2.07-2l2-2,2-2,1.82-2.09,1.85-2.06a20.26,20.26,0,0,0,1.8-2.06c1.09-1.43,2.21-2.82,3.36-4.2a19.56,19.56,0,0,0,1.55-2.13c.49-.72,1-1.43,1.51-2.13s1.07-1.39,1.54-2.11.87-1.46,1.32-2.18.91-1.43,1.38-2.14l.72-1.06.52-1a83.36,83.36,0,0,0,4.09-7.89,127.12,127.12,0,0,0,10.36-36.8c.13-.73.19-1.42.29-2.11s.26-1.38.36-2c.18-1.32.54-2.66.74-3.93.13-.64.29-1.29.43-1.92s.24-1.25.38-1.89l.22-1,.16-.93c.11-.65.26-1.13.41-1.7a39.15,39.15,0,0,0,1-6.9,24.23,24.23,0,0,0-.76-7.43c-.17-.58-.34-1.17-.52-1.77s-.47-1.15-.7-1.75l-.36-.89-.45-.86c-.31-.57-.56-1.18-.9-1.75a56.1,56.1,0,0,0-4.67-6.7c-1.56-1.88-3.25-3.68-4.91-5.52-.44-.43-.87-.87-1.29-1.33-.22-.23-.37-.44-.65-.71l-.86-.84c-.59-.59-1.11-1.18-1.74-1.79s-1.26-1.23-1.87-1.87a333,333,0,0,0-31.3-27.6c-6.45-5.11-13.73-10.48-20.82-15.61-3.56-2.6-7.18-5.07-10.81-7.55s-7.28-4.9-11-7.2c-13.62-8.59-33.2-17.08-46.64-25.26-9-5.37-13.12-11.62-21.22-16.73-3.13-2-6.39-4-9.75-5.91s-6.81-3.81-10.31-5.69c-7-3.8-14.23-7.37-21.27-11s-14-7.1-20.45-10.61a196.59,196.59,0,0,1-17.58-10.58c-20.32-8.24-40.17-16.17-60.07-24-5-2-9.95-3.9-14.95-5.82l-15.08-5.79-31.17-11.8c-21.34-8.07-43.85-16.56-68-26.39s-50-21-77.79-35.19c26.29,10.28,53.07,18.91,75.42,23.8s40.38,6.21,50,1.89c26.16,10.21,51,19,75,28.49s47.7,19.59,71.26,31.39c17,8.5,28.1,14.78,42.1,22.05s30.79,15.72,58.71,29.5c25.17,12.43,50,22.48,72.89,35.17,4.65,2.55,9.26,5.19,13.86,7.86s9.23,5.37,13.7,8.08c8.94,5.4,17.33,10.79,25,16.26A208.41,208.41,0,0,1,1364.1,997c.8.69,1.48,1.41,2.22,2.12l1.09,1c.36.35.73.7,1,1,1.24,1.35,2.56,2.6,3.74,4l1.82,2,1.73,2.11c1.2,1.37,2.23,2.86,3.35,4.28a115.5,115.5,0,0,1,7.54,11.85,122.74,122.74,0,0,1,5.81,12.63,127.35,127.35,0,0,1,4.19,13.08l.83,3.31.71,3.33c.27,1.1.43,2.22.63,3.33s.45,2.31.59,3.49a149.66,149.66,0,0,1,1.63,15.55,145,145,0,0,1,.11,15.88,151.37,151.37,0,0,1-1.56,15.81,145.64,145.64,0,0,1-3.3,15.27,130.88,130.88,0,0,1-5,14.26,107.34,107.34,0,0,1-6.58,12.74c-.61,1-1.26,1.93-1.89,2.89l-.94,1.42c-.34.47-.72.94-1.08,1.41-1.45,1.88-2.89,3.72-4.32,5.5-.36.45-.71.9-1.08,1.33l-1.2,1.24-2.39,2.43-2.37,2.34-1.18,1.13-1.3,1.05c-13.09,17.88-32.59,34.1-55.25,46.77s-48.57,21.55-73.89,27.38l51.85,14.33a177.26,177.26,0,0,0-34-24.52,179.14,179.14,0,0,0-35.59-15,196.81,196.81,0,0,0-33.63-7,204,204,0,0,0-30.2-1.34,305.25,305.25,0,0,0-58.43-3.07c-9.42.32-18.64,1-27.63,1.78l-6.7.64-6.61.7-12.82,1.45c-17.08,2-34,4.24-50.52,6.66-8.21,1.13-16.41,2.47-24.36,3.61L945.71,1231c-7.37-.41-15.09-.86-23.27-.89-4.09,0-8.25-.15-12.54,0s-8.69.24-13.18.42-9.11.57-13.82.94-9.52.77-14.46,1.5-10,1.37-15.09,2.19q-7.73,1.46-15.73,3.13a310,310,0,0,0-68.11,23.7q-4.44,2.19-8.92,4.49c-2.94,1.44-6.09,3.28-9.21,5.09s-6.22,3.72-9.3,5.69c-1.54,1-3.1,2-4.62,3l-4.54,3.16a265.71,265.71,0,0,0-34.9,29.34A230.72,230.72,0,0,0,657,1368a228.11,228.11,0,0,0-12.49,28c-1.77,4.59-3.22,9.29-4.66,13.87-.74,2.27-1.31,4.64-2,6.93s-1.26,4.56-1.76,6.88c-1,4.64-2.09,9.15-2.83,13.77-.4,2.29-.81,4.55-1.16,6.84s-.61,4.58-.91,6.86l-.44,3.4-.32,3.44-.6,6.84c-.17,2.28-.25,4.57-.38,6.88s-.27,4.63-.27,7a287.6,287.6,0,0,0,4.22,56.09,114.42,114.42,0,0,0,5.11,37.71A165.71,165.71,0,0,0,654.35,1607c.79,1.4,1.64,2.78,2.51,4.16s1.73,2.78,2.61,4.18l2.76,4.17c.93,1.4,1.84,2.82,2.84,4.21l3,4.26c1,1.43,2.06,2.83,3.1,4.29,2.06,2.91,4.3,5.78,6.47,8.72q7.44,9.7,15.8,19.08c5.6,6.23,11.56,12.26,17.88,18.16A272.1,272.1,0,0,0,754,1710.76a255,255,0,0,0,53.08,24.91c2.44.81,4.92,1.58,7.41,2.35s4.92,1.37,7.42,2l7.52,2,7.65,1.65c2.57.52,5.16,1.11,7.76,1.55l7.87,1.26c5.3.89,10.63,1.41,16,2a92.23,92.23,0,0,0-8.73,8.2c-2.49,2.62-4.71,5.15-7.17,7.42a43.85,43.85,0,0,1-8.63,6.39,47.84,47.84,0,0,1-5.85,2.75,57.51,57.51,0,0,1-7.47,2.18c4.16,3.23,13.84,6.22,22.38,9.09a90.26,90.26,0,0,1,11.1,4.08C867.28,1790,869,1791.29,868.84,1792.8Zm-62.27-1040c-3.4,1.38-11.42-1.81-10.5,3.85-1.66-1.48-3.36-2.92-5.1-4.35s-3.53-2.81-5.32-4.3c-3.6-2.93-7.34-5.76-11.17-8.53l-2.9-2.05c-1-.69-1.92-1.44-2.89-2.14-1.94-1.44-3.9-2.85-5.86-4.26s-4-2.78-6-4.15l-3-2-3.1-2.24-6.21-4.46-6.07-4.49c-4.06-2.94-7.88-6-11.72-8.92s-7.41-5.93-10.9-8.84-6.78-5.78-9.82-8.64c-9.19-10.26-17.59-20.68-25.38-31.29s-15-21.35-21.6-32.38-12.6-22.36-18.07-34a342.57,342.57,0,0,1-14.45-36.23,298.64,298.64,0,0,1-10.28-39.11,278.09,278.09,0,0,1-5-42.46A273.2,273.2,0,0,1,613.37,426a252.24,252.24,0,0,1,11-47.83c1.27-3.19,2.76-6.66,4.46-10.24l1.27-2.64q.68-1.36,1.35-2.7c.86-1.73,1.9-3.65,2.86-5.42a178.8,178.8,0,0,1,14.81-22.73,159.25,159.25,0,0,1,23.3-24.55c2.49-2.09,5-4.11,7.8-6.17,1.39-1,2.79-2,4.22-3s3-2,4.52-3,3.08-1.92,4.71-2.85,3.3-1.85,5-2.74c3.37-1.81,6.9-3.4,10.51-4.95a136.84,136.84,0,0,1,37.77-11,148.75,148.75,0,0,1,31.84-1A169.29,169.29,0,0,1,803.55,279c7.26,1.63,13.67,3.51,19.44,5.41a278.9,278.9,0,0,1,58.67,27.53,297.13,297.13,0,0,1,49,38.08,331.72,331.72,0,0,1,38.22,43.82,400.42,400.42,0,0,1,54.82,104.89,379.88,379.88,0,0,1,21,109.66c.15,5,.29,10,.15,15l-.17,7.54c-.1,2.51-.27,5-.42,7.56s-.31,5.09-.55,7.5l-.79,7.05q-.83,7-1.72,14l-.46,3.49-.6,3.43q-.62,3.44-1.22,6.85-1.25,6.83-2.49,13.6c-1,4.45-2,8.84-3,13.23l-1.5,6.55c-.52,2.17-.94,4.38-1.55,6.48-8.63,34.27-18.77,65.15-24.8,93.87-1.65,3.93-3.35,8-5.08,12.06l-2.68,6.19L995,839q-2.9,6.16-5.88,12.51c-2,4.2-4.13,8.3-6.24,12.51-8.42,16.83-17.58,33.4-26.47,49.54L943.24,937.1,937,948.44c-2,3.69-4,7.34-6,10.91s-3.82,7.16-5.61,10.56-3.51,6.78-5.15,10.07c-3.3,6.62-6.21,12.8-8.74,18.69-29.64,40.65-67.21,115.85-103.24,170.8-7,14.3-13.41,28.06-19.49,41.41q-4.57,10-8.89,19.74-2.16,4.88-4.28,9.68l-1.06,2.41-.53,1.19-.26.6-.12.29-.07.18c-.39,1-.74,2-1,2.85a24.88,24.88,0,0,0-1.06,4.25l-.05.38v.32a1.78,1.78,0,0,0,0,.53c0,.17.08.22.1.33s.06,0,.09.07l0,0s0,0,0,0l-.53-.16c-.68-.22-1.44-.44-2.07-.65a200.66,200.66,0,0,0-27.92-6.85l-2.85-.45c-.92-.14-1.92-.23-2.79-.35s-1.71-.2-2.57-.28l-1.3-.09-1.16-.11c-.79-.06-1.57-.1-2.37-.11s-1.41-.07-2.13-.08c-1.5,0-2.64,0-3.93.07l-1.7.1c-.53,0-1.16.13-1.6.16-.9.07-2,.28-2.64.38-.37.06-.79.16-1.13.24l-.9.21-.76.22a5.75,5.75,0,0,0-.66.23,3.84,3.84,0,0,0-.4.14l-.31.13-.18.08,0,0s.23-.13.38-.24.72-.5.74-.54c-1.46,1.14-1.43,1.51-.75.41a30,30,0,0,0,3.28-8.2,79.23,79.23,0,0,0,2.42-17.24,159.33,159.33,0,0,0-.87-24.46l-.38-3.44c-.14-1.17-.29-2.33-.45-3.49-.32-2.37-.66-4.8-1.08-7.19l-.29-1.85,0-.1h0v0s0,0,0-.07a.54.54,0,0,1,.19-.17,15.46,15.46,0,0,1,2.09-1.05l1.64-.76.52-.23,1-.42,2-.85q4.1-1.69,8.27-3.34l16.84-7c22.75-9.74,47.07-20.42,74.19-33.6-15.93,14.16-39.31,27.36-62.2,38l-8.51,4c-2.8,1.33-5.64,2.49-8.38,3.74s-5.43,2.53-8.1,3.67-5.27,2.32-7.79,3.49l-3.71,1.76-.46.22-.23.13-.45.27-.85.51a23.45,23.45,0,0,0-2.71,1.87,4.76,4.76,0,0,0-1.41,1.65,2,2,0,0,0-.19.82v.2c.06.59.13,1.18.19,1.76.19,1.54.34,3,.47,4.55a159.39,159.39,0,0,1,.51,23.22q-.07,1.24-.21,2.49c0,.77-.11,1.53-.2,2.29-.21,1.6-.34,2.92-.58,4.32l-.34,2c-.11.62-.25,1.25-.4,1.87s-.23,1.11-.37,1.66l-.43,1.59a28.5,28.5,0,0,1-3.12,7.57c-.64,1-.66.71.63-.34l.11-.08.11-.09-.05,0-.2.17-.45.32-.25.17-.23.14,0,0h0l.09,0,.15-.07.34-.14a28.39,28.39,0,0,1,7.23-1.48,75.13,75.13,0,0,1,15.22.34,160,160,0,0,1,21.81,4.18c1.06.27,2.15.54,3.21.83l1.59.45.23.07h0l-.18-.19-.14-.35-.08-.49a13.55,13.55,0,0,1,.21-3.1,43.78,43.78,0,0,1,1-4.35c.23-.8.47-1.64.75-2.51l.11-.32,0-.16.09-.23.36-.94.73-1.86c3.86-9.92,7.54-19.22,11.2-27.68,12.58-29.08,31.73-64.54,45.14-95.17,16.37-37.39,22.42-60,52.18-116.48,5.91-11.22,11.75-22,17.82-33.26,3-5.65,6.09-11.38,9.25-17.26s6.37-12,9.65-18.46c13.74-26.71,29.81-54.9,44.13-83.26l2.7-5.27c.86-1.79,1.72-3.58,2.58-5.35l5.09-10.6c1.7-3.47,3.25-7,4.8-10.56l4.56-10.45c1.52-3.41,2.82-6.94,4.17-10.36s2.61-6.82,3.85-10.16,2.34-6.69,3.4-10,2.06-6.53,3-9.7q.76-2.58,1.44-5.21c.4-1.79.77-3.58,1.12-5.39.71-3.6,1.35-7.23,2-10.84.32-1.81.65-3.61,1-5.41s.59-3.63.88-5.44c.61-3.62,1.3-7.19,2.15-10.68.52-2.07,1-4.15,1.58-6.27l1.49-6.5c1-4.39,2.1-8.87,3.23-13.42.27-1.14.58-2.28.84-3.44s.48-2.33.73-3.5c.49-2.36,1-4.72,1.48-7.1s1-4.78,1.51-7.19,1-4.82,1.41-7.3c.79-4.93,1.58-9.91,2.32-14.91l.56-3.76c.18-1.25.37-2.49.49-3.83l.75-7.92c.27-2.65.39-5.28.52-7.91s.23-5.25.31-7.87,0-5.21,0-7.8-.08-5.18-.26-7.72a142.52,142.52,0,0,0-2.69-16.64c-.33-1.68-.67-3.37-1-5s-.7-3.2-1-4.66c-.63-2.94-1.11-5.44-1.29-7.09-.3-2.48-.63-5-.88-7.51s-.46-5.09-.78-7.64c-.61-5.1-1-10.3-1.72-15.44-.33-2.57-.66-5.15-1-7.7s-.82-5.09-1.26-7.6c-.82-5-2-9.93-3.2-14.66A323,323,0,0,0,981,459.71c-.9-2.1-1.94-4.16-2.94-6.24L975,447.21c-2.13-4.17-4.43-8.33-6.7-12.52-2.46-4.14-4.87-8.32-7.48-12.47l-4-6.19-2-3.11c-.7-1-1.45-2.05-2.17-3.07a292,292,0,0,0-41.33-47.2,270,270,0,0,0-55.38-38.9c-2.57-1.35-5.22-2.6-7.84-3.88s-5.24-2.6-8-3.7c-5.42-2.28-10.82-4.63-16.42-6.52l-4.18-1.47-2.1-.73c-.72-.24-1.34-.48-2.16-.73-3.13-1-6.36-2-9.87-2.87a160.14,160.14,0,0,0-23.79-4.39,126.69,126.69,0,0,0-31.11.5c-1.47.22-2.94.45-4.4.7s-3.05.61-4.57.94-3,.67-4.59,1.11-3.14.9-4.7,1.38l-2.33.74-2.37.85q-2.37.88-4.71,1.83c-3.13,1.29-6.26,2.83-9.32,4.38a114.56,114.56,0,0,0-30.45,23.72,132.39,132.39,0,0,0-17.66,24.71,168.88,168.88,0,0,0-9.85,21.25c-1.29,3.31-2.2,6.1-3.2,9.05s-2,5.85-2.81,8.83l-2.47,8.92c-.73,3-1.39,6-2.06,9s-1.23,6-1.74,9l-.77,4.52-.37,2.26-.29,2.26c-.36,3-.73,6-1.09,9s-.48,6-.7,9c-.1,1.5-.24,3-.28,4.5l-.13,4.47-.11,4.46,0,2.24,0,2.21.18,8.83c.12,2.93.33,5.83.51,8.74.1,1.45.18,2.91.31,4.35l.44,4.29c.33,2.85.57,5.74,1,8.55A351.89,351.89,0,0,0,652.64,558a244.37,244.37,0,0,0,19.09,47.22A246.93,246.93,0,0,0,691,635c1.8,2.39,3.54,4.82,5.38,7.17l5.45,7,10.82,13.74c3.51,4.59,7.08,9,10.52,13.41s7,8.69,10.51,12.88,7.12,8.33,10.71,12.45,7.36,8.08,11.28,12c3.92,4,7.67,7.43,11.59,11s7.87,7.1,12.1,10.25,8.52,6.44,13,9.49S801.66,750.07,806.57,752.8ZM827,1210.87c-7.25,13.31-3.38,10.86-10.48,19.55C810.11,1231.94,824.7,1204.72,827,1210.87Z"/><path class="b" d="M387.05,1347.2a12.54,12.54,0,0,0-2.65,4.53c-.28.77-.56,1.47-.84,2.2a14.38,14.38,0,0,1-.84,2.3c-.28.08-.56.17-.84.28a5.55,5.55,0,0,0-.74.44c-.49.33-1,.71-1.5,1.11a7.34,7.34,0,0,0-1.37,1.46c-.42.54-.92,1.06-1.32,1.66s-.74,1.29-1.13,1.93a6.76,6.76,0,0,0-.56,1l-.43,1c-.06.14-.19.38-.3.6l-.34.67-.35.66-.29.71c-.38.94-.77,1.87-1.2,2.77s-.67,1.89-1.06,2.78c-.18.46-.37.9-.57,1.34s-.29.91-.46,1.34a24.08,24.08,0,0,1-1,2.54c-.31.89-.64,1.77-1,2.59-1.5,3.29-3.11,6.11-5.46,7.92.22-1,.42-1.94.6-2.92s.51-1.87.76-2.79c.4-1.91,1.14-3.63,1.65-5.43.07-.22.12-.46.2-.67l.25-.6.48-1.21c.33-.8.56-1.64.93-2.42s.74-1.57,1.08-2.36l.51-1.2.62-1.13c.4-.75.79-1.52,1.17-2.28a7.56,7.56,0,0,1,.63-1.11l.66-1.08c.35-.57.58-1.09.93-1.65s.77-1.07,1.12-1.62a62.63,62.63,0,0,1,4.74-6.17c.4-.52.92-.91,1.35-1.39s.86-1,1.31-1.42,1-.83,1.44-1.27.89-.94,1.41-1.32l1.5-1.21c.25-.2.49-.41.75-.6l.81-.53c.53-.36,1.05-.73,1.56-1.13a4.3,4.3,0,0,1,.81-.52l.84-.49a47.53,47.53,0,0,1,14.51-6,49.13,49.13,0,0,1,7.85-1c-1.09,1.54-3.86,2.72-7.16,3.81a26.27,26.27,0,0,1-2.95,1,10.56,10.56,0,0,0-1.51.56c-.51.19-1,.36-1.55.5l-.39.1-.37.17-.75.31a14.11,14.11,0,0,1-1.51.51l-.38.11-.36.16-.7.31c-.47.19-.94.35-1.4.5C390.59,1346.92,387.75,1348,387.05,1347.2Z"/><path class="b" d="M431,1343.07a7.85,7.85,0,0,0-6.38.56,14.88,14.88,0,0,1-2.47,1.11,5.55,5.55,0,0,1-1.47.35,9.38,9.38,0,0,1-1.81.08c1.07-2.14,3.63-3.09,6.29-3.85.66-.16,1.34-.4,2-.57a11.69,11.69,0,0,0,1.92-.64,7.11,7.11,0,0,0,3.13-2c2.37.81,1.57,1.14.45,1.78S430.15,1341.36,431,1343.07Z"/><path class="b" d="M779.48,1333.3c13.06-8,37.66-18.54,62.65-31,6.21-3.2,12.5-6.4,18.64-9.68l9-5c3-1.68,5.93-3.28,8.74-5l8.27-5.07c2.67-1.67,5.28-3.28,7.71-5,4.9-3.35,9.38-6.55,13.26-9.57-14.87,13.4-36.21,26.62-59.25,38.42S800.85,1323.6,779.48,1333.3Z"/></svg>