<svg xmlns="http://www.w3.org/2000/svg" viewBox="0 0 1920 1920"><defs><style>.a{fill:none;}.b{fill-rule:evenodd;}</style></defs><path class="a" d="M261.37,268C301,302.64,336.48,343.79,367.27,391c31,47,57.27,99.69,80,155.75,11.29,28.09,21.62,57.08,31.17,86.73s18.29,60,26.31,90.89c2,7.73,4,15.45,5.91,23.27l2.88,11.69,2.79,11.77c1.89,7.82,3.65,15.75,5.45,23.64.91,3.91,1.77,8,2.64,12L527,818.8c1.73,8.09,3.51,16.09,5.21,24.24l5,24.56,2.51,12.27,2.46,12.42,4.9,24.89,19.47,101.45,5,25.8,2.5,12.93,2.58,13,5.16,26.08,5.4,26.3,2.72,13.16c.9,4.39,1.79,8.77,2.78,13.21l5.8,26.57,2.9,13.28,3.11,13.39,6.26,26.79c.53,2.23,1,4.45,1.58,6.7l1.7,6.74,3.4,13.49c2.3,9,4.49,18,6.87,27l7.45,27.12,3.74,13.56c.6,2.26,1.29,4.53,2,6.8l2,6.81,8.2,27.24,2.06,6.8c.68,2.27,1.48,4.55,2.22,6.82l4.51,13.65,9.08,27.29,10,27.29c6.39,18.2,14,36.33,21.32,54.45,3.59,9,7.56,18.21,11.69,27.49l3.15,7c1,2.33,2.09,4.65,3.22,7l3.32,7.08c1.11,2.37,2.19,4.71,3.39,7.11,9.2,19,19.41,38.45,31.08,58.1a594.15,594.15,0,0,0,40,59.15,495,495,0,0,0,51.62,57.35c4.85,4.57,9.91,9,14.91,13.52,1.22,1.11,2.58,2.23,3.94,3.36l4.07,3.35,8.18,6.65c5.53,4.29,11.17,8.41,16.81,12.55,5.72,4,11.51,7.81,17.31,11.63a442.78,442.78,0,0,0,73,37.38,463.76,463.76,0,0,0,76.49,23.2,482.81,482.81,0,0,0,155.86,7.09,472.41,472.41,0,0,0,151.47-44,444.58,444.58,0,0,0,69.91-42.24,455.33,455.33,0,0,0,60.31-53.53,484.1,484.1,0,0,0,87-129.2A509.11,509.11,0,0,0,1626,1434.93a496.82,496.82,0,0,0-3.28-153.84c-1.25-6.44-2.54-12.87-3.91-19.29-1.53-6.42-3.06-12.83-4.73-19.22l-2.73-9.56-1.39-4.77c-.47-1.59-.93-3.22-1.42-4.68l-2.94-9-1.49-4.47-.75-2.24-.79-2.16a622.23,622.23,0,0,0-27.32-64.68c-9.67-19.84-19.59-38.07-29.24-55s-19-32.7-27.79-47.43-16.85-28.45-24-41.24-13.35-24.61-18.37-35.37a248.42,248.42,0,0,1-11.55-28.84,119.27,119.27,0,0,1-5-21.78c-.07-.77-.15-1.54-.26-2.31l-.16-1.15,0-1.1c0-.74-.07-1.47-.14-2.2,0-.35-.09-.78-.09-1.06v-.83a55.84,55.84,0,0,1,.26-7,72.4,72.4,0,0,1,3.34-15.56,75.17,75.17,0,0,1,3.12-8.06c1.22-2.65,2.57-5.27,4-7.81a77.85,77.85,0,0,1,4.79-7.26,75.16,75.16,0,0,1,5.32-6.49,66.52,66.52,0,0,1,11.31-9.88,58,58,0,0,1,5.74-3.48c2.06-1,4.29-2.06,6.66-3a62,62,0,0,1,7.56-2.43,79.25,79.25,0,0,1,25.74-2.47c2.9.19,5.77.5,8.55,1s5.43,1.11,8,1.82c.62.21,1.28.33,1.88.55s1.22.42,1.83.59,1.17.46,1.76.66,1.12.48,1.7.68c2.23.93,4.3,1.92,6.22,3l-45.85-246.31a158,158,0,0,1-28.27,26,221.22,221.22,0,0,1-19.07,12.44c-7,4.06-14.59,8.07-22.71,12s-16.92,7.67-26.11,11.36c-2.34.91-4.57,1.86-7,2.74l-7.17,2.71c-4.93,1.76-9.8,3.55-14.93,5.26-20.27,7-42.36,13.47-65.72,19.93s-48.12,12.83-74.41,19.83q-39.95,10.64-80.12,22.57c-53.54,16-107.31,34-160.93,54.79a1526.35,1526.35,0,0,0-159.72,72.37,1203.49,1203.49,0,0,0-153.83,96q-37.14,27.38-72.23,58.51c-3,2.54-5.83,5.19-8.71,7.83l-5.7,5.19q-3.72,3.39-7.37,6.84c-2.39,2.26-4.73,4.51-7.06,6.8s-4.58,4.63-6.86,6.94L579,1055.17l-6.85,6.95c-1.13,1.17-2.32,2.29-3.39,3.5l-3.22,3.61c-4.34,4.79-8.47,9.7-12.61,14.61-8.2,9.85-15.85,20-23.08,30.29s-13.86,20.83-20,31.49c-3.07,5.34-5.9,10.73-8.68,16.14s-5.33,10.86-7.72,16.35a323.83,323.83,0,0,0-12.61,33.2A309.58,309.58,0,0,0,472.3,1245a269.67,269.67,0,0,0-4.38,34,258.64,258.64,0,0,0-.14,34.21,265.68,265.68,0,0,0,4.3,34c.58,2.81,1.07,5.63,1.75,8.42s1.32,5.59,2,8.37c1.57,5.52,3.21,11,4.88,16.53l4.7,12.75c.81,2.11,1.71,4.19,2.58,6.28s1.71,4.19,2.69,6.24c1.92,4.09,3.77,8.23,5.91,12.21,1.05,2,2.08,4,3.16,6l3.38,5.88A264.83,264.83,0,0,0,535,1473.56c24.09,26.74,53.41,48.81,87,65.74A363,363,0,0,0,675,1561,435.69,435.69,0,0,0,732.73,1575l3.71.66,3.74.58,7.48,1.15c2.49.41,5,.66,7.53,1l7.55.94,7.61.75c2.53.25,5.06.53,7.62.66l15.33,1c2.56.15,5.11.36,7.67.46l7.72.17,15.43.35c2.58.06,5.12.07,7.74.08l8-.07,5.2-.07c1.62,0,3.25,0,4.88-.1a779.09,779.09,0,0,0,78.42-5.88,726.38,726.38,0,0,0,78.92-14.66,647.58,647.58,0,0,0,78.89-24.8c3.28-1.22,6.54-2.57,9.81-3.91l9.78-4,9.75-4.33c3.25-1.45,6.5-2.88,9.73-4.47l9.68-4.67c3.23-1.53,6.43-3.28,9.64-4.92s6.42-3.3,9.6-5.06l9.54-5.34a525.79,525.79,0,0,0,73.5-50.38l4.4-3.58,4.31-3.72,8.59-7.48c2.84-2.54,5.62-5.18,8.41-7.78s5.6-5.18,8.29-7.93c5.41-5.44,10.86-10.81,16-16.54,2.62-2.84,5.2-5.65,7.8-8.55q4.08-4.76,8.11-9.56l4-4.82c1.35-1.6,2.56-3.25,3.84-4.89l7.53-9.87,1.86-2.48,1.77-2.51,3.52-5c2.31-3.38,4.7-6.74,6.91-10.16l6.5-10.32,3.22-5.18,3-5.25,6-10.55c2-3.52,3.72-7.11,5.57-10.67l2.72-5.37c.9-1.79,1.81-3.58,2.63-5.39l5-10.88c.82-1.82,1.66-3.63,2.44-5.46l2.27-5.5,4.46-11c1.43-3.7,2.73-7.44,4.08-11.16l2-5.6,1-2.8.9-2.82,3.53-11.32c.57-1.9,1.19-3.78,1.7-5.68l1.54-5.72,3-11.47c.92-3.84,1.76-7.7,2.62-11.56,1.79-7.7,3.12-15.52,4.49-23.33.72-3.89,1.22-7.84,1.77-11.78s1.06-7.88,1.54-11.83l1.13-11.93c.36-4,.72-8,.89-12l.57-12,.12-3,0-3,0-6.07c0-4.06.07-8.09,0-12.16l-.47-12.25-.28-6.12-.5-6.16-1.08-12.33c-.44-4.12-1-8.26-1.56-12.39s-1.06-8.24-1.85-12.41c-1.48-8.31-2.92-16.57-5-24.91-1-4.16-1.91-8.3-3-12.46s-2.34-8.32-3.55-12.47l-1.84-6.22-2.09-6.22q-2.12-6.22-4.32-12.41c-1.55-4.12-3.24-8.24-4.9-12.35s-3.32-8.2-5.26-12.27-3.8-8.13-5.75-12.18c-.49-1-1-2-1.47-3l-1.59-3-3.22-6-3.26-6c-1.09-2-2.18-4-3.4-5.93q-3.55-5.88-7.21-11.7c-1.25-1.94-2.39-3.9-3.74-5.79L1338,864c-2.66-3.78-5.32-7.56-8.06-11.29s-5.73-7.32-8.65-10.94l-4.39-5.41c-1.49-1.79-3.07-3.51-4.61-5.26q-4.66-5.22-9.41-10.36c-1.56-1.74-3.24-3.36-4.89-5l-5-4.91-5-4.87-2.53-2.42c-.85-.79-1.67-1.49-2.51-2.23q-5-4.41-10.09-8.75l-5.09-4.31c-1.7-1.42-3.41-2.69-5.13-4q-5.14-4-10.34-7.89c-3.48-2.69-6.92-5-10.4-7.37s-6.95-4.72-10.45-7c-.88-.6-1.74-1.13-2.6-1.66l-2.58-1.59-5.19-3.17-5.2-3.14-2.61-1.56-1.31-.78-1.27-.71-10.24-5.63c-3.42-1.86-6.89-3.77-10.19-5.37l-10-5c-1.66-.81-3.38-1.69-5-2.43l-4.88-2.23-9.79-4.41c-1.66-.75-3.23-1.41-4.8-2.06l-4.75-2c-25.34-10.56-48.81-18.59-70.13-25.59l-30.26-9.77-13.79-4.47-6.56-2.17L1027,677.1l-2.62-.92c-7-2.35-13.91-5.06-20.76-7.75l-5.07-2.13-2.53-1-2.49-1.11-5-2.2-4.87-2.29a321,321,0,0,1-36-19.75c-1.42-.84-2.65-1.75-4-2.61s-2.67-1.73-3.89-2.62c-2.44-1.78-5-3.49-7.26-5.27-4.77-3.49-8.81-7-12.67-10.38-1.74-1.69-3.7-3.34-5.18-5l-1.2-1.2a12.64,12.64,0,0,1-1.15-1.18c-.69-.78-1.39-1.54-2.11-2.29a77,77,0,0,1-6.38-8.07c-.21-.29-.42-.58-.65-.86s-.3-.54-.46-.81c-.3-.52-.67-1-1-1.52-.34-.91-1.1-1.8-1.27-2.5a5.29,5.29,0,0,0-.29-.52l-.16-.25c0-.08,0-.16-.06-.23a2.61,2.61,0,0,0-.36-.84c-.12-.14-.07-.25-.1-.36a2.07,2.07,0,0,0-.1-.33,1.52,1.52,0,0,0-.17-.3c0-.09,0-.18,0-.26a1.08,1.08,0,0,0-.18-.46.5.5,0,0,0,0-.38c-.13-.11,0-.24,0-.35a.48.48,0,0,0,0-.17l-.06-.08s0-.07,0-.1a.48.48,0,0,0,0-.39.47.47,0,0,1-.06-.09.78.78,0,0,0,0-.14,1.09,1.09,0,0,0,0-.26c-.16-.3.11-.79,0-1.25a.51.51,0,0,1,0-.17l.06-.12a.81.81,0,0,0,0-.53s0-.09,0-.13l.07-.11a.64.64,0,0,0,.07-.45c0-.09,0-.16.07-.24a.92.92,0,0,0,.09-.23c-.09-.33.3-.68.27-1.12.06-.22.28-.46.34-.72a2.59,2.59,0,0,0,.09-.4c.05-.14.19-.3.26-.46a4.46,4.46,0,0,0,.41-1,8.05,8.05,0,0,0,.71-1.2c.11-.22.16-.42.3-.66s.34-.47.5-.72c.33-.49.54-1,.9-1.54.92-1.12,1.44-2.28,2.61-3.62l.75-1a7.53,7.53,0,0,1,.79-1c.63-.71,1.24-1.44,1.84-2.19s1.36-1.53,2.06-2.32l1.08-1.2a13.84,13.84,0,0,1,1.13-1.22c1.74-1.67,3.21-3.38,5.23-5.16,1-.88,1.83-1.78,2.86-2.69l3.15-2.76c.54-.46,1-.93,1.59-1.4l1.74-1.41,3.45-2.85a350.16,350.16,0,0,1,34-23.47c12.94-7.84,27.13-15.59,42.22-23.15s31.2-14.91,48-22.18l-129-298.58c-21.06,9.12-42.5,18.91-64.23,29.74s-43.82,22.83-66.12,36.37a673.67,673.67,0,0,0-67.54,46.87l-8.49,7-4.23,3.5c-1.41,1.17-2.83,2.44-4.24,3.67l-8.46,7.44c-2.81,2.53-5.63,5.23-8.43,7.86-5.6,5.16-11.19,11-16.72,16.6-1.38,1.39-2.76,2.93-4.14,4.42l-4.12,4.52c-2.74,3.05-5.47,6-8.17,9.27s-5.38,6.44-8,9.68c-1.34,1.59-2.65,3.35-4,5.06l-3.92,5.16c-5.24,6.73-10.26,14.28-15.22,21.61-2.45,3.77-4.83,7.73-7.2,11.62L619.67,419c-1.15,2-2.27,4.09-3.39,6.14q-3.35,6.18-6.59,12.41-3.12,6.48-6.11,13c-1,2.19-2,4.33-2.94,6.57L597.9,464c-1.78,4.55-3.6,9.05-5.22,13.7-3.12,9.39-6.25,18.74-8.58,28.48l-1.81,7.26c-.6,2.42-1.18,4.84-1.63,7.3q-1.44,7.35-2.73,14.74l-.63,3.69c-.19,1.24-.34,2.47-.5,3.7l-.91,7.41-.83,7.42-.38,3.71c-.11,1.23-.17,2.46-.25,3.69-.58,9.84-1.13,19.63-.84,29.63l.15,7.47.11,3.73.24,3.76q.52,7.5,1.22,15c.12,1.25.21,2.5.37,3.75l.5,3.74,1.07,7.48c.74,5,1.48,10,2.56,14.88s2.07,9.83,3.19,14.73,2.57,9.64,3.93,14.44c.7,2.39,1.36,4.81,2.12,7.16l2.36,7,2.44,7c.83,2.31,1.63,4.67,2.57,6.88q2.72,6.75,5.56,13.44l1.44,3.33,1.52,3.23,3.09,6.43c4.08,8.69,8.65,16.65,13.22,24.78,2.35,3.92,4.75,7.75,7.17,11.6,1.22,1.91,2.42,3.87,3.67,5.73l3.76,5.48a403.36,403.36,0,0,0,31.85,40.46l8.34,9.08c1.4,1.54,2.81,3,4.22,4.38l4.24,4.28c5.67,5.81,11.41,11,17.18,16.38,11.55,10.32,23.27,20.1,35.07,28.88,5.9,4.55,11.81,8.65,17.76,12.86,3,2.11,5.94,4,8.92,6s6,4,8.94,5.86a649.45,649.45,0,0,0,72.25,39.8l9.12,4.26,9.15,4.06,4.58,2,4.59,1.93,9.2,3.83c12.3,4.92,24.63,9.66,37.13,13.9l4.68,1.62,4.15,1.38,8.11,2.68,15.61,5.07,28.57,9.21c17.84,5.84,33.35,11.32,46,16.63s22.57,10.37,29.33,14.78c.77.56,1.55,1.11,2.34,1.63a18.36,18.36,0,0,1,2.23,1.55c.63.52,1.27,1,1.94,1.49.31.24.7.46,1,.7s.5.5.76.73c.52.48,1.06.92,1.62,1.35.13.11.31.21.4.31l.23.28a6.39,6.39,0,0,0,.5.54,6.17,6.17,0,0,0,.54.48c.17.17.4.28.52.51a9.11,9.11,0,0,0,1,1.1c.16.18.37.32.52.51s.28.43.43.63a9.53,9.53,0,0,0,1,1.14c.28.45.55.91.87,1.33.16.22.32.42.5.63a3.58,3.58,0,0,1,.42.72,13.43,13.43,0,0,0,.91,1.44,3.1,3.1,0,0,1,.44.78c.13.28.27.55.41.82l.46.8.25.39a3,3,0,0,1,.19.45,19.81,19.81,0,0,0,.84,1.81,12.16,12.16,0,0,1,.81,1.93c.25.68.57,1.31.85,2s.45,1.48.71,2.21l.42,1.08.31,1.21c.21.8.45,1.59.71,2.38s.36,1.72.58,2.57c.51,1.65.69,3.57,1.09,5.39a25.93,25.93,0,0,1,.41,2.88c.11,1,.31,1.93.41,2.94s.14,2,.24,3.07l.16,1.53,0,1.6c0,1.07.08,2.14.15,3.2s0,2.2,0,3.29v1.66l0,.82-.06.85c-.07,1.13-.13,2.26-.17,3.39a33.4,33.4,0,0,1-.26,3.43c-.12,1.15-.21,2.3-.29,3.46s-.35,2.32-.5,3.49-.23,2.33-.51,3.5c-.46,2.33-.74,4.69-1.37,7l-.75,3.51c-.33,1.16-.65,2.31-.95,3.48l-.44,1.75c-.13.58-.37,1.14-.54,1.71-.37,1.14-.72,2.29-1.06,3.44l-.25.87-.32.83-.62,1.68c-.42,1.11-.76,2.27-1.19,3.37s-.92,2.17-1.35,3.27l-.64,1.65c-.24.54-.51,1-.75,1.58-.49,1.06-1,2.12-1.43,3.19a15.79,15.79,0,0,1-.77,1.54l-.79,1.52c-.54,1-1,2.08-1.55,3s-1.13,1.93-1.67,2.9l-.8,1.47-.89,1.36c-.59.92-1.16,1.84-1.71,2.78s-1.23,1.71-1.81,2.59l-.88,1.31-.43.66-.48.59c-.64.79-1.26,1.59-1.86,2.41-.31.39-.57.86-.9,1.2l-1,1.1c-.63.74-1.25,1.49-1.85,2.26l-2.64,2.84c-1.69,2-3.66,3.76-5.47,5.67-.88,1-1.93,1.81-2.89,2.74s-1.91,1.85-2.92,2.74-2.06,1.75-3.07,2.65l-1.52,1.35-1.62,1.27a200.11,200.11,0,0,1-28.38,19.39l-3.95,2.22c-1.32.74-2.72,1.41-4.08,2.13s-2.68,1.47-4.12,2.12l-4.23,2c-1.39.71-2.86,1.34-4.32,2l-4.37,2-4.5,1.84c-1.5.62-3,1.26-4.55,1.81a320.34,320.34,0,0,1-39,12.22A399,399,0,0,1,887,1254c-14.65,1.85-29.66,3-44.82,3.34l-5.11.09s0,0,0,0a.35.35,0,0,1-.16.2l0,0h-.05l.17-.16,1.45-1.33c1.93-1.79,3.85-3.58,5.87-5.29q23.64-21,49.64-40.19c69.33-51.17,150.4-92.77,238.13-126.79,43.86-17,89.35-32.31,136-46.25q35-10.46,70.88-20c24.25-6.46,50.24-13.15,77.18-20.57s55.15-15.69,84.36-25.68c7.26-2.45,14.67-5.13,22-7.8l11.18-4.21c3.71-1.38,7.51-2.94,11.26-4.41,15.08-6.05,30.33-12.56,45.79-20s31-15.56,46.63-24.65A545.32,545.32,0,0,0,1684,880a483.48,483.48,0,0,0,86.41-80.48l126.54-150.9-172.4-95.41A393.19,393.19,0,0,0,1684,533.73c-3.45-1.38-6.89-2.83-10.37-4.1s-6.94-2.56-10.43-3.8l-10.5-3.45c-3.5-1.14-7-2.12-10.55-3.15a405.91,405.91,0,0,0-214.18-2,388.71,388.71,0,0,0-41.8,13.5,401.36,401.36,0,0,0-40.61,18.38,383.72,383.72,0,0,0-38.68,23.31A391.89,391.89,0,0,0,1240,630.45a407.25,407.25,0,0,0-51.38,69.64,406.89,406.89,0,0,0-35.41,78.6,396.82,396.82,0,0,0-18.06,85.79,377.63,377.63,0,0,0-1.7,44.86l.13,5.66c0,1.88.18,3.61.28,5.42l.67,10.75.38,5.37.56,5.3,1.2,10.58a445.11,445.11,0,0,0,17.71,79.37,569.61,569.61,0,0,0,26.68,67.6c9.61,20.6,19.59,39.37,29.33,56.79s19.27,33.46,28.19,48.49,17.25,29,24.7,42.12,14,25.31,19.51,36.58a302.06,302.06,0,0,1,13.17,30.85l.33.88.27.84.54,1.69,1.12,3.35c.22.59.32,1,.46,1.54l.4,1.46q.42,1.45.87,2.91c.49,2,.94,4,1.48,6,.39,2.05.79,4.09,1.24,6.13a171.61,171.61,0,0,1,.94,52.9,183.47,183.47,0,0,1-15.23,52.54,159,159,0,0,1-28.24,42.36,129.89,129.89,0,0,1-17.19,15.32,118.86,118.86,0,0,1-18.84,11.32,147.51,147.51,0,0,1-47,13.42,158.17,158.17,0,0,1-50.62-2.22,128.07,128.07,0,0,1-42.07-16.68c-1.37-1-2.8-1.92-4.22-2.84s-2.66-2-4-3c-.61-.53-1.23-1.06-1.86-1.56l-1-.76a7.68,7.68,0,0,1-1-.84c-1.4-1.35-2.86-2.56-4.32-3.91a169.69,169.69,0,0,1-17.68-19.79c-12-15.51-24.16-36-35.87-60.29-.74-1.46-1.46-3-2.19-4.6l-2.19-4.67c-.74-1.53-1.46-3.15-2.18-4.77l-2.18-4.84c-2.9-6.52-5.81-13.21-8.59-20.28-5.57-14-11.49-27.72-16.51-42.2l-7.87-21.45-7.28-22-3.65-11c-.59-1.84-1.24-3.64-1.8-5.52l-1.69-5.61-6.76-22.47c-17.85-60.11-32.33-123.43-45.86-188.72l-5-24.54-4.91-24.84-2.46-12.42-2.43-12.55L886,957.38,866.38,854.93l-5.12-26-2.59-13L856,802.71l-5.38-26.29c-1.84-8.79-3.8-17.68-5.7-26.51L842,736.65c-.95-4.43-1.89-8.83-2.94-13.34-2.05-9-4-17.94-6.21-26.94l-3.2-13.48-3.33-13.5c-2.18-9-4.53-18-6.86-27q-14-54.12-31.43-108.51c-11.67-36.22-24.55-72.47-39.08-108.59s-30.76-72.1-48.9-107.7a1098.15,1098.15,0,0,0-60.89-105.11,952.18,952.18,0,0,0-74.91-99.75,888.83,888.83,0,0,0-89.86-90.46Z"/><path class="b" d="M345.26,171.76c.61-3.06,4.11-.9,6.1-1.45,3.25,4.42,7.33,9.16,4.72,11.15Z"/><path class="b" d="M489.9,594.52A41.62,41.62,0,0,1,493,610.83c0,4.17-.19,8.15,1.87,15,2.71,12.76,6,9.92,9,15.5,4.69,18.85,9.28,37.73,14.07,56.32,1.17,4.66,2.36,9.31,3.57,13.92l3.58,13.85c2.44,9.16,4.78,18.35,7.26,27.35q1.85,6.79,3.65,13.52l3.69,13.35q3.78,13.4,7.45,26.4t7.7,25.75c2.61,8.43,5.16,16.85,7.82,25-3-1.17-1.34,5.7-.29,11.46-5.81.47-10.9-4.38-15.61-12q-4-14.81-7.83-29.33t-7.51-28.67q-1.86-7-3.73-13.93c-.61-2.32-1.23-4.63-1.84-6.94L524,770.52q-1.89-6.85-3.77-13.7t-3.88-13.56c-1.28-4.52-2.61-9-4-13.47L508.3,716.4c-2.83-8.84-5.6-17.73-8.65-26.47-5.94-17.58-12.54-34.85-19.8-52,8,.71,7.21-9.68,6.09-20.51S483.17,595.5,489.9,594.52Z"/><path class="b" d="M687.8,1461.1c0,6.77,6.49,21.35,2,22.38C685.68,1471.65,684.92,1464.21,687.8,1461.1Z"/><path class="b" d="M1003.47,1410.37c1.77,2.58,3.79,6.07,5.85,9.6,1,1.8,2,3.68,3,5.59s1.95,3.68,2.82,5.52a77,77,0,0,1,4.09,10c.85,3,1.17,5.29.57,6.83,11.43,11,22.63,20.21,34.53,34.76-.78,2.75-1.35,5.64-3.15,8.16-1.32-.61-2.76-1.29-4.28-2a26.32,26.32,0,0,1-2.33-1.3l-2.43-1.48-2.54-1.57c-.87-.53-1.71-1.22-2.59-1.85-1.75-1.3-3.57-2.59-5.38-4.09A115.36,115.36,0,0,1,1010.9,1456c-.75-1.08-1.49-2.17-2.2-3.26-.36-.54-.71-1.08-1.06-1.62l-1-1.69c-1.3-2.26-2.5-4.49-3.58-6.67s-2-4.5-2.74-6.65a45.44,45.44,0,0,1-1.81-6.35C996.82,1421.55,998,1414.5,1003.47,1410.37Z"/><path class="b" d="M1532.57,1568.24c-5.43,9.33-4.17,4.92-2.64.2.38-1.18.77-2.39,1.09-3.4a19.18,19.18,0,0,0,.56-2.3c.05-.44-.07-.48-.44.09s-1,1.74-2,3.7c-.42-2.23,2.37-8.79,5.55-14.22a53.68,53.68,0,0,1,4.46-6.72c1.3-1.51,2.33-2.06,2.73-.93a58.63,58.63,0,0,1-2.69,6.64l-3.78,7.66a61,61,0,0,0-2.81,6.42C1532,1567,1531.84,1568.12,1532.57,1568.24Z"/><path class="b" d="M1476.82,1039.49c-2.4,2.57-5.46,1.66-9.91-6.71C1469.33,1030.23,1472.39,1031.13,1476.82,1039.49Z"/><path class="b" d="M1560.48,751.79a30.08,30.08,0,0,0,8,3.1,16.73,16.73,0,0,0,4.85.31c2.63,0,4.73,0,8,4.63,7.93,1.06,16.07,4.06,23.82,8.16l-23.43-125.86a179.35,179.35,0,0,1-26.14,25.39c-9.58,7.78-19.66,14.84-28.92,21.59-3.34,2.36-6.44,4.91-9.69,7.41l-4.77,3.85-4.88,3.85c-.81.65-1.61,1.31-2.45,1.95l-2.54,1.9-5.16,3.81c-1.78,1.23-3.61,2.44-5.46,3.65s-3.75,2.4-5.75,3.5l-6,3.35c-2,1.09-4.1,2.15-6.16,3.23-4.1,2.18-8.44,4.18-12.72,6.26-8.74,4-17.71,7.92-27.09,11.52-18.65,7.32-38.57,13.75-59,19.8-41,12.08-84.31,22.21-126.82,34.4-24.29,6.93-48.87,14.51-72.62,21.68s-46.68,14-67.79,19.17c13.91-15.16,42.91-27.66,75.35-37.51s68.26-17.22,96.16-23.83c10.53-3.81,18.53-7.78,24.69-11.84,34.32-8,64.66-16.66,92-26.37a583.89,583.89,0,0,0,73-31.4c10.77-5.56,20.9-11.24,30.48-17s18.63-11.52,27.19-17.4c17.18-11.77,32.68-23.52,48.49-36.51l25.86,138.93c-.72-.6-1.44-1.23-2.17-1.87s-1.44-1.3-2.22-1.91c-6.17-1.13-11.39-3.15-17-5s-11.64-3.4-18.8-3.15c-1.91-.92-3.86-1.91-4.14-3.38-1.52-1.15-1.17-2.68-.11-4.22a17.27,17.27,0,0,1,2-2.28Z"/><path class="b" d="M1237,830.2c-11.93,5.21-37.86,14-38.48,7.27-6.53,3.88-14.07,5.84-22.26,7.84-4.1,1-8.37,1.93-12.75,3.07a129.53,129.53,0,0,0-13.46,4.36c-54,11-115.9,31.24-179.46,58.62-31.78,13.69-64,29.11-96,45.83s-63.56,35-94.43,53.86c-7.92-1.85,4.26-9.87,9.17-15.66,25-14.62,45.4-29.09,66.06-42.76l7.76-5.06c2.6-1.69,5.2-3.36,7.85-5,5.29-3.22,10.65-6.39,16.16-9.49s11.24-5.91,17.16-8.72,12.1-5.34,18.55-7.81c29.85-19.34,65.42-33.11,101-44.09s71.31-19.12,102.57-28.22c3.21-.31,6.72-.77,10.49-1.37s7.8-1.25,12-2.07,8.68-1.77,13.29-2.76,9.38-2.09,14.26-3.28c19.54-4.68,40.9-10.62,61-16.85C1241.94,818.5,1240.09,826.22,1237,830.2Z"/><path class="b" d="M882.47,977.37l1.91,3.38q-5.24,3.64-10.57,7l-10.69,6.54q-5.36,3.21-10.75,6.28c-3.61,2-7.13,4.18-10.69,6.24l-10.6,6.27c-3.47,2.17-6.91,4.36-10.31,6.61s-6.78,4.49-10,6.95-6.43,5-9.53,7.57c.82-3.85,5.2-8.8,10.2-13.86s10.68-10.13,13.87-14.62c11.09-5.88,20.47-11.81,29.64-16.71A120.13,120.13,0,0,1,882.47,977.37Z"/><path class="b" d="M768,1015c1.53.84.59,2.79-1.79,5.3a96.72,96.72,0,0,1-10.4,8.78c-4.2,3.2-8.84,6.42-12.92,9.11s-7.52,5-9.48,6a48.29,48.29,0,0,1,7.35-8c2.75-2.38,5.71-4.57,8.76-6.76s6.16-4.4,9.28-6.74A85.71,85.71,0,0,0,768,1015Z"/><path class="b" d="M1072.1,1449.64a36.44,36.44,0,0,1,5.69-7.2c1.42-1.48,3-3,4.82-4.65s3.7-3.32,5.76-5,4.25-3.2,6.51-4.72a66.85,66.85,0,0,1,7-4.25,48,48,0,0,1,15-5.15l3.16-2.71,3.18-2.77q3.23-2.76,6.55-5.46c2.24-1.76,4.44-3.68,6.71-5.5s4.58-3.66,6.91-5.51,4.63-3.79,7-5.67l3.58-2.83,3.56-2.94,7.25-5.92c2.43-2,4.82-4.11,7.27-6.17,4.93-4.09,9.72-8.56,14.66-13,2.44-2.25,4.82-4.63,7.25-7l3.63-3.55c1.22-1.18,2.37-2.45,3.57-3.69q3.52-3.75,7.1-7.55c2.3-2.62,4.58-5.28,6.87-8,1.14-1.37,2.28-2.67,3.42-4.1L1222,1322c1.12-1.48,2.25-3,3.37-4.45s2.26-3,3.28-4.56c.69,3.39,5.47-1,10.43-7.13a99,99,0,0,0,6.71-10c1-1.63,1.83-3.17,2.53-4.53a33.44,33.44,0,0,0,1.44-3.5c-1.17-.18-2.18.79-3.07,2.26a40.38,40.38,0,0,0-2.62,5.09c-1.61,3.49-3,6.24-4.28,2.83,10.09-16.43,19.48-32.81,26.82-48.43s12.58-30.41,15-42.94c2.42-.55.68,4.76,2.16,5.5.83-.08,1.79-2,2.78-4.43s1.83-5.62,2.73-8.17c.49.56.1,3.27-.74,6.76a57.55,57.55,0,0,1-1.67,5.6c-.65,1.94-1.37,3.89-2.07,5.69s-1.41,3.43-2,4.75a14.15,14.15,0,0,1-1.72,2.75c-.91,1-1.16,0-.37-4.3a51.32,51.32,0,0,0-2.69,8.61c-.29,1.22-.6,2.45-1,3.88a31.9,31.9,0,0,1-2,5,40.2,40.2,0,0,1,2.64-4,4.76,4.76,0,0,1,1.77-1.52c1-.39,1.61.24,2.3.51s1.46.18,2.67-1.69a31.91,31.91,0,0,0,2.21-4.31c.44-1,1-2.15,1.43-3.49s1-2.88,1.56-4.6c.35.4.26,1.44,0,2.77a41.11,41.11,0,0,1-1.4,4.57c-1.12,3.18-2.18,6.27-1.21,6.71-4.19,7.23-7.49,6.2-11.47,10.33a64.29,64.29,0,0,1-2.22,6.69c-1,2.67-2.43,5.64-3.89,8.83-2.85,6.41-6.71,13.33-10,19.58-3.42,6.17-6.45,11.57-7.76,14.95s-1.12,4.61,2.18,2.49c-3.82,9.27-14.79,21-26.52,31.58l-4.28,4q-2.12,1.86-4.14,3.7c-2.71,2.44-5.21,4.93-7.56,7.3a63.8,63.8,0,0,0-6.21,7,34.92,34.92,0,0,0-2.31,3.48,25.34,25.34,0,0,0-1.74,3.39q-4.05,3.54-7.81,7l-7.47,6.51c-4.8,4.33-9.54,8.24-14.06,12.25-2.24,2-4.55,3.87-6.79,5.8l-6.71,5.74-6.8,5.58c-2.28,1.87-4.55,3.79-6.91,5.59C1125.65,1419.68,1104.47,1434.88,1072.1,1449.64Z"/><path class="b" d="M1286.91,1189.36c3.29-8.55,8.5-17,8.57-7.15C1292.72,1191.92,1289.81,1190.86,1286.91,1189.36Z"/><path class="b" d="M1290.32,1157.85c1.9-13.95,5.43-11.11,7.28-21.69a15.81,15.81,0,0,1,.42,6.79,31.26,31.26,0,0,1-1.9,7.82C1294.26,1155.66,1291.76,1159.23,1290.32,1157.85Z"/><path class="b" d="M1305.37,1095.32c-2.43-1-2.16-7.56-2.26-15.83,0-2.06,0-4.23,0-6.45s-.23-4.48-.42-6.72a52.6,52.6,0,0,0-2.28-12.62c1.09.27,2.06,2.07,2.73,4.86a83,83,0,0,1,1.48,10.77c.09,1.05.18,2.13.26,3.23l.11,3.32.18,6.79C1305.34,1087.19,1305.24,1091.56,1305.37,1095.32Z"/><path class="b" d="M1295.82,1026c-1.93-3.69-3.91-6.22-5.84-9.82-.5-.9-.94-1.87-1.47-2.93s-1.06-2.23-1.59-3.53a87.67,87.67,0,0,1-3.21-9.69,32.93,32.93,0,0,1,6.33,9.36q.8,1.61,1.59,3.45c.5,1.22.95,2.53,1.43,3.92C1294,1019.52,1294.92,1022.59,1295.82,1026Z"/><path class="b" d="M969.85,711.51c-1.08-.61-2.1-1.23-3.05-1.83s-1.8-1.27-2.61-1.89a31,31,0,0,1-4-3.7,11.89,11.89,0,0,1-3.33-7.29,21.85,21.85,0,0,0,3.56,3.75c1.47,1.23,3.1,2.46,4.59,3.7C967.92,706.75,970.4,709.13,969.85,711.51Z"/><path class="b" d="M1060.26,1219.64c-8.8,5.67-18.37,10.88-27.75,16.37s-18.62,11.31-26.91,18.51c-22.77,9-50.5,15.62-79.55,20.15-14.53,2.29-29.34,4.17-44,6s-29.24,3.43-43.28,5.43l-.93-.21-.47-.09-.23,0,0,0c-.1-.13-.2-.26-.29-.36a2.55,2.55,0,0,0-.71-.56,6,6,0,0,0-1.6-.69,10,10,0,0,0-3.29-.22c-2.24.12-4.8.35-6.34-1.16a69.92,69.92,0,0,0-8.37-7.46,54.17,54.17,0,0,1-8.8-7.6,28.26,28.26,0,0,1-6.87-16.58c-.63-6.76.68-14.83,4.47-24.26.45-.45.86-.75,1.24-1.1l.7-.68,2.11-1.94c2.77-2.62,5.69-5.12,8.58-7.64L834,1197.35c1.35-1.52,2.67-3.07,4-4.59s2.77-3,4.15-4.54c2.78-3,5.55-6.14,8.4-9.21l8.82-9.14c1.5-1.52,3-3.09,4.54-4.58l4.72-4.51,4.82-4.53c1.63-1.51,3.26-3,5-4.49q5.12-4.41,10.5-8.82a475.84,475.84,0,0,1,49.21-34.19c17.77-10.73,36.67-20.77,56.15-30.09l7.33-3.46c2.44-1.16,4.89-2.31,7.38-3.39l14.87-6.59,15-6.28c5-2.09,10.07-4,15.08-6,20.14-7.85,40.26-15.08,59.92-21.7,1.08,1.78,1.16,4.3,8.07,1.06,38.86-11.41,78-19.27,118-27,19.93-3.91,40.14-7.67,60.61-11.91,5.13-1,10.26-2.13,15.43-3.24s10.37-2.23,15.57-3.41c10.54-2.39,21.46-5,32.66-7.92,21.83-5.7,41.92-15.52,65.59-17.91,11.51-5.51,24.77-11.1,38.92-17.12s29.12-12.41,43.83-19.3a420.8,420.8,0,0,0,48.92-18.72,440.14,440.14,0,0,0,54.15-29.22,375.67,375.67,0,0,0,49.81-37.7,267.09,267.09,0,0,0,35.92-39.23q4.39-3.61,8.56-7.37t7.93-7.86c1.29-1.33,2.56-2.66,3.81-4l3.62-4.17q3.57-4.19,7-8.45l88-109.25L1700.39,596.6a281.35,281.35,0,0,0-37.92-15.94c-13-4.45-26.26-8.23-40.07-11.77a357,357,0,0,0-195.1,5.29,334.27,334.27,0,0,0-49.21,19.88,327.87,327.87,0,0,0-46.61,28.26,342.34,342.34,0,0,0-41.23,35.4,350.59,350.59,0,0,0-96.39,187.63,337.08,337.08,0,0,0-4.6,53.4l0,3.35.06,3.36.17,6.72,0,1.67.09,1.61.2,3.22q.21,3.21.43,6.42c.15,2.14.3,4.27.46,6.41s.47,4.21.7,6.31c.51,4.19.95,8.41,1.56,12.54s1.36,8.2,2,12.28l.53,3.06.61,3,1.26,6c1.6,8,3.7,15.58,5.69,23.22,1.07,3.73,2.2,7.41,3.31,11.09.56,1.83,1.11,3.68,1.69,5.48s1.21,3.55,1.82,5.32c1.22,3.52,2.4,7.1,3.67,10.52l3.88,10.15c1.27,3.42,2.66,6.59,4,9.84.68,1.61,1.35,3.23,2,4.83s1.36,3.21,2.06,4.75q2.12,4.64,4.19,9.24l1,2.3,1.07,2.22L1234,1078c1.51,1.92,2.9,3.8,4.21,5.67s2.54,3.6,3.7,5.4c2.34,3.56,4.41,7.21,6.52,10.72s4.18,7.27,6.5,11,4.85,7.67,7.84,11.7c5.22,12.64,12.59,26.92,20.92,41.51s17.55,29.39,26.48,43.45,17.54,27.4,25,39.3,13.77,22.36,18.8,30.79c.15,1.42.36,2.88.62,4.37l.87,4.54c.3,1.53.64,3.09,1,4.67.2.79.41,1.59.62,2.4s.38,1.6.57,2.41c.75,3.21,1.83,6.63,2.53,9.8q.61,2.43,1.31,4.9c.39,1.69.79,3.39,1.19,5.12.91,3.41,1.5,7,2.26,10.62.21.89.35,1.81.48,2.73l.42,2.77.42,2.78.21,1.39.15,1.4c.34,3.77.79,7.52.8,11.32,0,1.89.13,3.76.06,5.64s-.18,3.76-.29,5.61c-.89,11.65-4,22.58-6.44,32.55-.31,1.25-.6,2.49-.86,3.72s-.61,2.44-.86,3.64-.49,2.4-.69,3.59-.35,2.36-.56,3.53a44.16,44.16,0,0,0-.54,7,37.84,37.84,0,0,0,.31,6.88l-.64,2.36-.73,2.35q-.72,2.36-1.4,4.72c-.41,1.59-1,3.12-1.5,4.7s-1,3.14-1.48,4.71l-3.26,9.37-1.76,4.65-.86,2.34c-.29.78-.63,1.54-.94,2.31a239,239,0,0,1-17.78,35.89,161.8,161.8,0,0,1-24.84,31.22c-.59.58-1.16,1.19-1.78,1.74l-1.86,1.63-3.72,3.27c-1.27,1-2.59,2-3.89,3s-2.57,2-4,2.92c-2.73,1.8-5.39,3.72-8.27,5.25-1.42.8-2.83,1.63-4.25,2.39l-4.33,2a139.63,139.63,0,0,1-30.12,9.42c-10.47,2.15-21.17,3.49-31.93,4.7-1.71.6-3.48,1-5.22,1.57l-2.61.77c-.88.23-1.77.4-2.66.61l-5.3,1.2-5.37.91c-.89.14-1.78.34-2.68.44l-2.7.31c-1.8.19-3.59.49-5.4.62-3.62.23-7.23.61-10.87.65-3.63.23-7.27.11-10.92.18-1.82,0-3.64-.12-5.47-.14l-2.75,0c-.92,0-1.83-.1-2.75-.14-1.83-.11-3.67-.18-5.52-.24s-3.67-.3-5.53-.4-3.7-.28-5.56-.44l-2.81-.21-1.41-.09-1.4-.16c-.65,1.41-.28,3.67-3.07,3.3-8.47-2.9-19.92-3.79-31.73-6.46l-2.23-.47c-.75-.16-1.45-.4-2.18-.59l-4.39-1.25-1.1-.32c-.36-.12-.71-.26-1.06-.39l-2.12-.8c-1.4-.54-2.83-1.06-4.2-1.66s-2.66-1.33-4-2a29.31,29.31,0,0,1-3.76-2.23,38.18,38.18,0,0,1-6.56-5.35c-4.27-1.44-8.37-3.06-12.57-4.69-2-.89-4.09-1.74-6.22-2.62-2.15-1.11-4.33-2.2-6.57-3.31A150.45,150.45,0,0,1,1002.4,1520a168.84,168.84,0,0,1-28-30.92,256.16,256.16,0,0,1-26.82-49c-1.66-1.57-3.32-3.32-5-5.23s-3.3-4.09-5-6.35c-.83-1.13-1.66-2.31-2.49-3.51s-1.64-2.49-2.46-3.78c-1.63-2.61-3.3-5.28-4.89-8.17-3.17-5.81-6.33-12.06-9.49-18.58q-2.37-4.9-4.73-10c-1.55-3.4-3.21-6.78-4.61-10.35-2.86-7.09-5.77-14.27-8.66-21.43s-5.81-14.28-8.35-21.43-5.27-14-7.91-20.6c-1.32-3.3-2.64-6.52-4-9.63s-2.48-6.22-3.74-9.16c-2.31-9.48-5-20.49-7.82-32.09-2.55-11.74-5.15-24.09-7.44-36.16-1.19-6-2-12.1-2.88-17.94s-1.51-11.53-2-16.91-.9-10.43-1-15.15a108.16,108.16,0,0,1,.5-12.82c-4.45-25-7.5-48.55-15.18-80.32-.61-9.8,1.75-14.6-.23-26.7-3.11-4.71-5.8-12.06-8.23-21.4-.27-7-.79-14.53-1.52-22.42s-1.62-16.25-2.73-24.84-2.39-17.47-3.83-26.56-3-18.41-4.76-27.77c-.87-4.68-1.75-9.36-2.68-14.07s-1.9-9.46-2.88-14.18c-2-9.44-4-18.83-6.18-28.07s-4.45-18.44-6.74-27.32-4.6-17.47-7-25.77c3.26-8.69-6.41-25.47-3.27-35.22q-5.81-21.08-12-42.51-3.24-10.79-6.5-21.65l-6.76-21.79c-9.18-29.13-18.94-58.56-28.81-88.11s-19.85-59.25-29.47-89S688,463.45,679.51,433.33c1.75-6.22,2.48-13.07,3-20.12.25-3.52.43-7.09.59-10.63s.24-7.07.36-10.48A121.18,121.18,0,0,1,685.41,373c1.11-5.68,3-10.53,6.05-14a93.59,93.59,0,0,0-2.43-9.1c-.5-1.61-1-3.27-1.54-4.91s-1.1-3.29-1.63-4.89c-2.08-6.41-3.64-12.27-2.75-15.54,4.56,0,1.71-7.83,2.88-11.31a463.6,463.6,0,0,0-30.49-72.9c-1.77-3.31-3.58-6.62-5.41-9.9s-3.65-6.55-5.66-9.72c-3.93-6.36-8-12.54-12-18.38-8.44-11.59-17-21.88-25.63-29.47-5.85-2.63-11.76-5.5-17.4-7.62s-10.81-3.59-14.89-3.6c-8.18,0-11.92,5.78-6.73,23.48-6.07,3.06-10.18,9.26-14.06,15.48s-7.52,12.49-12.45,15.9a14.21,14.21,0,0,1-8.53,2.66,18.89,18.89,0,0,1-5.33-.9,27.77,27.77,0,0,1-3-1.12c-1.06-.44-2.15-1-3.29-1.56a84.87,84.87,0,0,1-16-11.7c-3.14-2.71-6.59-5.8-10.27-9.37s-7.57-7.63-12-12c-4.8-1-9.43-2.18-13.79-3.16-2.18-.49-4.29-.93-6.32-1.25a42.71,42.71,0,0,0-5.91-.52c-7.53-.1-13.43,2.44-17,10.9,10.07,22.53,9.14,38.84,24.69,69.76-6.29-4.11-2.83,1.63-5.12,3.9l3.56,5.16c1.26,1.78,2.55,3.62,3.84,5.46,2.59,3.68,5.26,7.34,7.45,10.79,4.31,7,7.1,12.78,5.11,15.1-2.66-4.18-5.17-7.82-7.55-11a91.83,91.83,0,0,0-7-8.32c-2.24-2.4-4.37-4.49-6.45-6.39s-4.07-3.6-6.13-5.16c-4.07-3.15-8-6-12.18-9.41-2.05-1.74-4.25-3.54-6.52-5.61s-4.65-4.41-7.16-7.13q-2.82-1.64-5.38-2.82a51.28,51.28,0,0,0-5-1.86,36.4,36.4,0,0,0-8.68-1.68,39.78,39.78,0,0,0-13.88,1.81c-8.37,2.39-15.91,5.52-27.26.8l-1.64-2.65-1.4-2.15c-.86-1.33-1.62-2.46-2.48-3.56a40.28,40.28,0,0,0-8-7.33c-5.08,1-5.79,4.27-7.27,6.22A3.51,3.51,0,0,1,342,233.9c-1.75-.07-4.35-.88-8.39-2.82a15.63,15.63,0,0,0,1.59,5.55,21.37,21.37,0,0,0,1.51,2.58c.55.88,1.17,1.76,1.84,2.64,2.7,3.54,6.35,7.21,10.35,11.74-.79,4.19-.18,9.09,1.42,14.41a79.13,79.13,0,0,0,3.07,8.31c1.17,2.93,2.52,6,4,9s3.15,6.18,4.79,9.43,3.34,6.56,5.08,9.86l2.62,4.95c.87,1.66,1.68,3.37,2.52,5.05,1.66,3.37,3.3,6.72,4.86,10a372.27,372.27,0,0,1,31.61,50C411,378.8,413,382.9,415,387c1,2,2,4,2.93,6.07s1.86,4.08,2.77,6.1c1.81,4.06,3.67,8,5.36,12l5,12c1.7,3.93,3.22,8,4.82,12s3.21,7.89,4.74,11.89c3.05,8,6.29,15.86,9.41,23.95,6.47,16,13.13,32.39,21.19,49.48-3.32,2.55-2.13,10.1.92,18.59a124.46,124.46,0,0,0,11.93,24.45c-.8,7.07-8.75,5.82-6.1,16.93,6.53,7.79,4.06-4.77,7.31-6.34a111.51,111.51,0,0,1,5.87,10.81c2.08,4.28,4.24,9,6.05,13.86s3.47,9.58,4.62,13.79a40.48,40.48,0,0,1,1.63,10.52,90.77,90.77,0,0,1,4.95,8.67c1.6,3.23,3.15,6.75,4.71,10.47,3.14,7.43,6.08,15.79,9.1,24.34,1.54,4.25,3,8.63,4.49,13s3.06,8.6,4.59,12.81a235.64,235.64,0,0,0,9.77,23.42c-1.13,6.3-1.35,13.75-.75,22.79.32,4.51.9,9.38,1.72,14.67s1.85,11,3.19,17.2c4.57-.61,8.5,4.13,12.49,8.26,1.42,4.14,2.72,8.17,3.92,12.12s2.24,7.94,3.23,11.78c2,7.69,3.61,15.06,5,22.21s2.51,14.16,3.52,21,1.89,13.65,2.77,20.4c3.5,27.09,6.87,54.09,17.44,88,0,9.76,1.26,22.1,3.33,35.69s5,28.72,8,44.15q0,7.52.22,15.44c.19,5.31.46,10.76.81,16.31s.77,11.22,1.27,17,1.06,11.61,1.79,17.63c1.42,12,3.13,24.32,5.09,36.87s4.52,25.52,7.15,38.49c.66,3.25,1.31,6.49,2,9.76s1.51,6.55,2.26,9.84q2.31,9.86,4.79,19.73L633,1225l1.29,4.92,1.4,5q2.8,9.89,5.77,19.69t6,19.48q3.27,9.71,6.69,19.24c4.58,12.71,9.06,25.12,14.29,37.2-1.11,7.86-.58,16.41,1,25.35q.58,3.36,1.34,6.78c.25,1.14.51,2.29.79,3.44s.64,2.3,1,3.47c1.33,4.64,2.83,9.35,4.42,14.08,3.2,9.47,6.75,19,10.11,28.49,3.62,9.44,7,18.74,9.43,27.69l2.87,10.68c1,3.57,1.8,7.15,2.88,10.72l6.09,21.51q3.06,10.8,6.13,21.6c1.08,3.62,2.29,7.29,3.46,10.94.6,1.82,1.18,3.63,1.81,5.47l1.94,5.54,2,5.52q1,2.74,2.08,5.54,2.18,5.58,4.44,11.12c1.56,3.72,3.24,7.46,4.92,11.16.85,1.86,1.68,3.7,2.59,5.57l2.79,5.58,2.86,5.56,1.47,2.77,1.56,2.78q3.13,5.55,6.46,11c4.66,7.37,9.44,14.58,15,21.72,4.34,7,4.46.49,8.53,6.45a428.63,428.63,0,0,0,56.11,72.84q4.51,4.62,9.07,9.25l2.28,2.31,2.38,2.27,4.81,4.53,4.82,4.5,2.42,2.25,2.52,2.2,10.09,8.71c.85.72,1.67,1.44,2.55,2.16l2.7,2.16,5.39,4.29c3.59,2.84,7.15,5.7,10.83,8.31l10.87,7.89c3.64,2.53,7.3,4.93,10.9,7.36,20.63,13.64,41.27,26.14,62.77,36.58s43.85,18.75,67.25,23.53c27.17,5.51,51.25,7.06,72.32,5.93,5.26-.35,10.34-.7,15.24-1.35s9.61-1.46,14.15-2.35,8.89-2.1,13.07-3.29q3.14-.91,6.15-1.91c2-.69,4-1.45,5.88-2.21,20.32-.28,41.63-5.94,62.26-12.44,5.17-1.65,10.31-3.36,15.44-4.92s10.21-3.31,15.31-4.72a229.07,229.07,0,0,1,30.61-7.06c7.07-3.89,4.2-7,18.18-11.91,2.4-1,4.22-1.68,5.72-2.12a19.61,19.61,0,0,1,3.7-.76,36.75,36.75,0,0,0,6.27-.73c-2.35-4.23-6.86-1.11-3-7.1-6.49,3.36-12.21,6.24-17.53,8.51s-10.13,4.48-14.87,6.34c-9.46,3.93-18.39,7.57-29.83,12.78-3.49.63-6,.75-9,1.09-1.48.16-3.07.4-5,.74s-4,.75-6.69,1.4c-3.37,1.16-6.78,2.36-10.25,3.48l-10.59,3.18-5.41,1.58-5.49,1.42-11.23,2.81-11.55,2.42c-2,.39-3.92.8-5.9,1.17l-6,1c-4,.63-8.08,1.32-12.19,1.86s-8.29,1-12.51,1.43-8.49.72-12.81,1-8.68.58-13.1.63-8.89.19-13.4.2-9.06-.22-13.67-.39a369.41,369.41,0,0,1-57.09-7.08,329.15,329.15,0,0,1-55.74-17.3q-6.78-2.84-13.44-5.77-6.62-3.15-13.1-6.36l-3.24-1.6c-1.07-.55-2.13-1.14-3.19-1.7l-6.33-3.44-6.25-3.45c-2.07-1.15-4.09-2.41-6.11-3.61-16.28-9.5-31.24-20-45.08-30.09l-10.13-7.55-2.48-1.83-2.31-1.8-4.57-3.51c-3-2.31-6-4.53-8.94-6.68s-5.62-4.29-8.38-6.3c-4.38-4.67-4.81-6.88-4.75-8.86s.43-3.73-2.2-7.48c-2.83-2.19-5.49-4.47-8-6.83s-4.76-4.84-7-7.36-4.44-5.11-6.46-7.77-4-5.38-5.94-8.14c-4-5.53-7.59-11.27-11.65-17.17l-6.1-9c-2.09-3-4.36-6.12-6.69-9.24-3.21-4.38-6.55-8.43-10-12.37s-6.68-7.74-10.1-11.68-6.61-7.93-9.88-12.28c-1.65-2.18-3.19-4.41-4.7-6.75s-3-4.78-4.46-7.35c-11.55-20.82-18.34-38.24-24.85-56.1s-12.07-36-21.35-58.92a36.48,36.48,0,0,0-.19-4.35c-.15-1.52-.37-3.12-.59-4.77-.48-3.3-1.21-6.82-2.1-10.44-1.77-7.23-4.16-14.89-6.36-22-1.1-3.57-2.15-7-3.06-10.22-.47-1.6-.85-3.14-1.17-4.61s-.6-2.86-.82-4.16c-.87-5.21-.8-9,1-10.35,1.78,1.84,2.94,4.6,3.81,7.87s1.39,7,2.19,10.89c1.51,7.69,3.25,15.72,7.84,20.51-1.63-8.25-4-17.49-2.29-21.33a205.73,205.73,0,0,0,16.89,23.57c2.79,3.39,5.56,6.59,8.33,9.73l2.07,2.36,2.16,2.33,4.33,4.69a252.73,252.73,0,0,1,17.48,20.91q2.21,3,4.44,6.25c1.5,2.18,2.95,4.46,4.56,6.88,3.17,4.83,6.33,10.11,9.77,16.07a373.57,373.57,0,0,0,28,54.2,272.39,272.39,0,0,0,29.52,39A404.54,404.54,0,0,0,870,1647.66l2.7,3.29c.9,1.1,1.81,2.19,2.79,3.27l5.79,6.5c3.81,4.37,8,8.59,12.22,12.86l3.16,3.2c1.06,1.06,2.2,2.08,3.3,3.13l6.72,6.23c1.13,1,2.24,2.07,3.4,3.1l3.63,3.07,7.33,6.13c1.22,1,2.48,2,3.76,3l3.81,2.9c2.56,1.92,5.12,3.86,7.71,5.76l8,5.43c2.67,1.79,5.32,3.65,8.08,5.3,5.5,3.34,11,6.83,16.68,9.85l8.53,4.63c2.87,1.48,5.79,2.87,8.69,4.3a361.62,361.62,0,0,0,35.76,15c3,1.09,6.11,2.06,9.17,3.07l4.6,1.5c1.53.5,3.07,1,4.62,1.41l9.28,2.6c1.55.42,3.09.87,4.65,1.26l4.67,1.11a382,382,0,0,0,75.19,10.29,390.26,390.26,0,0,0,73.38-4.42A363.77,363.77,0,0,0,1335,1726.48a245.49,245.49,0,0,0,52.9-29,265.47,265.47,0,0,0,48.42-45.58,105.67,105.67,0,0,0,10-6.8c3.34-2.66,6.72-5.7,10.19-9a190.91,190.91,0,0,0,20.22-23.51c.82-1.11,1.67-2.22,2.47-3.36l2.36-3.49q2.37-3.52,4.73-7.16c1.61-2.41,3-4.94,4.54-7.47l4.43-7.68c1.43-2.61,2.78-5.27,4.16-7.93s2.78-5.33,4.05-8.07,2.52-5.48,3.78-8.22l1.86-4.13c.61-1.39,1.17-2.79,1.74-4.18,9.34-22.28,16.3-45.11,21.72-65.47s9.44-38.31,14.12-51.11c-4.55-13.08-3.05-38.19-2.3-63.76.15-6.39.55-12.8.67-19,.09-3.12.22-6.19.37-9.2s.13-5.94.23-8.79c.22-5.72.42-11,.59-15.69.12-2.35.26-4.56.42-6.59s.25-3.87.42-5.51c-2.6-2.06-4.66-6-6.47-11.07-1-2.53-1.82-5.36-2.63-8.39-.4-1.52-.78-3.09-1.15-4.7s-.81-3.26-1.18-4.94c-.79-3.35-1.52-6.84-2.2-10.37s-1.53-7.06-2.22-10.58q-.53-2.64-1-5.22c-.33-1.72-.71-3.32-1.05-4.94-.66-3.23-1.3-6.32-1.89-9.19,1.75-.73,10.12,17.63,3.66-1.26-1.32-4.46-2.58-6.42-3.72-7.88a30.57,30.57,0,0,1-3.47-4.37c0-1.11-.09-2.26-.17-3.42s-.21-2.29-.32-3.45c-.22-2.33-.45-4.66-.6-6.89a52.8,52.8,0,0,1-.11-6.21,13.36,13.36,0,0,1,.94-4.73,90.41,90.41,0,0,0-4.14-9.59c-1.33-2.52-2.6-4.58-3.86-6.64s-2.51-4.14-3.87-6.59a91.81,91.81,0,0,1-4.4-9.06,67.62,67.62,0,0,1,6.41,4.33A25.47,25.47,0,0,1,1517,1174a43,43,0,0,1,3.7,5.44c1.48,2.66,2.73,5.06,3.81,7.26s1.91,4.3,2.63,6.17a64.41,64.41,0,0,1,3,9.62c.6,2.85,1,5.38,1.42,8s1,5.33,1.82,8.69c2.82-1.69.6-10,6.48,2.63-1.33,2.21-1.22,5-.36,8.3a81.42,81.42,0,0,0,4,11.06,83.93,83.93,0,0,1,4.24,12.5,36.28,36.28,0,0,1,1,6.15,17.69,17.69,0,0,1-.55,5.68,85.58,85.58,0,0,0-3.9-11.58,23.28,23.28,0,0,0-3.94-6.86c1.62,4.59,3.32,9.4,5,14.28s3.12,10,4.66,14.9,2.73,9.9,4,14.6c.67,2.35,1.18,4.65,1.72,6.88s1.06,4.39,1.55,6.45c-.88-5.2-1.42-12.55.49-5.1-.23-2.74-.37-5.48-.72-8.21s-.65-5.45-1-8.17-.62-5.45-1.1-8.16-.91-5.41-1.37-8.11-.88-5.41-1.48-8.08-1.17-5.36-1.75-8l-.89-4c-.31-1.33-.6-2.68-.94-3.93l-2-7.64a446.8,446.8,0,0,0-19.69-56.89c-14.92-35.37-32.15-65.85-48.67-93.65s-32.54-52.9-45.93-76.77-24.1-46.27-30.24-67.37a17.28,17.28,0,0,0,.84-4.65,39.74,39.74,0,0,0,.26-5.46c0-1-.09-2-.07-2.94s0-2,0-3c0-2-.17-4,0-5.95-.7-2.73-1.49-5.4-1.88-7.92-.26-1.27-.51-2.52-.76-3.74-.16-.63-.21-1.14-.31-1.7l-.28-1.61c-.71-4.29-1.32-8.28-2-12-1.48-7.33-3.7-13.29-9.69-17.87a110.34,110.34,0,0,0-2.14,20.39c0,1.66-.08,3.33,0,5s.08,3.33.24,5l.17,2.52c.08.87.21,1.81.31,2.72q.3,2.76.61,5.61a232.35,232.35,0,0,0,5.21,25.55,300.94,300.94,0,0,0,11.32,34.1q.27,2.33.42,4.56l.13,2.21.14,2.18a52.43,52.43,0,0,1-.14,8.09c-.43,5-1.73,9.29-4.5,12.2a180.22,180.22,0,0,1-16-33.88,182.31,182.31,0,0,1-8.29-33.66c-.19-1.36-.5-2.74-.61-4.08l-.42-4-.45-4-.24-4c-.1-1.31-.19-2.62-.29-3.93s0-2.59-.1-3.88c0-2.56-.24-5.2-.17-7.54s.07-4.8.07-7.19c0-1.2.11-2.4.14-3.6l0-1.79.11-1.8c.15-4.79.58-9.56.82-14.34a46.39,46.39,0,0,0-.14-6.75c-.06-1-.11-2-.09-3.05a19.3,19.3,0,0,1,.49-3.49,115.39,115.39,0,0,1,6.89-20.84,121,121,0,0,1,8.5-15.86,157.46,157.46,0,0,1,9.38-12.87c3.31-4,6.68-7.91,10.42-11.89s7.33-7.63,11.19-11.23,7.83-7,11.91-10.29,8.31-6.26,12.61-9.1,8.76-5.34,13.37-7.75a143.94,143.94,0,0,1,29.52-11.27c1.3-.31,2.57-.7,3.88-1l3.91-.85c2.63-.46,5.23-1,7.88-1.31s5.28-.61,7.91-.88,5.27-.36,7.89-.35c4.64-.12,9.27,1.46,13.85,2.4a32,32,0,0,0,7,.84,19.72,19.72,0,0,0,7.37-1.5,111.35,111.35,0,0,0-34.57-3.34c-11.32.69-21.66,3.22-29.14,6.7a94.56,94.56,0,0,0-19.91,4.38,118.42,118.42,0,0,0-21.62,9.66,139.48,139.48,0,0,0-37,31.61,117.58,117.58,0,0,0-26.71,33.66,139.67,139.67,0,0,0-13.76,39.2,160.55,160.55,0,0,0-2.64,20.95l-.23,5.36-.06,5.42c.06,1.82,0,3.61.13,5.5s.24,3.87.35,5.83c0,1,.07,2,.15,3l.32,3c.2,2,.39,4,.59,6.1s.6,4.16.88,6.27c.16,1.06.23,2.12.45,3.21s.39,2.16.59,3.25.37,2.2.56,3.3l.28,1.67c.1.56.23,1.12.35,1.69.49,2.25,1,4.55,1.42,6.87s1.14,4.71,1.69,7.12c.29,1.21.54,2.42.87,3.65s.67,2.47,1,3.72c-2.57,3.08-2.8,7-1.6,11.8a60.22,60.22,0,0,0,2.48,8l1.69,4.58.88,2.45,1,2.56c-3.75,1-5.18,4.43-4.89,9.62s2.53,12.15,6.14,20.24c3,4,3.54,2,3.94,0s.72-3.82,3.39.2a103.6,103.6,0,0,1,3,14.17c.46,4.2.06,7.66-1.95,9.68-4.65-8.5-10.21-18-10.65-22.93-2.06,2.84-.34,9.1,1,15.09s2.68,11.71-.57,13.44c-9.59-15.7-18.77-30.74-27-45.77a345.11,345.11,0,0,1-21.47-45.6A199.45,199.45,0,0,1,1315.79,916c-.2-2.07-.41-4.14-.61-6.21s-.21-4.12-.31-6.2,0-4.14,0-6.22.1-4.17.21-6.26a149.87,149.87,0,0,1,3.53-25.14,50,50,0,0,1,4-5.45c1.4-1.6,2.84-3.06,4.24-4.55s2.86-3,4.28-4.72c.71-.86,1.4-1.77,2.1-2.75s1.45-2,2.15-3.16c-.8-2-2-2.23-3.47-1.27a22.42,22.42,0,0,0-4.95,5.54l-2.69,3.88c-.86,1.31-1.73,2.62-2.59,3.8-1.77,2.35-3.38,4.24-4.92,4.73a107.16,107.16,0,0,1,1.57-17.5c.3-1.55.6-3.13.9-4.71.15-.8.31-1.59.47-2.39s.37-1.59.55-2.39l1.14-4.81,1.29-4.78c3.43-12.78,8-24.89,10.4-34.35,3.83-2.86,6.44,0,11.91-10a330,330,0,0,1,29.71-36.41,280.84,280.84,0,0,1,30.54-28.07,221.08,221.08,0,0,1,32.69-21.53c1.42-.81,2.89-1.51,4.34-2.25s2.91-1.49,4.39-2.18c3-1.34,5.94-2.78,9-4a186.47,186.47,0,0,1,18.93-6.74,209.71,209.71,0,0,1,21.28-5,214.78,214.78,0,0,1,21.48-2.61,211.46,211.46,0,0,1,21.5-.38l2.68.08,2.68.16c1.78.12,3.57.21,5.35.35,3.56.35,7.12.64,10.66,1.15a233.44,233.44,0,0,1,82.31,27.08l-1.74-9.32q-11.74,14-25.37,27.51l-7,6.72-7.25,6.6c-1.2,1.14-2.47,2.2-3.73,3.28l-3.78,3.27c-2.5,2.23-5.14,4.33-7.76,6.49-2.71,1.39-3.46,0-4.67-.76a2.62,2.62,0,0,0-2.45-.2,16.44,16.44,0,0,0-5,3.22c-11.65,7.4-24.75,15.31-38.64,22.6a372.08,372.08,0,0,1-42.86,19.37c-28.71,10.75-56.13,16.08-73.33,11.67a103.43,103.43,0,0,1-14.15,4.31,78.3,78.3,0,0,1-10.74,1.68c-6.47.62-12.08.54-19.73,1.89-3.24,1.44-6.43,2.88-9.85,4.31s-7.1,2.82-11.3,4.19c-9.25-2.62-33.1,7.16-52.26,11.19-5.32,1.11-10.48,1.87-15.58,2.46s-10.1,1-15.14,1.35c-10.06.82-20.25,1.53-31.36,3.83-9.68,1.94-17.83,4-24.88,6.13a190.25,190.25,0,0,0-18.24,6.34c-10.5,4.2-18.18,8.53-26.41,12.56-10.12,5.07-23,10.46-34.62,16.31a157.68,157.68,0,0,0-16.07,9c-4.72,3.07-8.67,6.14-11.31,9.33,6.92-.29,14.27-.76,20.37-.35q8.3-4.9,17.18-10.44c5.93-3.72,12.14-7.46,18.69-11.18,13.1-7.42,27.65-14.39,44.33-19.22,21.06-6,36.38-2.14,57.18-11.09.34,1.24.69,2.48,1,3.72,7-2.3,13.9-4.32,20.59-6.15s13.19-3.46,19.53-4.91c12.67-2.91,24.72-5.16,36.33-7,23.2-3.75,44.71-5.93,66.08-8.62s42.69-5.76,65.17-11.6a288.92,288.92,0,0,0,34.6-11.22,261.88,261.88,0,0,0,36.43-17.7c29-9,56.15-19.6,80.35-29.84l-11.56,9.29q-2.65,2.16-5.08,4.22c-1.66,1.33-3.25,2.62-4.78,3.9s-3,2.54-4.46,3.79-2.89,2.39-4.29,3.57l-4.13,3.5-2,1.74-2.06,1.67c-2.73,2.22-5.46,4.46-8.32,6.68s-5.87,4.35-9.08,6.59-6.71,4.35-10.49,6.61-8,4.38-12.57,6.66a281.27,281.27,0,0,1-34.19,22.07,378,378,0,0,1-38.76,18.42c-13.5,5.56-27.47,10.58-41.7,15.16s-28.71,8.72-43.25,12.63c-29.07,7.82-58.49,14.61-86.64,22s-55.55,15.43-81,24.85c-39.53,8.67-74.87,21.36-109.12,35.7L1098.81,965l-6.38,2.78-6.34,2.87-12.71,5.77-12.68,5.94-6.38,3-6.36,3.05-12.85,6.09c-8.54,4.19-17.27,8.23-26,12.51-3.29-.49-7.84.19-13.15,1.69a179.73,179.73,0,0,0-17.81,6.56c-6.38,2.76-13.1,5.89-19.73,9s-13.09,6.22-19.07,8.8c-6.25,4.34,2.17,6.24-10.51,11.64l-4.5,2.3c-1.45.75-2.86,1.47-4.25,2.14-2.78,1.36-5.44,2.56-8,3.64-5.13,2.12-9.74,3.87-14.07,5.22a117.29,117.29,0,0,1-12.2,3.08c-3.8.81-7.42,1.4-10.95,1.9l-10.49,1.43c-3.45.54-6.93,1.17-10.54,2a97.44,97.44,0,0,0-11.35,3.37,108.34,108.34,0,0,0-12.61,5.86,47.54,47.54,0,0,0-5.35,3.54c-1.89,1.48-3.9,3.17-6,4.92s-4.17,3.56-6.27,5.28-4.19,3.35-6.15,4.82c-11.41,8.16-34.55,22.76-42.87,30.55-1.89,1.73-3.81,3.42-5.62,5.22s-3.61,3.6-5.38,5.41-3.53,3.64-5.27,5.47l-2.59,2.75c-.86.93-1.68,1.89-2.52,2.83-1.64,1.87-3.42,3.87-4.81,5.55l-4.41,5.23c-2.91,3.49-5.65,7.11-8.45,10.62-5.64,7-10.93,14.12-16.29,21.36l-16.44,22.49A215.93,215.93,0,0,0,677,1234.14c-2.25,4-4.27,8.13-6.24,12.36s-3.67,8.62-5.15,13.13a108.41,108.41,0,0,0-5.65,28.35,87.16,87.16,0,0,0,3.29,29.57,86.22,86.22,0,0,0,14.73,29A101.64,101.64,0,0,0,689.43,1359a116.4,116.4,0,0,0,13.43,10.38c8.64,8.48,21.31,15.46,36,20.5s31.44,8.25,48.62,9.93c8.6.84,17.34,1.34,26.09,1.54l6.57.19,6.57.09c2.2,0,4.39.1,6.58.09l6.66,0,3.59,0,3.58,0,7.15,0,14.2-.13c4.7-.12,9.39-.11,14-.18l6.93-.09c2.31,0,4.6,0,6.88-.06,13.83-3.64,29.77-6.8,46.59-10.52s34.53-8,51.73-13.45,33.88-12.11,48.45-20,27-17.08,35.83-26.86c3.91-2.56,5.14-1.91,6.57-1.46s3,.67,7.55-2.93c11.1-11.2,23.39-21.82,33.46-32.79,2.51-2.72,4.84-5.52,7.07-8.22,1.13-1.33,2.13-2.75,3.11-4.13s1.92-2.76,2.8-4.12a54.93,54.93,0,0,0,4.44-8.2,32.68,32.68,0,0,0,2.61-8c1.15-1.53,2.24-2.88,3.28-4.08s2.07-2.24,3-3.26a35.81,35.81,0,0,1,5.1-4.69,239.11,239.11,0,0,0,22.94-63,304.74,304.74,0,0,0,5.16-33.56,318.21,318.21,0,0,0,1.09-34.12,281.73,281.73,0,0,0-9.8-67.34,227.16,227.16,0,0,0-11.25-31.83,204.81,204.81,0,0,0-16.11-29.73c-.43-1.95-1-3.82-1.49-5.78s-1-4-1.66-5.81-1.27-3.86-1.9-5.78l-.49-1.47c-.17-.48-.37-.94-.56-1.41l-1.15-2.84c-.8-1.89-1.51-3.86-2.4-5.78l-2.91-5.76a132,132,0,0,0-6.58-11.58c-.6-1-1.18-2-1.8-2.93l-2-2.82-4.08-5.74c-.35-.48-.69-1-1.06-1.45l-1.13-1.39-2.29-2.8c-1.55-1.88-3.11-3.79-4.74-5.68l-5.18-5.52c-1.76-1.85-3.52-3.76-5.45-5.52-3.82-3.59-7.71-7.32-12-10.79-12.71-14.44-26-28.38-43.36-41.92a272.83,272.83,0,0,0-29.56-20c-11.15-6.56-23.76-13.06-38.08-19.68-32.8-6.9-61.94-11.91-88.16-16.59L887,799l-4.8-.89-9.42-1.69c-6.15-1.21-12.2-2.25-18-3.49-11.64-2.28-22.43-4.86-32.47-7.56a162.64,162.64,0,0,0-15.62-8.72c-2.32-1.12-4.52-2.07-6.62-2.88s-4-1.58-5.88-2.18a84.43,84.43,0,0,0-9.91-2.54c-2.89-.61-5.42-1-7.62-1.38A298.21,298.21,0,0,1,739.57,734a246.36,246.36,0,0,1-30.37-40.24,214.18,214.18,0,0,1-31-105.77,189.07,189.07,0,0,1,7.36-57.41A195.65,195.65,0,0,1,707,482.43l3.35-5.23,1.68-2.57c.55-.87,1.12-1.71,1.73-2.51q3.57-4.9,7.16-9.63c2.47-3.08,5-6,7.51-9l1.89-2.18c.64-.71,1.3-1.39,2-2.09l3.91-4.1,3.91-4.05,4-3.8,4-3.75,2-1.86,2.06-1.76L760.4,423l8.37-6.47c22.43-16.86,45.62-30.13,69.57-43.22,12-6.5,24.22-13,36.78-19.67s25.5-13.58,38.9-21c5.32-1.25,8.5-.42,15.89-3.59.77-2.62,4.05-4.92,8.56-7s10.22-4.12,15.86-6.18,11.21-4.16,15.44-6.65,7.13-5.35,7.42-8.91c-11,.2-27.43,3.59-45.27,9.54a279.46,279.46,0,0,0-53.54,24.3,32.57,32.57,0,0,0-11.68,2.48A93.28,93.28,0,0,0,854,343c-4.37,2.63-8.88,5.54-13.51,8.5-2.3,1.51-4.65,3-7,4.47l-3.59,2.14q-1.8,1.1-3.63,2.13C814,367,801.59,372.79,789.57,378.77l-8.93,4.56q-4.38,2.4-8.65,4.9c-1.42.83-2.83,1.66-4.22,2.52s-2.75,1.81-4.1,2.73c-2.7,1.85-5.35,3.72-7.9,5.72a47,47,0,0,0-7.45,8.21c-2.05,2.67-3.54,5.2-4.62,6.15-1.94,1.8-3.87,3.52-5.82,5.2-1,.82-1.94,1.69-2.89,2.56l-2.89,2.59-5.86,5.17c-2,1.77-3.88,3.67-5.86,5.59s-4,3.88-6,6-4,4.48-6,6.9q-1.51,1.82-3,3.74c-1,1.33-2,2.72-3,4.14-2,2.86-4,5.86-6,9.13q-3.2,5.61-6,10.83c-1,1.71-1.82,3.49-2.66,5.23s-1.63,3.45-2.43,5.12L683,490.72c-.74,1.62-1.36,3.3-2,4.9-1.28,3.23-2.49,6.35-3.63,9.39s-2,6.11-2.92,9c-.45,1.48-.88,2.94-1.32,4.38s-.87,2.85-1.18,4.3q-1,4.32-2,8.5c-.6,2.79-1.26,5.53-1.64,8.32s-.84,5.54-1.22,8.31l-.57,4.17c-.2,1.39-.26,2.8-.38,4.2-.21,2.82-.41,5.67-.62,8.56-.09,1.45-.18,2.91-.27,4.39s0,2.95,0,4.46c0,6-.13,12.28.42,19.09.11,1.69.22,3.42.34,5.17s.19,3.54.44,5.36c.46,3.64.93,7.41,1.42,11.35a248.54,248.54,0,0,0,11.53,46.32,253.24,253.24,0,0,0,19.45,41.16,262.78,262.78,0,0,0,24.35,34q3.28,3.7,6.53,7.27c1.09,1.18,2.15,2.4,3.26,3.52l3.33,3.33c2.21,2.18,4.39,4.37,6.6,6.43s4.47,4,6.67,5.92c17.7,15.34,35.21,25.91,50.65,32.64q5.82,2.46,11.21,4.3t10.39,2.78a63.28,63.28,0,0,0,9.45,1.36,51,51,0,0,0,8.4,0,89.82,89.82,0,0,0,11.13,6.13,74.83,74.83,0,0,0,10.34,3.65,67.41,67.41,0,0,0,9.68,1.85,91.46,91.46,0,0,0,9.23.69c3,.07,6,.08,9.06.09s6.06,0,9.15.06A102.18,102.18,0,0,1,918,818.33c18.2,7.42,26,8.79,33.52,10.73,3.78.88,7.49,1.85,12.51,3.46,2.51.78,5.35,1.72,8.68,2.91s7.15,2.5,11.63,4.18c15.87,12.82,30.35,25.45,43.8,38.24s25.93,25.67,37.63,38.81a425.21,425.21,0,0,1,32,40.17q1.76,2.55,3.55,5.07l3.22,5.17c.55.84,1.09,1.69,1.64,2.54.27.43.56.84.82,1.27l.73,1.31q1.46,2.61,3,5.16c1.07,1.65,1.88,3.45,2.77,5.17s1.83,3.43,2.68,5.12c1.39,3.45,3,6.61,4.29,10.14a79.18,79.18,0,0,1,6.67,7.09c1,1.28,1.85,2.59,2.74,3.86l1.3,1.88c.37.67.71,1.35,1.06,2,.67,1.33,1.3,2.63,1.87,3.9a33.79,33.79,0,0,1,1.18,4,22.16,22.16,0,0,1,.62,3.76,20,20,0,0,1-.2,3.67c-5.46-5.9-11-12-17-17.74-.79-.7-1.55-1.41-2.3-2.14a24.9,24.9,0,0,0-2.31-2.16c-.82-.68-1.61-1.38-2.4-2.1l-1.16-1.1c-.41-.35-.86-.66-1.28-1-.85-.67-1.68-1.36-2.51-2.07-.42-.35-.78-.72-1.25-1.08l-1.48-1.08c-1-.73-2-1.48-2.92-2.25-.49-.38-.94-.78-1.45-1.16l-1.63-1.11a228.15,228.15,0,0,0-31.27-18.75,432.58,432.58,0,0,0-44.29-18.89c-16.71-6.2-35.29-12.27-54.92-18.63l-14.93-4.84L945,929.33l-1.89-.61L941,928l-4.14-1.4c-11-3.66-21.84-7.63-32.45-11.57-42.38-16-81.26-34.06-115.58-50.78a47.12,47.12,0,0,0,4.3,5.13,47.83,47.83,0,0,0,5.09,4.64,95.14,95.14,0,0,0,11.9,8.09c4.26,2.43,8.71,4.84,13.19,7.07s9,4.54,13.32,6.83l9,4.75c3,1.59,6,3.06,9.08,4.59,6.08,3.1,12.24,5.93,18.43,8.87,12.43,5.66,25.08,11.1,38,16.14,3.23,1.28,6.5,2.47,9.76,3.71l4.91,1.84,4.95,1.75,5,1.75,2.49.88,2.31.79,9,3L967.3,950l17,5.55,8.32,2.73,8,2.69,4,1.35,3.88,1.34,7.76,2.68,7.44,2.7,3.73,1.34,3.55,1.36,7.1,2.72,6.72,2.76,3.37,1.37,3.14,1.41c2.09.94,4.26,1.86,6.3,2.79,3.86,1.94,8,3.76,11.51,5.73l2.74,1.43,1.38.7,1.25.75c1.65,1,3.33,2,5,2.9a27.38,27.38,0,0,1,2.36,1.48l2.28,1.48,2.33,1.44c.74.5,1.38,1,2.08,1.52s1.66,1.17,2.5,1.73l1.29.83c.42.27.76.58,1.15.87,1.49,1.16,3.11,2.24,4.68,3.28a46.67,46.67,0,0,0,4.12,3c1.33,1.06,2.64,2.15,4.08,3.15a100.38,100.38,0,0,1,15.73,15.53,84.68,84.68,0,0,1,12.87,22.22,88.82,88.82,0,0,1,6,29.35c0,.79.07,1.57.1,2.34s0,1.57-.05,2.35c0,1.55-.08,3.08-.13,4.6l0,1.14-.11,1.14c-.07.77-.15,1.52-.22,2.28l-.42,4.48c-.5,3-.88,5.93-1.41,8.88l-.9,4.42c-.29,1.47-.54,2.94-.95,4.42-2.75,11.83-6.27,23.94-10.58,38.24-2.31.33-3.64,6.84-6.51,2.85-.29,1-.56,2-.92,3s-.77,1.94-1.17,2.89-.83,1.89-1.26,2.82c-.22.46-.42.93-.66,1.38l-.76,1.32c-1,1.75-2.09,3.45-3.17,5.12s-2.41,3.14-3.63,4.66a104.2,104.2,0,0,1-16.31,15.28l-2,1.66c-.71.51-1.4,1-2.08,1.52-1.38,1-2.64,2.11-3.95,3.1s-2.6,2-3.79,3l-.88.79-1.06.91c-.71.61-1.4,1.25-2.08,1.89a75.88,75.88,0,0,0-7.59,8.37,48.13,48.13,0,0,0-3.47,4.74c-.56.83-1,1.74-1.6,2.6s-1.07,1.76-1.58,2.7c-.35-1.45.62-3.12,1-4.26.16-.6.19-1-.16-1.28S1061.63,1219.35,1060.26,1219.64ZM497,243.47c2.69,4.19.29,4.73-2.06,1.54-.84,1.42,3.36,6.42,5.94,10.27-2.76.73-9.64-11.08-12.41-10.36,1.93,6.43,5.68,14.05,9.68,22-8.51-7.32-12.14-15.8-12-21.25,0-2.68,1-4.6,2.89-5.17S493.6,240.68,497,243.47Zm85.24,234.7c-2.51,2-5.75.5-9.23-3s-7.39-8.94-11-15c-7.31-12.06-14.07-26.35-16-31.82a77.45,77.45,0,0,1-3.9-18.7c-.2-5.29,1.29-8.05,6.1-3.29a28.7,28.7,0,0,1,4,5.35c1.32,2.23,2.65,4.84,4,7.74s2.71,6.06,4.09,9.39,2.68,6.87,4.07,10.44,2.77,7.21,4.21,10.79,2.79,7.15,4.27,10.53,3,6.61,4.56,9.56A68.47,68.47,0,0,0,582.2,478.17Zm52.72,94.33c2.46-2.1,4.89-1,7.32,1.67.46,11,5,27.75,8.57,44a206.11,206.11,0,0,1,4.05,23.1c.7,7,.68,13.11-.8,17.44-2.08-8.93-3.64-16.28-4.89-22.94s-2.37-12.56-3.47-18.63-2.39-12.24-4-19.41S637.85,582.43,634.92,572.5Zm14.19,123c2.72-3.55,4.4,6.67,6.91,6.12-1.3,5.5,1.05,16.73-1.72,20a53.18,53.18,0,0,1-2.81-13.44A50.77,50.77,0,0,0,649.11,695.45ZM681.94,699c3.38,21.58,6.51,44.53,10.12,68.15,1.76,11.81,3.7,23.79,5.93,35.84s4.49,24.23,7.25,36.39c9.33,41.88,27.43,80.33,30.25,115-7.38-18-14-41.8-20.77-64.73-3.42-11.45-6.87-22.7-10.46-32.89a175.94,175.94,0,0,0-11.44-26.56c-.61-4.67-1.19-9.46-1.77-14.33S689.93,806,689.29,801c-1.24-9.91-2.51-19.91-3.95-29.58s-3.2-19-5.21-27.55A143.7,143.7,0,0,0,672.77,721C677.7,716.63,674.26,699.06,681.94,699Zm-25,33.66,3.78-.9c4.9,15.08,13.1,42.64,6.36,45.38a137,137,0,0,1-6.61-21.63c-.67-3.23-1.19-6.52-1.73-10.21S657.65,737.47,657,732.62Zm7.15,49c1.76,2.66,3.72,3.39,5.86,2.64C674.26,800.53,665.93,798.54,664.11,781.62Zm-24.39,9.23c-3.28,5.58,3.38,18.14,4.32,26.09,1.68,15.45-1.87,25.69,0,38.59,1.71,11.9,4.76,19.86,8.1,28.61a155,155,0,0,1,9.4,33.74c2,9.59,5.87,5.13,8.49,10q6.9,26.15,13.4,52.08t12.75,51.79c8.42,34.54,16.33,69.17,24.47,104.63L745.35,1246q3.31,14.19,6.68,28.65l3.31,14.59c.53,2.45,1.14,4.9,1.75,7.35s1.2,4.91,1.81,7.38q3.61,14.82,7.17,30.06,3.87,15.21,7.84,30.81c-7.25-1.24-13.67-14.31-20.26-25.63-6.29-11.36-12.87-21-21.18-15.19q-3-8.33-5.72-16.44c-.9-2.71-1.85-5.4-2.65-8.08s-1.6-5.35-2.4-8c-3.13-10.6-6-20.94-8.76-31.08-.71-2.53-1.33-5.05-1.93-7.56s-1.22-5-1.83-7.48q-1.78-7.45-3.53-14.75l-3.45-14.49c-1.16-4.79-2.14-9.53-3.22-14.24-2.12-9.42-4.28-18.7-6.55-27.89q-1.7-6.87-3.38-13.71t-3.55-13.59q-1.85-6.78-3.87-13.52c-1.35-4.5-2.76-9-4.17-13.47q-4.28-13.46-9.54-26.94c-10.72-51.94-12.84-95.67-23.76-156C633,874.6,621.62,814.19,639.72,790.85Zm15,269c2.79,12.36-1.76,11.78-1.3,20a185.19,185.19,0,0,1,4.65,30.18c.6,8.38.54,15.74,1.34,24.35,1.52,10.19,4.35,22.84,7.67,36.54s7.56,28.54,11.27,43c.9,3.61,1.88,7.21,2.84,10.77s1.85,7.07,2.72,10.51c1.73,6.9,3.26,13.54,4.5,19.75.63,3.1,1.15,6.1,1.64,9s.95,5.62,1.27,8.22a68.24,68.24,0,0,1,.56,13.61c-2-12.61-7.24-21.92-12-31.47s-9.71-19.36-11.32-32.8a193.84,193.84,0,0,1-16.75-25.12c-2.53-4.54-4.94-9.31-7.24-14.38s-4.34-10.4-6.35-16.13c-8.06-22.91-14.2-51.82-18.66-91.11-1-8.35-.77-17.07-.56-25.75s.54-17.23-.26-25.44c-.74-7.63-2-15.21-3.34-22.53s-2.81-14.3-4.06-20.89c-2.5-13.19-4.1-24.65-1.94-32.8,9.62,3.19,16.68,25.14,23.44,49.29,3.4,12.14,6.74,24.87,10.28,36.08.88,2.8,1.78,5.51,2.7,8.09s1.87,5.07,2.84,7.38A64.89,64.89,0,0,0,654.74,1059.82Zm84.17-94.5c5.25,7.86,3.51,14.37,8.31,29.56C741,994.75,740.41,974.64,738.91,965.32ZM904.71,1501c2.92,5.4,6.1,10.57,9.26,15.75,1.6,2.57,3.28,5.07,4.92,7.6l2.48,3.77,2.59,3.68c6.81,9.91,14.21,19.25,21.89,28.39l5.84,6.79,6.06,6.61c2,2.26,4.12,4.34,6.2,6.51s4.13,4.38,6.35,6.43l6.5,6.35c2.25,2,4.5,4.08,6.74,6.18l1.69,1.57c.56.53,1.15,1,1.73,1.5l3.47,3,3.47,3,3.62,2.93,3.31,2.72,1.61,1.35c.54.44,1.1.84,1.64,1.26,2.18,1.68,4.3,3.33,6.36,5,1,.85,2.09,1.58,3.13,2.35l3.1,2.29c2.05,1.52,4,3.08,6.1,4.44l6.08,4.24c1,.73,2,1.36,3.06,2l3.09,2,3.09,2,1.55,1,1.6.92,6.46,3.72c2.15,1.3,4.46,2.35,6.75,3.54l3.49,1.74,1.78.88c.6.28,1.22.54,1.83.81l7.56,3.22c1.29.57,2.63,1,4,1.52l4.13,1.46a188.63,188.63,0,0,0,39.38,9c2.25.22,4.41.37,6.52.46l3.13.09h1.54l1.54-.06c2.05-.1,4.09-.23,6.15-.38s4.15-.28,6.31-.58l6.73-.76c2.33-.21,4.78-.55,7.38-.87s5.35-.53,8.3-.87,6.08-.68,9.46-1c15.09-1.49,29.94-2.52,43.44-5.27s25.52-7.14,34-14.72c16-4.22,31.66-9.59,45.52-17s25.75-16.79,33.93-28.41a13.61,13.61,0,0,1-.3,2.72,25.74,25.74,0,0,1-.94,3.08,56.13,56.13,0,0,1-3.43,7.28,46.58,46.58,0,0,1-2.48,4c-.91,1.36-1.89,2.77-2.92,4.22a108.91,108.91,0,0,1-7.06,8.81c-1.31,1.48-2.61,3.06-4,4.52l-4.34,4.42c-1.49,1.46-2.95,3-4.52,4.43s-3.15,2.83-4.71,4.25l-2.37,2.11c-.78.72-1.57,1.41-2.38,2.06l-4.8,3.92c-1.59,1.28-3.12,2.63-4.69,3.8l-4.58,3.49c-9.34,3.82-18.94,6.91-28.54,9.86l-7.27,2c-2.43.65-4.84,1.35-7.29,1.87-4.89,1.11-9.75,2.32-14.68,3.17a317.77,317.77,0,0,1-59.34,5.9,312.1,312.1,0,0,1-58.76-5.22,285.54,285.54,0,0,1-55.75-16.62c-2.25-.85-4.41-1.92-6.6-2.89l-6.55-3-6.39-3.29c-2.12-1.11-4.28-2.14-6.32-3.37l-6.18-3.58c-1-.61-2.08-1.17-3.07-1.82l-3-1.93-6-3.87c-2-1.32-3.85-2.75-5.77-4.12s-3.85-2.71-5.68-4.19l-5.48-4.42-2.73-2.21c-.9-.76-1.75-1.56-2.63-2.33l-5.19-4.69c-1.76-1.52-3.36-3.24-5-4.87l-4.93-5c-3.18-3.39-6.25-6.87-9.32-10.32a277.37,277.37,0,0,1-31.16-45.23,329.14,329.14,0,0,1-22.14-49.32Zm520.06-61.48c-1.63-1.13,1.74-10.1-.34-10.56.76-2.07,1.29-4.15,1.89-6.21s1.1-4.1,1.59-6.13c.8-4.08,1.55-8.08,2-12s.79-7.82.92-11.62.17-7.54,0-11.19-.33-7.23-.61-10.74-.7-6.93-1-10.32-.91-6.67-1.28-9.94-.93-6.46-1.26-9.65q-.13-1.14-.21-2.28c-.08-.76-.16-1.52-.21-2.29-.12-1.52-.19-3.07-.22-4.63s0-3.16,0-4.77l-.1-4.9-.09-5.09c-.06-1.73-.22-3.48-.36-5.28s-.34-3.63-.56-5.51-.65-3.77-1-5.72c-.28-1.29-.6-2.61-.94-3.94-.17-.66-.35-1.33-.53-2s-.43-1.32-.65-2c-.9-2.65-1.88-5.34-2.87-8-2.24-5.38-4.48-10.73-6.71-15.73-4.23-10-7.53-18.79-5.12-24.71-6.71-8.37-12.82-21.75-19.89-35.42s-14.87-27.56-23.61-36.5c1.53-.56,4.12.86,7,2.94s6.14,4.84,9,6.94,5.34,3.56,6.76,3,1.8-3.06.31-8.93c-7.18-7.38-12.41-4.22-19.44-10.46-12.22-20.16-18.39-35.09-13.59-40.67,6.09,5.75,13.81,15,22.09,26.37a445.63,445.63,0,0,1,25.24,38.66,349.39,349.39,0,0,1,21.12,42.3,193.4,193.4,0,0,1,11.2,36.16q2.33,4.53,4.28,9c1.23,3,2.26,6,3.24,8.94a85.33,85.33,0,0,1,2.42,8.95c.7,3,1.35,6,1.75,9,2,12.11,2.35,24.53,2.54,38.2,1.44.73,2-.6,2-2.84a32.69,32.69,0,0,0-.09-3.88c-.15-1.42-.31-2.91-.46-4.32.32,1,.61,2,.88,3.09l.38,1.55.29,1.57q.54,3.15.82,6.35a74.46,74.46,0,0,1,0,12.93c-.08,1.08-.16,2.17-.28,3.25l-.47,3.26c-.34,2.17-.72,4.35-1.12,6.51s-1,4.33-1.49,6.49-1.1,4.3-1.66,6.46c-1.25,4.29-2.57,8.56-3.85,12.8q-1.07,3.18-2,6.35c-.67,2.11-1.23,4.23-1.93,6.32s-1.29,4.21-1.86,6.32l-.81,3.17c-.3,1-.58,2.11-.84,3.16-.53,2.12-1,4.24-1.38,6.39-.18,1.07-.38,2.14-.59,3.22s-.37,2.15-.52,3.23C1430.49,1439.92,1426.63,1432.63,1424.77,1439.53Zm-82.51-321c-3.44-7.36-4-12.2-6.41-18.76,4.09-.35,9.16,4.2,15.3,13.53C1354.28,1124,1348.31,1121.51,1342.26,1118.55Zm-132.84-192c-.34-4.66-.69-9.29-1-14s-.39-9.68-.33-14.51c-.1-9.68.42-19.3,1.16-28.9a337,337,0,0,1,55.28-158.07A303.61,303.61,0,0,1,1321,648.38a312.68,312.68,0,0,1,37.15-26.87,317.86,317.86,0,0,1,41.44-21.5,359.88,359.88,0,0,1,87.46-24.8,425.94,425.94,0,0,1,84.77-4.23l5.75,1.12,6.28,1.36c4.36.91,9,2.07,13.93,3.27,9.79,2.52,20.49,5.5,31.38,9.17s22,7.83,32.63,12.26,20.85,9.23,30.15,13.63l100.23,47.43-73.27,97.39c-2,2.71-4,5.35-5.79,7.89l-5.09,7.3a103.72,103.72,0,0,0-7.56,12.36,717.64,717.64,0,0,1-86.15,70.28,612.82,612.82,0,0,1-85.69,50c-19.64,6.92-39.22,13.78-58.78,20.42s-39.1,13.08-58.52,19-38.77,11.5-57.92,16.4c-9.52,2.43-19.14,4.73-28.46,6.81q-7,1.56-14,3c-4.69,1-9.37,1.89-14.09,2.75-17,3.12-31,1.08-48.32,4.51a247.64,247.64,0,0,0-23.92,6.67c-8.3,2.66-16.87,5.36-25.28,7.36-24.26,5.64-49,7.45-72.07,14.12a174.27,174.27,0,0,0-17,6.49,155.5,155.5,0,0,1-16.76,6.52c-6.86,2-12.3.43-18.67,2-19.71,5-41.31,16.9-58.23,19.94-26.07,14.13-50.74,27.31-76,42.1s-51,31.15-78.34,52.15c2.64-2.94,5.39-5.84,8.11-8.78s5.4-5.92,8.15-8.74,5.38-5.71,7.92-8.54l3.73-4.22c1.24-1.37,2.43-2.74,3.59-4.1,2.31-2.71,4.44-5.39,6.35-8,1-1.32,1.85-2.63,2.69-3.93s1.63-2.53,2.35-3.78c2.86-5,4.56-9.77,4.64-14.23,3.83-2.38,7.72-4.62,11.54-6.9s7.6-4.59,11.42-6.8c7.67-4.37,15.19-8.85,22.92-12.95,3.85-2.08,7.69-4.17,11.58-6.18s7.83-3.92,11.79-5.83c2-1,4-1.92,6-2.84l6.06-2.69q6.09-2.67,12.31-5.2c6-2.34,11.12-4.2,15.94-6s9.44-3.34,14.46-5.27c2.51-.95,5.13-2,8-3.11s5.88-2.33,9.21-3.71,6.93-3,11-4.66,8.43-3.6,13.3-5.75c17.62-7.65,33.55-17.06,50.39-23.45,22.46-8.6,45.93-15.58,69.46-22s47.14-12.28,70-18.8c9.74-2.81,19.44-5.8,29-8.85l14.22-4.46,7-2.16,7-2.09c18.63-5.43,36.57-9.79,53.14-10.87,32.31-10.47,70-19.79,106.53-32.67a424.13,424.13,0,0,0,52.72-22.24c16.52-8.49,31.63-18.17,44.06-28.85,20.84-9.43,40.79-23,58.5-38.63S1670.29,744,1683.41,727l38.2-49.52-52.13-25.29c-3.29-1.6-6.49-3.23-9.69-4.74l-4.75-2.2c-1.57-.74-3.13-1.47-4.69-2.14a209,209,0,0,0-32.32-22,205.82,205.82,0,0,0-42.8-17.61c-2-.6-4-1.08-6.11-1.61s-4.14-1.06-6.26-1.48c-4.24-.88-8.57-1.77-13-2.39a204.71,204.71,0,0,0-27.81-2.33,211.13,211.13,0,0,0-61.21,8,174.56,174.56,0,0,0-24,8.69c-3.69,1.71-7.26,3.43-10.69,5.26q-2.55,1.41-5,2.82l-2.45,1.42-2.39,1.5a189.17,189.17,0,0,0-32.68,26,297,297,0,0,0-25,28.48c-7.6,9.68-14.76,19.44-22.31,29.49-11.34,8-18.69,17.5-25,27.7s-11.63,21.19-18.87,33.52c-5.46,9.31-11,19-16.31,29.56a262.17,262.17,0,0,0-14.44,34.22,203.33,203.33,0,0,0-9.24,40.27c-.45,3.62-.72,7.31-1,11-.08,1.88-.15,3.76-.22,5.67s-.12,3.81-.08,5.74l.11,5.83c0,2,.22,3.93.34,5.91s.25,4,.52,5.94l.78,5.91a104.57,104.57,0,0,0-9.79-4.88l-4.48-2c-1.44-.67-2.84-1.34-4.22-2.06a37.1,37.1,0,0,1-15.57-14.6,27.4,27.4,0,0,0-2.63,7.89c-.63,3.26-1.18,7-1.7,10.46C1213.53,920.28,1212.41,926.3,1209.42,926.59ZM842.54,1149c.92,3.11-1.48,7.19,2.66,9.31-8.75,3.41-16,10.2-22.42,17.47-6.19,7.48-11.5,15.39-15.92,21.87l-6.81,6.36c-2.23,2.11-4.31,4.29-6.41,6.41-.83,1.06-1.56,1.81-2.41,2.88s-1.59,2-2.35,3c-1.49,2-2.93,3.94-4.22,5.92s-2.49,3.93-3.6,5.89a125.6,125.6,0,0,0-5.82,11.83c-1.71,4-3.32,8.08-4.81,12.53-3.54,3.54-8,6.26-11.45,10.48a57,57,0,0,0-1.66,10.83,42.84,42.84,0,0,0,.86,10.91,36.8,36.8,0,0,0,11.07,19.67,39,39,0,0,0,10.08,6.52,66.36,66.36,0,0,0,11.64,3.91c7.93,1.93,15.71,2.67,22.73,3.66a116.37,116.37,0,0,1,11.56,2.49c1.94.45,3.91,1,5.91,1.44l3,.67c.51.11,1,.19,1.53.28l1.4.25.35.07.08,0h.19l.39,0,1.59.1c1,.06,2.11.15,3.16.17,2.09.06,4.18.11,6.25.12a119.72,119.72,0,0,0,12.21-.53,95.61,95.61,0,0,0,11.67-1.86,75.28,75.28,0,0,0,10.93-3.5c8.56-.5,18-.78,27.69-1.51,4.87-.26,9.75-.79,14.71-1.2l7.37-.86c1.22-.15,2.46-.28,3.68-.44l3.64-.55a208.9,208.9,0,0,0,27.63-5.83,126.88,126.88,0,0,0,12-4.14c1.86-.76,3.66-1.53,5.38-2.32s3.31-1.7,4.85-2.57c1.75-.2,3.57-.45,5.42-.78s3.71-.79,5.65-1.25c3.91-.88,7.83-2.2,12-3.55a212.12,212.12,0,0,0,25.21-10.83c8.45-4.28,16.93-9,24.92-13.87s15.87-9.72,23.19-14.3c3-2.89,5.6-6,8.23-8.94l1-1.11.91-1.15,1.8-2.29c1.18-1.52,2.4-3,3.5-4.52l3.21-4.58,1.58-2.26c.48-.73.87-1.44,1.3-2.15l2.51-4.21.62-1c.2-.35.38-.73.57-1.09l1.12-2.16a221.5,221.5,0,0,0,14.3-35.15c.55-1.46.94-3,1.41-4.54s.92-3,1.41-4.54.85-3.09,1.3-4.63.92-3.07,1.38-4.63.8-3.15,1.24-4.73,1-3.13,1.32-4.76.82-3.24,1.27-4.86c.22-.81.49-1.61.69-2.44s.39-1.66.59-2.49c3.39-13.27,7.09-27.47,10.59-43.69,3.38,11.6,2,26.79-.78,40.83-1.46,7-3,13.85-4.21,20.09-.64,3.11-1,6.17-1.38,9-.16,1.42-.25,2.81-.27,4.16s.06,2.69.12,3.94c-6.24,11.58-10.68,23.18-15,34.06-.57,1.35-1.11,2.69-1.64,4s-1,2.7-1.63,3.95c-1.15,2.53-2.19,5.11-3.31,7.54s-2.37,4.68-3.49,6.92c-.15.28-.28.55-.44.83l-.52.85-1,1.67c-.69,1.1-1.39,2.17-2.08,3.21s-1.2,1.81-1.85,2.7l-2.07,2.65c-1.43,1.77-2.86,3.62-4.43,5.41l-4.92,5.34-1.25,1.35-1.33,1.3-2.66,2.62-2.66,2.65c-.89.87-1.85,1.7-2.76,2.56L1084,1275c-1.88,1.65-3.71,3.3-5.5,5l-1.32,1.25-1.36,1.2c-.9.8-1.78,1.6-2.64,2.41-1.06,1-2.08,2-3.07,2.92s-2,1.84-3,2.75c-2,1.8-3.81,3.64-5.71,5.37l-5.76,5.17c-1,.88-2,1.73-3,2.56l-3.16,2.56c-8.66,6.84-19.37,14.07-36.93,21.54-14,5.87-27.78,10.3-44.2,15.14-17.14,5.06-36.25,7.26-54.46,8.39s-35.65,1.07-50.18,2.25a102,102,0,0,0-11.92,2c-2,.39-4,.76-6,1a34.06,34.06,0,0,1-5.94.42c-14-.35-27.11-6.37-40-8.39a36.64,36.64,0,0,0-6,.48,22.74,22.74,0,0,1-6.15.17,27.1,27.1,0,0,1-8.44-4.62,68.42,68.42,0,0,0-7.37-5.28c-8.19-4.53-16.84-9.78-24.7-17A69.13,69.13,0,0,1,736.6,1310a57.19,57.19,0,0,1-7.15-15.38,53.23,53.23,0,0,1-1.88-9.25,54,54,0,0,1-.29-9.52,66.76,66.76,0,0,1,3.87-18.79c4.31-12.16,11.47-23.18,19.62-32.76a82.83,82.83,0,0,1,10.58-9.92,116.71,116.71,0,0,0,10.42-9.17,91.8,91.8,0,0,0,5.93-7.73l1.45-2,.38-.51.74-.81,1.5-1.61q1.5-1.59,3.05-3.11c1.06-1,2.15-1.93,3.25-2.83a129.78,129.78,0,0,1,13.62-9.7c4.69-2.85,9.4-5.51,14-8.27s9.33-5.46,13.78-8.68c1.12-.8,2.22-1.63,3.32-2.49s2.22-1.7,3.32-2.6A80,80,0,0,0,842.54,1149Zm230.08,69.68a15.48,15.48,0,0,0,3.38-4.51,3.32,3.32,0,0,1,1-1.19,11.3,11.3,0,0,1,2.42-1.32,2.16,2.16,0,0,1,1.37,2.64,5.31,5.31,0,0,1-.71,1.79,9.82,9.82,0,0,1-1.37,1.7C1076.61,1219.92,1073.68,1221.17,1072.62,1218.7Z"/><path class="b" d="M1434.71,1693.22c-1.88,2-3.45,3.81-4.94,5.51s-2.85,3.3-4.16,4.88l-3.92,4.74c-1.35,1.59-2.75,3.24-4.44,4.89a90.6,90.6,0,0,0-8.8,5.52c-1.57,1.07-3.11,2.26-4.81,3.43s-3.41,2.41-5.16,3.68l-5.34,4-2.72,2-2.81,2-11.38,8c-7.75,5-15.46,9.86-22.66,13.18q-2.68,1.29-5.23,2.37a44.88,44.88,0,0,1-4.91,1.81,38.16,38.16,0,0,1-8.62,1.76l6.15-3c2-1,4.06-2,6-3.1l11.7-6.37c3.81-2.18,7.53-4.45,11.22-6.65,1.83-1.12,3.69-2.17,5.47-3.34l5.35-3.49,5.27-3.47,2.62-1.73c.86-.58,1.71-1.21,2.56-1.81l10.1-7.26c1.69-1.19,3.28-2.44,4.87-3.69l4.78-3.74,4.74-3.73c1.59-1.23,3.07-2.56,4.6-3.84l9.08-7.76c3-2.65,5.85-5.36,8.76-8.05l4.35-4,4.21-4.2c2.79-2.81,5.64-5.6,8.39-8.49a458.91,458.91,0,0,0,31.74-37.28c-.7,2.93-3.83,8.3-8.27,14.64a207.35,207.35,0,0,1-16.77,19.92c-1.56,1.63-3.11,3.24-4.64,4.8s-3.13,3-4.63,4.4c-3,2.8-5.89,5.33-8.38,7.44C1439,1691.14,1435.35,1693.56,1434.71,1693.22Z"/><path class="b" d="M1518.18,1595.29a74.48,74.48,0,0,0-8,16.69,63.53,63.53,0,0,1-8.06,15.82c.24-4,3.41-11,6.5-17.77,2.88-6.89,5.6-13.68,5.1-17.33,3.31-5.6,3-3.83,2.51-1.21S1515.14,1597.57,1518.18,1595.29Z"/><path class="b" d="M1292.27,1215.16c.09-1.48.26-3.08.51-4.79s.45-3.54.78-5.46.68-3.93,1.1-6,.94-4.25,1.33-6.52c.85-4.52,1.91-9.29,2.92-14.25s1.95-10.14,2.85-15.36c.41-2.63.81-5.26,1.22-7.9l.6-3.95c.2-1.31.39-2.62.52-3.94l.83-7.84c.24-2.59.56-5.13.65-7.65.25-5,.48-9.87.43-14.4s-.37-8.75-.77-12.49c3.17,15.15,2.33,34.43-.7,53.9S1296.32,1197.69,1292.27,1215.16Z"/></svg>