<svg xmlns="http://www.w3.org/2000/svg" viewBox="0 0 1920 631"><path d="M124.79,307.84A103.84,103.84,0,0,0,78.05,329c-16.83,13.48-28.92,32.09-38.61,51.12C31.59,395.59,22.35,418.29,43,427.8c7.68,3.54,16.35,4.17,24.68,4.31,11.3.19,22.6-.33,33.86-1.21,23.22-1.82,46.29-5.22,69.49-7.35,19.63-1.8,39.93-3.45,59.45.11,14.65,2.66,30.19,8.39,39.69,20.45a37.44,37.44,0,0,1,8,24.18,47,47,0,0,1-2.55,13.89c-.21.63-2.85,6.28-1.24,3.43,1.73-3.07.16-.57-.83.8-25.6,35.16-63.11,62.27-103.47,78-3.75,1.46-6.9,9-8.79,12.24a101.41,101.41,0,0,0-4.93,9.41,32.68,32.68,0,0,0-1.28,4.33,246,246,0,0,0,94.37-65.52c15.8-17.7,29.79-38,38.79-60.06,6.71-16.4,7.63-35.14-5-48.95-10.57-11.54-26.71-16.61-41.75-18.8-20.17-2.95-41.06-.91-61.22,1.11-22.86,2.28-45.61,5.58-68.53,7.15A286.73,286.73,0,0,1,77.8,406c-7.89-.4-16.38-1.68-23.17-6-9.76-6.17-11.23-17.19-7.25-27.49.34-.88,2.19-4.35.64-1.83-1.26,2.05-1.65,2.53,0,.26a84.18,84.18,0,0,1,9.06-10.18,101.38,101.38,0,0,1,52.66-26.95c1.18-.21,2.64-2.62,3.12-3.28a99.49,99.49,0,0,0,5.68-9,101.41,101.41,0,0,0,4.93-9.41c.17-.38,1.65-4.4,1.27-4.33Z"/><path d="M163.05,224.76c32.54,31.22,44.82,76,70.17,112.24,11.68,16.71,26.25,32.29,44.75,41.44,21.79,10.77,46,9.57,68.91,3.33,23.63-6.42,48.36-15.95,64.07-35.61a98.07,98.07,0,0,0,10.73-17.51c.64-1.28,4.45-10.1.91-5.68-13.87,17.36-36.45,25.76-57.14,31.81-22.69,6.63-47,9-69.15-.77-39-17.23-58.58-58.7-77-94.45C208.08,237.69,196,216,178.05,198.78c-.89-.86-8.24,11.26-8.8,12.24-.87,1.51-7.9,12.11-6.2,13.74Z"/><path d="M210.53,307.11q33.78-24.47,69.25-46.48c1.56-1,3.32-4.17,4.22-5.53,2.12-3.2,4.08-6.55,5.91-9.93,1.39-2.57,3.08-5.3,3.88-8.11.15-.52,1.13-2.74-.24-1.89q-35.44,22-69.25,46.49c-1.63,1.18-3.19,4-4.22,5.52-2.12,3.21-4.09,6.56-5.91,9.94-1.39,2.57-3.08,5.29-3.89,8.11-.12.43-1.1,2.86.25,1.88Z"/><path d="M405.37,214.77c.48-1.61,1.07-3.18,1.6-4.78a6.54,6.54,0,0,0,.49-1.13l-1.78,3.24a43.38,43.38,0,0,1-3,5.19c-.26-1.44,5-5.65,6.13-6.66a58.8,58.8,0,0,1,17.6-11.15c16.28-6.47,34.79-4.85,51.71-2.28,26,3.94,65.74,12.71,70,44.42,1.11,8.27-.45,16.95-3,24.81a102.27,102.27,0,0,1-3.87,9.83c-.63,1.38-1.27,2.74-1.95,4.1-.18.36-2,3.68-1.17,2.25.07-.14-1.32,2.24-.69,1.19s-1.16,1.86-.66,1.08c-.38.59-1.29,2-1.89,2.86-2.12,3.11-4.39,6.12-6.75,9a176.67,176.67,0,0,1-16.1,17.4c-10.78,10.18-25.48,22.42-41.21,15.74-13.71-5.82-22.85-21.81-30.49-33.79a267.45,267.45,0,0,1-24.85-49.67,119.91,119.91,0,0,1-7-25.63,62.28,62.28,0,0,1-.48-13.09,49.37,49.37,0,0,1,.86-6.28c.8-3.92,4.42-10.11-1.52.48.67-1.19,7.71-12.87,6.2-13.74s-8.57,11.85-8.8,12.24c-5.48,9.79-10.81,19.8-11.83,31.16-.8,8.91.63,18,2.9,26.59,4.86,18.36,13.26,36.14,22.64,52.58A268.09,268.09,0,0,0,434.73,336c5.11,7,10.68,14.32,18.38,18.63,17.18,9.61,34.4-4.68,46.31-16.12,14.72-14.15,27-30.55,37.5-48,10.91-18.14,22.69-38.56,26-59.81,2.74-17.79-4-33.47-19.13-43.24-15.35-9.92-34.75-13.91-52.57-16.45-21.13-3-43.48-3.56-61.84,8.89-8.35,5.66-14.9,13.4-20.48,21.72-7.18,10.72-14,22.47-17.77,34.9-1.67,5.58,3.95-2.85,4.47-3.64,3.58-5.41,7.91-11.74,9.8-18Z"/><path d="M672.09,430.47l-25.6-140.66-13-71.3-6.41-35.17c-1.8-9.91-3.84-19.87-3.81-30a52.68,52.68,0,0,1,1.39-12.64c.22-.89.62-1.8.81-2.7-3.32,15.21-10.78,15.39-5.71,10.94a35.73,35.73,0,0,1,5.47-4.06c7.5-4.42,16.55-5.56,25.12-5.6,9.06,0,18,1.28,27,2.66,10.23,1.59,20.48,3.36,30.37,6.48C725.34,154,740.35,164.3,750,180.24a85.17,85.17,0,0,1,11.83,48,78.8,78.8,0,0,1-5.78,26.89c-.71,1.68-1.3,2.5,0,.34,1.69-2.83.12-.33-.79.87a92.52,92.52,0,0,1-9.18,10.3c-14.87,14.49-33.31,24.91-53.06,31.15-3.64,1.15-7,9.17-8.8,12.24a103.62,103.62,0,0,0-4.92,9.4c-.18.41-1.53,4.41-1.28,4.34,19.21-6.07,37.33-15.89,52.14-29.63,18-16.71,31.88-39.29,40.72-62.06,13.14-33.84,5.34-78.1-26.1-99.31-18.65-12.57-42.76-15.94-64.63-18.48-19.56-2.28-39.85-1-52.5,15.95C619.37,141.32,611,155,608.81,169c-1.6,10.1-.2,20.51,1.52,30.5,4.49,26.12,9.48,52.15,14.22,78.22l32.54,178.75c.1.53,3.66-4,3.11-3.28a126.37,126.37,0,0,0,10.61-18.37c.57-1.28,1.54-2.91,1.28-4.33Z"/><path d="M1003,116.34l23,117.76c.52,2.67,2.9,6.08,4.21,8.26,2.63,4.39,5.51,8.71,8.54,12.83a77.72,77.72,0,0,0,7.51,9.34c.43.42,2.84,3,2.41.79l-23-117.75c-.52-2.67-2.9-6.08-4.21-8.26-2.63-4.39-5.51-8.71-8.54-12.83a77.72,77.72,0,0,0-7.51-9.34c-.43-.42-2.84-3-2.41-.8Z"/><path d="M1024.55,44c8.81-3.3,3.69,1.73-11.55,1.19,1.36.05,2.74-.1,4.09.07,3.12.38,5.17,1.89,3.64,5.24-2.56,5.59-10.17,10.42-15.57,12.85-.61.28-1.9.77-2.26.93,20.49-9.3,27.1-2.22,17.18-3.53a40.46,40.46,0,0,1-9.61-2.55,41.3,41.3,0,0,1-17.29-13.33c-.84-1.07-5.45-.48-6-.45a129.79,129.79,0,0,0-14,1.69,139.22,139.22,0,0,0-13.87,2.86c-.54.14-6,1.78-5.55,2.33a44.31,44.31,0,0,0,30.76,17c10,.91,20.14-.58,30-2.22,10-1.67,20.46-3.65,29.67-8.19A43.8,43.8,0,0,0,1058,47c1.61-1.88,4-4.4,2.13-6.86-1.37-1.81-4.38-2.06-6.4-2.23-10-.86-20.17.33-30.06,1.81-11.31,1.68-22.76,3.82-33.5,7.84-7.36,2.75,6.42,1.67,7.52,1.55,8.81-.94,18.52-2,26.89-5.11Z"/><path d="M1102.89,50.7a530.55,530.55,0,0,0-36.4,102.71,515.21,515.21,0,0,0-9.92,52.72c-2,15.2-1.12,30.3,13.11,39.08,6.93,4.27,15.19,6.19,23.09,7.69a272.35,272.35,0,0,0,37,4,76,76,0,0,0,12,.08c1.07-.11,3.58-.13,2.14-1.36-1.85-1.58-7-1.67-9.06-2-5.08-.71-10.21-1.23-15.34-1.49-2.51-.13-3.25-.22-.07.05-3.56-.3.71.1,1.19.15-.42-.05-2.76-.35-.38,0s0,.07-.37-.07c.16.06,2.41.52.61.06-.56-.15-2-.46-3.53-.94a33.45,33.45,0,0,1-14-8.09c-10.9-11.27-7.51-28.12-5.39-42.06a526,526,0,0,1,23.65-95A533.17,533.17,0,0,1,1142.75,54c.56-1.17-18.3-3.55-19.76-3.66-4.7-.37-9.43-.7-14.14-.6-1.19,0-5.36-.34-6,.92Z"/><path d="M1071.8,131l64,4.47c1.92.14,4.09-1.22,5.67-2a131.67,131.67,0,0,0,12.14-7.28c3.93-2.61,7.85-5.27,11.5-8.26a48.75,48.75,0,0,0,4.11-4.4l-64-4.47c-1.92-.14-4.09,1.22-5.67,2a130.35,130.35,0,0,0-12.14,7.28c-3.93,2.61-7.85,5.27-11.5,8.26a50.56,50.56,0,0,0-4.12,4.4Z"/></svg>