<svg xmlns="http://www.w3.org/2000/svg" viewBox="0 0 1920 1920"><defs><style>.a{fill:none;}.b{fill-rule:evenodd;}</style></defs><path class="a" d="M1422.79,93.83a1392.73,1392.73,0,0,0-325,301.24,1463.74,1463.74,0,0,0-85,120.54A1447.25,1447.25,0,0,0,836.83,920.15a1404.89,1404.89,0,0,0-29.65,145.27l-2.75,18.37-2.24,18.46L800,1120.72l-.54,4.62L799,1130l-.83,9.27-1.65,18.55-.8,9.28-.55,9.3L794.12,1195l-.52,9.31-.26,4.67-.18,4.89c-.93,26.11-1,53.14.82,81.46a606.29,606.29,0,0,0,11.87,88.81,455.36,455.36,0,0,0,31.71,96.38,390.52,390.52,0,0,0,27.12,49.1,365.57,365.57,0,0,0,36,46.66c3.42,3.66,6.79,7.34,10.34,10.89s7.12,7,10.85,10.5,7.75,7,11.73,10.37,8,6.64,12.13,9.77a349.39,349.39,0,0,0,51.55,32.86,371.16,371.16,0,0,0,110.16,36.68,394,394,0,0,0,111.22,2.67,389.7,389.7,0,0,0,108.08-28.77c68.76-29.63,124-76.13,165.65-129a476.64,476.64,0,0,0,52.86-84,488.8,488.8,0,0,0,34.27-91.72,459.32,459.32,0,0,0,10.24-49.65,405.1,405.1,0,0,0,4.41-54.52,357.79,357.79,0,0,0-4.21-59.68l-1.35-7.81c-.49-2.64-.95-5.26-1.49-7.9-1.17-5.33-2.38-10.66-3.7-16s-2.91-10.52-4.49-15.74-3.45-10.35-5.27-15.49c-2.63-6.72-5.35-13.42-8.22-20-3.06-6.51-6.21-13.08-9.49-19.42-3.34-6-6.73-12.14-10.24-18q-2.65-4.23-5.36-8.42l-2.72-4.19c-.91-1.39-1.83-2.8-2.75-4.07a413.06,413.06,0,0,0-45.64-54.84c-15.21-15.47-30-28.53-43.84-40.09s-26.75-21.58-38.46-30.66c-23.26-18-47.84-36.91-74.31-55.82s-54.87-37.89-86.07-55.86-65.3-34.89-103-48.79a541.33,541.33,0,0,0-59-18.1,498.09,498.09,0,0,0-63.33-11.28q-8.14-.81-16.31-1.53c-5.47-.36-11-.72-16.41-1-10.91-.41-21.79-.55-32.52-.24a521.29,521.29,0,0,0-63,5.47,620.71,620.71,0,0,0-113.94,28.79,869.45,869.45,0,0,0-98.14,42q-22.83,11.41-44.25,23.29c-3.6,2-7.13,3.95-10.65,5.93s-7,4-10.54,6l-10.52,6-10.47,6.2C538.77,894.4,484.2,931.85,432,975a1015.71,1015.71,0,0,0-76,69.69c-12.27,12.38-24.2,25.4-35.95,38.67-2.91,3.35-5.79,6.77-8.68,10.16l-4.32,5.1-2.16,2.55-2.12,2.62-8.45,10.49c-1.4,1.76-2.82,3.49-4.2,5.28L286,1125l-8.21,10.81c-2.7,3.64-5.33,7.39-8,11.08l-4,5.57c-1.33,1.85-2.64,3.71-3.91,5.63l-7.69,11.44c-1.27,1.92-2.56,3.81-3.81,5.75l-3.71,5.87-7.36,11.76c-2.42,4-4.74,8-7.11,12l-3.51,6-1.76,3-1.69,3.09a693,693,0,0,0-47,103.67c-1.61,4.53-3.08,9.12-4.6,13.69l-2.26,6.86c-.75,2.28-1.5,4.57-2.15,6.9l-4,13.92-2,7-2,8a372,372,0,0,0-7.46,37.7,289.23,289.23,0,0,0-2.88,49.29c.08,2.35.17,4.71.28,7.06,0,1.14.16,2.43.25,3.67l.3,3.74q.33,3.74.72,7.46c.32,2.59.69,5.24,1.07,7.85s.78,5.21,1.27,7.88,1.08,5.47,1.66,8.19l.91,4.09c.31,1.35.62,2.71,1,4.14q1.13,4.23,2.34,8.43c1.55,5.53,3.62,11.34,5.72,17l1.62,4.23c.58,1.42,1.2,2.85,1.81,4.27q1.84,4.26,3.82,8.47a224.27,224.27,0,0,0,18.8,32.42,234.22,234.22,0,0,0,23.22,28.29,242.41,242.41,0,0,0,25.58,22.93,245,245,0,0,0,26.16,17.7,255.51,255.51,0,0,0,25.7,13.22c4.24,1.93,8.35,3.59,12.53,5.24s8.22,3.09,12.24,4.41c8.09,2.72,16,5,23.77,6.84s15.41,3.42,22.91,4.62,14.94,2.15,22.27,2.79,14.64,1.07,21.92,1.21q2.73.06,5.46.06h4.08l1.2,0,9.59-.29c3.19-.13,6.4-.2,9.58-.43l9.53-.78c3.18-.29,6.37-.52,9.52-.92l9.44-1.25a385,385,0,0,0,72.78-17.64,406.07,406.07,0,0,0,65.74-29.7,431.23,431.23,0,0,0,57.5-38.78,455.46,455.46,0,0,0,49.31-45.68,474.83,474.83,0,0,0,75.4-107.63,465.18,465.18,0,0,0,26-61.14l1.38-4,1.27-4,2.52-8,1.22-4,1.07-3.81,2.11-7.64q4.08-15.3,7.19-30.68a557.51,557.51,0,0,0,10.75-121.55,652.63,652.63,0,0,0-12.64-114.54,778.41,778.41,0,0,0-29-105.53q-8.87-25.31-19.09-49.62c-1.69-4.06-3.45-8.07-5.18-12.1s-3.57-7.88-5.36-11.82l-5.41-11.77L762,901c-.9-2-1.8-3.92-2.78-5.84l-11.61-23.12-2.92-5.77-3.09-5.67-6.19-11.34-6.21-11.33c-1-1.9-2.14-3.74-3.22-5.59l-3.29-5.56c-4.39-7.4-8.72-14.84-13.22-22.17-18.16-29.23-37.79-57.48-58.59-84.83Q619.33,679,584,641.36,548.52,604,509.52,570q-39.24-33.63-81.65-63.52L241.78,773.29c76.13,53.07,141.9,122.9,191,202.37,3.05,5,5.94,10,8.95,15.05l2.23,3.76c.74,1.25,1.52,2.49,2.19,3.78l4.18,7.68,4.2,7.66,2.1,3.83,1.95,3.9,7.85,15.58c.68,1.29,1.26,2.62,1.87,3.94l1.8,4,3.64,7.91c1.2,2.63,2.48,5.28,3.62,7.89l3.34,7.81q6.56,15.61,12,31.22a453.85,453.85,0,0,1,17,61.37,327.92,327.92,0,0,1,6.49,57.45,232.78,232.78,0,0,1-4.32,50.7q-1.2,5.85-2.69,11.49l-.77,2.8-.38,1.4-.37,1.16-.72,2.28-.34,1.15-.42,1.15a141.91,141.91,0,0,1-7.88,18.51,150,150,0,0,1-23.67,33.84,119.72,119.72,0,0,1-28.38,22.8,81.37,81.37,0,0,1-13.08,6,59,59,0,0,1-11.25,2.76c-.43.06-.86.12-1.29.21s-.85,0-1.27.09-.84.07-1.26.14-.82,0-1.24,0-.82,0-1.23.08l-.15,0c0,5.72,0,1.55,0,2.81v-.1c0,.21-.05,1.8-.25,4.07s-.57,5.46-1.17,9.15-1.44,8-2.52,12.45-2.44,9.25-4,13.95c-.83,2.37-1.61,4.69-2.56,7s-1.86,4.59-2.8,6.77a129.64,129.64,0,0,1-6.25,12.22l-1.62,2.67c-.52.85-1.16,1.75-1.64,2.5s-1.06,1.57-1.63,2.32-1,1.4-1.54,2.09a55.8,55.8,0,0,1-5.58,6.28,27.85,27.85,0,0,1-3.44,2.91l-.43.29-.13.08-.05,0,.05,0,.09,0,.66-.33.82-.37.42-.16.77-.32c1.08-.42,1.75-.58,3.47-1.15,5.64-1.67,15.34-3.54,29.76-3.93s33.58.56,59.94,4.32c0,0,0,.06,0,0l0-.11a.83.83,0,0,0,0-.22,3.81,3.81,0,0,1,.08-.41c0-.17.07-.35.1-.52s.1-.46.15-.7l.17-.79.48-2,.65-2.52,1-3.4,2-6.89c.29-1.16.68-2.29,1.07-3.43l1.15-3.42c.77-2.28,1.45-4.58,2.27-6.85a367.66,367.66,0,0,1,24.51-53.94c.3-.55.59-1.11.9-1.67l1-1.65,1.94-3.31c1.31-2.2,2.54-4.43,3.89-6.63l4.15-6.58,2-3.3c.7-1.1,1.47-2.18,2.19-3.27l4.39-6.54c.71-1.1,1.48-2.18,2.27-3.26l2.32-3.24c1.57-2.16,3.06-4.34,4.66-6.49l4.9-6.43,2.44-3.23c.82-1.07,1.71-2.12,2.55-3.18l5.13-6.38,1.28-1.6,1.35-1.58,2.68-3.15,5.38-6.32c7.42-8.32,15-16.64,23-24.75a691.69,691.69,0,0,1,51.67-47.34c36.83-30.43,77.66-58.73,121.18-84.53L769,1136l8.26-4.75c2.75-1.58,5.5-3.18,8.27-4.72s5.54-3.11,8.28-4.61q16.47-9.08,32.4-17.06a544.12,544.12,0,0,1,61-26.29,297.2,297.2,0,0,1,53.73-13.86,196.87,196.87,0,0,1,23.29-2c3.7-.13,7.27,0,10.79.06l5.21.3c1.75.19,3.5.36,5.25.49,14.06,1.57,29.11,5.18,45.67,11.28s34.44,14.7,53.29,25.56,38.63,23.89,59.14,38.55,41.8,30.92,64.18,48.27c11.11,8.61,21,16.36,29.31,23.3s15.12,13.12,20.15,18.26a90.69,90.69,0,0,1,9.89,11.51,1.16,1.16,0,0,1,.27.42l.21.37a6.63,6.63,0,0,0,.49.69,2.61,2.61,0,0,0,.5.85c0,.1-.1.07,0,0h0a.52.52,0,0,0,0,.14.63.63,0,0,0,.09.25,36.13,36.13,0,0,1,.3,5.57c0,5.53-1.15,14.58-4,25.11a164.36,164.36,0,0,1-11.47,30.74,151.31,151.31,0,0,1-16.7,26.64,119.57,119.57,0,0,1-19.31,19.62,93.39,93.39,0,0,1-9.75,6.8c-1.6,1-3.2,1.85-4.79,2.68-.78.46-1.59.75-2.37,1.18a10.18,10.18,0,0,1-1,.46c-.31.13-.62.27-.92.42a64.84,64.84,0,0,1-18,4.71,69.5,69.5,0,0,1-19.26-.41,46.88,46.88,0,0,1-13.61-4.31,24.76,24.76,0,0,1-3.61-2.25c-.25-.16-.38-.38-.62-.49a3.37,3.37,0,0,0-.54-.47,9.5,9.5,0,0,0-.9-.89c-.33-.29-.58-.7-.93-1a40.85,40.85,0,0,1-3.91-5.13,66.21,66.21,0,0,1-4.46-8.18,132.26,132.26,0,0,1-8.82-27.84,283.53,283.53,0,0,1-5.28-40.89c-1-15.25-1-31.92-.41-49.43l.12-3.29.2-3.5.41-7,.81-14.07.39-7,.63-7,1.25-14.06.62-7,.3-3.52.43-3.51,1.7-14,1.66-14,2.14-14a1078.94,1078.94,0,0,1,22.67-111.21,1122,1122,0,0,1,136.28-313.07,1138.07,1138.07,0,0,1,65.84-93.41,1067.86,1067.86,0,0,1,248.57-230.72Z"/><path class="b" d="M1493,200.48c2.51,1.55.22,4,.45,5.94-4.15,1.48-8.7,3.61-10.11.67Z"/><path class="b" d="M1140.24,379.37a40.91,40.91,0,0,1-6.16,6.48,38.5,38.5,0,0,1-5.11,3.6c-3.27,2-6.47,3.72-10.62,8.72-8.42,8.39-4.24,9.69-6.79,14.76l-4.39,4.88-4.22,5q-4.2,5-8.31,10t-8.14,10.08c-2.69,3.36-5.37,6.72-7.86,10.19q-7.61,10.32-14.82,20.68c-2.38,3.46-4.82,6.87-7.07,10.37s-4.46,7-6.64,10.5q-6.54,10.49-12.64,20.87c-4,7-7.67,14-11.29,20.92q-2.68,5.2-5.28,10.35c-1.71,3.43-3.43,6.82-4.95,10.28q-4.68,10.32-8.89,20.38c-1.63-2.66-4.39,2.65-7,6.88-4.74-3.36-5.76-9.6-4.81-17.36l5.85-11.77c1-1.94,2-3.89,2.95-5.82s2-3.87,3-5.75q6.21-11.39,12.48-22.51,3.15-5.58,6.29-11.11l6.55-10.86q6.58-10.83,13.11-21.6l1.64-2.69,1.7-2.65,3.39-5.31,6.77-10.62,6.74-10.66,3.35-5.35,3.48-5.28q6.93-10.59,13.78-21.38l3.41-5.42,1.7-2.72,1.76-2.69q3.52-5.37,7-10.85c4,6.81,11.77,1,19.6-5.18S1135.86,374.21,1140.24,379.37Z"/><path class="b" d="M819.68,1029c-3.19,4.24-4.89,16-9.2,14.72C812.65,1034.62,815.76,1029.73,819.68,1029Z"/><path class="b" d="M1118.14,1132.39a92.57,92.57,0,0,1-1,19.65c-1.19,6.84-2.7,12.86-5.45,14.47,1.57,7.12,3.23,14,4.23,21.94.22,2,.56,4,.77,6.12s.42,4.31.54,6.6a132.12,132.12,0,0,1-.1,15.09c-2.51,1.82-5,3.87-8,4.57a224.22,224.22,0,0,1-6.29-24.21q-.72-3.51-1.34-7.14c-.35-2.41-.63-4.85-.88-7.29-.49-4.88-.79-9.78-.83-14.49,0-2.36,0-4.68.16-6.92a51.36,51.36,0,0,1,.7-6.49,45.9,45.9,0,0,1,3.24-11.12C1106.83,1136.77,1111.38,1132.69,1118.14,1132.39Z"/><path class="b" d="M1177.86,1641.1c-8.88-.61-5.17-1.49-1.14-2.27a34.84,34.84,0,0,0,4.79-1.11c.67-.32-.06-.47-3.71-.49,1.47-1.45,7.31-1.81,12.48-1.42s9.68,1.3,8.35,3c-3,.56-8.39.62-12.92.62S1177.49,1639.73,1177.86,1641.1Z"/><path class="b" d="M1536,1376.1a3,3,0,0,1-3.27-2.79,11.34,11.34,0,0,1,.24-3.92,42.21,42.21,0,0,1,1.71-6.07A3,3,0,0,1,1538,1366C1538.37,1368,1537.85,1371.25,1536,1376.1Z"/><path class="b" d="M1235.84,905.35a37.22,37.22,0,0,0-8.29-6.82,25.74,25.74,0,0,0-5.67-2.43c-3.24-1-5.56-1.84-9-7.78-16.13-6.57-33.85-16.3-52.43-25.64-9.24-4.7-18.79-9.21-28.2-13.3-4.74-2-9.47-3.89-14.11-5.64s-9.28-3.26-13.81-4.56-8.95-2.35-13.5-3.14c-2.26-.4-4.53-.77-6.79-1.11s-4.52-.68-6.82-.93c-9.15-1.11-18.39-1.93-28-3.19a577.45,577.45,0,0,0-59.33-4.87l-3.8-.11-3.79,0-7.61,0-7.59.13c-2.54,0-5.07.08-7.59.21l-7.58.32c-2.53.13-5,.32-7.55.48-5,.28-10,.8-15,1.24a495.89,495.89,0,0,0-58.29,9.41,502,502,0,0,0-53.83,15.27c-9.84,3.37-19.5,7.1-29,10.87s-18.8,7.74-27.85,11.59c-18.08,7.74-35.13,15.2-50.88,21,7.93-15,28.85-28.37,54.1-39a373.27,373.27,0,0,1,39.81-14c13.51-4,26.85-7.29,38.72-10.23,2.26-.88,4.37-1.8,6.39-2.69s3.94-1.78,5.74-2.69a100.87,100.87,0,0,0,9.56-5.51c32-6.39,63-11.05,93.39-13,15.19-1,30.26-1.29,45.08-.82l11,.47c3.65.22,7.27.52,10.89.8s7.19.65,10.75,1.06,7.13.76,10.62,1.31L1056,813.5c3.46.6,6.88,1.26,10.3,1.91s6.8,1.39,10.15,2.16l5,1.17c1.68.39,3.34.8,5,1.25q4.93,1.32,9.84,2.71c3.26.94,6.44,2,9.65,3l4.8,1.58,4.7,1.69c3.12,1.15,6.28,2.28,9.35,3.53a298.81,298.81,0,0,1,35.53,17,278.13,278.13,0,0,1,32.53,21.67,93.37,93.37,0,0,1,12,4.75c3.75,1.83,7.35,3.82,11,5.85s7.24,4.17,11.13,6.2a125.65,125.65,0,0,0,12.4,5.88c2,2,4.15,4,3.94,5.57C1246.13,903.37,1239.37,904.32,1235.84,905.35Z"/><path class="b" d="M811.76,884.79c-2.25,1.27-5.14,2.79-8.24,4.23a102,102,0,0,1-9.49,3.84,29,29,0,0,1-8.07,1.71c-2.16,0-3.67-.64-4.06-2.26a35.18,35.18,0,0,1-7.64,4.72c-2.77,1.28-5.74,2.33-8.82,3.4s-6.33,2.08-9.58,3.36a68.8,68.8,0,0,0-9.87,4.6c-20.41,6.12-41.59,14.79-63.08,25s-43.45,22.16-65.66,35.3C572.78,995,527.72,1026,484,1057.67c-7-1.94,1.46-8.8,4.36-13.82,17.78-12.31,31.41-25,45.27-37.23,13.92-12.06,28.06-23.69,46.66-32.75,19.69-17.93,44.81-31.44,70.41-42.59,6.42-2.75,12.83-5.45,19.23-8s12.8-5.06,19.12-7.52c12.63-4.91,25-9.66,36.5-14.62,10-1.67,23.38-5.71,38.24-10.83s31.22-11.27,46.91-17.47C814.33,873.33,813.73,880.9,811.76,884.79Z"/><path class="b" d="M561.1,1029.81l2.29,3.13c-2.31,2.17-4.7,4.19-7.1,6.19s-4.83,3.94-7.29,5.81-5,3.68-7.46,5.48l-7.44,5.43-7.39,5.4c-2.43,1.85-4.8,3.74-7.14,5.66s-4.63,3.9-6.85,5.94-4.32,4.24-6.36,6.47c-.31-7,10.62-17,14-24.92,3.95-2.52,7.55-5,10.95-7.5l5-3.61c1.64-1.16,3.26-2.27,4.86-3.35a109.22,109.22,0,0,1,9.63-5.9A54.68,54.68,0,0,1,561.1,1029.81Z"/><path class="b" d="M474.55,1060.66c2.89,1.63-1.51,6.88-7.35,12.12-1.46,1.32-3,2.63-4.57,3.88s-3.06,2.52-4.51,3.64a72.42,72.42,0,0,1-6.87,4.84c2.49-5,6.4-8.78,10.69-12.37S470.8,1065.63,474.55,1060.66Z"/><path class="b" d="M442.16,1612.52a17.78,17.78,0,0,1,2.51-2.22c1.09-.81,2.42-1.75,3.92-2.74a73.65,73.65,0,0,1,10.82-5.76,55.28,55.28,0,0,1,12.87-4.34,31.17,31.17,0,0,1,13.24-.34c16.21-8.86,33.75-16.39,51.74-25.73s36.41-20.33,53-35c.26,3.09,4.66,1.14,9.39-2.26,1.18-.85,2.38-1.79,3.54-2.76s2.21-2,3.19-3a31.12,31.12,0,0,0,4.29-5.08c-2-1.19-3.94,1.6-5.67,3.89s-3.16,4.07-3.9.77c10.26-9.88,20.39-19.44,29.18-28.7q3.26-3.51,6.29-6.89c2-2.28,3.82-4.58,5.58-6.8a90.32,90.32,0,0,0,8.69-13c2.24.57-.29,3.85.88,5,1.49.55,4.81-4,7.35-7.09.32.61-.55,2.47-2,4.7a68,68,0,0,1-5.45,6.9,37,37,0,0,1-2.69,2.73,8.09,8.09,0,0,1-2,1.4c-1,.37-1-.5.45-3.41-4.12,4.46-3.55,6.4-8.06,11,4.91-4.13,5.58-2.17,6.71-1.18.57.48,1.25.72,2.64-.21a18.1,18.1,0,0,0,2.69-2.38c.56-.59,1.2-1.26,1.88-2.07s1.41-1.75,2.22-2.82c.45.88-1.06,3-2.62,4.94s-3,3.89-2.23,4.62c-5,3.79-7.57,1.75-11.74,3.32a38.82,38.82,0,0,1-3,4.28c-1.32,1.65-2.87,3.53-4.66,5.41-3.54,3.8-7.57,8-11.3,11.66-1.84,1.85-3.55,3.6-5,5.17a39.35,39.35,0,0,0-3.46,4c-1.56,2.2-1.43,3.4,1.58,2.86a24.35,24.35,0,0,1-4.23,4.58,47.13,47.13,0,0,1-6.06,4.3c-2.25,1.39-4.66,2.78-7.19,4.11l-7.8,3.89-3.88,2c-1.31.62-2.6,1.25-3.86,1.89-2.52,1.27-4.91,2.58-7.08,4-4.42,2.68-8,5.57-10,9.1L555.7,1569c-2.37,1.21-4.6,2.5-6.88,3.64s-4.48,2.31-6.65,3.46-4.27,2.33-6.42,3.4c-8.5,4.44-16.68,8.75-25.49,12.89-4.43,2-8.92,4.2-13.8,6.08-2.43,1-4.91,2-7.47,2.93s-5.26,1.81-8,2.71A197.08,197.08,0,0,1,442.16,1612.52Z"/><path class="b" d="M659.11,1462c2.45-2.4,5.17-4.64,7.13-5.33s3.07.09,2,3.71c-2.24,3-4,4-5.44,3.9S660.24,1463.14,659.11,1462Z"/><path class="b" d="M669.3,1440.72c2.65-4.47,4.44-5.92,6.29-7a14.31,14.31,0,0,0,5.83-5.07c.2,3-2.34,6.84-5.15,9.53S670.23,1442.29,669.3,1440.72Z"/><path class="b" d="M700.32,1404.43c-.93-.87-.84-2.37-.17-4.32a73,73,0,0,1,3.31-7c1.37-2.69,2.9-5.64,4.2-8.64a35.53,35.53,0,0,0,2.51-9c.88.66,1,2.18.6,4.25a36.53,36.53,0,0,1-2.48,7.52c-1.21,2.83-2.64,5.88-4,8.87S701.38,1401.89,700.32,1404.43Z"/><path class="b" d="M717,1356.24c-.14-3.08-.8-5.49-1-8.53a32.65,32.65,0,0,1,.14-5.13,40.53,40.53,0,0,1,1.51-7C719.54,1339.72,719.67,1346.38,717,1356.24Z"/><path class="b" d="M747.52,1003.3a70.79,70.79,0,0,1-1.47-7.15,36.57,36.57,0,0,1-.47-5.89c0-3.53.82-6.26,2.31-8.21-.33,3.24.65,7.9,1.18,12.07S749.6,1002,747.52,1003.3Z"/><path class="b" d="M461,1397.59c-6.15,1.43-12.21,2.22-17.51,3.45-.66.13-1.31.29-2,.48s-1.27.42-1.89.55a20.89,20.89,0,0,0-3.61,1.35,16.6,16.6,0,0,0-3.37,1.74c-.55.39-1.08.66-1.61,1a16,16,0,0,0-1.56,1.24,37.15,37.15,0,0,1-4.08-.2,34.79,34.79,0,0,1-4.06-.46c-.67-.11-1.35-.11-2-.28s-1.33-.29-2-.42l-1-.18c-.31-.06-.76-.09-.83-.19l-.92-.47a8.53,8.53,0,0,1-2.72-2c-.07-.06-.08-.17-.13-.24a.36.36,0,0,1-.07-.22,1.37,1.37,0,0,1,0-.19v0s0,0,0,0l-.05.21-.21.86-.43,1.72c-1.17,4.64-2.62,9.46-4.31,14.24a137.51,137.51,0,0,1-5.63,13.84,115.9,115.9,0,0,1-6.42,12,86.59,86.59,0,0,1-6.37,9c-1.08,1.28-1.9,2.26-2.88,3.26-.39.43-.81.86-1.25,1.28l-.57.55-.54.5-1,.86-.83.68c-.21.16-.45.34-.69.5s-.25.18-.4.28l-.21.13-.08,0,.07,0,.43-.22c.28-.15.56-.27.82-.39,2.2-1,7.94-3,17.27-4.3q1.2-.16,2.4-.27c.35,0,.91-.11,1.39-.17l1.49-.18q3-.33,6-.42,3.6-.32,7.19-.36h2.69c.28,0,.69,0,1,0,1.43,0,2.85-.05,4.27,0s2.84,0,4.26.1l2.12.1c.32,0,.78,0,1.19,0l1.25,0c3.34.1,6.67.29,10,.59,1.52.17,3.61.27,5.53.42l.37,0h0v0s0,0-.05-.05a2.18,2.18,0,0,1,0-.24c0-.18,0-.31,0-.54s0-.59.06-.89a8,8,0,0,1,.13-1.13,10.32,10.32,0,0,1,.22-1.32l.36-1.51c.15-.55.35-1.17.55-1.75l.3-.87.4-1c.29-.67.55-1.25.9-2,7-15.18,13.64-30.33,20.33-45.83s13.47-31.32,20.79-47.53,15.15-32.76,23.76-49.44,18-33.47,28.15-50l5.73-6.1c1.91-2,3.94-4,5.9-6,1.72-2.4,3.38-4.85,5-7.32s3.4-4.91,5.08-7.41,3.31-5.07,5.08-7.57l5.28-7.64,2.69-3.86c.94-1.26,1.88-2.54,2.82-3.82q2.86-3.82,5.86-7.68c2-2.59,4.16-5.07,6.33-7.61s4.44-5,6.83-7.53c19.7-20.37,44.59-39.56,71.57-56.55,6.69-4.31,13.62-8.37,20.49-12.44,3.46-2,7-4,10.44-5.93l5.21-2.92,5.27-2.84c13.95-7.61,28.09-14.59,41.7-21.32,1.23,1.64,1.91,4.07,6.46.82,27.22-11.53,54.1-19.48,79.8-25.79,12.86-3.19,25.41-5.91,37.6-8.52s24-5,35.52-7.63c1.41-.35,2.76-.64,4.12-1s2.69-.86,4-1.25c2.61-.8,5.22-1.77,7.79-2.41,1.29-.34,2.58-.67,3.88-.92a39.06,39.06,0,0,1,3.88-.45c.66,0,1.31-.06,2-.06s1.3.07,2,.14a24.52,24.52,0,0,1,4,.78,84.69,84.69,0,0,1,17.46-6.12,182.56,182.56,0,0,1,19.09-3.3c5.85,1.32,12.6,2.64,19.93,3.92l23.42,4.3c4.07.69,8.22,1.55,12.33,2.21q3.11.63,6.17,1.12c2,.3,4.09.75,6.1,1.05l3,.45,3,.48c2,.31,3.89.56,5.78.77,3.8.57,7.41.81,10.79,1,7.14,5.26,14.84,8.68,23,11.83s16.59,6.35,25,11.13c18.28,10.51,37.85,23.17,58.34,37.64,10.25,7.24,20.74,14.9,31.44,22.88,2.69,2,5.38,4,8.07,6.06l8.16,6.16,16.48,12.58c10.9,8.36,21,16.21,29.92,23.7a314.12,314.12,0,0,1,23.26,21.23,140.35,140.35,0,0,1,15.12,18c.41.66.83,1.31,1.26,1.94l.66,1a6.5,6.5,0,0,1,.59.93c.63,1.21,1.43,2.41,2,3.51s1,2.1,1.6,3.13a28.37,28.37,0,0,0,1.39,3.2,81.2,81.2,0,0,1,2.54,8.27c.22,1.46.66,3,.83,4.64s.42,3.35.66,5c.09.87.1,1.8.18,2.69l.11,1.34c0,.45,0,.94,0,1.41,0,.94,0,1.87.09,2.81l0,2.91v1.46c0,.48,0,1-.07,1.5q-.06,1.52-.12,3c-.06,1-.17,2.06-.24,3.09s-.12,2-.27,3.11a20.61,20.61,0,0,1,1.63,10.55,108.3,108.3,0,0,0-.69,11.89c-6,11.43-11.77,28.34-18.67,45.06-3.43,8.34-7,16.65-10.55,24.26s-7,14.5-9.85,20.24c-7,3.46-13.48,10-20.84,16.57s-15.52,13.19-24.41,16.72c-.87.34-1.74.66-2.61,1s-1.76.52-2.63.78-1.74.48-2.61.69l-2.6.53c-1.69.39-3.4.62-5,.91l-1.21.22c-.4.08-.77.09-1.14.15-.75.09-1.47.2-2.18.32-5.74.92-10.69,2.27-14.64,6.67-7.41,1.36-15,2.55-22.86,3.4-3.91.34-7.87.72-11.84.75-2,.11-4,0-6,0l-3-.15-1.49-.06-1.48-.14a87.13,87.13,0,0,1-11.69-1.73,74.28,74.28,0,0,1-11-3.39,58.3,58.3,0,0,1-9.8-5.22,40,40,0,0,1-15.74-20.91l-.33-.86-.36-1c-.24-.66-.49-1.31-.74-1.94a19.7,19.7,0,0,1-.7-2c-.22-.65-.46-1.29-.7-1.91-.44-1.3-.84-2.63-1.33-3.86s-.89-2.56-1.34-3.87c-5-5.15-8.9-12.07-12.49-20.39s-6.94-18-11.05-29.26c-1.53,0-3.48,1.14-4.17-1-.4-7.17-4.19-16.17-7.34-26.75s-5.58-22.61-3.71-33.92c-2.52-8.91-5.21-17.88-7.69-27.36a240.66,240.66,0,0,1-6.29-30.8,227.93,227.93,0,0,1-2.65-36.92c.06-6.75.28-13.84.89-21.32.79-7.47,1.86-15.33,3.26-23.63a51.46,51.46,0,0,1-1.64-5.57,48.73,48.73,0,0,1-1.12-6.18,123.6,123.6,0,0,1-.77-13.92c0-4.93.16-10.14.49-15.52.12-2.69.46-5.4.76-8.15s.65-5.52,1-8.32c.72-5.59,1.5-11.26,2.29-16.9.36-2.83.86-5.63,1.34-8.41s.93-5.56,1.38-8.29c.89-5.48,1.71-10.86,2.37-16s1.39-10.11,1.8-14.78c2.25-6.78,4.74-14.66,7.43-22.94,3-8.21,6.12-16.82,9.44-25.1q1.24-3.11,2.52-6.14c.85-2,1.82-4,2.74-5.92,1.86-3.85,3.75-7.54,5.65-11s3.83-6.61,5.77-9.44a49.34,49.34,0,0,1,5.91-7.35c3.62-8.35,7.27-16.32,10.81-24.95l1.33-3.27,1.4-3.32c1-2.23,1.88-4.53,2.81-6.89,1.86-4.74,3.68-9.78,5.46-15.26a41.4,41.4,0,0,1,5.72-6.92,29.67,29.67,0,0,0,5.81-8.29c-.54-4.18.35-9.62,2.34-16.07,1.42-2,2.82-4.17,4.26-6.37s3-4.45,4.45-6.8c2.95-4.69,5.89-9.7,8.79-14.94l8.85-16.27c3-5.58,5.89-11.33,8.73-17.18.72-1.46,1.39-2.94,2.13-4.4l2.22-4.38c1.47-2.92,2.91-5.87,4.33-8.82,2.85-5.9,5.54-11.86,8.2-17.74s5.44-11.6,7.93-17.29q1.88-4.26,3.62-8.45l1.72-4.15,1.76-4c6.94-2.1,7.89-15.83,15.22-18.43,17-34.87,35-71.78,57.27-106.32q4.2-6.45,8.51-12.84c1.46-2.11,2.86-4.27,4.38-6.33l4.6-6.17q4.63-6.13,9.41-12.15c3.19-4,6.38-8,9.84-11.76s6.87-7.54,10.39-11.21c1.76-1.84,3.54-3.66,5.32-5.46s3.55-3.62,5.46-5.3c7.5-6.84,15.24-13.36,23.23-19.46,2.51.1,5.09.09,7.66,0s5.12-.38,7.65-.69c5.08-.61,10.07-1.44,14.9-2,9.66-1.19,18.59-1.43,26.32,3.16,6.49-2.54,14.54-9.92,19.76-8.72,2,3.75,6.05,1.08,9,2l4-2.16c1.43-.73,2.92-1.51,4.44-2.32,3-1.64,6.27-3.45,9.58-5.4,6.63-3.87,13.46-8.5,20.35-13.09a144.9,144.9,0,0,0,18.83-15.22,66,66,0,0,0,13.58-16.43c.33-4.34.79-8.82.94-13.07a40.43,40.43,0,0,0-.82-11.55,12.8,12.8,0,0,0-5.56-8,15.49,15.49,0,0,0-5.5-2,24,24,0,0,0-3.59-.37,38,38,0,0,0-4.14.18c-7.31-11.34-22.11-18-29.56-27.37-3.71-4.71-5.54-10.15-3.52-17.35s8.22-15.77,20.19-27.12c.11-2,.26-3.9.46-5.77s.42-3.68.62-5.43a58.86,58.86,0,0,0,.42-10.16c-.43-6.44-2.75-12.25-9.9-17.36a93.3,93.3,0,0,1-13,1.67c-4.24.29-8.34.58-12.71,1a93.35,93.35,0,0,0-30.38,7.85c2.65-5.23-1.8-2.76-4-5-10,6.94-22.89,19.95-27.66,16.24,12.25-9.14,17.52-16.31,21.86-23.25s8-13.31,16.69-21.17a39.11,39.11,0,0,0,4.62-16.64,44,44,0,0,0-1.79-13.12c-2.11-8.17-4.78-15.64.1-25.57,3.64-1.65,5.89-2.41,8-3.58a21.47,21.47,0,0,0,3.26-2.22c1.16-.95,2.45-2.17,4.09-3.74-.73-10-11.71-5.59-2.1-18.89-3.75-.61-7.16.37-10.81,2.21s-7.42,4.73-12.11,7.72c-7.72-2.91-18.64-.56-30.89,3.95-12,4.79-25.34,11.73-38,17.71-7.78,6.41-15.39,12.35-22.85,17.94l-5.58,4.12-2.76,2-2.69,2.06q-5.37,4.08-10.66,7.94c-7,5.19-14,10-20.78,14.91L1264.94,268l-9.72,7.16c-3.22,2.38-6.29,4.9-9.42,7.37-6.22,5-12.37,10-18.46,15.27l-4.56,4c-1.5,1.35-3,2.75-4.42,4.14q-4.41,4.2-8.75,8.59t-8.66,9c-1.43,1.55-2.86,3.11-4.28,4.7s-2.86,3.19-4.22,4.88c-7.19-4-23.7,15.58-30,27.91-6.15,2.32-9.18-5-17,2.09-2.92,9,6,1.31,8.92,3.44a144.73,144.73,0,0,1-13.55,20.79c-2.86,3.63-5.59,7.24-8.26,10.12a32.57,32.57,0,0,1-7.17,6.31,104.66,104.66,0,0,1-9,16.93l-6,9.46-6.46,9.89-6.6,10.09c-2.16,3.39-4.37,6.72-6.27,10.16a159.15,159.15,0,0,0-9.83,19.86,57.86,57.86,0,0,0-7.83,4.9,67.89,67.89,0,0,0-8.24,7.12A159.14,159.14,0,0,0,1047.51,514c3.62,2.82,3.31,8.28,3.53,13.41a279.49,279.49,0,0,1-19.56,35.28c-6.43,10.44-13,19.77-19.57,29.1-12.75,18.83-25.34,37.77-34.69,65.45-1.32,1.55-2.65,3.24-4,5s-2.71,3.75-4,5.85c-2.6,4.17-5.22,8.8-7.86,13.76s-5.3,10.25-8,15.74l-2,4.16c-.63,1.41-1.26,2.84-1.89,4.27l-3.78,8.69c-4.95,6.5-9.9,13.57-14.82,21.11-4.74,7.63-9.37,15.76-13.94,24.27-2.28,4.26-4.57,8.6-6.76,13.06s-4.21,9.05-6.27,13.7-4.08,9.36-6.07,14.13c-1,2.4-2,4.8-3,7.21s-1.84,4.89-2.75,7.35c-3.57,9.86-7,19.92-10.18,30.06-.83,2.52-1.52,5.1-2.23,7.66l-2.1,7.71q-2.06,7.72-3.94,15.46-.93,3.87-1.85,7.72L871,888c-.25,1.29-.51,2.59-.77,3.88q-1.51,7.76-2.85,15.45c-1.75,10.26-3.45,20.34-4.35,30.35a51.53,51.53,0,0,0-10.65,16.66,100.71,100.71,0,0,0-3.59,10.09c-1,3.51-1.82,7.17-2.61,10.87-1.53,7.4-2.78,15-4.2,22.49-.35,1.87-.71,3.71-1.09,5.54-.2.92-.39,1.83-.59,2.74l-.54,2.71c-.75,3.59-1.59,7.09-2.59,10.43-1.59,5.31-3.28,10.6-5,15.89s-3.6,10.57-5.18,15.92c-3.3,10.67-6.61,21.39-9.54,32.23-5.34,21.76-9.23,44.06-7.3,67.14-.44,5.25,3.41,2.08,3.29,6.68-.5,4.14-1,8.44-1.32,12.9s-.5,9-.68,13.74-.32,9.49-.43,14.35q-.07,3.65-.15,7.33l-.06,3.7V1213c0,20.71.84,42.56,1.62,63.39.55,14.86.32,29.82,1,45.2s2.22,31.14,6.46,47.2c5,18.66,11.24,35.19,18.79,49.34q1.43,2.65,2.88,5.19c1,1.69,2,3.34,3,5,2.07,3.25,4.16,6.32,6.34,9.24s4.52,5.72,6.84,8.33a103.47,103.47,0,0,0,7.28,7.37c6,15,17.23,29.34,29,43.18l4.38,5.2,4.46,5.19c1.47,1.73,2.89,3.47,4.32,5.21s2.91,3.48,4.31,5.24,2.75,3.54,4.08,5.33,2.7,3.59,4,5.42,2.49,3.7,3.66,5.59,2.38,3.79,3.48,5.75c2.79,2.08,4.67,2.2,6.86,3s4.82,2.24,9.09,6.92c.8.77,1.47,1.47,2.05,2.1s1.09,1.19,1.5,1.71a15.09,15.09,0,0,1,1.76,2.73,27.69,27.69,0,0,0,2.51,4.87c3-3.79-1.06-6.14,5.33-5.6-2.44-1.94-4.69-3.78-6.81-5.55s-4-3.54-5.83-5.2l-5.22-4.85-4.75-4.67-9.38-9.11c-1.62-1.55-3.3-3.13-5.1-4.76s-3.59-3.36-5.58-5.15a74.75,74.75,0,0,1-3.58-6.79,50.77,50.77,0,0,0-5.22-8.46,326.34,326.34,0,0,1-23.36-28.85l-2.82-3.91-2.69-4c-1.79-2.67-3.63-5.39-5.37-8.14s-3.43-5.53-5.14-8.37-3.28-5.69-4.92-8.6a330.61,330.61,0,0,1-17.46-36.46,347.05,347.05,0,0,1-13.18-39.13,279.53,279.53,0,0,1-7.38-38.53c-1.58-12.62-2.48-24.9-3.1-36.45s-1.11-22.52-1.82-32.54c-.4-5.06-.78-9.81-1.4-14.41s-1.31-8.91-2.21-13c.68-7.66,5.25-4.35,6.71-9.85-2-8.82-1.09-16.4.12-24.53s2.8-16.58,2.67-26.43c.1-13.81-5.13-26-4-41.79.74-8,1.82-15.13,3.09-22,.63-3.43,1.32-6.78,2-10.1s1.4-6.62,2.29-9.94c1.69-6.63,3.44-13.4,5.11-20.79s3.16-15.41,4.92-24.43c5.59-6.71,8.65-19.16,11.44-30,3-10.82,5.8-20.05,10.17-20.25,1.45,3.88-1,9-3.41,14.46s-4.61,11.24-2.83,16.22c1.21-2.94,2.36-6.12,3.62-8.77s2.76-4.75,4.43-5.58c.12,2.06.28,4.05.5,6s.55,3.81.88,5.64c.67,3.65,1.46,7.09,2.33,10.41,1.73,6.64,3.77,12.79,5.66,19.14.47,1.59.94,3.19,1.39,4.81l1.35,5c.91,3.38,1.73,6.89,2.41,10.63a129.23,129.23,0,0,1,2,25.76c-1.35,8.13-2.22,15.76-2.9,22.91s-1.11,13.83-1.17,20.11a230.29,230.29,0,0,0,2.41,33.43c-.26,1.63-.55,3.28-.77,4.94s-.42,3.33-.63,5q-.6,5-1.22,10.22c-.78,6.89-1.53,13.94-2.24,21.11-1.3,14.61-2,30.15-2.12,46.21-.17,32.13,2.37,66.85,9.81,102.49a382.45,382.45,0,0,0,15.31,53.63,321.41,321.41,0,0,0,24.57,52,282.71,282.71,0,0,0,34,46.18,255.54,255.54,0,0,0,40.95,36.07,177.44,177.44,0,0,0,39.72,30.18,198.85,198.85,0,0,0,50.65,19.25c9.87,7.51,25.07,13.37,42.67,16.46s37.5,3.67,56.93,1.89c9.73-.77,19.33-2.24,28.6-3.81,4.62-.9,9.18-1.66,13.59-2.67l6.56-1.4,6.35-1.49c16.71-3.89,31.17-7.89,42.39-9.25a27.44,27.44,0,0,1,3.22-3.54,50.41,50.41,0,0,1,4.13-3.58q2.28-1.77,4.94-3.51c1.75-1.2,3.62-2.4,5.57-3.59,4-2.34,8-4.76,12.4-7,2.15-1.18,4.34-2.38,6.58-3.54l3.37-1.73,3.36-1.77c9.06-4.6,18.11-9.23,26.18-13.13,4-2,7.82-3.73,11.16-5.28s6.41-2.74,8.85-3.64c.2-5.85,6.56-12.62,14.4-19.62s17.42-14.11,24.58-19.81c1.46,1.22-7.67,14.1,2.83,2.64,2.64-2.51,3.5-4.19,4-5.6a20.24,20.24,0,0,1,1.47-4.29c6.5-3.08,13.63-8.48,18.72-8.34,9.2-10.3,8-13.88,16.43-24.53.07,4.51,1,8.38-3.25,15.82a76.53,76.53,0,0,1-7.16,10,47.6,47.6,0,0,1-5.92,5.7c-1.84,1.46-3.61,2.59-5.39,3.84a65.78,65.78,0,0,0-5.66,4.35c2.72,1.78,7.85-2.79,1.37,6.23-2.36-.4-4.4.64-6.46,2.38a51.39,51.39,0,0,0-6.1,6.87,66.63,66.63,0,0,1-6.81,7.48,16.06,16.06,0,0,1-8.22,4.11,68.94,68.94,0,0,0,6.22-6.93,14.5,14.5,0,0,0,2.79-5.46l-3.66,4.3c-1.25,1.46-2.58,2.9-3.89,4.38s-2.67,2.94-4,4.42l-4.11,4.36c-5.46,5.78-11,11.25-15.78,15.84,3.18-2.58,8-5.65,3.82-1.39,3.66-2.27,7.12-4.7,10.63-7.11s6.84-5,10.22-7.49c6.62-5.15,13.06-10.47,19.14-16a321.73,321.73,0,0,0,33.4-35.37,349.29,349.29,0,0,0,48.39-80.23,374.18,374.18,0,0,0,15.83-43.55,396.72,396.72,0,0,0,10.64-45.76,364.73,364.73,0,0,0,5-49.69,313.4,313.4,0,0,0-2.9-54.47,43,43,0,0,0,1-7.81c.09-1.49,0-3.11,0-4.79s-.17-3.41-.31-5.24-.29-3.7-.53-5.63-.55-3.89-.86-5.88-.64-4-1-6-.79-4-1.18-6l-2-5.46-1-2.67-1.06-2.59c-1.4-3.43-2.77-6.74-4.12-9.9-3.81-8-7.28-15.45-11.25-21.82-1.92-3.21-3.8-6.25-5.69-9s-3.84-5.1-5.71-7.32a63.69,63.69,0,0,0-5.59-6,48.87,48.87,0,0,0-5.57-4.32,29.61,29.61,0,0,0-5.48-2.89,17.89,17.89,0,0,0-5.46-1.3c.77,1,1.51,2.17,2.25,3.28s1.47,2.22,2.2,3.33l4.32,6.58c2.8,4.5,5.48,9.13,8.18,13.73,2.62,4.76,5.13,9.74,7.67,14.75,2.39,5.1,4.66,10.37,7,15.81q2,5.28,4,10.83c1.3,3.72,2.44,7.59,3.65,11.54.62,2,1.12,4,1.65,6.08s1,4.15,1.57,6.28,1,4.28,1.39,6.46.85,4.37,1.28,6.61a264.52,264.52,0,0,1,3.45,59.59c-2.1,7.88-4.66,14.63-7.75,19.59s-6.58,8.23-10.48,9.31c.57-10.08,1-20.45,1.37-31.05q.09-4,.19-8c0-2.7,0-5.41,0-8.12s-.06-5.47-.13-8.22-.08-5.49-.29-8.3l-.5-8.39c-.21-2.81-.52-5.65-.79-8.48l-.44-4.25-.6-4.28c-.43-2.86-.78-5.75-1.32-8.63a227.55,227.55,0,0,0-8.72-34c-1.66-4.44-3.39-8.85-5.19-13.19-.43-1.09-.93-2.15-1.44-3.21s-1-2.11-1.52-3.16q-1.53-3.15-3.12-6.25c-.53-1-1-2.07-1.61-3.06s-1.13-1.94-1.7-2.9q-1.71-2.89-3.47-5.72a126.72,126.72,0,0,0-7.39-10.69c-1.26-1.69-2.43-3.07-3.53-4.29s-2.19-2.17-3.23-3.17a54,54,0,0,1-6.43-7c-1.8-2.35-3.59-4.44-5.3-6.58s-3.36-4.2-5-6.1l-4.73-5.53-2.25-2.66c-.74-.89-1.47-1.74-2.2-2.53l-8.22-9.34c-2.61-2.85-5.09-5.6-7.49-8.3-9.59-10.47-17.84-19.39-27.61-28.66-9.44-8.9-19.14-17.09-28.7-24.83l-7.15-5.72-7.12-5.6c-4.79-3.74-9.6-7.46-14.49-11.19-19.5-14.92-39.66-29.82-59.23-44.89-4.28-3.32-7.86-7.74-11.93-11.65s-8.74-7.26-15.23-8.36c10.49,8.94,21.5,18,31.88,26s20.23,15,28.54,19.72c9.57,9.88,23.21,22.14,37.33,34.33,3.54,3.06,7,6.05,10.7,9.13l10.92,9.18c3.7,3.1,7.33,6.14,10.83,9.09s7,6,10.33,8.78c8.44,9.65,16.86,18.91,25.27,28.2l6.29,7.09c1,1.18,2.1,2.3,3.14,3.52l3.13,3.64,3.14,3.6,1.57,1.8,1.55,1.87,6.22,7.51c2.07,2.51,4.09,5.22,6.14,7.82l3.08,4,3,4.17,3,4.19c1,1.42,2,2.76,3,4.28l5.81,9c1,1.48,1.89,3.09,2.82,4.69s1.83,3.21,2.76,4.82,1.82,3.26,2.75,4.9,1.71,3.45,2.58,5.19l2.57,5.27c.42.89.85,1.77,1.27,2.66s.77,1.82,1.15,2.74q2.29,5.49,4.53,11.16a213.07,213.07,0,0,1,9.59,36.26,207.58,207.58,0,0,1,2.92,39.47c-3.26,2.67-4.69,6.8-5.3,12.34-.35,2.75-.62,5.81-.84,9.2-.1,1.7-.27,3.44-.46,5.25s-.4,3.7-.66,5.65a5.9,5.9,0,0,0-5,1,13.69,13.69,0,0,0-4,5.1,34.5,34.5,0,0,0-1.63,3.86c-.52,1.41-1.05,2.93-1.54,4.57s-.95,3.39-1.39,5.24-1,3.77-1.4,5.79c.18,4.7,1.71,3.54,3.17,2.3s2.82-2.54,2.62,2.13c-1,2.27-2.07,4.47-3.13,6.51a37.75,37.75,0,0,1-3.36,5.48c-2.36,3.14-4.87,5.18-7.69,5.23.95-4.2,1.93-8.69,2.78-12.71.45-2,.92-3.85,1.44-5.44a17.14,17.14,0,0,1,1.63-3.94c-1.64.49-3,2.1-4.35,4.16s-2.6,4.6-3.87,7c-2.61,4.82-5.37,9.1-8.92,8.19a235.28,235.28,0,0,0,2.18-69.79,248.94,248.94,0,0,0-6.32-33.77,253.44,253.44,0,0,0-10.93-32.7q-2.13-4.72-4.19-9.5c-.64-1.61-1.5-3.13-2.24-4.7s-1.53-3.14-2.29-4.71l-1.14-2.38L1428,1156l-2.46-4.63-1.22-2.34-.61-1.18-.65-1.13-2.61-4.59a54.4,54.4,0,0,1-.59-6.23c-.13-2-.18-3.85-.29-5.8a52.33,52.33,0,0,0-.66-6.09,32.34,32.34,0,0,0-2-6.7c-4.21-1-3.26,3.57-1.82,9,.67,2.76,1.48,5.75,1.91,8.37a18.9,18.9,0,0,1,.31,3.58,5.88,5.88,0,0,1-.68,2.69l-1.24-1.24-1.3-1.24c-.88-.84-1.76-1.71-2.65-2.61l-2.69-2.76c-.89-.94-1.79-1.91-2.75-2.83-1.9-1.87-3.81-3.8-5.73-5.75-.94-1-1.94-1.92-2.94-2.85l-3-2.8-3-2.76c-1-.9-2-1.74-3-2.59-2-1.69-4-3.31-6-4.82a69.39,69.39,0,0,0-11.32-7c-.57-1.86,0-3.34-.25-5.08a6.62,6.62,0,0,0-1.11-2.89,15.43,15.43,0,0,0-3.66-3.73,264.24,264.24,0,0,0-28.44-24.91c-9.26-7.08-18.23-13.18-27-18.88-17.51-11.43-34.41-21.33-51.93-32.72-26.63-17.24-51-35-77.44-51.51a459.63,459.63,0,0,0-41.63-23.42,305.71,305.71,0,0,0-47.46-18.73c-3.94-2.52,2.86-5.71-6.33-7.8a268.76,268.76,0,0,0-33.15-10.78c-11.82-3.09-24-5.74-35.75-8.14-2.93-.59-5.83-1.12-8.67-1.74s-5.66-1.17-8.4-1.74-5.43-1.25-8.05-1.82-5.15-1.23-7.61-1.92c-9.83-2.58-18.31-5.83-24.58-10.32-2.39.22-4.56.33-6.55.39s-3.8.1-5.47,0-3.23-.18-4.69-.34-2.82-.3-4.13-.51c-2.64-.38-5.1-1-7.67-1.31a65.23,65.23,0,0,0-8.49-.72c-2.77.89-5.47,1.81-8.36,2.67s-5.91,1.79-9.37,2.55c-1.85-1-4.46-1.22-7.58-1-1.56.09-3.25.28-5,.56s-3.64.69-5.56,1.12c-7.72,1.68-16.26,4.43-23.82,5.9-8.4,1.72-16.29,2.11-24.26,2.67-4,.27-8,.54-12.08,1.06-2,.26-4.12.54-6.21.92s-4.2.85-6.36,1.39c-15,3.85-24.86,8.28-32.49,12.57s-12.94,8.6-18.64,12.76c-7.06,5.11-16.06,10.75-24,16.67S724.08,945,721.32,951.18c5.35-.48,11-1.2,15.8-1,7.28-6.44,14.76-14.25,23.58-21.72s19-14.57,31.38-19.44c7.8-3.08,14.94-3.63,21.94-4.5a77.77,77.77,0,0,0,10.56-1.87,46.81,46.81,0,0,0,11.08-4.35l1.21,3.67A194.19,194.19,0,0,1,896,888.69a230.51,230.51,0,0,1,51.86,3c16.49,2.67,32.45,6.39,49.2,10.5s34.41,8.28,54.87,12.75c4.88,2.75,9.51,5.84,14,8.79,4.42,3.16,8.68,6.16,12.65,9.47,2,1.63,3.93,3.22,5.8,4.88s3.67,3.35,5.42,5c.87.83,1.74,1.66,2.58,2.51l2.46,2.58c1.61,1.72,3.17,3.44,4.65,5.16-12.62-6.24-22-7.9-31.08-9.39-2.29-.33-4.56-.65-6.88-1s-4.69-.68-7.16-1.15c-1.24-.22-2.5-.47-3.8-.75s-2.63-.52-4-.84-2.79-.65-4.26-1l-2.24-.61-2.33-.61c-17.21.73-34.85.39-53.06.73-9.11.17-18.4.38-27.87.94s-19.12,1.35-28.87,2.5a371.36,371.36,0,0,0-58.84,11.6,293.91,293.91,0,0,0-55.4,21.77A253,253,0,0,0,774.49,991a399.06,399.06,0,0,0-35.77,20.13c-11.59,7.23-23,14.95-34.41,22.72L687,1045.66q-4.37,3-8.82,5.93c-2.94,2-5.91,4-8.93,6-2.71-.42-6.18.22-10,1.68a99.25,99.25,0,0,0-12.7,6.14c-9,5.09-18.69,11.55-27.15,16.26-2.06,1.94-1.27,3.38-1.12,4.93s-.32,3.18-4.8,5.64a103.54,103.54,0,0,1-11.83,7.12,73.13,73.13,0,0,1-10.32,4.5,87.9,87.9,0,0,1-17.89,4l-8.32,1c-2.75.36-5.48.83-8.29,1.47a55.26,55.26,0,0,0-17.94,7.46c-2.32,1.46-5,4.17-7.72,7.09a107.15,107.15,0,0,1-8.3,8.52c-8,6.69-24.59,18.46-30.29,24.71-2.62,2.77-5,5.7-7.37,8.64s-4.64,5.94-6.86,9-4.28,6.17-6.39,9.27l-3.16,4.67c-1.05,1.56-2,3.17-3.07,4.75-2,3.18-4.1,6.36-6.21,9.52s-4.14,6.43-6.33,9.61c-4.42,6.34-8.85,12.84-14,19.15a648.24,648.24,0,0,0-42.51,59.74,525.27,525.27,0,0,0-35.81,67.45q-2.2,3.29-4.34,6.9-2,3.66-3.89,7.61c-1.27,2.63-2.54,5.35-3.76,8.14s-2.23,5.74-3.32,8.71q-.79,2.24-1.62,4.5c-.53,1.52-1.1,3-1.54,4.61q-1.42,4.68-2.8,9.52c-1.94,6.46-3.49,13-4.78,19.45-2.55,13-3.67,25.91-2.37,37.33A67.64,67.64,0,0,0,343.19,1497a134.6,134.6,0,0,0,25.95,13.48,126.49,126.49,0,0,0,34.42,7.91c3.06.25,6.13.43,9.19.43,1.54,0,3,0,4.59-.06l4.67-.28c1.55-.11,3.09-.2,4.62-.33l4.54-.63,4.46-.68c1.47-.27,2.91-.63,4.34-1,11.44-2.66,21.59-7,29-13.27,3.11-1.06,3.93-.09,4.94.8s2.17,1.6,5.87-.24c9.32-6.66,19.49-12.22,28.22-18.52,2.15-1.62,4.27-3.13,6.19-4.83s3.7-3.41,5.32-5.16a38.22,38.22,0,0,0,4.16-5.57,24.66,24.66,0,0,0,2.76-6,37,37,0,0,1,5.9-4.12,21.7,21.7,0,0,1,4.76-2.17,237.53,237.53,0,0,0,28.73-41.59c4-7.49,7.93-15,11.37-22.91,1.83-3.85,3.37-7.89,5.08-11.81.78-2,1.56-4,2.34-6l1.19-3c.36-1,.73-2,1.09-3,3.05-8.06,5.67-16.34,8.22-24.66l1.87-6.26c.55-2.12,1.12-4.22,1.72-6.33s1.09-4.24,1.66-6.36l.84-3.19c.29-1.06.5-2.14.76-3.21q.76-3.23,1.55-6.49t1.54-6.82c.53-2.28,1-4.61,1.49-6.92s1-4.67,1.46-7c1.93-9.43,3.87-19.14,5.62-29.27a367.75,367.75,0,0,0,21.81-38.86,244.23,244.23,0,0,0,16.51-45c6.45-13.9,12.82-27.74,17-44.26s6.08-35.76,2.62-60A192.84,192.84,0,0,0,652.73,1042a204,204,0,0,0-21.29-24.51c-3.61-3.56-7.26-6.86-10.82-10s-7.1-6-10.65-8.68c-7.06-5.38-13.72-10.11-19.73-14.44a43.71,43.71,0,0,0-7.47-9.42,38.63,38.63,0,0,0-7.42-5.65,50.57,50.57,0,0,0-12.25-4.82c-1.5-2.15-3.14-4.2-4.7-6.25l-4.66-6.07-9-11.84c-6.19-7.6-12-15.08-17.93-22.53-3.05-3.66-6.07-7.33-9.08-11.05l-4.51-5.61c-1.5-1.89-3-3.8-4.59-5.65-3.15-3.74-6.31-7.54-9.5-11.45s-6.35-7.93-9.82-11.91-6.63-8-9.65-12c-1.53-2-2.93-4-4.44-6s-3-3.89-4.36-5.84c-2.82-3.9-5.48-7.8-8-11.71-.63-1-1.25-2-1.88-2.93s-1.28-1.91-1.91-2.87q-1.9-2.87-3.73-5.73c-4.89-7.62-9.23-15.42-13.84-22.86-2.25-3.77-4.45-7.55-6.64-11.34-1.1-1.89-2.15-3.82-3.28-5.68s-2.27-3.71-3.41-5.56l-6.86-11.16-3.49-5.6c-1.16-1.88-2.44-3.65-3.68-5.48-2.5-3.63-5.05-7.26-7.69-10.89s-5.28-7.33-8.25-10.79-5.95-7-9.11-10.48-6.36-7-9.95-10.28-7.22-6.6-11.08-9.85q-2.9-2.45-5.91-4.86c-2-1.6-4.18-3.07-6.33-4.6-2.08-3.26-2.08-6-6.26-9.78-2.24.8-4.78-.39-7.51-2.52-.68-.53-1.38-1.12-2.08-1.75s-1.46-1.26-2.21-1.93l-4.57-4.21c-6.19-5.67-12.72-10.89-18.21-7.11a67.73,67.73,0,0,0,7.54,12.52c1.63,2.23,3.44,4.5,5.39,6.79s4.06,4.57,6.16,7a186.31,186.31,0,0,0,13.87,14l7.39,6.59c2.46,2.15,5,4.19,7.46,6.11a16.89,16.89,0,0,0,3.34,7.52,31.08,31.08,0,0,0,2.91,3.36c1.07,1.09,2.18,2.23,3.39,3.33,4.77,4.44,10.53,8.86,15.1,14.29a50.94,50.94,0,0,1,3.92,5.35c1.2,1.84,2.33,3.71,3.4,5.59,2.15,3.77,4.05,7.6,5.87,11.35s3.49,7.51,5.21,11.09a83,83,0,0,0,5.59,10c2.35,3.55,7.36,5.23,8.2,6.64,3.28,4.94,5.52,10.08,8.17,15.43,1.31,2.69,2.79,5.38,4.44,8.22a69.85,69.85,0,0,0,5.91,8.8c21.12,26.88,29.12,33.86,49.25,57.27l7.46,9c2.49,3,5,6,7.35,9.09,4.75,6.14,9.5,12.21,14.23,18.14,4.5,6.07,9,12,13.51,17.63,1.11,1.42,2.27,2.8,3.35,4.21l3.2,4.19q3.21,4.14,6.42,8t6.43,7.53c2.11,2.43,4.1,4.83,6.17,7.09A142.79,142.79,0,0,0,568,986.79c2.11,1.77,4.08,3.47,6.09,5a70.15,70.15,0,0,0,6.05,4.2,47.62,47.62,0,0,0,12.3,5.48c5,11.1,12.13,16.63,20,21.52,3.86,2.46,7.9,4.75,11.77,7.51a47.86,47.86,0,0,1,10.73,10.29A214.37,214.37,0,0,0,646,1063.88a61.2,61.2,0,0,1,3.84,8.69,128.58,128.58,0,0,1,4.25,15.18,265.12,265.12,0,0,1-13.1,43c-5.27,13.43-11.21,26.16-17.32,38.79-5.82,11.9-11.91,24.33-18.64,38.07-6.25,12.92-12.45,26.23-18.57,40.34,0,13.8-1.8,26.91-8.41,33.4-1-7.78-1.43-16.19-1.69-25.29s-.49-19-.75-29.3c-.59-20.78-2-44.19-5.78-68.38a352.18,352.18,0,0,0-18.63-71.45,241.94,241.94,0,0,0-14.7-31.64c-2.75-4.85-5.56-9.48-8.55-13.81l-2.23-3.21c-.78-1-1.58-2.09-2.37-3.11-1.58-2-3.18-4-4.79-5.89a17.36,17.36,0,0,0,.05,7.29,34.85,34.85,0,0,0,2.43,6.86c1,2.24,2.29,4.45,3.48,6.7s2.37,4.52,3.32,6.84c20.53,51.13,34.5,109.32,36.32,166.7.23,8.52.86,16.81,1.49,25.11s1.09,16.55,1.17,24.92c0,2.08,0,4.21-.05,6.29s-.18,4.19-.27,6.3l-.6,6.31c-.19,2.13-.58,4.2-.9,6.33-.17,1-.33,2.17-.54,3.12s-.43,1.93-.64,2.89-.45,1.94-.68,2.92-.57,1.94-.86,2.91a80.82,80.82,0,0,1-4.53,11.62c-4.41,9-9.79,16.29-15.53,23.59s-11.89,14.61-18.68,23.53c-2.09-.67-4.52,3.74-6.3-.47-.45.66-.9,1.33-1.4,1.93s-1,1.19-1.55,1.76a41.81,41.81,0,0,1-3.32,3.21,45.76,45.76,0,0,1-7.54,5c-1.33.7-2.65,1.39-4,2s-2.75,1.11-4.1,1.65l-2,.79-2.06.67c-1.36.44-2.7.88-4,1.34s-2.65.78-3.92,1.21-2.49.91-3.74,1.27a54.6,54.6,0,0,0-6.85,2.89,27.85,27.85,0,0,0-3,1.87,18.51,18.51,0,0,0-2.78,2.18c-.44.41-.86.88-1.28,1.32s-.83.89-1.23,1.38a22,22,0,0,0-2.23,3.34C461.69,1400.1,464.79,1398.51,461,1397.59Zm975.38-1077c-2.87,2-3.77-.21-1.62-2-1.3-.89-4.58,2.39-7.22,4.32-1.13-2.52,7.19-7.55,6.12-10.11-4.85,1.12-10.45,3.75-16.2,6.73,4.38-7,10.77-9.55,15.19-8.89S1439.62,315.08,1436.41,320.56ZM1278,415.48c-2.72-1.58-3.19-4.7-2.24-8.59s3.48-8.39,6.52-12.94a126.43,126.43,0,0,1,9.93-12.82c1.65-1.87,3.21-3.54,4.59-4.92a35.31,35.31,0,0,1,3.52-3.08c7.38-5.48,22.35-11.93,18.47-2-1.08,2.75-3.71,5.85-7.18,9.21-1.73,1.69-3.72,3.4-5.74,5.24l-6.31,5.69c-4.33,3.88-8.79,7.92-12.64,12S1279.77,411.39,1278,415.48Zm-39.08,71.46c2.9,1.16,3.58,3.46,3.27,6.25-3.59,2.11-7.49,5.55-11.57,9.57-2,2-4.14,4.14-6.2,6.37l-6.16,6.81a133.7,133.7,0,0,1-12.34,12.24c-4.05,3.4-8.07,5.82-11.71,6.66,2.08-2.7,4.17-5,6.08-7.16s3.73-4.1,5.47-5.93c3.48-3.65,6.67-6.8,9.91-10L1226,501.24C1229.79,497.33,1234,492.76,1238.91,486.94Zm-71.11,60.75c4.1.29-1.15,6.13.93,7.63-2.18.79-4.5,3-6.79,4.88s-4.56,3.57-6.51,3.39a30.48,30.48,0,0,1,6.15-8.38A34.44,34.44,0,0,0,1167.8,547.69Zm20.61,24.5-16,18.74c-2.72,3.23-5.51,6.48-8.21,9.85s-5.3,6.86-8,10.37-5.28,7.07-7.89,10.69-5.24,7.28-7.62,11.11c-4.86,7.6-9.56,15.44-14,23.5a110.61,110.61,0,0,0-5.13,10.64c-1.55,3.61-3,7.24-4.37,10.86s-2.69,7.24-4,10.82l-1.9,5.34c-.61,1.78-1.16,3.57-1.75,5.34-2.31,7.06-4.66,13.87-7.35,20.21-1.35,3.18-2.78,6.23-4.34,9.16a75.65,75.65,0,0,1-4.86,8.44c.64-3.57,1.43-7.37,2.5-11.23s2.36-7.84,3.71-11.9,2.8-8.2,4.29-12.38l2.24-6.27,1.12-3.14,1.21-3.09c6.42-16.48,12.15-32.74,13.94-45.3,4.1-5.7,8.56-11.58,13.05-17.51s9.31-11.7,13.64-17.52c2.18-2.9,4.28-5.78,6.25-8.64q1.49-2.14,2.86-4.26c.93-1.41,1.88-2.77,2.75-4.14a81.71,81.71,0,0,0,8.23-15.85C1175,577.34,1183,566.88,1188.41,572.19Zm-37.76-1.39,3.24,2.14c-1.4,2.64-3.09,5.82-4.93,9-.92,1.62-1.88,3.25-2.87,4.83s-1.91,3.16-2.89,4.61c-3.88,5.82-7.92,9.92-11.19,8.43a71.77,71.77,0,0,1,7.54-15.43C1142.38,580.3,1145.82,576.47,1150.65,570.8Zm-23.44,29.45a4.84,4.84,0,0,0,2.86,5.18C1124,616.59,1118.88,610.23,1127.21,600.25Zm-23.49-11.08c-5.67.88-8.15,11.9-11.82,16.93-7.31,9.64-15.77,13.15-21.57,21.61-5.21,7.85-7,14.37-9,21.42-1,3.54-2.13,7.22-3.74,11.32a119.8,119.8,0,0,1-6.56,13.92c-3.33,6.81,2.11,6.43,1.71,10.83-20.81,51.68-38.63,101.52-56.76,153.35-2.4,6.44-4.48,13-6.74,19.58s-4.54,13.16-6.9,19.79c-1.22,3.3-2.24,6.68-3.38,10s-2.26,6.74-3.39,10.13q-3.49,10.14-7,20.47c-9.06,27.69-19,56.37-28.58,87.08-2.9-2-4.27-5.68-5-10.16a120,120,0,0,1-1-14.67c-.4-9.9-1.83-18.87-11.75-18.87,2.85-17.57,7.25-33.63,11.52-48.93q.83-2.87,1.63-5.7c.55-1.89,1.18-3.74,1.76-5.59q1.8-5.55,3.57-11l7-21.37c2.44-7,4.8-13.85,7-20.74q1.65-5.17,3.2-10.34l1.5-5.19,1.57-5.17c2.05-6.89,3.91-13.86,5.51-21q1.22-5.34,2.22-10.82c.71-3.64,1.44-7.28,2.06-11,3.83-9.55,7.82-18.54,12-27.31,4.41-8.68,9-17.17,13.62-25.83l3.52-6.54c1.16-2.2,2.47-4.36,3.7-6.57q3.76-6.61,7.61-13.56t7.76-14.4c2.7-4.93,5.51-10,8.3-15.34C1050.13,631.58,1076.28,589.56,1103.72,589.17ZM974.93,757.5c-3.41,9.3-7,6.58-10.48,12.08a115.15,115.15,0,0,1-10.29,21.51c-3.32,5.66-6.68,10.43-10,16.31-7.06,14.41-13.34,38-19.84,60-3.06,11.1-6.26,21.82-9.71,30.9s-6.75,16.66-10.76,21.26a41.75,41.75,0,0,0,3.25-13c.41-4.24.26-8.42.34-12.59.08-8.35.31-16.89,5-26.25a109.44,109.44,0,0,1-3.25-24.15,128.88,128.88,0,0,1,2.1-26.35,195.74,195.74,0,0,1,9.15-30.85q1.6-4.25,3.46-8.73t4.19-9.12q4.47-9.36,10-19.8a71.24,71.24,0,0,1,5.49-8.64c2.09-2.78,4.31-5.51,6.54-8.23,4.45-5.43,8.9-10.81,12.25-16.5,1.57-2.65,3-5.37,4.4-8.07s2.79-5.39,4.09-8.08c2.59-5.37,5-10.65,7.28-15.53,1.17-2.44,2.32-4.79,3.49-7a57,57,0,0,1,3.65-6.11,30.35,30.35,0,0,1,8.3-8.61c3,3.8,3.06,10.06,1.57,17.75s-4.36,16.88-7.67,26.32c-.83,2.35-1.67,4.73-2.52,7.11l-1.26,3.57c-.39,1.2-.78,2.4-1.16,3.6-1.54,4.78-3,9.48-4.24,14C975.88,743.3,974.25,751.39,974.93,757.5Zm115.71-12.08c.3,3.67-.69,6.19-2.17,9.2-.73,1.51-1.6,3.14-2.48,5.1-.44,1-.9,2-1.32,3.21s-.8,2.46-1.18,3.89C1078.24,763.4,1087.44,751.53,1090.64,745.42Zm-104,400.71c-.72,9.29-1.18,18.53-1.56,27.78l-.27,6.93q0,3.48,0,7,0,7-.1,14c0,4.68-.12,9.39-.24,14.12s-.1,9.41-.15,14.18c-.13,9.51-.35,19.17-.74,29.09-.65,18.37-2.35,32.55-2.81,48a180.69,180.69,0,0,0,.78,24.65,158.65,158.65,0,0,0,5.89,29.71,57.35,57.35,0,0,0,3.54,8.79c.7,1.36,1.43,2.7,2.18,4l1.15,2,1.25,2,5.44,9,3,5.31c.53.94,1.06,1.92,1.6,2.94l.81,1.56.88,1.58c5.12,9.71,9.39,19.47,14.72,27.7s11.6,14.84,19.83,17.35c.8,1.21,1.72,2.32,2.58,3.48s1.73,2.32,2.6,3.47l2.74,3.32c.92,1.09,1.8,2.27,2.77,3.27,1.9,2.06,3.75,4.18,5.81,6,1,1,2,1.91,3,2.83s2.13,1.75,3.2,2.6l1.6,1.27c.55.41,1.12.78,1.67,1.16,1.12.77,2.25,1.51,3.38,2.22s2.33,1.32,3.49,2,2.35,1.21,3.56,1.72a45.46,45.46,0,0,0,15,3.67c-4.83,3.36-14.93,3.88-26.56,1.78-1.45-.26-2.89-.59-4.38-.92s-3-.66-4.5-1.1l-4.5-1.32c-.75-.23-1.52-.45-2.26-.7l-2.22-.79-4.44-1.59c-1.46-.56-2.87-1.17-4.29-1.75s-2.83-1.13-4.17-1.75l-4-1.8a209.46,209.46,0,0,1-27.47-34.7c-1-1.53-1.92-3.15-2.88-4.71s-1.93-3.13-2.8-4.76c-1.76-3.23-3.58-6.41-5.18-9.72-3.38-6.53-6.28-13.28-9.06-20a290.5,290.5,0,0,1-13-41.83,343.74,343.74,0,0,1-7-42.88,393.75,393.75,0,0,1-1.83-42.92,417.8,417.8,0,0,1,2.7-42.31c.38-3.48.87-7,1.33-10.42s1.1-6.94,1.68-10.39q1.75-10.35,3.78-20.54c.35-1.7.69-3.4,1-5.09s.8-3.37,1.2-5.05c.83-3.37,1.69-6.71,2.57-10q2.65-10,5.61-19.8Zm236.61,342.61c0-2,6.77-2.33,6.15-4.46a61.74,61.74,0,0,0,8.78-1.67c1.39-.39,2.79-.74,4.12-1.22s2.63-1,3.92-1.46,2.52-1.07,3.73-1.66,2.4-1.18,3.57-1.78c2.34-1.33,4.62-2.65,6.77-4.07,8.67-5.72,15.81-12.18,23.07-17.73a30,30,0,0,1,2.71-1.84c.92-.6,1.87-1.17,2.86-1.71s2-1.07,3.06-1.58l3.16-1.65c1.07-.56,2.18-1.1,3.29-1.71s2.21-1.26,3.34-2a52.78,52.78,0,0,0,6.74-4.8c5.92-5,11.08-12.58,15.82-18.75a45.5,45.5,0,0,1,7.11-7.77c2.39-2,4.89-3.08,7.69-2.9,2.31-7.51,8.52-15.7,14.29-24.62s11-18.49,11.84-27.11c1.37.88,2,3.07,2.29,5.71.16,1.33.25,2.77.34,4.21s.11,2.87.22,4.2c.44,5.29,1.77,9,8.54,3.26.54-3.7-.67-6.26-1.89-8.68a36.32,36.32,0,0,1-1.75-3.73,12.5,12.5,0,0,1-.86-4.45c1.69-3.63,3.2-7,4.82-9.83a50.79,50.79,0,0,1,4.66-7.37,17.49,17.49,0,0,1,4.81-4.49,7.9,7.9,0,0,1,5.1-1.19c.3,6-1,14.45-3.82,24a160.05,160.05,0,0,1-12.75,30.43,172.7,172.7,0,0,1-19.18,28.31,112,112,0,0,1-20,19.12,70.67,70.67,0,0,1-18.79,20.53c-7.21,5.45-15.2,9.92-23.93,14.76.51,3,4.51-.11,8-2.48a29.33,29.33,0,0,1-3.28,3.4,41.32,41.32,0,0,1-3.67,2.93q-2,1.3-4,2.44c-.69.37-1.39.74-2.1,1.09s-1.46.64-2.2,1c-1.47.61-3,1.17-4.5,1.7s-3.12.92-4.69,1.33c-3.14.87-6.43,1.4-9.64,2-1.63.27-3.27.48-4.89.72s-3.24.49-4.85.65-3.2.39-4.77.62-3.17.38-4.72.63c-3.1.53-6.2,1-9.18,1.75-1.49.39-3,.73-4.46,1.21s-2.9,1-4.35,1.59C1225.34,1494,1228.14,1487.69,1223.24,1488.74ZM1388,1326.44a28.13,28.13,0,0,1,1.89-3.23c.62-1,1.26-1.84,1.9-2.69a45.11,45.11,0,0,0,3.78-5.35,7.22,7.22,0,0,1,3.05,5.25,23.46,23.46,0,0,1-.84,9.3c-2.45,3.11-4.34,3.45-5.87,2.44S1389.19,1328.8,1388,1326.44Zm-48.36-107.69-.78-2.13c-.52-1-1-2-1.47-3.07-.25-.51-.44-1-.72-1.54l-.87-1.46-.83-1.48a13.24,13.24,0,0,0-.88-1.5c-.71-1-1.4-2.06-2.08-3.11a110.76,110.76,0,0,0-10.67-13l-1.54-1.67c-.51-.55-1.14-1.12-1.7-1.68l-3.42-3.39-3.74-3.43-1.85-1.72-2-1.74-4-3.48-4.28-3.51-2.12-1.76-2.26-1.78-4.47-3.56-31.51-24.67-18.5-14.43-9.39-7.29-9.39-7.19c-25-19-50.11-36.29-73.44-46.83a201.46,201.46,0,0,0-31.32-23,101.21,101.21,0,0,0-18-8.49,43.54,43.54,0,0,0-8-2,30.39,30.39,0,0,0-3.54-.32,18.63,18.63,0,0,0-3.16.26,129.87,129.87,0,0,0-23.22-10.38,154.25,154.25,0,0,0-23.27-5.75c-3.81-.54-7.59-1.16-11.29-1.45l-2.76-.27c-.92-.1-1.84-.18-2.75-.21l-5.4-.32c-7.14-.25-14-.38-20.5-.23a102.66,102.66,0,0,0-26.62-2.51,198.69,198.69,0,0,0-28.69,3.16c-9.9,1.76-20.11,4-30.75,6.41s-21.71,4.8-33.43,7c-10.55,2-20.29-.69-31.61,2.14-9.84,2.46-20.63,9-31.94,12.68-8.16,2.66-16.71,4.54-25.26,6.56a164,164,0,0,0-25.14,7.65c-7.39,3.11-15.82,9.89-23.1,13-4.86,2-9.52.57-14.08,2.22a91.86,91.86,0,0,0-10.67,4.71c-3.54,1.83-7,3.83-10.51,5.74q-2.61,1.44-5.18,2.78c-1.7.9-3.38,1.76-5.05,2.54a47.5,47.5,0,0,1-9.83,3.51c-17.42,13.31-34.18,25.4-51.37,38.53s-34.78,27.32-53.14,45c12.68-20.25,28.9-40.57,25.42-56.79,21.15-16.31,40.78-32.31,64.26-44.83,4.23-2.24,7.85-4,11.26-5.67l5.05-2.5c1.68-.83,3.39-1.67,5.15-2.58,3.55-1.82,7.35-3.94,11.94-6.64s10-6,16.62-10.17c12-7.56,22.26-16.84,33.68-23.3a366.4,366.4,0,0,1,47.58-22c4-1.6,8.07-3.06,12.08-4.58s8-2.94,12-4.33c7.93-2.86,15.76-5.58,23.4-8.37,13-4.73,25.67-10.15,37.9-13.94s24-5.93,34.49-4.38a163.16,163.16,0,0,1,32.39-4.47,274,274,0,0,1,33.23.75c10.9.86,21.6,2.11,32,3.09s20.42,1.8,30.1,1.43c13.76,6.73,28.58,11.55,43.3,16.62s29.21,10.23,41.39,16.72c8.33,11.57,17.91,24.87,30.42,38.26a222.92,222.92,0,0,0,48.73,39.52c16.77,10.11,33,14.88,48.76,18.79,7.85,1.95,15.62,3.75,23.12,5.86a121.39,121.39,0,0,1,21.71,8.08,45.07,45.07,0,0,0,7.85,8.78c1.39,1.19,2.85,2.28,4.31,3.3s2.92,2,4.43,3l4.59,2.83c1.52,1,3.05,2,4.6,3a55.61,55.61,0,0,1,9,7.45c8.46,8.83,15.38,19.72,21.82,31l2.32,4.29,1.21,2.14c.42.71.82,1.43,1.17,2.16.74,1.45,1.5,2.9,2.31,4.35.39.72.84,1.44,1.2,2.17l1.11,2.21c.76,1.46,1.56,2.92,2.42,4.38.71,1.47,1.47,2.95,2.29,4.42.41.74.84,1.47,1.28,2.21l1.18,2.3c.81,1.54,1.68,3.08,2.63,4.64.23.42.48.89.72,1.35a44.82,44.82,0,0,0-6.13.65c-5.42.65-10.15,1.66-14.71,2.41-2.28.38-4.51.71-6.74.92s-4.41.31-6.83.35a9.8,9.8,0,0,0-1.62,3.75c-.31,1.35-.48,2.73-.88,3.95A6.08,6.08,0,0,1,1339.67,1218.75Zm-775-34.59c1.41,2.81.19,6.3,4.12,8.41a27.14,27.14,0,0,0-8.67,5.85,42.84,42.84,0,0,0-6.68,8.42c-3.82,6.15-6.75,12.82-9.28,18.14-6.34,6.79-11.73,13.58-16.87,20.19-2.48,3.36-4.87,6.68-7.23,10l-1.76,2.47-1.67,2.51-3.32,5c-8.76,13.31-17,26.65-26.18,41.27a79,79,0,0,1-8,6.16,93.27,93.27,0,0,0-7.92,5.79c-13.28,20-26.12,39.94-35.52,59.91-.64,1.35-1.34,2.69-1.89,4.08l-1.68,4.16c-1.1,2.79-2.18,5.6-3.23,8.41s-1.81,5.72-2.72,8.57-1.81,5.7-2.5,8.58l-2.26,8.55-.57,2.12-.49,2.12c-.33,1.42-.66,2.82-1,4.22-.65,2.78-1.38,5.61-2.06,8.23q-.79,3.36-1.57,6.65a53,53,0,0,1-3.27,9.89c-.12.26-.28.57-.4.78s-.22.39-.34.59a4.1,4.1,0,0,1-.69.87l-.18.19-.14,0-.31.12,0,0h-.31c-.5,0-.82,0-1.22.07-.77,0-1.54.07-2.32.13-1.55.11-3.1.27-4.66.48l-.59.09-.49,0-.94.1-1.9.24c-1.25.17-2.57.41-3.79.66-1,.14-2,.32-3,.54l-1.5.35-.75.2a5.45,5.45,0,0,1-.6.14c-.73.16-1.47.36-2.21.58s-1.62.55-2,.64a15.28,15.28,0,0,0-1.48.51l-.76.31-.24.1-.19.07-.8.35-.7.35-.08,0s-.11.06-.05,0l.14-.08.35-.23.5-.36c.23-.16.39-.29.62-.48s.58-.46.83-.68a47.27,47.27,0,0,0,5.56-5.74,84.11,84.11,0,0,0,7.45-10.61c.7-1.12,1.33-2.24,1.95-3.39s1.65-3,1.27-2.32l0,.37c0,.13.07.27.11.43a5.28,5.28,0,0,0,1.79,2,18.48,18.48,0,0,0,8.09,3.12,20.47,20.47,0,0,0,4.81.14,15.07,15.07,0,0,0,2.28-.4l.56-.14.72-.2c.47-.14.92-.29,1.37-.44,7.18,3.31,17.32,3.35,28.17,1.64s22.42-5.43,33.69-8a111.19,111.19,0,0,0,22.77-21,261.13,261.13,0,0,0,16.94-23.47c5.26-8,10.45-16,16.45-24.41s12.79-17.1,21.12-26.92c-.62,9.59-6.11,19.71-11.78,28.85s-11.46,17.47-12.41,25.71c-7.43,6.51-12.91,14.1-18,21.52s-9.62,14.66-14.56,19.61a62.07,62.07,0,0,1-7.1,6.24c-1.27,1.06-2.65,1.93-4,2.89s-2.75,1.93-4.18,2.81c-2.86,1.71-5.7,3.62-8.56,5.21-1.41.83-2.8,1.74-4.17,2.58s-2.72,1.63-4,2.49l-2.31,1.57c-.76.48-1.5,1-2.22,1.45-1.46,1-2.86,2-4.26,2.93l-4.25,2.72c-.72.45-1.45.93-2.19,1.38l-2.31,1.24c-1.57.81-3.22,1.7-5,2.47s-3.71,1.44-5.8,2.16a31.2,31.2,0,0,1-3.27.91c-1.14.28-2.32.55-3.56.83-.62.13-1.25.29-1.9.39l-2,.26-4.22.51a34.19,34.19,0,0,1-3.48.21l-3.46.13-1.73.06c-.58,0-1,0-1.56,0-1,0-2-.06-3.05-.08a124.75,124.75,0,0,1-12.5-1.25,34.8,34.8,0,0,1-11.9-4,21.21,21.21,0,0,1-7-6,8.6,8.6,0,0,1-1.21-2.46,3.08,3.08,0,0,1,0-1.54c.21-.71.66-.65.47-.73s-.24,0-.55,0a2.84,2.84,0,0,1-1-.18,1.94,1.94,0,0,1-1-.58c-.14-.14-.31-.22-.36-.44a2,2,0,0,1-.11-.6,12.47,12.47,0,0,1,.9-4l.51-1.33c.19-.45.32-.85.57-1.38.44-1,.82-2,1.36-3.11s1-2.3,1.52-3.46l.8-1.86c.27-.64.53-1.28.78-1.93A67.93,67.93,0,0,0,386,1435a8.7,8.7,0,0,0,.11-2.21c0-1,0-2.17-.09-3.35l0-.88,0-.94c0-.62,0-1.21.08-1.76a10,10,0,0,1,.42-2.59,51.79,51.79,0,0,1,5.42-10,70.82,70.82,0,0,0,6-9.4l1.91-4c.67-1.34,1.36-2.7,2.05-4.06q2-4.11,4-8.39c1.34-2.85,2.86-5.69,4.26-8.62.71-1.46,1.42-2.94,2.13-4.42.36-.74.71-1.49,1.07-2.24l1.15-2.22q2.31-4.47,4.58-9.07l1.14-2.31,1.23-2.29,2.46-4.62,2.44-4.67c.42-.78.81-1.58,1.24-2.35l1.32-2.33,5.25-9.44c14.43-25.18,31.63-50.9,51.21-73.44,1-1.15,2-2.27,3-3.36s2-2.15,3.12-3.17l6.4-6c4.17-4,8.55-7.91,12.38-12.56,2.54-3.13,5-6.7,7.45-10.28,1.23-1.79,2.49-3.58,3.8-5.28a38.64,38.64,0,0,1,4.31-4.7,75.57,75.57,0,0,1,9.77-7.58c3.44-2.2,6.93-4.23,10.33-6.36a105.17,105.17,0,0,0,9.92-6.88A51.67,51.67,0,0,0,564.65,1184.16ZM470,1401.44c3.68-2.1,1.52-3.35,5.27-3.29a2.74,2.74,0,0,1,1,2.69,3.4,3.4,0,0,1-1.64,2.17C472.93,1404,470.69,1403.89,470,1401.44Z"/><path class="b" d="M1049.88,1613.9c-4.32-1.39-7.84-2.06-11.21-2.82s-6.63-1.39-10.43-2.55c-4.13-3.3-9.86-6.38-16.22-9.91l-4.9-2.61-5-2.8-5.13-2.85c-1.71-1-3.4-2-5.09-3-13.51-8.12-25.86-17.73-29.51-26.13a311,311,0,0,0,73,46.29,322.28,322.28,0,0,0,36.93,14.28,340.85,340.85,0,0,0,39.11,10c-2.46.87-7.59.57-13.91-.32-3.16-.51-6.61-1.23-10.16-2.06s-7.19-1.95-10.75-3l-2.65-.84-2.59-.93c-1.71-.62-3.37-1.24-5-1.87-3.19-1.21-6.1-2.52-8.55-3.71s-4.45-2.26-5.83-3.12S1049.84,1614.26,1049.88,1613.9Z"/><path class="b" d="M1152.64,1640.57a57.14,57.14,0,0,0-9-.15,56.22,56.22,0,0,0-6.26.74,58.48,58.48,0,0,1-6.13.77,47.87,47.87,0,0,1-8.56-.5c3.13-1.74,9.43-2,15.58-2.56s12.16-1.37,14.67-3.45c2.66.26,3.63.45,3.68.72s-.84.61-1.89,1C1152.64,1637.89,1149.86,1638.92,1152.64,1640.57Z"/><path class="b" d="M658.71,1483.31c2.92-8.57,11.45-20.91,19.64-34.27s16.06-27.69,18.95-38.53c-1.78,11.48-7.94,24.23-15.38,36.72S665.58,1471.88,658.71,1483.31Z"/></svg>