<svg xmlns="http://www.w3.org/2000/svg" viewBox="0 0 1920 1920"><defs><style>.a{fill:none;}.b{fill-rule:evenodd;}</style></defs><path class="a" d="M331.81,681.13a1753.71,1753.71,0,0,1,353-93.31,1782.87,1782.87,0,0,1,365.13-19c30.45,1.63,60.88,3.77,91.19,7s60.56,6.93,90.62,11.76l11.29,1.74,11.24,1.95,11.25,1.94c3.75.65,7.51,1.25,11.24,2l22.41,4.28c3.85.71,7.24,1.41,10.45,2.08l2.3.49,1.08.23c.39.08.47.1.4.1s0,0,0,0,0,0,0,0l0,0h0a1.32,1.32,0,0,1,0-.26s0-.21,0,.17l0,.74,0,.75v.81l0,3.24-.14,7.77c0,1.31-.08,2.63-.16,4l-.21,3.95a300.44,300.44,0,0,1-3.63,31.9c-.51,2.67-.9,5.35-1.46,8l-1.68,8.06-1.93,8.06c-.67,2.69-1.46,5.38-2.15,8.07q-4.53,16.14-10.76,32.24a386,386,0,0,1-31.44,63,432,432,0,0,1-43.17,58.58c-8,9.22-16.45,18.2-25.26,26.74-4.43,4.25-8.87,8.49-13.45,12.56-1.16,1-2.21,2.07-3.45,3.09l-3.64,3.05-7.24,6.14a572.7,572.7,0,0,1-62.82,45.22l-8.44,5.14c-2.84,1.69-5.56,3.51-8.52,5.08l-17.43,9.79-17.93,9.27-2.25,1.16-2.3,1.09L1039.4,972l-9.2,4.39a825.83,825.83,0,0,1-77.09,31l-10,3.4c-3.33,1.14-6.65,2.3-10.07,3.31l-20.36,6.29L892,1026.29c-6.93,1.88-13.94,3.6-20.9,5.42l-5.23,1.34-5.3,1.22L850,1036.73l-5.29,1.23-2.65.62-2.75.58-11,2.35c-3.6.79-7.51,1.57-11.32,2.34l-11.49,2.34-24,4.73-25,4.94-12.84,2.57-13.17,2.73-6.61,1.38L717,1064l-13.57,3-13.94,3.28c-4.67,1.11-9.25,2.15-14.09,3.43l-14.34,3.7-3.58.93-3.67,1-7.35,2.09-7.34,2.1-3.68,1-1.83.53-1.88.59-15,4.76-7.51,2.43-7.66,2.7-15.3,5.47c-5.15,2-10.36,4.08-15.52,6.14s-10.32,4.09-15.58,6.53l-15.66,7.09-3.9,1.8-3.93,2-7.86,4-7.84,4c-2.6,1.37-5.21,2.65-7.81,4.19q-7.83,4.47-15.59,9l-3.89,2.28-1.94,1.14c-.62.36-1.29.76-2,1.25l-8.62,5.53-4.28,2.8-4.16,2.89-8.29,5.83c-2.73,2-5.36,4-8,6s-5.37,4-7.91,6.15c-5.13,4.2-10.33,8.37-15.22,12.78l-7.4,6.59-7.16,6.78c-4.81,4.5-9.34,9.24-13.91,13.94-2.31,2.34-4.49,4.79-6.7,7.21s-4.41,4.85-6.58,7.31l-6.36,7.52c-2.11,2.51-4.22,5-6.24,7.63-4.07,5.18-8.13,10.35-12,15.76-1.94,2.69-3.89,5.35-5.78,8.08l-5.56,8.3-2.76,4.17-2.66,4.27-5.26,8.59c-1.74,2.86-3.38,5.86-5.05,8.8s-3.34,5.88-4.91,8.94l-4.69,9.16c-.77,1.54-1.56,3-2.29,4.62l-2.21,4.72-4.33,9.48c-1.38,3.24-2.72,6.5-4.05,9.77-2.73,6.45-5.11,13.29-7.51,20-.61,1.67-1.17,3.4-1.72,5.15l-1.64,5.21-1.6,5.23c-.54,1.74-1.06,3.48-1.53,5.29-1.9,7.19-3.85,14.26-5.34,21.75-.78,3.71-1.56,7.38-2.26,11.13s-1.26,7.61-1.84,11.42l-.85,5.73-.67,5.86-.63,6-.6,6.16q-.39,6.23-.68,12.47l-.25,6.24c-.06,2.08,0,4.16,0,6.24q0,6.26.15,12.49c.13,4.16.43,8.31.7,12.46.47,8.32,1.61,16.57,2.7,24.81.26,2.07.65,4.11,1,6.16l1.12,6.14c.8,4.08,1.51,8.18,2.55,12.21s2,8.08,3,12.1l.79,3,.91,3,1.86,6,1.91,5.94c.65,2,1.29,4,2,5.89q2.19,5.83,4.49,11.64c1.48,3.89,3.22,7.66,5,11.44s3.52,7.54,5.3,11.3a336.92,336.92,0,0,0,25.74,42.74l3.64,5.07,1.84,2.52,1.85,2.42,3.63,4.66c1.18,1.48,2.36,3,3.54,4.44q3.54,4.27,7.14,8.5c2.38,2.74,4.77,5.37,7.18,8,9.61,10.47,19.27,19.89,28.8,28.5l7.12,6.3,7,6c1.18,1,2.34,2,3.49,2.88l3.47,2.82c1.15.92,2.33,1.9,3.47,2.78l3.41,2.67c2.28,1.78,4.57,3.57,6.79,5.22s4.51,3.42,6.69,5l6.59,4.81,6.52,4.57A778.09,778.09,0,0,0,683.38,1891.7c20.07,5.9,40.33,11.18,60.79,15.44,5.1,1.15,10.24,2.12,15.38,3.1s10.25,2,15.42,2.82l15.48,2.54,15.53,2.16c5.18.76,10.39,1.27,15.58,1.88s10.4,1.18,15.62,1.59,10.43.93,15.65,1.31l15.69,1c2.61.17,5.23.27,7.85.36l7.86.27,7.86.26,7.88.09,7.87.06,4.29,0c.64,0,1.73,0,2.78,0l3.12-.08,25-.69a826.42,826.42,0,0,0,98.07-10.48c31.81-5.66,62.84-13,90.56-24l19.62-9.21,4.91-2.3c1.59-.8,3.1-1.66,4.65-2.5,3-1.72,6-3.48,9-5.29a236.4,236.4,0,0,0,32.94-24.38,219.48,219.48,0,0,0,28.14-30.21c4.27-5.59,8.33-11.46,12.1-17.56a209.1,209.1,0,0,0,18.41-38.1c1.13-3.2,2.23-6.38,3.2-9.55s1.86-6.35,2.68-9.52,1.47-6.38,2.17-9.56,1.27-6.41,1.8-9.65a79,79,0,0,0,.89-10.15l.59-10.31.58-10.32.29-5.16.14-2.58a14.93,14.93,0,0,0-.18-2.71l-2.35-22.1-1.17-11-.29-2.76c-.15-.94-.43-1.9-.63-2.85l-1.34-5.7-5.33-22.82-1.33-5.7c-.23-1-.43-1.9-.68-2.85l-.87-2.88-3.49-11.51-7-23c-.53-1.92-1.26-3.83-2-5.75l-2.11-5.76-4.22-11.51-4.22-11.51c-1.42-3.84-2.73-7.69-4.46-11.48l-9.81-22.81-4.9-11.41c-.41-1-.82-1.88-1.24-2.72l-1.25-2.6-2.5-5.19-10-20.79-2.5-5.19c-.47-1-.71-1.45-1-2l-.83-1.6-3.33-6.41c-17.74-34.24-36.15-65.88-54-95.69l-26.07-43.3-12.45-20.77-6.09-10.22-5.8-9.88c-15.23-26.17-29-51.51-40.57-75.91s-21-47.86-27.43-69.8a318.85,318.85,0,0,1-7.77-31.74,242.41,242.41,0,0,1-3.57-29.16c-.21-2.35-.16-4.61-.28-6.91s0-4.51-.06-6.77l.11-3.33,0-1.66v-.83c0-.24,0-.4,0-.61.08-.78.13-1.57.17-2.35l0-1.18.15-1.22a122.12,122.12,0,0,1,3.92-20.47,126.8,126.8,0,0,1,18.49-38.72,86.28,86.28,0,0,1,11.58-13.2,48.59,48.59,0,0,1,9.65-7.26,30.2,30.2,0,0,1,5.71-2.47,1.34,1.34,0,0,0,.49,0c.16,0,.29-.2.46-.13a1,1,0,0,0,.45,0c.07,0,.14-.09.22-.08l.23,0a1.22,1.22,0,0,0,.46-.09c.1-.06.1,0,.15,0l.1,0,.1,0a.1.1,0,0,0,0,0s0,0,.06,0a.29.29,0,0,0,.24,0c.08-.08.18,0,.27,0a.56.56,0,0,0,.31,0,.76.76,0,0,0,.38.11.71.71,0,0,0,.2,0c.07,0,.15.07.23.09a1.38,1.38,0,0,0,.5.07c.17,0,.38.16.58.19l.31.05h.16l.17.09a3.12,3.12,0,0,0,.73.24,3,3,0,0,1,.8.31c.28.13.57.17.88.29a6.41,6.41,0,0,0,.95.46l.5.17.51.31a10.64,10.64,0,0,0,1.08.51c.37.19.75.47,1.14.67.79.34,1.57,1,2.42,1.46a9.07,9.07,0,0,1,1.27.88c.43.31.88.56,1.32.88s.87.72,1.32,1l.69.49.66.59c.45.39.91.77,1.38,1.13s.88.86,1.35,1.26l.69.62.36.3.33.35c.44.47.89.93,1.35,1.37a14.05,14.05,0,0,1,1.34,1.43c.44.49.89,1,1.36,1.44s.84,1.05,1.27,1.56a16.19,16.19,0,0,1,1.29,1.56c.8,1.1,1.71,2.12,2.43,3.28.38.57.82,1.1,1.2,1.66s.71,1.17,1.08,1.73l.58.85c.18.29.32.59.49.88.33.59.68,1.17,1,1.74l1.86,3.51c.25.6.53,1.19.82,1.76l.43.87.34.88c.24.58.49,1.15.76,1.72s.39,1.15.61,1.71c.93,2.26,1.42,4.44,2.07,6.5a57.86,57.86,0,0,1,1,5.7l.09.65.07.32a1.89,1.89,0,0,1,0,.42c0,.7.08,1.4.14,2.11l.11,1.05v1.08c0,.71,0,1.43.1,2.15s0,1.46,0,2.19v1.1l0,.56,0,.56c-.13,1.51-.07,3-.28,4.55-.08.77-.12,1.54-.17,2.32s-.23,1.58-.32,2.37l-.13,1.19c0,.4-.14.81-.2,1.22q-.21,1.22-.39,2.43c-.1.82-.34,1.65-.49,2.48s-.27,1.66-.51,2.51c-.46,1.7-.73,3.39-1.29,5.13a133.94,133.94,0,0,1-7.89,21.56,165.1,165.1,0,0,1-12.4,22.3,197,197,0,0,1-16.47,21.62,216,216,0,0,1-19.72,19.61c-3.54,3-7.08,5.95-10.75,8.65-.93.69-1.79,1.37-2.77,2.08l-3.16,2.14q-3.15,2.15-6.27,4.37c-2.15,1.41-4.42,2.72-6.61,4.12l-3.3,2.09c-.56.34-1.08.71-1.67,1l-1.75,1c-4.7,2.54-9.18,5.33-14.2,7.68l-7.33,3.71-7.67,3.46-3.82,1.77c-1.29.58-2.66,1.08-4,1.62l-8,3.27c-1.3.58-2.71,1.06-4.1,1.56l-4.16,1.5-4.16,1.53c-1.38.51-2.75,1-4.21,1.48l-8.62,2.79c-1.45.46-2.85,1-4.33,1.4l-4.45,1.27-8.9,2.59c-3,.8-6.11,1.55-9.16,2.34-6,1.65-12.41,3-18.67,4.38-3.11.76-6.37,1.32-9.58,2l-9.66,1.89-9.87,1.65c-3.28.56-6.56,1.14-9.94,1.58L845.56,1197l-2.51.36-2.56.31-5.13.61c-3.42.4-6.81.86-10.26,1.22l-10.41,1-5.21.52-5.38.45-5.41.46-5.5.41c-3.64.28-7.4.53-11.14.78l-11.38.72c-30.66,1.84-63.72,3-99.13,5s-73.18,4.7-113.26,10.34c-20,2.83-40.63,6.4-61.67,11.07a648.64,648.64,0,0,0-64.18,17.67c-5.41,1.81-10.81,3.61-16.24,5.65l-8.11,3c-2.71,1-5.42,2.13-8.12,3.2l-8.14,3.28-9.13,4c-3,1.36-6.1,2.67-9.06,4.1l-8.83,4.34A461.2,461.2,0,0,0,299,1315.61a475.91,475.91,0,0,0-57.56,49.49,458.29,458.29,0,0,0-49.54,59.18,424.64,424.64,0,0,0-40.11,70.41l-4.22,9.63c-1.34,3.3-2.63,6.64-3.92,10s-2.58,6.63-3.76,10.06-2.32,6.91-3.45,10.38c-2.33,6.84-4.23,14.12-6.15,21.29-.47,1.8-1,3.59-1.4,5.41l-1.23,5.56c-.76,3.51-1.7,7.92-2.51,12a338.78,338.78,0,0,0-4,99.35q.7,6.18,1.51,12.35c.58,4.1,1.38,8.17,2.12,12.24s1.51,8.15,2.43,12.19,2,8,3,12c2,8,4.65,15.87,7.33,23.69l2.05,5.85c.72,1.94,1.47,3.86,2.22,5.79q2.26,5.77,4.62,11.5c.75,1.64,1.46,3.31,2.27,4.92l2.31,4.91c.79,1.63,1.55,3.27,2.37,4.88l2.5,4.82c.84,1.6,1.67,3.2,2.55,4.78l2.67,4.72c.9,1.57,1.79,3.14,2.72,4.69l2.84,4.62a299.89,299.89,0,0,0,25.5,35,315.18,315.18,0,0,0,64.53,57.85,339.42,339.42,0,0,0,77.88,39q5.18,1.77,10.38,3.46c3.49,1.07,7,2.13,10.49,3.14s7.05,1.92,10.57,2.82l5,1.2,4.88,1.12A362.19,362.19,0,0,0,455,1964.4c3.33,0,6.67-.09,10-.19s6.69-.27,10-.46l5.06-.36c1.78-.14,3.52-.25,5.34-.43,3.63-.35,7.27-.72,10.89-1.15a340.17,340.17,0,0,0,84.53-21.43,315.46,315.46,0,0,0,75.6-42.78A303.25,303.25,0,0,0,717,1835.46c3.51-5,7-10.12,10.29-15.31s6.64-10.36,9.59-15.77,6-10.74,8.69-16.3q2-4.14,4-8.32c1.36-2.76,2.52-5.62,3.76-8.44s2.41-5.68,3.58-8.53,2.21-5.76,3.29-8.65,2.11-5.8,3.13-8.71,1.91-5.87,2.83-8.81,1.81-5.9,2.68-8.86,1.55-5.83,2.29-8.71l2-8.18,1.72-8.09a390,390,0,0,0,7.63-62.93,445.74,445.74,0,0,0-1.5-58.26,553.18,553.18,0,0,0-19.8-103.08q-6.9-23.88-15.21-46.29-4.12-11.23-8.56-22.16c-1.49-3.62-3-7.28-4.49-10.86l-2.31-5.38-2.24-5.17c-11.43-26-22.7-49.39-32.79-70.92s-19-41.13-26.1-58.85-12.21-33.47-15.28-46.8a164.58,164.58,0,0,1-3.21-18.27,111.91,111.91,0,0,1-.75-15.16l-325.21-6.87a436.67,436.67,0,0,0,2.76,58.78,486.37,486.37,0,0,0,9.47,54.67c8.05,34.8,18.87,66,30.06,94.09s22.93,53.43,33.8,76.62,21,44.3,29.43,63.52l.77,1.76.67,1.56,1.34,3.14c.91,2.09,1.72,4.16,2.59,6.25,1.68,4.15,3.28,8.29,4.79,12.39,3,8.19,5.67,16.26,7.91,24a228.74,228.74,0,0,1,8.38,42.14,120.33,120.33,0,0,1,.48,15.72,66.4,66.4,0,0,1-1.19,10.53c-.07.32-.12.64-.17,1s-.17.53-.24.8a.94.94,0,0,0,0,.25h0l0,0s0,0,.06,0,0,0,0,0h-.1l-.4,0c-.3,0-.6,0-.9,0s-.62,0-.93,0a38.42,38.42,0,0,1-3.95-.2,36.24,36.24,0,0,1-3.91-.64l-.45-.12-.29-.05s0,0,0,0h0s0,0,0,0h0s-.06,0,0,0,0,.35.07-.2c0-.18.05-.37.07-.55l.21-.63a27.35,27.35,0,0,1,.79-2.7c.18-.49.33-1,.46-1.49s.46-1.08.65-1.62.39-1.11.6-1.68.58-1.18.84-1.79a99.37,99.37,0,0,1,9.34-16.23,132.74,132.74,0,0,1,14.56-17.34,151.25,151.25,0,0,1,18.14-15.57,136.59,136.59,0,0,1,19.37-11.84c.79-.39,1.58-.79,2.36-1.2s1.56-.66,2.33-1,1.54-.69,2.3-1l3.46-1.37c1.16-.46,2.3-.95,3.49-1.4l3.61-1.31c2.36-.92,4.87-1.72,7.35-2.57a329.25,329.25,0,0,1,32.14-8.81q17.21-3.81,36.66-6.53c25.9-3.66,54.63-5.93,85.74-7.64s64.63-2.92,100.48-5l13.55-.85c4.57-.31,9.12-.61,13.78-1l6.95-.52,7.05-.59,7.06-.6,7.23-.71,14.45-1.43c4.82-.52,9.69-1.14,14.54-1.72l7.28-.88,3.64-.44,3.66-.52,14.67-2.11c4.87-.66,9.8-1.5,14.73-2.33l14.76-2.5,14.87-2.87c5-1,9.89-1.89,14.9-3.06,10-2.23,19.91-4.36,30-7,5-1.29,10-2.53,15-3.88l15.1-4.35,7.55-2.19c2.51-.75,5-1.61,7.57-2.41l15.14-4.93c2.51-.8,5-1.73,7.57-2.64l7.58-2.76,7.58-2.77c2.52-.93,5-1.83,7.57-2.89l15.14-6.16c2.52-1,5-2,7.56-3.14l7.55-3.41,15.07-6.88c5-2.43,10-5,15-7.5,40-20.42,78.49-45,115.67-77.06a542,542,0,0,0,51.1-50.79,522.61,522.61,0,0,0,44-57.82,492.08,492.08,0,0,0,36-65,459.1,459.1,0,0,0,26.23-72.22c1.79-6.26,3.24-12.72,4.75-19.11.77-3.2,1.37-6.48,2-9.72s1.32-6.49,1.87-9.79l1.61-9.89c.26-1.65.54-3.3.76-5l.64-5,1.21-10c.33-3.37.61-6.75.89-10.13.63-6.73.87-13.58,1.17-20.39l.09-2.55,0-2.57,0-5.15c0-3.43.06-6.85,0-10.29l-.34-10.33-.22-5.17-.36-5.17-.81-10.35c-.06-.84-.16-1.76-.27-2.69l-.32-2.78-.67-5.55a384.68,384.68,0,0,0-8-43.41,398,398,0,0,0-50.06-116.66l-5.68-8.77c-1.94-2.89-4-5.72-6-8.57-4-5.73-8.23-11.24-12.51-16.74-2.11-2.78-4.36-5.44-6.6-8.13l-6.77-8-7.07-7.78c-2.37-2.58-4.74-5.16-7.24-7.64l-7.47-7.48L1310,724l-1.94-1.82-3.91-3.61c-2.62-2.39-5.2-4.8-7.89-7.13l-8.19-6.91L1284,701.1l-4.27-3.31-8.59-6.56c-2.91-2.14-5.92-4.21-8.9-6.3s-5.94-4.16-9.08-6.12c-6.21-3.94-12.37-7.88-18.92-11.5-3.25-1.82-6.46-3.66-9.77-5.42s-6.71-3.42-10.08-5.09l-5.07-2.5L1204.1,652q-5.22-2.33-10.48-4.58c-3.54-1.46-7.18-2.83-10.78-4.2s-7.19-2.75-10.94-3.94-7.43-2.42-11.16-3.58l-2.8-.87-2.86-.79-5.73-1.53c-3.84-1-7.62-2-11.53-2.89s-7.82-1.65-11.74-2.43c-2-.37-3.91-.79-5.89-1.11l-6-.93q-6-.9-12-1.69c-4-.43-8.08-.79-12.13-1.14s-8.09-.67-12.19-.77-8.17-.26-12.25-.33l-3.06,0-3.07.06-6.14.16-6.14.22c-2,.1-4.12.14-6.09.33q-6,.48-12,1.07l-6,.61c-2,.21-4,.54-6,.82q-6,.87-11.9,1.85c-4,.6-7.86,1.51-11.78,2.32s-7.83,1.72-11.72,2.63a353.18,353.18,0,0,0-86.72,34.74,373.42,373.42,0,0,0-70.68,51.76c-2.58,2.41-5.21,4.8-7.7,7.26l-7.36,7.42-3.65,3.74c-1.22,1.24-2.34,2.52-3.51,3.79l-6.92,7.66c-2.33,2.55-4.46,5.17-6.65,7.78l-6.48,7.86c-2.09,2.65-4.11,5.33-6.16,8s-4.11,5.35-6,8.07a450,450,0,0,0-82.44,218.05l-.5,5-.36,5-.65,10.11-.14,2.51-.07,2.29-.14,4.58-.24,9.16c0,6.07-.05,12.18.12,18.21s.31,12.1.73,18a563.31,563.31,0,0,0,8.5,70,637.78,637.78,0,0,0,15.86,65.31c12.47,42,28.28,80.35,45.2,116.19s35.21,69,53.47,100.37l6.85,11.68,6.69,11.23,13.25,22.09,25.47,42.31c16.36,27.38,31.38,53.41,44.28,78.33l4.89,9.53-6.9-.07-4.62,0-4.62-.17-4.63-.16c-1.54,0-3.08-.09-4.62-.21l-9.25-.55c-3.08-.23-6.16-.54-9.24-.79s-6.16-.59-9.24-1-6.16-.62-9.22-1.1l-9.21-1.27-9.17-1.52c-3.07-.45-6.1-1.11-9.15-1.68s-6.1-1.12-9.12-1.83c-12.15-2.49-24.15-5.68-36-9.15a453.58,453.58,0,0,1-131.89-63.33c-5.09-3.45-9.62-6.9-13.64-10l-1.51-1.17c-.51-.39-.93-.76-1.4-1.13l-1.38-1.12c-.47-.37-.93-.74-1.32-1.09l-2.5-2.11-2.23-2c-2.83-2.56-5.07-4.81-6.73-6.61-.37-.43-.79-.86-1.15-1.26s-.58-.73-.89-1.07a3.75,3.75,0,0,1-.35-.46l-.15-.2-.05-.06-.07,0h0l0,0c.16-.07-.06,0,.07,0h0c-.09,0,0,0,0,0s-.09,0,0,0-.1,0,0,0h-.07l.06-.05a.06.06,0,0,1,0,0v-.18c0-.11,0-.23,0-.35l.11-.44a4.81,4.81,0,0,0,.11-.92c.07-.34.21-.73.27-1.1,0-.71.45-1.63.59-2.51a75.25,75.25,0,0,1,5.71-13.86,109.9,109.9,0,0,1,10.89-16.46A116.46,116.46,0,0,1,642.75,1437c1.25-1.22,2.62-2.17,3.9-3.29.62-.59,1.32-1,2-1.51s1.29-1,1.94-1.48,1.3-.89,1.94-1.35l1-.7,1-.58c.64-.4,1.27-.81,1.89-1.24a4.72,4.72,0,0,1,.62-.37l.76-.43,1.52-.85c2-1.15,4-2.32,6-3.52a33.09,33.09,0,0,1,3.2-1.69l3.28-1.66,3.27-1.7,1.62-.86,1.78-.78q3.57-1.58,7.11-3.21c2.26-1.13,4.93-2.08,7.47-3.11s5.06-2.07,7.69-3.09l8.23-2.91,4.11-1.48,4.38-1.39,8.79-2.8,1.1-.35,1.16-.33,2.34-.66,4.66-1.32,4.67-1.34,2.34-.67,2.46-.63,9.86-2.54c3.2-.87,6.74-1.66,10.18-2.48l10.37-2.45,10.84-2.37,5.41-1.19,5.62-1.16,11.29-2.34,11.66-2.34,24-4.73,25-4.93,13-2.64c4.35-.89,8.62-1.73,13.15-2.72l13.43-2.87,3.35-.72,3.43-.78,6.88-1.6,13.75-3.19,6.87-1.61,6.87-1.74c9.16-2.37,18.32-4.65,27.47-7.12l27.43-7.76c9.13-2.75,18.26-5.63,27.38-8.46,4.56-1.37,9.11-2.93,13.66-4.48l13.65-4.63a1147.73,1147.73,0,0,0,108.19-43.63l13.35-6.36,6.67-3.19,3.33-1.6,3.31-1.69,26.44-13.69c8.73-4.85,17.45-9.76,26.15-14.66,4.37-2.39,8.64-5.11,13-7.7l12.89-7.85a899.49,899.49,0,0,0,99.21-71.5l11.81-10,5.89-5c2-1.64,3.91-3.49,5.86-5.23,7.86-7,15.49-14.24,23.06-21.55,15.09-14.66,29.51-30,43.35-45.86a757.33,757.33,0,0,0,75.21-102.16,711.5,711.5,0,0,0,57.52-115.62c7.88-20.35,14.87-41.21,20.83-62.52,1.44-5.36,2.92-10.69,4.27-16.07l3.88-16.24c1.18-5.45,2.31-10.93,3.43-16.4s2-11,3-16.54a628.48,628.48,0,0,0,7.66-67.34l.43-8.52c.15-2.84.29-5.68.33-8.54l.18-8.55.07-4.28,0-2.14c0-.69,0-1.45,0-2.23l-.08-9.25,0-2.32-.07-2.37-.18-5.32c-.09-2.16-.16-4.4-.28-6.51l-.41-6.22c-.29-4.16-.62-8.3-1-12.45s-.89-8.26-1.39-12.39l-.79-6.18-.94-6.14c-.66-4.1-1.31-8.2-2.09-12.26s-1.65-8.11-2.53-12.15a328.79,328.79,0,0,0-14.31-47.2c-.74-1.91-1.47-3.83-2.24-5.72l-2.44-5.63c-1.67-3.73-3.27-7.49-5.09-11.14s-3.68-7.28-5.57-10.9c-.92-1.82-1.93-3.58-3-5.34l-3.08-5.28-3.12-5.24c-1.06-1.74-2.21-3.42-3.32-5.12-2.26-3.39-4.5-6.79-6.85-10.1s-4.86-6.52-7.33-9.75l-1.86-2.42c-.63-.79-1.3-1.56-1.94-2.34l-3.94-4.66c-5.15-6.31-11-11.95-16.77-17.69s-12-11-18.21-16.22a275.83,275.83,0,0,0-40.55-27.21c-28.61-15.88-60.1-27-92.47-34.77q-6.08-1.47-12.17-2.83l-8.44-1.81c-5-1-9.71-2-14-2.81l-26.67-5.09c-4.44-.88-8.9-1.61-13.36-2.39l-13.37-2.31-13.37-2.3-13.4-2.08c-35.72-5.71-71.61-10.2-107.55-14s-72-6.41-108.06-8.33a2107.4,2107.4,0,0,0-431.83,22.47A2078.25,2078.25,0,0,0,216.14,377.12Z"/><path class="b" d="M286.77,561.65c-2.63-1.9,1.51-4.2,2.11-6.28,6.19-1.1,13.19-2.82,13.67.44Z"/><path class="b" d="M810.36,549.44c9.38-1,14.32-.11,18.94.87,2.31.49,4.54,1,7.2,1.36a61.67,61.67,0,0,0,9.84.35c14.84.53,12.65-3.43,19.6-5,44,.05,87.25,0,128.66-.07s81-.36,117.69-1c-2.1,2.6,5.46,2.89,11.69,3.57-1.26,5.65-7.77,9.19-16.93,11.52-43.71-1.09-85.58-1.85-127.12-.95s-82.71,3.52-124.62,9.53c1.53-3.79-.6-6.13-4.67-7.72a40.57,40.57,0,0,0-7.31-1.92c-2.77-.51-5.79-.83-8.85-1.18C822.25,557.41,809.46,556.23,810.36,549.44Z"/><path class="b" d="M1289.18,741.66c-3.93,3.14-8.57,13.41-12.34,10.94a33.09,33.09,0,0,1,6.35-8.42C1285.2,742.35,1287.2,741.5,1289.18,741.66Z"/><path class="b" d="M1519.79,965.58c-1.29,2.42-2.79,5.14-4.47,8s-3.63,5.94-5.64,9.09c-4,6.35-8.64,12.84-13.18,18.91a196.59,196.59,0,0,1-13.2,15.63c-4.07,4.1-7.51,6.92-9.76,7.7l-2.87,4.9q-1.49,2.42-3,4.84c-2,3.22-4,6.47-6.07,9.76s-4.29,6.52-6.56,9.86-4.65,6.74-7.23,10.15-5.25,7-8.13,10.55-6,7.23-9.32,11c-6.67,7.51-14.24,15.45-23.15,23.78-2.39.59-4.81,1.29-7.1,1.67a13.82,13.82,0,0,1-6.06,0l3.27-4.23,3.46-4.59,7.6-9.94c5.24-7,11-14.54,16.87-22.49l36-48.82c11.79-15.87,22.86-30.52,32.83-40.83a69.54,69.54,0,0,1,13.91-11.92C1512.33,966,1516.28,964.83,1519.79,965.58Z"/><path class="b" d="M650.8,1133.89c10.22-2.26,6.28-.22,1.91,1.82l-3.15,1.46a17.44,17.44,0,0,0-2.06,1.14c-.36.26-.31.37.36.27s2-.45,4-1c-2.56,3.68-27,9.17-24.67,5.06C634,1139.76,652.47,1136.16,650.8,1133.89Z"/><path class="b" d="M406,1693c1.2-3.72,5.64-1.79,17.13,9.68-.54,1.81-1.9,2.44-4.58,1.18a25.56,25.56,0,0,1-5.11-3.57q-1.56-1.32-3.4-3.09C408.77,1696.06,407.42,1694.61,406,1693Z"/><path class="b" d="M1191.1,1694.05c.14-1,.33-1.89.4-2.83s.11-1.85.17-2.72c.09-1.76.15-3.41.17-5,.06-3.08,0-5.76-.18-8.11a88.24,88.24,0,0,0-1.53-11.19c-.07-.37-.13-.75-.2-1.11l-.33-1.13c-.21-.75-.41-1.49-.58-2.22a36.09,36.09,0,0,1-.83-4.56,45.27,45.27,0,0,1,.56-12.2l-1.49-6.12c-.24-1-.49-2.06-.73-3.09s-.69-2.11-1-3.16q-2.07-6.36-4.08-12.87t-4-13.17c-.3-1.11-.7-2.22-1.1-3.34s-.78-2.23-1.17-3.36q-1.17-3.36-2.34-6.76c-3.15-9.05-6-18.28-9.71-27.54q-2.64-7-5.28-14c-.89-2.33-1.74-4.68-2.65-7l-3-7-5.91-14q-1.48-3.5-3-7l-.74-1.74-.76-1.63-1.52-3.26-6.06-13-3-6.43c-.51-1.07-1-2.14-1.51-3.2l-.37-.78-.3-.59-.59-1.18c-3.16-6.29-6.31-12.46-9.45-18.43s-6.39-11.5-9.56-16.9c-12.66-21.17-27.57-38.37-41.24-58.51-13.57-20-27-40.32-39.92-60.82-3.2-5.1-6.46-10.28-9.59-15.39s-6.2-10.2-9.25-15.33q-9.09-15.37-17.57-30.87c-11.3-20.64-21.54-41.37-30.57-61.86a611.32,611.32,0,0,1-22.92-60.32c-7.19-22.61-12.62-45.47-15-67.22a223.62,223.62,0,0,1-1.3-31.54c.12-2.52.21-5,.39-7.47s.46-4.87.69-7.27c0-.62.14-1.14.23-1.68l.25-1.61c.18-1.07.35-2.13.52-3.18.29-2.1.85-4.19,1.3-6.23q.76,1.4,1.44,2.88l1.32,3a56.08,56.08,0,0,1,2.29,6.47q1.13,3.75,1.93,7.82c.61,2.71,1.2,5.54,1.65,8.44,2.06,11.66,3.79,24.92,5.93,39.08.23,1.76.54,3.55.83,5.34s.57,3.61.85,5.42l1,5.48.46,2.75.53,2.77,1,5.55,1.14,5.57c.7,3.71,1.61,7.44,2.4,11.14a393.24,393.24,0,0,0,12,42.1A95.46,95.46,0,0,0,975,1194.36a495.78,495.78,0,0,0,22.37,48c8.14,15.42,16.87,30.28,25.81,44.74,4.5,7.25,9,14.32,13.66,21.46s9.27,14.2,14,21.32,9.44,14.18,14.09,21.18l7,10.57,7,10.64c18.59,28.39,36.74,57.31,52.85,88.87q3,6,5.94,11.94l2.93,6,3.81,8.36,7.51,16.78,1.85,4.2,1.78,4.5,3.54,9q3.51,9,6.93,18.08c2,6.08,3.91,12.17,5.82,18.26l2.82,9.12,1.39,4.56,1.13,4.58q2.24,9.14,4.36,18.26,1.35,3.09,2.62,6.15c.4,1,.88,2,1.21,3l1,3c1.34,4,2.6,8,3.79,12s2.33,7.93,3.44,11.9l.83,3,.2.74.13.73.25,1.46c.34,1.95.67,3.91,1,5.87q1,5.88,2,11.89.54,3,1.08,6.07l.57,3.08.29,1.55c.06.51.08,1,.12,1.5.56,8,1.33,16.33,2.47,25.36-.12,1.24-.15,2.51-.35,3.66s-.4,2.22-.65,3.17c-.47,1.9-1.07,3.26-1.82,3.61-1.19,3.62-2.71,2.73-4.23.33S1192.46,1696.65,1191.1,1694.05Z"/><path class="b" d="M905.94,1134.12c-1.27-3-2.62-6.9-3.89-11.06a102.42,102.42,0,0,1-2.87-12.66c-.31-2-.53-4-.64-5.71a26.94,26.94,0,0,1,.17-4.64c.37-2.63,1.3-4.22,3-4.16a45.35,45.35,0,0,1-3-10.69c-.26-1.87-.45-3.78-.6-5.73s-.28-3.93-.28-6-.06-4.06-.09-6.15,0-4.2,0-6.36c-.11-4.31,0-8.74-.52-13.37q.57-4.82,1.16-9.75c.23-1.63.46-3.26.69-4.91l.33-2.46.16-1.24.21-1.17.81-4.67c.25-1.56.5-3.13.86-4.71l1-4.73c.16-.79.29-1.59.48-2.38s.38-1.59.58-2.39a287,287,0,0,1,11.83-38.69,259.34,259.34,0,0,1,18.45-38.17c1.73-3.15,3.76-6.1,5.65-9.17.46-.77,1-1.52,1.48-2.25l1.53-2.21c1-1.47,2-3,3.07-4.44l3.22-4.32c.54-.72,1-1.46,1.61-2.16l1.69-2.09,3.37-4.19,3.53-4a175.38,175.38,0,0,1,31.15-28c1.38-1,2.84-1.84,4.25-2.79s2.81-1.89,4.28-2.67l4.33-2.5c1.46-.8,3-1.49,4.41-2.25l2.19-1.13c.74-.37,1.5-.65,2.24-1l4.45-2,4.52-1.66,2.24-.85,2.28-.66,4.54-1.38c1.53-.35,3.06-.7,4.58-1.07.76-.17,1.51-.41,2.28-.53l2.3-.38c1.54-.24,3-.57,4.59-.77s3.08-.3,4.61-.47a22.1,22.1,0,0,1,2.3-.22l2.31-.08c1.54,0,3.09-.18,4.6-.17s3,.11,4.49.13a96.21,96.21,0,0,1,17.76,2.45l2.2.47,2.18.64c1.45.44,2.91.78,4.35,1.26l4.3,1.53,1.07.36,1.06.45,2.12.9c.8,3.4-1.14,4.31-3.75,4.42h-1l-1.08,0c-.73,0-1.48,0-2.22,0a15.22,15.22,0,0,0-4.13.23,60.85,60.85,0,0,0-24.23-2.88l-2.85.23-2.89.49-2.86.47a8.55,8.55,0,0,0-1.4.31l-1.39.36c-1.85.5-3.7.81-5.49,1.49l-2.68.87-1.34.42c-.44.15-.88.35-1.32.52a167.44,167.44,0,0,0-20.88,9.64c-7.07,3.77-14.45,8-22.83,12.8-4.16,4.68-8.55,9.24-12.87,14.24-2.24,2.37-4.35,5-6.61,7.49-1.13,1.24-2.17,2.63-3.29,3.91s-2.27,2.57-3.33,4-2.19,2.71-3.32,4.05-2.15,2.81-3.26,4.19c-2.27,2.73-4.29,5.73-6.53,8.57l-3.15,4.46-1.6,2.23c-.53.75-1,1.53-1.53,2.3l-3.1,4.59L943,949.25l-1.51,2.36-1.4,2.42c-1,1.61-1.9,3.21-2.84,4.82l-2.66,4.93-1.35,2.46L932,968.75l-2.5,5c-.76,1.7-1.53,3.39-2.28,5.08l-1.16,2.54L925,984q-1,2.56-2.07,5.12a164.71,164.71,0,0,0-10,40.84c-3.46,10.88-5.54,27.16-4.92,45.8a237,237,0,0,0,10.15,59.13C917.54,1139.06,909.9,1137.3,905.94,1134.12Z"/><path class="b" d="M1020.5,831l-1.23-3.68,2.52-1.16c.85-.34,1.71-.64,2.57-1q2.58-.93,5.18-1.8c1.75-.5,3.51-.9,5.27-1.34a46.78,46.78,0,0,1,5.31-1.1l5.34-.8c.89-.15,1.79-.21,2.68-.27l2.69-.18,2.67-.18a21.6,21.6,0,0,1,2.66-.11h5.28c1.75-.06,3.51.14,5.25.22l2.62.15a25.45,25.45,0,0,1,2.61.19c3.47.43,6.94.62,10.39,1.23,6.92.82,13.75,2.25,20.76,3.36a16.28,16.28,0,0,1-6.35,1.75c-.64.07-1.3.12-2,.15l-1,.05-1.06.09c-1.42.11-2.88.18-4.36.23l-2.22.06c-.75,0-1.5.13-2.24.19l-4.34.43a26.14,26.14,0,0,0-4,.74,28.9,28.9,0,0,0-3.46,1.08,82.68,82.68,0,0,0-14-1c-2.23-.1-4.44.14-6.6.25l-3.23.16c-1.06,0-2.1.23-3.14.33C1036.69,829.74,1029,831,1020.5,831Z"/><path class="b" d="M1103.31,861.57c.1-1.61,1.69-2.24,4.08-1.83a27.88,27.88,0,0,1,4.15,1c1.52.56,3.14,1.35,4.81,2.15a45.78,45.78,0,0,1,5,2.84l2.38,1.52c.76.55,1.48,1.11,2.18,1.65,1.39,1.08,2.68,2,3.71,3s1.84,1.78,2.39,2.38a23.67,23.67,0,0,1-3.79-1.23,27.09,27.09,0,0,1-3.54-1.51c-.57-.29-1.14-.6-1.69-.92l-.83-.49-.84-.45c-1.12-.61-2.23-1.26-3.34-2l-1.66-1-1.73-.92c-1.15-.61-2.32-1.23-3.52-1.82a33.52,33.52,0,0,0-3.74-1.42A19.63,19.63,0,0,0,1103.31,861.57Z"/><path class="b" d="M841.37,1284.59a27.94,27.94,0,0,1-6.61,5.07,71.49,71.49,0,0,1-11.7,5.42c-8.9,3.24-19.81,4.8-28.8,1.61-19.43,5.91-41.54,8.35-65.77,10.13s-50.69,2.92-78.92,6.75c1.91-2.74-4.14-3.5-11.64-3.12s-16.37,1.8-19.84,3c2.24,4.16,17.12-4.94,13.7,1.4-18.38,2.7-36.91,4.72-54.06,7.26s-32.88,5.62-45.35,9.93c-1.72-1.8,3.91-3,3.81-4.67-.5-.67-2.65-.55-5.36-.12s-6,1.2-8.74,1.68c.26-.7,2.9-1.71,6.46-2.71a112.16,112.16,0,0,1,11.93-2.52c7.81-1.21,13.31-1.11,5,1.93,8.27-1.25,9.46-3.27,18.21-4.31-8.72.43-7.64-1.58-7.91-3-.14-.73-.62-1.32-2.87-1.37a32,32,0,0,0-4.87.4c-2.18.31-5,.76-8.58,1.58.72-2.1,13.8-2.89,13.54-5,8.37-.17,9.23,3.13,14.88,4.19a123.27,123.27,0,0,1,16.24-3.45c3.41-.54,7.06-1.12,10.68-1.63l10.63-1.51c13.54-1.91,23.55-3.68,16.52-6.13,9.12-2.92,24.05-1.7,38.56-.76s28.66,1.56,36.85-2.86c13.53-.16,25.36-.84,36.5-1.9s21.66-2.48,32.44-4.1l34.14-5.27,19.33-2.86c3.37-.51,6.85-1,10.46-1.5l5.51-.72Z"/><path class="b" d="M514,1336.11c-2.39.31-4.82.5-7,.56a24.44,24.44,0,0,1-5.37-.26c-2.63-.53-3-1.87,1.56-4.34a23.63,23.63,0,0,1,6-.82,6.25,6.25,0,0,1,3.21.75C513.8,1332.9,513.94,1334.47,514,1336.11Z"/><path class="b" d="M482.89,1348.28c-14.13,5-13.08.43-24,3.69a17.84,17.84,0,0,1,6.3-3.52,37.48,37.48,0,0,1,8.31-2C479,1345.83,483.52,1346.34,482.89,1348.28Z"/><path class="b" d="M415.3,1364.17c0,1.35-1.65,2.8-4.35,4.39-1.35.8-3,1.63-4.76,2.51s-3.71,1.91-5.76,2.93l-6.4,3.21c-2.16,1.15-4.31,2.41-6.44,3.68s-4.19,2.59-6.13,3.95a58.49,58.49,0,0,0-5.23,4.34c-.22-1.13,1.15-2.82,3.55-4.86a90.51,90.51,0,0,1,9.93-6.65l3.07-1.82,3.25-1.75,6.66-3.52c2.2-1.2,4.45-2.27,6.59-3.33S413.45,1365.16,415.3,1364.17Z"/><path class="b" d="M351.41,1406.91c-1.38,1.73-2.48,3.34-3.56,5s-2.1,3.3-3.4,5.08a55.42,55.42,0,0,1-4.94,5.82,104.35,104.35,0,0,1-7.87,7.61,36.14,36.14,0,0,1,6.26-10.29q2.46-2.92,5.8-6.25c1.12-1.11,2.3-2.26,3.58-3.43S350,1408.11,351.41,1406.91Z"/><path class="b" d="M409.8,1908.39c10.56,2,19.14,3.6,25.75,5.28s11.23,3.45,13.84,5.55c-6-1.48-15.56-2.65-23.81-4.39-2.06-.44-4-.88-5.86-1.36s-3.47-1-4.89-1.56C412,1910.85,410.12,1909.65,409.8,1908.39Z"/><path class="b" d="M719.54,1497c9.13.38,18.63.78,28.24,1s19.49.34,29.44.09c19.83-.49,39.93-2.3,59-6.8,22.37-1,46.24-2.59,71-5.2A748.13,748.13,0,0,0,983.73,1474l9.73-2.18c3.24-.75,6.47-1.43,9.73-2.32q9.75-2.54,19.44-5.2c12.94-3.89,25.78-7.86,38.41-12.73,25.24-9.46,49.63-20.8,71.78-34.38,17.23-6.14,34.48-16.09,51.28-27.12l3.16-2,3.11-2.19,6.2-4.39,12.37-8.74,24.82-18.32c4.79-3.57,9.6-7.14,14.24-10.93,2.33-1.89,4.69-3.75,7-5.69l6.83-5.87c2.29-1.95,4.51-4,6.72-6l6.62-6.14,6.46-6.35,3.21-3.2,3.14-3.27a418.77,418.77,0,0,0,45.93-57c6.94-10.2,13.31-20.92,19.41-31.82l4.41-8.31,2.18-4.17,2.08-4.25,4.1-8.53c1.32-2.88,2.6-5.79,3.87-8.69a400.23,400.23,0,0,0,24-73.42,380.53,380.53,0,0,0,6.54-39,374.6,374.6,0,0,0,2.52-39.86c0-6.71,0-13.38-.4-20.1-.18-3.35-.31-6.69-.57-10l-.9-10c-.17-1.67-.3-3.33-.51-5l-.65-5c-.45-3.34-.9-6.63-1.4-10q-.88-5.29-1.86-10.55l-1-5.25-1.16-5.16q-1.17-5.16-2.42-10.27c-.88-3.39-1.86-6.72-2.81-10.06-1.84-6.72-4.15-13.18-6.37-19.66-.55-1.62-1.16-3.21-1.78-4.79l-1.86-4.74-1.88-4.72c-.62-1.57-1.26-3.13-2-4.66-2.74-6.13-5.42-12.28-8.48-18.15-1.5-3-3-5.92-4.54-8.83l-4.83-8.59-2.44-4.26-2.57-4.17q-2.6-4.12-5.18-8.25c-1.77-2.71-3.62-5.36-5.44-8s-3.63-5.32-5.59-7.87c-3.85-5.13-7.66-10.25-11.77-15.12l-3.23-4.57-1.62-2.27-1.69-2.22-6.82-8.85c-2.31-2.91-4.74-5.74-7.13-8.61l-3.63-4.26-3.77-4.16-4.19-4c-1.41-1.34-2.8-2.68-4.27-3.95q-4.37-3.87-8.79-7.65c-3-2.5-6.06-4.89-9.11-7.29-1.55-1.19-3-2.41-4.63-3.56l-4.77-3.43-4.8-3.39-2.41-1.67-2.48-1.62q-5-3.22-10-6.37c-6.87-4-13.71-8.07-21-11.72a343.7,343.7,0,0,0-97.15-32.86,296.68,296.68,0,0,0-58.27-4.74c-2.5,0-5,.17-7.51.26l-7.54.4c-1.25.08-2.53.12-3.77.25l-3.7.38-7.44.8c-5,.48-9.91,1.35-14.87,2.18-2.47.42-5,.83-7.43,1.3l-7.39,1.64a300,300,0,0,0-57.31,19.15,312.45,312.45,0,0,0-51.51,29.39,360.26,360.26,0,0,0-80.27,78.32A393.69,393.69,0,0,0,765,906.75c-2.1-.15-4-2.28-7.57,9.81A458.81,458.81,0,0,0,742,964.39a392.75,392.75,0,0,0-9.75,50.13l-.81,6.43c-.15,1.11-.22,2-.33,3l-.31,3-.59,6c-.2,2-.38,4-.51,6l-.81,11.93-.48,11.9q-.66,23.8.9,47.33c1,15.68,2.87,31.13,5.31,46.42s5.57,30.37,9.34,45.17a550.75,550.75,0,0,0,29.55,85.71c5.9,13.4,12.83,25.62,19.38,37.67s12.74,23.92,17.26,36.83c8.69,11.74,17.9,25,27.35,38.49s19,27.2,28.35,40.16c13.92,26.51,33.57,58.49,52.1,87.37q3.42,5.38,6.88,10.69l3.44,5.25,3.32,5.11q3.31,5.08,6.62,10c2.15,3.24,4.2,6.37,6.29,9.44,1,1.53,2.08,3,3.1,4.52l1.54,2.22.39.54c.06.08.14.21.18.25l.1.11.41.43c1.11,1.16,2.23,2.3,3.37,3.4l1.71,1.63.86.79c.28.25.5.39.75.58,1,.72,2,1.43,3,2.1a23.34,23.34,0,0,0,1.89,7.25,57.07,57.07,0,0,0,3.73,6.81c1.45,2.32,2.93,4.77,4.42,7.32a49.62,49.62,0,0,1,3.61,8c1.12,3.84,2.52,7.74,3.13,11.88a18.59,18.59,0,0,1,0,6.27,14.94,14.94,0,0,1-2.48,5.76c-2.48,3.46-6.18,5.86-10.1,7.63a62.51,62.51,0,0,1-12.54,3.86,188,188,0,0,1-27,4.11c-2.31.22-4.64.31-7,.45-1.17.07-2.34.08-3.51.12l-1.76,0c-.64,0-.91,0-2.41,0l-8.51,0c-2.87,0-5.75-.1-8.62-.18l-8.63-.27-8.63-.5-4.32-.24-4.31-.36-8.63-.71-8.61-.93c-2.87-.31-5.74-.59-8.59-1l-8.58-1.16c-2.86-.36-5.7-.9-8.54-1.33l-4.27-.69c-1.43-.21-2.84-.45-4.26-.73l-8.48-1.59c-2.83-.49-5.63-1.14-8.43-1.73s-5.62-1.18-8.41-1.81l-8.33-2-4.17-1-4.12-1.12-8.24-2.19c-2.74-.77-5.44-1.61-8.16-2.4-5.45-1.52-10.78-3.34-16.13-5-2.69-.82-5.31-1.82-7.95-2.73s-5.28-1.82-7.89-2.78l-7.77-3-3.88-1.46-3.82-1.57-7.62-3.11c-2.54-1-5-2.19-7.5-3.26s-5-2.14-7.44-3.3l-7.3-3.44-3.65-1.7-3.57-1.81-7.12-3.56c-2.37-1.17-4.65-2.48-7-3.7s-4.63-2.45-6.91-3.71l-6.75-3.85c-2.24-1.27-4.5-2.51-6.67-3.87-4.35-2.67-8.77-5.18-13-8a64.67,64.67,0,0,1-10-3.85c-3-1.53-5.85-3.18-8.72-4.92-5.67-3.5-11.16-7.35-17.83-11.05l-10.82-11.63c-.87-1-1.85-2-2.7-2.94s-1.74-1.94-2.64-2.91-1.64-1.93-2.51-2.88l-2.38-2.83c-.43-.47-.78-.93-1.14-1.39l-1.12-1.37-.57-.68-.5-.67-1-1.24-.45-.55c-.14-.17-.25-.36-.38-.54-.25-.35-.51-.71-.78-1.06-.57-.67-1-1.44-1.54-2.15s-1-1.49-1.51-2.23-.95-1.53-1.45-2.29a24.35,24.35,0,0,1-1.36-2.38,21.77,21.77,0,0,1-1.34-2.41,75.87,75.87,0,0,1-7.19-20.87c-.14-.88-.31-1.77-.52-2.65s-.18-1.76-.32-2.63c-.07-.44-.15-.87-.22-1.31s0-.88-.08-1.32-.08-1-.11-1.42-.09-1-.13-1.48c0-1,0-2,0-3a27.1,27.1,0,0,1,0-3c.11-2,0-3.92.22-5.84a31.26,31.26,0,0,0,1.85-3c.65-1,1.31-2.13,1.9-3.27.3-.57.59-1.14.88-1.74s.67-1.19,1-1.81c.67-1.23,1.2-2.51,1.89-3.83,2.6-5.27,5.6-11.23,9.1-17.49a151.88,151.88,0,0,1,12.45-19,110.38,110.38,0,0,1,16.23-16.93,105.17,105.17,0,0,1,14.36-9.92l3.62-2c.6-.33,1.17-.69,1.77-1l1.79-.9c1.18-.6,2.33-1.21,3.46-1.82s2.3-1.09,3.4-1.65c2.19-1.19,4.38-2.11,6.39-3.25.89-.53,2.32-1.2,3.5-1.85s2.41-1.34,3.56-2a74.9,74.9,0,0,0,6.58-4.59A49,49,0,0,0,646,1366c1.76-.79,3.5-1.61,5.24-2.43l5.52-2.27,5.52-2.33,2.75-1.2c.93-.4,1.92-.74,2.88-1.11q5.8-2.21,11.6-4.55l12.18-4.35c16.55-5.74,34.36-11.15,53.49-16s39.74-9,61.48-12.71,44.72-6.72,69.23-9.48l15.06-1.67c5.08-.56,10.1-1,15.33-1.68l15.61-1.83c5.22-.62,10.47-1.16,15.72-2l15.81-2.24c5.29-.77,10.6-1.51,15.9-2.51s10.64-1.92,16-2.94l8-1.57c2.68-.53,5.34-1.19,8-1.8q10.51-3.65,20.94-7.08,2.61-.84,5.2-1.79l5.19-1.83,10.34-3.62,10.33-3.57c3.44-1.2,6.85-2.53,10.27-3.78l20.53-7.64c6.82-2.71,13.63-5.49,20.46-8.29,3.41-1.41,6.83-2.8,10.24-4.26l10.2-4.61,10.23-4.72,5.12-2.4c1.71-.8,3.42-1.61,5.12-2.49q10.18-5.22,20.44-10.72c0-1.68-2.36-2.92,2.67-5.55,8.35-3.51,17.47-8.58,27.15-14.27,2.43-1.39,4.85-3,7.3-4.55l7.44-4.89,15.32-10.19c5.11-3.64,10.3-7.31,15.53-10.93s10.57-7.09,15.76-10.83,10.5-7.17,15.78-10.5c2.63-1.68,5.31-3.23,7.91-4.88s5.22-3.23,7.83-4.75q5.42-4.89,10.67-9.78l5.25-4.89c1.71-1.68,3.39-3.4,5.08-5.1l10.06-10.25,5-5.15c1.67-1.72,3.36-3.42,5-5.25l19.78-21.84,10.08-11.59c3.4-3.92,6.75-8,10.24-12,13.76-16.39,28.15-34.05,43.76-54,7.73-10,15.92-20.51,24.3-31.84s17.18-23.36,26.31-36.33c2-6.13,4.79-12.82,7.87-20.14s6.66-15.13,10.54-23.36c7.63-16.55,16.13-35,24.15-54.34a617.72,617.72,0,0,0,21.44-59.47,387,387,0,0,0,12.71-56.46c1.62-6.45,3.47-13.4,5-20.84q.6-2.77,1.21-5.63c.42-1.9.83-3.82,1.18-5.77q1.08-5.87,2.21-11.91c2.77-16.18,5.1-33.37,6.75-50.29.41-4.23.72-8.44,1.09-12.61.17-2.1.39-4.11.53-6.26s.27-4.3.4-6.43c.07-1.06.14-2.13.21-3.18l.15-3.2.07-1.6c0-.64,0-1.29.07-1.93,0-1.31.07-2.6.11-3.89.1-5,.1-9.88.13-14.64,0-19.07-1.21-36-2-49.33a269.26,269.26,0,0,0-9.2-32.71c-1-2.64-2-5.28-3-7.94-.52-1.32-1-2.65-1.57-4s-1.17-2.6-1.75-3.91c-1.19-2.61-2.39-5.23-3.63-7.86s-2.71-5.15-4.1-7.74l-2.13-3.89-2.33-3.82c-1.59-2.54-3.19-5.11-4.86-7.68s-3.58-5-5.43-7.53c-1-1.25-1.83-2.56-2.86-3.77l-3.06-3.68-3.13-3.71-1.6-1.86-1.72-1.77q-3.46-3.54-7.11-7.12l-.45-.45-.12-.11c.05-.12,0-.1-.07-.15l-.24-.22-1-.86-1.92-1.72-3.93-3.45c-2.69-2.27-5.49-4.48-8.34-6.73-3.2-2.87-5.89-5.43-8.42-7.85s-5-4.6-7.53-6.87-5.37-4.47-8.73-6.83a106.69,106.69,0,0,0-12.27-7.33c-9.62-2.43-22.84-6.88-39.52-11.6a316.2,316.2,0,0,0-38.12-13.06l-7.8-2.26-7.42-2.06q-7.18-1.89-14.7-3.74c-10-2.45-20.39-4.94-31.09-7q-8-1.6-16.2-3.15c-2.72-.51-5.46-1-8.21-1.51l-8.29-1.35a947.61,947.61,0,0,0-130.47-12.21c-4.29-2.89-11.87-3.18-19.58-3.55s-15.57-.78-20.52-3.6l-25.18-.31L1074,307l-6.35.05-12.73.14c-17,.08-34.15.8-51.36,1.31-34.43,1.47-69.16,3.54-103.89,5.89l-26.05,1.86-13,.85-13,1-26,1.76q-13,.94-25.94,1.69c-4.32.22-8.63.54-12.94.82l-12.92.76-12.91.63-12.88.69c-8.58.43-17.16.7-25.72,1s-17.09.6-25.62.72a91.51,91.51,0,0,0-9.63-4.39c-3.38-1.3-6.91-2.49-10.5-3.62-7.18-2.25-14.61-4.26-21.63-6.37-3.51-1.07-6.91-2.1-10.11-3.2a87.48,87.48,0,0,1-9-3.58c-5.49-2.6-9.89-5.68-12.51-9.62-3-.22-6.42-.21-10-.13s-7.36.33-10.93.44c-7.14.25-13.56.14-16.57-1.62,1.45-4.39-7.37-3.79-10.48-6-10.42.26-23.24.94-37.32,2-7,.62-14.34,1.42-21.83,2.32s-15.15,1.87-22.77,3.21-15.27,2.72-22.77,4.28l-5.59,1.21c-1.85.42-3.68.88-5.5,1.34q-5.46,1.36-10.73,2.85c-7,2-13.75,4.08-20,6.36a174.49,174.49,0,0,0-17.19,7.52c-4.63,4.51-9.53,9.11-13.66,13.52s-7.46,8.78-9,12.58c-3.15,7.65.78,13.23,19.72,14.83,1.24,13.55,17.33,24.26,20.09,35.93,1.41,5.84-.47,11.87-9,18.63a95.11,95.11,0,0,1-18.11,11c-4,2-8.5,3.94-13.57,6.07s-10.68,4.43-16.93,6.78c-6.16,8.14-13,15.32-16.58,22.31s-4,13.44,2.64,20.05c3.36-.11,6.55-.1,9.63,0s6.08.36,9,.61c5.89.54,11.62,1.25,17.7,1.81,12.13,1,25.82,1.94,45.07-.29-7,4.59.41,3.26,1.75,6.2,8.78-1.9,19.59-5,28.6-7a63.18,63.18,0,0,1,11.72-1.77c3.15-.09,5.36.37,6.16,1.69-5.48,1.21-10.36,2.35-14.68,3.69s-8.17,2.65-11.64,4A146.57,146.57,0,0,0,439,497.84c-5.09,2.82-9.81,5.64-15.26,8.45-2.72,1.4-5.62,2.8-8.85,4.2-1.61.7-3.3,1.39-5.09,2.09s-3.65,1.45-5.64,2.18c-16.14,11.39-19.17,20.74-21,29.59s-2.56,17.1-13.66,26.18c-10.73,1.78-12.71,1.27-23.8,6.79-3.71,10.44,11.74,7.8-6.05,19.89,4.33,1.26,8.91.84,14.18-.42,2.63-.63,5.44-1.48,8.47-2.43l4.73-1.49,5.14-1.49c4,2.32,9.52,3.5,16.13,3.9,3.3.2,6.87.2,10.65.05s7.81-.35,12-.72,8.47-.8,12.88-1.32,8.88-1.17,13.44-1.67c9.11-1.06,18.34-2.23,27.21-3.18,6.28-1.73,12.45-3.3,18.51-4.82l9-2.21,4.45-1,4.43-1q8.82-1.86,17.36-3.52l8.47-1.62c2.81-.5,5.61-.94,8.39-1.4q8.33-1.33,16.42-2.56c2.7-.4,5.38-.82,8.06-1.18l8-1,15.73-1.92c2.6-.3,5.18-.64,7.77-.91l7.72-.78c41-4.29,80-7.36,123.5-14.64,1.75,3.84,10.59,4.53,21,3.58,1.31-.12,2.64-.27,4-.44s2.72-.3,4.09-.49c2.74-.37,5.5-.82,8.19-1.33a133,133,0,0,0,14.66-3.55c7.59,2.39,3.8,9.92,17,10,10.59-4.54-4-5-4.82-8.63,3.58-1,8.38-2.13,13.74-3.16,2.68-.51,5.49-1,8.37-1.47s5.82-.78,8.74-1.11c5.83-.64,11.57-1.07,16.55-1.18,2.49,0,4.79,0,6.83.1a31.64,31.64,0,0,1,5.2.78,164.86,164.86,0,0,1,23.76-4.81c9-1.22,19-2,29.13-2.94,5.08-.49,10.23-.77,15.34-1.18s10.21-.81,15.2-1.31,9.87-1,14.56-1.56,9.22-1.26,13.47-2.09a94.71,94.71,0,0,0,10.88,3.55,135.32,135.32,0,0,0,13.41,2.93c4.93.83,10.32,1.51,16.21,2s12.3,1.11,19.26,1.43c.63-4.55,6.78-7.15,12.31-10,9.6-.47,18.64-.61,27.26-.52,4.32,0,8.51.24,12.62.47s8.13.53,12.07.85,7.81.68,11.62,1.09,7.55,1,11.26,1.46c7.41,1,14.67,2,21.89,3.21,14.43,2.46,28.79,4.69,44.15,6.83,15.39,1.91,31.78,3.67,50.47,4.26,4.87,1.71,10.43,3.31,16.54,4.81,3,.75,6.24,1.48,9.55,2.19L1257,556c7,1.48,14.46,2.89,22.14,4.27s15.55,3,23.55,4.48l7.3,2.82,3.46,1.38,1.75.69,1.64.67,1.63.67c.54.22,1.13.45,1.52.64l.16.07,0,.05.08.11.17.21.34.38c.47.46.89,1.05,1.33,1.48,1.72,1.93,3.26,3.72,4.65,5.46.69.87,1.35,1.73,2,2.6a23.32,23.32,0,0,1,1.7,2.65c.33.38.45,1,.76,1.34l.12.15.06.19a3.73,3.73,0,0,0,.16.35c.1.24.26.43.37.65.42.92.85,1.82,1.19,2.75.74,1.84,1.35,3.68,2,5.56l1,2.85a15,15,0,0,1,.44,1.49,3.81,3.81,0,0,0,.28.75,3.61,3.61,0,0,1,.14.35,1,1,0,0,0,.1.16.07.07,0,0,1,0,0l0,.37.09.74c.07.5.13,1,.17,1.53l.28,3.17c.05.55.12,1,.15,1.63l.1,1.83.22,3.68c.08,1.22.17,2.45.26,3.67s.09,2.46.13,3.68c.08,2.46.27,4.91.32,7.36.32,9.82.28,19.64.2,29.39-8.28,9.48-12.19,22.51-16.07,36.67s-7.84,29.33-14.58,41.51a267.82,267.82,0,0,1-18,27.94l-2.45,3.38c-.81,1.13-1.62,2.25-2.49,3.36l-5.05,6.66c-3.49,4.38-6.84,8.81-10.37,13.16-6.94,8.75-13.85,17.51-20.62,26.5s-13.18,18.35-19.26,28.32c-3.45,4.07,1.54,3.69-1.34,7.43l-18.67,20-5,5.25-2.54,2.68-2.63,2.64-5.28,5.36-5.43,5.31c-1.77,1.8-3.75,3.56-5.69,5.33l-5.83,5.34-5.83,5.36c-1,.91-2,1.75-3,2.59l-3.06,2.54-12.16,10c-4.19,3.14-8.38,6.19-12.5,9.16-5.77,4.34-12.12,7.94-18.33,11.58l-4.67,2.69c-1.56.9-3.11,1.8-4.74,2.61l-9.64,5-9.57,5.09c-3.27,1.62-6.51,3.28-9.73,5s-6.4,3.53-9.55,5.42-6.47,3.64-9.64,5.63q-5.55,3.45-10.7,6.86c-3.52,2.15-6.93,4.29-10.2,6.44s-6.41,4.3-9.43,6.46-6.06,4.13-8.91,6.23-5.57,4.21-8.18,6.36l-3.85,3.22c-1.28,1-2.53,2.1-3.75,3.16a131,131,0,0,0-13.31,13.35c-1.64.66-3.33,1.28-5,2s-3.34,1.46-5,2.26c-3.32,1.61-6.62,3.4-9.93,5.3-1.67.94-3.3,2-5,2.89l-5.07,2.87-10.24,5.84q-2.58,1.45-5.17,2.86c-1.73.94-3.52,1.76-5.29,2.61-3.55,1.67-7.14,3.22-10.76,4.57q-2.71,1-5.46,1.88a55.91,55.91,0,0,1-5.55,1.46,69,69,0,0,1-11.34,1.46c-2.56,1.52-3.29,3.12-4.69,4.68a10.72,10.72,0,0,1-2.93,2.32A17.62,17.62,0,0,1,903,1074a32.88,32.88,0,0,1-3.43,1c-7.3,2.26-7.91.23-11.92.4,1.53,4.57,5.13,2.47,1.91,7.48,5.13-1.94,9.6-3.52,13.7-5s7.72-2.88,11.26-4.26,7-2.81,10.53-4.46l2.69-1.29c.9-.46,1.81-1,2.73-1.47,1.85-1,3.76-2.12,5.76-3.33,5.08-1.16,7.56-.42,15.07-3.31l14.08-8c4.77-2.7,9.65-5.39,14.47-8.36s9.8-5.84,14.83-8.77c1.26-.72,2.51-1.49,3.74-2.27l3.75-2.33,7.58-4.66,7.73-4.66q3.81-2.43,7.69-4.9l7.82-4.9c2.62-1.65,5.34-3.19,7.92-4.94q7.83-5.13,16-10.19c2.76-1.63,5.35-3.49,8.07-5.23s5.41-3.52,8.16-5.27l4-2.49,2-1.23,2-1.28q3.9-2.57,7.87-5c5.27-3.3,10.69-6.37,15.77-9.72s10.37-6.39,15.41-9.57l14.61-9.66c18.76-13,35.17-26,44.86-39.74,6.23-4.64,6.8,1,12-1.72,1.38-1.84,2.64-3.59,4-5.21a59,59,0,0,1,4.37-4.56,126.48,126.48,0,0,1,9.58-8.3l5.06-4.18,2.59-2.16,2.55-2.31c1.7-1.57,3.41-3.22,5.11-5s3.29-3.69,4.91-5.72a62.57,62.57,0,0,0,5.83-9c.85-1.55,1.68-3.09,2.47-4.66s1.53-3.19,2.3-4.79,1.55-3.21,2.37-4.81,1.6-3.27,2.48-4.9,1.82-3.25,2.85-4.87,2.06-3.3,3.24-4.94c9.58-13.32,18-23.6,26.55-34.71s16.94-23.11,25-39.91a28.24,28.24,0,0,0,5.13-4.95c.83-1,1.65-2,2.46-3.16s1.53-2.3,2.28-3.52c1.45-2.44,3-5,4.26-7.67l3.8-7.91c2.26-5.21,4.51-10,6.45-13.56s4.11-5.72,6.25-5.65c.57,2,0,4.32-1,6.75-.51,1.21-1.14,2.46-1.83,3.74s-1.54,2.56-2.33,3.87-1.59,2.63-2.32,4-1.39,2.67-2,4a15,15,0,0,0-1.42,8.07c1.77-2.76,3.56-5.79,5.37-8.28s3.46-4.49,5.25-5.12q-.3,3.22-.43,6.31c-.15,2-.27,4-.33,6s-.09,3.88-.08,5.77-.06,3.73,0,5.56c0,3.67.16,7.28.14,10.85,0,1.8,0,3.59,0,5.38,0,.91,0,1.81,0,2.72s0,1.81-.07,2.72c-.13,3.64-.26,7.4-.65,11.27s-1,7.9-1.85,12.14a126.08,126.08,0,0,1-9.78,28.45l-28.4,42.86c-8.24,12.55-15.28,23.67-21.42,34-11.46,11.29-23.83,22.76-37.06,34.09l-5,4.23c-.83.72-1.67,1.43-2.51,2.14l-2.62,2.1-10.57,8.48-5.31,4.32c-1.78,1.45-3.68,2.77-5.52,4.18l-11.15,8.4c-30,22.42-63.62,43.42-98.82,62.44-4.42,2.36-8.78,4.81-13.23,7.12l-13.46,6.77-6.71,3.41c-2.22,1.15-4.54,2.15-6.8,3.24l-13.6,6.43c-4.49,2.22-9.14,4.14-13.69,6.18l-13.66,6.08-13.76,5.7-6.83,2.86c-2.26,1-4.52,1.91-6.83,2.77-36.48,14.54-72.44,26.82-105.58,37.17-4.26.52-8.43,1.07-12.54,1.66l-12.3,1.78c-4.1.61-8.15,1.27-12.26,2s-8.34,1.43-12.56,2.23l-6.38,1.25-6.59,1.34c-4.45.92-8.94,1.91-13.63,3-9.46,2.16-19.35,4.6-30.35,7.53-13.58-1.67-31.66.2-52,4.26s-43.39,10.86-66.39,19L635.51,1168l-17,6.88-4.18,1.69c-1.39.57-2.78,1.21-4.16,1.81L602,1182l-8,3.5c-1.32.54-2.63,1.18-3.94,1.8l-3.88,1.84c-5.14,2.42-10.14,4.72-15,6.88-4.8,2.37-9.42,4.62-13.85,6.66q-3.33,1.53-6.5,2.91l-1.58.69-1.54.73-3,1.41c-4,1.82-7.74,3.41-11.26,4.72a43,43,0,0,1-3.79,4.79l-1.14,1.24-1.3,1.38q-1.35,1.38-2.82,2.82c-2,1.91-4.15,3.83-6.4,5.85s-4.62,4.14-7.13,6.26c-9.92,8.56-21.35,18-32.54,27.81s-22.08,19.9-31.58,28.94l-6.85,6.54q-3.23,3.2-6.18,6l-2.86,2.7-2.63,2.54c-1.68,1.61-3.25,3.06-4.68,4.31.33,7.15-6.33,19.26-14.34,33.14-2,3.49-4.16,7-6.2,10.7s-4.29,7.28-6.28,11l-3,5.48c-.5.9-1,1.8-1.5,2.68l-1.42,2.7c-1.85,3.58-3.67,7-5.31,10.2-.94-.32.42-6.32.89-9.47s0-3.4-4.51,8.08c-4.31,10.81-2.38,11.52-3.36,17.54-1.48,2.34-3,4.91-4.44,7.52l-4.18,7.89c-2.82,5-5.28,9.57-7.83,11.67-.69,2.82-1.31,5.32-1.71,7.68s-.69,4.51-.93,6.51-.42,3.84-.56,5.61-.16,3.52-.22,5.24c-.08,3.4-.23,7-.41,11.21s-.37,9.08-.75,15.24A89.52,89.52,0,0,1,354,1474.6a47.07,47.07,0,0,1-1.14-7.08,85.21,85.21,0,0,1,0-9.68c.2-4.43.73-8.23,1.21-11.7.25-1.73.51-3.36.77-4.9.14-.77.27-1.52.4-2.25s.33-1.41.48-2.09a102.16,102.16,0,0,1,4-13.23c1.43-3.59,2.85-6.65,4.3-9.87.7-1.62,1.47-3.23,2.27-5s1.59-3.57,2.42-5.61c-1.65-.13-3.49,2.39-4.39,2.76s-.9-1.45,1.36-10.2c2.6-1.3,4.59-4.27,6.34-8.19.44-1,.86-2,1.28-3.11s.88-2.18,1.31-3.33c.86-2.3,1.71-4.75,2.59-7.25s1.85-5,2.86-7.47,2.11-4.89,3.28-7.17c2.43-4.49,5.25-8.37,8.55-10.89a133,133,0,0,0-5.84,13.14,31.85,31.85,0,0,0-2.13,9.08c1.08-2.67,2.18-5.41,3.3-8.19s2.4-5.5,3.63-8.3c2.43-5.61,5.19-11.08,7.88-16.52,1.33-2.74,2.81-5.31,4.18-7.93s2.75-5.19,4.18-7.61l4.15-7.13,2-3.4,2-3.2c-.88,1.26-1.91,2.58-2.81,3.81s-1.75,2.3-2.35,3c-1.19,1.35-1.43,1.08.78-2.82-3.94,5-7.87,10-11.52,15.33s-7.22,10.61-10.68,16c-1.73,2.71-3.32,5.54-5,8.32s-3.26,5.57-4.75,8.47l-4.52,8.65c-1.45,2.93-2.83,5.92-4.21,8.89l-2.06,4.46-1.92,4.58c-1.26,3.06-2.52,6.12-3.74,9.2l-3.37,9.45c-.54,1.58-1.12,3.14-1.62,4.75l-1.48,4.86a276,276,0,0,0-9.08,40.17l-.7,5.24-.67,5.42c-.42,3.62-.63,7.3-.9,11l-.34,5.48c-.12,1.83-.11,3.66-.15,5.49q-.09,5.49-.08,11c.11,3.65.29,7.3.49,11,.11,1.82.19,3.65.34,5.46l.57,5.45c.41,3.62.78,7.25,1.32,10.86s1.21,7.18,1.87,10.76,1.48,7.13,2.32,10.67l1.3,5.3c.43,1.76.88,3.52,1.43,5.26q1.57,5.22,3.24,10.41l.84,2.59.94,2.55,1.94,5.1,2,5.07,1,2.53,1.12,2.48q2.23,5,4.57,9.88c.38.82.79,1.63,1.16,2.46l1.26,2.41,2.55,4.81c1.68,3.21,3.54,6.33,5.38,9.45l2.81,4.66,3,4.57,3,4.54c1,1.51,2.08,3,3.13,4.44l3.19,4.41,1.61,2.19,1.64,2.1,3.22,4.09c1.05,1.32,2.1,2.67,3.17,3.91a317.1,317.1,0,0,0,26.29,28,446.4,446.4,0,0,0,53.31,42.76q26,17.91,53.76,33.59c4.65,2.57,9.28,5.21,14,7.71l14.23,7.43c4.8,2.4,9.64,4.74,14.48,7.12l3.64,1.77,3.68,1.69,7.38,3.38c7.1,7,23.58,15.24,39.07,22.8,24,7.85,44.7,13.81,61.46,16.74,4.19.72,8.12,1.27,11.79,1.62a83.91,83.91,0,0,0,10.27.21,45.11,45.11,0,0,0,8.63-1.17,25.05,25.05,0,0,0,7-2.85c-28.64-7.08-54.1-14.26-83.26-24.69-3.64-1.32-7.35-2.65-11.12-4.06l-11.49-4.54c-1.95-.78-3.94-1.55-5.94-2.38l-6-2.59c-4.06-1.78-8.26-3.52-12.5-5.49l-13.08-6.15c-4.47-2.14-9-4.5-13.69-6.88s-9.45-5-14.37-7.69c-2.45-1.35-4.95-2.71-7.46-4.14l-7.61-4.47a124.37,124.37,0,0,1-18.52-18.51,37.81,37.81,0,0,1-5-8.19,15.14,15.14,0,0,1-1.47-7.06l6.11,3.52c2,1.19,4.07,2.39,6.14,3.53q6.16,3.47,12.32,7.07c8.29,4.61,16.52,9.45,24.92,14,8.32,4.71,16.82,9.14,25.27,13.68l12.79,6.55c2.13,1.11,4.29,2.14,6.44,3.18l6.46,3.13c34.44,16.58,70.06,30.14,104.95,37.27a85.38,85.38,0,0,0,12.16,1.61,82.59,82.59,0,0,1,11.69,1.67c28.94,6.08,50.77,10.06,70.35,13.5,19.61,3.28,37,6,57.12,7.73q7.32.54,14.72,1c4.94.26,9.9.39,14.88.55l3.93.11,1.14,0h1.23l2.47,0,9.89-.11,9.92-.13c3.31-.13,6.61-.32,9.92-.49l10-.52,5-.27,4.95-.45c6.59-.62,13.22-1.19,19.81-1.89l19.64-2.59c3.29-.39,6.49-1,9.73-1.55l9.68-1.65,4.84-.83c.81-.14,1.62-.26,2.42-.43l2.36-.51,9.46-2.07,9.46-2.06,1.18-.25,1.13-.33,2.27-.65,4.52-1.3,9-2.6,4.52-1.3c1.47-.47,2.86-1,4.3-1.53l17.06-6.2a219.58,219.58,0,0,0,31.29-15.52,160.06,160.06,0,0,0,27.47-20.71c7.36-7,15.18-14.29,21.17-23.18s10-19.15,9.53-30.71a108,108,0,0,1-6.29,17.56,104.66,104.66,0,0,1-9.77,16.9,129.6,129.6,0,0,1-26.43,27.12,205.64,205.64,0,0,1-28.94,18.59c-4.75,2.55-9.42,4.88-13.92,7s-9,4-13.14,5.81l-10.24,2.88-2.67.75-2.86.63-5.83,1.29-12.09,2.75-1.55.36-1.62.27-3.27.55-6.62,1.12-6.73,1.16c-2.27.37-4.51.85-6.87,1.11l-14.22,1.9-7.21,1-7.36.75-14.84,1.56c-5,.43-10.05.74-15.07,1.13s-10,.81-15.11.93l-15.06.62c-2.49.14-5,.15-7.47.16l-7.43.07-7.35.08c-2.37,0-5.06.08-6.87,0l-11.06-.24-5.35-.13-5.25-.23-10.14-.45c-26-3.83-50.09-7.81-73.56-12.18s-46.32-9.19-69.64-15.14a653.06,653.06,0,0,1-72-22.57,542.63,542.63,0,0,1-78.28-37.18C584,1742,580,1738.19,574,1734.19c-3-2-6.41-4.16-10.2-6.49s-7.95-4.81-12.24-7.8c2.64-2.9,1-7-3.55-12.05a101.05,101.05,0,0,0-8.9-8.32q-2.72-2.25-5.84-4.64c-2.09-1.59-4.25-3.33-6.55-5.06-5.82-2.89-4.94-.67-4,1.5s2,4.29-3.56,1.11c-9.61-9.49-18.22-19.45-16.48-25,2.47,1.94,5.05,3.92,7.6,5.79l7.38,5.5c2.31,1.78,4.46,3.39,6.26,4.9a29.92,29.92,0,0,1,4.23,4.12c0-3.77-5.8-9.41-10.94-15.16a57.47,57.47,0,0,1-6.49-8.21c-1.48-2.52-2-4.65-.86-6.07,2.32,1.67,4.63,3.35,6.95,4.93s4.64,3.19,7,4.7l3.47,2.28,3.5,2.19,7,4.31c4.61,2.91,9.37,5.52,14,8.2s9.42,5.17,14.13,7.64c18.91,9.85,38,18.38,57.23,26.12s38.61,14.72,58.29,21.36,39.68,13,60.28,19.39c1.27.81,2.45,1.61,3.56,2.42s2.18,1.56,3.21,2.34c2,1.57,4,3.14,6,4.71s4.08,3.15,6.48,4.68a67.06,67.06,0,0,0,8.38,4.41c5.16-1.63,0-4.93-6.71-8.6s-14.8-8.09-16-11.29c3.25.27,6.69.66,10.26,1.13l5.46.76c1.85.27,3.75.47,5.65.74,3.82.5,7.71,1,11.64,1.61l11.86,1.43c2,.22,3.93.49,5.89.67l5.83.5c3.85.3,7.6.62,11.23.76s7.11.17,10.39.13c1.64,0,3.23-.06,4.76-.12s3-.24,4.41-.39c2.43,1.24,3.2,2.78,5.07,4.12a12.2,12.2,0,0,0,4,1.8,32.31,32.31,0,0,0,7.73,1,390.13,390.13,0,0,0,56.86,3.35c4.35,0,9.13-.21,13.63-.4s9-.38,13.4-.79l13-1.13,12.56-1.56c16.5-2.27,32.06-5.1,47.18-8.64,7.61-1.6,15-3.7,22.52-5.53l11.19-3.12,5.64-1.55q2.82-.81,5.64-1.7c11.39-3.58,22.49-7.89,32.71-13.86a82.57,82.57,0,0,0,14.28-10.43,54.93,54.93,0,0,0,11-13.84,48.46,48.46,0,0,0,3.51-8.11,49,49,0,0,0,1.92-8.6,70.58,70.58,0,0,0-.16-17.49c-.35-2.9-.81-5.78-1.34-8.65-.26-1.44-.53-2.87-.83-4.3l-1-4.3q-1.95-8.6-3.89-17.25a503,503,0,0,0-23.57-69.56l-3.78-8.77c-1.27-2.93-2.53-5.88-4-8.77-2.79-5.82-5.59-11.7-8.51-17.56s-6.11-11.6-9.26-17.45-6.49-11.37-9.83-17.13c-2.34-6.51,6.11-2.12-1.55-13.78-14.35-28.54-34.79-61.38-51.75-91.86s-30.09-59-30.36-78.47c-7.13-11.19-10.37-18.9-12.71-25.75s-3.75-12.86-7-20.8a211.21,211.21,0,0,1-13.59-21.07c.13-2.59-.73-6-2.2-10s-3.53-8.5-5.74-13.35-4.71-10-7.06-15.16-4.51-10.37-6.18-15.3a165.42,165.42,0,0,1-7.12-31.71c-1.44-10.4-2.63-20.79-4.67-32.11-3.57-19.7-6.21-33.24-8.86-44.2-1.37-5.47-2.54-10.29-3.83-14.86-1.12-4.57-2.4-8.9-3.31-13.37-.59-2.75-1.21-5.69-1.65-8.75s-1-6.24-1.32-9.48-.8-6.56-1-9.86-.67-6.68-.84-9.79c-1.06-12.64-1.67-24.64-4.29-32.53l-2.48,4.76-2.29,4.86c-.77,1.61-1.54,3.2-2.33,4.73s-1.46,3-2.22,4.42c.15,1.66.29,3.34.43,5s.46,3.4.7,5.11.52,3.43.79,5.17.66,3.53,1,5.31.7,3.58,1.05,5.4.8,3.63,1.21,5.47.8,3.68,1.21,5.55l1.34,5.62c1.71,7.54,3.67,15.3,5.37,23.35,1.87,8,3.43,16.41,4.92,25.2,1.8,11.08,1.73,20.49,2.43,30a103.32,103.32,0,0,0,1.9,14.47,73,73,0,0,0,5.24,15.51l-3.68,1.17c10.82,29.71,20.59,55.53,29.36,79.84s16.74,47,25.18,69.51,17.49,44.87,28.64,68.29a737.78,737.78,0,0,0,41.36,74.83c1.41,3.94,2.82,7.86,4.21,11.73s2.59,7.77,3.87,11.59,2.49,7.6,3.62,11.37,2.19,7.5,3.23,11.19c2.12,7.34,3.85,14.58,5.41,21.58.38,1.76.75,3.49,1.13,5.21.18.87.36,1.72.53,2.58s.27,1.6.39,2.39q.71,4.71,1.2,9.13c-1-2.22-2-4.34-3-6.37l-1.45-3c-.52-1-1.11-2.11-1.65-3.12-2.21-4.1-4.36-7.85-6.46-11.35s-4.2-6.75-6.31-9.86-4.18-6.09-6.24-9.06c-4.14-5.93-8.46-11.75-12.85-18.46-2.2-3.36-4.56-6.91-6.93-10.8s-4.82-8.1-7.46-12.76a725.2,725.2,0,0,1-52.69-71l-6.48-10-3.22-5q-1.61-2.58-3.22-5.16Q913,1357,906.7,1346.21c-8.35-14.36-16.47-29.25-24.22-44.57a830.08,830.08,0,0,1-41.43-96,712.35,712.35,0,0,1-27.91-100c-1.18-12.56-1.9-25-2.36-37.25-.08-3.07-.26-6.12-.27-9.18s-.09-6.09-.14-9.13l.06-9.09c0-3,.08-6,.18-9,0-1.51.08-3,.13-4.51l.06-2.26.14-2.32c.18-3.08.36-6.17.53-9.24s.56-6.12.83-9.17c.15-1.52.26-3,.44-4.56l.57-4.54.58-4.53c.19-1.51.37-3,.63-4.51.49-3,1-6,1.46-9s1.13-5.94,1.69-8.91l.88-4.45c.31-1.48.68-2.94,1-4.41l2.08-8.81L824,942c.76-2.93,1.7-5.8,2.59-8.69s1.73-5.81,2.78-8.65l3-8.59c1.05-2.86,2.21-5.67,3.32-8.52l1.7-4.26,1.85-4.21c1.25-2.79,2.44-5.63,3.77-8.41a316.09,316.09,0,0,1,18-32.89,283.67,283.67,0,0,1,23.1-31.24c7.76-3.28,19.59-14.22,34.46-25.68,1.87-1.42,3.69-2.94,5.66-4.35l6-4.28,3-2.16,3.12-2,6.25-4.07c2.07-1.35,4.27-2.54,6.39-3.78s4.21-2.47,6.36-3.57l6.38-3.17c2.09-1,4.14-2,6.23-2.83,4.5-2.61,4.15-4.23,4.89-6.09a6.51,6.51,0,0,1,2.73-3.08,42.74,42.74,0,0,1,9.18-3.9c2.27-.95,4.59-1.6,6.8-2.33s4.39-1.35,6.5-2c4.26-1.1,8.34-1.9,12.18-2.64a115.07,115.07,0,0,1,21-1.58,106.81,106.81,0,0,1,31.33,5.26c4.42,1.53,8.59,3.1,12.72,4.73l6.18,2.64c2.07.88,4.18,1.69,6.3,2.68s4.32,1.89,6.58,2.8l1.72.68,1.73.76c1.16.51,2.35,1,3.56,1.51,4.89,1.88,10.1,4.14,16,6.33a71.58,71.58,0,0,0,7.49,2.52c1.43.38,2.89.86,4.41,1.35l4.67,1.45c3.21.92,6.38,2.18,9.53,3.34a73.76,73.76,0,0,1,8.8,3.93,149.2,149.2,0,0,1,13.3,7.86c2.38,1.64,4.82,3.38,7.3,5.13.61.45,1.24.88,1.85,1.33l1.8,1.42,3.61,2.82c1.18,1,2.41,1.84,3.54,2.82l3.37,2.88c2.21,1.88,4.38,3.67,6.31,5.48s3.8,3.43,5.49,4.9,3.12,2.89,4.43,4c9.38,8.09,18.4,16.37,26.91,25.23a288.74,288.74,0,0,1,24,28.32c1.81,2.56,3.73,5.09,5.47,7.74s3.46,5.34,5.2,8,3.24,5.56,4.85,8.39c.83,1.4,1.54,2.87,2.29,4.32s1.47,2.94,2.21,4.41a178.45,178.45,0,0,1,13.65,38.55c.54,2.48,1.1,5,1.62,7.48s.85,5.06,1.28,7.61c.2,1.28.45,2.55.61,3.84s.31,2.58.46,3.87c.29,2.59.65,5.21.86,7.79.36,5.15.81,10.33.88,15.56.23,5.22.1,10.46,0,15.74-.06,2.63-.25,5.27-.37,7.91l-.22,4-.36,4c-.26,2.64-.47,5.3-.78,8s-.7,5.28-1.05,7.93l-.27,2-.34,2-.68,4c-.45,2.64-.89,5.29-1.47,7.91l-1.68,7.88c-.65,2.6-1.3,5.22-2,7.83a321.56,321.56,0,0,1-22.58,60.53c-4.78,9.64-9.87,19.13-15.51,28.24s-11.49,18-17.83,26.53c-11.73,12.91-24.83,27.25-39.59,41.92-7.44,7.27-15.26,14.65-23.55,21.89s-17.07,14.31-26.25,21.09a413.21,413.21,0,0,1-58.67,36l-7.73,3.76c-2.58,1.22-5.12,2.52-7.76,3.58q-7.86,3.33-15.67,6.48a323.42,323.42,0,0,1-31.4,10.17c-15,7.85-33.26,14.37-53,20q-7.42,2-15.08,4c-5.11,1.21-10.3,2.34-15.52,3.51s-10.48,2.18-15.77,3.2-10.57,2.09-15.88,2.92c-42.39,7.46-84.47,11.82-114.78,21.15-11.36,1.06-3.72-4.75-17.51-2.85-18.43,4.2-38.16,6-56.08,8.24s-34.1,5.08-45.51,11.1c-4.85.5-8.86.71-12.27.72a61,61,0,0,1-8.7-.59c-54.83,10.59-108.48,26-157.33,50.17l-4.58,2.25-4.52,2.37-4.53,2.36-4.09,2.36-4.1,2.33-4.05,2.53c-1.35.84-2.72,1.64-4.07,2.5l-4,2.7a319.66,319.66,0,0,0-31.48,24,342.24,342.24,0,0,0-29.49,28.75,314.52,314.52,0,0,0-26.1,33.14l-2.84,2.27c-.94.76-1.79,1.55-2.7,2.33-1.78,1.57-3.66,3.12-5.41,4.73l-5.2,4.89c-.43.42-.89.82-1.31,1.24l-1.23,1.27-2.48,2.55-2.51,2.58c-.81.87-1.56,1.75-2.35,2.64-1.54,1.78-3.22,3.57-4.72,5.41l-4.45,5.63c-.79.95-1.45,1.92-2.14,2.9l-2.07,3-2.1,3-1.9,3.08c-.64,1.05-1.25,2-1.88,3l-1,1.5-.84,1.54-3.44,6.38c-1,2.2-2,4.46-3,6.77a120.68,120.68,0,0,0-8.27,30.69,130.81,130.81,0,0,0-5.23,40.84,100.46,100.46,0,0,0,12.8,46.73,116.29,116.29,0,0,0,17.85,24.13c1.86,2,3.89,3.89,5.95,5.86s4.29,3.83,6.62,5.67a138.3,138.3,0,0,0,15.25,10.7,151.45,151.45,0,0,0,56.68,9.93,146.52,146.52,0,0,0,46.67-8.41,130,130,0,0,0,33.93-18.08,124.32,124.32,0,0,0,22-21.17,48.86,48.86,0,0,0,11.6-9.78,30.06,30.06,0,0,0,1.93-2.46c.59-.83,1.15-1.6,1.63-2.41a36,36,0,0,0,2.39-4.63,33.11,33.11,0,0,0,1.48-4.28c.36-1.37.62-2.65.82-3.86a62.77,62.77,0,0,0,.53-6.4,92.8,92.8,0,0,0,9.17-14.92,132.85,132.85,0,0,0,10.42-27.37c.36-1.11.53-2.29.8-3.42l.78-3.39q.6-3.42,1.19-6.82l.49-3.54c.17-1.22.38-2.42.47-3.68l.38-3.72c.06-.62.15-1.23.2-1.86l.11-1.89a221.12,221.12,0,0,0-.12-31.39c-.06-1.36-.2-2.74-.34-4.13s-.25-2.78-.38-4.18c-.3-2.8-.68-5.65-1-8.51s-.81-5.8-1.32-8.76-.95-5.94-1.6-9l-1-5.22c-.36-1.73-.71-3.46-1.07-5.18-.17-.86-.33-1.72-.5-2.57s-.38-1.72-.56-2.57q-.54-2.57-1.07-5.1c-1.53-6.79-3-13.47-4.55-20.08-3.1-13.21-6.26-26.1-9.59-38.77-1.68-6.32-3.32-12.61-5.06-18.83-.43-1.56-.85-3.12-1.28-4.67s-.88-3.1-1.33-4.64l-1.32-4.67-1.41-4.79c-3.77-12.79-7.61-25.61-11.58-38.57-7.93-26-16.34-52.38-25.53-80.54-4.6-14.09-9.36-28.66-14.21-44-2.46-7.64-4.85-15.54-7.33-23.62s-4.89-16.44-7.19-25.14a40.31,40.31,0,0,1,.09-4.33c.11-1.35.24-2.66.33-4a50.52,50.52,0,0,0-.52-10.63c-4.85-3.48-5.79-18.08-6.08-32.51-.07-1.8-.07-3.61-.09-5.39s-.07-3.55-.15-5.27c-.14-3.43-.23-6.71-.62-9.66a36,36,0,0,0-1.68-7.77,10.17,10.17,0,0,0-3.53-5c-1.07,3.13-2.1,6.77-3.05,10.84q-.63,3-1.2,6.39c-.38,2.24-.74,4.57-1,7s-.51,4.9-.73,7.47-.27,5.19-.37,7.88-.09,5.44-.06,8.23.08,5.65.27,8.5c1.06,23,6.39,47.74,13.74,68.51-1.19,8.17,1.42,18.18,5.34,28.82s9.15,21.9,12.94,33.23c4.77,14.22,7.9,28,10.77,41s5.5,25.38,9.28,36.62c2.2,6.48,7.46,12.24,8.28,14.65,3.1,8.79,4.92,17.09,7,25.86,1.11,4.49,2,8.7,3.32,13.26.6,2.28,1.28,4.62,2.05,7s1.56,4.92,2.51,7.51c4.13,11.58,7.23,21.1,9.91,29.48s5,15.63,7,22.67c1.12,3.54,2,7,3.09,10.54.92,3.53,2,7.15,2.89,10.91a246,246,0,0,1,5.14,25.48,216.58,216.58,0,0,1,2.27,28.15,176.77,176.77,0,0,1-1.55,25.83c-.16,1-.31,2-.46,3s-.23,1.9-.42,2.77c-.37,1.76-.63,3.57-1,5.33s-.78,3.52-1.2,5.27-.93,3.46-1.39,5.19a145,145,0,0,1-7.42,19.66c-5.88,13-13.81,24-21.28,33.57s-14.46,17.93-18.85,26.36a107.55,107.55,0,0,0-18.33,7.46c-5.25,2.75-9.88,5.76-14.69,8.82a120.18,120.18,0,0,1-15.54,8.62,60.56,60.56,0,0,1-19.7,5.09c-10.3-.9-17.49-2-23.13-2.82-2.8-.46-5.24-.77-7.46-1.18l-3.24-.53-3.07-.61a82.73,82.73,0,0,1-13.4-3.83A113.54,113.54,0,0,1,359.63,1772a113.78,113.78,0,0,1-22.45-41.79,106.63,106.63,0,0,1-3.42-41.45q.5-3.6,1-7.23c.42-2.38,1-4.75,1.44-7s1.14-4.59,1.79-6.84,1.25-4.43,2.1-6.62a121.6,121.6,0,0,1,11.49-24.23l.81-1.38.4-.69.47-.69,1.82-2.69c.6-.89,1.14-1.78,1.75-2.65l1.94-2.57c.61-.83,1.23-1.68,1.84-2.53s1.36-1.58,2-2.37c.32-.35.67-.88,1-1.35l1-1.43c.68-1,1.5-1.92,2.22-2.88,5.88-7.68,12.47-15.53,20-23.77a100.88,100.88,0,0,1,12.69-21.85c5.06-6.25,10.45-11.16,16-13.42-4.74,9-9.85,18.64-14.49,28.61l-.9,1.86c-.32.62-.54,1.26-.81,1.88-.54,1.26-1.09,2.52-1.66,3.78s-1,2.53-1.56,3.79-1,2.53-1.57,3.8c-1.77,5.07-3.73,10.14-5,15.11l-.54,1.86c-.09.31-.21.62-.28.93l-.19.91c-.26,1.23-.55,2.44-.86,3.66-.08.3-.18.61-.23.91l-.14.89-.3,1.7a17.88,17.88,0,0,0-.43,2.65c-.09.93-.22,1.85-.4,2.78s-.09,1.87-.21,2.81c0,.47-.1.94-.17,1.41s0,1,0,1.43c0,1-.08,1.9-.13,2.86a72.52,72.52,0,0,0,1,11.6,65.23,65.23,0,0,0,3.2,11.43,49.73,49.73,0,0,0,6.22,11.49,52.3,52.3,0,0,0,9,9.5A55.76,55.76,0,0,0,428,1695.23c.49.14,1,.21,1.51.31s1,.22,1.58.31l1.9.33,2,.27a73.72,73.72,0,0,0,7.82.61,65.77,65.77,0,0,0,14.82-1.25c1.14-.19,2.36-.53,3.22-.76l1.26-.45a9.51,9.51,0,0,0,1.22-.46,36,36,0,0,0,4.59-2.19,30,30,0,0,0,7.34-5.9c-3.29-2.08-5.68-2-8.14-1.36-1.21.38-2.45.8-3.71,1.27-.64.19-1.28.42-1.93.57a11.43,11.43,0,0,1-2.05.32,80.86,80.86,0,0,1-10.23.07,84.66,84.66,0,0,1-10.56-1.33c-.88-.14-1.74-.36-2.61-.54s-1.77-.45-2.48-.6l-1.84-.52c-.58-.23-1.2-.35-1.79-.59a55.62,55.62,0,0,1-7-2.94,56.26,56.26,0,0,1-6.62-4,50.46,50.46,0,0,1-6-5.1,42,42,0,0,1-8.9-13.34,50.85,50.85,0,0,1-3.82-15.69c-.05-.7-.09-1.4-.13-2.1a5.26,5.26,0,0,1,0-1.05c0-.35,0-.71,0-1.06s0-.71,0-1.06a3.84,3.84,0,0,1,0-1.07,18.74,18.74,0,0,0,.13-2.13,12.85,12.85,0,0,1,.23-2.14c0-.36.07-.72.1-1.08a4.54,4.54,0,0,1,.1-1.06c.08-.33.14-.65.19-1l.24-1.44a28.39,28.39,0,0,1,.7-3.17,207.18,207.18,0,0,1,7.42-25.29,172.56,172.56,0,0,1,13.73-28.41,153.12,153.12,0,0,1,21.48-27.87,127.25,127.25,0,0,1,29.78-22.64l2.42-1.34c.81-.41,1.63-.78,2.44-1.17l4.78-2.26,4.75-1.9c.78-.3,1.56-.64,2.33-.92l2.34-.78,4.65-1.56,5.57-1.71c.93-.28,1.84-.58,2.78-.85l2.83-.77,5.68-1.58c3.9-.94,7.72-2,11.8-3,2-.47,4-1,6.12-1.48s4.21-1,6.35-1.46l28.22-6.3c1.87,1.72,11-1,7.86,3.76,12.07-2.87,24.4-3.69,36.72-3.53s24.68,1.27,37.08,2.28c24.87,2.06,50,3.65,77.24-3.58C721.27,1494.38,711,1494.75,719.54,1497Zm-286-1049.86c5.34-1.13,4.9,1.33.69,2.48,1.08,1.28,7.89-1,12.86-2.17-.41,2.87-15.23,5.41-15.68,8.28,7.31.33,16.64-.6,26.39-1.82-11,5.69-21.19,6.25-26.62,4.27S425.15,451.65,433.56,447.12ZM711,431.69c2.74,5.88-10.4,11-25.73,15.2-3.84,1-7.82,1.95-11.74,2.79l-5.8,1.17c-1.89.4-3.74.77-5.53,1.11a155.62,155.62,0,0,1-16.45,2.39,101.48,101.48,0,0,1-11.05,0,65.1,65.1,0,0,1-10.37-1.1c-5.74-1.2-8.17-3.37-1.45-6.78,7.45-3.88,23.52-5.39,40.64-7.22,8.57-.87,17.43-1.61,25.64-2.82,4.11-.58,8-1.3,11.73-2.07A77.71,77.71,0,0,0,711,431.69Zm117.41-28.44c-1.58-2.88.35-5,3.88-6.74,6,1.15,13.9,1.62,22.57,1.82,4.33.13,8.87.09,13.49.21l14,.29a236,236,0,0,1,26.17,1.68c7.82,1,14.39,2.6,18.67,5.05-10.26-.14-18.67-.48-26.23-.91s-14.28-.71-21.16-1.1A472.87,472.87,0,0,0,828.36,403.25Zm137.19,16.19c-3.08-3.55,8.45-2.53,8.56-5.07,5.59,2.65,18.41,3.22,21.12,6.71C980.52,422,979,418.94,965.55,419.44Zm13-30.81c48.75,4.43,103,11.64,158.76,15.73,12,1,24,1.29,35.73,1.53,5.88.16,11.72.26,17.5.35l8.64.11,4.28.06,4.25.13c11.28.4,22.3.82,32.85,1.87a218.32,218.32,0,0,1,30.12,5.12c-11,.3-23.33-.18-36.33-.79-6.5-.25-13.16-.56-19.87-.89l-10.08-.51c-3.36-.16-6.73-.24-10.08-.36-13.41-.41-26.57-.82-38.67-.38-6,.18-11.81.47-17.19.91a138.66,138.66,0,0,0-14.91,2c-10.41-1.49-21.32-3.43-32.38-4.94s-22.22-3.3-33.11-4.36c-5.44-.57-10.81-1.08-16-1.49-2.62-.21-5.21-.39-7.75-.55s-5.06-.19-7.52-.25a181.73,181.73,0,0,0-26.91,1.12C996.54,397.21,976.52,396.09,978.58,388.63Zm29.4,32.75c0-1.3.06-2.58.1-3.88,4.42-.16,9.75-.35,15.26-.44s11.23-.09,16.41.31c10.37.72,18.65,2.37,19.14,6a155.13,155.13,0,0,1-25.22.57C1026.31,423.54,1018.86,422.61,1008,421.38Zm54.91,6c3.37-1,4.72-2.69,4.54-4.95,9.38.23,12.93,2.2,11.78,3.74-.57.77-2.31,1.43-5.08,1.71A49.32,49.32,0,0,1,1062.89,427.4Zm2.81,26c5,4.72,20.34,1.86,29.09,3.17,8.46,1.31,15.13,3.7,21.45,5.86,3.17,1.09,6.24,2.16,9.42,3.07,1.58.46,3.19.86,4.85,1.24s3.36.73,5.13,1c26.09,4,37.16-2.39,70.87,2.88,10.62,1.32,7.3-3.84,13.3-4.69,9.89.65,19.67,1.68,29.45,2.58,4.88.48,9.76.91,14.62,1.45l14.54,1.7,14.51,1.74c4.83.6,9.63,1.33,14.44,2l14.41,2.08c4.82.69,9.57,1.42,14.17,2.2l6.37,1.09c1.87.32,3.75.64,5.63,1l2.82.54,2.81.6c1.88.39,3.74.84,5.61,1.29a150.47,150.47,0,0,1,22.08,7.09,98.8,98.8,0,0,1,20.38,11.4,82.66,82.66,0,0,1,16.68,16.58A94.32,94.32,0,0,1,1430.06,540a126.94,126.94,0,0,1,6.89,23.14,169.06,169.06,0,0,1,3,24.28l.24,6.16.06,6.36c0,4.71-.13,9.43-.43,14.37a362.83,362.83,0,0,1-7.88,59.37,396.4,396.4,0,0,1-18.36,59.89c-2.6-2.64-3.36-7.48-3.35-13.19-.2-5.77.52-12.39.52-18.7,0-1.58,0-3.12,0-4.62a40.86,40.86,0,0,0-.26-4.36,30.29,30.29,0,0,0-1.61-7.39c-1.58-4.18-4.53-6.59-9.51-6.06q.49-4,1-8c.17-1.31.37-2.62.51-3.92s.27-2.61.41-3.9c.29-2.59.58-5.15.86-7.7s.46-5.07.68-7.58c.12-1.25.24-2.5.37-3.75s.17-2.48.25-3.72q.27-3.71.54-7.36c.18-2.44.24-4.86.38-7.26s.31-4.8.33-7.17.12-4.74.18-7.08c0-1.17.07-2.34.1-3.5V605c0-1.09,0-2.19,0-3.28s0-2-.08-3.07c0-.72,0-1.45,0-2.17s-.09-1.54-.12-2.3a126,126,0,0,0-1.86-18.05c-2.13-11.72-6.34-23-13.73-31.84A45.43,45.43,0,0,0,1376,533.38a50.84,50.84,0,0,0-16.63-5.45c-3.49-1.58-6.95-3-10.4-4.29s-6.89-2.48-10.36-3.63l-5.22-1.68-1.3-.43-2-.56-4.44-1.2-4.61-1.22-4.81-1.21-9.73-2.44c-6.53-1.62-13.11-3.34-19.87-4.93s-13.67-3.11-20.78-4.66c-3.56-.76-7.15-1.6-10.83-2.29l-11.2-2.11-11.59-2.07c-3.94-.7-7.94-1.38-12-1.95-33.74-5.23-67.45-9.15-95.13-14.94-6.93-1.37-13.48-2.88-19.57-4.57q-4.56-1.28-8.76-2.68c-2.8-.88-5.48-1.82-8-2.82C1078.53,464.27,1070.62,459.4,1065.7,453.36Zm272.59,74.11c3.34.71,4.42,2.09,5.06,3.55s.9,3,2.57,4.17a26,26,0,0,1,12.75,7.63c2.74,3.06,4.43,6.33,6.39,9.89.34.48.72,1,1.13,1.44s.7,1.06,1.09,1.59.84,1,1.23,1.6l1.19,1.73.63.88.58.93c.4.62.81,1.25,1.22,1.9s.77,1.32,1.17,2,.81,1.35,1.15,2.07a74.87,74.87,0,0,1,4.06,9.06,77.05,77.05,0,0,1,2.83,9.88,61.57,61.57,0,0,1,1.34,10c0,.82.15,1.62.15,2.42,0,.35,0,.7,0,1,0,.52,0,1,0,1.56,0,1.25,0,2.57-.07,3.84s-.11,2.53-.16,3.76c-.79,10.68-2.57,19.67-5.71,25.45.27-1.31.52-2.59.65-3.85s.19-2.49.21-3.7a54.16,54.16,0,0,0-.34-7.05c-.34-2.28-.79-4.5-1.29-6.69-.26-1.09-.52-2.17-.77-3.26l-.2-.81-.24-.73-.46-1.47c-.62-2-1.18-3.94-1.81-5.81a2.58,2.58,0,0,0-.42-.9c-.13-.22-.25-.43-.36-.64-.22-.51-.5-1-.7-1.55a13,13,0,0,1-.58-7c-4.6-2.6-8.66-4.62-12.25-6.51a100.58,100.58,0,0,1-9.63-5.61c-.75-.48-1.42-1-2.17-1.51-.36-.26-.71-.52-1-.8a10.06,10.06,0,0,1-1.12-.77c-.18-.14-.35-.29-.51-.44s-.39-.26-.57-.4a7.61,7.61,0,0,1-1.08-.87c-.79-.53-1.49-1.18-2.3-1.77-3.16-2.41-6.69-5-11.35-8.08a17.48,17.48,0,0,1-2.91-2.59c-.5-.5-1-1.14-1.49-1.67-.26-.28-.52-.58-.78-.89l-.2-.24s0-.07-.13-.12l-.27-.15c-.33-.19-.83-.41-1.26-.63-1.77-.85-3.52-1.72-5.49-2.58l-2.87-1.27c-1-.41-2-.82-3.05-1.23-4.11-1.6-8.23-3.07-12.37-4.25-15.37-4.53-31.37-6.57-45.27-9-14-2.21-25.88-4.62-33.38-9.46,3.26-4,11-5.73,21.23-6.26,2.56-.13,5.28-.19,8.13-.18s5.82.08,8.88.27c6.12.35,12.62.89,19.26,1.5,3.32.32,6.68.61,10,1l10,1.14c6.65.75,13.2,1.43,19.4,1.92l4.43.34,4.17.26c1.32.08,2.61.13,3.87.17h.83l.51-.06,1-.14c.66-.1,1.32-.23,2-.38s1.28-.26,1.9-.42A31,31,0,0,0,1338.29,527.47Zm-54.61-113c5.15-1,9.31-.45,14.41.47l8.61,1.57c3.26.58,7,1.14,11.5,1.53-1.29,2.84-7.29,2.4-14.28,1S1288.9,415.48,1283.68,414.44Zm99.63,520.79c-18.09,23.83-36.78,46.7-57.73,68.47-2.57,2.77-5.31,5.39-8,8.09l-4,4c-1.36,1.34-2.77,2.64-4.15,3.95-2.8,2.61-5.57,5.31-8.45,7.85l-8.76,7.59c-11.64,10.32-24.33,19.8-37.56,29.25-6.28,4.18-12.25,8-18,11.63-1.45.9-2.87,1.79-4.29,2.66s-2.87,1.65-4.29,2.47l-8.44,4.67-8.27,4.49c-2.74,1.46-5.43,3-8.22,4.29l-16.65,8.19-4.22,2.1c-1.41.71-2.82,1.43-4.28,2.08l-8.84,4.14-9.13,4.4c-3.11,1.49-6.23,3.15-9.54,4.63-6.59,3.06-13.48,6.38-20.79,10-1.82.94-3.7,1.83-5.62,2.72l-5.82,2.77q-5.91,2.85-12.22,6c-4.89,2.52-9.37,4.79-13.69,7.28s-8.56,5.06-13.12,7.83l-3.49,2.1L1072,1161c-2.54,1.4-5.21,2.85-8.08,4.34s-5.93,3.06-9.24,4.67c-1.66.8-3.38,1.63-5.18,2.44l-5.63,2.39q-6.55,2.72-13.14,5.15l-6.54,2.4c-2.17.8-4.38,1.46-6.54,2.17l-25.36,8.13a243.7,243.7,0,0,0-23.14,8.24,107,107,0,0,0-19.7,10.15c-20.67,4.62-41.23,8-60.68,12.11s-37.72,8.64-53.94,15.72c2.15-3,6.73-6.41,13-10.15s14-7.66,22.47-11.83l26.49-12.71c2.22-1,4.42-2.11,6.61-3.14s4.33-2.06,6.43-3.14c4.19-2.13,8.23-4.18,12-6.15l8.41-2c1.39-.35,2.8-.68,4.19-1l4.17-1.14,16.66-4.57c5.56-1.47,11-3.18,16.53-4.86l16.44-5,16.26-5.47,8.12-2.75c1.34-.47,2.7-.9,4-1.4l4-1.48,16-6c2.66-1,5.35-1.93,8-3l7.89-3.2,15.75-6.38c5.21-2.21,10.36-4.53,15.53-6.79l7.75-3.4,3.86-1.7,3.82-1.81,15.22-7.24c2.53-1.21,5.08-2.38,7.59-3.62l7.47-3.84,14.92-7.63c2.51-1.22,4.91-2.64,7.36-4l7.32-4,7.31-4c2.42-1.35,4.9-2.61,7.26-4.07a991.81,991.81,0,0,0,109.4-73l6.5-4.9c2.15-1.65,4.24-3.38,6.37-5.06s4.26-3.36,6.36-5.07l6.27-5.16c8.38-6.87,16.55-13.93,24.66-21q24.29-21.39,47-44.25ZM618,1302.13c.08,2-10.14,5.69-9.18,7.59-1.15.46-2.35.84-3.44,1.37l-3.28,1.54q-3.25,1.55-6.39,3.14c-2.08,1.07-4.18,2.14-6.14,3.25s-3.69,2.28-5.49,3.42a135.66,135.66,0,0,0-19.25,15.46l-2.14,2c-.71.67-1.38,1.4-2.06,2.1-1.35,1.41-2.69,2.8-4,4.19s-2.54,2.86-3.79,4.26-2.51,2.79-3.67,4.25c-2.34,2.88-4.73,5.63-6.91,8.49l-3.37,4.17q-1.61,2.13-3.24,4.18c-4.18,5.21-8.85,10-13.83,15.36-4.8,5.42-10,11.31-14.35,18.83a72.17,72.17,0,0,0-4.08,7.94c-1.35,2.74-2.35,5.66-3.46,8.54-.27.72-.56,1.44-.81,2.16l-.7,2.19c-.47,1.45-.93,2.9-1.39,4.33s-.85,2.85-1.25,4.25-.81,2.78-1.22,4.12c-.78,2.69-1.42,5.29-2.24,7.68-.43,1.19-.72,2.36-1.11,3.46s-.76,2.16-1.19,3.16a34.75,34.75,0,0,1-2.71,5.26,12.55,12.55,0,0,1-3.53,3.58c.74,10.82-.62,24.21.35,38.33.19,1.75.39,3.5.58,5.25.11.87.17,1.75.31,2.62s.33,1.72.49,2.58c.35,1.71.6,3.43,1,5.09s.95,3.28,1.41,4.89a36.8,36.8,0,0,0,1.7,4.62c.64,1.49,1.24,3,1.93,4.32s1.53,2.65,2.32,3.88a25,25,0,0,0,2.5,3.44,4.05,4.05,0,0,1-2.86-.63,20.54,20.54,0,0,1-3.45-2.63c-.62-.56-1.25-1.16-1.9-1.79l-1-1-.89-1c-1.19-1.37-2.39-2.75-3.56-4-.57-.62-1.17-1.19-1.68-1.73a17,17,0,0,0-1.47-1.4,3.79,3.79,0,0,0-2.58-1.16c-.75.08-1.38.69-1.85,2a13.36,13.36,0,0,0-.58,2.61,35.9,35.9,0,0,0,0,3.82,22.15,22.15,0,0,0,2.05,2.77,11.23,11.23,0,0,0,2.12,1.94,23.64,23.64,0,0,0,4.36,2.39,38.63,38.63,0,0,1,4.27,2,18.17,18.17,0,0,1,4.56,3.34c4.7,9.67,9.25,17.32,12,23.45.67,1.55,1.31,3,1.78,4.36a31,31,0,0,1,1.05,3.89,8.48,8.48,0,0,1-.7,6,76.1,76.1,0,0,1-11.49-9.53,99.45,99.45,0,0,1-12.28-14.8,119.16,119.16,0,0,1-10.79-19.83l-2.12-5.63c-.34-1-.74-1.89-1-2.87l-.87-2.94-.87-3c-.28-1-.61-2-.8-3q-.65-3-1.31-6.11l-.32-1.54-.22-1.56-.45-3.11c-.29-2.08-.62-4.16-.71-6.26s-.3-4.19-.45-6.27,0-4.18,0-6.25c0-1,0-2.08,0-3.11s.13-2.06.19-3.08.13-2,.19-3.06.11-2,.26-3c.51-4,.94-8,1.77-11.86a130.72,130.72,0,0,1,13.42-38.27c3.26-14.41,9.35-26.68,16.9-37.94s16.71-21.61,27.26-32.47c-.44-1.62-1.82-.93-3.63.77-.9.85-1.91,2-3,3.14s-2,2.52-3,3.75a70.15,70.15,0,0,1,8.09-11.66,90.12,90.12,0,0,1,10.3-10,122.15,122.15,0,0,1,11.73-8.59c4.17-2.55,8.33-5.09,12.72-7.3s8.76-4.33,13.1-6.45c4.46-1.94,8.79-4,13.19-5.87l3.24-1.49,3.38-1.47c2.25-1,4.48-2,6.66-3.13s4.35-2.26,6.47-3.49,4.36-2.31,6.47-3.59C614.5,1297.53,610.6,1305.53,618,1302.13Zm-99.51,282.72c4.92,6.15,6.82,10.63,11.23,16.11-1.89.81-4.46.54-7.58-.94a29.83,29.83,0,0,1-5.16-3.09A54.28,54.28,0,0,1,511,1592c-1.42-2.45-2.06-4.2-2.08-5.46a2.16,2.16,0,0,1,1.34-2.32,7.28,7.28,0,0,1,3.51-.19C515.22,1584.18,516.84,1584.51,518.45,1584.85Zm198.09,54.2c12.48,4.48,25.18,8.62,38.12,12l4.83,1.3,4.87,1.16c3.25.77,6.49,1.58,9.74,2.3,6.54,1.34,13,2.79,19.59,3.87,6.52,1.26,13.09,2.16,19.6,3.16,3.26.47,6.54.82,9.79,1.24l4.88.62c1.62.18,3.25.32,4.88.48l9.71,1,9.67.7c1.6.11,3.2.27,4.81.34l4.79.24c3.2.14,6.37.35,9.54.45l13.86.43c4.7,0,9.47.18,14.3.21l7.3,0h4.84l.93,0c2.47-.09,5-.08,7.5-.21a260.36,260.36,0,0,0,31-2.87c2.59-.37,5.16-.92,7.72-1.39s5.07-1.12,7.56-1.7a53.74,53.74,0,0,0,13.95-5.38c4.18-2.43,7.83-5.72,9.82-10.05a17.35,17.35,0,0,0,1.55-7,22.86,22.86,0,0,0-1.2-7.28c.71-2.8.7-6.61.23-11-.11-1.11-.24-2.26-.4-3.44s-.42-2.36-.66-3.58-.53-2.45-.84-3.69l-.48-1.88-.59-1.85a75.92,75.92,0,0,0-2.76-7.29,62.29,62.29,0,0,0-3.55-6.55c-2.61-4-5.61-7.1-8.83-8.69-.5-1.45-1-2.91-1.62-4.35s-1.1-2.74-2-4.63c-.85-1.74-1.73-3.48-2.64-5.19l-1.48-2.75q-1.34-2.39-2.66-4.77-2.67-4.77-5.4-9.48l-1.36-2.35-1.44-2.35L951,1544l-5.83-9.31c-2-3.1-4.07-6.21-6.1-9.28-16.36-24.62-34.24-48.62-51-73-9.55-17.67-20.19-35.53-31.56-54.49-5.67-9.51-11.44-19.17-17.23-29.07s-11.59-20-17.3-30.44a730.58,730.58,0,0,1-32.44-66c-4.93-11.69-9.61-23.64-13.78-36s-8-25.07-11.09-38.12a203.1,203.1,0,0,1-4.69-33.46c-.38-5.45-.76-10.91-1.16-16.6-.23-2.84-.47-5.73-.72-8.71s-.6-6-1-9.15c-.3-2.74-.66-5.56-1.05-8.42l-.63-4.35c-.19-1.47-.39-3-.58-4.46-.42-3-.84-6.06-1.27-9.14s-.76-6.27-1.14-9.44c-1.43-12.73-2.51-26-2.07-38.94.08-4.64.43-9.28.81-13.89s.92-9.21,1.52-13.77l.45-3.42.24-1.71.29-1.82c.41-2.42.81-4.83,1.22-7.24s.79-4.82,1.32-7.18l1.53-7.07c4.19-18.79,9.72-36.63,15.35-54.19.65-2,1.28-4.12,1.91-6.29s1.36-4.37,2-6.64,1.35-4.57,2-6.89,1.48-4.63,2.22-6.95,1.53-4.62,2.29-6.91,1.66-4.5,2.5-6.68a118.44,118.44,0,0,1,5.34-12.17,59.42,59.42,0,0,1,8.16-11.92c1.44-1.7,2.86-3.37,4.26-5.13.7-.88,1.38-1.78,2.07-2.73S807.32,871,808,870l13-20.18,7-10.32c1.14-1.73,2.37-3.42,3.6-5.1l3.67-5c9.89-13.26,20.7-25.28,31.24-33.24a282.09,282.09,0,0,1,52-46.59c2.38-1.75,4.95-3.31,7.45-4.94s5-3.22,7.6-4.77l7.89-4.47,4-2.21c1.34-.72,2.73-1.38,4.09-2.07l8.28-4.05c1.37-.69,2.81-1.28,4.23-1.9l4.3-1.83,4.32-1.81,2.17-.89c.72-.29,1.47-.55,2.21-.82l8.94-3.19c3-1.1,6.06-2,9.14-2.88s6.18-1.81,9.31-2.65l9.54-2.19,4.81-1.07c1.62-.3,3.25-.57,4.88-.85l9.86-1.6c3.31-.45,6.65-.76,10-1.12,6.67-.81,13.65-1,20.64-1.26,3.5-.06,7,0,10.55.08l5.33.11,5.33.36,5.37.39c1.79.15,3.6.24,5.38.49q5.37.66,10.81,1.38a287.43,287.43,0,0,1,43.45,10.13,271.81,271.81,0,0,0-40.94-5.3c-3.38-.16-6.77-.14-10.08-.17l-4.93,0c-1.64,0-3.27.16-4.88.24q-4.85.3-9.46.7c-3.08.33-6.1.8-9,1.25a128.15,128.15,0,0,0-16.31,3.6c-1.26.35-2.48.71-3.67,1.08s-2.31.83-3.43,1.25c-2.22.86-4.32,1.73-6.28,2.63a59.08,59.08,0,0,0-5.46,2.77,54.69,54.69,0,0,0-4.56,3.08,27.32,27.32,0,0,0-6.31,6.34c-3.42.61-6.78,1.44-10.14,2.19-1.68.39-3.36.75-5,1.18l-4.93,1.42-4.9,1.45c-1.63.48-3.26,1-4.84,1.56l-9.5,3.42c-1.59.55-3.1,1.26-4.64,1.89l-4.6,2-4.57,2-4.44,2.17L961,754.81c-1.47.74-3,1.43-4.38,2.24l-8.53,4.78c-22.43,13.13-42.42,28.87-61,46.41-3.44,3.1-6.34,6.13-9.18,8.93-1.4,1.42-2.81,2.75-4.09,4.14L870,825.36c-1.24,1.34-2.46,2.65-3.67,4s-2.33,2.68-3.5,4l-3.49,4.14c-1.16,1.4-2.37,2.82-3.49,4.34-2.29,3-4.7,6.18-7.17,9.68s-5,7.36-7.64,11.66l-4,6.82c-.69,1.2-1.43,2.42-2.12,3.69l-2.08,3.94c-1.41,2.7-2.94,5.51-4.39,8.53s-2.9,6.22-4.47,9.57c-1.37,3-2.56,6.14-3.78,9.19-.59,1.53-1.2,3.06-1.76,4.59s-1.05,3.09-1.57,4.63c-1,3.09-2.07,6.13-2.94,9.22s-1.73,6.16-2.58,9.22-1.52,6.15-2.28,9.19L808,946.34c-.38,1.52-.66,3.06-1,4.58-.67,3-1.34,6.06-2,9.08s-1.2,6.06-1.85,9.07a411.5,411.5,0,0,0-7.31,49.36l-.52,6.3-.33,6-.33,6.06-.17,6.05-.16,6.06c0,2,0,4,0,6v6c0,2,.1,4,.14,6a408,408,0,0,0,13,93c6.63,25.07,16.15,48.79,25.38,70.53s18.08,41.73,23.48,60.26c9.49,17.4,19.23,35.74,29.3,54.13q7.54,13.82,15.3,27.56c5.18,9.17,10.35,18.08,15.54,27,20.82,35.28,41.57,67.72,62.32,91.82q3.87,8.82,8.27,17.47c2.86,5.76,5.77,11.47,8.84,17.11,1.56,2.81,3,5.63,4.52,8.42s3,5.57,4.57,8.33l4.07,7.26c1.19,2.1,2.38,4.2,3.57,6.28,2.5,4.27,4.57,8.06,6.78,12,1.09,2,2.2,3.88,3.26,5.83l3.06,5.88c2,3.9,4,7.75,5.72,11.63q1.3,2.89,2.52,5.73c.8,1.9,1.63,3.75,2.26,5.63l-1.5,10.33c-.22,1.71-.61,3.48-.9,5.22s-.61,3.46-.92,5.25c-.5,3.47-1.3,7-1.87,10.6s-1,7.15-1.8,10.89a42.82,42.82,0,0,1-3.75,11.55,35.22,35.22,0,0,1-8.79,10.71,65.94,65.94,0,0,1-12.5,7.94c-4.45,2.26-9.07,4.22-13.78,6.15-3.81,1.57-7.31,3-10.58,4.68-1.63.86-3.22,1.7-4.77,2.56s-3.06,1.79-4.56,2.74c-3,1.81-5.9,3.75-8.83,5.74s-5.88,4-8.93,5.93-6.18,4-9.48,5.83-6.75,3.74-10.4,5.36c-1.83.81-3.71,1.61-5.63,2.37s-3.91,1.5-5.95,2.11-4.13,1.24-6.28,1.79c-1.07.27-2.16.54-3.26.78-1.27.22-2.6.42-4,.61a87.9,87.9,0,0,0-8.84-1.46c-2.85-.29-5.64-.61-8.38-.72s-5.44-.13-8.12-.07-5.37.06-8.06.17l-8.16.36c-2.75,0-5.55.1-8.41.1s-5.81,0-8.83-.25-6.13-.54-9.36-1c-19.44-2.86-39.71-8.75-61.71-15.57-2.76-.83-5.52-1.78-8.34-2.65l-8.53-2.65c-2.87-1-5.77-1.87-8.72-2.78l-4.46-1.35-4.5-1.44q-4.51-1.42-9.2-2.79c-3.11-.93-6.24-1.94-9.45-2.86-6.44-1.79-13-3.84-19.84-5.61,6-5,9.77-9.85,13.86-14.17a43.62,43.62,0,0,1,15.53-11.08,17.68,17.68,0,0,0-4.62-4.2c-2-1.45-4.26-2.9-6.36-4.35a30.06,30.06,0,0,1-5.29-4.3C716.63,1641.9,716,1640.46,716.54,1639.05ZM1187.3,733c3.1-1.79,10.72.45,9.64-5,13,10,27.68,19,41.86,28.13s27.81,18.21,38.51,26.83A390.58,390.58,0,0,1,1318,832.53a355,355,0,0,1,30.12,52.62,313.28,313.28,0,0,1,20.46,58.67c1.17,5.27,2.3,10.61,3.33,16,.43,2.74.87,5.5,1.3,8.27l.63,4.18.3,2.1.22,2a313.15,313.15,0,0,1,2.23,32.87c-.42,4.72-.92,9-1.67,13.07-.35,2-.71,4-1.09,5.92s-.75,3.82-1.21,5.68c-.9,3.7-1.79,7.36-2.7,11.13s-2,7.56-3,11.66a358.58,358.58,0,0,1-9.13,43.77,385.42,385.42,0,0,1-14,41.14,403.68,403.68,0,0,1-17.7,38.08c-3.14,6.12-6.54,12-9.86,17.88s-6.86,11.52-10.46,17c-7.71,12-15.77,24-24.37,35.43s-17.58,22.67-27,33.36-19.27,20.8-29.42,30.31c-2.56,2.35-5.06,4.74-7.67,7l-7.79,6.73c-5.29,4.34-10.52,8.61-15.92,12.56l-4.49,3.3c-1.5,1.09-3,2-4.49,3q-4.51,3-9.07,5.88c-3,1.91-6.07,3.86-9.16,5.68l-9.35,5.17-9.35,5.06-2.33,1.25-2.36,1.15-4.71,2.29-9.36,4.53c-3.1,1.51-6.18,3-9.29,4.36-6.19,2.76-12.29,5.53-18.25,8.35-6,2.62-11.89,5.25-17.61,8l-4.26,2.09-4.22,2q-4.2,2-8.25,4.11t-8,4.36c-2.61,1.5-5.18,2.88-7.7,4.4q-4.86,1.61-10,3.2l-5.14,1.6c-1.73.52-3.48,1-5.25,1.45l-10.74,2.86c-3.63.93-7.3,2-11,2.75l-11.19,2.51-5.64,1.26-2.82.62-2.83.55L975.44,1434l-5.64,1.1c-1.88.37-3.76.73-5.63,1L942.09,1440c-7.2,1.14-14.24,2.33-21,3.56s-13.25,2.23-19.39,3.46l-8.91,1.79q-4.32.9-8.32,1.89c-2.7,0-5.51,0-8.4,0s-5.88,0-9,.07c-6.14.11-12.63.48-19.34.67l-10.26.44-5.25.26-5.27.22-21.52.87c-29,1-58.51,1.47-83.78-.24-12.18,1.18-23.62,2.56-34.53,4.09s-21.22,3.24-31.14,5.07-19.49,3.74-28.75,5.77S609,1472,600,1474.12l-26.53,6.43-13.24,3.28c-2.21.56-4.43,1.1-6.68,1.63s-4.43,1.14-6.68,1.68l-13.57,3.36c-2.28.59-4.58,1.15-6.92,1.7s-4.61,1.2-7,1.77-4.69,1.22-7.09,1.8l-3.62.89-3.6,1c-2.42.65-4.93,1.2-7.37,1.91l-7.38,1.93c.33-.27.58-.54,1-.81l1.18-.83c.8-.54,1.61-1.09,2.44-1.62,1.68-1.06,3.36-2.19,5.22-3.15s3.72-2,5.65-2.91,4-1.81,6-2.7l3.1-1.31c1-.43,2.13-.81,3.2-1.21,2.15-.79,4.3-1.61,6.5-2.37,4.44-1.45,8.88-2.93,13.4-4.22s9-2.56,13.36-3.88c2.21-.6,4.39-1.22,6.51-1.85l6.27-1.88c2-.63,4-1.28,5.95-2s3.82-1.31,5.61-2a77.88,77.88,0,0,0,9.71-4.56c18-1.73,35.49-5.41,52.07-9.32s32.17-8,45.86-10.29c11.75-2,25.35-3.27,39.32-4.55s28.3-2.57,41.38-4.57c16-2.46,28.51-5.35,43.47-8.23,7.49-1.46,15.56-2.88,25.07-4.41,4.77-.78,9.87-1.55,15.4-2.29s11.51-1.68,18-2.5c20.65-2.84,40.34-5.39,63.35-10.22,23.94-5,49.7-9.47,74.39-15.24s48.19-13,67-21.56a170.4,170.4,0,0,0,14.88-8.35c1.22-.72,2.43-1.5,3.63-2.28s2.41-1.52,3.63-2.26c2.42-1.47,4.87-2.84,7.37-4,1.48-.71,3-1.42,4.52-2.11l2.32-1c.77-.36,1.54-.75,2.32-1.12,3.12-1.51,6.34-3,9.62-4.5l10-4.52,10.16-5c3.42-1.69,6.86-3.39,10.3-5.14s6.73-3.8,10.06-5.75,6.63-4,9.87-6,6.42-4.44,9.5-6.72c1.88-1.41,5.46-5.16,9.06-8.88s7.06-7.65,9-9.19c2.9-2.39,6-4.69,9.14-6.93s6.31-4.58,9.51-6.84,6.28-4.63,9.32-7,5.85-4.83,8.53-7.31a350.38,350.38,0,0,0,26.59-28.14,373.76,373.76,0,0,0,25-33.41,369,369,0,0,0,40.75-81.43,350.15,350.15,0,0,0,19.62-96.65c.5-8.44.64-16.92.5-25.41l-.19-6.37c-.08-2.12-.12-4.24-.29-6.36l-.44-6.36-.23-3.18-.12-1.59-.18-1.65a299.24,299.24,0,0,0-9.58-51.45c-.91-3.36-1.94-6.64-2.86-9.92q-.72-2.46-1.42-4.9t-1.54-4.79c-1-3.18-2-6.39-3.12-9.5l-3.39-9.31c-.56-1.56-1.18-3.08-1.82-4.59l-1.91-4.56c-.66-1.51-1.31-3-2-4.54s-1.41-3-2.13-4.48c-1.46-3-3-6-4.52-8.91s-3.35-5.81-5.13-8.72c-.59-1-1.19-2-1.82-2.92l-2-2.86c-1.34-1.91-2.72-3.82-4.12-5.73s-2.89-3.77-4.39-5.63l-4.55-5.57c-1.48-1.88-3.12-3.65-4.68-5.47l-4.67-5.44c-3.14-3.58-6.29-7.09-9.21-10.7-12-14.27-23.08-27.91-36-40.49-3.25-3.12-6.63-6.15-10.06-9.16s-7.21-5.75-11-8.53-7.94-5.24-12.13-7.72S1192,735,1187.3,733ZM702.46,1490.05a40.75,40.75,0,0,0-9.37,1.26c-1.67.37-3,.46-7.08-.39C682.45,1486.13,705.38,1484.92,702.46,1490.05Z"/><path class="b" d="M791.16,1105.54c2.15-.62,4.05-1.26,5.8-1.92s3.26-1.31,4.78-2c3-1.34,5.88-2.7,9.41-4,5,.1,10.93-.89,17.42-2.34s13.26-3.43,20-5.27l9.74-2.66c3.13-.83,6.17-1.55,9-2.08a55.26,55.26,0,0,1,8.07-1,29.43,29.43,0,0,1,3.54.06,19.76,19.76,0,0,1,3.11.43c-3.28,1-6.59,1.78-9.83,2.64l-9.6,2.49c-3.17.8-6.26,1.63-9.4,2.39l-9.43,2.2c-3.13.72-6.16,1.44-9.3,2.13l-9.38,2-9.31,2-9.44,1.94c-25.15,5.16-50.91,9.95-80.45,16.23a21.68,21.68,0,0,1,5.31-2.74c1.2-.47,2.54-.95,4-1.43s3-.91,4.59-1.37c3.25-.9,6.84-1.78,10.58-2.62q2.8-.63,5.69-1.22c1.89-.38,3.76-.73,5.64-1.07C776.82,1105.66,790.48,1104.27,791.16,1105.54Z"/><path class="b" d="M679.18,1126c16.83-4,16.07-8,31.47-11.7-2.57,2.82-9,5.5-15.35,8.18l-2.36,1-2.35,1.07c-1.53.71-3,1.42-4.31,2.13-2.65,1.43-4.75,2.86-5.8,4.31C668.41,1133.82,686.29,1127.22,679.18,1126Z"/><path class="b" d="M534.47,1318.56c-10.78,5.42-31.06,10.54-52.31,17.29-2.66.8-5.32,1.75-8,2.61s-5.32,1.74-7.95,2.72c-5.27,1.93-10.46,3.76-15.4,5.86q-3.7,1.53-7.22,3c-2.34,1.05-4.59,2.14-6.75,3.19s-4.22,2.08-6.22,3.15-4,2.29-5.84,3.41q2.64-1.9,5.54-3.78c1.88-1.19,3.75-2.28,5.73-3.4s4-2.21,6.09-3.3,4.25-2.06,6.46-3.08,4.45-2,6.74-3,4.64-1.86,7-2.77c4.73-1.88,9.6-3.49,14.51-5.16C496.55,1328.8,517.05,1323.93,534.47,1318.56Z"/><path class="a" d="M3637,502.18a194.85,194.85,0,0,1-29.85,3.16c-2.58.17-5.31.07-8,.11-1.33,0-2.72,0-4.09-.07l-4.13-.1-4.24-.25c-1.42-.1-2.8-.11-4.27-.26l-4.35-.38-2.18-.17-2.24-.26a363.3,363.3,0,0,1-37.7-6.22c-13.24-2.86-27.16-6.58-41.59-10.91s-29.4-9.36-44.84-14.9-31.38-11.63-47.77-18.06c-32.83-12.85-67.4-27.14-104.54-41.46-18.57-7.15-37.78-14.3-57.76-21.2s-40.74-13.57-62.54-19.63-44.53-11.54-68.35-16a619.42,619.42,0,0,0-74.7-9.37,527.17,527.17,0,0,0-80,.83A500.46,500.46,0,0,0,2872,361.12c-1.69.41-3.39.88-5.1,1.37l-5.11,1.45c-3.4,1-6.82,1.93-10.19,3l-10.06,3.27-5,1.66c-1.67.56-3.31,1.19-5,1.78-6.59,2.41-13.2,4.83-19.62,7.53-3.23,1.33-6.47,2.65-9.67,4l-9.48,4.28c-6.37,2.81-12.46,6-18.64,9-3.1,1.51-6.06,3.18-9.08,4.78s-6,3.23-9,4.89c-11.77,6.72-23.34,13.71-34.35,21.14A563.36,563.36,0,0,0,2660,477a650.79,650.79,0,0,0-52.85,52.86c-16.26,18.25-31.19,37-45.09,56.18s-26.73,38.66-38.56,58.48c-2.94,5-5.91,9.92-8.71,14.92l-4.26,7.49-4.13,7.54c-5.51,10-10.72,20.18-15.72,30.4-10.25,20.35-19.28,41.17-28,62.12a935.56,935.56,0,0,0-41.25,129.24A913.13,913.13,0,0,0,2400,1030.7c-.29,2.83-.47,5.68-.65,8.54l-.54,8.56-.53,8.56c-.17,2.86-.36,5.71-.42,8.58l-.53,17.2c-.07,2.87-.2,5.73-.21,8.61v8.63l.06,17.27.58,17.32c.27,11.54,1.27,23.14,2.05,34.71.11,1.45.19,2.89.32,4.34l.44,4.35.9,8.7.91,8.69c.31,2.9.59,5.79,1,8.7l2.42,17.4c.43,2.89.77,5.79,1.28,8.69l1.52,8.7,3.09,17.37,3.69,17.36,1.88,8.66c.63,2.89,1.41,5.77,2.12,8.66l4.39,17.28c.7,2.88,1.59,5.74,2.42,8.61l2.52,8.6,2.55,8.59,1.29,4.29,1.43,4.27c3.84,11.38,7.52,22.78,12,34l3.24,8.45,1.63,4.22c.54,1.41,1.09,2.81,1.7,4.2l7.17,16.72c1.21,2.78,2.39,5.56,3.64,8.33l3.93,8.25,7.94,16.45c11.24,21.68,23.14,43.12,36.76,63.65L2517,1514c1.68,2.57,3.35,5.15,5.18,7.64l10.76,15,2.71,3.75c.9,1.25,1.78,2.48,2.81,3.79l6,7.73c2,2.59,4,5.1,6.08,7.61l6.17,7.52a607.74,607.74,0,0,0,53.27,55.54,632.31,632.31,0,0,0,58.9,47.58,654.78,654.78,0,0,0,63.34,39.67,657,657,0,0,0,136.84,56,658.11,658.11,0,0,0,72.45,16.16,640.28,640.28,0,0,0,74.57,7.75,617.94,617.94,0,0,0,76.15-1.39,585.92,585.92,0,0,0,76.9-11.55l9.6-2.23,4.8-1.14,4.79-1.25,9.57-2.53,9.55-2.79,4.77-1.41L3217,1764l9.5-3.09c3.16-1.07,6.31-2.22,9.46-3.33s6.3-2.24,9.43-3.48a514.44,514.44,0,0,0,73.41-34.78l8.86-5.17,8.74-5.42,4.35-2.73,4.3-2.83,8.55-5.73c11.28-7.86,22.36-16,33-24.8,2.66-2.19,5.34-4.34,7.95-6.59l7.77-6.79,3.86-3.43,3.77-3.48c2.5-2.34,5-4.61,7.48-7,9.92-9.5,19.59-19.74,29-30.49a431.77,431.77,0,0,0,27.18-34.49c4.37-6,8.56-12.47,12.7-18.87,4.07-6.61,8.09-13.18,11.88-20.15a372.23,372.23,0,0,0,20.79-43.86c1.57-3.79,3-7.76,4.41-11.71s2.83-7.88,4.06-12,2.54-8.11,3.69-12.2,2.15-8.22,3.17-12.34l1.51-6.19c.45-2.06.85-4.11,1.26-6.16q1.23-6.16,2.37-12.35c.72-4.11,1.24-8.17,1.82-12.26l.82-6.13c.13-1,.28-2,.38-3.06l.29-3c.73-8,1.49-16.2,1.68-24.08.14-4,.31-8,.34-11.89s0-7.79-.1-11.69a432.6,432.6,0,0,0-11-87.95,505.36,505.36,0,0,0-24.52-78,578.73,578.73,0,0,0-34.24-70.34l-4.91-8.38c-1.66-2.77-3.26-5.6-5-8.3-3.46-5.44-6.92-10.88-10.44-16.28l-11-15.84c-3.73-5.22-7.61-10.28-11.44-15.41a620.46,620.46,0,0,0-106-107.66,650.8,650.8,0,0,0-61-42.94c-10.51-6.6-21.28-12.75-32.13-18.74l-16.44-8.68-16.7-8.15a658.63,658.63,0,0,0-69-27.83,624.56,624.56,0,0,0-146.73-31c-6.3-.52-12.65-1.14-18.85-1.38L2956,805c-3.11-.15-6.23-.32-9.34-.35-6.21-.11-12.44-.25-18.65-.28l-18.61.29A680.44,680.44,0,0,0,2764,825.19a723.44,723.44,0,0,0-135.45,49.55,736.1,736.1,0,0,0-227.4,171.44l-11.84,13.61c-1,1.1-2,2.36-3,3.57l-3,3.65-6,7.33c-3.86,5-7.75,9.92-11.53,14.94s-7.48,10.09-11.06,15.24a626.16,626.16,0,0,0-39.55,64.14,600.36,600.36,0,0,0-31.84,69.58,548.35,548.35,0,0,0-22.92,75.69A496.75,496.75,0,0,0,2249,1396.3a445.61,445.61,0,0,0,4.06,88.06,408.67,408.67,0,0,0,24.09,89.58c1.47,3.65,2.9,7.32,4.46,10.93s3.25,7.19,4.9,10.77c3.22,7.21,6.94,14.17,10.65,21.14a377,377,0,0,0,24.94,40.14,408.45,408.45,0,0,0,29,36.3,441.41,441.41,0,0,0,32,32c11.06,9.92,22.46,19.14,34.07,27.73s23.49,16.39,35.49,23.68,24.15,13.85,36.4,19.94,24.6,11.56,37,16.55c6.21,2.53,12.44,4.81,18.68,7.12s12.5,4.37,18.77,6.33q18.83,6,37.81,10.59c12.66,3.07,25.37,5.75,38.15,7.91,3.18.57,6.39,1.07,9.59,1.56s6.42,1,9.57,1.39l9.51,1.23,4.75.58,4.76.49a609.85,609.85,0,0,0,76.13,3.16,600.72,600.72,0,0,0,75.74-6.37,606.89,606.89,0,0,0,74.7-15.86,575.46,575.46,0,0,0,72.84-25.7,565.5,565.5,0,0,0,69.84-35.91,533.52,533.52,0,0,0,65.15-46.61c2.58-2.18,5.18-4.31,7.73-6.54l7.58-6.77c5.08-4.46,9.94-9.24,14.84-14,2.47-2.33,4.85-4.78,7.22-7.23l7.12-7.35c1.18-1.2,2.36-2.53,3.54-3.82l3.54-3.91c2.34-2.61,4.71-5.22,7-7.86a497.44,497.44,0,0,0,48.74-67.26,507.18,507.18,0,0,0,36.62-73.24,517.24,517.24,0,0,0,24.33-77.91,498.63,498.63,0,0,0,11.65-81.56,487.55,487.55,0,0,0-2.35-84l-.6-5.29c-.23-1.77-.5-3.53-.75-5.3l-1.59-10.6c-.5-3.53-1.24-7.06-1.89-10.59l-2.05-10.59c-.77-3.53-1.6-7-2.43-10.57l-1.25-5.28c-.41-1.76-.84-3.51-1.34-5.27l-2.92-10.52-1.49-5.25-1.66-5.23c-2.25-7-4.48-13.92-7.13-20.8l-3.91-10.33c-1.4-3.42-2.85-6.82-4.29-10.22l-2.19-5.1c-.73-1.7-1.47-3.39-2.28-5.06l-4.8-10.05-2.44-5c-.82-1.64-1.68-3.19-2.52-4.79l-5.12-9.5a464.4,464.4,0,0,0-48.22-70.92,489.22,489.22,0,0,0-58.39-59.56,539.71,539.71,0,0,0-64.19-47.38,607,607,0,0,0-66.71-36.32A696.16,696.16,0,0,0,2932,874.81c-22.49-7.8-44.95-14.4-67.34-20s-44.7-10.13-66.95-13.87-44.45-6.65-66.59-8.8c-5.54-.5-11.08-1.06-16.61-1.48L2698,829.46l-15.73-.91-15.56-.73c-41.27-1.72-80.79-1.86-118.58-1.82s-73.82.29-108.06-.4-66.68-2.27-97-5.55-58.56-8.28-84.63-15.33q-10.08-2.67-17.73-5.25c-5.11-1.7-9.44-3.35-12.87-4.83l-1.22-.55c-.4-.18-.87-.35-1.18-.53-.67-.34-1.41-.67-2-1s-1.13-.61-1.71-.88c-.21-.13-.43-.27-.65-.39a.17.17,0,0,1,.05.06l0,0h0s-.05,0,0,0h0s-.08,0,0,0h0s0,.08-.05-.14a9,9,0,0,0-.26-1.14,87.13,87.13,0,0,1-1-18.26,173.23,173.23,0,0,1,3.74-28.15c1.1-5.16,2.41-10.47,3.94-15.83l1.19-4,1.28-4c.4-1.35.9-2.68,1.35-4,.24-.69.42-1.3.7-2.06l.91-2.38,3.57-9.53,1.76-4.78,2-4.69,4-9.42,1-2.36,1.1-2.32,2.19-4.63a460.73,460.73,0,0,1,157.72-186.14L2223.43,218.31a782.88,782.88,0,0,0-108.8,89.58A783.63,783.63,0,0,0,1953.5,536.34l-3.73,8-1.85,4-1.73,4.06-6.86,16.28-3.41,8.15-3.13,8.28-6.19,16.59-1.53,4.15c-.52,1.42-1,3-1.56,4.52-1,3.06-2.1,6.1-3.07,9.19s-2,6.16-2.92,9.26l-2.76,9.34q-5.37,18.76-9.52,38.27c-.67,3.27-1.38,6.51-2,9.82l-1.82,9.94-1.62,10.08c-.54,3.35-1,6.81-1.43,10.21-1.78,13.71-3,27.77-3.65,42.27a408.78,408.78,0,0,0,6.58,92.76c.82,4.13,1.7,8.2,2.65,12.5.43,2.06,1,4.39,1.6,6.63l1.76,6.74c1.15,4.5,2.56,8.93,3.92,13.37.7,2.22,1.38,4.44,2.14,6.64l2.32,6.56a328.47,328.47,0,0,0,23.2,50.55,310.67,310.67,0,0,0,71,84.88,343.59,343.59,0,0,0,45.53,32l6.12,3.47,5.43,3q5.31,2.8,10.67,5.54c3.52,1.75,7,3.4,10.5,5.07,1.78.85,3.45,1.57,5.18,2.35l5.14,2.27c13.64,5.9,26.74,10.75,39.25,14.93l4.7,1.56,4.58,1.45c3.06,1,6.13,1.92,9.06,2.77,6.05,1.83,11.64,3.32,17.37,4.89,45.71,12.36,91,20,134.55,24.73s85.47,6.55,125.56,7.37,78.43.51,115,.46,71.4.14,104.42,1.53l12.29.57,12.1.71,11.27.81c3.74.28,7.44.68,11.17,1,14.85,1.44,29.54,3.38,43.94,5.8s28.53,5.32,42.23,8.72,26.9,7.35,39.53,11.73c25.26,8.76,48.13,19.42,67.12,31.39a215.88,215.88,0,0,1,25.48,18.76,164.48,164.48,0,0,1,19.61,19.93,139.15,139.15,0,0,1,14.41,21.14c.49.93,1,1.85,1.5,2.77.25.45.55.92.76,1.35l.58,1.28q.6,1.27,1.23,2.52a11.53,11.53,0,0,1,.58,1.29l.54,1.32c.36.88.76,1.74,1.14,2.61s.64,1.83,1,2.73c.76,1.77,1.27,3.69,1.91,5.56l.48,1.4.38,1.47c.26,1,.54,1.94.83,2.91a11.43,11.43,0,0,1,.37,1.48l.34,1.51.73,3c.17,1,.36,2.08.56,3.11s.48,2,.58,3.13.3,2.12.47,3.19c.08.53.18,1,.25,1.59l.15,1.64a160.44,160.44,0,0,1,.74,27.28,185.18,185.18,0,0,1-13,57.13,180,180,0,0,1-29.77,49.36l-4.61,5.09-2.59,2.66c-.86.89-1.7,1.79-2.63,2.63-1.83,1.7-3.53,3.51-5.47,5.14l-2.81,2.53c-.95.84-2,1.62-2.93,2.45a209.57,209.57,0,0,1-25.46,18.21,249,249,0,0,1-61.52,26.37,282.8,282.8,0,0,1-69.63,10.25,286.34,286.34,0,0,1-35.22-1.47l-2.18-.2-2.16-.28-4.32-.56c-1.47-.15-2.82-.4-4.22-.61s-2.79-.41-4.17-.68c-5.55-.91-11-2.1-16.44-3.4-21.62-5.22-41.65-13.39-57.25-22.85-3.87-2.38-7.58-4.77-10.9-7.25s-6.37-5-9.17-7.43-5.17-5-7.4-7.42a85,85,0,0,1-5.79-7.25,54.53,54.53,0,0,1-4.44-7.21,37.74,37.74,0,0,1-1.89-3.76c-.28-.64-.59-1.27-.92-1.89s-.48-1.34-.75-2a82.24,82.24,0,0,1-4.79-17.88,120.92,120.92,0,0,1-.91-23.16,170.77,170.77,0,0,1,3.92-28c4.44-19.89,12.73-41.67,24-62.66a302.58,302.58,0,0,1,18.95-30.73c1.71-2.49,3.56-4.87,5.3-7.33l5.5-7.13,5.74-7,6.46-7.43a415.76,415.76,0,0,1,58.52-53.74,421.42,421.42,0,0,1,68.08-41.62,398.11,398.11,0,0,1,73.65-27,354.49,354.49,0,0,1,75-10.67q4.64,0,9.28-.15l9.22.15c1.54,0,3.06.1,4.59.18l4.58.23c3.1.07,6,.44,9,.67a305.33,305.33,0,0,1,35.6,5.3,322.45,322.45,0,0,1,132.46,62.58,295.31,295.31,0,0,1,50.17,50.83c1.7,2.34,3.52,4.62,5.19,7s3.25,4.73,4.91,7.07,3,4.81,4.6,7.2c.81,1.17,1.45,2.42,2.18,3.63l2.14,3.65a253,253,0,0,1,14.55,29.83c8.14,19.87,11.87,38.59,12,50.76.07,6.09-.38,10.69-1.26,13.74a8,8,0,0,0-.24,1.18,11.47,11.47,0,0,0-.37,1.13,6.89,6.89,0,0,1-.43,1.22,7.88,7.88,0,0,1-.49,1.34,50.31,50.31,0,0,1-3.11,6.48c-.6,1.22-1.51,2.53-2.25,3.87-1,1.37-1.78,2.77-2.89,4.24a107.86,107.86,0,0,1-7.34,9.27c-2.84,3.22-5.89,6.56-9.42,9.89-.81.85-1.78,1.66-2.66,2.51l-1.34,1.26-1.37,1.18-2.72,2.4c-.9.79-1.87,1.51-2.79,2.29-3.69,3.1-7.62,5.91-11.56,8.72l-3,2-1.51,1-1.56,1-3.1,1.95-3.2,1.83a188.76,188.76,0,0,1-27.26,12.9c-1.18.5-2.43.9-3.66,1.34s-2.43.9-3.68,1.31l-3.75,1.21c-.63.21-1.25.43-1.88.62l-1.92.55-3.83,1.14-3.91,1-1.95.52c-.65.17-1.32.31-2,.46l-4,.94a259.16,259.16,0,0,1-33.31,5,288.77,288.77,0,0,1-35.28.62,314,314,0,0,1-36.28-3.78,336.3,336.3,0,0,1-36.34-8.11,345,345,0,0,1-35.45-12.23,341.34,341.34,0,0,1-33.7-16.05,330,330,0,0,1-31.13-19.48,308.2,308.2,0,0,1-27.81-22.44,280.28,280.28,0,0,1-23.89-24.88l-2.66-3.27c-.89-1.08-1.79-2.16-2.62-3.27l-2.56-3.31c-.42-.51-.87-1.17-1.33-1.81l-1.35-1.92q-2.71-3.83-5.48-7.62c-.95-1.24-1.78-2.58-2.63-3.9l-2.56-4c-7-10.41-13-21.59-19-32.84l-4.14-8.68-2.11-4.32c-.66-1.47-1.26-3-1.9-4.45l-3.85-8.9c-.34-.73-.63-1.49-.91-2.26l-.86-2.29-1.74-4.56c-2.49-6-4.4-12.34-6.56-18.55l-.81-2.33-.69-2.39-1.4-4.78-1.41-4.77c-.47-1.6-1-3.16-1.37-4.81l-2.46-9.74c-.4-1.63-.87-3.23-1.22-4.88l-1-5-2.15-9.91-1.75-10.07-.91-5c-.31-1.67-.48-3.4-.73-5.09l-1.44-10.22c-.28-1.69-.42-3.42-.59-5.15l-.53-5.17-.55-5.17-.28-2.58c-.08-.87-.12-1.74-.18-2.61-.4-7-1.12-13.9-1.21-21l-.39-10.54v-10.61l0-5.31c0-1.77.1-3.55.14-5.33l.32-10.66c0-1.78.16-3.56.27-5.35l.35-5.35.32-5.35c.1-1.79.2-3.57.4-5.36a588.18,588.18,0,0,1,13.72-85.57,612.46,612.46,0,0,1,26.5-83.06c5.61-13.36,11.3-26.71,17.82-39.54,3.15-6.48,6.42-12.89,9.87-19.13l2.56-4.7,2.64-4.62c1.73-3.11,3.55-6.12,5.34-9.16,7.21-12.1,14.86-23.66,22.8-34.6A392.36,392.36,0,0,1,2850,746.26a327.83,327.83,0,0,1,25.92-26,238.45,238.45,0,0,1,26.39-20.48c4.38-3,8.77-5.56,13.11-8.1l3.26-1.75c1.09-.56,2.16-1.24,3.25-1.72,2.17-1,4.3-2.23,6.47-3.12l3.21-1.47,3.22-1.31c2.13-1,4.28-1.66,6.4-2.47.53-.19,1.06-.42,1.59-.59l1.6-.5c1.07-.34,2.13-.7,3.19-1.06s2.13-.59,3.19-.91l1.59-.46a15.7,15.7,0,0,1,1.64-.45,174.49,174.49,0,0,1,28-4.77,202.57,202.57,0,0,1,31.38-.24c22.32,1.32,48,6.21,76.07,14,14,3.88,28.69,8.57,43.84,13.79s30.79,11,46.91,17.24c32.24,12.41,66.39,26.51,102.79,40.79s75.21,28.81,117.54,41.57c21.17,6.36,43.18,12.3,66.27,17.31a687.79,687.79,0,0,0,72.3,11.8l4.69.52,4.76.42,9.53.8c3.17.28,6.43.42,9.65.62s6.44.38,9.68.52l9.8.29c3.27.08,6.53.19,9.85.16,6.62,0,13.19,0,19.9-.25a522.9,522.9,0,0,0,80.91-8.77Z"/></svg>