<svg xmlns="http://www.w3.org/2000/svg" viewBox="0 0 250 250"><defs><style>.a{opacity:0.8;}</style></defs><g class="a"><path d="M162,101.79c7.69-.25,14.35,2.59,20.64,6.39a70.08,70.08,0,0,1,22.12,20.76,31.37,31.37,0,0,1,5.49,21.15c-.67,7.51-2.12,14.81-5.61,21.49-5.42,10.38-6.3,21.3-5,32.69.86,7.51,1.44,15.07.57,22.65-.54,4.66-1.55,9.16-4.16,13.17-3.2,4.95-7.89,7.7-13.51,8.91a40.79,40.79,0,0,1-17.39.1c-9.46-2-14.78-8.18-15.78-17.84-.75-7.23.46-14.26,2-21.26a125.66,125.66,0,0,1,3.13-12.29c2.53-7.74,2.41-15.56.77-23.31a124.21,124.21,0,0,0-5-16.75c-2.78-7.6-6.32-14.93-8.93-22.58a37.11,37.11,0,0,1-1.26-19.59c1.23-6,4.83-10,10.66-11.59C154.4,102.88,158.21,102.47,162,101.79Z"/><path d="M162.06,79.4c-.11,4.93-1.87,9.12-6,12-5.45,3.79-12.3,2.55-16.35-2.76a15.25,15.25,0,0,1,.44-19,11.9,11.9,0,0,1,19.89,2.28c1.19,2.26,1.66,4.9,2.45,7.36Z"/><path d="M181.94,85.08c0,4.9-3.34,8.66-7.5,8.42-3.75-.21-6.73-4.07-6.62-8.6s3.16-8.24,7-8.28S181.93,80.35,181.94,85.08Z"/><path d="M184.81,95.06c0-4,2.62-7.17,5.82-7.08s5.7,3.49,5.51,7.36-2.71,6.81-5.8,6.73S184.83,98.82,184.81,95.06Z"/><path d="M196.2,107.74c0-3.15,1.94-5.69,4.29-5.63s4.13,2.55,4.15,5.6-1.88,5.72-4.21,5.73S196.19,110.89,196.2,107.74Z"/><path d="M213.14,119.11c0,3.18-1.88,5.66-4.25,5.63s-4.23-2.58-4.19-5.71,1.88-5.51,4.18-5.54S213.14,115.94,213.14,119.11Z"/></g></svg>