<svg xmlns="http://www.w3.org/2000/svg" viewBox="0 0 250 250"><defs><style>.a{opacity:0.8;}</style></defs><g class="a"><path d="M49.72,154.1c.67-9.9,1.22-17.27,1.65-24.64a41.07,41.07,0,0,0-3.94-19.8,85,85,0,0,1-6.62-19.57C38.46,77.75,41.73,67.26,50,58,57,50.15,65,43.65,74.79,39.42c8.62-3.74,17.37-3.2,26-.38,6.14,2,9.11,6.82,9.89,13.05,1.08,8.69-.68,17-4,25-2.62,6.27-5.49,12.43-8,18.74a67.64,67.64,0,0,0-4.6,25.9,41.93,41.93,0,0,0,1.5,8.59c1.59,7.1,3.6,14.11,4.82,21.26a60.35,60.35,0,0,1,.62,14.4c-.71,9.95-6.21,16-16,18a38.57,38.57,0,0,1-19.29-.75c-7.89-2.38-12.76-7.85-14.4-15.81A133,133,0,0,1,49.72,154.1Z"/><path d="M88.41,13.73c.26-4.91,2.08-8.89,6-11.58,5.89-4,13-2.31,17.09,3.86a15.49,15.49,0,0,1-1.78,18.54c-6,6.05-15.38,4.63-19.46-2.92A15.49,15.49,0,0,1,88.41,13.73Z"/><path d="M68.16,19.68a26.77,26.77,0,0,1,1.92-5c2.7-4.4,8.16-4.36,11-.06a9.84,9.84,0,0,1-.29,10.93c-3.06,4.1-8.77,3.61-11.15-1.05A31.46,31.46,0,0,1,68.16,19.68Z"/><path d="M65.63,29.71c0,3.94-2.59,7.2-5.74,7.15s-5.8-3.57-5.56-7.48,2.78-6.84,5.81-6.71S65.6,25.93,65.63,29.71Z"/><path d="M54.26,42.49c0,3.17-1.85,5.67-4.23,5.68s-4.21-2.5-4.2-5.69S47.63,37,50,36.92,54.25,39.33,54.26,42.49Z"/><path d="M45.75,54c0,3.09-1.85,5.5-4.17,5.54s-4.25-2.41-4.26-5.6,1.86-5.67,4.24-5.64S45.79,50.81,45.75,54Z"/></g></svg>