<svg xmlns="http://www.w3.org/2000/svg" viewBox="0 0 250 250"><defs><style>.a{opacity:0.8;}</style></defs><g class="a"><path d="M210.72,147.53l-9.13,36.62-42.06-3.63c-5.52-16.6-10.07-31.64-15.51-46.34-6.33-17.1-7.13-33.61,1.29-50.33C151.39,71.78,159.75,63.49,174,64c14.78.57,24.5,9,29.74,22.25,3.15,8,4.71,16.6,7,24.93Z"/><path d="M199.1,202.29c0,9.81.59,18.46-.13,27-1.3,15.22-13.39,22.71-31.45,20.23-14.09-1.93-21.22-11.66-19.31-26.37,3.22-24.93,3.23-25,27.52-23.35C183.18,200.32,190.6,201.37,199.1,202.29Z"/></g></svg>