<svg xmlns="http://www.w3.org/2000/svg" viewBox="0 0 250 250"><path d="M84.27,0C105,11.7,115.65,34.16,110,57.19c-4.66,19-10.69,37.58-16.39,56.27a6.69,6.69,0,0,1-4.75,3.71c-13,1.3-26.09,2.19-39.58,3.24-11.11-31.84-13.8-63.08-3.82-95C49.54,12.37,58.84,5,70.72,0Z"/><path d="M52.42,136.58l45.79-4.81c1.25,12.7,3.71,25.15,3.32,37.5-.34,10.51-10.22,16.51-23.07,16.84s-22.18-5.06-23.78-15.71C53,159.42,53.12,148.18,52.42,136.58Z"/><path d="M210.72,147.53l-9.13,36.62-42.06-3.63c-5.52-16.6-10.07-31.64-15.51-46.34-6.33-17.1-7.13-33.61,1.29-50.33C151.39,71.78,159.75,63.49,174,64c14.78.57,24.5,9,29.74,22.25,3.15,8,4.71,16.6,7,24.93Z"/><path d="M199.1,202.29c0,9.81.59,18.46-.13,27-1.3,15.22-13.39,22.71-31.45,20.23-14.09-1.93-21.22-11.66-19.31-26.37,3.22-24.93,3.23-25,27.52-23.35C183.18,200.32,190.6,201.37,199.1,202.29Z"/></svg>