<svg xmlns="http://www.w3.org/2000/svg" viewBox="0 0 1859.85 1130.24"><path d="M152.79,524.13A2029.83,2029.83,0,0,1,275.89,694c.38.58,8.24-11.28,8.8-12.24a103.79,103.79,0,0,0,4.92-9.41c.4-.91,1.89-3.39,1.28-4.33a2029.83,2029.83,0,0,0-123.1-169.85c-.59-.74-8.25,11.29-8.8,12.24a103.62,103.62,0,0,0-4.92,9.4c-.36.83-1.94,3.52-1.28,4.34Z" transform="translate(-30.02 -9.77)"/><path d="M74.92,564.06a883.94,883.94,0,0,1,131.79-96.74c1.55-.94,3.35-4.21,4.22-5.53,2.12-3.2,4.09-6.55,5.91-9.93,1.39-2.57,3.09-5.3,3.89-8.11.16-.54,1.13-2.71-.25-1.89A885.74,885.74,0,0,0,88.69,538.61c-4.41,3.92-7.37,10.34-10.13,15.46-1.39,2.57-3.08,5.29-3.89,8.1-.09.33-1,3,.25,1.89Z" transform="translate(-30.02 -9.77)"/><path d="M179.38,759.58A1529.74,1529.74,0,0,1,377.06,643.71c1.45-.71,3.5-4.43,4.22-5.52,2.12-3.2,4.09-6.55,5.91-9.93,1.39-2.57,3.08-5.3,3.89-8.11.18-.66,1.13-2.56-.25-1.89A1530.42,1530.42,0,0,0,193.15,734.13c-1.61,1.11-3.23,4-4.22,5.52-2.12,3.2-4.09,6.55-5.91,9.93-1.39,2.57-3.08,5.3-3.89,8.11-.13.46-1.11,2.83.25,1.89Z" transform="translate(-30.02 -9.77)"/><path d="M294.21,461.68a134.82,134.82,0,0,1-1.34,35.66c-.31,1.82,1.85-.83,1.76-.74,2-2,3.63-5.07,5.08-7.41,3-4.8,7.34-10.79,8.32-16.51A135.17,135.17,0,0,0,309.36,437c-.14-1.45-1.22.18-1.76.73-2,2-3.63,5.07-5.08,7.42-2,3.28-3.93,6.64-5.64,10.08-.84,1.68-2.85,4.55-2.67,6.42Z" transform="translate(-30.02 -9.77)"/><path d="M339.18,530l98.69,16c3.66.6,7.66,1.77,11.37,1.8s5.66-3.59,7.59-6.52c3.79-5.72,7.67-12,10-18.55,1.12-3.16-.13-5.38-1.27-8.41a283.33,283.33,0,0,1-18.08-99.5c0-1.57-1.41.38-1.76.73-1.95,2-3.63,5.07-5.08,7.42-2,3.28-3.92,6.64-5.64,10.08-.9,1.81-2.68,4.4-2.67,6.42a293.49,293.49,0,0,0,5,53.4q2.51,13.26,6.23,26.24,1.8,6.25,3.89,12.43,1.18,3.53,2.48,7c.38,1.05,2.81,5.41,2.46,6.36l14-23.57c-2.8,1.94-10.36-.82-13.51-1.33l-14.66-2.37-27.36-4.43L354.18,504c-2.48-.4-7.77,10.47-8.8,12.24-.54.94-7,13.62-6.2,13.74Z" transform="translate(-30.02 -9.77)"/><path d="M526.47,447.54l-5.85,10.31c.61-.85,1.23-1.7,1.86-2.53.47-.63,1-1.25,1.43-1.87,1.76-2.29,3.5-4.58,5.15-6.95a157.33,157.33,0,0,0,13.81-23.73c3.37-7.28,5.51-15.33,2.28-23.1s-11.63-10.05-18.64-5.39c-3.73,2.48-6.54,6.35-9.09,10A154.9,154.9,0,0,0,504.71,426c-10.35,21.23-16.55,45.64-14.61,69.37.8,9.85,5.48,17.48,15.58,19.63s20-2.52,28.69-7.38c24.38-13.72,48.2-28.55,71.75-43.63,1.58-1,3.3-4.13,4.22-5.52,2.12-3.21,4.08-6.56,5.91-9.94,1.39-2.57,3.08-5.29,3.88-8.11.15-.51,1.13-2.76-.24-1.88q-26.62,17.06-53.84,33.18C551.87,480.08,532.2,495.92,515,487c-8.57-4.44-9.84-13.46-10-22.26a131.6,131.6,0,0,1,3-29.61A117.53,117.53,0,0,1,512,421c.67-1.9,1.37-3.8,2.14-5.66,3.85-9.35-9.7,11.61-4.34,6.9s13-6.68,18.15-.33a17.82,17.82,0,0,1,3.63,10,21.87,21.87,0,0,1-.31,5.42c-.12.72-.36,1.43-.49,2.14-.91,5,9.92-15.88,5.24-9.77a196.77,196.77,0,0,0-22,35.23c.12-.26-1.94,3.95-1.28,4.33s3.28-3.5,3.12-3.27a116.08,116.08,0,0,0,10.61-18.37Z" transform="translate(-30.02 -9.77)"/><path d="M680,246.49c25.59,38.91,51.81,77.92,68.74,121.57.09.25,7.54-10.13,7.77-10.53,1.63-2.74,3.21-5.52,4.63-8.37.86-1.72,2.79-4.49,2.67-6.42a37.71,37.71,0,0,1,1-12c.74-2.84,3.3-7.17-1.54,1.19-5.3,9.14-1.9,3.44-.24,1.47a108.92,108.92,0,0,1,17.6-16.18c11.71-8.92,29.66-19.52,43-7.56a27.55,27.55,0,0,1,8.41,16.63,32.22,32.22,0,0,1-.66,11.94c-.38,1.62-1.36,3.31-1.56,4.91.33-2.63,5.56-9,2.27-4.38-10.46,14.66-23.35,27.88-36.65,40-4.39,4-7.35,10.31-10.13,15.46-1.39,2.57-3.08,5.29-3.89,8.11-.09.31-1,3.05.25,1.88A314.54,314.54,0,0,0,821.33,361a193.93,193.93,0,0,0,19.24-31.46c3.8-7.79,7.31-16.35,6.91-25.18-.69-14.95-11.24-28.2-27.34-25.59s-31.51,16.3-42.31,27.94c-8.87,9.55-15.89,21-21.74,32.57-4.5,8.89-8.07,18-7.46,28.15l15.08-25.32c-16.93-43.65-43.15-82.66-68.74-121.57-.39-.6-8.24,11.27-8.8,12.24a101.15,101.15,0,0,0-4.92,9.4c-.4.9-1.9,3.4-1.28,4.34Z" transform="translate(-30.02 -9.77)"/><path d="M866.05,304c7.67-5.47,13.13-13.13,18-21.07,5.67-9.2,11.35-19.1,13.78-29.73.93-4.07,3-17.54-5.11-15.24-3.39.95-6.24,4.41-8.75,6.68-3.32,3-6.54,6.13-9.57,9.43-8.2,8.91-14.66,19.6-20.1,30.35-4.05,8-7.7,16.71-7.11,25.86,1,14.94,12.64,23.75,26.46,26.52,18.66,3.75,39.07-1.16,56.5-7.82,3.74-1.43,6.91-9,8.8-12.24a101.15,101.15,0,0,0,4.92-9.4,31.71,31.71,0,0,0,1.28-4.34c-14.77,5.64-31.1,9.66-47,8.94-12.09-.54-25.73-4.29-32.33-15.34-4-6.67-4.39-14.77-2.26-22.14,2-6.91-.39,3.09-4.65,7.27,1.4-1.37,2.56-3.08,3.91-4.52,2.73-2.9,5.69-5.59,8.65-8.25,2.32-2.08,6-6.66,9.53-4.91,3.07,1.53,2.8,5.7,2.52,8.58a38.49,38.49,0,0,1-.84,5.23c-.77,3.31-4.05,9,1.79-1s2.5-4.35,0-2a43.9,43.9,0,0,1-4.72,3.78c-1.62,1.16-3.21,4-4.22,5.52-2.12,3.21-4.09,6.56-5.91,9.94-1.39,2.57-3.08,5.29-3.89,8.11-.13.44-1.11,2.85.25,1.88Z" transform="translate(-30.02 -9.77)"/><path d="M943.34,266.77a258.17,258.17,0,0,0,29.23-14.3c8.83-5.07,18.57-10.5,26.13-17.4,6-5.48,10.18-13.78,13.75-20.93,2.28-4.55,5.23-9.63,2.51-14.62-4.22-7.72-16.63-7.22-24.23-7.52-8.36-.33-17.07.09-25,3-8.25,3-13.72,8.6-18.54,15.82-6.93,10.41-15.16,23-14.91,36.07.19,9.71,3.71,19.12,8.11,27.65,9.69,18.81,30.45,36.07,52.24,24.78,1.48-.77,3.46-4.38,4.22-5.52,2.12-3.21,4.09-6.56,5.91-9.94,1.39-2.57,3.08-5.29,3.89-8.1.18-.63,1.13-2.61-.25-1.89-30.32,15.71-59.08-25.89-59-52.42a30.39,30.39,0,0,1,.48-5.47c1.82-10.24-12.59,15.57-7,11a35.66,35.66,0,0,1,7-4.83c5.64-2.75,12.07-3.76,18.28-4.14,8.49-.52,38.07-1.85,34.44,13l2.67-6.42-.65,1.35,9.29-15.62c1-1.32,0-.18-.63.27-1.16.78-2.25,1.68-3.38,2.5q-3.23,2.32-6.54,4.55-6.61,4.46-13.51,8.47a247.28,247.28,0,0,1-29.53,14.66c-3.79,1.58-6.85,8.88-8.8,12.24a101.32,101.32,0,0,0-4.92,9.41,34.76,34.76,0,0,0-1.28,4.33Z" transform="translate(-30.02 -9.77)"/><path d="M1020.27,221.09a290.56,290.56,0,0,1,44.22,63.27c.24.47,7.59-10.22,7.78-10.53,2.43-4.1,6.89-9.88,7.3-14.79a106.63,106.63,0,0,1,7.23-31.55,18.22,18.22,0,0,0,1.5-3.43c.06-.39.41-.45,0-.1a18.94,18.94,0,0,1-1.23,2c-1.22,1.8-1.51,2.28-.89,1.46.59-.2,1.68-1.91,2.28-2.46,3.67-3.37,8.29-5.29,13.26-4,8.66,2.29,16.2,11.47,21,18.55a67.79,67.79,0,0,1,10.84,27.36c.08.53,3.65-4,3.11-3.27a99.75,99.75,0,0,0,5.69-9,103.62,103.62,0,0,0,4.92-9.4c.57-1.3,1.51-2.9,1.28-4.34A67.52,67.52,0,0,0,1133,207.35c-7.92-9.08-19-17.86-30.18-8.37-5.74,4.88-9.93,11.69-13.83,18a226.1,226.1,0,0,0-13.51,25.16,125.77,125.77,0,0,0-11.09,41.53l15.08-25.32a290.56,290.56,0,0,0-44.22-63.27c-.74-.81-8.24,11.29-8.79,12.24-1,1.64-7.91,11.89-6.21,13.74Z" transform="translate(-30.02 -9.77)"/><path d="M1256.88,186.7a573.53,573.53,0,0,0,32,60.91c.35.59,7.61-10.25,7.78-10.53,1.63-2.74,3.2-5.51,4.63-8.37.92-1.86,2.58-4.32,2.67-6.42l1.31-30.82c.19-4.65.18-9.36.66-14,.18-1.7.62-3.31.89-5q-18.49,23-9,16.57a6.68,6.68,0,0,1,2.55-.65c4.3-.32,8.22,3.08,11.48,5.42q5.79,4.14,11.27,8.71a204.49,204.49,0,0,1,20.5,19.75c.71.78,7.61-10.24,7.78-10.53,2.6-4.38,6.42-9.66,7.3-14.79a131.47,131.47,0,0,1,3.37-14.9c1.17-4,3.33-7.95,4.24-11.94l-5.8,9.85a14.83,14.83,0,0,1,1.6-1.47,18.13,18.13,0,0,1,2.43-1.73,17.33,17.33,0,0,1,6.7-2.21,25.44,25.44,0,0,1,13.89,2.44c8.23,3.87,14.15,11.25,19.36,18.46a211.3,211.3,0,0,1,16.46,27c.2.38,8.21-11.22,8.8-12.24a99,99,0,0,0,4.92-9.41c.45-1,1.83-3.26,1.28-4.33-6-11.69-12.94-23.23-21.36-33.36-7.39-8.9-18.38-17.1-30.65-14.1-5.33,1.31-9.36,4.78-12.74,9-5.85,7.25-10.58,15.69-14.71,24a143.78,143.78,0,0,0-13,39.68l15.08-25.32A201.21,201.21,0,0,0,1331.16,171c-4-3-9.05-7.92-14.24-8.53-4.86-.57-8,3.08-10.59,6.65-8,11.06-15.15,23.49-15.77,37.35q-.9,20.23-1.72,40.46l15.08-25.32a573.53,573.53,0,0,1-32-60.91c-.26-.56-3.61,3.95-3.12,3.28a99.49,99.49,0,0,0-5.68,9,101.41,101.41,0,0,0-4.93,9.41c-.46,1-1.79,3.2-1.27,4.33Z" transform="translate(-30.02 -9.77)"/><path d="M1543.67,147c-8.28-15.39-28.33-16-42.45-9.19-9,4.34-16.53,11.22-23.51,18.27a131.25,131.25,0,0,0-21.14,27.72c-5,8.68-11.49,19.3-8.36,29.69,2.62,8.67,10.4,12.43,18.76,8.9,9.38-4,18-11.53,26.07-17.64q13.64-10.29,26.45-21.61c2.3-2,4.59-4.1,6.85-6.18,1.37-1.26,4.75-5.9,6.51-4.5,1.14.91,1.6,6.3,2,7.8.71,2.61,1.45,5.2,2.28,7.77,3.42,10.65,8.19,20.77,16,28.89.81.83,8.25-11.28,8.8-12.24.92-1.59,7.9-12,6.2-13.74-12.13-12.52-16.65-29.56-20.73-46l-.61.26A459,459,0,0,1,1511.21,176q-9.11,7.08-18.59,13.68c-5.63,3.92-12.45,9.76-19.84,8-5.07-1.18-8.48-5.94-9.73-10.75-.86-3.34,0-5.74.11-9l-3.38,5.89q-5.74,8.85-2.88,5.29c.54-.57,1-1.22,1.54-1.8,1.22-1.39,2.5-2.72,3.79-4,9.42-9.66,20.2-20.07,33.84-23,12.18-2.64,26.42,1.24,32.6,12.73.22.43,8.21-11.23,8.8-12.24a103.62,103.62,0,0,0,4.92-9.4c.43-1,1.84-3.29,1.28-4.34Z" transform="translate(-30.02 -9.77)"/><path d="M1660.69,129.58c-10.49-5.45-23.71-11.85-35.77-8-6.12,2-10.45,6.27-14.22,11.33a159,159,0,0,0-15,25.28c-6.48,13.28-11.67,27.39-14.31,42-.94,5.18-1.63,11.58,2.21,15.84,3.49,3.88,9,3.93,13.72,2.85,10.9-2.47,21-10.28,30-16.59a210.44,210.44,0,0,0,28.41-23.62,182.83,182.83,0,0,0,24.14-30.13c8.48-13.17,16.41-27.26,21.4-42.16,10.7-31.9,3.79-64.79-3.68-96.58-.13-.54-3.66,4-3.12,3.28a99.49,99.49,0,0,0-5.68,9,101.41,101.41,0,0,0-4.93,9.41c-.54,1.23-1.6,3-1.27,4.33,5.72,24.36,11.59,49.5,8.35,74.66-1.16,9-3.53,18.46-7.43,26.43.75-1.55-.34.63-.42.78.24-.43,1.31-1.79,1.3-2.27,0,1-2,2.88-2.55,3.65A127.47,127.47,0,0,1,1672.7,150c-13.61,14.6-30,26.64-47,36.95-6.6,4-16.47,9.41-24.25,5.33-9.53-5-4.57-19.25-2.46-27.14a122,122,0,0,1,6.4-18.2c1-2.26,2.51-4.69-1.49,2.1-4.44,7.51-1.77,3.13.6,1.42a20,20,0,0,1,8.3-3.53c11.4-2.08,23.08,3.56,32.91,8.67,2.32,1.21,16.64-25.13,15-26Z" transform="translate(-30.02 -9.77)"/><path d="M214.35,1113.45l-110-76.08c-15.15-10.48-31.75-20.39-43.87-34.52C48,988.32,43.55,969.77,45.78,950.94a96,96,0,0,1,8.73-30c.72-1.51,1.86-3.68,2.36-4.57.91-1.63,1.49-2.59,2.42-4.11,2.82-4.58,5.75-9.09,8.68-13.6,3.58-5.49,8-11.68,9.8-18,.36-1.29.89-1.79-.25-1.89s-4,5.11-4.22,5.52C59.7,905.16,46,926.55,37.13,950,30,968.76,27,990.15,34,1009.48c6.8,18.89,23,31.42,38.92,42.51,19.65,13.71,39.42,27.26,59.13,40.88l67.34,46.56c1.17.81,17.5-24.26,15-26Z" transform="translate(-30.02 -9.77)"/><path d="M89.86,1114c-2.8-7-2.67-14.44-.59-21.67a39.59,39.59,0,0,1,3-7.6c-1.12,2,1.24-2,.44-.69.93-1.56,1.89-3.11,2.86-4.65a292.54,292.54,0,0,1,27.37-36.1c4.43-5,7.74-11.52,10.73-17.5.67-1.35,4.63-9.93.91-5.69a391.79,391.79,0,0,0-40.85,56.36c-6.72,11.19-13.53,22.68-17.92,35-3.33,9.35-4.74,19.07-1,28.5.23.57,3.62-4,3.12-3.27a100.47,100.47,0,0,0,5.68-9,97.61,97.61,0,0,0,4.92-9.4c.49-1.09,1.76-3.14,1.28-4.34Z" transform="translate(-30.02 -9.77)"/><path d="M206.41,1035.86c1-3.15,2-6.28,3.05-9.37.53-1.5,1.07-3,1.68-4.47,2.39-5.79,1.52.77-3,4.69,3.63-3.12,8.31-7.65,14.22-9.3,15.84-4.43,33.46,4.87,45.49,14.6,12.52,10.14,21.9,25.74,18.84,42.36-.15.8-.4,1.58-.54,2.38-1.3,7.08,12.25-16.8,7.36-12.13a41.53,41.53,0,0,1-3.56,3.19,26.85,26.85,0,0,1-9.93,4.68,23.52,23.52,0,0,1-18.9-3.61c-12.08-8.35-16.08-24.66-22.72-37-.23-.42-8.22,11.23-8.8,12.24a99,99,0,0,0-4.92,9.41c-.44,1-1.85,3.28-1.28,4.33,7.29,13.52,11.91,33.35,27.65,39.64,23.39,9.34,39.4-19.6,47.05-36.48,8.82-19.5,2.35-39.81-13.46-53.52-14.18-12.28-36.84-23.52-54.84-12.88-10.18,6-16.76,17.73-22.44,27.65a169.93,169.93,0,0,0-15.17,35.23c-1.7,5.59,3.95-2.85,4.47-3.63,3.58-5.43,7.87-11.74,9.79-18Z" transform="translate(-30.02 -9.77)"/><path d="M263.69,979.49a451,451,0,0,1,87.37,55.91c1.09.88,8.21-11.22,8.8-12.24a101.41,101.41,0,0,0,4.93-9.41c.34-.78,1.95-3.58,1.27-4.33a167.86,167.86,0,0,1-33.89-57,77.27,77.27,0,0,1-4-14.46,35.26,35.26,0,0,1,0-8c.74-9.25-16.42,20.44-9.14,16.07a29.55,29.55,0,0,1,4.21-2.37c5.16-2.13,10.93-3.18,16.32-4.61,2.33-.61,4.76-1.46,7.2-1.21,1.25.12,5.63,1.69,4.82,4l13-22.43-.71.79c-4.48,5-7.76,11.55-10.73,17.5-.69,1.38-4.68,9.88-.92,5.69,4.74-5.27,8.29-12,11.44-18.3,1.4-2.8,4-6.87,2.66-10.2-2.74-6.74-15.49-.8-20.22.47-7.69,2.05-13.59,4.24-18.43,10.89-5.87,8.09-13.22,18.89-14.72,29.08-.94,6.43.94,13,2.88,19.11a163.66,163.66,0,0,0,8.79,21.95,168.39,168.39,0,0,0,26.43,39.09l15-26a451,451,0,0,0-87.37-55.91c-2.57-1.26-16.44,25.27-15,26Z" transform="translate(-30.02 -9.77)"/><path d="M556.33,887.19C510.5,852.07,476.25,805,444.43,757.4c-4.38-6.56-9.15-13-12.9-20a31,31,0,0,1-3.9-11,28.26,28.26,0,0,1,.06-5c.22-3.52,5-9.3-4.78,7.1-7,11.7-7,9.72-3.14,7,1.62-1.12,3.23-4,4.23-5.52,2.12-3.21,4.08-6.56,5.91-9.94,1.38-2.56,3.08-5.29,3.88-8.1.13-.46,1.11-2.84-.24-1.89-3.35,2.33-5.75,5.73-8,9.1a128.47,128.47,0,0,0-10.45,18.73c-2.84,6.46-3.63,12.76-1.32,19.51,2.62,7.64,7.86,14.34,12.29,21s8.91,13.34,13.44,20c18.56,27.12,38.17,53.66,60.76,77.6a346.33,346.33,0,0,0,41,37.23c1.16.89,8.19-11.19,8.8-12.24.76-1.31,7.84-12.49,6.2-13.74Z" transform="translate(-30.02 -9.77)"/><path d="M388.88,902.56A1066.38,1066.38,0,0,1,497.25,802c4.48-3.62,7.46-10.49,10.14-15.46,1.39-2.57,3.08-5.29,3.88-8.11.11-.37,1.08-2.95-.24-1.88A1087,1087,0,0,0,400.52,879.37c-4.54,4.85-7.78,11.61-10.73,17.5-.71,1.42-4.75,9.78-.91,5.69Z" transform="translate(-30.02 -9.77)"/><path d="M420.67,734.27a687.85,687.85,0,0,1,69.48-20.46c1.22-.29,2.55-2.51,3.11-3.27a99.64,99.64,0,0,0,5.68-9,101.24,101.24,0,0,0,4.93-9.4c.17-.39,1.6-4.41,1.28-4.34a687.85,687.85,0,0,0-69.48,20.46c-3.7,1.3-7,9.06-8.79,12.24a101.24,101.24,0,0,0-4.93,9.4,28.76,28.76,0,0,0-1.28,4.34Z" transform="translate(-30.02 -9.77)"/><path d="M555.38,786a170,170,0,0,0,35.92,35.9C597,826.05,603.87,832,611,833.2c7.4,1.3,13.23-4.31,17.41-9.62,12-15.2,21.8-34.53,26.15-53.47,3.6-15.68,2.77-32.22-3.64-47.07-.14-.33-7.56,10.17-7.78,10.53-1.63,2.74-3.2,5.52-4.63,8.37-.86,1.73-2.78,4.49-2.67,6.42,1,17.76,10.35,34.54,25.73,43.84,16.28,9.85,36.8,9.6,53.44.87,1.49-.78,3.46-4.37,4.22-5.53,2.13-3.2,4.09-6.55,5.91-9.93,1.39-2.57,3.09-5.3,3.89-8.11.18-.62,1.13-2.61-.24-1.89A53,53,0,0,1,651,723.71L636,749a71.13,71.13,0,0,1,4.83,38.44A79.76,79.76,0,0,1,636,805.9a11.15,11.15,0,0,0-1.1,2.63c0-.72,6.8-8.84,3.33-5.89-2.4,2-4.65,4-7.84,4.57-6,1.19-11.65-2.92-16.41-6a167.84,167.84,0,0,1-15.71-11.6A171.25,171.25,0,0,1,570.38,760c-.51-.69-8.25,11.29-8.8,12.24a101.32,101.32,0,0,0-4.92,9.41c-.38.85-1.92,3.46-1.28,4.33Z" transform="translate(-30.02 -9.77)"/><path d="M746.87,665.41c-3.18-12.83-23,8-26.37,11.57a102.27,102.27,0,0,0-13.22,17.79c-4.68,7.66-9.39,15.81-11.79,24.53-3.08,11.14,0,22.54,10.14,28.77,11.37,6.95,25.2,5,37.7,3.18,1.15-.17,2.67-2.66,3.11-3.27a99.75,99.75,0,0,0,5.69-9,103.62,103.62,0,0,0,4.92-9.4c.17-.38,1.68-4.4,1.28-4.34-16.16,2.4-40.87,4.4-47.73-15.06a24.32,24.32,0,0,1-.55-13.24c.69-3.2,3.45-7.59-2.33,2.49-5.62,9.81-3.6,6-1.6,3.7a66.16,66.16,0,0,1,4.78-4.84c3.56-3.3,18.19-18.12,21-6.93.14.55,3.65-4,3.12-3.28a99.49,99.49,0,0,0,5.68-9,101.41,101.41,0,0,0,4.93-9.41c.54-1.22,1.61-3,1.27-4.33Z" transform="translate(-30.02 -9.77)"/><path d="M727.87,613.42a1459.31,1459.31,0,0,0,87.68,159.35c.36.57,8.24-11.27,8.8-12.24a101.32,101.32,0,0,0,4.92-9.41c.41-.91,1.89-3.37,1.28-4.33a1459.31,1459.31,0,0,1-87.68-159.35c-.14-.3-8.19,11.18-8.8,12.24a101.15,101.15,0,0,0-4.92,9.4c-.46,1-1.81,3.22-1.28,4.34Z" transform="translate(-30.02 -9.77)"/><path d="M816.51,638.05c-6.46,5.39-10.76,13.74-14.65,21-3.13,5.85-6.38,12.11-6.12,18.93.43,11.06,7.25,20,17.13,24.48,12.19,5.59,26.38,5.15,39.48,5.61l46.59,1.64c2.83.09,7.61-10.18,8.8-12.25.58-1,6.59-13.72,6.2-13.74l-36.88-1.29c-11.48-.4-23.18-.22-34.57-1.9-9.32-1.38-19.36-4.53-25.55-12.08a27.56,27.56,0,0,1-5.4-10.83,22.24,22.24,0,0,1-.62-6.75c.06-.8.25-1.59.3-2.39q1.59-6.45-4.59,7.33-8.93,12.15-3.9,7.69c4.46-3.72,7.43-10.44,10.14-15.46,1.38-2.57,3.08-5.3,3.88-8.11.1-.35,1.07-3-.24-1.89Z" transform="translate(-30.02 -9.77)"/><path d="M912.49,628.85a140.12,140.12,0,0,1,21.59,61.73c.14,1.44,1.21-.17,1.75-.73,2-2,3.64-5.07,5.08-7.42,2-3.28,3.93-6.64,5.65-10.08.83-1.67,2.85-4.56,2.67-6.42a142.3,142.3,0,0,0-21.74-63.06c-.37-.57-8.24,11.28-8.8,12.24a99,99,0,0,0-4.92,9.41c-.41.91-1.89,3.38-1.28,4.33Z" transform="translate(-30.02 -9.77)"/><path d="M874.5,586.77c1,0,2.84-2.9,3.12-3.28a101.76,101.76,0,0,0,5.68-9,99,99,0,0,0,4.92-9.41c.17-.38,1.79-4.33,1.28-4.33-1,0-2.84,2.9-3.12,3.27a101.92,101.92,0,0,0-5.68,9,98.8,98.8,0,0,0-4.92,9.4c-.17.39-1.79,4.34-1.28,4.34Z" transform="translate(-30.02 -9.77)"/><path d="M961.31,617.77a247.27,247.27,0,0,1,31.06,50.59c.18.39,7.58-10.19,7.78-10.53,1.63-2.74,3.2-5.52,4.63-8.37.84-1.69,2.83-4.53,2.67-6.42a86.2,86.2,0,0,1,4.94-38,25.09,25.09,0,0,0,1.57-3.75c.11-.55-2.32,4.64-2.67,4.6.21,0,3.83-4.9,4.12-5.22,4.56-5.14,10.33-8.35,17.11-5.33,12.33,5.51,14.8,23.91,18.17,35.37q6.57,22.41,12.15,45.1c.14.54,3.65-4,3.12-3.28a101.76,101.76,0,0,0,5.68-9,99,99,0,0,0,4.92-9.41c.55-1.22,1.62-3,1.28-4.33q-6.77-27.4-14.94-54.42c-2.39-7.91-4.38-17.36-10.84-23.1-5.86-5.21-13.37-5.38-19.45-.46-6.44,5.22-11.47,12.77-16,19.63a194.18,194.18,0,0,0-16.08,29.33c-6.45,14.89-9.65,30.68-8.25,46.92l15.08-25.32a247.34,247.34,0,0,0-31.06-50.6c-.58-.73-8.25,11.3-8.8,12.25a99.9,99.9,0,0,0-4.92,9.4c-.37.83-1.94,3.51-1.28,4.34Z" transform="translate(-30.02 -9.77)"/><path d="M879.29,580.83a10.76,10.76,0,0,1,10.2,1,10.53,10.53,0,0,1,3.78,4.32,7.77,7.77,0,0,1,.65,2.6,5.57,5.57,0,0,1-.06,1.82q19.3-25.51,10.4-18.18c-7.38,5-17.34-1.55-15.31-10.48.44-1.91-2,1-1.75.73a45.54,45.54,0,0,0-5.08,7.42c-3,5-7,10.68-8.32,16.5-1.24,5.43,1.61,11.54,7.07,13.36,8.18,2.74,13.73-6.28,17.33-12,3.79-6,7.64-12.29,10-19,1-2.87,1.37-5.94.09-8.8a11,11,0,0,0-14-5.33c-1.32.55-2.33,2.19-3.11,3.27a96.13,96.13,0,0,0-5.68,9,105.06,105.06,0,0,0-4.93,9.4,36.65,36.65,0,0,0-1.28,4.34Z" transform="translate(-30.02 -9.77)"/><path d="M1138.17,507c-15.48,6.08-26.4,17.46-35.28,31.23-9.85,15.27-20.78,34.08-19.23,53,1.07,13.18,8.43,28.49,23.49,28.89,8.85.24,17.3-4.69,24.3-9.61a92.5,92.5,0,0,0,18-16.48c7.69-9.23,13.95-19.84,19.3-30.57,4.08-8.21,7.41-16.87,8.09-26.09a47.09,47.09,0,0,0-4.06-23.56c-.35-.75-1.74-4.43-2.68-4.78-.77-.28-3.09,1.47-3.6,1.87-4.93,3.93-8.23,10.93-11.22,16.3-4.47,8-8,15.44-7,24.74.89,9.14,2.75,18.29,4.55,27.28,3.87,19.31,8.85,38.37,13.92,57.38,5.69,21.37,11.53,42.71,16.06,64.37,2.19,10.46,4.07,21,5.48,31.59q1.15,8.76,1.82,17.56c.2,2.75.38,5.5.49,8.25,0,1.15.14,2.3.13,3.44,0,.6-.72,4.53.16,2.48l8.89-15.86c3.29-5,1.24-2.08-1.78-1.52a17.7,17.7,0,0,1-3.78.21,39.73,39.73,0,0,1-9-1.59c-5.75-1.53-11.45-3.24-17-5.27-11.14-4-22.44-9.5-30.59-18.34-10-10.82-11.89-24.82-8.47-38.84a93.55,93.55,0,0,1,7.5-19.79c-1.23,2.44,1.11-1.63,1.46-2.14,2.19-3.15,4.61-6.12,7.09-9,4.38-5.14,7.73-11.49,10.73-17.5.66-1.33,4.57-10,.91-5.69-17.26,20.29-32,45-40.38,70.37-3.5,10.52-5.8,21.81-2.8,32.74a40.69,40.69,0,0,0,13.57,20.24c6.88,5.75,15.06,9.79,23.38,13s17.24,6.49,26,7.61c3.45.44,7.22.42,10.34-1.33a17.24,17.24,0,0,0,5.12-5.19,117.38,117.38,0,0,0,9.12-15c3.14-6.06,4.87-10.82,4.57-17.6-.27-6.11-.76-12.21-1.41-18.29-5.15-48-20.64-93.86-31.76-140.59-2.84-11.94-5.4-24-7.42-36.08-.84-5-1.95-10.18-2-15.3a47.1,47.1,0,0,1,.7-6.29l-11.14,19.18a4.72,4.72,0,0,1,1.63-1c.82-.67,1.35-.34,1.58,1,.54.89,1,1.81,1.51,2.74,4.62,9.25,5.37,20,3.23,30-.49,2.28-1.69,4.56-2.06,6.82.28-1.72,6.93-10.11,3.93-6.88-.69.74-1.31,1.67-2,2.44A78.94,78.94,0,0,1,1149,582.25c-9.26,7.2-21.83,15.28-33.93,10.49-8.83-3.49-13.77-12.7-15.61-21.56a42.53,42.53,0,0,1-.25-15.3,51.35,51.35,0,0,1,2-8.3c1.84-5.55,2.8-2.61-2.92,3.89,6.9-7.84,14.77-14.54,24.88-18.51,3.76-1.47,6.89-8.94,8.8-12.24a103.62,103.62,0,0,0,4.92-9.4,33.21,33.21,0,0,0,1.28-4.34Z" transform="translate(-30.02 -9.77)"/><path d="M1321.44,485.77a80.65,80.65,0,0,0,3.73,44.48c3.88,10.13,15.57,34.7,29.72,25.46,6.41-4.17,11.12-12,15.66-18,5.66-7.45,11-15.16,16-23a404.36,404.36,0,0,0,29-53.68c-.12.26,1.94-4,1.28-4.34s-3.28,3.51-3.12,3.28a103.24,103.24,0,0,0-10.6,18.37c-23.43,52.3-10.65,108.5,10.76,159.12,5.38,12.7,11.66,25,16.88,37.8a74.72,74.72,0,0,1,5.36,18.31,36.54,36.54,0,0,1-.14,11c-.2,1.14-.59,2.25-.79,3.37,2.53-14.41,12.22-16.83,5.41-11.18-16.53,13.74-40.66,8-53.14-8.06-17.3-22.21-13.08-53.27-.74-76.76,1.3-2.47,3.11-5.38,3.89-8.11.54-1.9.82-1.76-.25-1.89s-4,5.15-4.22,5.52a115.6,115.6,0,0,0-5.91,9.94c-13.36,25.43-26.62,55.65-15.15,84.3,8.74,21.84,31.76,35.57,54.42,25.08,13.75-6.36,22-22.48,27.94-35.58,6.26-13.89,4.18-27.29-1.35-41.05-5.84-14.52-13-28.47-19-42.95A333.36,333.36,0,0,1,1411.72,562c-8.3-32.64-10.23-69.64,3.84-101l-12.44,17.31A165.6,165.6,0,0,1,1387,507.73c-3.7,5.39-7.64,10.61-11.76,15.68s-8.71,10.53-15.85,7.47c-5.75-2.47-9.74-8.66-12.89-13.79a77.49,77.49,0,0,1-9.89-56c.37-1.87-1.92.9-1.76.73-2,2-3.63,5.07-5.08,7.42-3,4.89-7.17,10.73-8.32,16.5Z" transform="translate(-30.02 -9.77)"/><path d="M1443.33,507.17a45.31,45.31,0,0,0,28.05-5.81c10.77-6.22,17.66-17.11,23.71-27.64,5.9-10.29,11.67-21.53,11.94-33.66,0-2,.29-4.92-.4-6.81-.61-1.71.67-1.27-1.61-1.27a13.14,13.14,0,0,0-2.75.63,52.91,52.91,0,0,0-12.18,5c-8.35,4.67-15.07,11.58-20.75,19.19a164.88,164.88,0,0,0-20.42,36.05c-6.83,16.76-9.18,37.49-.23,54,9.61,17.72,33.8,23.92,48.23,8.34,4.52-4.88,7.77-11.59,10.72-17.5.71-1.41,4.73-9.81.92-5.69-8.59,9.27-24.59,7.36-34.18,1-12.18-8.12-16.63-23.86-16.28-37.78a65.44,65.44,0,0,1,3.78-20.65c.33-.91.82-3,1.56-3.8-1.06,1.12-5.91,9.11-3.72,6.65a86.68,86.68,0,0,1,6.44-7,52.46,52.46,0,0,1,17.11-10.5,45.15,45.15,0,0,1,4.69-1.41c2.74-.68,3.47-1.38,3.76,1.67a42.16,42.16,0,0,1-.56,11.49c-.38,2-1.06,4-1.6,5.93-.86,3.18,6.39-10.61,6.13-10.37-.72.66-1.3,1.55-2,2.25a40.51,40.51,0,0,1-9.88,7.26,43.41,43.41,0,0,1-25.48,4.53c-2.6-.3-7.71,10.37-8.79,12.24-.55.95-6.84,13.67-6.21,13.74Z" transform="translate(-30.02 -9.77)"/><path d="M1605.24,418.51c-10.88-13.56-31.75,6.91-39.29,14.69a146.23,146.23,0,0,0-19.64,25.8c-6.12,10-12,20.58-15.47,31.85-4.67,15.21-5.17,40.17,14.5,45,9.08,2.24,18-3.6,24.82-8.92a94.57,94.57,0,0,0,18.29-19.45c14.14-19.5,26.71-42.95,27.58-67.52.06-1.62-1.5.47-1.75.74a36,36,0,0,0-4.12,5.9c-3.28,5.16-6.83,10.72-8.84,16.53-5.25,15.22-3.8,32.35,6,45.51s26.54,20,42.78,18.19c1.12-.12,2.71-2.73,3.11-3.28a99.49,99.49,0,0,0,5.68-9,101.41,101.41,0,0,0,4.93-9.41c.16-.37,1.71-4.38,1.28-4.33-15.22,1.66-30.85-4.1-40.88-15.81s-13.67-28.92-8.6-43.59l-14.71,23.17a79.18,79.18,0,0,1-3,19.53c-.19.67-2.82,7.79-2.84,7.78-.48-.29,4.45-6.62.86-2.12-7.43,9.28-21.21,22.46-34.16,20.35-14.79-2.41-19.78-18.86-18.36-31.8a55.22,55.22,0,0,1,2-9.94c.91-3,3.91-9.57,0-1.93-1.45,2.81-.13.36.44-.39.86-1.14,1.79-2.25,2.72-3.34a102.9,102.9,0,0,1,7.63-8c7.45-7,24.53-22.23,34.13-10.28.59.74,8.25-11.29,8.8-12.24a99,99,0,0,0,4.92-9.41c.37-.82,1.94-3.51,1.28-4.33Z" transform="translate(-30.02 -9.77)"/><path d="M1649.8,440.17,1674.1,531c.15.56,3.64-4,3.11-3.27,1.69-2.33,3.2-4.79,4.67-7.25,2.48-4.18,6.77-9.83,7.3-14.79a374.74,374.74,0,0,1,6.53-40.79,175.45,175.45,0,0,1,4.64-18c.53-1.59,1.16-3.14,1.72-4.73,1.9-5.39-8.17,11.42-4.3,7.36a40.94,40.94,0,0,1,6.06-5.48c8.11-5.72,20-8.33,28.81-2.58a21.14,21.14,0,0,1,8,10.08,19,19,0,0,1,1.35,6.16,27.6,27.6,0,0,1-.22,3.4c-.79,9.4,16.07-23.18,9.36-16-4.53,4.87-7.78,11.6-10.73,17.5-.7,1.42-4.74,9.8-.91,5.69,4.58-4.92,8-11.19,11.2-17,2.35-4.3,4.93-8.89,6-13.74a21.55,21.55,0,0,0-3.23-16.2c-8.57-13-26.19-10.17-37-1.87-8,6.09-13.44,15.28-18.4,23.81a136.09,136.09,0,0,0-13.38,30c-5.46,18.54-8.57,37.91-10.6,57.1l15.08-25.32-24.3-90.86c-.15-.55-3.65,4-3.12,3.27a130.35,130.35,0,0,0-10.61,18.37c-.53,1.21-1.63,3-1.27,4.34Z" transform="translate(-30.02 -9.77)"/><path d="M1849.74,405c-7.11-5.2-15.43-3.64-23-.19s-15.4,8.59-20.49,15.27a108.25,108.25,0,0,0-12.36,21.06c-1.67,3.71-3.05,7.45-1.57,11.44,2.68,7.21,11.45,10.82,18.08,13.24q15.86,5.79,31.73,11.5c8,2.91,16.84,5.28,24,10.12a20.94,20.94,0,0,1,7,7.27,13.64,13.64,0,0,1,1.6,5.2,18.26,18.26,0,0,1,0,3.05,9.39,9.39,0,0,1-.34,1.74l8.65-15.38a120.79,120.79,0,0,1-22.51,14.92A256.42,256.42,0,0,1,1796,527.39c-1.2.26-2.59,2.55-3.11,3.28a99.59,99.59,0,0,0-5.69,9,101.32,101.32,0,0,0-4.92,9.41c-.17.38-1.62,4.41-1.28,4.33a261,261,0,0,0,47.73-15.15c13.82-5.92,30-12.54,40.59-23.5,7.62-7.85,13.47-18.34,17.89-28.26,2.63-5.93,4.11-12.33.64-18.27-3.23-5.52-9.41-8.72-15.11-11.09-7.84-3.27-16-5.9-24-8.8-9.41-3.41-19.27-6.3-28.39-10.43a32.55,32.55,0,0,1-9.45-6.15c-1.58-1.55-5.34-6.21-4.26-8.5l-8.89,15.86c-3.23,5,0,.88,1.56-.32q1.88-1.45,3.82-2.8a57.43,57.43,0,0,1,11-6.16c7-2.83,14.28-3.42,20.59,1.19,1,.69,17.65-24.05,15-26Z" transform="translate(-30.02 -9.77)"/></svg>