<svg xmlns="http://www.w3.org/2000/svg" viewBox="0 0 1906.2 242.46"><path d="M79.72,47,79,214.8c0,1.58,1.43-.4,1.76-.73,2-2,3.63-5.07,5.08-7.42,2-3.28,3.93-6.64,5.64-10.09.91-1.81,2.67-4.38,2.67-6.42l.77-167.82c0-1.58-1.43.4-1.76.73-2,2-3.63,5.07-5.08,7.42-2,3.28-3.92,6.64-5.64,10.09-.91,1.81-2.67,4.38-2.67,6.42Z" transform="translate(-7.81 -9.18)"/><path d="M20.06,61a344.05,344.05,0,0,1,109.2-17.12c2.9,0,7.56-10.1,8.8-12.24A103.79,103.79,0,0,0,143,22.24c.17-.38,1.79-4.33,1.28-4.33A344.32,344.32,0,0,0,35.06,35c-3.66,1.21-7,9.14-8.8,12.25a102.31,102.31,0,0,0-4.92,9.4c-.18.41-1.51,4.41-1.28,4.34Z" transform="translate(-7.81 -9.18)"/><path d="M7.82,251.64Q58.54,230.94,111,214.9c1.27-.38,2.47-2.39,3.11-3.27a99.75,99.75,0,0,0,5.69-9,101.15,101.15,0,0,0,4.92-9.4c.18-.4,1.54-4.42,1.28-4.34q-52.38,16-103.14,36.74C19,227.21,16,234.56,14,237.9a101.32,101.32,0,0,0-4.92,9.41,35.26,35.26,0,0,0-1.28,4.33Z" transform="translate(-7.81 -9.18)"/><path d="M291.57,55.43a449.28,449.28,0,0,1-10.09,144.45c-.45,1.91,2-1,1.76-.73,1.95-2,3.63-5.07,5.07-7.42,3.09-5,6.95-10.68,8.32-16.5A449.32,449.32,0,0,0,306.72,30.78c-.13-1.45-1.22.18-1.75.73-2,2-3.64,5.07-5.08,7.42-2,3.28-3.93,6.64-5.65,10.09-.84,1.67-2.84,4.54-2.67,6.41Z" transform="translate(-7.81 -9.18)"/><path d="M341.07,99.7c-7.86,5.73-14.15,13-19.58,21a193.79,193.79,0,0,0-10.82,18.2c-2.29,4.36-6,10-6.06,15.14-.05,4.94,4.82,5.25,8.67,6.14l16.39,3.8,33.74,7.81c2.3.53,7.85-10.6,8.8-12.24.54-.94,7.14-13.53,6.2-13.74L333.1,135.34c-3.25-.76-7-1.14-10.08-2.38a5.77,5.77,0,0,1-3.06-2.44c.16-1.89,0-2.26-.6-1.08a77.07,77.07,0,0,0-4.08,7c4-3.95,7.42-7.92,12-11.27,1.63-1.19,3.19-4,4.22-5.52,2.12-3.21,4.09-6.56,5.91-9.94,1.39-2.57,3.09-5.29,3.89-8.11.12-.43,1.1-2.87-.25-1.88Z" transform="translate(-7.81 -9.18)"/><path d="M392.07,105.45,399.38,173c.22,2,4.76-4.89,4.91-5.12A110.12,110.12,0,0,0,413.18,152l13.3-29.9,3.52-7.92c.52-1.17,1.09-2.32,1.56-3.51q2-4.43-3.05,5-6.15,8.46-3,5.54c4-2.13,6.65-3.87,10.93-.82,6.71,4.78,11.06,14.31,13.38,21.95a53.65,53.65,0,0,1,.76,28.06c-.44,1.91,2-1,1.76-.73,2-2,3.63-5.07,5.08-7.42,3.08-5,7-10.69,8.32-16.51a56.62,56.62,0,0,0-2.19-33.1c-2.85-7.44-10.38-23.39-20.62-19.22-5.34,2.17-8.88,8.22-11.89,12.8a172.87,172.87,0,0,0-13.08,24.36l-17.21,38.7,13.8-21-7.3-67.52c-.16-1.42-1.2.15-1.76.74-2,2-3.63,5.07-5.08,7.41-2,3.28-3.93,6.64-5.65,10.09-.82,1.65-2.87,4.57-2.67,6.42Z" transform="translate(-7.81 -9.18)"/><path d="M504.5,96.29a6.2,6.2,0,0,1,.17-4.21l-5.84,11.59c-7.62,13.51-5.12,5.63,1.75,6a14.42,14.42,0,0,1,7.37,2.73c4.51,3.15,7,8.25,8.1,13.5a57,57,0,0,1,.49,18.52,60.91,60.91,0,0,1-2.07,9.44q-3.75,10.08,9.27-15.54l-1,.84c-1.58.74-2.37,1.31-4.14,1.14-5-.48-8.07-6.39-10.18-10.23a57.37,57.37,0,0,1-5.71-15.21,59.43,59.43,0,0,1,.1-25.55,46.48,46.48,0,0,1,1.25-4.48c.32-1,1.86-4.18-.13-.41,1.3-2.46,3.1-5.38,3.88-8.11.54-1.9.82-1.75-.24-1.88s-4,5.15-4.23,5.52c-2.12,3.21-4.11,6.53-5.91,9.93-7.24,13.68-12.49,27.68-10.9,43.4a60.5,60.5,0,0,0,5.13,19.31c2.19,4.75,6.27,13.75,12.58,13.69,7.32-.07,12.35-10.77,15.44-16,5-8.44,9.73-17.36,11.52-27.12,2.19-12,2.51-31.33-10.12-37.91-7.47-3.9-13.64,0-18.1,6.17a114.12,114.12,0,0,0-11.66,20.07c-1.58,3.56-2.74,6.83-1.81,10.7.13.55,3.65-4,3.12-3.27a103.42,103.42,0,0,0,5.68-9,100,100,0,0,0,4.92-9.4c.55-1.23,1.61-3,1.28-4.34Z" transform="translate(-7.81 -9.18)"/><path d="M551.14,95.93a222.53,222.53,0,0,1,9.6,27.49c.64,2.34,1.24,4.7,1.81,7.06.49,2.06.57,5.27,1.56,7.11s.15,2,2.64,1a16.61,16.61,0,0,0,3.61-2c6.57-4.87,11-13.27,15.16-20.12,1.47-2.44.37-.39-.14.14a16.25,16.25,0,0,1,3.23-3c3-1.79,6.09-1.45,9,.14,4.85,2.63,8.1,7.52,13.07,10,7,3.45,12.46-1.36,16.47-6.75,13.31-17.89,20-39.27,27.82-59.87,2.1-5.55-4.07,3-4.47,3.63a94.1,94.1,0,0,0-9.8,18l-9.16,24.2a56.9,56.9,0,0,0-2.6,6.82l7.74-13.39a11.72,11.72,0,0,1-2,1.48,9.09,9.09,0,0,1-7.13.63C619.16,96,613.19,82.24,603.1,87.83c-6,3.34-10.22,11-13.77,16.59-1,1.6-2,3.2-3,4.81s-.7.41.19-.23c-1.76,1.27-3,2.84-5.11,3.74-2.72,1.16-2.15-.48-2.66-2.91q-.57-2.67-1.2-5.33-1.38-5.76-3.07-11.44A222.56,222.56,0,0,0,566.14,70c-.24-.57-3.61,4-3.12,3.27a101.92,101.92,0,0,0-5.68,9,98.8,98.8,0,0,0-4.92,9.4c-.48,1.07-1.77,3.17-1.28,4.34Z" transform="translate(-7.81 -9.18)"/><path d="M814.92,34.46a1090.35,1090.35,0,0,0-4,131.7c0,1.53,1.35-.32,1.75-.73,2-2,3.64-5.07,5.08-7.42,2-3.28,3.93-6.64,5.65-10.09.88-1.76,2.73-4.43,2.67-6.42a1090.18,1090.18,0,0,1,4-131.69c.16-1.71-1.64.61-1.75.73-2,2-3.64,5.07-5.08,7.42-2,3.28-3.93,6.64-5.65,10.08-1,1.92-2.47,4.26-2.67,6.42Z" transform="translate(-7.81 -9.18)"/><path d="M779.79,38.33a549.4,549.4,0,0,1,79.8,2.16c2.65.27,7.7-10.32,8.8-12.24.56-1,6.79-13.68,6.2-13.74a548,548,0,0,0-79.8-2.16c-1.07.05-2.79,2.83-3.11,3.28a99.59,99.59,0,0,0-5.69,9A101.32,101.32,0,0,0,781.07,34c-.17.38-1.76,4.36-1.28,4.33Z" transform="translate(-7.81 -9.18)"/><path d="M748,170.28c15.94-6.32,33-7.94,49.94-9.14q27.35-1.94,54.68-3.8c1.09-.08,2.76-2.79,3.11-3.27a101.18,101.18,0,0,0,5.69-9,101.32,101.32,0,0,0,4.92-9.41c.17-.37,1.74-4.36,1.28-4.33q-27.35,1.89-54.68,3.8c-17,1.2-34,2.82-49.94,9.14-3.76,1.49-6.89,8.93-8.8,12.24a99,99,0,0,0-4.92,9.41,33.12,33.12,0,0,0-1.28,4.33Z" transform="translate(-7.81 -9.18)"/><path d="M906.62,49.35a142.28,142.28,0,0,1-10,29.74c-.42.89-4.95,9.87-.91,5.69,4.44-4.6,8-11.8,10.73-17.51A203.28,203.28,0,0,0,921.77,24.7c.44-1.91-2,1-1.76.73-2,2-3.63,5.07-5.08,7.42-3.07,5-7,10.69-8.31,16.5Z" transform="translate(-7.81 -9.18)"/><path d="M957,52.91l-1.35-6.74c-.11-.54-3.66,4-3.12,3.27-1.69,2.33-3.2,4.79-4.66,7.26-1.63,2.74-3.21,5.51-4.63,8.37-.88,1.76-2.74,4.44-2.67,6.42a269.27,269.27,0,0,0,3.77,37.26c1.66,9.54,3.14,23.64,14,27.14,10.09,3.24,18.56-9.63,24.56-15.71l27.91-28.28c4.26-4.31,7.27-10.16,10.13-15.45,1.39-2.57,3.08-5.3,3.88-8.11.08-.26,1-3.14-.24-1.89L998.83,92.61c-4.29,4.34-8.48,8.82-12.89,13-3.57,3.44-7.45,5.9-12.54,4.26-10.32-3.31-12-16.11-13.7-25.23a259.94,259.94,0,0,1-4-37.85L940.67,72.15,942,78.89c.11.53,3.65-4,3.11-3.28a99.59,99.59,0,0,0,5.69-9,101.32,101.32,0,0,0,4.92-9.41c.56-1.26,1.56-2.93,1.28-4.33Z" transform="translate(-7.81 -9.18)"/><path d="M1027.64,99.73c8.8-2.23,17.84-5.25,25.76-9.76a26.23,26.23,0,0,0,8.24-7.7,113.55,113.55,0,0,0,12-20.74c1.22-2.74,2.8-6.35.78-9.15-2.21-3.07-6.45-2.19-9.44-1-6.76,2.62-13,8-18.13,13a119.08,119.08,0,0,0-17,22.17c-5.7,9.18-12.51,19.75-14.34,30.63a18.7,18.7,0,0,0,7.95,18.94c7.46,5.25,17,5.5,25.77,5.71,2.85.07,7.58-10.15,8.79-12.24.59-1,6.56-13.73,6.21-13.74-8.8-.22-18.29-.47-25.77-5.71a19.37,19.37,0,0,1-7-8.49,16.28,16.28,0,0,1-1-7.42c.25-2.83,3.43-9.22-1-1.44-5,8.78,1.68-1,3.65-3a73.51,73.51,0,0,1,9.73-8.14c3.26-2.3,7-5.09,11.13-5.4,3.88-.29,7,2.09,5.9,6.22l2.67-6.42,8.35-14.1-1.18.95c-1.12.68-2.14,1.38-3.3,2a91.53,91.53,0,0,1-8.36,3.85,118.23,118.23,0,0,1-15.37,5c-1.23.32-2.53,2.49-3.11,3.28a99.49,99.49,0,0,0-5.68,9,101.41,101.41,0,0,0-4.93,9.41c-.17.39-1.58,4.41-1.28,4.33Z" transform="translate(-7.81 -9.18)"/><path d="M1193.93,26l.38-.7-10.75,15.72c5.54-2.38,4.6,14,4.6,16.43,0,8.24-.64,16.47-1.26,24.68-1.2,16-2.31,32,.16,47.89l.62-.26a95,95,0,0,1,31.54-19.73c10.62-3.93,24.34-6.39,33,3a16.06,16.06,0,0,1,3.78,6.63,15.78,15.78,0,0,1,.27,4.17c0,7.6,15.33-19.81,8.17-14.36a48.27,48.27,0,0,1-15.43,7.62,114.85,114.85,0,0,1-40.36,4.83c-2.77-.16-7.63,10.22-8.8,12.24-.57,1-6.65,13.71-6.2,13.74a115.83,115.83,0,0,0,30.47-2.25c8.29-1.77,17.22-4.14,24.3-9,9.68-6.69,16.06-19.52,20.65-29.93,3.37-7.65,3.3-15.31-3.39-21.15-13.82-12.07-36.86-.57-49.81,7.62a93.26,93.26,0,0,0-10.67,7.85c-1.79,1.52-2.48,3.08-3.5.25-1-2.66-.72-6.79-.85-9.67-.49-10.74.31-21.48,1.11-32.18.86-11.36,1.79-22.76,1.25-34.16-.12-2.52.42-9.44-3.32-10.29-2-.46-3.43,2-4.39,3.38a111.72,111.72,0,0,0-8,13.15c-1.31,2.45-3.11,5.39-3.89,8.11-.54,1.9-.81,1.76.25,1.89s4-5.15,4.22-5.52c2.12-3.21,4.1-6.54,5.91-9.94Z" transform="translate(-7.81 -9.18)"/><path d="M1298.4,112.66a97.06,97.06,0,0,0,24.62-7.19c3.41-1.52,7-3,9.8-5.57,3.61-3.24,6.2-7.66,8.7-11.74,3.14-5.13,7.57-11.53,8.81-17.64.23-1.11.61-3-.14-4-1.11-1.55-2.36-1-4.26-.9-8.09.44-16.32,1.85-23.41,6-8.3,4.82-13.6,13.52-18.27,21.6-4.23,7.32-10.07,16.25-9.33,25.14,1,12.58,14.39,22.13,26.55,18.47,1.26-.38,2.48-2.4,3.12-3.27a103.42,103.42,0,0,0,5.68-9,99,99,0,0,0,4.92-9.41c.18-.4,1.54-4.41,1.28-4.33-11.72,3.53-26.09-5.75-26.47-18.43a26.21,26.21,0,0,1,.4-4q3-10.17-8.05,13.65a23.21,23.21,0,0,1,2.12-2,32.12,32.12,0,0,1,10.58-5.78,56.5,56.5,0,0,1,12.29-2.39c1.67-.16,3.76-.62,5.39-.34,1.28-.55,2.1-.22,2.46,1q.06,3,.85.16l7-12.83c5.78-9.21,2.84-4.29-1.36-2.1a83.68,83.68,0,0,1-10.05,4.38,95.8,95.8,0,0,1-18.19,4.58c-1.16.18-2.66,2.66-3.12,3.28a101.76,101.76,0,0,0-5.68,9,99,99,0,0,0-4.92,9.41c-.17.38-1.68,4.4-1.28,4.34Z" transform="translate(-7.81 -9.18)"/><path d="M1373.82,112.25c9,.7,18.66-.48,26.63-4.9C1410.08,102,1416,90,1420.71,80.64c3-6.08,7.34-15.56-.78-19.86-5.42-2.87-12.57-.84-17.81,1.42a42,42,0,0,0-18.56,14.86,121.58,121.58,0,0,0-12,21c-1.59,3.61-2.95,7.4-2.57,11.4.8,8.5,9.42,12.61,16.42,15.62a68.56,68.56,0,0,0,27,5.49c2.91,0,7.56-10.09,8.8-12.24a98.8,98.8,0,0,0,4.92-9.4c.17-.38,1.8-4.33,1.28-4.34a68.78,68.78,0,0,1-27.81-5.84c-4.19-1.87-8.86-4.09-12.09-7.43a12.49,12.49,0,0,1-3.08-5.11c-1.59-5.45,3.64-12.66-4.67,1.72-7.78,13.45-4.93,7.7-.45,4.63a49.21,49.21,0,0,1,5.44-3.18,33.89,33.89,0,0,1,11.06-3.69c3-.39,6.32-.32,9,1.12,2.32,1.23,6,5.52,4.66,8.44l7-12.83c1-1.71,4.49-5.39.83-2.56a25.21,25.21,0,0,1-2.51,1.71,33.55,33.55,0,0,1-8.78,3.38,52,52,0,0,1-17.27,1.37c-2.71-.21-7.67,10.28-8.8,12.24-.56,1-6.72,13.7-6.2,13.74Z" transform="translate(-7.81 -9.18)"/><path d="M1446.23,91.11c10.15,10.87,8.32,26.56,6.2,40.1-.36,2.26,3.34-2.82,3.19-2.62a118,118,0,0,0,7.63-12.44c-.08.14-4.34,5.9-2,3.42.73-.76,1.42-1.88,2.08-2.67a69.25,69.25,0,0,1,5.06-5.5c3.13-3,7.56-7,12.33-6.15,5,.87,5.46,6.27,6,10.36.82,6.19,1.61,12.37,2.41,18.56.06.5,3.66-4,3.11-3.28a98.35,98.35,0,0,0,5.69-9c2-3.46,6.75-9.48,6.2-13.74-1-7.61-1.17-15.93-3.15-23.35-1.86-7-8.48-6.28-13.6-3.16-5.69,3.48-10.4,9.4-14.45,14.61a196.12,196.12,0,0,0-16.21,25.33l10.82-15.06c2.17-13.82,4-30.31-6.35-41.43-.76-.81-8.24,11.29-8.8,12.24-.94,1.63-7.9,11.92-6.2,13.75Z" transform="translate(-7.81 -9.18)"/><path d="M1604.22,94,1598,146.84c-.13.75.1.89.69.4l32.44-29.83c2.87-2.63,10.14-11.26,12.76-4.09,1,2.83,1.06,6.36,1.5,9.35l1.71,11.43.61-.27c6.41-6.41,12.61-13.17,19.3-19.29,5-4.55,13.91-9.53,18-1.06,1.54,3.23,1.32,7.08,1.34,10.57q0,6.67-.19,13.36c-.32,9.23-1,18.43-2.1,27.6-.19,1.74,1.7-.67,1.76-.73,2-2,3.63-5.07,5.08-7.42,2.82-4.59,7.68-10.94,8.32-16.51.94-8.22,1.63-16.46,2-24.73.33-7.58.92-15.52,0-23.06-.68-5.76-3.94-11.1-10.59-9.45-6.82,1.69-11.8,7.92-16.52,12.65l-8.4,8.42c-1.16,1.16-2.35,3.49-3.87,2-.86-.83-.8-5.41-1-6.67-.61-4.1-.1-17.26-7.2-14.63-3.14,1.16-5.6,4.18-8,6.39l-9.37,8.62-18.74,17.23c-.76.69-3.19,3.7-4.12,3.08-.44-.29.85-7.2.92-7.83l1.62-13.71,3.48-29.37c.2-1.74-1.71.68-1.76.74-2,2-3.63,5.07-5.08,7.41-2.83,4.6-7.66,10.93-8.32,16.51Z" transform="translate(-7.81 -9.18)"/><path d="M1784.1,113.54c.6-8-7-11.62-14-10.1-6.67,1.45-13,5.77-17.95,10.37-6.85,6.4-12,14.43-16.7,22.48s-9.92,17.09-11.73,26.41c-1.28,6.53,1.67,11.75,8.19,13.4,5.94,1.51,11.92-.3,17.17-3.11,14.75-7.93,24-24.78,32.21-38.65l-8.43,10.09c-3.8,12.66-8.78,33.88,8.19,39.6,2,.69,8-10.77,8.79-12.24.56-1,7.37-13.34,6.21-13.74-15.19-5.12-12.53-23.31-8.92-35.29.72-2.4.37-2.51-1.32-.76-2.91,3-5,7.27-7.12,10.84,1.17-2-.64.94-.18.27.89-1.3-2.73,3.7-.76,1.07a58.75,58.75,0,0,1-3.82,4.66,43.07,43.07,0,0,1-11.08,8.7c-6.59,3.51-18.13,5.54-23-2a9.52,9.52,0,0,1-1.17-6.7,24.76,24.76,0,0,1,1-3.78c1.32-4.57,3.88-1.05-4.84,7.95a58.61,58.61,0,0,1,10-8.85c4.37-2.87,9.72-5.66,15.12-5.1,4.69.48,9.31,4.08,8.93,9.14-.13,1.68,1.6-.57,1.76-.73,2-2,3.63-5.07,5.08-7.42,2-3.28,3.92-6.64,5.64-10.08,1-1.91,2.52-4.29,2.67-6.42Z" transform="translate(-7.81 -9.18)"/><path d="M1898.8,112.87a312.74,312.74,0,0,1-27.72,77.41l12.4-18.9c-2.68-7.7-1-16.1-4.57-23.61a30,30,0,0,0-13.11-13.52c-12.28-6.46-25.64-2.4-34.36,7.78A109.54,109.54,0,0,0,1813.79,172c-2.31,5.84-3.36,12-1.76,18.13,3.4,13,17.27,21.7,30.41,19.35,1.17-.21,2.63-2.61,3.11-3.27a101.08,101.08,0,0,0,5.68-9,101.41,101.41,0,0,0,4.93-9.41c.17-.37,1.65-4.4,1.28-4.33a27.15,27.15,0,0,1-27.07-12,23,23,0,0,1-3.73-16.19c.19-1.27.75-2.52.91-3.76l-8.19,14.18a10.59,10.59,0,0,1,1.31-1.45c2.2-1.69,4-3.44,6.55-4.72,9.84-5.06,21.76-2.2,29.75,5a28.58,28.58,0,0,1,8.4,13c1.9,6.48.87,13.35,3.11,19.79.15.41,4.79-5.72,4.84-5.79a143.33,143.33,0,0,0,7.57-13.11A365.83,365.83,0,0,0,1914,88.22c.41-1.89-2,1-1.76.73-2,2-3.63,5.07-5.08,7.42-3,4.95-7,10.7-8.32,16.5Z" transform="translate(-7.81 -9.18)"/></svg>