<svg xmlns="http://www.w3.org/2000/svg" viewBox="0 0 1907.17 442.4"><path d="M63.28,71.34a1024.18,1024.18,0,0,0,7.15,123.78c.06.5,3.66-4,3.12-3.28a101.76,101.76,0,0,0,5.68-9c2-3.5,6.71-9.45,6.2-13.74a1012.47,1012.47,0,0,1-7-122.46c0-1.57-1.43.4-1.75.73-2,2-3.64,5.07-5.08,7.42-2,3.28-3.93,6.64-5.65,10.09-.91,1.81-2.67,4.38-2.67,6.42Z" transform="translate(-8.9 -37.14)"/><path d="M9,79.49,75.32,64.05c1.22-.29,2.57-2.52,3.12-3.28a98.25,98.25,0,0,0,5.68-9,100,100,0,0,0,4.93-9.4c.17-.39,1.6-4.41,1.27-4.34L24,53.51c-1.22.28-2.57,2.52-3.12,3.27a101.92,101.92,0,0,0-5.68,9,98.8,98.8,0,0,0-4.92,9.4c-.18.39-1.61,4.41-1.28,4.34Z" transform="translate(-8.9 -37.14)"/><path d="M22.58,220.39,123,205.26c1.16-.18,2.67-2.66,3.11-3.28a99.59,99.59,0,0,0,5.69-9,101.32,101.32,0,0,0,4.92-9.41c.17-.37,1.68-4.39,1.28-4.33L37.58,194.41c-1.15.18-2.67,2.66-3.11,3.28a99.59,99.59,0,0,0-5.69,9,101.32,101.32,0,0,0-4.92,9.41c-.17.37-1.68,4.39-1.28,4.33Z" transform="translate(-8.9 -37.14)"/><path d="M159.14,55.71c-9,14.22-17,29.7-19.69,46.48-.29,1.8,1.82-.8,1.76-.73,1.95-2,3.63-5.07,5.08-7.42,2.93-4.76,7.4-10.81,8.31-16.51a73.9,73.9,0,0,1,2.51-10.9c.49-1.51,1.13-3,1.63-4.47,1.26-3.75-4.3,7-1.08,1.9A114.25,114.25,0,0,0,163.3,54c.27-.55,3-5.36,2.67-6.42s-.83-.23-1.75.73c-2,2.11-3.53,5-5.08,7.42Z" transform="translate(-8.9 -37.14)"/><path d="M173.06,115.06c-.11,20,8.07,73.27,39.51,56.58,13.65-7.25,22.76-21.83,30.32-34.73,8.23-14,14.61-28.81,20.19-44.07,2-5.56-4.05,3-4.47,3.64-3.7,5.59-7.48,11.7-9.8,18-1.81,5-3.61,9.94-5.67,14.8-.63,1.48-1.47,4.92-2.76,6,.64-.56,3.84-5.56,1.41-2.58-6.44,7.88-16.13,17.14-27.19,16.08-10.16-1-15.92-11.1-19.28-19.62a104.13,104.13,0,0,1-7.1-38.82c0-1.58-1.44.39-1.76.73-2,2-3.63,5.07-5.08,7.42-2,3.28-3.93,6.64-5.65,10.08-.9,1.81-2.66,4.38-2.67,6.42Z" transform="translate(-8.9 -37.14)"/><path d="M282,144.1c17.68-1,27.14-15.94,34.86-30.14,2.86-5.26,9.54-15,3.84-20.61-4.41-4.35-10.93-2.69-15.37.63-6.42,4.81-11.05,12.56-15.19,19.24-5.61,9.06-11,18.69-14.23,28.89-3.44,10.8-6.3,32.8,10.45,33.81,2.75.17,7.64-10.23,8.8-12.24.56-1,6.66-13.71,6.2-13.74-9.17-.55-13.36-9.39-13.16-17.66a46.82,46.82,0,0,1,2.5-13.46c.3-.87.61-1.72.95-2.57q-7.78,12.24-4.14,7.2a30.77,30.77,0,0,1,4.05-4c6-4.5,15.71-3.31,16.17,5.32-.82-15.16,15.1-20.37,6.14-13A29.87,29.87,0,0,1,309,115a28.91,28.91,0,0,1-12,3.17c-1.09.06-2.78,2.81-3.12,3.27a101.92,101.92,0,0,0-5.68,9,98.8,98.8,0,0,0-4.92,9.4c-.17.38-1.75,4.37-1.28,4.34Z" transform="translate(-8.9 -37.14)"/><path d="M464.73,102.44c-13-10-27.57,6.22-34.19,16.07-9.36,13.92-20.44,31.85-17.79,49.49.87,5.82,3.81,12.41,10.29,13.43s13.55-3.36,18-7.7c12.65-12.22,21-29.94,27.87-45.87l-13.8,21c-3.37,15.25,11,26.67,25.13,20.53,1.4-.61,3.58-4.55,4.23-5.52,2.12-3.21,4.08-6.56,5.91-9.94,1.39-2.57,3.08-5.29,3.88-8.11.21-.71,1.13-2.48-.24-1.88-13.05,5.67-26.77-6.08-23.76-19.74.41-1.86-4.89,5.09-4.91,5.13a104.47,104.47,0,0,0-8.89,15.86c-.74,1.7-1.64,3.73-2.31,5.23-1.77,3.95,2.27-4.52,2.69-4.35.18.07-7.26,6.36-8.09,6.83-8.48,4.86-17.21,2.53-20.2-7a30.56,30.56,0,0,1-.72-12.84,60.7,60.7,0,0,1,1.47-6.94c1.39-5.59-5.27,8.61-5.39,8.71.78-.63,1.39-1.64,2.12-2.35,6.13-6,16.19-9.79,23.65-4,1.15.89,8.19-11.19,8.8-12.24.76-1.32,7.84-12.48,6.2-13.74Z" transform="translate(-8.9 -37.14)"/><path d="M498.66,62.38a997.25,997.25,0,0,1,2.38,121c-.07,1.63,1.52-.48,1.76-.73,1.95-2,3.63-5.07,5.08-7.42,2-3.28,3.92-6.64,5.64-10.09.93-1.86,2.59-4.32,2.67-6.41a995.39,995.39,0,0,0-2.38-121c-.11-1.46-1.25.21-1.75.74-2,2-3.64,5.07-5.08,7.42-2,3.27-3.93,6.64-5.65,10.08-.85,1.69-2.82,4.52-2.67,6.42Z" transform="translate(-8.9 -37.14)"/><path d="M548.06,133.7l7,33a2.78,2.78,0,0,0,1.68-1.39l9.48-11.54c2.51-3,6.24-9.91,10.2-11,7.33-2.1,9.46,10,12.72,13.78,5.57,6.52,12.34-.08,16.1-4.86,6.52-8.26,12.19-17.33,18.19-26a114.13,114.13,0,0,0,10.61-18.37c.25-.57,2-3.93,1.27-4.34s-3.11,3.28-3.11,3.28c-5.34,7.69-10.21,16.25-16.24,23.41-6.3,7.47-11.93,1.79-14.93-4.72-1.33-2.87-2.84-6.15-5.82-7.67-3.72-1.89-6.84.85-9.22,3.48-6.17,6.83-11.77,14.27-17.61,21.38l1.68-1.4-7-33c-.12-.54-3.66,4-3.12,3.28a100.47,100.47,0,0,0-5.68,9,97.61,97.61,0,0,0-4.92,9.4c-.56,1.25-1.58,2.94-1.28,4.34Z" transform="translate(-8.9 -37.14)"/><path d="M709.81,84.48c-10.78-6.23-24.63-5-34.58,2.41-7,5.16-11.64,13.25-15.87,20.63s-10.08,16.74-8.76,25.62c2.37,15.91,23.16,12.07,33.21,6.81a47.71,47.71,0,0,0,15.83-14.11,135.34,135.34,0,0,0,17.21-30.66c1.95-4.92-3,1.42-3.61,2.38a106.74,106.74,0,0,0-9.74,17.11c-5.65,12.74-12.45,28.16-5.52,41.71.2.37,8.21-11.22,8.8-12.24a101.41,101.41,0,0,0,4.93-9.41c.44-1,1.83-3.26,1.27-4.33-5.54-10.83-1.66-22.62,3-33l-13.35,19.5c-.34.84,9.93-14.65,5.86-10.65-.67.65-1.28,1.36-2,2a42.65,42.65,0,0,1-5.14,4.06A37.86,37.86,0,0,1,688,117.91c-8.21,1.7-19.63.63-22.06-9.09-.6-2.41-.11-4.49.1-6.88q1.2-5.06-4,6.46-7.11,10.38-3.81,6.78c.8-.61,1.47-1.42,2.26-2.06a29.86,29.86,0,0,1,10.78-5.52,30.65,30.65,0,0,1,23.59,2.86c1.9,1.1,17-24.85,15-26Z" transform="translate(-8.9 -37.14)"/><path d="M745.73,112.54c-.35,6.79-.76,13.58-1,20.37-.19,4.57-.29,9.83,3.51,13.09,7.14,6.12,20.95,4.88,29.46,3.24a64.76,64.76,0,0,0,26.48-11.74c10.26-7.72,17.27-18.49,23.72-29.4a74.23,74.23,0,0,0,5.38-10.5c.14-.37,1.55-4.3.21-3-13,12.82-23,28.3-31.44,44.38-7.88,14.94-14,30.77-16.23,47.6-2.1,16-.18,31.54,3.36,47.16,2,8.73,4.23,17.42,5.64,26.26a96.56,96.56,0,0,1,1.3,13.88,71.4,71.4,0,0,1-.23,7.31c-.05.64-1.13,6.1-.32,4.16l7-12.83L806,267.1l-1.67.9c-1.08.13-2.1.53-3.22.59a12.8,12.8,0,0,1-5.23-.87c-4.26-1.65-7.37-5.32-9.89-9a78.83,78.83,0,0,1-11.15-25.12c-4.45-17.37-3.54-37,4.21-53.33-.12.26,1.94-3.95,1.28-4.33s-3.28,3.5-3.12,3.27a114.92,114.92,0,0,0-10.6,18.38c-8.32,17.52-11.54,36.65-8.11,55.83a82.61,82.61,0,0,0,9.95,27.24c4.22,7.22,11.25,16.55,20.88,13.31,5.2-1.75,8.2-7.44,10.89-11.77,3.94-6.34,8.49-13.34,10.14-20.74,2.3-10.28.58-21.75-1.35-32-4-21.35-10.63-41.68-8.5-63.68a107.38,107.38,0,0,1,7.34-30.42c.18-.44,2-4.5,1.4-3.27,1.76-3.79-.25.41-.25.42,0-1.29,4-5.28,4.8-6.18,1.87-2.2,3.84-4.29,5.89-6.32l5.59-13.47c-.2.34,3.91-5.26,2.31-3.79-.83.76-1.5,1.83-2.27,2.66a52.67,52.67,0,0,1-4.6,4.36,63,63,0,0,1-10,6.88,60.72,60.72,0,0,1-25.13,7.48c-7,.5-18.31.75-23.37-5.11-3.24-3.74-2.48-9-2.25-13.6l.89-17.59c.09-1.65-1.54.51-1.76.73-2,2-3.63,5.07-5.07,7.42-2,3.28-3.93,6.64-5.65,10.08-.94,1.88-2.57,4.32-2.67,6.42Z" transform="translate(-8.9 -37.14)"/><path d="M890.18,98.24c-13.71.07-22.16,9.36-28.94,20.27-5.62,9-18.09,26-2.56,31.86,8.7,3.3,22.71,1,22.24,14.25-.3,8.53,13.73-18.34,8.15-13.75-.87.72-1.69,1.49-2.62,2.14a32.2,32.2,0,0,1-9.5,4.48,37.15,37.15,0,0,1-17.44.68c-2.41-.45-7.81,10.52-8.8,12.25-.54.93-7,13.58-6.2,13.74,10.78,2,23.32-.46,31.35-8.37,6-5.9,10.29-13.81,14.24-21.15,2.81-5.23,6.64-11.66,6-17.87-1.25-12.26-16.17-9.12-24.19-13.14a12.22,12.22,0,0,1-4.69-3.73c-.92-1.31-.65-2.29-1.33-3.65l-9.35,15.6a17.4,17.4,0,0,1,1.66-1.55,25.76,25.76,0,0,1,17-6.08c1,0,2.84-2.89,3.11-3.27a99.75,99.75,0,0,0,5.69-9,101.15,101.15,0,0,0,4.92-9.4c.17-.39,1.79-4.34,1.28-4.34Z" transform="translate(-8.9 -37.14)"/><path d="M1004.93,73.19l1.42,67.24c0,1.54,1.38-.34,1.76-.74a41.82,41.82,0,0,0,5.08-7.42c-2.55,4.2-1,1.5.11.31a40.52,40.52,0,0,1,3.26-3.16A50.62,50.62,0,0,1,1040.13,118c10.29-2,25.73-1.67,33.57,6.47a13.49,13.49,0,0,1,3.72,9.37c0,1.52-.45,3-.52,4.47.46-10,11.79-17.1,5.15-10.68A107.9,107.9,0,0,1,1065.29,141c-11.33,7.24-26.8,10.43-37.65.51-.94-.87-8.22,11.25-8.79,12.24-.85,1.47-7.89,12.2-6.21,13.74,10.49,9.6,25.48,6.87,36.76.26a93.58,93.58,0,0,0,33.12-33.64c7.14-12.11,18.09-32.3-.6-39.9-11-4.45-23.63-4-34.65,0-14.89,5.41-24.55,16.53-32.6,29.77l6.84-8.15-1.43-67.23c0-1.54-1.37.33-1.75.73-2,2-3.64,5.07-5.08,7.42-2,3.28-3.93,6.64-5.65,10.08-.89,1.78-2.71,4.42-2.67,6.42Z" transform="translate(-8.9 -37.14)"/><path d="M1124,127.79a50.93,50.93,0,0,0,26.61,1.07c3.22-.76,6.88-1.69,9.45-3.9,4.71-4.07,8.1-11.13,11-16.47s9.39-17.12-2.31-15.5c-7.57,1-15.45,4.64-22.2,8.14a45.41,45.41,0,0,0-17.4,15.7,128.13,128.13,0,0,0-10.62,18.83c-1.45,3.24-2.82,6.59-2.41,10.2.77,7,6.92,11,12.77,13.69a95.54,95.54,0,0,0,25.67,7.59c2.5.4,7.77-10.45,8.8-12.24.54-.94,7-13.62,6.2-13.74a95.54,95.54,0,0,1-25.67-7.59c-3.41-1.59-6.87-3.48-9.42-6.33-2.77-3.08-2.63-5.56-3.15-9.38q-16.73,24.26-8.85,15.66c.72-.68,1.47-1.33,2.24-1.94a42.58,42.58,0,0,1,3.62-2.52,77.72,77.72,0,0,1,13.85-6.66,55.49,55.49,0,0,1,11.57-3.43,9.43,9.43,0,0,1,4.45.18c1.2.44,2.55,2.71,3.39.73l12-20.25c-3.21,3.8-12.32,4.27-16.9,4.5a51.6,51.6,0,0,1-17.72-2.32c-2.12-.64-7.93,10.73-8.8,12.24-.55,1-7.3,13.41-6.2,13.74Z" transform="translate(-8.9 -37.14)"/><path d="M1200.44,134.79a72.84,72.84,0,0,0,18.91-9.1c8.38-5.81,13.93-17.29,18-26.22,1-2.26,3.2-6,1.68-8.64s-5.38-1.94-7.82-1.7a35.62,35.62,0,0,0-18,6.93c-7.28,5.59-12.15,14.39-16.51,22.23-4,7.14-8.49,15.22-8.49,23.65,0,12.5,10.35,23.29,23.23,21.36,1.15-.17,2.67-2.66,3.11-3.27a99.75,99.75,0,0,0,5.69-9,98.8,98.8,0,0,0,4.92-9.4c.17-.38,1.68-4.4,1.28-4.34-13,1.94-24.22-9.39-23-22.29.14-1.53.56-2.9.82-4.4-2.5,14.76-11.94,16.6-5.44,11.34a30.64,30.64,0,0,1,10-5.35,35.69,35.69,0,0,1,8.93-1.63c1.33-.07,3.08-.28,4.36.27a3.47,3.47,0,0,1,2,1.55c.12,1.88.42,1.87.88,0l8.88-15.86c3.18-5,0-1.06-2.07.26-1.43.91-2.89,1.78-4.39,2.59a70.14,70.14,0,0,1-11.88,5c-3.66,1.2-7,9.14-8.8,12.24a103.79,103.79,0,0,0-4.92,9.41c-.18.4-1.52,4.41-1.28,4.33Z" transform="translate(-8.9 -37.14)"/><path d="M1258.77,122.82c7.15,16.36,4.56,34.23,1.83,51.3-.3,1.84,3.82-3.53,4.05-3.87a114.08,114.08,0,0,0,8.43-14.36c.74-1.5,1.47-3,2.22-4.49-.1.21,2.25-4.39,1.24-2.48-1.37,2.61.91-1.07,1.59-1.86,3.74-4.38,10.38-11.4,16.71-7.84,5.09,2.87,6.72,10.45,7.72,15.65a57.61,57.61,0,0,1-.71,24c-.44,1.91,2-1,1.76-.73,2-2,3.63-5.07,5.08-7.42,3.07-5,7-10.68,8.31-16.5a60.33,60.33,0,0,0-.22-28.83c-2-7.59-6.66-16.45-15.73-11.69-8.26,4.32-14.38,13.6-19.39,21.13a290,290,0,0,0-18.39,32.84l12.48-18.23c2.8-17.48,5.34-35.88-2-52.63-.25-.57-3.61,4-3.12,3.27a101.92,101.92,0,0,0-5.68,9,98.8,98.8,0,0,0-4.92,9.4c-.47,1.06-1.79,3.18-1.28,4.34Z" transform="translate(-8.9 -37.14)"/><path d="M1399.24,152.41a182.11,182.11,0,0,0,2.41,47.14c0,.18,4.72-5.61,4.83-5.78a130.47,130.47,0,0,0,7.57-13.12c1.31-2.56.94-1.66.41-.81,0-.08.9-1.39,1.25-1.91a44.5,44.5,0,0,1,7-8.52c5-4.36,12.4-6,16.25.58,2.89,5,2.34,11.2,4.71,16.39,3.15,6.91,9.46-1.63,12.56-4.75,8.84-8.91,20-20.26,33.24-11.75,14.31,9.24,12.78,27.58,7.79,41.64-2,5.57,4-3,4.47-3.64,3.68-5.56,7.55-11.7,9.8-18,4.44-12.53,7.88-27.83-.48-39.57-7.59-10.65-20.15-11.76-30.32-4.15-4.69,3.51-8.56,8-12.74,12.07-1.35,1.31-4.81,5.57-6.91,5.1s-3.08-4.55-3.58-6.39c-1.28-4.79-1.3-10.81-4.8-14.67-4.06-4.46-10.11-2.78-14.42.31-6.9,4.94-11.87,13-16.55,19.94a279.57,279.57,0,0,0-17.5,30l12.41-18.9a176.71,176.71,0,0,1-2.26-45.81c.13-1.69-1.61.58-1.76.73-2,2-3.63,5.07-5.08,7.42-2,3.28-3.92,6.64-5.64,10.08-1,1.91-2.5,4.28-2.67,6.42Z" transform="translate(-8.9 -37.14)"/><path d="M1579,154c-5.23-4.1-10.87-8.53-17.73-9.19-6.7-.65-11.55,2.59-15.41,7.79-6,8-11.63,17.36-14.8,26.9-2,6-2.84,12.95-.49,19,3.9,10,15.94,14.46,26,13.63,13-1.07,24.17-9.64,34.13-17.29l5.59-13.48c-8.57,15-15.5,31-6.9,47.63.2.39,8.21-11.22,8.8-12.24a103.62,103.62,0,0,0,4.92-9.4c.44-1,1.83-3.27,1.28-4.34a34,34,0,0,1-4-14.06,35.1,35.1,0,0,1,.26-6.15c.58-4.53,4.2-10.44-1.79.06a81.62,81.62,0,0,0,5.37-10.49c.18-.45,1.72-4.14.21-3-14.19,10.89-33.56,24-51.25,12.27a20,20,0,0,1-7.38-8.55,19.58,19.58,0,0,1-1.51-8.46c.17-5.47,4.41-12.85-3.32.73-7.23,12.68-4.43,5.86,2.15,5.35a18.87,18.87,0,0,1,7,.83c5.24,1.59,9.64,5.07,13.89,8.4,1.14.89,8.2-11.2,8.8-12.24.77-1.33,7.85-12.46,6.2-13.74Z" transform="translate(-8.9 -37.14)"/><path d="M1695.06,158.27l-20.35,64,14.63-23.82c-1.42-11.59-3.23-24.63-13.09-32.3-9.11-7.08-20.14-4.36-27.67,3.52-5.9,6.18-10.26,14-14.3,21.43-3.45,6.39-7.09,13.48-7.61,20.86-.75,10.61,6.31,21.86,18,20.46,1.13-.14,2.71-2.71,3.12-3.28a101.76,101.76,0,0,0,5.68-9,99,99,0,0,0,4.92-9.41c.17-.37,1.71-4.38,1.28-4.33-7.94.94-15.2-4.56-17.25-12.2a21.09,21.09,0,0,1-.55-7.79c.12-1.17.5-2.33.61-3.48q1.37-5-3.69,5.6-6.58,9.7-3.47,6c3.3-2.93,6.37-5.55,10.88-6.43,20.43-4,26.29,21.64,28.09,36.27a31.35,31.35,0,0,0,2.4-2.34,67.31,67.31,0,0,0,4.36-6.48c2.88-4.68,6.2-9.74,7.87-15l20.35-64c1.78-5.59-4,2.89-4.47,3.63-3.61,5.47-7.78,11.72-9.79,18Z" transform="translate(-8.9 -37.14)"/><path d="M208.69,289.1,208,445.22c0,1.57,1.43-.4,1.76-.74,2-2,3.63-5.07,5.08-7.41,2-3.28,3.93-6.64,5.65-10.09.9-1.81,2.66-4.38,2.67-6.42l.71-156.11c0-1.58-1.43.39-1.76.73-2,2-3.63,5.07-5.08,7.42-2,3.28-3.93,6.64-5.65,10.08-.9,1.82-2.66,4.38-2.67,6.42Z" transform="translate(-8.9 -37.14)"/><path d="M153.21,302.2a320.55,320.55,0,0,1,101.57-15.92c2.91,0,7.57-10.1,8.8-12.24a101.41,101.41,0,0,0,4.93-9.41c.17-.38,1.79-4.33,1.27-4.33a320.55,320.55,0,0,0-101.57,15.92c-3.66,1.2-7,9.14-8.8,12.24a98.8,98.8,0,0,0-4.92,9.4c-.18.41-1.52,4.42-1.28,4.34Z" transform="translate(-8.9 -37.14)"/><path d="M141.82,479.54q47.18-19.26,95.94-34.18c1.27-.39,2.47-2.39,3.12-3.27a129.71,129.71,0,0,0,10.61-18.38c.17-.4,1.53-4.41,1.27-4.33Q204,434.29,156.82,453.56c-3.78,1.54-6.87,8.9-8.8,12.24a101.15,101.15,0,0,0-4.92,9.4,34.85,34.85,0,0,0-1.28,4.34Z" transform="translate(-8.9 -37.14)"/><path d="M405.77,297a418.51,418.51,0,0,1-9.39,134.37c-.45,1.91,2-1,1.76-.73,2-2,3.63-5.07,5.08-7.42,3.08-5,6.94-10.68,8.32-16.5a418.54,418.54,0,0,0,9.38-134.37c-.13-1.45-1.22.18-1.75.73-2,2-3.64,5.07-5.08,7.42-2,3.28-3.93,6.64-5.65,10.08-.84,1.68-2.84,4.55-2.67,6.42Z" transform="translate(-8.9 -37.14)"/><path d="M452.83,336.4C445.24,342,439.23,349,434,356.78a185.22,185.22,0,0,0-10.92,18.61c-2,3.91-5.23,8.88-5.22,13.45s4.84,4.88,8.38,5.7l15.45,3.58,30.9,7.15c2.3.53,7.86-10.6,8.8-12.24.54-.93,7.14-13.52,6.2-13.74l-41.52-9.61c-3.1-.72-6.31-1.25-9.35-2.18a5.61,5.61,0,0,1-2.91-1.49c-1.39-1.81.43-5.19-1.65-1-.06.11-7,10.17-3.23,6.09.92-1,1.77-2.06,2.73-3a61.65,61.65,0,0,1,7.38-6.22c1.64-1.2,3.19-4,4.23-5.52,2.12-3.21,4.08-6.56,5.91-9.94,1.39-2.57,3.08-5.29,3.88-8.1.13-.44,1.11-2.88-.24-1.89Z" transform="translate(-8.9 -37.14)"/><path d="M499.26,343.5l6.8,62.8c.21,2,4.76-4.9,4.91-5.12a110.06,110.06,0,0,0,8.88-15.86l12.71-28.56,3.17-7.14,1.59-3.57q-12.69,17.2-6,11.33c3.66-1.62,6.19-2.28,9.66.46,6.05,4.78,10,13.32,12.1,20.54a49.92,49.92,0,0,1,.55,25.54c-.45,1.91,2-1,1.76-.73,2-2,3.63-5.07,5.08-7.42,3.08-5,7-10.68,8.31-16.5a52.73,52.73,0,0,0-1.94-30.57c-2.68-7.1-9.85-22.35-19.6-18-4.83,2.14-8.12,7.68-10.88,11.88a160.83,160.83,0,0,0-12.32,22.58c-5.59,12.48-11.11,25-16.67,37.49l13.8-21-6.8-62.8c-.15-1.43-1.19.15-1.75.73-2,2-3.64,5.07-5.08,7.42-2,3.28-3.93,6.64-5.65,10.09-.83,1.65-2.87,4.57-2.67,6.42Z" transform="translate(-8.9 -37.14)"/><path d="M604.9,333.21c-.37-1.57.45-4.19-.55-2L595.47,347c-2.63,4.09-1.48,2.05.44,1.21a8.91,8.91,0,0,1,3.74-.76,13.1,13.1,0,0,1,6.9,2.22c4.25,2.75,6.68,7.31,7.86,12.12a51,51,0,0,1,.74,17,70.66,70.66,0,0,1-1.65,8.68c-2.14,9.44,14.66-16.37,8.19-14.27-1.34.43-2.13,1.12-3.69,1-4.69-.4-7.7-6.24-9.66-9.87a53.06,53.06,0,0,1-5.12-13.83,54.83,54.83,0,0,1,0-23.34c.27-1.26.59-2.53,1-3.77.46-1.44,2.6-5.72-.18-.46,1.3-2.46,3.11-5.38,3.89-8.11.54-1.9.82-1.75-.24-1.88s-4,5.15-4.23,5.52c-2.12,3.21-4.11,6.53-5.91,9.93-8.54,16.18-13.7,32.92-8.59,51.11,1.75,6.21,5.74,18.08,12.62,20.36,3.6,1.19,6.65-1.12,8.94-3.65,4.7-5.19,8.2-11.69,11.5-17.81,5-9.3,8.4-18.82,8.57-29.47.14-8-.55-17.52-6.71-23.35s-14-4.84-19.21,1.51-9.38,14-12.77,21.39c-1.65,3.59-2.94,6.78-2,10.71.12.55,3.65-4,3.11-3.27a130.35,130.35,0,0,0,10.61-18.37c.54-1.24,1.6-3,1.28-4.34Z" transform="translate(-8.9 -37.14)"/><path d="M647.23,334.69a205.09,205.09,0,0,1,9.07,26.07q.72,2.67,1.37,5.35c.51,2.1.6,5.31,1.6,7.19q-.4,2.65,1.54,1.47c.58-.22,1.16-.45,1.72-.7a14.9,14.9,0,0,0,3-1.83c6.2-4.87,10.35-12.82,14.39-19.39,1.7-2.76-.64,1.09-.73,1-.63-.43,5.07-3.64,5.12-3.66a9,9,0,0,1,6.67,1.37c4.43,2.62,7.5,7.23,12.29,9.3,6.7,2.89,11.7-2.31,15.34-7.31C731,336.49,737.48,316.51,744.87,297c2.11-5.55-4.06,3-4.46,3.63a94.1,94.1,0,0,0-9.8,18l-8.74,23.09c-.6,1.58-1.25,3.16-1.79,4.76,1.67-4.89,13.26-15.77,6.69-12.23-2.41,1.3-4.34,1.88-7,1.15-7.8-2.1-13.3-14.83-22.48-10.43-5.51,2.64-9.36,9.39-12.56,14.27-1.12,1.73-2.21,3.49-3.3,5.24-.09.15-2.34,3.7-.81,1.36,1.95-3,.35-.54-.39.17a13.51,13.51,0,0,1-2.82,2.06c-2.7,1.44-2.08,1.1-3.09-.77-.76-1.43-.79-3.77-1.17-5.4q-1.26-5.39-2.8-10.69a206,206,0,0,0-8.07-22.52c-.23-.57-3.61,4-3.11,3.27a102,102,0,0,0-5.69,9,103.62,103.62,0,0,0-4.92,9.4c-.47,1.07-1.77,3.17-1.28,4.34Z" transform="translate(-8.9 -37.14)"/><path d="M892.6,277.46A1018.26,1018.26,0,0,0,888.84,400c0,1.53,1.36-.32,1.76-.73,2-2,3.63-5.07,5.08-7.42,2-3.28,3.93-6.64,5.65-10.09.88-1.76,2.73-4.43,2.67-6.41a1014.08,1014.08,0,0,1,3.76-122.51c.15-1.71-1.64.61-1.76.73-2,2-3.63,5.07-5.08,7.42-2,3.28-3.93,6.64-5.65,10.08-.95,1.92-2.47,4.26-2.67,6.42Z" transform="translate(-8.9 -37.14)"/><path d="M859.93,281.11a511.22,511.22,0,0,1,74.24,2c2.65.26,7.69-10.33,8.8-12.24.55-1,6.78-13.68,6.2-13.74a511.22,511.22,0,0,0-74.24-2c-1.07.05-2.79,2.83-3.11,3.27a101.18,101.18,0,0,0-5.69,9,103.62,103.62,0,0,0-4.92,9.4c-.17.38-1.76,4.36-1.28,4.34Z" transform="translate(-8.9 -37.14)"/><path d="M830.34,403.85c14.78-5.85,30.55-7.37,46.28-8.49q25.51-1.82,51-3.55c1.09-.07,2.77-2.79,3.12-3.27a101.92,101.92,0,0,0,5.68-9,98.8,98.8,0,0,0,4.92-9.4c.17-.38,1.74-4.37,1.28-4.34q-25.51,1.77-51,3.55c-15.73,1.11-31.5,2.64-46.28,8.49-3.76,1.49-6.89,8.94-8.8,12.24a101.32,101.32,0,0,0-4.92,9.41,33.12,33.12,0,0,0-1.28,4.33Z" transform="translate(-8.9 -37.14)"/><path d="M977.9,291.31a130.49,130.49,0,0,1-9.07,27.22c-.42.89-5,9.86-.91,5.69,4.44-4.6,8-11.8,10.72-17.51a191.55,191.55,0,0,0,14.42-40c.43-1.91-2,1-1.76.73-2,2-3.63,5.07-5.08,7.42-3.07,5-7,10.69-8.32,16.5Z" transform="translate(-8.9 -37.14)"/><path d="M1025.84,292.85l-1.26-6.27c-.1-.53-3.65,4-3.11,3.28-1.69,2.32-3.2,4.78-4.66,7.25-1.63,2.74-3.21,5.52-4.63,8.37-.88,1.76-2.74,4.44-2.67,6.42a251.91,251.91,0,0,0,3.3,33.46c1.49,8.85,2.6,21.88,12.06,26.06,9.7,4.27,17.63-7.64,23.43-13.51l26.63-27c4.26-4.31,7.27-10.16,10.13-15.45,1.39-2.57,3.08-5.3,3.89-8.11.07-.26,1-3.14-.25-1.89q-12.26,12.43-24.53,24.86c-3.87,3.92-7.64,8-11.62,11.77-3.68,3.5-7.74,5.51-12.68,3.34-8.71-3.85-10.09-15.05-11.58-23.27a242.21,242.21,0,0,1-3.63-34.92l-15.08,25.32,1.26,6.26c.11.54,3.66-4,3.12-3.27a100.47,100.47,0,0,0,5.68-9,97.61,97.61,0,0,0,4.92-9.4c.56-1.26,1.56-2.93,1.28-4.34Z" transform="translate(-8.9 -37.14)"/><path d="M1090.49,338.23c8.18-2.09,16.63-4.9,24-9.11,8.87-5.06,14.15-16.51,18.42-25.2,1.52-3.08,4.61-8.11,2.13-11.56-1.75-2.43-5-2.15-7.56-1.4-6.56,2-12.7,7.33-17.5,12-6.6,6.38-11.93,13.84-16.75,21.61-5.49,8.83-11.75,18.76-13.89,29.08a17.42,17.42,0,0,0,6.82,18.15c7,5.14,16,5.4,24.38,5.6,2.85.07,7.59-10.14,8.8-12.24.58-1,6.55-13.73,6.2-13.74-8.34-.2-17.38-.45-24.38-5.6a17.88,17.88,0,0,1-6.1-7.51,14.84,14.84,0,0,1-1-7c.25-2.89,3.27-8.72-1.18-.77-4,7.15-2.18,3.88-.59,2a54.81,54.81,0,0,1,4.44-4.7,69.5,69.5,0,0,1,8.75-7c2.79-1.9,5.93-4.12,9.42-4.38s6.55,1.92,5.48,5.74l2.67-6.42,8.59-14.42-1.1.89c-.79.47-1.52,1-2.32,1.46a73.81,73.81,0,0,1-8.32,3.87,109.45,109.45,0,0,1-14.46,4.71c-1.23.31-2.53,2.48-3.11,3.27a99.75,99.75,0,0,0-5.69,9,103.62,103.62,0,0,0-4.92,9.4c-.17.39-1.58,4.41-1.28,4.34Z" transform="translate(-8.9 -37.14)"/><path d="M1244,272.06l.42-.71-8.8,12.24c5.48-1.45,4.22,13.44,4.2,16.18-.06,7.58-.64,15.15-1.21,22.71-1.11,14.68-2.06,29.33.2,44l.61-.27a88.13,88.13,0,0,1,30-18.56c10.12-3.64,23.36-5.58,30.89,4a13.4,13.4,0,0,1,2.94,6.93c.37,4.5-3.57,8.54,4.86-5.78,8-13.63,6.61-9.63,3.15-6.85-4.08,3.26-9,5.15-13.93,6.67a107.05,107.05,0,0,1-37.4,4.45c-2.77-.15-7.63,10.22-8.8,12.24-.57,1-6.65,13.71-6.2,13.74,16.34.89,36.18-.93,50.29-10,9-5.79,14.56-17.05,19.16-26.25,3.57-7.17,6.27-14.81.47-21.63-11.64-13.68-33.86-3.4-46.22,4a86.79,86.79,0,0,0-10.33,7.21c-1.12.9-3.3,3.47-4.28,2.79-1.59-1.08-1.18-7.23-1.29-9.18a220.76,220.76,0,0,1,.79-28.29c.79-10.7,1.76-21.42,1.44-32.16-.08-2.74.77-10.38-2.88-11.74-4-1.49-9.29,10.55-10.64,12.85-.68,1.17-7.69,12.88-6.2,13.74s8.57-11.85,8.8-12.24Z" transform="translate(-8.9 -37.14)"/><path d="M1342.36,350.25a90.11,90.11,0,0,0,22.58-6.55c3.43-1.51,7-3,9.77-5.61,3.23-3,5.63-7,7.93-10.72,3.27-5.32,7.12-11.26,8.83-17.34.35-1.24.81-2.58.29-3.87-.91-2.26-2.12-1.61-4.4-1.48-7.49.43-15.11,1.78-21.67,5.63-7.11,4.17-11.71,11.37-15.89,18.24-4.53,7.47-11.23,17.29-10.71,26.52.68,11.93,13.27,21,24.73,17.63,1.26-.38,2.48-2.41,3.12-3.28a101.76,101.76,0,0,0,5.68-9,99,99,0,0,0,4.92-9.41c.18-.4,1.55-4.41,1.28-4.33-10.63,3.16-23.26-4.74-24.51-16a19.9,19.9,0,0,1,.16-4.23q1.83-9.6-8.77,14.25a16.6,16.6,0,0,1,2-2,28.51,28.51,0,0,1,8.8-5.17,47.4,47.4,0,0,1,10.45-2.44c1.79-.23,3.59-.37,5.39-.47,1.2-.07,2.4-.11,3.6-.14q2.1,4.43,4.17-4.6l7.63-12.44c-.86,1.18-3.73,2.24-5,2.9a79.43,79.43,0,0,1-9.12,3.87,90.6,90.6,0,0,1-16.23,4c-1.16.18-2.66,2.65-3.12,3.27a101.92,101.92,0,0,0-5.68,9,98.8,98.8,0,0,0-4.92,9.4c-.17.38-1.68,4.4-1.28,4.34Z" transform="translate(-8.9 -37.14)"/><path d="M1412.51,349.87c8,.63,16.4-.41,23.68-4,9.35-4.59,14.88-15.59,19.51-24.28,3.08-5.77,9.26-16.21,1.26-21.15-5-3.09-12-1.12-17,1A40.47,40.47,0,0,0,1421.45,317a124.48,124.48,0,0,0-11,19.71c-1.5,3.44-2.74,7-2.33,10.82.86,7.89,9.15,11.69,15.64,14.44a64.15,64.15,0,0,0,24.76,4.95c2.91,0,7.57-10.1,8.8-12.24a99,99,0,0,0,4.92-9.41c.18-.38,1.8-4.33,1.28-4.33a63,63,0,0,1-32.32-8.78c-5-3-7.71-6.27-8-12.16-.41-9-14.7,18.76-8.59,14,1.06-.83,2-1.71,3.14-2.48a45.66,45.66,0,0,1,7-3.92c6.12-2.78,19.45-5.43,20.89,4.39a4.51,4.51,0,0,1,0,2.22l10.3-17.93c-1,.7-1.82,1.61-2.82,2.31a26.8,26.8,0,0,1-7.92,3.61,48.42,48.42,0,0,1-17.72,1.73c-2.7-.21-7.66,10.28-8.79,12.24-.57,1-6.73,13.7-6.21,13.74Z" transform="translate(-8.9 -37.14)"/><path d="M1479.88,330.2c9.42,10.14,7.73,24.65,5.76,37.26-.36,2.26,3.34-2.82,3.19-2.61a120.25,120.25,0,0,0,7.63-12.45c-.11.2-3.26,4.32-2.08,3.67.62-.34,1.31-1.67,1.76-2.21a61,61,0,0,1,5.47-5.78c2.84-2.62,7.17-5.93,11.31-4.51,4,1.37,4.22,6.08,4.68,9.6q1.13,8.54,2.22,17.09c.06.5,3.66-4,3.11-3.28a98.35,98.35,0,0,0,5.69-9c2-3.46,6.75-9.48,6.2-13.74-.92-7.07-1.08-14.83-2.93-21.72-1.7-6.38-7.59-5.87-12.37-3.11-5.51,3.18-10,9-13.9,13.93A191.08,191.08,0,0,0,1490,357.86l10.82-15.06c2-12.89,3.73-28.21-5.91-38.58-.76-.82-8.25,11.28-8.8,12.24-.94,1.63-7.9,11.91-6.2,13.74Z" transform="translate(-8.9 -37.14)"/><path d="M1626.84,332.83,1621,382c-.12.75.11.89.69.4l29.06-26.72c2.56-2.35,10-11.51,12.76-5.32,1.18,2.62,1.13,6.17,1.56,9l1.61,10.83.62-.26c6-6,11.78-12.31,18-18,4.52-4.14,12.75-8.61,16.49-1.06,1.41,2.83,1.28,6.18,1.31,9.25,0,4.54,0,9.08-.19,13.61-.3,8.43-1,16.83-1.93,25.21-.2,1.74,1.7-.67,1.75-.73,2-2,3.64-5.07,5.08-7.42,2.83-4.58,7.68-10.94,8.32-16.5,1.11-9.67,1.82-19.37,2-29.1.14-6.13,2-17.45-2.82-22.43-5.94-6.06-14.62,2-18.82,6.21-3.77,3.75-7.52,7.54-11.28,11.31-2.56,2.56-3,3.83-4.21,0-.68-2.1-.7-4.7-1-6.89-.44-2.93-.08-10.46-4-11.21-3.46-.68-7.28,4.11-9.4,6.06l-21.79,20-5.08,4.68-2.91,2.67c-1-.23-1.08-1-.3-2.2-.13-4.76,1.19-10,1.75-14.75l3.6-30.49c.21-1.74-1.7.68-1.75.73-2,2-3.64,5.07-5.08,7.42-2.83,4.6-7.66,10.93-8.32,16.51Z" transform="translate(-8.9 -37.14)"/><path d="M1795.23,349.3c.5-7.9-7.09-11-13.88-9.22-6.24,1.64-12.09,5.72-16.65,10.17-6.36,6.23-11.2,13.87-15.64,21.53s-9.74,16.57-11.15,25.52c-2.31,14.75,15.43,13.65,24.11,8.85,13.79-7.63,22.44-23.52,30.17-36.58l-8.44,10.09c-3.57,11.9-8.22,31.53,7.59,37,2,.69,8-10.79,8.8-12.24.56-1,7.38-13.34,6.2-13.75-14-4.84-11.68-21.48-8.32-32.68.72-2.4.38-2.5-1.31-.76-2.92,3-5,7.28-7.12,10.85.73-1.24-.12.13-.55.7a52.47,52.47,0,0,1-3.35,4.07,39.33,39.33,0,0,1-10.56,8.2c-6,3.11-15.88,4.77-20.65-1.45a8.4,8.4,0,0,1-1.57-6c.3-3.7,4.43-10.67-1.44-.4-5.62,9.85-2.1,3.94.56,1.49a43.36,43.36,0,0,1,4.75-3.79c4.19-2.91,9.5-5.86,14.78-5.39,4.43.39,8.82,3.68,8.51,8.47-.1,1.67,1.58-.53,1.76-.73,2-2,3.63-5.07,5.08-7.42,2-3.28,3.93-6.64,5.65-10.08.94-1.89,2.53-4.3,2.67-6.42Z" transform="translate(-8.9 -37.14)"/><path d="M1900.87,350.4A289.35,289.35,0,0,1,1875.26,422l12.41-18.9c-2.51-7.31-1-15.27-4.44-22.35A28,28,0,0,0,1871,368.38c-11.7-6-24.09-1.69-32.2,7.93-6.66,7.91-12.11,17.77-16.2,27.23-2.62,6-4.1,12.4-2.35,18.91,3.25,12.06,16.07,20,28.24,17.84,1.17-.21,2.63-2.62,3.11-3.28a99.59,99.59,0,0,0,5.69-9,101.32,101.32,0,0,0,4.92-9.41c.17-.38,1.66-4.4,1.28-4.33a25.24,25.24,0,0,1-25.15-11.11,21.18,21.18,0,0,1-3.61-14.13c.13-1.22.67-2.56.74-3.76l-8.31,14.19a9.58,9.58,0,0,1,1.26-1.36,29.4,29.4,0,0,1,6.05-4.33c8.91-4.56,19.83-2,27.16,4.36a26.71,26.71,0,0,1,8.14,12.29c1.84,6.07.88,12.53,3,18.58.14.4,4.79-5.71,4.84-5.79a143.33,143.33,0,0,0,7.57-13.11A342.54,342.54,0,0,0,1916,325.75c.42-1.89-2,1-1.75.73-2,2-3.63,5.07-5.08,7.42-3,5-7,10.7-8.32,16.5Z" transform="translate(-8.9 -37.14)"/></svg>