<svg xmlns="http://www.w3.org/2000/svg" viewBox="0 0 1859.85 1130.24"><path d="M128.19,519.33A2027.45,2027.45,0,0,1,251.28,689.18c.38.58,8.24-11.28,8.8-12.25a97.61,97.61,0,0,0,4.92-9.4c.41-.91,1.9-3.39,1.28-4.34A2028.93,2028.93,0,0,0,143.19,493.35c-.6-.74-8.25,11.29-8.8,12.24a98.8,98.8,0,0,0-4.92,9.4c-.37.82-1.94,3.52-1.28,4.34Z" transform="translate(-5.42 -4.96)"/><path d="M50.31,559.26a885.31,885.31,0,0,1,131.8-96.75c1.55-.93,3.35-4.2,4.22-5.52,2.12-3.2,4.08-6.55,5.91-9.93,1.39-2.57,3.08-5.3,3.89-8.11.15-.55,1.12-2.71-.25-1.89A884.7,884.7,0,0,0,64.09,533.81c-4.41,3.91-7.37,10.34-10.13,15.45-1.39,2.57-3.09,5.3-3.89,8.11-.09.32-1,3,.24,1.89Z" transform="translate(-5.42 -4.96)"/><path d="M154.78,754.78A1530.3,1530.3,0,0,1,352.45,638.91c1.46-.71,3.51-4.43,4.23-5.52,2.12-3.2,4.08-6.55,5.91-9.93,1.39-2.57,3.08-5.3,3.88-8.11.19-.66,1.14-2.56-.24-1.89A1528.59,1528.59,0,0,0,168.55,729.33c-1.61,1.11-3.24,4-4.22,5.52-2.13,3.2-4.09,6.55-5.91,9.93-1.39,2.57-3.09,5.3-3.89,8.11-.13.46-1.11,2.83.25,1.89Z" transform="translate(-5.42 -4.96)"/><path d="M269.6,456.88a134.75,134.75,0,0,1-1.33,35.65c-.31,1.82,1.85-.82,1.76-.73,2-2,3.63-5.07,5.08-7.42,2.95-4.79,7.34-10.78,8.32-16.5a135.17,135.17,0,0,0,1.33-35.65c-.14-1.45-1.22.17-1.76.73-2,2-3.63,5.07-5.08,7.42-2,3.28-3.93,6.64-5.65,10.08-.83,1.68-2.85,4.55-2.67,6.42Z" transform="translate(-5.42 -4.96)"/><path d="M314.58,525.22l98.69,16c3.66.59,7.66,1.77,11.37,1.8s5.65-3.59,7.59-6.52c3.78-5.73,7.67-12,10-18.55,1.12-3.16-.13-5.38-1.27-8.41A283.45,283.45,0,0,1,422.86,410c0-1.57-1.42.38-1.76.73-2,2-3.63,5.07-5.08,7.42-2,3.28-3.93,6.64-5.65,10.08-.9,1.8-2.67,4.39-2.67,6.42a294.2,294.2,0,0,0,5,53.39q2.49,13.26,6.23,26.25,1.8,6.26,3.89,12.43c.79,2.35,1.62,4.69,2.47,7,.39,1,2.81,5.41,2.47,6.36l14-23.57c-2.8,1.93-10.37-.82-13.51-1.33l-14.66-2.37-27.36-4.43-56.67-9.17c-2.48-.4-7.78,10.46-8.8,12.24-.54.94-7,13.62-6.2,13.74Z" transform="translate(-5.42 -4.96)"/><path d="M501.86,442.74,496,453.05c.6-.85,1.22-1.7,1.86-2.53.47-.63.95-1.25,1.43-1.87,1.75-2.29,3.5-4.59,5.15-6.95A157.33,157.33,0,0,0,518.27,418c3.37-7.28,5.5-15.33,2.27-23.1s-11.63-10.05-18.64-5.39c-3.73,2.48-6.53,6.35-9.09,9.95a154.9,154.9,0,0,0-12.71,21.74c-10.35,21.22-16.55,45.64-14.61,69.37.81,9.84,5.49,17.47,15.59,19.63s20-2.52,28.69-7.39c24.38-13.71,48.19-28.54,71.74-43.62,1.58-1,3.3-4.13,4.23-5.53,2.12-3.2,4.08-6.55,5.91-9.93,1.38-2.57,3.08-5.3,3.88-8.11.15-.51,1.12-2.76-.24-1.89q-26.64,17.07-53.84,33.19c-14.18,8.39-33.85,24.23-51.08,15.29-8.57-4.45-9.85-13.46-10-22.26a132.65,132.65,0,0,1,3-29.61,117.57,117.57,0,0,1,4-14.16c.66-1.91,1.36-3.8,2.13-5.66,3.86-9.35-9.69,11.61-4.34,6.9s13-6.68,18.16-.33A17.89,17.89,0,0,1,507,427a22.39,22.39,0,0,1-.31,5.42c-.13.72-.37,1.43-.5,2.14-.9,5,9.93-15.88,5.25-9.77a195.86,195.86,0,0,0-22,35.23c.12-.26-1.95,3.95-1.28,4.33s3.28-3.5,3.11-3.27a115.32,115.32,0,0,0,10.61-18.37Z" transform="translate(-5.42 -4.96)"/><path d="M655.37,241.69C681,280.6,707.18,319.6,724.1,363.26c.1.25,7.54-10.13,7.78-10.53,1.63-2.74,3.2-5.52,4.63-8.37.86-1.72,2.79-4.49,2.67-6.42a38,38,0,0,1,1-12c.75-2.84,3.31-7.18-1.54,1.19-5.3,9.14-1.9,3.44-.24,1.47A109,109,0,0,1,756,312.45c11.7-8.92,29.66-19.52,43.05-7.56a27.55,27.55,0,0,1,8.41,16.62,32.48,32.48,0,0,1-.66,11.95c-.39,1.62-1.36,3.31-1.56,4.91.32-2.63,5.56-9,2.27-4.38-10.47,14.66-23.35,27.88-36.65,40-4.39,4-7.36,10.31-10.14,15.46-1.38,2.57-3.08,5.29-3.88,8.1-.09.31-1,3.06.24,1.89a314,314,0,0,0,39.62-43.24A192,192,0,0,0,816,324.71c3.81-7.79,7.32-16.35,6.91-25.18-.68-14.95-11.23-28.2-27.33-25.59S764,290.23,753.22,301.87c-8.87,9.56-15.88,21-21.74,32.58-4.49,8.89-8.07,18-7.46,28.15l15.08-25.32C722.18,293.62,696,254.62,670.37,215.7c-.4-.59-8.25,11.28-8.8,12.25a97.61,97.61,0,0,0-4.92,9.4c-.41.9-1.9,3.4-1.28,4.34Z" transform="translate(-5.42 -4.96)"/><path d="M841.44,299.24c7.68-5.48,13.14-13.13,18-21.07,5.67-9.2,11.34-19.1,13.78-29.73.93-4.07,3-17.55-5.12-15.25-3.38,1-6.23,4.42-8.74,6.69-3.32,3-6.54,6.13-9.58,9.43-8.19,8.9-14.65,19.59-20.1,30.35-4,8-7.7,16.71-7.11,25.86,1,14.94,12.64,23.75,26.46,26.52,18.67,3.74,39.08-1.16,56.5-7.82,3.75-1.43,6.92-9,8.8-12.24a101.24,101.24,0,0,0,4.93-9.4,30.15,30.15,0,0,0,1.27-4.34c-14.76,5.64-31.09,9.66-47,8.94-12.08-.54-25.73-4.29-32.32-15.34-4-6.68-4.4-14.77-2.26-22.14,2-6.92-.39,3.09-4.65,7.27,1.4-1.37,2.55-3.08,3.91-4.52,2.73-2.9,5.68-5.6,8.65-8.25,2.31-2.08,6-6.66,9.52-4.91,3.08,1.53,2.8,5.7,2.53,8.58a39.69,39.69,0,0,1-.84,5.22c-.77,3.32-4.05,9,1.79-1s2.5-4.35,0-2a43.79,43.79,0,0,1-4.71,3.78c-1.63,1.16-3.21,4-4.23,5.52-2.12,3.21-4.08,6.56-5.91,9.94-1.38,2.57-3.08,5.29-3.88,8.1-.13.45-1.11,2.86.24,1.89Z" transform="translate(-5.42 -4.96)"/><path d="M918.74,262A259.73,259.73,0,0,0,948,247.67c8.84-5.07,18.58-10.5,26.14-17.4,6-5.48,10.18-13.78,13.75-20.93,2.27-4.56,5.23-9.63,2.51-14.62-4.23-7.73-16.63-7.23-24.23-7.53-8.36-.33-17.08.1-25,3-8.25,3-13.73,8.59-18.54,15.82-6.93,10.41-15.17,23-14.91,36.07.18,9.7,3.71,19.12,8.1,27.65,9.69,18.81,30.45,36.07,52.25,24.78,1.48-.77,3.46-4.38,4.22-5.52,2.12-3.21,4.08-6.56,5.91-9.94,1.39-2.57,3.08-5.29,3.88-8.11.18-.62,1.14-2.6-.24-1.88-30.32,15.7-59.08-25.89-59-52.43a32.3,32.3,0,0,1,.48-5.46c1.83-10.24-12.58,15.57-7,11a36.28,36.28,0,0,1,7-4.82c5.65-2.75,12.08-3.76,18.29-4.14,8.48-.52,38.07-1.85,34.43,13l2.67-6.41-.65,1.35,9.3-15.63c1-1.31,0-.17-.64.28-1.15.78-2.24,1.68-3.37,2.49q-3.24,2.34-6.54,4.56-6.62,4.45-13.51,8.47A248.78,248.78,0,0,1,933.74,236c-3.79,1.58-6.86,8.87-8.8,12.24a99,99,0,0,0-4.92,9.41,34.76,34.76,0,0,0-1.28,4.33Z" transform="translate(-5.42 -4.96)"/><path d="M995.67,216.29a290.91,290.91,0,0,1,44.22,63.27c.24.47,7.59-10.22,7.77-10.53,2.44-4.1,6.89-9.89,7.3-14.79a107.26,107.26,0,0,1,7.23-31.55,18.55,18.55,0,0,0,1.51-3.43c.06-.39.41-.46,0-.1a16.33,16.33,0,0,1-1.22,2q-1.83,2.7-.9,1.47c.6-.2,1.68-1.91,2.29-2.46,3.66-3.38,8.29-5.29,13.25-4,8.67,2.3,16.21,11.48,21,18.56A67.72,67.72,0,0,1,1109,262.06c.09.52,3.66-4,3.12-3.27a103.42,103.42,0,0,0,5.68-9,101.41,101.41,0,0,0,4.93-9.41c.57-1.29,1.51-2.89,1.27-4.33a67.43,67.43,0,0,0-15.61-33.53c-7.91-9.08-19-17.86-30.17-8.37-5.74,4.88-9.93,11.69-13.84,18a228.67,228.67,0,0,0-13.51,25.16,126.12,126.12,0,0,0-11.08,41.53l15.08-25.31a290.91,290.91,0,0,0-44.22-63.27c-.74-.81-8.25,11.28-8.8,12.24-1,1.64-7.9,11.89-6.2,13.74Z" transform="translate(-5.42 -4.96)"/><path d="M1232.27,181.9a575.38,575.38,0,0,0,32,60.91c.36.58,7.62-10.25,7.78-10.53,1.63-2.74,3.21-5.52,4.63-8.37.93-1.86,2.58-4.32,2.67-6.42l1.31-30.82c.2-4.65.19-9.36.67-14,.18-1.7.61-3.32.88-5q-18.48,23-9,16.57a6.68,6.68,0,0,1,2.55-.65c4.3-.32,8.23,3.08,11.49,5.42q5.79,4.14,11.26,8.71A203.49,203.49,0,0,1,1319,217.49c.7.78,7.6-10.24,7.77-10.53,2.61-4.38,6.43-9.66,7.3-14.79a131,131,0,0,1,3.37-14.9c1.17-4,3.34-8,4.24-11.94l-5.79,9.85a13,13,0,0,1,1.59-1.47,17,17,0,0,1,9.14-4,25.55,25.55,0,0,1,13.89,2.45c8.23,3.87,14.15,11.25,19.36,18.46a211.3,211.3,0,0,1,16.46,27c.19.38,8.21-11.22,8.8-12.24a103.79,103.79,0,0,0,4.92-9.41c.44-1,1.83-3.26,1.28-4.33-6-11.69-12.95-23.23-21.36-33.36-7.4-8.9-18.38-17.1-30.65-14.1-5.34,1.3-9.36,4.78-12.74,9-5.86,7.25-10.58,15.69-14.71,24a143.78,143.78,0,0,0-13,39.68L1334,191.51a200.71,200.71,0,0,0-27.48-25.29c-4-3-9-7.92-14.24-8.53-4.85-.57-8,3.08-10.58,6.65-8,11.06-15.16,23.49-15.77,37.35q-.9,20.24-1.72,40.46l15.07-25.32a575.38,575.38,0,0,1-32-60.91c-.25-.56-3.6,3.94-3.11,3.28a99.59,99.59,0,0,0-5.69,9,101.32,101.32,0,0,0-4.92,9.41c-.46,1-1.79,3.19-1.28,4.33Z" transform="translate(-5.42 -4.96)"/><path d="M1519.06,142.24c-8.27-15.39-28.32-16-42.45-9.19-9,4.34-16.52,11.22-23.51,18.27A131.53,131.53,0,0,0,1432,179c-5,8.68-11.49,19.3-8.36,29.69,2.62,8.67,10.4,12.43,18.76,8.9,9.38-4,18-11.54,26.07-17.64q13.62-10.29,26.44-21.61,3.46-3.06,6.86-6.18c1.37-1.26,4.75-5.9,6.5-4.5,1.14.91,1.61,6.3,2,7.8.7,2.6,1.45,5.2,2.27,7.76,3.43,10.66,8.2,20.78,16.06,28.9.81.83,8.24-11.28,8.8-12.24.91-1.59,7.9-12,6.2-13.75-12.13-12.51-16.65-29.55-20.73-46l-.62.27a457,457,0,0,1-35.63,30.74q-9.12,7.08-18.59,13.67c-5.63,3.93-12.45,9.77-19.84,8-5.07-1.18-8.48-5.94-9.73-10.75-.87-3.34,0-5.74.11-9l-3.38,5.89q-5.75,8.85-2.88,5.29c.54-.57,1-1.22,1.53-1.8,1.23-1.39,2.51-2.72,3.8-4,9.41-9.66,20.2-20.07,33.84-23,12.18-2.63,26.42,1.25,32.59,12.74.23.42,8.22-11.23,8.8-12.24a101.24,101.24,0,0,0,4.93-9.4c.43-1,1.84-3.29,1.27-4.34Z" transform="translate(-5.42 -4.96)"/><path d="M1636.08,124.78c-10.49-5.45-23.71-11.85-35.76-8-6.12,2-10.46,6.26-14.22,11.32a158,158,0,0,0-15,25.28c-6.48,13.28-11.67,27.4-14.31,42-.94,5.19-1.64,11.59,2.2,15.85,3.49,3.88,9,3.93,13.72,2.85,10.91-2.48,21-10.28,30-16.59a209.21,209.21,0,0,0,28.41-23.62,183.06,183.06,0,0,0,24.15-30.14c8.48-13.16,16.4-27.25,21.4-42.15C1687.41,69.68,1680.5,36.8,1673,5c-.13-.55-3.65,4-3.11,3.27a101.18,101.18,0,0,0-5.69,9,101.32,101.32,0,0,0-4.92,9.41c-.55,1.22-1.6,3-1.28,4.33,5.73,24.35,11.59,49.5,8.36,74.66-1.16,9-3.54,18.46-7.44,26.43.76-1.55-.33.63-.41.77.24-.42,1.31-1.78,1.3-2.26,0,1-2,2.87-2.55,3.65a129,129,0,0,1-9.18,10.92c-13.62,14.6-30,26.64-47,37-6.59,4-16.46,9.41-24.24,5.33-9.53-5-4.57-19.26-2.46-27.15a122.29,122.29,0,0,1,6.4-18.19c1-2.26,2.51-4.69-1.5,2.1-4.43,7.51-1.76,3.13.61,1.41a20.15,20.15,0,0,1,8.3-3.52c11.4-2.08,23.08,3.56,32.9,8.67,2.33,1.2,16.64-25.13,15-26Z" transform="translate(-5.42 -4.96)"/><path d="M189.75,1108.65l-110-76.08c-15.16-10.48-31.75-20.39-43.88-34.52C23.35,983.52,18.94,965,21.17,946.13a96.29,96.29,0,0,1,8.73-30c.72-1.51,1.86-3.68,2.37-4.57.91-1.63,1.49-2.59,2.42-4.11,2.82-4.58,5.74-9.09,8.68-13.6,3.57-5.5,8-11.68,9.79-18,.37-1.29.9-1.79-.24-1.89s-4,5.11-4.23,5.52C35.1,900.36,21.4,921.74,12.53,945.16,5.41,964,2.4,985.35,9.36,1004.67c6.79,18.9,23,31.43,38.91,42.52,19.66,13.7,39.43,27.26,59.14,40.88l67.34,46.56c1.17.8,17.5-24.26,15-26Z" transform="translate(-5.42 -4.96)"/><path d="M65.26,1109.17c-2.8-7-2.68-14.44-.6-21.67a39,39,0,0,1,3-7.6c-1.13,2,1.24-2,.44-.69.93-1.56,1.88-3.12,2.85-4.65a292.62,292.62,0,0,1,27.38-36.1c4.43-5.06,7.74-11.52,10.72-17.5.68-1.36,4.63-9.93.92-5.69a391,391,0,0,0-40.85,56.36c-6.73,11.18-13.53,22.68-17.92,35-3.33,9.35-4.74,19.07-1,28.5.22.57,3.62-4,3.11-3.27a99.75,99.75,0,0,0,5.69-9,101.15,101.15,0,0,0,4.92-9.4c.48-1.09,1.75-3.14,1.28-4.34Z" transform="translate(-5.42 -4.96)"/><path d="M181.81,1031.05c.95-3.14,1.94-6.27,3.05-9.36.53-1.5,1.07-3,1.67-4.48,2.4-5.79,1.53.78-3,4.69,3.63-3.11,8.31-7.65,14.21-9.29,15.84-4.43,33.47,4.87,45.49,14.6,12.52,10.13,21.91,25.74,18.85,42.36-.15.8-.4,1.58-.54,2.38-1.31,7.08,12.25-16.8,7.35-12.13a38.46,38.46,0,0,1-3.56,3.18,26.64,26.64,0,0,1-9.93,4.69,23.5,23.5,0,0,1-18.89-3.61c-12.09-8.35-16.09-24.67-22.72-37-.23-.42-8.22,11.23-8.8,12.24a99,99,0,0,0-4.92,9.41c-.44,1-1.85,3.28-1.28,4.33,7.29,13.52,11.9,33.35,27.65,39.64,23.39,9.34,39.4-19.6,47-36.49,8.83-19.5,2.35-39.8-13.46-53.51-14.18-12.29-36.83-23.53-54.83-12.88-10.19,6-16.77,17.73-22.44,27.65a169.7,169.7,0,0,0-15.17,35.23c-1.7,5.59,3.95-2.86,4.46-3.63,3.59-5.43,7.88-11.74,9.8-18Z" transform="translate(-5.42 -4.96)"/><path d="M239.08,974.68a451.64,451.64,0,0,1,87.38,55.92c1.09.88,8.21-11.22,8.8-12.25a97.61,97.61,0,0,0,4.92-9.4c.35-.78,2-3.58,1.28-4.34a167.72,167.72,0,0,1-33.89-57,78.07,78.07,0,0,1-4-14.46,34.78,34.78,0,0,1,0-8c.74-9.25-16.42,20.45-9.14,16.07a29.51,29.51,0,0,1,4.21-2.36c5.16-2.13,10.93-3.19,16.32-4.61,2.32-.61,4.76-1.46,7.2-1.22,1.25.13,5.62,1.7,4.82,4l13-22.43-.71.79c-4.47,5-7.75,11.55-10.73,17.5-.68,1.38-4.67,9.88-.91,5.69,4.73-5.28,8.29-12,11.44-18.3,1.4-2.8,4-6.87,2.65-10.2-2.73-6.74-15.48-.8-20.22.46-7.68,2.06-13.58,4.25-18.42,10.9-5.88,8.08-13.23,18.89-14.72,29.08-.94,6.43.94,13,2.87,19.1a164.59,164.59,0,0,0,8.79,22,168.43,168.43,0,0,0,26.44,39.09l15-26a451.59,451.59,0,0,0-87.38-55.91c-2.56-1.25-16.44,25.28-15,26Z" transform="translate(-5.42 -4.96)"/><path d="M531.73,882.39c-45.83-35.12-80.09-82.22-111.9-129.79-4.38-6.56-9.15-13-12.91-20a31.17,31.17,0,0,1-3.9-11,27.38,27.38,0,0,1,.07-5c.21-3.52,5-9.29-4.79,7.11-7,11.7-7,9.72-3.13,7,1.62-1.13,3.23-4,4.22-5.52,2.12-3.21,4.09-6.56,5.91-9.94,1.39-2.57,3.08-5.29,3.89-8.1.13-.47,1.11-2.84-.25-1.89-3.34,2.33-5.75,5.73-8,9.1a127.89,127.89,0,0,0-10.44,18.72c-2.84,6.46-3.63,12.76-1.32,19.52,2.62,7.64,7.85,14.33,12.29,21s8.91,13.34,13.44,20c18.56,27.11,38.17,53.66,60.76,77.59a345.55,345.55,0,0,0,41,37.24c1.16.89,8.19-11.19,8.8-12.24.75-1.31,7.84-12.49,6.2-13.74Z" transform="translate(-5.42 -4.96)"/><path d="M364.28,897.76a1066.38,1066.38,0,0,1,108.37-100.6c4.48-3.62,7.45-10.5,10.13-15.46,1.39-2.57,3.09-5.3,3.89-8.11.11-.37,1.08-3-.25-1.88a1088,1088,0,0,0-110.5,102.86c-4.54,4.85-7.79,11.6-10.73,17.5-.71,1.42-4.75,9.78-.91,5.69Z" transform="translate(-5.42 -4.96)"/><path d="M396.07,729.47A688.43,688.43,0,0,1,465.54,709c1.22-.29,2.56-2.51,3.12-3.27a101.92,101.92,0,0,0,5.68-9,98.8,98.8,0,0,0,4.92-9.4c.18-.39,1.6-4.41,1.28-4.34a688.43,688.43,0,0,0-69.47,20.46c-3.7,1.3-7,9.06-8.8,12.24a101.15,101.15,0,0,0-4.92,9.4,27.64,27.64,0,0,0-1.28,4.34Z" transform="translate(-5.42 -4.96)"/><path d="M530.78,781.15a170.7,170.7,0,0,0,35.91,35.9c5.73,4.2,12.58,10.09,19.75,11.35,7.4,1.3,13.22-4.32,17.41-9.63,12-15.19,21.8-34.52,26.15-53.46,3.6-15.68,2.76-32.22-3.64-47.07-.15-.33-7.57,10.17-7.78,10.53-1.63,2.74-3.21,5.52-4.63,8.37-.86,1.73-2.78,4.49-2.67,6.42,1,17.76,10.35,34.54,25.73,43.84,16.28,9.84,36.8,9.6,53.44.86,1.48-.78,3.45-4.36,4.22-5.52,2.12-3.2,4.09-6.55,5.91-9.93,1.39-2.57,3.08-5.3,3.89-8.11.17-.62,1.13-2.61-.25-1.89a53,53,0,0,1-77.78-43.9l-15.08,25.31a71.26,71.26,0,0,1,4.83,38.45,80.27,80.27,0,0,1-4.79,18.43,10.23,10.23,0,0,0-1.1,2.63c0-.72,6.79-8.84,3.32-5.89-2.39,2-4.64,3.95-7.84,4.57-6,1.18-11.64-2.92-16.4-6a168.31,168.31,0,0,1-15.71-11.6,171.25,171.25,0,0,1-27.89-29.62c-.51-.69-8.25,11.29-8.8,12.24a98.8,98.8,0,0,0-4.92,9.4c-.38.86-1.93,3.47-1.28,4.34Z" transform="translate(-5.42 -4.96)"/><path d="M722.27,660.6c-3.19-12.82-22.95,8-26.37,11.58A103.14,103.14,0,0,0,682.67,690c-4.67,7.67-9.38,15.82-11.79,24.54-3.08,11.14,0,22.54,10.15,28.77,11.36,7,25.2,5,37.69,3.18,1.16-.17,2.67-2.66,3.12-3.27a103.42,103.42,0,0,0,5.68-9,101.24,101.24,0,0,0,4.93-9.4c.16-.38,1.67-4.4,1.27-4.34-16.15,2.4-40.86,4.4-47.73-15.06a24.55,24.55,0,0,1-.55-13.25c.7-3.19,3.45-7.58-2.32,2.5-5.62,9.81-3.6,6-1.61,3.7a64.34,64.34,0,0,1,4.79-4.84c3.55-3.3,18.19-18.13,21-6.94.14.55,3.65-4,3.12-3.27a100.47,100.47,0,0,0,5.68-9,97.61,97.61,0,0,0,4.92-9.4c.54-1.22,1.62-3,1.28-4.34Z" transform="translate(-5.42 -4.96)"/><path d="M703.27,608.62A1459.31,1459.31,0,0,0,791,768c.36.57,8.24-11.28,8.79-12.24a101.41,101.41,0,0,0,4.93-9.41c.4-.92,1.88-3.37,1.28-4.33a1458.52,1458.52,0,0,1-87.68-159.36c-.14-.29-8.19,11.19-8.8,12.24a99,99,0,0,0-4.92,9.41c-.46,1-1.81,3.22-1.28,4.34Z" transform="translate(-5.42 -4.96)"/><path d="M791.9,633.25c-6.46,5.39-10.76,13.74-14.65,21-3.13,5.85-6.37,12.11-6.11,18.93.43,11.06,7.25,19.95,17.13,24.48,12.18,5.59,26.38,5.15,39.48,5.61l46.59,1.63c2.82.1,7.6-10.17,8.8-12.24.58-1,6.58-13.72,6.2-13.74l-36.88-1.29c-11.48-.41-23.19-.22-34.57-1.9-9.32-1.38-19.36-4.53-25.55-12.08a27.56,27.56,0,0,1-5.4-10.83,22.24,22.24,0,0,1-.62-6.75c0-.8.25-1.59.3-2.39q1.59-6.47-4.6,7.32-8.91,12.16-3.89,7.69c4.46-3.71,7.42-10.44,10.13-15.45,1.39-2.57,3.08-5.3,3.89-8.11.1-.36,1.07-3-.25-1.89Z" transform="translate(-5.42 -4.96)"/><path d="M887.88,624.05a139.87,139.87,0,0,1,21.59,61.73c.14,1.44,1.21-.17,1.76-.73,2-2,3.63-5.07,5.08-7.42,2-3.28,3.93-6.64,5.65-10.09.83-1.66,2.85-4.55,2.67-6.41a142.19,142.19,0,0,0-21.75-63.06c-.37-.58-8.24,11.28-8.8,12.24a103.79,103.79,0,0,0-4.92,9.41c-.4.91-1.89,3.38-1.28,4.33Z" transform="translate(-5.42 -4.96)"/><path d="M849.9,582c1,0,2.84-2.9,3.11-3.28a99.59,99.59,0,0,0,5.69-9,103.79,103.79,0,0,0,4.92-9.41c.17-.38,1.79-4.33,1.28-4.33-1,0-2.85,2.89-3.12,3.27a130.35,130.35,0,0,0-10.61,18.37c-.17.38-1.79,4.34-1.27,4.34Z" transform="translate(-5.42 -4.96)"/><path d="M936.71,613a247.34,247.34,0,0,1,31.06,50.6c.17.38,7.57-10.19,7.78-10.53,1.62-2.74,3.2-5.52,4.62-8.37.84-1.69,2.84-4.54,2.67-6.42a86.35,86.35,0,0,1,4.95-38,26.19,26.19,0,0,0,1.57-3.75c.1-.55-2.32,4.64-2.67,4.6.21,0,3.82-4.9,4.12-5.23,4.56-5.13,10.33-8.34,17.11-5.32,12.33,5.51,14.8,23.91,18.16,35.37q6.57,22.41,12.16,45.09c.13.55,3.65-4,3.11-3.27a98.35,98.35,0,0,0,5.69-9,99.9,99.9,0,0,0,4.92-9.4c.54-1.22,1.61-3,1.28-4.34q-6.77-27.39-14.94-54.41c-2.4-7.91-4.38-17.36-10.85-23.1-5.86-5.21-13.36-5.39-19.44-.46-6.45,5.22-11.48,12.77-16,19.63A194.08,194.08,0,0,0,975.94,616c-6.45,14.9-9.65,30.69-8.25,46.92l15.08-25.31A247.34,247.34,0,0,0,951.71,587c-.58-.73-8.25,11.3-8.8,12.24a99,99,0,0,0-4.92,9.41c-.37.83-1.94,3.5-1.28,4.33Z" transform="translate(-5.42 -4.96)"/><path d="M854.69,576a10.77,10.77,0,0,1,10.19,1,10.33,10.33,0,0,1,3.78,4.32,7.55,7.55,0,0,1,.66,2.6,5.57,5.57,0,0,1-.06,1.82q19.29-25.51,10.39-18.19a10,10,0,0,1-15.3-10.48c.43-1.9-2,1-1.76.74a47.21,47.21,0,0,0-5.08,7.41c-3,5-7,10.68-8.32,16.51-1.23,5.43,1.62,11.54,7.08,13.36,8.17,2.73,13.73-6.28,17.33-12,3.79-6,7.63-12.29,10-19,1-2.87,1.37-5.94.08-8.8a11,11,0,0,0-14-5.34c-1.33.56-2.33,2.2-3.11,3.28a97.41,97.41,0,0,0-5.69,9c-1.75,3.07-3.48,6.18-4.92,9.41a35.26,35.26,0,0,0-1.28,4.33Z" transform="translate(-5.42 -4.96)"/><path d="M1113.56,502.18c-15.47,6.08-26.4,17.46-35.28,31.23-9.84,15.27-20.77,34.08-19.23,53,1.08,13.18,8.43,28.49,23.5,28.89,8.85.24,17.3-4.7,24.3-9.61a93.36,93.36,0,0,0,18-16.48c7.7-9.23,14-19.84,19.3-30.58,4.09-8.2,7.41-16.87,8.1-26.08a47.13,47.13,0,0,0-4.06-23.57c-.36-.75-1.74-4.42-2.68-4.77-.77-.29-3.09,1.46-3.6,1.87-4.93,3.93-8.23,10.93-11.22,16.3-4.47,8-8,15.44-7.05,24.74.9,9.14,2.76,18.29,4.56,27.28,3.87,19.31,8.84,38.36,13.91,57.38,5.7,21.37,11.53,42.71,16.07,64.36,2.19,10.47,4.07,21,5.47,31.6q1.16,8.76,1.82,17.56.32,4.13.5,8.25c0,1.14.13,2.3.12,3.44,0,.6-.71,4.53.17,2.48l8.88-15.86c3.29-5,1.25-2.08-1.77-1.52a17.74,17.74,0,0,1-3.78.21,40.28,40.28,0,0,1-9-1.59c-5.74-1.53-11.45-3.24-17-5.27-11.15-4.05-22.45-9.5-30.6-18.34-10-10.82-11.89-24.83-8.47-38.84A92.84,92.84,0,0,1,1112,658.5c-1.24,2.44,1.1-1.63,1.46-2.14,2.19-3.15,4.61-6.12,7.09-9,4.38-5.15,7.72-11.49,10.73-17.51.66-1.32,4.57-10,.91-5.68-17.26,20.29-32,45-40.38,70.37-3.5,10.52-5.8,21.8-2.8,32.74a40.63,40.63,0,0,0,13.57,20.24c6.87,5.75,15.06,9.78,23.38,13s17.23,6.48,26,7.61c3.44.44,7.22.42,10.34-1.33a17.47,17.47,0,0,0,5.12-5.19,118.07,118.07,0,0,0,9.12-15c3.14-6.06,4.87-10.83,4.57-17.6-.27-6.11-.76-12.21-1.42-18.29-5.15-48-20.63-93.86-31.75-140.59-2.84-11.95-5.41-24-7.42-36.08-.84-5-2-10.18-2-15.3a46.9,46.9,0,0,1,.69-6.29l-11.14,19.18a4.67,4.67,0,0,1,1.63-1q1.24-1,1.59,1c.54.89,1,1.81,1.5,2.74,4.62,9.25,5.38,20,3.24,30-.49,2.28-1.7,4.56-2.07,6.82.28-1.72,6.93-10.11,3.93-6.88-.69.74-1.3,1.67-2,2.44a79,79,0,0,1-11.52,10.79c-9.25,7.2-21.83,15.28-33.93,10.49-8.82-3.49-13.76-12.7-15.61-21.56a42.81,42.81,0,0,1-.24-15.31,51.45,51.45,0,0,1,1.95-8.29c1.85-5.55,2.81-2.61-2.91,3.89,6.89-7.84,14.77-14.54,24.87-18.51,3.76-1.47,6.9-8.94,8.8-12.24a101.24,101.24,0,0,0,4.93-9.4,31.49,31.49,0,0,0,1.27-4.34Z" transform="translate(-5.42 -4.96)"/><path d="M1296.84,481a80.75,80.75,0,0,0,3.72,44.48c3.89,10.13,15.57,34.7,29.73,25.46,6.4-4.17,11.11-12,15.66-18,5.66-7.45,11-15.16,16-23a405.52,405.52,0,0,0,29-53.68c-.12.25,1.94-4,1.27-4.34s-3.28,3.5-3.11,3.28a103.9,103.9,0,0,0-10.61,18.37c-23.43,52.29-10.64,108.49,10.77,159.12,5.37,12.7,11.66,25,16.87,37.8a74.29,74.29,0,0,1,5.36,18.31,36.87,36.87,0,0,1-.13,10.95c-.2,1.14-.59,2.24-.79,3.37,2.53-14.41,12.21-16.83,5.41-11.18-16.54,13.74-40.66,8-53.14-8.06-17.3-22.22-13.08-53.27-.74-76.77,1.3-2.46,3.11-5.37,3.89-8.1.54-1.9.81-1.76-.25-1.89s-4,5.15-4.22,5.52a115.6,115.6,0,0,0-5.91,9.94c-13.36,25.43-26.62,55.65-15.15,84.3,8.74,21.84,31.76,35.57,54.41,25.08,13.76-6.36,22-22.48,27.95-35.58,6.25-13.89,4.17-27.29-1.36-41-5.83-14.52-13-28.48-19-43a334.8,334.8,0,0,1-15.36-45.08c-8.29-32.64-10.22-69.64,3.85-101l-12.45,17.31a165.6,165.6,0,0,1-16.13,29.44c-3.69,5.39-7.63,10.61-11.76,15.68s-8.71,10.53-15.85,7.47c-5.75-2.47-9.74-8.67-12.88-13.79a77.35,77.35,0,0,1-9.89-56c.37-1.86-1.93.91-1.76.74-2,2-3.63,5.07-5.08,7.41-3,4.9-7.17,10.74-8.32,16.51Z" transform="translate(-5.42 -4.96)"/><path d="M1418.73,502.37a45.31,45.31,0,0,0,28-5.81c10.77-6.23,17.66-17.11,23.7-27.64,5.91-10.29,11.68-21.53,11.94-33.67,0-2,.3-4.91-.39-6.8-.62-1.71.67-1.27-1.62-1.27a13.2,13.2,0,0,0-2.74.63,52.47,52.47,0,0,0-12.18,5c-8.35,4.67-15.07,11.58-20.75,19.19a164.81,164.81,0,0,0-20.42,36c-6.84,16.76-9.18,37.5-.24,54,9.61,17.72,33.81,23.91,48.23,8.34,4.53-4.88,7.78-11.59,10.73-17.5.7-1.41,4.73-9.81.91-5.69-8.58,9.27-24.59,7.36-34.18,1-12.17-8.12-16.63-23.86-16.28-37.78a65.46,65.46,0,0,1,3.79-20.65c.33-.91.82-3,1.55-3.8-1.06,1.12-5.9,9.11-3.71,6.65a86.68,86.68,0,0,1,6.44-7A52.55,52.55,0,0,1,1458.67,455a47.49,47.49,0,0,1,4.68-1.4c2.75-.68,3.48-1.38,3.77,1.66a42.21,42.21,0,0,1-.56,11.5c-.38,2-1.06,3.95-1.6,5.93-.87,3.17,6.39-10.62,6.13-10.38-.72.67-1.3,1.56-2,2.26a40.56,40.56,0,0,1-9.89,7.26,43.36,43.36,0,0,1-25.47,4.53c-2.6-.3-7.72,10.37-8.8,12.24-.55.95-6.83,13.67-6.2,13.74Z" transform="translate(-5.42 -4.96)"/><path d="M1580.64,413.71c-10.89-13.56-31.75,6.91-39.29,14.69a145.86,145.86,0,0,0-19.64,25.8c-6.12,10-12,20.58-15.47,31.85-4.68,15.21-5.18,40.17,14.49,45,9.09,2.24,18-3.6,24.83-8.92a94.83,94.83,0,0,0,18.29-19.45c14.14-19.5,26.71-42.95,27.58-67.52.06-1.62-1.5.47-1.76.73a36.5,36.5,0,0,0-4.11,5.91c-3.28,5.16-6.83,10.72-8.84,16.53-5.25,15.21-3.8,32.34,6,45.51s26.54,20,42.77,18.19c1.13-.13,2.72-2.73,3.12-3.28a101.76,101.76,0,0,0,5.68-9,99,99,0,0,0,4.92-9.41c.17-.37,1.71-4.38,1.28-4.33a47.32,47.32,0,0,1-40.87-15.81c-10-11.72-13.67-28.92-8.61-43.59l-14.7,23.17a79.65,79.65,0,0,1-3,19.53c-.2.67-2.82,7.79-2.84,7.78-.49-.3,4.45-6.62.86-2.12-7.43,9.28-21.21,22.46-34.17,20.35-14.79-2.42-19.78-18.86-18.36-31.8a57,57,0,0,1,2-9.94c.91-3,3.92-9.57,0-1.93-1.45,2.81-.13.35.43-.39.87-1.14,1.79-2.25,2.72-3.34a103,103,0,0,1,7.64-8c7.45-7,24.53-22.24,34.13-10.28.59.74,8.25-11.3,8.8-12.24a103.79,103.79,0,0,0,4.92-9.41c.36-.82,1.94-3.51,1.28-4.33Z" transform="translate(-5.42 -4.96)"/><path d="M1625.19,435.37l24.31,90.86c.14.55,3.64-4,3.11-3.27,1.69-2.33,3.2-4.79,4.66-7.26,2.49-4.17,6.78-9.82,7.3-14.79a377.43,377.43,0,0,1,6.54-40.78,175.4,175.4,0,0,1,4.63-18c.53-1.59,1.16-3.14,1.72-4.73,1.91-5.39-8.17,11.42-4.3,7.36a41.52,41.52,0,0,1,6.07-5.48c8.11-5.72,20-8.33,28.8-2.58a21.1,21.1,0,0,1,8,10.08,19.23,19.23,0,0,1,1.35,6.16,29.7,29.7,0,0,1-.22,3.4c-.8,9.4,16.06-23.18,9.36-16-4.53,4.86-7.79,11.6-10.73,17.5-.71,1.41-4.74,9.8-.92,5.69,4.58-4.92,8-11.19,11.21-17,2.35-4.3,4.93-8.89,6-13.74a21.63,21.63,0,0,0-3.24-16.21c-8.56-13-26.18-10.16-37-1.86-8,6.09-13.45,15.28-18.41,23.81a136.53,136.53,0,0,0-13.37,30c-5.46,18.54-8.58,37.91-10.6,57.1l15.08-25.32-24.31-90.86c-.15-.55-3.64,4-3.11,3.27a99.75,99.75,0,0,0-5.69,9,103.62,103.62,0,0,0-4.92,9.4c-.53,1.2-1.63,3-1.28,4.34Z" transform="translate(-5.42 -4.96)"/><path d="M1825.14,400.2c-7.11-5.19-15.44-3.64-23-.18s-15.41,8.59-20.5,15.26a108.79,108.79,0,0,0-12.35,21.07c-1.67,3.71-3,7.45-1.57,11.44,2.68,7.21,11.45,10.81,18.08,13.24,10.56,3.86,21.15,7.66,31.72,11.5,8,2.91,16.84,5.28,24,10.12a20.88,20.88,0,0,1,7,7.27,13.64,13.64,0,0,1,1.6,5.2,18.26,18.26,0,0,1,0,3.05,9.39,9.39,0,0,1-.34,1.74l8.65-15.39a120.84,120.84,0,0,1-22.51,14.93,256.42,256.42,0,0,1-64.49,23.14c-1.21.26-2.59,2.55-3.12,3.28a101.76,101.76,0,0,0-5.68,9,99,99,0,0,0-4.92,9.41c-.17.38-1.62,4.41-1.28,4.33a260.69,260.69,0,0,0,47.72-15.16c13.82-5.92,30-12.53,40.6-23.49,7.62-7.85,13.47-18.34,17.88-28.26,2.64-5.93,4.12-12.33.65-18.27-3.23-5.52-9.41-8.72-15.11-11.09-7.84-3.27-16-5.9-24-8.8-9.42-3.41-19.27-6.3-28.39-10.44a32.5,32.5,0,0,1-9.46-6.14c-1.57-1.55-5.33-6.21-4.26-8.5l-8.88,15.86c-3.24,5,0,.88,1.56-.32,1.24-1,2.52-1.9,3.82-2.8a57.65,57.65,0,0,1,11-6.16c7-2.83,14.28-3.42,20.6,1.19.94.69,17.64-24.06,15-26Z" transform="translate(-5.42 -4.96)"/></svg>