<svg xmlns="http://www.w3.org/2000/svg" viewBox="0 0 1827.19 274.85"><path d="M67.36,47A1099,1099,0,0,0,75,180c.06.5,3.66-4,3.12-3.27a101.92,101.92,0,0,0,5.68-9c2-3.5,6.71-9.45,6.2-13.74A1089.31,1089.31,0,0,1,82.51,22.35c0-1.57-1.43.4-1.75.74-2,2-3.64,5.07-5.08,7.42-2,3.27-3.93,6.64-5.65,10.08C69.13,42.4,67.36,45,67.36,47Z" transform="translate(-8.9 -12.14)"/><path d="M9,55.72,80.3,39.12c1.22-.28,2.57-2.52,3.12-3.27a103.42,103.42,0,0,0,5.68-9A101.41,101.41,0,0,0,94,17.47c.17-.38,1.6-4.41,1.27-4.33L24,29.74c-1.22.28-2.57,2.52-3.12,3.28a101.76,101.76,0,0,0-5.68,9,99,99,0,0,0-4.92,9.41c-.18.38-1.61,4.41-1.28,4.33Z" transform="translate(-8.9 -12.14)"/><path d="M23.6,207.19l107.94-16.27c1.16-.17,2.67-2.66,3.12-3.27a101.92,101.92,0,0,0,5.68-9,98.8,98.8,0,0,0,4.92-9.4c.17-.38,1.68-4.4,1.28-4.34L38.6,181.21c-1.15.18-2.66,2.66-3.11,3.28a99.49,99.49,0,0,0-5.68,9,101.41,101.41,0,0,0-4.93,9.41c-.16.38-1.67,4.39-1.28,4.33Z" transform="translate(-8.9 -12.14)"/><path d="M171.71,28.42c-10.14,16-19.44,32.87-22.47,51.75-.29,1.81,1.82-.79,1.76-.73,2-2,3.63-5.07,5.08-7.42,2.93-4.76,7.4-10.81,8.32-16.5a79.35,79.35,0,0,1,2.49-11.09c1.24-4,6.34-12.38-.51-1.6,3.53-5.56,8-11.65,9.8-18,.36-1.28.89-1.78-.25-1.88s-4,5.11-4.22,5.52Z" transform="translate(-8.9 -12.14)"/><path d="M185.38,94c-.13,21.69,8.84,79,42.77,60.6,14.47-7.84,24.15-23.35,32.16-37.14,8.44-14.55,15-29.84,20.73-45.61,2-5.56-4.05,3-4.47,3.64-3.7,5.59-7.48,11.7-9.8,18-1.94,5.33-3.88,10.67-6.09,15.9-.92,2.17-1.86,4.32-2.92,6.42l.25-.43q-1.92,3.5.95-1.57c0-.12,1.15-1.38-.12.17-6.93,8.52-16.58,18.46-28.49,18.29-11.32-.17-18-10.95-21.82-20.28a111.57,111.57,0,0,1-8-42.68c0-1.58-1.43.4-1.75.73-2,2-3.64,5.07-5.08,7.42-2,3.28-3.93,6.64-5.65,10.08-.91,1.82-2.66,4.38-2.67,6.42Z" transform="translate(-8.9 -12.14)"/><path d="M302.47,125.18C321,124.11,331,108.88,339.14,94c3.07-5.65,10.12-16.08,3.36-21.82-5.61-4.76-13.07-1.74-17.81,2.6-7.05,6.46-12.29,15.27-17,23.45-4.89,8.44-9.47,17.23-12.25,26.63-3.37,11.39-5.48,33.63,11.74,34.57,2.77.15,7.64-10.22,8.8-12.24.57-1,6.65-13.72,6.2-13.74-9.37-.52-14.07-9.41-14.16-17.94a48.37,48.37,0,0,1,2.15-13.81c.38-1.3,1.81-3.63,1.76-5,0,.39-6.12,8.63-3.63,6.45,1-.85,1.69-2,2.64-2.89,6.51-6.07,16.6-6.26,19.23,3.12q-.28,5.88,4.25-6.36,7.32-10.69,4-7.24c-.64.49-1.19,1.19-1.81,1.74a30.25,30.25,0,0,1-19.14,7.74c-1.09.06-2.78,2.81-3.12,3.27a101.92,101.92,0,0,0-5.68,9,98.8,98.8,0,0,0-4.92,9.4c-.17.38-1.75,4.36-1.28,4.34Z" transform="translate(-8.9 -12.14)"/><path d="M497.79,82.34c-13-10.14-28.12,5-35.17,15.06-10.35,14.7-22.32,34.38-19.61,53.3.9,6.24,3.95,13.28,10.84,14.57s14.27-3.26,19-7.67c7-6.48,12.17-15,16.92-23.15a237.72,237.72,0,0,0,12.64-25.11l-13.8,21c-3.65,16.31,11.86,28.66,27,22,1.4-.61,3.57-4.54,4.22-5.52,2.12-3.2,4.09-6.55,5.91-9.93,1.39-2.57,3.08-5.3,3.89-8.11.2-.71,1.13-2.49-.25-1.89-14,6.15-28.88-6.52-25.59-21.24.42-1.86-4.89,5.08-4.91,5.12A105,105,0,0,0,490,126.65c-1,2.22-2,4.41-3,6.63.31-.72-2.28,3.85.15-.19.44-.74,1.74-4,2.54-4.28-1,.35-3.16,3.46-4.1,4.27a30.84,30.84,0,0,1-5.73,3.94c-9.53,5-18.47,1.33-21.22-9.05a35.07,35.07,0,0,1-.25-14.5,69.42,69.42,0,0,1,2-7.53c1.5-5.38-9,12.62-5.4,9.32.84-.77,1.52-1.78,2.34-2.58,6.58-6.43,17.46-10.6,25.47-4.36,1.14.89,8.19-11.19,8.8-12.24.76-1.32,7.84-12.45,6.2-13.74Z" transform="translate(-8.9 -12.14)"/><path d="M535.39,37.38A1069.45,1069.45,0,0,1,538,167.46c-.06,1.63,1.52-.48,1.76-.73,2-2,3.63-5.07,5.08-7.42,2-3.27,3.93-6.64,5.65-10.08.92-1.86,2.58-4.33,2.67-6.42a1071.67,1071.67,0,0,0-2.56-130.09c-.12-1.46-1.25.21-1.76.74-2,2-3.63,5.07-5.08,7.42-2,3.27-3.93,6.64-5.65,10.08-.84,1.69-2.82,4.52-2.67,6.42Z" transform="translate(-8.9 -12.14)"/><path d="M588.49,114,596,149.44a2.79,2.79,0,0,0,1.68-1.4l10.11-12.3c2.83-3.44,5.57-8,9-10.8,8.11-6.57,12.17,8.77,15.41,13,5.87,7.66,13.41.77,17.68-4.69,6.9-8.85,13-18.46,19.35-27.68A113.07,113.07,0,0,0,679.9,87.2c.25-.57,2-3.93,1.28-4.34s-3.12,3.28-3.12,3.28c-5.74,8.28-11,17.23-17.38,25.08-2.4,3-6.16,5.4-10,3.67-3.56-1.58-5.12-5.76-6.6-9-1.41-3.11-3.44-6.9-6.95-8s-6.35,1.31-8.58,3.78c-6.71,7.42-12.82,15.49-19.17,23.22l1.68-1.4L603.49,88c-.11-.54-3.65,4-3.11,3.28a99.59,99.59,0,0,0-5.69,9,101.32,101.32,0,0,0-4.92,9.41c-.56,1.25-1.57,2.94-1.28,4.33Z" transform="translate(-8.9 -12.14)"/><path d="M761.25,63c-11.72-6.79-26.91-5.28-37.59,2.92-7.94,6.1-13.24,15.72-17.89,24.34-3.82,7.07-8.53,15.55-6.93,23.92,3.12,16.34,25.06,12,35.53,6.53a49.76,49.76,0,0,0,16.09-14,134.09,134.09,0,0,0,18.39-32.39c1.94-4.92-3,1.42-3.61,2.38a107.12,107.12,0,0,0-9.75,17.11c-6,13.59-13.25,30.06-5.83,44.51.2.38,8.21-11.22,8.8-12.24a99,99,0,0,0,4.92-9.41c.45-1,1.84-3.26,1.28-4.33-6-11.74-1.72-24.57,3.28-35.84L754.58,96.05c6-15.24,9.29-14.18,5.29-9.71a32.63,32.63,0,0,1-2.42,2.43,44,44,0,0,1-5.62,4.36,40.85,40.85,0,0,1-13.72,5.78c-8.73,1.88-21.16,1-24-9.36-.7-2.57-.36-5,0-7.61l.31-1.29-8.17,14.11c.92-.72,1.72-1.78,2.63-2.54a31.91,31.91,0,0,1,11.46-6.11A33,33,0,0,1,746.25,89c1.89,1.1,17-24.83,15-26Z" transform="translate(-8.9 -12.14)"/><path d="M801,91.3c-.37,7.3-.81,14.6-1.11,21.9-.22,5.35-.2,11.19,4.56,14.65,8,5.82,22,4.61,31.08,2.82a69.45,69.45,0,0,0,28.18-12.54c10.76-8.08,18.16-19.28,24.92-30.74A75.18,75.18,0,0,0,894,76.9c.14-.37,1.55-4.31.21-3-14.21,14-25.05,31-34.16,48.69-7.91,15.32-13.88,31.64-16.07,48.81s-.05,33.75,3.75,50.46c2.11,9.29,4.5,18.54,6,28a105,105,0,0,1,1.4,15.63c0,2.43,0,4.86-.26,7.28-.1,1.17-.23,2.33-.4,3.49-.49,1.81-.51,2.18,0,1.12l7-12.83,3.48-5.34a5.56,5.56,0,0,1-1.94,1,10.58,10.58,0,0,1-3.43.74,13.66,13.66,0,0,1-5.8-1c-4.36-1.71-7.61-5.4-10.23-9.14a84.53,84.53,0,0,1-12.25-27.17c-4.91-18.9-3.91-40.22,4.54-58-.13.26,1.94-3.95,1.27-4.33s-3.28,3.5-3.11,3.27A114.88,114.88,0,0,0,823.31,183c-8.9,18.72-12.28,39.24-8.61,59.73a88.78,88.78,0,0,0,10.81,29.46c4.54,7.68,11.91,17.41,22.16,14.14,5.45-1.74,8.55-7.49,11.37-12,4.29-6.92,9.17-14.52,10.59-22.7,1.93-11.13.12-23.09-2-34-4.51-22.94-11.28-44.79-8.73-68.45a115.69,115.69,0,0,1,8.1-32.22q.69-1.62,1.44-3.21c.06-.12,1.36-2.16.54-1.08-1.8,2.38-.92,1.5.25-.18a95,95,0,0,1,11.24-13L886,85.89c.2-.34,4.25-5.81,1.81-3.09-.8.9-1.53,1.86-2.34,2.75A56.88,56.88,0,0,1,880.85,90a66.81,66.81,0,0,1-10.65,7.47,65.43,65.43,0,0,1-26.83,8.25c-7.56.61-18.93.87-24.94-4.63-4.11-3.75-3.55-9.44-3.3-14.5q.5-9.94,1-19.9c.08-1.64-1.54.51-1.76.73-2,2-3.63,5.07-5.08,7.42-2,3.28-3.93,6.64-5.65,10.09-.93,1.87-2.56,4.31-2.67,6.41Z" transform="translate(-8.9 -12.14)"/><path d="M955.15,77.83c-12.9,0-21.88,7.82-28.68,18.1a142.87,142.87,0,0,0-9.22,16.13c-1.63,3.35-3.7,7.17-3.28,11,.56,5.06,5.29,7.91,9.74,9.3,5.19,1.61,10.86,1.2,15.88,3.46,5.71,2.58,6.7,6.77,6.55,12.41-.18,7.32,14.61-19.63,8.16-14.12a38.35,38.35,0,0,1-3.12,2.57,34.28,34.28,0,0,1-9.65,4.65,39.92,39.92,0,0,1-19.36.92c-2.4-.46-7.8,10.52-8.8,12.24-.54.93-7,13.58-6.2,13.74,11.67,2.22,25.22-.52,33.83-9.16,6.06-6.07,10.48-14.08,14.47-21.58,2.93-5.49,7-12.35,6-18.89-1.87-12.56-17.51-9.26-25.94-13.48-2.22-1.11-4.57-2.76-5.69-5.06a4.64,4.64,0,0,1-.63-2q-1.46-10.08-9.43,14.33c1.08-1,2-2,3.19-2.92a27.71,27.71,0,0,1,17.2-5.65c1,0,2.84-2.9,3.11-3.27a101.18,101.18,0,0,0,5.69-9,103.62,103.62,0,0,0,4.92-9.4c.17-.39,1.79-4.34,1.28-4.34Z" transform="translate(-8.9 -12.14)"/><path d="M1079.63,49l1.54,72.28c0,1.54,1.37-.34,1.75-.73a41.49,41.49,0,0,0,5.08-7.42c-2.73,4.5-.42.76.6-.35s1.84-1.88,2.81-2.76a54,54,0,0,1,7.69-5.77A55,55,0,0,1,1117.66,97c11.13-2.15,29.22-1.77,36.9,8.14a14.93,14.93,0,0,1,3,9.66c-.21,9-6.21,4.47,6.88-8.61-1.15,1.15-2.18,2.38-3.37,3.5a117.36,117.36,0,0,1-18.29,14.44c-12,7.51-28.48,10.62-39.85.14-.94-.86-8.23,11.25-8.8,12.24-.85,1.47-7.89,12.19-6.2,13.74,10.76,9.92,26.33,7.62,38.19,1a97.37,97.37,0,0,0,35.6-34.88c7.57-12.54,19.7-34.26.29-42.67-11.91-5.16-25.92-4.71-38-.33-15.7,5.7-26,17.34-34.54,31.34l6.84-8.16-1.53-72.27c0-1.54-1.38.34-1.76.73-2,2-3.63,5.07-5.08,7.42-2,3.28-3.93,6.64-5.65,10.09-.88,1.77-2.71,4.42-2.67,6.41Z" transform="translate(-8.9 -12.14)"/><path d="M1207.57,107.65a54.85,54.85,0,0,0,27.48,1.4c3.59-.77,7.78-1.7,10.76-4,4.23-3.31,7.18-9.32,9.78-13.82,2.1-3.64,7.84-11.26,6.55-16-.9-3.3-4.79-3.42-7.61-3-7.78,1.09-15.76,4.68-22.72,8.18a47.45,47.45,0,0,0-18.15,15,123.57,123.57,0,0,0-12,20.8c-1.56,3.47-3,7.08-2.58,11,.85,7.47,7.47,11.71,13.73,14.63a102.69,102.69,0,0,0,27.6,8.16c2.49.39,7.76-10.45,8.8-12.24.54-.94,6.94-13.62,6.2-13.74a102.69,102.69,0,0,1-27.6-8.16,32.54,32.54,0,0,1-9.54-6.18,15.4,15.4,0,0,1-3.15-4.44c-.94-2.1-.51-4-.87-6.08q-15.75,22.14-8,14.35c.74-.68,1.51-1.32,2.3-1.93a45.09,45.09,0,0,1,4.94-3.29,89.27,89.27,0,0,1,13.38-6.31c4-1.51,8.39-3.17,12.66-3.77,1.38-.19,8.74-.15,7.63,3.15l11.51-20.55c1.64-2.36-.53-.18-1.94.41a34.57,34.57,0,0,1-5,1.51,52.78,52.78,0,0,1-9.44,1.44,55.4,55.4,0,0,1-19.73-2.45c-2.11-.65-7.93,10.73-8.8,12.24-.55,1-7.3,13.4-6.2,13.74Z" transform="translate(-8.9 -12.14)"/><path d="M1289.81,115.17a78,78,0,0,0,20.38-9.83c8.78-6.12,14.68-18.29,18.8-27.72,1-2.42,2.72-5.85.77-8.23s-6.59-1.57-9.38-1.2a37.69,37.69,0,0,0-18.82,7.93c-7.53,6.19-12.69,15.61-17.23,24-3.78,7-7.77,14.74-7.74,22.91.05,13.35,11.28,24.84,25,22.76,1.16-.17,2.67-2.66,3.12-3.27a101.92,101.92,0,0,0,5.68-9,98.8,98.8,0,0,0,4.92-9.4c.17-.38,1.68-4.4,1.28-4.34-14.13,2.14-26.15-10.38-24.68-24.33.16-1.47.53-2.86.81-4.3q3.45-9.3-7.18,12.42a29.35,29.35,0,0,1,2.26-2.06,32.78,32.78,0,0,1,10.09-5.64,38.22,38.22,0,0,1,10.59-2.05c1.46-.07,3.23-.3,4.6.3a3.72,3.72,0,0,1,2.09,1.66q.16,3,.85.3l8.88-15.86c3-4.69-.51-.63-2.32.54s-3.37,2.08-5.11,3a75.43,75.43,0,0,1-12.64,5.34c-3.66,1.19-7,9.14-8.8,12.24a101.41,101.41,0,0,0-4.93,9.41c-.18.4-1.51,4.41-1.27,4.33Z" transform="translate(-8.9 -12.14)"/><path d="M1352.5,102.3c7.73,17.59,4.92,36.86,2,55.2-.3,1.84,3.82-3.53,4-3.86a114.92,114.92,0,0,0,8.43-14.37c1.47-3,3.1-6.39,4.36-8.64-2,3.48,1.12-1.29,1.83-2.12,4-4.69,11.12-12.29,17.91-8.7,5.57,3,7.32,11,8.44,16.55a61.63,61.63,0,0,1-.68,26.28c-.44,1.91,2-1,1.76-.73,2-2,3.63-5.07,5.08-7.42,3.08-5,7-10.68,8.32-16.5a64.58,64.58,0,0,0-.29-31.14c-2.13-8.06-7.13-17.46-16.81-12.39-8.78,4.59-15.33,14.46-20.64,22.47a303.43,303.43,0,0,0-19.09,34.15l12.48-18.23c3-18.75,5.76-38.57-2.13-56.53-.24-.56-3.6,4-3.11,3.28a99.49,99.49,0,0,0-5.68,9,101.41,101.41,0,0,0-4.93,9.41c-.47,1-1.78,3.18-1.28,4.33Z" transform="translate(-8.9 -12.14)"/><path d="M1503.51,134.16a195.27,195.27,0,0,0,2.59,50.63c0,.18,4.72-5.61,4.84-5.78a134.43,134.43,0,0,0,7.57-13.12c1.14-2.26,1-1.94.47-1,.72-1.22,1.51-2.38,2.31-3.54a49.2,49.2,0,0,1,7.09-8.66c5.25-4.74,13.39-7,17.7.07,3.29,5.39,2.62,12.25,5.23,17.92,1.55,3.38,3.35,3.7,6.19,1.58a70.74,70.74,0,0,0,7.75-7.24c9.5-9.62,21.57-21.19,35.54-11.95,15.2,10,13.42,29.71,8.08,44.74-2,5.57,4-3,4.47-3.64,3.68-5.57,7.54-11.7,9.79-18,4.83-13.58,8.48-30.23-.85-42.81-7.93-10.68-20.77-12.16-31.42-4.65-5.17,3.66-9.38,8.5-13.86,12.93-1.69,1.67-4.52,5.31-6.93,6-3.16.87-4.33-4.08-5-6.45-1.4-5.11-1.39-11.47-5-15.7-4.28-5-10.79-3.47-15.57-.1-7.2,5.07-12.37,13.43-17.24,20.59a289.47,289.47,0,0,0-18.61,31.79l12.41-18.9a189.89,189.89,0,0,1-2.43-49.3c.13-1.69-1.61.58-1.76.73-2,2-3.63,5.07-5.08,7.42-2,3.28-3.93,6.64-5.65,10.08-1,1.91-2.5,4.28-2.67,6.42Z" transform="translate(-8.9 -12.14)"/><path d="M1695.6,137.79c-5.52-4.33-11.42-8.94-18.6-9.83s-12.62,2.47-16.8,8.08c-9,12.08-22.14,32.21-15.32,48.17,4.5,10.5,17.18,15.08,27.91,14.13,13.89-1.23,25.79-10.37,36.45-18.55l5.59-13.48c-9.06,15.84-16,32.7-6.95,50.17.2.39,8.21-11.22,8.8-12.24a103.79,103.79,0,0,0,4.92-9.41c.44-1,1.83-3.26,1.28-4.33a35.78,35.78,0,0,1-3.91-22.39c.64-4.34,4.52-10.89-1.54-.3a81.16,81.16,0,0,0,5.38-10.5c.17-.44,1.71-4.13.21-3-15.32,11.75-36.44,26.06-55.45,13a21.3,21.3,0,0,1-7.94-9.71,22,22,0,0,1-1.28-9.18c.31-5.35,4.29-12.35-3.07.6-6.89,12.11-3.56,5.32,2.9,4.8a20.38,20.38,0,0,1,7.56.9c5.6,1.73,10.31,5.44,14.86,9,1.13.89,8.19-11.2,8.8-12.24.76-1.33,7.84-12.45,6.2-13.74Z" transform="translate(-8.9 -12.14)"/><path d="M1821.49,140.58l-21.88,68.84,14.64-23.83c-1.51-12.26-3.38-25.9-13.53-34.26-9.38-7.73-21.28-5.68-29.54,2.57-6.23,6.21-10.84,14.38-15,22-3.58,6.61-7.32,13.83-8.1,21.43-1.19,11.59,6.35,24.39,19.32,22.79,1.14-.13,2.71-2.7,3.12-3.27a99.64,99.64,0,0,0,5.68-9,101.24,101.24,0,0,0,4.93-9.4c.16-.38,1.7-4.39,1.27-4.34-8.52,1-16.12-4.83-18.49-12.9a22.48,22.48,0,0,1-.68-8.56c.12-1.14.4-2.25.56-3.38q1.85-5.93-2.92,4.08-6,8.61-2.91,5.39c3.84-2.93,7-5.64,12-6.37,21.5-3.1,27.35,23.55,29.27,39.13a29.3,29.3,0,0,0,2.39-2.33,66.72,66.72,0,0,0,4.36-6.48c2.89-4.68,6.2-9.74,7.88-15l21.87-68.84c1.78-5.59-4,2.89-4.46,3.63-3.62,5.47-7.79,11.73-9.8,18.05Z" transform="translate(-8.9 -12.14)"/></svg>