<svg xmlns="http://www.w3.org/2000/svg" viewBox="0 0 1000 1000"><path d="M775.76,471.15c14,16.65,10.33,40.74,14.83,58.78,11.88,47.59,34.91,92.44,46.36,140.13,8.85,36.86-15.88,65-51.26,79.12-30.26,12-56.33,34.79-86.72,46.5-2.7,1-7.8-9.39-10.62-9.36-20.48.19-43.7,11.41-61.24,11.41-8.47-13.64-7.07-31.54-15-44.3,5.82-3.46,4.55-13.15,12.35-16.65,2.92-1.31,7.75,11,11.11,12.53,25.48,11.41,54.65,5.37,82.49,5.52,2.93,0,6.6,12,9.5,11.59,7.12-.9,5-9.86,4.32-17.63-.68-7.28.88-15.43-5.7-16.2-20.26-2.36-42,6.64-62.22,3.72-3.07-.44-.44-4.26-5.47-6.11,12.46-7.35,15.63-22.76,26.55-29.15,14.54-8.51,35.18-6.59,49.73-15.09,7-4.11,7.63-10.4,1.83-20.47-6.15-10.68-12.17-12.83-19.49-8.57-43.68,25.44-81.26,61.42-125.13,86.52-4.21,2.41-12.22-7.73-17-8.7-22.34-4.52-41,8.64-59.26,22.44-9.63,7.28-15.3,3.12-25-5.92,7.42-3.77,6.14-11.57,13.44-15.5,31.65-17.07,67.51-29.57,88.75-59.07,1.29-1.79-7.39-10.09-6.28-12,4.25-7.2,19.49-17.3,9.67-24-10.07-6.86-12.95,10.57-17.73,17.78-24.41,36.81-67,51.18-106.71,68-13.58,5.76-25.44,21.68-40,23.05-7.78.73-14.18-16.22-21.41-21.16-5.07-3.47-6.54-13.52.67-16.49,71.54-29.5,135.67-68,178.9-131.93,28.84-42.63,37.17-94.3,49.09-144.26.66-2.79,7.88,1.81,9-2.21,14.74,2.52,34.32-2.1,49.42.48-5.33,50.69-29.86,93.38-64.28,131-2,2.17,4.85,12.19,2.92,14.4-4.67,5.35-12.55,12.92-6.77,16.37,3.63,2.18,10.6-7.43,13.53-9.91,7.75-6.55,23.1-6.42,29.22-14.61,24.94-33.34,27.37-75.86,33.29-116.73.62-4.3,7.9-1.75,9-8.41,12,5.32,25-1.47,35.57,3.88,2,1-5.25,10.39-5.43,13.11-5.24,77.29-22,149.37-86.91,196.57-6.62,4.82-22,8.48-16.07,17.11,6.46,9.35,15.51-3.32,21.69-8.87,15.75-14.17,41.18-19.25,54.73-35.36,34-40.39,40.19-93.08,46.78-145C765.08,484.38,775,477.09,775.76,471.15Z"/><path d="M352.33,962.37c12.69-5.39,29.74,1.39,39.4-4.07,36.6-20.69,67.36-51.22,102.87-73.68,53.06-33.57,112.59-50.17,175-61.32,5.4-1,9.81-13.86,15.26-13.88,56.8-.23,113.45,9.87,170.15,12.28,42.07,1.79,74.25,30.76,72.12,75-2,40.95-37.69,65-77.63,65.08-162.4.3-324.8,12.14-487.21,12.14C361,973.91,356.34,962.7,352.33,962.37Z"/><path d="M593.5,809.65c-1.75,1.94-8,2.3-8.8,2.62-47.16,18.27-83.56,56.35-125.43,84.16-55.44,36.82-120.06,52.05-185.86,64.1-8.91,1.63-17.11,13.29-26.24,13.34-31.16.15-62.33-11.82-93.49-12-43-.22-79.39-23.66-80.87-66.51-1.54-45,32.44-71.17,75.82-74.61,3.28-.26,6.12-12.26,9.41-12.26,140.43,0,280.86,12,421.29,12C582.44,820.5,589.09,809.65,593.5,809.65Zm-318.89,49c-27.07,0-54.13-12-81.21-12-7.7,0-8.5,7.55-8.4,16.87.1,10.1,1.8,17.12,9.57,17.12,53.05,0,106.1-12,159.15-12,7.95,0,21.55,4.63,21.52-5.19s-13.62-4.88-21.58-4.84C327.32,858.66,301,858.59,274.61,858.6Zm-130.21,0c-7.71-.16-19.72-4.13-19.91,4.35-.22,9.2,12.27,5.48,19.9,5.52,7.29,0,19.32,3.75,19.45-4.61C164,854.9,152,858.26,144.4,858.63Z"/><path d="M371.45,797.76c-28.85.34-60.87-7.35-92.14-23-20.83-10.45-48.53-6-70.28-14.67-33-13.14-42.83-48.23-35.05-82.71,12.16-53.89,14-110.32,27.84-163.82,8.18-31.57,35.33-47.63,66.25-60,1.35-.55-1.14-12.43.26-12.83.66-.18-2,9-.33,9,.26,3,11.75,2.67,11.81,5.76,1.22,61.57-9.58,123.37-8.46,184.94.15,8.36,11.66,22,2,28.06-3.77,2.34-11.85,8.29-14.73,13.5,45.43,25.87,98.42,42.6,142,67.42C391.84,762,381.28,783.59,371.45,797.76Z"/><path d="M454.73,339.51c31.76,15.91,66.91,29.31,101.38,14.75,8.68,13.4,22.11,17,30.06,30,1.44,2.35-9.4,8-10,10.83-18.26,82-76.43,151.06-158.65,164.84-3.17.53-3.38-9.85-7.78-9.54,0-4.34-10-3.51-10-7.09,0-43.21,12.1-86.45,11.88-129.65,0-6.64-8.41-15-3.85-20.15C422.18,377.22,439.67,358,454.73,339.51Z"/><path d="M389,721c-8.09-4.56-17.78-13.22-24.07-17.92-2.49-1.86-13.37-1.82-13.41-5.33-.32-24.54,11.74-49.13,11.87-73.67.05-7.83-7.61-8.49-16.86-8.41-9.07.09-17.22.69-17.2,8.49.06,22.32,11,48,11,72.64-12-6.84-24.56-21.16-34.95-27.54-1.59-1-11.47.82-11.52-1.49-1.4-75.8,9.32-151.82,8.05-227.62,0-.34-8-6.16-7.32-7.77,7.58-1.65,12.92,5.11,22.91,2.93,0,19.46,11.19,34.3,11.19,52.15,0,8.42-12,16.82-12,25.24,0,8.05,6.37,10.7,17,10.94s17.05-2.28,17-10.42c-.06-23.81-12-47.6-12-71.41,0-4,8.82-2.66,8.82-6.68,13.2-3,28.66-11.92,41.46-14.84C388.94,519.36,389,620,389,721Z"/><path d="M604.73,404.46c7.45,4.55,6.33,13.8,13.77,18.35-23.12,130.45-113.33,244-211,278.09,0-14.3,3.48-30.48,3.48-44,15-5,23.18-18.14,37.48-24.26,26.25-11.23,54.92-19,75.17-38.94,5.69-5.61,0-11.62-6.48-18-6.13-6-11.92-11.66-17.18-6.47-22.13,21.85-40.52,50.09-70.36,60.14-6.53,2.2-10.1-5.2-18.73-2.94,0-16.72-11.34-29.33-10.88-44.83.05-1.7,10.6,1.7,12.85,1.32,97-16.21,152.55-79.81,182.38-172.85C595.47,409.35,604.3,405.2,604.73,404.46Z"/><path d="M608.68,794.91c-29.82,0-61.83-8.74-90.48-8.74-5.1-11.15-4.67-16.62,4.4-22.15C550.66,746.91,596.39,765.09,608.68,794.91Z"/><path d="M391.64,788.9c5.74-15.27,26.47-18.43,46-16.5,16,1.59,34.05-4.36,49.65.36,2.86.87-3.12,10.42-.89,13.37-3,1.78.06,12-2.93,12-28.15.27-56.32-12-84.47-12.19C398.44,786,392.17,789.3,391.64,788.9Z"/><path d="M555,169.52c8.38,18.27,7.9,40.28,13.56,59.35,13.49,45.46-2,98.33-43.8,116.38-45.9,19.82-94.8-4.49-119.89-46.85-14-23.64-37.46-42.1-50.12-66.5-11.19-21.56,3.76-44.09,22.87-51.59,4.26-1.67,7.12-13.79,11.76-13.74,34.51.39,66.64-2.93,85-33.66,13.16-22.09,38.36-29.44,53.21-8.27,9.82,14,6.75,36.54,15,51.65C543.15,176,554.31,169.84,555,169.52Z"/><path d="M556.11,153.27c-4.19-7.67,1.93-23.32-3.29-30.21-7.19-9.48-22.59-11.28-32.18-17.78-26-17.66-58.6-18.11-75.47,10.07-13.28,22.19-27.31,42.25-52.36,40.83-53.71-3-76.6,48.72-58,85.27,4.07,8,19.53,10.93,23.84,18.81-1,1-4.89-1.32-5.84-.34-5.09-3.93-19.1,1.92-22.59-3.11-24.86-35.74-18.89-74.73.66-114,9.72-19.53,2-38.24-6.3-59.34-6.34-16.2,8.17-29.71,21.67-41.48,29.21-25.47,59.82-35.53,84-6.18C439.8,47.37,446.91,62,461.47,63.3c30.29,2.71,64,.7,84.39,25.16,8.82,10.58,6.2,29.21,12.34,41.56,3,6,12.91,12.31,13.51,19.48C570.05,149.8,557.76,153,556.11,153.27Z"/><path d="M599.12,244.31c-9.67-21.94-8.68-48.62-17.49-69.6-1.08-2.57-11-6.55-9.79-9.44,1.36-3.29,13.45,0,15.94-2.55,2.7-2.81,3.42-17.35,6-16.85,4.32.83,3.47,11.93,4.58,15.57,3,10,16,18.11,17.18,28.54,1.35,11.87-10.5,25.31-9,37.17C607.6,236.36,605.63,243.93,599.12,244.31Z"/><path d="M413.16,346.07c-4.33-1.16-11.35-3.62-14.83-6-12.95-8.76-32.75-8.25-45-17.95-5.91-4.67-2.8-18.23-6.87-24.5-5.37-8.27-6.74-16.22,2.69-17.82,13.05-2.22,13.78,13.28,19.67,23.3C378.48,319.56,401.08,329,413.16,346.07Z"/></svg>