<svg xmlns="http://www.w3.org/2000/svg" viewBox="0 0 1239 408"><defs><style>.a{fill:#de7c80;stroke:#000;stroke-miterlimit:10;}</style></defs><path class="a" d="M350.2,103.7s33.15,23.8,53.55,40.37c-1.27,4.68-5.95,6.8-12.32,6.8h-90.1l50.15,37.83c-2.55,3-7.23,6.37-14.88,8.07v125c-.42,3.4-31,14-51,14H275v-13.6H154.7l59.08,42.08c-4.25,4.67-13.18,6.8-27.2,3C144.5,387.6,76.08,402.48,10.2,406.73l-1.28-5.1c54.41-17.85,112.21-51.85,141.53-79.48H133.88v6c0,5.53-26.78,18.7-51.85,18.7h-8.5V152.15l63.75,24.22H270.73l23.8-25.5H3.4L0,139H170.85V108H122V116c0,4.68-25.93,16.58-48.88,16.58H65.45V22.1L125,44.62h45.9V1.7l74.8,6c-.42,5.95-3.4,10.2-15.3,11.9V44.62h48.88L304.73,17l53.12,40c-2.55,3-8.07,7.22-17,8.92v45.48c-.42,3.82-27.62,15.72-47.17,15.72h-10.2V108H230.35v31h90.53ZM170.85,96.05V56.52H122V96.05Zm-37,92.22v31.88H275V188.27Zm0,43.78v32.73H275V232.05ZM275,310.25V276.68H133.88v33.57ZM215.9,338.3c260.1-5.1,149.6,97.75,97.33,57.8C296.23,380,263.5,357,214.63,343ZM230.35,56.52V96.05h53.13V56.52Z"/><path class="a" d="M766.7,46.32s37.4,28.48,59.93,47.6c-1.28,4.68-6.38,6.8-12.33,6.8H621.35c-1.7,25.08-4.25,49.3-8.07,73.1h82.87L728,143.23l52.7,45c-3.4,3.83-9.35,6.8-18.7,8.5-7.23,111.36-19.55,168.73-46.75,189.56-17,13.17-35.7,18.7-68.43,18.7,0-18.28-2.12-32.73-10.62-41.23-8.93-9.77-26.35-17.42-48.88-22.1V337c22.95,1.7,56.95,3.82,68,3.82,7.23,0,11-1.27,15.73-4.67,14-11.05,23.37-65,28.9-150.45H611.15c-18.27,95.62-64.6,176.8-181.9,220.15l-2.55-3.83c102.43-75.22,125-186.15,126.23-301.33H428.4L425,88.82H592.88V1.27l78.2,5.53c-.85,6-3.4,10.2-15.3,12.32v69.7H734Z"/><path class="a" d="M1030.62,369.33c108.81-28.9,144.51-90.95,144.51-162.78,0-79.48-47.18-130.48-115.61-130.48a126.07,126.07,0,0,0-17.85,1.28c14.45,13.17,33.15,36.55,33.15,58.65,0,22.52-3.82,52.7-14.45,79.48-20,55.25-66.3,130-122.4,130-37,0-69.27-55.68-69.27-112.63,0-37.83,18.7-91.8,65.45-130,34-28.9,76.5-45,131.75-45,102.85,0,173.4,73.1,173.4,162.35,0,85-62.47,152.15-207,156.4Zm-9.35-286.88A161.46,161.46,0,0,0,949,128.77c-23.37,27.21-35.27,53.13-35.27,86.71,0,30.17,11.9,61.62,30.17,61.62,21.25,0,58.23-54.4,69.7-77.78,12.75-26.77,20.83-58.22,20.83-82C1034.45,104.55,1028.5,91,1021.27,82.45Z"/></svg>