<svg xmlns="http://www.w3.org/2000/svg" viewBox="0 0 396 408"><defs><style>.a{fill:#de7c80;stroke:#000;stroke-miterlimit:10;}</style></defs><path class="a" d="M70.22,125.16c.85,28.05-11.47,47.18-27.63,54.83C26.87,187.64,6,181.69.94,163.84c-4.25-17,6.38-28.9,21.25-35.28,15.3-6,33.58-23,33.58-43.35h5.52a132.18,132.18,0,0,1,7.65,28.05h37a32.93,32.93,0,0,1-14.45-8.07c.85-17.43-5.52-36.55-12.75-48l.42-.42q-25.5,0-49.72-1.28l-.85-6.8c93.5-8.5,214.2-29.75,277.1-48.45L352,49.51c-5.1,3.83-14.88,3.83-28.48-2.12-14,1.27-29.75,3-46.32,4.25L335,72.89c-2.13,4.67-7.23,7.65-16.58,6.37-14,10.63-35.7,23.38-56.95,34h57.8l28.05-28.05,48.45,45.9c-3.4,3.4-7.65,4.68-16.57,5.1-13.6,8.5-35.28,18.28-54.4,25.08,53.12,30.6,17.85,88.82-23.38,61.2-5.1-27.2-22.95-56.53-40.8-75.23l3.4-2.55c18.7,1.7,34,5.1,46.33,9.78,3.82-9.35,7.22-20,10.2-29.33Zm326.4,225.68c-23.8,8.07-37,28.05-41.65,57-57.37-7.65-106.67-20.4-145.77-44.2C151.82,390.36,81.27,404,2.22,407.36l-1.7-5.52c67.15-13.18,128.35-34,175.1-63.75a180.22,180.22,0,0,1-33.15-43.35c-37.82,27.2-86.28,50.57-134.3,62.05l-3-5.1C55.34,323.64,105.5,272.21,131,230.14c-8.5-5.95-10.63-16.15-10.63-32.73v-57.8l53.13,4.25a70.51,70.51,0,0,0-10.63-11.47l3-2.55c107.52-11.48,73.1,75.22,26.35,49.72-2.13-9.77-7.23-20-13.18-28.9-2.12,2.13-5.52,3.4-9.77,4.25v32.73c0,4.25.85,5.52,10.62,5.52H231.3c4.25-.42,7.65-.85,10.2-3.4,3.82-4.25,9.35-14,15.72-28.47h4.25l1.7,28.47c12.75,5.1,15.73,10.63,15.73,19.13,0,19.55-18.28,27.62-76.93,27.62H177.32l25.93,12.33c-1.7,3.82-6.38,5.52-14.45,4.67a152.09,152.09,0,0,1-11.48,12.33H241.5l34-28.9,48.87,46.32c-3,4.68-7.65,5.95-18.7,6.8a241,241,0,0,1-49.3,45.9c42.93,8.5,91.8,10.2,139.83,9.35ZM100,143.44c16.58,45.9.85,77.77-21.25,87.12-15.72,6.8-36.13.43-40.38-17-3.82-17,6.8-28.47,21.26-34.42,15.29-4.68,33.57-18.7,34.85-35.7Zm88-30.18a39.1,39.1,0,0,1-17.43-9.35c1.28-16.57-3.82-35.27-10.62-47.17-20.83.42-42.08.42-63.33.42,61.2,11.48,51.43,48.45,26.78,56.1Zm-23.8,164.48c-4.25,3.82-9.35,7.65-14,11.47,13.18,12.75,30.6,23,50.15,31,15.73-12.75,29.33-26.78,39.95-42.5Zm77.77-164.48a426.46,426.46,0,0,0,23-61.2c-25.5,1.7-53.55,3-82,3.83,55.67,14.87,42.92,52.27,17.42,57.37Z"/></svg>