<svg xmlns="http://www.w3.org/2000/svg" viewBox="0 0 828 408"><defs><style>.a{fill:#de7c80;stroke:#000;stroke-miterlimit:10;}</style></defs><path class="a" d="M3.4,99.45c119.43,14.87,68.85,105.4,21.68,68.43C23.8,144.07,12.32,118.57,0,101.57Zm122,9.35c-13.6,42.5-37.4,120.7-42.5,141.1-3.4,12.75-6.38,28.48-5.95,38.68.85,24.65,20.4,37.82,19.12,76.92-.85,22.95-18.27,38.25-41.22,38.25-10.63,0-22.95-5.95-27.21-22.52,8.93-45.9,7.23-88-3-94.78-6.38-4.25-13.17-6.37-22.53-7.22v-7.65H21.67c6.81,0,8.93,0,14.45-8.08,10.63-15.3,10.63-15.3,83.31-156.4ZM26.77,5.52C154.28,11.9,110.93,108.8,59.08,75.65,53.55,51.42,37.4,25.07,23.8,7.65Zm261,230.78c27.62,39.1,76.5,67.58,122.82,80.75l-.85,4.68C387.6,327.68,371,346.8,363.8,377c-42.92-30.18-68-74.8-83.72-136.85V388c0,4.25-26.35,15.3-48.45,15.3h-11V303.88c-29.75,31.45-69.28,56.52-116,76.07l-3.4-4.67c45-34.85,77.35-87.13,94.35-139H116l-3.4-11.9h108V171.7l73.52,6.37c-.85,5.11-3.4,9.36-14,11.06V224.4h40.37l29.33-40.8s33.57,27.62,53.12,45.9c-.85,4.68-5.95,6.8-11.9,6.8ZM171.7,44.2c6.38,86.27-91.8,62.47-53.12,14.45,18.27-7.65,34.85-25.08,39.1-54.4l5.52.42A162.17,162.17,0,0,1,170,32.3H328.1l28.48-28L405,50.57c-3.4,3.83-7.23,5.1-16.15,5.53C372.73,68.85,346,89.25,328.1,100.72l-3.4-2.12c2.13-14,4.68-37,6.8-54.4H312.38v68c0,4.67,1.27,6.37,8.07,6.37h32.73c3.4-.42,6.8-.85,8.92-3.82,3.83-3.83,9.78-15.73,16.15-31h4.25l1.7,31.88c12.33,5.52,14.88,11.9,14.88,21.25,0,19.55-16.15,28.9-67.58,28.9H304.3c-38.25,0-43.77-9.78-43.77-41.65V44.2H244.38c-8.5,73.1-42.93,122.83-124.53,150l-1.7-5.09c53.55-36.56,68-85,69.7-144.93Z"/><path class="a" d="M486.62,130.47c0-25.07-14-46.32-32.72-62.47l1.27-4.25c11.9-1.28,32.3-.85,47.18,5.1C527,79.05,554.2,105.4,554.2,126.22c0,21.68-26.35,43.78-26.35,102.43,0,28,16.57,47.6,28,51.85,6.37,2.55,12.75,2.13,17.85-4.25,14.87-20,30.6-45.47,46.75-74.8l7.65,3.4c-9.35,35.28-16.58,71.83-16.15,87.55.85,29.33,7.65,26.78,7.65,42.5,0,23.38-24.65,34.85-56.1,22.1-34.85-14.45-71.4-53.55-78.2-115.17C481.52,206.55,486.62,164.9,486.62,130.47ZM686,108.37l1.27-5.52c47.18,0,74.8,14.87,102.85,40,26.78,23.38,37.83,56.1,37.83,90.95,0,31.88-10.63,50.15-36.13,50.15-10.2,0-21.67-4.67-25.92-17-6-17.85-2.13-34.42-11.9-73.1C745.45,159.37,722.5,125.8,686,108.37Z"/></svg>