<svg xmlns="http://www.w3.org/2000/svg" viewBox="0 0 372 408"><defs><style>.a{fill:#de7c80;stroke:#000;stroke-miterlimit:10;}</style></defs><path class="a" d="M105.83,201.24c-8.08,23.37-20,58.65-23.8,73.95-3.4,18.7-4.68,27.62-4.68,34,0,16.57,9.35,31.45,9.35,45.9,0,19.12-9.35,29.75-26.35,29.75-11.9,0-23.8-8.08-33.15-20.83C9.35,340.64,0,306.21,0,254.36c0-32.72,11.48-87.55,17.85-113,5.53-20.82,9.35-39.1,9.35-60.77S15.3,38.46,6.38,27.84l3-4.25C25.93,26.56,37,30.81,48.88,38c15.3,8.92,40.8,34.85,40.8,60.77,0,13.18-7.23,21.68-16.58,38.68-18.27,30.17-35.7,72.67-35.7,114.32,0,8.5.85,18.7,2.55,23.38,3,6.8,7.65,7.22,11.9.42,10.63-15.72,33.15-57,45.05-78.2ZM191.25,44.41c11.9-9.35,29.75-21.25,42.08-21.25,34,0,62.9,16.58,62.9,29.75,0,11.05-4.68,15.3-7.23,28.9-1.27,5.53-2.55,14-3.82,24.65C309.4,98,319.6,92,321.3,92c18.7,0,38.25,8.5,38.25,24.23,0,16.57-8.07,19.55-30.6,28.9-8.07,3.4-25.92,8.5-47.6,12.75-.42,8.5-.42,17.42-.42,25.92a648.53,648.53,0,0,0,4.25,73.95c35.7,9.35,58.22,26.35,72.67,40.8,9.78,9.78,14.45,19.55,14.45,30.18,0,17.42-9.35,27.2-22.95,27.2-11.47,0-18.7-7.65-36.12-23.38a173,173,0,0,0-23-18.27c-1.28,42.07-29.75,61.2-87.55,61.2-38.68,0-74.38-21.25-74.38-60.78,0-45,45.48-64.17,96.05-64.17,4.68,0,8.93,0,13.6.42-1.27-20.82-2.55-45.47-2.55-68V164.69a351.21,351.21,0,0,1-36.12,2.12c-28.05,0-51.85-2.55-71.83-57.37l4.25-3.4c23.38,14.45,42.5,18.27,56.95,18.27a259.22,259.22,0,0,0,47.18-4.25V84.79c0-22.53-4.25-23-12.33-26.35-9.77-4.25-21.25-6.38-31-8.5ZM194.65,285c-22.52,0-43.35,9.78-43.35,26.35,0,14,18.28,19.55,35.7,19.55,41.23,0,52.7-13.17,52.7-40.37C224.4,286.24,209.53,285,194.65,285Z"/></svg>