<svg xmlns="http://www.w3.org/2000/svg" viewBox="0 0 1920 1920"><defs><style>.a{fill:#fffae6;}</style></defs><circle class="a" cx="960" cy="960" r="960"/><path d="M675.82,545.52c8.74,1.09,11.49-4.46,16.75-10.67,11.81-13.94,16.72-30.73,25.34-45.84,2.8-4.91,12.46-10.72,16.17-9.21,6.23,2.53,11.42,10,14.88,16.48,6.46,12.17,4,23.41-5.88,33.65-3.18,3.28-3.29,9.53-5.42,16.4,16.35-17,30.65-32.9,46.17-47.55,11-10.35,21.49-7.29,25.58,7.23,2.83,10,.61,19.66-6.41,28.84-10.85,14.19-20.08,29.65-29.58,44.82-1,1.65.1,5.34,1.37,7.37.51.83,4.93.61,6.12-.58,14.72-14.75,29.33-29.61,43.54-44.84,2.49-2.66,3-7.15,4.8-11.67,2.85,1.2,6.55,1.56,7.48,3.35,10.2,19.75,20.73,39.39,29.31,59.85,2.17,5.18-2.26,13.12-3.71,20.06,6.84,8.22,23.14,3.69,26.06,18.24,2.12,10.56,4.39,21.08,7.21,34.56,13.49,8.54,16,8.14,28.76-5.33a229,229,0,0,1,20.09-18.95c3.32-2.75,7.92-4,11.95-5.85l4,3c-2.58,6.53-4.31,13.59-7.94,19.46-5.42,8.77-12.58,16.46-18.28,25.08-7.45,11.24,5.22,14.86,9.11,21.74s8.44,2.57,13.29.56c14.32-5.93,20.66-18.63,26.17-31.37,5.06-11.69,12.7-19.75,24.76-25.34-5.23,27.25-16,50.64-34,70.79-3,3.32-5.86,10.81-4.19,13.35,3.45,5.21,9.58,9.48,15.51,11.74,1.83.69,7.23-6,9.94-10,8.46-12.6,17.2-25.11,24.38-38.44,9.8-18.21,16.93-38,27.68-55.54,11.48-18.76,14.54-39.68,20.26-60,.68-2.43.09-5.21.09-7.78-8.16,10.42-15.65,20.82-24.16,30.3-2.2,2.46-7.55,2.27-11.52,2.9-1.37.21-3.53-1.63-4.3-1.09-11.08,7.8-15.07-2.54-21.44-7.77-8.8-7.23-15.14-13.26-3-23.86,3.8-3.32,3.52-11.74,4.34-17.92,1.14-8.51,1.4-17.12,2.34-25.65.43-3.89,2.53-7.76,2.28-11.53a485.45,485.45,0,0,0-6.13-53.4c-2.88,5.75-7.3,11.23-8.38,17.3-5.51,30.89-12.31,61.81-14,93-.67,12.25-4,17.05-12.95,21.44-9.29,4.55-15.57-.69-17.21-11-5.82-36.79,7.6-70.25,16.54-104.53.71-2.71.55-5.68,1.43-8.31,3.06-9.09,5.65-18.45,9.81-27,7.35-15.17,17.18.45,25.76-1.35,10.54-12.75,5-24.33-6.47-34.08-8.4-7.16-11.32-12.17-9.8-25.85,2.23-20.13,11.82-23.33,26.76-25.83,3.9-.66,7.58-2.64,11.14-3.93l14.15,10.94,12.18-9.29c.67,11.82,1.22,21.7,1.78,31.57l3.57.36c3-10.65,15.54-14.61,16.39-27.65.63-9.59-2.85-19.24-12.73-22.26s-20.65-4.35-29.25-9.45c-15.63-9.25-29.06-21.58-33.57-40.45-2.58-10.79,6.68-19.58,17.32-17.08,36.09,8.48,66.58,26.3,90.35,54.91,14.46,17.39,16.06,38.41,4.73,56,5.44,7.3,11,13.66,21.8,8.85,2.08-.92,6.63-.42,7.61,1,4.24,6.35,9.24,4.95,15.58,4.57,3.68-.22,10.17,5.58,11.16,9.7,2.11,8.79,1.26,18.25,2,27.41a39.41,39.41,0,0,0,4.77,16.58c10.87-33,6.69-66.82,7.78-99.54,6.52.44,11.82,1,17.12,1.1,18,.21,27.14,9.36,27.11,27.46,0,3.63-.6,7.44.32,10.82.69,2.52,3.13,6.09,5.24,6.43,10.12,1.66,20.39,2.38,31.41,3.51,1.49-12.61,3.17-26.94,4.86-41.27l4.74-1.77c7.61,8.21,18,15.22,22.17,24.91,5.81,13.55,15.39,15.56,27.26,16.34,14.57.95,20.16,6.41,22.86,19.55,5.46,26.54,11,53.11,17.66,79.35,4.41,17.32,11,34.08,16.76,51.73l10.11-6.94,3.37,1.25c-1.5,4.26-3.25,8.47-4.43,12.82-1,3.52-2.12,7.36-1.59,10.82,1,6.59,4.42,13,4.52,19.49.14,10-9.69,15.24-18.8,11.39-9.73-4.12-21-6.32-21-20.62,0-2.25-2.73-4.79-4.68-6.68-11-10.67-22.19-21.18-33.74-32.15-6.62,12.35-13.86,8-21.87-1.5-1.9-2.25-7.07-1.74-11.81-2.72-3-13-6.22-26.84-9.39-40.55-1.59,12.81-3.44,25.39-4.44,38-.19,2.35,2.66,5.37,4.77,7.39,20.13,19.33,39.88,39.08,60.75,57.58,24.56,21.77,49.35,43.43,75.52,63.17,16.63,12.54,36,21.5,55.09,30.79-5.33-47.16-16.59-91.17-39.56-132.66-8.64,6.93-12.52,5.28-17.52-3.45-10.18-17.8-13.73-36.91-17.21-56.59-3.6-20.33-9.71-40.2-14.25-60.38-1.15-5.12-6.94-11.77,1.88-15.53,8.29-3.54,12.15,1.4,15.53,8.5,4.31,9,8.9,18.28,15.25,25.84,3.3,3.93,11.36,7.2,16.06,6,14.14-3.59,30.12,6,32.59,20.39,1.38,8.08,5.14,15.78,8,23.59.36,1,1.86,2.46,2.52,2.31,11.55-2.54,13.85,7.88,21,17.21.87-6.69,2.8-10.87,1.53-13.5-7.92-16.32-16.38-32.39-25-48.35-4.36-8-8.61-16.41-14.51-23.25-5.46-6.33-12.57-11.64-19.82-15.93a22.47,22.47,0,0,1-9.6-28c1.65-4.17,2.53-8.65,4-13.62,2.78,2.37,5.34,5.75,8.73,7.2,9,3.84,15.26-.75,17.69-13.27,1.78-9.17,2.38-18.13,15.69-11.29,1.86,1,7.75-1.4,8.17-3.1.82-3.38.29-8.24-1.74-10.95-6.16-8.2-13.29-15.66-21-24.51l2.16-8.69c13.09.59,22.43,7,30.64,15.71,6.6,7,15,13,19.37,21.16,5.3,9.86,9.46,21.44,10,32.46.5,10.75,4.06,19.2,9.46,27.48,15.5,23.8,31.33,47.39,46.9,71.15,21.34,32.58,28.58,70.16,37,107.18,2.17,9.64-.2,20.22.68,30.27a260.91,260.91,0,0,0,5.31,35.76c2.3,10.08-2.39,17.11-7.85,24s-26.12,1.6-31.23-7.7c-8.35-15.21-15.88-30.62-12.57-49.06.42-2.35-3.19-6.6-6-8.11-4.64-2.53-10.1-3.57-15.19-5.23-5.86,27.09-12.41,54.43-17.39,82-1.81,10,.74,20.7.3,31-.92,22.23-1.19,22.22-17.93,34.34l-23.47-12c-1-11.65,7-25.29-7.17-35.45,3.85,41-16.45,76.84-22.35,117.29,8,4.41,29.78-2.83,20,20.22h-15.32c1.51,18.64,3,36.6,4.41,54.58.68,8.72.89,17.49,1.82,26.18,2.23,21,4.73,41.94,7.23,62.9a9.52,9.52,0,0,0,1.89,4.39c10.43,13.78,13.32,27.93,1.61,43.49l-5.69-3.58-79.18,55c7.56,5.21,12.48,8.5,17.29,12,2.91,2.09,7,3.85,8.23,6.75,6.37,14.62,12.48,29.39,17.58,44.48,1.64,4.85,1.56,11.59-.57,16.16-7.42,16-19.16,14.68-33-1.65a111.1,111.1,0,0,0-23.57-21.18c-9-5.86-11.19,4-13.83,9.36-2.74,5.61-3.9,12-5.84,18.34,24.61,22.12,28.3,36.86,11.3,58.95l-25.78-33.46c-2.59,1.37-9.75.7-6.17,9.92.62,1.61-2.62,6-5,7.09-1.91.88-6.69-.46-7.64-2.2a115.67,115.67,0,0,1-8.25-19.65c-1.66-5.11-2.17-10.58-2.85-14.11l18.47-20.8-1.7-1.63,14.65-2.67c-14.41-10.81-24.66-3.2-34.94.7-13.49,5.11-26.65,11.11-40.22,16-2.5.89-7.46-.86-9.31-3-19.48-23.18-42.67-17.48-66.68-9.85-3.76,1.2-9.45-1-13.22-3.3-3.48-2.14-5.58-6.53-9.85-11.88,6.84-5.75,13.44-12.44,21.13-17.45s15.2-9.81,26-10.33c18.86-.92,34.34-13.49,51.43-20.7,13.46-5.68,28.54-7.54,42.92-11,4.23-1,8.53-1.8,12.75-2.68-2.77-23.36-2.22-23.67,23.63-25.27,8.09-.49,16-3.53,24.12-3.93,6.85-.33,13.81,1.41,20.71,2.33,2.67.36,5.73,2.11,7.89,1.3,12.84-4.81,25.64-9.83,38.07-15.6,3.51-1.63,14-1.44,6.13-10.62-.27-.32.84-2,1.52-2.94,9.19-12.29,9.58-19.07,1.5-32.48-3.73-6.18-8.53-11.85-11.44-18.37a191,191,0,0,1-9.11-26.51c-4.44-15.92-8.34-32-15.17-49.18-6.47,12.15-13.82,23.92-19.21,36.53-7.38,17.27-14.39,34.5-27.24,48.69-3.68,4.05-3.76,11.66-12.29,10.42-4-.59-8.3.41-12.46.69.55-4.33,1.11-8.66,1.65-12.89-3.3.23-7.36.1-11.24.89-3.3.68-7.28,1.58-9.41,3.84-6.14,6.51-11.18,14.07-17.37,20.51-1.91,2-6.31,2.68-9.33,2.25-7-1-14-4.7-20.85-4.34-29,1.52-47.29-16.4-63.61-35.77-6-7.06-8.83-20-7.09-29.18,1.36-7.12,12-12.46,18.59-18.59l4.48,2.27v19.49l19.5-5.58c0,.6.55-.84.06-1.55-10.28-15.24-20.88-30.28-30.91-45.69-1.94-3-2.51-7.3-2.44-11,.24-13.62.66-27.26,1.76-40.83.46-5.69,2.8-11.22,4.76-18.6l9,7.59c3-2.86,5.86-5.58,6.86-6.52,15.4-1.42,28.77-3.05,42.19-3.79,17.29-1,34.88-3.22,51.84-1,11.67,1.51,22.84,9,33.56,15,5.64,3.17,9.23,5,14.4-.55,9.25-9.95,21.74-6.24,33-5.95,10.28.27,12.82-3.74,11.13-13.12-2.7-15,.51-19.8,15.07-25.21,2.1-.78,4.7-2.59,5.37-4.51,3.45-9.85,6.37-19.88,9.39-29.88.69-2.29.75-4.78,1.57-7,4.87-13.35,9.88-26.64,14.27-38.42-2.63-3.14-3.13-4.26-3.63-4.26-33.5.05-57.48-20.29-82.5-38.4-14.62-10.58-29.66-20.62-43.65-32-9-7.31-16.64-16.35-24.53-25-9.68-10.58-19-21.5-28.42-32.29-1.07-1.21-1.81-3.1-3.12-3.61-2.74-1.08-6.39-2.74-8.48-1.73-1.81.88-3.16,5.33-2.71,7.84,2.11,11.56,4.95,23-3.47,33.38-1.39,1.71-3.32,3.85-5.24,4.12-5.87.81-24.11-12.37-25.93-18.33-3.16-10.33-6.58-20.61-9.16-31.1-2.41-9.82-3.87-19.88-8.42-31.5-3.5,5.63-8.61,10.84-10.24,17-6.06,22.9-10,46.37-26.16,65.33a130.56,130.56,0,0,0-16.3,24.22c-6.72,12.86-12.1,26.42-18.25,39.59-5.89,12.63-11.42,25.49-18.26,37.6-5.33,9.44-10.64,18.72-21.31,24.76-5.68,3.22-7.46,13.33-11.43,21.17l152.42,27.29-.09,4.41L1211.35,811c-11.83-2.19-29.11-5.79-46.54-8.4-5.72-.86-11.85,1.39-17.75,1.2-5.36-.18-11-3.42-15.94-2.34-10.45,2.29-20.41,9.05-30.69,9.32-14.77.38-22.62,6-29,18.83-1.86,3.71-13.78,7.67-19.6-1.52-5.6-8.88-12.67-14.58-22.77-19-6.1-2.7-11.67-8.36-19.13-9.69a27.7,27.7,0,0,0-4.74,0c-2.3,18.36-4.57,36.32-6.78,54.28-1.92,15.5-3.19,31.1-5.8,46.47-2.87,16.86-7,33.51-10.47,50.27-.39,1.91-1,4.42-.13,5.84,5.55,9.33,11,18.79,17.5,27.46,2.73,3.66,7.88,5.51,11.92,8.18l7.86-12.1c.63-1,1.27-1.91,3.24-4.86,3.68,5.83,7.76,10.33,9.56,15.61,3.08,9,6.12,18.45,6.7,27.85,1.15,18.66,11.64,32.23,23,44.94,16.76,18.72,33.6,36.87,46.08,59.26,7.64,13.69,21.55,23.8,32.28,35.85,9,10.12,18.91,9.27,31.89,8.86s28.32,8.1,38.77,17.16c8.22,7.11,10.56,21,14.83,30.39l-25.18,7.21c9.89,11.35,20,14.53,32.13,12.74,13.28-2,27.31,7.34,32,20.07,4.29,11.76,6.74,12.24,15.2,3.74,5.08-5.1,10.71-9.66,16.31-14.65,14.33,6.19,28.07,11.75,42-1.8,5.5-5.37,19.63,3.8,21.87,12.82.79,3.16,2.16,8.43,4,8.74,21.94,3.77,25.87,22.78,33.65,38.57,1.06,2.14,1.81,5.13,3.59,6.11,16.6,9.1,12.49,24.85,13.16,39.18.21,4.45.72,9.25,2.59,13.18,8.9,18.74,4.26,32.74-12,47.06-9.2,8.11-18.69,10.77-29.9,12.76-5.07.91-9.36,6.66-13.81,10.44-4.71,4-9.2,8.26-14.24,12.82l-7.53-9.63c-4,3.13-7.66,6.09-11.41,9-13.53,10.43-26.62,21.55-40.87,30.9-5.16,3.39-13.41,4.36-19.7,3.27-16.82-2.92-30.35,3.79-44.58,10.94-16.71,8.39-33.76,17.38-51.71,21.63-15.18,3.58-32.53,4-44.87-7.7,2.57-20.2,5.51-39.66,7.19-59.22.36-4.2-3.82-8.79-5.9-13.2l-3.4.2c-2.81,9.59-5,19.43-8.68,28.66-2.21,5.52-8.05,9.64-10,15.18-2.24,6.31.59,14.37-6.78,19,3,4.7,4.92,11.4,9.22,13.78,27.33,15.11,49.93,35.68,65.1,62.4,7.81,13.75,10.13,31.14,12.47,47.24,1.34,9.17-15,16.41-24.68,11.48-4.52,7.14-7.61,17.83-14.06,20.53-6.08,2.55-15.68-3.33-22.62-5.2-4.42,10.83-7.47,22.84-13.88,32.65a77.17,77.17,0,0,1-23.67,23.17c-11.09,6.75-17.68-5.61-23.67-11.57-4-4-6.13-13.85,4.49-18.56,7-3.12,13.13-8.47,19.33-13.24a24.19,24.19,0,0,0,4.74-5.52c-3.89-4-7.39-6-8.34-8.88-7.66-22.92-15.18-46.15-32.14-64-6.17-6.47-16.58-8.82-24.83-13.45-2.95-1.65-5.24-4.46-7.83-6.75,2.34-2.38,4.31-5.35,7.06-7,13.12-8.06,23.91-5.31,33.76,6,12.55,14.44,25.58,28.4,33.27,46.23,3.56,8.24,6.49,16.75,10.23,26.51,1.73-1.89,4-4.69,6.59-7.14,4.6-4.31,9.17-11.65,14.15-12,18-1.24,20-17.85,28.55-27.77,2-2.29-1.16-12.06-4.73-15.43a304.82,304.82,0,0,0-35.52-28.67c-5.11-3.54-12.37-4.74-18.82-5.42-14.1-1.48-27.38-5.51-36-16.75-5-6.49-7.24-15.83-8.16-24.17-.28-2.49,8.94-9.26,12.39-8.4,17.33,4.35,12.77-7.21,13.35-15.54-14.08-8.38-24.24,3.43-35.82,6.2-2.62.63-4.63,6.23-5.82,9.89q-7.56,23.18-14.35,46.58c-2.65,9.2-4.89,18.54-6.74,27.93-5,25.4-14.22,49.16-29.81,69.75-3.92,5.17-12.55,8.41-19.42,9.28-8.06,1-11.45-8.37-6.16-15.18,6.28-8.09,15.66-14.48,15.18-26.27-.14-3.61-1-7.88-3.09-10.61-9.26-12-9.21-30.73-2-44.09,6.8-12.58,11.29-26.46,16-40,.88-2.5-1-6.93-3-9.32-10.86-13-11-21.33,0-34.81,9.21-11.26.33-21.85-1.21-32.73-.65-4.55-1.78-9.42-.83-13.74,1.78-8.18,2.49-14.29-2.09-23.23-4.79-9.35-1.94-23-1.19-34.67.71-11.08,3.67-22,4.5-33.1,1.46-19.44-14.44-28.46-25.38-41,.47,7.68,3.78,16.56-6.61,18.4-8.2,1.45-15.74,1.79-24-6.1-13.45-12.87-27.1-26.65-45.38-33.6-3.15-1.2-5.64-4.12-9.31-6.9-1.35,1.78-3.59,3.6-4.32,5.9-6.29,19.76-20.77,23.2-38.41,12.06-16.45-10.39-26.82-23.48-30.4-42.3-.43-2.29-2-5.1-1.18-6.75,6.18-12.55-1.74-20.75-8.41-29.47-14.49-18.92-17.6-39.09-7.45-61.2,9.29-20.21,15.16-42.66,27.71-60.47,9.35-13.26,10-24.3,7.87-38.28-.59-3.79,3.13-8.25,4.88-12.41,3.38,2.19,6.73,4.4,10.15,6.53a56.56,56.56,0,0,0,5.42,2.34c-1.53-13.78-7.7-22.66-17.25-30.23-8.32,4.72-14.78,10.71-26.36,5-11.85-5.84-19.92,3.42-22.06,17.13-4.58,29.27-11.22,58.15-40.79,73.71-5.8,3-12.39,4.79-18.8,6.46-7.54,2-9.46,6.38-7.78,13.54,5.25,22.37,10.09,44.84,15.55,67.17,3.11,12.76-3.61,18.54-19.88,16.33-1.17-10.26-1.77-20.64-3.64-30.78-3.44-18.65-7.27-37.24-11.76-55.66-1.06-4.32-5.77-7.62-8.17-11.76-2.75-4.74-7.93-11.23-6.49-14.56,2.53-5.85,8.72-9.49,17.07-5.53a21.84,21.84,0,0,0,16.06.29,167,167,0,0,0,28-15.77c3.85-2.61,6.08-7.62,10.89-14l-65.14-21.47-1.11,3.32c8.23,9.15,18,14.46,31,14.43,7.7,0,8.06,4.76,4.1,10.53-5.77,8.39-14,10.8-22.8,7.35-27-10.56-51.6-25.55-71.46-46.7-11.49-12.23-20.3-27-31.93-40.5,2.59,10.78,5.93,21.44,7.56,32.37,2.31,15.41,2.53,31.16,5.14,46.51,2.91,17.1-4.34,31.58-8.74,47.12-4.33,15.31-6,31.38-8.84,47.11-2.1,11.52-2.44,23.06-6.83,34.53-5.8,15.21-7.4,32-11.71,47.81-2.64,9.72,1.5,14.7,9,19.62,6.23,4.1,11.57,9.61,17.06,14.76,3.46,3.25,6.12,7.39,9.71,10.46,9.74,8.34,9.45,11.9-1.23,18.83-7.4,4.81-14.21,10.52-21.53,15.44-1.65,1.11-4.35.74-6.58.89-11.28.75-19.79,12.27-16.77,22.28q16.08,53.43,31.87,106.94c6,20.31,15.15,40.55,16.25,61.17,1.22,22.92,13.7,40.8,18.85,61.6,3.8,15.3,17.34,21,29.08,28.52,5.74,3.66,14.06,7.07,15.83,12.39,4.32,13,5.65,27,7.77,40.6.3,1.92-1.69,4.2-2.64,6.38-16.11-1.93-23.26-14.43-32-24.82-7.33-8.76-14.75-16.93-9.88-30.62,1.53-4.31-3.93-11.74-7.3-17-9-14.09-18.21-28.06-28-41.61-27.6-38.21-38.64-82.29-48.31-127.47-4.44-20.72-15.65-40-23.58-60-1.41-3.55-2.87-7.59-2.51-11.22,1-9.73-4.84-14.77-11.82-19.19-1.55-1-4.89-1.87-5.51-1.16-7,8-21.51,9.23-21.92,23.11-.12,4.17.34,11.17,2.58,12.14,12.75,5.51,13.23,17.08,17.57,27.72,3.29,8.05.85,12-3,16.74-8.44,10.18-14.23,8.24-23.71-1-13.62-13.34-20.55-28.76-22.44-47.16a16.21,16.21,0,0,0-1.38-4.61c-.27-.65-1.15-1-1.76-1.55-13-1.75-19.88,19.94-38.17,7.61,10.41-9.34,19.9-18.11,29.66-26.57,19.11-16.58,38.53-32.82,57.38-49.7,2.34-2.1,2.17-7.22,2.74-11,.29-1.88-1.08-4.15-.5-5.83,5.64-16.41.63-31.19-7.43-46.93l28.53-14.67,20.74,30.75,3.84.2c3.14-15.13,6.25-30.26,9.43-45.38.65-3.07,1.61-6.08,2.33-9.14,1.1-4.66,2.81-9.31,3.06-14,.77-14.71,2.9-29.71,1-44.12-2.91-21.78,4.26-42.3,4.54-63.3.25-18.53-5.71-37.06-7.6-55.73-1.62-16-1.54-32.22-1.68-48.35,0-1.95,3.59-5.78,4.9-5.53,3.12.6,7.17,2.44,8.51,5,3.08,5.87,4.76,12.48,7.47,20.09l17-1.65c0-1.86.5-3.48-.07-4.09-15.53-16.64-30.25-34.19-47.1-49.37-10.66-9.6-10.79-22.34-15.09-33.76-1-2.71,5-8,9.33-14.58l15.59,22.8c4.08-4,7.92-8,12-11.71,1.93-1.76,4.2-4.14,6.49-4.36,10.75-1,11.61-8.34,11.09-16.45-.36-5.62-.69-11.46-2.46-16.71s-1.23-12.52-10.87-13.27c-3-.22-6.85-9.43-7.43-14.83-1.18-11-3.59-17.37-17-14.85-10.75,2-25.46-9.95-30.7-23.32-3.9-9.94-6.87-20.24-9.85-29.18-5.6,1.12-13.26,4.91-16,2.68-4.2-3.44-6.5-10.9-6.94-16.85-.83-11.25.49-22.65.45-34-.12-33.23-1.87-66.53-.3-99.67,1.28-26.94,4.06-54.29,10.55-80.37,6.39-25.71,17.25-50.52,28.16-74.82,6.8-15.16,17.3-28.67,26.22-42.87,3.65-5.82,8.07-11.23,11.13-17.34,4.57-9.1,11-8.93,20.42-4.51L536.09,444l4.77,2.74c4.1-7,8.08-14.15,12.32-21.11,11.65-19.08,23.84-37.84,35-57.23,7-12.22,16.34-21.43,27.86-29.27,17-11.54,23.45-30.85,30.27-48.45,8.37-21.59,21.78-38.55,36.4-55.74,20.32-23.89,43.05-45,67.46-64.3,9.92-7.85,21.84-13.12,32.69-19.83,8.89-5.48,17-12.58,26.41-16.75,13.21-5.85,27.2-10.14,41.18-13.87,2.61-.69,6.76,4.36,10.93,5.36,4.32,2.29,8.82,4.3,12.9,7,2.52,1.65,4.21,5.89,6.62,6.19,12.51,1.58,13,9.31,11.68,19.26-.84,6.07-1.93,12.59,6.69,15.74,8.85,3.24,14.36-1.4,19.57-6.55a88.61,88.61,0,0,1,31.6-20.36c7.29-2.73,14.54-5.54,21.81-8.31-.21-1.16-.43-2.33-.65-3.49-8,.38-16.18.14-24.1,1.33-7.39,1.1-12.91,1.55-16.82-6.92-1.35-2.94-8.29-3.24-12.61-4.9-6-2.33-12.93-3.76-17.59-7.75-1.81-1.56,1.15-9.15,2.6-13.78.46-1.45,3-3.07,4.71-3.19,36.25-2.62,72.27-7.51,108.8.28,22.21,4.75,45.47,4.36,68.11,7.39,7.3,1,13.89,6.59,21.22,8.19,33.9,7.42,62.53,28.66,96.34,36.3a35,35,0,0,1,15.64,7.85c10.33,9.6-3,9.6-7.45,15.09,3.94,1.21,7.72,1.68,10.78,3.42,10.81,6.13,21.37,12.68,32,19.09a1.71,1.71,0,0,1,.74.9c1.13,4.84.87,12.84,3.56,14,9.25,3.95,19.53,5.52,29.42,8l2.08-3.32c-5.48-7.59-12.27-14.6-16-23a35.49,35.49,0,0,1-1.87-21.76c1.33-5.13,7.94-6.65,14.19-2.63,29.78,19.18,57.65,40,80.67,67.79,19.93,24,32.94,50.93,43.93,79.42,3.24,8.38-2.1,28.19-9.17,33.57-5.73,4.36-13.22,1.35-16.16-6.19-7.73-19.81-14.43-40.16-24-59.07-5.15-10.23-15.06-18.15-23.22-26.74-4.58-4.83-8.45-2.64-9,3.21-1.06,12.16-8.16,12.07-17.85,11.29-27.33-2.18-54.72-3.69-82.12-4.7-19.37-.71-31.56-10-30.86-27.89.37-9.32,5.62-18.44,9.69-30.77-14.51,2.62-27.87,5.31-41.32,7.35-7,1.06-14.18.6-21.21,1.47-31.17,3.85-59.14,18.45-89,26.68-10.3,2.84-21.12,3.7-31.58,6-6,1.33-11.7,3.8-15.65,5.12-4.67-8.87-7.79-15.14-11.22-21.24-3.14-5.61,3.76-20.54,13.33-25.12,11.06-5.29,23.53-7.81,34.19-13.71,14.85-8.22,28.59-18.46,42.67-30.7-10.55,0-21.24-1.12-31.6.23-22,2.88-44.19,5.4-65.42,11.29-13.76,3.82-25.91,13.39-38.84,20.27-7.73,4.11-9.54,10.21-6.43,18,3.5,8.8,2.88,16.42-9.08,23.67l-28.81-32.1c-9.89,3.4-22.26,5.58-32.25,11.66C864.86,224.66,857,234.82,848,243.1c-11.75,10.78-23.68,21.38-35.51,32.08-13.88,12.58-27.73,25.19-42.48,38.59l15.46,9.69c-15.51,4.09-17.27,15.28-18,27l.41-.41c-7.32,0-14.91-1.11-21.9.43-7.59,1.68-11.31-.95-14.34-7.06-7.31-14.74-3.38-29.1,4.28-41.49,11.38-18.43,21.87-38.12,41.65-49.74a9.27,9.27,0,0,0,3.53-3.23c6.75-12.72,13.34-25.51,19.27-39.55q-25.83,25-51.61,50.06c-1.37,1.34-3.47,3.64-3.09,4.79C750.56,279,738,281.39,730,286.84c-4,2.78-6.75,4.07-8.08,10.69-1.38,6.82-11.23,13.47-18.85,17-7,3.27-17.29,10.22-23.23-7.69l-37.21,61,39.57-3.31c4.32,5.57,13.48,13.33,16.66,23.05,1.81,5.55-5,15.24-10,21.38-8.31,10.24-19.94,18-27.16,28.84-10.78,16.18-19.25,34-28.07,51.38-3.07,6.06-4.23,13.09-6.26,19.68l4.75,2.9c6.38-7.49,13.29-14.59,19-22.56,8.9-12.4,17.08-25.33,25.35-38.18,2.78-4.33,4.36-9.51,7.51-13.49,2.41-3,6.43-4.82,9.74-7.16,1,3.16,3,6.43,2.71,9.45-.79,7.48,5.76,13,2.55,21.91-8.62,24-14.9,48.79-21.89,73.34-1,3.4-.69,7.16-1,10.77-2.58,2.27-5.85,4.11-7.62,6.9-5.75,9-10.78,18.57-16.42,27.71-6.26,10.16-12.88,20.1-19.56,30.47H622.42c.32-.92.65-1.84,1-2.76-4.66-2.25-9.6-6.71-13.91-6.17-5.14.65-10.86,4.67-14.28,8.89-3.57,4.4-4.71,10.78-7.22,17.08,15.93,11.6,14.83,29.86,13.76,47.17-1.39,22.43-5.09,44.71-7.26,67.11-.56,5.78.87,11.74,1.38,17.62,12.46-34.51,29.7-65.19,49.76-94.09,4.62,2.45,8,4.61,11.62,6.1,14.36,5.86,19.45,14.59,17.35,30a15.49,15.49,0,0,0,.3,7c5.4,15.13-1.08,28.65-5.42,42.47q-5.34,17.07-10.75,34.11a485.9,485.9,0,0,0,47.19-35.68,65.76,65.76,0,0,0,13.15-15.36c3.24-5.25,4.76-11.56,7.36-18.22l11.72,7.44c-.14-1.21-.29-2.42-.44-3.63l21.86-8c1-4.84,2.42-11.36,4.43-20.75l2.44,9c3.59-6.28,6.74-13.41,4.67-18.38-7.25-17.44-20.69-32.14-23.06-51.87,0-.46-1.27-.77-4-2.34-7.74,12.07-16.67,23.76-23,36.72-3.32,6.83-4.57,14.21-13.63,13.56-6.28-.45-15.83-1-18-4.91-7.12-12.68-19.15-14-31-17.36-.74-11.61-2.11-23.18-2-34.73.07-7.51.91-15.59,3.82-22.38C667.57,581.4,676,564.77,675.82,545.52Zm315.47,509.17c-5.76,8.7-6.63,17.87-2.79,27.55,1.32,3.3,3.48,6.65,3.56,10,.82,32.7,1.83,65.42,1.4,98.12-.09,6.62,1.78,10.25,4.83,15.45,5.46,9.31,8.87,19.82,3,30.9-4.54,8.56-4.69,16.07,7.66,19.87.83-12,2.08-23.4,2.32-34.78.66-30.31-11.42-59.77-6.27-90.44.24-1.44-1-3.07-1.18-4.65-.88-6.3-2-12.59-2.39-18.93-.94-14.82-1.51-29.66-2.25-44.5-.26-5.2-.92-10.07-8.25-8.15-.23-6.42,2.71-14-6.14-17.67C979.41,1047.89,981.42,1052.82,991.29,1054.69ZM925.23,765.11c4.8,13.77,18.59,23.52,15.65,40.74l4.17.63,20.65-27.33-1-4.76-39.79-8.77c-11.19-6-22.13-12.61-33.7-17.78-3.87-1.72-9.63-.74-14,.63-5,1.56-9.39,4.93-15.44,8.28,1.56,6.7,2.84,16.78,6.33,26,4.06,10.74,10.87,20.44,15,31.16,4,10.42,5.28,21.38-1.65,31.81-2.5,3.76-4.79,8.44-5,12.79-.61,14.49-.23,29-.23,44.49l10-2.35c.84,8,1.6,15.39,2.37,22.75,2.61-1.78,3.11-3.28,3.24-4.81,2.2-26.73,4.49-53.44,6.47-80.18.79-10.67,1-21.38,1.26-32.07.2-8.15.19-16.3.12-24.46-.12-13.38,12.25-9.89,18.93-14C920.58,766.62,923,766,925.23,765.11Zm317.6,74.14c-1.17,6.19-3.67,12.09-3.08,17.66,1.67,15.92,3,32.17,7.44,47.42,4.87,16.71,12.59,32.67,20.13,48.46,1.9,4,7.41,7.37,12,8.77,12.22,3.75,24.78,6.44,37.28,9.22,7.66,1.7,14.5,1.47,20.4-5.76,7.38-9,15.41-17.88,24.59-25,5.65-4.37,9-8.45,10.22-15.34,1.59-9,4.85-17.63,6-26.61,1.24-9.45.84-19.09-10-24.17-9.81,15.57-19.31,29.58-40.64,22.62-2.32-.75-6,2.34-8.92,3.89s-6.4,5.5-8.62,4.87c-10-2.84-19.7-6.94-29.53-10.59,0-8.86-.2-18,.1-27.08.12-3.83.26-10.12,2.23-10.95,4.61-1.94,11.54-3.41,15.36-1.25,14.35,8.13,28.79,4.21,43.62,1.8-9.22-4.4-18.89-6.09-28.41-8.37-11.75-2.8-23.4-6.75-34.46,2-.4.32-1.49-.09-2.2-.33C1265.43,846.85,1254.51,843.17,1242.83,839.25Zm-482-90.81c2,8.43,2.88,17.2,6,25.07,4.84,12.11,12.2,23.25,16.72,35.45,7.78,21,13.84,42.59,21.35,63.67,2.75,7.69,5,19.36,18.06,9.67.87-.65,3.32.91,5.07,1.31,8.46,1.9,27.52-9.72,29.69-18.13.4-1.54,1.1-3.42.58-4.7-4.38-10.67-7.51-22.26-13.85-31.65-15.35-22.71-25.28-47.72-33.07-73.52-3-9.87-3-21.47-1.23-31.74,2.51-14.49,8-28.48,12.53-44-8.64,2-16.8,5.7-24.73,5.26-12-.66-12.59,7-12.36,14.36A74.3,74.3,0,0,0,790.31,724c3.32,8.49,10.22,15.65,13.12,24.22,1.41,4.16-2.74,10.21-4.37,15.4-4.58-1.46-11.66-1.6-13.27-4.63C780.31,748.59,772.62,746,760.87,748.44Zm40.48,401.28c2.42,4.22,4.64,8.07,6.86,11.93,2.17-1.43,5.31-2.37,6.36-4.39,13.5-26.15,26.71-52.45,40-78.72,1.6-3.16,2.72-6.68,4.86-9.42,4.21-5.41,6.25-10.07-.42-15.28-5.82-4.55-9.25-4-16.43,0-8.61,4.78-9.31,10.92-11.72,18.18-3.18,9.62-8.1,18.65-11.68,28.16C813.11,1116.2,807.53,1132.45,801.35,1149.72Zm314.24,38.52,2.52-1c-4.48-7-8.7-14.2-13.6-20.89-1.77-2.41-5.21-3.61-7.89-5.36-1.08,3-3.36,6.06-3,8.87,1.15,10.22,3.57,20.29,4.8,30.51,4.94,41.31,9.62,82.66,14.4,124l5.52-.28c0-6.92.26-13.85,0-20.76-.73-16.33-4.77-33.24-1.75-48.81,3-15.36-.52-29.34-.88-43.92C1115.44,1203.18,1115.59,1195.71,1115.59,1188.24Zm34.21,291.58c15-3.78,27.72-6.51,40.08-10.51,2.9-.93,6.75-6.73,6.12-9.28-1.67-6.71.35-16.46-10.29-18.21-12.94-2.13-25.91-4.09-41.67-6.57C1145.85,1449.22,1147.68,1463.41,1149.8,1479.82ZM859.34,963c.34-1,.7-5.33,3-8.07,10.91-13.08,14-25.36-.46-35.37L815,925.83c2.91,15.2,5.77,17.43,22.45,23.78C845,952.47,851.44,958.06,859.34,963Zm429.78,308.15c8.93,13.78-9.23,17.94-14.59,30.24,6.73,1.92,12.67,3.82,18.71,5.28,15.71,3.79,21.1,12.22,17.32,27.45-3.62,14.59.06,20.19,16.08,24.25,5.58-25.63-14.33-45.42-16.4-69.65C1309.69,1282.32,1296.5,1277,1289.12,1271.16Zm-132.12-16c20.47-2.24,36.28,3.92,50.09,19.14,2.36-18,12.57-3.85,19.25-5.79,1.53-7.57-1.5-10.68-8.23-13.55-20-8.5-43.64-8.74-59.7-26.21-.46-.5-2.24.21-4.78.52C1154.76,1237.89,1155.86,1246.37,1157,1255.14ZM664.56,965.26c7.43-18.19,15.36-32.86,13.08-50.08-.5-3.79-3.89-7.21-5.95-10.8-2.64,3.17-6.61,6-7.65,9.59-2,7-2.39,14.56-3.2,20.17l-19.4,5.13Zm279.37,43.46c-14,19.58-20,39.53-20.78,63.49C949.83,1055.85,956.61,1034.9,943.93,1008.72ZM857.2,724.82c8.6-10.19,15.95-18.3,22.43-27.05,1.4-1.9.62-8.29-.81-8.93-7.64-3.42-15.73-5.87-23.79-8.28-8.23-2.46-10.1,3.11-11.92,10.16l9.1,1.6C853.83,702.84,855.35,712.74,857.2,724.82Zm70.25,224.07c-7.05-1.14-13.34-2-19.56-3.22s-9.25.41-8.68,7.24c.48,5.84.29,11.74.75,17.59.62,7.9,4.4,10,12.24,7.5C925.81,973.62,930.13,966.23,927.45,948.89ZM535.4,1295.82l4.52,1.71c7.56-4.94,15.33-9.59,22.59-15,2.68-2,4.16-5.61,6.18-8.49-3.37-2.35-7-6.93-10.07-6.61-7.45.77-17.22,1.72-21.23,6.57C533.56,1278.69,535.82,1288.36,535.4,1295.82ZM852,1160.34c-3.82,13.46-6.9,24.28-10.16,35.76l10.28,5.07c.86-5.44,1.52-9.6,2.36-14.93l9.91,22.16,3.28-.52c0-10.26,1.43-20.82-.57-30.67C866,1171.93,859,1167.86,852,1160.34Zm515,213.46,21.61-2.88c-8.24-13.28-16.17-26.06-24.09-38.84l-3.42,1.08C1363.05,1346.81,1365,1360.46,1367,1373.8ZM541.3,560.27c-19.5,20.11,5.8,30.55,6.21,45.65,0,1.4,3.68,2.71,8.24,5.83C552.93,592,550.66,575.57,541.3,560.27Zm777.24-90.38c-11.89,11.92-7.19,25,14.9,45.23C1328.16,499.09,1323.65,485.38,1318.54,469.89Zm-249.31,949.65c-.79-8.55-3.73-11.87-11.79-10.87-8.73,1.09-15.09,4.66-18,12.91-.33.94,4.47,5.41,6.2,5C1053.37,1425,1060.82,1422.19,1069.23,1419.54ZM1047.6,1152.4l4.08-1.35c-1-15.23-2.26-30.4-12.25-42.8l-3.94,1.16Zm-173.48-119c12.48-11.26,12.48-11.42.89-23.83C865.3,1015.86,865.17,1018.11,874.12,1033.43Zm-29.64,205.76,7.4-8.3c-4.58-4-9.06-8.12-14-11.66-.38-.27-5.76,5.06-5.49,5.44C835.64,1229.27,839.49,1233.42,844.48,1239.19Zm67-8.93,4.07-1.12c-.53-16.14-6.49-31.74-13.52-32ZM759.6,839.05l-3.79-.59c-9.75,12.17-10.67,19.78-1,26.27C756.49,855.55,758,847.3,759.6,839.05Zm-34,142.47c-12.15-16.53-14.37-16.8-27.17-4.74ZM771,934.69c.43,1.53.85,3.07,1.28,4.61L789.17,935l-13.06-13.94C774.11,926.36,772.53,930.52,771,934.69Zm312.89,422.16c-9.26,5.42-9.08,11.79-3.3,19.84C1089.63,1371.1,1092.21,1365.19,1083.84,1356.85ZM626.38,848.28c10.85-1.27,11.61-7.42,9.18-16.55C627.15,834.91,620.46,837.8,626.38,848.28ZM832.89,654.16l2.22,2.68,13-1.14c-.91-5-1.63-8.89-2.9-15.84Zm621.68-86.54,2.67-3.24c-1.18-8-5.42-12.16-17.83-9.89Z"/><path d="M337.33,1088.57c-7.49,2.13-13.18,3.66-18.8,5.39-6,1.85-12,3.9-17.23,5.61-1.5,6.15-1.17,13.44-4.61,16.59-3.85,3.53-12.58,6.19-16.63,4.15a83.39,83.39,0,0,1-25.19-19.16c-18.46-21.2-17.48-47.85-18.24-73.82-.15-5-1.34-10.06-1.89-15.11-.35-3.13-1.22-6.51-.48-9.43,6-23.87,12.45-47.65,18.55-71.51.65-2.55,1-6.21-.28-8.07-15.18-21.54-5.84-41.22,4.71-60.44,2.95-5.39,8.83-9.09,12.92-13.95,4.81-5.73,10.89-11.24,13.3-18,4.48-12.53,12.83-16,24.77-15.4,3.51.19,7.51.38,10.53-1,14.53-6.81,28.67-14.47,43.21-21.25,15.85-7.39,31.86-14.46,48-21.07,16.59-6.77,33.25-13.56,50.37-18.75,5.21-1.58,13.48.35,17.7,3.86,4.84,4,5.56,10.7-1.66,16.24-9.41,7.22-17.71,15.87-26.3,25.67l25.4-9.81,13.09,45.47,5.11,1c3.2-6.76,5.11-14.7,9.95-20,5.08-5.52,12.89-8.57,19.63-12.48,6.52-3.78,11.81-2.62,15.73,5.36l-12.58,6,2.17,1.89c-3,4.68-5.88,9.38-8.85,14-4.65,7.3-16.66,14.37,0,22.1,1.83.84,3,8.48,1.84,9.34-3.51,2.57-8.66,5.17-12.59,4.47-13.9-2.44-26.77-7.5-33.29-21.67-3.73-8.11-8.51-6.77-14.23-2.11-4.9,4-10.17,7.56-15.57,11.55,5.51,5,9.08,8.57,13.05,11.67,7.69,6,15.47,10.77,25.18,3,2.61-2.09,6.93-2,11.11-1.53-7.56,8-15,13.62-17.5,25.63-1.75,8.47-13.19,14.56-19,22.65-14.46,20.11-29.13,40.19-41.78,61.44-5.77,9.67-6.6,22.19-10.36,33.19-3,8.71-7.07,17-10.56,25.59-10,24.45-20.42,48.73-29.5,73.51-2.76,7.54-6.24,14.34-13.66,13.68-13.63-1.22-20.7-11.74-18.08-23.33C335.51,1096.69,336.2,1093.6,337.33,1088.57Zm8.94-247.76c-12.12,6.06-22.61,10.92-32.73,16.46-13.67,7.48-13.94,19.57-1.19,29.18,1.61,1.22,3.25,3.7,3.22,5.58-.19,15.11-1.11,30.21-1.1,45.32,0,7-1,17.53,3,20.45,9.12,6.78,12,14.81,13,24.91.18,1.9.66,4.22,1.88,5.53,11.19,11.92,22.57,23.67,35.95,37.61,17.56-31.08,33.2-58.79,48.85-86.5-5.48.59-9.69,3.06-13.84,5.63-13.54,8.4-33.11,2.89-33.52-10.75-.36-12.06-7.15-19.74-12.32-28.83-2.69-4.73-7.32-8.92-8.38-13.92-3-14.13-17.74-28-1.94-43.18C347.92,847.5,346.75,844.62,346.27,840.81Z"/><path d="M767.52,350.49c15.42-15.12,30.78-30.3,46.29-45.33,15.13-14.67,30-29.58,45.73-43.62,13.3-11.9,27.57-22.71,41.77-34.3,7.1,5.59,14.16,8.92,17.74,14.49,5.25,8.18-1.11,23.94-10.11,29.16-2.78,1.62-6.19,2.34-8.61,4.33-2.92,2.4-5.1,5.72-7.61,8.65,3.12,2.11,6,5.1,9.39,6.17,10.51,3.27,12.85,9.94,5.78,19.11-4.14,5.37-9.24,10-13,15.63-1.9,2.83-1.78,7-2.57,10.6l4.21,1c1.24-2.27,2.53-4.51,3.71-6.8,1.08-2.09,2-4.23,3.61-7.55l20,8.9c.59,19.85-11.09,32.5-21.15,46.23-13.68,18.66-26.5,38-39.68,57a34.39,34.39,0,0,0-2.65,4c-1.57,3.14-3,6.36-4.42,9.54,4-.57,9.49.34,11.62-1.93,19.14-20.49,37.74-41.49,56.32-62.51,1.43-1.62,1.23-4.59,2.17-6.77,3.39-7.85,8.13-11.91,16.5-5.65a11.7,11.7,0,0,0,5.84,2.54c12.84.66,17.95,7.67,13.78,19.4-1.21,3.41-2.18,7-4,10.06-4.76,7.83-9.92,14.6,5,17.9,2.39.53,4.28,12.69,3,18.77-6,28.57-27.31,48.67-42,72.41-4.57,7.36-7.31,12.41-.12,16.46-.78,7-1.39,12.41-2,18-3.67,4.23-7.45,10.17-12.68,14.28-10.28,8.1-14.94,5.52-20.24-6.43-7.19-16.23-11.1-32.35-4.54-50.43-9.8,0-20.47,3.14-26-.85-5.95-4.27-7.08-15.26-12.08-27.75-6.16,7.9-10.92,15.38-17.13,21.35-2.79,2.67-9.14,4.1-12.68,2.82-3.36-1.22-6.55-6.42-7.42-10.39-3.67-16.71-1.88-32.81,9.81-47l-2.71-2.35c-2.14,1.31-4.37,2.52-6.42,4-4.48,3.17-8.79,8.78-13.32,8.93-3.33.12-8.24-6.31-10-10.79-2.45-6.1-2.6-13.12-4.27-22.86-8.79,3.89-16.72,6.58-23.76,10.75-8.29,4.91-18.87.13-17.93-11,1.22-14.37,5.25-28.87,10.41-42.43,3.61-9.46,11.16-17.43,16.93-26.06Zm50.15,83.78,5,1.08c3.73-5.6,7.18-11.41,11.23-16.77,15.36-20.33,30-41.33,46.76-60.42,8.79-10,11.86-14.46,6.2-25.67-7.88,6.84-17.54,12.95-24.16,21.44a575.81,575.81,0,0,0-37.45,54C820.62,415.44,820.06,425.42,817.67,434.27Zm-37.34-47.36,3.38,3.76c14-9.15,30.3-14.9,39.88-30.56C832.41,345.7,842.42,332,851.91,318l-4.48-3.45Z"/><path d="M900.7,1684.13c-2.72-16.74,9.61-19.92,19.59-24.28,6.77-2.95,9.88,2.32,9.63,8.29-.31,7.48,1.3,11.81,9.64,13.75,7.61,1.76,8.25,10.06,1.28,14.2-4.6,2.73-10.23,3.74-16.56,5.91-5.07,10.52,13.49,27.77-7.74,33.62-5.49.29-11,1-16.46.74-5.87-.29-12.72.17-17.36-2.64-22.9-13.85-45.38-28.43-67.63-43.31-6.82-4.56-11.93-5.36-17.76,2.58,5.09,14.67,12.45,29.44,15,45,2.81,16.87.5,34.52,1.73,51.74,1,13.42-2.68,26.14-4.11,39.14-.68,6.08-6.27,11.62-9.36,16.93-13.37,0-16.72-9.75-20.5-18.34s-10-15.45-7.17-27.3c3.4-14.49,2.5-30.32,1.39-45.41-.58-7.81-6.39-15.1-8.49-23-2.43-9.16-4.66-18.75-4.47-28.1.11-5.26,4.3-11.43,8.4-15.4,10.1-9.78,17.27-16.39-.56-28-22-14.25-41.86-31.69-62.48-48-17.43-13.77-35.27-27.13-51.66-42.07-11.53-10.52-21.51-23-30.94-35.46-3.21-4.25-4.25-11.52,4.49-14.58,2.6-.91,3.8-5.28,6.23-7.38,3.94-3.42,8.07-7.95,12.71-8.79,3-.55,8.22,3.84,10.5,7.3,10,15.26,18.22,31.91,32.73,43.76,12.56,10.26,25.41,20.16,38.19,30.14,1.24,1,3.57,1,4.25,2.14,8.7,14.67,23.51,21.72,37.1,30.38,22.33,14.22,44.49,28.7,66.67,43.14,10.63,6.92,21.5,13.57,31.59,21.23,4.71,3.59,7.15,7.25,14,2.46C886.28,1682,893.33,1684.13,900.7,1684.13Z"/><path d="M1233.3,718c12.14-13.56,15.63-14,29.69-5,1.59,1,3.76,1.21,5.7,1.56,10.78,1.93,22.54,7.45,32.13,4.88,16.71-4.48,32.16-.31,47.75,1.69,17.16,2.2,33.89,7.87,50.71,12.4,1.61.44,4,4.2,3.46,5.2-1.07,2.2-3.49,4.61-5.8,5.19-10.35,2.64-20.86,4.67-32.06,7.09,1.55,10.4,10.37,13.1,18.32,15.68,7.56,2.46,15.8,4.34,13.07,14.31-3.66,13.4-11.27,16.37-23.24,11-13.53-6-25.94-11.94-33.82-26.72-8-14.95-20.53-12.9-34-2.09-17.45,14-36.06,28.33-61,23.6-4.37-.82-8-5.45-12-8.32,3.42-3,6.38-7.3,10.36-8.66,13.94-4.77,17.74-17.68,7.39-28-3.6-3.59-8.52-6.06-11.42-10.06C1235.88,728.2,1235.13,723.15,1233.3,718Z"/><path d="M1328,355.14c-23.76-4.76-44.87-8-65.42-13.41-17.61-4.63-34.45-12.13-51.88-17.58-6.94-2.17-8.63-6-8-12.4s.22-12.83,1.39-19.05c.43-2.31,4-5.7,6.14-5.76,9.42-.26,19.09-.61,28.27,1.15,24.09,4.63,47.79,11.56,72,15.2,15.63,2.35,25.66,10.67,33.14,22.7,2.79,4.5,3.89,13.3,1.31,17.12C1341.14,348.71,1333.33,351.6,1328,355.14Z"/><path d="M1325.75,1630.52c-16.92-6.09-37.65-11.29-56.12-20.85-18.15-9.41-35.05-22.07-50.4-35.67-6.91-6.13-9.87-17.72-12.43-27.41-1.73-6.56,6.08-10.51,12.24-7.48q25.11,12.33,50.39,24.32c15.85,7.51,31.61,15.27,47.8,22,12.89,5.35,26.45,9.07,39.51,14.06,3.3,1.26,8.43,5,8.13,6.93-.74,4.71-3,11.19-6.67,13C1349.38,1623.87,1339.43,1626.06,1325.75,1630.52Z"/><path d="M392.3,1323.21l13.54,6,.75,3.3c-9.13,3.75-18.3,7.39-27.38,11.27-18.34,7.82-36.78,15.44-54.89,23.77-17.49,8.05-35.64,13.64-54.82,13.48-3.87,0-9.08-6.9-11.21-11.71-4.08-9.23-3.13-17.45,6.7-24.33,21.61-15.1,46.59-16.14,71.19-20.09,18.87-3,37.23-9.15,56-12.78,8.82-1.69,18.15-1,27.24-.76,1.43,0,2.8,3.15,4.19,4.83-1.68,1.33-3.22,3.52-5.07,3.82C410.69,1321.32,402.73,1322,392.3,1323.21Z"/></svg>