<svg xmlns="http://www.w3.org/2000/svg" viewBox="0 0 1200 630"><defs><style>.a{fill:#fffae6;stroke:#000;stroke-miterlimit:10;}</style></defs><rect class="a" width="1200" height="630"/><path d="M506.75,179c2.87.36,3.77-1.46,5.5-3.5,3.88-4.58,5.48-10.09,8.31-15,.92-1.62,4.09-3.52,5.31-3,2,.83,3.75,3.27,4.88,5.41,2.12,4,1.33,7.68-1.93,11-1,1.08-1.08,3.13-1.77,5.38,5.36-5.56,10.05-10.79,15.15-15.6,3.6-3.39,7-2.39,8.39,2.37a10.35,10.35,0,0,1-2.1,9.47c-3.57,4.66-6.59,9.73-9.71,14.71-.34.53,0,1.75.45,2.41.17.28,1.62.2,2-.19,4.83-4.84,9.62-9.72,14.28-14.71.82-.88,1-2.35,1.58-3.83.93.4,2.15.51,2.45,1.1,3.35,6.48,6.8,12.93,9.62,19.64.71,1.7-.74,4.3-1.22,6.58,2.25,2.7,7.59,1.21,8.55,6,.7,3.46,1.44,6.91,2.37,11.33,4.43,2.81,5.26,2.67,9.44-1.75a74.35,74.35,0,0,1,6.59-6.21,18.07,18.07,0,0,1,3.92-1.92c.44.33.88.66,1.31,1-.84,2.14-1.41,4.45-2.6,6.38-1.78,2.88-4.13,5.4-6,8.23-2.44,3.69,1.71,4.88,3,7.13s2.77.85,4.36.19c4.7-2,6.78-6.11,8.59-10.3a15.36,15.36,0,0,1,8.12-8.31,47.18,47.18,0,0,1-11.15,23.23c-1,1.09-1.93,3.55-1.38,4.38a10.94,10.94,0,0,0,5.09,3.85c.6.23,2.37-2,3.26-3.29,2.78-4.13,5.65-8.24,8-12.61,3.22-6,5.56-12.46,9.08-18.23,3.77-6.15,4.77-13,6.65-19.69a9.44,9.44,0,0,0,0-2.55c-2.68,3.42-5.13,6.83-7.92,9.94-.73.81-2.48.75-3.79.95-.44.08-1.15-.53-1.41-.35-3.63,2.56-4.94-.83-7-2.55-2.89-2.37-5-4.35-1-7.83,1.25-1.09,1.16-3.85,1.43-5.88.37-2.79.45-5.62.76-8.42.14-1.27.83-2.54.75-3.78a159.68,159.68,0,0,0-2-17.52c-1,1.88-2.39,3.68-2.75,5.68-1.81,10.13-4,20.27-4.6,30.5-.22,4-1.31,5.59-4.25,7s-5.11-.23-5.65-3.63c-1.91-12.07,2.5-23,5.43-34.29.23-.89.18-1.87.47-2.73a73.22,73.22,0,0,1,3.22-8.87c2.41-5,5.64.15,8.45-.44,3.46-4.19,1.63-8-2.12-11.19-2.76-2.35-3.72-4-3.22-8.48.74-6.61,3.88-7.66,8.78-8.48a21.41,21.41,0,0,0,3.66-1.28L627,120l4-3.05c.22,3.88.4,7.12.58,10.36l1.17.12c1-3.5,5.1-4.8,5.38-9.08.21-3.15-.93-6.31-4.18-7.3s-6.77-1.43-9.59-3.1c-5.13-3-9.54-7.08-11-13.28a4.6,4.6,0,0,1,5.68-5.6,53.22,53.22,0,0,1,29.65,18c4.74,5.7,5.27,12.6,1.55,18.36,1.79,2.39,3.61,4.48,7.16,2.9a2.7,2.7,0,0,1,2.49.34c1.39,2.09,3,1.63,5.12,1.5,1.2-.07,3.33,1.84,3.66,3.18.69,2.89.41,6,.67,9a12.83,12.83,0,0,0,1.56,5.44c3.57-10.84,2.2-21.93,2.56-32.66,2.13.14,3.87.34,5.61.36,5.92.07,8.91,3.07,8.9,9a13.52,13.52,0,0,0,.1,3.55c.23.83,1,2,1.72,2.11,3.32.54,6.69.78,10.31,1.15.49-4.14,1-8.84,1.59-13.54l1.56-.58c2.5,2.69,5.91,5,7.27,8.17,1.91,4.45,5,5.11,9,5.36,4.78.32,6.61,2.11,7.5,6.42,1.79,8.71,3.59,17.43,5.79,26,1.45,5.68,3.6,11.18,5.5,17l3.32-2.28,1.11.41c-.5,1.4-1.07,2.78-1.46,4.21a9.18,9.18,0,0,0-.52,3.55c.33,2.16,1.45,4.26,1.48,6.4.05,3.26-3.18,5-6.16,3.73-3.2-1.35-6.9-2.07-6.91-6.76,0-.74-.89-1.58-1.54-2.2-3.61-3.5-7.28-7-11.07-10.55-2.17,4.06-4.55,2.62-7.17-.49-.63-.74-2.32-.57-3.88-.89-1-4.26-2-8.81-3.08-13.31-.52,4.21-1.13,8.33-1.46,12.48-.06.77.88,1.77,1.57,2.43,6.6,6.34,13.09,12.82,19.93,18.89,8.06,7.14,16.2,14.25,24.78,20.73,5.46,4.11,11.8,7.05,18.08,10.1-1.75-15.47-5.44-29.91-13-43.53-2.84,2.28-4.11,1.74-5.75-1.13-3.34-5.84-4.5-12.11-5.65-18.57-1.18-6.67-3.18-13.19-4.67-19.81-.38-1.68-2.28-3.86.61-5.1,2.73-1.16,4,.46,5.1,2.8a39.43,39.43,0,0,0,5,8.47c1.09,1.29,3.73,2.36,5.28,2,4.63-1.18,9.88,2,10.69,6.69.45,2.65,1.68,5.18,2.62,7.74.12.33.61.81.83.76,3.79-.83,4.54,2.58,6.88,5.65.29-2.2.92-3.57.5-4.43-2.59-5.36-5.37-10.63-8.21-15.87a42.65,42.65,0,0,0-4.76-7.63,26.14,26.14,0,0,0-6.5-5.22,7.38,7.38,0,0,1-3.15-9.18c.54-1.36.83-2.83,1.29-4.47a13.17,13.17,0,0,0,2.87,2.37c2.94,1.26,5-.25,5.8-4.36.59-3,.78-5.94,5.15-3.7.61.31,2.55-.46,2.68-1a4.75,4.75,0,0,0-.57-3.59c-2-2.69-4.36-5.14-6.89-8l.71-2.85c4.29.19,7.36,2.3,10.05,5.15,2.17,2.29,4.92,4.26,6.36,6.94a26,26,0,0,1,3.27,10.66,17.27,17.27,0,0,0,3.1,9c5.09,7.81,10.28,15.55,15.39,23.35,7,10.69,9.38,23,12.12,35.17.71,3.16-.06,6.63.22,9.93a87.33,87.33,0,0,0,1.75,11.73c.75,3.31-.79,5.62-2.58,7.87s-8.57.52-10.24-2.53c-2.74-5-5.22-10-4.13-16.1.14-.77-1.05-2.17-2-2.66a30,30,0,0,0-5-1.72c-1.92,8.89-4.07,17.86-5.71,26.93-.59,3.28.25,6.79.11,10.18-.31,7.29-.4,7.29-5.89,11.27l-7.7-3.95c-.32-3.83,2.31-8.3-2.35-11.64,1.26,13.45-5.4,25.21-7.34,38.49,2.63,1.45,9.78-.93,6.57,6.63h-5c.49,6.12,1,12,1.44,17.91.23,2.86.3,5.74.6,8.59.73,6.89,1.55,13.77,2.37,20.64a3.25,3.25,0,0,0,.62,1.44c3.43,4.52,4.37,9.17.53,14.27L766.88,341l-26,18c2.48,1.71,4.1,2.79,5.68,3.92.95.69,2.28,1.27,2.7,2.22,2.09,4.79,4.09,9.64,5.77,14.59a7.84,7.84,0,0,1-.19,5.3c-2.44,5.24-6.29,4.82-10.84-.54a36.22,36.22,0,0,0-7.73-6.95c-3-1.92-3.67,1.3-4.54,3.08a41.42,41.42,0,0,0-1.92,6c8.08,7.26,9.29,12.1,3.72,19.35l-8.47-11c-.85.45-3.19.22-2,3.25.2.53-.86,2-1.64,2.33a2.65,2.65,0,0,1-2.51-.72,37.58,37.58,0,0,1-2.7-6.45,33.59,33.59,0,0,1-.94-4.63l6.06-6.83-.56-.53,4.81-.88c-4.73-3.54-8.09-1.05-11.46.23-4.43,1.68-8.75,3.65-13.2,5.24a3.56,3.56,0,0,1-3.06-1c-6.39-7.61-14-5.74-21.88-3.23-1.23.39-3.1-.33-4.33-1.09s-1.84-2.14-3.24-3.89a74.1,74.1,0,0,1,6.94-5.73c2.55-1.67,5-3.22,8.55-3.39,6.18-.3,11.26-4.43,16.87-6.79,4.42-1.87,9.36-2.48,14.08-3.62,1.39-.34,2.8-.59,4.19-.88-.91-7.67-.73-7.77,7.75-8.29,2.66-.16,5.26-1.16,7.91-1.29a38.48,38.48,0,0,1,6.8.76c.88.12,1.88.7,2.59.43,4.21-1.58,8.41-3.23,12.49-5.12,1.15-.54,4.59-.47,2-3.48-.09-.11.28-.67.5-1,3-4,3.15-6.26.49-10.66-1.22-2-2.79-3.88-3.75-6a61.59,61.59,0,0,1-3-8.7,152.3,152.3,0,0,0-5-16.14c-2.12,4-4.53,7.85-6.3,12-2.42,5.66-4.72,11.32-8.94,16-1.21,1.33-1.23,3.83-4,3.42a20.26,20.26,0,0,0-4.09.23c.18-1.42.36-2.84.54-4.23a26.27,26.27,0,0,0-3.69.29,6,6,0,0,0-3.08,1.26c-2,2.14-3.67,4.62-5.7,6.73a4,4,0,0,1-3.06.74c-2.31-.33-4.6-1.54-6.85-1.42-9.51.49-15.51-5.39-20.87-11.74a12.86,12.86,0,0,1-2.32-9.58c.44-2.33,3.95-4.08,6.1-6.1l1.46.75v6.39l6.4-1.83c0,.2.18-.27,0-.51-3.37-5-6.85-9.93-10.14-15a6.73,6.73,0,0,1-.8-3.6c.08-4.47.22-8.95.58-13.4.15-1.86.92-3.68,1.56-6.1l3,2.49,2.25-2.14c5-.47,9.44-1,13.84-1.24,5.68-.32,11.45-1.06,17-.34,3.83.49,7.5,3,11,4.93,1.85,1,3,1.65,4.72-.18,3-3.26,7.13-2.05,10.83-2,3.37.09,4.2-1.23,3.65-4.31-.89-4.92.16-6.49,4.94-8.27a3.08,3.08,0,0,0,1.76-1.48c1.13-3.23,2.09-6.52,3.08-9.8.23-.75.25-1.57.52-2.3,1.6-4.38,3.24-8.74,4.68-12.61-.86-1-1-1.4-1.19-1.4-11,0-18.86-6.65-27.07-12.6-4.79-3.47-9.73-6.76-14.32-10.49a77.88,77.88,0,0,1-8.05-8.19c-3.18-3.47-6.23-7.05-9.33-10.59-.35-.4-.59-1-1-1.19-.9-.35-2.09-.89-2.78-.56a3,3,0,0,0-.89,2.57c.69,3.79,1.62,7.56-1.14,10.95-.46.56-1.09,1.27-1.72,1.35-1.92.27-7.91-4.06-8.51-6-1-3.39-2.16-6.76-3-10.2a72.38,72.38,0,0,0-2.76-10.34c-1.16,1.85-2.83,3.55-3.36,5.57-2,7.51-3.28,15.21-8.59,21.43a43.07,43.07,0,0,0-5.35,7.95c-2.2,4.22-4,8.67-6,13-1.93,4.14-3.74,8.36-6,12.34-1.75,3.1-3.49,6.14-7,8.12-1.86,1.06-2.45,4.38-3.75,6.95l50,9,0,1.44-11.62,3c-3.89-.72-9.56-1.9-15.28-2.76-1.87-.28-3.88.46-5.82.39-1.76-.05-3.63-1.12-5.23-.76-3.43.75-6.7,3-10.07,3-4.85.13-7.42,2-9.53,6.18-.61,1.22-4.53,2.52-6.43-.5a15.8,15.8,0,0,0-7.48-6.25c-2-.88-3.82-2.74-6.27-3.18a9,9,0,0,0-1.56,0c-.75,6-1.5,11.92-2.22,17.81-.63,5.09-1.05,10.21-1.91,15.25-.94,5.53-2.29,11-3.43,16.49a3.09,3.09,0,0,0,0,1.92,101.71,101.71,0,0,0,5.74,9c.89,1.2,2.58,1.81,3.91,2.69l2.58-4c.2-.32.42-.63,1.06-1.6,1.21,1.91,2.55,3.39,3.14,5.12a35.75,35.75,0,0,1,2.2,9.14c.37,6.12,3.82,10.57,7.55,14.75,5.5,6.14,11,12.09,15.12,19.44,2.51,4.49,7.07,7.81,10.59,11.76,3,3.33,6.21,3.05,10.47,2.91s9.29,2.66,12.72,5.63c2.69,2.34,3.46,6.9,4.86,10L678.89,401c3.25,3.72,6.57,4.77,10.54,4.18,4.36-.64,9,2.41,10.49,6.59,1.41,3.85,2.21,4,5,1.22,1.67-1.67,3.52-3.17,5.36-4.81,4.7,2,9.21,3.86,13.76-.58,1.81-1.77,6.45,1.24,7.18,4.2.26,1,.71,2.77,1.3,2.87,7.19,1.24,8.49,7.47,11,12.66.35.7.59,1.68,1.18,2,5.44,3,4.09,8.15,4.32,12.86a11.42,11.42,0,0,0,.84,4.32c2.92,6.15,1.4,10.74-3.93,15.44-3,2.66-6.13,3.54-9.81,4.19-1.66.3-3.07,2.18-4.53,3.42s-3,2.71-4.68,4.21l-2.47-3.16c-1.3,1-2.51,2-3.74,2.95-4.44,3.42-8.74,7.07-13.41,10.14a9.74,9.74,0,0,1-6.46,1.07c-5.52-1-10,1.25-14.63,3.59-5.49,2.75-11.08,5.71-17,7.1-5,1.18-10.67,1.31-14.72-2.53.84-6.62,1.81-13,2.36-19.43.12-1.38-1.26-2.88-1.94-4.33l-1.11.07c-.93,3.14-1.64,6.37-2.85,9.4-.73,1.81-2.64,3.16-3.29,5-.73,2.07.19,4.72-2.23,6.22,1,1.54,1.62,3.74,3,4.52,9,5,16.38,11.71,21.36,20.48,2.56,4.51,3.32,10.22,4.09,15.5.44,3-4.92,5.38-8.1,3.77-1.48,2.34-2.49,5.85-4.61,6.73s-5.14-1.09-7.42-1.7c-1.45,3.55-2.45,7.49-4.55,10.71a25.37,25.37,0,0,1-7.77,7.6c-3.64,2.22-5.8-1.84-7.77-3.79-1.33-1.32-2-4.55,1.48-6.09a33.38,33.38,0,0,0,6.34-4.35,8,8,0,0,0,1.55-1.81c-1.27-1.32-2.42-2-2.74-2.91-2.51-7.53-5-15.15-10.54-21-2-2.12-5.44-2.89-8.15-4.41a17.19,17.19,0,0,1-2.57-2.21,14.14,14.14,0,0,1,2.32-2.32c4.31-2.64,7.85-1.74,11.08,2,4.11,4.74,8.39,9.32,10.91,15.17,1.17,2.7,2.13,5.5,3.36,8.7.57-.62,1.31-1.54,2.16-2.34,1.51-1.42,3-3.83,4.64-3.94,5.91-.41,6.58-5.86,9.37-9.11.65-.75-.38-4-1.55-5.06a100.28,100.28,0,0,0-11.65-9.41,13.64,13.64,0,0,0-6.18-1.78c-4.62-.49-9-1.81-11.81-5.5-1.63-2.12-2.37-5.19-2.68-7.93-.09-.81,2.94-3,4.07-2.75,5.69,1.43,4.19-2.37,4.38-5.1-4.62-2.75-7.95,1.12-11.75,2-.86.21-1.52,2-1.91,3.25q-2.48,7.61-4.71,15.28c-.87,3-1.6,6.09-2.21,9.17a55,55,0,0,1-9.78,22.88c-1.29,1.7-4.12,2.76-6.38,3.05-2.64.33-3.75-2.75-2-5,2.06-2.66,5.14-4.75,5-8.62a6.23,6.23,0,0,0-1-3.48c-3-3.93-3-10.09-.65-14.47a89.81,89.81,0,0,0,5.26-13.14c.29-.82-.33-2.27-1-3.06-3.56-4.27-3.62-7,0-11.42,3-3.69.11-7.17-.4-10.74a13.31,13.31,0,0,1-.27-4.51c.58-2.68.82-4.69-.69-7.62s-.63-7.54-.39-11.38c.24-3.63,1.21-7.22,1.48-10.86.48-6.38-4.74-9.34-8.33-13.45.16,2.52,1.24,5.43-2.17,6-2.69.48-5.16.59-7.86-2-4.41-4.22-8.89-8.74-14.89-11a15.24,15.24,0,0,1-3.06-2.27,7.64,7.64,0,0,0-1.42,1.94c-2.06,6.48-6.81,7.61-12.6,4-5.4-3.41-8.8-7.71-10-13.88-.14-.75-.66-1.68-.39-2.22,2-4.12-.57-6.81-2.76-9.67-4.75-6.21-5.78-12.82-2.44-20.08,3-6.63,5-14,9.09-19.84,3.07-4.35,3.28-8,2.58-12.56-.19-1.25,1-2.71,1.6-4.07,1.11.71,2.21,1.44,3.33,2.14.31.19.68.3,1.78.77a13.78,13.78,0,0,0-5.66-9.92c-2.73,1.55-4.85,3.51-8.65,1.64s-6.53,1.12-7.24,5.62c-1.5,9.61-3.68,19.08-13.38,24.19a29,29,0,0,1-6.17,2.12c-2.47.64-3.1,2.09-2.55,4.44,1.72,7.34,3.31,14.72,5.1,22,1,4.19-1.19,6.08-6.52,5.36-.39-3.37-.58-6.77-1.2-10.1-1.13-6.12-2.38-12.22-3.86-18.26-.34-1.42-1.89-2.5-2.68-3.86-.9-1.56-2.6-3.69-2.13-4.78.83-1.92,2.86-3.11,5.6-1.81a7.24,7.24,0,0,0,5.28.09,55,55,0,0,0,9.18-5.17c1.27-.86,2-2.51,3.58-4.59l-21.38-7.05-.36,1.09a13,13,0,0,0,10.16,4.74c2.53,0,2.64,1.56,1.34,3.45a5.87,5.87,0,0,1-7.48,2.41,63.16,63.16,0,0,1-23.45-15.32c-3.77-4-6.66-8.85-10.47-13.29.85,3.54,1.94,7,2.48,10.62.76,5.06.83,10.23,1.68,15.26,1,5.62-1.42,10.37-2.86,15.47s-2,10.29-2.9,15.45c-.69,3.78-.81,7.57-2.24,11.33-1.91,5-2.43,10.49-3.85,15.69-.86,3.19.49,4.83,2.94,6.44a43.49,43.49,0,0,1,5.6,4.84c1.13,1.07,2,2.43,3.19,3.44,3.19,2.73,3.1,3.9-.41,6.18-2.43,1.57-4.66,3.44-7.06,5.06a4.81,4.81,0,0,1-2.16.29c-3.7.25-6.49,4-5.5,7.31,3.51,11.69,7,23.38,10.45,35.09,2,6.67,5,13.31,5.34,20.07.4,7.53,4.49,13.39,6.18,20.22,1.25,5,5.69,6.9,9.54,9.36,1.89,1.2,4.62,2.32,5.2,4.06,1.41,4.25,1.85,8.84,2.55,13.32.1.63-.56,1.38-.87,2.1-5.29-.64-7.63-4.74-10.49-8.15-2.4-2.87-4.84-5.55-3.24-10.05.5-1.41-1.29-3.85-2.39-5.59-2.95-4.62-6-9.2-9.19-13.65-9.05-12.54-12.68-27-15.85-41.83-1.46-6.79-5.13-13.11-7.74-19.67a8.38,8.38,0,0,1-.82-3.68c.32-3.19-1.59-4.84-3.88-6.3-.51-.32-1.6-.61-1.81-.38-2.3,2.64-7,3-7.19,7.59,0,1.37.11,3.66.85,4,4.18,1.81,4.34,5.61,5.76,9.09,1.08,2.65.28,3.95-1,5.5-2.76,3.34-4.67,2.7-7.78-.34a24.21,24.21,0,0,1-7.36-15.48,5.14,5.14,0,0,0-.45-1.51c-.09-.21-.38-.34-.58-.51-4.27-.57-6.52,6.54-12.52,2.5,3.41-3.07,6.53-5.94,9.73-8.72,6.27-5.44,12.64-10.77,18.83-16.31.77-.69.71-2.37.9-3.61.09-.62-.36-1.36-.17-1.91,1.85-5.39.21-10.24-2.44-15.4l9.37-4.82,6.8,10.09,1.26.07c1-5,2-9.93,3.1-14.89.21-1,.52-2,.76-3a26.64,26.64,0,0,0,1-4.6c.26-4.83,1-9.75.32-14.48-1-7.14,1.4-13.88,1.49-20.77.08-6.08-1.87-12.16-2.49-18.28-.53-5.26-.51-10.58-.55-15.87,0-.64,1.17-1.9,1.61-1.81a4.24,4.24,0,0,1,2.79,1.64,53.48,53.48,0,0,1,2.45,6.59l5.57-.54c0-.61.16-1.14,0-1.34-5.1-5.46-9.93-11.22-15.46-16.2-3.5-3.15-3.54-7.33-4.95-11.08-.34-.89,1.63-2.64,3.06-4.78,1.87,2.72,3.28,4.79,5.12,7.48,1.34-1.32,2.6-2.62,3.93-3.84.63-.58,1.38-1.36,2.13-1.43,3.53-.33,3.81-2.74,3.64-5.4a21.66,21.66,0,0,0-.81-5.48c-.59-1.75-.4-4.11-3.56-4.36-1-.07-2.25-3.09-2.44-4.86-.39-3.62-1.18-5.7-5.58-4.88-3.53.66-8.36-3.26-10.08-7.65-1.27-3.26-2.25-6.64-3.23-9.57-1.84.37-4.35,1.61-5.25.88-1.37-1.13-2.13-3.58-2.27-5.53-.28-3.69.16-7.43.14-11.15,0-10.91-.61-21.83-.09-32.71a136.47,136.47,0,0,1,3.46-26.37c2.1-8.44,5.66-16.58,9.24-24.55,2.23-5,5.68-9.41,8.6-14.07,1.2-1.91,2.65-3.68,3.65-5.68,1.5-3,3.62-2.94,6.71-1.48q-6.33,11.81-12.62,23.59l1.56.9c1.34-2.31,2.65-4.65,4-6.93,3.82-6.26,7.82-12.42,11.47-18.78a28.75,28.75,0,0,1,9.14-9.6c5.58-3.79,7.7-10.13,9.94-15.9,2.74-7.08,7.14-12.65,11.94-18.29A154.87,154.87,0,0,1,531.13,56c3.26-2.57,7.17-4.3,10.73-6.5,2.92-1.8,5.57-4.13,8.67-5.5A90.9,90.9,0,0,1,564,39.43c.86-.23,2.22,1.43,3.58,1.76,1.42.75,2.9,1.41,4.24,2.28.83.54,1.38,1.93,2.17,2,4.1.52,4.28,3,3.83,6.32-.27,2-.63,4.13,2.2,5.17s4.71-.47,6.42-2.15a29,29,0,0,1,10.37-6.68c2.39-.9,4.77-1.82,7.15-2.73l-.21-1.15c-2.64.13-5.31,0-7.91.44-2.42.36-4.24.51-5.52-2.27-.44-1-2.72-1.06-4.13-1.61-2-.76-4.25-1.23-5.78-2.54-.59-.51.38-3,.86-4.52a2.07,2.07,0,0,1,1.54-1.05c11.9-.86,23.72-2.46,35.7.09,7.29,1.56,14.92,1.43,22.35,2.43,2.4.32,4.56,2.16,7,2.69,11.13,2.43,20.52,9.4,31.62,11.9a11.66,11.66,0,0,1,5.13,2.58c3.38,3.15-1,3.15-2.45,4.95a18,18,0,0,1,3.54,1.13c3.55,2,7,4.16,10.51,6.26a.57.57,0,0,1,.24.29c.37,1.59.29,4.22,1.17,4.59,3,1.3,6.4,1.81,9.65,2.62l.68-1.09c-1.79-2.49-4-4.79-5.24-7.53a11.67,11.67,0,0,1-.62-7.14c.44-1.69,2.61-2.19,4.66-.87,9.77,6.3,18.91,13.14,26.47,22.25,6.54,7.89,10.81,16.71,14.41,26.06,1.07,2.75-.69,9.25-3,11-1.88,1.43-4.33.44-5.3-2-2.54-6.5-4.73-13.18-7.86-19.38-1.69-3.36-4.94-6-7.62-8.77-1.5-1.59-2.77-.87-2.94,1-.35,4-2.68,4-5.86,3.7Q701.6,88.46,688.1,88c-6.36-.23-10.36-3.27-10.13-9.15.12-3.06,1.84-6,3.18-10.1-4.76.86-9.14,1.74-13.56,2.41-2.29.35-4.65.2-7,.49-10.23,1.26-19.41,6.05-29.21,8.75-3.38.93-6.93,1.22-10.36,2A48.72,48.72,0,0,0,615.93,84c-1.53-2.91-2.56-5-3.68-7-1-1.84,1.23-6.74,4.37-8.24,3.63-1.74,7.72-2.56,11.22-4.5a81.75,81.75,0,0,0,14-10.07c-3.46,0-7-.37-10.37.07-7.2,1-14.5,1.77-21.46,3.71-4.52,1.25-8.5,4.39-12.75,6.65-2.53,1.35-3.13,3.35-2.11,5.92,1.15,2.88,1,5.38-3,7.76l-9.45-10.53c-3.25,1.12-7.3,1.83-10.58,3.83s-5.92,5.38-8.89,8.1c-3.85,3.54-7.77,7-11.65,10.52L537.66,103l5.08,3.19c-5.09,1.34-5.67,5-5.9,8.87l.14-.14c-2.41,0-4.89-.36-7.19.14-2.49.55-3.71-.31-4.7-2.31-2.4-4.84-1.11-9.55,1.4-13.62,3.73-6,7.18-12.51,13.67-16.32a3.12,3.12,0,0,0,1.16-1.06c2.21-4.17,4.37-8.37,6.32-13q-8.48,8.2-16.94,16.43c-.45.44-1.14,1.19-1,1.57,1.59,4.82-2.55,5.61-5.16,7.4-1.33.91-2.21,1.34-2.65,3.51s-3.69,4.42-6.19,5.59c-2.28,1.07-5.67,3.35-7.62-2.53-4.31,7.08-8.06,13.22-12.21,20l13-1.09c1.41,1.83,4.42,4.38,5.46,7.57.6,1.82-1.63,5-3.26,7-2.73,3.36-6.55,5.91-8.92,9.46-3.53,5.31-6.31,11.14-9.21,16.86a40.85,40.85,0,0,0-2.05,6.46l1.56.95c2.09-2.46,4.36-4.79,6.23-7.4,2.92-4.07,5.61-8.31,8.32-12.53.92-1.42,1.43-3.12,2.47-4.43a14.36,14.36,0,0,1,3.19-2.34c.32,1,1,2.1.89,3.1-.26,2.45,1.89,4.26.84,7.18-2.83,7.87-4.89,16-7.18,24.07a17.9,17.9,0,0,0-.32,3.53,12.42,12.42,0,0,0-2.5,2.27c-1.89,3-3.54,6.09-5.39,9.09-2.06,3.33-4.23,6.6-6.42,10h-3.33l.32-.91c-1.53-.74-3.15-2.2-4.56-2a8.11,8.11,0,0,0-4.69,2.91c-1.17,1.45-1.54,3.54-2.37,5.61,5.23,3.8,4.87,9.8,4.52,15.48-.46,7.36-1.67,14.67-2.38,22a31.55,31.55,0,0,0,.45,5.78,133.36,133.36,0,0,1,16.33-30.87c1.51.8,2.62,1.51,3.81,2,4.71,1.92,6.38,4.79,5.69,9.82a5.07,5.07,0,0,0,.1,2.3c1.78,5-.35,9.4-1.78,13.93q-1.76,5.61-3.52,11.2A159.56,159.56,0,0,0,516.63,246a21.65,21.65,0,0,0,4.31-5,36.49,36.49,0,0,0,2.42-6l3.85,2.44-.15-1.19,7.17-2.62,1.46-6.81.8,2.95c1.18-2.06,2.21-4.4,1.53-6-2.38-5.72-6.79-10.54-7.57-17,0-.15-.41-.25-1.32-.77-2.54,4-5.47,7.8-7.54,12-1.1,2.24-1.51,4.67-4.48,4.45-2.06-.15-5.19-.34-5.9-1.61-2.34-4.16-6.28-4.6-10.16-5.7-.25-3.81-.7-7.6-.66-11.39a19.49,19.49,0,0,1,1.25-7.34C504.05,190.77,506.81,185.32,506.75,179ZM610.27,346.07a9.28,9.28,0,0,0-.92,9,10.57,10.57,0,0,1,1.17,3.29c.27,10.73.6,21.46.46,32.19a8.6,8.6,0,0,0,1.58,5.07c1.79,3,2.91,6.5,1,10.14-1.48,2.81-1.53,5.27,2.52,6.52.27-4,.68-7.68.76-11.41.22-10-3.75-19.62-2.06-29.68.08-.47-.31-1-.38-1.52-.29-2.07-.66-4.14-.79-6.22-.31-4.86-.5-9.73-.74-14.6-.08-1.71-.3-3.3-2.7-2.67-.08-2.11.88-4.61-2-5.8C606.37,343.84,607,345.46,610.27,346.07Zm-21.68-95c1.57,4.52,6.1,7.72,5.14,13.37l1.37.2,6.77-9-.32-1.56-13.06-2.88c-3.67-2-7.26-4.14-11.06-5.83-1.27-.57-3.16-.25-4.6.2-1.63.51-3.08,1.62-5.06,2.72a61.77,61.77,0,0,0,2.07,8.54c1.33,3.52,3.57,6.71,4.92,10.22s1.73,7-.55,10.44a8.91,8.91,0,0,0-1.63,4.2c-.2,4.75-.07,9.52-.07,14.6l3.26-.77c.28,2.63.53,5,.78,7.46a1.94,1.94,0,0,0,1.06-1.58c.73-8.77,1.48-17.53,2.13-26.31.26-3.5.32-7,.41-10.52.07-2.67.06-5.35,0-8,0-4.4,4-3.25,6.21-4.61A15.07,15.07,0,0,1,588.59,251.05ZM692.8,275.38c-.38,2-1.2,4-1,5.79.55,5.23,1,10.56,2.45,15.56a106.22,106.22,0,0,0,6.6,15.9,6.79,6.79,0,0,0,3.92,2.88c4,1.23,8.14,2.12,12.24,3,2.51.55,4.75.48,6.69-1.89a50.91,50.91,0,0,1,8.07-8.2,7.61,7.61,0,0,0,3.35-5c.52-2.94,1.59-5.79,2-8.73.41-3.1.28-6.26-3.27-7.93-3.22,5.11-6.33,9.7-13.33,7.42-.76-.25-2,.77-2.93,1.28s-2.1,1.8-2.83,1.59c-3.29-.93-6.46-2.27-9.69-3.47,0-2.91-.06-5.9,0-8.88,0-1.26.09-3.33.74-3.6,1.51-.63,3.78-1.12,5-.41,4.71,2.67,9.44,1.38,14.31.59-3-1.44-6.2-2-9.32-2.74-3.86-.92-7.68-2.22-11.31.64-.13.1-.49,0-.72-.11Zm-158.14-29.8c.64,2.77,1,5.64,2,8.23,1.59,4,4,7.63,5.49,11.63,2.55,6.88,4.54,14,7,20.89.9,2.53,1.65,6.36,5.92,3.18.29-.22,1.09.29,1.66.42,2.78.63,9-3.19,9.75-5.95a2.83,2.83,0,0,0,.19-1.54c-1.44-3.5-2.47-7.3-4.55-10.38-5-7.45-8.29-15.66-10.85-24.12a23.32,23.32,0,0,1-.4-10.42c.82-4.75,2.61-9.34,4.11-14.42-2.84.65-5.51,1.87-8.12,1.73-3.93-.22-4.13,2.29-4.05,4.71a24.17,24.17,0,0,0,1.52,8c1.09,2.79,3.35,5.14,4.31,7.95.46,1.37-.9,3.35-1.44,5.06-1.5-.48-3.83-.53-4.35-1.52C541,245.63,538.51,244.77,534.66,245.58Zm13.28,131.67c.8,1.39,1.53,2.65,2.25,3.92.72-.47,1.75-.78,2.09-1.44,4.43-8.58,8.76-17.21,13.12-25.83a17.64,17.64,0,0,1,1.59-3.09c1.39-1.78,2.06-3.31-.13-5-1.91-1.49-3-1.32-5.39,0-2.83,1.56-3.06,3.58-3.85,6-1,3.16-2.66,6.12-3.83,9.24C551.8,366.25,550,371.58,547.94,377.25Zm103.11,12.64.83-.31c-1.47-2.3-2.85-4.66-4.46-6.86a9.6,9.6,0,0,0-2.59-1.76c-.36,1-1.1,2-1,2.91.38,3.36,1.17,6.66,1.57,10,1.63,13.56,3.16,27.13,4.73,40.69l1.81-.09c0-2.27.09-4.55,0-6.81-.24-5.36-1.57-10.91-.58-16s-.17-9.62-.29-14.41C651,394.79,651.05,392.34,651.05,389.89Zm11.23,95.67c4.91-1.24,9.09-2.13,13.15-3.44,1-.31,2.22-2.21,2-3.05-.55-2.2.11-5.4-3.38-6-4.24-.7-8.5-1.35-13.67-2.16C661,475.52,661.58,480.18,662.28,485.56ZM567,316a6.43,6.43,0,0,1,1-2.65c3.58-4.29,4.61-8.32-.15-11.61l-15.38,2.06c1,5,1.89,5.72,7.36,7.8C562.25,312.53,564.38,314.36,567,316ZM708,417.1c2.93,4.52-3,5.89-4.78,9.92,2.2.63,4.15,1.25,6.14,1.73,5.15,1.25,6.92,4,5.68,9-1.19,4.79,0,6.63,5.28,8,1.83-8.41-4.71-14.91-5.39-22.86C714.74,420.76,710.42,419,708,417.1Zm-43.35-5.26c6.72-.73,11.9,1.29,16.44,6.28.77-5.89,4.12-1.26,6.31-1.9.51-2.48-.49-3.5-2.7-4.44-6.55-2.79-14.32-2.87-19.59-8.6-.15-.17-.73.06-1.56.17C663.9,406.18,664.27,409,664.64,411.84ZM503.06,316.73c2.44-6,5-10.79,4.29-16.44-.16-1.24-1.28-2.36-2-3.54-.87,1-2.17,1.95-2.51,3.14a46.71,46.71,0,0,0-1.05,6.62l-6.37,1.69ZM594.73,331a35.88,35.88,0,0,0-6.82,20.83C596.66,346.45,598.89,339.58,594.73,331Zm-28.46-93.16c2.82-3.34,5.23-6,7.36-8.88.46-.62.2-2.71-.27-2.92a62,62,0,0,0-7.8-2.72c-2.71-.81-3.32,1-3.91,3.33l3,.53Zm23.05,73.52c-2.31-.37-4.38-.64-6.42-1.05s-3,.13-2.85,2.37c.16,1.92.1,3.86.25,5.78.2,2.59,1.44,3.28,4,2.46C588.78,319.47,590.2,317,589.32,311.35ZM460.68,425.19l1.48.56c2.48-1.62,5-3.15,7.41-4.9a11.26,11.26,0,0,0,2-2.79c-1.1-.77-2.29-2.27-3.3-2.17-2.45.25-5.65.56-7,2.16S460.82,422.74,460.68,425.19Zm103.88-44.45c-1.26,4.41-2.26,8-3.34,11.73l3.38,1.66c.28-1.78.5-3.15.77-4.9,1.25,2.8,2.25,5,3.26,7.28l1.07-.17c0-3.37.47-6.84-.19-10.07C569.16,384.54,566.87,383.2,564.56,380.74Zm169,70,7.09-.95-7.91-12.74-1.12.35C732.25,441.92,732.9,446.4,733.54,450.78ZM462.62,183.84c-6.4,6.6,1.9,10,2,15,0,.46,1.21.89,2.71,1.91C466.43,194.24,465.68,188.86,462.62,183.84Zm255-29.66c-3.91,3.91-2.36,8.2,4.89,14.84C720.8,163.76,719.32,159.27,717.65,154.18ZM635.84,465.79c-.26-2.81-1.22-3.9-3.87-3.57-2.86.36-5,1.53-5.9,4.24-.1.3,1.47,1.77,2,1.65C630.64,467.57,633.08,466.66,635.84,465.79Zm-7.1-87.66,1.34-.44c-.34-5-.74-10-4-14l-1.29.38Zm-56.92-39c4.1-3.69,4.1-3.74.29-7.81C568.93,333.33,568.88,334.07,571.82,339.09Zm-9.73,67.52,2.43-2.72c-1.5-1.31-3-2.67-4.58-3.83a7.12,7.12,0,0,0-1.8,1.79C559.19,403.35,560.46,404.72,562.09,406.61Zm22-2.93,1.34-.37c-.18-5.29-2.13-10.41-4.44-10.49ZM534.24,275.31l-1.24-.19c-3.2,4-3.5,6.49-.34,8.62C533.22,280.73,533.73,278,534.24,275.31Zm-11.17,46.75c-4-5.42-4.71-5.51-8.91-1.55ZM538,306.69l.42,1.52L544,306.8l-4.29-4.57ZM640.64,445.22c-3,1.78-3,3.87-1.09,6.51C642.54,449.89,643.38,448,640.64,445.22ZM490.53,278.34c3.56-.42,3.81-2.43,3-5.43C490.78,274,488.59,274.9,490.53,278.34Zm67.76-63.69.73.87,4.28-.37c-.3-1.62-.53-2.92-.95-5.2Zm204-28.4.88-1.06c-.39-2.63-1.78-4-5.85-3.25Z"/><path d="M395.69,357.19c-2.46.7-4.33,1.2-6.17,1.76s-3.94,1.29-5.66,1.85c-.49,2-.38,4.41-1.51,5.44s-4.13,2-5.46,1.36a27.47,27.47,0,0,1-8.26-6.28c-6.06-7-5.74-15.7-6-24.23-.05-1.65-.43-3.3-.62-4.95a9.34,9.34,0,0,1-.15-3.1c2-7.83,4.08-15.63,6.08-23.46a3.68,3.68,0,0,0-.09-2.65c-5-7.07-1.92-13.53,1.55-19.83,1-1.77,2.9-3,4.24-4.58,1.58-1.88,3.57-3.69,4.36-5.9,1.47-4.11,4.21-5.26,8.13-5.05a7.61,7.61,0,0,0,3.45-.34c4.77-2.24,9.41-4.75,14.18-7,5.2-2.43,10.46-4.75,15.77-6.92s10.91-4.45,16.52-6.15a7.25,7.25,0,0,1,5.81,1.27c1.59,1.31,1.83,3.51-.54,5.33a60.38,60.38,0,0,0-8.63,8.42L441,259c1.39,4.8,2.84,9.86,4.3,14.92l1.67.32c1.05-2.21,1.68-4.82,3.27-6.54s4.23-2.82,6.44-4.1,3.88-.86,5.16,1.76l-4.13,2,.72.62c-1,1.54-1.93,3.08-2.91,4.61-1.52,2.39-5.46,4.71,0,7.25.6.28,1,2.78.6,3.06-1.15.85-2.84,1.7-4.13,1.47-4.56-.8-8.79-2.46-10.92-7.11-1.23-2.66-2.8-2.22-4.67-.69-1.61,1.31-3.34,2.48-5.11,3.79,1.8,1.62,3,2.81,4.28,3.83,2.52,2,5.07,3.53,8.26,1,.86-.68,2.28-.67,3.65-.5-2.49,2.61-4.93,4.47-5.74,8.41-.58,2.78-4.33,4.78-6.24,7.43-4.75,6.6-9.56,13.19-13.71,20.16-1.89,3.17-2.17,7.28-3.4,10.89-1,2.86-2.32,5.59-3.46,8.4-3.28,8-6.71,16-9.69,24.12-.9,2.47-2,4.7-4.48,4.49-4.47-.4-6.79-3.85-5.93-7.66C395.09,359.85,395.31,358.84,395.69,357.19Zm2.93-81.3c-4,2-7.42,3.58-10.74,5.4-4.49,2.46-4.57,6.42-.39,9.58a2.73,2.73,0,0,1,1.06,1.83c-.07,4.95-.37,9.91-.36,14.87,0,2.31-.32,5.75,1,6.71,3,2.22,3.95,4.86,4.26,8.17a3.18,3.18,0,0,0,.61,1.82c3.67,3.91,7.41,7.76,11.8,12.34l16-28.39a10.69,10.69,0,0,0-4.54,1.85c-4.45,2.76-10.87.95-11-3.53-.12-4-2.35-6.47-4.05-9.45-.88-1.56-2.4-2.93-2.74-4.57-1-4.64-5.83-9.2-.64-14.17C399.16,278.09,398.78,277.14,398.62,275.89Z"/><path d="M536.84,115c5.06-5,10.1-10,15.19-14.88s9.86-9.7,15-14.31c4.36-3.91,9-7.46,13.7-11.26,2.33,1.84,4.65,2.93,5.82,4.76,1.73,2.68-.36,7.85-3.31,9.57a19.18,19.18,0,0,0-2.83,1.42,22.67,22.67,0,0,0-2.5,2.83,13.17,13.17,0,0,0,3.09,2c3.44,1.07,4.21,3.26,1.89,6.27-1.36,1.76-3,3.29-4.27,5.13-.62.93-.58,2.3-.84,3.48l1.38.32c.41-.74.83-1.47,1.22-2.23s.67-1.38,1.19-2.47l6.57,2.92c.2,6.51-3.64,10.66-6.94,15.17-4.49,6.12-8.69,12.45-13,18.7a10.91,10.91,0,0,0-.87,1.3c-.51,1-1,2.09-1.45,3.13,1.3-.18,3.12.11,3.81-.63,6.29-6.73,12.39-13.62,18.48-20.51.47-.54.41-1.51.72-2.22,1.11-2.58,2.66-3.91,5.41-1.86a3.79,3.79,0,0,0,1.92.83c4.21.22,5.89,2.52,4.52,6.37a17.65,17.65,0,0,1-1.33,3.3c-1.55,2.57-3.25,4.79,1.64,5.87.78.18,1.4,4.17,1,6.16-2,9.38-9,16-13.79,23.76-1.5,2.42-2.4,4.07,0,5.4-.26,2.3-.45,4.08-.66,5.92a32.74,32.74,0,0,1-4.16,4.69c-3.37,2.66-4.9,1.81-6.64-2.11-2.36-5.33-3.65-10.62-1.49-16.55-3.22,0-6.72,1-8.54-.28s-2.32-5-4-9.11c-2,2.6-3.58,5.05-5.62,7a4.82,4.82,0,0,1-4.16.93c-1.1-.4-2.14-2.11-2.43-3.41-1.2-5.49-.62-10.77,3.22-15.43l-.89-.78c-.7.43-1.43.83-2.11,1.3-1.47,1-2.88,2.89-4.37,2.94-1.09,0-2.7-2.07-3.29-3.54-.81-2-.86-4.31-1.4-7.51a76,76,0,0,0-7.8,3.53c-2.72,1.61-6.19,0-5.88-3.62a52.22,52.22,0,0,1,3.41-13.92c1.19-3.11,3.66-5.72,5.56-8.55Zm16.46,27.48,1.63.36c1.22-1.84,2.35-3.75,3.68-5.51,5-6.67,9.84-13.55,15.34-19.82,2.89-3.28,3.89-4.74,2-8.42-2.59,2.24-5.76,4.25-7.93,7a190.89,190.89,0,0,0-12.29,17.72C554.27,136.32,554.08,139.59,553.3,142.49ZM541.05,127l1.11,1.23c4.6-3,9.94-4.89,13.08-10,2.89-4.73,6.18-9.22,9.29-13.81l-1.47-1.13Q552.05,115.09,541.05,127Z"/><path d="M580.54,552.6c-.89-5.49,3.16-6.53,6.43-8,2.22-1,3.24.76,3.16,2.72-.1,2.45.43,3.87,3.16,4.51,2.5.58,2.71,3.3.42,4.66-1.51.9-3.35,1.23-5.43,1.94-1.66,3.45,4.43,9.11-2.54,11a51.47,51.47,0,0,1-5.4.24c-1.93-.09-4.18.06-5.7-.86-7.51-4.55-14.89-9.33-22.19-14.21-2.24-1.5-3.91-1.76-5.83.84,1.68,4.82,4.09,9.66,4.94,14.77.92,5.54.16,11.33.57,17,.31,4.4-.88,8.58-1.35,12.84-.22,2-2.06,3.82-3.07,5.56-4.39,0-5.49-3.2-6.73-6s-3.27-5.07-2.35-9c1.11-4.75.82-9.95.45-14.9-.19-2.56-2.09-4.95-2.78-7.54a34,34,0,0,1-1.47-9.22c0-1.72,1.41-3.75,2.76-5,3.31-3.21,5.66-5.38-.19-9.18-7.2-4.68-13.73-10.4-20.5-15.75-5.72-4.52-11.57-8.9-16.95-13.8A83.53,83.53,0,0,1,489.8,503.6c-1.06-1.39-1.39-3.78,1.47-4.78.86-.3,1.25-1.73,2.05-2.42,1.29-1.13,2.65-2.61,4.17-2.89,1-.18,2.7,1.26,3.44,2.4,3.3,5,6,10.47,10.74,14.36,4.12,3.36,8.34,6.61,12.53,9.89.41.31,1.17.32,1.4.7,2.85,4.81,7.71,7.13,12.17,10,7.33,4.66,14.6,9.41,21.88,14.15,3.49,2.28,7.05,4.46,10.36,7,1.55,1.18,2.35,2.38,4.58.81C575.81,551.9,578.12,552.6,580.54,552.6Z"/><path d="M689.68,235.61c4-4.45,5.12-4.61,9.74-1.63a5.18,5.18,0,0,0,1.87.51c3.54.64,7.4,2.45,10.54,1.6,5.48-1.47,10.55-.1,15.67.56,5.63.72,11.12,2.58,16.64,4.07.53.14,1.3,1.37,1.14,1.7a3.47,3.47,0,0,1-1.91,1.71c-3.39.86-6.84,1.53-10.52,2.32.51,3.41,3.4,4.3,6,5.15s5.19,1.42,4.29,4.69c-1.2,4.4-3.7,5.37-7.63,3.63-4.43-2-8.51-3.92-11.09-8.77s-6.74-4.23-11.16-.68c-5.73,4.59-11.83,9.29-20,7.74-1.44-.27-2.63-1.79-3.94-2.73,1.12-1,2.09-2.4,3.4-2.84,4.57-1.57,5.82-5.81,2.42-9.19-1.18-1.18-2.79-2-3.75-3.3S690.28,237.28,689.68,235.61Z"/><path d="M720.75,116.53C713,115,706,113.9,699.29,112.13c-5.78-1.52-11.31-4-17-5.77-2.27-.71-2.83-2-2.63-4.07s.07-4.21.45-6.25a2.9,2.9,0,0,1,2-1.89,43.42,43.42,0,0,1,9.27.38c7.91,1.52,15.69,3.79,23.63,5,5.13.77,8.42,3.5,10.87,7.45.92,1.47,1.28,4.36.43,5.61C725.06,114.42,722.5,115.37,720.75,116.53Z"/><path d="M720,535c-5.55-2-12.35-3.7-18.41-6.84a82.84,82.84,0,0,1-16.54-11.7c-2.27-2-3.24-5.82-4.08-9-.57-2.15,2-3.44,4-2.45q8.24,4.05,16.53,8c5.2,2.46,10.37,5,15.68,7.22,4.24,1.75,8.69,3,13,4.61,1.08.41,2.77,1.65,2.67,2.27-.24,1.55-1,3.67-2.19,4.28C727.76,532.83,724.5,533.55,720,535Z"/><path d="M413.72,434.18l4.45,2,.24,1.09c-3,1.23-6,2.42-9,3.69-6,2.57-12.07,5.07-18,7.81-5.74,2.64-11.7,4.47-18,4.42-1.27,0-3-2.27-3.68-3.85-1.34-3-1-5.72,2.2-8,7.09-4.95,15.29-5.29,23.36-6.59,6.19-1,12.21-3,18.38-4.19a42.3,42.3,0,0,1,8.94-.25c.47,0,.92,1,1.38,1.58-.55.44-1.06,1.16-1.67,1.25C419.76,433.56,417.14,433.79,413.72,434.18Z"/></svg>