<svg xmlns="http://www.w3.org/2000/svg" viewBox="0 0 1920 1920"><defs><style>.cls-1{fill:#fffae6;}</style></defs><g id="BG_Reference" data-name="BG Reference"><circle class="cls-1" cx="960" cy="960" r="960"/></g><g id="Image"><path d="M675.82187,545.51662c8.74129,1.09688,11.4875-4.4557,16.74853-10.66434,11.81342-13.94154,16.71574-30.73614,25.33819-45.84436,2.80167-4.90908,12.45986-10.72232,16.17209-9.21247,6.23193,2.53472,11.41815,9.96551,14.88016,16.48563,6.45976,12.16607,4.05218,23.40995-5.88267,33.6523-3.17848,3.2769-3.29008,9.52942-5.41694,16.39655,16.34809-16.966,30.64833-32.90486,46.17287-47.54515,10.98019-10.3547,21.48216-7.29208,25.57711,7.2222,2.83247,10.0396.605,19.66592-6.40852,28.84168-10.85042,14.19555-20.08084,29.64857-29.5866,44.82622-1.02776,1.64082.10045,5.33882,1.36971,7.3689.5175.82749,4.93312.60509,6.12447-.58826,14.72-14.74451,29.329-29.61008,43.54335-44.83944,2.48343-2.6608,3.01548-7.14346,4.79568-11.66615,2.84812,1.2045,6.55548,1.55838,7.48043,3.34951,10.19755,19.74628,20.73011,39.394,29.31009,59.84949,2.17222,5.17861-2.25493,13.12586-3.70484,20.06405,6.83657,8.22018,23.13127,3.68774,26.05487,18.24087,2.11978,10.55236,4.38948,21.07458,7.20836,34.55668,13.49295,8.5395,16.026,8.13524,28.76165-5.33305a229.22615,229.22615,0,0,1,20.09259-18.943c3.3174-2.75217,7.92253-3.95158,11.94406-5.85468q2.0056,1.52223,4.01134,3.04445c-2.58077,6.52751-4.31,13.58138-7.94217,19.459-5.42064,8.77172-12.57287,16.45594-18.277,25.0738-7.44381,11.24639,5.21871,14.86306,9.11484,21.74409,3.92389,6.93,8.43951,2.56788,13.28245.56262,14.32174-5.93,20.65936-18.62887,26.17467-31.37241,5.06022-11.69178,12.69531-19.75183,24.76124-25.33846-5.22994,27.24711-16.00164,50.63319-34.001,70.78278-2.97206,3.327-5.86022,10.81834-4.18933,13.3501,3.44354,5.2182,9.57362,9.48688,15.51139,11.74231,1.82672.69388,7.23155-6.00433,9.93684-10.0308,8.46152-12.594,17.19985-25.10682,24.37631-38.43448,9.80612-18.21161,16.93013-37.96632,27.68218-55.54315,11.47745-18.76278,14.53843-39.68447,20.25921-60.00232.68316-2.42636.09276-5.2114.09276-7.77655-8.1596,10.42414-15.651,20.81643-24.15607,30.29932-2.20766,2.46129-7.555,2.26865-11.52324,2.8982-1.36646.21664-3.52818-1.63158-4.3041-1.08484-11.07214,7.80129-15.06472-2.54048-21.43349-7.77175-8.79845-7.22715-15.14419-13.25822-3.03883-23.85926,3.79716-3.32543,3.51371-11.74046,4.33926-17.92724,1.13426-8.502,1.3929-17.11724,2.33691-25.64964.43-3.88688,2.52715-7.75166,2.28122-11.52294a484.8098,484.8098,0,0,0-6.13378-53.40552c-2.87885,5.75378-7.29462,11.23346-8.37762,17.30752-5.50631,30.88254-12.308,61.80054-14.01849,92.96088-.67252,12.25064-3.97973,17.0518-12.95277,21.44664-9.28663,4.54854-15.56678-.68812-17.20473-11.03639-5.82255-36.78738,7.59654-70.24091,16.53738-104.52482.70693-2.71132.54637-5.67741,1.43174-8.30874,3.05965-9.09317,5.64707-18.45714,9.80627-27.04361,7.34794-15.16923,17.18449.45567,25.76-1.34447,10.53506-12.7589,4.96642-24.33354-6.46952-34.08314-8.40525-7.16577-11.31852-12.16947-9.80095-25.84864,2.23366-20.13621,11.82516-23.33471,26.75723-25.83523,3.9013-.65329,7.58029-2.63391,11.14141-3.92521,4.83349,3.73619,9.62961,7.44358,14.15483,10.94152,4.50247-3.43682,7.95872-6.075,12.17346-9.29213.669,11.82249,1.2279,21.69751,1.78669,31.57247q1.78536.1806,3.57072.36127c3.00116-10.65666,15.54093-14.61252,16.39055-27.65609.62467-9.59006-2.85374-19.2432-12.73356-22.25394-9.83316-2.99651-20.6502-4.35993-29.25219-9.45285-15.62941-9.2538-29.059-21.57727-33.56752-40.452-2.57841-10.795,6.67838-19.57632,17.31448-17.07758,36.09467,8.47977,66.58112,26.30017,90.35492,54.90578,14.45719,17.39549,16.05584,38.416,4.73393,55.95974,5.43156,7.30427,10.991,13.66122,21.79671,8.85548,2.078-.92418,6.63037-.42671,7.61,1.03957,4.241,6.3492,9.23936,4.95007,15.57919,4.56812,3.68032-.22167,10.17008,5.58323,11.15943,9.69546,2.11416,8.78864,1.26262,18.25808,2.03972,27.41345a39.35512,39.35512,0,0,0,4.77514,16.58165c10.86564-33.03708,6.68163-66.82174,7.779-99.54457,6.51383.43857,11.8129,1.04607,17.118,1.107,18.0322.207,27.13877,9.35207,27.10627,27.45976-.0065,3.62694-.59792,7.43618.32688,10.82085.68818,2.51876,3.12745,6.08484,5.23733,6.42994,10.11779,1.65485,20.389,2.372,31.40963,3.50477,1.48551-12.61368,3.17279-26.94027,4.86008-41.26686q2.36983-.886,4.73969-1.77192c7.61323,8.2085,18.00945,15.22241,22.16835,24.91366,5.8125,13.54489,15.38628,15.55517,27.262,16.33207,14.56827.95292,20.15758,6.41236,22.85978,19.55454,5.45756,26.54281,10.95485,53.10852,17.65435,79.35365,4.41872,17.311,10.96283,34.07923,16.76426,51.72586,3.64606-2.5014,6.87793-4.71873,10.10981-6.936q1.68477.62134,3.36925,1.24276c-1.5025,4.26735-3.25211,8.46792-4.42965,12.82324-.95169,3.52006-2.11461,7.3638-1.58847,10.82115,1.00265,6.58734,4.41961,12.98249,4.51592,19.49175.14726,9.95894-9.68308,15.24162-18.79408,11.38466-9.73109-4.11939-21.005-6.31589-21.0465-20.61419-.0065-2.25-2.72154-4.79178-4.67943-6.6872-11.01837-10.66663-22.18814-21.17681-33.73442-32.1471-6.62151,12.34977-13.86724,7.96646-21.87249-1.49789-1.904-2.25078-7.07188-1.74-11.81378-2.72225-3.00663-12.98338-6.21576-26.84152-9.39047-40.55164-1.58507,12.812-3.43719,25.388-4.43881,38.03132-.186,2.34711,2.66364,5.37139,4.772,7.39571,20.126,19.32467,39.88548,39.07517,60.7534,57.57131,24.56065,21.76927,49.348,43.43484,75.52122,63.17722,16.62437,12.53959,35.95109,21.4959,55.08446,30.788-5.32876-47.16224-16.58376-91.16665-39.55771-132.65932-8.64055,6.92594-12.525,5.28121-17.52186-3.45491-10.18057-17.799-13.72766-36.90674-17.21005-56.58648-3.59731-20.32922-9.7039-40.2044-14.24655-60.38309-1.15081-5.11257-6.94677-11.764,1.8731-15.52924,8.29756-3.54237,12.15322,1.39839,15.539,8.50669,4.302,9.03165,8.89283,18.27226,15.24669,25.83712,3.30234,3.93193,11.3615,7.19494,16.06294,6.00064,14.13858-3.59149,30.12116,6.00492,32.583,20.38306,1.38492,8.088,5.14368,15.78031,7.99048,23.5935.36056.9897,1.8601,2.45657,2.52627,2.31024,11.54746-2.53693,13.84154,7.87649,20.99051,17.21091.86661-6.68684,2.79776-10.871,1.52274-13.49968-7.918-16.32328-16.38081-32.39218-25.02741-48.348-4.35535-8.03721-8.60835-16.40815-14.50638-23.24951-5.46066-6.33376-12.57153-11.64259-19.82479-15.93342a22.46942,22.46942,0,0,1-9.60258-27.954c1.65553-4.1705,2.53617-8.64873,3.95019-13.62067,2.78358,2.36993,5.34722,5.75357,8.738,7.207,8.949,3.83576,15.25408-.75452,17.68478-13.27691,1.7796-9.168,2.383-18.12028,15.69026-11.28443,1.86409.95758,7.753-1.39894,8.16951-3.10339.82495-3.37721.29-8.24153-1.74061-10.94591-6.155-8.1982-13.29221-15.65865-21.01208-24.51391.38951-1.55942,1.22229-4.89372,2.169-8.68386,13.08866.58788,22.4264,7.01486,30.63933,15.70253,6.5995,6.98081,14.98347,12.99563,19.37059,21.16144,5.29877,9.86262,9.45383,21.43966,9.95973,32.4649.4935,10.75231,4.05979,19.197,9.45517,27.47881,15.50474,23.79958,31.33075,47.3896,46.898,71.14885,21.34635,32.57986,28.58706,70.16039,36.94947,107.18207,2.17767,9.6408-.19779,20.22079.67872,30.26814a263.07475,263.07475,0,0,0,5.31015,35.75815c2.30589,10.07735-2.38108,17.11371-7.84868,23.96459-5.3487,6.70176-26.11425,1.59768-31.22263-7.70564-8.34956-15.2069-15.88893-30.62-12.57449-49.056.42378-2.35656-3.18815-6.60056-5.94751-8.10731-4.64088-2.5342-10.09814-3.57332-15.1916-5.23474-5.85741,27.09435-12.4157,54.43031-17.39542,82.05087-1.80235,9.99749.74209,20.70017.30945,31.0395-.92953,22.22687-1.19364,22.21579-17.93249,34.3379-8.06492-4.13786-15.69145-8.05088-23.474-12.04389-.98847-11.65279,7.03155-25.29665-7.16907-35.4548,3.84945,40.97488-16.449,76.8374-22.35283,117.2894,8.00968,4.413,29.78438-2.8304,20.02213,20.22094h-15.32188c1.51269,18.6364,3.01135,36.60471,4.41326,54.58055.6802,8.72112.892,17.48694,1.81726,26.17918,2.23425,20.98646,4.73482,41.94486,7.23377,62.90207a9.57268,9.57268,0,0,0,1.89274,4.39063c10.42946,13.775,13.31747,27.92857,1.60339,43.487-2.45345-1.54154-5.27411-3.314-5.689-3.57472-26.31115,18.261-51.35747,35.644-79.17717,54.952,7.55724,5.21007,12.47833,8.5019,17.28464,11.954,2.91016,2.0902,6.96655,3.851,8.23109,6.7525,6.36908,14.6134,12.4835,29.3862,17.58612,44.47544,1.63927,4.8471,1.55582,11.5965-.56809,16.15834-7.42682,15.95123-19.16469,14.68269-33.02483-1.65027a110.90321,110.90321,0,0,0-23.5741-21.18065c-9.00746-5.85668-11.18248,3.96782-13.8216,9.36832-2.74,5.60672-3.90159,11.985-5.8478,18.33364,24.61589,22.12389,28.30611,36.85947,11.30847,58.95588-8.74336-11.34447-16.90193-21.93037-25.788-33.45995-2.58653,1.37092-9.7457.6924-6.16966,9.92053.62377,1.60935-2.61446,5.9886-4.993,7.087-1.913.88326-6.69714-.45634-7.6475-2.20293a116.241,116.241,0,0,1-8.24557-19.65122c-1.65641-5.10341-2.16911-10.57821-2.84769-14.104,6.35992-7.16436,12.41231-13.98231,18.46454-20.8001q-.84747-.81768-1.69525-1.63535c3.97781-.72387,7.95561-1.44774,14.64478-2.66516-14.40623-10.8103-24.66154-3.19846-34.93708.69668-13.48792,5.113-26.64866,11.10664-40.2224,15.95995-2.49673.89272-7.45888-.85609-9.30362-3.05044-19.48358-23.17335-42.67541-17.47608-66.685-9.84651-3.75965,1.19467-9.45-.99717-13.217-3.30542-3.48476-2.13526-5.58725-6.52721-9.85118-11.87142,6.84071-5.7546,13.44169-12.44166,21.13158-17.45953,7.77364-5.07239,15.19662-9.80279,26.04838-10.32885,18.8539-.91385,34.33737-13.49067,51.42688-20.70069,13.46163-5.6794,28.541-7.53826,42.91958-11.021,4.23438-1.02553,8.52932-1.80139,12.75115-2.68244-2.77058-23.36422-2.21682-23.67608,23.63067-25.268,8.08988-.498,16.03324-3.53291,24.11648-3.93133,6.84987-.33756,13.81111,1.40519,20.70987,2.326,2.67383.35677,5.73466,2.11237,7.89654,1.30223,12.842-4.8121,25.63789-9.83263,38.06732-15.6057,3.50751-1.629,13.98748-1.43828,6.13023-10.61617-.2737-.31969.84357-2.0289,1.52082-2.93477,9.19179-12.29245,9.582-19.07878,1.49865-32.48362-3.72936-6.18419-8.52622-11.84675-11.43845-18.37108a190.59572,190.59572,0,0,1-9.11292-26.507c-4.44132-15.91925-8.33671-31.9908-15.16427-49.1842-6.47543,12.1476-13.82263,23.92241-19.21417,36.53358-7.38162,17.26557-14.38643,34.50018-27.24275,48.68584-3.67619,4.05617-3.75506,11.66017-12.28572,10.421-4.03541-.586-8.30052.41009-12.46163.68945.55287-4.32947,1.10575-8.65893,1.64548-12.88632-3.29259.22484-7.35769.09662-11.23388.89051-3.30617.67733-7.27822,1.58069-9.41307,3.84137-6.14307,6.50432-11.17316,14.06548-17.37193,20.50775-1.906,1.981-6.30512,2.67639-9.32178,2.25093-7.03362-.99184-14.009-4.69878-20.85256-4.3401-28.99148,1.51968-47.28985-16.40475-63.60876-35.77123-5.94973-7.06059-8.833-20.047-7.089-29.17865,1.36011-7.12049,12.04643-12.45931,18.58832-18.58987q2.23758,1.13178,4.47529,2.26356v19.49766c6.0518-1.734,12.29547-3.52279,19.50324-5.58788-.05215.60686.54475-.83467.06336-1.548-10.2875-15.24183-20.8815-30.281-30.91835-45.68385-1.93144-2.96387-2.50647-7.3056-2.44059-10.989.24372-13.61853.66085-27.25671,1.76394-40.82634.46218-5.6862,2.80175-11.21987,4.758-18.5963,4.10174,3.43542,6.33983,5.30994,9.05709,7.58584,2.99761-2.854,5.85637-5.57563,6.851-6.52257,15.40209-1.4187,28.77155-3.04836,42.19034-3.78671,17.29069-.95137,34.88331-3.22283,51.84328-1.0321,11.67538,1.50816,22.84087,9.01592,33.56028,15.04152,5.64352,3.17239,9.22843,5.01965,14.40105-.5477,9.24882-9.95465,21.73778-6.24476,32.98909-5.95093,10.28352.26864,12.81747-3.73619,11.13092-13.12364-2.69628-15.00754.50605-19.79622,15.065-25.20617,2.1081-.7834,4.70335-2.5859,5.37617-4.5105,3.44384-9.84977,6.36907-19.88286,9.38559-29.879.69039-2.288.75376-4.78247,1.56838-7.0128,4.87425-13.34589,9.884-26.6423,14.27476-38.41763-2.63011-3.13811-3.1332-4.26284-3.63468-4.2621-33.49425.04942-57.47868-20.29148-82.499-38.40086-14.61184-10.57585-29.65706-20.6204-43.64409-31.96827-9.00406-7.3053-16.647-16.354-24.52815-24.962-9.68086-10.57386-18.97827-21.49916-28.42915-32.28323-1.06233-1.21218-1.80722-3.10089-3.11622-3.616-2.74252-1.07908-6.385-2.73836-8.48014-1.72458-1.81283.87714-3.16009,5.32944-2.70455,7.83623,2.10116,11.55906,4.94944,23.03161-3.47087,33.37642-1.39541,1.71423-3.32686,3.85747-5.2425,4.12153-5.87115.80941-24.11324-12.37207-25.93257-18.32521-3.15876-10.33616-6.581-20.61523-9.1562-31.09926-2.41283-9.82377-3.87028-19.88213-8.4181-31.49975-3.50854,5.629-8.61691,10.83407-10.24053,16.96242-6.06583,22.89955-9.98559,46.37825-26.16433,65.33789a130.94205,130.94205,0,0,0-16.303,24.21417c-6.71752,12.86386-12.10034,26.419-18.245,39.58964-5.89227,12.63037-11.42029,25.49083-18.25952,37.59988-5.33408,9.444-10.64452,18.72349-21.30957,24.76682-5.68341,3.2207-7.46552,13.32817-11.43225,21.16455,52.10546,9.33073,102.264,18.31274,152.42233,27.29475l-.08774,4.40517c-10.34747,2.70151-20.69509,5.40293-35.44164,9.25287-11.83757-2.19486-29.11571-5.79256-46.54141-8.40535-5.72344-.85815-11.84761,1.39086-17.75539,1.1994-5.35978-.17372-11.04259-3.41111-15.9331-2.33735-10.44969,2.29436-20.41267,9.05381-30.69619,9.32142-14.76354.384-22.61724,5.99842-29.04687,18.82926-1.8573,3.70628-13.7829,7.67152-19.59526-1.52337-5.60881-8.87284-12.67271-14.579-22.77233-19.04384-6.107-2.69973-11.67051-8.35756-19.13411-9.69214a27.563,27.563,0,0,0-4.73762-.03915c-2.29791,18.36363-4.56806,36.31886-6.78517,54.28052-1.91284,15.49549-3.18461,31.09719-5.8001,46.47154-2.86822,16.859-6.98325,33.50479-10.46121,50.26291-.3966,1.91094-.98463,4.4201-.13456,5.84848,5.553,9.33006,11.01615,18.784,17.5,27.45577,2.73366,3.656,7.877,5.50952,11.925,8.18236q3.92589-6.04968,7.85356-12.09819c.62717-.96429,1.274-1.91573,3.23911-4.86586,3.67811,5.83392,7.76138,10.33328,9.56476,15.61175,3.0824,9.0216,6.1162,18.44635,6.69714,27.85441,1.15169,18.6548,11.63993,32.22214,23.0258,44.93931,16.75909,18.71876,33.59425,36.86538,46.07923,59.25695,7.63095,13.68612,21.5456,23.80283,32.27491,35.84606,9.02237,10.1272,18.90663,9.27245,31.88983,8.86383,12.95838-.40743,28.32147,8.10273,38.77411,17.15625,8.21589,7.1162,10.56121,21.01209,14.83163,30.39607-10.06623,2.88232-17.62466,5.04654-25.18309,7.21075,9.88618,11.34743,20.01,14.5261,32.12439,12.73815,13.28482-1.9605,27.31307,7.34193,31.95763,20.07077,4.28845,11.75324,6.73732,12.23808,15.19515,3.74239,5.08179-5.10459,10.7132-9.662,16.31537-14.65949,14.33075,6.19586,28.06712,11.7559,41.95164-1.793,5.50187-5.36888,19.639,3.79632,21.879,12.8222.78375,3.15813,2.15641,8.42685,3.94709,8.73487,21.93438,3.77061,25.86832,22.77877,33.65215,38.57267,1.05538,2.14132,1.809,5.129,3.59037,6.10648,16.59409,9.1064,12.48482,24.847,13.15912,39.18545.209,4.44292.71653,9.24541,2.58181,13.1735,8.9011,18.74609,4.26111,32.74332-11.98587,47.06718-9.197,8.1082-18.6926,10.76716-29.90048,12.7603-5.06835.90144-9.35605,6.65737-13.80816,10.43462-4.71133,3.99738-9.19756,8.26022-14.24345,12.82442-3.06186-3.92011-4.97175-6.36516-7.52815-9.63792-3.9685,3.13021-7.66035,6.097-11.40965,8.9894-13.53194,10.43934-26.624,21.55351-40.87011,30.9078-5.15712,3.38607-13.41037,4.36-19.70146,3.26848-16.82216-2.919-30.34656,3.79188-44.5813,10.93734-16.71,8.38829-33.75245,17.38124-51.71079,21.62635-15.17993,3.58846-32.52114,4.01141-44.86712-7.69249,2.576-20.19886,5.51162-39.65877,7.1927-59.22638.36071-4.19947-3.81769-8.78893-5.905-13.19876l-3.39421.20519c-2.81253,9.5846-4.9812,19.42712-8.67954,28.65673-2.21106,5.51734-8.05547,9.6357-10.02133,15.17934-2.23706,6.30784.58758,14.36966-6.78414,18.96208,3.01563,4.70056,4.92669,11.399,9.22651,13.77637,27.33064,15.11184,49.92483,35.67987,65.10122,62.40726,7.80377,13.74329,10.121,31.13649,12.469,47.23737,1.33662,9.16475-14.99205,16.40889-24.68325,11.47566-4.51769,7.13733-7.61544,17.83328-14.06295,20.53552-6.07543,2.54639-15.67948-3.32846-22.618-5.19884-4.42138,10.82639-7.46921,22.83313-13.87536,32.647a77.19982,77.19982,0,0,1-23.67085,23.17114c-11.091,6.7494-17.68153-5.61351-23.67542-11.56887-4.05137-4.02545-6.12447-13.85231,4.49464-18.56631,7.02727-3.11928,13.129-8.47191,19.32923-13.2357a24.474,24.474,0,0,0,4.74206-5.52163c-3.88992-4.02027-7.39329-6.026-8.34823-8.88362-7.65991-22.92045-15.18023-46.15068-32.13813-63.9717-6.16524-6.4792-16.57667-8.82808-24.83022-13.45507-2.94384-1.65027-5.23585-4.464-7.82549-6.747,2.33307-2.38344,4.3041-5.35588,7.06065-7.05032,13.11865-8.06418,23.90984-5.31141,33.75836,6.02361,12.54642,14.44012,25.57984,28.4081,33.26988,46.23281,3.55521,8.241,6.48665,16.75133,10.22664,26.51157,1.72761-1.88782,3.993-4.69288,6.59729-7.13674,4.5911-4.30879,9.164-11.65,14.1405-11.994,17.99793-1.24431,20.03365-17.851,28.55249-27.76917,1.9666-2.28949-1.16085-12.05638-4.73275-15.42576a304.65918,304.65918,0,0,0-35.5189-28.679c-5.10853-3.53882-12.37036-4.7366-18.819-5.41452-14.09751-1.48216-27.376-5.51026-35.98876-16.74955-4.97248-6.48881-7.24085-15.8298-8.16019-24.16978-.275-2.49587,8.9463-9.26595,12.39177-8.40071,17.327,4.35074,12.76754-7.21267,13.355-15.53626-14.08806-8.38016-24.24,3.42345-35.82761,6.19675-2.61387.62563-4.62759,6.22363-5.822,9.88965q-7.54869,23.17011-14.34508,46.58264c-2.6499,9.19533-4.88681,18.53971-6.73968,27.92946-5.01088,25.395-14.22011,49.156-29.81481,69.747-3.91666,5.17122-12.54125,8.41149-19.41446,9.28116-8.05872,1.01977-11.44953-8.36672-6.158-15.18363,6.28031-8.09092,15.65615-14.47528,15.1792-26.268-.14609-3.61048-.97415-7.87863-3.08846-10.60628-9.2686-11.9574-9.21292-30.7292-1.98506-44.09312,6.802-12.57653,11.28868-26.46356,16.04477-40.03681.87754-2.504-1.0062-6.938-2.99909-9.32636-10.8652-13.02-11.02576-21.33208-.00355-34.809,9.205-11.25466.32526-21.8438-1.21284-32.72412-.6443-4.55711-1.77546-9.42416-.8319-13.7455,1.78463-8.17364,2.49659-14.28825-2.08609-23.23186-4.78726-9.34291-1.94371-22.984-1.19275-34.66615.71225-11.08285,3.67559-22.01428,4.50675-33.098,1.458-19.44263-14.444-28.4663-25.38856-41.00915.4712,7.67462,3.77974,16.56149-6.60275,18.3948-8.20539,1.44921-15.73945,1.78854-23.9766-6.0991-13.443-12.87272-27.09209-26.6491-45.37879-33.6-3.14665-1.1963-5.63865-4.11555-9.30583-6.90185-1.34681,1.7816-3.59155,3.60013-4.32345,5.90011-6.28975,19.7663-20.76969,23.20364-38.41267,12.06288-16.45008-10.38735-26.81395-23.48078-30.39132-42.30517-.43367-2.282-2.00249-5.09573-1.18847-6.74807,6.18089-12.54477-1.73174-20.74471-8.409-29.46657-14.48437-18.91982-17.60177-39.093-7.44388-61.20313,9.28352-20.207,15.15807-42.65233,27.70833-60.46493,9.34734-13.26671,10.01025-24.30436,7.864-38.27795-.5833-3.79779,3.1369-8.25667,4.88179-12.41226,3.37944,2.183,6.73731,4.40052,10.15206,6.52677a57.25769,57.25769,0,0,0,5.42137,2.34164c-1.52687-13.78494-7.70112-22.66414-17.25392-30.2321-8.31573,4.71829-14.77388,10.71088-26.35265,5.00872-11.851-5.83614-19.92014,3.4236-22.06341,17.12951-4.57706,29.26891-11.21873,58.14959-40.78776,73.70875-5.80364,3.05383-12.39686,4.79613-18.80213,6.46738-7.5376,1.967-9.459,6.3786-7.78,13.53455,5.25,22.374,10.09209,44.84609,15.54492,67.16942,3.11844,12.76665-3.6078,18.54326-19.87169,16.33709-1.17311-10.26769-1.7751-20.64085-3.64488-30.78017-3.439-18.64889-7.26729-37.24755-11.76223-55.66451-1.05324-4.31528-5.76214-7.621-8.164-11.75457-2.75618-4.74339-7.9314-11.23855-6.49241-14.566,2.52789-5.84515,8.71654-9.48517,17.07112-5.52946a21.86222,21.86222,0,0,0,16.06309.29088,166.73371,166.73371,0,0,0,27.99171-15.77071c3.85632-2.60932,6.08621-7.62291,10.89791-13.97965-23.59367-7.77743-44.36823-14.62566-65.14287-21.47389q-.5569,1.66039-1.1138,3.32048c8.23117,9.15707,18.01328,14.45947,30.96886,14.43008,7.70488-.01729,8.06456,4.76762,4.10144,10.53419-5.766,8.39036-13.96657,10.79773-22.80268,7.34459-27.00886-10.55546-51.59661-25.54365-71.45966-46.69047-11.48794-12.23041-20.29392-26.98061-31.92107-40.50658,2.58077,10.78015,5.92617,21.44582,7.55857,32.3678,2.30427,15.41719,2.52642,31.16263,5.13807,46.51246,2.91054,17.106-4.33822,31.58646-8.73663,47.11667-4.33645,15.31127-5.9806,31.383-8.84483,47.1143-2.09718,11.51791-2.44451,23.05606-6.825,34.53025-5.80542,15.20638-7.40858,31.96671-11.71593,47.815-2.64067,9.71607,1.49822,14.69376,8.958,19.61281,6.22875,4.10728,11.57745,9.60941,17.061,14.765,3.459,3.25209,6.12285,7.384,9.71152,10.45767,9.736,8.33851,9.44977,11.89846-1.233,18.83429-7.39779,4.80278-14.20357,10.512-21.52817,15.43787-1.64881,1.1087-4.35048.73613-6.57823.885-11.2779.75386-19.79053,12.26822-16.77431,22.28566q16.085,53.42318,31.87676,106.93455c5.9611,20.30847,15.15083,40.5478,16.24676,61.17107,1.21809,22.92325,13.69782,40.80514,18.85184,61.59771,3.79435,15.30713,17.33692,21.03056,29.08217,28.52658,5.73356,3.65922,14.05335,7.06834,15.8232,12.38271,4.319,12.9686,5.65114,26.95873,7.777,40.60127.3,1.92549-1.68854,4.20774-2.64311,6.38215-16.10931-1.92712-23.26058-14.42963-31.96073-24.81935-7.33147-8.7551-14.75327-16.92889-9.88344-30.61914,1.53285-4.30937-3.92324-11.74408-7.29669-17.03673-8.9839-14.09429-18.21166-28.06389-27.99408-41.61247-27.59312-38.21621-38.635-82.29367-48.30911-127.47422-4.43512-20.71279-15.64293-39.96028-23.579-59.95187-1.40745-3.54547-2.86372-7.58554-2.50405-11.21965.96255-9.724-4.84752-14.76275-11.82139-19.18588-1.5488-.98254-4.89087-1.87437-5.51479-1.15848-7.00851,8.04231-21.50691,9.22887-21.91592,23.107-.12319,4.1739.34055,11.17562,2.582,12.14413,12.7465,5.50774,13.22242,17.08031,17.56691,27.71318,3.29185,8.0565.85339,12.03954-3.04487,16.74615-8.4328,10.18142-14.22824,8.23732-23.707-1.04458-13.62079-13.33822-20.55-28.76073-22.437-47.15257a16.30955,16.30955,0,0,0-1.37658-4.61783c-.2771-.64882-1.15287-1.04192-1.76246-1.54435-13.00794-1.75146-19.877,19.93294-38.17486,7.61258,10.41187-9.34661,19.90389-18.11057,29.65809-26.572,19.11623-16.58232,38.53623-32.82014,57.38016-49.70339,2.3454-2.10128,2.17014-7.22227,2.74518-11.00751.286-1.88353-1.077-4.15234-.49845-5.836,5.63755-16.40313.62378-31.182-7.43073-46.93024,10.24622-5.26828,20.28579-10.43034,28.52959-14.6691,7.2882,10.80911,14.01148,20.78046,20.73468,30.75166q1.9244.09993,3.84879.19958c3.13505-15.12779,6.24559-30.26061,9.42577-45.379.64667-3.07392,1.6087-6.07989,2.33211-9.13934,1.10242-4.662,2.80381-9.30731,3.05278-14.02293.77658-14.71076,2.90485-29.70767.97532-44.12031-2.91475-21.77186,4.25757-42.29689,4.54036-63.3.24963-18.52937-5.71347-37.06038-7.60089-55.72552-1.61978-16.0163-1.53877-32.22162-1.68441-48.348-.01757-1.953,3.59333-5.78636,4.907-5.53463,3.12043.59778,7.16877,2.44468,8.50982,5.00769,3.07435,5.87558,4.75506,12.48058,7.46611,20.09367,5.176-.50346,10.94791-1.0649,16.981-1.65168,0-1.85768.50052-3.47456-.073-4.08933-15.52181-16.63972-30.24517-34.18559-47.09657-49.36517-10.661-9.60335-10.79341-22.346-15.09338-33.76456-1.01934-2.70682,4.962-8.05074,9.32873-14.58371,5.68245,8.3077,9.99976,14.6196,15.59927,22.806,4.07966-4.01569,7.91441-7.98847,11.98144-11.70715,1.93174-1.76631,4.20469-4.14872,6.49817-4.36116,10.74806-.99509,11.60987-8.34478,11.08787-16.45734-.36152-5.61906-.69431-11.452-2.46571-16.70878-1.78987-5.31185-1.22909-12.51936-10.86158-13.2628-2.957-.22824-6.85895-9.43192-7.43583-14.83448-1.17643-11.01534-3.58985-17.36661-17.00525-14.85213-10.75744,2.01627-25.46352-9.9483-30.70188-23.31244-3.89679-9.94136-6.868-20.24561-9.849-29.18182-5.60712,1.12081-13.26377,4.90774-15.99411,2.67336-4.19678-3.43453-6.4975-10.8948-6.93842-16.84432-.834-11.255.48929-22.65121.44756-33.987-.1223-33.22765-1.87251-66.521-.29844-99.66094,1.27968-26.94448,4.05772-54.29684,10.54747-80.37911,6.39677-25.709,17.24911-50.51826,28.15951-74.81833C523.5827,421.6271,534.08268,408.11981,543,393.918c3.65374-5.81923,8.07046-11.23066,11.13307-17.33315,4.5685-9.10308,11.01711-8.93947,20.42154-4.515q-19.2631,36.00792-38.46238,71.89649,2.38292,1.37265,4.76584,2.74538c4.10129-7.04043,8.08383-14.15338,12.32648-21.10746,11.64281-19.08395,23.83621-37.84828,34.94321-57.2367,7.001-12.221,16.33893-21.42754,27.867-29.26267,16.98611-11.54472,23.44987-30.85695,30.26931-48.45656,8.364-21.58609,21.77478-38.54568,36.39991-55.74225,20.3146-23.88629,43.04978-44.97886,67.4577-64.29655,9.91491-7.84721,21.84154-13.12135,32.69337-19.82462,8.88072-5.48566,16.97977-12.5868,26.4048-16.75716,13.212-5.846,27.20065-10.13322,41.1831-13.86509,2.61047-.69672,6.75548,4.35853,10.93034,5.36024,4.31975,2.28491,8.81779,4.29656,12.894,6.95511,2.52716,1.64816,4.2103,5.8922,6.62239,6.19674,12.51127,1.57984,13.05115,9.30033,11.6776,19.25314-.8384,6.07446-1.92716,12.59366,6.69093,15.74359,8.84749,3.23381,14.36354-1.40559,19.57665-6.55236a88.632,88.632,0,0,1,31.59382-20.35958c7.28856-2.725,14.54419-5.53792,21.81473-8.31136q-.32569-1.74282-.65154-3.48561c-8.04366.38121-16.18081.139-24.10393,1.32538-7.38739,1.10615-12.91171,1.55185-16.81537-6.919-1.35523-2.94086-8.28782-3.23635-12.61082-4.90158-6.045-2.32841-12.93475-3.75536-17.59025-7.75088-1.814-1.55694,1.14962-9.142,2.6-13.77368.45554-1.45479,3.01209-3.07389,4.70957-3.19643,36.24607-2.61637,72.26866-7.51,108.798.28785,22.20942,4.741,45.4714,4.35417,68.11228,7.38134,7.30333.97648,13.89249,6.593,21.222,8.19743,33.90045,7.421,62.52487,28.66056,96.33714,36.293a35.14438,35.14438,0,0,1,15.63931,7.852c10.32546,9.59733-2.98461,9.598-7.45356,15.09636,3.93911,1.2028,7.72135,1.67845,10.78824,3.41658,10.80611,6.12451,21.3685,12.67924,32.01214,19.08934a1.665,1.665,0,0,1,.73958.897c1.13086,4.84522.87857,12.83919,3.55949,13.984,9.2565,3.95257,19.53219,5.51768,29.41969,7.9919q1.04-1.66027,2.08034-3.32052c-5.47071-7.59344-12.26858-14.59815-15.9814-22.97126a35.43216,35.43216,0,0,1-1.86985-21.76614c1.32894-5.12664,7.93568-6.64957,14.18393-2.62608,29.78408,19.17886,57.65032,40.02084,80.67287,67.794,19.92671,24.03816,32.93945,50.92691,43.92961,79.41456,3.235,8.385-2.10249,28.19083-9.17082,33.57134-5.7323,4.3634-13.21762,1.34606-16.16072-6.192-7.733-19.80678-14.42455-40.15776-23.9543-59.07042-5.15358-10.22765-15.06767-18.14535-23.22359-26.73519-4.58268-4.82649-8.45029-2.64407-8.96166,3.20515-1.06381,12.16411-8.16094,12.07049-17.85037,11.29672-27.32458-2.182-54.71977-3.697-82.1154-4.70192-19.37561-.71079-31.56354-9.96282-30.86237-27.89434.3644-9.31584,5.61355-18.44059,9.68633-30.7699-14.50859,2.62206-27.86549,5.312-41.32062,7.354-6.98059,1.0594-14.18112.60041-21.20322,1.46746-31.17447,3.84909-59.14809,18.44905-89.01239,26.68467-10.29681,2.83948-21.12345,3.70018-31.58274,6.02867-5.976,1.33047-11.69916,3.79664-15.65068,5.12006-4.66451-8.87516-7.79314-15.14186-11.21408-21.24465-3.14429-5.60923,3.7527-20.5346,13.3278-25.11628,11.05751-5.29124,23.53171-7.8096,34.18671-13.7079,14.85527-8.22354,28.594-18.46478,42.66936-30.70191-10.54364,0-21.23468-1.12572-31.60018.23308-21.95033,2.87741-44.18943,5.39613-65.41643,11.28472-13.76029,3.81729-25.9079,13.39332-38.841,20.27058-7.73021,4.11053-9.53817,10.21369-6.42815,18.03914,3.496,8.79635,2.87678,16.42034-9.08383,23.6729-9.18692-10.23593-19.02037-21.19222-28.80743-32.09687-9.894,3.40007-22.2648,5.57171-32.248,11.65969-10.236,6.242-18.04977,16.4093-27.07983,24.68849-11.7575,10.77979-23.68532,21.37337-35.50885,32.08143-13.88556,12.57564-27.73773,25.188-42.48243,38.582,5.22337,3.27491,9.1042,5.7081,15.462,9.69432-15.51508,4.09265-17.27068,15.27644-17.96647,27.03267l.40909-.4092c-7.32136.03564-14.90527-1.11653-21.89324.42785-7.59063,1.67753-11.31113-.94992-14.33947-7.05759-7.31294-14.74876-3.37922-29.10545,4.27315-41.49518,11.38152-18.42766,21.87183-38.1166,41.65305-49.7354a9.3082,9.3082,0,0,0,3.53121-3.23421c6.748-12.71625,13.34324-25.51363,19.27022-39.54635q-25.82637,25.01026-51.61492,50.05945c-1.36964,1.33561-3.46873,3.642-3.08964,4.79152,4.839,14.674-7.765,17.09582-15.72158,22.54965-4.04376,2.77171-6.748,4.06876-8.08,10.68646-1.37251,6.81957-11.22671,13.46474-18.84585,17.04234-6.96826,3.272-17.28567,10.21783-23.23171-7.695-13.15343,21.55252-24.57711,40.27073-37.20574,60.96333,14.04693-1.17543,24.86442-2.08064,39.567-3.31092,4.31762,5.56636,13.486,13.32976,16.66212,23.0513,1.81284,5.54874-4.97618,15.23637-9.96188,21.38031-8.30717,10.2371-19.94023,18.01572-27.15612,28.841-10.78565,16.18095-19.258,33.95285-28.07258,51.37294-3.06836,6.06408-4.23143,13.09276-6.26457,19.68091q2.37727,1.45265,4.75446,2.9053c6.37676-7.48937,13.29287-14.59184,19.00575-22.55748,8.89992-12.40938,17.08471-25.33927,25.355-38.18873,2.78336-4.32444,4.35484-9.51043,7.50577-13.49052,2.41157-3.04608,6.43672-4.81438,9.74408-7.15107.97488,3.15562,3.03026,6.42543,2.71135,9.44433-.79,7.47843,5.75815,12.98448,2.55,21.90843-8.61861,23.97382-14.90578,48.79213-21.89605,73.33839-.96993,3.40587-.68367,7.16939-.975,10.77233-2.57863,2.27612-5.847,4.11164-7.61743,6.899-5.75372,9.05832-10.78758,18.57082-16.42165,27.70935-6.26583,10.16361-12.88645,20.10851-19.5615,30.473H622.416q.49042-1.38075.98093-2.76148c-4.6583-2.24547-9.59319-6.70346-13.9035-6.16462-5.14368.643-10.86468,4.6637-14.28636,8.88318-3.57154,4.40422-4.70543,10.78563-7.21633,17.0832,15.93169,11.59606,14.82816,29.856,13.7549,47.17-1.39061,22.43294-5.08282,44.71505-7.25452,67.11343-.55974,5.77262.86432,11.7375,1.3771,17.61413,12.4603-34.503,29.70314-65.18211,49.76095-94.08414,4.62307,2.45074,7.986,4.60934,11.62375,6.09555,14.35512,5.86473,19.44341,14.59383,17.35067,29.94787a15.44548,15.44548,0,0,0,.29593,6.99692c5.40527,15.12838-1.08079,28.64609-5.41568,42.46715q-5.35211,17.0648-10.75213,34.11454a485.29849,485.29849,0,0,0,47.18616-35.68718A65.45385,65.45385,0,0,0,719.06774,734.353c3.243-5.24908,4.76229-11.56334,7.35968-18.22654,5.37595,3.41377,8.5517,5.43034,11.72738,7.447q-.22278-1.81872-.44564-3.63751c7.03532-2.57268,14.07063-5.14536,21.85986-7.99378,1.03293-4.84386,2.42221-11.35873,4.42625-20.75675,1.40582,5.17255,1.92776,7.09287,2.44969,9.01311,3.58652-6.27534,6.73044-13.41134,4.66443-18.38091-7.25082-17.441-20.693-32.13993-23.05793-51.86576-.05472-.45692-1.27332-.77431-4.04856-2.34511-7.7424,12.06835-16.66869,23.76139-22.98149,36.72726-3.32353,6.82592-4.57278,14.20545-13.63149,13.556-6.28311-.45042-15.82985-1.04805-17.99431-4.90508-7.11781-12.68415-19.14659-14.04037-30.97174-17.36839-.74586-11.6095-2.1152-23.17527-2.00737-34.72731.06994-7.50835.91114-15.58863,3.82116-22.37754C667.57468,581.39525,675.97756,564.77466,675.82187,545.51662Zm315.472,509.17638c-5.76021,8.692-6.63436,17.86563-2.79141,27.54462,1.31314,3.30719,3.4728,6.64806,3.55773,10.01582.823,32.70137,1.83071,65.41884,1.39984,98.11356-.08715,6.61807,1.77886,10.257,4.82743,15.454,5.45948,9.30686,8.8695,19.81845,2.99111,30.90337-4.53467,8.55094-4.68829,16.06114,7.66006,19.86262.836-12.05,2.07708-23.40086,2.32479-34.7734.66071-30.31172-11.42028-59.77194-6.271-90.44545.2415-1.43857-.95686-3.06388-1.17917-4.6453-.886-6.3-1.99053-12.59559-2.39259-18.93224-.94017-14.82051-1.51284-29.66408-2.25434-44.4973-.26041-5.20727-.91255-10.07461-8.24572-8.15237-.23353-6.41908,2.70736-14.03431-6.14367-17.66931C979.40843,1047.89057,981.425,1052.81729,991.29385,1054.693ZM925.2278,765.10863c4.79863,13.76855,18.58832,23.521,15.65348,40.74391q2.08515.31178,4.17028.62348,10.32554-13.6627,20.65093-27.3254-.49454-2.382-.98906-4.76408-19.89821-4.382-39.79641-8.764c-11.18765-6.02989-22.12876-12.61176-33.70119-17.77966-3.86777-1.72731-9.62828-.73849-14.0182.63014-4.97869,1.55232-9.39032,4.92392-15.43517,8.27292,1.55715,6.70079,2.836,16.78522,6.32831,26.03366,4.05565,10.74079,10.86623,20.43662,14.9755,31.16308,3.99243,10.42118,5.28282,21.37624-1.6508,31.80747-2.49629,3.75546-4.78711,8.44029-4.97219,12.7945-.61595,14.48215-.23294,29.00684-.23294,44.481,3.55891-.838,6.50275-1.5312,9.96092-2.34555.83648,8.0265,1.60339,15.38624,2.37044,22.74605,2.61076-1.779,3.10795-3.279,3.23439-4.80943,2.20633-26.72275,4.49405-53.4398,6.475-80.17946.78995-10.66264.98389-21.37447,1.2545-32.06895.2062-8.1472.19128-16.303.12215-24.45364-.11359-13.38253,12.25115-9.89105,18.93691-14.04132C920.58087,766.62173,922.99562,766.01221,925.2278,765.10863Zm317.60586,74.1424c-1.17237,6.18811-3.66895,12.087-3.08461,17.66318,1.66778,15.91562,3.00189,32.16209,7.44336,47.41146,4.867,16.71084,12.591,32.67581,20.12273,48.46365,1.90323,3.98947,7.41352,7.375,11.96164,8.76973,12.22367,3.7486,24.78531,6.44138,37.28742,9.21734,7.65385,1.69939,14.49426,1.47632,20.4-5.75164,7.38059-9.03261,15.4108-17.88366,24.58133-24.975,5.65032-4.36921,9.00879-8.45411,10.22945-15.33979,1.58625-8.94825,4.84708-17.633,6.03112-26.61017,1.24637-9.45053.84076-19.08786-9.96417-24.17074-9.81277,15.56795-19.30722,29.58128-40.64411,22.62351-2.31357-.75445-5.99464,2.33684-8.91381,3.88458-2.99082,1.58586-6.40113,5.50073-8.62888,4.86949-10.02266-2.83956-19.69023-6.93281-29.5256-10.5887,0-8.86287-.20354-17.97717.09646-27.07493.12658-3.83443.26794-10.12388,2.23114-10.94968,4.60912-1.939,11.54437-3.418,15.36767-1.25169,14.348,8.12947,28.78321,4.2036,43.61189,1.80013-9.21779-4.4-18.88359-6.08861-28.40847-8.36709-11.74481-2.80949-23.39877-6.7556-34.46,1.959-.40148.31636-1.48788-.09816-2.20043-.336C1265.433,846.84839,1254.50727,843.17174,1242.83366,839.251Zm-481.9603-90.809c1.94334,8.42788,2.87923,17.19443,6.03333,25.07269,4.84738,12.10809,12.20263,23.24109,16.72438,35.44372,7.77409,20.97952,13.83474,42.58925,21.35181,63.67144,2.743,7.69279,5.03778,19.36323,18.05273,9.672.87636-.65259,3.3239.91311,5.07248,1.30591,8.46241,1.90141,27.52207-9.72087,29.69488-18.13243.396-1.53334,1.09851-3.41473.57547-4.6911-4.3747-10.67645-7.50673-22.2601-13.852-31.65191-15.3433-22.70934-25.27379-47.72058-33.07092-73.52-2.98269-9.869-3.0081-21.4733-1.22628-31.73921,2.51549-14.49345,7.95946-28.47864,12.52589-43.94953-8.63671,1.98746-16.79469,5.69964-24.72268,5.26037-11.99348-.6647-12.59406,6.99441-12.35979,14.36005a74.48686,74.48686,0,0,0,4.63267,24.43163c3.32745,8.49458,10.223,15.65585,13.12574,24.22422,1.41033,4.16283-2.73941,10.20985-4.37219,15.4039-4.57456-1.46392-11.66371-1.599-13.26673-4.63312C780.30754,748.58865,772.61551,745.97726,760.87336,748.442Zm40.4775,401.27967c2.42376,4.21468,4.64265,8.073,6.86154,11.93141,2.16719-1.438,5.311-2.37148,6.35356-4.39019,13.50388-26.15022,26.71026-52.45423,39.98814-78.7213,1.59674-3.15872,2.71918-6.68115,4.852-9.41885,4.21888-5.415,6.25519-10.07578-.41654-15.286-5.82314-4.54766-9.25088-4.01717-16.4263-.0424-8.61381,4.77161-9.3172,10.91784-11.71851,18.17261-3.18431,9.62035-8.10067,18.65214-11.68025,28.15992C813.1131,1116.19985,807.52614,1132.44787,801.35086,1149.7217Zm314.24238,38.52009q1.25849-.48175,2.51711-.96378c-4.485-6.99729-8.69594-14.19578-13.60077-20.8852-1.77148-2.41609-5.20808-3.61106-7.88487-5.36326-1.08684,2.96372-3.36393,6.06187-3.04709,8.86707,1.1542,10.22086,3.5756,20.29577,4.79878,30.51205,4.94648,41.31612,9.62458,82.66431,14.40165,124.00068q2.762-.14115,5.52388-.28216c0-6.91943.25627-13.85009-.05126-20.75594-.72761-16.33295-4.7682-33.24471-1.74858-48.81258,2.97871-15.35751-.52525-29.33436-.87724-43.92058C1115.44479,1203.17665,1115.59324,1195.70752,1115.59324,1188.24179Zm34.21167,291.57492c14.95054-3.78036,27.71778-6.50889,40.07632-10.503,2.90012-.93748,6.75238-6.73285,6.11812-9.2881-1.66542-6.70951.35376-16.45114-10.28913-18.20216-12.93992-2.12876-25.90687-4.09443-41.66745-6.57183C1145.84867,1449.21855,1147.68381,1463.41107,1149.80491,1479.81671ZM859.34121,963.00619c.34328-.99413.69911-5.33106,2.978-8.06484,10.90611-13.0836,14.03917-25.36564-.45731-35.36889-16.41966,2.1928-31.68673,4.23159-46.87966,6.26056,2.91238,15.19915,5.76627,17.4291,22.45254,23.77882C844.95345,952.47289,851.43507,958.05937,859.34121,963.00619Zm429.77817,308.15755c8.92961,13.7718-9.22533,17.93418-14.58939,30.24022,6.73362,1.9119,12.66991,3.81153,18.7124,5.27153,15.704,3.79469,21.1,12.22656,17.31787,27.45746-3.62242,14.588.06322,20.19029,16.08421,24.24852,5.5772-25.633-14.33858-45.42149-16.4037-69.65317C1309.69454,1282.31986,1296.504,1276.98925,1289.11938,1271.16374Zm-132.11911-16.02849c20.46748-2.237,36.27547,3.92055,50.0916,19.14525,2.36069-17.96993,12.57109-3.847,19.25138-5.78576,1.52983-7.578-1.49836-10.68827-8.236-13.55627-19.974-8.50278-43.64217-8.74343-59.6986-26.207-.4613-.50168-2.23558.204-4.77721.51617C1154.75612,1237.88978,1155.85922,1246.36656,1157.00027,1255.13525ZM664.55683,965.25853c7.4283-18.18931,15.36124-32.8635,13.08608-50.07515-.50185-3.79675-3.892-7.21164-5.95217-10.80239-2.64429,3.16788-6.61228,5.95677-7.65075,9.58445-2.01674,7.04522-2.38816,14.56155-3.19554,20.17462-7.4116,1.95814-12.50447,3.30365-19.40227,5.126C649.45814,948.28007,655.96946,955.602,664.55683,965.25853Zm279.373,43.45855c-13.99988,19.5784-19.98461,39.5298-20.78106,63.49513C949.83394,1055.84542,956.60877,1034.9032,943.92985,1008.71708ZM857.20031,724.82165c8.60126-10.19176,15.95467-18.29915,22.4298-27.05609,1.40279-1.8972.6158-8.28525-.81078-8.9244-7.63494-3.42013-15.73354-5.87042-23.785-8.27654-8.23833-2.462-10.10818,3.101-11.92294,10.151,3.963.69905,7.211,1.27186,9.1014,1.60528C853.82649,702.83669,855.34582,712.73668,857.20031,724.82165Zm70.25184,224.06426c-7.04765-1.1395-13.34612-1.96331-19.558-3.21715-6.15519-1.24247-9.2531.41238-8.68708,7.24118.48464,5.84479.29025,11.745.75214,17.59264.62378,7.90042,4.39819,10.01529,12.23712,7.49439C925.81081,973.61846,930.132,966.22947,927.45215,948.88591Zm-392.0505,346.93216L539.92,1297.527c7.56427-4.934,15.33333-9.59066,22.58607-14.94653,2.68669-1.98384,4.16023-5.61116,6.187-8.489-3.372-2.35035-6.97284-6.92652-10.07045-6.608-7.44957.766-17.21832,1.71217-21.23594,6.56961C533.55506,1278.68546,535.818,1288.36,535.40165,1295.81807Zm316.59058-135.474c-3.82508,13.45521-6.90112,24.2754-10.16372,35.7521,3.38549,1.67066,6.40157,3.15887,10.28632,5.07593.8576-5.44643,1.51181-9.60114,2.35153-14.93367,3.8143,8.52627,6.86508,15.34569,9.91587,22.16526q1.63957-.26148,3.27915-.52311c0-10.2637,1.42893-20.81813-.57637-30.67365C866.01161,1171.93069,859.02334,1167.85827,851.99223,1160.34409Zm514.981,213.45886c7.59492-1.01208,12.96858-1.72812,21.60558-2.87892-8.24188-13.28858-16.16559-26.06395-24.08946-38.83932q-1.71024.53779-3.42079,1.07575C1363.05169,1346.81112,1365.035,1360.46178,1366.97322,1373.803ZM541.30433,560.27346c-19.50138,20.10763,5.79471,30.54462,6.206,45.648.03818,1.40106,3.67663,2.70394,8.24,5.83275C552.92942,591.982,550.65721,575.5721,541.30433,560.27346Zm777.239-90.384c-11.8962,11.9235-7.19063,24.98318,14.89737,45.22679C1328.16026,499.08548,1323.64686,485.383,1318.54335,469.88947Zm-249.30969,949.64786c-.79615-8.54282-3.73763-11.871-11.78941-10.86554-8.73154,1.09038-15.09308,4.661-17.98183,12.906-.33.94117,4.463,5.4132,6.20231,5.04491C1053.36792,1424.99027,1060.82339,1422.1886,1069.23366,1419.53733Zm-21.63334-267.13628q2.04038-.67719,4.08046-1.35437c-1.04076-15.225-2.25788-30.3943-12.24686-42.79459q-1.97016.5799-3.9403,1.15966ZM874.11893,1033.42711c12.481-11.25555,12.48187-11.42012.88817-23.82248C865.29818,1015.8618,865.1679,1018.11362,874.11893,1033.42711Zm-29.641,205.76371c3.71-4.15929,5.55608-6.229,7.40215-8.29863-4.58475-3.98481-9.06093-8.12046-13.96812-11.658-.37784-.27227-5.76568,5.05141-5.4939,5.43934C835.6392,1229.27044,839.49441,1233.42292,844.478,1239.19082Zm66.97314-8.92869,4.07012-1.12568c-.52747-16.13693-6.49019-31.73213-13.5213-31.97751C905.23255,1208.48126,908.34183,1219.37162,911.45111,1230.26213ZM759.59789,839.05323q-1.89613-.29815-3.79236-.59623c-9.74689,12.17094-10.6629,19.77878-1.04652,26.26811C756.48928,855.54551,758.04355,847.29933,759.59789,839.05323Zm-34.04047,142.468c-12.14938-16.53305-14.37086-16.80354-27.17178-4.74044C707.16784,978.313,715.2996,979.73159,725.55742,981.52124Zm45.3954-46.83458q.63678,2.30555,1.27362,4.61111c4.82928-1.2226,9.65856-2.44512,16.94786-4.29047-6.07373-6.47987-9.17178-9.785-13.05949-13.93252C774.1101,926.36108,772.53146,930.5239,770.95282,934.68666Zm312.8912,422.16406c-9.26683,5.42221-9.08648,11.79357-3.30263,19.83721C1089.632,1371.10455,1092.211,1365.18967,1083.844,1356.85072ZM626.37938,848.28305c10.85043-1.27652,11.61261-7.41927,9.18176-16.55566C627.14843,834.91278,620.4589,837.80249,626.37938,848.28305ZM832.89343,654.16489q1.10826,1.33575,2.21638,2.67144c4.20114-.36467,8.40214-.72934,13.04966-1.13278-.90782-4.96-1.62834-8.89633-2.90071-15.84819C839.86309,646.09938,836.37833,650.13213,832.89343,654.16489Zm621.67506-86.54462q1.33336-1.61916,2.66689-3.23834c-1.17857-8.00309-5.41044-12.16045-17.82732-9.88914C1445.65822,559.90481,1450.11328,563.76251,1454.56849,567.62027Z"/><path d="M337.3269,1088.56748c-7.48923,2.13659-13.17205,3.6601-18.79194,5.38778-6.03843,1.85635-12.01792,3.9046-17.24,5.61308-1.4991,6.15553-1.16,13.4397-4.60276,16.58985-3.857,3.52908-12.58018,6.18833-16.637,4.15042a83.71448,83.71448,0,0,1-25.187-19.155c-18.45848-21.20134-17.48124-47.84955-18.24305-73.82738-.148-5.04757-1.33337-10.05835-1.88979-15.10267-.34616-3.13834-1.21136-6.51038-.47348-9.43155,6.03111-23.87462,12.45159-47.65078,18.54349-71.51063.65213-2.55429,1.03854-6.21241-.27363-8.07422-15.17779-21.53661-5.84471-41.213,4.70417-60.44137,2.95448-5.38528,8.8367-9.09022,12.922-13.94782,4.81621-5.72675,10.89259-11.24121,13.2973-17.96564,4.48017-12.52749,12.83313-16.047,24.778-15.405,3.50787.18858,7.50533.37892,10.52643-1.03683,14.53318-6.80959,28.6677-14.4718,43.21425-21.25067,15.84669-7.38493,31.85808-14.45644,48.04206-21.06587,16.59173-6.776,33.25651-13.56239,50.3718-18.75259,5.20808-1.57937,13.481.352,17.704,3.86109,4.83341,4.01628,5.554,10.7-1.6658,16.23885-9.40649,7.2163-17.70826,15.87308-26.29785,25.67321,8.07209-3.11957,16.14417-6.23914,25.40495-9.81815,4.20839,14.625,8.64631,30.04788,13.08431,45.47076q2.55573.49493,5.1114.98992c3.19835-6.75781,5.1117-14.69982,9.94755-19.94852,5.0815-5.51528,12.89162-8.57185,19.63794-12.481,6.51413-3.77467,11.80677-2.618,15.72757,5.3595-4.24709,2.02719-8.41662,4.01739-12.58616,6.0075q1.08843.94332,2.17687,1.88649c-2.94946,4.68239-5.878,9.378-8.85325,14.04391-4.64908,7.291-16.65466,14.3698-.01714,22.09236,1.82355.84648,3.01327,8.48557,1.84061,9.34394-3.5092,2.56848-8.65916,5.1648-12.5928,4.4735-13.90454-2.44357-26.77407-7.50665-33.29049-21.67376-3.73276-8.11552-8.51425-6.769-14.22491-2.11385-4.90823,4.00114-10.17082,7.56752-15.57927,11.54886,5.51037,4.964,9.0836,8.57207,13.05181,11.6748,7.69056,6.01327,15.47055,10.76524,25.18524,2.9731,2.6078-2.09175,6.9283-2.04766,11.10308-1.53179-7.56035,7.94422-15.01612,13.61764-17.495,25.62978-1.74836,8.4722-13.1928,14.56236-19.01025,22.65-14.46391,20.10888-29.127,40.191-41.7814,61.43306-5.76458,9.67663-6.60194,22.19555-10.36085,33.19035-2.97914,8.714-7.06847,17.04427-10.554,25.59-9.9737,24.45327-20.42863,48.73222-29.506,73.51522-2.76061,7.53694-6.24115,14.34055-13.65527,13.67873-13.62943-1.21669-20.69827-11.73906-18.07887-23.33009C335.51044,1096.68646,336.19781,1093.6016,337.3269,1088.56748Zm8.94423-247.75976c-12.12471,6.0629-22.61,10.92315-32.7263,16.45823-13.67707,7.48331-13.94346,19.57536-1.19364,29.18463,1.61143,1.21447,3.24443,3.70243,3.22043,5.57924-.19343,15.10859-1.11654,30.21245-1.10177,45.317.00687,7.04966-.95471,17.53162,2.98085,20.45538,9.12082,6.776,12.03808,14.80375,12.96171,24.90414.17437,1.90746.6559,4.22731,1.87738,5.52983,11.187,11.92756,22.56857,23.67238,35.95413,37.61731,17.553-31.08788,33.19779-58.79627,48.84271-86.50472-5.472.59261-9.68588,3.05922-13.83393,5.63205-13.5408,8.39856-33.10939,2.88631-33.518-10.75009-.36144-12.06015-7.15769-19.73691-12.327-28.82632-2.69237-4.73416-7.32261-8.923-8.37533-13.92676-2.97295-14.13055-17.74572-28.03959-1.94371-43.17817C347.91905,847.50379,346.74787,844.61814,346.27113,840.80772Z"/><path d="M767.51732,350.49347c15.42594-15.11848,30.78689-30.304,46.29621-45.33647,15.127-14.66223,30.04111-29.57567,45.72975-43.61762,13.2956-11.9,27.56357-22.713,41.76419-34.30315,7.1054,5.59435,14.16724,8.92639,17.74357,14.49666,5.24959,8.17642-1.11387,23.93224-10.1104,29.15911-2.77826,1.61419-6.1902,2.336-8.607,4.32374-2.92789,2.40819-5.10823,5.7255-7.612,8.6494,3.114,2.114,5.9543,5.10722,9.39312,6.1777,10.50641,3.27069,12.85026,9.9336,5.77853,19.1078-4.13866,5.36918-9.245,10.03794-13.00565,15.63387-1.90116,2.829-1.77915,7.018-2.57206,10.5921q2.10774.50152,4.21533,1.003c1.24209-2.26541,2.5307-4.50689,3.71238-6.80336,1.07222-2.08366,2.0279-4.22723,3.60676-7.54679,7.34159,3.26069,14.14375,6.28169,20.0403,8.90057.59128,19.84756-11.09326,32.50405-21.15314,46.23008-13.6795,18.66463-26.49357,37.96352-39.67544,56.99273a33.88087,33.88087,0,0,0-2.652,3.98187c-1.56483,3.13227-2.95773,6.35045-4.42064,9.53362,3.95535-.56683,9.49194.34443,11.6188-1.93154,19.147-20.48855,37.74621-41.49148,56.3202-62.50794,1.43338-1.62183,1.23013-4.58954,2.17-6.76653,3.38948-7.85034,8.12741-11.91323,16.50444-5.65134a11.64815,11.64815,0,0,0,5.83333,2.5342c12.84686.6633,17.95834,7.67344,13.78364,19.40113-1.21373,3.40948-2.18137,7.01826-4.03335,10.06707-4.75225,7.8239-9.91705,14.60033,4.97145,17.89489,2.39171.52923,4.28711,12.69286,3.01977,18.77076-5.957,28.569-27.30435,48.66892-42.01826,72.409-4.56436,7.36439-7.30717,12.40827-.11654,16.45757-.78419,7.001-1.39039,12.41344-2.01963,18.03043-3.6719,4.2341-7.4571,10.17136-12.67818,14.28559-10.28041,8.10111-14.94079,5.516-20.24045-6.43252-7.19683-16.226-11.10433-32.34823-4.5453-50.42881-9.79726,0-20.47029,3.13693-26.024-.85313-5.94618-4.27207-7.07069-15.25712-12.07729-27.74753-6.16022,7.90219-10.9169,15.3827-17.129,21.34677-2.788,2.67661-9.13389,4.10426-12.68054,2.82176-3.358-1.2144-6.54352-6.414-7.41559-10.38565-3.66881-16.70944-1.88182-32.80914,9.80242-47.02929q-1.3513-1.17876-2.70248-2.35744c-2.14533,1.31566-4.36969,2.51935-6.41959,3.96982-4.47973,3.16943-8.79136,8.78258-13.32456,8.93784-3.3301.11419-8.24276-6.31538-10.04068-10.796-2.447-6.09784-2.59784-13.11728-4.26806-22.861-8.79114,3.89825-16.7167,6.58173-23.76169,10.7526-8.289,4.90731-18.8697.12735-17.924-11.03845,1.21757-14.37461,5.24442-28.87544,10.40893-42.4269,3.60853-9.46855,11.15352-17.43645,16.93183-26.062C767.92641,350.08427,767.51732,350.49347,767.51732,350.49347ZM817.665,434.26723q2.48439.541,4.9685,1.082c3.72626-5.60362,7.17867-11.41406,11.22738-16.77415,15.355-20.3287,29.981-41.32174,46.756-60.41743,8.78811-10.00385,11.863-14.45626,6.20157-25.66623-7.88058,6.83607-17.5384,12.95024-24.162,21.43393a575.23616,575.23616,0,0,0-37.44325,54.00778C820.6247,415.44483,820.06075,425.41558,817.665,434.26723Zm-37.33639-47.35459q1.69176,1.88121,3.3835,3.76226c14.02869-9.15167,30.29561-14.90487,39.87633-30.56027,8.82-14.41264,18.836-28.09314,28.32531-42.09617q-2.24334-1.72465-4.48652-3.44938Q813.87786,350.74089,780.32866,386.91264Z"/><path d="M900.70482,1684.1256c-2.72022-16.73773,9.60833-19.92053,19.58491-24.27305,6.76538-2.9519,9.88,2.318,9.63064,8.28474-.31285,7.48464,1.30073,11.81662,9.64394,13.74875,7.60658,1.76166,8.24262,10.06707,1.27724,14.2039-4.602,2.73327-10.23167,3.736-16.56589,5.914-5.06687,10.52015,13.49516,27.7671-7.73479,33.61979-5.48976.287-11.00183,1.01519-16.46337.74115-5.86953-.29457-12.71792.166-17.361-2.6427-22.89788-13.8532-45.37258-28.432-67.62291-43.31356-6.82254-4.56332-11.92914-5.359-17.76765,2.57815,5.09878,14.671,12.45071,29.44781,15.0464,45.01775,2.81194,16.86463.49321,34.51827,1.7248,51.73405.96011,13.41962-2.67737,26.14092-4.11192,39.13892-.67164,6.08492-6.26819,11.62619-9.3531,16.933-13.37618-.00458-16.721-9.7536-20.50692-18.34295-3.76739-8.54725-9.9491-15.44422-7.16611-27.29851,3.40219-14.49094,2.50434-30.31556,1.38817-45.40982-.57769-7.81348-6.3913-15.09633-8.48375-22.97865-2.43285-9.1649-4.66783-18.75112-4.4719-28.10156.11019-5.25617,4.30329-11.434,8.39712-15.40006,10.09933-9.78388,17.27024-16.38555-.56107-27.96565-21.95506-14.25812-41.86168-31.69741-62.47473-47.98841-17.42865-13.77416-35.27577-27.13218-51.65938-42.07649-11.53336-10.5203-21.50934-22.94881-30.94612-35.45679-3.21083-4.256-4.24309-11.52146,4.49125-14.58371,2.60293-.91252,3.79916-5.27478,6.22713-7.37813,3.94841-3.4205,8.07814-7.94659,12.71532-8.78849,3.03144-.55029,8.22371,3.838,10.50043,7.29658,10.04748,15.26312,18.21609,31.9159,32.72956,43.76384,12.562,10.25469,25.412,20.15793,38.19332,30.14124,1.23662.9657,3.56681.99687,4.24524,2.14058,8.701,14.667,23.50689,21.71764,37.10338,30.37746,22.32477,14.219,44.485,28.69706,66.66664,43.13939,10.63521,6.9246,21.49908,13.57222,31.58629,21.23191,4.719,3.58344,7.15754,7.25242,13.965,2.45894C886.27791,1681.98133,893.33147,1684.1256,900.70482,1684.1256Z"/><path d="M1233.29755,718.04071c12.14126-13.55722,15.62912-14.03992,29.6965-4.96337,1.58108,1.02007,3.75876,1.21145,5.70054,1.56038,10.77391,1.93531,22.5394,7.45214,32.12587,4.88138,16.70887-4.48052,32.16132-.30462,47.74805,1.69326,17.15938,2.19952,33.89011,7.87117,50.70769,12.40132,1.61594.43528,3.95624,4.19422,3.46806,5.197-1.07089,2.20033-3.48963,4.60476-5.79936,5.19338-10.35264,2.63805-20.85994,4.66872-32.06634,7.08112,1.55124,10.40522,10.37022,13.10251,18.32628,15.6862,7.55769,2.45428,15.79824,4.33708,13.06917,14.31079-3.66541,13.39553-11.27834,16.36479-23.24559,11.04761-13.52855-6.01112-25.94321-11.94447-33.81449-26.71986-7.96477-14.951-20.53335-12.89717-34.01079-2.08717-17.45539,14.00062-36.06394,28.32736-60.98574,23.60125-4.37116-.82883-8.023-5.451-12.007-8.32145,3.4239-2.96963,6.38148-7.30293,10.356-8.66247,13.94715-4.77051,17.74431-17.6815,7.39315-28.00281-3.59672-3.58625-8.52268-6.05412-11.42384-10.05984C1235.87582,728.20492,1235.1259,723.14885,1233.29755,718.04071Z"/><path d="M1328.00886,355.13538c-23.7608-4.7592-44.873-7.99855-65.4154-13.40388-17.61329-4.63459-34.45583-12.1281-51.883-17.57708-6.93983-2.1698-8.62947-6.00478-8.04277-12.40188.58212-6.34706.22629-12.83092,1.38876-19.04776.43368-2.31866,3.95152-5.704,6.14264-5.76549,9.421-.2641,19.09009-.60971,28.26918,1.15387,24.09315,4.629,47.796,11.55225,72.01032,15.19438,15.63517,2.35172,25.66507,10.67235,33.1396,22.70365,2.79421,4.4981,3.89524,13.30058,1.309,17.12094C1341.13519,348.7135,1333.33451,351.60058,1328.00886,355.13538Z"/><path d="M1325.74994,1630.52012c-16.92053-6.09334-37.65064-11.28745-56.11695-20.85284-18.15376-9.40363-35.05406-22.066-50.40061-35.67218-6.91249-6.1285-9.87244-17.71806-12.42928-27.40946-1.72983-6.5572,6.08089-10.50213,12.23726-7.47755q25.11138,12.33692,50.39263,24.32682c15.85171,7.50207,31.60992,15.26208,47.79339,21.98281,12.89265,5.354,26.45709,9.06991,39.5134,14.06209,3.29672,1.26041,8.43109,5.03383,8.13317,6.93228-.7384,4.70617-3.0276,11.18552-6.67159,13.01779C1349.37766,1623.8666,1339.42619,1626.05977,1325.74994,1630.52012Z"/><path d="M392.2994,1323.21216c6.45371,2.88247,9.99777,4.46523,13.54176,6.04813q.37445,1.64843.74888,3.297c-9.12857,3.749-18.30095,7.39556-27.37642,11.269-18.34135,7.8284-36.78544,15.44245-54.896,23.77756-17.4884,8.04867-35.63722,13.635-54.81593,13.474-3.869-.03236-9.081-6.90112-11.21-11.70922-4.08564-9.22739-3.13329-17.45023,6.69928-24.32519,21.60609-15.10682,46.59162-16.14077,71.19126-20.0981,18.86853-3.03537,37.224-9.14983,56.0242-12.77065,8.8189-1.69858,18.15324-.97175,27.24075-.76464,1.43492.0328,2.79968,3.14528,4.19687,4.83381-1.68374,1.32172-3.22738,3.51711-5.07552,3.8136C410.69267,1321.32036,402.72686,1322.02118,392.2994,1323.21216Z"/></g></svg>